<?xml version="1.0" encoding="UTF-8" standalone="no"?>
<!-- Generator: Adobe Illustrator 17.0.0, SVG Export Plug-In . SVG Version: 6.00 Build 0)  -->

<svg
   version="1.1"
   id="Warstwa_1"
   x="0px"
   y="0px"
   width="173.2px"
   height="200px"
   viewBox="0 0 173.2 200"
   enable-background="new 0 0 173.2 200"
   xml:space="preserve"
   sodipodi:docname="avatar.svg"
   inkscape:version="1.4.3 (0d15f75042, 2025-12-25)"
   xmlns:inkscape="http://www.inkscape.org/namespaces/inkscape"
   xmlns:sodipodi="http://sodipodi.sourceforge.net/DTD/sodipodi-0.dtd"
   xmlns="http://www.w3.org/2000/svg"
   xmlns:svg="http://www.w3.org/2000/svg"
   xmlns:rdf="http://www.w3.org/1999/02/22-rdf-syntax-ns#"
   xmlns:cc="http://creativecommons.org/ns#"
   xmlns:dc="http://purl.org/dc/elements/1.1/"><metadata
   id="metadata1865"><rdf:RDF><cc:Work
       rdf:about=""><dc:format>image/svg+xml</dc:format><dc:type
         rdf:resource="http://purl.org/dc/dcmitype/StillImage" /></cc:Work></rdf:RDF></metadata><defs
   id="defs1863" /><sodipodi:namedview
   pagecolor="#ffffff"
   bordercolor="#666666"
   borderopacity="1"
   objecttolerance="10"
   gridtolerance="10"
   guidetolerance="10"
   inkscape:pageopacity="0"
   inkscape:pageshadow="2"
   inkscape:window-width="1865"
   inkscape:window-height="1011"
   id="namedview1861"
   showgrid="false"
   inkscape:zoom="1.7046245"
   inkscape:cx="86.52932"
   inkscape:cy="99.728708"
   inkscape:window-x="0"
   inkscape:window-y="0"
   inkscape:window-maximized="1"
   inkscape:current-layer="Warstwa_1"
   inkscape:showpageshadow="2"
   inkscape:pagecheckerboard="0"
   inkscape:deskcolor="#d1d1d1" />








<g
   id="g997"
   transform="matrix(0.30489172,0,0,0.30489172,-139.40531,-61.631351)"><path
     id="path26-0"
     style="fill:#203e61;fill-opacity:1;stroke:none;stroke-width:1.06498;stroke-linecap:square;stroke-linejoin:round;stroke-dashoffset:0.7713"
     d="m 722.9614,287.19645 c -1.5881,-0.25295 -3.1416,0.6197 -3.75183,2.10754 l -24.86755,60.58411 c -0.82919,2.02009 0.20959,3.20329 2.33459,2.7008 16.69957,-3.94886 36.87767,-5.83106 58.49487,-1.4209 3.80912,0.77711 5.28768,-1.13279 3.3545,-4.50622 l -33.10181,-57.76611 c -0.52157,-0.90984 -1.42705,-1.53458 -2.46277,-1.69922 z m -131.79016,44.61914 c -1.726,0.27939 -2.93413,1.85704 -2.7539,3.59619 l 5.75317,55.55053 c 0.22492,2.17205 1.70449,2.72899 3.33801,1.27991 11.40553,-10.11766 23.55891,-18.37275 40.51209,-23.34045 3.73055,-1.09315 4.20788,-3.52786 0.9906,-5.71106 l -45.4596,-30.84778 c -0.69699,-0.47333 -1.54868,-0.66201 -2.38037,-0.52734 z m 243.51196,3.81591 c -4.80369,5.308 -5.50282,28.67989 -1.39892,46.75415 1.86609,8.21844 2.76747,14.94141 2.00317,14.94141 -0.7644,0 -10.09537,-4.22727 -20.73486,-9.39514 -21.80578,-10.59169 -37.38744,-15.04707 -63.09632,-18.03589 -52.60204,-6.11531 -109.10972,11.15104 -148.86108,45.48523 -35.89466,31.00311 -65.93261,73.24962 -71.44592,123.76098 -28.83331,264.16258 207.29805,235.33773 204.25808,126.2563 -2.96266,-64.17083 -70.5262,-72.16645 -94.4553,-49.97103 -24.99064,18.71034 -23.10356,61.80317 10.31441,69.40076 16.99308,2.607 34.99122,-8.35811 34.51552,-23.59659 0,-9.42629 -6.063,-17.99215 -12.79189,-17.99215 -5.8667,0 -6.31868,1.7 -1.59119,5.97839 5.1366,4.6486 3.94245,10.84647 -2.26684,16.07117 -24.13368,14.30539 -39.96271,-31.20497 -7.17224,-40.39856 45.88825,-11.42609 65.174,72.88515 -4.86153,79.75695 -64.56773,0.4339 -79.20905,-105.90312 -21.92131,-147.68175 0,0 11.41311,-8.82372 23.0365,8.00903 l 23.16284,23.11707 c 15.76188,-5.1579 56.4156,9.331 60.9906,41.99157 0,0 0.29061,0.83342 11.4917,-3.68957 4.13579,-2.4569 18.91104,-21.61822 25.89843,-35.0354 l 3.44971,-6.62659 -10.01221,-9.45557 c -7.07529,-5.70057 14.32747,-4.13799 -1.59301,-7.72705 0,0 -9.46458,-1.14908 -13.87207,7.38465 l -8.0127,15.51452 c -8.00529,-14.41598 -17.71543,-23.01442 -33.78662,-27.46215 -4.02169,-0.28528 -8.69987,-7.85716 -9.85107,-13.97828 -11.09149,-54.28371 -49.33734,-52.00507 -65.41992,-52.81494 41.06706,-3.79551 55.53037,17.58907 67.87536,38.2013 7.37499,15.58281 5.73183,14.57231 31.17371,10.65124 8.92289,-1.37518 16.79865,-2.51372 17.50305,-2.53052 0.7045,-0.0168 1.28174,-6.47891 1.28174,-14.36096 v -14.33166 l 7.93762,-8.82935 c 7.45249,-8.28893 30.274,-22.20589 32.6001,-19.87976 -14.49662,14.09226 -27.12433,27.01391 -27.2699,42.03919 0,10.3534 2.22632,14.02045 25.3125,41.68395 l 16.48681,19.75708 h 32.55616 32.55615 c -8.16221,-11.81616 -22.40864,-18.26874 -34.3396,-19.74243 l -10.64575,-1.18652 c -3.73893,-7.96732 -16.45787,-25.82814 -20.5481,-34.31213 0,-1.25068 5.99297,-6.58805 13.31726,-11.86158 20.54848,-14.79504 24.0054,-14.91403 12.96021,-0.4486 -4.0549,5.31057 -5.59115,8.65631 -4.48426,9.76318 24.77245,1.76418 160.02261,17.08312 185.72938,-45.05493 1.5067,-6.00294 -7.8026,-29.17227 -17.8308,-44.37744 -26.48137,-40.15252 -82.65267,-81.23409 -140.51882,-102.76977 -7.90485,-2.02874 -21.06246,-10.09251 -27.62878,-2.97181 z m 99.88586,73.09754 c 13.96089,-0.66368 33.78457,11.2797 28.81897,33.17871 -6.00299,26.47392 -44.43643,23.08223 -52.18322,4.08325 -8.1658,-20.02637 7.44597,-36.50522 23.36425,-37.26196 z m -424.53551,6.85547 c -2.67503,-0.46375 -4.62547,2.47321 -3.1604,4.75891 l 24.02893,37.50366 c 1.76417,2.75338 4.54216,2.70239 6.22009,-0.10437 6.9677,-11.65524 12.22568,-19.72477 21.24756,-28.22754 2.82902,-2.66625 2.16865,-5.19693 -1.6626,-5.85938 z m 434.81872,13.3612 c -5.52615,-4.6e-4 -10.00635,4.30675 -10.00672,9.62036 -6.8e-4,5.31432 4.47982,9.62265 10.00672,9.62219 5.52618,-5.2e-4 10.00556,-4.30856 10.00488,-9.62219 -3.7e-4,-5.31292 -4.47944,-9.61984 -10.00488,-9.62036 z m -431.79016,92.03064 c -0.53009,-3.7e-4 -1.15054,0.093 -1.85852,0.28564 l -41.22802,11.21704 c -2.26798,0.61604 -2.78614,3.59906 -0.85877,4.94385 l 34.33411,23.96301 c 3.18833,2.22527 5.19075,0.91256 5.08117,-2.96997 -0.27628,-9.78954 1.70461,-22.77564 6.14319,-32.78869 1.28695,-2.90325 0.68393,-4.64928 -1.61316,-4.65088 z"
     sodipodi:nodetypes="cccsscccsccssccscssssssccccssccccccccccccscccccssscccccccccccssccsccsssscccssccscscssccccsss" /></g></svg>
