<?xml version="1.0" encoding="utf-8"?>
<!-- Generator: Adobe Illustrator 21.0.2, SVG Export Plug-In . SVG Version: 6.00 Build 0)  -->
<svg version="1.1" id="Calque_1" xmlns="http://www.w3.org/2000/svg" xmlns:xlink="http://www.w3.org/1999/xlink" x="0px" y="0px"
	 viewBox="0 0 122.2 99.6" style="enable-background:new 0 0 122.2 99.6;" xml:space="preserve">
<style type="text/css">
	.st0{clip-path:url(#SVGID_2_);fill:url(#SVGID_3_);}
	.st1{clip-path:url(#SVGID_5_);fill:url(#SVGID_6_);}
	.st2{fill:#2C5884;}
	.st3{fill:#EC008C;}
</style>
<g>
	<defs>
		<polygon id="SVGID_1_" points="87.9,23.4 49.1,99.6 83.4,99.6 122.2,23.4 122.2,23.4 		"/>
	</defs>
	<clipPath id="SVGID_2_">
		<use xlink:href="#SVGID_1_"  style="overflow:visible;"/>
	</clipPath>
	
		<linearGradient id="SVGID_3_" gradientUnits="userSpaceOnUse" x1="-250.6202" y1="525.7798" x2="-248.8793" y2="525.7798" gradientTransform="matrix(-30.0147 13.6153 13.6153 30.0147 -14564.04 -12321.5117)">
		<stop  offset="0" style="stop-color:#1B75BC"/>
		<stop  offset="1" style="stop-color:#000F44"/>
	</linearGradient>
	<polygon class="st0" points="150.9,86.6 61.6,127.1 20.4,36.4 109.8,-4.1 	"/>
</g>
<g>
	<defs>
		<polygon id="SVGID_4_" points="94.2,52.2 70.1,99.6 91.4,99.6 115.5,52.2 		"/>
	</defs>
	<clipPath id="SVGID_5_">
		<use xlink:href="#SVGID_4_"  style="overflow:visible;"/>
	</clipPath>
	
		<linearGradient id="SVGID_6_" gradientUnits="userSpaceOnUse" x1="-243.397" y1="531.5745" x2="-241.6561" y2="531.5745" gradientTransform="matrix(-14.0794 10.8426 10.8426 14.0794 -9092.0879 -4773.6089)">
		<stop  offset="0" style="stop-color:#EC008C"/>
		<stop  offset="1" style="stop-color:#89004F"/>
	</linearGradient>
	<polygon class="st1" points="138.4,82 87,121.6 47.2,69.9 98.6,30.3 	"/>
</g>
<polygon class="st2" points="48.9,99.6 0,0 34.3,0 83.2,99.6 "/>
<polygon class="st3" points="38.9,99.6 11.7,44 30.8,44 58.1,99.6 "/>
</svg>
