<svg xmlns="http://www.w3.org/2000/svg" viewBox="0 0 400 225">
  <defs>
    <style>
      .cls-1 {
        isolation: isolate;
      }

      .cls-2 {
        fill: #97baf6;
      }

      .cls-3 {
        fill: #34495e;
      }

      .cls-4 {
        fill: #ddd;
      }

      .cls-5 {
        fill: #2882d3;
      }

      .cls-6 {
        opacity: 0.15;
        mix-blend-mode: multiply;
      }

      .cls-7 {
        fill: #f1912b;
      }

      .cls-8 {
        fill: #fbc362;
      }

      .cls-9 {
        fill: none;
      }
    </style>
  </defs>
  <title>guess the answer</title>
  <g class="cls-1">
    <g id="Layer_2" data-name="Layer 2">
      <g id="guess_the_answer" data-name="guess the answer">
        <g>
          <polygon class="cls-2" points="278 51.5 140.81 51.5 141.13 151.5 278 151.5 278 51.5"/>
          <polygon class="cls-3" points="270.91 98.97 279 107.35 279 153.5 139 153.5 139 132.82 171.09 100.98 187.12 116.9 199.74 104.35 238.1 65.89 270.91 98.97"/>
          <circle class="cls-3" cx="163.09" cy="73.07" r="14.58"/>
          <path class="cls-4" d="M278.14,51.56V150.4H140.94V51.56h137.2m10.4-10.4h-158V185.84h158V41.16Z"/>
          <rect class="cls-5" x="178" y="160.5" width="65" height="18" rx="6.98" ry="6.98"/>
          <g id="_Group_" data-name="&lt;Group&gt;">
            <g class="cls-6">
              <rect x="112.98" y="118.21" width="60.15" height="26.34" rx="7.48" ry="7.48"/>
              <path d="M141.92,159.88a56.19,56.19,0,0,1-9.83-.84,40.26,40.26,0,0,1-20.26,10.66c-1.26.24-2.61.47-4,.6a1.52,1.52,0,0,1-1.63-1.11c-.19-.75.37-1.21.93-1.73,2.93-2.75,6.43-4.94,7.64-14.77-8.9-5.45-14.58-13.56-14.58-22.64,0-16.49,18.68-29.82,41.74-29.82s41.74,13.33,41.74,29.82S165,159.88,141.92,159.88ZM124,124.1a6,6,0,1,0,6,6A5.95,5.95,0,0,0,124,124.1Zm17.89,0a6,6,0,1,0,6,6A5.95,5.95,0,0,0,141.92,124.1Zm17.89,0a6,6,0,1,0,6,6A5.95,5.95,0,0,0,159.81,124.1Z"/>
            </g>
            <g>
              <rect class="cls-7" x="110.7" y="115.94" width="60.15" height="26.34" rx="7.48" ry="7.48"/>
              <path class="cls-8" d="M139.64,157.61a56.19,56.19,0,0,1-9.83-.84,40.26,40.26,0,0,1-20.26,10.66c-1.26.24-2.61.47-4,.6a1.52,1.52,0,0,1-1.63-1.11c-.19-.75.37-1.21.93-1.73,2.93-2.75,6.43-4.94,7.64-14.77-8.9-5.45-14.58-13.56-14.58-22.64C97.9,111.3,116.58,98,139.64,98s41.74,13.33,41.74,29.82S162.7,157.61,139.64,157.61Zm-17.89-35.78a6,6,0,1,0,6,6A5.95,5.95,0,0,0,121.75,121.83Zm17.89,0a6,6,0,1,0,6,6A5.95,5.95,0,0,0,139.64,121.83Zm17.89,0a6,6,0,1,0,6,6A5.95,5.95,0,0,0,157.53,121.83Z"/>
            </g>
          </g>
          <g id="_Group_2" data-name="&lt;Group&gt;">
            <g class="cls-6">
              <rect x="254.08" y="118.86" width="48.12" height="22.43" rx="7.48" ry="7.48"/>
              <path d="M243.83,130.22c0-13.09,14.83-23.67,33.14-23.67s33.14,10.58,33.14,23.67c0,7.21-4.51,13.65-11.58,18,1,7.8,3.74,9.54,6.07,11.72.44.41.89.78.74,1.37a1.21,1.21,0,0,1-1.29.88c-1.11-.11-2.18-.29-3.18-.48a32,32,0,0,1-16.09-8.47,44.6,44.6,0,0,1-7.8.66C258.66,153.89,243.83,143.31,243.83,130.22Zm42.61,0a4.73,4.73,0,1,0,4.73-4.73A4.72,4.72,0,0,0,286.43,130.22Zm-14.2,0a4.73,4.73,0,1,0,4.73-4.73A4.72,4.72,0,0,0,272.23,130.22Zm-14.2,0a4.73,4.73,0,1,0,4.73-4.73A4.72,4.72,0,0,0,258,130.22Z"/>
            </g>
            <g>
              <rect class="cls-8" x="251.81" y="116.59" width="48.12" height="22.43" rx="7.48" ry="7.48"/>
              <path class="cls-7" d="M241.55,127.94c0-13.09,14.83-23.67,33.14-23.67s33.14,10.58,33.14,23.67c0,7.21-4.51,13.65-11.58,18,1,7.8,3.74,9.54,6.07,11.72.44.41.89.78.74,1.37a1.21,1.21,0,0,1-1.29.88c-1.11-.11-2.18-.29-3.18-.48a32,32,0,0,1-16.09-8.47,44.6,44.6,0,0,1-7.8.66C256.38,151.61,241.55,141,241.55,127.94Zm42.61,0a4.73,4.73,0,1,0,4.73-4.73A4.72,4.72,0,0,0,284.16,127.94Zm-14.2,0a4.73,4.73,0,1,0,4.73-4.73A4.72,4.72,0,0,0,270,127.94Zm-14.2,0a4.73,4.73,0,1,0,4.73-4.73A4.72,4.72,0,0,0,255.75,127.94Z"/>
            </g>
          </g>
        </g>
        <rect class="cls-9" width="400" height="225"/>
      </g>
    </g>
  </g>
</svg>
