<?xml version="1.0" encoding="UTF-8" standalone="no"?>
<!-- Generator: Adobe Illustrator 17.0.0, SVG Export Plug-In . SVG Version: 6.00 Build 0)  -->

<svg
   xmlns:dc="http://purl.org/dc/elements/1.1/"
   xmlns:cc="http://creativecommons.org/ns#"
   xmlns:rdf="http://www.w3.org/1999/02/22-rdf-syntax-ns#"
   xmlns:svg="http://www.w3.org/2000/svg"
   xmlns="http://www.w3.org/2000/svg"
   xmlns:sodipodi="http://sodipodi.sourceforge.net/DTD/sodipodi-0.dtd"
   xmlns:inkscape="http://www.inkscape.org/namespaces/inkscape"
   version="1.1"
   id="Warstwa_1"
   x="0px"
   y="0px"
   width="173.2px"
   height="200px"
   viewBox="0 0 173.2 200"
   enable-background="new 0 0 173.2 200"
   xml:space="preserve"
   sodipodi:docname="sygnet.svg"
   inkscape:version="0.92.3 (2405546, 2018-03-11)"><metadata
   id="metadata1865"><rdf:RDF><cc:Work
       rdf:about=""><dc:format>image/svg+xml</dc:format><dc:type
         rdf:resource="http://purl.org/dc/dcmitype/StillImage" /></cc:Work></rdf:RDF></metadata><defs
   id="defs1863" /><sodipodi:namedview
   pagecolor="#ffffff"
   bordercolor="#666666"
   borderopacity="1"
   objecttolerance="10"
   gridtolerance="10"
   guidetolerance="10"
   inkscape:pageopacity="0"
   inkscape:pageshadow="2"
   inkscape:window-width="1366"
   inkscape:window-height="713"
   id="namedview1861"
   showgrid="false"
   inkscape:zoom="2.4107031"
   inkscape:cx="86.599998"
   inkscape:cy="100"
   inkscape:window-x="0"
   inkscape:window-y="27"
   inkscape:window-maximized="1"
   inkscape:current-layer="Warstwa_1" />



<polygon
   opacity="0.04"
   stroke="#FFFFFF"
   stroke-miterlimit="10"
   enable-background="new    "
   points="0,150 86.6,200 86.6,100 "
   id="polygon1850" />


<polygon
   opacity="0.08"
   stroke="#FFFFFF"
   stroke-miterlimit="10"
   enable-background="new    "
   points="173.2,150 86.6,100 86.6,200   "
   id="polygon1856" />

<g
   id="g916"
   transform="matrix(0.84158093,0,0,0.84158093,-118.00564,-605.03192)"><path
     style="fill:#2e75a3;fill-opacity:1;stroke-width:2.08000803"
     id="path3202"
     inkscape:connector-curvature="0"
     d="m 343.43553,864.36801 c 0,0 1.66645,-0.82129 2.18012,-3.64489 8.5e-4,-0.16637 0.002,-0.33273 0.003,-0.4991 l 0.003,-0.4991 c -0.15292,-2.65854 -2.79767,-5.83094 -5.77322,-9.00295 -3.47314,-3.50727 -6.45628,-5.18615 -6.45628,-5.18615 0,0 -1.46031,-6.98665 -7.72944,-16.65552 -6.10061,-9.6701 -16.69026,-19.86006 -22.52223,-16.89921 -5.83406,2.96083 -0.7232,11.29701 -0.40302,13.79211 0.48578,2.66023 2.95611,6.99426 2.12603,6.99004 -0.99566,-0.17144 -13.51109,-23.99898 -45.12938,-17.51122 -8.15609,1.78443 -15.15564,5.24053 -20.83087,9.69742 l -0.28228,55.50379 c 2.00523,-1.98416 2.84039,-2.97814 2.84039,-2.97814 0,0 2.11081,9.98255 6.07817,14.49056 3.96737,4.50593 8.77411,7.19022 10.28682,3.87259 1.51186,-3.14918 -3.07268,-16.79821 -3.07268,-16.79821 0,0 8.60177,8.35185 11.08601,10.35885 2.48426,2.00492 7.29184,4.52284 8.64402,0.044 1.18575,-4.47972 -2.27049,-11.31016 -5.08975,-12.48701 -2.65282,-1.17808 -4.31713,-1.18654 -4.31713,-1.18654 0,0 -1.65124,-2.16913 -2.48001,-2.83883 -0.99312,-0.67053 -1.15956,-0.6693 -1.15956,-0.6693 0,0 1.50003,-0.82422 6.15509,-0.63417 4.81942,0.19088 8.64233,0.37669 8.64233,0.37669 0,0 4.29094,6.33557 6.93953,8.3434 2.4834,2.17336 8.9397,7.35744 11.25668,9.52787 2.15053,2.17167 3.47482,3.17663 4.31629,1.35084 0.67502,-1.82456 -0.46549,-6.64886 -3.43935,-10.1536 -3.14113,-3.33921 -6.45629,-5.18407 -7.61286,-6.85157 -0.98636,-1.99938 -1.64448,-3.49798 -1.64448,-3.49798 0,0 6.12889,4.51693 7.61708,6.02183 1.65547,1.3373 12.5928,8.20578 14.41555,9.37756 1.82189,1.34023 2.65828,0.51263 2.65828,0.51263 0,0 1.3243,1.00288 1.82697,0.34203 0.50268,-0.66292 1.85486,-5.1418 -1.62252,-7.81725 -3.64295,-2.84474 -5.79771,-4.18458 -5.46316,-4.51561 0.16811,-0.32981 3.81953,0.85127 4.32182,-0.14439 0.33708,-0.82806 -0.15546,-2.15945 -0.65306,-2.49472 -0.33031,-0.50287 1.0062,-1.49221 1.0062,-1.49221 0,0 1.32937,0.007 6.81282,0.53376 5.48345,0.527 19.30425,-4.05484 22.13658,-5.03865 2.83025,-0.98383 4.32942,-1.63961 4.32942,-1.63961 z m -105.09438,70.92147 c 11.50929,-7.41772 12.10285,-26.3601 5.80538,-30.04811 -1.82275,-1.17178 -3.64719,-2.01083 -5.63974,-2.52215 l -0.0439,8.6427 c 0.49761,0.33319 0.99436,0.83691 1.32092,1.66834 0.98636,1.99938 0.47648,4.48818 0.47648,4.48818 0,0 -0.15038,-3.15764 -1.30487,-4.82513 -0.16558,-0.16722 -0.33117,-0.33443 -0.49675,-0.50164 z m 0.56117,-110.34004 c -2.50161,1.81734 -4.67412,3.96495 -6.6802,6.11548 l -0.27973,55.00262 c 1.66729,-0.98767 3.16817,-1.97825 4.50638,-3.30033 0.83637,-0.82552 1.50425,-1.65397 2.17335,-2.31397 z m -7.22446,113.13029 c 2.49691,-0.48433 4.82787,-1.4707 6.66329,-2.79025 l 0.11747,-23.09781 c -0.98975,-1.33391 -1.81767,-2.16998 -1.81767,-2.16998 0,0 0.83046,0.33697 1.82189,1.34023 l 0.0439,-8.6427 c -2.15815,-0.67438 -4.48441,-1.01895 -6.64639,-0.53084 l -0.0735,14.45719 v 0 c 0.50099,-0.33019 1.33191,-0.49233 0.99312,0.67053 -0.16981,0.66462 -0.6691,0.66 -1.00197,0.66039 v 0 l -0.0431,8.47426 c 0.33286,0.002 0.83008,0.004 1.16379,-0.16045 0,0 -0.33456,0.33103 -1.1684,0.65745 z m 0.54426,-107.01481 c -11.70024,12.23732 -16.92858,27.00104 -18.10842,30.31828 -1.85486,5.1418 -13.75156,23.69187 -14.80593,34.65446 -0.88878,11.1298 -1.19089,38.2154 24.05893,41.9998 2.98906,0.51431 5.81632,0.52661 8.31117,0.0402 l 0.0566,-11.13195 c -2.33133,0.65154 -7.48784,1.2908 -13.27288,-5.38511 -7.76831,-9.0131 -3.87018,-23.61721 2.3069,-28.57274 4.00708,-3.30286 7.84014,-5.11136 11.1739,-6.92239 l 0.27972,-55.00054 z m -0.36171,71.12138 -0.0735,14.45719 c -0.50099,0.3302 -0.83385,0.3285 -1.16209,-0.17228 -0.33794,0.9965 0.32526,1.49691 1.15533,1.50113 l -0.0431,8.47426 c -5.32208,0.46996 -12.61307,-4.21924 -10.74722,-11.52172 2.20376,-8.29482 6.21255,-11.93042 10.87061,-12.73858 z" /><g
     id="g3217"
     transform="matrix(0.79577132,0.00404718,-0.00404559,0.79545881,85.069609,540.05837)"
     inkscape:transform-center-y="-44.562164"><path
       style="fill:#eddf0e"
       id="rect3215"
       sodipodi:nodetypes="sssssssss"
       inkscape:connector-curvature="0"
       d="m 227.414,246.939 13.283,-0.497 c 7.13,-0.267 16.92,4.74 16.36,13.874 l -3.482,56.799 c -0.436,7.122 -3.506,10.89 -9.149,10.891 h -17.511 c -7.135,-10e-4 -10.136,-4.519 -10.641,-11.636 l -3.979,-56.054 c -0.503,-7.119 5,-12.998 15.119,-13.377 z" /></g><g
     id="g3221"
     transform="matrix(0.64922418,-0.52595343,0.52616264,0.64897133,-183.42715,803.26876)"
     inkscape:transform-center-x="29.82031"
     inkscape:transform-center-y="-36.33424"><path
       style="fill:#fd6600"
       id="path3223"
       sodipodi:nodetypes="sssssssss"
       inkscape:connector-curvature="0"
       d="m 364.994,242.27 13.283,-0.498 c 7.129,-0.267 16.919,4.74 16.36,13.874 l -3.481,56.799 c -0.437,7.122 -3.506,10.89 -9.149,10.89 l -17.511,0.001 c -7.135,-0.001 -10.136,-4.519 -10.64,-11.636 l -3.979,-56.054 c -0.506,-7.117 4.998,-12.998 15.117,-13.376 z" /></g><g
     id="g3225"
     transform="matrix(0.16678209,-0.77078871,0.77109218,0.16671967,-177.04978,1171.1564)"
     inkscape:transform-center-x="43.056986"
     inkscape:transform-center-y="-9.8080536"><path
       style="fill:#a4dc2d"
       id="path3227"
       sodipodi:nodetypes="sssssssss"
       inkscape:connector-curvature="0"
       d="m 485.005,307.459 13.284,-0.497 c 7.129,-0.267 16.92,4.739 16.36,13.874 l -3.481,56.8 c -0.436,7.121 -3.506,10.889 -9.149,10.89 h -17.512 c -7.135,0 -10.134,-4.519 -10.64,-11.636 l -3.978,-56.054 c -0.505,-7.117 4.999,-12.998 15.116,-13.377 z" /></g><g
     id="g3229"
     transform="matrix(-0.28642661,-0.5530073,0.5532234,-0.28631193,68.020971,1374.434)"
     inkscape:transform-center-x="30.900947"
     inkscape:transform-center-y="16.468461"><path
       style="fill:#ef3e3e"
       id="path3231"
       sodipodi:nodetypes="sssssssss"
       inkscape:connector-curvature="0"
       d="m 584.441,445.677 13.283,-0.497 c 7.131,-0.266 16.921,4.741 16.36,13.874 l -3.48,56.8 c -0.438,7.121 -3.505,10.89 -9.149,10.89 h -17.511 c -7.134,0 -10.135,-4.518 -10.639,-11.635 l -3.98,-56.054 c -0.504,-7.118 4.999,-12.998 15.116,-13.378 z" /></g></g></svg>