<?xml version="1.0" encoding="UTF-8" standalone="no"?>
<svg
   xmlns:dc="http://purl.org/dc/elements/1.1/"
   xmlns:cc="http://creativecommons.org/ns#"
   xmlns:rdf="http://www.w3.org/1999/02/22-rdf-syntax-ns#"
   xmlns:svg="http://www.w3.org/2000/svg"
   xmlns="http://www.w3.org/2000/svg"
   xmlns:sodipodi="http://sodipodi.sourceforge.net/DTD/sodipodi-0.dtd"
   xmlns:inkscape="http://www.inkscape.org/namespaces/inkscape"
   width="180"
   height="40"
   id="svg3184"
   version="1.1"
   inkscape:version="1.0.2 (e86c870879, 2021-01-15)"
   sodipodi:docname="header-logo.svg"
   inkscape:export-filename="/tmp/header-logo.png"
   inkscape:export-xdpi="56.470589"
   inkscape:export-ydpi="56.470589">
  <defs
     id="defs3186" />
  <sodipodi:namedview
     id="base"
     pagecolor="#ffffff"
     bordercolor="#666666"
     borderopacity="1.0"
     inkscape:pageopacity="0.0"
     inkscape:pageshadow="2"
     inkscape:zoom="4.2382812"
     inkscape:cx="83.274477"
     inkscape:cy="50.780497"
     inkscape:document-units="px"
     inkscape:current-layer="layer1"
     showgrid="false"
     showguides="false"
     inkscape:window-width="1920"
     inkscape:window-height="1043"
     inkscape:window-x="0"
     inkscape:window-y="0"
     inkscape:window-maximized="1"
     inkscape:document-rotation="0"
     fit-margin-top="0"
     fit-margin-left="0"
     fit-margin-right="0"
     fit-margin-bottom="0">
    <sodipodi:guide
       position="-1.7155158,-9.6220785"
       orientation="0,744.09448"
       id="guide3601" />
    <sodipodi:guide
       position="742.37896,-9.6220785"
       orientation="-1052.3622,0"
       id="guide3603" />
    <sodipodi:guide
       position="742.37896,1042.7401"
       orientation="0,-744.09448"
       id="guide3605" />
    <sodipodi:guide
       position="-1.7155158,1042.7401"
       orientation="1052.3622,0"
       id="guide3607" />
  </sodipodi:namedview>
  <metadata
     id="metadata3189">
    <rdf:RDF>
      <cc:Work
         rdf:about="">
        <dc:format>image/svg+xml</dc:format>
        <dc:type
           rdf:resource="http://purl.org/dc/dcmitype/StillImage" />
        <dc:title></dc:title>
      </cc:Work>
    </rdf:RDF>
  </metadata>
  <g
     inkscape:label="Calque 1"
     inkscape:groupmode="layer"
     id="layer1"
     transform="translate(-1.7155158,-990.67447)">
    <g
       style="fill:#2e75a3;fill-opacity:1"
       transform="matrix(0.3778853,0.00192187,-0.00192112,0.37773689,-26.322121,881.44284)"
       id="g4003">
      <path
         inkscape:connector-curvature="0"
         id="path3202"
         d="m 179.52788,353.11695 c 0,0 0.79908,-0.39954 1.0388,-1.75797 0,-0.0799 0,-0.15982 0,-0.23972 v -0.23973 c -0.0799,-1.27852 -1.35843,-2.79677 -2.79677,-4.31502 -1.67807,-1.67806 -3.11641,-2.47714 -3.11641,-2.47714 0,0 -0.71917,-3.35613 -3.75567,-7.99078 -2.95659,-4.63466 -8.07069,-9.50903 -10.86746,-8.07069 -2.79677,1.43834 -0.31963,5.43373 -0.15982,6.63235 0.23973,1.27852 1.43834,3.35612 1.03881,3.35612 -0.47945,-0.0799 -6.55245,-11.50672 -21.73493,-8.31041 -3.91549,0.87899 -7.27161,2.55705 -9.98848,4.71456 v 26.68921 c 0.95889,-0.95889 1.35843,-1.43834 1.35843,-1.43834 0,0 1.03881,4.79447 2.95659,6.95198 1.91779,2.15751 4.23512,3.43604 4.95429,1.83788 0.71917,-1.51825 -1.51825,-8.07069 -1.51825,-8.07069 0,0 4.15521,3.99539 5.35382,4.95429 1.19862,0.95889 3.51595,2.15751 4.15521,0 0.55935,-2.15751 -1.11871,-5.43373 -2.47714,-5.99309 -1.27853,-0.55935 -2.07761,-0.55935 -2.07761,-0.55935 0,0 -0.79907,-1.0388 -1.19861,-1.35844 -0.47945,-0.31963 -0.55936,-0.31963 -0.55936,-0.31963 0,0 0.71917,-0.39954 2.95659,-0.31963 2.31733,0.0799 4.15521,0.15982 4.15521,0.15982 0,0 2.0776,3.03649 3.35613,3.99539 1.19861,1.0388 4.31502,3.51594 5.43373,4.55474 1.0388,1.03881 1.67806,1.51825 2.0776,0.63927 0.31963,-0.87899 -0.23972,-3.19632 -1.67806,-4.87438 -1.51825,-1.59816 -3.11641,-2.47714 -3.67576,-3.27622 -0.47945,-0.95889 -0.79908,-1.67807 -0.79908,-1.67807 0,0 2.95659,2.15752 3.67576,2.87669 0.79908,0.63926 6.07299,3.91548 6.95198,4.47483 0.87899,0.63927 1.27852,0.23973 1.27852,0.23973 0,0 0.63927,0.47944 0.87899,0.15981 0.23972,-0.31963 0.87899,-2.47714 -0.79908,-3.75566 -1.75797,-1.35844 -2.79677,-1.9977 -2.63696,-2.15752 0.0799,-0.15981 1.83788,0.39954 2.07761,-0.0799 0.15981,-0.39954 -0.0799,-1.0388 -0.31963,-1.19862 -0.15982,-0.23972 0.47944,-0.71917 0.47944,-0.71917 0,0 0.63927,0 3.27622,0.23972 2.63696,0.23973 9.26931,-1.99769 10.62774,-2.47714 1.35844,-0.47945 2.07761,-0.79908 2.07761,-0.79908 z m -50.34193,34.36036 c 5.51364,-3.59585 5.75336,-12.70534 2.71687,-14.46331 -0.87899,-0.55936 -1.75798,-0.95889 -2.71687,-1.19862 v 4.15521 c 0.23972,0.15981 0.47945,0.39954 0.63926,0.79908 0.47945,0.95889 0.23973,2.15751 0.23973,2.15751 0,0 -0.0799,-1.51825 -0.63927,-2.31733 -0.0799,-0.0799 -0.15981,-0.15981 -0.23972,-0.23972 z m 0,-53.05879 c -1.19862,0.87899 -2.23742,1.91779 -3.19631,2.95659 v 26.44949 c 0.79908,-0.47945 1.51825,-0.95889 2.15751,-1.59816 0.39954,-0.39954 0.71917,-0.79907 1.0388,-1.11871 z m -3.19631,54.41723 c 1.19862,-0.23973 2.31732,-0.71917 3.19631,-1.35844 v -11.10718 c -0.47945,-0.63927 -0.87899,-1.0388 -0.87899,-1.0388 0,0 0.39954,0.15981 0.87899,0.63926 v -4.15521 c -1.0388,-0.31963 -2.15751,-0.47945 -3.19631,-0.23972 v 6.95198 0 c 0.23972,-0.15982 0.63926,-0.23972 0.47944,0.31963 -0.0799,0.31963 -0.31963,0.31963 -0.47944,0.31963 v 0 4.0753 c 0.15981,0 0.39954,0 0.55935,-0.0799 0,0 -0.15981,0.15982 -0.55935,0.31963 v 5.35383 z m 0,-51.46064 c -5.59355,5.91318 -8.07069,13.02498 -8.63005,14.62313 -0.87898,2.47714 -6.55244,11.42682 -7.03188,16.70074 -0.39954,5.35382 -0.47945,18.3788 11.66654,20.13677 1.43834,0.23972 2.79677,0.23972 3.99539,0 v -5.35383 c -1.11871,0.31963 -3.59585,0.63927 -6.39263,-2.55705 -3.75567,-4.31502 -1.91779,-11.34691 1.0388,-13.74414 1.91779,-1.59816 3.75567,-2.47714 5.35383,-3.35613 z m 0,34.20055 v 6.95198 c -0.23973,0.15981 -0.39954,0.15981 -0.55936,-0.0799 -0.15981,0.47945 0.15982,0.71917 0.55936,0.71917 v 4.0753 c -2.55705,0.23972 -6.073,-1.9977 -5.19401,-5.51364 1.0388,-3.99539 2.95659,-5.75336 5.19401,-6.1529 z"
         style="fill:#2e75a3;fill-opacity:1;stroke:none" />
      <g
         id="g3217"
         transform="matrix(0.3825107,0,0,0.3825107,20.089286,125.61275)"
         inkscape:transform-center-y="-44.562164"
         style="fill:#2e75a3;fill-opacity:1">
        <path
           style="fill:#eddf0e;fill-opacity:1;stroke:none"
           d="m 317.497,435.66599 13.283,-0.49733 c 7.12992,-0.26696 16.9201,4.73977 16.36027,13.87359 l -3.48135,56.79988 c -0.43649,7.12156 -3.50599,10.88958 -9.1489,10.88958 h -17.51036 c -7.13493,0 -10.13574,-4.51857 -10.6409,-11.63558 l -3.97869,-56.05388 c -0.50516,-7.11701 4.99786,-12.99738 15.11693,-13.37626 z"
           id="rect3215"
           inkscape:connector-curvature="0"
           sodipodi:nodetypes="sssssssss" />
      </g>
      <g
         inkscape:transform-center-y="-36.33424"
         transform="matrix(0.31077472,-0.25449536,0.25449536,0.31077472,-108.32473,252.83556)"
         id="g3221"
         inkscape:transform-center-x="29.82031"
         style="fill:#fd6600;fill-opacity:1">
        <path
           sodipodi:nodetypes="sssssssss"
           inkscape:connector-curvature="0"
           id="path3223"
           d="m 317.497,435.66599 13.283,-0.49733 c 7.12992,-0.26696 16.9201,4.73977 16.36027,13.87359 l -3.48135,56.79988 c -0.43649,7.12156 -3.50599,10.88958 -9.1489,10.88958 h -17.51036 c -7.13493,0 -10.13574,-4.51857 -10.6409,-11.63558 l -3.97869,-56.05388 c -0.50516,-7.11701 4.99786,-12.99738 15.11693,-13.37626 z"
           style="fill:#fd6600;fill-opacity:1;stroke:none" />
      </g>
      <g
         inkscape:transform-center-x="43.056986"
         id="g3225"
         transform="matrix(0.07828233,-0.37104593,0.37104593,0.07828233,-104.36,429.7208)"
         inkscape:transform-center-y="-9.8080536"
         style="fill:#a4dc2d;fill-opacity:1">
        <path
           style="fill:#a4dc2d;fill-opacity:1;stroke:none"
           d="m 317.497,435.66599 13.283,-0.49733 c 7.12992,-0.26696 16.9201,4.73977 16.36027,13.87359 l -3.48135,56.79988 c -0.43649,7.12156 -3.50599,10.88958 -9.1489,10.88958 h -17.51036 c -7.13493,0 -10.13574,-4.51857 -10.6409,-11.63558 l -3.97869,-56.05388 c -0.50516,-7.11701 4.99786,-12.99738 15.11693,-13.37626 z"
           id="path3227"
           inkscape:connector-curvature="0"
           sodipodi:nodetypes="sssssssss" />
      </g>
      <g
         inkscape:transform-center-y="16.468461"
         transform="matrix(-0.13902763,-0.26521617,0.26521617,-0.13902763,13.934291,526.86862)"
         id="g3229"
         inkscape:transform-center-x="30.900947"
         style="fill:#ef3e3e;fill-opacity:1">
        <path
           sodipodi:nodetypes="sssssssss"
           inkscape:connector-curvature="0"
           id="path3231"
           d="m 317.497,435.66599 13.283,-0.49733 c 7.12992,-0.26696 16.9201,4.73977 16.36027,13.87359 l -3.48135,56.79988 c -0.43649,7.12156 -3.50599,10.88958 -9.1489,10.88958 h -17.51036 c -7.13493,0 -10.13574,-4.51857 -10.6409,-11.63558 l -3.97869,-56.05388 c -0.50516,-7.11701 4.99786,-12.99738 15.11693,-13.37626 z"
           style="fill:#ef3e3e;fill-opacity:1;stroke:none" />
      </g>
    </g>
    <path
       inkscape:connector-curvature="0"
       style="clip-rule:evenodd;overflow:visible;fill:#2e75a3;fill-opacity:1;fill-rule:evenodd;stroke-width:0.724762"
       id="path2819"
       d="m 170.17014,1019.5811 v -4.0046 c 1.32326,0 2.43759,-0.4528 3.34296,-1.393 0.87057,-0.9401 1.32326,-2.1589 1.32326,-3.6214 0,-1.4626 -0.41787,-2.6815 -1.32326,-3.5869 -0.87055,-0.9053 -1.98488,-1.358 -3.34296,-1.358 v -4.0742 c 1.56701,0.034 3.0992,0.4179 4.49211,1.2189 1.42771,0.8007 2.54207,1.9151 3.34298,3.308 0.80091,1.3581 1.18396,2.8556 1.18396,4.4574 0,1.6366 -0.38305,3.134 -1.18396,4.5618 -0.83575,1.4275 -1.91527,2.5071 -3.30816,3.3081 -1.35808,0.8008 -2.89027,1.1839 -4.52693,1.1839 z m 0,-18.0381 v 4.0742 h -0.0348 c -1.32326,0 -2.43759,0.4527 -3.34297,1.358 -0.87056,0.9403 -1.32325,2.1243 -1.32325,3.5869 0,1.4973 0.45269,2.7161 1.32325,3.6214 0.87056,0.9402 1.98488,1.393 3.34297,1.393 0,0 0,0 0.0348,0 v 4.0046 c -0.0348,0 -0.0348,0 -0.0696,0 -2.4724,0 -4.56174,-0.8706 -6.30287,-2.6117 -1.74112,-1.776 -2.61168,-3.9002 -2.61168,-6.4073 0,-2.6815 0.97501,-4.8753 2.9599,-6.686 1.70632,-1.5322 3.69118,-2.3331 5.91984,-2.3331 0.0347,0 0.0696,0 0.10444,0 z m -67.24233,18.0032 v -3.9001 c 1.35809,0 2.47241,-0.4875 3.34296,-1.4277 0.90539,-0.9402 1.35809,-2.159 1.35809,-3.6911 0,-1.4975 -0.4527,-2.7163 -1.35809,-3.6216 -0.87055,-0.9055 -1.98487,-1.358 -3.34296,-1.358 v -3.935 c 0.69646,0.07 1.35809,0.2437 1.98489,0.5223 0.90538,0.3831 1.74112,0.9751 2.50722,1.7411 v -1.8803 h 4.318 v 17.1673 h -4.318 v -1.8456 c -0.83574,0.8359 -1.67148,1.393 -2.54204,1.7413 -0.59198,0.2785 -1.25361,0.4177 -1.95007,0.4874 z m 13.12811,-17.5504 h 4.31799 v 1.9848 c 0.73127,-0.8357 1.56701,-1.4277 2.4724,-1.8106 0.90539,-0.418 1.88042,-0.627 2.92508,-0.627 1.07952,0 2.05454,0.2786 2.92511,0.8009 0.87055,0.5224 1.56702,1.2883 2.08937,2.2982 0.66162,-1.0099 1.53217,-1.7758 2.5072,-2.2982 1.00986,-0.5223 2.08935,-0.8009 3.27331,-0.8009 1.21881,0 2.2983,0.2786 3.20367,0.8707 0.94023,0.557 1.60186,1.2883 2.01973,2.2284 0.38304,0.9056 0.59197,2.368 0.59197,4.4225 v 10.0985 h -4.31798 v -8.7405 c 0,-1.9499 -0.24376,-3.2731 -0.73129,-3.9347 -0.48751,-0.6618 -1.21877,-1.01 -2.19382,-1.01 -0.73127,0 -1.3929,0.2089 -1.98487,0.6268 -0.59199,0.3832 -1.00986,0.9751 -1.28846,1.7063 -0.31339,0.766 -0.45266,1.95 -0.45266,3.5868 v 7.7653 h -4.31801 v -8.3226 c 0,-1.5669 -0.13929,-2.6811 -0.34821,-3.3429 -0.24378,-0.6964 -0.59201,-1.1839 -1.04468,-1.5321 -0.45271,-0.3135 -0.97504,-0.4876 -1.63667,-0.4876 -0.69645,0 -1.35808,0.2089 -1.95005,0.6268 -0.55717,0.3832 -1.00987,1.0099 -1.28845,1.7759 -0.3134,0.7661 -0.45269,1.985 -0.45269,3.6216 v 7.6609 h -4.31799 z m 32.14119,-7.069 c 0.7661,0 1.3929,0.27857 1.95006,0.80091 0.52235,0.55716 0.80094,1.21878 0.80094,1.98491 0,0.80079 -0.24376,1.42759 -0.80094,1.98467 -0.52233,0.55731 -1.18396,0.80111 -1.91522,0.80111 -0.7661,0 -1.42773,-0.2787 -1.98489,-0.83581 -0.52234,-0.52238 -0.80092,-1.21876 -0.80092,-1.98481 0,-0.76611 0.27858,-1.42773 0.80092,-1.95007 0.52234,-0.55716 1.18397,-0.80091 1.95005,-0.80091 z m -2.15898,7.069 h 4.31798 v 17.1673 h -4.31798 z m 7.76542,-6.65115 h 4.318 v 23.81845 h -4.318 z m -81.867782,4.70105 -3.099206,2.9599 c -2.124172,-2.2287 -4.492106,-3.34301 -7.103791,-3.34301 -2.228646,0 -4.109066,0.76611 -5.606434,2.26361 -1.532193,1.532 -2.298286,3.3777 -2.298286,5.5714 0,1.567 0.348227,2.925 1.009853,4.144 0.661627,1.1839 1.63666,2.1241 2.855446,2.8206 1.253616,0.6964 2.611693,1.0099 4.109061,1.0099 1.288433,0 2.472399,-0.2092 3.517071,-0.6965 1.0795,-0.4876 2.263474,-1.3582 3.51708,-2.6117 l 2.994739,3.099 c -1.706306,1.7065 -3.342958,2.8556 -4.875153,3.5172 -1.497372,0.6268 -3.238497,0.9402 -5.223377,0.9402 -3.586719,0 -6.54664,-1.1143 -8.879754,-3.4126 -2.298284,-2.2982 -3.447431,-5.2233 -3.447431,-8.8101 0,-2.2983 0.522339,-4.3527 1.601839,-6.1636 1.044679,-1.77586 2.542047,-3.23842 4.492106,-4.31785 1.950061,-1.11434 4.03942,-1.6715 6.30288,-1.6715 1.91524,0 3.760831,0.41788 5.536786,1.2188 1.775953,0.83571 3.308138,1.98481 4.596571,3.48225 z m 30.992042,1.567 v 3.935 h -0.0348 c -1.35808,0 -2.43757,0.4525 -3.34295,1.358 -0.87056,0.9402 -1.32326,2.1589 -1.32326,3.6216 0,1.4973 0.4527,2.7161 1.35808,3.6911 0.90538,0.9402 2.0197,1.4277 3.30813,1.4277 0.0348,0 0.0348,0 0.0348,0 v 3.9001 c -0.24375,0.034 -0.52233,0.034 -0.80091,0.034 -2.22864,0 -4.14387,-0.8358 -5.780533,-2.5768 -1.601834,-1.7064 -2.402756,-3.8654 -2.402756,-6.4075 0,-2.6464 0.766097,-4.8053 2.333113,-6.5118 1.567006,-1.6714 3.482256,-2.5419 5.710886,-2.5419 0.34822,0 0.6268,0.034 0.9402,0.07 v 0 z m -27.579436,-6.26805 h 4.28318 v 8.39225 c 0.835739,-0.7313 1.706308,-1.2886 2.542039,-1.6367 0.870563,-0.3832 1.706301,-0.5572 2.576864,-0.5572 1.671491,0 3.134032,0.592 4.283172,1.7759 1.009863,1.0099 1.497375,2.542 1.497375,4.4921 v 11.3521 h -4.248355 v -7.5564 c 0,-1.985 -0.06964,-3.3429 -0.278571,-4.0394 -0.174124,-0.6966 -0.52235,-1.1841 -0.940211,-1.5322 -0.452694,-0.3483 -1.009855,-0.5224 -1.671485,-0.5224 -0.905386,0 -1.636665,0.2786 -2.263461,0.8705 -0.626811,0.5225 -1.079505,1.3233 -1.323264,2.3332 -0.104468,0.5223 -0.174103,1.6715 -0.174103,3.5171 v 6.9296 h -4.28318 z" />
    <path
       inkscape:connector-curvature="0"
       style="clip-rule:evenodd;overflow:visible;fill:#2e75a3;fill-opacity:1;fill-rule:evenodd;stroke-width:0.724762"
       id="path2913"
       d="m 176.85608,1028.1821 v -0.5571 0 c 0.34824,0 0.6268,-0.069 0.90539,-0.2436 0.27859,-0.1742 0.48751,-0.4179 0.62681,-0.7314 h 0.62679 c -0.17411,0.4876 -0.48751,0.8706 -0.83574,1.1492 -0.38304,0.2438 -0.80091,0.3829 -1.28843,0.3829 z m 0,-2.1589 v -0.4875 h 1.67148 c -0.10444,-0.4876 -0.27858,-0.8706 -0.59199,-1.1143 -0.27856,-0.2438 -0.6268,-0.3831 -1.07949,-0.3831 v -0.5571 c 0.0348,0 0.0348,0 0.0348,0 0.69644,0 1.21878,0.2437 1.63665,0.6964 0.41788,0.4528 0.66164,1.0795 0.66164,1.8107 v 0.034 h -2.33313 z m 0,-2.542 v 0.5571 h -0.0348 c -0.41789,0 -0.80094,0.1393 -1.07952,0.3831 -0.3134,0.2786 -0.48752,0.6617 -0.55716,1.1143 h 1.67149 v 0.4875 h -1.70631 c 0.0347,0.4875 0.20893,0.8705 0.52235,1.1491 0.3134,0.3134 0.73126,0.4527 1.18396,0.4527 v 0.5571 c -0.6268,0 -1.18396,-0.2435 -1.60185,-0.6964 -0.45268,-0.4527 -0.69644,-1.0099 -0.69644,-1.6365 0,-0.6965 0.24376,-1.2537 0.66163,-1.7063 0.4527,-0.418 0.97503,-0.6268 1.63666,-0.6617 z m -7.27792,4.7009 v -0.5223 c 0.0349,0 0.0349,0 0.0349,0 0.45268,0 0.83573,-0.2087 1.18396,-0.5571 0.31339,-0.3483 0.4875,-0.8009 0.4875,-1.2884 0,-0.4875 -0.17411,-0.9054 -0.4875,-1.2536 -0.34823,-0.3483 -0.73128,-0.5224 -1.18396,-0.5224 0,0 0,0 -0.0349,0 v -0.5222 c 0.0349,0 0.0349,0 0.0696,0 0.34822,0 0.6268,0.07 0.94021,0.2088 0.27857,0.1393 0.52233,0.3483 0.69644,0.592 v -0.6965 h 0.55717 v 4.4226 h -0.55717 v -0.6965 c -0.17411,0.2785 -0.41787,0.4527 -0.73126,0.6268 -0.27859,0.1394 -0.62682,0.2088 -0.97504,0.2088 z m 3.72602,-0.1391 H 172.747 v -4.4226 h 0.52234 v 0.5225 c 0.1393,-0.2091 0.31341,-0.3482 0.45269,-0.4529 0.17412,-0.1042 0.38306,-0.1392 0.59199,-0.1392 v 0.6268 c -0.34823,0.034 -0.62681,0.1393 -0.76608,0.3135 -0.1393,0.174 -0.24376,0.4874 -0.24376,0.8705 z m -3.72602,-4.5269 v 0.5222 c -0.45268,0 -0.83574,0.1741 -1.18396,0.5224 -0.31341,0.3482 -0.48753,0.8009 -0.48753,1.3232 0,0.4875 0.17412,0.9054 0.48753,1.2537 0.34822,0.3481 0.73128,0.4874 1.18396,0.5222 v 0.5223 0 c -0.6268,0 -1.18396,-0.2435 -1.60182,-0.6615 -0.45271,-0.4527 -0.66165,-1.0099 -0.66165,-1.6714 0,-0.6617 0.20894,-1.2188 0.66165,-1.6716 0.41786,-0.4178 0.97502,-0.6615 1.60182,-0.6615 z m -8.25294,0.6615 v -0.5223 l 1.49737,4.3877 h 0.34822 l 1.04469,-3.3779 1.04465,3.3779 h 0.38305 l 1.49738,-4.4226 h -0.62682 l -1.07948,3.3083 -1.00987,-3.3083 h -0.41786 l -1.00986,3.3083 -1.07949,-3.3083 h -0.59198 v 0 z m 0,-0.5223 v 0.5223 h -0.83573 v 3.8654 h -0.55718 v -3.8654 h -0.83573 v -0.5572 h 0.83573 v -1.4275 h 0.55718 v 1.4275 h 0.83573 v 0 0.034 0 z m -7.03416,4.5268 v -0.5571 c 0,0 0,0 0.0347,0 0.45267,0 0.87055,-0.1739 1.18396,-0.5223 0.3134,-0.3134 0.48752,-0.766 0.48752,-1.2884 0,-0.5224 -0.17412,-0.9402 -0.48752,-1.2886 -0.31341,-0.3133 -0.73129,-0.4874 -1.2188,-0.4874 v -0.5571 c 0.62681,0 1.18396,0.2437 1.63665,0.6617 0.4527,0.4526 0.66165,1.0098 0.66165,1.6365 0,0.6617 -0.20895,1.2189 -0.66165,1.7063 -0.45269,0.4529 -0.97502,0.6964 -1.60181,0.6964 -0.0347,0 -0.0347,0 -0.0347,0 z m 3.76084,-0.1391 h -0.55717 v -3.935 h -0.59198 v -0.4876 h 0.59198 v -0.1392 c 0,-0.4528 0.10444,-0.8009 0.34823,-1.0447 0.24376,-0.209 0.59199,-0.3134 1.07949,-0.3134 h 0.0696 v 0.4874 c -0.34822,0 -0.59197,0.07 -0.73127,0.209 -0.13931,0.1394 -0.20893,0.3482 -0.20893,0.6617 v 0.1392 h 0.9402 v 0.4876 h -0.9402 z m -3.76084,-4.5618 v 0.5571 h -0.0348 c -0.45269,0 -0.83575,0.1741 -1.14914,0.4874 -0.34823,0.3484 -0.48752,0.8011 -0.48752,1.2886 0,0.5224 0.13929,0.975 0.48752,1.2884 0.31339,0.3484 0.69645,0.5223 1.18395,0.5223 v 0.5571 c -0.62678,0 -1.18395,-0.2435 -1.60184,-0.6964 -0.45268,-0.4527 -0.69644,-1.0099 -0.69644,-1.6365 0,-0.6617 0.24376,-1.2188 0.69644,-1.6716 0.45271,-0.4876 0.97506,-0.6964 1.56703,-0.6964 0.0348,0 0.0348,0 0.0348,0 z m -14.62547,4.7009 v -0.5571 0 c 0.48753,0 0.87057,-0.1739 1.2188,-0.5223 0.31339,-0.3134 0.45269,-0.766 0.45269,-1.2884 0,-0.5224 -0.1393,-0.9402 -0.48752,-1.2886 -0.3134,-0.3133 -0.69644,-0.4874 -1.18397,-0.4874 v -0.5571 c 0.62681,0 1.14915,0.2437 1.60185,0.6617 0.45268,0.4526 0.69645,1.0098 0.69645,1.6365 0,0.6617 -0.24377,1.2189 -0.66162,1.7063 -0.45271,0.4529 -1.00987,0.6964 -1.63668,0.6964 z m 2.95992,-4.5617 h 0.55716 v 0.4876 c 0.17412,-0.1742 0.38304,-0.3482 0.59198,-0.4527 0.24376,-0.07 0.48752,-0.1392 0.80093,-0.1392 0.3134,0 0.6268,0.07 0.87056,0.1739 0.24375,0.1395 0.45268,0.3136 0.59199,0.5224 0.10444,0.1742 0.17411,0.3483 0.24374,0.5919 0.0348,0.2091 0.0696,0.5225 0.0696,0.9405 v 2.2982 h -0.59197 v -2.4725 c 0,-0.5224 -0.10445,-0.9054 -0.27859,-1.1491 -0.20893,-0.2438 -0.52235,-0.3482 -0.97504,-0.3482 -0.24376,0 -0.48751,0.034 -0.66162,0.1392 -0.20893,0.1043 -0.34822,0.2787 -0.48752,0.4527 -0.0696,0.1392 -0.10444,0.2787 -0.13928,0.418 -0.0348,0.174 -0.0348,0.4179 -0.0348,0.8008 v 2.1591 h -0.55715 v -4.4226 0 z m 5.5716,2.751 h 0.55717 c 0,0.383 0.10444,0.6616 0.27859,0.8706 0.20893,0.2091 0.45269,0.3135 0.76609,0.3135 0.34821,0 0.6268,-0.1042 0.83574,-0.3135 0.20891,-0.209 0.31341,-0.4876 0.31341,-0.8706 0,-0.5222 -0.4179,-0.9402 -1.25362,-1.2187 -0.0697,0 -0.10445,-0.034 -0.13929,-0.034 -0.45269,-0.1393 -0.73127,-0.3483 -0.9402,-0.5571 -0.17414,-0.2438 -0.27859,-0.5223 -0.27859,-0.9055 0,-0.4526 0.13929,-0.8357 0.45269,-1.149 0.27858,-0.2786 0.66165,-0.4528 1.11431,-0.4528 0.4527,0 0.80094,0.1393 1.0447,0.418 0.27858,0.2783 0.41785,0.6615 0.45268,1.149 h -0.55718 c -0.0348,-0.3134 -0.13926,-0.5572 -0.27855,-0.7312 -0.17411,-0.1741 -0.38305,-0.2786 -0.66165,-0.2786 -0.27857,0 -0.52232,0.1043 -0.69644,0.2786 -0.20894,0.209 -0.27858,0.4528 -0.27858,0.7312 0,0.1741 0,0.2786 0.0697,0.418 0.0696,0.1042 0.13929,0.2088 0.27859,0.2785 0.10444,0.1042 0.34821,0.209 0.69644,0.3134 0.20894,0.07 0.34822,0.1392 0.4527,0.1741 0.38303,0.1392 0.66161,0.3134 0.83573,0.5571 0.1741,0.2438 0.24376,0.5224 0.24376,0.9055 0,0.5919 -0.13928,1.0447 -0.45269,1.3928 -0.3134,0.3483 -0.73128,0.5224 -1.25361,0.5224 -0.45271,0 -0.87057,-0.1741 -1.14915,-0.4875 -0.3134,-0.3483 -0.45269,-0.7661 -0.45269,-1.3232 z m -8.53152,-2.8902 v 0.5571 c -0.0347,0 -0.0347,0 -0.0347,0 -0.45271,0 -0.87055,0.1741 -1.18396,0.4874 -0.31342,0.3484 -0.48753,0.8011 -0.48753,1.2886 0,0.5224 0.17411,0.975 0.48753,1.2884 0.34822,0.3484 0.73125,0.5223 1.21877,0.5223 v 0.5571 c -0.66162,0 -1.18396,-0.2435 -1.63666,-0.6964 -0.4527,-0.4527 -0.66162,-1.0099 -0.66162,-1.6365 0,-0.6617 0.20892,-1.2188 0.66162,-1.6716 0.4527,-0.4876 0.97504,-0.6964 1.60185,-0.6964 0,0 0,0 0.0347,0 z m -8.94939,4.7009 v -0.5223 0 c 0.45269,0 0.83574,-0.2087 1.18396,-0.5571 0.31342,-0.3483 0.48753,-0.8009 0.48753,-1.2884 0,-0.4875 -0.17411,-0.9054 -0.48753,-1.2536 -0.34822,-0.3483 -0.73127,-0.5224 -1.18396,-0.5224 v 0 -0.5222 c 0,0 0,0 0.0347,0 0.34821,0 0.66163,0.07 0.9402,0.2088 0.27859,0.1393 0.52234,0.3483 0.69644,0.592 v -0.6965 h 0.55717 v 4.4226 h -0.55717 v -0.6965 c -0.1741,0.2785 -0.41785,0.4527 -0.69644,0.6268 -0.31341,0.1394 -0.6268,0.2088 -0.97504,0.2088 v 0 z m 3.51707,-0.1391 v -3.8654 h -0.83572 v -0.5572 h 0.83572 v -1.4275 h 0.59199 v 1.4275 h 0.83575 v 0.5572 h -0.83575 v 3.8654 z m 2.47242,-4.945 h -0.59198 v -0.9051 h 0.59198 z m -0.59198,4.945 v -4.4226 h 0.59198 v 4.4226 z m -5.39751,-4.5269 v 0.5222 c -0.48751,0 -0.87057,0.1741 -1.21879,0.5224 -0.31339,0.3482 -0.48752,0.8009 -0.48752,1.3232 0,0.4875 0.17413,0.9054 0.48752,1.2537 0.34822,0.3481 0.73128,0.4874 1.21879,0.5222 v 0.5223 h -0.0347 c -0.62681,0 -1.18398,-0.2435 -1.60185,-0.6615 -0.45269,-0.4527 -0.66163,-1.0099 -0.66163,-1.6714 0,-0.6617 0.20894,-1.2188 0.66163,-1.6716 0.41787,-0.4178 0.97504,-0.6615 1.63666,-0.6615 v 0 z m -7.10381,4.666 v -0.5571 0 c 0.48754,0 0.87058,-0.1739 1.2188,-0.5223 0.31341,-0.3134 0.48752,-0.766 0.48752,-1.2884 0,-0.5224 -0.17411,-0.9402 -0.48752,-1.2886 -0.34822,-0.3133 -0.73126,-0.4874 -1.2188,-0.4874 v -0.5571 c 0.62683,0 1.14916,0.2437 1.60185,0.6617 0.4527,0.4526 0.69646,1.0098 0.69646,1.6365 0,0.6617 -0.24376,1.2189 -0.66164,1.7063 -0.45269,0.4529 -1.00984,0.6964 -1.63667,0.6964 z m 3.5171,-0.1391 h -0.55717 v -4.4226 h 0.52234 v 0.5225 c 0.13929,-0.2091 0.3134,-0.3482 0.4527,-0.4529 0.17412,-0.1042 0.38305,-0.1392 0.59197,-0.1392 v 0.6268 c -0.34821,0.034 -0.59197,0.1393 -0.76608,0.3135 -0.1393,0.174 -0.24376,0.4874 -0.24376,0.8705 z m -3.5171,-4.5618 v 0.5571 h -0.0348 c -0.45269,0 -0.83574,0.1741 -1.18396,0.4874 -0.31342,0.3484 -0.48752,0.8011 -0.48752,1.2886 0,0.5224 0.1741,0.975 0.48752,1.2884 0.34822,0.3484 0.73127,0.5223 1.21877,0.5223 v 0.5571 c -0.62679,0 -1.18395,-0.2435 -1.63665,-0.6964 -0.41786,-0.4527 -0.66162,-1.0099 -0.66162,-1.6365 0,-0.6617 0.24376,-1.2188 0.66162,-1.6716 0.4527,-0.4876 0.97503,-0.6964 1.60184,-0.6964 z m -5.01443,4.7009 v -0.5223 c 0.4527,-0.034 0.83573,-0.2087 1.18397,-0.5571 0.3134,-0.3483 0.48752,-0.766 0.48752,-1.2884 0,-0.4875 -0.17412,-0.9054 -0.48752,-1.2536 -0.34824,-0.3483 -0.73127,-0.5224 -1.18397,-0.5224 v -0.5222 h 0.0348 c 0.6268,0 1.14915,0.2088 1.60184,0.6615 0.41787,0.4528 0.62681,1.0099 0.62681,1.6716 0,0.6615 -0.20894,1.2187 -0.66162,1.6365 -0.41788,0.4529 -0.97504,0.6964 -1.60185,0.6964 z m 0,-4.666 v 0.5222 c 0,0 0,0 -0.0348,0 -0.4527,0 -0.83575,0.1741 -1.18398,0.5572 -0.31339,0.3483 -0.48751,0.7661 -0.48751,1.2884 0,0.4875 0.17412,0.8705 0.52234,1.2188 0.3134,0.383 0.69645,0.5571 1.14915,0.5571 0,0 0,0 0.0348,0 v 0.5223 c -0.0348,0 -0.0348,0 -0.0348,0 -0.34823,0 -0.62682,-0.069 -0.90539,-0.2088 -0.27859,-0.1394 -0.52235,-0.3135 -0.7661,-0.5919 v 0.6616 h -0.55717 v -5.8501 h 0.55717 v 1.8454 0.3134 c 0.24375,-0.2785 0.52234,-0.4875 0.80092,-0.6268 0.27858,-0.1392 0.55715,-0.2088 0.90538,-0.2088 z m -5.39749,4.666 v -0.5223 0 c 0.45268,0 0.87056,-0.2087 1.18397,-0.5571 0.34822,-0.3483 0.52233,-0.8009 0.52233,-1.2884 0,-0.4875 -0.17411,-0.9054 -0.52233,-1.2536 -0.31341,-0.3483 -0.73129,-0.5224 -1.14914,-0.5224 h -0.0348 v -0.5222 h 0.0348 c 0.34821,0 0.66162,0.07 0.9402,0.2088 0.27858,0.1393 0.52234,0.3483 0.73127,0.592 v -0.6965 h 0.55716 v 4.4226 h -0.55716 v -0.6965 c -0.17411,0.2785 -0.41788,0.4527 -0.73127,0.6268 -0.3134,0.1394 -0.62681,0.2088 -0.97503,0.2088 z m 0,-4.666 v 0.5222 c -0.45269,0 -0.87056,0.1741 -1.18397,0.5224 -0.34823,0.3482 -0.52235,0.8009 -0.52235,1.3232 0,0.4875 0.17412,0.9054 0.52235,1.2537 0.31341,0.3481 0.73128,0.4874 1.18397,0.5222 v 0.5223 0 c -0.66162,0 -1.18397,-0.2435 -1.63667,-0.6615 -0.41786,-0.4527 -0.66163,-1.0099 -0.66163,-1.6714 0,-0.6617 0.24377,-1.2188 0.66163,-1.6716 0.4527,-0.4178 0.97505,-0.6615 1.63667,-0.6615 z m -8.0092,4.666 v -0.5571 0 c 0.48752,0 0.87057,-0.1739 1.18397,-0.5223 0.34823,-0.3134 0.48752,-0.766 0.48752,-1.2884 0,-0.5224 -0.13929,-0.9402 -0.48752,-1.2886 -0.3134,-0.3133 -0.69645,-0.4874 -1.18397,-0.4874 v -0.5571 c 0.62681,0 1.14915,0.2437 1.60185,0.6617 0.45269,0.4526 0.69645,1.0098 0.69645,1.6365 0,0.6617 -0.24376,1.2189 -0.69645,1.7063 -0.41788,0.4529 -0.97504,0.6964 -1.60185,0.6964 z m 2.95993,-0.1391 v -5.8501 h 0.55715 v 5.8501 z m 1.49736,0 v -5.8501 h 0.55717 v 5.8501 z m -4.45729,-4.5618 v 0.5571 c -0.0347,0 -0.0347,0 -0.0347,0 -0.45269,0 -0.87056,0.1741 -1.18397,0.4874 -0.31339,0.3484 -0.48751,0.8011 -0.48751,1.2886 0,0.5224 0.17412,0.975 0.48751,1.2884 0.31341,0.3484 0.73128,0.5223 1.21879,0.5223 v 0.5571 c -0.66162,0 -1.18397,-0.2435 -1.63665,-0.6964 -0.45269,-0.4527 -0.66163,-1.0099 -0.66163,-1.6365 0,-0.6617 0.20894,-1.2188 0.66163,-1.6716 0.45268,-0.4876 0.97503,-0.6964 1.60183,-0.6964 0,0 0,0 0.0347,0 z m -13.302185,4.7009 v -0.592 c 0.243752,-0.034 0.452693,-0.1042 0.626797,-0.2436 0.20894,-0.1742 0.417874,-0.4178 0.62681,-0.801 l -1.253607,-1.1493 v -0.94 c 0.278576,-0.1393 0.452693,-0.2438 0.591979,-0.4179 0.139292,-0.1741 0.20894,-0.383 0.20894,-0.6268 0,-0.209 -0.06964,-0.4178 -0.20894,-0.5572 -0.174111,-0.174 -0.348227,-0.2438 -0.557161,-0.2438 0,0 0,0 -0.03486,0 v -0.557 c 0.03486,0 0.03486,0 0.06964,0 0.34824,0 0.661635,0.1394 0.940219,0.4178 0.278576,0.2786 0.417869,0.592 0.417869,0.975 0,0.3135 -0.104468,0.5573 -0.313402,0.8356 -0.174118,0.2438 -0.452693,0.4181 -0.835746,0.5922 l 1.218789,1.1142 0.66163,-1.8454 h 0.661628 l -0.905395,2.2285 1.323264,1.2187 -0.383043,0.418 -1.183973,-1.0794 c -0.174111,0.4178 -0.417869,0.6963 -0.731272,0.9402 -0.278575,0.1741 -0.591979,0.2784 -0.940203,0.3132 v 0 z m 9.785125,-4.4921 c -0.24377,-0.3482 -0.55716,-0.6267 -0.87056,-0.8007 -0.31341,-0.1742 -0.69646,-0.2438 -1.11432,-0.2438 -0.66163,0 -1.21879,0.2438 -1.67148,0.6963 -0.48751,0.4877 -0.69645,1.0796 -0.69645,1.7413 0,0.7312 0.20894,1.3231 0.69645,1.8106 0.45269,0.4877 1.00985,0.7313 1.67148,0.7313 0.41786,0 0.76609,-0.1054 1.11432,-0.2785 0.3134,-0.1393 0.59197,-0.4178 0.83573,-0.7313 h 0.69645 c -0.27858,0.4875 -0.62681,0.8705 -1.07949,1.149 -0.45269,0.2788 -0.97503,0.4179 -1.53219,0.4179 -0.87056,0 -1.56701,-0.3132 -2.15899,-0.9053 -0.59199,-0.5919 -0.87057,-1.3232 -0.87057,-2.1937 0,-0.418 0.0696,-0.8012 0.24376,-1.1839 0.13929,-0.3484 0.38305,-0.6967 0.69645,-0.9751 0.27858,-0.2786 0.59198,-0.5223 0.94021,-0.6617 0.34823,-0.1393 0.73127,-0.2089 1.11432,-0.2089 0.59198,0 1.11432,0.1394 1.60183,0.4178 0.45269,0.3135 0.83574,0.6964 1.0795,1.2187 z m -9.785125,-1.6365 v 0.557 c -0.208934,0 -0.41787,0.07 -0.557162,0.2438 -0.139291,0.1394 -0.208934,0.3482 -0.208934,0.592 0,0.1741 0.03485,0.3484 0.139286,0.5224 0.104466,0.1393 0.278583,0.3132 0.522336,0.5224 0.03488,0 0.06964,-0.034 0.104467,-0.034 v 0.9403 l -0.313409,-0.2788 c -0.278576,0.1394 -0.522328,0.3134 -0.661628,0.5225 -0.139284,0.2436 -0.243753,0.4875 -0.243753,0.766 0,0.3483 0.104468,0.6267 0.313402,0.8706 0.24376,0.2088 0.48752,0.3135 0.835739,0.3135 0.03487,0 0.06964,0 0.06964,0 v 0.5919 c -0.03479,0 -0.06964,0 -0.104467,0 -0.487513,0 -0.870564,-0.1741 -1.21879,-0.5225 -0.313395,-0.3481 -0.487512,-0.766 -0.487512,-1.2535 0,-0.3482 0.104467,-0.6965 0.278585,-0.9751 0.208927,-0.3134 0.487511,-0.557 0.835738,-0.6964 -0.278585,-0.2437 -0.452694,-0.4525 -0.522337,-0.6267 -0.104466,-0.209 -0.174109,-0.418 -0.174109,-0.6616 0,-0.3832 0.139285,-0.6967 0.417861,-0.9751 0.278585,-0.2437 0.591994,-0.383 0.975038,-0.4179 v 0 z m -6.163597,7.7305 v -0.557 0 c 0.487524,0 0.905394,-0.1394 1.218797,-0.4876 0.313401,-0.3483 0.452693,-0.8008 0.452693,-1.358 v -0.1043 c -0.208942,0.2787 -0.452693,0.5224 -0.731271,0.6617 -0.278585,0.1394 -0.591993,0.2088 -0.905387,0.2088 -0.03487,0 -0.03487,0 -0.03487,0 v -0.5223 0 c 0.417876,0 0.835754,-0.1739 1.149147,-0.5223 0.348227,-0.3483 0.522344,-0.766 0.522344,-1.2535 0,-0.4876 -0.174117,-0.9402 -0.522344,-1.2886 -0.313393,-0.3481 -0.696451,-0.5222 -1.149147,-0.5222 v 0 -0.5223 c 0.348227,0 0.661636,0.07 0.940219,0.2087 0.278579,0.1054 0.52233,0.3484 0.731272,0.6269 v -0.7313 h 0.557161 v 3.6913 c 0,0.801 -0.208935,1.3928 -0.591985,1.8107 -0.383052,0.4528 -0.905389,0.6617 -1.601835,0.6617 h -0.03487 z m 0,-6.2679 v 0.5222 c -0.487513,0 -0.835739,0.1741 -1.149134,0.4874 -0.348226,0.3484 -0.522342,0.7662 -0.522342,1.2886 0,0.4875 0.174116,0.9401 0.522342,1.2884 0.313395,0.3484 0.661621,0.5223 1.149134,0.5223 v 0.5223 c -0.626805,0 -1.183966,-0.2087 -1.601827,-0.6616 -0.452693,-0.4527 -0.661636,-1.0099 -0.661636,-1.6714 0,-0.6616 0.208943,-1.1839 0.661636,-1.6367 0.417861,-0.4527 0.975022,-0.6615 1.567009,-0.6615 0,0 0,0 0.03487,0 v 0 z m 0,5.7109 v 0.557 c -0.487513,0 -0.870557,-0.1392 -1.218784,-0.3482 -0.383043,-0.2785 -0.591978,-0.592 -0.696453,-1.0099 h 0.661629 c 0.06964,0.2439 0.24376,0.4528 0.4527,0.5921 0.243752,0.1393 0.452688,0.209 0.800908,0.209 z m -17.968427,-1.0449 v -0.5223 0 c 0.452694,0 0.835741,-0.2087 1.183967,-0.5571 0.348227,-0.3483 0.487522,-0.8009 0.487522,-1.2884 0,-0.4875 -0.139295,-0.9054 -0.487522,-1.2536 -0.348226,-0.3483 -0.731273,-0.5224 -1.149138,-0.5224 -0.03482,0 -0.03482,0 -0.03482,0 v -0.5222 h 0.03482 c 0.348227,0 0.661626,0.07 0.940205,0.2088 0.278581,0.1393 0.52234,0.3483 0.696455,0.592 v -0.6965 h 0.55716 v 4.4226 h -0.55716 v -0.6965 c -0.174115,0.2785 -0.417874,0.4527 -0.696455,0.6268 -0.313398,0.1394 -0.626806,0.2088 -0.975034,0.2088 z m 3.726013,-0.1391 h -0.591978 v -4.4226 h 0.557159 v 0.5225 c 0.139287,-0.2091 0.278581,-0.3482 0.452696,-0.4529 0.139283,-0.1042 0.348218,-0.1392 0.55716,-0.1392 v 0.6268 c -0.348226,0.034 -0.591993,0.1393 -0.766094,0.3135 -0.139296,0.174 -0.208943,0.4874 -0.208943,0.8705 z m 1.497374,-4.4226 h 0.55716 v 0.4876 c 0.174111,-0.1742 0.34822,-0.3482 0.591979,-0.4527 0.24376,-0.07 0.487511,-0.1392 0.800921,-0.1392 0.313406,0 0.591977,0.07 0.870568,0.1739 0.243752,0.1395 0.452694,0.3136 0.591978,0.5224 0.104467,0.1742 0.17411,0.3483 0.208929,0.5919 0.06964,0.2091 0.06964,0.5225 0.06964,0.9405 v 2.2982 h -0.55716 v -2.4725 c 0,-0.5224 -0.104468,-0.9054 -0.278579,-1.1491 -0.208934,-0.2438 -0.522334,-0.3482 -0.975035,-0.3482 -0.278569,0 -0.487511,0.034 -0.696445,0.1392 -0.17411,0.1043 -0.348226,0.2787 -0.452686,0.4527 -0.06964,0.1392 -0.104468,0.2787 -0.1393,0.418 -0.03486,0.174 -0.03486,0.4179 -0.03486,0.8008 v 2.1591 H 72.9804 v -4.4226 0 z m 5.188557,-0.5224 h -0.55716 v -0.9051 h 0.55716 z m -0.55716,4.945 v -4.4226 h 0.55716 v 4.4226 z m 1.462541,-4.4226 h 0.557168 v 0.4876 c 0.174103,-0.1742 0.383044,-0.3482 0.626803,-0.4527 0.208936,-0.07 0.487512,-0.1392 0.766096,-0.1392 0.34822,0 0.626804,0.07 0.870564,0.1739 0.278576,0.1395 0.452687,0.3136 0.626803,0.5224 0.104467,0.1742 0.174111,0.3483 0.208942,0.5919 0.03486,0.2091 0.06964,0.5225 0.06964,0.9405 v 2.2982 h -0.557168 v -2.4725 c 0,-0.5224 -0.104466,-0.9054 -0.313394,-1.1491 -0.208935,-0.2438 -0.522344,-0.3482 -0.975037,-0.3482 -0.243761,0 -0.452695,0.034 -0.661621,0.1392 -0.208943,0.1043 -0.348234,0.2787 -0.452695,0.4527 -0.06964,0.1392 -0.139299,0.2787 -0.174117,0.418 0,0.174 -0.03488,0.4179 -0.03488,0.8008 v 2.1591 h -0.557168 v -4.4226 z m -11.317325,-0.1042 v 0.5223 c -0.487512,0 -0.870558,0.174 -1.183966,0.5222 -0.348218,0.3482 -0.522332,0.801 -0.522332,1.3233 0,0.4875 0.174114,0.9054 0.522332,1.2537 0.313408,0.3481 0.696454,0.4873 1.183966,0.5222 v 0.5224 0 c -0.661618,0 -1.218785,-0.2437 -1.636651,-0.6617 -0.452701,-0.4526 -0.661634,-1.0099 -0.661634,-1.6713 0,-0.6617 0.243759,-1.2188 0.661634,-1.6716 0.452685,-0.4178 0.975033,-0.6615 1.636651,-0.6615 z m -5.014438,4.6661 v -0.5573 0 c 0.313399,0 0.626807,-0.069 0.905379,-0.2435 0.243761,-0.1742 0.452695,-0.4179 0.591989,-0.7314 h 0.661625 c -0.208933,0.4876 -0.487512,0.8705 -0.870567,1.1491 -0.383047,0.2438 -0.800913,0.3831 -1.288426,0.3831 z m 0,-2.159 v -0.4875 h 1.671481 c -0.104467,-0.4876 -0.313407,-0.8707 -0.59198,-1.1143 -0.278587,-0.2438 -0.661633,-0.383 -1.079501,-0.383 v -0.5573 c 0,0 0,0 0.03482,0 0.661636,0 1.218787,0.2437 1.636661,0.6965 0.417867,0.4528 0.626806,1.0794 0.626806,1.8108 v 0.034 h -2.298286 z m -11.212857,-1.2189 h 2.472398 v 0.5919 h -2.472398 v 2.0895 h 2.472398 v 0.5572 h -3.064386 v -5.8501 h 3.064386 v 0.5571 h -2.472398 z m 11.212857,-1.3232 v 0.5573 c -0.03482,0 -0.03482,0 -0.06965,0 -0.417874,0 -0.766101,0.1392 -1.0795,0.383 -0.313407,0.2786 -0.487512,0.6616 -0.557159,1.1143 h 1.706307 v 0.4875 h -1.706307 c 0.03482,0.4874 0.208933,0.8705 0.522332,1.1491 0.313406,0.3134 0.696453,0.4526 1.183975,0.4526 v 0.5573 c -0.661636,0 -1.183975,-0.2437 -1.63666,-0.6965 -0.452693,-0.4528 -0.661627,-1.0098 -0.661627,-1.6365 0,-0.6966 0.208934,-1.2537 0.661627,-1.7064 0.417864,-0.418 0.975024,-0.6267 1.636662,-0.6617 z m -6.059119,2.0894 v 0.5223 h -1.915247 v -0.5223 z m 3.586713,2.4724 h -2.646512 v -5.8501 h 0.557159 v 5.2929 h 2.089353 z" />
  </g>
</svg>
