<?xml version="1.0" encoding="UTF-8" standalone="no"?>
<!-- Generator: Adobe Illustrator 17.0.0, SVG Export Plug-In . SVG Version: 6.00 Build 0)  -->

<svg
   xmlns:dc="http://purl.org/dc/elements/1.1/"
   xmlns:cc="http://creativecommons.org/ns#"
   xmlns:rdf="http://www.w3.org/1999/02/22-rdf-syntax-ns#"
   xmlns:svg="http://www.w3.org/2000/svg"
   xmlns="http://www.w3.org/2000/svg"
   xmlns:sodipodi="http://sodipodi.sourceforge.net/DTD/sodipodi-0.dtd"
   xmlns:inkscape="http://www.inkscape.org/namespaces/inkscape"
   version="1.1"
   id="Warstwa_1"
   x="0px"
   y="0px"
   width="707.1px"
   height="200px"
   viewBox="0 0 707.1 200"
   style="enable-background:new 0 0 707.1 200;"
   xml:space="preserve"
   sodipodi:docname="logo.svg"
   inkscape:version="0.92.3 (2405546, 2018-03-11)"><metadata
   id="metadata1065"><rdf:RDF><cc:Work
       rdf:about=""><dc:format>image/svg+xml</dc:format><dc:type
         rdf:resource="http://purl.org/dc/dcmitype/StillImage" /></cc:Work></rdf:RDF></metadata><defs
   id="defs1063" /><sodipodi:namedview
   pagecolor="#ffffff"
   bordercolor="#666666"
   borderopacity="1"
   objecttolerance="10"
   gridtolerance="10"
   guidetolerance="10"
   inkscape:pageopacity="0"
   inkscape:pageshadow="2"
   inkscape:window-width="1366"
   inkscape:window-height="713"
   id="namedview1061"
   showgrid="false"
   showguides="true"
   inkscape:guide-bbox="true"
   inkscape:zoom="0.80300773"
   inkscape:cx="287.39797"
   inkscape:cy="101.833"
   inkscape:window-x="0"
   inkscape:window-y="27"
   inkscape:window-maximized="1"
   inkscape:current-layer="Warstwa_1"><sodipodi:guide
     position="173.47285,91.579573"
     orientation="1,0"
     id="guide1762"
     inkscape:locked="false" /></sodipodi:namedview>
<style
   type="text/css"
   id="style1028">
	.st0{fill:#1FA8D7;}
	.st1{fill:#FFFFFF;}
	.st2{opacity:4.000000e-02;stroke:#FFFFFF;stroke-miterlimit:10;}
	.st3{opacity:8.000000e-02;stroke:#FFFFFF;stroke-miterlimit:10;}
	.st4{opacity:0;stroke:#FFFFFF;stroke-miterlimit:10;}
	.st5{fill:#333333;}
	.st6{fill:#1EA7D6;}
</style>









<g
   id="g916"
   transform="matrix(0.80255693,0,0,0.80255693,-105.87098,-582.79842)"><path
     style="fill:#2e75a3;fill-opacity:1;stroke-width:2.08000803"
     id="path3202"
     inkscape:connector-curvature="0"
     d="m 343.43553,864.36801 c 0,0 1.66645,-0.82129 2.18012,-3.64489 8.5e-4,-0.16637 0.002,-0.33273 0.003,-0.4991 l 0.003,-0.4991 c -0.15292,-2.65854 -2.79767,-5.83094 -5.77322,-9.00295 -3.47314,-3.50727 -6.45628,-5.18615 -6.45628,-5.18615 0,0 -1.46031,-6.98665 -7.72944,-16.65552 -6.10061,-9.6701 -16.69026,-19.86006 -22.52223,-16.89921 -5.83406,2.96083 -0.7232,11.29701 -0.40302,13.79211 0.48578,2.66023 2.95611,6.99426 2.12603,6.99004 -0.99566,-0.17144 -13.51109,-23.99898 -45.12938,-17.51122 -8.15609,1.78443 -15.15564,5.24053 -20.83087,9.69742 l -0.28228,55.50379 c 2.00523,-1.98416 2.84039,-2.97814 2.84039,-2.97814 0,0 2.11081,9.98255 6.07817,14.49056 3.96737,4.50593 8.77411,7.19022 10.28682,3.87259 1.51186,-3.14918 -3.07268,-16.79821 -3.07268,-16.79821 0,0 8.60177,8.35185 11.08601,10.35885 2.48426,2.00492 7.29184,4.52284 8.64402,0.044 1.18575,-4.47972 -2.27049,-11.31016 -5.08975,-12.48701 -2.65282,-1.17808 -4.31713,-1.18654 -4.31713,-1.18654 0,0 -1.65124,-2.16913 -2.48001,-2.83883 -0.99312,-0.67053 -1.15956,-0.6693 -1.15956,-0.6693 0,0 1.50003,-0.82422 6.15509,-0.63417 4.81942,0.19088 8.64233,0.37669 8.64233,0.37669 0,0 4.29094,6.33557 6.93953,8.3434 2.4834,2.17336 8.9397,7.35744 11.25668,9.52787 2.15053,2.17167 3.47482,3.17663 4.31629,1.35084 0.67502,-1.82456 -0.46549,-6.64886 -3.43935,-10.1536 -3.14113,-3.33921 -6.45629,-5.18407 -7.61286,-6.85157 -0.98636,-1.99938 -1.64448,-3.49798 -1.64448,-3.49798 0,0 6.12889,4.51693 7.61708,6.02183 1.65547,1.3373 12.5928,8.20578 14.41555,9.37756 1.82189,1.34023 2.65828,0.51263 2.65828,0.51263 0,0 1.3243,1.00288 1.82697,0.34203 0.50268,-0.66292 1.85486,-5.1418 -1.62252,-7.81725 -3.64295,-2.84474 -5.79771,-4.18458 -5.46316,-4.51561 0.16811,-0.32981 3.81953,0.85127 4.32182,-0.14439 0.33708,-0.82806 -0.15546,-2.15945 -0.65306,-2.49472 -0.33031,-0.50287 1.0062,-1.49221 1.0062,-1.49221 0,0 1.32937,0.007 6.81282,0.53376 5.48345,0.527 19.30425,-4.05484 22.13658,-5.03865 2.83025,-0.98383 4.32942,-1.63961 4.32942,-1.63961 z m -105.09438,70.92147 c 11.50929,-7.41772 12.10285,-26.3601 5.80538,-30.04811 -1.82275,-1.17178 -3.64719,-2.01083 -5.63974,-2.52215 l -0.0439,8.6427 c 0.49761,0.33319 0.99436,0.83691 1.32092,1.66834 0.98636,1.99938 0.47648,4.48818 0.47648,4.48818 0,0 -0.15038,-3.15764 -1.30487,-4.82513 -0.16558,-0.16722 -0.33117,-0.33443 -0.49675,-0.50164 z m 0.56117,-110.34004 c -2.50161,1.81734 -4.67412,3.96495 -6.6802,6.11548 l -0.27973,55.00262 c 1.66729,-0.98767 3.16817,-1.97825 4.50638,-3.30033 0.83637,-0.82552 1.50425,-1.65397 2.17335,-2.31397 z m -7.22446,113.13029 c 2.49691,-0.48433 4.82787,-1.4707 6.66329,-2.79025 l 0.11747,-23.09781 c -0.98975,-1.33391 -1.81767,-2.16998 -1.81767,-2.16998 0,0 0.83046,0.33697 1.82189,1.34023 l 0.0439,-8.6427 c -2.15815,-0.67438 -4.48441,-1.01895 -6.64639,-0.53084 l -0.0735,14.45719 v 0 c 0.50099,-0.33019 1.33191,-0.49233 0.99312,0.67053 -0.16981,0.66462 -0.6691,0.66 -1.00197,0.66039 v 0 l -0.0431,8.47426 c 0.33286,0.002 0.83008,0.004 1.16379,-0.16045 0,0 -0.33456,0.33103 -1.1684,0.65745 z m 0.54426,-107.01481 c -11.70024,12.23732 -16.92858,27.00104 -18.10842,30.31828 -1.85486,5.1418 -13.75156,23.69187 -14.80593,34.65446 -0.88878,11.1298 -1.19089,38.2154 24.05893,41.9998 2.98906,0.51431 5.81632,0.52661 8.31117,0.0402 l 0.0566,-11.13195 c -2.33133,0.65154 -7.48784,1.2908 -13.27288,-5.38511 -7.76831,-9.0131 -3.87018,-23.61721 2.3069,-28.57274 4.00708,-3.30286 7.84014,-5.11136 11.1739,-6.92239 l 0.27972,-55.00054 z m -0.36171,71.12138 -0.0735,14.45719 c -0.50099,0.3302 -0.83385,0.3285 -1.16209,-0.17228 -0.33794,0.9965 0.32526,1.49691 1.15533,1.50113 l -0.0431,8.47426 c -5.32208,0.46996 -12.61307,-4.21924 -10.74722,-11.52172 2.20376,-8.29482 6.21255,-11.93042 10.87061,-12.73858 z" /><g
     id="g3217"
     transform="matrix(0.79577132,0.00404718,-0.00404559,0.79545881,85.069609,540.05837)"
     inkscape:transform-center-y="-44.562164"><path
       style="fill:#eddf0e"
       id="rect3215"
       sodipodi:nodetypes="sssssssss"
       inkscape:connector-curvature="0"
       d="m 227.414,246.939 13.283,-0.497 c 7.13,-0.267 16.92,4.74 16.36,13.874 l -3.482,56.799 c -0.436,7.122 -3.506,10.89 -9.149,10.891 h -17.511 c -7.135,-10e-4 -10.136,-4.519 -10.641,-11.636 l -3.979,-56.054 c -0.503,-7.119 5,-12.998 15.119,-13.377 z" /></g><g
     id="g3221"
     transform="matrix(0.64922418,-0.52595343,0.52616264,0.64897133,-183.42715,803.26876)"
     inkscape:transform-center-x="29.82031"
     inkscape:transform-center-y="-36.33424"><path
       style="fill:#fd6600"
       id="path3223"
       sodipodi:nodetypes="sssssssss"
       inkscape:connector-curvature="0"
       d="m 364.994,242.27 13.283,-0.498 c 7.129,-0.267 16.919,4.74 16.36,13.874 l -3.481,56.799 c -0.437,7.122 -3.506,10.89 -9.149,10.89 l -17.511,0.001 c -7.135,-0.001 -10.136,-4.519 -10.64,-11.636 l -3.979,-56.054 c -0.506,-7.117 4.998,-12.998 15.117,-13.376 z" /></g><g
     id="g3225"
     transform="matrix(0.16678209,-0.77078871,0.77109218,0.16671967,-177.04978,1171.1564)"
     inkscape:transform-center-x="43.056986"
     inkscape:transform-center-y="-9.8080536"><path
       style="fill:#a4dc2d"
       id="path3227"
       sodipodi:nodetypes="sssssssss"
       inkscape:connector-curvature="0"
       d="m 485.005,307.459 13.284,-0.497 c 7.129,-0.267 16.92,4.739 16.36,13.874 l -3.481,56.8 c -0.436,7.121 -3.506,10.889 -9.149,10.89 h -17.512 c -7.135,0 -10.134,-4.519 -10.64,-11.636 l -3.978,-56.054 c -0.505,-7.117 4.999,-12.998 15.116,-13.377 z" /></g><g
     id="g3229"
     transform="matrix(-0.28642661,-0.5530073,0.5532234,-0.28631193,68.020971,1374.434)"
     inkscape:transform-center-x="30.900947"
     inkscape:transform-center-y="16.468461"><path
       style="fill:#ef3e3e"
       id="path3231"
       sodipodi:nodetypes="sssssssss"
       inkscape:connector-curvature="0"
       d="m 584.441,445.677 13.283,-0.497 c 7.131,-0.266 16.921,4.741 16.36,13.874 l -3.48,56.8 c -0.438,7.121 -3.505,10.89 -9.149,10.89 h -17.511 c -7.134,0 -10.135,-4.518 -10.639,-11.635 l -3.98,-56.054 c -0.504,-7.118 4.999,-12.998 15.116,-13.378 z" /></g></g><g
   id="g920"
   transform="matrix(0.70426374,0,0,0.70426374,-72.000517,-495.95533)"
   style="fill:#2e75a3;fill-opacity:1"><path
     d="m 1055.4417,888.63524 v -22.046 c 7.283,0 13.418,-2.492 18.402,-7.667 4.793,-5.176 7.285,-11.887 7.285,-19.938 0,-8.053 -2.299,-14.762 -7.285,-19.748 -4.791,-4.984 -10.926,-7.476 -18.402,-7.476 v -22.43 c 8.627,0.191 17.061,2.301 24.73,6.709 7.859,4.41 13.994,10.545 18.404,18.212 4.408,7.479 6.518,15.721 6.518,24.539 0,9.012 -2.109,17.254 -6.518,25.115 -4.602,7.859 -10.545,13.803 -18.213,18.212 -7.476,4.408 -15.911,6.518 -24.921,6.518 z m 0,-99.306 v 22.43 h -0.193 c -7.285,0 -13.42,2.492 -18.404,7.478 -4.791,5.176 -7.283,11.693 -7.283,19.746 0,8.242 2.492,14.953 7.283,19.938 4.793,5.175 10.928,7.667 18.404,7.667 0,0 0,0 0.193,0 v 22.046 c -0.193,0 -0.193,0 -0.385,0 -13.611,0 -25.113,-4.793 -34.699,-14.378 -9.586,-9.777 -14.379,-21.47 -14.379,-35.273 0,-14.762 5.369,-26.84 16.297,-36.81 9.393,-8.435 20.32,-12.844 32.59,-12.844 0.191,0 0.383,0 0.576,0 z m -370.19195,99.114 v -21.472 c 7.476,0 13.61,-2.684 18.403,-7.859 4.984,-5.176 7.477,-11.887 7.477,-20.322 0,-8.242 -2.492,-14.953 -7.477,-19.938 -4.793,-4.984 -10.927,-7.477 -18.403,-7.477 v -21.663 c 3.833,0.384 7.476,1.342 10.927,2.876 4.984,2.108 9.586,5.368 13.803,9.585 v -10.352 h 23.771 v 94.512 h -23.771 v -10.16 c -4.602,4.602 -9.201,7.667 -13.994,9.585 -3.26,1.535 -6.903,2.302 -10.736,2.685 z m 72.274,-96.621 h 23.771 v 10.928 c 4.025,-4.602 8.627,-7.86 13.611,-9.969 4.984,-2.301 10.354,-3.451 16.104,-3.451 5.943,0 11.311,1.533 16.104,4.409 4.793,2.876 8.627,7.093 11.504,12.653 3.643,-5.561 8.434,-9.777 13.803,-12.653 5.559,-2.876 11.502,-4.409 18.02,-4.409 6.711,0 12.654,1.533 17.639,4.793 5.176,3.066 8.818,7.093 11.119,12.27 2.107,4.983 3.258,13.037 3.258,24.347 v 55.595 h -23.771 v -48.118 c 0,-10.736 -1.342,-18.021 -4.025,-21.664 -2.683,-3.643 -6.711,-5.559 -12.078,-5.559 -4.025,0 -7.668,1.15 -10.928,3.452 -3.258,2.107 -5.559,5.367 -7.094,9.393 -1.725,4.219 -2.492,10.736 -2.492,19.746 v 42.751 h -23.771 v -45.817 c 0,-8.627 -0.768,-14.762 -1.916,-18.404 -1.344,-3.834 -3.26,-6.518 -5.752,-8.436 -2.492,-1.725 -5.367,-2.684 -9.01,-2.684 -3.836,0 -7.479,1.15 -10.736,3.452 -3.068,2.107 -5.561,5.559 -7.094,9.777 -1.725,4.217 -2.492,10.926 -2.492,19.938 v 42.175 h -23.771 v -94.515 z m 176.947,-38.91799 c 4.219,0 7.67,1.53399 10.736,4.40999 2.875,3.067 4.40998,6.709 4.40998,10.928 0,4.408 -1.34198,7.859 -4.40998,10.927 -2.875,3.067 -6.518,4.409 -10.543,4.409 -4.219,0 -7.861,-1.533 -10.928,-4.601 -2.877,-2.876 -4.41,-6.71 -4.41,-10.928 0,-4.218 1.533,-7.86 4.41,-10.735 2.876,-3.06799 6.518,-4.40999 10.735,-4.40999 z m -11.885,38.91799 h 23.771 v 94.512 h -23.771 z m 42.74998,-36.618 h 23.773 v 131.129 h -23.773 z m -450.70898,25.881 -17.062,16.296 c -11.694,-12.27 -24.73,-18.404 -39.108,-18.404 -12.27,0 -22.622,4.218 -30.865,12.461 -8.436,8.436 -12.653,18.596 -12.653,30.674 0,8.627 1.917,16.104 5.56,22.812 3.643,6.52 9.011,11.695 15.721,15.529 6.901,3.833 14.378,5.558 22.621,5.558 7.094,0 13.611,-1.148 19.363,-3.833 5.942,-2.684 12.461,-7.477 19.362,-14.377 l 16.487,17.062 c -9.394,9.393 -18.404,15.721 -26.84,19.363 -8.243,3.449 -17.829,5.176 -28.756,5.176 -19.746,0 -36.042,-6.135 -48.887,-18.789 -12.653,-12.652 -18.979,-28.755 -18.979,-48.501 0,-12.653 2.875,-23.964 8.819,-33.933 5.751,-9.777 13.994,-17.829 24.73,-23.771 10.735,-6.135 22.238,-9.203 34.699,-9.203 10.544,0 20.705,2.301 30.482,6.71 9.778,4.601 18.212,10.927 25.306,19.17 z m 170.623,8.627 v 21.663 h -0.191 c -7.477,0 -13.42,2.493 -18.404,7.477 -4.793,5.176 -7.285,11.887 -7.285,19.938 0,8.244 2.492,14.953 7.477,20.322 4.984,5.175 11.119,7.859 18.213,7.859 0.191,0 0.191,0 0.191,0 v 21.472 c -1.342,0.191 -2.875,0.191 -4.408,0.191 -12.27,0 -22.814,-4.602 -31.825,-14.187 -8.818,-9.393 -13.229,-21.279 -13.229,-35.273 0,-14.57 4.217,-26.457 12.844,-35.851 8.627,-9.201 19.172,-13.994 31.442,-13.994 1.915,0 3.45,0.192 5.175,0.383 z m -151.836,-34.508 h 23.581 v 46.203 c 4.602,-4.026 9.395,-7.094 13.994,-9.011 4.793,-2.108 9.395,-3.067 14.188,-3.067 9.201,0 17.254,3.259 23.58,9.777 5.561,5.559 8.244,13.996 8.244,24.73 v 62.497 h -23.389 v -41.601 c 0,-10.928 -0.385,-18.404 -1.535,-22.238 -0.957,-3.834 -2.875,-6.518 -5.176,-8.436 -2.492,-1.917 -5.559,-2.875 -9.201,-2.875 -4.984,0 -9.012,1.534 -12.461,4.793 -3.451,2.875 -5.943,7.285 -7.285,12.844 -0.576,2.877 -0.959,9.203 -0.959,19.363 v 38.149 h -23.581 z"
     inkscape:connector-curvature="0"
     id="path2819"
     style="fill:#2e75a3;fill-opacity:1" /><path
     d="m 1092.2487,935.98824 v -3.068 0 c 1.918,0 3.451,-0.383 4.984,-1.342 1.535,-0.959 2.686,-2.301 3.451,-4.025 h 3.451 c -0.959,2.684 -2.684,4.793 -4.602,6.326 -2.107,1.342 -4.408,2.109 -7.092,2.109 z m 0,-11.887 v -2.684 h 9.203 c -0.576,-2.684 -1.533,-4.793 -3.26,-6.135 -1.533,-1.342 -3.451,-2.109 -5.943,-2.109 v -3.066 c 0.193,0 0.193,0 0.193,0 3.834,0 6.709,1.342 9.01,3.834 2.301,2.492 3.643,5.941 3.643,9.969 v 0.191 z m 0,-13.994 v 3.066 h -0.191 c -2.301,0 -4.408,0.768 -5.943,2.109 -1.725,1.533 -2.684,3.643 -3.066,6.135 h 9.201 v 2.684 h -9.393 c 0.191,2.684 1.15,4.793 2.875,6.326 1.727,1.725 4.025,2.492 6.518,2.492 v 3.068 c -3.449,0 -6.518,-1.344 -8.818,-3.836 -2.492,-2.492 -3.834,-5.559 -3.834,-9.01 0,-3.834 1.342,-6.9 3.643,-9.393 2.49,-2.299 5.365,-3.449 9.008,-3.641 z m -40.067,25.881 v -2.877 c 0.191,0 0.191,0 0.191,0 2.492,0 4.602,-1.15 6.518,-3.066 1.727,-1.918 2.686,-4.41 2.686,-7.094 0,-2.684 -0.959,-4.984 -2.686,-6.902 -1.916,-1.916 -4.025,-2.875 -6.518,-2.875 0,0 0,0 -0.191,0 v -2.875 c 0.191,0 0.191,0 0.383,0 1.918,0 3.451,0.383 5.176,1.15 1.535,0.766 2.877,1.916 3.834,3.258 v -3.834 h 3.068 v 24.348 h -3.068 v -3.834 c -0.957,1.533 -2.299,2.492 -4.025,3.451 -1.533,0.766 -3.451,1.148 -5.367,1.148 v 0 0.002 z m 20.514,-0.768 h -3.068 v -24.348 h 2.875 v 2.875 c 0.768,-1.148 1.727,-1.916 2.492,-2.492 0.959,-0.574 2.109,-0.766 3.26,-0.766 v 3.451 c -1.916,0.191 -3.451,0.766 -4.217,1.725 -0.768,0.959 -1.342,2.684 -1.342,4.793 z m -20.514,-24.921 v 2.875 c -2.492,0 -4.602,0.959 -6.518,2.875 -1.727,1.918 -2.686,4.41 -2.686,7.285 0,2.684 0.959,4.984 2.686,6.902 1.916,1.916 4.025,2.684 6.518,2.875 v 2.877 0 c -3.451,0 -6.518,-1.344 -8.818,-3.643 -2.492,-2.492 -3.643,-5.561 -3.643,-9.203 0,-3.642 1.15,-6.709 3.643,-9.201 2.301,-2.301 5.367,-3.642 8.818,-3.642 z m -45.435,3.642 v -2.877 l 8.244,24.156 h 1.916 l 5.752,-18.596 5.752,18.596 h 2.107 l 8.244,-24.348 h -3.451 l -5.943,18.213 -5.559,-18.213 h -2.301 l -5.559,18.213 -5.943,-18.213 h -3.26 v 0 3.069 0 0 z m 0,-2.877 v 2.877 h -4.602 v 21.279 h -3.06597 v -21.279 h -4.602 v -3.068 h 4.602 v -7.859 h 3.06597 v 7.859 h 4.602 v 0 z m -38.72497,24.924 v -3.068 c 0,0 0,0 0.191,0 2.492,0 4.793,-0.959 6.518,-2.875 1.725,-1.727 2.684,-4.219 2.684,-7.094 0,-2.875 -0.959,-5.176 -2.684,-7.094 -1.725,-1.725 -4.025,-2.684 -6.709,-2.684 v -3.066 c 3.449,0 6.518,1.342 9.01,3.641 2.492,2.492 3.643,5.561 3.643,9.012 0,3.643 -1.15,6.709 -3.643,9.393 -2.492,2.492 -5.367,3.836 -8.818,3.836 -0.192,-10e-4 -0.192,-10e-4 -0.192,-10e-4 z m 20.703,-0.768 h -3.066 v -21.664 h -3.26 v -2.684 h 3.26 v -0.766 c 0,-2.494 0.574,-4.41 1.916,-5.752 1.344,-1.15 3.26,-1.727 5.943,-1.727 h 0.385 v 2.686 c -1.918,0 -3.26,0.383 -4.027,1.15 -0.766,0.766 -1.15,1.916 -1.15,3.643 v 0.766 h 5.178 v 2.684 h -5.178 v 21.664 z m -20.703,-25.113 v 3.066 h -0.193 c -2.492,0 -4.6,0.959 -6.326,2.684 -1.916,1.918 -2.684,4.41 -2.684,7.094 0,2.875 0.768,5.367 2.684,7.094 1.727,1.916 3.834,2.875 6.52,2.875 v 3.068 c -3.451,0 -6.52,-1.344 -8.82,-3.836 -2.492,-2.492 -3.834,-5.559 -3.834,-9.01 0,-3.643 1.342,-6.709 3.834,-9.201 2.492,-2.686 5.369,-3.834 8.627,-3.834 0.192,0 0.192,0 0.192,0 z m -80.51998,25.881 v -3.068 0 c 2.684,0 4.793,-0.959 6.711,-2.875 1.725,-1.727 2.492,-4.219 2.492,-7.094 0,-2.875 -0.768,-5.176 -2.684,-7.094 -1.727,-1.725 -3.836,-2.684 -6.52,-2.684 v -3.066 c 3.451,0 6.326,1.342 8.818,3.641 2.492,2.492 3.836,5.561 3.836,9.012 0,3.643 -1.344,6.709 -3.643,9.393 -2.49,2.491 -5.558,3.835 -9.01,3.835 z m 16.295,-25.115 h 3.068 v 2.684 c 0.959,-0.957 2.109,-1.916 3.26,-2.492 1.342,-0.383 2.684,-0.766 4.408,-0.766 1.727,0 3.451,0.383 4.793,0.957 1.342,0.768 2.492,1.727 3.26,2.877 0.574,0.959 0.957,1.916 1.342,3.258 0.191,1.15 0.383,2.877 0.383,5.178 v 12.652 h -3.26 v -13.612 c 0,-2.875 -0.574,-4.984 -1.533,-6.326 -1.15,-1.342 -2.875,-1.918 -5.367,-1.918 -1.342,0 -2.684,0.191 -3.643,0.768 -1.15,0.574 -1.918,1.533 -2.684,2.492 -0.385,0.766 -0.576,1.533 -0.768,2.301 -0.191,0.957 -0.191,2.301 -0.191,4.408 v 11.887 h -3.068 z m 30.674,15.144 h 3.068 c 0,2.109 0.574,3.643 1.533,4.793 1.15,1.15 2.492,1.727 4.219,1.727 1.916,0 3.449,-0.576 4.6,-1.727 1.15098,-1.151 1.72698,-2.684 1.72698,-4.793 0,-2.875 -2.30098,-5.176 -6.90198,-6.709 -0.383,0 -0.574,-0.191 -0.768,-0.191 -2.492,-0.768 -4.025,-1.918 -5.176,-3.068 -0.959,-1.342 -1.533,-2.875 -1.533,-4.984 0,-2.492 0.768,-4.6 2.492,-6.326 1.533,-1.533 3.643,-2.492 6.135,-2.492 2.492,0 4.41,0.768 5.75198,2.301 1.533,1.533 2.301,3.643 2.492,6.326 h -3.068 c -0.191,-1.725 -0.76598,-3.066 -1.53298,-4.025 -0.959,-0.959 -2.109,-1.533 -3.643,-1.533 -1.534,0 -2.875,0.574 -3.834,1.533 -1.15,1.15 -1.533,2.492 -1.533,4.025 0,0.959 0,1.533 0.383,2.301 0.383,0.576 0.768,1.15 1.533,1.533 0.576,0.576 1.918,1.15 3.834,1.727 1.15,0.383 1.918,0.766 2.492,0.957 2.10898,0.768 3.64298,1.727 4.60198,3.068 0.959,1.341 1.342,2.875 1.342,4.984 0,3.26 -0.766,5.752 -2.492,7.668 -1.72498,1.918 -4.02498,2.877 -6.89998,2.877 -2.494,0 -4.793,-0.959 -6.328,-2.686 -1.725,-1.916 -2.492,-4.217 -2.492,-7.283 v -0.003 z m -46.969,-15.91 v 3.066 c -0.191,0 -0.191,0 -0.191,0 -2.492,0 -4.793,0.959 -6.518,2.684 -1.727,1.918 -2.684,4.41 -2.684,7.094 0,2.875 0.957,5.367 2.684,7.094 1.916,1.916 4.025,2.875 6.709,2.875 v 3.068 c -3.643,0 -6.518,-1.344 -9.01,-3.836 -2.492,-2.492 -3.643,-5.559 -3.643,-9.01 0,-3.643 1.15,-6.709 3.643,-9.201 2.492,-2.686 5.367,-3.834 8.818,-3.834 10e-4,0 10e-4,0 0.192,0 z m -49.269,25.881 v -2.877 0 c 2.492,0 4.602,-1.15 6.52,-3.066 1.725,-1.918 2.684,-4.41 2.684,-7.094 0,-2.684 -0.959,-4.984 -2.684,-6.902 -1.918,-1.916 -4.027,-2.875 -6.52,-2.875 v 0 -2.875 c 0,0 0,0 0.191,0 1.918,0 3.643,0.383 5.178,1.15 1.533,0.766 2.875,1.916 3.834,3.258 v -3.834 h 3.066 v 24.348 h -3.066 v -3.834 c -0.959,1.533 -2.301,2.492 -3.834,3.451 -1.727,0.766 -3.451,1.148 -5.369,1.148 v 0 z m 19.363,-0.768 v -21.279 h -4.602 v -3.068 h 4.602 v -7.859 h 3.26 v 7.859 h 4.6 v 3.068 h -4.6 v 21.279 z m 13.612,-27.222 h -3.26 v -4.984 h 3.26 z m -3.26,27.222 v -24.348 h 3.26 v 24.348 z m -29.715,-24.921 v 2.875 c -2.684,0 -4.793,0.959 -6.709,2.875 -1.727,1.918 -2.684,4.41 -2.684,7.285 0,2.684 0.957,4.984 2.684,6.902 1.916,1.916 4.025,2.684 6.709,2.875 v 2.877 h -0.191 c -3.451,0 -6.518,-1.344 -8.818,-3.643 -2.492,-2.492 -3.643,-5.561 -3.643,-9.203 0,-3.642 1.15,-6.709 3.643,-9.201 2.3,-2.301 5.366,-3.642 9.009,-3.642 z m -39.109,25.689 v -3.068 0 c 2.686,0 4.793,-0.959 6.711,-2.875 1.725,-1.727 2.684,-4.219 2.684,-7.094 0,-2.875 -0.959,-5.176 -2.684,-7.094 -1.918,-1.725 -4.025,-2.684 -6.711,-2.684 v -3.066 c 3.451,0 6.328,1.342 8.82,3.641 2.492,2.492 3.834,5.561 3.834,9.012 0,3.643 -1.342,6.709 -3.643,9.393 -2.492,2.491 -5.56,3.835 -9.011,3.835 z m 19.363,-0.768 h -3.066 v -24.348 h 2.875 v 2.875 c 0.768,-1.148 1.725,-1.916 2.492,-2.492 0.959,-0.574 2.109,-0.766 3.26,-0.766 v 3.451 c -1.918,0.191 -3.26,0.766 -4.219,1.725 -0.766,0.959 -1.342,2.684 -1.342,4.793 z m -19.362,-25.113 v 3.066 h -0.193 c -2.492,0 -4.6,0.959 -6.518,2.684 -1.725,1.918 -2.684,4.41 -2.684,7.094 0,2.875 0.959,5.367 2.684,7.094 1.918,1.916 4.025,2.875 6.711,2.875 v 3.068 c -3.451,0 -6.52,-1.344 -9.012,-3.836 -2.301,-2.492 -3.643,-5.559 -3.643,-9.01 0,-3.643 1.342,-6.709 3.643,-9.201 2.492,-2.686 5.369,-3.834 8.818,-3.834 z m -27.607,25.881 v -2.877 c 2.492,-0.191 4.602,-1.15 6.518,-3.066 1.727,-1.918 2.686,-4.219 2.686,-7.094 0,-2.684 -0.959,-4.984 -2.686,-6.902 -1.916,-1.916 -4.025,-2.875 -6.518,-2.875 v -2.875 h 0.191 c 3.451,0 6.326,1.15 8.818,3.643 2.301,2.492 3.451,5.559 3.451,9.201 0,3.642 -1.15,6.711 -3.643,9.01 -2.299,2.491 -5.366,3.835 -8.817,3.835 z m 0,-25.689 v 2.875 c 0,0 0,0 -0.191,0 -2.492,0 -4.602,0.959 -6.518,3.068 -1.727,1.916 -2.686,4.217 -2.686,7.092 0,2.684 0.959,4.793 2.877,6.711 1.725,2.107 3.834,3.066 6.326,3.066 0,0 0,0 0.191,0 v 2.877 c -0.191,0 -0.191,0 -0.191,0 -1.918,0 -3.451,-0.385 -4.984,-1.15 -1.533,-0.768 -2.875,-1.727 -4.219,-3.26 v 3.643 h -3.066 v -32.207 h 3.066 v 10.16 1.725 c 1.344,-1.533 2.877,-2.684 4.41,-3.449 1.534,-0.769 3.069,-1.151 4.985,-1.151 z m -29.715,25.689 v -2.877 0 c 2.492,0 4.793,-1.15 6.518,-3.066 1.918,-1.918 2.877,-4.41 2.877,-7.094 0,-2.684 -0.959,-4.984 -2.877,-6.902 -1.725,-1.916 -4.025,-2.875 -6.326,-2.875 h -0.192 v -2.875 h 0.191 c 1.918,0 3.643,0.383 5.176,1.15 1.535,0.766 2.877,1.916 4.027,3.258 v -3.834 h 3.066 v 24.348 h -3.066 v -3.834 c -0.959,1.533 -2.301,2.492 -4.027,3.451 -1.725,0.766 -3.449,1.148 -5.367,1.148 z m 0,-25.689 v 2.875 c -2.492,0 -4.793,0.959 -6.518,2.875 -1.918,1.918 -2.877,4.41 -2.877,7.285 0,2.684 0.959,4.984 2.877,6.902 1.725,1.916 4.025,2.684 6.518,2.875 v 2.877 0 c -3.643,0 -6.518,-1.344 -9.01,-3.643 -2.301,-2.492 -3.643,-5.561 -3.643,-9.203 0,-3.642 1.342,-6.709 3.643,-9.201 2.493,-2.301 5.368,-3.642 9.01,-3.642 z m -44.094,25.689 v -3.068 0 c 2.684,0 4.793,-0.959 6.518,-2.875 1.918,-1.727 2.686,-4.219 2.686,-7.094 0,-2.875 -0.768,-5.176 -2.686,-7.094 -1.725,-1.725 -3.834,-2.684 -6.518,-2.684 v -3.066 c 3.451,0 6.326,1.342 8.818,3.641 2.492,2.492 3.834,5.561 3.834,9.012 0,3.643 -1.342,6.709 -3.834,9.393 -2.3,2.491 -5.366,3.835 -8.818,3.835 z m 16.295,-0.768 v -32.207 h 3.068 v 32.207 z m 8.245,0 v -32.207 h 3.068 v 32.207 z m -24.54,-25.113 v 3.066 c -0.191,0 -0.191,0 -0.191,0 -2.492,0 -4.792,0.959 -6.517,2.684 -1.727,1.918 -2.684,4.41 -2.684,7.094 0,2.875 0.957,5.367 2.684,7.094 1.725,1.916 4.025,2.875 6.708,2.875 v 3.068 c -3.643,0 -6.517,-1.344 -9.009,-3.836 -2.492,-2.492 -3.642,-5.559 -3.642,-9.01 0,-3.643 1.15,-6.709 3.642,-9.201 2.492,-2.686 5.367,-3.834 8.818,-3.834 0,0 0,0 0.191,0 z m -73.231,25.881 v -3.26 c 1.342,-0.191 2.492,-0.576 3.451,-1.342 1.15,-0.959 2.299,-2.301 3.449,-4.41 l -6.9,-6.326 v -5.176 c 1.533,-0.768 2.492,-1.342 3.258,-2.301 0.768,-0.959 1.15,-2.109 1.15,-3.451 0,-1.15 -0.383,-2.301 -1.15,-3.066 -0.957,-0.959 -1.916,-1.342 -3.066,-1.342 0,0 0,0 -0.191,0 v -3.068 c 0.191,0 0.191,0 0.383,0 1.918,0 3.643,0.768 5.176,2.301 1.535,1.533 2.301,3.26 2.301,5.367 0,1.727 -0.574,3.068 -1.725,4.602 -0.959,1.342 -2.492,2.301 -4.602,3.26 l 6.711,6.135 3.641,-10.162 h 3.643 l -4.984,12.27 7.285,6.711 -2.107,2.301 -6.52,-5.943 c -0.957,2.301 -2.301,3.834 -4.025,5.176 -1.533,0.959 -3.26,1.533 -5.176,1.725 v 0 -10e-4 z m 53.869,-24.732 c -1.342,-1.916 -3.066,-3.449 -4.791,-4.408 -1.727,-0.959 -3.836,-1.342 -6.135,-1.342 -3.643,0 -6.711,1.342 -9.203,3.834 -2.684,2.684 -3.834,5.943 -3.834,9.586 0,4.025 1.15,7.285 3.834,9.969 2.492,2.684 5.561,4.025 9.203,4.025 2.299,0 4.217,-0.574 6.135,-1.533 1.725,-0.768 3.258,-2.301 4.6,-4.025 h 3.834 c -1.533,2.684 -3.449,4.791 -5.941,6.326 -2.492,1.533 -5.369,2.301 -8.436,2.301 -4.793,0 -8.627,-1.727 -11.887,-4.986 -3.26,-3.258 -4.793,-7.283 -4.793,-12.076 0,-2.301 0.385,-4.41 1.342,-6.52 0.768,-1.916 2.109,-3.834 3.834,-5.367 1.535,-1.533 3.26,-2.875 5.178,-3.643 1.916,-0.768 4.025,-1.15 6.135,-1.15 3.258,0 6.135,0.768 8.818,2.301 2.492,1.725 4.602,3.834 5.943,6.709 h -3.836 z m -53.869,-9.01 v 3.068 c -1.15,0 -2.301,0.383 -3.068,1.342 -0.766,0.766 -1.15,1.916 -1.15,3.258 0,0.959 0.191,1.918 0.768,2.877 0.574,0.766 1.533,1.725 2.875,2.875 0.191,0 0.385,-0.191 0.576,-0.191 v 5.176 l -1.727,-1.533 c -1.533,0.768 -2.875,1.725 -3.643,2.875 -0.766,1.342 -1.342,2.684 -1.342,4.219 0,1.916 0.576,3.449 1.727,4.793 1.342,1.148 2.684,1.725 4.6,1.725 0.193,0 0.385,0 0.385,0 v 3.26 c -0.191,0 -0.385,0 -0.576,0 -2.684,0 -4.793,-0.959 -6.709,-2.877 -1.727,-1.916 -2.684,-4.217 -2.684,-6.9 0,-1.918 0.574,-3.834 1.533,-5.369 1.15,-1.725 2.684,-3.066 4.602,-3.834 -1.535,-1.342 -2.492,-2.492 -2.877,-3.451 -0.574,-1.15 -0.957,-2.299 -0.957,-3.643 0,-2.107 0.766,-3.834 2.299,-5.367 1.534,-1.344 3.258,-2.112 5.368,-2.303 z m -33.934,42.56 v -3.068 0 c 2.684,0 4.984,-0.766 6.711,-2.684 1.725,-1.918 2.492,-4.41 2.492,-7.477 v -0.576 c -1.15,1.535 -2.492,2.877 -4.027,3.643 -1.533,0.768 -3.258,1.15 -4.984,1.15 -0.191,0 -0.191,0 -0.191,0 v -2.875 0 c 2.301,0 4.602,-0.959 6.326,-2.875 1.918,-1.918 2.877,-4.219 2.877,-6.902 0,-2.683 -0.959,-5.176 -2.877,-7.094 -1.725,-1.916 -3.834,-2.875 -6.326,-2.875 v 0 -2.875 c 1.918,0 3.643,0.383 5.176,1.15 1.535,0.574 2.877,1.916 4.027,3.449 v -4.025 h 3.066 v 20.322 c 0,4.408 -1.15,7.668 -3.258,9.969 -2.109,2.492 -4.986,3.643 -8.82,3.643 z m 0,-34.507 v 2.875 c -2.684,0 -4.602,0.959 -6.326,2.684 -1.916,1.918 -2.875,4.219 -2.875,7.094 0,2.684 0.959,5.176 2.875,7.094 1.727,1.916 3.643,2.875 6.326,2.875 v 2.875 c -3.451,0 -6.518,-1.15 -8.818,-3.643 -2.492,-2.492 -3.643,-5.559 -3.643,-9.201 0,-3.642 1.15,-6.518 3.643,-9.01 2.301,-2.492 5.367,-3.643 8.627,-3.643 0,0 0,0 0.191,0 z m 0,31.439 v 3.068 c -2.684,0 -4.793,-0.768 -6.709,-1.918 -2.109,-1.533 -3.26,-3.26 -3.834,-5.559 h 3.643 c 0.383,1.342 1.342,2.492 2.492,3.258 1.342,0.768 2.492,1.151 4.408,1.151 z m -98.923,-5.75 v -2.877 0 c 2.492,0 4.602,-1.15 6.519,-3.066 1.917,-1.918 2.684,-4.41 2.684,-7.094 0,-2.684 -0.767,-4.984 -2.684,-6.902 -1.917,-1.916 -4.026,-2.875 -6.326,-2.875 -0.192,0 -0.192,0 -0.192,0 v -2.875 h 0.192 c 1.917,0 3.643,0.383 5.176,1.15 1.534,0.766 2.876,1.916 3.834,3.258 v -3.834 h 3.067 v 24.348 h -3.067 v -3.834 c -0.958,1.533 -2.3,2.492 -3.834,3.451 -1.726,0.766 -3.45,1.148 -5.368,1.148 v 0 0.002 z m 20.514,-0.768 h -3.26 v -24.348 h 3.067 v 2.875 c 0.768,-1.148 1.534,-1.916 2.492,-2.492 0.768,-0.574 1.918,-0.766 3.067,-0.766 v 3.451 c -1.917,0.191 -3.259,0.766 -4.217,1.725 -0.768,0.959 -1.15,2.684 -1.15,4.793 v 14.762 z m 8.243,-24.347 h 3.067 v 2.684 c 0.959,-0.957 1.917,-1.916 3.259,-2.492 1.343,-0.383 2.685,-0.766 4.41,-0.766 1.725,0 3.259,0.383 4.792,0.957 1.343,0.768 2.492,1.727 3.26,2.877 0.575,0.959 0.958,1.916 1.149,3.258 0.384,1.15 0.384,2.877 0.384,5.178 v 12.652 h -3.067 v -13.612 c 0,-2.875 -0.575,-4.984 -1.533,-6.326 -1.15,-1.342 -2.876,-1.918 -5.368,-1.918 -1.534,0 -2.684,0.191 -3.834,0.768 -0.959,0.574 -1.917,1.533 -2.492,2.492 -0.384,0.766 -0.575,1.533 -0.768,2.301 -0.191,0.957 -0.191,2.301 -0.191,4.408 v 11.887 h -3.067 v -24.348 z m 28.564,-2.875 h -3.066 v -4.984 h 3.066 z m -3.066,27.222 v -24.348 h 3.066 v 24.348 z m 8.053,-24.347 h 3.066 v 2.684 c 0.959,-0.957 2.109,-1.916 3.451,-2.492 1.15,-0.383 2.684,-0.766 4.217,-0.766 1.918,0 3.451,0.383 4.793,0.957 1.533,0.768 2.492,1.727 3.451,2.877 0.574,0.959 0.959,1.916 1.15,3.258 0.191,1.15 0.383,2.877 0.383,5.178 v 12.652 h -3.066 v -13.612 c 0,-2.875 -0.576,-4.984 -1.727,-6.326 -1.151,-1.342 -2.875,-1.918 -5.367,-1.918 -1.342,0 -2.492,0.191 -3.643,0.768 -1.15,0.574 -1.918,1.533 -2.492,2.492 -0.383,0.766 -0.768,1.533 -0.959,2.301 0,0.957 -0.191,2.301 -0.191,4.408 v 11.887 h -3.066 z m -62.308,-0.574 v 2.875 c -2.684,0 -4.792,0.959 -6.518,2.875 -1.917,1.918 -2.876,4.41 -2.876,7.285 0,2.684 0.959,4.984 2.876,6.902 1.726,1.916 3.834,2.684 6.518,2.875 v 2.877 0 c -3.642,0 -6.709,-1.344 -9.01,-3.643 -2.492,-2.492 -3.643,-5.561 -3.643,-9.203 0,-3.642 1.342,-6.709 3.643,-9.201 2.493,-2.301 5.369,-3.642 9.01,-3.642 z m -27.605,25.689 v -3.068 0 c 1.725,0 3.45,-0.383 4.984,-1.342 1.342,-0.959 2.492,-2.301 3.259,-4.025 h 3.643 c -1.15,2.684 -2.684,4.793 -4.793,6.326 -2.108,1.342 -4.409,2.107 -7.093,2.107 v 0 0 z m 0,-11.887 v -2.684 h 9.202 c -0.575,-2.686 -1.726,-4.793 -3.26,-6.135 -1.533,-1.342 -3.643,-2.109 -5.942,-2.109 v -3.068 c 0,0 0,0 0.191,0 3.643,0 6.71,1.344 9.011,3.836 2.3,2.492 3.45,5.941 3.45,9.969 v 0.191 z m -61.732,-6.711 h 13.612 v 3.26 h -13.612 v 11.502 h 13.612 v 3.068 h -16.871 v -32.207 h 16.871 v 3.066 h -13.612 z m 61.732,-7.283 v 3.066 c -0.192,0 -0.192,0 -0.384,0 -2.301,0 -4.218,0.768 -5.943,2.109 -1.725,1.533 -2.684,3.643 -3.067,6.135 h 9.395 v 2.684 h -9.395 c 0.192,2.684 1.15,4.793 2.876,6.326 1.726,1.725 3.834,2.492 6.519,2.492 v 3.068 c -3.643,0 -6.519,-1.344 -9.011,-3.836 -2.492,-2.492 -3.643,-5.559 -3.643,-9.01 0,-3.834 1.15,-6.9 3.643,-9.395 2.3,-2.297 5.367,-3.447 9.01,-3.639 z m -33.359,11.502 v 2.875 h -10.544 v -2.875 z m 19.747,13.611 h -14.57 v -32.207 h 3.067 v 29.139 h 11.503 z"
     inkscape:connector-curvature="0"
     id="path2913"
     style="fill:#2e75a3;fill-opacity:1" /></g></svg>