<?xml version="1.0" encoding="utf-8"?>
<!-- Generator: Adobe Illustrator 20.1.0, SVG Export Plug-In . SVG Version: 6.00 Build 0)  -->
<svg version="1.1" id="Layer_1" xmlns="http://www.w3.org/2000/svg" xmlns:xlink="http://www.w3.org/1999/xlink" x="0px" y="0px"
	 viewBox="0 0 356 227.3" style="enable-background:new 0 0 356 227.3;" xml:space="preserve">
<style type="text/css">
	.st0{fill:#FFFFFF;}
	.st1{fill:#216340;}
</style>
<g>
	<path class="st0" d="M356,48.3C356,21.6,335.4,0,310,0H46C20.6,0,0,21.6,0,48.3V179c0,26.7,20.6,48.3,46,48.3h264
		c25.4,0,46-21.6,46-48.3V48.3z"/>
	<path class="st1" d="M204.2,95.1l15.7,19.3l12.8-10.6c2.8-2.5,5.3-4.9,7.2-7.2c-0.3,6-0.3,12.6-0.3,19.8v47.3h30V63.8h-26.8
		L204.2,95.1z"/>
	<path class="st1" d="M158.8,102.8h-26.3V76.7c0-3.3-2.2-5.9-5.5-5.9h-11.9c-3.3,0-5.6,2.6-5.6,5.9v26.1H83.3
		c-3.3,0-5.8,2.4-5.8,5.7v11.9c0,3.3,2.5,6.4,5.8,6.4h26.2v25.4c0,3.3,2.3,5.6,5.6,5.6H127c3.3,0,5.5-2.3,5.5-5.6v-25.4h26.3
		c3.3,0,5.7-3.1,5.7-6.4v-11.9C164.5,105.2,162.1,102.8,158.8,102.8z"/>
	<path class="st1" d="M333.5,65.3c0-23.5-19-42.5-42.5-42.5H65c-23.5,0-42.5,19-42.5,42.5v97c0,23.5,19,42.5,42.5,42.5h226
		c23.5,0,42.5-19,42.5-42.5V65.3z M318.5,162.3c0,15.2-12.3,27.5-27.5,27.5H65c-15.2,0-27.5-12.3-27.5-27.5v-97
		c0-15.2,12.3-27.5,27.5-27.5h226c15.2,0,27.5,12.3,27.5,27.5V162.3z"/>
</g>
</svg>
