<svg width="82" height="79" viewBox="0 0 82 79" fill="none" xmlns="http://www.w3.org/2000/svg">
<path d="M63.6176 66H14.3824C13.0324 66 12 64.96 12 63.6V28.4C12 27.04 13.0324 26 14.3824 26H63.6176C64.9676 26 66 27.04 66 28.4V63.6C66 64.96 64.9676 66 63.6176 66Z" fill="#EFEFEF"/>
<path d="M12.0001 28.1805C12.0001 27.2943 13.2872 26 14.1706 26H62.8293C63.6321 26 64.7685 26 64.9692 27.5009C65.0058 27.7746 65.224 28 65.5001 28C65.7762 28 66.0046 27.7747 65.9628 27.5017C65.7308 25.9888 64.4432 25 62.8293 25H14.1706C12.3857 25 11 26.39 11 28.1805V42.9999C11 43.5522 11.4477 44 12.0001 44V28.1805Z" fill="#444444"/>
<path d="M63.6176 66H14.3824C13.0324 66 12 64.9721 12 63.6279V32H66V63.6279C66 64.9721 64.9676 66 63.6176 66Z" fill="white"/>
<path fill-rule="evenodd" clip-rule="evenodd" d="M11 32.8305C11 32.3718 11.3654 32 11.8162 32H50.5C50.7761 32 51 32.2239 51 32.5C51 32.7761 50.7761 33 50.5 33H12V45.5355C12 45.8116 11.7761 46.0355 11.5 46.0355C11.2239 46.0355 11 45.8116 11 45.5355V32.8305ZM65.5 58C65.2239 58 65 58.2239 65 58.5V59.5C65 59.7761 65.2239 60 65.5 60C65.7761 60 66 59.7761 66 59.5V58.5C66 58.2239 65.7761 58 65.5 58ZM38 67.5C38 67.2239 38.2239 67 38.5 67H40.5C40.7761 67 41 67.2239 41 67.5C41 67.7761 40.7761 68 40.5 68H38.5C38.2239 68 38 67.7761 38 67.5Z" fill="#444444"/>
<path d="M15 30C15.5523 30 16 29.5523 16 29C16 28.4477 15.5523 28 15 28C14.4477 28 14 28.4477 14 29C14 29.5523 14.4477 30 15 30Z" fill="#444444"/>
<path d="M19 30C19.5523 30 20 29.5523 20 29C20 28.4477 19.5523 28 19 28C18.4477 28 18 28.4477 18 29C18 29.5523 18.4477 30 19 30Z" fill="#444444"/>
<path d="M23 30C23.5523 30 24 29.5523 24 29C24 28.4477 23.5523 28 23 28C22.4477 28 22 28.4477 22 29C22 29.5523 22.4477 30 23 30Z" fill="#444444"/>
<rect x="15" y="35" width="30" height="1" rx="0.5" fill="#EFEFEF"/>
<rect x="17" y="38" width="30" height="1" rx="0.5" fill="#EFEFEF"/>
<rect x="15" y="41" width="30" height="1" rx="0.5" fill="#EFEFEF"/>
<path d="M30 25L38 17L46 25" stroke="#444444" stroke-linecap="round" stroke-linejoin="round"/>
<path d="M40.1465 13.4279V10.8409H38.9998H37.853V14.0747C37.853 14.0747 39.9936 14.6406 39.9936 16.7426C39.9936 18.2787 38.8469 19.4913 37.3943 19.4913C36.0946 19.4913 35.0242 18.5212 34.8713 17.2277C34.8713 17.3894 34.7949 17.6319 34.7949 17.7936C34.7949 20.219 36.7062 22.1593 38.9998 22.1593C41.2933 22.1593 43.2047 20.219 43.2047 17.7936C43.2047 15.6108 41.9814 13.913 40.1465 13.4279Z" fill="#EFEFEF"/>
<path d="M40.4419 12.8149C40.4419 13.0173 40.5639 13.1998 40.751 13.277C42.4094 13.9619 43.5 15.6656 43.5 17.7935C43.5 20.441 41.4237 22.5 39 22.5C36.5763 22.5 34.5 20.441 34.5 17.7935C34.5 17.7252 34.5079 17.6581 34.5162 17.6023C34.5243 17.5481 34.5348 17.4921 34.5438 17.4445L34.5449 17.4386C34.5547 17.387 34.5629 17.3437 34.5687 17.3042C34.5707 17.2911 34.5721 17.2802 34.5732 17.2714C34.5751 17.2547 34.5762 17.238 34.5765 17.2212C34.5797 17.0199 34.7234 16.896 34.855 16.8874C34.9851 16.8788 35.1403 16.9815 35.164 17.182C35.2929 18.2725 36.2091 19.1505 37.3945 19.1505C38.7101 19.1505 39.6988 18.0637 39.6988 16.7425C39.6988 15.8497 39.252 15.2751 38.7628 14.9055C38.5189 14.7213 38.2726 14.5954 38.0861 14.5156C37.9933 14.4759 37.9166 14.4481 37.864 14.4305C37.8377 14.4217 37.8176 14.4155 37.8046 14.4117L37.8019 14.4109L37.7956 14.409L37.7866 14.4065C37.6689 14.3746 37.5581 14.2499 37.5581 14.0746V10.8408C37.5581 10.6259 37.7162 10.5 37.8532 10.5H40.1468C40.2838 10.5 40.4419 10.6259 40.4419 10.8408V12.8149Z" fill="#AAAAAA" stroke="#444444" stroke-miterlimit="10" stroke-linecap="round" stroke-linejoin="round"/>
<path d="M80 30H55V55H80V30Z" fill="white"/>
<path fill-rule="evenodd" clip-rule="evenodd" d="M54.5 32C54.2239 32 54 31.7761 54 31.5V30C54 29.4477 54.4477 29 55 29H56.5C56.7761 29 57 29.2239 57 29.5C57 29.7761 56.7761 30 56.5 30H55V31.5C55 31.7761 54.7761 32 54.5 32ZM65.25 29.5C65.25 29.2239 65.0261 29 64.75 29H61.25C60.9739 29 60.75 29.2239 60.75 29.5C60.75 29.7761 60.9739 30 61.25 30H64.75C65.0261 30 65.25 29.7761 65.25 29.5ZM70.25 29C69.9739 29 69.75 29.2239 69.75 29.5C69.75 29.7761 69.9739 30 70.25 30H73.75C74.0261 30 74.25 29.7761 74.25 29.5C74.25 29.2239 74.0261 29 73.75 29H70.25ZM78.5 29C78.224 29 78 29.2239 78 29.5C78 29.7761 78.224 30 78.5 30H80V31.5C80 31.7761 80.224 32 80.5 32C80.776 32 81 31.7761 81 31.5V30C81 29.4477 80.552 29 80 29H79.5H78.5ZM81 36.25C81 35.9739 80.776 35.75 80.5 35.75C80.224 35.75 80 35.9739 80 36.25V39.75C80 40.0261 80.224 40.25 80.5 40.25C80.776 40.25 81 40.0261 81 39.75V36.25ZM81 45.25C81 44.9739 80.776 44.75 80.5 44.75C80.224 44.75 80 44.9739 80 45.25V48.75C80 49.0261 80.224 49.25 80.5 49.25C80.776 49.25 81 49.0261 81 48.75V45.25ZM81 53.5C81 53.2239 80.776 53 80.5 53C80.224 53 80 53.2239 80 53.5V55H78.5C78.224 55 78 55.2239 78 55.5C78 55.7761 78.224 56 78.5 56H80C80.552 56 81 55.5523 81 55V53.5ZM73.75 56C74.0261 56 74.25 55.7761 74.25 55.5C74.25 55.2239 74.0261 55 73.75 55H70.25C69.9739 55 69.75 55.2239 69.75 55.5C69.75 55.7761 69.9739 56 70.25 56H73.75ZM64.75 56C65.0261 56 65.25 55.7761 65.25 55.5C65.25 55.2239 65.0261 55 64.75 55H61.25C60.9739 55 60.75 55.2239 60.75 55.5C60.75 55.7761 60.9739 56 61.25 56H64.75ZM56.5 56C56.7761 56 57 55.7761 57 55.5C57 55.2239 56.7761 55 56.5 55H55V53.5C55 53.2239 54.7761 53 54.5 53C54.2239 53 54 53.2239 54 53.5V55C54 55.5523 54.4477 56 55 56H56.5ZM54 48.75C54 49.0261 54.2239 49.25 54.5 49.25C54.7761 49.25 55 49.0261 55 48.75V45.25C55 44.9739 54.7761 44.75 54.5 44.75C54.2239 44.75 54 44.9739 54 45.25V48.75ZM54 39.75C54 40.0261 54.2239 40.25 54.5 40.25C54.7761 40.25 55 40.0261 55 39.75V36.25C55 35.9739 54.7761 35.75 54.5 35.75C54.2239 35.75 54 35.9739 54 36.25V39.75Z" fill="#808080"/>
<path d="M54 30C54.5523 30 55 29.5523 55 29C55 28.4477 54.5523 28 54 28C53.4477 28 53 28.4477 53 29C53 29.5523 53.4477 30 54 30Z" fill="#808080"/>
<path d="M81 30C81.552 30 82 29.5523 82 29C82 28.4477 81.552 28 81 28C80.448 28 80 28.4477 80 29C80 29.5523 80.448 30 81 30Z" fill="#808080"/>
<path d="M54 57C54.5523 57 55 56.5523 55 56C55 55.4477 54.5523 55 54 55C53.4477 55 53 55.4477 53 56C53 56.5523 53.4477 57 54 57Z" fill="#808080"/>
<path d="M81 57C81.552 57 82 56.5523 82 56C82 55.4477 81.552 55 81 55C80.448 55 80 55.4477 80 56C80 56.5523 80.448 57 81 57Z" fill="#808080"/>
<path d="M75.4059 52H60.5942C59.1716 52 58 50.8917 58 49.5458V35.4542C58 34.1083 59.1716 33 60.5942 33H75.4059C77.5 33 78 34.1083 78 35.4542V49.4667C78 51 77 52 75.4059 52Z" fill="white"/>
<path fill-rule="evenodd" clip-rule="evenodd" d="M60.5058 33C59.5526 33 58 34.4272 58 35.3336V49.6664C58 51 59 52 60.5058 52H75.4942C77 52 78 51 78 49.5V35.3336C78 34 77 33 75.4942 33H60.5058ZM57 35.3336C57 33.5022 58.5799 32 60.5058 32H75.4942C77.42 32 79 33.5022 79 35.3336V49.5859C79 51.4803 77.438 53 75.4942 53H60.5058C58.5799 53 57 51.4978 57 49.6664V35.3336Z" fill="#444444"/>
<path d="M63 40C63 39.4477 62.5523 39 62 39C61.4477 39 61 39.4477 61 40V48C61 48.5523 61.4477 49 62 49C62.5523 49 63 48.5523 63 48V40Z" fill="#FF6F3D"/>
<path d="M67 44C67 43.4477 66.5523 43 66 43C65.4477 43 65 43.4477 65 44V48C65 48.5523 65.4477 49 66 49C66.5523 49 67 48.5523 67 48V44Z" fill="#FF6F3D"/>
<path d="M71 42C71 41.4477 70.5523 41 70 41C69.4477 41 69 41.4477 69 42V48C69 48.5523 69.4477 49 70 49C70.5523 49 71 48.5523 71 48V42Z" fill="#FF6F3D"/>
<path d="M75 37C75 36.4477 74.5523 36 74 36C73.4477 36 73 36.4477 73 37V48C73 48.5523 73.4477 49 74 49C74.5523 49 75 48.5523 75 48V37Z" fill="#FF6F3D"/>
<path d="M80 61H43V77H80V61Z" fill="white"/>
<path fill-rule="evenodd" clip-rule="evenodd" d="M42.4875 63C42.2183 63 42 62.7817 42 62.5125V61C42 60.4477 42.4477 60 43 60H44.425C44.7011 60 44.925 60.2239 44.925 60.5C44.925 60.7761 44.7011 61 44.425 61H42.975V62.5125C42.975 62.7817 42.7567 63 42.4875 63ZM54.1875 60.5C54.1875 60.2239 53.9636 60 53.6875 60H49.8125C49.5364 60 49.3125 60.2239 49.3125 60.5C49.3125 60.7761 49.5364 61 49.8125 61H53.6875C53.9636 61 54.1875 60.7761 54.1875 60.5ZM59.5625 60C59.2864 60 59.0625 60.2239 59.0625 60.5C59.0625 60.7761 59.2864 61 59.5625 61H63.4375C63.7136 61 63.9375 60.7761 63.9375 60.5C63.9375 60.2239 63.7136 60 63.4375 60H59.5625ZM69.3125 60C69.0364 60 68.8125 60.2239 68.8125 60.5C68.8125 60.7761 69.0364 61 69.3125 61H73.1875C73.4636 61 73.6875 60.7761 73.6875 60.5C73.6875 60.2239 73.4636 60 73.1875 60H69.3125ZM78.575 60C78.299 60 78.075 60.2239 78.075 60.5C78.075 60.7761 78.299 61 78.575 61H80.025V62.5125C80.025 62.7817 80.243 63 80.512 63C80.782 63 81 62.7817 81 62.5125V61C81 60.4477 80.552 60 80 60H78.575ZM81 67.2375C81 66.9683 80.782 66.75 80.512 66.75C80.243 66.75 80.025 66.9683 80.025 67.2375V70.7625C80.025 71.0317 80.243 71.25 80.512 71.25C80.782 71.25 81 71.0317 81 70.7625V67.2375ZM81 75.488C81 75.218 80.782 75 80.512 75C80.243 75 80.025 75.218 80.025 75.488V77H78.575C78.299 77 78.075 77.224 78.075 77.5C78.075 77.776 78.299 78 78.575 78H80C80.552 78 81 77.552 81 77V75.488ZM73.1875 78C73.4636 78 73.6875 77.776 73.6875 77.5C73.6875 77.224 73.4636 77 73.1875 77H69.3125C69.0364 77 68.8125 77.224 68.8125 77.5C68.8125 77.776 69.0364 78 69.3125 78H73.1875ZM63.4375 78C63.7136 78 63.9375 77.776 63.9375 77.5C63.9375 77.224 63.7136 77 63.4375 77H59.5625C59.2864 77 59.0625 77.224 59.0625 77.5C59.0625 77.776 59.2864 78 59.5625 78H63.4375ZM53.6875 78C53.9636 78 54.1875 77.776 54.1875 77.5C54.1875 77.224 53.9636 77 53.6875 77H49.8125C49.5364 77 49.3125 77.224 49.3125 77.5C49.3125 77.776 49.5364 78 49.8125 78H53.6875ZM44.425 78C44.7011 78 44.925 77.776 44.925 77.5C44.925 77.224 44.7011 77 44.425 77H42.975V75.488C42.975 75.218 42.7567 75 42.4875 75C42.2183 75 42 75.218 42 75.488V77C42 77.552 42.4477 78 43 78H44.425ZM42 70.7625C42 71.0317 42.2183 71.25 42.4875 71.25C42.7567 71.25 42.975 71.0317 42.975 70.7625V67.2375C42.975 66.9683 42.7567 66.75 42.4875 66.75C42.2183 66.75 42 66.9683 42 67.2375V70.7625Z" fill="#808080"/>
<path d="M42 61C42.5523 61 43 60.5523 43 60C43 59.4477 42.5523 59 42 59C41.4477 59 41 59.4477 41 60C41 60.5523 41.4477 61 42 61Z" fill="#808080"/>
<path d="M81 61C81.552 61 82 60.5523 82 60C82 59.4477 81.552 59 81 59C80.448 59 80 59.4477 80 60C80 60.5523 80.448 61 81 61Z" fill="#808080"/>
<path d="M42 79C42.5523 79 43 78.552 43 78C43 77.448 42.5523 77 42 77C41.4477 77 41 77.448 41 78C41 78.552 41.4477 79 42 79Z" fill="#808080"/>
<path d="M81 79C81.552 79 82 78.552 82 78C82 77.448 81.552 77 81 77C80.448 77 80 77.448 80 78C80 78.552 80.448 79 81 79Z" fill="#808080"/>
<path d="M52 64H47C46.4477 64 46 64.4477 46 65C46 65.5523 46.4477 66 47 66H52C52.5523 66 53 65.5523 53 65C53 64.4477 52.5523 64 52 64Z" fill="#BDECFF"/>
<path d="M52 68H47C46.4477 68 46 68.4477 46 69C46 69.5523 46.4477 70 47 70H52C52.5523 70 53 69.5523 53 69C53 68.4477 52.5523 68 52 68Z" fill="#BDECFF"/>
<path d="M52 72H47C46.4477 72 46 72.4477 46 73C46 73.5523 46.4477 74 47 74H52C52.5523 74 53 73.5523 53 73C53 72.4477 52.5523 72 52 72Z" fill="#BDECFF"/>
<path d="M60 64H55C54.4477 64 54 64.4477 54 65C54 65.5523 54.4477 66 55 66H60C60.5523 66 61 65.5523 61 65C61 64.4477 60.5523 64 60 64Z" fill="#BDECFF"/>
<path d="M60 68H55C54.4477 68 54 68.4477 54 69C54 69.5523 54.4477 70 55 70H60C60.5523 70 61 69.5523 61 69C61 68.4477 60.5523 68 60 68Z" fill="#BDECFF"/>
<path d="M60 72H55C54.4477 72 54 72.4477 54 73C54 73.5523 54.4477 74 55 74H60C60.5523 74 61 73.5523 61 73C61 72.4477 60.5523 72 60 72Z" fill="#BDECFF"/>
<path d="M68 64H63C62.4477 64 62 64.4477 62 65C62 65.5523 62.4477 66 63 66H68C68.5523 66 69 65.5523 69 65C69 64.4477 68.5523 64 68 64Z" fill="#BDECFF"/>
<path d="M68 68H63C62.4477 68 62 68.4477 62 69C62 69.5523 62.4477 70 63 70H68C68.5523 70 69 69.5523 69 69C69 68.4477 68.5523 68 68 68Z" fill="#BDECFF"/>
<path d="M68 72H63C62.4477 72 62 72.4477 62 73C62 73.5523 62.4477 74 63 74H68C68.5523 74 69 73.5523 69 73C69 72.4477 68.5523 72 68 72Z" fill="#BDECFF"/>
<path d="M76 64H71C70.4477 64 70 64.4477 70 65C70 65.5523 70.4477 66 71 66H76C76.5523 66 77 65.5523 77 65C77 64.4477 76.5523 64 76 64Z" fill="#BDECFF"/>
<path d="M76 68H71C70.4477 68 70 68.4477 70 69C70 69.5523 70.4477 70 71 70H76C76.5523 70 77 69.5523 77 69C77 68.4477 76.5523 68 76 68Z" fill="#BDECFF"/>
<path d="M76 72H71C70.4477 72 70 72.4477 70 73C70 73.5523 70.4477 74 71 74H76C76.5523 74 77 73.5523 77 73C77 72.4477 76.5523 72 76 72Z" fill="#BDECFF"/>
<path d="M36 48H2V72H36V48Z" fill="white"/>
<path d="M29.6364 52H8.3636C7.0242 52 6 52.9905 6 54.2857V65.7143C6 67.0095 7.0242 68 8.3636 68H29.6364C30.9758 68 32 67.0095 32 65.7143V54.2857C32 52.9905 30.9758 52 29.6364 52Z" fill="white"/>
<path d="M20.5758 64.4483L14.2727 57L6 66.5172C6 67.9241 7.0242 69 8.3636 69H29.6364C30.9758 69 32 67.9241 32 66.5172L25.303 59.4828L20.5758 64.4483Z" fill="#FF6F3D"/>
<path d="M21 58C22.1046 58 23 57.1046 23 56C23 54.8954 22.1046 54 21 54C19.8954 54 19 54.8954 19 56C19 57.1046 19.8954 58 21 58Z" fill="#FF6F3D"/>
<path fill-rule="evenodd" clip-rule="evenodd" d="M5 54.1508C5 52.377 6.4093 51 8.2246 51H29.7754C31.5907 51 33 52.377 33 54.1508V65.8492C33 67.623 31.5907 69 29.7754 69H8.2246C6.4093 69 5 67.623 5 65.8492V54.1508ZM8.2246 52C7 52 6 53 6 54.1508V65.8492C6 67 7 68 8.2246 68H29.7754C31 68 32 67 32 65.8492V54.1508C32 53 31 52 29.7754 52H8.2246Z" fill="#444444"/>
<path d="M1 48C1.5523 48 2 47.5523 2 47C2 46.4477 1.5523 46 1 46C0.4477 46 0 46.4477 0 47C0 47.5523 0.4477 48 1 48Z" fill="#808080"/>
<path d="M37 48C37.5523 48 38 47.5523 38 47C38 46.4477 37.5523 46 37 46C36.4477 46 36 46.4477 36 47C36 47.5523 36.4477 48 37 48Z" fill="#808080"/>
<path d="M1 74C1.5523 74 2 73.5523 2 73C2 72.4477 1.5523 72 1 72C0.4477 72 0 72.4477 0 73C0 73.5523 0.4477 74 1 74Z" fill="#808080"/>
<path d="M37 74C37.5523 74 38 73.5523 38 73C38 72.4477 37.5523 72 37 72C36.4477 72 36 72.4477 36 73C36 73.5523 36.4477 74 37 74Z" fill="#808080"/>
<path fill-rule="evenodd" clip-rule="evenodd" d="M1.5294 50.12C1.237 50.12 1 49.883 1 49.5906V48C1 47.4477 1.4477 47 2 47H3.48C3.7672 47 4 47.2328 4 47.52C4 47.8072 3.7672 48.04 3.48 48.04H2.0588V49.5906C2.0588 49.883 1.8218 50.12 1.5294 50.12ZM10.52 47C10.2328 47 10 47.2328 10 47.52C10 47.8072 10.2328 48.04 10.52 48.04H15.48C15.7672 48.04 16 47.8072 16 47.52C16 47.2328 15.7672 47 15.48 47H10.52ZM22.52 47C22.2328 47 22 47.2328 22 47.52C22 47.8072 22.2328 48.04 22.52 48.04H27.48C27.7672 48.04 28 47.8072 28 47.52C28 47.2328 27.7672 47 27.48 47H22.52ZM34.52 47C34.2328 47 34 47.2328 34 47.52C34 47.8072 34.2328 48.04 34.52 48.04H35.9412V49.5906C35.9412 49.883 36.1782 50.12 36.4706 50.12C36.763 50.12 37 49.883 37 49.5906V48C37 47.4477 36.5523 47 36 47H34.52ZM36.4706 57.8333C36.763 57.8333 37 57.5963 37 57.3039V54.0294C37 53.737 36.763 53.5 36.4706 53.5C36.1782 53.5 35.9412 53.737 35.9412 54.0294V57.3039C35.9412 57.5963 36.1782 57.8333 36.4706 57.8333ZM37 62.6961C37 62.4037 36.763 62.1667 36.4706 62.1667C36.1782 62.1667 35.9412 62.4037 35.9412 62.6961V65.9706C35.9412 66.263 36.1782 66.5 36.4706 66.5C36.763 66.5 37 66.263 37 65.9706V62.6961ZM37 70.4094C37 70.117 36.763 69.88 36.4706 69.88C36.1782 69.88 35.9412 70.117 35.9412 70.4094V71.96H34.52C34.2328 71.96 34 72.1928 34 72.48C34 72.7672 34.2328 73 34.52 73H36C36.5523 73 37 72.5523 37 72V70.4094ZM27.48 73C27.7672 73 28 72.7672 28 72.48C28 72.1928 27.7672 71.96 27.48 71.96H22.52C22.2328 71.96 22 72.1928 22 72.48C22 72.7672 22.2328 73 22.52 73H27.48ZM15.48 73C15.7672 73 16 72.7672 16 72.48C16 72.1928 15.7672 71.96 15.48 71.96H10.52C10.2328 71.96 10 72.1928 10 72.48C10 72.7672 10.2328 73 10.52 73H15.48ZM3.48 73C3.7672 73 4 72.7672 4 72.48C4 72.1928 3.7672 71.96 3.48 71.96H2.0588V70.4094C2.0588 70.117 1.8218 69.88 1.5294 69.88C1.237 69.88 1 70.117 1 70.4094V72C1 72.5523 1.4477 73 2 73H3.48ZM1 65.9706C1 66.263 1.237 66.5 1.5294 66.5C1.8218 66.5 2.0588 66.263 2.0588 65.9706V62.6961C2.0588 62.4037 1.8218 62.1667 1.5294 62.1667C1.237 62.1667 1 62.4037 1 62.6961V65.9706ZM1 57.3039C1 57.5963 1.237 57.8333 1.5294 57.8333C1.8218 57.8333 2.0588 57.5963 2.0588 57.3039V54.0294C2.0588 53.737 1.8218 53.5 1.5294 53.5C1.237 53.5 1 53.737 1 54.0294V57.3039Z" fill="#808080"/>
<path d="M42 7.2087C42 7.4757 41.9375 7.7387 41.818 7.9747L40.7255 10.1317C40.4549 10.666 39.9248 11 39.3475 11H38.6525C38.0752 11 37.5451 10.666 37.2745 10.1317L36.182 7.9747C36.0625 7.7387 36 7.4757 36 7.2087V1.6343C36 0.7317 36.6984 0 37.56 0H40.44C41.3016 0 42 0.7317 42 1.6343V7.2087Z" fill="#EFEFEF"/>
<path fill-rule="evenodd" clip-rule="evenodd" d="M39.3475 10.1317L41 7.2087V1H37V7.2087L38.6525 10.1317H39.3475ZM41.818 7.9747C41.9375 7.7387 42 7.4757 42 7.2087V1.6343C42 0.7317 41.3016 0 40.44 0H37.56C36.6984 0 36 0.7317 36 1.6343V7.2087C36 7.4757 36.0625 7.7387 36.182 7.9747L37.2745 10.1317C37.5451 10.666 38.0752 11 38.6525 11H39.3475C39.9248 11 40.4549 10.666 40.7255 10.1317L41.818 7.9747Z" fill="#444444"/>
</svg>