<?xml version="1.0" encoding="UTF-8" standalone="no"?>
<!-- Created with Inkscape (http://www.inkscape.org/) -->

<svg
   width="128"
   height="128"
   viewBox="0 0 128 128"
   id="svg2"
   version="1.1"
   inkscape:version="1.1.2 (0a00cf5339, 2022-02-04)"
   sodipodi:docname="achievement_certificate_pdf.svg"
   xmlns:inkscape="http://www.inkscape.org/namespaces/inkscape"
   xmlns:sodipodi="http://sodipodi.sourceforge.net/DTD/sodipodi-0.dtd"
   xmlns:xlink="http://www.w3.org/1999/xlink"
   xmlns="http://www.w3.org/2000/svg"
   xmlns:svg="http://www.w3.org/2000/svg"
   xmlns:rdf="http://www.w3.org/1999/02/22-rdf-syntax-ns#"
   xmlns:cc="http://creativecommons.org/ns#"
   xmlns:dc="http://purl.org/dc/elements/1.1/">
  <defs
     id="defs4">
    <linearGradient
       id="XMLID_8_"
       gradientUnits="userSpaceOnUse"
       x1="74.5"
       y1="5.0479002"
       x2="74.5"
       y2="124.2402"
       gradientTransform="matrix(1.0333334,0,0,1.0333334,-12.351081,919.84935)">
      <stop
         offset="0"
         style="stop-color:#FFFFFF"
         id="stop4539" />
      <stop
         offset="1"
         style="stop-color:#E1E1DF"
         id="stop4541" />
    </linearGradient>
    <linearGradient
       id="XMLID_9_"
       gradientUnits="userSpaceOnUse"
       x1="74.5"
       y1="11.0811"
       x2="74.5"
       y2="121.4673"
       gradientTransform="matrix(1.0333334,0,0,1.0333334,-12.351081,919.84935)">
      <stop
         offset="0"
         style="stop-color:#FDFDFD"
         id="stop4546" />
      <stop
         offset="0.2985"
         style="stop-color:#F3F2F2"
         id="stop4548" />
      <stop
         offset="0.8174"
         style="stop-color:#D7D6D6"
         id="stop4550" />
      <stop
         offset="1"
         style="stop-color:#CCCBCA"
         id="stop4552" />
    </linearGradient>
    <radialGradient
       id="XMLID_10_"
       cx="110"
       cy="32.869099"
       r="15.5963"
       gradientUnits="userSpaceOnUse"
       gradientTransform="matrix(1.0333334,0,0,1.0333334,-12.351081,919.84935)">
      <stop
         offset="0.2135"
         style="stop-color:#8E8E8F"
         id="stop4557" />
      <stop
         offset="0.927"
         style="stop-color:#EEEEEE"
         id="stop4559" />
    </radialGradient>
    <linearGradient
       id="XMLID_11_"
       gradientUnits="userSpaceOnUse"
       x1="92.023399"
       y1="9.9473"
       x2="104.2735"
       y2="32.947201"
       gradientTransform="matrix(1.0333334,0,0,1.0333334,-12.351081,919.84935)">
      <stop
         offset="0"
         style="stop-color:#FFFEFE"
         id="stop4566" />
      <stop
         offset="1"
         style="stop-color:#CFD0D0"
         id="stop4568" />
    </linearGradient>
    <linearGradient
       id="XMLID_12_"
       gradientUnits="userSpaceOnUse"
       x1="99.530296"
       y1="5.1806998"
       x2="105.9053"
       y2="31.930599"
       gradientTransform="matrix(1.0333334,0,0,1.0333334,-12.351081,919.84935)">
      <stop
         offset="0"
         style="stop-color:#FCFDFD"
         id="stop4573" />
      <stop
         offset="1"
         style="stop-color:#EEEEEE"
         id="stop4575" />
    </linearGradient>
    <linearGradient
       id="linearGradient3607-8">
      <stop
         id="stop3609-4"
         style="stop-color:#008000;stop-opacity:1"
         offset="0" />
      <stop
         id="stop3611-1"
         style="stop-color:#7fff2a;stop-opacity:1"
         offset="1" />
    </linearGradient>
    <linearGradient
       id="linearGradient3596-6">
      <stop
         id="stop3598-5"
         style="stop-color:#008000;stop-opacity:1"
         offset="0" />
      <stop
         id="stop3615-5"
         style="stop-color:#55d400;stop-opacity:1"
         offset="0.55445766" />
      <stop
         id="stop3600-0"
         style="stop-color:#b3ff80;stop-opacity:1"
         offset="1" />
    </linearGradient>
    <linearGradient
       x1="3250.6189"
       y1="562.04803"
       x2="2665.0842"
       y2="1386.8773"
       id="linearGradient3628-5"
       xlink:href="#linearGradient3607-8"
       gradientUnits="userSpaceOnUse"
       gradientTransform="matrix(0.03161612,0,0,-0.03161612,-61.843645,1056.1433)" />
    <linearGradient
       x1="3275.4238"
       y1="627.11865"
       x2="2453.3899"
       y2="1682.2034"
       id="linearGradient3632-7"
       xlink:href="#linearGradient3596-6"
       gradientUnits="userSpaceOnUse"
       gradientTransform="matrix(0.03161612,0,0,-0.03161612,-61.844688,1056.1423)" />
    <linearGradient
       gradientTransform="translate(0.12056748,0.05073366)"
       inkscape:collect="always"
       xlink:href="#linearGradient5328"
       id="linearGradient10181"
       x1="63.24892"
       y1="1046.8074"
       x2="64.871239"
       y2="1001.1964"
       gradientUnits="userSpaceOnUse" />
    <linearGradient
       id="linearGradient5328">
      <stop
         style="stop-color:#7c1315;stop-opacity:1;"
         offset="0"
         id="stop5330" />
      <stop
         style="stop-color:#e81c24;stop-opacity:1;"
         offset="1"
         id="stop5332" />
    </linearGradient>
    <linearGradient
       inkscape:collect="always"
       xlink:href="#linearGradient4765"
       id="linearGradient4771"
       x1="124.53697"
       y1="908.61713"
       x2="123.44701"
       y2="888.6236"
       gradientUnits="userSpaceOnUse"
       gradientTransform="matrix(2.5681553,0,0,1.6761088,-235.95144,-468.96907)" />
    <linearGradient
       inkscape:collect="always"
       id="linearGradient4765">
      <stop
         style="stop-color:#d40000;stop-opacity:1"
         offset="0"
         id="stop4767" />
      <stop
         style="stop-color:#800000;stop-opacity:1"
         offset="1"
         id="stop4769" />
    </linearGradient>
    <linearGradient
       inkscape:collect="always"
       xlink:href="#linearGradient4757"
       id="linearGradient4763"
       x1="9.0106974"
       y1="881.99683"
       x2="9.3910522"
       y2="897.17505"
       gradientUnits="userSpaceOnUse" />
    <linearGradient
       inkscape:collect="always"
       id="linearGradient4757">
      <stop
         style="stop-color:#ffff00;stop-opacity:1;"
         offset="0"
         id="stop4759" />
      <stop
         style="stop-color:#ff6600;stop-opacity:1"
         offset="1"
         id="stop4761" />
    </linearGradient>
  </defs>
  <sodipodi:namedview
     id="base"
     pagecolor="#ffffff"
     bordercolor="#666666"
     borderopacity="1.0"
     inkscape:pageopacity="0.0"
     inkscape:pageshadow="2"
     inkscape:zoom="2.578186"
     inkscape:cx="75.634574"
     inkscape:cy="24.047916"
     inkscape:document-units="px"
     inkscape:current-layer="g14519"
     showgrid="false"
     units="px"
     inkscape:window-width="1920"
     inkscape:window-height="1043"
     inkscape:window-x="0"
     inkscape:window-y="0"
     inkscape:window-maximized="1"
     inkscape:pagecheckerboard="0" />
  <metadata
     id="metadata7">
    <rdf:RDF>
      <cc:Work
         rdf:about="">
        <dc:format>image/svg+xml</dc:format>
        <dc:type
           rdf:resource="http://purl.org/dc/dcmitype/StillImage" />
      </cc:Work>
    </rdf:RDF>
  </metadata>
  <g
     inkscape:label="Capa 1"
     inkscape:groupmode="layer"
     id="layer1"
     transform="translate(0,-924.36216)">
    <g
       id="g14032">
      <g
         id="g14432"
         transform="translate(116.51805,-49.76255)" />
      <g
         id="g14519">
        <g
           id="g1379"
           inkscape:export-filename="/var/www/chamilo111x/main/img/icons/64/achievement_certificate_pdf.png"
           inkscape:export-xdpi="48"
           inkscape:export-ydpi="48">
          <path
             style="opacity:0.2;stroke-width:1.03333"
             inkscape:connector-curvature="0"
             id="path4532"
             d="m 19.337121,927.08268 c -1.911667,0 -3.7882,1.891 -3.7882,3.81714 0,109.93638 0,109.93638 0,113.46728 0,4.0475 4.133333,4.6489 4.133333,4.6489 h 89.900006 c 0,0 4.13333,-0.2769 4.13333,-4.1519 0,-3.875 0,-81.09498 0,-81.09498 0,-5.37023 -28.597498,-36.68644 -36.027165,-36.68644 z" />
          <path
             style="opacity:0.2;stroke-width:1.03333"
             inkscape:connector-curvature="0"
             id="path4534"
             d="m 19.337121,928.11602 c -1.911667,0 -3.7882,1.891 -3.7882,3.81713 0,109.93635 0,109.93635 0,113.46725 0,4.0476 5.166667,4.649 5.166667,4.649 h 87.833342 c 0,0 5.16666,-0.277 5.16666,-4.152 0,-3.875 0,-81.09495 0,-81.09495 0,-5.37023 -28.597498,-36.68643 -36.027165,-36.68643 z" />
          <path
             style="opacity:0.6;fill:#262626;stroke-width:1.03333"
             inkscape:connector-curvature="0"
             id="path4536"
             d="m 19.337121,926.04935 c -1.911667,0 -3.7882,1.891 -3.7882,3.81713 0,109.93632 0,109.93632 0,113.46722 0,4.0476 3.1,4.649 3.1,4.649 h 91.966669 c 0,0 3.1,-0.2769 3.1,-4.1519 0,-3.875 0,-81.09501 0,-81.09501 0,-5.37024 -28.597498,-36.68644 -36.027165,-36.68644 z" />
          <path
             style="fill:url(#XMLID_8_);stroke-width:1.03333"
             inkscape:connector-curvature="0"
             id="path4543"
             d="m 112.68226,1043.9661 c 0,2.6702 -2.47793,2.9833 -2.47793,2.9833 H 19.163521 c 0,0 -2.581267,-0.4909 -2.581267,-3.1858 0,-20.4776 0,-112.69122 0,-113.89712 0,-1.364 1.4043,-2.7838 2.754867,-2.7838 1.027133,0 50.084637,0 58.351304,0 7.2664,0 34.993835,31.33687 34.993835,35.65414 0,4.77297 0,65.24988 0,81.22928 z" />
          <path
             style="fill:url(#XMLID_9_);stroke-width:1.03333"
             inkscape:connector-curvature="0"
             id="path4554"
             d="m 111.64893,1043.1074 c 0,2.5637 -2.06667,2.8086 -2.06667,2.8086 H 19.682254 c 0,0 -2.066666,-0.1684 -2.066666,-2.3239 0,-18.6155 0,-112.50318 0,-113.72562 0,-1.364 1.3609,-2.7838 2.6691,-2.7838 0.996133,0 49.454303,0 57.46367,0 7.040101,0 33.900572,31.33687 33.900572,35.65414 0,4.78433 0,64.76318 0,80.37058 z" />
          <path
             sodipodi:nodetypes="csssscc"
             inkscape:connector-curvature="0"
             id="rect7361"
             d="m 112.85128,1019.5931 v 23.5966 c 0,2.1265 -0.11554,3.9546 -3.51132,3.9522 l -89.120787,-0.064 c -2.593827,0 -3.745542,-1.7618 -3.745542,-3.8883 v -23.5966 z"
             style="fill:url(#linearGradient10181);fill-opacity:1;stroke:none;stroke-width:2;stroke-linecap:round;stroke-linejoin:round;stroke-miterlimit:4;stroke-dasharray:none;stroke-dashoffset:0;stroke-opacity:0.745098" />
          <text
             id="text7357"
             y="1041.303"
             x="58.34774"
             style="font-style:normal;font-variant:normal;font-weight:normal;font-stretch:normal;line-height:0%;font-family:'Arial Black';-inkscape-font-specification:'Arial Black, Normal';text-align:start;letter-spacing:0px;word-spacing:0px;writing-mode:lr-tb;text-anchor:start;fill:#ffffff;fill-opacity:1;stroke:none;stroke-width:1px;stroke-linecap:butt;stroke-linejoin:miter;stroke-opacity:1"
             xml:space="preserve"><tspan
               style="font-size:22.1712px;line-height:1.25"
               y="1041.303"
               x="58.34774"
               id="tspan7359"
               sodipodi:role="line">PDF</tspan></text>
          <rect
             y="924.36218"
             x="0"
             height="128"
             width="128"
             id="rect5123"
             style="opacity:0;fill:#999999;fill-opacity:1;stroke:none;stroke-width:1.1;stroke-linecap:round;stroke-linejoin:round;stroke-miterlimit:4;stroke-dasharray:none;stroke-dashoffset:0;stroke-opacity:1" />
          <path
             style="fill:url(#XMLID_10_);stroke-width:1.03333"
             inkscape:connector-curvature="0"
             id="path4561"
             d="m 111.64893,960.14935 c 0,7.41934 -2.914,13.43334 -10.33334,13.43334 -7.419331,0 -16.533331,-6.014 -16.533331,-13.43334 0,-7.41933 2.914,-9.3 10.333334,-9.3 7.419337,0 11.366667,4.13334 16.533337,9.3 z" />
          <g
             id="g937"
             transform="matrix(1.2896298,0,0,1.2896298,-37.619296,-350.96068)">
            <path
               sodipodi:nodetypes="cccccc"
               inkscape:connector-curvature="0"
               id="rect4742"
               d="m 70.838821,1026.1101 h 17.656061 v 30.8169 l -8.346501,-5.3427 -9.30956,5.3427 z"
               style="opacity:1;fill:url(#linearGradient4771);fill-opacity:1;stroke:none;stroke-width:0.2;stroke-linecap:round;stroke-linejoin:round;stroke-miterlimit:4;stroke-dasharray:none;stroke-dashoffset:0;stroke-opacity:1" />
            <path
               transform="matrix(3.1499906,0.11886886,-0.11886886,3.1499906,158.37455,-1775.9863)"
               inkscape:randomized="0"
               inkscape:rounded="0.005"
               inkscape:flatsided="false"
               sodipodi:arg2="0.57595866"
               sodipodi:arg1="0.26179939"
               sodipodi:r2="6.3673253"
               sodipodi:r1="7.7398543"
               sodipodi:cy="889.13098"
               sodipodi:cx="8.638566"
               sodipodi:sides="10"
               id="path4747"
               style="opacity:1;fill:url(#linearGradient4763);fill-opacity:1;stroke:#ab2f00;stroke-width:0.2;stroke-linecap:round;stroke-linejoin:round;stroke-miterlimit:4;stroke-dasharray:none;stroke-dashoffset:0;stroke-opacity:1"
               sodipodi:type="star"
               d="m 16.114691,891.1342 c -0.0034,0.0125 -2.128984,1.45381 -2.136037,1.46468 -0.0071,0.0109 -0.459176,2.53895 -0.46924,2.5471 -0.01006,0.008 -2.576913,-0.0752 -2.589003,-0.0706 -0.01209,0.005 -1.8638402,1.78416 -1.8767723,1.78484 -0.012932,6.8e-4 -2.0405492,-1.57553 -2.0530578,-1.57888 -0.012509,-0.003 -2.5565811,0.34787 -2.5674417,0.34082 -0.010861,-0.007 -0.7247648,-2.47404 -0.7329144,-2.4841 -0.00815,-0.0101 -2.2727945,-1.22128 -2.2774353,-1.23337 -0.00464,-0.0121 0.8678551,-2.42755 0.8671774,-2.44048 -6.777e-4,-0.0129 -1.1208777,-2.32395 -1.1175261,-2.33646 0.00335,-0.0125 2.1289839,-1.45381 2.1360369,-1.46467 0.00705,-0.0109 0.4591763,-2.53896 0.4692402,-2.54711 0.010064,-0.008 2.5769131,0.0752 2.5890028,0.0706 0.01209,-0.005 1.8638406,-1.78416 1.8767727,-1.78484 0.012932,-6.7e-4 2.0405496,1.57554 2.0530576,1.57889 0.01251,0.003 2.556581,-0.34788 2.567442,-0.34083 0.01086,0.007 0.724765,2.47404 0.732914,2.4841 0.0082,0.0101 2.272795,1.22129 2.277436,1.23338 0.0046,0.0121 -0.867856,2.42754 -0.867178,2.44047 6.78e-4,0.0129 1.120878,2.32395 1.117526,2.33646 z" />
            <circle
               r="15.202577"
               cy="1025.795"
               cx="79.89595"
               id="path4749"
               style="opacity:1;fill:#d45500;fill-opacity:1;stroke:#ffc101;stroke-width:0.916508;stroke-linecap:round;stroke-linejoin:round;stroke-miterlimit:4;stroke-dasharray:none;stroke-dashoffset:0;stroke-opacity:1" />
          </g>
          <path
             style="opacity:0.5;fill:#343434;stroke-width:1.03333"
             inkscape:connector-curvature="0"
             id="path4563"
             d="m 74.877758,927.04445 c 0.565233,0 0.978567,0.002 3.736534,1.23277 4.3214,1.95403 4.239766,22.96583 4.239766,27.5621 l -10e-4,0.13227 c 0,0.53836 0.4123,0.99096 0.9486,1.0354 6.172101,0.51253 24.095262,-0.87627 27.286202,4.1602 1.23896,1.6616 1.4105,2.95326 1.98193,2.95326 0.57143,0 0.64583,-0.8122 0.64583,-1.38363 0,-0.82357 -0.26556,-1.62647 -0.79153,-2.50893 -0.004,-0.009 -0.002,-0.0186 -0.006,-0.0269 -0.0145,-0.0289 -0.0393,-0.0672 -0.0548,-0.0971 v -10e-4 c -2.38183,-4.85563 -26.649662,-31.3937 -33.432462,-33.67633 -0.0062,-0.002 -0.0072,-0.008 -0.0124,-0.0103 -0.0072,-0.003 -0.0155,-0.002 -0.0217,-0.004 -0.0217,-0.008 -0.05063,-0.0238 -0.07233,-0.032 -0.09713,-0.03 -0.193234,-0.0424 -0.2883,-0.0444 -0.4433,-0.1488 -0.8897,-0.28623 -1.347467,-0.28623 -0.524934,0 -2.750734,0.47223 -2.810667,0.9951 z" />
          <path
             style="fill:url(#XMLID_11_);stroke-width:1.03333"
             inkscape:connector-curvature="0"
             id="path4570"
             d="m 112.68226,962.73682 c -3.4875,-8.91663 -28.795901,-6.76007 -28.795901,-6.76007 -0.134334,2.7559 1.548966,-28.89407 -6.197934,-28.89407 7.267434,0 34.993835,32.87447 34.993835,35.65414 z" />
          <path
             style="fill:url(#XMLID_12_);stroke-width:1.03333"
             inkscape:connector-curvature="0"
             id="path4577"
             d="m 112.68226,962.73682 c -1.55,-8.2057 -27.641668,-8.33487 -27.641668,-8.33487 -0.02583,2.75487 0.283133,-27.31927 -7.352167,-27.31927 7.267434,0 34.993835,32.87447 34.993835,35.65414 z" />
          <path
             d="m 2.2583121,1025.531 27.3969999,24.3725 27.19437,-24.3055 -8.49897,-1.4016 -1.2806,-24.92289 -33.4916,-0.13397 -1.2189,24.97886 z"
             id="rect3593-2"
             style="fill:url(#linearGradient3632-7);fill-opacity:1;fill-rule:nonzero;stroke:none;stroke-width:1.01578"
             inkscape:connector-curvature="0" />
          <path
             d="m 29.538795,1051.364 c -0.9511,0.01 -1.5877,-0.6479 -1.5877,-0.6479 L 2.3557954,1028.4593 c 0,0 0,0 0,0 l -0.02,-0.017 c -1.0809,-0.8881 -1.63599998,-1.9283 -1.234,-3.0836 0.4611,-1.325 1.1875,-1.7127 2.8988,-1.7043 h 0.01 0.01 l 7.5137996,0.017 0.048,-21.322 c 0.2776,-2.81075 2.6008,-4.77765 4.8027,-4.93445 l 27.7157,-0.0227 v 0 c 1.3597,-0.0259 2.5388,0.68056 3.4402,1.60746 0.9072,0.93274 1.5617,2.15989 1.5627,3.53789 l 4e-4,21.1128 h 5.596 c 1.33473,-0.034 2.49627,0 3.1392,1.4723 0.77404,1.7693 -0.60888,2.8568 -1.36112,3.508 0,0 -25.37258,22.1108 -25.37258,22.1108 0,0 -0.7192,0.6201 -1.5531,0.6242 z m 0,-2.4767 c 0,0 26.15559,-22.7747 26.15559,-22.7747 l -8.94059,0.02 -0.045,-23.5984 v 0 0 c 0,-0.5092 -0.3463,-1.2829 -0.907,-1.8594 -0.5606,-0.5764 -1.2916,-0.81565 -1.6899,-0.80496 l -27.6014,0.0194 c -1.2103,0.0363 -2.4618,1.30986 -2.6084,2.63116 l 0.021,23.5588 c 0,0 -10.5784996,0.033 -10.5784996,0.033 0,0 26.1948996,22.7773 26.1948996,22.7773 h -10e-5 z"
             id="rect2818-8"
             style="color:#000000;font-style:normal;font-variant:normal;font-weight:normal;font-stretch:normal;font-size:medium;line-height:normal;font-family:'Bitstream Vera Sans';-inkscape-font-specification:'Bitstream Vera Sans';text-indent:0;text-align:start;text-decoration:none;text-decoration-line:none;letter-spacing:normal;word-spacing:normal;text-transform:none;writing-mode:lr-tb;direction:ltr;text-anchor:start;display:inline;overflow:visible;visibility:visible;fill:#005800;fill-opacity:1;stroke:none;stroke-width:77.1991;marker:none;enable-background:accumulate"
             inkscape:connector-curvature="0" />
          <path
             d="m 5.870855,1026.9754 23.7165,20.5862 23.6857,-20.6095 -6.4296,0.01 c -0.5671,-0.012 -0.9506,-0.3158 -0.9545,-0.9214 v -3.2663 c -10.6097,4.7717 -12.9126,-4.7713 -30.9156,-9.3432 l -0.072,12.6159 c 0.01,0.52 -0.3988,0.8998 -0.9855,0.9292 h -8.0471 z"
             id="rect3604-6"
             style="fill:url(#linearGradient3628-5);fill-opacity:1;fill-rule:nonzero;stroke:none;stroke-width:1.01578"
             inkscape:connector-curvature="0" />
        </g>
      </g>
    </g>
  </g>
</svg>
