<?xml version="1.0" encoding="UTF-8" standalone="no"?>
<!-- Created with Sodipodi ("http://www.sodipodi.com/") -->

<svg
   xmlns:a="http://ns.adobe.com/AdobeSVGViewerExtensions/3.0/"
   xmlns:xapMM="http://ns.adobe.com/xap/1.0/mm/"
   xmlns:xapGImg="http://ns.adobe.com/xap/1.0/g/img/"
   xmlns:xap="http://ns.adobe.com/xap/1.0/"
   xmlns:x="adobe:ns:meta/"
   xmlns:dc="http://purl.org/dc/elements/1.1/"
   xmlns:cc="http://creativecommons.org/ns#"
   xmlns:rdf="http://www.w3.org/1999/02/22-rdf-syntax-ns#"
   xmlns:svg="http://www.w3.org/2000/svg"
   xmlns="http://www.w3.org/2000/svg"
   xmlns:sodipodi="http://sodipodi.sourceforge.net/DTD/sodipodi-0.dtd"
   xmlns:inkscape="http://www.inkscape.org/namespaces/inkscape"
   width="128"
   height="128"
   viewBox="0 0 128 128"
   style="overflow:visible"
   xml:space="preserve"
   id="svg548"
   sodipodi:version="0.32"
   sodipodi:docname="Mozilla.svg"
   version="1.1"
   inkscape:version="0.91 r13725"><defs
     id="defs617" /><sodipodi:namedview
     id="base"
     showgrid="false"
     units="px"
     inkscape:zoom="4.9270059"
     inkscape:cx="55.209076"
     inkscape:cy="47.859596"
     inkscape:window-width="1855"
     inkscape:window-height="1056"
     inkscape:window-x="65"
     inkscape:window-y="24"
     inkscape:window-maximized="1"
     inkscape:current-layer="Layer_1" /><metadata
     id="metadata549"><xpacket>begin='﻿' id='W5M0MpCehiHzreSzNTczkc9d'    </xpacket><x:xmpmeta
       x:xmptk="XMP toolkit 3.0-29, framework 1.6"><metadata><rdf:RDF><rdf:Description
             rdf:about="uuid:36736415-db9c-437e-90df-f432a0f5520e" /><rdf:Description
             rdf:about="uuid:36736415-db9c-437e-90df-f432a0f5520e" /><rdf:Description
             rdf:about="uuid:36736415-db9c-437e-90df-f432a0f5520e"><xap:CreateDate>
2004-01-30T13:59:54Z</xap:CreateDate><xap:ModifyDate>
2004-03-29T09:24:18Z</xap:ModifyDate><xap:CreatorTool>
Adobe Illustrator 10.0</xap:CreatorTool><xap:MetadataDate>
2004-02-16T22:08:55+01:00</xap:MetadataDate><xap:Thumbnails><rdf:Alt><rdf:li
                   rdf:parseType="Resource"><xapGImg:format>
JPEG</xapGImg:format><xapGImg:width>
256</xapGImg:width><xapGImg:height>
256</xapGImg:height><xapGImg:image>
/9j/4AAQSkZJRgABAgEASABIAAD/7QAsUGhvdG9zaG9wIDMuMAA4QklNA+0AAAAAABAASAAAAAEA
AQBIAAAAAQAB/+4ADkFkb2JlAGTAAAAAAf/bAIQABgQEBAUEBgUFBgkGBQYJCwgGBggLDAoKCwoK
DBAMDAwMDAwQDA4PEA8ODBMTFBQTExwbGxscHx8fHx8fHx8fHwEHBwcNDA0YEBAYGhURFRofHx8f
Hx8fHx8fHx8fHx8fHx8fHx8fHx8fHx8fHx8fHx8fHx8fHx8fHx8fHx8fHx8f/8AAEQgBAAEAAwER
AAIRAQMRAf/EAaIAAAAHAQEBAQEAAAAAAAAAAAQFAwIGAQAHCAkKCwEAAgIDAQEBAQEAAAAAAAAA
AQACAwQFBgcICQoLEAACAQMDAgQCBgcDBAIGAnMBAgMRBAAFIRIxQVEGE2EicYEUMpGhBxWxQiPB
UtHhMxZi8CRygvElQzRTkqKyY3PCNUQnk6OzNhdUZHTD0uIIJoMJChgZhJRFRqS0VtNVKBry4/PE
1OT0ZXWFlaW1xdXl9WZ2hpamtsbW5vY3R1dnd4eXp7fH1+f3OEhYaHiImKi4yNjo+Ck5SVlpeYmZ
qbnJ2en5KjpKWmp6ipqqusra6voRAAICAQIDBQUEBQYECAMDbQEAAhEDBCESMUEFURNhIgZxgZEy
obHwFMHR4SNCFVJicvEzJDRDghaSUyWiY7LCB3PSNeJEgxdUkwgJChgZJjZFGidkdFU38qOzwygp
0+PzhJSktMTU5PRldYWVpbXF1eX1RlZmdoaWprbG1ub2R1dnd4eXp7fH1+f3OEhYaHiImKi4yNjo
+DlJWWl5iZmpucnZ6fkqOkpaanqKmqq6ytrq+v/aAAwDAQACEQMRAD8A9U4q7FXYq7FXYq7FXYq7
FXYq7FXYq7FXYq7FXYq7FXYq7FXYq7FXYq7FXYq7FXYq7FXYq7FXYq7FXYq7FXYq7FXYq7FXYq7F
XYq7FXYq7FXYq7FXYq7FXYqkGoefvJun3BtrvV7dJ1bi8YbmVbwbhy4/TmNPWYomjIW7LD2Pqsse
KOORHy+9NdO1TTdTthc6fdRXdudvUhcOtfA06H2y6GSMxcTYcPPp8mKXDOJjLzRWTaXYq7FXYq7F
XYq7FXYq7FXYq7FXYq7FXYq7FXYq7FXYq7FXYq7FXYq7FXYq7FXYq7FXYq7FXmv51+brzStMttH0
6Ro7zU+XquhIdYVoOK03HqMafIHNR2tqjjgIg1f3PWeyvZsM2SWXILjj5d1/sYrpP5XaPHZJ+kmk
nvHWsnB+KIT2WnWnic8t1Hb2Uy/d0Iu51Hb+Uz/d0IpRKdU/LrzHb3umTtJp91s8T7h0UjnHIBQE
itVbOl7C7YM/VyI+od4coiHammlCYAyR5HuPQ+7vD3fQNft9XtVlQcZCoYpWooe4z0QF8xIINFNM
UOxV2KuxV2KuxV2KuxV2KuxV2KuxV2KuxV2KuxV2KuxV2KuxV2KuxV2KuxV2KuxV2KuxV4Prtx/i
b83paHnZ6URGO4Atev0GdjnA+0+sqMyP6o/T+l9G0cPynZg/nZN/9N/x1nROebvPsV/MbTfrnlqW
VVrLZsJ1p14j4X/4Vq/Rm27Fz8GcDpLb9TuOxM/BnA6S2/UiPyk13nZWwdvit39GT/VbYf1z2Ls7
Lx4R3jZ5z2i0ngauQHKXqHx5/bb2DM50jsVdirsVdirsVdirsVdirsVdirsVdirsVdirsVdirsVd
irsVdirsVdirsVdirsVdiqWeZtYTRvL2oaoxFbSB5Iw3QyUpGv8AsnIGVZ8nBAy7g5eg0xz54Y/5
0h8uv2PF/wAqtPf6re6tNVpbqT00dupC/E7f7Jm/DPIPaHUcU4w7tz8fx9r3vtBmHFHEOURf6mcv
KiceTAcjxWvc+GaCGMyuhyFvPiJPJZcQxzwSQSjlFKpR18VYUIxhIxII5hlCRiQRzDzPyFPJpXmW
80ic0qzR/Nkam3+ttnr/AGDqhMeUgC7P2rwDLgx6iPuPulv9h+99D6Zc/WbCGYmrFaP/AKw2P4jO
keCRWKuxV2KuxV2KuxV2KuxV2KuxV2KuxV2KuxV2KuxV2KuxV2KuxV2KuxV2KuxV2KuxV5X+f2uG
30Ky0aIn1NQm9SUDvFBQgH5uykfLNR2xmqAj3/oew9j9JxZpZTygK+J/ZfzX+XtN/RmiWdjSjwxD
1Kfzt8T/APDE541rM3i5ZT7z9nROsz+LllPvP2dEp82am8NzaQxn4oiJ2+YNF/jnT+zWgE8eSUuU
hwfr/Q53ZuASjInrsyCKZJoUlTdJFDL8iK5ymXGYTMTzia+Tq5RMSQejzTz1CdJ832erR/DHchXc
jb4o6I//AAhXO09mdZURf8EvsP4L0Olh+a0M8HUcvvj9r27yXqCz2jRg1DBZk/2Qo340z0x8zZJi
rsVdirsVdirsVdirsVdirsVdirsVdirsVdirsVdirsVdirsVdirsVdirsVdirsVeCea7v/E/5vi3
U87LSSIvEUtqvJUe8x45w3tNrOGMyP6o/T+l9G7Ox/lezOL+LJv/AKbYf7HdnJOeaOhecaze/W9T
uJgaoW4p/qr8I++mep9l6bwNPCHWt/ed3q9Li4MYDKvKl56+liMmr27FP9id1/XTOM9o9N4ep4hy
mL+PI/r+Lpu0cXDkv+clf5lab9c8utcKKy2TiUePA/C4/Gv0ZT2Jn4M/D0lt+pyexc/BmrpLb9Sb
flHrvq6fac2q0J9CX5HYV/Xnr2gy8eIHu2+Tyvb+k8DVzA5E8Q+P7bD13Mx0zsVdirsVdirsVdir
sVdirsVdirsVdirsVdirsVdirsVdirsVdirsVdirsVdiqX+YNXi0fQ77VJacLOF5eJ/aZR8K/wCy
agyvNkEIGR6BydHpznzRxj+IgPDfyrs5ZhqOt3BLz3UnpiQ9Sa+pIf8AZMw+7PJPaLUGUow/zj+P
m+g9vZBHgxR5RF/oDMNdvfqmlXEwNH48U8eTfCPurXNV2VpvG1EI9Ls+4bun0mLjyAPN+Weo29Wn
vlC99LUWtyaLcLQf6y7j8K5zvtJpuPAJjnA/Ydv1Ou7TxcWPi/msuu7eO6tZraUVjnRo3H+Swof1
5w2OZhISHMF0eOZjISHMF53+W93Lpuv3mjzmjVZaducbcTT57Z672HqRIUOUhxBzPa7AMmLHqI+7
4Hcfp+b6L0+5+s2UM/d1HL/WGzfjnQvBojFXYq7FXYq7FXYq7FXYq7FXYq7FXYq7FXYq7FXYq7FX
Yq7FXYq7FXYq7FXYq8u/5yA10Wfle20lGpLqc1XH/FMFHav+zKZqu1stYxH+d+h632Q0nHqDkPKA
+2X7LUPLGl/ovQLKyIpIkYaYf8WP8T/8MaZ43rs/i5pT6Xt7ujfrs/i5pS6Xt7uiTeer2gt7NT1r
K4/4Vf450nsvp/ryn+qPvP6HY9kYuc/gh/Jvln9Nxaq7An6ran0Kf8tDbx/8QOdxp8PHfkPtbO1N
f+XOMfzpb/1ev3setblre5inX7UTBwPka5g6jEMmOUDykKdpkxiUTE9XpkcqSRrIhqjgMp8QRUZ5
bOBjIxPMPJGJBovNPN6tovne11RPhiuOEjN2qvwSfhRs7b2a1dRF/wABr4F32PF+a0E8P8Q5ffH7
dnvHk6+WezaMHbaVPk43H0HPR3zFkOKuxV2KuxV2KuxV2KuxV2KuxV2KuxV2KuxV2KuxV2KuxV2K
uxV2KuxV2KuxV4D56uf8Tfm9Fp6nnZaVwian2aQj1Za/ORuBzi/aTWcEZkdBwj3n8fY+jdk4/wAr
2aZ/xZN/nsPs3ZwTnmDpHmXmC/8Armr3EoNUDenH/qp8P49c9K7K0/g6eMetWfeXrdFh4MQD1X8u
bH6h5WikYUlvXa4avXifhT/hVr9OdVo48OP3vG9uZvF1JA5Q2/W8y83WA0/zDeQKKRM5li8OEnxA
D5Vpms1EeGZD13ZubxcEZdao/BknlS9+saQiE1e3Jjb5dV/A0zzzt3T+HqCek9/1uq7RxcOUnv3S
j8zNO+taALpRWSykD178H+Fh9/E/Rj2Jm4M3D0kHJ7FzcObh6SDJvyj176xp9kzt8Sf6PN9OwJ+k
Vz1vR5ePEC8Z23pPA1U49Lse47/sesZlOqdirsVdirsVdirsVdirsVdirsVdirsVdirsVdirsVdi
rsVdirsVdirsVQWt6pDpOj3upzbxWUEk7Dx9NS3Ee5pTIZJiETI9G/S4DmyxxjnIgfN4H+VltPd3
Oqa/dHnPcyGP1D1LOfVlP0krnk/tHqSTGH+cfx830btyYhGGGPKI/YP0s01u/wDqWl3NwDR1QiP/
AF2+FfxOaXs/T+NnjDpe/u6um0mHxMgi800+1lvb63tI/wC8uJFjU+BY0r9GemwjxEAPWZsgxwMj
yiLe8ExQQRwRDjFEoSNfBVFAPuzf8hT5xRlIyPMvOvzMtAzWuoKNxWCQ/eyf8bZrtdHlJ6nsHJXF
D4/r/Qkvku99PUJLYn4bhKgf5Sbj8K5x/tDg4sQn1ifsP7ac/tTFcBL+b+ll19axXlnPaS/3c8bR
t8mFK5yGLIYSEhzBdJimYSEhzBYJ+Vl9LY6xe6RMeMgYkDweM8W/EDPXOxc4kCByPqH4+TZ7X6cS
jjzx5fT+kfpfRtjcC5s4Z+7qC3z6H8c3rwqvirsVdirsVdirsVdirsVdirsVdirsVYx56/MHRfJ9
ik17ynu56/VbKOnN+PUknZVFdz91cxtTqo4RZ59zteyuyMutnUNojnI9P1l5n/yvbzxc/vrHy2jW
rf3Z4XEu3+uvAH7s0mTt8RNEwHvL1P8AoV0kdp5Txe+I+x3/ACu38x/+paT/AJEXX/NWQ/0Qx78f
z/av+hjRf6sf9NF3/K7fzG/6lpP+RF1/zVj/AKIY98Pn+1f9DGi/1Y/6aLv+V3fmN/1LUf8AyIuv
+asf9EMe+Hz/AGr/AKF9F/qx+cXf8ru/Mb/qW4/+RF1/zVj/AKIY98Pn+1f9C+i/1U/OLX/K7vzF
/wCpbj/5EXX/ADVj/ohj3w+f7V/0L6L/AFU/OLv+V3/mL/1Lcf8AyIuv+asf9EMe+Hz/AGr/AKF9
F/qp+cXf8rv/ADF/6luP/kRc/wDNWP8Aohj3w+f7U/6F9F/qp+cXf8rv/MT/AKluP/kRc/8ANWP+
iGPfD5/tX/Qvov8AVT84pT5o/Mr8wPM+jTaJLoZt4rsoJHhhnDkK4bjViRQkb5TqO3ITgYmUAPf+
1y9D2Jo9LlGUZLMe8xZZ5V0htI8v2di4AmROU9N/3jnk2/ehNM821+o8bNKY5dPc6zXZ/GzSmOXT
3JL+YF/xitrFTu5Msg9l+FfvJP3ZvPZvT+qWQ9Nh+l2PY2Hcz+Cj+WtiJ9be8cVSyjLA/wCXJ8K/
hyzutDC533NnbubhwiA/jP2D8B6PcXHXfNqS8rCDHfM0P13SbmAbvx5x/wCsnxD76UzGzx4okO00
EvDyxLzKyvGtbyG4XrE4aniAdx9IzQ6jEMmOUD/EHrcuPjiY971BZFdFdTVWAKnxB3zzeUSDReRI
o0858z6drGkebF1vTLZ545SJKIrOokpxZWC77/azsOwu0444CyBKPf1Du8Qw6rSnBllw/wBtir+S
e6f+c3n6yt/QTQY3QEkFobior22bOk/l8d8Pn+11/wDoV0f+qn5x/Uif+V6fmB/1L0P/ACJuf+as
P8vjvh8/2r/oV0f+qn5x/U7/AJXr5/8A+peh/wCRNz/zVj/L474fP9q/6FdH/qp+cf1Nf8r18/8A
/Uvw/wDIq5/5qx/l8d8Pn+1f9Cmj/wBVPzj+p3/K9fP/AP1L8P8AyKuf+asf5fHfD5/tX/Qpo/8A
VZfOP6nf8r28/f8AUvw/8irn/mrH+Xx3w+f7U/6FNJ/qsvnH9Tv+V7efv+pfh/5FXP8AzVj/AC8O
+Hz/AGr/AKFNJ/qsvnH9Tv8Ale/n3/qX4f8AkVcf81Y/y8O+Hz/av+hTSf6rL5x/U1/yvfz7/wBW
CD/kVcf81Y/y95w+f7V/0KaT/VZfOP6k68sfn/bXF+lh5lsP0YzkL9bjLGNWP+/I3HJF96n+OZum
7XjP6uXeOTg672SlGBnglx+XX4Hq9dR0dQ6MGRhVWBqCD3BzcPGN4q7FXz95qjTXfzzey1AepaWv
BI4G3BSK39YLQ9mkJYjOH9p9TOEJyjzFAeV0+i9nk4OyhKH1S6++Vfc9K2AAAoBsAM8tecaJwpWk
4UrScKVpOFK0nClaThStJxZLScKVpOFK0nCl5b5o1D65rdzIprHG3pR/JNtvmanPQeysHhaeI6nc
/F7DQYeDCB1O/wA2eeQ7P6l5fWZxSW8Yynx4D4U/AV+nOp0cOGF97znbGXxM9DlHb9abzz9d8yCX
ChBLp5+u+VkuVCDzTV7f6rqM8QFE5Fo/9Vtxmoyx4ZEPV6afHAFm3lS++taNECayW9Ym+S/Z/wCF
Izg+2MHh5yekt/1/a6DtDDwZT3HdNic1jhrScKVpOFK0nCyWE4UrScKVpOFK0nCyWk4UrScKWM+f
bK2l0OS6dR69sUMT96M4Ur8virm07JyyGURHKX6nZdm5CMgj0LNPyd8yXi6BaRzyF4E/dlWNaJzZ
BT5cc9R0MicMSXhPaHFGGtyCPKwfmAT9pevZlumdiryD84fIOtNqsPnTy2rPf2wT67BGAXPpD4Zl
H7fwjiy+FNuuaTtbs4Zok1YIoh7H2e7XxDGdLn+g8j036Hu7wUt8jfmZZa3FFZakVtdX+yK/DHMQ
aAoezH+X7s8u7U7FngJlD1Y/tHv/AF/Ny9f2PPD64erH9o/HezcnNG6dh/m2w85Rc7zQtQkePq9i
VjLD/jGSu/8AqnfNz2fm0p9OaAv+dv8Aa7rs7NpT6c0Bf87f7Xn589+b1Yq+oSKymjKUQEEdj8Od
IOytN/MH2/relHZOlPKA+Z/WuHnrzX/1cH/4GP8A5pw/yTpv5n3/AK1/knTfzPv/AFqkPnLzdNIs
cV5JJI32UREZj8gFyQ7I055Q+9hLszSxFmIA95/Wixrvn/xu/wDkR/zZln8iYP8AU/vafymi/o/6
b9q4a35+/wCXr/kR/wA2Yf5Ewf6n96Pyui/o/wCm/a3+mvPfc3X/ACI/5sw/yLg/1P71/K6P+j/p
v2u/Tfnfu1z/AMif+bMP8i4P9T+9fyuk/o/P9qyTVfOU6GFjdEPsVWIqT9KqDk4dkYYmxj3+LIaf
SxN+n5/tTLy95Evp5UuNVQ29qpr6LbSP7U/ZHjXfN3g0ciblsHE1va8Ijhxnil39B+tnksqooRAF
VRRVGwAHQDNm87GNmygJ5+u+QJcmEEvnn675AlyoQSDWrFL1AwPGZPsN2I8DmNmx8Xvdlpcph7kg
hm1bTZWMDPCx2Yrupp94OanUaOOTacbdjKGPKN6KufMvmH/lpf8A4Ff+acxP5KwfzPva/wAjg/mr
D5m8wf8ALU//AAK/0wfyVg/mfey/IYf5qw+Z9e/5a2/4Ff6YP5LwfzPvT+Qw/wA1YfNGvf8ALW3/
AAKf0x/kzB/M+9l/J+H+b96w+add/wCWxvuT+mRPZuD+b96f5Pw/zfvWnzTr3/LW3/Ap/TB/J2D+
b96fyGH+asPmrXv+Wxv+BT+mD+T8H8372X5DD/NRelX/AJt1Sbhb3TLEp/eTMq8F/wCF3PtmPqMO
mwi5R37nH1GLTYhvHfuZrawyQwLHLM1xIPtSvQEn5AADNBkkJGwKDo5yEjYFBS1DUrOwt2uLuURR
r3PUnwA6k5PDhlklwxFlnixSmaiLYJqGp6r5ruRZ2URh0+NgzM34NIf1KM67srscg7by6noHYZs2
Ds+HHkNzPIdT7v1vWfJmhNaWUFnEpBk4ogPWg/aPzqSc7nFjEIiI6Pl+q1Ms+WWSXORt6zk3Hdir
sVea/mJ+TGk+YhJqGk8NO1nqSBSGYjtIo+y3+UPprmBqtBHJuNpPSdj+0eXS1Cfrxd3Ue79X3POt
H88+YPKuofoHzjbyhYvhW4ccpUXoGqK+qnuN/n0zz3tb2d3Jxjhn3dD7u77np83Z+HVw8bTEe78f
SXpdre2t5bR3NrKs9vKOUcqEMpHzGcbkxyhIxkKIednjlCXDIUQx7zV5H03Ww08dLbUQNp1Gz+0g
HX59c2Wg7Ung2Pqh3fqdn2f2rkwbH1Q7v1PKdV0fUdJuzbX0RjfqjdVcfzK3cZ2Gn1MM0eKBt7HT
6mGaPFA2h4J5YZUlhdo5YyGSRCVZSNwQRuDmSCRuG2UBIURYL2LyF+dIb09O8ztQ7LFqYG3sJgP+
JD6fHN5o+1P4cnz/AFvDdsey3PJp/jD/AIn9Xy7nrouIniWWJ1kjcBkdSCpB3BBHUZu7FW8SYEGj
sUFcXHXfIEuRCCV3Fx13yslzIQS24uOu+QJcuEEtnn675WS5cIJdPP13yslyoQS+efrvkCXKhBL5
58gS5UIICabIEuTGKCmmyBLkRigpZcgS5EYoOWXIkuRGKDllyBLdGKHZix2yucwG3YLdh8/HMScy
WBNrScgrI9D8nz3XG41AGG36rD0d/n/KPxzUavtMQ9MN5d/R1mq7REfTDc97NIYIbeFYYEEcSCio
ooBmhnMyNk2XRSkZGzuUj8xebrDSFMQpPekfDAp2X3c9vl1zO0fZ882/KPf+pzNLopZd+UWO6b5e
13zPeLeaozrC391CBQlfBFP2F9z/AG53PZ3Y4jHlwx+0uN2n2/h0YOLBUsnf0Hv7z5f2PWfK/kyK
BY4LaBSybhQP3ae5Pc+5zpMeOMBURQfP9RqcmaZnkPFIvRdL0a3sV5f3lwR8Uh7eyjtk2hMMVdir
sVdiqSea/Jug+adPNlq1uJAK+jOvwyxMf2kft8uh75VmwRyCpBzNDr8ulnx4zR+w+8PCNY8t+dvy
vv2ubZjqHl6VvikAPpGu1JVFfSf/AChsffpnI9r9hRyD1D3SHMe977S6/S9px4Z+jMPxt3jy/tZp
5Y846R5itudo/C5QVmtHIEie/wDlL7jPPNb2dk08qkPT0PR1es0GTTmpcuh6I/VNKsNUtWtb2ISx
HpX7Sn+ZT1ByjBqJ4pcUDRadPqJ4pcUDReWeZ/JF/o5a4grc6f19UD44x/xYB/xLp8s67Qdqwzek
+mf3+56/Qdqwz+mXpn9/u/UxoNm2drTLvJn5jaz5bYW/I3Wlk1ezc/Zr1aJt+J9uh/HM3S66eLbn
HudL2p2Ji1Xq+nJ/O/X3/e9i0rzTpeuWf1rT5ua9JIzs6Hwde36s3+LURyC4l4bUdn5NPPhmP1H3
OuLjrvkiUwgls8/XfKyXLhBLp5+u+VkuVCCXzz9d8gS5UIJfPPkCXKhBATTZAlyYxQU02QJciMUF
LLkCXIjFByy5ElyIxQcsuQJboxQ7NXMfJm7md0tJzGJYqlraXN5OsFtGZJW6Adh4nwGVZcsYC5Gg
xyZIwFyNBm+heVLaw4z3NJ7vqO6If8kHqffOd1faMsnpjtH73QartCWTaO0fvTyWWONGkkYIiirO
xoAB3JOa+MSTQcAAk0GD6352ur2f9HeX0Z3f4TcqPiPjwB6D/KP9udF2f2MZEGYs/wA39btYaXHh
h4mciMR+PwEx8pfl2xkF5qFJp68izfEin2r9ts7rSdnRx7y3P2B5Ltj2mnmvHh9GPv6n9Q/Hk9f8
v+VKoG4mK3P2pD9t/lmzeUZjbWsFtEIoECIOw7nxJ74qq4q7FXYq7FXYq7FVk8EFxC8E8aywyArJ
G4DKynqCDscSLTGRBsc3innz8kLuyuDr3kd3hniJkbTVajKe5t2r/wAIfo8M0uu7KjOJ4RYPOL2v
ZXtMJDwtV6on+L/iv1/2pR5U/M6OeUaZ5hX6lqKH0/XYcEZhtSQH+7b8PlnnPaXYUsZMsW8e7qP1
/e7HW9kUPEw+qB+Py7wz1qMCDuD1HYjOeDpAwXzR+XsU/O70cCKfq9p0Rv8AUP7J9unyzf6Dtkx9
OXcd/X4970Og7ZMfTl3Hf1+Pe88mimgmeGdGiljNHjYUYH3BzpoTEhYNh6aMhIWDYROmarf6bdLd
WMzQzr+0vQjwYHYj2OXY8soG4ndqz6eGWPDMWHpvl7z5bauFt7kC31Cn2f2JKd0J6fI5utPrRk2O
0nlNZ2RLD6o7w+73prPP13zJJcOEEvnn675AlyoQS+efIEuVCCAmmyBLkxigppsgS5EYoKWXIEuR
GKDllyJLkRig5ZcrlIDm3RihmepzDyZSWSwtlS0mui+Xb3VHDgelag/FOw6+yjucwdVroYhXOXc4
mq1sMW3OXczzTdLstNg9G2TjX7ch3dj4sc5zPqJ5Tci89mzzym5FR1nXNO0m39a8k41/u4hu7nwU
ZLTaWeaVRCcGnllNRDBpLjzD5xueCD6rpat03K19+nqP7dPlnZ9l9igbjn1l+pytXrtP2dH1erKe
nX9g/G70fyl5BtbBERIS0r0qOsjn/KI6D2Gddg08MQqL572j2pm1c+LIdug6D8d71HSPLUNuqyXS
qzr9iEfYX5+P6svdcnuKuxV2KuxV2KuxV2KuxV2KuxVg/wCYX5T6D5via4oLLWVFI79Fryp0WZdu
Y9+o/DMTU6OOXyl3u67J7czaM0PVj6x/V3PG4dY83/l5qK6N5kt3m07pBIDyHAGnKCQ/aX/IPT2z
h+1/Z8SJI9M+/oXthj03aEPEwmp9R+sfp+96Lpmrafqlml5YTrPA/Rl6g+DA7qfY5xGbTzxS4Zii
6PNgnjlwyFFAeYfLGm61F+/X07lRSK5QfEPY/wAw9jmTo9dkwHbePc5Oj12TAdt49zy3W9A1LRbj
07tKxMf3U67o/wAj2Psc63S6yGeNxO/d1eu0ushnjcefcl6SsrB1JVlIKsNiCO+ZY2ckgHYvTdH1
dr/SYLhz+9I4y/6ymhP09c3uDLxwBeV1Gm8PIYjk3PPkyUwggJpsgS5MYoKabIEuRGKCllyBLkRi
g5ZciS5EYoOWXIEt0YoSSSpzCzSs0zIWAs7BUBZmNFUbkk+AykmtygmmXaD5LJ43OqCg6paj/jc/
wzSavtT+HH8/1Om1faf8OP5/qZeqoiBEUKiiiqBQADsAM0hJJsumJJNlivmbz1aacWtLEC6v/smm
6Rn/ACqfaPsM22h7Kll9Uto/aXY6XQGfql6YpXoPkrVtdvfr+tM7u9D6LGjU7c6fYX/JGd5oOyYx
iLHDHu/W6rtT2lhhHhaWr/ndPh3nz5e97B5Z8oKipHbRqBGApkpSNB4KM3sYgCg8JkySnIykbkep
Z9p2lWtilIxykP25T9o/0GFgjMVdirsVdirsVdirsVdirsVdirsVdiqX695f0fXtOk07VrZLq1k6
o3VT2ZWG6sPEZDJjjMVIWG/TanJgmJ4zwyDwHzX+W/m38vb2TWvLkz3ui9ZhTk0aV+zPGPtKP516
e2c12n2LGcdxxR+0Pf8AZ/beDXxGLOBHJ07j7j0Pl96d+UfO2n+Y4WRF9C/iXlPbE12rTmjd1qfo
zzvtDs2emN84HkWrXdnywHvieRTu7tba7t3t7mNZYZBR0YVBzCx5JQlxRNFxMeSUDxRNF4nrNvBZ
6veWtu3KGCV0Qnc0U0ofl0zutNMzxxlLmQ9xpshnjjI8yGrPWNQtF4287RpWvCtVr48TUZlwySjy
LLJghP6gj082amB8fCT3K0P/AApGWjVzaDocfSwv/wAUSt9qEH5MR/A5L84e5fyYHVTfzBy/3TT/
AGX9mP5vyZjTV1UX1ct/uun+y/swHU+TMYqQ737t2AyB1BbBFRa4dupyByyLJSMmVqzzyHp9j+jz
f8Q90zshc78AOy+FRvnO9rZp8fB/DXzdB2pmnx8H8LJri4ighknmYJFEpeRz0CqKk5qoQMiAOZdZ
GJJoc3nurebtW1+5Om6BG8cB2kn6Oy9CSf2F/H9WdX2b2JuDIcUu7oHaHHh0kPFzke79XeWTeTfy
4gtAl1cUkn6+sRsPaJT/AMSOdvptFHHud5PE9r+0OXV3GPoxd3U+/wDVy9713QvKirGrTJ6MHUR9
Hb3Y9szXnmVxRRxRiONQiLsFGwxVdirsVdirsVdirsVdirsVdirsVdirsVdirsVUry5t7W0nublg
lvBG0kznoERSzE/QMBNCyzxwM5CI5k0+Zfyzi/SXmTWfMAiWCF2cRQoAqKbiT1CqgbURVA+nPMfa
TUAgR/nG/wAfN9Q7VPhYYYbsivsFfa9A1fUE0/TLq9fpbxs4B7kD4R9J2zmNPhOTIId5dLgxeJMR
7y8Ge4eSRpHbk7kszHuSak56AIgCg92AAKDhJhpK4SYKVsSY0rfqY0rXqY0rjJjSrTJjSrTJhpWZ
flxqQFxdWDHaRRNGPdfhb7wR92aTtrDtGfds6ftbFYE/gy/WbL6/pd3Z954mRT/lEfD+OaXT5PDy
Rl3F1OCfBMS7ixn8nZrSWS70+5jHrRN6qAihNdiG8ePHPVey8gMSPi632y05GSGX+EiviP1/ofQu
iaLawwxXTUlldQyH9lQRXYeObV4pOcVdirsVdirsVdirsVdirsVdirsVdirsVdirsVdirzv8+PMJ
0j8vrqGNuNxqrrZR068Hq0v0GNCv05ha/Jw4z57PQ+zGk8XVgnlD1fq+1hH5d6V+jvKloGFJbut1
L/z0px/4QLnkna+fxNRLujt8v2vR9p5vEznuG3y/aln5rat9X0eDT0aj3knJx/xXFQn/AIYrmV2D
g4shn/NH2lyuxcPFkM/5o+0vKhJnWU9QuEmNKuEmClb9TGkO9TGku9TGkOMmNKtMmNKtMmGko7Qd
T/R+s2l0TREkAkP+Q3wv/wAKcx9Xh8TFKPk0anFx4zHyeyk5xTyjz2CX/Dv5lpIPht7xw1BtVZz0
/wCRgzvfZ/VXGJP9U/o/Q5XauH8z2cf52Pf/AEv/AB19M+V7sTad6damFqD/AFW3H8c7J8xTjFXY
q7FXYq7FXYq7FXYq7FXYq7FXYq7FXYq7FXYq+evz21B9f/MLSPKsDExWSr64HaS5o7kj/JhVT9Oc
725qvDBP8yP2/in0L2Xw+BpJ5zzly90dv91bLVVURUQBVUAKo6ADoM8nJvdw+bxT8ytY+veaJoka
sVkot1/1l3f/AIYkfRnbdjafgwA9Zb/qeu7Kw8GEHrLdiwkza07JcJMaVd6mClb9TGlRtjpOrX8b
yWVpLcJH9tkUkA9afP2yjLqMeM1KQFtOTPCBqRAQbMyMUcFWUkMp2II6gjLhu2g2tMmGktGTGlWm
TDSrTJhpXsnlLU/0h5ftJ2NZFX0pfHlH8NT8wK5xmvw+HmkOnP5vL6vFwZSGPfmdYMbW01OLaS3f
03YdeLbqfoYfjmx7EzVIw79/k5nZkxZgeReyflVr63+nWU/L/emII47B1FafR0z0zFk44iXe+Ya/
THBnnjP8Mj8un2PRsscR2KuxV2KuxV2KuxV2KuxV2KuxV2KuxV2KuxVZPPDbwSTzMEhhVpJHPRVU
VJPyGAmmUYmRAHMvmLyPPL5k89a35quFNGd2hB/ZM7EIo/1Il455x7S6q48P8838A+oa2A0+mx4B
3fd+ss91XUItP026vpf7u2ieVh48RWn09M5PBiOSYgOpp0+HGZyER1L5umupJ55J5W5Syszu3izG
pP356PGAiAByD3cYgCh0aEmGkrhJjSrhJgpWdeU/y6ub3heawGt7Q0ZLbpJIP8rug/H5Zotf2vGH
px7y7+g/W6jWdpiPphue96ZbW1vawJb20axQRiiRoKADOYnOUzcjZLoZSMjZ3KQeaPJena2rTLS2
1AD4bhRs1O0g7/Prmw0XaM8G3OHd+pzdJrpYtuce55NrGkalpF0ba+iMb7lHG6OP5lbuM63T6iGa
PFAvRYc8cguJQBky+m5aZMNKtMmNKz78qtV/eXmmMdmAuIh7iiP/AMa5oO3MG0Z/D9X6XUdqYuUv
gzTX9PGo6Pd2dKtLGfT/ANdfiT/hgM02ly+HkjLuLrdPk4JiSB/I3XZEiuNPY0ktZBNCD2BNaU+Y
Nc9S7NyXAx7nRe2Gk4c0co5TFH3j9lfJ9IRSrLEkqbq6hl+RFc2Tx67FXYq7FXYq7FXYq7FXYq7F
XYq7FXYq7FXYqwD88/MQ0X8u79UbjcamRYQ/Kavq/wDJJXzE1uThxnz2d97NaTxtZG+UPUfhy+2n
nf5aaUNP8qWzsKS3pNzJ8n2T/hADnk3bOfxNQe6O36/teq7UzceY90dkr/OLV/qvl2KwRqSX8oDD
/iqL42/4bhmT7P4OLMZnlEfafwW/sbDxZTL+aPv/AAXiwY52dPTrhJgpUbpenahql2lpYQtPO/7K
9APFidlHucpzZoYo8UzQa8uWOMcUjQeu+Ufy9sNGCXd7xu9SG4alY4j/AJAPU/5R+imcjr+1p5vT
H0w+0+/9Tzur7Rll9Mdo/eyyaaKGNpZXEcaAs7sQFAHUknNVGJJoc3XRiSaDz/WfzVjiuzFpFsLq
CLeWeTkAw/yANwPc/dnQ6bsIyjeQ0e4fpdxh7K2uZ4SejJfLvmvS9dg5Wz+ncKKy2rkc19x/MvuM
1er0OTAfVy73D1GkniO/LvRmqaXYanata3sImhbseoPipG4OU4M88UuKJotWLLLGbiaLybzZ5E1D
Ri91bcrrTRuZAPjjH/FgHb/KG3yzrND2nDN6Zemf3+79T0Ol18cmx2kxIyZtqc9aXxpU18q6qdN8
wWV0xpEJAkx7cJPhY/QDXMXXYPEwyj1po1WPjxkPcyc4d5lgOk3B8u/mbT7NtePt4FZ/iFB/r/Dn
fdg6m4xP+aWztrB+Y7PJ/ix7/Ln9j6f8s3Qm00JWrQkr/sTuP151r5km2KuxV2KuxV2KuxV2KuxV
2KuxV2KuxV2KuxV89f8AOQeovrnnfQ/Kds1RbqHuOJ+zJdMOo/yIkDfTmg7a1IhEn+aLfQPZTD4O
myZz/Fy90f1n7mTxRxwxJDGOMcahEUdlUUAzyeRJNnmWgkk2Xh/5r6ub7zVJbqaw2CLAvhzPxufv
bj9Gdt2Hg4MAPWW/6nquycPBhvrLdhmbl2bJvKXkPVfMEglobbTgfju3H2qHcRj9o/gM1uv7Tx6c
Vzn3frcHV66GHbnLu/W9l0Ly9pWh2YtdPhCA09SU7ySEd3bv+ods47U6vJnlxTP6g83n1E8srkVm
v+Y9L0S19e+lox/uoV3kc+Cr/Hph0ujyZ5VEfHoGWn008pqIecy3Hmfz1d8FBtNHRtlFSla/QZH/
AAHtncdldiCG459ZH9DmavXabs2O/rynp1/46Pxu9O8o/l3YafAsK2/N5RR1YcpJP9c+H+SM6zDp
44xQfP8AtDtXPqp8czy5Ach7v180D5z/ACC1W0T9OeUpPTvYyZH0xG4kf8YHr1/yD9B7ZrtZ2bGY
PCNu56Tsn2o28LVbx/nf8V+tjPlz8wecx0zzAn1PUI2MZldfTUsNisimnBvw+WcJr+xpQJlj3Hd1
H4+b0OfQCuPEeKJ/G3ezQkMPEH7iM0jrWAebfy1guud5ooWG5O72nSN/9T+U+3T5ZvtD2wY+nLuO
/r+122l7QMfTPcd7zK4tp7ad4LiNopozR43BDA+4OdLCYkLBsO6jIEWOSnkkvcfKuqfpLy/ZXRNZ
PTEcvjzj+Fj9NK5xGuw+HmlHpf3vN6nHwZCGN/mZZui2Oqw7SQP6TOOo/bQ/QQc2nYeapGPxDl6A
iQljPIj+17n+V2vx6hp9pcA/DdwgMPB1FafQKjPSMc+KIPe+V6zTHBmljP8ACSHoOTcZ2KuxV2Ku
xV2KuxV2KuxV2KuxV2KuxVqSRI0aR2CogLMx2AA3JOKQCTQfLflK5fzT+Y+teaZatEsjvbk9vVJj
hXf+WFSM889pdX6K/nn7B+A+panGNNpIYBzoX8Nz9r0DUr6GwsLi9m/uraN5X+SAmn05x+HEZzER
zJp1GPGZyER1fNU811qF/JMwMt1dSs5CglmeRq7AbmpOejxjHHADlGI+57eIEI10AekeTvyq/u77
zAvg0eng/d6pH/ER9PhnO9odt84Yf9N+r9bpdZ2r/Dj+f6npiJHFGscahI0AVEUAKANgAB0zmiST
ZdISTuWG+bfzGs9MZrLTALzUvskjeONum9PtN/kjNz2f2PPLUp+mH2l2ek7OMxxT9MEl8veQtY1+
+/SXmBnkkko31djRqdvUI+wv+SPwzv8AQ9lxhEAjhj3frdX2p7TQxDwtLX9bp8O8+fL3vafLPlBU
VI7aJVWMcTLx4xoPBAM3QAAoPC5MkpyMpGyerPtO0u1sY6RCsh+3KftH+gwsEXirBPzG/KLy95zh
adgLHWlWkWoxru1OizLtzX8RmNqNLHJ7+93XZPbmbRmh6sfWJ/R3F4PPP5w/LvUhpHmO2ebTz/vP
KDyUoP2oJDsR/kHp7Zx/afYgkb+mff0L32DJp9fDjxGpdR1+I/SzTTtUsdStVurKZZoW7jqD4MDu
D885HLgnjlwyFFwsmKUDUhulvmPyrpeuw0uF9O5UUiukHxr7H+ZfY5k6TXTwHb6e5u0+pliO3Lue
S6/5Z1PRLj07pOULH91cJujj59j7HOs0ushmFx59zvsGojkGzLvyp1P4L3TWPQi4iHz+B/8AjXNR
25h+mfw/V+lwe0sfKXwZd5k08ajol3a0q7xlov8AXT4l/EZqdHl8PLGXm4OnnwTBd+RHmBvqc1gW
/eWUoliH+Sx5U+/lnp/Z2S4cPc8z7X6Tg1AyDlkH2x2+6n0dG6yIrqaq4DKfY75sHkm8VdirsVdi
rsVdirsVdirsVdirsVdirBPzt8xnQvy61OSNuNzfgWFuRseVxUPQ+IiDkZi6zJw4z57O89ndJ4+s
gDyj6j8P208u/K7SjYeVIpnFJb52uGr14n4U/wCFXl9OeU9tZ+POQOUdv1vX9q5ePMR0jsiPPtrq
uo6MNJ0yPlPfyKksh2SOFDzdmbtuAKdTlXZc8ePJ4kztEfMsNBKEJ8c+UfvU/KXkTSfL0YlAFzqJ
FHu3HSvURrvxH4nJa7tPJqDXKHd+tlq9dPNtyj3J7fX9nY2z3V5MsFvGKvI5oB/b7Zg4sUpy4Yiy
XFx45TNRFl5nrfnXW/Mt02k+XInitW2ln+y7L0JZv91p+J/DOv7L7BogyHFP7A7Y4sGjh4ucj3fq
7yynyP8AllbWAS7uP3tz1NwRsPaJT0/1j/Znb6fRxx7neTxXbHtDl1fpj6MXd3/1v1cve9i0Lyoq
xq0yejB1EQ2dvdj2/XmW88yqKKOKMRxqERdlUbAYquxV2KuxVLte8vaNr+myabq9ql3Zy9Y3G4PZ
lYbqw7EZGcBIUeTfp9TkwzE8Z4ZB86edvyn81+QLqTW/LUsl/og+KVacpIk68Z0H20H846e2c/2h
2TGcdxcftD6D2Z2/h1gGPPUcn2H3dx8l3lrzpp2toIiRb34HxW7H7VO8Z/a+XXOH1nZ08O/OHf8A
rc3UaOWPfnFObu1tru3e3uYlmhkFHjcVBzDxzlA3E0XHhIxNjmwqLyhc6B5httS0wtNp7P6dxCd3
jST4Sf8AKVa18ds3UtfHPhMJ7T6Hvp2R1Qy4zGX1M2JzSuuYN5auP8OfmY0BPC1u2Kr4cZfjWnyP
w533Yep4hE94o+9Hb+D8xoOIfVj3+Wx+zd9S+XLr1tNVSatCSh+XUfgc6h8yTTFXYq7FXYq7FXYq
7FXYq7FXYq7FXYq+ev8AnI/VptW806D5RtTXgBNMB09W5b00r/qIpP8Ass0na+oEI78oi3vvZLAM
eHJnPXYe4b/afuZFBBFb28VvCOMUKLHGvgqigH3DPJpSMiSeZYykZEk8y2TgVj/mnznpPl+H/SG9
W8YVis0I5nwLfyr7n6K5n6Ls/JqDttHvczS6OeY7cu9gFtp3mnz3epdag7W+mBv3ESA8aeESHqfF
z/Zne9mdjRxj0ih1PUtuv7X0/Z8TDH6834+o/o+7m9f8o+Q7SwijtbW2Bbr6Q33/AJpGP2j89s6X
HijAUHz3Wa3LqZ8eQ2fu9z03StAgs+MstJbgdD+yv+qP45Y4ia4q7FXYq7FXYq7FXEAih3B6jFXj
f5mfkDZaq8mseU+OnasD6j2YPCCVhvVKf3Tn/gT7dc1+p0MZ7x5/YXrOx/aeeGsef14+/qP1j8eT
y3S/OWpaTfPonmuCS1u4DwaaRSrqe3qr3B7OP7c4nX9jEEmAo/zf1PYy08MsPEwkSifx+AzRJY5U
WSNg8biqupBBB7gjOfMSDRcGqcThSwT8yLWSCaw1iD4ZYmEbOOxU+pGfvDZv+xM5BMfiPx8nYaOp
xljlykP2F9A/llrsd/p9rMp+C8gVgP8AKUVH4Vz0SEuKIPe+TanAcWSWM84kj5M8yTQ7FXYq7FXY
q7FXYq7FXYq7FXYq7FXzT+cIfQvzrs9avlI0+7jhkjlAqOKx+g/0oRyI8KZzHb2nlkjKI5yG3wfR
/Z4jN2eccfqiT99swS5gkgFxHIrwMvNZVIKFeteQ2pnmZgQaI3cUxINHmwDzX+ZvGY6X5bX63eue
BulHNQT2iH7Z9+nzzoezuw5TIllG383r8fxbttP2eIx8TMeGI+Hz7lLyh+WV3fXX6S15jc3Tnm8U
jclU+Mrb82/yenzzvtJ2dGAFjl0dB2v7UWPC03pj/O/4nu9/P3PbPLnlOqgxrwiGzXBG5p2QZtHj
CbZvZWNtZxenAtB+0x+0T7nFCvirsVdirsVdirsVdirsVdirFfPn5beWvOlj6OpQ+neRilrqEQAm
jPhX9pfFTt9OU5sEcgouy7N7VzaSd4zt1j0P473znrnl/wA7/lhqAhvoze6FK1IblORheu/wn/dU
n+Sfx65y/aXY4luef879b6Jou0NP2hH0+nIOY6/tH42ZFpGu6dq9t69nLyp9uJtnQ+DLnIajTTxS
qQXJhlA0WO/mRqlomlDT+Qa6mdW9MdVRd+R8K9M2PZGCRycf8IcrQ4zxcXR6b+UsV1p+g6ekgIki
9Nip6gt8TL9ANM9G08THGAXzHtjNHLq8ko8jL7tntOXOtdirsVdirsVdirsVdirsVdirsVdirHfP
HkTQfOekfo3Vo2+Al7W6jNJYZKU5Iem/cHY/dlWbDHIKLn9ndpZdJk48Z946F4JrX/OO/mXTJWih
1Iz6Wxr6iRn/AIdOdKjxzXHssXd/Y9aPbOFWcXq/rfsZD5N/LGy0ih9MyXL7NKaNK3+SOOyr7DM7
Bpo4+XN5rtTtrPrD6jUOkRy/aXrGjeVo4kR7pAqj7FuOn+y/pmQ6hkiqqgKoAUbADYAYq7FXYq7F
XYq7FXYq7FXYq7FXYq7FUPqGnWGpWUtlf28d1aTrxmglUOjD3BwEAiizx5JQkJRNSHUPB/OH/ONT
x3T33lS9aOEkt9Rl+J09o5KqSB4Hf55rcvZsZcjs9lpPbGcY8OaHH5jb7P7Ek8vfk09lfLcakxuJ
o25BZF4IrDuVqzMfwyzDoIwNndxu0vavLngYY4+HE8zdn9j2jyv5eZTExUrbRHmXYULsN9vpzPeT
ZnirsVdirsVdirsVdirsVdirsVdirsVdirsVaWONSSqhSepApireKuxV2KuxV2KuxV2KuxV2KuxV
2KuxV2KuxV2KtNHGxBZQSOhIrireKuxV2KuxV2KuxV2KuxV2KuxV2KuxV2KuxV2KuxV2KuxV2Kux
V2KuxV2KuxV2KuxV2KuxV2KuxV2KuxV2KuxV2KuxV2KuxV2Kv//Z</xapGImg:image></rdf:li></rdf:Alt></xap:Thumbnails></rdf:Description><rdf:Description
             rdf:about="uuid:36736415-db9c-437e-90df-f432a0f5520e"><xapMM:DocumentID>
uuid:2d31fc08-1097-4e9b-9a77-fe0be499111f</xapMM:DocumentID></rdf:Description><rdf:Description
             rdf:about="uuid:36736415-db9c-437e-90df-f432a0f5520e"><dc:format>
image/svg+xml</dc:format></rdf:Description><cc:Work
             rdf:about=""><dc:format>image/svg+xml</dc:format><dc:type
               rdf:resource="http://purl.org/dc/dcmitype/StillImage" /><dc:title></dc:title></cc:Work></rdf:RDF></metadata></x:xmpmeta><xpacket>end='w'    </xpacket></metadata><g
     id="Layer_1"
     transform="translate(0,54.4)"><linearGradient
       id="XMLID_8_"
       gradientUnits="userSpaceOnUse"
       x1="23.6064"
       y1="42.4268"
       x2="23.6064"
       y2="4.5922999"><stop
         offset="0"
         style="stop-color:#FFFF00"
         id="stop552" /><stop
         offset="1"
         style="stop-color:#FFA700"
         id="stop553" /><a:midPointStop
         offset="0"
         style="stop-color:#FFFF00"
         id="midPointStop554" /><a:midPointStop
         offset="0.5"
         style="stop-color:#FFFF00"
         id="midPointStop555" /><a:midPointStop
         offset="1"
         style="stop-color:#FFA700"
         id="midPointStop556" /></linearGradient><linearGradient
       id="XMLID_9_"
       gradientUnits="userSpaceOnUse"
       x1="23.604"
       y1="4.5889001"
       x2="23.604"
       y2="42.422298"><stop
         offset="0"
         style="stop-color:#F8310E"
         id="stop561" /><stop
         offset="1"
         style="stop-color:#CF0000"
         id="stop562" /><a:midPointStop
         offset="0"
         style="stop-color:#F8310E"
         id="midPointStop563" /><a:midPointStop
         offset="0.5"
         style="stop-color:#F8310E"
         id="midPointStop564" /><a:midPointStop
         offset="1"
         style="stop-color:#CF0000"
         id="midPointStop565" /></linearGradient><linearGradient
       id="XMLID_10_"
       gradientUnits="userSpaceOnUse"
       x1="2.5346999"
       y1="20.5308"
       x2="2.5346999"
       y2="20.5028"><stop
         offset="0"
         style="stop-color:#990000"
         id="stop568" /><stop
         offset="1"
         style="stop-color:#7C0000"
         id="stop569" /><a:midPointStop
         offset="0"
         style="stop-color:#990000"
         id="midPointStop570" /><a:midPointStop
         offset="0.5"
         style="stop-color:#990000"
         id="midPointStop571" /><a:midPointStop
         offset="1"
         style="stop-color:#7C0000"
         id="midPointStop572" /></linearGradient><linearGradient
       id="XMLID_11_"
       gradientUnits="userSpaceOnUse"
       x1="3.0137"
       y1="6.3344998"
       x2="44.386902"
       y2="47.707699"><stop
         offset="0.0056"
         style="stop-color:#FFFF00"
         id="stop575" /><stop
         offset="0.3034"
         style="stop-color:#FFD700"
         id="stop576" /><stop
         offset="1"
         style="stop-color:#FF6D00"
         id="stop577" /><a:midPointStop
         offset="0.0056"
         style="stop-color:#FFFF00"
         id="midPointStop578" /><a:midPointStop
         offset="0.5"
         style="stop-color:#FFFF00"
         id="midPointStop579" /><a:midPointStop
         offset="0.3034"
         style="stop-color:#FFD700"
         id="midPointStop580" /><a:midPointStop
         offset="0.5"
         style="stop-color:#FFD700"
         id="midPointStop581" /><a:midPointStop
         offset="1"
         style="stop-color:#FF6D00"
         id="midPointStop582" /></linearGradient><linearGradient
       id="XMLID_12_"
       gradientUnits="userSpaceOnUse"
       x1="3.1489"
       y1="21.0093"
       x2="3.1489"
       y2="19.970501"><stop
         offset="0"
         style="stop-color:#990000"
         id="stop585" /><stop
         offset="1"
         style="stop-color:#7C0000"
         id="stop586" /><a:midPointStop
         offset="0"
         style="stop-color:#990000"
         id="midPointStop587" /><a:midPointStop
         offset="0.5"
         style="stop-color:#990000"
         id="midPointStop588" /><a:midPointStop
         offset="1"
         style="stop-color:#7C0000"
         id="midPointStop589" /></linearGradient><g
       id="g4173"
       transform="matrix(2.2179326,0,0,2.2179326,-2.3996682,-56.169914)"><path
         inkscape:connector-curvature="0"
         id="path557"
         d="m 22.679,4.324 c 0,0 -4.385,13.496 -4.468,13.75 -0.267,0 -14.458,0 -14.458,0 -0.423,0 -0.796,0.271 -0.927,0.674 0,0 -0.048,0.301 -0.048,0.301 0,0.311 0.15,0.606 0.402,0.789 0,0 10.529,7.649 11.697,8.498 -0.083,0.254 -4.467,13.751 -4.467,13.751 l -0.048,0.301 c 0,0.311 0.15,0.605 0.402,0.789 0.343,0.249 0.803,0.249 1.146,0 0,0 10.53,-7.65 11.697,-8.498 0.216,0.157 11.696,8.498 11.696,8.498 0.344,0.249 0.804,0.249 1.146,0 0.252,-0.183 0.402,-0.479 0.402,-0.789 l -0.048,-0.301 c 0,0 -4.022,-12.378 -4.468,-13.751 0.216,-0.157 11.697,-8.498 11.697,-8.498 0.251,-0.183 0.401,-0.478 0.401,-0.789 l -0.047,-0.301 c -0.132,-0.403 -0.505,-0.674 -0.928,-0.674 0,0 -14.191,0 -14.459,0 C 28.917,17.82 24.532,4.324 24.532,4.324 24.401,3.921 24.028,3.651 23.605,3.651 c -0.422,0 -0.795,0.27 -0.926,0.673 z"
         style="fill:url(#XMLID_8_)" /><path
         inkscape:connector-curvature="0"
         id="path558"
         d="m 22.912,4.785 c 0,0 -3.875,11.927 -4.257,13.103 -1.237,0 -13.777,0 -13.777,0 -0.831,0 -1.562,0.531 -1.819,1.321 l 0,0 c 0,0.004 -0.082,0.445 -0.082,0.445 L 2.961,19.739 2.965,19.8 c 0,0.591 0.281,1.148 0.747,1.509 0.279,0.211 1.811,1.324 11.187,8.136 -0.382,1.176 -4.28,13.173 -4.28,13.173 l -0.071,0.446 0,0.074 c 0,0.61 0.294,1.188 0.788,1.547 0.672,0.488 1.575,0.488 2.248,10e-4 0.002,-10e-4 10.268,-7.46 11.147,-8.099 1.001,0.728 11.146,8.098 11.146,8.098 0.673,0.488 1.576,0.488 2.248,10e-4 0.494,-0.359 0.789,-0.938 0.789,-1.548 l 0,-0.074 -0.071,-0.446 c 0,0 -3.897,-11.997 -4.28,-13.173 1.001,-0.728 11.146,-8.098 11.146,-8.098 0.494,-0.359 0.788,-0.938 0.788,-1.547 l 0,-0.073 -0.07,-0.447 -0.023,-0.071 c -0.257,-0.79 -0.988,-1.321 -1.818,-1.321 0,0 -12.541,0 -13.777,0 C 30.425,16.71 26.55,4.785 26.55,4.785 26.293,3.994 25.563,3.464 24.732,3.464 c -0.831,0 -1.563,0.53 -1.82,1.321 z M 3.678,21.282 C 3.662,21.269 3.642,21.251 3.642,21.251 c 0.006,0.007 0.012,0.013 0.036,0.031 z"
         style="opacity:0.2" /><path
         inkscape:connector-curvature="0"
         id="path559"
         d="m 22.162,4.41 c 0,0 -3.875,11.927 -4.257,13.103 -1.237,0 -13.777,0 -13.777,0 -0.831,0 -1.562,0.531 -1.819,1.321 l 0,0 c 0,0.004 -0.082,0.445 -0.082,0.445 l -0.016,0.085 0.004,0.061 c 0,0.591 0.281,1.148 0.747,1.509 0.279,0.211 1.811,1.324 11.187,8.136 -0.382,1.176 -4.28,13.173 -4.28,13.173 l -0.071,0.446 0,0.074 c 0,0.61 0.294,1.188 0.788,1.547 0.672,0.488 1.575,0.488 2.248,10e-4 0.002,-10e-4 10.268,-7.46 11.147,-8.099 1,0.728 11.146,8.098 11.146,8.098 0.673,0.488 1.576,0.488 2.248,10e-4 0.494,-0.359 0.789,-0.938 0.789,-1.548 l 0,-0.074 -0.071,-0.446 c 0,0 -3.897,-11.997 -4.28,-13.173 1.001,-0.728 11.146,-8.098 11.146,-8.098 0.494,-0.359 0.788,-0.938 0.788,-1.547 l 0,-0.073 -0.07,-0.447 -0.023,-0.071 c -0.257,-0.79 -0.988,-1.321 -1.818,-1.321 0,0 -12.541,0 -13.777,0 C 29.675,16.335 25.8,4.41 25.8,4.41 25.543,3.619 24.813,3.089 23.982,3.089 c -0.831,0 -1.563,0.53 -1.82,1.321 z M 2.928,20.907 C 2.912,20.894 2.892,20.876 2.892,20.876 c 0.006,0.007 0.012,0.013 0.036,0.031 z"
         style="opacity:0.2" /><path
         inkscape:connector-curvature="0"
         id="path566"
         d="m 21.787,4.035 c 0,0 -3.875,11.927 -4.257,13.103 -1.237,0 -13.777,0 -13.777,0 -0.831,0 -1.562,0.531 -1.819,1.321 l 0,0 c 0,0.004 -0.082,0.445 -0.082,0.445 L 1.836,18.989 1.84,19.05 c 0,0.591 0.281,1.148 0.747,1.509 0.279,0.211 1.811,1.324 11.187,8.136 -0.382,1.176 -4.28,13.173 -4.28,13.173 l -0.071,0.446 0,0.074 c 0,0.61 0.294,1.188 0.788,1.547 0.672,0.488 1.575,0.488 2.248,10e-4 0.002,-10e-4 10.268,-7.46 11.147,-8.099 1,0.728 11.146,8.098 11.146,8.098 0.673,0.488 1.576,0.488 2.248,10e-4 0.494,-0.359 0.789,-0.938 0.789,-1.548 l 0,-0.074 -0.071,-0.446 c 0,0 -3.897,-11.997 -4.28,-13.173 1.001,-0.728 11.146,-8.098 11.146,-8.098 0.494,-0.359 0.788,-0.938 0.788,-1.547 l 0,-0.073 -0.07,-0.447 -0.023,-0.071 c -0.257,-0.79 -0.988,-1.321 -1.818,-1.321 0,0 -12.541,0 -13.777,0 C 29.3,15.96 25.425,4.035 25.425,4.035 25.168,3.244 24.438,2.714 23.607,2.714 c -0.831,0 -1.563,0.53 -1.82,1.321 z"
         style="fill:url(#XMLID_9_)" /><path
         inkscape:connector-curvature="0"
         id="path573"
         d="M 2.553,20.532 C 2.537,20.519 2.517,20.501 2.517,20.501 c 0.006,0.007 0.012,0.013 0.036,0.031 z"
         style="fill:url(#XMLID_10_)" /><path
         inkscape:connector-curvature="0"
         id="path583"
         d="M 22.5,4.267 18.243,17.37 c -0.101,0.309 -0.388,0.518 -0.713,0.518 l -13.777,0 c -0.497,0 -0.933,0.315 -1.095,0.783 -0.014,0.078 -0.035,0.19 -0.068,0.367 0,0.004 0,0.013 0,0.013 0,0.353 0.17,0.695 0.456,0.916 0.271,0.205 1.935,1.414 11.169,8.122 0.198,0.145 0.309,0.372 0.309,0.607 0,0.077 -0.012,0.155 -0.037,0.231 0,0 -4.226,13.006 -4.262,13.117 -0.012,0.074 -0.041,0.254 -0.052,0.329 0,0.005 0,0.016 0,0.016 0,0.371 0.179,0.723 0.479,0.94 0.409,0.297 0.958,0.297 1.367,0 l 11.146,-8.098 c 0.263,-0.19 0.619,-0.19 0.881,0 l 11.146,8.098 c 0.408,0.297 0.957,0.297 1.366,0 0.3,-0.218 0.479,-0.569 0.479,-0.94 0,0 0,-0.011 0,-0.016 -0.012,-0.074 -0.041,-0.255 -0.053,-0.329 -0.036,-0.111 -4.262,-13.117 -4.262,-13.117 -0.025,-0.076 -0.037,-0.154 -0.037,-0.231 0,-0.235 0.111,-0.463 0.31,-0.607 l 11.146,-8.098 c 0.301,-0.218 0.479,-0.57 0.479,-0.94 0,0 0,-0.01 0,-0.015 -0.012,-0.075 -0.04,-0.255 -0.052,-0.33 -0.002,-0.005 -0.005,-0.015 -0.005,-0.015 -0.156,-0.48 -0.601,-0.803 -1.105,-0.803 l -13.775,0 c -0.325,0 -0.613,-0.209 -0.714,-0.518 L 24.712,4.267 C 24.556,3.787 24.111,3.464 23.607,3.464 23.101,3.463 22.657,3.786 22.5,4.267 Z"
         style="fill:url(#XMLID_11_)" /><path
         inkscape:connector-curvature="0"
         id="path590"
         d="m 3.27,20.527 c 0,0.173 -0.058,0.345 -0.178,0.481 -0.012,0.014 -0.029,0.019 -0.042,0.031 0.012,-0.012 0.03,-0.017 0.042,-0.03 0.128,-0.146 0.193,-0.325 0.193,-0.502 0,-0.197 -0.079,-0.391 -0.238,-0.536 L 3.012,19.939 c 0.168,0.154 0.258,0.372 0.258,0.588 z"
         style="fill:url(#XMLID_12_)" /></g><radialGradient
       id="XMLID_13_"
       cx="21.8999"
       cy="-65.741203"
       r="155.7337"
       fx="21.8999"
       fy="-65.741203"
       gradientTransform="matrix(0.1875,0,0,0.1875,19.5,19.5)"
       gradientUnits="userSpaceOnUse"><stop
         offset="0"
         style="stop-color:#FF6666"
         id="stop592" /><stop
         offset="0.6854"
         style="stop-color:#F8310E"
         id="stop593" /><stop
         offset="1"
         style="stop-color:#CF0000"
         id="stop594" /><a:midPointStop
         offset="0"
         style="stop-color:#FF6666"
         id="midPointStop595" /><a:midPointStop
         offset="0.5"
         style="stop-color:#FF6666"
         id="midPointStop596" /><a:midPointStop
         offset="0.6854"
         style="stop-color:#F8310E"
         id="midPointStop597" /><a:midPointStop
         offset="0.5"
         style="stop-color:#F8310E"
         id="midPointStop598" /><a:midPointStop
         offset="1"
         style="stop-color:#CF0000"
         id="midPointStop599" /></radialGradient><linearGradient
       id="XMLID_14_"
       gradientUnits="userSpaceOnUse"
       x1="19.329599"
       y1="16.675301"
       x2="34.494099"
       y2="31.8398"><stop
         offset="0"
         style="stop-color:#FFFFFF"
         id="stop602" /><stop
         offset="0.0513"
         style="stop-color:#FFE9E9"
         id="stop603" /><stop
         offset="0.2024"
         style="stop-color:#FFACAC"
         id="stop604" /><stop
         offset="0.3526"
         style="stop-color:#FF7777"
         id="stop605" /><stop
         offset="0.4982"
         style="stop-color:#FF4D4D"
         id="stop606" /><stop
         offset="0.6384"
         style="stop-color:#FF2B2B"
         id="stop607" /><stop
         offset="0.7718"
         style="stop-color:#FF1313"
         id="stop608" /><stop
         offset="0.8954"
         style="stop-color:#FF0505"
         id="stop609" /><stop
         offset="1"
         style="stop-color:#FF0000"
         id="stop610" /><a:midPointStop
         offset="0"
         style="stop-color:#FFFFFF"
         id="midPointStop611" /><a:midPointStop
         offset="0.3277"
         style="stop-color:#FFFFFF"
         id="midPointStop612" /><a:midPointStop
         offset="1"
         style="stop-color:#FF0000"
         id="midPointStop613" /></linearGradient><polyline
       id="_x3C_Slice_x3E_"
       style="fill:none"
       points="0,48 0,0 48,0 48,48 " /></g></svg>
