<?xml version="1.0" encoding="UTF-8" standalone="no"?>
<!-- Created with Inkscape (http://www.inkscape.org/) -->

<svg
   xmlns:a="http://ns.adobe.com/AdobeSVGViewerExtensions/3.0/"
   xmlns:dc="http://purl.org/dc/elements/1.1/"
   xmlns:cc="http://creativecommons.org/ns#"
   xmlns:rdf="http://www.w3.org/1999/02/22-rdf-syntax-ns#"
   xmlns:svg="http://www.w3.org/2000/svg"
   xmlns="http://www.w3.org/2000/svg"
   xmlns:sodipodi="http://sodipodi.sourceforge.net/DTD/sodipodi-0.dtd"
   xmlns:inkscape="http://www.inkscape.org/namespaces/inkscape"
   width="124"
   height="124"
   viewBox="0 0 124 124"
   id="svg7613"
   version="1.1"
   inkscape:version="0.92.3 (unknown)"
   sodipodi:docname="annotation_na.svg"
   inkscape:export-filename="/var/www/chamilo111x/main/img/icons/48/annotation.png"
   inkscape:export-xdpi="34.838711"
   inkscape:export-ydpi="34.838711">
  <sodipodi:namedview
     id="base"
     pagecolor="#ffffff"
     bordercolor="#666666"
     borderopacity="1.0"
     inkscape:pageopacity="0.0"
     inkscape:pageshadow="2"
     inkscape:zoom="6.9570183"
     inkscape:cx="22.516548"
     inkscape:cy="6.893728"
     inkscape:document-units="px"
     inkscape:current-layer="g11372"
     showgrid="false"
     inkscape:window-width="1920"
     inkscape:window-height="1025"
     inkscape:window-x="0"
     inkscape:window-y="27"
     inkscape:window-maximized="1" />
  <defs
     id="defs7615">
    <clipPath
       clipPathUnits="userSpaceOnUse"
       id="clipPath11304">
      <path
         inkscape:connector-curvature="0"
         id="path11306"
         d="m 217.1543,1006.1716 23.37448,0 0,22.3786 -23.37448,0 z"
         style="fill:#9dd0f6;fill-opacity:1" />
    </clipPath>
    <linearGradient
       id="linearGradient4799-20-899-145">
      <stop
         style="stop-color:#7f7f7f;stop-opacity:1;"
         offset="0"
         id="stop4264" />
      <stop
         style="stop-color:#7f7f7f;stop-opacity:1;"
         offset="1"
         id="stop4266" />
    </linearGradient>
    <linearGradient
       gradientTransform="matrix(-0.3915,0.9202,0.9202,0.3915,-251.8165,957.8806)"
       y2="-109.2294"
       x2="-958.24829"
       y1="-97.728996"
       x1="-978.25879"
       gradientUnits="userSpaceOnUse"
       id="XMLID_139_-446">
      <stop
         id="stop4269"
         style="stop-color:#4c4c4c"
         offset="0" />
      <stop
         id="stop4271"
         style="stop-color:#3e3e3e"
         offset="1" />
      <a:midPointStop
         id="midPointStop1056"
         style="stop-color:#4c4c4c"
         offset="0" />
      <a:midPointStop
         id="midPointStop1057"
         style="stop-color:#4c4c4c"
         offset="0.5" />
      <a:midPointStop
         id="midPointStop1058"
         style="stop-color:#3e3e3e"
         offset="1" />
    </linearGradient>
    <linearGradient
       gradientTransform="matrix(0.97,0.2429,-0.2429,0.97,1879.3727,-102.3761)"
       y2="575.92682"
       x2="-1756.2351"
       y1="572.47748"
       x1="-1759.6841"
       gradientUnits="userSpaceOnUse"
       id="XMLID_140_-420">
      <stop
         id="stop4274"
         style="stop-color:#eaeaea"
         offset="0" />
      <stop
         id="stop4276"
         style="stop-color:#909090"
         offset="1" />
      <a:midPointStop
         id="midPointStop1063"
         style="stop-color:#eaeaea"
         offset="0" />
      <a:midPointStop
         id="midPointStop1064"
         style="stop-color:#eaeaea"
         offset="0.5" />
      <a:midPointStop
         id="midPointStop1065"
         style="stop-color:#909090"
         offset="1" />
    </linearGradient>
    <linearGradient
       gradientTransform="matrix(-0.9797,-0.2005,-0.2005,0.9797,-30.1045,0.6561)"
       y2="16.8074"
       x2="-65.559402"
       y1="-9.6475"
       x1="-77.475098"
       gradientUnits="userSpaceOnUse"
       id="XMLID_141_-635">
      <stop
         id="stop4279"
         style="stop-color:#7f7f7f"
         offset="0" />
      <stop
         id="stop4281"
         style="stop-color:#7f7f7f"
         offset="0.7753" />
      <stop
         id="stop4283"
         style="stop-color:#a5a5a5"
         offset="1" />
      <a:midPointStop
         id="midPointStop1071"
         style="stop-color:#7f7f7f"
         offset="0" />
      <a:midPointStop
         id="midPointStop1072"
         style="stop-color:#7f7f7f"
         offset="0.5" />
      <a:midPointStop
         id="midPointStop1073"
         style="stop-color:#7f7f7f"
         offset="0.7753" />
      <a:midPointStop
         id="midPointStop1074"
         style="stop-color:#7f7f7f"
         offset="0.5" />
      <a:midPointStop
         id="midPointStop1075"
         style="stop-color:#a5a5a5"
         offset="1" />
    </linearGradient>
    <linearGradient
       gradientTransform="matrix(0.97,0.2429,-0.2429,0.97,1879.3727,-102.3761)"
       y2="562.12268"
       x2="-1751.3385"
       y1="564.30762"
       x1="-1753.1719"
       gradientUnits="userSpaceOnUse"
       id="XMLID_142_-117">
      <stop
         id="stop4286"
         style="stop-color:#ababab"
         offset="0" />
      <stop
         id="stop4288"
         style="stop-color:#7f7f7f"
         offset="1" />
      <a:midPointStop
         id="midPointStop1083"
         style="stop-color:#ababab"
         offset="0" />
      <a:midPointStop
         id="midPointStop1084"
         style="stop-color:#ababab"
         offset="0.5" />
      <a:midPointStop
         id="midPointStop1085"
         style="stop-color:#7f7f7f"
         offset="1" />
    </linearGradient>
    <linearGradient
       gradientTransform="matrix(0.97,0.2429,-0.2429,0.97,1879.3727,-102.3761)"
       y2="574.7843"
       x2="-1756.1826"
       y1="557.69922"
       x1="-1763.8779"
       gradientUnits="userSpaceOnUse"
       id="XMLID_143_-837">
      <stop
         id="stop4291"
         style="stop-color:#7f7f7f"
         offset="0" />
      <stop
         id="stop4293"
         style="stop-color:#7f7f7f"
         offset="0.7753" />
      <stop
         id="stop4295"
         style="stop-color:#7f7f7f"
         offset="1" />
      <a:midPointStop
         id="midPointStop1091"
         style="stop-color:#7f7f7f"
         offset="0" />
      <a:midPointStop
         id="midPointStop1092"
         style="stop-color:#7f7f7f"
         offset="0.5" />
      <a:midPointStop
         id="midPointStop1093"
         style="stop-color:#7f7f7f"
         offset="0.7753" />
      <a:midPointStop
         id="midPointStop1094"
         style="stop-color:#7f7f7f"
         offset="0.5" />
      <a:midPointStop
         id="midPointStop1095"
         style="stop-color:#7f7f7f"
         offset="1" />
    </linearGradient>
    <linearGradient
       gradientTransform="matrix(-0.9797,-0.2005,-0.2005,0.9797,-30.1045,0.6561)"
       y2="9.4940996"
       x2="-64.389603"
       y1="9.4940996"
       x1="-77.0327"
       gradientUnits="userSpaceOnUse"
       id="XMLID_144_-331">
      <stop
         id="stop4298"
         style="stop-color:#8b8b8b"
         offset="0" />
      <stop
         id="stop4300"
         style="stop-color:#bbbbbb"
         offset="0.1798" />
      <stop
         id="stop4302"
         style="stop-color:#c2c2c2"
         offset="0.3727" />
      <stop
         id="stop4304"
         style="stop-color:#c9c9c9"
         offset="0.6825" />
      <stop
         id="stop4306"
         style="stop-color:#cccccc"
         offset="1" />
      <a:midPointStop
         id="midPointStop1103"
         style="stop-color:#8b8b8b"
         offset="0" />
      <a:midPointStop
         id="midPointStop1104"
         style="stop-color:#8b8b8b"
         offset="0.5" />
      <a:midPointStop
         id="midPointStop1105"
         style="stop-color:#bbbbbb"
         offset="0.1798" />
      <a:midPointStop
         id="midPointStop1106"
         style="stop-color:#bbbbbb"
         offset="0.2881" />
      <a:midPointStop
         id="midPointStop1107"
         style="stop-color:#cccccc"
         offset="1" />
    </linearGradient>
  </defs>
  <metadata
     id="metadata7618">
    <rdf:RDF>
      <cc:Work
         rdf:about="">
        <dc:format>image/svg+xml</dc:format>
        <dc:type
           rdf:resource="http://purl.org/dc/dcmitype/StillImage" />
        <dc:title />
      </cc:Work>
    </rdf:RDF>
  </metadata>
  <g
     inkscape:label="Capa 1"
     inkscape:groupmode="layer"
     id="layer1"
     transform="translate(0,-928.36218)">
    <g
       id="g11372">
      <g
         id="g4253"
         inkscape:export-filename="/var/www/chamilo11/main/img/icons/16/annotation_na.png"
         inkscape:export-xdpi="11.612906"
         inkscape:export-ydpi="11.612906">
        <rect
           style="opacity:0;fill:#ffffff;fill-opacity:1;stroke:none"
           id="rect5381"
           width="123.99998"
           height="123.99998"
           x="0.98749608"
           y="929.77289" />
        <rect
           style="fill:#3d3d3d;fill-opacity:1;stroke:none"
           id="rect5383"
           width="83.096649"
           height="103.31303"
           x="23.404619"
           y="941.22363"
           ry="6.2725754" />
        <rect
           ry="6.2725754"
           y="938.74066"
           x="20.921665"
           height="103.31303"
           width="83.096649"
           id="rect5385"
           style="fill:#ffffff;fill-opacity:1;stroke:#9b9b9b;stroke-width:1.93749976;stroke-opacity:1" />
        <path
           style="fill:#9d9d9d"
           inkscape:connector-curvature="0"
           d="m 95.443511,1007.9206 c 0,3.2932 -2.679407,5.9876 -5.987513,5.9876 l -23.950114,0 -11.975047,0 -17.96258,0 c -3.306924,0 -5.987533,-2.6944 -5.987533,-5.9876 l 0,-51.91262 c 0,-3.29313 2.680609,-5.98755 5.987533,-5.98755 l 17.96258,0 11.975047,0 11.975047,0 11.975067,0 c 3.308106,0 5.987513,2.69442 5.987513,5.98755 l 0,11.97504 0,39.93768 z"
           id="path5497"
           sodipodi:nodetypes="csccsssscccssccc" />
        <path
           style="fill:#ebebeb;fill-opacity:1"
           inkscape:connector-curvature="0"
           d="m 29.580724,1004.9269 c 0,3.2931 2.680609,5.9875 5.987533,5.9875 l 23.950094,0 11.975066,0 17.962581,0 c 3.308106,0 5.987513,-2.6943 5.987513,-5.9875 l 0,-51.91267 c 0,-3.29315 -2.679407,-5.98755 -5.987513,-5.98755 l -17.962581,0 -11.975066,0 -11.975047,0 -11.975047,0 c -3.306924,0 -5.987533,2.69438 -5.987533,5.98755 l 0,11.97503 z"
           id="path5499"
           sodipodi:nodetypes="ssccsssscccsscs" />
        <path
           style="fill:#ffffff;fill-opacity:1"
           d="m 33.634144,951.50653 57.757522,0 0,55.29667 -57.757522,0 z"
           id="rect5501"
           inkscape:connector-curvature="0" />
        <path
           style="fill:#cccccc;fill-opacity:1;stroke:#7f7f7f;stroke-width:1.62048495;stroke-linecap:round;stroke-linejoin:round;stroke-miterlimit:4;stroke-dasharray:none;stroke-opacity:1"
           d="m 27.037078,1026.4831 -0.05503,-9.8333 c 0.06297,-2.1592 3.965636,-2.0353 4.229969,-0.055 l 0,9.7234 6.537221,-6.5921 c 1.604153,-1.5049 3.937619,1.1364 2.526984,2.6369 l -6.097738,6.8668 8.569794,0.055 c 2.499859,0.3246 2.184783,4.4543 0.109856,4.6145 l -8.295115,-0.055 6.262542,6.0428 c 1.478545,1.6554 -0.493965,4.523 -2.691788,3.0763 l -7.031632,-6.7569 -0.05503,9.7234 c 0.248601,2.0648 -3.98317,2.455 -4.394773,0.055 l 0.05503,-9.229 -6.207613,6.2076 c -2.185306,0.5379 -3.979237,-1.0158 -3.131271,-2.9116 l 6.592149,-6.3174 -9.503688,0.11 c -2.341043,-0.4546 -2.284235,-4.3097 0.05502,-4.6145 l 9.72342,-0.055 -6.811881,-6.702 c -1.325328,-2.1093 0.948696,-4.2446 2.746735,-2.9665 z"
           id="path6039"
           inkscape:connector-curvature="0"
           sodipodi:nodetypes="ccccccccccccccccccccccccc" />
        <g
           id="g11273"
           transform="matrix(2.4709648,0,0,2.4709648,-500.94648,-1534.7081)"
           clip-path="url(#clipPath11304)">
          <path
             d="m 228.18524,1038.7847 c -3.04205,0 -5.50824,-0.2668 -5.50824,-0.5956 0,-0.3289 2.46619,-0.5956 5.50824,-0.5956 3.04225,0 5.50845,0.2667 5.50845,0.5956 0,0.3288 -2.4662,0.5956 -5.50845,0.5956"
             style="fill:#8a8a8a;fill-opacity:1;fill-rule:nonzero;stroke:none"
             id="path10210"
             inkscape:connector-curvature="0" />
          <path
             d="m 223.79603,1011.7247 0.0123,-0.022 -5.3e-4,0.02 1.1e-4,0 -0.0119,-6e-4 z m 10.9546,15.6037 -2.64549,-9.571 c -0.10582,-0.3189 -0.39144,-0.5623 -0.70702,-0.5855 -0.0103,-0.01 -0.0175,-0.048 -0.0175,-0.048 l -2.14091,0 0,-1.1805 0.021,-0.01 0.0275,-0.01 c 1.34674,-0.4103 2.58433,-1.5241 3.06406,-2.9422 0.0497,0.012 0.10155,0.02 0.15498,0.02 0.35461,0 0.64963,-0.2876 0.64963,-0.6421 0,-0.3354 -0.26466,-0.6106 -0.57773,-0.6393 l 0,0 -0.008,-0.024 c -0.006,-1.0584 -0.25474,-2.1463 -0.8355,-2.9433 0.59526,-0.3262 0.66581,-0.7422 0.90145,-1.1349 -1.48878,0.1655 -3.09735,-0.7052 -4.58248,-0.7052 -2.41788,0 -4.37835,1.9601 -4.37835,4.3779 0,0.1466 0.009,0.2912 0.0255,0.4339 -0.32205,0.035 -0.57313,0.3071 -0.57313,0.6383 0,0.3545 0.2874,0.6421 0.64201,0.6421 0.0849,0 0.16593,-0.017 0.24013,-0.047 0.44717,1.3525 1.5828,2.4323 2.85055,2.8953 l 0.002,0 c 0.0273,0.01 0.0807,0.02 0.0807,0.029 l 0,1.238 -1.98573,0 c 0,0 -0.006,0.038 -0.0159,0.045 -0.34209,0 -0.66257,0.2283 -0.77601,0.5703 l -2.54613,9.5798 c -0.14037,0.4232 0.0889,0.8843 0.51208,1.0248 0.36056,0.1195 0.74491,-0.028 0.93766,-0.3364 0.0258,0.018 0.0552,0.032 0.0877,0.039 0.13369,0.03 0.26664,-0.054 0.2969,-0.1871 l 0.21947,-0.968 c 0.0271,-0.1197 -0.0486,-0.3056 -0.16061,-0.3652 l 1.86196,-6.7479 c 0,1.1596 0.0313,3.4087 0.0733,5.9026 l -0.0297,0 0.0373,1.1021 0.0115,2e-4 c 0.0843,4.8082 0.19588,10.051 0.19588,10.051 0,0 -1.40341,0.2217 -1.40341,1.161 0.99757,0 2.71259,0 2.71259,0 l 1.04087,-10.5581 c 0.0139,0.011 0.0231,0.018 0.0231,0.018 l 0.22448,0 0.004,0 1.13792,10.5445 c 0,0 1.51225,0 2.71258,0 0,-0.9393 -1.40341,-1.161 -1.40341,-1.161 0,0 0.10311,-5.3003 0.18033,-10.1427 0.004,-0.1953 0.0228,-1.0106 0.0228,-1.0106 l -0.007,0 c 0.0387,-2.5119 0.0675,-4.7831 0.0675,-5.961 l 1.87783,6.7945 c -0.12732,0.04 -0.21864,0.2473 -0.18921,0.377 l 0.21937,0.968 c 0.0304,0.1335 0.16332,0.2172 0.297,0.1871 0.0417,-0.01 0.078,-0.03 0.10801,-0.056 0.18858,0.322 0.58211,0.4801 0.95029,0.358 0.42327,-0.1405 0.65255,-0.5972 0.51219,-1.0205"
             style="fill:#d8d8d8;fill-opacity:1;fill-rule:nonzero;stroke:none"
             id="path10212"
             inkscape:connector-curvature="0" />
          <path
             d="m 227.88302,1020.5682 0.52179,0 0,-6.3658 -0.52179,0 0,6.3658 z"
             style="fill:#c6c6c6;fill-opacity:1;fill-rule:nonzero;stroke:none"
             id="path10214"
             inkscape:connector-curvature="0" />
          <path
             d="m 229.72953,1021.0318 c -0.40752,-0.1773 -0.5245,0.1592 -0.71934,0.088 -0.19494,-0.071 -0.26424,-0.7175 -0.26424,-0.7175 -0.19504,-0.018 -0.44321,0.1062 -0.44321,0.1062 -0.0354,0.7797 0.63805,0.975 0.30139,1.8257 -0.11417,0.2881 -0.3545,0.1416 -0.56719,-0.036 -0.17073,-0.1424 -0.62834,-0.4077 -0.9747,-0.195 -0.46628,0.2863 -0.39009,1.6383 -0.39009,1.6383 l 0.4095,-0.029 0.18513,-1.0955 0.005,0 0.004,-0.01 0.003,0 0.003,0 0.003,0 0.003,0 0.003,0 0.004,0 0.004,0 0.004,0 0.005,0 0.004,0 0.006,0 0.001,-2e-4 0.004,-2e-4 0.0377,0.029 0.005,-0.01 0.005,0 0.001,-7e-4 0.004,0.01 10e-4,0 0.002,0.01 0.001,0 3.1e-4,0 c 4.2e-4,0 0.0282,0.149 0.11313,0.3231 0.12053,0.1746 0.2897,0.4343 0.7566,0.5485 0.7975,0.1948 1.43565,-0.2659 1.75468,-0.9926 0.20099,-0.4581 0.13295,-1.2849 -0.27478,-1.4621"
             style="fill:#989898;fill-opacity:1;fill-rule:nonzero;stroke:none"
             id="path10216"
             inkscape:connector-curvature="0" />
          <path
             d="m 229.67287,1020.0625 c -0.0622,-0.1231 -0.37455,-0.2 -0.92765,-0.2071 -0.0404,-0.023 -0.37715,0 -0.49225,0.033 -0.0494,0 -0.36453,0.011 -0.37622,0.011 -0.15048,0 -0.3042,-0.01 -0.4526,-0.011 -0.1486,0 -0.28886,-0.01 -0.42651,-0.01 -0.43173,0 -0.85887,0.044 -1.06091,0.3653 -0.28709,0.4561 -0.22572,0.9203 -0.17156,1.3297 0.0117,0.089 0.0228,0.1726 0.0303,0.2549 0.0269,0.2935 0.0724,0.4889 0.20778,0.4889 0.10947,0 0.27916,-0.1055 0.50426,-0.314 l 0.0226,-0.013 c 0.0126,0 1.17518,-0.3578 1.5874,-0.6703 0.11886,-0.038 0.23574,-0.081 0.35252,-0.1269 0.25192,-0.049 0.65172,-0.1769 0.89602,-0.5159 0.0242,-0.034 0.0486,-0.067 0.0725,-0.099 0.14892,-0.2023 0.2896,-0.4059 0.23429,-0.5154"
             style="fill:#989898;fill-opacity:1;fill-rule:nonzero;stroke:none"
             id="path10218"
             inkscape:connector-curvature="0" />
          <path
             d="m 229.34403,1014.1326 c 0,0.4035 -0.52596,0.7306 -1.17465,0.7306 -0.6488,0 -1.17477,-0.3271 -1.17477,-0.7306 0,-0.4033 0.52597,-0.7304 1.17477,-0.7304 0.64869,0 1.17465,0.3271 1.17465,0.7304"
             style="fill:#c6c6c6;fill-opacity:1;fill-rule:nonzero;stroke:none"
             id="path10220"
             inkscape:connector-curvature="0" />
          <path
             d="m 227.83877,1024.5444 0,0 c 0.10185,0.1396 0.29773,0.1703 0.43747,0.068 0.13963,-0.1018 0.17031,-0.2977 0.0685,-0.4374 l 0,0 c -0.10196,-0.1397 -0.29774,-0.1704 -0.43747,-0.069 -0.13963,0.1019 -0.17032,0.2977 -0.0685,0.4375 z m -0.11782,-0.2377 0,0 c -0.16311,0.057 -0.24879,0.2361 -0.1914,0.3992 0.0574,0.1631 0.23606,0.2489 0.39917,0.1915 l 0,0 c 0.16312,-0.057 0.2489,-0.2361 0.1915,-0.3993 -0.0574,-0.1631 -0.23616,-0.2487 -0.39927,-0.1914 z m -0.39406,0.1289 0,0 c -0.16374,0.055 -0.25161,0.2332 -0.19619,0.397 0.0555,0.1637 0.23324,0.2515 0.39698,0.1961 l 0,0 c 0.16373,-0.055 0.2516,-0.2331 0.19619,-0.3969 -0.0555,-0.1638 -0.23324,-0.2516 -0.39698,-0.1962 z m -0.43737,0.1838 0,0 c -0.151,0.084 -0.20537,0.2748 -0.12126,0.4258 0.0841,0.1511 0.27478,0.2054 0.42578,0.1213 0.15111,-0.084 0.20538,-0.2747 0.12137,-0.4258 -0.0841,-0.1511 -0.27477,-0.2054 -0.42589,-0.1213 z m -0.42202,0.5368 0,0 c -0.0216,0.1716 0.0999,0.3281 0.27144,0.3498 0.17156,0.022 0.3282,-0.1 0.3498,-0.2715 l 0,0 c 0.0216,-0.1715 -0.0999,-0.3281 -0.27143,-0.3497 -0.17157,-0.022 -0.32821,0.1 -0.34981,0.2714 z m 0.237,0.6623 0,0 c 0.13358,0.1098 0.33092,0.09 0.4406,-0.043 0.10978,-0.1337 0.0905,-0.3309 -0.0432,-0.4407 l 0,0 c -0.13357,-0.1097 -0.33092,-0.09 -0.4406,0.043 -0.10978,0.1336 -0.0904,0.3308 0.0432,0.4406 z m 0.63971,0.1437 0,0 c 0.17136,-0.023 0.29127,-0.1812 0.268,-0.3524 -0.0233,-0.1714 -0.18107,-0.2914 -0.35242,-0.268 -0.17136,0.023 -0.29137,0.181 -0.26799,0.3524 0.0233,0.1712 0.18106,0.2913 0.35241,0.268 z m 0.48308,-0.1423 0,0 c 0.15821,-0.07 0.23,-0.2545 0.16029,-0.4127 -0.0697,-0.1582 -0.25453,-0.23 -0.41273,-0.1603 -0.15821,0.07 -0.23001,0.2545 -0.1603,0.4127 0.0697,0.1584 0.25453,0.2301 0.41274,0.1603 z m 0.41994,-0.264 0,0 c 0.13556,-0.1074 0.15841,-0.3042 0.051,-0.4397 -0.10728,-0.1356 -0.30421,-0.1585 -0.43977,-0.051 -0.13556,0.1073 -0.15841,0.3042 -0.051,0.4398 0.10739,0.1355 0.3042,0.1584 0.43977,0.051 z m 0.32392,-0.2505 0,0 c 0.13859,-0.1035 0.16698,-0.2997 0.0635,-0.4381 -0.10341,-0.1386 -0.29961,-0.167 -0.4382,-0.063 l 0,0 c -0.13848,0.1034 -0.16687,0.2996 -0.0633,0.4382 0.10342,0.1385 0.29961,0.1669 0.43809,0.063 z m 0.32665,-0.2313 0,0 c 0.14422,-0.095 0.18388,-0.2895 0.0886,-0.4337 -0.0954,-0.1443 -0.2896,-0.1839 -0.43382,-0.089 l 0,0 c -0.14433,0.095 -0.18388,0.2896 -0.0886,0.4338 0.0954,0.1442 0.28959,0.1839 0.43382,0.089 z m 0.32445,-0.1901 0,0 c 0.15559,-0.075 0.22082,-0.2625 0.14547,-0.4182 -0.0752,-0.1557 -0.26246,-0.2208 -0.41806,-0.1456 l 0,0 c -0.1557,0.075 -0.22082,0.2626 -0.14558,0.4182 0.0752,0.1557 0.26246,0.2208 0.41817,0.1456 z m 0.0993,-0.084 0,0 c 0.14798,0.09 0.34052,0.042 0.42995,-0.1059 0.0894,-0.148 0.0419,-0.3405 -0.10592,-0.4299 l 0,0 c -0.14798,-0.09 -0.34052,-0.042 -0.42996,0.1059 -0.0894,0.148 -0.0421,0.3405 0.10593,0.4299 z m -0.1028,0.042 0,0 c -0.0447,0.167 0.0546,0.3386 0.22166,0.3833 0.16697,0.045 0.33864,-0.055 0.38331,-0.2217 l 0,0 c 0.0446,-0.167 -0.0546,-0.3386 -0.22166,-0.3833 -0.16708,-0.045 -0.33864,0.055 -0.38331,0.2217 z m -0.10905,0.2046 0,0 c -0.12815,0.1162 -0.13796,0.3142 -0.0218,0.4423 0.11615,0.1282 0.31412,0.1379 0.44227,0.022 0.12804,-0.116 0.13785,-0.314 0.0217,-0.4421 -0.11604,-0.1282 -0.31411,-0.1379 -0.44216,-0.022 z m -0.2441,0.123 0,0 c -0.16593,0.049 -0.261,0.2226 -0.21226,0.3885 0.0486,0.1659 0.2226,0.2609 0.38852,0.2123 l 0,0 c 0.16593,-0.049 0.261,-0.2227 0.21227,-0.3887 -0.0487,-0.1659 -0.2227,-0.2609 -0.38853,-0.2121 z m -0.35231,0.062 0,0 c -0.17209,0.017 -0.29836,0.1693 -0.28187,0.3414 0.0165,0.1722 0.16937,0.2984 0.34146,0.2819 0.17219,-0.017 0.29836,-0.1694 0.28187,-0.3415 -0.0165,-0.1721 -0.16937,-0.2983 -0.34146,-0.2818 z m -0.39458,0.02 0,0 c -0.17282,0 -0.30984,0.1472 -0.30598,0.3201 0.004,0.1728 0.14715,0.3098 0.32007,0.306 l 0,0 c 0.17282,0 0.30984,-0.1472 0.30598,-0.3201 -0.004,-0.1728 -0.14715,-0.3098 -0.32007,-0.306 z m -0.41691,0.01 0,0 c -0.17292,0 -0.31036,0.1461 -0.30713,0.319 0.003,0.1728 0.14611,0.3104 0.31903,0.307 0.17281,0 0.31025,-0.1461 0.30702,-0.3189 -0.003,-0.1729 -0.1461,-0.3104 -0.31892,-0.3071 z m -0.44123,0.022 0,0 c -0.17219,0.016 -0.29836,0.1693 -0.28197,0.3413 0.0164,0.1722 0.16927,0.2984 0.34135,0.282 0.17219,-0.016 0.29836,-0.1693 0.28198,-0.3414 -0.0164,-0.1721 -0.16927,-0.2984 -0.34136,-0.2819 z m -0.48975,0.1027 0,0 c -0.16155,0.062 -0.24263,0.2424 -0.18106,0.4039 0.0616,0.1617 0.24253,0.2427 0.40407,0.1812 l 0,-10e-5 c 0.16155,-0.062 0.24264,-0.2424 0.18106,-0.404 -0.0616,-0.1615 -0.24242,-0.2426 -0.40407,-0.181 z m -0.46513,0.3283 0,0 c -0.11176,0.132 -0.0954,0.3295 0.0366,0.4412 0.13191,0.1118 0.32946,0.095 0.44123,-0.036 l 0,0 c 0.11177,-0.132 0.0954,-0.3296 -0.0366,-0.4413 -0.13191,-0.1117 -0.32946,-0.095 -0.44123,0.037 z m -0.0344,0.7783 0,0 c 0.10916,0.1341 0.30639,0.1543 0.44049,0.045 0.1341,-0.1092 0.15424,-0.3064 0.0451,-0.4405 l 0,0 c -0.10916,-0.1341 -0.3063,-0.1544 -0.4404,-0.045 -0.1341,0.1091 -0.15434,0.3063 -0.0452,0.4404 z m 0.53431,0.3004 0,0 c 0.16844,0.039 0.33656,-0.066 0.37559,-0.2345 0.0389,-0.1684 -0.066,-0.3365 -0.23439,-0.3755 l 0,0 c -0.16854,-0.039 -0.33666,0.066 -0.37569,0.2343 -0.0389,0.1686 0.0659,0.3367 0.23449,0.3757 z m 0.5244,0.032 0,0 c 0.17157,-0.022 0.29304,-0.1783 0.27133,-0.3498 -0.0216,-0.1716 -0.17824,-0.2931 -0.34981,-0.2714 l 0,0 c -0.17156,0.022 -0.29303,0.1783 -0.27133,0.3498 0.0216,0.1716 0.17825,0.2931 0.34981,0.2714 z m 0.50176,-0.1724 0,0 c 0.15184,-0.083 0.20809,-0.2727 0.12543,-0.4247 -0.0825,-0.1518 -0.27268,-0.2081 -0.42452,-0.1254 l 0,0 c -0.15195,0.082 -0.2081,0.2727 -0.12555,0.4246 0.0827,0.1519 0.27269,0.2081 0.42464,0.1255 z m 0.37349,-0.2324 0,0 c 0.14558,-0.093 0.18795,-0.287 0.0947,-0.4326 -0.0932,-0.1456 -0.28688,-0.1879 -0.43246,-0.095 -0.14558,0.093 -0.18795,0.2869 -0.0948,0.4325 0.0933,0.1456 0.28698,0.1881 0.43256,0.095 z m 0.30024,-0.1582 0,0 c 0.16395,-0.055 0.25245,-0.2322 0.19755,-0.3962 -0.0549,-0.164 -0.2323,-0.2524 -0.39625,-0.1976 -0.16394,0.055 -0.25244,0.2323 -0.19755,0.3962 0.0549,0.164 0.2322,0.2525 0.39625,0.1976 z m 0.27624,-0.019 0,0 c 0.17177,0.02 0.32737,-0.1027 0.34751,-0.2745 0.0203,-0.1717 -0.10269,-0.3273 -0.27436,-0.3474 -0.17177,-0.02 -0.32726,0.1027 -0.34751,0.2744 -0.0201,0.1717 0.10269,0.3272 0.27436,0.3475 z m -0.023,-0.2097 0,0 c -0.0819,0.1522 -0.0249,0.3421 0.12732,0.424 0.15226,0.082 0.34208,0.025 0.42411,-0.1273 0.0819,-0.1523 0.0249,-0.3421 -0.12732,-0.424 -0.15226,-0.082 -0.34219,-0.025 -0.42411,0.1273 z m -0.20517,0.2003 0,0 c -0.13639,0.1063 -0.16081,0.303 -0.0545,0.4393 0.10634,0.1364 0.30305,0.1608 0.43935,0.054 l 0,0 c 0.13639,-0.1063 0.16081,-0.3031 0.0545,-0.4394 -0.10634,-0.1364 -0.30306,-0.1608 -0.43935,-0.054 z m -0.31328,0.2114 0,0 c -0.14871,0.088 -0.19786,0.2802 -0.10979,0.4289 0.0882,0.1488 0.28021,0.198 0.42892,0.1098 0.14881,-0.088 0.19796,-0.2801 0.10978,-0.4289 -0.0881,-0.1487 -0.2801,-0.198 -0.42891,-0.1098 z m -0.32257,0.1626 0,0 c -0.16218,0.06 -0.24493,0.2401 -0.18493,0.4023 0.06,0.1622 0.24013,0.245 0.40231,0.185 l 0,-1e-4 c 0.16206,-0.06 0.24492,-0.24 0.18492,-0.4022 -0.06,-0.1622 -0.24013,-0.245 -0.4023,-0.1849"
             style="fill:#989898;fill-opacity:1;fill-rule:nonzero;stroke:none"
             id="path10222"
             inkscape:connector-curvature="0" />
          <path
             d="m 226.74561,1026.4877 0,0 c -0.14568,-0.1786 -0.40856,-0.2054 -0.58732,-0.06 -0.17867,0.1456 -0.20549,0.4086 -0.0599,0.5874 l 0,0 c 0.14558,0.1786 0.40857,0.2054 0.58733,0.06 0.17866,-0.1456 0.20548,-0.4086 0.0599,-0.5874 z m -0.17041,-0.5021 0,0 c -0.0478,-0.2257 -0.26935,-0.3697 -0.49487,-0.322 -0.22552,0.048 -0.36964,0.2694 -0.32184,0.4949 l 0,0 c 0.0477,0.2255 0.26935,0.3696 0.49487,0.3219 0.22551,-0.048 0.36963,-0.2693 0.32184,-0.4948 z m -0.0815,-0.6596 0,0 c -0.0122,-0.2302 -0.20871,-0.407 -0.43893,-0.3948 -0.23032,0.012 -0.40699,0.2087 -0.39478,0.439 l 0,0 c 0.0122,0.2302 0.20871,0.407 0.43893,0.3947 0.23021,-0.012 0.40689,-0.2087 0.39478,-0.4389 z m -2e-4,-0.6889 0,0 c 0.0105,-0.2303 -0.1675,-0.4255 -0.39782,-0.4362 -0.23032,-0.011 -0.42557,0.1676 -0.43622,0.3979 -0.0105,0.2303 0.1676,0.4256 0.39792,0.4362 0.23022,0.01 0.42557,-0.1675 0.43612,-0.3979 z m 0.0582,-0.6983 0,0 c 0.0268,-0.229 -0.13692,-0.4363 -0.36588,-0.4633 -0.22897,-0.027 -0.43643,0.137 -0.46335,0.3659 l 0,10e-5 c -0.0268,0.229 0.13702,0.4363 0.36598,0.4633 0.22896,0.027 0.43632,-0.1371 0.46325,-0.366 z m 0.0118,0.3262 0,0 c 0.22218,0.061 0.45208,-0.069 0.51323,-0.2916 0.0613,-0.2223 -0.0693,-0.4521 -0.29157,-0.5133 -0.22229,-0.061 -0.45208,0.069 -0.51334,0.2917 -0.0612,0.2223 0.0694,0.4521 0.29168,0.5132 z m 0.75461,0.168 0,0 c 0.2273,0.038 0.44269,-0.1148 0.4811,-0.3421 0.0384,-0.2274 -0.1148,-0.4428 -0.34209,-0.4812 -0.22729,-0.038 -0.44269,0.1148 -0.48109,0.3421 -0.0384,0.2274 0.11469,0.4428 0.34208,0.4812 z m 0.77883,0.083 0,0 c 0.23042,0.01 0.42463,-0.1699 0.43403,-0.4002 0.009,-0.2303 -0.1699,-0.4246 -0.40022,-0.4339 l 0,0 c -0.23042,-0.01 -0.42463,0.1698 -0.43402,0.4002 -0.009,0.2303 0.16989,0.4246 0.40021,0.4339 z m 0.80387,-0.036 0,0 c 0.22834,-0.032 0.38748,-0.243 0.35545,-0.4714 -0.032,-0.2283 -0.24316,-0.3873 -0.47149,-0.3553 l 0,0 c -0.22824,0.032 -0.38738,0.243 -0.35534,0.4714 0.032,0.2283 0.24315,0.3874 0.47138,0.3553 z m 0.81066,-0.221 0,0 c 0.21164,-0.091 0.3089,-0.3373 0.21738,-0.5489 -0.0916,-0.2116 -0.33729,-0.3089 -0.54893,-0.2173 l 0,0 c -0.21153,0.091 -0.3089,0.3373 -0.21727,0.5488 0.0915,0.2117 0.33728,0.3089 0.54882,0.2174 z m -0.0405,-0.4704 0,0 c 0.0473,0.2257 0.26861,0.3702 0.49424,0.3228 0.22562,-0.047 0.37016,-0.2686 0.32278,-0.4942 l 0,0 c -0.0474,-0.2256 -0.26862,-0.3702 -0.49424,-0.3228 -0.22563,0.047 -0.37016,0.2686 -0.32278,0.4944 l 0,-2e-4 z m 0.0931,0.6678 0,0 c 0.0166,0.2299 0.21644,0.4029 0.44634,0.3864 0.23001,-0.017 0.40293,-0.2165 0.38634,-0.4465 -0.0166,-0.2299 -0.21644,-0.4029 -0.44634,-0.3863 -0.23001,0.017 -0.40293,0.2164 -0.38634,0.4464 z m -0.004,0.6606 0,0 c -0.0216,0.2295 0.14693,0.4331 0.37642,0.4548 0.22958,0.022 0.43319,-0.1469 0.45479,-0.3764 0.0216,-0.2296 -0.14683,-0.4332 -0.37642,-0.4548 -0.22948,-0.022 -0.43309,0.1468 -0.45479,0.3764 z m -0.13014,0.606 0,0 c -0.0802,0.2163 0.0302,0.4564 0.24629,0.5365 0.21623,0.08 0.45636,-0.03 0.5365,-0.2462 l 0,0 c 0.0801,-0.2163 -0.0302,-0.4564 -0.24628,-0.5366 -0.21623,-0.08 -0.45647,0.03 -0.53651,0.2463 z m -0.29961,0.523 0,0 c -0.14047,0.1828 -0.10613,0.4449 0.0767,0.5853 0.18273,0.1405 0.44488,0.1063 0.58535,-0.077 0.14046,-0.1828 0.10613,-0.4449 -0.0767,-0.5853 -0.18273,-0.1405 -0.44488,-0.1062 -0.58534,0.077 z m -0.43069,0.4166 0,0 c -0.1893,0.1317 -0.23595,0.3917 -0.10436,0.581 0.1316,0.1893 0.39176,0.2361 0.58097,0.1044 l 0,0 c 0.1893,-0.1316 0.23605,-0.3918 0.10446,-0.581 -0.1316,-0.1893 -0.39176,-0.236 -0.58107,-0.1044 z m -0.52158,0.2393 0,0 c -0.22395,0.055 -0.36118,0.2806 -0.3064,0.5045 0.0547,0.224 0.28062,0.3611 0.50458,0.3064 l 0,0 c 0.22395,-0.055 0.36118,-0.2806 0.30639,-0.5045 -0.0547,-0.224 -0.28062,-0.3612 -0.50457,-0.3064"
             style="fill:#c6c6c6;fill-opacity:1;fill-rule:nonzero;stroke:none"
             id="path10224"
             inkscape:connector-curvature="0" />
        </g>
        <path
           style="fill:none;fill-rule:evenodd;stroke:#7f7f7f;stroke-width:2.66347909;stroke-linecap:butt;stroke-linejoin:miter;stroke-miterlimit:4;stroke-dasharray:none;stroke-opacity:1"
           d="m 49.990377,995.16129 c -1.024867,-4.70979 -1.344882,-7.62442 0.0804,-9.68173 1.544265,-2.22906 3.787468,-3.28296 5.127773,-3.98898 10.046424,-3.07548 19.976938,1.30376 19.885956,8.80332 -0.270558,7.85528 -1.357624,13.8698 -10.957567,14.4916 -9.586539,0.621 -9.45928,-2.9871 -14.136567,-9.62421 z"
           id="path11353"
           inkscape:connector-curvature="0"
           sodipodi:nodetypes="csccsc"
           inkscape:export-filename="/var/www/chamilo11/main/img/icons/64/annotation.png"
           inkscape:export-xdpi="46"
           inkscape:export-ydpi="46" />
        <path
           inkscape:connector-curvature="0"
           d="m 53.273583,982.99044 c -0.455685,0.98311 -1.001978,1.93346 -1.530045,2.88877 -1.086061,1.90089 -2.042837,3.85302 -3.03006,5.7929 -0.712768,1.40336 -1.609827,2.72859 -2.557443,4.02119 -0.34422,0.45307 -0.709316,0.89354 -1.107677,1.31209 -0.195928,0.23284 -0.428214,0.43918 -0.62029,0.67408 -0.199392,0.30257 -0.479953,0.54039 -0.785742,0.76138 -0.294905,0.20002 -0.613193,0.37086 -0.908385,0.57096 -0.237899,0.17197 -0.468841,0.35102 -0.704369,0.52553 0,0 -4.557002,1.57676 -4.557002,1.57676 l 0,0 c 0.253222,-0.1564 0.500809,-0.323 0.720807,-0.5139 0.282316,-0.2215 0.575626,-0.4346 0.912873,-0.592 0.300923,-0.18603 0.625876,-0.36242 0.832924,-0.63404 0.03198,-0.0425 0.06587,-0.0839 0.09595,-0.1274 0.0809,-0.11696 0.07839,-0.14391 0.175269,-0.24964 0.111081,-0.12122 0.25218,-0.22257 0.358934,-0.3473 0.488414,-0.4943 1.05323,-0.92969 1.524638,-1.43787 0.392316,-0.4111 0.584464,-0.59951 0.954754,-1.04639 0.811968,-0.9799 1.498848,-2.03494 2.141342,-3.10293 0.175769,-0.31537 0.357252,-0.6284 0.527306,-0.9461 0.332184,-0.6206 0.692174,-1.35941 1.00292,-1.98798 0.452373,-0.91505 0.899831,-1.83188 1.298904,-2.76566 0.248809,-0.60732 0.328207,-0.76757 0.52289,-1.35904 0.119744,-0.36379 0.244367,-0.7477 0.217223,-1.13008 0,0 4.514271,-1.88333 4.514271,-1.88333 z"
           id="path4444"
           style="opacity:1;fill:#7f7f7f;fill-opacity:1;stroke:none;stroke-width:0.583;stroke-linecap:round;stroke-linejoin:round;stroke-miterlimit:4;stroke-dasharray:4.664, 2.332;stroke-dashoffset:0.22030675;stroke-opacity:1" />
        <path
           inkscape:connector-curvature="0"
           d="m 42.195837,979.10851 c 0.251647,0.17944 0.490961,0.37521 0.730225,0.5706 0.407998,0.32005 0.781146,0.6789 1.148076,1.04442 0.386259,0.37895 0.778578,0.7515 1.173796,1.12106 0.24562,0.23212 0.496412,0.45876 0.738662,0.6944 0.185725,0.18997 0.381612,0.36988 0.563147,0.56386 0.170744,0.20533 0.323363,0.42541 0.468097,0.64964 0.15908,0.24303 0.308306,0.49205 0.480376,0.72632 0.111433,0.17242 0.247119,0.32782 0.362809,0.49717 0.0105,0.0154 0.13946,0.22294 0.151655,0.24254 0.116271,0.18313 0.192213,0.3867 0.282506,0.58284 0.06793,0.19918 0.183422,0.37518 0.284906,0.55762 0.101293,0.16021 0.199098,0.32022 0.25979,0.50045 0.03881,0.14874 0.08939,0.29444 0.144192,0.43799 0.08643,0.16208 0.115017,0.34294 0.154061,0.51989 0.05398,0.17129 0.10171,0.34352 0.141253,0.51894 0.0487,0.17226 0.11288,0.33815 0.146791,0.51453 0.01797,0.13174 0.03953,0.26174 0.08602,0.38653 0.05033,0.14657 0.120577,0.28434 0.174417,0.42951 0.04514,0.15209 0.06782,0.30999 0.119033,0.46023 0.06254,0.1467 0.07841,0.30502 0.106471,0.46013 0.01664,0.0762 0.02548,0.15375 0.03556,0.23099 0,0 -2.653556,1.38533 -2.653556,1.38533 l 0,0 c -0.0047,-0.0712 -0.01052,-0.14225 -0.02175,-0.2128 -0.02408,-0.1405 -0.04296,-0.28272 -0.08465,-0.41929 -0.01919,-0.056 -0.04359,-0.11044 -0.05897,-0.16765 -0.02578,-0.0959 -0.03141,-0.1987 -0.06165,-0.29398 -0.0425,-0.14697 -0.122366,-0.27645 -0.175886,-0.41926 -0.05145,-0.14351 -0.104942,-0.28634 -0.10623,-0.44133 -0.0203,-0.17327 -0.06469,-0.34062 -0.128526,-0.50323 -0.03889,-0.17679 -0.08347,-0.35254 -0.147596,-0.52214 -0.02891,-0.15741 -0.05638,-0.31762 -0.12814,-0.46222 -0.07134,-0.14968 -0.115666,-0.31054 -0.164776,-0.46869 -0.03884,-0.16277 -0.123458,-0.30709 -0.20622,-0.45129 -0.111352,-0.18906 -0.221943,-0.38035 -0.306228,-0.58323 -0.0771,-0.18984 -0.165869,-0.37453 -0.243508,-0.56421 -0.139785,-0.25658 -0.310664,-0.49482 -0.490106,-0.72502 -0.164108,-0.24253 -0.33746,-0.47882 -0.495086,-0.72572 -0.1435,-0.20625 -0.277967,-0.42105 -0.449756,-0.60547 -0.178165,-0.19159 -0.365049,-0.37474 -0.548801,-0.56094 -0.231541,-0.23891 -0.453664,-0.4867 -0.681853,-0.72881 -0.364985,-0.39032 -0.733686,-0.77738 -1.123823,-1.1429 -0.381852,-0.34422 -0.768429,-0.68547 -1.188225,-0.98328 -0.239286,-0.17007 -0.488112,-0.36977 -0.785566,-0.41794 0,0 2.499055,-1.69559 2.499055,-1.69559 z"
           id="path4448"
           style="opacity:1;fill:#7f7f7f;fill-opacity:1;stroke:none;stroke-width:0.583;stroke-linecap:round;stroke-linejoin:round;stroke-miterlimit:4;stroke-dasharray:4.664, 2.332;stroke-dashoffset:0.22030675;stroke-opacity:1" />
        <g
           style="overflow:visible"
           id="g1048"
           transform="matrix(1.5203413,-0.775963,0.775963,1.5203413,14.271867,951.87877)">
          <path
             style="opacity:0.2"
             d="m 21.339,34.665 c 3.068,-5.448 3.624,-6.435 3.854,-6.622 -0.021,0.008 -0.053,0.019 -0.053,0.019 L 40.707,16.541 c 0.831,-0.612 2.249,0.52 3.217,1.831 0.96,1.296 1.629,2.986 0.833,3.629 l -15.633,11.522 -0.089,-0.002 -6.678,1.594 -1.319,0.127 0.301,-0.577 z"
             id="path1049"
             inkscape:connector-curvature="0" />
          <path
             style="opacity:0.2"
             d="m 21.157,34.212 c 3.067,-5.447 3.623,-6.435 3.854,-6.621 -0.021,0.008 -0.053,0.019 -0.053,0.019 L 40.524,16.089 c 0.832,-0.612 2.251,0.52 3.218,1.831 0.959,1.297 1.629,2.986 0.833,3.629 l -15.634,11.521 -0.089,-10e-4 -6.678,1.593 -1.318,0.128 0.301,-0.578 z"
             id="path1050"
             inkscape:connector-curvature="0" />
          <path
             style="opacity:0.2"
             d="m 22.334,34.038 c 3.067,-5.447 3.622,-6.435 3.854,-6.622 -0.022,0.008 -0.054,0.019 -0.054,0.019 L 41.702,15.914 c 0.83,-0.612 2.249,0.521 3.216,1.832 0.959,1.296 1.63,2.985 0.833,3.629 l -15.633,11.521 -0.089,-0.002 -6.678,1.593 -1.319,0.128 0.302,-0.577 z"
             id="path1051"
             inkscape:connector-curvature="0" />
          <path
             style="fill:#ffffff"
             d="m 21.882,33.401 c 3.068,-5.448 3.623,-6.435 3.855,-6.621 -0.022,0.008 -0.054,0.02 -0.054,0.02 L 41.25,15.277 c 0.832,-0.612 2.251,0.521 3.218,1.832 0.959,1.297 1.629,2.986 0.833,3.629 l -15.633,11.522 -0.09,-10e-4 -6.678,1.593 -1.318,0.128 0.3,-0.579 z"
             id="path1052"
             inkscape:connector-curvature="0" />
          <linearGradient
             id="linearGradient21958"
             gradientUnits="userSpaceOnUse"
             x1="-978.25879"
             y1="-97.728996"
             x2="-958.24829"
             y2="-109.2294"
             gradientTransform="matrix(-0.3915,0.9202,0.9202,0.3915,-251.8165,957.8806)">
            <stop
               offset="0"
               style="stop-color:#4c4c4c"
               id="stop21960" />
            <stop
               offset="1"
               style="stop-color:#3e3e3e"
               id="stop21962" />
            <a:midPointStop
               offset="0"
               style="stop-color:#4c4c4c"
               id="midPointStop1056" />
            <a:midPointStop
               offset="0.5"
               style="stop-color:#4c4c4c"
               id="midPointStop1057" />
            <a:midPointStop
               offset="1"
               style="stop-color:#3e3e3e"
               id="midPointStop1058" />
          </linearGradient>
          <path
             style="fill:url(#XMLID_139_-446)"
             d="m 21.882,33.401 c 3.068,-5.448 3.623,-6.435 3.855,-6.621 -0.022,0.008 -0.054,0.02 -0.054,0.02 L 41.25,15.277 c 0.832,-0.612 2.251,0.521 3.218,1.832 0.959,1.297 1.629,2.986 0.833,3.629 l -15.633,11.522 -0.09,-10e-4 -6.678,1.593 -1.318,0.128 0.3,-0.579 z"
             id="path1059"
             inkscape:connector-curvature="0" />
          <linearGradient
             id="linearGradient21965"
             gradientUnits="userSpaceOnUse"
             x1="-1759.6841"
             y1="572.47748"
             x2="-1756.2351"
             y2="575.92682"
             gradientTransform="matrix(0.97,0.2429,-0.2429,0.97,1879.3727,-102.3761)">
            <stop
               offset="0"
               style="stop-color:#eaeaea"
               id="stop21967" />
            <stop
               offset="1"
               style="stop-color:#909090"
               id="stop21969" />
            <a:midPointStop
               offset="0"
               style="stop-color:#eaeaea"
               id="midPointStop1063" />
            <a:midPointStop
               offset="0.5"
               style="stop-color:#eaeaea"
               id="midPointStop1064" />
            <a:midPointStop
               offset="1"
               style="stop-color:#909090"
               id="midPointStop1065" />
          </linearGradient>
          <path
             style="fill:url(#XMLID_140_-420)"
             d="m 26.397,27.33 -3.474,5.701 6.461,-1.688 -0.021,-0.03 c 0.043,-0.004 0.086,-0.012 0.124,-0.027 l 0.016,0.023 14.915,-11.002 -0.017,-0.021 c 0.444,-0.328 0.134,-1.502 -0.692,-2.623 -0.827,-1.12 -1.855,-1.762 -2.3,-1.435 L 26.496,27.229 26.397,27.33 Z"
             id="path1066"
             inkscape:connector-curvature="0" />
          <linearGradient
             id="linearGradient21972"
             gradientUnits="userSpaceOnUse"
             x1="-77.475098"
             y1="-9.6475"
             x2="-65.559402"
             y2="16.8074"
             gradientTransform="matrix(-0.9797,-0.2005,-0.2005,0.9797,-30.1045,0.6561)">
            <stop
               offset="0"
               style="stop-color:#7f7f7f"
               id="stop21974" />
            <stop
               offset="0.7753"
               style="stop-color:#7f7f7f"
               id="stop21976" />
            <stop
               offset="1"
               style="stop-color:#a5a5a5"
               id="stop21978" />
            <a:midPointStop
               offset="0"
               style="stop-color:#7f7f7f"
               id="midPointStop1071" />
            <a:midPointStop
               offset="0.5"
               style="stop-color:#7f7f7f"
               id="midPointStop1072" />
            <a:midPointStop
               offset="0.7753"
               style="stop-color:#7f7f7f"
               id="midPointStop1073" />
            <a:midPointStop
               offset="0.5"
               style="stop-color:#7f7f7f"
               id="midPointStop1074" />
            <a:midPointStop
               offset="1"
               style="stop-color:#a5a5a5"
               id="midPointStop1075" />
          </linearGradient>
          <path
             style="fill:url(#XMLID_141_-635)"
             d="M 28.615,31.544 C 28.293,31.416 27.916,31.152 27.549,30.798 27.321,30.58 27.095,30.321 26.882,30.031 26.69,29.773 26.528,29.51 26.395,29.258 26.143,28.78 26.031,28.307 26.03,27.935 L 26.398,27.331 26.497,27.23 41.312,16.3 c -0.173,0.342 -0.041,0.99 0.334,1.707 0.138,0.261 0.302,0.531 0.5,0.798 0.207,0.281 0.428,0.534 0.648,0.748 0.631,0.612 1.263,0.919 1.621,0.75 l 0.003,0.004 -14.915,11.002 -0.016,-0.023 c -0.038,0.016 -0.081,0.023 -0.124,0.027 l 0.021,0.03 -0.769,0.201 z"
             id="path1076"
             inkscape:connector-curvature="0" />
          <path
             style="fill:#ffffff"
             d="M 44.484,20.209 C 44.146,20.438 43.491,20.137 42.838,19.503 42.621,19.294 42.405,19.046 42.202,18.77 42.007,18.507 41.846,18.243 41.711,17.986 41.277,17.159 41.175,16.423 41.499,16.163 L 41.496,16.158 26.481,27.232 c -0.178,0.344 -0.12,1.068 0.264,1.795 0.131,0.249 0.29,0.506 0.479,0.76 0.209,0.283 0.431,0.538 0.654,0.752 0.666,0.642 1.362,0.985 1.702,0.735 0.077,-0.058 0.416,-0.308 0.425,-0.317 L 44.516,20.252 44.484,20.209 Z"
             id="path1077"
             inkscape:connector-curvature="0" />
          <path
             style="fill:#ffffff"
             d="m 43.709,17.664 c -0.827,-1.12 -1.855,-1.762 -2.3,-1.435 l -3.36,2.479 -1.061,4.238 2.875,0.72 4.555,-3.358 -0.017,-0.021 c 0.445,-0.329 0.134,-1.503 -0.692,-2.623 z"
             id="path1078"
             inkscape:connector-curvature="0" />
          <path
             style="fill:#ffffff"
             d="M 44.484,20.209 C 44.146,20.438 43.491,20.137 42.838,19.503 42.621,19.294 42.405,19.046 42.202,18.77 42.007,18.507 41.846,18.243 41.711,17.986 41.277,17.159 41.175,16.423 41.499,16.163 L 41.496,16.158 26.481,27.232 c -0.178,0.344 -0.12,1.068 0.264,1.795 0.131,0.249 0.29,0.506 0.479,0.76 0.209,0.283 0.431,0.538 0.654,0.752 0.666,0.642 1.362,0.985 1.702,0.735 0.077,-0.058 0.416,-0.308 0.425,-0.317 L 44.516,20.252 44.484,20.209 Z"
             id="path1079"
             inkscape:connector-curvature="0" />
          <linearGradient
             id="linearGradient21984"
             gradientUnits="userSpaceOnUse"
             x1="-1753.1719"
             y1="564.30762"
             x2="-1751.3385"
             y2="562.12268"
             gradientTransform="matrix(0.97,0.2429,-0.2429,0.97,1879.3727,-102.3761)">
            <stop
               offset="0"
               style="stop-color:#ababab"
               id="stop21986" />
            <stop
               offset="1"
               style="stop-color:#7f7f7f"
               id="stop21988" />
            <a:midPointStop
               offset="0"
               style="stop-color:#ababab"
               id="midPointStop1083" />
            <a:midPointStop
               offset="0.5"
               style="stop-color:#ababab"
               id="midPointStop1084" />
            <a:midPointStop
               offset="1"
               style="stop-color:#7f7f7f"
               id="midPointStop1085" />
          </linearGradient>
          <path
             style="fill:url(#XMLID_142_-117)"
             d="m 43.709,17.664 c -0.827,-1.12 -1.855,-1.762 -2.3,-1.435 l -3.36,2.479 -1.061,4.238 2.875,0.72 4.555,-3.358 -0.017,-0.021 c 0.445,-0.329 0.134,-1.503 -0.692,-2.623 z"
             id="path1086"
             inkscape:connector-curvature="0" />
          <linearGradient
             id="linearGradient21991"
             gradientUnits="userSpaceOnUse"
             x1="-1763.8779"
             y1="557.69922"
             x2="-1756.1826"
             y2="574.7843"
             gradientTransform="matrix(0.97,0.2429,-0.2429,0.97,1879.3727,-102.3761)">
            <stop
               offset="0"
               style="stop-color:#7f7f7f"
               id="stop21993" />
            <stop
               offset="0.7753"
               style="stop-color:#7f7f7f"
               id="stop21995" />
            <stop
               offset="1"
               style="stop-color:#7f7f7f"
               id="stop21997" />
            <a:midPointStop
               offset="0"
               style="stop-color:#7f7f7f"
               id="midPointStop1091" />
            <a:midPointStop
               offset="0.5"
               style="stop-color:#7f7f7f"
               id="midPointStop1092" />
            <a:midPointStop
               offset="0.7753"
               style="stop-color:#7f7f7f"
               id="midPointStop1093" />
            <a:midPointStop
               offset="0.5"
               style="stop-color:#7f7f7f"
               id="midPointStop1094" />
            <a:midPointStop
               offset="1"
               style="stop-color:#7f7f7f"
               id="midPointStop1095" />
          </linearGradient>
          <path
             style="fill:url(#XMLID_143_-837)"
             d="M 44.484,20.209 C 44.146,20.438 43.491,20.137 42.838,19.503 42.621,19.294 42.405,19.046 42.202,18.77 42.007,18.507 41.846,18.243 41.711,17.986 41.277,17.159 41.175,16.423 41.499,16.163 L 41.496,16.158 26.481,27.232 c -0.178,0.344 -0.12,1.068 0.264,1.795 0.131,0.249 0.29,0.506 0.479,0.76 0.209,0.283 0.431,0.538 0.654,0.752 0.666,0.642 1.362,0.985 1.702,0.735 0.077,-0.058 0.416,-0.308 0.425,-0.317 L 44.516,20.252 44.484,20.209 Z"
             id="path1096"
             inkscape:connector-curvature="0" />
          <linearGradient
             id="linearGradient22000"
             gradientUnits="userSpaceOnUse"
             x1="-77.0327"
             y1="9.4940996"
             x2="-64.389603"
             y2="9.4940996"
             gradientTransform="matrix(-0.9797,-0.2005,-0.2005,0.9797,-30.1045,0.6561)">
            <stop
               offset="0"
               style="stop-color:#8b8b8b"
               id="stop22002" />
            <stop
               offset="0.1798"
               style="stop-color:#bbbbbb"
               id="stop22004" />
            <stop
               offset="0.3727"
               style="stop-color:#c2c2c2"
               id="stop22006" />
            <stop
               offset="0.6825"
               style="stop-color:#c9c9c9"
               id="stop22008" />
            <stop
               offset="1"
               style="stop-color:#cccccc"
               id="stop22010" />
            <a:midPointStop
               offset="0"
               style="stop-color:#8b8b8b"
               id="midPointStop1103" />
            <a:midPointStop
               offset="0.5"
               style="stop-color:#8b8b8b"
               id="midPointStop1104" />
            <a:midPointStop
               offset="0.1798"
               style="stop-color:#bbbbbb"
               id="midPointStop1105" />
            <a:midPointStop
               offset="0.2881"
               style="stop-color:#bbbbbb"
               id="midPointStop1106" />
            <a:midPointStop
               offset="1"
               style="stop-color:#cccccc"
               id="midPointStop1107" />
          </linearGradient>
          <path
             style="fill:url(#XMLID_144_-331)"
             d="m 43.23,21.181 c 0,0 -0.968,-0.233 -1.619,-0.866 -0.217,-0.209 -0.434,-0.458 -0.637,-0.733 -0.194,-0.263 -0.356,-0.527 -0.491,-0.784 -0.354,-0.676 -0.487,-1.292 -0.346,-1.636 l 1.359,-1.003 0.003,0.005 c -0.324,0.26 -0.222,0.997 0.212,1.823 0.135,0.257 0.296,0.521 0.491,0.784 0.203,0.276 0.419,0.524 0.636,0.733 0.652,0.634 1.308,0.935 1.646,0.706 l 0.031,0.043 -14.51,10.704 c -0.009,0.01 -0.348,0.26 -0.425,0.317 -0.068,0.05 -0.149,0.075 -0.242,0.08 L 43.23,21.181 Z"
             id="path1108"
             inkscape:connector-curvature="0" />
          <path
             style="fill:#191919"
             d="m 24.669,31.616 c 0.215,0.293 0.442,0.556 0.672,0.783 l -2.417,0.632 1.29,-2.116 c 0.13,0.231 0.281,0.468 0.455,0.701 z"
             id="path1109"
             inkscape:connector-curvature="0" />
          <path
             style="opacity:0.5;fill:#ffffff"
             d="M 26.712,28.957 41.749,18.055 C 41.737,18.033 41.723,18.009 41.712,17.986 41.539,17.656 41.42,17.34 41.358,17.063 L 26.396,27.91 c 0.03,0.314 0.131,0.678 0.316,1.047 z"
             id="path1110"
             inkscape:connector-curvature="0" />
          <path
             style="opacity:0.5;fill:#ffffff"
             d="M 41.712,17.986 C 41.635,17.84 41.57,17.697 41.515,17.559 L 26.504,28.441 c 0.059,0.19 0.136,0.389 0.241,0.586 0.091,0.17 0.193,0.344 0.309,0.518 L 42.105,18.633 c -0.152,-0.217 -0.283,-0.435 -0.393,-0.647 z"
             id="path1111"
             inkscape:connector-curvature="0" />
        </g>
      </g>
    </g>
  </g>
</svg>
