<?xml version="1.0" encoding="utf-8"?>
<!-- Generator: Adobe Illustrator 13.0.0, SVG Export Plug-In . SVG Version: 6.00 Build 14948)  -->
<!DOCTYPE svg PUBLIC "-//W3C//DTD SVG 1.1//EN" "http://www.w3.org/Graphics/SVG/1.1/DTD/svg11.dtd">
<svg version="1.1" id="Layer_2" xmlns="http://www.w3.org/2000/svg" xmlns:xlink="http://www.w3.org/1999/xlink" x="0px" y="0px"
	 width="256px" height="256px" viewBox="0 0 256 256" enable-background="new 0 0 256 256" xml:space="preserve">
<g>
	
		<linearGradient id="P1_1_" gradientUnits="userSpaceOnUse" x1="23.7158" y1="-152.4307" x2="23.7158" y2="37.3438" gradientTransform="matrix(1.2524 0 0 -1.2524 98.7981 56.0994)">
		<stop  offset="0.0056" style="stop-color:#ED0000"/>
		<stop  offset="0.5449" style="stop-color:#8D0000"/>
		<stop  offset="1" style="stop-color:#BD0000"/>
	</linearGradient>
	<path id="P1" fill="url(#P1_1_)" d="M2.933,128.167c0,69.237,56.33,125.567,125.568,125.567
		c69.234,0,125.564-56.33,125.564-125.567S197.735,2.6,128.501,2.6C59.263,2.6,2.933,58.93,2.933,128.167z"/>
	
		<linearGradient id="P2_1_" gradientUnits="userSpaceOnUse" x1="23.7148" y1="-152.4141" x2="23.7148" y2="37.3656" gradientTransform="matrix(1.2524 0 0 -1.2524 98.7981 56.0994)">
		<stop  offset="0.0056" style="stop-color:#FF4242"/>
		<stop  offset="0.573" style="stop-color:#FF9494"/>
		<stop  offset="1" style="stop-color:#FFDCDC"/>
	</linearGradient>
	<path id="P2" fill="url(#P2_1_)" d="M10.486,128.167c0,65.074,52.941,118.014,118.015,118.014
		c65.072,0,118.01-52.939,118.01-118.014c0-65.073-52.938-118.014-118.01-118.014C63.427,10.153,10.486,63.094,10.486,128.167z"/>
	
		<linearGradient id="P3_1_" gradientUnits="userSpaceOnUse" x1="23.7163" y1="-148.5874" x2="23.7163" y2="33.5034" gradientTransform="matrix(1.2524 0 0 -1.2524 98.7981 56.0994)">
		<stop  offset="0" style="stop-color:#FFFFFF"/>
		<stop  offset="0.5" style="stop-color:#FF0000"/>
		<stop  offset="1" style="stop-color:#FFC9C9"/>
	</linearGradient>
	<path id="P3" fill="url(#P3_1_)" d="M14.472,128.167c0,62.88,51.156,114.023,114.029,114.023
		c62.878,0,114.026-51.144,114.026-114.023c0-62.873-51.148-114.027-114.026-114.027C65.628,14.14,14.472,65.294,14.472,128.167z"/>
	<path id="P4" opacity="0.8" fill="#FFFFFF" enable-background="new    " d="M128.501,28.385
		c-57.264,0-103.857,46.583-103.857,103.854c0,57.263,46.593,103.845,103.857,103.845c57.266,0,103.854-46.582,103.854-103.845
		C232.354,74.968,185.767,28.385,128.501,28.385z"/>
	<path id="P5" fill="#8D0000" d="M24.644,128.167c0,57.268,46.593,103.845,103.857,103.845c57.266,0,103.854-46.577,103.854-103.845
		c0-57.264-46.588-103.853-103.854-103.853C71.237,24.314,24.644,70.903,24.644,128.167z"/>
	
		<radialGradient id="P6_1_" cx="-13.7617" cy="-108.6973" r="57.022" gradientTransform="matrix(1.7767 0 0 -1.7767 152.9529 -64.9587)" gradientUnits="userSpaceOnUse">
		<stop  offset="0.6011" style="stop-color:#FFFFFF"/>
		<stop  offset="0.8764" style="stop-color:#EAEAF0"/>
		<stop  offset="0.9142" style="stop-color:#E6E6ED"/>
		<stop  offset="0.95" style="stop-color:#DBDBE5"/>
		<stop  offset="0.9849" style="stop-color:#C8C8D7"/>
		<stop  offset="1" style="stop-color:#BDBDCF"/>
	</radialGradient>
	<path id="P6" fill="url(#P6_1_)" d="M27.188,128.167c0,55.861,45.447,101.308,101.313,101.308
		c55.862,0,101.313-45.446,101.313-101.308c0-55.862-45.451-101.311-101.313-101.311C72.636,26.856,27.188,72.305,27.188,128.167z"
		/>
	<path id="P7" fill="#771111" d="M35.571,124.854c-1.127,0-2.042,0.914-2.042,2.043v2.537c0,1.128,0.914,2.042,2.042,2.042h17.802
		c1.127,0,2.042-0.914,2.042-2.042v-2.537c0-1.129-0.915-2.043-2.042-2.043H35.571z"/>
	<rect id="RE1" x="35.571" y="126.897" fill="#A00000" width="17.802" height="2.537"/>
	<path id="P8" fill="#771111" d="M203.072,124.854c-1.128,0-2.041,0.914-2.041,2.043v2.537c0,1.128,0.913,2.042,2.041,2.042h17.81
		c1.126,0,2.041-0.914,2.041-2.042v-2.537c0-1.129-0.915-2.043-2.041-2.043H203.072z"/>
	<rect id="RE2" x="203.072" y="126.897" fill="#A00000" width="17.81" height="2.537"/>
	<path id="P9" fill="#771111" d="M127.229,200.699c-1.128,0-2.042,0.914-2.042,2.041v17.803c0,1.127,0.914,2.041,2.042,2.041h2.543
		c1.129,0,2.041-0.914,2.041-2.041V202.74c0-1.127-0.912-2.041-2.041-2.041H127.229z"/>
	<rect id="RE3" x="127.229" y="202.74" fill="#A00000" width="2.543" height="17.803"/>
	<path id="P10" fill="#771111" d="M127.229,33.196c-1.128,0-2.042,0.914-2.042,2.041V53.04c0,1.127,0.914,2.041,2.042,2.041h2.543
		c1.129,0,2.041-0.914,2.041-2.041V35.237c0-1.127-0.912-2.041-2.041-2.041H127.229L127.229,33.196z"/>
	<rect id="RE4" x="127.229" y="35.237" fill="#A00000" width="2.543" height="17.803"/>
	<g id="G4" transform="matrix(0.983242,-0.182303,0.182303,0.983242,-10.45843,57.70537)">
		<path fill="#E0E0E0" d="M116.233,101.013L71.432,23.411c-2.026-3.507-0.824-7.994,2.683-10.02l0,0
			c3.509-2.026,7.996-0.824,10.021,2.685l0,0l44.803,77.602c2.025,3.509,0.823,7.994-2.684,10.019l0,0
			c-1.575,0.909-3.345,1.168-5.001,0.86l0,0C119.216,104.18,117.351,102.947,116.233,101.013L116.233,101.013z"/>
		<path fill="#BFBFBF" d="M115.25,97.347L115.249,7.74c0.001-4.051,3.283-7.336,7.336-7.335l0,0
			c4.052-0.001,7.334,3.284,7.336,7.334l0,0l0,89.608c-0.002,4.05-3.284,7.334-7.336,7.334l0,0c-0.46,0.001-0.909-0.041-1.344-0.122
			l0,0C117.833,103.927,115.25,100.936,115.25,97.347L115.25,97.347z"/>
		<path fill="#808080" d="M118.918,103.697c-3.508-2.025-4.711-6.51-2.685-10.018l0,0l44.803-77.603
			c2.025-3.508,6.51-4.711,10.019-2.685l0,0c3.509,2.026,4.71,6.511,2.685,10.02l0,0l-44.801,77.602
			c-1.597,2.766-4.722,4.098-7.691,3.547l0,0C120.449,104.412,119.661,104.127,118.918,103.697L118.918,103.697z"/>
		<path d="M118.92,103.697L59.714,69.514c-3.509-2.024-4.711-6.51-2.684-10.02l0,0c2.025-3.509,6.511-4.711,10.02-2.686l0,0
			l55.538,32.066l73.933-42.684c3.505-2.026,7.993-0.824,10.018,2.684l0,0c2.024,3.507,0.821,7.994-2.683,10.02l0,0l-77.601,44.802
			c-1.537,0.888-3.312,1.174-5.005,0.86l0,0C120.442,104.407,119.653,104.12,118.92,103.697L118.92,103.697z"/>
	</g>
</g>
<g id="layer1">
	<path id="path1650" fill="#F57900" stroke="#914900" stroke-width="0.9821" stroke-linecap="round" stroke-linejoin="round" d="
		M251.588,195.403c0,31.088-25.2,56.29-56.287,56.29c-31.09,0-56.293-25.202-56.293-56.29l0,0c0-31.087,25.203-56.29,56.293-56.29
		C226.388,139.113,251.588,164.316,251.588,195.403L251.588,195.403z"/>
	<path id="path3392" fill="none" stroke="#FCAF3E" stroke-width="0.9821" stroke-linecap="round" stroke-linejoin="round" d="
		M250.144,195.157c0,30.085-24.383,54.468-54.468,54.468c-30.084,0-54.469-24.383-54.469-54.468l0,0
		c0-30.083,24.385-54.47,54.469-54.47C225.761,140.688,250.144,165.074,250.144,195.157L250.144,195.157z"/>
	<path id="rect1872" fill="#FFFFFF" d="M187.628,165.538c-0.347,0-0.634,0.473-0.634,1.04l2.881,39.102
		c0,0.563,0.291,1.036,0.634,1.036c0,0,2.279,0.032,4.155,0c0.617-0.01,0.806,0.055,1.365,0c1.878,0.032,4.158,0,4.158,0
		c0.343,0,0.634-0.473,0.634-1.036l2.884-39.102c0-0.567-0.29-0.96-0.637-0.96h-6.988c-0.022-0.006-0.022-0.08-0.051-0.08H187.628z"
		/>
	<path id="path2062" fill="#FFFFFF" d="M201.704,219.19c0,3.443-2.791,6.236-6.234,6.236c-3.448,0-6.239-2.793-6.239-6.236
		c0-3.445,2.791-6.239,6.239-6.239C198.913,212.951,201.704,215.745,201.704,219.19z"/>
	<path id="path3068" fill="#FFFEFF" fill-opacity="0.2139" d="M247.766,192.893c0,29.327-16.387-11.659-50.561,1.049
		c-34.447,12.804-55.686,28.278-55.686-1.049c0-29.323,23.797-53.121,53.122-53.121S247.766,163.569,247.766,192.893z"/>
</g>
</svg>
