<?xml version="1.0" encoding="UTF-8" standalone="no"?>
<!-- Generator: Adobe Illustrator 13.0.0, SVG Export Plug-In . SVG Version: 6.00 Build 14948)  -->

<svg
   xmlns:dc="http://purl.org/dc/elements/1.1/"
   xmlns:cc="http://creativecommons.org/ns#"
   xmlns:rdf="http://www.w3.org/1999/02/22-rdf-syntax-ns#"
   xmlns:svg="http://www.w3.org/2000/svg"
   xmlns="http://www.w3.org/2000/svg"
   xmlns:sodipodi="http://sodipodi.sourceforge.net/DTD/sodipodi-0.dtd"
   xmlns:inkscape="http://www.inkscape.org/namespaces/inkscape"
   version="1.1"
   id="Layer_2"
   x="0px"
   y="0px"
   width="128"
   height="128"
   viewBox="0 0 128 128"
   enable-background="new 0 0 256 256"
   xml:space="preserve"
   inkscape:version="0.91 r13725"
   sodipodi:docname="attendance.svg"><metadata
     id="metadata72"><rdf:RDF><cc:Work
         rdf:about=""><dc:format>image/svg+xml</dc:format><dc:type
           rdf:resource="http://purl.org/dc/dcmitype/StillImage" /><dc:title></dc:title></cc:Work></rdf:RDF></metadata><defs
     id="defs70" /><sodipodi:namedview
     pagecolor="#ffffff"
     bordercolor="#666666"
     borderopacity="1"
     objecttolerance="10"
     gridtolerance="10"
     guidetolerance="10"
     inkscape:pageopacity="0"
     inkscape:pageshadow="2"
     inkscape:window-width="1855"
     inkscape:window-height="1056"
     id="namedview68"
     showgrid="false"
     inkscape:zoom="3.2661743"
     inkscape:cx="128"
     inkscape:cy="128"
     inkscape:window-x="65"
     inkscape:window-y="24"
     inkscape:window-maximized="1"
     inkscape:current-layer="Layer_2" /><g
     id="g3"
     transform="matrix(0.48599255,0,0,0.48599255,1.5504433,1.7117928)"><linearGradient
       id="P1_1_"
       gradientUnits="userSpaceOnUse"
       x1="23.715799"
       y1="-152.43069"
       x2="23.715799"
       y2="37.3438"
       gradientTransform="matrix(1.2524,0,0,-1.2524,98.7981,56.0994)"><stop
         offset="0.0056"
         style="stop-color:#ED0000"
         id="stop6" /><stop
         offset="0.5449"
         style="stop-color:#8D0000"
         id="stop8" /><stop
         offset="1"
         style="stop-color:#BD0000"
         id="stop10" /></linearGradient><path
       id="P1"
       d="m 2.933,128.167 c 0,69.237 56.33,125.567 125.568,125.567 69.234,0 125.564,-56.33 125.564,-125.567 C 254.065,58.93 197.735,2.6 128.501,2.6 59.263,2.6 2.933,58.93 2.933,128.167 Z"
       inkscape:connector-curvature="0"
       style="fill:url(#P1_1_)" /><linearGradient
       id="P2_1_"
       gradientUnits="userSpaceOnUse"
       x1="23.7148"
       y1="-152.41409"
       x2="23.7148"
       y2="37.365601"
       gradientTransform="matrix(1.2524,0,0,-1.2524,98.7981,56.0994)"><stop
         offset="0.0056"
         style="stop-color:#FF4242"
         id="stop14" /><stop
         offset="0.573"
         style="stop-color:#FF9494"
         id="stop16" /><stop
         offset="1"
         style="stop-color:#FFDCDC"
         id="stop18" /></linearGradient><path
       id="P2"
       d="m 10.486,128.167 c 0,65.074 52.941,118.014 118.015,118.014 65.072,0 118.01,-52.939 118.01,-118.014 0,-65.073 -52.938,-118.014 -118.01,-118.014 -65.074,0 -118.015,52.941 -118.015,118.014 z"
       inkscape:connector-curvature="0"
       style="fill:url(#P2_1_)" /><linearGradient
       id="P3_1_"
       gradientUnits="userSpaceOnUse"
       x1="23.716299"
       y1="-148.5874"
       x2="23.716299"
       y2="33.503399"
       gradientTransform="matrix(1.2524,0,0,-1.2524,98.7981,56.0994)"><stop
         offset="0"
         style="stop-color:#FFFFFF"
         id="stop22" /><stop
         offset="0.5"
         style="stop-color:#FF0000"
         id="stop24" /><stop
         offset="1"
         style="stop-color:#FFC9C9"
         id="stop26" /></linearGradient><path
       id="P3"
       d="m 14.472,128.167 c 0,62.88 51.156,114.023 114.029,114.023 62.878,0 114.026,-51.144 114.026,-114.023 C 242.527,65.294 191.379,14.14 128.501,14.14 65.628,14.14 14.472,65.294 14.472,128.167 Z"
       inkscape:connector-curvature="0"
       style="fill:url(#P3_1_)" /><path
       id="P4"
       enable-background="new    "
       d="m 128.501,28.385 c -57.264,0 -103.857,46.583 -103.857,103.854 0,57.263 46.593,103.845 103.857,103.845 57.266,0 103.854,-46.582 103.854,-103.845 C 232.354,74.968 185.767,28.385 128.501,28.385 Z"
       inkscape:connector-curvature="0"
       style="opacity:0.8;fill:#ffffff" /><path
       id="P5"
       d="m 24.644,128.167 c 0,57.268 46.593,103.845 103.857,103.845 57.266,0 103.854,-46.577 103.854,-103.845 0,-57.264 -46.588,-103.853 -103.854,-103.853 -57.264,0 -103.857,46.589 -103.857,103.853 z"
       inkscape:connector-curvature="0"
       style="fill:#8d0000" /><radialGradient
       id="P6_1_"
       cx="-13.7617"
       cy="-108.6973"
       r="57.021999"
       gradientTransform="matrix(1.7767,0,0,-1.7767,152.9529,-64.9587)"
       gradientUnits="userSpaceOnUse"><stop
         offset="0.6011"
         style="stop-color:#FFFFFF"
         id="stop32" /><stop
         offset="0.8764"
         style="stop-color:#EAEAF0"
         id="stop34" /><stop
         offset="0.9142"
         style="stop-color:#E6E6ED"
         id="stop36" /><stop
         offset="0.95"
         style="stop-color:#DBDBE5"
         id="stop38" /><stop
         offset="0.9849"
         style="stop-color:#C8C8D7"
         id="stop40" /><stop
         offset="1"
         style="stop-color:#BDBDCF"
         id="stop42" /></radialGradient><path
       id="P6"
       d="m 27.188,128.167 c 0,55.861 45.447,101.308 101.313,101.308 55.862,0 101.313,-45.446 101.313,-101.308 0,-55.862 -45.451,-101.311 -101.313,-101.311 -55.865,0 -101.313,45.449 -101.313,101.311 z"
       inkscape:connector-curvature="0"
       style="fill:url(#P6_1_)" /><path
       id="P7"
       d="m 35.571,124.854 c -1.127,0 -2.042,0.914 -2.042,2.043 l 0,2.537 c 0,1.128 0.914,2.042 2.042,2.042 l 17.802,0 c 1.127,0 2.042,-0.914 2.042,-2.042 l 0,-2.537 c 0,-1.129 -0.915,-2.043 -2.042,-2.043 l -17.802,0 z"
       inkscape:connector-curvature="0"
       style="fill:#771111" /><rect
       id="RE1"
       x="35.570999"
       y="126.897"
       width="17.802"
       height="2.5369999"
       style="fill:#a00000" /><path
       id="P8"
       d="m 203.072,124.854 c -1.128,0 -2.041,0.914 -2.041,2.043 l 0,2.537 c 0,1.128 0.913,2.042 2.041,2.042 l 17.81,0 c 1.126,0 2.041,-0.914 2.041,-2.042 l 0,-2.537 c 0,-1.129 -0.915,-2.043 -2.041,-2.043 l -17.81,0 z"
       inkscape:connector-curvature="0"
       style="fill:#771111" /><rect
       id="RE2"
       x="203.07201"
       y="126.897"
       width="17.809999"
       height="2.5369999"
       style="fill:#a00000" /><path
       id="P9"
       d="m 127.229,200.699 c -1.128,0 -2.042,0.914 -2.042,2.041 l 0,17.803 c 0,1.127 0.914,2.041 2.042,2.041 l 2.543,0 c 1.129,0 2.041,-0.914 2.041,-2.041 l 0,-17.803 c 0,-1.127 -0.912,-2.041 -2.041,-2.041 l -2.543,0 z"
       inkscape:connector-curvature="0"
       style="fill:#771111" /><rect
       id="RE3"
       x="127.229"
       y="202.74001"
       width="2.543"
       height="17.802999"
       style="fill:#a00000" /><path
       id="P10"
       d="m 127.229,33.196 c -1.128,0 -2.042,0.914 -2.042,2.041 l 0,17.803 c 0,1.127 0.914,2.041 2.042,2.041 l 2.543,0 c 1.129,0 2.041,-0.914 2.041,-2.041 l 0,-17.803 c 0,-1.127 -0.912,-2.041 -2.041,-2.041 l -2.543,0 0,0 z"
       inkscape:connector-curvature="0"
       style="fill:#771111" /><rect
       id="RE4"
       x="127.229"
       y="35.237"
       width="2.543"
       height="17.802999"
       style="fill:#a00000" /><g
       id="G4"
       transform="matrix(0.983242,-0.182303,0.182303,0.983242,-10.45843,57.70537)"><path
         d="M 116.233,101.013 71.432,23.411 c -2.026,-3.507 -0.824,-7.994 2.683,-10.02 l 0,0 c 3.509,-2.026 7.996,-0.824 10.021,2.685 l 0,0 44.803,77.602 c 2.025,3.509 0.823,7.994 -2.684,10.019 l 0,0 c -1.575,0.909 -3.345,1.168 -5.001,0.86 l 0,0 c -2.038,-0.377 -3.903,-1.61 -5.021,-3.544 l 0,0 z"
         id="path54"
         inkscape:connector-curvature="0"
         style="fill:#e0e0e0" /><path
         d="M 115.25,97.347 115.249,7.74 c 0.001,-4.051 3.283,-7.336 7.336,-7.335 l 0,0 c 4.052,-0.001 7.334,3.284 7.336,7.334 l 0,0 0,89.608 c -0.002,4.05 -3.284,7.334 -7.336,7.334 l 0,0 c -0.46,0.001 -0.909,-0.041 -1.344,-0.122 l 0,0 c -3.408,-0.632 -5.991,-3.623 -5.991,-7.212 l 0,0 z"
         id="path56"
         inkscape:connector-curvature="0"
         style="fill:#bfbfbf" /><path
         d="m 118.918,103.697 c -3.508,-2.025 -4.711,-6.51 -2.685,-10.018 l 0,0 44.803,-77.603 c 2.025,-3.508 6.51,-4.711 10.019,-2.685 l 0,0 c 3.509,2.026 4.71,6.511 2.685,10.02 l 0,0 -44.801,77.602 c -1.597,2.766 -4.722,4.098 -7.691,3.547 l 0,0 c -0.799,-0.148 -1.587,-0.433 -2.33,-0.863 l 0,0 z"
         id="path58"
         inkscape:connector-curvature="0"
         style="fill:#808080" /><path
         d="M 118.92,103.697 59.714,69.514 C 56.205,67.49 55.003,63.004 57.03,59.494 l 0,0 c 2.025,-3.509 6.511,-4.711 10.02,-2.686 l 0,0 55.538,32.066 73.933,-42.684 c 3.505,-2.026 7.993,-0.824 10.018,2.684 l 0,0 c 2.024,3.507 0.821,7.994 -2.683,10.02 l 0,0 -77.601,44.802 c -1.537,0.888 -3.312,1.174 -5.005,0.86 l 0,0 c -0.808,-0.149 -1.597,-0.436 -2.33,-0.859 l 0,0 z"
         id="path60"
         inkscape:connector-curvature="0" /></g></g></svg>