<?xml version="1.0" encoding="UTF-8" standalone="no"?>
<!-- Created with Sodipodi ("http://www.sodipodi.com/") -->

<svg
   xmlns:a="http://ns.adobe.com/AdobeSVGViewerExtensions/3.0/"
   xmlns:dc="http://purl.org/dc/elements/1.1/"
   xmlns:cc="http://creativecommons.org/ns#"
   xmlns:rdf="http://www.w3.org/1999/02/22-rdf-syntax-ns#"
   xmlns:svg="http://www.w3.org/2000/svg"
   xmlns="http://www.w3.org/2000/svg"
   xmlns:sodipodi="http://sodipodi.sourceforge.net/DTD/sodipodi-0.dtd"
   xmlns:inkscape="http://www.inkscape.org/namespaces/inkscape"
   width="128"
   height="128"
   viewBox="0 0 128 128"
   style="overflow:visible"
   xml:space="preserve"
   id="svg4445"
   sodipodi:version="0.32"
   sodipodi:docname="backup.svg"
   version="1.1"
   inkscape:version="0.91 r13725"><metadata
     id="metadata65"><rdf:RDF><cc:Work
         rdf:about=""><dc:format>image/svg+xml</dc:format><dc:type
           rdf:resource="http://purl.org/dc/dcmitype/StillImage" /><dc:title /></cc:Work></rdf:RDF></metadata><defs
     id="defs4533" /><sodipodi:namedview
     id="base"
     showgrid="false"
     inkscape:zoom="0.77146356"
     inkscape:cx="148.38004"
     inkscape:cy="31.845978"
     inkscape:window-width="1325"
     inkscape:window-height="747"
     inkscape:window-x="41"
     inkscape:window-y="21"
     inkscape:window-maximized="1"
     inkscape:current-layer="g3393"
     units="px" /><g
     id="Layer_1"
     style="stroke:#000000"
     transform="translate(0,290.13333)"><g
       id="g4447"><linearGradient
         id="XMLID_1_"
         gradientUnits="userSpaceOnUse"
         x1="128.9995"
         y1="11"
         x2="128.9995"
         y2="245.0005"><stop
           offset="0"
           style="stop-color:#494949"
           id="stop4452" /><stop
           offset="1"
           style="stop-color:#000000"
           id="stop4453" /><a:midPointStop
           offset="0"
           style="stop-color:#494949"
           id="midPointStop4454" /><a:midPointStop
           offset="0.5"
           style="stop-color:#494949"
           id="midPointStop4455" /><a:midPointStop
           offset="1"
           style="stop-color:#000000"
           id="midPointStop4456" /></linearGradient><linearGradient
         id="XMLID_2_"
         gradientUnits="userSpaceOnUse"
         x1="29.0532"
         y1="29.0532"
         x2="226.9471"
         y2="226.9471"><stop
           offset="0"
           style="stop-color:#FFFFFF"
           id="stop4460" /><stop
           offset="1"
           style="stop-color:#DADADA"
           id="stop4461" /><a:midPointStop
           offset="0"
           style="stop-color:#FFFFFF"
           id="midPointStop4462" /><a:midPointStop
           offset="0.5"
           style="stop-color:#FFFFFF"
           id="midPointStop4463" /><a:midPointStop
           offset="1"
           style="stop-color:#DADADA"
           id="midPointStop4464" /></linearGradient><path
         style="fill:none;stroke:none"
         d="M 256,256 0,256 0,0 l 256,0 0,256 z"
         id="path4466"
         inkscape:connector-curvature="0" /></g><g
       id="g3440"
       transform="matrix(-2.1213959,1.8656082,-1.8656082,-2.1213959,829.67215,69.253711)"><g
         id="g3393"><g
           id="g4467"
           transform="matrix(0.21354524,-0.01118743,0.01118749,0.21354523,105.47679,226.24683)"><path
             style="opacity:0.2;stroke:none"
             d="m 121.281,84.41 c -19.393,2.387 -36.691,12.183 -48.715,27.581 -12.023,15.397 -17.33,34.559 -14.943,53.951 2.387,19.389 12.182,36.689 27.582,48.713 31.789,24.818 77.844,19.148 102.663,-12.639 12.004,-15.373 17.299,-34.531 14.908,-53.946 C 200.387,128.657 190.602,111.357 175.227,99.352 159.828,87.329 140.67,82.022 121.281,84.41 m 6.154,76.154 c -1.102,-0.859 -1.732,-2.162 -1.732,-3.568 0,-1.014 0.328,-1.973 0.953,-2.771 0.742,-0.951 1.813,-1.557 3.014,-1.705 1.197,-0.146 2.379,0.18 3.326,0.922 0.951,0.742 1.555,1.811 1.701,3.01 0.148,1.201 -0.18,2.385 -0.92,3.334 -1.533,1.96 -4.377,2.312 -6.342,0.778 z"
             id="path4468"
             inkscape:connector-curvature="0" /><path
             style="opacity:0.2;stroke:none"
             d="m 119.281,83.41 c -19.393,2.387 -36.691,12.183 -48.715,27.581 -12.023,15.397 -17.33,34.559 -14.943,53.951 2.387,19.389 12.182,36.689 27.582,48.713 31.789,24.818 77.844,19.148 102.663,-12.639 12.004,-15.373 17.299,-34.531 14.908,-53.946 C 198.387,127.657 188.602,110.357 173.227,98.352 157.828,86.329 138.67,81.022 119.281,83.41 m 6.154,76.154 c -1.102,-0.859 -1.732,-2.162 -1.732,-3.568 0,-1.014 0.328,-1.973 0.953,-2.771 0.742,-0.951 1.813,-1.557 3.014,-1.705 1.197,-0.146 2.379,0.18 3.327,0.922 0.951,0.742 1.555,1.811 1.701,3.01 0.148,1.201 -0.18,2.385 -0.92,3.334 -1.534,1.96 -4.378,2.312 -6.343,0.778 z"
             id="path4469"
             inkscape:connector-curvature="0" /><path
             style="fill:#3a3aa9;stroke:none"
             d="m 118.281,81.41 c -19.393,2.387 -36.691,12.183 -48.715,27.581 -12.023,15.397 -17.33,34.559 -14.943,53.951 2.387,19.389 12.182,36.689 27.582,48.713 31.789,24.818 77.844,19.148 102.663,-12.639 12.004,-15.373 17.299,-34.531 14.908,-53.946 C 197.387,125.657 187.602,108.357 172.227,96.352 156.828,84.329 137.67,79.022 118.281,81.41 m 6.154,76.154 c -1.102,-0.859 -1.732,-2.162 -1.732,-3.568 0,-1.014 0.328,-1.973 0.953,-2.771 0.742,-0.951 1.813,-1.557 3.014,-1.706 1.197,-0.146 2.379,0.181 3.327,0.923 0.951,0.742 1.555,1.811 1.701,3.01 0.148,1.201 -0.18,2.385 -0.92,3.334 -1.534,1.96 -4.378,2.312 -6.343,0.778 z"
             id="path4470"
             inkscape:connector-curvature="0" /><linearGradient
             id="XMLID_3_"
             gradientUnits="userSpaceOnUse"
             x1="59.3979"
             y1="154.00391"
             x2="195.03419"
             y2="154.00391"><stop
               offset="0"
               style="stop-color:#E6EDFF"
               id="stop4472" /><stop
               offset="1"
               style="stop-color:#B3CAFF"
               id="stop4473" /><a:midPointStop
               offset="0"
               style="stop-color:#E6EDFF"
               id="midPointStop4474" /><a:midPointStop
               offset="0.5"
               style="stop-color:#E6EDFF"
               id="midPointStop4475" /><a:midPointStop
               offset="1"
               style="stop-color:#B3CAFF"
               id="midPointStop4476" /></linearGradient><path
             style="fill:url(#XMLID_3_);stroke:none"
             d="m 73.636,112.169 c -23.104,29.591 -17.844,72.311 11.746,95.415 29.594,23.104 72.311,17.846 95.415,-11.746 23.104,-29.592 17.842,-72.312 -11.748,-95.416 C 139.457,77.319 96.74,82.577 73.636,112.169 m 61.214,47.794 c -3.287,4.211 -9.383,4.959 -13.594,1.674 -4.207,-3.287 -4.959,-9.383 -1.67,-13.593 3.283,-4.209 9.383,-4.961 13.59,-1.674 4.207,3.284 4.961,9.384 1.674,13.593 z"
             id="path4477"
             inkscape:connector-curvature="0" /><path
             style="fill:#ffffff;stroke:none"
             d="m 135.689,158.885 c 3.221,-4.123 2.414,-10.155 -1.793,-13.442 -4.209,-3.285 -10.249,-2.6 -13.469,1.523 -0.141,0.178 -0.266,0.365 -0.391,0.555 3.369,-3.734 9.114,-4.291 13.139,-1.15 4.023,3.141 4.877,8.853 2.07,13.026 0.151,-0.168 0.304,-0.333 0.444,-0.512 M 87.07,205.424 c -29.41,-22.959 -35.154,-64.817 -13,-93.793 -0.145,0.18 -0.291,0.356 -0.434,0.539 -23.104,29.591 -17.844,72.311 11.746,95.415 29.594,23.104 72.311,17.846 95.415,-11.746 0.141,-0.184 0.279,-0.369 0.42,-0.551 -22.74,28.521 -64.737,33.099 -94.147,10.136 z"
             id="path4478"
             inkscape:connector-curvature="0" /><path
             style="opacity:0.3;fill:#9b95ff;stroke:none"
             d="M 169.049,100.422 C 159.156,92.697 147.795,88.149 136.194,86.613 l -3.477,24.794 -4.62,32.96 c 1.79,0.16 3.557,0.813 5.079,2.002 1.256,0.984 2.199,2.219 2.826,3.581 l 30.357,-12.278 23.709,-9.586 C 185.73,117.539 178.68,107.941 169.049,100.422 Z"
             id="path4479"
             inkscape:connector-curvature="0" /><path
             style="opacity:0.7;fill:#ffffff;stroke:none"
             d="m 183.281,115.538 c -3.842,-5.599 -8.592,-10.715 -14.232,-15.115 -5.92,-4.623 -12.367,-8.107 -19.076,-10.491 -5.586,15.287 -10.66,29.187 -10.66,29.187 0,0 -4.311,11.795 -9.354,25.606 1.135,0.334 2.227,0.875 3.217,1.646 0.701,0.551 1.301,1.184 1.809,1.869 14.519,-9.829 34.931,-23.65 48.296,-32.702 z"
             id="path4480"
             inkscape:connector-curvature="0" /><path
             style="opacity:0.3;fill:#9b95ff;stroke:none"
             d="m 125.148,163.451 c -1.377,-0.299 -2.711,-0.893 -3.893,-1.814 -1.439,-1.129 -2.467,-2.59 -3.074,-4.188 l -31.291,12.655 -22.771,9.209 c 4.314,10.787 11.447,20.607 21.264,28.271 9.555,7.459 20.477,11.959 31.666,13.641 l 3.484,-24.852 4.615,-32.922 z"
             id="path4481"
             inkscape:connector-curvature="0" /><path
             style="opacity:0.7;fill:#ffffff;stroke:none"
             d="m 121.255,161.637 c -0.713,-0.561 -1.324,-1.207 -1.834,-1.906 -12.35,8.363 -22.984,15.563 -22.984,15.563 0,0 -12,8.125 -25.311,17.141 3.85,5.613 8.607,10.74 14.256,15.15 5.777,4.51 12.053,7.934 18.586,10.313 5.646,-15.459 14.092,-38.584 20.008,-54.775 -0.959,-0.342 -1.877,-0.83 -2.721,-1.486 z"
             id="path4482"
             inkscape:connector-curvature="0" /><path
             style="fill:#9b95ff;stroke:none"
             d="m 107.025,138.237 c -8.691,11.133 -6.705,27.265 4.428,35.958 11.133,8.693 27.264,6.707 35.954,-4.426 8.693,-11.133 6.707,-27.265 -4.426,-35.958 -11.133,-8.691 -27.263,-6.705 -35.956,4.426 m 27.825,21.726 c -3.287,4.211 -9.383,4.959 -13.594,1.674 -4.207,-3.287 -4.959,-9.383 -1.67,-13.593 3.283,-4.209 9.383,-4.961 13.59,-1.674 4.207,3.284 4.961,9.384 1.674,13.593 z"
             id="path4483"
             inkscape:connector-curvature="0" /><path
             style="fill:#e6e6e6;stroke:none"
             d="m 114.019,143.7 c -5.68,7.276 -4.385,17.819 2.893,23.501 7.278,5.682 17.821,4.383 23.5,-2.893 5.682,-7.277 4.385,-17.821 -2.895,-23.505 -7.275,-5.681 -17.816,-4.382 -23.498,2.897 m 20.831,16.263 c -3.287,4.211 -9.383,4.959 -13.594,1.674 -4.207,-3.287 -4.959,-9.383 -1.67,-13.593 3.283,-4.209 9.383,-4.961 13.59,-1.674 4.207,3.284 4.961,9.384 1.674,13.593 z"
             id="path4484"
             inkscape:connector-curvature="0" /><path
             style="opacity:0.5;fill:none;stroke:none"
             d="m 202.691,227.977 -149.834,0 0,-149.838 149.834,0 0,149.838 z"
             id="path4485"
             inkscape:connector-curvature="0" /><linearGradient
             id="XMLID_4_"
             gradientUnits="userSpaceOnUse"
             x1="127.7725"
             y1="126.5088"
             x2="127.7725"
             y2="98.980103"><stop
               offset="0"
               style="stop-color:#E1E1FF"
               id="stop4487" /><stop
               offset="1"
               style="stop-color:#FFFFFF"
               id="stop4488" /><a:midPointStop
               offset="0"
               style="stop-color:#E1E1FF"
               id="midPointStop4489" /><a:midPointStop
               offset="0.5"
               style="stop-color:#E1E1FF"
               id="midPointStop4490" /><a:midPointStop
               offset="1"
               style="stop-color:#FFFFFF"
               id="midPointStop4491" /></linearGradient><path
             style="opacity:0.7;fill:url(#XMLID_4_);stroke:none"
             d="m 127.773,87.648 c -27.727,0 -50.285,13.483 -50.285,30.058 0,11.159 10.314,21.118 26.176,26.292 0.854,-2.014 1.953,-3.957 3.361,-5.76 8.693,-11.131 24.823,-13.118 35.956,-4.426 3.635,2.84 6.275,6.477 7.908,10.469 16.271,-5.113 27.168,-15.326 27.168,-26.575 0,-16.575 -22.557,-30.058 -50.284,-30.058 z"
             id="path4492"
             inkscape:connector-curvature="0" /><path
             style="opacity:0.2;stroke:none"
             d="m 79.167,72.216 c 0.576,1.703 2.102,2.84 3.813,2.84 l 14.246,0 0,35.85 c 0,5.277 4.042,9.557 9.031,9.557 l 46.854,0 c 4.99,0 9.031,-4.279 9.031,-9.557 l 0,-35.85 11.414,0 c 1.707,0 3.232,-1.137 3.811,-2.84 0.576,-1.701 0.08,-3.605 -1.24,-4.752 L 130.84,28.052 c -1.494,-1.303 -3.649,-1.301 -5.145,0 L 80.408,67.464 c -1.323,1.149 -1.817,3.051 -1.241,4.752 z"
             id="path4493"
             inkscape:connector-curvature="0" /><path
             style="opacity:0.2;stroke:none"
             d="m 81.181,74.197 c 0.576,1.703 2.102,2.84 3.812,2.84 l 14.246,0 0,35.85 c 0,5.277 4.043,9.557 9.032,9.557 l 46.854,0 c 4.988,0 9.031,-4.279 9.031,-9.557 l 0,-35.85 11.412,0 c 1.707,0 3.234,-1.137 3.813,-2.84 0.576,-1.701 0.078,-3.605 -1.24,-4.752 L 132.854,30.033 c -1.494,-1.301 -3.65,-1.301 -5.145,0 L 82.421,69.445 c -1.32,1.148 -1.816,3.051 -1.24,4.752 z"
             id="path4494"
             inkscape:connector-curvature="0" /><path
             style="opacity:0.2;stroke:none"
             d="m 79.181,72.197 c 0.576,1.703 2.102,2.84 3.812,2.84 l 14.246,0 0,35.85 c 0,5.277 4.043,9.557 9.032,9.557 l 46.854,0 c 4.988,0 9.031,-4.279 9.031,-9.557 l 0,-35.85 11.412,0 c 1.707,0 3.234,-1.137 3.813,-2.84 0.576,-1.701 0.078,-3.605 -1.24,-4.752 L 130.854,28.033 c -1.494,-1.301 -3.651,-1.301 -5.145,0 L 80.421,67.445 c -1.32,1.148 -1.816,3.051 -1.24,4.752 z"
             id="path4495"
             inkscape:connector-curvature="0" /><linearGradient
             id="XMLID_5_"
             gradientUnits="userSpaceOnUse"
             x1="146.2471"
             y1="1290.8359"
             x2="146.2471"
             y2="1101.7578"
             gradientTransform="matrix(-1,0,0,-1,273.5273,1303.6328)"><stop
               offset="0"
               style="stop-color:#003333"
               id="stop4497" /><stop
               offset="1"
               style="stop-color:#006A00"
               id="stop4498" /><a:midPointStop
               offset="0"
               style="stop-color:#003333"
               id="midPointStop4499" /><a:midPointStop
               offset="0.5"
               style="stop-color:#003333"
               id="midPointStop4500" /><a:midPointStop
               offset="1"
               style="stop-color:#006A00"
               id="midPointStop4501" /></linearGradient><path
             style="fill:url(#XMLID_5_);stroke:none"
             d="m 78.181,71.197 c 0.576,1.703 2.102,2.84 3.812,2.84 l 14.246,0 0,35.85 c 0,5.277 4.043,9.557 9.032,9.557 l 46.854,0 c 4.988,0 9.031,-4.279 9.031,-9.557 l 0,-35.85 11.412,0 c 1.707,0 3.234,-1.137 3.813,-2.84 0.576,-1.701 0.078,-3.605 -1.24,-4.752 L 129.854,27.033 c -1.495,-1.301 -3.651,-1.301 -5.145,0 L 79.421,66.445 c -1.32,1.148 -1.816,3.051 -1.24,4.752 z"
             id="path4502"
             inkscape:connector-curvature="0" /><linearGradient
             id="XMLID_6_"
             gradientUnits="userSpaceOnUse"
             x1="127.2803"
             y1="52.680698"
             x2="127.2803"
             y2="145.2769"><stop
               offset="0"
               style="stop-color:#FFFFFF"
               id="stop4504" /><stop
               offset="0.005"
               style="stop-color:#F9FDF9"
               id="stop4505" /><stop
               offset="0.0651"
               style="stop-color:#B3ECB3"
               id="stop4506" /><stop
               offset="0.1193"
               style="stop-color:#7CDE7C"
               id="stop4507" /><stop
               offset="0.1656"
               style="stop-color:#54D454"
               id="stop4508" /><stop
               offset="0.2022"
               style="stop-color:#3CCE3C"
               id="stop4509" /><stop
               offset="0.2247"
               style="stop-color:#33CC33"
               id="stop4510" /><stop
               offset="0.6798"
               style="stop-color:#009933"
               id="stop4511" /><a:midPointStop
               offset="0"
               style="stop-color:#FFFFFF"
               id="midPointStop4512" /><a:midPointStop
               offset="0.4"
               style="stop-color:#FFFFFF"
               id="midPointStop4513" /><a:midPointStop
               offset="0.2247"
               style="stop-color:#33CC33"
               id="midPointStop4514" /><a:midPointStop
               offset="0.5"
               style="stop-color:#33CC33"
               id="midPointStop4515" /><a:midPointStop
               offset="0.6798"
               style="stop-color:#009933"
               id="midPointStop4516" /></linearGradient><path
             style="fill:url(#XMLID_6_);stroke:none"
             d="m 100.287,69.751 c 0,13.512 0,40.135 0,40.135 0,2.906 2.236,5.271 4.984,5.271 l 46.854,0 c 2.746,0 4.982,-2.365 4.982,-5.271 0,0 0,-28.318 0,-40.135 l 15.461,0 -45.287,-39.412 -45.288,39.412 18.294,0 z"
             id="path4517"
             inkscape:connector-curvature="0" /><linearGradient
             id="XMLID_7_"
             gradientUnits="userSpaceOnUse"
             x1="164.75"
             y1="67.542503"
             x2="166.7695"
             y2="67.542503"><stop
               offset="0"
               style="stop-color:#FFFFFF"
               id="stop4519" /><stop
               offset="1"
               style="stop-color:#33CC33"
               id="stop4520" /><a:midPointStop
               offset="0"
               style="stop-color:#FFFFFF"
               id="midPointStop4521" /><a:midPointStop
               offset="0.5"
               style="stop-color:#FFFFFF"
               id="midPointStop4522" /><a:midPointStop
               offset="1"
               style="stop-color:#33CC33"
               id="midPointStop4523" /></linearGradient><path
             style="fill:url(#XMLID_7_);stroke:none"
             d="m 164.75,67.582 c 0.707,0 1.393,0 2.02,0 -0.027,-0.023 -0.061,-0.053 -0.09,-0.078 -0.645,0.011 -1.287,0.042 -1.93,0.078 z"
             id="path4524"
             inkscape:connector-curvature="0" /><linearGradient
             id="XMLID_8_"
             gradientUnits="userSpaceOnUse"
             x1="127.2358"
             y1="18.6826"
             x2="127.2358"
             y2="102.6008"><stop
               offset="0"
               style="stop-color:#FFFFFF"
               id="stop4526" /><stop
               offset="1"
               style="stop-color:#33CC33"
               id="stop4527" /><a:midPointStop
               offset="0"
               style="stop-color:#FFFFFF"
               id="midPointStop4528" /><a:midPointStop
               offset="0.5"
               style="stop-color:#FFFFFF"
               id="midPointStop4529" /><a:midPointStop
               offset="1"
               style="stop-color:#33CC33"
               id="midPointStop4530" /></linearGradient><path
             style="fill:url(#XMLID_8_);stroke:none"
             d="m 164.75,67.582 c 0.643,-0.035 1.285,-0.066 1.93,-0.078 -7.043,-6.129 -37,-32.201 -39.398,-34.287 -2.406,2.094 -32.597,28.367 -39.489,34.365 5.41,0 14.664,0 14.664,0 l 0,20.109 c 1.989,0.008 4.015,-0.195 6.041,-0.646 16.324,-4.26 30.793,-14.086 46.44,-17.947 l 0,-1.516 c 0,0 5.416,0 9.812,0 z"
             id="path4531"
             inkscape:connector-curvature="0" /></g></g></g></g></svg>