<?xml version="1.0" encoding="UTF-8" standalone="no"?>
<!-- Created with Sodipodi ("http://www.sodipodi.com/") -->

<svg
   xmlns:a="http://ns.adobe.com/AdobeSVGViewerExtensions/3.0/"
   xmlns:dc="http://purl.org/dc/elements/1.1/"
   xmlns:cc="http://creativecommons.org/ns#"
   xmlns:rdf="http://www.w3.org/1999/02/22-rdf-syntax-ns#"
   xmlns:svg="http://www.w3.org/2000/svg"
   xmlns="http://www.w3.org/2000/svg"
   xmlns:sodipodi="http://sodipodi.sourceforge.net/DTD/sodipodi-0.dtd"
   xmlns:inkscape="http://www.inkscape.org/namespaces/inkscape"
   width="128"
   height="128"
   viewBox="0 0 128 128"
   style="overflow:visible"
   xml:space="preserve"
   id="svg4445"
   sodipodi:version="0.32"
   sodipodi:docname="cd.svg"
   version="1.1"
   inkscape:version="0.91 r13725"><metadata
     id="metadata65"><rdf:RDF><cc:Work
         rdf:about=""><dc:format>image/svg+xml</dc:format><dc:type
           rdf:resource="http://purl.org/dc/dcmitype/StillImage" /><dc:title /></cc:Work></rdf:RDF></metadata><defs
     id="defs4533"><linearGradient
       y2="154.00391"
       x2="195.03419"
       y1="154.00391"
       x1="59.3979"
       gradientUnits="userSpaceOnUse"
       id="XMLID_3_"
       gradientTransform="matrix(-2.0208868,1.9740393,-1.9740393,-2.0208868,833.42594,40.015315)"><stop
         id="stop4472"
         style="stop-color:#E6EDFF"
         offset="0" /><stop
         id="stop4473"
         style="stop-color:#B3CAFF"
         offset="1" /><a:midPointStop
         id="midPointStop4474"
         style="stop-color:#E6EDFF"
         offset="0" /><a:midPointStop
         id="midPointStop4475"
         style="stop-color:#E6EDFF"
         offset="0.5" /><a:midPointStop
         id="midPointStop4476"
         style="stop-color:#B3CAFF"
         offset="1" /></linearGradient><linearGradient
       y2="98.980103"
       x2="127.7725"
       y1="126.5088"
       x1="127.7725"
       gradientUnits="userSpaceOnUse"
       id="XMLID_4_"
       gradientTransform="matrix(-2.0208868,1.9740393,-1.9740393,-2.0208868,833.42594,40.015315)"><stop
         id="stop4487"
         style="stop-color:#E1E1FF"
         offset="0" /><stop
         id="stop4488"
         style="stop-color:#FFFFFF"
         offset="1" /><a:midPointStop
         id="midPointStop4489"
         style="stop-color:#E1E1FF"
         offset="0" /><a:midPointStop
         id="midPointStop4490"
         style="stop-color:#E1E1FF"
         offset="0.5" /><a:midPointStop
         id="midPointStop4491"
         style="stop-color:#FFFFFF"
         offset="1" /></linearGradient><linearGradient
       gradientTransform="matrix(-1,0,0,-1,273.5273,1303.6328)"
       y2="1101.7578"
       x2="146.2471"
       y1="1290.8359"
       x1="146.2471"
       gradientUnits="userSpaceOnUse"
       id="XMLID_5_"><stop
         id="stop4497"
         style="stop-color:#003333"
         offset="0" /><stop
         id="stop4498"
         style="stop-color:#006A00"
         offset="1" /><a:midPointStop
         id="midPointStop4499"
         style="stop-color:#003333"
         offset="0" /><a:midPointStop
         id="midPointStop4500"
         style="stop-color:#003333"
         offset="0.5" /><a:midPointStop
         id="midPointStop4501"
         style="stop-color:#006A00"
         offset="1" /></linearGradient><linearGradient
       y2="145.2769"
       x2="127.2803"
       y1="52.680698"
       x1="127.2803"
       gradientUnits="userSpaceOnUse"
       id="XMLID_6_"><stop
         id="stop4504"
         style="stop-color:#FFFFFF"
         offset="0" /><stop
         id="stop4505"
         style="stop-color:#F9FDF9"
         offset="0.005" /><stop
         id="stop4506"
         style="stop-color:#B3ECB3"
         offset="0.0651" /><stop
         id="stop4507"
         style="stop-color:#7CDE7C"
         offset="0.1193" /><stop
         id="stop4508"
         style="stop-color:#54D454"
         offset="0.1656" /><stop
         id="stop4509"
         style="stop-color:#3CCE3C"
         offset="0.2022" /><stop
         id="stop4510"
         style="stop-color:#33CC33"
         offset="0.2247" /><stop
         id="stop4511"
         style="stop-color:#009933"
         offset="0.6798" /><a:midPointStop
         id="midPointStop4512"
         style="stop-color:#FFFFFF"
         offset="0" /><a:midPointStop
         id="midPointStop4513"
         style="stop-color:#FFFFFF"
         offset="0.4" /><a:midPointStop
         id="midPointStop4514"
         style="stop-color:#33CC33"
         offset="0.2247" /><a:midPointStop
         id="midPointStop4515"
         style="stop-color:#33CC33"
         offset="0.5" /><a:midPointStop
         id="midPointStop4516"
         style="stop-color:#009933"
         offset="0.6798" /></linearGradient><linearGradient
       y2="67.542503"
       x2="166.7695"
       y1="67.542503"
       x1="164.75"
       gradientUnits="userSpaceOnUse"
       id="XMLID_7_"
       gradientTransform="matrix(-1.8480298,1.8051896,-1.8051896,-1.8480298,785.49548,35.132795)"><stop
         id="stop4519"
         style="stop-color:#FFFFFF"
         offset="0" /><stop
         id="stop4520"
         style="stop-color:#33CC33"
         offset="1" /><a:midPointStop
         id="midPointStop4521"
         style="stop-color:#FFFFFF"
         offset="0" /><a:midPointStop
         id="midPointStop4522"
         style="stop-color:#FFFFFF"
         offset="0.5" /><a:midPointStop
         id="midPointStop4523"
         style="stop-color:#33CC33"
         offset="1" /></linearGradient><linearGradient
       y2="102.6008"
       x2="127.2358"
       y1="18.6826"
       x1="127.2358"
       gradientUnits="userSpaceOnUse"
       id="XMLID_8_"><stop
         id="stop4526"
         style="stop-color:#FFFFFF"
         offset="0" /><stop
         id="stop4527"
         style="stop-color:#33CC33"
         offset="1" /><a:midPointStop
         id="midPointStop4528"
         style="stop-color:#FFFFFF"
         offset="0" /><a:midPointStop
         id="midPointStop4529"
         style="stop-color:#FFFFFF"
         offset="0.5" /><a:midPointStop
         id="midPointStop4530"
         style="stop-color:#33CC33"
         offset="1" /></linearGradient></defs><sodipodi:namedview
     id="base"
     showgrid="false"
     inkscape:zoom="0.38573179"
     inkscape:cx="34.486809"
     inkscape:cy="-159.73476"
     inkscape:window-width="1325"
     inkscape:window-height="747"
     inkscape:window-x="41"
     inkscape:window-y="21"
     inkscape:window-maximized="1"
     inkscape:current-layer="Layer_1"
     units="px" /><g
     id="Layer_1"
     style="stroke:#000000"
     transform="translate(0,290.13333)"><g
       id="g4344"
       transform="matrix(0.23383965,0,0,0.23383958,0.14619506,-222.14246)"><path
         style="opacity:0.5;fill:none;stroke:none"
         d="M -0.62519364,-20.279849 276.27249,-290.75858 546.75845,-13.853509 269.8608,256.62522 -0.62519364,-20.279849 Z"
         id="path4485"
         inkscape:connector-curvature="0" /><g
         transform="matrix(1.123168,0,0,1.123168,-32.229286,2.947056)"
         id="g4330"><path
           inkscape:connector-curvature="0"
           id="path4468"
           d="m 421.70211,108.84572 c 34.47903,-43.1064 50.09864,-97.049939 44.00152,-151.903403 -6.09716,-54.849468 -33.19885,-104.049927 -76.30328,-138.526937 -43.0985,-34.47094 -97.04397,-50.09656 -151.90148,-43.9955 C 124.2652,-212.98176 42.386058,-110.60895 54.978455,2.6226624 61.066636,57.386123 88.184686,106.55481 131.3426,141.0704 c 43.14992,34.5155 97.07518,50.16086 151.84466,44.07075 54.85351,-6.10111 104.04588,-33.1949 138.51485,-76.29543 M 258.93458,-32.904655 c 3.92272,-0.43945 7.76805,0.950121 10.54355,3.791488 2.00168,2.049179 3.23193,4.634695 3.54416,7.481137 0.37781,3.3866 -0.59029,6.725454 -2.72522,9.395366 -2.13079,2.6579748 -5.16301,4.3324802 -8.54153,4.7023974 -3.3866,0.3778133 -6.71746,-0.5901949 -9.37939,-2.7250284 -2.66991,-2.134927 -4.34432,-5.175142 -4.72223,-8.553753 -0.77109,-6.98714 4.28145,-13.31266 11.28066,-14.091607 z"
           style="opacity:0.2;stroke:none" /><path
           inkscape:connector-curvature="0"
           id="path4469"
           d="M 427.71792,106.91853 C 462.19695,63.812128 477.81656,9.8685889 471.71945,-44.984875 465.62229,-99.834343 438.52059,-149.0348 395.41616,-183.51181 352.31766,-217.98275 298.37219,-233.60838 243.51469,-227.50731 130.28101,-214.90895 48.401871,-112.53614 60.994268,0.69547062 67.082449,55.458931 94.200499,104.62762 137.35841,139.14321 c 43.14993,34.51549 97.07518,50.16086 151.84466,44.07075 54.85351,-6.10111 104.04589,-33.19491 138.51485,-76.29543 M 264.9504,-34.831847 c 3.92271,-0.439449 7.76805,0.950121 10.54355,3.791488 2.00167,2.049179 3.23192,4.634695 3.54415,7.481137 0.37782,3.386601 -0.59029,6.725454 -2.72521,9.395366 -2.13079,2.657975 -5.16302,4.3324804 -8.54356,4.7043716 -3.3866,0.3778134 -6.71746,-0.5901946 -9.37938,-2.7250286 -2.66992,-2.134927 -4.34433,-5.175142 -4.72224,-8.553753 -0.76907,-6.989114 4.28347,-13.314634 11.28269,-14.093581 z"
           style="opacity:0.2;stroke:none" /><path
           inkscape:connector-curvature="0"
           id="path4470"
           d="m 433.68689,108.98626 c 34.47902,-43.106398 50.09864,-97.049937 44.00152,-151.9034 -6.09716,-54.849469 -33.19885,-104.04993 -76.30328,-138.52693 -43.09851,-34.47095 -97.04397,-50.09657 -151.90148,-43.99551 C 136.24997,-212.84121 54.370836,-110.46841 66.963234,2.7632049 73.051415,57.526665 100.16946,106.69535 143.32738,141.21094 c 43.14992,34.5155 97.07518,50.16086 151.84465,44.07076 54.85351,-6.10111 104.04589,-33.19491 138.51486,-76.29544 M 270.91936,-32.764112 c 3.92272,-0.43945 7.76805,0.950121 10.54355,3.791488 2.00168,2.049179 3.23193,4.634694 3.54416,7.481136 0.37781,3.386601 -0.59029,6.725454 -2.72324,9.397388 -2.13079,2.6579742 -5.16499,4.3304587 -8.54553,4.7023499 -3.3866,0.3778134 -6.71747,-0.5901949 -9.37939,-2.7250289 -2.66991,-2.134927 -4.34432,-5.175142 -4.72223,-8.553752 -0.76908,-6.989115 4.28346,-13.314635 11.28268,-14.093581 z"
           style="fill:#3a3aa9;stroke:none" /><path
           inkscape:connector-curvature="0"
           id="path4477"
           d="M 463.18991,-41.305179 C 451.46668,-146.71344 356.50585,-222.66228 251.09961,-210.94103 145.68528,-199.21188 69.738558,-104.26102 81.463761,1.1492692 93.188963,106.55956 188.15383,182.50444 293.56007,170.78319 398.96838,159.05597 474.91511,64.105108 463.18991,-41.305179 m -218.0538,24.252578 c -1.67003,-14.998621 9.17272,-28.543988 24.16739,-30.218054 14.99054,-1.662129 28.54399,9.17272 30.208,24.173268 1.67416,14.9866839 -9.16877,28.5480305 -24.15931,30.2101589 -14.98462,1.6681911 -28.55001,-9.1707928 -30.21608,-24.1653729 z"
           style="fill:url(#XMLID_3_);stroke:none" /><path
           inkscape:connector-curvature="0"
           id="path4478"
           d="m 245.5686,-13.217866 c 1.62968,14.6904972 15.16795,25.287437 30.15848,23.625308 14.99063,-1.670118 25.84457,-14.9776228 24.21287,-29.666146 -0.0664,-0.638057 -0.18297,-1.262718 -0.30543,-1.893441 0.5627,14.1965295 -9.94776,26.6630192 -24.28229,28.260922 -14.33048,1.5939546 -27.33203,-8.2635212 -29.89707,-22.23781 0.0265,0.637589 0.043,1.273063 0.11344,1.911167 m 6.38368,-190.025864 c 104.75625,-11.65896 198.99356,61.59244 211.42259,163.882522 -0.0623,-0.649996 -0.11468,-1.293882 -0.18694,-1.945991 C 451.4647,-146.71546 356.50388,-222.6643 251.09764,-210.94305 145.68331,-199.2139 69.736584,-104.26304 81.461787,1.1472483 81.540065,1.797431 81.62638,2.4437125 81.70071,3.0898534 71.354101,-99.437513 147.18813,-191.59286 251.95228,-203.24373 Z"
           style="fill:#ffffff;stroke:none" /><path
           inkscape:connector-curvature="0"
           id="path4479"
           d="m 293.56007,170.78319 c 35.24209,-3.91782 67.17932,-17.15389 93.65575,-36.95063 L 345.29811,76.862953 289.57027,1.1344626 C 285.63704,4.344651 280.77708,6.5131394 275.35416,7.1147928 270.87347,7.6056335 266.52984,6.9713574 262.5741,5.4566322 L 225.46329,90.194991 196.47323,156.36971 c 29.5868,12.75091 62.78088,18.23041 97.08684,14.41348 z"
           style="opacity:0.3;fill:#9b95ff;stroke:none" /><path
           inkscape:connector-curvature="0"
           id="path4480"
           d="m 234.95923,168.32999 c 18.8169,3.73069 38.51529,4.69286 58.59887,2.45118 21.08963,-2.34375 40.99584,-8.02962 59.26008,-16.45565 -18.88846,-41.92028 -36.07363,-80.026883 -36.07363,-80.026883 0,0 -14.57175,-32.346443 -31.64388,-70.2119907 -2.95303,1.5655584 -6.22779,2.6279095 -9.75046,3.0241047 -2.50433,0.2702929 -4.96643,0.1754952 -7.34526,-0.2060003 C 258.06653,55.429124 244.09938,123.65389 234.95923,168.32999 Z"
           style="opacity:0.7;fill:#ffffff;stroke:none" /><path
           inkscape:connector-curvature="0"
           id="path4481"
           d="m 257.8573,-43.253583 c 3.373,-2.114007 7.24144,-3.546969 11.44822,-4.019046 5.13675,-0.559062 10.09829,0.364141 14.47948,2.395277 l 38.2541,-87.343988 27.83869,-63.56119 c -30.01207,-13.2833 -63.81212,-19.04759 -98.7802,-15.15652 -34.03393,3.78815 -64.98924,16.25461 -90.92127,34.94301 l 42.01805,57.10063 55.66293,75.641827 z"
           style="opacity:0.3;fill:#9b95ff;stroke:none" /><path
           inkscape:connector-curvature="0"
           id="path4482"
           d="m 269.30552,-47.272629 c 2.54833,-0.273773 5.05832,-0.174418 7.46883,0.231422 8.44906,-41.280062 15.72608,-76.822383 15.72608,-76.822383 0,0 8.21158,-40.10817 17.31366,-84.60493 -18.86069,-3.74318 -38.59495,-4.71377 -58.71645,-2.47453 -20.57759,2.28983 -40.01978,7.75938 -57.91847,15.84809 19.10674,42.38632 47.68799,105.792059 67.6941,150.190654 2.61315,-1.201961 5.43165,-2.027936 8.43225,-2.368323 z"
           style="opacity:0.7;fill:#ffffff;stroke:none" /><path
           inkscape:connector-curvature="0"
           id="path4483"
           d="m 344.25526,-28.074457 c -4.41345,-39.654909 -40.27214,-68.335413 -79.93099,-63.926002 -39.65886,4.409411 -68.33734,40.26612 -63.92187,79.919054 4.40941,39.658856 40.2681,68.33936 79.92695,63.92995 39.65491,-4.413453 68.33137,-40.268188 63.92591,-79.923002 m -99.11915,11.021856 c -1.67003,-14.998621 9.17272,-28.543988 24.16739,-30.218054 14.99054,-1.662129 28.54399,9.17272 30.208,24.173268 1.67416,14.9866839 -9.16877,28.5480305 -24.15931,30.2101589 -14.98462,1.6681911 -28.55001,-9.1707928 -30.21608,-24.1653729 z"
           style="fill:#9b95ff;stroke:none" /><path
           inkscape:connector-curvature="0"
           id="path4484"
           d="m 319.337,-25.308131 c -2.88447,-25.916516 -26.31382,-44.666344 -52.23832,-41.781965 -25.92451,2.884379 -44.66644,26.321807 -41.77995,52.236349 2.88241,25.922484 26.31777,44.670386 52.25026,41.7861 25.91647,-2.880478 44.65436,-26.31395789 41.76801,-52.240484 m -74.20089,8.25553 c -1.67003,-14.998621 9.17272,-28.543988 24.16739,-30.218054 14.99054,-1.662129 28.54399,9.17272 30.208,24.173268 1.67416,14.9866839 -9.16877,28.5480305 -24.15931,30.2101589 -14.98462,1.6681911 -28.55001,-9.1707928 -30.21608,-24.1653729 z"
           style="fill:#e6e6e6;stroke:none" /><path
           inkscape:connector-curvature="0"
           id="path4492"
           d="m 402.19057,115.11755 c 56.03313,-54.734185 75.00433,-126.512181 42.28462,-160.008379 -22.0283,-22.551076 -62.53118,-22.316847 -104.80017,-1.460703 2.24988,5.755895 3.86448,11.851947 4.57827,18.275054 4.40546,39.654814 -24.26903,75.51157 -63.92591,79.923002 -12.9522,1.436314 -25.46692,-0.702188 -36.64739,-5.545961 -22.78859,42.452387 -24.64933,84.602807 -2.44336,107.335767 32.7197,33.4962 104.92082,16.21541 160.95394,-38.51878 z"
           style="opacity:0.7;fill:url(#XMLID_4_);stroke:none" /></g><path
         style="fill:url(#XMLID_7_);stroke:none"
         d="m 359.03424,207.64418 c -1.30655,1.2763 -2.57426,2.51463 -3.733,3.64652 0.0916,-0.007 0.2084,-0.0121 0.30712,-0.0182 1.17214,-1.18466 2.30263,-2.40088 3.42588,-3.62816 z"
         id="path4524"
         inkscape:connector-curvature="0" /></g></g></svg>