<?xml version="1.0" encoding="UTF-8" standalone="no"?>
<!-- Created with Inkscape (http://www.inkscape.org/) -->

<svg
   xmlns:dc="http://purl.org/dc/elements/1.1/"
   xmlns:cc="http://creativecommons.org/ns#"
   xmlns:rdf="http://www.w3.org/1999/02/22-rdf-syntax-ns#"
   xmlns:svg="http://www.w3.org/2000/svg"
   xmlns="http://www.w3.org/2000/svg"
   xmlns:xlink="http://www.w3.org/1999/xlink"
   xmlns:sodipodi="http://sodipodi.sourceforge.net/DTD/sodipodi-0.dtd"
   xmlns:inkscape="http://www.inkscape.org/namespaces/inkscape"
   width="128"
   height="128"
   viewBox="0 0 33.866666 33.866666"
   version="1.1"
   id="svg3029"
   inkscape:version="0.92.3 (2405546, 2018-03-11)"
   sodipodi:docname="certificate.svg">
  <defs
     id="defs3023">
    <linearGradient
       gradientTransform="matrix(0.24741951,0,0,0.26672544,187.58734,1544.2864)"
       gradientUnits="userSpaceOnUse"
       xlink:href="#linearGradient9590"
       id="linearGradient2898"
       y2="-1918"
       x2="-500.70001"
       y1="-2279"
       x1="-543.29999" />
    <linearGradient
       id="linearGradient9590">
      <stop
         offset="0"
         style="stop-color:#bfbfbf;stop-opacity:1"
         id="stop9592" />
      <stop
         offset="1"
         style="stop-color:#f8f8f8;stop-opacity:1"
         id="stop9594" />
    </linearGradient>
    <linearGradient
       gradientTransform="matrix(2.7099618,0,0,2.8465895,-1.2644708,922.0218)"
       gradientUnits="userSpaceOnUse"
       xlink:href="#linearGradient5635"
       id="linearGradient2894"
       y2="3.5"
       x2="20.75"
       y1="23"
       x1="22.5" />
    <linearGradient
       id="linearGradient5635">
      <stop
         offset="0"
         style="stop-color:#ffffff;stop-opacity:1"
         id="stop5637" />
      <stop
         offset="1"
         style="stop-color:#ededed;stop-opacity:1"
         id="stop5639" />
    </linearGradient>
    <linearGradient
       gradientTransform="matrix(2.7099618,0,0,2.8465895,-1.2644708,922.0218)"
       gradientUnits="userSpaceOnUse"
       xlink:href="#linearGradient5584"
       id="linearGradient2880"
       y2="42.610001"
       x2="26.09"
       y1="2.4860001"
       x1="25.98" />
    <linearGradient
       id="linearGradient5584">
      <stop
         offset="0"
         style="stop-color:#ffffff;stop-opacity:1"
         id="stop5586" />
      <stop
         offset="1"
         style="stop-color:#ffffff;stop-opacity:0"
         id="stop5588" />
    </linearGradient>
  </defs>
  <sodipodi:namedview
     id="base"
     pagecolor="#ffffff"
     bordercolor="#666666"
     borderopacity="1.0"
     inkscape:pageopacity="0.0"
     inkscape:pageshadow="2"
     inkscape:zoom="3.9296875"
     inkscape:cx="64"
     inkscape:cy="64"
     inkscape:document-units="mm"
     inkscape:current-layer="layer1"
     showgrid="false"
     units="px"
     inkscape:window-width="1366"
     inkscape:window-height="713"
     inkscape:window-x="0"
     inkscape:window-y="27"
     inkscape:window-maximized="1" />
  <metadata
     id="metadata3026">
    <rdf:RDF>
      <cc:Work
         rdf:about="">
        <dc:format>image/svg+xml</dc:format>
        <dc:type
           rdf:resource="http://purl.org/dc/dcmitype/StillImage" />
        <dc:title></dc:title>
      </cc:Work>
    </rdf:RDF>
  </metadata>
  <g
     inkscape:label="Capa 1"
     inkscape:groupmode="layer"
     id="layer1"
     transform="translate(0,-263.13334)">
    <g
       transform="matrix(0.26458333,0,0,0.26458333,0,18.562516)"
       id="g3593"
       inkscape:export-filename="/var/www/chamilo/main/img/icons/22/certificate.png"
       inkscape:export-xdpi="16.500002"
       inkscape:export-ydpi="16.500002">
      <rect
         y="924.36218"
         x="0"
         height="128"
         width="128"
         id="rect3003"
         style="opacity:0;fill:#ff00ff;fill-opacity:1;stroke:none;stroke-width:4.9787035;stroke-linecap:round;stroke-linejoin:bevel;stroke-miterlimit:4;stroke-dasharray:none;stroke-dashoffset:0;stroke-opacity:1" />
      <rect
         width="116.50127"
         height="99.659096"
         rx="2.1037433"
         ry="2.2098074"
         x="5.523983"
         y="937.67804"
         id="rect1324"
         style="color:#000000;display:inline;overflow:visible;visibility:visible;fill:url(#linearGradient2898);fill-opacity:1;fill-rule:nonzero;stroke:#888a85;stroke-width:2.77743578;stroke-linecap:square;stroke-linejoin:miter;stroke-miterlimit:4;stroke-dasharray:none;stroke-dashoffset:0;stroke-opacity:1;marker:none" />
      <path
         inkscape:connector-curvature="0"
         d="m 16.266272,942.2326 c -3.701808,0 -6.690895,3.13125 -6.690895,6.83182 0,2.27726 1.092114,4.55454 2.709961,5.69317 -1.658496,1.42329 -2.709961,3.41591 -2.709961,5.69319 0,2.27727 1.051465,4.26989 2.709961,5.69317 -1.658496,1.42329 -2.709961,3.41591 -2.709961,5.69318 0,2.27727 1.051465,4.26988 2.709961,5.69318 -1.658496,1.42329 -2.709961,3.41591 -2.709961,5.69317 0,2.27729 1.051465,4.26989 2.709961,5.69319 -1.658496,1.4233 -2.709961,3.41592 -2.709961,5.69318 0,2.27726 1.051465,4.26986 2.709961,5.69315 -1.658496,1.4234 -2.709961,3.416 -2.709961,5.6932 0,2.2772 1.051465,4.2699 2.709961,5.6932 -1.658496,1.4232 -2.709961,3.4158 -2.709961,5.6931 0,1.7079 0.514892,3.1313 1.35498,4.2699 -0.867187,1.1388 -1.35498,2.5619 -1.35498,4.2699 0,3.9853 2.989087,7.1165 6.690895,7.1165 2.165259,0 4.108302,-1.1386 5.335915,-2.8466 1.227613,1.708 3.102906,2.8466 5.257326,2.8466 2.14087,0 4.010743,-1.1386 5.230225,-2.8466 1.246583,1.708 3.170656,2.8466 5.338625,2.8466 2.16797,0 4.119142,-1.1386 5.338626,-2.8466 1.219482,1.708 3.116455,2.8466 5.257325,2.8466 2.14087,0 4.010743,-1.1386 5.230226,-2.8466 1.246583,1.708 3.170656,2.8466 5.338626,2.8466 2.167968,0 4.037843,-1.1386 5.257325,-2.8466 1.219483,1.708 3.089356,2.8466 5.257326,2.8466 2.16797,0 4.092042,-1.1386 5.338624,-2.8466 1.219483,1.708 3.089357,2.8466 5.230227,2.8466 2.167969,0 4.119142,-1.1386 5.338625,-2.8466 1.246582,1.708 3.089356,2.8466 5.257325,2.8466 2.16797,0 4.119142,-1.1386 5.338625,-2.8466 1.219482,1.708 3.116457,2.8466 5.257317,2.8466 2.14088,0 4.01075,-1.1386 5.25733,-2.8466 1.21949,1.708 3.14356,2.8466 5.31153,2.8466 3.71264,0 6.69361,-3.1312 6.69361,-7.1165 0,-1.708 -0.5149,-3.1311 -1.43628,-4.2699 0.81299,-1.1386 1.27367,-2.8465 1.27367,-4.2699 0,-2.2773 -1.05688,-4.2699 -2.70995,-5.6931 1.65307,-1.4233 2.70995,-3.416 2.70995,-5.6932 0,-2.2772 -1.05688,-4.2698 -2.70995,-5.6932 1.65307,-1.42329 2.70995,-3.41589 2.70995,-5.69315 0,-2.27726 -1.05688,-4.26988 -2.70995,-5.69318 1.65307,-1.4233 2.70995,-3.4159 2.70995,-5.69319 0,-2.27726 -1.05688,-4.26988 -2.70995,-5.69317 1.65307,-1.4233 2.70995,-3.41591 2.70995,-5.69318 0,-2.27727 -1.05688,-4.26989 -2.70995,-5.69318 1.65307,-1.42328 2.70995,-3.4159 2.70995,-5.69317 0,-2.27728 -1.02977,-4.2699 -2.62866,-5.69319 1.68018,-1.13863 2.79127,-3.13124 2.79127,-5.69317 0,-3.70057 -2.98097,-6.83182 -6.69361,-6.83182 -2.16797,0 -4.09204,0.85398 -5.31153,2.56193 -1.24658,-1.42329 -3.11645,-2.56193 -5.25733,-2.56193 -2.14086,0 -4.037835,1.13864 -5.257317,2.56193 -1.219483,-1.70795 -3.170655,-2.56193 -5.338625,-2.56193 -2.167969,0 -4.010743,0.85398 -5.257325,2.56193 -1.219483,-1.70795 -3.170656,-2.56193 -5.338625,-2.56193 -2.14087,0 -4.010744,0.85398 -5.230227,2.56193 -1.246582,-1.70795 -3.170654,-2.56193 -5.338624,-2.56193 -2.16797,0 -4.037843,0.85398 -5.257326,2.56193 -1.219482,-1.70795 -3.089357,-2.56193 -5.257325,-2.56193 -2.16797,0 -4.092043,0.85398 -5.338626,2.56193 -1.219483,-1.70795 -3.089356,-2.56193 -5.230226,-2.56193 -2.14087,0 -4.037843,1.13864 -5.257325,2.56193 -1.219484,-1.70795 -3.170656,-2.56193 -5.338626,-2.56193 -2.167969,0 -4.092042,0.85398 -5.338625,2.56193 -1.219482,-1.42329 -3.089355,-2.56193 -5.230225,-2.56193 -2.15442,0 -4.029713,1.13864 -5.257326,2.56193 -1.227613,-1.70795 -3.170656,-2.56193 -5.335915,-2.56193 z m 5.335915,11.1017 c 1.227613,1.70796 3.102906,2.84658 5.257326,2.84658 2.14087,0 4.010743,-1.13862 5.230225,-2.84658 1.246583,1.70796 3.170656,2.84658 5.338625,2.84658 2.16797,0 4.119142,-1.13862 5.338626,-2.84658 1.219482,1.70796 3.116455,2.84658 5.257325,2.84658 2.14087,0 4.010743,-1.13862 5.230226,-2.84658 1.246583,1.70796 3.170656,2.84658 5.338626,2.84658 2.167968,0 4.037843,-1.13862 5.257325,-2.84658 1.219483,1.70796 3.089356,2.84658 5.257326,2.84658 2.16797,0 4.092042,-1.13862 5.338624,-2.84658 1.219483,1.70796 3.089357,2.84658 5.230227,2.84658 2.167969,0 4.119142,-1.13862 5.338625,-2.84658 1.246582,1.70796 3.089356,2.84658 5.257325,2.84658 2.16797,0 4.119142,-1.13862 5.338625,-2.84658 1.219482,1.70796 3.116457,2.84658 5.257317,2.84658 2.14088,0 4.01075,-1.13862 5.25733,-2.84658 0.3252,0.56931 0.7317,0.85398 1.16529,1.42329 -1.73437,1.13864 -2.87256,3.13125 -2.87256,5.69319 0,2.27727 1.05689,4.26989 2.70996,5.69317 -1.65307,1.42329 -2.70996,3.41591 -2.70996,5.69318 0,2.27727 1.05689,4.26988 2.70996,5.69318 -1.65307,1.42329 -2.70996,3.41591 -2.70996,5.69317 0,2.27729 1.05689,4.26989 2.70996,5.69319 -1.65307,1.4233 -2.70996,3.41592 -2.70996,5.69318 0,2.27726 1.05689,4.26986 2.70996,5.69315 -1.65307,1.4234 -2.70996,3.416 -2.70996,5.6932 0,2.2772 1.05689,4.2699 2.70996,5.6932 -1.65307,1.4232 -2.70996,3.4158 -2.70996,5.6931 0,1.1387 0.27099,2.2773 0.67749,3.1313 -1.13819,-1.1386 -2.62866,-1.7079 -4.22755,-1.7079 -2.14086,0 -4.037835,1.1386 -5.257317,2.8465 -1.219483,-1.7079 -3.170655,-2.8465 -5.338625,-2.8465 -2.167969,0 -4.010743,1.1386 -5.257325,2.8465 -1.219483,-1.7079 -3.170656,-2.8465 -5.338625,-2.8465 -2.14087,0 -4.010744,1.1386 -5.230227,2.8465 -1.246582,-1.7079 -3.170654,-2.8465 -5.338624,-2.8465 -2.16797,0 -4.037843,1.1386 -5.257326,2.8465 -1.219482,-1.7079 -3.089357,-2.8465 -5.257325,-2.8465 -2.16797,0 -4.092043,1.1386 -5.338626,2.8465 -1.219483,-1.7079 -3.089356,-2.8465 -5.230226,-2.8465 -2.14087,0 -4.037843,1.1386 -5.257325,2.8465 -1.219484,-1.7079 -3.170656,-2.8465 -5.338626,-2.8465 -2.167969,0 -4.092042,1.1386 -5.338625,2.8465 -1.219482,-1.7079 -3.089355,-2.8465 -5.230225,-2.8465 -1.896974,0 -3.539211,0.8539 -4.750563,2.2772 0.63413,-1.1386 1.016235,-2.2772 1.016235,-3.7006 0,-2.2773 -1.051465,-4.2699 -2.709962,-5.6931 1.658497,-1.4233 2.709962,-3.416 2.709962,-5.6932 0,-2.2772 -1.051465,-4.2698 -2.709962,-5.6932 1.658497,-1.42329 2.709962,-3.41589 2.709962,-5.69315 0,-2.27726 -1.051465,-4.26988 -2.709962,-5.69318 1.658497,-1.4233 2.709962,-3.4159 2.709962,-5.69319 0,-2.27726 -1.051465,-4.26988 -2.709962,-5.69317 1.658497,-1.4233 2.709962,-3.41591 2.709962,-5.69318 0,-2.27727 -1.051465,-4.26989 -2.709962,-5.69318 1.658497,-1.42328 2.709962,-3.4159 2.709962,-5.69317 0,-2.27728 -1.105664,-4.2699 -2.79397,-5.69319 0.482373,-0.28465 0.902416,-0.85398 1.270972,-1.42329 z"
         id="path5613"
         style="color:#000000;display:inline;overflow:visible;visibility:visible;opacity:0.30290001;fill:#555753;fill-opacity:1;fill-rule:evenodd;stroke:none;stroke-width:1.07921636;marker:none;enable-background:accumulate" />
      <rect
         width="97.558624"
         height="79.704506"
         rx="2.1037433"
         ry="2.2098074"
         x="14.9953"
         y="947.64111"
         id="rect5580"
         style="color:#000000;display:inline;overflow:visible;visibility:visible;fill:url(#linearGradient2894);fill-opacity:1;fill-rule:evenodd;stroke:none;stroke-width:0.21584328;marker:none;enable-background:accumulate" />
      <path
         inkscape:connector-curvature="0"
         d="m 28.973283,1000.8723 c 0,0.5694 0,1.4233 0,1.4233 0,0 0.270996,-1.4233 -0.433595,-1.7079 -1.192382,-0.2847 -1.924072,1.4232 -2.303467,2.8466 -0.631421,1.7079 -0.270995,3.7005 1.571778,4.27 2.005372,0.5691 5.284426,-1.9927 5.284426,-1.9927 0,0 -0.379395,0.2846 -0.487794,0.2846 -0.270996,0.5693 -0.379394,0.8539 -0.270996,1.1386 0,0 0.352295,0 0.487793,0 0.569093,0.2847 1.300783,0 1.43628,-0.5693 0.270997,-0.5693 0.487793,-1.4233 0.487793,-1.4233 0,0 -0.270996,0.5694 -0.352295,0.5694 -0.270995,0.5693 0.325195,0.8539 0.812988,1.1385 0.81299,0.2847 1.896974,-1.1385 2.032472,-1.1385 0,0 0.270997,0.8539 0.677491,1.1385 0.596191,0 1.32788,-0.5692 1.571777,-0.5692 0,0 0.270996,0.2846 0.352295,0.2846 0.704591,0.2846 1.788575,-0.2846 1.896974,-0.2846 0,0 0.270996,1.7079 0.270996,3.1312"
         id="path1332"
         style="fill:none;stroke:#204a87;stroke-width:0.5554871;stroke-linecap:round;stroke-linejoin:round;stroke-miterlimit:4;stroke-dasharray:none" />
      <path
         inkscape:connector-curvature="0"
         d="m 45.233054,1002.0109 c -0.514893,1.4234 -0.406494,2.5619 -0.78589,3.9853"
         id="path1334"
         style="fill:none;stroke:#204a87;stroke-width:0.5554871;stroke-linecap:round;stroke-linejoin:round;stroke-miterlimit:4;stroke-dasharray:none" />
      <path
         inkscape:connector-curvature="0"
         d="m 44.853658,1002.5802 c 0,0.2848 -0.270995,0.5695 -0.487793,0.5695 1.327882,-0.2847 3.224855,-0.8541 3.360353,-0.5695 0,0 0,0.2848 0,0.2848 -0.270996,1.1385 -1.327881,2.2772 -1.327881,2.2772 0,0.2847 3.577149,-0.5694 3.902345,-0.2846 0.270996,0 0,0.5693 0,0.854 -0.270996,0.5693 -0.487793,0.8539 -0.867188,1.1385 0.270996,0 0.270996,0 0.379395,0"
         id="path1336"
         style="fill:none;stroke:#204a87;stroke-width:0.5554871;stroke-linecap:round;stroke-linejoin:round;stroke-miterlimit:4;stroke-dasharray:none" />
      <path
         inkscape:connector-curvature="0"
         d="m 52.197655,1003.719 c 0,0.2845 0,0.2845 -0.270996,0.2845 0.948487,0.2848 1.43628,-0.2845 2.384767,-0.2845 -0.270997,0.8538 -0.379395,1.4232 -0.731691,2.2772 0.948487,-1.1386 2.520265,-2.2772 2.764162,-2.2772 0.270996,0 0,2.2772 0,2.2772 0.460693,0.2847 4.308839,-3.1312 4.688234,-2.8465 0.270996,0 -0.894288,2.8465 0.406494,3.4158 1.056885,0.2846 2.520264,-1.4233 2.520264,-1.4233 0,0 -0.487793,0.5694 -0.73169,0.854 0,0 0.270997,0 0.352296,0 0.948486,0 1.43628,-0.5693 2.384766,-0.5693 0,0.2847 -0.270996,0.2847 -0.270996,0.5693 0.270996,0 0.270996,0 0.460694,0.2847 0.840088,0.2846 2.384766,-0.5693 2.384766,-0.5693 0,0 -0.270997,0.8539 0,0.8539 1.653077,0.5693 2.737062,-0.2846 4.417237,-0.5693"
         id="path1338"
         style="fill:none;stroke:#204a87;stroke-width:0.5554871;stroke-linecap:round;stroke-linejoin:round;stroke-miterlimit:4;stroke-dasharray:none" />
      <rect
         width="111.10843"
         height="93.880524"
         rx="0"
         ry="0"
         x="8.2203951"
         y="940.52466"
         id="rect2231"
         style="color:#000000;display:inline;overflow:visible;visibility:visible;opacity:0.69709999;fill:none;stroke:url(#linearGradient2880);stroke-width:2.77743578;stroke-linecap:butt;stroke-linejoin:miter;stroke-miterlimit:4;stroke-dasharray:none;stroke-dashoffset:0;stroke-opacity:1;marker:none" />
      <path
         inkscape:connector-curvature="0"
         d="M 26.236221,956.18088 H 104.01212"
         id="path2235"
         style="fill:none;stroke:#888a85;stroke-width:5.55487156;stroke-linecap:round;stroke-linejoin:miter;stroke-miterlimit:4;stroke-dasharray:none;stroke-opacity:1" />
      <path
         inkscape:connector-curvature="0"
         d="M 40.436421,966.14395 H 89.269932"
         id="path2237"
         style="fill:none;stroke:#888a85;stroke-width:2.77743578px;stroke-linecap:round;stroke-linejoin:miter;stroke-opacity:1" />
      <path
         inkscape:connector-curvature="0"
         d="M 32.171037,983.22348 H 93.225974"
         id="path2239"
         style="fill:none;stroke:#888a85;stroke-width:2.93027854px;stroke-linecap:round;stroke-linejoin:miter;stroke-opacity:1" />
      <path
         inkscape:connector-curvature="0"
         d="M 32.963958,990.4214 H 94.018895"
         id="path2241"
         style="fill:none;stroke:#888a85;stroke-width:2.93027854px;stroke-linecap:round;stroke-linejoin:miter;stroke-opacity:1" />
      <path
         inkscape:connector-curvature="0"
         d="M 28.539688,1011.4048 H 69.189116"
         id="path5578"
         style="fill:none;stroke:#888a85;stroke-width:2.77743578px;stroke-linecap:butt;stroke-linejoin:miter;stroke-opacity:1" />
      <g
         transform="matrix(1.2105564,0,0,1.2105564,-14.564977,-191.99193)"
         id="g2981">
        <path
           style="fill:#3465a4;fill-rule:evenodd;stroke:#204a87;stroke-width:2.70996189;stroke-linecap:butt;stroke-linejoin:miter;stroke-miterlimit:10;stroke-dasharray:none;stroke-opacity:1"
           id="path5582"
           d="m 91.898595,1004.834 c 0.270997,5.9618 2.059571,11.6528 4.796633,17.0728 l 2.167969,-8.943 8.861573,1.897 c -3.17065,-1.897 -9.593262,-7.8589 -12.221926,-12.1949 z"
           inkscape:connector-curvature="0" />
        <path
           style="color:#000000;display:inline;overflow:visible;visibility:visible;fill:#f7f999;fill-opacity:1;fill-rule:nonzero;stroke:#fdcd12;stroke-width:2.59031487;stroke-linecap:square;stroke-linejoin:miter;stroke-miterlimit:4;stroke-dasharray:none;stroke-dashoffset:0;stroke-opacity:1;marker:none"
           id="path1342"
           d="m 97.010932,1008.7807 c -1.109729,1.0092 -2.48368,0.053 -3.85763,0.5843 -1.373952,0.5842 -1.691017,2.2308 -3.170656,2.284 -1.47964,0 -1.955238,-1.5935 -3.329188,-2.0716 -1.426795,-0.4249 -2.747901,0.5843 -3.910476,-0.3186 -1.162573,-0.903 -0.475598,-2.4434 -1.215418,-3.7182 -0.792663,-1.2747 -2.483679,-1.3278 -2.747901,-2.7619 -0.317065,-1.4341 1.162574,-2.1777 1.373951,-3.66498 0.211377,-1.43411 -1.004041,-2.54953 -0.317065,-3.87742 0.686975,-1.32787 2.325147,-0.90295 3.434876,-1.85902 1.10973,-1.0092 0.845508,-2.65577 2.219459,-3.24004 1.373951,-0.53115 2.325147,0.84985 3.804787,0.79673 1.479638,-0.0531 2.377991,-1.48723 3.751942,-1.00919 1.426795,0.42493 1.268262,2.12461 2.48368,3.02757 1.10973,0.90296 2.695056,0.42493 3.487721,1.64657 0.792663,1.27477 -0.36991,2.49642 -0.05284,3.93053 0.264222,1.43411 1.849536,2.07155 1.638176,3.55875 -0.21138,1.434 -1.902397,1.6465 -2.589372,2.9213 -0.686975,1.3279 0.105688,2.8151 -1.00404,3.7712 z"
           inkscape:connector-curvature="0" />
        <path
           style="color:#000000;display:inline;overflow:visible;visibility:visible;fill:#fdce15;fill-opacity:1;fill-rule:nonzero;stroke:none;stroke-width:6.58123922;marker:none"
           id="path1346"
           d="m 96.163041,1000.1568 a 6.9707915,6.7985922 0 1 1 -13.927631,0 6.9707915,6.7985922 0 1 1 13.927631,0 z"
           inkscape:connector-curvature="0" />
        <path
           style="color:#000000;display:inline;overflow:visible;visibility:visible;fill:none;stroke:#ffffff;stroke-width:1.51188779;stroke-linecap:round;stroke-linejoin:round;stroke-miterlimit:4;stroke-dasharray:none;stroke-dashoffset:0;stroke-opacity:1;marker:none"
           id="path1348"
           d="m 91.952795,996.43307 c -0.270996,0 -0.487794,-0.27099 -0.758789,-0.27099 -0.704591,-0.271 -1.46338,-0.542 -2.249269,-0.542 0,0 0,0 0,0 -3.143556,0 -5.636721,4.06494 -3.848146,6.77492 0.270996,0.2709 0.379395,0.2709 0.596192,0.813"
           inkscape:connector-curvature="0" />
      </g>
    </g>
  </g>
</svg>
