<?xml version="1.0" encoding="UTF-8" standalone="no"?>
<!-- Created with Inkscape (http://www.inkscape.org/) -->

<svg
   xmlns:dc="http://purl.org/dc/elements/1.1/"
   xmlns:cc="http://creativecommons.org/ns#"
   xmlns:rdf="http://www.w3.org/1999/02/22-rdf-syntax-ns#"
   xmlns:svg="http://www.w3.org/2000/svg"
   xmlns="http://www.w3.org/2000/svg"
   xmlns:sodipodi="http://sodipodi.sourceforge.net/DTD/sodipodi-0.dtd"
   xmlns:inkscape="http://www.inkscape.org/namespaces/inkscape"
   width="32"
   height="32"
   viewBox="0 0 8.4666665 8.466667"
   version="1.1"
   id="svg8"
   inkscape:version="0.92.3 (unknown)"
   sodipodi:docname="check-not-attempted.svg">
  <defs
     id="defs2" />
  <sodipodi:namedview
     id="base"
     pagecolor="#ffffff"
     bordercolor="#666666"
     borderopacity="1.0"
     inkscape:pageopacity="0.0"
     inkscape:pageshadow="2"
     inkscape:zoom="24.838733"
     inkscape:cx="14.075622"
     inkscape:cy="14.119287"
     inkscape:document-units="mm"
     inkscape:current-layer="layer1"
     showgrid="false"
     units="px"
     inkscape:window-width="1920"
     inkscape:window-height="1043"
     inkscape:window-x="1920"
     inkscape:window-y="0"
     inkscape:window-maximized="1" />
  <metadata
     id="metadata5">
    <rdf:RDF>
      <cc:Work
         rdf:about="">
        <dc:format>image/svg+xml</dc:format>
        <dc:type
           rdf:resource="http://purl.org/dc/dcmitype/StillImage" />
        <dc:title />
      </cc:Work>
    </rdf:RDF>
  </metadata>
  <g
     inkscape:label="Capa 1"
     inkscape:groupmode="layer"
     id="layer1"
     transform="translate(0,-288.53332)">
    <g
       id="g997"
       transform="translate(-32.966255,260.87949)">
      <path
         d="m 40.110005,31.887167 q 0,0.792028 -0.390329,1.460893 -0.390329,0.668866 -1.059195,1.059195 -0.668865,0.390329 -1.460892,0.390329 -0.792028,0 -1.460893,-0.390329 -0.668866,-0.390329 -1.059195,-1.059195 -0.390329,-0.668865 -0.390329,-1.460893 0,-0.792027 0.390329,-1.460892 0.390329,-0.668866 1.059195,-1.059195 0.668865,-0.390329 1.460893,-0.390329 0.792027,0 1.460892,0.390329 0.668866,0.390329 1.059195,1.059195 0.390329,0.668865 0.390329,1.460892 z m -0.848871,0 q 0,-0.560861 -0.276641,-1.034562 -0.276642,-0.4737 -0.750342,-0.750341 -0.473701,-0.276642 -1.034562,-0.276642 -0.560862,0 -1.034563,0.276642 -0.4737,0.276641 -0.750341,0.750341 -0.276641,0.473701 -0.276641,1.034562 0,0.560862 0.276641,1.034563 0.276641,0.4737 0.750341,0.750342 0.473701,0.27664 1.034563,0.27664 0.560861,0 1.034562,-0.27664 0.4737,-0.276642 0.750342,-0.750342 0.276641,-0.473701 0.276641,-1.034563 z"
         style="stroke-width:0.00378961;fill:#cccccc"
         id="path974"
         inkscape:connector-curvature="0" />
    </g>
  </g>
</svg>
