<?xml version="1.0" encoding="UTF-8" standalone="no"?>
<!-- Created with Inkscape (http://www.inkscape.org/) -->

<svg
   xmlns:dc="http://purl.org/dc/elements/1.1/"
   xmlns:cc="http://creativecommons.org/ns#"
   xmlns:rdf="http://www.w3.org/1999/02/22-rdf-syntax-ns#"
   xmlns:svg="http://www.w3.org/2000/svg"
   xmlns="http://www.w3.org/2000/svg"
   xmlns:xlink="http://www.w3.org/1999/xlink"
   xmlns:sodipodi="http://sodipodi.sourceforge.net/DTD/sodipodi-0.dtd"
   xmlns:inkscape="http://www.inkscape.org/namespaces/inkscape"
   width="128"
   height="128"
   viewBox="0 0 128 128"
   id="svg2"
   version="1.1"
   inkscape:version="0.91 r"
   sodipodi:docname="class.svg">
  <defs
     id="defs4">
    <linearGradient
       inkscape:collect="always"
       id="linearGradient5305">
      <stop
         style="stop-color:#2b2b2b;stop-opacity:1"
         offset="0"
         id="stop5307" />
      <stop
         id="stop5313"
         offset="0.18282785"
         style="stop-color:#5d5d5d;stop-opacity:1" />
      <stop
         style="stop-color:#686860;stop-opacity:1"
         offset="0.32970434"
         id="stop5315" />
      <stop
         style="stop-color:#929483;stop-opacity:1"
         offset="1"
         id="stop5309" />
    </linearGradient>
    <linearGradient
       inkscape:collect="always"
       id="linearGradient5293">
      <stop
         style="stop-color:#004455;stop-opacity:1"
         offset="0"
         id="stop5295" />
      <stop
         style="stop-color:#00222b;stop-opacity:1"
         offset="1"
         id="stop5297" />
    </linearGradient>
    <linearGradient
       x1="517.02167"
       y1="705.48438"
       x2="517.02167"
       y2="745.30084"
       id="linearGradient44667"
       xlink:href="#linearGradient3219"
       gradientUnits="userSpaceOnUse"
       gradientTransform="matrix(0.92690123,0,0,0.92690123,-421.47612,313.824)" />
    <linearGradient
       id="linearGradient3219">
      <stop
         id="stop3221"
         style="stop-color:#0e7309;stop-opacity:1"
         offset="0" />
      <stop
         id="stop3223"
         style="stop-color:#70d13e;stop-opacity:1"
         offset="1" />
    </linearGradient>
    <filter
       id="filter3297">
      <feGaussianBlur
         inkscape:collect="always"
         stdDeviation="0.26694977"
         id="feGaussianBlur3299" />
    </filter>
    <filter
       id="filter3293">
      <feGaussianBlur
         inkscape:collect="always"
         stdDeviation="0.355"
         id="feGaussianBlur3295" />
    </filter>
    <linearGradient
       x1="83.28125"
       y1="123.09795"
       x2="83.28125"
       y2="66.310989"
       id="linearGradient44076"
       xlink:href="#linearGradient44699"
       gradientUnits="userSpaceOnUse"
       gradientTransform="matrix(0.92690123,0,0,0.92690123,32.712818,920.77688)" />
    <linearGradient
       id="linearGradient44699">
      <stop
         id="stop44701"
         style="stop-color:#000173;stop-opacity:0.93333334"
         offset="0" />
      <stop
         id="stop44703"
         style="stop-color:#3575f0;stop-opacity:1"
         offset="1" />
    </linearGradient>
    <radialGradient
       cx="491.52231"
       cy="670.92523"
       r="36.426601"
       fx="491.52231"
       fy="670.92523"
       id="radialGradient44073"
       xlink:href="#linearGradient44080"
       gradientUnits="userSpaceOnUse"
       gradientTransform="matrix(0,1.875847,-1.8149226,0,1291.2607,40.750567)" />
    <linearGradient
       id="linearGradient44080">
      <stop
         id="stop44082"
         style="stop-color:#2c8300;stop-opacity:1"
         offset="0" />
      <stop
         id="stop44084"
         style="stop-color:#57aeff;stop-opacity:1"
         offset="0.25" />
      <stop
         id="stop44086"
         style="stop-color:#ffffff;stop-opacity:1"
         offset="0.5" />
      <stop
         id="stop44088"
         style="stop-color:#5aafff;stop-opacity:1"
         offset="1" />
    </linearGradient>
    <linearGradient
       x1="517.02167"
       y1="705.48438"
       x2="517.02167"
       y2="745.30084"
       id="linearGradient44070"
       xlink:href="#linearGradient44090"
       gradientUnits="userSpaceOnUse"
       gradientTransform="matrix(0.92690123,0,0,0.92690123,-382.12054,330.40235)" />
    <linearGradient
       id="linearGradient44090">
      <stop
         id="stop44092"
         style="stop-color:#0926bb;stop-opacity:1"
         offset="0" />
      <stop
         id="stop44094"
         style="stop-color:#6bb5fe;stop-opacity:1"
         offset="1" />
    </linearGradient>
    <linearGradient
       x1="517.02167"
       y1="705.48438"
       x2="517.02167"
       y2="745.30084"
       id="linearGradient44067"
       xlink:href="#linearGradient44090"
       gradientUnits="userSpaceOnUse"
       gradientTransform="matrix(-0.92690123,0,0,0.92690123,529.43693,330.40235)" />
    <linearGradient
       x1="-246.57739"
       y1="958.07971"
       x2="-248.7769"
       y2="964.61743"
       id="linearGradient44613"
       xlink:href="#linearGradient44615"
       gradientUnits="userSpaceOnUse"
       gradientTransform="matrix(0.92690123,0,0,0.92690123,294.53788,102.60792)" />
    <linearGradient
       id="linearGradient44615">
      <stop
         id="stop44617"
         style="stop-color:#2f68fa;stop-opacity:1"
         offset="0" />
      <stop
         id="stop44619"
         style="stop-color:#c7d5fb;stop-opacity:1"
         offset="1" />
    </linearGradient>
    <linearGradient
       x1="-35.566662"
       y1="76.562927"
       x2="-35.566662"
       y2="84.910484"
       id="linearGradient44691"
       xlink:href="#linearGradient44693"
       gradientUnits="userSpaceOnUse"
       gradientTransform="matrix(1.0923022,0,0,0.86351212,114.04292,924.64357)" />
    <linearGradient
       id="linearGradient44693">
      <stop
         id="stop44695"
         style="stop-color:#3690e6;stop-opacity:1"
         offset="0" />
      <stop
         id="stop44697"
         style="stop-color:#d0e9ff;stop-opacity:1"
         offset="1" />
    </linearGradient>
    <radialGradient
       cx="479.68311"
       cy="709.6579"
       r="5.0058851"
       fx="479.68311"
       fy="709.6579"
       id="radialGradient44061"
       xlink:href="#linearGradient44605"
       gradientUnits="userSpaceOnUse"
       gradientTransform="matrix(0.79353219,-0.05906808,0.10765754,1.4462923,-394.43436,-10.259638)" />
    <linearGradient
       id="linearGradient44605">
      <stop
         id="stop44607"
         style="stop-color:#d0ecff;stop-opacity:1"
         offset="0" />
      <stop
         id="stop44609"
         style="stop-color:#d7f0ff;stop-opacity:1"
         offset="0.5" />
      <stop
         id="stop44611"
         style="stop-color:#ffffff;stop-opacity:1"
         offset="1" />
    </linearGradient>
    <linearGradient
       x1="-246.57739"
       y1="958.07971"
       x2="-248.7769"
       y2="964.61743"
       id="linearGradient44625"
       xlink:href="#linearGradient44615"
       gradientUnits="userSpaceOnUse"
       gradientTransform="matrix(-0.92690123,0,0,0.92690123,-147.53305,102.60792)" />
    <radialGradient
       cx="53.60223"
       cy="59.728882"
       r="17.834057"
       fx="53.60223"
       fy="59.728882"
       id="radialGradient44048"
       xlink:href="#linearGradient44627"
       gradientUnits="userSpaceOnUse"
       gradientTransform="matrix(0,2.2961363,-2.2730334,0,201.74668,831.00225)" />
    <linearGradient
       id="linearGradient44627">
      <stop
         id="stop44629"
         style="stop-color:#fffcfb;stop-opacity:1"
         offset="0" />
      <stop
         id="stop44633"
         style="stop-color:#f4ad94;stop-opacity:1"
         offset="1" />
    </linearGradient>
    <linearGradient
       x1="60.126968"
       y1="81.913818"
       x2="60.126968"
       y2="47.542713"
       id="linearGradient44677"
       xlink:href="#linearGradient44681"
       gradientUnits="userSpaceOnUse"
       gradientTransform="matrix(1.3866822,0,0,1.3866822,-9.2371007,876.65699)" />
    <linearGradient
       id="linearGradient44681">
      <stop
         id="stop44683"
         style="stop-color:#ff5c38;stop-opacity:1"
         offset="0" />
      <stop
         id="stop44685"
         style="stop-color:#fb7e65;stop-opacity:0.99607843"
         offset="0.30397323" />
      <stop
         id="stop44687"
         style="stop-color:#cd0000;stop-opacity:0.98039216"
         offset="1" />
    </linearGradient>
    <linearGradient
       inkscape:collect="always"
       xlink:href="#linearGradient3219"
       id="linearGradient5171"
       gradientUnits="userSpaceOnUse"
       gradientTransform="matrix(0.92690123,0,0,0.92690123,-421.47612,313.824)"
       x1="517.02167"
       y1="705.48438"
       x2="517.02167"
       y2="745.30084" />
    <linearGradient
       inkscape:collect="always"
       xlink:href="#linearGradient44699"
       id="linearGradient5173"
       gradientUnits="userSpaceOnUse"
       gradientTransform="matrix(0.92690123,0,0,0.92690123,32.712818,920.77688)"
       x1="83.28125"
       y1="123.09795"
       x2="83.28125"
       y2="66.310989" />
    <radialGradient
       inkscape:collect="always"
       xlink:href="#linearGradient44080"
       id="radialGradient5175"
       gradientUnits="userSpaceOnUse"
       gradientTransform="matrix(0,1.875847,-1.8149226,0,1291.2607,40.750567)"
       cx="491.52231"
       cy="670.92523"
       fx="491.52231"
       fy="670.92523"
       r="36.426601" />
    <linearGradient
       inkscape:collect="always"
       xlink:href="#linearGradient44090"
       id="linearGradient5177"
       gradientUnits="userSpaceOnUse"
       gradientTransform="matrix(0.92690123,0,0,0.92690123,-382.12054,330.40235)"
       x1="517.02167"
       y1="705.48438"
       x2="517.02167"
       y2="745.30084" />
    <linearGradient
       inkscape:collect="always"
       xlink:href="#linearGradient44090"
       id="linearGradient5179"
       gradientUnits="userSpaceOnUse"
       gradientTransform="matrix(-0.92690123,0,0,0.92690123,529.43693,330.40235)"
       x1="517.02167"
       y1="705.48438"
       x2="517.02167"
       y2="745.30084" />
    <linearGradient
       inkscape:collect="always"
       xlink:href="#linearGradient44615"
       id="linearGradient5181"
       gradientUnits="userSpaceOnUse"
       gradientTransform="matrix(0.92690123,0,0,0.92690123,294.53788,102.60792)"
       x1="-246.57739"
       y1="958.07971"
       x2="-248.7769"
       y2="964.61743" />
    <linearGradient
       inkscape:collect="always"
       xlink:href="#linearGradient44693"
       id="linearGradient5183"
       gradientUnits="userSpaceOnUse"
       gradientTransform="matrix(1.0923022,0,0,0.86351212,114.04292,924.64357)"
       x1="-35.566662"
       y1="76.562927"
       x2="-35.566662"
       y2="84.910484" />
    <radialGradient
       inkscape:collect="always"
       xlink:href="#linearGradient44605"
       id="radialGradient5185"
       gradientUnits="userSpaceOnUse"
       gradientTransform="matrix(0.79353219,-0.05906808,0.10765754,1.4462923,-394.43436,-10.259638)"
       cx="479.68311"
       cy="709.6579"
       fx="479.68311"
       fy="709.6579"
       r="5.0058851" />
    <linearGradient
       inkscape:collect="always"
       xlink:href="#linearGradient44615"
       id="linearGradient5187"
       gradientUnits="userSpaceOnUse"
       gradientTransform="matrix(-0.92690123,0,0,0.92690123,-147.53305,102.60792)"
       x1="-246.57739"
       y1="958.07971"
       x2="-248.7769"
       y2="964.61743" />
    <radialGradient
       inkscape:collect="always"
       xlink:href="#linearGradient44627"
       id="radialGradient5189"
       gradientUnits="userSpaceOnUse"
       gradientTransform="matrix(0,2.2961363,-2.2730334,0,201.74668,831.00225)"
       cx="53.60223"
       cy="59.728882"
       fx="53.60223"
       fy="59.728882"
       r="17.834057" />
    <linearGradient
       inkscape:collect="always"
       xlink:href="#linearGradient44681"
       id="linearGradient5191"
       gradientUnits="userSpaceOnUse"
       gradientTransform="matrix(1.3866822,0,0,1.3866822,-9.2371007,876.65699)"
       x1="60.126968"
       y1="81.913818"
       x2="60.126968"
       y2="47.542713" />
    <linearGradient
       inkscape:collect="always"
       xlink:href="#linearGradient3219"
       id="linearGradient5245"
       gradientUnits="userSpaceOnUse"
       gradientTransform="matrix(0.92690123,0,0,0.92690123,-421.47612,313.824)"
       x1="517.02167"
       y1="705.48438"
       x2="517.02167"
       y2="745.30084" />
    <linearGradient
       inkscape:collect="always"
       xlink:href="#linearGradient44699"
       id="linearGradient5247"
       gradientUnits="userSpaceOnUse"
       gradientTransform="matrix(0.92690123,0,0,0.92690123,32.712818,920.77688)"
       x1="83.28125"
       y1="123.09795"
       x2="83.28125"
       y2="66.310989" />
    <radialGradient
       inkscape:collect="always"
       xlink:href="#linearGradient44080"
       id="radialGradient5249"
       gradientUnits="userSpaceOnUse"
       gradientTransform="matrix(0,1.875847,-1.8149226,0,1291.2607,40.750567)"
       cx="491.52231"
       cy="670.92523"
       fx="491.52231"
       fy="670.92523"
       r="36.426601" />
    <linearGradient
       inkscape:collect="always"
       xlink:href="#linearGradient44090"
       id="linearGradient5251"
       gradientUnits="userSpaceOnUse"
       gradientTransform="matrix(0.92690123,0,0,0.92690123,-382.12054,330.40235)"
       x1="517.02167"
       y1="705.48438"
       x2="517.02167"
       y2="745.30084" />
    <linearGradient
       inkscape:collect="always"
       xlink:href="#linearGradient44090"
       id="linearGradient5253"
       gradientUnits="userSpaceOnUse"
       gradientTransform="matrix(-0.92690123,0,0,0.92690123,529.43693,330.40235)"
       x1="517.02167"
       y1="705.48438"
       x2="517.02167"
       y2="745.30084" />
    <linearGradient
       inkscape:collect="always"
       xlink:href="#linearGradient44615"
       id="linearGradient5255"
       gradientUnits="userSpaceOnUse"
       gradientTransform="matrix(0.92690123,0,0,0.92690123,294.53788,102.60792)"
       x1="-246.57739"
       y1="958.07971"
       x2="-248.7769"
       y2="964.61743" />
    <linearGradient
       inkscape:collect="always"
       xlink:href="#linearGradient44693"
       id="linearGradient5257"
       gradientUnits="userSpaceOnUse"
       gradientTransform="matrix(1.0923022,0,0,0.86351212,114.04292,924.64357)"
       x1="-35.566662"
       y1="76.562927"
       x2="-35.566662"
       y2="84.910484" />
    <radialGradient
       inkscape:collect="always"
       xlink:href="#linearGradient44605"
       id="radialGradient5259"
       gradientUnits="userSpaceOnUse"
       gradientTransform="matrix(0.79353219,-0.05906808,0.10765754,1.4462923,-394.43436,-10.259638)"
       cx="479.68311"
       cy="709.6579"
       fx="479.68311"
       fy="709.6579"
       r="5.0058851" />
    <linearGradient
       inkscape:collect="always"
       xlink:href="#linearGradient44615"
       id="linearGradient5261"
       gradientUnits="userSpaceOnUse"
       gradientTransform="matrix(-0.92690123,0,0,0.92690123,-147.53305,102.60792)"
       x1="-246.57739"
       y1="958.07971"
       x2="-248.7769"
       y2="964.61743" />
    <radialGradient
       inkscape:collect="always"
       xlink:href="#linearGradient44627"
       id="radialGradient5263"
       gradientUnits="userSpaceOnUse"
       gradientTransform="matrix(0,2.2961363,-2.2730334,0,201.74668,831.00225)"
       cx="53.60223"
       cy="59.728882"
       fx="53.60223"
       fy="59.728882"
       r="17.834057" />
    <linearGradient
       inkscape:collect="always"
       xlink:href="#linearGradient44681"
       id="linearGradient5265"
       gradientUnits="userSpaceOnUse"
       gradientTransform="matrix(1.3866822,0,0,1.3866822,-9.2371007,876.65699)"
       x1="60.126968"
       y1="81.913818"
       x2="60.126968"
       y2="47.542713" />
    <linearGradient
       inkscape:collect="always"
       xlink:href="#linearGradient3219"
       id="linearGradient5267"
       gradientUnits="userSpaceOnUse"
       gradientTransform="matrix(0.92690123,0,0,0.92690123,-421.47612,313.824)"
       x1="517.02167"
       y1="705.48438"
       x2="517.02167"
       y2="745.30084" />
    <linearGradient
       inkscape:collect="always"
       xlink:href="#linearGradient44699"
       id="linearGradient5269"
       gradientUnits="userSpaceOnUse"
       gradientTransform="matrix(0.92690123,0,0,0.92690123,32.712818,920.77688)"
       x1="83.28125"
       y1="123.09795"
       x2="83.28125"
       y2="66.310989" />
    <radialGradient
       inkscape:collect="always"
       xlink:href="#linearGradient44080"
       id="radialGradient5271"
       gradientUnits="userSpaceOnUse"
       gradientTransform="matrix(0,1.875847,-1.8149226,0,1291.2607,40.750567)"
       cx="491.52231"
       cy="670.92523"
       fx="491.52231"
       fy="670.92523"
       r="36.426601" />
    <linearGradient
       inkscape:collect="always"
       xlink:href="#linearGradient44090"
       id="linearGradient5273"
       gradientUnits="userSpaceOnUse"
       gradientTransform="matrix(0.92690123,0,0,0.92690123,-382.12054,330.40235)"
       x1="517.02167"
       y1="705.48438"
       x2="517.02167"
       y2="745.30084" />
    <linearGradient
       inkscape:collect="always"
       xlink:href="#linearGradient44090"
       id="linearGradient5275"
       gradientUnits="userSpaceOnUse"
       gradientTransform="matrix(-0.92690123,0,0,0.92690123,529.43693,330.40235)"
       x1="517.02167"
       y1="705.48438"
       x2="517.02167"
       y2="745.30084" />
    <linearGradient
       inkscape:collect="always"
       xlink:href="#linearGradient44615"
       id="linearGradient5277"
       gradientUnits="userSpaceOnUse"
       gradientTransform="matrix(0.92690123,0,0,0.92690123,294.53788,102.60792)"
       x1="-246.57739"
       y1="958.07971"
       x2="-248.7769"
       y2="964.61743" />
    <linearGradient
       inkscape:collect="always"
       xlink:href="#linearGradient44693"
       id="linearGradient5279"
       gradientUnits="userSpaceOnUse"
       gradientTransform="matrix(1.0923022,0,0,0.86351212,114.04292,924.64357)"
       x1="-35.566662"
       y1="76.562927"
       x2="-35.566662"
       y2="84.910484" />
    <radialGradient
       inkscape:collect="always"
       xlink:href="#linearGradient44605"
       id="radialGradient5281"
       gradientUnits="userSpaceOnUse"
       gradientTransform="matrix(0.79353219,-0.05906808,0.10765754,1.4462923,-394.43436,-10.259638)"
       cx="479.68311"
       cy="709.6579"
       fx="479.68311"
       fy="709.6579"
       r="5.0058851" />
    <linearGradient
       inkscape:collect="always"
       xlink:href="#linearGradient44615"
       id="linearGradient5283"
       gradientUnits="userSpaceOnUse"
       gradientTransform="matrix(-0.92690123,0,0,0.92690123,-147.53305,102.60792)"
       x1="-246.57739"
       y1="958.07971"
       x2="-248.7769"
       y2="964.61743" />
    <radialGradient
       inkscape:collect="always"
       xlink:href="#linearGradient44627"
       id="radialGradient5285"
       gradientUnits="userSpaceOnUse"
       gradientTransform="matrix(0,2.2961363,-2.2730334,0,201.74668,831.00225)"
       cx="53.60223"
       cy="59.728882"
       fx="53.60223"
       fy="59.728882"
       r="17.834057" />
    <linearGradient
       inkscape:collect="always"
       xlink:href="#linearGradient44681"
       id="linearGradient5287"
       gradientUnits="userSpaceOnUse"
       gradientTransform="matrix(1.3866822,0,0,1.3866822,-9.2371007,876.65699)"
       x1="60.126968"
       y1="81.913818"
       x2="60.126968"
       y2="47.542713" />
    <linearGradient
       inkscape:collect="always"
       xlink:href="#linearGradient5293"
       id="linearGradient5299"
       x1="171.13365"
       y1="1031.8231"
       x2="171.46634"
       y2="1038.0062"
       gradientUnits="userSpaceOnUse"
       gradientTransform="translate(-109.70181,-7.7222804)" />
    <linearGradient
       inkscape:collect="always"
       xlink:href="#linearGradient5293"
       id="linearGradient5303"
       gradientUnits="userSpaceOnUse"
       x1="171.13365"
       y1="1031.8231"
       x2="171.46634"
       y2="1038.0062"
       gradientTransform="matrix(-1,0,0,1,277.06103,-7.9631838)" />
    <linearGradient
       inkscape:collect="always"
       xlink:href="#linearGradient5305"
       id="linearGradient5311"
       x1="193.44794"
       y1="1036.5698"
       x2="193.26309"
       y2="1014.7637"
       gradientUnits="userSpaceOnUse"
       gradientTransform="translate(-109.70181,-7.7222804)" />
    <filter
       inkscape:collect="always"
       style="color-interpolation-filters:sRGB"
       id="filter5528"
       x="-0.017505419"
       width="1.0350108"
       y="-0.038156049"
       height="1.0763121">
      <feGaussianBlur
         inkscape:collect="always"
         stdDeviation="0.39951927"
         id="feGaussianBlur5530" />
    </filter>
  </defs>
  <sodipodi:namedview
     id="base"
     pagecolor="#ffffff"
     bordercolor="#666666"
     borderopacity="1.0"
     inkscape:pageopacity="0.0"
     inkscape:pageshadow="2"
     inkscape:zoom="2.2014223"
     inkscape:cx="187.66278"
     inkscape:cy="56.681056"
     inkscape:document-units="px"
     inkscape:current-layer="layer1"
     showgrid="false"
     units="px"
     inkscape:window-width="1920"
     inkscape:window-height="1051"
     inkscape:window-x="1366"
     inkscape:window-y="0"
     inkscape:window-maximized="1" />
  <metadata
     id="metadata7">
    <rdf:RDF>
      <cc:Work
         rdf:about="">
        <dc:format>image/svg+xml</dc:format>
        <dc:type
           rdf:resource="http://purl.org/dc/dcmitype/StillImage" />
        <dc:title></dc:title>
      </cc:Work>
    </rdf:RDF>
  </metadata>
  <g
     inkscape:label="Capa 1"
     inkscape:groupmode="layer"
     id="layer1"
     transform="translate(0,-924.36216)">
    <g
       id="g5532"
       transform="matrix(2.2350352,0,0,2.2350352,-122.69764,-1271.5265)">
      <path
         inkscape:connector-curvature="0"
         id="path5504"
         d="m 68.193566,1007.0498 -6.591797,16.5918 c -0.569945,-0.1619 -1.163767,-0.2262 -1.777344,-0.1367 l -2.167969,5.541 c -0.48269,1.8434 -0.369477,3.0488 2.007813,3.1328 l 7.107422,-0.041 c 0.06007,-0.3654 0.06804,-0.7589 0.04492,-1.1641 l 35.988279,0.031 c -0.004,0.3083 0.008,0.6094 0.0547,0.8926 l 7.10547,0.039 c 2.37729,-0.084 2.49051,-1.2874 2.00782,-3.1308 l -2.16797,-5.541 c -0.52775,-0.077 -1.04252,-0.048 -1.53907,0.064 l -6.17188,-16.2793 -33.900386,0 z"
         style="opacity:0.43900003;fill:#696969;fill-opacity:0.94117647;fill-rule:evenodd;stroke:none;stroke-width:0.5;stroke-linecap:round;stroke-linejoin:round;stroke-miterlimit:4;stroke-dasharray:none;stroke-opacity:1;filter:url(#filter5528)" />
      <g
         id="g5497">
        <path
           style="fill:url(#linearGradient5311);fill-opacity:1;fill-rule:evenodd;stroke:#1f1515;stroke-width:0.5;stroke-linecap:round;stroke-linejoin:round;stroke-miterlimit:4;stroke-dasharray:none;stroke-opacity:1"
           d="m 67.05891,1006.142 -9.50199,23.9148 52.48557,0.047 -9.08503,-23.9618 z"
           id="path5289"
           inkscape:connector-curvature="0"
           sodipodi:nodetypes="ccccc" />
        <path
           style="fill:url(#linearGradient5299);fill-opacity:1;fill-rule:evenodd;stroke:#00222f;stroke-width:0.5;stroke-linecap:round;stroke-linejoin:round;stroke-miterlimit:4;stroke-dasharray:none;stroke-opacity:1"
           d="m 56.52153,1028.138 2.16813,-5.5408 c 4.13678,-0.6033 7.51935,5.1448 6.94605,8.6324 l -7.10665,0.04 c -2.37729,-0.084 -2.49022,-1.2882 -2.00753,-3.1316 z"
           id="path5291"
           inkscape:connector-curvature="0"
           sodipodi:nodetypes="ccccc" />
        <path
           sodipodi:nodetypes="ccccc"
           inkscape:connector-curvature="0"
           id="path5301"
           d="m 110.83769,1027.8971 -2.16813,-5.5408 c -4.13678,-0.6033 -7.51935,5.1448 -6.94605,8.6324 l 7.10665,0.04 c 2.37729,-0.084 2.49022,-1.2882 2.00753,-3.1316 z"
           style="fill:url(#linearGradient5303);fill-opacity:1;fill-rule:evenodd;stroke:#00222f;stroke-width:0.5;stroke-linecap:round;stroke-linejoin:round;stroke-miterlimit:4;stroke-dasharray:none;stroke-opacity:1" />
      </g>
      <g
         transform="matrix(0.95492523,0,0,0.95492523,3.6954603,46.558727)"
         id="g5436">
        <g
           transform="matrix(0.2621165,0,0,0.2621165,75.795274,740.35919)"
           id="g5193">
          <path
             style="fill:#000000;fill-opacity:0;fill-rule:evenodd;stroke:url(#linearGradient5245);stroke-width:1.39035189;stroke-linecap:butt;stroke-linejoin:miter;stroke-miterlimit:4;stroke-dasharray:none;stroke-opacity:1"
             id="path5195"
             d="m 50.435985,968.09969 c 7.844958,8.39967 13.824991,22.33601 15.577048,35.82721"
             inkscape:connector-curvature="0" />
          <path
             style="fill:#000000;fill-opacity:0.50196078;stroke:none;stroke-width:1.33686185;stroke-linecap:square;stroke-linejoin:miter;stroke-miterlimit:4;stroke-dasharray:none;stroke-dashoffset:0;stroke-opacity:1;filter:url(#filter3297)"
             id="path5197"
             d="m -237.54657,906.14303 c -14.71669,0 -26.69498,11.97829 -26.69498,26.69498 0,14.71669 11.97829,26.69498 26.69498,26.69498 14.71668,0 26.69497,-11.97829 26.69497,-26.69498 0,-14.71669 -11.97829,-26.69498 -26.69497,-26.69498 z"
             inkscape:connector-curvature="0"
             transform="matrix(0.92690123,0,0,0.92690123,294.53788,102.60792)" />
          <path
             style="fill:#000000;fill-opacity:0.50196078;stroke:none;stroke-width:1.5;stroke-linecap:square;stroke-linejoin:miter;stroke-miterlimit:4;stroke-dashoffset:0;stroke-opacity:1;filter:url(#filter3293)"
             id="path5199"
             d="m -237.62978,943.41146 c -21.63445,0 -39.1875,17.34747 -39.1875,38.75 l 0,6.125 c 0,6.05287 6.27536,18.75004 28.90625,18.75004 l 20.53125,0 c 22.63038,0 28.9375,-12.07968 28.9375,-18.75004 l 0,-6.125 c 0,-21.40254 -17.55305,-38.75 -39.1875,-38.75 z"
             inkscape:connector-curvature="0"
             transform="matrix(0.92690123,0,0,0.92690123,294.53788,102.60792)" />
          <path
             style="fill:url(#linearGradient5247);fill-opacity:1;stroke:none;stroke-width:1.5;stroke-linecap:square;stroke-linejoin:miter;stroke-miterlimit:4;stroke-dashoffset:0;stroke-opacity:1"
             id="path5201"
             d="m 73.583369,975.89854 c -20.052999,0 -36.322942,16.07939 -36.322942,35.91746 l 0,5.6772 c 0,5.6104 5.816639,17.3795 26.793238,17.3795 l 19.030441,0 c 20.976124,0 26.822204,-11.1967 26.822204,-17.3795 l 0,-5.6772 c 0,-19.83808 -16.269943,-35.91746 -36.322941,-35.91746 z"
             inkscape:connector-curvature="0" />
          <path
             style="fill:url(#radialGradient5249);fill-opacity:1;stroke:none;stroke-width:1.5;stroke-linecap:square;stroke-linejoin:miter;stroke-miterlimit:4;stroke-dashoffset:0;stroke-opacity:1"
             id="path5203"
             d="m 73.583369,977.9013 c -18.640188,0 -33.763861,14.74459 -33.763861,32.9358 l 0,5.206 c 0,5.1446 5.406838,15.9366 24.905558,15.9366 l 17.689679,0 c 19.498285,0 24.932485,-10.2671 24.932485,-15.9366 l 0,-5.206 c 0,-18.19121 -15.123674,-32.9358 -33.763861,-32.9358 z"
             inkscape:connector-curvature="0" />
          <path
             style="fill:#000000;fill-opacity:0;fill-rule:evenodd;stroke:url(#linearGradient5251);stroke-width:1.39035189;stroke-linecap:butt;stroke-linejoin:miter;stroke-miterlimit:4;stroke-dasharray:none;stroke-opacity:1"
             id="path5205"
             d="m 89.791562,984.67804 c 7.844959,8.39967 13.824988,22.33606 15.577048,35.82716"
             inkscape:connector-curvature="0" />
          <path
             style="fill:#000000;fill-opacity:0;fill-rule:evenodd;stroke:url(#linearGradient5253);stroke-width:1.39035189;stroke-linecap:butt;stroke-linejoin:miter;stroke-miterlimit:4;stroke-dasharray:none;stroke-opacity:1"
             id="path5207"
             d="m 57.524823,984.67804 c -7.844958,8.39967 -13.824991,22.33606 -15.577047,35.82716"
             inkscape:connector-curvature="0" />
          <path
             style="fill:#c5ffbd;fill-opacity:1;fill-rule:evenodd;stroke:url(#linearGradient5255);stroke-width:0.92690122px;stroke-linecap:butt;stroke-linejoin:miter;stroke-opacity:1"
             id="path5209"
             d="m 67.38074,988.57231 c -2.134375,1.82987 -4.599497,3.27261 -3.449203,7.67725 -5.246938,-1.0628 -9.222399,-8.24025 -5.89702,-13.35175 l 9.346223,5.6745 z"
             inkscape:connector-curvature="0" />
          <path
             style="fill:url(#linearGradient5257);fill-opacity:1;stroke:none;stroke-width:0.85552669;stroke-linecap:square;stroke-linejoin:miter;stroke-miterlimit:4;stroke-dasharray:none;stroke-dashoffset:0;stroke-opacity:1"
             id="path5211"
             d="m 73.658194,997.9648 -5.909101,-8.0911 11.818202,0 -5.909101,8.0911 z"
             inkscape:connector-curvature="0" />
          <path
             style="fill:url(#radialGradient5259);fill-opacity:1;fill-rule:evenodd;stroke:none;stroke-width:1px;stroke-linecap:butt;stroke-linejoin:miter;stroke-opacity:1"
             id="path5213"
             d="m 58.239854,983.5491 8.342111,5.06899 c -0.915927,0.75526 -1.866427,1.52543 -2.548979,2.57794 -0.694508,1.07094 -0.911524,2.54116 -0.608279,4.37382 -2.195986,-0.67528 -4.165049,-2.45136 -5.242785,-4.69244 -1.115303,-2.3192 -1.24975,-5.00816 0.05793,-7.32831 z"
             inkscape:connector-curvature="0" />
          <path
             style="fill:#9dcfff;fill-opacity:1;fill-rule:evenodd;stroke:url(#linearGradient5261);stroke-width:0.92690122px;stroke-linecap:butt;stroke-linejoin:miter;stroke-opacity:1"
             id="path5215"
             d="m 79.624086,988.57231 c 2.134375,1.82987 4.599497,3.27261 3.449203,7.67725 5.246938,-1.0628 9.222399,-8.24025 5.89702,-13.35175 l -9.346223,5.6745 z"
             inkscape:connector-curvature="0" />
          <path
             style="fill:url(#radialGradient5263);fill-opacity:1;stroke:url(#linearGradient5265);stroke-width:1.85380256;stroke-linecap:square;stroke-linejoin:miter;stroke-miterlimit:4;stroke-dasharray:none;stroke-dashoffset:0;stroke-opacity:1"
             id="path5217"
             d="m 97.461468,966.09686 a 23.803269,23.803269 0 1 1 -47.606538,0 23.803269,23.803269 0 1 1 47.606538,0 z"
             inkscape:connector-curvature="0" />
        </g>
        <g
           id="g5219"
           transform="matrix(0.2621165,0,0,0.2621165,54.274574,740.35919)">
          <path
             inkscape:connector-curvature="0"
             d="m 50.435985,968.09969 c 7.844958,8.39967 13.824991,22.33601 15.577048,35.82721"
             id="path5221"
             style="fill:#000000;fill-opacity:0;fill-rule:evenodd;stroke:url(#linearGradient5267);stroke-width:1.39035189;stroke-linecap:butt;stroke-linejoin:miter;stroke-miterlimit:4;stroke-dasharray:none;stroke-opacity:1" />
          <path
             transform="matrix(0.92690123,0,0,0.92690123,294.53788,102.60792)"
             inkscape:connector-curvature="0"
             d="m -237.54657,906.14303 c -14.71669,0 -26.69498,11.97829 -26.69498,26.69498 0,14.71669 11.97829,26.69498 26.69498,26.69498 14.71668,0 26.69497,-11.97829 26.69497,-26.69498 0,-14.71669 -11.97829,-26.69498 -26.69497,-26.69498 z"
             id="path5223"
             style="fill:#000000;fill-opacity:0.50196078;stroke:none;stroke-width:1.33686185;stroke-linecap:square;stroke-linejoin:miter;stroke-miterlimit:4;stroke-dasharray:none;stroke-dashoffset:0;stroke-opacity:1;filter:url(#filter3297)" />
          <path
             transform="matrix(0.92690123,0,0,0.92690123,294.53788,102.60792)"
             inkscape:connector-curvature="0"
             d="m -237.62978,943.41146 c -21.63445,0 -39.1875,17.34747 -39.1875,38.75 l 0,6.125 c 0,6.05287 6.27536,18.75004 28.90625,18.75004 l 20.53125,0 c 22.63038,0 28.9375,-12.07968 28.9375,-18.75004 l 0,-6.125 c 0,-21.40254 -17.55305,-38.75 -39.1875,-38.75 z"
             id="path5225"
             style="fill:#000000;fill-opacity:0.50196078;stroke:none;stroke-width:1.5;stroke-linecap:square;stroke-linejoin:miter;stroke-miterlimit:4;stroke-dashoffset:0;stroke-opacity:1;filter:url(#filter3293)" />
          <path
             inkscape:connector-curvature="0"
             d="m 73.583369,975.89854 c -20.052999,0 -36.322942,16.07939 -36.322942,35.91746 l 0,5.6772 c 0,5.6104 5.816639,17.3795 26.793238,17.3795 l 19.030441,0 c 20.976124,0 26.822204,-11.1967 26.822204,-17.3795 l 0,-5.6772 c 0,-19.83808 -16.269943,-35.91746 -36.322941,-35.91746 z"
             id="path5227"
             style="fill:url(#linearGradient5269);fill-opacity:1;stroke:none;stroke-width:1.5;stroke-linecap:square;stroke-linejoin:miter;stroke-miterlimit:4;stroke-dashoffset:0;stroke-opacity:1" />
          <path
             inkscape:connector-curvature="0"
             d="m 73.583369,977.9013 c -18.640188,0 -33.763861,14.74459 -33.763861,32.9358 l 0,5.206 c 0,5.1446 5.406838,15.9366 24.905558,15.9366 l 17.689679,0 c 19.498285,0 24.932485,-10.2671 24.932485,-15.9366 l 0,-5.206 c 0,-18.19121 -15.123674,-32.9358 -33.763861,-32.9358 z"
             id="path5229"
             style="fill:url(#radialGradient5271);fill-opacity:1;stroke:none;stroke-width:1.5;stroke-linecap:square;stroke-linejoin:miter;stroke-miterlimit:4;stroke-dashoffset:0;stroke-opacity:1" />
          <path
             inkscape:connector-curvature="0"
             d="m 89.791562,984.67804 c 7.844959,8.39967 13.824988,22.33606 15.577048,35.82716"
             id="path5231"
             style="fill:#000000;fill-opacity:0;fill-rule:evenodd;stroke:url(#linearGradient5273);stroke-width:1.39035189;stroke-linecap:butt;stroke-linejoin:miter;stroke-miterlimit:4;stroke-dasharray:none;stroke-opacity:1" />
          <path
             inkscape:connector-curvature="0"
             d="m 57.524823,984.67804 c -7.844958,8.39967 -13.824991,22.33606 -15.577047,35.82716"
             id="path5233"
             style="fill:#000000;fill-opacity:0;fill-rule:evenodd;stroke:url(#linearGradient5275);stroke-width:1.39035189;stroke-linecap:butt;stroke-linejoin:miter;stroke-miterlimit:4;stroke-dasharray:none;stroke-opacity:1" />
          <path
             inkscape:connector-curvature="0"
             d="m 67.38074,988.57231 c -2.134375,1.82987 -4.599497,3.27261 -3.449203,7.67725 -5.246938,-1.0628 -9.222399,-8.24025 -5.89702,-13.35175 l 9.346223,5.6745 z"
             id="path5235"
             style="fill:#c5ffbd;fill-opacity:1;fill-rule:evenodd;stroke:url(#linearGradient5277);stroke-width:0.92690122px;stroke-linecap:butt;stroke-linejoin:miter;stroke-opacity:1" />
          <path
             inkscape:connector-curvature="0"
             d="m 73.658194,997.9648 -5.909101,-8.0911 11.818202,0 -5.909101,8.0911 z"
             id="path5237"
             style="fill:url(#linearGradient5279);fill-opacity:1;stroke:none;stroke-width:0.85552669;stroke-linecap:square;stroke-linejoin:miter;stroke-miterlimit:4;stroke-dasharray:none;stroke-dashoffset:0;stroke-opacity:1" />
          <path
             inkscape:connector-curvature="0"
             d="m 58.239854,983.5491 8.342111,5.06899 c -0.915927,0.75526 -1.866427,1.52543 -2.548979,2.57794 -0.694508,1.07094 -0.911524,2.54116 -0.608279,4.37382 -2.195986,-0.67528 -4.165049,-2.45136 -5.242785,-4.69244 -1.115303,-2.3192 -1.24975,-5.00816 0.05793,-7.32831 z"
             id="path5239"
             style="fill:url(#radialGradient5281);fill-opacity:1;fill-rule:evenodd;stroke:none;stroke-width:1px;stroke-linecap:butt;stroke-linejoin:miter;stroke-opacity:1" />
          <path
             inkscape:connector-curvature="0"
             d="m 79.624086,988.57231 c 2.134375,1.82987 4.599497,3.27261 3.449203,7.67725 5.246938,-1.0628 9.222399,-8.24025 5.89702,-13.35175 l -9.346223,5.6745 z"
             id="path5241"
             style="fill:#9dcfff;fill-opacity:1;fill-rule:evenodd;stroke:url(#linearGradient5283);stroke-width:0.92690122px;stroke-linecap:butt;stroke-linejoin:miter;stroke-opacity:1" />
          <path
             inkscape:connector-curvature="0"
             d="m 97.461468,966.09686 a 23.803269,23.803269 0 1 1 -47.606538,0 23.803269,23.803269 0 1 1 47.606538,0 z"
             id="path5243"
             style="fill:url(#radialGradient5285);fill-opacity:1;stroke:url(#linearGradient5287);stroke-width:1.85380256;stroke-linecap:square;stroke-linejoin:miter;stroke-miterlimit:4;stroke-dasharray:none;stroke-dashoffset:0;stroke-opacity:1" />
        </g>
        <g
           id="g5120"
           transform="matrix(0.2621165,0,0,0.2621165,75.795274,751.19984)">
          <path
             inkscape:connector-curvature="0"
             d="m 50.435985,968.09969 c 7.844958,8.39967 13.824991,22.33601 15.577048,35.82721"
             id="path3217"
             style="fill:#000000;fill-opacity:0;fill-rule:evenodd;stroke:url(#linearGradient44667);stroke-width:1.39035189;stroke-linecap:butt;stroke-linejoin:miter;stroke-miterlimit:4;stroke-dasharray:none;stroke-opacity:1" />
          <path
             transform="matrix(0.92690123,0,0,0.92690123,294.53788,102.60792)"
             inkscape:connector-curvature="0"
             d="m -237.54657,906.14303 c -14.71669,0 -26.69498,11.97829 -26.69498,26.69498 0,14.71669 11.97829,26.69498 26.69498,26.69498 14.71668,0 26.69497,-11.97829 26.69497,-26.69498 0,-14.71669 -11.97829,-26.69498 -26.69497,-26.69498 z"
             id="path44010"
             style="fill:#000000;fill-opacity:0.50196078;stroke:none;stroke-width:1.33686185;stroke-linecap:square;stroke-linejoin:miter;stroke-miterlimit:4;stroke-dasharray:none;stroke-dashoffset:0;stroke-opacity:1;filter:url(#filter3297)" />
          <path
             transform="matrix(0.92690123,0,0,0.92690123,294.53788,102.60792)"
             inkscape:connector-curvature="0"
             d="m -237.62978,943.41146 c -21.63445,0 -39.1875,17.34747 -39.1875,38.75 l 0,6.125 c 0,6.05287 6.27536,18.75004 28.90625,18.75004 l 20.53125,0 c 22.63038,0 28.9375,-12.07968 28.9375,-18.75004 l 0,-6.125 c 0,-21.40254 -17.55305,-38.75 -39.1875,-38.75 z"
             id="path44012"
             style="fill:#000000;fill-opacity:0.50196078;stroke:none;stroke-width:1.5;stroke-linecap:square;stroke-linejoin:miter;stroke-miterlimit:4;stroke-dashoffset:0;stroke-opacity:1;filter:url(#filter3293)" />
          <path
             inkscape:connector-curvature="0"
             d="m 73.583369,975.89854 c -20.052999,0 -36.322942,16.07939 -36.322942,35.91746 l 0,5.6772 c 0,5.6104 5.816639,17.3795 26.793238,17.3795 l 19.030441,0 c 20.976124,0 26.822204,-11.1967 26.822204,-17.3795 l 0,-5.6772 c 0,-19.83808 -16.269943,-35.91746 -36.322941,-35.91746 z"
             id="path44014"
             style="fill:url(#linearGradient44076);fill-opacity:1;stroke:none;stroke-width:1.5;stroke-linecap:square;stroke-linejoin:miter;stroke-miterlimit:4;stroke-dashoffset:0;stroke-opacity:1" />
          <path
             inkscape:connector-curvature="0"
             d="m 73.583369,977.9013 c -18.640188,0 -33.763861,14.74459 -33.763861,32.9358 l 0,5.206 c 0,5.1446 5.406838,15.9366 24.905558,15.9366 l 17.689679,0 c 19.498285,0 24.932485,-10.2671 24.932485,-15.9366 l 0,-5.206 c 0,-18.19121 -15.123674,-32.9358 -33.763861,-32.9358 z"
             id="path44016"
             style="fill:url(#radialGradient44073);fill-opacity:1;stroke:none;stroke-width:1.5;stroke-linecap:square;stroke-linejoin:miter;stroke-miterlimit:4;stroke-dashoffset:0;stroke-opacity:1" />
          <path
             inkscape:connector-curvature="0"
             d="m 89.791562,984.67804 c 7.844959,8.39967 13.824988,22.33606 15.577048,35.82716"
             id="path44018"
             style="fill:#000000;fill-opacity:0;fill-rule:evenodd;stroke:url(#linearGradient44070);stroke-width:1.39035189;stroke-linecap:butt;stroke-linejoin:miter;stroke-miterlimit:4;stroke-dasharray:none;stroke-opacity:1" />
          <path
             inkscape:connector-curvature="0"
             d="m 57.524823,984.67804 c -7.844958,8.39967 -13.824991,22.33606 -15.577047,35.82716"
             id="path44020"
             style="fill:#000000;fill-opacity:0;fill-rule:evenodd;stroke:url(#linearGradient44067);stroke-width:1.39035189;stroke-linecap:butt;stroke-linejoin:miter;stroke-miterlimit:4;stroke-dasharray:none;stroke-opacity:1" />
          <path
             inkscape:connector-curvature="0"
             d="m 67.38074,988.57231 c -2.134375,1.82987 -4.599497,3.27261 -3.449203,7.67725 -5.246938,-1.0628 -9.222399,-8.24025 -5.89702,-13.35175 l 9.346223,5.6745 z"
             id="path44022"
             style="fill:#c5ffbd;fill-opacity:1;fill-rule:evenodd;stroke:url(#linearGradient44613);stroke-width:0.92690122px;stroke-linecap:butt;stroke-linejoin:miter;stroke-opacity:1" />
          <path
             inkscape:connector-curvature="0"
             d="m 73.658194,997.9648 -5.909101,-8.0911 11.818202,0 -5.909101,8.0911 z"
             id="path44024"
             style="fill:url(#linearGradient44691);fill-opacity:1;stroke:none;stroke-width:0.85552669;stroke-linecap:square;stroke-linejoin:miter;stroke-miterlimit:4;stroke-dasharray:none;stroke-dashoffset:0;stroke-opacity:1" />
          <path
             inkscape:connector-curvature="0"
             d="m 58.239854,983.5491 8.342111,5.06899 c -0.915927,0.75526 -1.866427,1.52543 -2.548979,2.57794 -0.694508,1.07094 -0.911524,2.54116 -0.608279,4.37382 -2.195986,-0.67528 -4.165049,-2.45136 -5.242785,-4.69244 -1.115303,-2.3192 -1.24975,-5.00816 0.05793,-7.32831 z"
             id="path44028"
             style="fill:url(#radialGradient44061);fill-opacity:1;fill-rule:evenodd;stroke:none;stroke-width:1px;stroke-linecap:butt;stroke-linejoin:miter;stroke-opacity:1" />
          <path
             inkscape:connector-curvature="0"
             d="m 79.624086,988.57231 c 2.134375,1.82987 4.599497,3.27261 3.449203,7.67725 5.246938,-1.0628 9.222399,-8.24025 5.89702,-13.35175 l -9.346223,5.6745 z"
             id="path44621"
             style="fill:#9dcfff;fill-opacity:1;fill-rule:evenodd;stroke:url(#linearGradient44625);stroke-width:0.92690122px;stroke-linecap:butt;stroke-linejoin:miter;stroke-opacity:1" />
          <path
             inkscape:connector-curvature="0"
             d="m 97.461468,966.09686 a 23.803269,23.803269 0 1 1 -47.606538,0 23.803269,23.803269 0 1 1 47.606538,0 z"
             id="path44030"
             style="fill:url(#radialGradient44048);fill-opacity:1;stroke:url(#linearGradient44677);stroke-width:1.85380256;stroke-linecap:square;stroke-linejoin:miter;stroke-miterlimit:4;stroke-dasharray:none;stroke-dashoffset:0;stroke-opacity:1" />
        </g>
        <g
           transform="matrix(0.2621165,0,0,0.2621165,54.274574,751.19984)"
           id="g5145">
          <path
             style="fill:#000000;fill-opacity:0;fill-rule:evenodd;stroke:url(#linearGradient5171);stroke-width:1.39035189;stroke-linecap:butt;stroke-linejoin:miter;stroke-miterlimit:4;stroke-dasharray:none;stroke-opacity:1"
             id="path5147"
             d="m 50.435985,968.09969 c 7.844958,8.39967 13.824991,22.33601 15.577048,35.82721"
             inkscape:connector-curvature="0" />
          <path
             style="fill:#000000;fill-opacity:0.50196078;stroke:none;stroke-width:1.33686185;stroke-linecap:square;stroke-linejoin:miter;stroke-miterlimit:4;stroke-dasharray:none;stroke-dashoffset:0;stroke-opacity:1;filter:url(#filter3297)"
             id="path5149"
             d="m -237.54657,906.14303 c -14.71669,0 -26.69498,11.97829 -26.69498,26.69498 0,14.71669 11.97829,26.69498 26.69498,26.69498 14.71668,0 26.69497,-11.97829 26.69497,-26.69498 0,-14.71669 -11.97829,-26.69498 -26.69497,-26.69498 z"
             inkscape:connector-curvature="0"
             transform="matrix(0.92690123,0,0,0.92690123,294.53788,102.60792)" />
          <path
             style="fill:#000000;fill-opacity:0.50196078;stroke:none;stroke-width:1.5;stroke-linecap:square;stroke-linejoin:miter;stroke-miterlimit:4;stroke-dashoffset:0;stroke-opacity:1;filter:url(#filter3293)"
             id="path5151"
             d="m -237.62978,943.41146 c -21.63445,0 -39.1875,17.34747 -39.1875,38.75 l 0,6.125 c 0,6.05287 6.27536,18.75004 28.90625,18.75004 l 20.53125,0 c 22.63038,0 28.9375,-12.07968 28.9375,-18.75004 l 0,-6.125 c 0,-21.40254 -17.55305,-38.75 -39.1875,-38.75 z"
             inkscape:connector-curvature="0"
             transform="matrix(0.92690123,0,0,0.92690123,294.53788,102.60792)" />
          <path
             style="fill:url(#linearGradient5173);fill-opacity:1;stroke:none;stroke-width:1.5;stroke-linecap:square;stroke-linejoin:miter;stroke-miterlimit:4;stroke-dashoffset:0;stroke-opacity:1"
             id="path5153"
             d="m 73.583369,975.89854 c -20.052999,0 -36.322942,16.07939 -36.322942,35.91746 l 0,5.6772 c 0,5.6104 5.816639,17.3795 26.793238,17.3795 l 19.030441,0 c 20.976124,0 26.822204,-11.1967 26.822204,-17.3795 l 0,-5.6772 c 0,-19.83808 -16.269943,-35.91746 -36.322941,-35.91746 z"
             inkscape:connector-curvature="0" />
          <path
             style="fill:url(#radialGradient5175);fill-opacity:1;stroke:none;stroke-width:1.5;stroke-linecap:square;stroke-linejoin:miter;stroke-miterlimit:4;stroke-dashoffset:0;stroke-opacity:1"
             id="path5155"
             d="m 73.583369,977.9013 c -18.640188,0 -33.763861,14.74459 -33.763861,32.9358 l 0,5.206 c 0,5.1446 5.406838,15.9366 24.905558,15.9366 l 17.689679,0 c 19.498285,0 24.932485,-10.2671 24.932485,-15.9366 l 0,-5.206 c 0,-18.19121 -15.123674,-32.9358 -33.763861,-32.9358 z"
             inkscape:connector-curvature="0" />
          <path
             style="fill:#000000;fill-opacity:0;fill-rule:evenodd;stroke:url(#linearGradient5177);stroke-width:1.39035189;stroke-linecap:butt;stroke-linejoin:miter;stroke-miterlimit:4;stroke-dasharray:none;stroke-opacity:1"
             id="path5157"
             d="m 89.791562,984.67804 c 7.844959,8.39967 13.824988,22.33606 15.577048,35.82716"
             inkscape:connector-curvature="0" />
          <path
             style="fill:#000000;fill-opacity:0;fill-rule:evenodd;stroke:url(#linearGradient5179);stroke-width:1.39035189;stroke-linecap:butt;stroke-linejoin:miter;stroke-miterlimit:4;stroke-dasharray:none;stroke-opacity:1"
             id="path5159"
             d="m 57.524823,984.67804 c -7.844958,8.39967 -13.824991,22.33606 -15.577047,35.82716"
             inkscape:connector-curvature="0" />
          <path
             style="fill:#c5ffbd;fill-opacity:1;fill-rule:evenodd;stroke:url(#linearGradient5181);stroke-width:0.92690122px;stroke-linecap:butt;stroke-linejoin:miter;stroke-opacity:1"
             id="path5161"
             d="m 67.38074,988.57231 c -2.134375,1.82987 -4.599497,3.27261 -3.449203,7.67725 -5.246938,-1.0628 -9.222399,-8.24025 -5.89702,-13.35175 l 9.346223,5.6745 z"
             inkscape:connector-curvature="0" />
          <path
             style="fill:url(#linearGradient5183);fill-opacity:1;stroke:none;stroke-width:0.85552669;stroke-linecap:square;stroke-linejoin:miter;stroke-miterlimit:4;stroke-dasharray:none;stroke-dashoffset:0;stroke-opacity:1"
             id="path5163"
             d="m 73.658194,997.9648 -5.909101,-8.0911 11.818202,0 -5.909101,8.0911 z"
             inkscape:connector-curvature="0" />
          <path
             style="fill:url(#radialGradient5185);fill-opacity:1;fill-rule:evenodd;stroke:none;stroke-width:1px;stroke-linecap:butt;stroke-linejoin:miter;stroke-opacity:1"
             id="path5165"
             d="m 58.239854,983.5491 8.342111,5.06899 c -0.915927,0.75526 -1.866427,1.52543 -2.548979,2.57794 -0.694508,1.07094 -0.911524,2.54116 -0.608279,4.37382 -2.195986,-0.67528 -4.165049,-2.45136 -5.242785,-4.69244 -1.115303,-2.3192 -1.24975,-5.00816 0.05793,-7.32831 z"
             inkscape:connector-curvature="0" />
          <path
             style="fill:#9dcfff;fill-opacity:1;fill-rule:evenodd;stroke:url(#linearGradient5187);stroke-width:0.92690122px;stroke-linecap:butt;stroke-linejoin:miter;stroke-opacity:1"
             id="path5167"
             d="m 79.624086,988.57231 c 2.134375,1.82987 4.599497,3.27261 3.449203,7.67725 5.246938,-1.0628 9.222399,-8.24025 5.89702,-13.35175 l -9.346223,5.6745 z"
             inkscape:connector-curvature="0" />
          <path
             style="fill:url(#radialGradient5189);fill-opacity:1;stroke:url(#linearGradient5191);stroke-width:1.85380256;stroke-linecap:square;stroke-linejoin:miter;stroke-miterlimit:4;stroke-dasharray:none;stroke-dashoffset:0;stroke-opacity:1"
             id="path5169"
             d="m 97.461468,966.09686 a 23.803269,23.803269 0 1 1 -47.606538,0 23.803269,23.803269 0 1 1 47.606538,0 z"
             inkscape:connector-curvature="0" />
        </g>
      </g>
    </g>
  </g>
</svg>
