<?xml version="1.0" encoding="UTF-8" standalone="no"?>
<svg
   xmlns:dc="http://purl.org/dc/elements/1.1/"
   xmlns:cc="http://creativecommons.org/ns#"
   xmlns:rdf="http://www.w3.org/1999/02/22-rdf-syntax-ns#"
   xmlns:svg="http://www.w3.org/2000/svg"
   xmlns="http://www.w3.org/2000/svg"
   xmlns:xlink="http://www.w3.org/1999/xlink"
   xmlns:sodipodi="http://sodipodi.sourceforge.net/DTD/sodipodi-0.dtd"
   xmlns:inkscape="http://www.inkscape.org/namespaces/inkscape"
   version="1.1"
   x="0"
   y="0"
   width="944"
   height="704"
   viewBox="0, 0, 944, 704"
   id="svg2"
   inkscape:version="0.48.2 r9819"
   sodipodi:docname="cloud doc 2.svg">
  <metadata
     id="metadata95">
    <rdf:RDF>
      <cc:Work
         rdf:about="">
        <dc:format>image/svg+xml</dc:format>
        <dc:type
           rdf:resource="http://purl.org/dc/dcmitype/StillImage" />
        <dc:title></dc:title>
      </cc:Work>
    </rdf:RDF>
  </metadata>
  <sodipodi:namedview
     pagecolor="#ffffff"
     bordercolor="#666666"
     borderopacity="1"
     objecttolerance="10"
     gridtolerance="10"
     guidetolerance="10"
     inkscape:pageopacity="0"
     inkscape:pageshadow="2"
     inkscape:window-width="1072"
     inkscape:window-height="789"
     id="namedview93"
     showgrid="false"
     inkscape:zoom="0.33522727"
     inkscape:cx="472"
     inkscape:cy="352"
     inkscape:window-x="0"
     inkscape:window-y="0"
     inkscape:window-maximized="0"
     inkscape:current-layer="svg2" />
  <defs
     id="defs4">
    <linearGradient
       id="Gradient_1"
       gradientUnits="userSpaceOnUse"
       x1="-665.55"
       y1="215.361"
       x2="-665.327"
       y2="215.361"
       gradientTransform="matrix(-1, 0, 0, 1, 0, 0)">
      <stop
         offset="0"
         stop-color="#4B4B4B"
         id="stop7" />
      <stop
         offset="0.071"
         stop-color="#9A9A9A"
         id="stop9" />
      <stop
         offset="0.142"
         stop-color="#C4C4C4"
         id="stop11" />
      <stop
         offset="0.203"
         stop-color="#CFCFCF"
         id="stop13" />
      <stop
         offset="0.797"
         stop-color="#D2D2D2"
         id="stop15" />
      <stop
         offset="0.921"
         stop-color="#ECECEC"
         id="stop17" />
      <stop
         offset="1"
         stop-color="#717171"
         id="stop19" />
    </linearGradient>
    <radialGradient
       id="Gradient_2"
       gradientUnits="userSpaceOnUse"
       cx="626.93"
       cy="364.214"
       r="127.059">
      <stop
         offset="0.37"
         stop-color="#FFFFFF"
         id="stop22" />
      <stop
         offset="1"
         stop-color="#5FD8FF"
         id="stop24" />
    </radialGradient>
    <radialGradient
       id="Gradient_3"
       gradientUnits="userSpaceOnUse"
       cx="544.674"
       cy="384.258"
       r="44.804">
      <stop
         offset="0"
         stop-color="#FFF8B8"
         id="stop27" />
      <stop
         offset="1"
         stop-color="#FFBB17"
         id="stop29" />
    </radialGradient>
    <radialGradient
       inkscape:collect="always"
       xlink:href="#Gradient_3"
       id="radialGradient3087"
       gradientUnits="userSpaceOnUse"
       cx="544.674"
       cy="384.258"
       r="44.804" />
  </defs>
  <rect
     style="fill:none;stroke:none"
     id="rect3097"
     width="331.11865"
     height="322.16949"
     x="462.37289"
     y="164.06779"
     rx="11.731488"
     ry="4.6153998"
     inkscape:export-filename="/Users/mjrm/Documents/Cumulo/Aula_Cesga/img/cloudoc32_.png"
     inkscape:export-xdpi="8.939395"
     inkscape:export-ydpi="8.939395" />
  <g
     id="Layer_1">
    <g
       id="g32">
      <path
         d="M689.982,308.945 C684.185,296.697 671.468,284.167 656.066,281.263 C627.566,275.89 624.479,300.015 617.534,300.769 C576.861,305.188 524.103,271.931 502.795,325.282 C489.466,358.653 525.971,354.331 526.906,360.684 C529.27,376.754 505.882,386.218 534.776,400.914 C573.061,420.387 609.342,383.499 619.391,386.151 C639.909,391.565 662.139,428.312 711.113,406.965 C720.283,402.968 724.465,395.901 725.571,387.359 C725.675,386.556 725.477,371.874 725.706,371.815 C739.141,368.394 754.582,373.971 766.169,363.311 C808.35,324.505 727.862,293.636 691.884,307.992"
         fill="#909090"
         id="path34" />
      <path
         d="M689.982,308.945 C684.185,296.697 671.468,284.167 656.066,281.263 C627.566,275.89 624.479,300.015 617.534,300.769 C576.861,305.188 524.103,271.931 502.795,325.282 C489.466,358.653 525.971,354.331 526.906,360.684 C529.27,376.754 505.882,386.218 534.776,400.914 C573.061,420.387 609.342,383.499 619.391,386.151 C639.909,391.565 662.139,428.312 711.113,406.965 C720.283,402.968 724.465,395.901 725.571,387.359 C725.675,386.556 725.477,371.874 725.706,371.815 C739.141,368.394 754.582,373.971 766.169,363.311 C808.35,324.505 727.862,293.636 691.884,307.992"
         fill-opacity="0"
         stroke="#969696"
         stroke-width="7"
         stroke-linecap="round"
         stroke-linejoin="round"
         id="path36" />
    </g>
  </g>
  <g
     id="Layer_2">
    <g
       id="g39">
      <g
         id="g41">
        <path
           d="M674.493,205.11 C676.078,206.873 675.369,206.088 676.618,207.468 C676.802,207.671 676.802,207.671 676.986,207.874 C680.317,211.547 681.851,213.322 683.46,215.45 C687.709,221.02 691.896,226.652 696.278,232.095 L696.278,392.133 L561.688,392.133 L561.688,205.11 L674.493,205.11 z"
           fill="#FFFFFF"
           id="path43" />
        <path
           d="M674.493,205.11 C676.078,206.873 675.369,206.088 676.618,207.468 C676.802,207.671 676.802,207.671 676.986,207.874 C680.317,211.547 681.851,213.322 683.46,215.45 C687.709,221.02 691.896,226.652 696.278,232.095 L696.278,392.133 L561.688,392.133 L561.688,205.11 L674.493,205.11 z"
           fill-opacity="0"
           stroke="#808080"
           stroke-width="8"
           id="path45" />
      </g>
      <path
         d="M670.434,203.31 L670.888,235.552"
         fill-opacity="0"
         stroke="#808080"
         stroke-width="8"
         id="path47" />
      <path
         d="M696.278,232.095 L668.207,231.481"
         fill-opacity="0"
         stroke="#808080"
         stroke-width="8"
         id="path49" />
      <path
         d="M561.688,200.446 L561.688,388.177"
         fill-opacity="0"
         stroke="#CCCCCC"
         stroke-width="8"
         id="path51" />
      <path
         d="M561.688,205.246 L666.657,204.934"
         fill-opacity="0"
         stroke="#CCCCCC"
         stroke-width="8"
         id="path53" />
      <g
         id="g55">
        <path
           d="M665.328,208.918 L665.55,235.61"
           fill="url(#Gradient_1)"
           id="path57" />
        <path
           d="M665.328,208.918 L665.55,235.61"
           fill-opacity="0"
           stroke="#D5D5D5"
           stroke-width="2.5"
           id="path59" />
      </g>
      <path
         d="M664.083,236.537 L692.35,237.218"
         fill-opacity="0"
         stroke="#DADADA"
         stroke-width="2.5"
         id="path61" />
    </g>
  </g>
  <g
     id="Layer_3">
    <g
       id="g64">
      <g
         id="g66">
        <path
           d="M679.342,328.587 C673.613,316.056 661.557,303.515 647.394,301.115 C621.186,296.676 619.229,321.947 612.916,323.016 C575.945,329.278 526.599,296.764 509.051,353.239 C498.075,388.565 531.244,382.574 532.324,389.157 C535.055,405.811 514.044,416.627 540.943,430.768 C576.587,449.506 608.389,409.579 617.657,411.934 C636.58,416.741 658.184,454.137 702.128,429.892 C710.356,425.352 713.922,417.816 714.626,408.867 C714.692,408.026 713.988,392.731 714.195,392.661 C726.337,388.547 740.631,393.731 750.828,382.148 C787.948,339.983 713.374,311.087 681.044,327.516"
           fill="#909090"
           id="path68" />
        <path
           d="M679.342,328.587 C673.613,316.056 661.557,303.515 647.394,301.115 C621.186,296.676 619.229,321.947 612.916,323.016 C575.945,329.278 526.599,296.764 509.051,353.239 C498.075,388.565 531.244,382.574 532.324,389.157 C535.055,405.811 514.044,416.627 540.943,430.768 C576.587,449.506 608.389,409.579 617.657,411.934 C636.58,416.741 658.184,454.137 702.128,429.892 C710.356,425.352 713.922,417.816 714.626,408.867 C714.692,408.026 713.988,392.731 714.195,392.661 C726.337,388.547 740.631,393.731 750.828,382.148 C787.948,339.983 713.374,311.087 681.044,327.516"
           fill-opacity="0"
           stroke="#969696"
           stroke-width="7"
           stroke-linecap="round"
           stroke-linejoin="round"
           id="path70" />
      </g>
      <g
         id="g72">
        <path
           d="M672.385,323.504 C666.656,310.974 654.6,298.432 640.437,296.033 C614.229,291.594 612.272,316.864 605.959,317.934 C568.988,324.196 519.642,291.682 502.094,348.157 C491.118,383.483 524.287,377.491 525.367,384.074 C528.098,400.728 507.087,411.545 533.986,425.686 C569.63,444.423 601.432,404.496 610.7,406.851 C629.623,411.659 651.227,449.055 695.171,424.81 C703.399,420.27 706.964,412.734 707.669,403.785 C707.735,402.943 707.031,387.648 707.238,387.578 C719.38,383.465 733.674,388.649 743.871,377.066 C780.991,334.901 706.417,306.004 674.087,322.433"
           fill="url(#Gradient_2)"
           id="path74" />
        <path
           d="M672.385,323.504 C666.656,310.974 654.6,298.432 640.437,296.033 C614.229,291.594 612.272,316.864 605.959,317.934 C568.988,324.196 519.642,291.682 502.094,348.157 C491.118,383.483 524.287,377.491 525.367,384.074 C528.098,400.728 507.087,411.545 533.986,425.686 C569.63,444.423 601.432,404.496 610.7,406.851 C629.623,411.659 651.227,449.055 695.171,424.81 C703.399,420.27 706.964,412.734 707.669,403.785 C707.735,402.943 707.031,387.648 707.238,387.578 C719.38,383.465 733.674,388.649 743.871,377.066 C780.991,334.901 706.417,306.004 674.087,322.433"
           fill-opacity="0"
           stroke="#88DDFF"
           stroke-width="7"
           stroke-linecap="round"
           stroke-linejoin="round"
           id="path76" />
      </g>
    </g>
  </g>
  <g
     id="g3089"
     transform="translate(184.94915,-26.847457)">
    <g
       transform="matrix(1.5725645,0,0,1.4908239,-494.30188,-145.67182)"
       id="g81">
      <path
         style="fill:#808080"
         inkscape:connector-curvature="0"
         id="path83"
         d="m 515.431,365.332 c -2.832,-2.723 -2.832,-7.164 0,-9.887 2.792,-2.761 7.347,-2.761 10.139,0 l 14.337,13.961 0,-19.773 c 0,-3.824 3.208,-6.99 7.209,-6.99 3.94,0 7.188,3.166 7.188,6.99 l 0,19.773 14.317,-13.961 c 2.812,-2.761 7.347,-2.761 10.159,0 2.832,2.723 2.832,7.164 0,9.887 l -14.297,13.96 20.258,0.039 c 3.941,0 7.149,3.128 7.149,7.01 0,3.842 -3.208,7.009 -7.149,7.009 l -20.258,0 14.297,13.961 c 2.832,2.761 2.832,7.164 0,9.945 -2.812,2.703 -7.347,2.703 -10.159,0 l -14.277,-13.981 -0.04,19.716 c 0,3.9 -3.248,7.009 -7.188,7.009 -4.001,0 -7.209,-3.109 -7.209,-7.009 l 0,-19.754 -14.337,14.019 c -2.792,2.703 -7.347,2.703 -10.139,0 -2.832,-2.781 -2.832,-7.184 0,-9.945 l 14.317,-13.961 -20.278,0 c -3.94,0 -7.188,-3.167 -7.188,-7.009 0,-3.882 3.248,-7.01 7.188,-7.01 l 20.278,0 -14.317,-13.999 z" />
      <path
         style="fill-opacity:0;stroke:#808080;stroke-width:1"
         inkscape:connector-curvature="0"
         id="path85"
         d="m 515.431,365.332 c -2.832,-2.723 -2.832,-7.164 0,-9.887 2.792,-2.761 7.347,-2.761 10.139,0 l 14.337,13.961 0,-19.773 c 0,-3.824 3.208,-6.99 7.209,-6.99 3.94,0 7.188,3.166 7.188,6.99 l 0,19.773 14.317,-13.961 c 2.812,-2.761 7.347,-2.761 10.159,0 2.832,2.723 2.832,7.164 0,9.887 l -14.297,13.96 20.258,0.039 c 3.941,0 7.149,3.128 7.149,7.01 0,3.842 -3.208,7.009 -7.149,7.009 l -20.258,0 14.297,13.961 c 2.832,2.761 2.832,7.164 0,9.945 -2.812,2.703 -7.347,2.703 -10.159,0 l -14.277,-13.981 -0.04,19.716 c 0,3.9 -3.248,7.009 -7.188,7.009 -4.001,0 -7.209,-3.109 -7.209,-7.009 l 0,-19.754 -14.337,14.019 c -2.792,2.703 -7.347,2.703 -10.139,0 -2.832,-2.781 -2.832,-7.184 0,-9.945 l 14.317,-13.961 -20.278,0 c -3.94,0 -7.188,-3.167 -7.188,-7.009 0,-3.882 3.248,-7.01 7.188,-7.01 l 20.278,0 -14.317,-13.999 z" />
    </g>
    <g
       style="stroke:#ff6600"
       transform="matrix(1.5725645,0,0,1.4908239,-494.30188,-145.67182)"
       id="g87">
      <path
         inkscape:connector-curvature="0"
         style="fill:url(#radialGradient3087);stroke:#ff6600"
         id="path89"
         d="m 513.02,363.269 c -2.832,-2.723 -2.832,-7.164 0,-9.887 2.792,-2.761 7.346,-2.761 10.139,0 l 14.337,13.961 0,-19.773 c 0,-3.824 3.208,-6.99 7.208,-6.99 3.941,0 7.188,3.166 7.188,6.99 l 0,19.773 14.318,-13.961 c 2.812,-2.761 7.347,-2.761 10.159,0 2.831,2.723 2.831,7.164 0,9.887 l -14.298,13.96 20.258,0.039 c 3.941,0 7.149,3.128 7.149,7.01 0,3.842 -3.208,7.009 -7.149,7.009 l -20.258,0 14.298,13.961 c 2.831,2.761 2.831,7.164 0,9.945 -2.812,2.703 -7.347,2.703 -10.159,0 l -14.278,-13.981 -0.04,19.716 c 0,3.9 -3.247,7.009 -7.188,7.009 -4,0 -7.208,-3.109 -7.208,-7.009 l 0,-19.754 -14.337,14.019 c -2.793,2.703 -7.347,2.703 -10.139,0 -2.832,-2.781 -2.832,-7.184 0,-9.945 l 14.317,-13.961 -20.278,0 c -3.941,0 -7.188,-3.167 -7.188,-7.009 0,-3.882 3.247,-7.01 7.188,-7.01 l 20.278,0 -14.317,-13.999 z" />
      <path
         style="fill-opacity:0;stroke:#ff6600;stroke-width:2.5"
         inkscape:connector-curvature="0"
         id="path91"
         d="m 513.02,363.269 c -2.832,-2.723 -2.832,-7.164 0,-9.887 2.792,-2.761 7.346,-2.761 10.139,0 l 14.337,13.961 0,-19.773 c 0,-3.824 3.208,-6.99 7.208,-6.99 3.941,0 7.188,3.166 7.188,6.99 l 0,19.773 14.318,-13.961 c 2.812,-2.761 7.347,-2.761 10.159,0 2.831,2.723 2.831,7.164 0,9.887 l -14.298,13.96 20.258,0.039 c 3.941,0 7.149,3.128 7.149,7.01 0,3.842 -3.208,7.009 -7.149,7.009 l -20.258,0 14.298,13.961 c 2.831,2.761 2.831,7.164 0,9.945 -2.812,2.703 -7.347,2.703 -10.159,0 l -14.278,-13.981 -0.04,19.716 c 0,3.9 -3.247,7.009 -7.188,7.009 -4,0 -7.208,-3.109 -7.208,-7.009 l 0,-19.754 -14.337,14.019 c -2.793,2.703 -7.347,2.703 -10.139,0 -2.832,-2.781 -2.832,-7.184 0,-9.945 l 14.317,-13.961 -20.278,0 c -3.941,0 -7.188,-3.167 -7.188,-7.009 0,-3.882 3.247,-7.01 7.188,-7.01 l 20.278,0 -14.317,-13.999 z" />
    </g>
  </g>
</svg>
