<?xml version="1.0" encoding="UTF-8" standalone="no"?>
<!-- Created with Inkscape (http://www.inkscape.org/) -->

<svg
   xmlns:dc="http://purl.org/dc/elements/1.1/"
   xmlns:cc="http://creativecommons.org/ns#"
   xmlns:rdf="http://www.w3.org/1999/02/22-rdf-syntax-ns#"
   xmlns:svg="http://www.w3.org/2000/svg"
   xmlns="http://www.w3.org/2000/svg"
   xmlns:sodipodi="http://sodipodi.sourceforge.net/DTD/sodipodi-0.dtd"
   xmlns:inkscape="http://www.inkscape.org/namespaces/inkscape"
   version="1.1"
   width="128"
   height="128"
   viewBox="0 0 546.13333 546.13333"
   id="svg1"
   xml:space="preserve"
   inkscape:version="0.91 r13725"
   sodipodi:docname="course_progress.svg"><metadata
     id="metadata189"><rdf:RDF><cc:Work
         rdf:about=""><dc:format>image/svg+xml</dc:format><dc:type
           rdf:resource="http://purl.org/dc/dcmitype/StillImage" /><dc:title></dc:title></cc:Work></rdf:RDF></metadata><defs
     id="defs187" /><sodipodi:namedview
     pagecolor="#ffffff"
     bordercolor="#666666"
     borderopacity="1"
     objecttolerance="10"
     gridtolerance="10"
     guidetolerance="10"
     inkscape:pageopacity="0"
     inkscape:pageshadow="2"
     inkscape:window-width="1855"
     inkscape:window-height="1056"
     id="namedview185"
     showgrid="false"
     inkscape:zoom="3.0858543"
     inkscape:cx="-9.2537268"
     inkscape:cy="29.154732"
     inkscape:window-x="65"
     inkscape:window-y="24"
     inkscape:window-maximized="1"
     inkscape:current-layer="svg1" /><g
     id="g4498"
     transform="matrix(2.490673,0,0,2.490673,-45.739495,-45.739495)"><g
       id="g116"><linearGradient
         x1="-243.36572"
         y1="117.81152"
         x2="-44.489182"
         y2="117.81152"
         id="XMLID_14_"
         gradientUnits="userSpaceOnUse"><stop
           id="stop120"
           style="stop-color:#930000;stop-opacity:1"
           offset="0" /><stop
           id="stop122"
           style="stop-color:#7c0000;stop-opacity:1"
           offset="1" /><midPointStop
           id="midPointStop124"
           style="stop-color:#930000"
           offset="0" /><midPointStop
           id="midPointStop126"
           style="stop-color:#930000"
           offset="0.5" /><midPointStop
           id="midPointStop128"
           style="stop-color:#7C0000"
           offset="1" /></linearGradient><path
         d="m 36.796875,54.335938 9.77e-4,-0.0127 -11.927735,121.323242 c -0.819336,8.58008 0.209961,13.69043 3.434571,17.09375 4.500976,4.74903 11.84082,4.74805 22.952148,4.74805 l 0.131836,0 71.185548,-4.69433 0.75,-0.39942 c 3.07226,-1.63867 4.51172,-1.33984 7.66308,-0.68457 l 4.32911,0.75293 72.07519,6.98633 5.22168,0.21094 c 8.2832,0.36523 12.84668,0.5664 15.99805,-2.55762 3.30078,-3.26758 3.0664,-8.42481 2.32422,-18.01465 L 221.22266,57.432617 c -0.44532,-5.730468 -0.71485,-9.192383 -2.84278,-11.583984 -2.33691,-2.623047 -5.54883,-2.714844 -10.41211,-2.853516 L 203.95117,42.850586 61.717774,35.959961 C 41.899414,34.602539 38.130859,40.265625 36.796875,54.335938 Z"
         id="path131"
         style="fill:#000065;fill-opacity:1"
         inkscape:connector-curvature="0" /><linearGradient
         x1="-252.77881"
         y1="432.85742"
         x2="-53.903809"
         y2="432.85742"
         id="path22_1_"
         gradientUnits="userSpaceOnUse"
         gradientTransform="matrix(0.9997,-0.0243,0.0243,0.9997,269.165,-318.378)"><stop
           id="stop135"
           style="stop-color:#990000;stop-opacity:1"
           offset="0" /><stop
           id="stop137"
           style="stop-color:#cf0000;stop-opacity:1"
           offset="1" /><midPointStop
           id="midPointStop139"
           style="stop-color:#990000"
           offset="0" /><midPointStop
           id="midPointStop141"
           style="stop-color:#990000"
           offset="0.5" /><midPointStop
           id="midPointStop143"
           style="stop-color:#CF0000"
           offset="1" /></linearGradient><path
         d="M 61.523438,39.666992 C 43.707031,38.448242 41.78125,42.592773 40.636719,54.672852 L 28.708984,175.99609 c -1.696289,17.76856 5.0625,17.78028 22.546875,17.77832 l 70.200191,-4.62695 c 5.84083,-3.11426 8.47364,-1.06933 14.33497,-0.36816 l 71.875,6.96582 c 19.6748,0.6582 20.90234,2.71093 19.42578,-16.38184 L 217.37891,57.717773 C 216.42285,45.423828 216.18164,47.160156 203.75684,46.557617 L 61.523438,39.666992 Z"
         id="path22"
         style="fill:#2020b9;fill-opacity:1"
         inkscape:connector-curvature="0" /><linearGradient
         x1="127.51514"
         y1="258.85254"
         x2="127.51513"
         y2="35.526123"
         id="path43_1_"
         gradientUnits="userSpaceOnUse"><stop
           id="stop150"
           style="stop-color:#cf0000;stop-opacity:1"
           offset="0" /><stop
           id="stop152"
           style="stop-color:#ff0000;stop-opacity:1"
           offset="1" /><midPointStop
           id="midPointStop154"
           style="stop-color:#CF0000"
           offset="0" /><midPointStop
           id="midPointStop156"
           style="stop-color:#CF0000"
           offset="0.5" /><midPointStop
           id="midPointStop158"
           style="stop-color:#FF0000"
           offset="1" /></linearGradient><path
         d="M 60.080078,42.124023 C 43.335938,40.569336 43.849609,43.308594 42.779297,55.075195 L 31.477539,174.89844 c -1.633789,17.7959 -0.0068,15.96191 17.482422,15.96484 l 70.197269,-4.63476 c 5.41601,-2.67481 10.18457,-2.7959 14.33105,-0.36329 l 70.75488,7.05469 c 19.67774,0.67578 20.72364,2.70899 19.4209,-16.39453 L 215.1377,55.530273 C 214.30176,43.227539 213.96191,44.56543 201.52539,44.365234 L 60.080078,42.124023 Z"
         id="path43"
         style="fill:#6161d0;fill-opacity:1"
         inkscape:connector-curvature="0" /><linearGradient
         x1="-52.44873"
         y1="186.85156"
         x2="231.93796"
         y2="186.85156"
         id="XMLID_1_"
         gradientUnits="userSpaceOnUse"><stop
           id="stop165"
           style="stop-color:#ff0000;stop-opacity:1"
           offset="0" /><stop
           id="stop167"
           style="stop-color:#ffffff;stop-opacity:1"
           offset="1" /><midPointStop
           id="midPointStop169"
           style="stop-color:#FF0000"
           offset="0" /><midPointStop
           id="midPointStop171"
           style="stop-color:#FF0000"
           offset="0.5" /><midPointStop
           id="midPointStop173"
           style="stop-color:#FFFFFF"
           offset="1" /></linearGradient><path
         d="m 204.24316,189.75879 -70.75488,-7.32715 c -4.14648,-2.52539 -8.91504,-2.40137 -14.33105,0.37793 l -70.197269,4.8125 c -13.550781,-0.002 -17.576172,1.13477 -17.943359,-6.94824 -0.37793,11.22461 2.958984,9.83887 17.943359,9.84082 l 70.197269,-4.8125 c 5.41601,-2.7793 10.18457,-2.90527 14.33105,-0.37793 l 70.75488,7.32715 c 17.01661,0.60742 20.09766,2.25683 19.77735,-10.13575 -0.3125,9.22364 -4.22168,7.79883 -19.77735,7.24317 z"
         id="path176"
         style="fill:#000080"
         inkscape:connector-curvature="0" /><path
         d="m 60.969727,33.469727 -0.865235,0.204101 -0.407226,0.791992 c -0.884766,1.722657 -3.725586,4.303711 -4.592774,4.539063 l -1.46289,0.254883 -0.168946,1.484375 -11.77832,137.434569 84.204104,-0.25683 87.01269,1.99804 -7.79394,-137.035154 c -0.18262,-3.136719 -3.09571,-3.422852 -4.83496,-3.594727 -1.74121,-0.170898 -3.54102,-0.348633 -4.97754,-1.904297 l -0.44141,-0.478516 -11.8457,-2.080078 C 164.10449,31.359375 140.72559,27.09375 128.06055,34.481445 114.18848,25.121094 73.791992,30.450195 60.969727,33.469727 Z"
         id="path178"
         style="fill:#0053bd"
         inkscape:connector-curvature="0" /><linearGradient
         x1="43.791992"
         y1="103.56787"
         x2="210.86914"
         y2="103.56787"
         id="path47_1_"
         gradientUnits="userSpaceOnUse"><stop
           id="stop182"
           style="stop-color:#428aff;stop-opacity:1"
           offset="0" /><stop
           id="stop184"
           style="stop-color:#006dff;stop-opacity:1"
           offset="1" /><midPointStop
           id="midPointStop186"
           style="stop-color:#428AFF"
           offset="0" /><midPointStop
           id="midPointStop188"
           style="stop-color:#428AFF"
           offset="0.5" /><midPointStop
           id="midPointStop190"
           style="stop-color:#006DFF"
           offset="1" /></linearGradient><path
         d="m 61.412109,34.382812 c -1.019531,1.984376 -4.464843,5.369141 -6.018554,5.561524 l -11.601563,135.360354 82.122068,-0.27344 0.96485,0.007 83.99023,1.96582 -7.67676,-134.973637 C 203.01172,38.922852 197.59961,41.750977 193.8877,37.729492 173.5,34.5 142.11133,26.261719 127.99902,35.791992 116.20996,26.045898 75.074219,31.165039 61.412109,34.382812 Z"
         id="path47"
         style="fill:url(#path47_1_)"
         inkscape:connector-curvature="0" /><linearGradient
         x1="-193.02539"
         y1="497.85254"
         x2="-187.56224"
         y2="325.60233"
         id="path64_1_"
         gradientUnits="userSpaceOnUse"
         gradientTransform="matrix(0.9997,-0.0243,0.0243,0.9997,269.166,-318.378)"><stop
           id="stop197"
           style="stop-color:#7d7d99;stop-opacity:1"
           offset="0" /><stop
           id="stop199"
           style="stop-color:#c9e6ff;stop-opacity:1"
           offset="0.75" /><midPointStop
           id="midPointStop201"
           style="stop-color:#7D7D99"
           offset="0" /><midPointStop
           id="midPointStop203"
           style="stop-color:#7D7D99"
           offset="0.5" /><midPointStop
           id="midPointStop205"
           style="stop-color:#C9E6FF"
           offset="0.75" /></linearGradient><path
         d="m 57.818359,41.62793 c -4.545898,44.24414 -6.53125,86.95605 -11.083984,131.20019 l 82.126955,0.68946 c 0.70898,-43.78125 1.41406,-87.564455 2.1289,-131.343752 -9.86035,-7.230469 -36.837886,-5.036133 -66.760738,-1.357422 -0.470703,0.06152 -1.441406,-5.18457 -1.626953,-4.796875 -0.919922,1.950196 -3.112305,5.394531 -4.78418,5.608399 z"
         id="path64"
         style="fill:url(#path64_1_)"
         inkscape:connector-curvature="0" /><linearGradient
         x1="-112.72949"
         y1="504.625"
         x2="-110.88468"
         y2="349.53345"
         id="path79_1_"
         gradientUnits="userSpaceOnUse"
         gradientTransform="matrix(0.9997,-0.0243,0.0243,0.9997,269.165,-318.378)"><stop
           id="stop212"
           style="stop-color:#7d7d99;stop-opacity:1"
           offset="0" /><stop
           id="stop214"
           style="stop-color:#c9e6ff;stop-opacity:1"
           offset="0.75" /><midPointStop
           id="midPointStop216"
           style="stop-color:#7D7D99"
           offset="0" /><midPointStop
           id="midPointStop218"
           style="stop-color:#7D7D99"
           offset="0.5" /><midPointStop
           id="midPointStop220"
           style="stop-color:#C9E6FF"
           offset="0.75" /></linearGradient><path
         d="m 201.38574,42.545898 6.85645,132.375002 -79.38281,-1.39746 c 0.71093,-43.78028 1.41601,-87.571292 2.13085,-131.351565 8.32325,-6.806641 35.60645,-6.716797 61.417,-2.570313 3.76855,4.13086 5.875,2.364258 8.97851,2.944336 z"
         id="path79"
         style="fill:url(#path79_1_)"
         inkscape:connector-curvature="0" /><linearGradient
         x1="-190.68506"
         y1="362.61133"
         x2="-189.75751"
         y2="455.74768"
         id="path96_1_"
         gradientUnits="userSpaceOnUse"
         gradientTransform="matrix(0.9997,-0.0243,0.0243,0.9997,269.165,-318.378)"><stop
           id="stop227"
           style="stop-color:#ffffff;stop-opacity:1"
           offset="0.0337" /><stop
           id="stop229"
           style="stop-color:#c9e6ff;stop-opacity:1"
           offset="1" /><midPointStop
           id="midPointStop231"
           style="stop-color:#FFFFFF"
           offset="0.0337" /><midPointStop
           id="midPointStop233"
           style="stop-color:#FFFFFF"
           offset="0.5" /><midPointStop
           id="midPointStop235"
           style="stop-color:#C9E6FF"
           offset="1" /></linearGradient><path
         d="M 62.432617,35.929688 C 58.617188,81.103516 54.804688,126.27637 50.994141,171.4502 c 25.470703,-1.59571 51.167969,-5.19434 75.743159,1.2998 0.27247,-44.72949 0.54883,-89.454102 0.82227,-134.185547 -9.80762,-7.994141 -35.269531,-6.621094 -65.126953,-2.634765 z"
         id="path96"
         style="fill:url(#path96_1_)"
         inkscape:connector-curvature="0" /><path
         d="M 62.432617,35.929688 C 58.617188,81.103516 54.804688,126.27637 50.994141,171.4502 c 25.470703,-1.59571 51.167969,-5.19434 75.743159,1.2998 0.27247,-44.72949 0.54883,-89.454102 0.82227,-134.185547 -9.80762,-7.994141 -35.269531,-6.621094 -65.126953,-2.634765 z M 124.82324,170.35645 c -20.09179,-4.77442 -41.027342,-3.26368 -61.308592,-1.73047 0,0 -7.384765,0.52539 -10.410156,0.74023 0.362305,-4.29101 10.865235,-128.729491 11.117188,-131.718749 23.537109,-3.091797 51.03223,-5.450195 61.4043,1.929687 -0.0127,1.986329 -0.77442,126.349612 -0.80274,130.779302 z"
         id="path240"
         style="fill:#ffffff"
         inkscape:connector-curvature="0" /><linearGradient
         x1="-108.26758"
         y1="368.43945"
         x2="-125.14713"
         y2="490.78171"
         id="path111_1_"
         gradientUnits="userSpaceOnUse"
         gradientTransform="matrix(0.9997,-0.0243,0.0243,0.9997,269.165,-318.378)"><stop
           id="stop244"
           style="stop-color:#ffffff;stop-opacity:1"
           offset="0.0337" /><stop
           id="stop246"
           style="stop-color:#c9e6ff;stop-opacity:1"
           offset="1" /><midPointStop
           id="midPointStop248"
           style="stop-color:#FFFFFF"
           offset="0.0337" /><midPointStop
           id="midPointStop250"
           style="stop-color:#FFFFFF"
           offset="0.5" /><midPointStop
           id="midPointStop252"
           style="stop-color:#C9E6FF"
           offset="1" /></linearGradient><path
         d="m 192.47949,39.452148 7.47559,135.310552 c -23.00977,-3.99512 -64.39746,-8.25684 -73.21778,-2.00977 0.27247,-44.72656 0.54883,-89.458985 0.82227,-134.19043 8.57227,-7.733398 38.70801,-4.748047 64.91992,0.889648 z"
         id="path111"
         style="fill:url(#path111_1_)"
         inkscape:connector-curvature="0" /><path
         d="m 192.47949,39.452148 c -26.21191,-5.637695 -56.34765,-8.623046 -64.91992,-0.889648 -0.27344,44.731445 -0.5498,89.46387 -0.82227,134.19043 8.82032,-6.24707 50.20801,-1.98535 73.21778,2.00977 L 192.47949,39.452148 Z m -63.7959,130.262692 c 0.0342,-5.55468 0.78711,-128.319332 0.79786,-130.181637 7.31933,-5.415039 30.96972,-4.842773 61.15527,1.509766 0.15723,2.850586 7.00683,126.823241 7.26074,131.417971 -17.29394,-2.83985 -55.39746,-7.54199 -69.21387,-2.7461 z"
         id="path257"
         style="fill:#ffffff"
         inkscape:connector-curvature="0" /><g
         id="path2828"><path
           d="m 198.15625,167.38379 0.24609,2.00976 c -23.00879,-3.99511 -61.55371,-8.32714 -70.37304,-2.0791 l 0.0742,-1.26465 c 8.56836,-7.73437 43.84082,-4.30468 70.05273,1.33399 z"
           id="path261"
           style="opacity:0.11869998;fill:#565656"
           inkscape:connector-curvature="0" /></g><g
         id="path3451"><path
           d="m 198.01953,161.78125 0.24317,2.01074 c -23.00782,-3.99316 -61.54981,-8.32715 -70.3711,-2.07812 l 0.0762,-1.26367 c 8.56739,-7.73438 43.8418,-4.30469 70.05176,1.33105 z"
           id="path266"
           style="opacity:0.11869998;fill:#565656"
           inkscape:connector-curvature="0" /></g><g
         id="path3452"><path
           d="m 197.88379,156.18164 0.24414,2.00879 c -23.00781,-3.99219 -61.55078,-8.3252 -70.37402,-2.07813 l 0.0771,-1.26367 c 8.56934,-7.73535 43.84083,-4.30468 70.05274,1.33301 z"
           id="path271"
           style="opacity:0.11869998;fill:#565656"
           inkscape:connector-curvature="0" /></g><g
         id="path3453"><path
           d="m 197.74805,150.58105 0.24609,2.00879 c -23.01074,-3.99414 -61.55371,-8.32617 -70.375,-2.07812 l 0.0742,-1.26367 c 8.57031,-7.73535 43.84277,-4.30469 70.05469,1.333 z"
           id="path276"
           style="opacity:0.11869998;fill:#565656"
           inkscape:connector-curvature="0" /></g><g
         id="path3466"><path
           d="m 197.25586,144.99023 0.24512,2.00879 c -22.89356,-3.99804 -61.24121,-8.33496 -70.01758,-2.08691 l 0.0742,-1.2666 c 8.52441,-7.73145 43.61816,-4.29883 69.69824,1.34472 z"
           id="path281"
           style="opacity:0.11869998;fill:#565656"
           inkscape:connector-curvature="0" /></g><g
         id="path3467"><path
           d="m 197.12012,139.38672 0.24218,2.01172 c -22.8916,-3.99805 -61.24023,-8.33594 -70.0166,-2.08594 l 0.0762,-1.26758 c 8.52539,-7.73047 43.61914,-4.29687 69.69824,1.3418 z"
           id="path286"
           style="opacity:0.11869998;fill:#565656"
           inkscape:connector-curvature="0" /></g><g
         id="path3468"><path
           d="m 196.63086,133.79688 0.24121,2.00976 c -22.77734,-4.00098 -60.93164,-8.3418 -69.66309,-2.09668 l 0.0762,-1.26367 c 8.47949,-7.73242 43.3955,-4.29395 69.3457,1.35059 z"
           id="path291"
           style="opacity:0.11869998;fill:#565656"
           inkscape:connector-curvature="0" /></g><g
         id="path3469"><path
           d="m 196.84766,128.18652 0.24218,2.00879 c -22.7998,-3.99707 -60.99316,-8.33886 -69.73242,-2.09277 l 0.0742,-1.26563 c 8.48828,-7.73242 43.44238,-4.29199 69.41602,1.34961 z"
           id="path296"
           style="opacity:0.11869998;fill:#565656"
           inkscape:connector-curvature="0" /></g><g
         id="path3470"><path
           d="m 196.57227,122.58887 0.23925,2.00976 c -22.70703,-4.00097 -60.74511,-8.3457 -69.44824,-2.10058 l 0.0752,-1.26465 c 8.45312,-7.73145 43.26367,-4.28906 69.13379,1.35547 z"
           id="path301"
           style="opacity:0.11869998;fill:#565656"
           inkscape:connector-curvature="0" /></g><g
         id="path3471"><path
           d="m 196.15137,116.99512 0.23828,2.00879 c -22.56543,-4.00293 -60.37012,-8.35352 -69.02149,-2.11036 l 0.0733,-1.26464 c 8.40429,-7.73047 42.99804,-4.28321 68.70996,1.36621 z"
           id="path306"
           style="opacity:0.11869998;fill:#565656"
           inkscape:connector-curvature="0" /></g><g
         id="path3472"><path
           d="m 195.875,111.39844 0.23633,2.00976 c -22.47363,-4.00781 -60.1211,-8.36132 -68.73438,-2.11914 l 0.0723,-1.26367 c 8.36426,-7.72851 42.81738,-4.27832 68.42578,1.37305 z"
           id="path311"
           style="opacity:0.11869998;fill:#565656"
           inkscape:connector-curvature="0" /></g><g
         id="path3473"><path
           d="m 195.5957,105.7998 0.23731,2.01172 c -22.36035,-4.01074 -59.81348,-8.369137 -68.37988,-2.12695 l 0.0713,-1.26562 c 8.32227,-7.72852 42.59864,-4.27247 68.07129,1.38085 z"
           id="path316"
           style="opacity:0.11869998;fill:#565656"
           inkscape:connector-curvature="0" /></g><g
         id="path3474"><path
           d="m 195.17773,100.20703 0.23438,2.01074 c -22.17383,-4.014645 -59.31543,-8.381832 -67.8125,-2.14257 l 0.0713,-1.2627 c 8.25293,-7.725586 42.24121,-4.266602 67.50683,1.39453 z"
           id="path321"
           style="opacity:0.11869998;fill:#565656"
           inkscape:connector-curvature="0" /></g><g
         id="path3475"><path
           d="m 194.89648,94.611328 0.23829,2.008789 c -22.1045,-4.016601 -59.13184,-8.384765 -67.59961,-2.146484 l 0.0713,-1.263672 c 8.22167,-7.725586 42.10742,-4.262695 67.29003,1.401367 z"
           id="path326"
           style="opacity:0.11869998;fill:#565656"
           inkscape:connector-curvature="0" /></g><g
         id="path3476"><path
           d="m 194.62207,89.012695 0.23438,2.009766 c -22.0127,-4.017578 -58.88477,-8.391602 -67.31641,-2.15332 l 0.0713,-1.262696 c 8.18945,-7.726562 41.93066,-4.258789 67.01074,1.40625 z"
           id="path331"
           style="opacity:0.11869998;fill:#565656"
           inkscape:connector-curvature="0" /></g><g
         id="path3477"><path
           d="m 194.2002,83.418945 0.23632,2.009766 C 172.53809,81.408203 135.8623,77.03125 127.47559,83.266601 l 0.0703,-1.261718 c 8.14355,-7.725586 41.70898,-4.254883 66.6543,1.414062 z"
           id="path336"
           style="opacity:0.11869998;fill:#565656"
           inkscape:connector-curvature="0" /></g><g
         id="path3478"><path
           d="m 193.99414,77.819336 0.23438,2.010742 C 172.44629,75.805664 135.96387,71.422851 127.625,77.661133 l 0.0684,-1.265625 c 8.10254,-7.72168 41.48633,-4.24707 66.30078,1.423828 z"
           id="path341"
           style="opacity:0.11869998;fill:#565656"
           inkscape:connector-curvature="0" /></g><g
         id="path3479"><path
           d="m 193.57324,72.226562 0.2334,2.00879 c -21.6416,-4.026368 -57.88867,-8.41504 -66.17773,-2.178711 l 0.0703,-1.265625 c 8.04687,-7.722657 41.21973,-4.239258 65.87402,1.435546 z"
           id="path346"
           style="opacity:0.11869998;fill:#565656"
           inkscape:connector-curvature="0" /></g><g
         id="path3480"><path
           d="m 193.22656,66.629883 0.23047,2.011719 c -21.50391,-4.03125 -57.51855,-8.424805 -65.75,-2.19043 l 0.0684,-1.265625 c 7.99219,-7.720703 40.9541,-4.234375 65.45117,1.444336 z"
           id="path351"
           style="opacity:0.11869998;fill:#565656"
           inkscape:connector-curvature="0" /></g><g
         id="path3481"><path
           d="m 192.80664,61.037109 0.22852,2.008789 C 171.69434,59.012695 135.95215,54.612305 127.7832,60.844727 l 0.0664,-1.265625 c 7.93457,-7.71875 40.64258,-4.226563 64.95703,1.458007 z"
           id="path356"
           style="opacity:0.11869998;fill:#565656"
           inkscape:connector-curvature="0" /></g><g
         id="path3482"><path
           d="m 192.74219,55.43457 0.22851,2.008789 c -21.31836,-4.033203 -57.02343,-8.43457 -65.18164,-2.203125 l 0.0684,-1.265625 c 7.9209,-7.717773 40.59766,-4.224609 64.88477,1.459961 z"
           id="path361"
           style="opacity:0.11869998;fill:#565656"
           inkscape:connector-curvature="0" /></g><g
         id="path3483"><path
           d="m 192.60645,49.833984 0.22949,2.009766 c -21.27149,-4.035156 -56.90039,-8.439453 -65.04199,-2.207031 l 0.0674,-1.266602 c 7.90625,-7.71582 40.50976,-4.221679 64.74512,1.463867 z"
           id="path366"
           style="opacity:0.11869998;fill:#565656"
           inkscape:connector-curvature="0" /></g><g
         id="path4105"><path
           d="m 53.77832,163.62207 -0.334961,1.02734 c 25.473633,-1.59472 47.568361,-4.30371 72.143551,2.19239 l -0.0459,-0.84864 c -10.77735,-6.46191 -41.906254,-6.35839 -71.7627,-2.37109 z"
           id="path371"
           style="opacity:0.11869998;fill:#565656"
           inkscape:connector-curvature="0" /></g><g
         id="path4107"><path
           d="m 54.443359,158.00098 -0.330078,1.02832 c 25.185547,-1.58887 47.033199,-4.29102 71.335939,2.21289 l -0.0449,-0.84961 c -10.65723,-6.46582 -41.441409,-6.37012 -70.960941,-2.3916 z"
           id="path376"
           style="opacity:0.11869998;fill:#565656"
           inkscape:connector-curvature="0" /></g><g
         id="path4108"><path
           d="m 54.707031,152.39062 -0.328125,1.02735 c 25.044922,-1.58594 46.767574,-4.28223 70.934574,2.22363 l -0.0459,-0.85058 c -10.59863,-6.4668 -41.20801,-6.37403 -70.560549,-2.4004 z"
           id="path381"
           style="opacity:0.11869998;fill:#565656"
           inkscape:connector-curvature="0" /></g><g
         id="path4109"><path
           d="m 55.071289,146.77734 -0.326172,1.0293 c 24.973633,-1.58496 46.636723,-4.28125 70.735353,2.22754 l -0.0459,-0.85059 c -10.56934,-6.46679 -41.092773,-6.37695 -70.363281,-2.40625 z"
           id="path386"
           style="opacity:0.11869998;fill:#565656"
           inkscape:connector-curvature="0" /></g><g
         id="path4110"><path
           d="m 55.336914,141.16797 -0.324219,1.02637 c 24.828125,-1.58008 46.367185,-4.27246 70.330075,2.23632 l -0.0459,-0.84765 c -10.50977,-6.46875 -40.857427,-6.38184 -69.959966,-2.41504 z"
           id="path391"
           style="opacity:0.11869998;fill:#565656"
           inkscape:connector-curvature="0" /></g><g
         id="path4111"><path
           d="m 55.600586,135.55762 -0.323242,1.02734 c 24.757812,-1.5791 46.236326,-4.27148 70.129886,2.24219 l -0.0459,-0.84961 c -10.47949,-6.46875 -40.742189,-6.3877 -69.760744,-2.41992 z"
           id="path396"
           style="opacity:0.11869998;fill:#565656"
           inkscape:connector-curvature="0" /></g><g
         id="path4112"><path
           d="m 55.666016,130.05176 -0.322266,1.02832 c 24.6875,-1.57715 46.10547,-4.26758 69.92969,2.24512 l -0.0459,-0.84766 c -10.44824,-6.4707 -40.624024,-6.39063 -69.561524,-2.42578 z"
           id="path401"
           style="opacity:0.11869998;fill:#565656"
           inkscape:connector-curvature="0" /></g><g
         id="path4113"><path
           d="m 56.53125,124.42773 -0.316406,1.02735 c 24.332031,-1.57031 45.438476,-4.25195 68.921876,2.26953 l -0.0439,-0.84863 c -10.30273,-6.47266 -40.042965,-6.40137 -68.56152,-2.44825 z"
           id="path406"
           style="opacity:0.11869998;fill:#565656"
           inkscape:connector-curvature="0" /></g><g
         id="path4114"><path
           d="m 56.899414,118.91504 -0.316406,1.02539 c 24.295898,-1.56543 45.373042,-4.24902 68.822262,2.27344 l -0.0439,-0.84668 c -10.28809,-6.47461 -39.987307,-6.40528 -68.461916,-2.45215 z"
           id="path411"
           style="opacity:0.11869998;fill:#565656"
           inkscape:connector-curvature="0" /></g><g
         id="path4115"><path
           d="m 56.958984,113.1084 -0.317382,1.02637 c 24.226562,-1.56348 45.240238,-4.2461 68.622068,2.27832 l -0.043,-0.84961 c -10.25879,-6.47364 -39.869138,-6.40723 -68.261716,-2.45508 z"
           id="path416"
           style="opacity:0.11869998;fill:#565656"
           inkscape:connector-curvature="0" /></g><g
         id="path4116"><path
           d="m 57.725586,107.58691 -0.3125,1.02539 c 23.941406,-1.55859 44.707034,-4.23242 67.818364,2.29786 l -0.0449,-0.84668 c -10.14062,-6.47852 -39.403317,-6.41895 -67.460934,-2.47657 z"
           id="path421"
           style="opacity:0.11869998;fill:#565656"
           inkscape:connector-curvature="0" /></g><g
         id="path4117"><path
           d="m 58.294922,102.16895 -0.30957,1.02734 c 23.691406,-1.55274 44.241208,-4.221681 67.115238,2.31348 l -0.0449,-0.84668 C 115.01953,98.182617 86.061523,98.234375 58.294922,102.16895 Z"
           id="path426"
           style="opacity:0.11869998;fill:#565656"
           inkscape:connector-curvature="0" /></g><g
         id="path4118"><path
           d="m 58.660156,96.657227 -0.304687,1.02539 C 81.973633,96.133789 102.46387,93.46582 125.2666,100.00293 l -0.043,-0.84668 C 115.21777,92.673828 86.34375,92.723633 58.660156,96.657227 Z"
           id="path431"
           style="opacity:0.11869998;fill:#565656"
           inkscape:connector-curvature="0" /></g><path
         d="m 128.20117,173.52344 1.26172,-138.622073 c -0.50488,0.273438 -0.99512,0.561524 -1.46387,0.872071 -0.45507,-0.370118 -0.96777,-0.709961 -1.50781,-1.03711 l -1.41504,138.747072 0.83789,0.007 0,0.007 2.28711,0.0264 z"
         id="path434"
         inkscape:connector-curvature="0" /><g
         id="path4119"><path
           d="m 59.023438,90.943359 -0.305665,1.026368 c 23.515625,-1.547852 43.909177,-4.212891 66.613277,2.328125 l -0.0459,-0.848633 C 115.3252,86.966797 86.583008,87.012695 59.023438,90.943359 Z"
           id="path438"
           style="opacity:0.11869998;fill:#565656"
           inkscape:connector-curvature="0" /></g><g
         id="path4120"><path
           d="m 59.582031,85.024414 -0.303711,1.026367 c 23.372071,-1.544922 43.64356,-4.207031 66.20898,2.337891 l -0.0439,-0.84961 C 115.54199,81.055664 86.972656,81.09668 59.582031,85.024414 Z"
           id="path443"
           style="opacity:0.11869998;fill:#565656"
           inkscape:connector-curvature="0" /></g><g
         id="path4121"><path
           d="M 60.551758,79.597656 60.253906,80.625 c 22.979492,-1.535156 42.912114,-4.189453 65.101564,2.364258 l -0.0439,-0.850586 C 115.57324,75.651367 87.483398,75.682617 60.551758,79.597656 Z"
           id="path448"
           style="opacity:0.11869998;fill:#565656"
           inkscape:connector-curvature="0" /></g><g
         id="path4122"><path
           d="m 61.009766,73.782227 -0.293946,1.02539 c 22.695313,-1.52832 42.37988,-4.176758 64.29883,2.383789 l -0.0449,-0.849609 c -9.62012,-6.488281 -37.362308,-6.46875 -63.959964,-2.55957 z"
           id="path453"
           style="opacity:0.11869998;fill:#565656"
           inkscape:connector-curvature="0" /></g><g
         id="path4123"><path
           d="m 61.472656,68.166016 -0.289062,1.027343 c 22.515625,-1.52539 42.046876,-4.167968 63.793946,2.393555 l -0.043,-0.84668 C 115.3877,64.246094 87.862305,64.263672 61.472656,68.166016 Z"
           id="path458"
           style="opacity:0.11869998;fill:#565656"
           inkscape:connector-curvature="0" /></g><g
         id="path4124"><path
           d="m 62.240234,62.544922 -0.290039,1.023437 c 22.234375,-1.515625 41.516605,-4.15332 62.991215,2.416993 l -0.042,-0.84961 c -9.42968,-6.496094 -36.607418,-6.485351 -62.659176,-2.59082 z"
           id="path463"
           style="opacity:0.11869998;fill:#565656"
           inkscape:connector-curvature="0" /></g><g
         id="path4125"><path
           d="m 63.00293,56.920898 -0.282227,1.027344 c 21.84082,-1.507812 40.783207,-4.139648 61.884767,2.439453 l -0.0439,-0.846679 C 115.2979,53.041992 88.595753,53.038086 63.00298,56.920898 Z"
           id="path468"
           style="opacity:0.11869998;fill:#565656"
           inkscape:connector-curvature="0" /></g><g
         id="path4126"><path
           d="m 63.766602,51.297852 -0.278321,1.026367 c 21.628907,-1.503906 40.385739,-4.126953 61.282229,2.456055 l -0.043,-0.84668 C 115.5498,47.431641 89.110352,47.421875 63.766602,51.297852 Z"
           id="path473"
           style="opacity:0.11869998;fill:#565656"
           inkscape:connector-curvature="0" /></g><g
         id="path4127"><path
           d="m 64.331055,45.679688 -0.274414,1.027343 c 21.378906,-1.496093 39.917969,-4.118164 60.576169,2.472657 l -0.042,-0.84668 c -9.07129,-6.504883 -35.208984,-6.522461 -60.259765,-2.65332 z"
           id="path478"
           style="opacity:0.11869998;fill:#565656"
           inkscape:connector-curvature="0" /></g><g
         id="g481"><linearGradient
           x1="88.401367"
           y1="120.16943"
           x2="199.59766"
           y2="120.16943"
           id="XMLID_2_"
           gradientUnits="userSpaceOnUse"
           gradientTransform="matrix(0.9793,0.2023,-0.2023,0.9793,37.0376,-27.9773)"><stop
             id="stop485"
             style="stop-color:#494949;stop-opacity:1"
             offset="0" /><stop
             id="stop487"
             style="stop-color:#616161;stop-opacity:1"
             offset="0.5" /><stop
             id="stop489"
             style="stop-color:#000000;stop-opacity:1"
             offset="1" /><midPointStop
             id="midPointStop491"
             style="stop-color:#494949"
             offset="0" /><midPointStop
             id="midPointStop493"
             style="stop-color:#494949"
             offset="0.5" /><midPointStop
             id="midPointStop495"
             style="stop-color:#616161"
             offset="0.5" /><midPointStop
             id="midPointStop497"
             style="stop-color:#616161"
             offset="0.5" /><midPointStop
             id="midPointStop499"
             style="stop-color:#000000"
             offset="1" /></linearGradient><path
           d="m 123.08301,72.202148 0,0 c -25.416994,16.712891 -32.499026,50.989262 -15.78613,76.407232 7.25976,11.04101 18.23828,19.11328 30.91503,22.72656 12.26465,3.50097 25.3711,2.58984 37.05762,-2.48535 1.02149,1.55468 7.14746,10.87109 7.14746,10.87109 2.24414,3.41309 7.34668,3.74316 11.87012,0.76855 2.65625,-1.74707 4.3457,-4.12988 4.83398,-6.49121 0.3418,-1.65722 0.0908,-3.30371 -0.83398,-4.71093 0,0 -6.12891,-9.31739 -7.15039,-10.8711 8.30176,-7.78711 14.00195,-17.92773 16.29492,-29.02344 0.27246,-1.32617 0.5,-2.66503 0.67481,-4.01562 1.7041,-13.07031 -1.35645,-26.34961 -8.61622,-37.389649 -16.71289,-25.417969 -50.99023,-32.5 -76.40722,-15.786133 z"
           id="path502"
           style="fill:url(#XMLID_2_)"
           inkscape:connector-curvature="0" /><linearGradient
           x1="208.6582"
           y1="219.28711"
           x2="208.6582"
           y2="153.52696"
           id="XMLID_3_"
           gradientUnits="userSpaceOnUse"
           gradientTransform="matrix(0.9793,0.2023,-0.2023,0.9793,37.0376,-27.9773)"><stop
             id="stop506"
             style="stop-color:#7c0000;stop-opacity:1"
             offset="0" /><stop
             id="stop508"
             style="stop-color:#cf0000;stop-opacity:1"
             offset="1" /><midPointStop
             id="midPointStop510"
             style="stop-color:#7C0000"
             offset="0" /><midPointStop
             id="midPointStop512"
             style="stop-color:#7C0000"
             offset="0.5" /><midPointStop
             id="midPointStop514"
             style="stop-color:#CF0000"
             offset="1" /></linearGradient><path
           d="m 185.1875,166.6543 c -3.87988,2.54785 -6.41016,6.11816 -7.12695,9.59375 -0.42188,2.04101 -0.21875,4.05175 0.70703,5.80175 l 0.0293,0.0566 0.0176,0.10351 26.82813,40.80274 c 3.10547,4.7207 10.63086,5.07226 17.13086,0.7998 6.50097,-4.27441 9.15918,-11.32227 6.05566,-16.04395 l -26.86426,-40.85449 -0.0742,-0.0273 c -3.34278,-4.19824 -10.52442,-4.29688 -16.70313,-0.23242 z"
           id="path517"
           style="fill:url(#XMLID_3_)"
           inkscape:connector-curvature="0" /><linearGradient
           x1="89.726562"
           y1="120.17432"
           x2="198.27138"
           y2="120.17432"
           id="XMLID_4_"
           gradientUnits="userSpaceOnUse"
           gradientTransform="matrix(0.9793,0.2023,-0.2023,0.9793,37.0376,-27.9773)"><stop
             id="stop521"
             style="stop-color:#a2a2a2;stop-opacity:1"
             offset="0" /><stop
             id="stop523"
             style="stop-color:#494949;stop-opacity:1"
             offset="1" /><midPointStop
             id="midPointStop525"
             style="stop-color:#A2A2A2"
             offset="0" /><midPointStop
             id="midPointStop527"
             style="stop-color:#A2A2A2"
             offset="0.5" /><midPointStop
             id="midPointStop529"
             style="stop-color:#494949"
             offset="1" /></linearGradient><path
           d="m 124.53809,74.415039 c -11.70118,7.696289 -19.71094,19.508789 -22.55274,33.260741 -2.841795,13.75488 -0.16894,27.77539 7.52539,39.47852 6.91113,10.50976 17.36133,18.19433 29.42676,21.63379 12.02734,3.42968 24.91406,2.44336 36.28613,-2.78125 l 1.03516,-0.47364 8.37402,12.73438 c 1.41309,2.14941 4.93848,2.15332 8.19824,0.009 3.26172,-2.14551 4.65528,-5.38379 3.24219,-7.53223 l -8.375,-12.73535 0.84766,-0.76074 c 9.30273,-8.3711 15.31738,-19.8125 16.93359,-32.21289 1.62207,-12.44141 -1.29297,-25.082035 -8.20312,-35.591801 C 181.36523,65.24707 148.73535,58.504883 124.53809,74.415039 Z"
           id="path532"
           style="fill:url(#XMLID_4_)"
           inkscape:connector-curvature="0" /><linearGradient
           x1="40.890625"
           y1="180.12305"
           x2="55.228176"
           y2="194.4606"
           id="XMLID_5_"
           gradientUnits="userSpaceOnUse"
           gradientTransform="matrix(-0.9793,-0.2023,-0.2023,0.9793,289.986,24.69)"><stop
             id="stop536"
             style="stop-color:#ffc957;stop-opacity:1"
             offset="0" /><stop
             id="stop538"
             style="stop-color:#ff6d00;stop-opacity:1"
             offset="1" /><midPointStop
             id="midPointStop540"
             style="stop-color:#FFC957"
             offset="0" /><midPointStop
             id="midPointStop542"
             style="stop-color:#FFC957"
             offset="0.5" /><midPointStop
             id="midPointStop544"
             style="stop-color:#FF6D00"
             offset="1" /></linearGradient><path
           d="m 199.26172,169.46289 26.50976,40.31445 c 1.94727,2.96485 -0.29492,7.87793 -5.00781,10.97657 -4.71484,3.10156 -10.11426,3.21191 -12.06445,0.24707 l -26.50781,-40.31543 17.07031,-11.22266 z"
           id="path547"
           style="fill:url(#XMLID_5_)"
           inkscape:connector-curvature="0" /><linearGradient
           x1="41.04834"
           y1="185.42578"
           x2="51.374912"
           y2="195.75235"
           id="XMLID_6_"
           gradientUnits="userSpaceOnUse"
           gradientTransform="matrix(-1.1729,-0.3738,-0.1216,1.225,283.199,-18.4196)"><stop
             id="stop551"
             style="stop-color:#ffff66;stop-opacity:1"
             offset="0" /><stop
             id="stop553"
             style="stop-color:#ff6d00;stop-opacity:1"
             offset="1" /><midPointStop
             id="midPointStop555"
             style="stop-color:#FFFF66"
             offset="0" /><midPointStop
             id="midPointStop557"
             style="stop-color:#FFFF66"
             offset="0.5" /><midPointStop
             id="midPointStop559"
             style="stop-color:#FF6D00"
             offset="1" /></linearGradient><path
           d="m 198.48242,170.7207 25.83399,39.29102 c 1.89843,2.88769 0.42089,7.21094 -3.29786,9.65527 -3.71777,2.44629 -8.27148,2.08789 -10.17187,-0.79883 l -25.83301,-39.29004 13.46875,-8.85742 z"
           id="path562"
           style="fill:url(#XMLID_6_)"
           inkscape:connector-curvature="0" /><linearGradient
           x1="199.00586"
           y1="175.17676"
           x2="187.05318"
           y2="163.22408"
           id="XMLID_7_"
           gradientUnits="userSpaceOnUse"
           gradientTransform="matrix(0.9793,0.2023,-0.2023,0.9793,37.0376,-27.9773)"><stop
             id="stop566"
             style="stop-color:#ffd700;stop-opacity:1"
             offset="0" /><stop
             id="stop568"
             style="stop-color:#ffffff;stop-opacity:1"
             offset="1" /><midPointStop
             id="midPointStop570"
             style="stop-color:#FFD700"
             offset="0" /><midPointStop
             id="midPointStop572"
             style="stop-color:#FFD700"
             offset="0.5" /><midPointStop
             id="midPointStop574"
             style="stop-color:#FFFFFF"
             offset="1" /></linearGradient><path
           d="m 199.26172,169.46289 c 1.94922,2.96191 -0.29492,7.87695 -5.00879,10.97559 -4.71387,3.09863 -10.11328,3.21289 -12.06152,0.24707 -1.94825,-2.96289 0.29394,-7.87598 5.00781,-10.97559 4.71387,-3.09863 10.11328,-3.21191 12.0625,-0.24707 z"
           id="path577"
           style="fill:url(#XMLID_7_)"
           inkscape:connector-curvature="0" /><linearGradient
           x1="114.90674"
           y1="64.565918"
           x2="114.90673"
           y2="206.99428"
           id="XMLID_8_"
           gradientUnits="userSpaceOnUse"
           gradientTransform="matrix(-0.8355,0.5494,0.5494,0.8355,190.544,-34.3347)"><stop
             id="stop581"
             style="stop-color:#dadada;stop-opacity:1"
             offset="0" /><stop
             id="stop583"
             style="stop-color:#949494;stop-opacity:1"
             offset="0.61235899" /><stop
             id="stop585"
             style="stop-color:#dadada;stop-opacity:1"
             offset="1" /><midPointStop
             id="midPointStop587"
             style="stop-color:#DADADA"
             offset="0" /><midPointStop
             id="midPointStop589"
             style="stop-color:#DADADA"
             offset="0.5" /><midPointStop
             id="midPointStop591"
             style="stop-color:#949494"
             offset="0.612359" /><midPointStop
             id="midPointStop593"
             style="stop-color:#949494"
             offset="0.5" /><midPointStop
             id="midPointStop595"
             style="stop-color:#DADADA"
             offset="1" /></linearGradient><path
           d="m 110.35547,146.59961 c -15.629884,-23.77149 -9.03125,-55.710938 14.73926,-71.339844 23.76757,-15.63086 55.70898,-9.03125 71.33789,14.739257 14.54492,22.119137 9.83496,51.311527 -10.0459,67.855467 l 8.8418,13.44434 c 1.0625,1.61523 -0.26075,4.3623 -2.95215,6.13379 -2.69239,1.76953 -5.73828,1.8955 -6.80078,0.28027 l -8.83887,-13.44531 c -23.07031,11.69824 -51.73731,4.45215 -66.28125,-17.66797 z"
           id="path598"
           style="fill:url(#XMLID_8_)"
           inkscape:connector-curvature="0" /><linearGradient
           x1="117.22607"
           y1="168.63379"
           x2="110.44135"
           y2="168.63379"
           id="XMLID_9_"
           gradientUnits="userSpaceOnUse"
           gradientTransform="matrix(-0.8355,0.5494,0.4527,0.6884,206.874,-9.80951)"><stop
             id="stop602"
             style="stop-color:#b2b2b2;stop-opacity:1"
             offset="0" /><stop
             id="stop604"
             style="stop-color:#ffffff;stop-opacity:1"
             offset="1" /><midPointStop
             id="midPointStop606"
             style="stop-color:#B2B2B2"
             offset="0" /><midPointStop
             id="midPointStop608"
             style="stop-color:#B2B2B2"
             offset="0.5" /><midPointStop
             id="midPointStop610"
             style="stop-color:#FFFFFF"
             offset="1" /></linearGradient><path
           d="m 185.93262,159.76074 c 0,0 8.85644,13.46875 9.3623,14.2334 -0.2998,0.44922 -1.04394,1.27539 -2.37207,2.14551 l 0,0 c -1.3291,0.87402 -2.38086,1.23144 -2.91211,1.32812 -0.50097,-0.76562 -9.35937,-14.2373 -9.35937,-14.2373 l 5.28125,-3.46973 z"
           id="path613"
           style="fill:url(#XMLID_9_)"
           inkscape:connector-curvature="0" /><linearGradient
           x1="96.726562"
           y1="119.71484"
           x2="190.36523"
           y2="119.71484"
           id="XMLID_10_"
           gradientUnits="userSpaceOnUse"
           gradientTransform="matrix(0.9793,0.2023,-0.2023,0.9793,37.0376,-27.9773)"><stop
             id="stop617"
             style="stop-color:#ffffff;stop-opacity:1"
             offset="0" /><stop
             id="stop619"
             style="stop-color:#494949;stop-opacity:1"
             offset="1" /><midPointStop
             id="midPointStop621"
             style="stop-color:#FFFFFF"
             offset="0" /><midPointStop
             id="midPointStop623"
             style="stop-color:#FFFFFF"
             offset="0.5" /><midPointStop
             id="midPointStop625"
             style="stop-color:#494949"
             offset="1" /></linearGradient><path
           d="m 192.5332,92.563477 c 14.18653,21.581053 8.17676,50.683593 -13.40429,64.874023 -21.58204,14.19043 -50.68262,8.17578 -64.87305,-13.40332 -14.18945,-21.58008 -8.17676,-50.682618 13.40332,-64.874024 21.5791,-14.189453 50.68164,-8.176758 64.87402,13.403321 z"
           id="path628"
           style="fill:url(#XMLID_10_)"
           inkscape:connector-curvature="0" /><radialGradient
           cx="89.101562"
           cy="80.52002"
           r="116.94726"
           fx="89.101562"
           fy="80.52002"
           id="XMLID_11_"
           gradientUnits="userSpaceOnUse"
           gradientTransform="matrix(-0.8355,0.5494,0.5494,0.8355,190.544,-34.3347)"><stop
             id="stop632"
             style="stop-color:#0035ed;stop-opacity:1"
             offset="0.005618" /><stop
             id="stop634"
             style="stop-color:#94caff;stop-opacity:1"
             offset="0.56741601" /><stop
             id="stop636"
             style="stop-color:#c9e6ff;stop-opacity:1"
             offset="0.707865" /><stop
             id="stop638"
             style="stop-color:#034cfe;stop-opacity:1"
             offset="1" /><midPointStop
             id="midPointStop640"
             style="stop-color:#0035ED"
             offset="0.005618" /><midPointStop
             id="midPointStop642"
             style="stop-color:#0035ED"
             offset="0.5" /><midPointStop
             id="midPointStop644"
             style="stop-color:#94CAFF"
             offset="0.567416" /><midPointStop
             id="midPointStop646"
             style="stop-color:#94CAFF"
             offset="0.5" /><midPointStop
             id="midPointStop648"
             style="stop-color:#C9E6FF"
             offset="0.707865" /><midPointStop
             id="midPointStop650"
             style="stop-color:#C9E6FF"
             offset="0.5" /><midPointStop
             id="midPointStop652"
             style="stop-color:#034CFE"
             offset="1" /></radialGradient><path
           d="m 190.58008,93.84668 c 13.4834,20.50391 7.77148,48.15527 -12.7334,61.6377 -20.50781,13.48535 -48.15723,7.77148 -61.63867,-12.7334 -13.4834,-20.50586 -7.77051,-48.156253 12.73437,-61.638675 20.50293,-13.483399 48.15332,-7.770508 61.6377,12.734375 z"
           id="path655"
           style="fill:url(#XMLID_11_)"
           inkscape:connector-curvature="0" /><radialGradient
           cx="139.93262"
           cy="67.719727"
           r="116.94732"
           fx="139.93262"
           fy="67.719727"
           id="XMLID_12_"
           gradientUnits="userSpaceOnUse"
           gradientTransform="matrix(0.9793,0.2023,-0.2023,0.9793,37.0376,-27.9773)"><stop
             id="stop659"
             style="stop-color:#ffffff;stop-opacity:1"
             offset="0.005618" /><stop
             id="stop661"
             style="stop-color:#94caff;stop-opacity:1"
             offset="0.44999999" /><stop
             id="stop663"
             style="stop-color:#c9e6ff;stop-opacity:1"
             offset="0.60000002" /><stop
             id="stop665"
             style="stop-color:#ffffff;stop-opacity:1"
             offset="1" /><midPointStop
             id="midPointStop667"
             style="stop-color:#FFFFFF"
             offset="0.005618" /><midPointStop
             id="midPointStop669"
             style="stop-color:#FFFFFF"
             offset="0.5" /><midPointStop
             id="midPointStop671"
             style="stop-color:#94CAFF"
             offset="0.45" /><midPointStop
             id="midPointStop673"
             style="stop-color:#94CAFF"
             offset="0.5" /><midPointStop
             id="midPointStop675"
             style="stop-color:#C9E6FF"
             offset="0.6" /><midPointStop
             id="midPointStop677"
             style="stop-color:#C9E6FF"
             offset="0.5" /><midPointStop
             id="midPointStop679"
             style="stop-color:#FFFFFF"
             offset="1" /></radialGradient><path
           d="m 130.39844,83.327148 0,0 c -9.32617,6.131836 -15.70801,15.545899 -17.97461,26.505862 -2.26465,10.96289 -0.13477,22.13574 5.99902,31.46289 12.67871,19.28222 38.68262,24.65625 57.9668,11.97656 19.28418,-12.68164 24.65723,-38.68652 11.97656,-57.968749 C 175.68652,76.018555 149.68164,70.646484 130.39844,83.327148 Z"
           id="path682"
           style="fill:url(#XMLID_12_)"
           inkscape:connector-curvature="0" /></g></g><polyline
       id="_x3C_Slice_x3E_"
       points="0,256 0,0 256,0 256,256"
       style="fill:none" /></g></svg>