<?xml version="1.0" encoding="UTF-8" standalone="no"?>
<!-- Created with Inkscape (http://www.inkscape.org/) -->

<svg
   xmlns:dc="http://purl.org/dc/elements/1.1/"
   xmlns:cc="http://creativecommons.org/ns#"
   xmlns:rdf="http://www.w3.org/1999/02/22-rdf-syntax-ns#"
   xmlns:svg="http://www.w3.org/2000/svg"
   xmlns="http://www.w3.org/2000/svg"
   xmlns:sodipodi="http://sodipodi.sourceforge.net/DTD/sodipodi-0.dtd"
   xmlns:inkscape="http://www.inkscape.org/namespaces/inkscape"
   width="128"
   height="128"
   viewBox="0 0 33.866666 33.866668"
   version="1.1"
   id="svg1568"
   inkscape:version="0.92.3 (unknown)"
   sodipodi:docname="coursemanager_na.svg">
  <sodipodi:namedview
     id="base"
     pagecolor="#ffffff"
     bordercolor="#666666"
     borderopacity="1.0"
     inkscape:pageopacity="0.0"
     inkscape:pageshadow="2"
     inkscape:zoom="5.6"
     inkscape:cx="67.499866"
     inkscape:cy="33.960317"
     inkscape:document-units="mm"
     inkscape:current-layer="layer1"
     showgrid="false"
     inkscape:window-width="1920"
     inkscape:window-height="1016"
     inkscape:window-x="0"
     inkscape:window-y="27"
     inkscape:window-maximized="1"
     units="px" />
  <defs
     id="defs1562" />
  <metadata
     id="metadata1565">
    <rdf:RDF>
      <cc:Work
         rdf:about="">
        <dc:format>image/svg+xml</dc:format>
        <dc:type
           rdf:resource="http://purl.org/dc/dcmitype/StillImage" />
        <dc:title />
      </cc:Work>
    </rdf:RDF>
  </metadata>
  <g
     transform="translate(0,-263.13332)"
     id="layer1"
     inkscape:groupmode="layer"
     inkscape:label="Capa 1">
    <rect
       style="opacity:1;fill:#ececec;fill-opacity:1;stroke:none;stroke-width:0.5404954;stroke-linecap:square;stroke-linejoin:bevel;stroke-miterlimit:4;stroke-dasharray:none;stroke-dashoffset:0;stroke-opacity:1"
       id="rect8467"
       width="33.866665"
       height="33.866665"
       x="1.0276691e-07"
       y="263.1333"
       ry="0" />
    <rect
       style="opacity:1;fill:#808080;fill-opacity:1;stroke:none;stroke-width:0.43006462;stroke-linecap:square;stroke-linejoin:bevel;stroke-miterlimit:4;stroke-dasharray:none;stroke-dashoffset:0;stroke-opacity:1"
       id="rect8471"
       width="28.793236"
       height="20.576468"
       x="2.67713"
       y="268.18188"
       ry="1.7515858" />
    <rect
       style="opacity:1;fill:#b3b3b3;fill-opacity:1;stroke:none;stroke-width:0.44709039;stroke-linecap:square;stroke-linejoin:bevel;stroke-miterlimit:4;stroke-dasharray:none;stroke-dashoffset:0;stroke-opacity:1"
       id="rect8473"
       width="25.930347"
       height="17.803122"
       x="4.0497856"
       y="269.56854"
       ry="0.95862967" />
    <rect
       style="opacity:1;fill:#999999;fill-opacity:1;stroke:none;stroke-width:0.34848714;stroke-linecap:square;stroke-linejoin:bevel;stroke-miterlimit:4;stroke-dasharray:none;stroke-dashoffset:0;stroke-opacity:1"
       id="rect8477"
       width="25.921164"
       height="2.0449922"
       x="4.049778"
       y="269.56854"
       ry="0.59368229" />
    <path
       style="fill:#ffffff;fill-opacity:1;fill-rule:evenodd;stroke:none;stroke-width:0.18703657px;stroke-linecap:butt;stroke-linejoin:miter;stroke-opacity:1;opacity:1"
       d="m 17.753844,282.45933 1.815568,0.60211 c 1.393811,0.30243 2.297314,2.76221 2.523946,4.41318 l -2.031269,1.55638 -0.660395,-3.00453 0.110658,7.57195 c -2.088208,0.52118 -5.859241,0.59679 -7.587757,-0.0632 l 0.205499,-7.54033 -0.250689,1.4829 -2.1003223,-0.27618 c 0.2732673,-1.30762 0.9475013,-3.36028 1.6861643,-4.13542 0.636137,-0.30639 1.342579,-0.5249 2.103362,-0.67548 l 2.155069,0.73098 z"
       id="path8483"
       inkscape:connector-curvature="0"
       sodipodi:nodetypes="cccccccccccccc" />
    <path
       style="fill:#b7b7b7;fill-opacity:1;fill-rule:evenodd;stroke:none;stroke-width:0.09351829;stroke-linecap:butt;stroke-linejoin:miter;stroke-miterlimit:4;stroke-dasharray:none;stroke-opacity:1;opacity:1"
       d="m 14.447546,280.85431 -0.06706,1.8667 1.365937,1.69023 c 0,0 1.327915,-1.51139 1.35027,-1.66788 l -0.07824,-1.92258 z"
       id="path8479"
       inkscape:connector-curvature="0"
       sodipodi:nodetypes="cccccc" />
    <path
       inkscape:connector-curvature="0"
       id="path11696"
       d="m 15.274757,290.07441 -0.428024,-0.42951 0.03832,-0.40905 c 0.02109,-0.22498 0.132191,-1.48078 0.246928,-2.79066 l 0.208611,-2.38161 -0.164827,-0.48178 -0.164824,-0.48178 0.168198,-0.17044 0.168199,-0.17044 h 0.369961 0.369961 l 0.12324,0.12954 c 0.06778,0.0712 0.137468,0.1487 0.154858,0.17212 0.02503,0.0337 0.0013,0.14309 -0.114002,0.52548 l -0.145621,0.48288 0.245384,2.78416 0.245385,2.78416 -0.432583,0.43322 c -0.237921,0.23827 -0.439008,0.43322 -0.44686,0.43322 -0.0078,0 -0.206886,-0.19328 -0.442297,-0.42951 z"
       style="fill:#666666;fill-opacity:1;stroke-width:0.02727032;opacity:1" />
    <path
       style="fill:#999999;fill-rule:evenodd;stroke:none;stroke-width:0.1436501px;stroke-linecap:butt;stroke-linejoin:miter;stroke-opacity:1;opacity:1"
       d="m 15.990085,282.99585 1.528978,0.89525 0.550098,-1.36998 -0.837543,-0.3041 -1.251916,0.55771 z"
       id="path8487"
       inkscape:connector-curvature="0"
       sodipodi:nodetypes="cccccc" />
    <path
       sodipodi:nodetypes="cccccc"
       inkscape:connector-curvature="0"
       id="path8489"
       d="m 15.44607,282.99585 -1.528981,0.89525 -0.550094,-1.36998 0.837542,-0.3041 1.251917,0.55771 z"
       style="fill:#999999;fill-rule:evenodd;stroke:none;stroke-width:0.1436501px;stroke-linecap:butt;stroke-linejoin:miter;stroke-opacity:1;opacity:1" />
    <path
       style="fill:#d5d5d5;fill-opacity:1;fill-rule:evenodd;stroke:none;stroke-width:0.02943886;stroke-linecap:butt;stroke-linejoin:miter;stroke-miterlimit:4;stroke-dasharray:none;stroke-opacity:1;opacity:1"
       d="m 11.718928,287.44435 -0.320684,2.55302 4.878604,0.59989 c 0.992407,-0.92186 1.467477,-1.23729 2.619023,-0.37749 l -0.524565,1.06948 c -0.979253,-0.71388 -0.652712,0.0539 -1.74489,0.44915 l -6.8449656,-0.49459 -0.1561223,-0.18214 0.3899649,-3.84503 z"
       id="path8511"
       inkscape:connector-curvature="0"
       sodipodi:nodetypes="cccccccccc" />
    <g
       id="g8521"
       transform="matrix(0.18703656,0,0,0.18703656,-63.737431,229.57884)">
      <g
         transform="matrix(1.2540771,0,0,1.2540771,-363.48699,-561.52372)"
         id="g8519">
        <path
           style="fill:#929292;fill-opacity:1;fill-rule:evenodd;stroke:none;stroke-width:0.1;stroke-linecap:butt;stroke-linejoin:miter;stroke-miterlimit:4;stroke-dasharray:none;stroke-opacity:1;opacity:1"
           d="m 639.04775,711.8019 13.16987,-23.15774 c 0.18615,-0.33783 0.43833,-0.46104 0.7071,-0.53034 l 26.87006,0.17678 c 0.35455,0.0584 0.47404,0.26753 0.35355,0.53033 l -13.08147,23.33453 c -0.95883,0.76345 -2.13521,1.09181 -3.44715,1.14904 h -24.13002 -16.52862 c -0.42068,-0.34679 -0.77104,-0.71996 -0.26516,-1.41421 z"
           id="path8513"
           inkscape:connector-curvature="0"
           sodipodi:nodetypes="ccccccccccc" />
        <path
           style="fill:#ffffff;fill-rule:evenodd;stroke:#b5b5b5;stroke-width:0.03986996;stroke-linecap:butt;stroke-linejoin:miter;stroke-miterlimit:4;stroke-dasharray:none;stroke-opacity:1;opacity:1"
           d="M 622.46875,712.39346 H 639.75 l 13.43453,-23.77519 26.91409,0.059 c 0.0727,-0.24798 -0.12765,-0.37717 -0.32841,-0.39038 l -26.86379,-0.17472 c -0.31356,0.0306 -0.44473,0.16766 -0.5625,0.3125 l -13.34375,23.4375 -16.22329,0.0424 c -0.17731,0.0469 -0.27325,0.32716 -0.30813,0.48885 z"
           id="path8515"
           inkscape:connector-curvature="0"
           sodipodi:nodetypes="ccccccccccc" />
        <path
           style="fill:#808080;fill-opacity:1;fill-rule:evenodd;stroke:none;stroke-width:0.1;stroke-linecap:butt;stroke-linejoin:miter;stroke-miterlimit:4;stroke-dasharray:none;stroke-opacity:1;opacity:1"
           d="m 643.73011,713.26789 c 20.2561,0.0652 27.93051,-11.76213 32.48494,-24.57954 h 3.97748 l -13.0971,23.40193 c -0.99846,0.99774 -2.07026,1.09569 -3.10922,1.2428 z"
           id="path8517"
           inkscape:connector-curvature="0"
           sodipodi:nodetypes="cccccc" />
      </g>
    </g>
    <path
       sodipodi:nodetypes="cccccc"
       inkscape:connector-curvature="0"
       id="rect15959"
       d="m 19.822996,291.80502 4.926968,-0.22499 -0.498861,0.74508 -9.53746,-0.11161 c -0.139227,-0.13158 -0.284998,-0.27998 -0.366915,-0.39105 z"
       style="opacity:1;fill:#808080;fill-opacity:1;stroke:none;stroke-width:0.69063449;stroke-linecap:square;stroke-linejoin:bevel;stroke-miterlimit:4;stroke-dasharray:none;stroke-dashoffset:0;stroke-opacity:1" />
    <path
       sodipodi:nodetypes="ccccczc"
       inkscape:connector-curvature="0"
       id="path8523"
       d="m 19.932441,291.35177 c 0.107769,-0.39152 0.613982,-0.2395 0.734263,1.9e-4 0.03026,-0.41321 0.807046,-0.59582 0.965505,-0.22281 0.155202,-0.33386 1.160043,-0.26369 0.882848,0.72899 l 0.693182,0.0124 c -0.10142,0.34793 -0.987135,0.7209 -1.802679,0.65572 -0.815546,-0.0652 -1.576788,-0.29243 -1.473119,-1.1745 z"
       style="fill:#d5d5d5;fill-opacity:1;fill-rule:evenodd;stroke:none;stroke-width:0.03740732;stroke-linecap:butt;stroke-linejoin:miter;stroke-miterlimit:4;stroke-dasharray:none;stroke-opacity:1;opacity:1" />
    <path
       sodipodi:nodetypes="ccccccccc"
       inkscape:connector-curvature="0"
       id="path12012"
       d="m 11.911187,287.28326 -0.512943,2.71411 3.992395,0.49092 -0.143521,1.13688 -5.9333276,-0.19429 C 9.1408136,291.37 9.0369206,291.27459 9.0849194,291.10324 l 0.6941633,-3.90166 0.036377,-0.1481 z"
       style="fill:#ffffff;fill-opacity:1;fill-rule:evenodd;stroke:none;stroke-width:0.02943886;stroke-linecap:butt;stroke-linejoin:miter;stroke-miterlimit:4;stroke-dasharray:none;stroke-opacity:1;opacity:1" />
    <g
       id="g8509"
       transform="matrix(0.01051536,0,0,0.01075043,17.220454,282.35589)"
       style="fill:#2a2a2a;fill-opacity:1;opacity:1">
      <path
         inkscape:connector-curvature="0"
         id="path8491"
         d="m 670.87877,627.88432 c 0,0 1.41431,-0.69792 1.84971,-3.09305 7.1e-4,-0.14095 0.002,-0.28204 0.002,-0.42305 l 0.002,-0.42305 c -0.12963,-2.25699 -2.37313,-4.94778 -4.89879,-7.64003 -2.94747,-2.97641 -5.4796,-4.3995 -5.4796,-4.3995 0,0 -1.23953,-5.92916 -6.55869,-14.13541 -5.17808,-8.20554 -14.16295,-16.85347 -19.11338,-14.34028 -4.95044,2.5132 -0.61306,9.58628 -0.34168,11.70296 0.41175,2.25843 2.50917,5.93561 1.80384,5.93203 -0.84573,-0.14537 -11.46468,-20.36525 -38.29709,-14.86091 -6.92043,1.51603 -12.86053,4.44727 -17.67635,8.23032 l -0.23954,47.09964 c 1.70147,-1.68359 2.41113,-2.5261 2.41113,-2.5261 0,0 1.79093,8.47033 5.15728,12.29501 3.36637,3.82467 7.446,6.10176 8.72999,3.28787 1.28328,-2.67286 -2.60793,-14.25633 -2.60793,-14.25633 0,0 7.29991,7.08815 9.40737,8.79112 2.10748,1.70296 6.18783,3.83902 7.33577,0.0373 1.00685,-3.80243 -1.92625,-9.5992 -4.31946,-10.59852 -2.25214,-0.9986 -3.66287,-1.00576 -3.66287,-1.00576 0,0 -1.40137,-1.84039 -2.10388,-2.40805 -0.84357,-0.5684 -0.98464,-0.56909 -0.98464,-0.56909 0,0 1.27323,-0.69864 5.22253,-0.53752 4.0904,0.16181 7.33434,0.31934 7.33434,0.31934 0,0 3.64063,5.37729 5.88918,7.08098 2.10676,1.84397 7.58635,6.24348 9.55204,8.08673 1.82461,1.84258 2.94887,2.69439 3.66214,1.14681 0.57217,-1.54832 -0.39453,-5.64284 -2.91878,-8.61711 -2.66602,-2.83398 -5.47959,-4.3995 -6.45991,-5.81469 -0.83783,-1.6965 -1.39567,-2.96854 -1.39567,-2.96854 0,0 5.20032,3.83401 6.46351,5.10962 1.40499,1.13531 10.68634,6.96435 12.23312,7.95936 1.54608,1.13603 2.255,0.43454 2.255,0.43454 0,0 1.12429,0.85182 1.55036,0.28992 0.42608,-0.56192 1.57404,-4.36362 -1.37701,-6.63496 -3.09139,-2.41309 -4.91959,-3.55055 -4.63602,-3.83115 0.14242,-0.28132 3.24107,0.72159 3.6686,-0.12243 0.28573,-0.70365 -0.13169,-1.83394 -0.55352,-2.11812 -0.28,-0.42448 0.85287,-1.26484 0.85287,-1.26484 0,0 1.1286,0.006 5.78181,0.45246 4.65324,0.44672 16.38233,-3.44219 18.78484,-4.2761 2.40256,-0.83392 3.67507,-1.39152 3.67507,-1.39152 v 0 z m -89.18395,60.18524 c 9.76627,-6.29624 10.27123,-22.37002 4.92628,-25.49965 -1.54678,-0.99502 -3.095,-1.70799 -4.7857,-2.13965 l -0.0373,7.33289 c 0.42179,0.28417 0.84285,0.70937 1.12141,1.4159 0.83782,1.6965 0.40387,3.80961 0.40387,3.80961 0,0 -0.12743,-2.68004 -1.1078,-4.09523 -0.14036,-0.14169 -0.2807,-0.28347 -0.42107,-0.4252 l -0.0996,19.60133 z m 0.47622,-93.63522 c -2.12398,1.54044 -3.96724,3.36432 -5.66942,5.18894 l -0.2374,46.67659 c 1.41502,-0.83892 2.68898,-1.67856 3.8233,-2.80097 0.70895,-0.7015 1.27682,-1.4037 1.84397,-1.96491 z m -6.13131,96.00382 c 2.11826,-0.41229 4.09756,-1.24834 5.65509,-2.3686 l 0.0996,-19.60133 c -0.84069,-1.13245 -1.54247,-1.84112 -1.54247,-1.84112 0,0 0.70393,0.28561 1.54606,1.13603 l 0.0373,-7.33289 c -1.83107,-0.57339 -3.80465,-0.86546 -5.64075,-0.45173 l -0.0624,12.26846 v 0 c 0.42464,-0.2799 1.13072,-0.4173 0.84355,0.56838 -0.14389,0.56334 -0.56716,0.56119 -0.84929,0.55975 v 0 l -0.0366,7.19186 c 0.28214,0.002 0.70537,0.003 0.98821,-0.13595 0,0 -0.28357,0.28059 -0.99036,0.55903 l -0.048,9.44814 z m 0.46189,-90.81488 c -9.92814,10.38503 -14.3652,22.9133 -15.36707,25.7286 -1.57402,4.36362 -11.67049,20.10658 -12.56424,29.4094 -0.75342,9.44454 -1.01139,32.4296 20.41581,35.64102 2.53716,0.43595 4.93538,0.44815 7.05361,0.0359 l 0.048,-9.44814 c -1.97788,0.55402 -6.35398,1.09586 -11.26285,-4.56994 -6.59166,-7.64863 -3.28388,-20.04162 1.9573,-24.24557 3.40008,-2.80313 6.65264,-4.33779 9.48198,-5.87464 l 0.23739,-46.6766 v 0 z m -0.30697,60.35524 -0.0624,12.26846 c -0.42468,0.27986 -0.7068,0.27844 -0.98682,-0.14609 -0.28643,0.84468 0.27571,1.27057 0.98108,1.27416 l -0.0366,7.19187 c -4.51647,0.40008 -10.70358,-3.57996 -9.12021,-9.77679 1.86979,-7.04154 5.2713,-10.12667 9.22492,-10.81167 z"
         style="fill:#2a2a2a;fill-opacity:1;stroke:none;opacity:1" />
      <g
         id="g8495"
         transform="matrix(0.67529885,0.00343447,-0.00343313,0.67503372,391.44175,224.96591)"
         inkscape:transform-center-y="-65.497173"
         style="fill:#2a2a2a;fill-opacity:1;opacity:1">
        <path
           style="fill:#2a2a2a;fill-opacity:1;stroke:none;opacity:1"
           d="m 317.497,435.66599 13.283,-0.49733 c 7.12992,-0.26696 16.9201,4.73977 16.36027,13.87359 l -3.48135,56.79988 c -0.43649,7.12156 -3.50599,10.88958 -9.1489,10.88958 h -17.51036 c -7.13493,0 -10.13574,-4.51857 -10.6409,-11.63558 l -3.97869,-56.05388 c -0.50516,-7.11701 4.99786,-12.99738 15.11693,-13.37626 z"
           id="path8493"
           inkscape:connector-curvature="0"
           sodipodi:nodetypes="sssssssss" />
      </g>
      <g
         inkscape:transform-center-y="-53.403829"
         transform="matrix(0.5509376,-0.44632896,0.44650645,0.55072309,163.59292,448.32869)"
         id="g8499"
         inkscape:transform-center-x="43.829697"
         style="fill:#2a2a2a;fill-opacity:1;opacity:1">
        <path
           sodipodi:nodetypes="sssssssss"
           inkscape:connector-curvature="0"
           id="path8497"
           d="m 317.497,435.66599 13.283,-0.49733 c 7.12992,-0.26696 16.9201,4.73977 16.36027,13.87359 l -3.48135,56.79988 c -0.43649,7.12156 -3.50599,10.88958 -9.1489,10.88958 h -17.51036 c -7.13493,0 -10.13574,-4.51857 -10.6409,-11.63558 l -3.97869,-56.05388 c -0.50516,-7.11701 4.99786,-12.99738 15.11693,-13.37626 z"
           style="fill:#2a2a2a;fill-opacity:1;stroke:none;opacity:1" />
      </g>
      <g
         inkscape:transform-center-x="63.28487"
         id="g8503"
         transform="matrix(0.14153282,-0.65409844,0.65435592,0.14147986,169.00482,760.52157)"
         inkscape:transform-center-y="-14.415814"
         style="fill:#2a2a2a;fill-opacity:1;opacity:1">
        <path
           style="fill:#2a2a2a;fill-opacity:1;stroke:none;opacity:1"
           d="m 317.497,435.66599 13.283,-0.49733 c 7.12992,-0.26696 16.9201,4.73977 16.36027,13.87359 l -3.48135,56.79988 c -0.43649,7.12156 -3.50599,10.88958 -9.1489,10.88958 h -17.51036 c -7.13493,0 -10.13574,-4.51857 -10.6409,-11.63558 l -3.97869,-56.05388 c -0.50516,-7.11701 4.99786,-12.99738 15.11693,-13.37626 z"
           id="path8501"
           inkscape:connector-curvature="0"
           sodipodi:nodetypes="sssssssss" />
      </g>
      <g
         inkscape:transform-center-y="24.205256"
         transform="matrix(-0.24306426,-0.46928712,0.46947045,-0.24296696,376.9741,933.02481)"
         id="g8507"
         inkscape:transform-center-x="45.418014"
         style="fill:#2a2a2a;fill-opacity:1;opacity:1">
        <path
           sodipodi:nodetypes="sssssssss"
           inkscape:connector-curvature="0"
           id="path8505"
           d="m 317.497,435.66599 13.283,-0.49733 c 7.12992,-0.26696 16.9201,4.73977 16.36027,13.87359 l -3.48135,56.79988 c -0.43649,7.12156 -3.50599,10.88958 -9.1489,10.88958 h -17.51036 c -7.13493,0 -10.13574,-4.51857 -10.6409,-11.63558 l -3.97869,-56.05388 c -0.50516,-7.11701 4.99786,-12.99738 15.11693,-13.37626 z"
           style="fill:#2a2a2a;fill-opacity:1;stroke:none;opacity:1" />
      </g>
    </g>
    <g
       transform="matrix(0.24525615,0,0,0.24525615,-113.37963,208.37163)"
       id="g23219">
      <path
         style="fill:#cccccc;fill-opacity:1;fill-rule:evenodd;stroke:none;stroke-width:0.70697176px;stroke-linecap:butt;stroke-linejoin:miter;stroke-opacity:1;opacity:1"
         d="m 508.68837,285.92496 c -6.29981,0.81433 -7.31705,-8.97418 -2.3746,-11.46003 -1.91124,-29.43712 42.52401,-26.62153 39.54227,-0.51623 6.19915,2.32673 4.88851,11.79968 -1.44542,12.38923 -9.14176,14.29342 -26.04088,16.98128 -35.72225,-0.41297 z"
         id="path8525"
         inkscape:connector-curvature="0"
         sodipodi:nodetypes="ccccc" />
      <rect
         style="opacity:1;fill:#000000;fill-opacity:1;stroke:none;stroke-width:0.28278869;stroke-linecap:round;stroke-linejoin:round;stroke-miterlimit:4;stroke-dasharray:none;stroke-opacity:1"
         id="rect8531"
         width="7.3369222"
         height="2.336134"
         x="512.64423"
         y="272.53043"
         ry="1.168067" />
      <rect
         ry="1.168067"
         y="272.47879"
         x="532.77673"
         height="2.336134"
         width="7.3369222"
         id="rect8533"
         style="opacity:1;fill:#000000;fill-opacity:1;stroke:none;stroke-width:0.28278869;stroke-linecap:round;stroke-linejoin:round;stroke-miterlimit:4;stroke-dasharray:none;stroke-opacity:1" />
      <path
         style="fill:#000000;fill-opacity:1;fill-rule:evenodd;stroke:none;stroke-width:0.70697176px;stroke-linecap:butt;stroke-linejoin:miter;stroke-opacity:1;opacity:1"
         d="m 510.73035,262.3087 c -4.10727,2.59543 -2.2721,10.43346 -2.62815,16.27994 0.26125,1.27549 -1.16538,1.5675 -1.38708,0.10951 -0.72734,-14.5993 -7.0084,-22.20546 -1.46008,-33.69145 12.70272,8.25764 23.58034,-1.93269 37.30514,3.57721 l 0.14601,-3.35819 c 1.52276,0.70198 2.96709,3.04437 2.04411,6.13236 0,0 3.43121,-1.20457 5.43881,2.11711 -1.98242,-0.45941 -3.58993,0.33549 -3.54071,0.36502 3.96842,2.32421 0.43804,15.81759 -1.02205,24.05489 -0.12211,1.23923 -1.65819,1.38435 -1.64258,-0.21902 -0.50672,-5.23583 2.45073,-13.61415 -2.29964,-15.36738 -9.96647,2.25602 -22.42851,2.3057 -30.95378,0 z"
         id="path8535"
         inkscape:connector-curvature="0"
         sodipodi:nodetypes="ccccccccccccc" />
      <g
         id="g20757"
         transform="translate(-9.8332037,0.11048543)">
        <path
           id="path8537"
           d="m 538.51842,284.20561 a 2.1423031,1.1614896 0 0 1 -2.14231,1.16149 2.1423031,1.1614896 0 0 1 -2.14231,-1.16149 2.1423031,1.1614896 0 0 1 2.14231,-1.16148 2.1423031,1.1614896 0 0 1 2.14231,1.16148 z"
           style="opacity:1;fill:#bfbfbf;fill-opacity:1;stroke:none;stroke-width:0.35348588;stroke-linecap:round;stroke-linejoin:round;stroke-miterlimit:4;stroke-dasharray:none;stroke-opacity:1"
           inkscape:connector-curvature="0" />
        <path
           sodipodi:nodetypes="sssss"
           inkscape:connector-curvature="0"
           style="opacity:1;fill:#cccccc;fill-opacity:1;stroke:none;stroke-width:0.35348588;stroke-linecap:round;stroke-linejoin:round;stroke-miterlimit:4;stroke-dasharray:none;stroke-opacity:1"
           d="m 538.82869,284.70646 c 0,0.55637 -1.08172,1.00742 -2.41609,1.00742 -1.33435,0 -2.41607,-0.45105 -2.41606,-1.00742 0,-0.55639 1.07259,-0.84913 2.40694,-0.84913 1.33436,0 2.42519,0.29274 2.42521,0.84913 z"
           id="path8539" />
      </g>
      <g
         id="g12235"
         transform="matrix(1.0000876,0,0,1.0000876,-28.885823,103.91178)">
        <ellipse
           ry="3.0294085"
           rx="2.4089274"
           cy="175.13718"
           cx="545.242"
           id="ellipse8527"
           style="opacity:1;fill:#ffffff;fill-opacity:1;stroke:none;stroke-width:0.28276393;stroke-linecap:round;stroke-linejoin:round;stroke-miterlimit:4;stroke-dasharray:none;stroke-opacity:1" />
        <ellipse
           style="opacity:1;fill:#ffffff;fill-opacity:1;stroke:none;stroke-width:0.28276393;stroke-linecap:round;stroke-linejoin:round;stroke-miterlimit:4;stroke-dasharray:none;stroke-opacity:1"
           id="ellipse8529"
           cx="565.3894"
           cy="175.35617"
           rx="2.4089274"
           ry="3.0294085" />
        <ellipse
           ry="2.4538374"
           rx="1.3417565"
           cy="175.45721"
           cx="564.30396"
           id="ellipse8541"
           style="opacity:1;fill:#000000;fill-opacity:1;stroke:none;stroke-width:0.28276393;stroke-linecap:round;stroke-linejoin:round;stroke-miterlimit:4;stroke-dasharray:none;stroke-opacity:1" />
        <ellipse
           style="opacity:1;fill:#000000;fill-opacity:1;stroke:none;stroke-width:0.28276393;stroke-linecap:round;stroke-linejoin:round;stroke-miterlimit:4;stroke-dasharray:none;stroke-opacity:1"
           id="ellipse8543"
           cx="546.34119"
           cy="175.1991"
           rx="1.3417565"
           ry="2.4538374" />
      </g>
      <path
         style="color:#000000;font-style:normal;font-variant:normal;font-weight:normal;font-stretch:normal;font-size:medium;line-height:normal;font-family:sans-serif;text-indent:0;text-align:start;text-decoration:none;text-decoration-line:none;text-decoration-style:solid;text-decoration-color:#000000;letter-spacing:normal;word-spacing:normal;text-transform:none;writing-mode:lr-tb;direction:ltr;baseline-shift:baseline;text-anchor:start;white-space:normal;clip-rule:nonzero;display:inline;overflow:visible;visibility:visible;opacity:0.5;isolation:auto;mix-blend-mode:normal;color-interpolation:sRGB;color-interpolation-filters:linearRGB;solid-color:#000000;solid-opacity:1;fill:#bfbfbf;fill-opacity:1;fill-rule:evenodd;stroke:none;stroke-width:0.49488023;stroke-linecap:round;stroke-linejoin:round;stroke-miterlimit:4;stroke-dasharray:none;stroke-dashoffset:0;stroke-opacity:1;color-rendering:auto;image-rendering:auto;shape-rendering:auto;text-rendering:auto;enable-background:accumulate"
         d="m 547.38639,278.35851 c -0.29463,-0.1933 -0.6609,-0.16845 -0.93955,10e-4 -0.55729,0.33965 -0.83816,1.17188 -0.5629,2.11841 0.10609,0.36485 0.29621,0.64812 0.53298,0.78454 0.31725,0.0513 0.53067,0.0133 0.67306,-0.27875 0.0263,0.0425 0.0651,0.13407 0.10605,0.25562 0.0368,1.07767 -0.46109,1.79017 -1.4535,1.82562 -0.34104,-0.0159 -0.33954,0.36911 10e-4,0.35125 1.555,-0.0701 2.3798,-1.52038 1.81409,-2.89765 -0.23144,-0.32669 -0.45469,-0.14686 -0.72091,0.0423 -0.1935,0.13753 -0.39771,0.008 -0.4922,-0.23928 -0.16926,-0.72615 0.12659,-1.30947 0.45948,-1.42337 0.3329,-0.11389 0.5474,0.24868 0.71258,0.65648 0.0626,0.31908 0.54116,0.22525 0.47861,-0.0938 -0.10677,-0.54135 -0.31452,-0.9094 -0.60914,-1.10271 z"
         id="path8545"
         inkscape:connector-curvature="0"
         sodipodi:nodetypes="ccsccccccsczcccc" />
      <path
         sodipodi:nodetypes="ccsccccccsczcccc"
         inkscape:connector-curvature="0"
         id="path8547"
         d="m 505.15954,278.94989 c 0.26168,-0.236 0.62746,-0.26732 0.92875,-0.14198 0.60259,0.25064 1.00715,1.03027 0.87955,2.00771 -0.0492,0.37677 -0.19387,0.68574 -0.40707,0.85669 -0.30568,0.0992 -0.52241,0.0941 -0.70769,-0.1728 -0.0195,0.046 -0.0438,0.14243 -0.0658,0.26881 0.12803,1.07066 0.72884,1.69886 1.71504,1.58247 0.3346,-0.0678 0.39188,0.31298 0.0522,0.34735 -1.54751,0.16793 -2.58392,-1.13947 -2.23498,-2.58694 0.1789,-0.35817 0.42697,-0.21452 0.71894,-0.0681 0.21221,0.10637 0.39427,-0.0528 0.44994,-0.31159 0.0564,-0.74348 -0.32491,-1.27482 -0.67128,-1.3366 -0.34638,-0.0617 -0.50305,0.32929 -0.60408,0.75753 -0.0131,0.32488 -0.50046,0.30517 -0.48732,-0.0197 0.0229,-0.5513 0.17208,-0.94675 0.43377,-1.18274 z"
         style="color:#000000;font-style:normal;font-variant:normal;font-weight:normal;font-stretch:normal;font-size:medium;line-height:normal;font-family:sans-serif;text-indent:0;text-align:start;text-decoration:none;text-decoration-line:none;text-decoration-style:solid;text-decoration-color:#000000;letter-spacing:normal;word-spacing:normal;text-transform:none;writing-mode:lr-tb;direction:ltr;baseline-shift:baseline;text-anchor:start;white-space:normal;clip-rule:nonzero;display:inline;overflow:visible;visibility:visible;opacity:0.5;isolation:auto;mix-blend-mode:normal;color-interpolation:sRGB;color-interpolation-filters:linearRGB;solid-color:#000000;solid-opacity:1;fill:#bfbfbf;fill-opacity:1;fill-rule:evenodd;stroke:none;stroke-width:0.49488023;stroke-linecap:round;stroke-linejoin:round;stroke-miterlimit:4;stroke-dasharray:none;stroke-dashoffset:0;stroke-opacity:1;color-rendering:auto;image-rendering:auto;shape-rendering:auto;text-rendering:auto;enable-background:accumulate" />
      <g
         transform="matrix(0.49413673,0,0,0.49413673,242.45785,210.9072)"
         id="g8553">
        <path
           sodipodi:nodetypes="ccc"
           inkscape:connector-curvature="0"
           id="path8549"
           d="m 565.23696,157.25549 18.7939,-0.20652 c -2.19111,10.91659 -17.34765,8.7972 -18.7939,0.20652 z"
           style="fill:#ffffff;fill-rule:evenodd;stroke:none;stroke-width:0.40000001;stroke-linecap:butt;stroke-linejoin:miter;stroke-miterlimit:4;stroke-dasharray:none;stroke-opacity:1;opacity:1" />
        <path
           sodipodi:nodetypes="cccc"
           inkscape:connector-curvature="0"
           id="path8551"
           d="m 566.43604,160.2444 16.44277,-0.0548 c -0.97249,1.79849 -3.0549,4.1525 -7.68972,4.33546 -4.58894,-0.0878 -7.40654,-2.19196 -8.75305,-4.28069 z"
           style="fill:#999999;fill-rule:evenodd;stroke:none;stroke-width:1px;stroke-linecap:butt;stroke-linejoin:miter;stroke-opacity:1;opacity:1" />
      </g>
      <path
         style="fill:#191919;fill-opacity:1;stroke-width:0.70697176;opacity:1"
         d="m 514.82303,284.92355 c -1.08175,-0.12431 -2.09011,-0.47846 -2.90224,-1.0193 -0.43208,-0.28775 -1.16008,-0.97622 -1.4698,-1.38999 -0.81148,-1.08406 -1.13657,-2.37372 -1.27069,-5.04109 -0.0431,-0.858 -0.0773,-1.43297 -0.0851,-1.43335 -0.1264,-0.006 -0.85756,-0.10581 -0.88204,-0.12015 -0.0322,-0.0189 -0.0331,-2.40826 -0.001,-2.40847 0.0147,-10e-5 1.4315,-0.21028 2.72924,-0.4049 0.94441,-0.14163 1.55378,-0.2191 2.70646,-0.34406 0.63859,-0.0692 0.8724,-0.0771 2.26132,-0.0759 2.90439,0.002 4.40839,0.20427 7.37154,0.98934 1.2104,0.32069 1.78523,0.44487 2.42857,0.52464 0.33166,0.0411 0.43778,0.0411 0.76945,0 0.64331,-0.0798 1.21816,-0.20395 2.42855,-0.52464 2.96316,-0.78507 4.46715,-0.98693 7.37156,-0.98934 1.3889,-10e-4 1.62273,0.007 2.26131,0.0759 1.15268,0.12496 1.76204,0.20243 2.70646,0.34406 1.29772,0.19462 2.71444,0.4048 2.72924,0.4049 0.0322,1.5e-4 0.0315,2.38957 -10e-4,2.40847 -0.0245,0.0143 -0.75567,0.11394 -0.88206,0.12015 -0.008,4.4e-4 -0.042,0.57535 -0.0851,1.43335 -0.13413,2.66737 -0.45921,3.95703 -1.27069,5.04109 -0.30972,0.41377 -1.03773,1.10224 -1.46978,1.38999 -1.28996,0.85904 -2.95738,1.20821 -4.87088,1.01998 -1.35104,-0.13292 -2.33054,-0.38505 -3.33754,-0.85913 -1.07779,-0.5074 -1.86263,-1.14574 -2.50793,-2.03978 -0.60559,-0.83898 -1.11783,-1.97438 -1.47657,-3.27282 -0.26358,-0.95398 -0.35617,-1.22417 -0.54674,-1.59537 -0.19877,-0.38716 -0.48151,-0.68834 -0.78116,-0.83211 -0.19673,-0.0944 -0.23016,-0.0995 -0.6525,-0.0995 -0.42233,0 -0.45576,0.005 -0.65249,0.0995 -0.29965,0.14377 -0.58239,0.44495 -0.78115,0.83211 -0.19057,0.3712 -0.28317,0.64139 -0.54674,1.59537 -0.35875,1.29844 -0.871,2.43384 -1.47657,3.27282 -0.64531,0.89404 -1.43014,1.53238 -2.50794,2.03978 -0.60485,0.28475 -1.05154,0.43932 -1.74494,0.60378 -1.15409,0.27373 -2.53563,0.37253 -3.56121,0.25467 z m 1.90526,-1.12876 c 0.91563,-0.0903 1.93069,-0.32144 2.40377,-0.54734 1.41905,-0.67757 2.91534,-2.42347 3.50378,-4.08829 0.2297,-0.64988 0.2988,-1.02728 0.29942,-1.63541 5e-4,-0.57772 -0.0477,-0.85907 -0.2278,-1.33064 -0.52087,-1.36303 -1.75542,-2.0349 -4.16297,-2.26562 -1.18282,-0.11333 -4.2484,-0.071 -5.27907,0.0728 -1.07017,0.1494 -1.69716,0.57362 -2.1513,1.45556 -0.26764,0.51977 -0.3027,0.74596 -0.32321,2.08472 -0.0195,1.2752 0.0155,1.85451 0.15107,2.49598 0.0947,0.44818 0.31676,1.092 0.48652,1.4104 0.73473,1.3782 1.97464,2.15839 3.75072,2.36011 0.23681,0.0269 1.23183,0.019 1.54908,-0.0124 z m 20.80066,-0.0616 c 1.50464,-0.29375 2.5707,-1.04813 3.23072,-2.28615 0.16974,-0.3184 0.39182,-0.96222 0.4865,-1.4104 0.13553,-0.64147 0.17058,-1.22078 0.15107,-2.49598 -0.0205,-1.33876 -0.0556,-1.56495 -0.32321,-2.08472 -0.45412,-0.88194 -1.08113,-1.30616 -2.15129,-1.45556 -1.03068,-0.14388 -4.09626,-0.18617 -5.27907,-0.0728 -1.40233,0.13437 -2.39569,0.41795 -3.07714,0.87838 -0.62253,0.42063 -1.0599,1.09418 -1.25272,1.92922 -0.0925,0.40067 -0.0841,1.20372 0.0176,1.66537 0.42484,1.93009 2.05293,4.04873 3.72474,4.84699 0.45424,0.21689 1.46082,0.45042 2.35964,0.54746 0.47457,0.0512 1.72109,0.0148 2.11324,-0.0618 z"
         id="path8555"
         inkscape:connector-curvature="0"
         sodipodi:nodetypes="cssccccsscsccsccscccsccsssccssccssssccccsccssscssccccssccssscssccc" />
      <path
         style="fill:#000000;fill-opacity:1;fill-rule:nonzero;stroke:none;stroke-width:0.1163318;opacity:1"
         d="m 531.85337,299.09267 c -2.84556,1.15756 -7.64987,0.74397 -10.69726,0.13281 -4.07391,-0.81781 -8.78713,-1.22849 -11.17969,-8.91211 -1.09422,-3.51404 -2.49733,-6.04312 -2.61328,-10.88867 -0.0134,-0.56105 0.0451,-0.76644 0.73828,-0.83594 1.25063,4.06579 2.3169,7.02041 3.15039,9.60938 0.83349,2.58897 2.2225,4.10446 4.37109,5.82617 1.09009,0.87714 10.12995,3.89026 9.12834,1.11109 -0.25939,-0.71893 0.62476,-1.20317 1.17382,-0.89257 0.60498,0.10005 0.69926,0.0821 1.28321,-0.0703 1.10632,-0.28733 1.27058,0.63423 1.23828,0.77149 -0.67705,2.82106 2.99401,1.19773 4.19106,0.64748 0.65383,-0.29604 1.30829,-0.73478 2.04664,-0.89162 1.28581,-0.46158 1.75392,-1.12604 2.12615,-1.42555 2.14859,-1.72171 3.53761,-3.2372 4.3711,-5.82617 0.83349,-2.58897 1.89976,-5.54359 3.15039,-9.60938 0.69319,0.0695 0.75171,0.27489 0.73828,0.83594 -0.11595,4.84555 -1.51711,7.37463 -2.61133,10.88867 -0.90504,2.80487 -3.46825,6.42031 -8.3492,8.59624 z"
         id="path16575"
         inkscape:connector-curvature="0"
         sodipodi:nodetypes="ccsccsccccccccsccccc" />
      <path
         style="fill:#000000;stroke-width:0.04984577;opacity:1"
         d="m 519.26383,288.68528 c 0.002,-1.11154 0.0737,-1.57842 0.31941,-2.0772 0.22284,-0.45231 0.64536,-0.86068 1.05805,-1.02265 0.36442,-0.14303 1.19153,-0.17976 2.24301,-0.0996 0.87757,0.0669 1.3539,0.0192 1.89884,-0.18982 0.52929,-0.2031 0.80986,-0.23075 1.31707,-0.12979 0.3199,0.0637 0.46232,0.0714 0.58697,0.0322 0.49545,-0.15632 0.89658,-0.11694 1.66906,0.16385 0.42679,0.15513 0.80995,0.17264 2.32957,0.10647 1.08619,-0.0473 1.14596,-0.26207 1.58782,-0.04 1.37809,0.81743 0.97108,1.96271 0.27483,2.95133 -0.5175,-0.54578 -1.33757,-0.77899 -1.70538,-0.95732 -0.41662,-0.20199 -0.75113,-0.0247 -2.05044,-0.0808 -1.17371,-0.0507 -1.67332,-0.13171 -2.08072,-0.33752 l -0.23923,-0.12086 -0.25933,0.12725 c -0.41055,0.20149 -0.87367,0.27518 -2.07418,0.33001 -1.56144,0.0713 -2.05053,0.1917 -2.39978,0.5907 -0.78463,0.30723 -1.03641,0.77036 -2.47557,0.75373 z"
         id="path20784"
         inkscape:connector-curvature="0"
         sodipodi:nodetypes="ccccccccccccccccccc" />
    </g>
    <g
       id="g8563"
       transform="matrix(0.26458334,0,0,0.26458334,50.054142,242.99832)">
      <path
         style="opacity:1;fill:#b3b3b3;fill-opacity:1;stroke:none;stroke-width:0.97081232;stroke-linecap:square;stroke-linejoin:bevel;stroke-miterlimit:4;stroke-dasharray:none;stroke-dashoffset:0;stroke-opacity:1"
         d="m -155.93619,189.25343 h 61.510348 v 14.80163 h -61.510348 z"
         id="path8559"
         inkscape:connector-curvature="0"
         sodipodi:nodetypes="ccccc" />
      <rect
         ry="1.205552"
         y="186.70354"
         x="-161.47447"
         height="4.9491081"
         width="72.586922"
         id="rect8561"
         style="opacity:1;fill:#808080;fill-opacity:1;stroke:none;stroke-width:0.89871705;stroke-linecap:square;stroke-linejoin:bevel;stroke-miterlimit:4;stroke-dasharray:none;stroke-dashoffset:0;stroke-opacity:1" />
    </g>
    <circle
       style="opacity:1;fill:#5f5f5f;fill-opacity:1;stroke:none;stroke-width:0.11864346;stroke-linecap:square;stroke-linejoin:bevel;stroke-miterlimit:4;stroke-dasharray:none;stroke-dashoffset:0;stroke-opacity:0.24333335"
       id="circle12465"
       cx="27.505938"
       cy="268.80304"
       r="4.4737473" />
    <circle
       r="3.8016222"
       cy="268.80304"
       cx="27.505938"
       id="path12463"
       style="opacity:1;fill:#ffffff;fill-opacity:1;stroke:none;stroke-width:0.10081875;stroke-linecap:square;stroke-linejoin:bevel;stroke-miterlimit:4;stroke-dasharray:none;stroke-dashoffset:0;stroke-opacity:0.24333335" />
  </g>
</svg>
