<?xml version="1.0" encoding="UTF-8" standalone="no"?>
<!-- Created with Inkscape (http://www.inkscape.org/) -->

<svg
   xmlns:dc="http://purl.org/dc/elements/1.1/"
   xmlns:cc="http://creativecommons.org/ns#"
   xmlns:rdf="http://www.w3.org/1999/02/22-rdf-syntax-ns#"
   xmlns:svg="http://www.w3.org/2000/svg"
   xmlns="http://www.w3.org/2000/svg"
   xmlns:sodipodi="http://sodipodi.sourceforge.net/DTD/sodipodi-0.dtd"
   xmlns:inkscape="http://www.inkscape.org/namespaces/inkscape"
   width="128"
   height="128"
   viewBox="0 0 33.866666 33.866668"
   version="1.1"
   id="svg1568"
   inkscape:version="0.92.3 (unknown)"
   sodipodi:docname="coursestudent.svg">
  <defs
     id="defs1562" />
  <sodipodi:namedview
     id="base"
     pagecolor="#ffffff"
     bordercolor="#666666"
     borderopacity="1.0"
     inkscape:pageopacity="0.0"
     inkscape:pageshadow="2"
     inkscape:zoom="5.6"
     inkscape:cx="72.657237"
     inkscape:cy="70.787776"
     inkscape:document-units="mm"
     inkscape:current-layer="layer1"
     showgrid="false"
     inkscape:window-width="1920"
     inkscape:window-height="1016"
     inkscape:window-x="0"
     inkscape:window-y="27"
     inkscape:window-maximized="1"
     units="px" />
  <metadata
     id="metadata1565">
    <rdf:RDF>
      <cc:Work
         rdf:about="">
        <dc:format>image/svg+xml</dc:format>
        <dc:type
           rdf:resource="http://purl.org/dc/dcmitype/StillImage" />
        <dc:title />
      </cc:Work>
    </rdf:RDF>
  </metadata>
  <g
     inkscape:label="Capa 1"
     inkscape:groupmode="layer"
     id="layer1"
     transform="translate(0,-263.13332)">
    <rect
       style="opacity:1;fill:#231816;fill-opacity:1;stroke:none;stroke-width:0.07535411;stroke-linecap:square;stroke-linejoin:bevel;stroke-miterlimit:4;stroke-dasharray:none;stroke-dashoffset:0;stroke-opacity:0.24333335"
       id="rect12368"
       width="7.2434902"
       height="1.8259211"
       x="12.176307"
       y="291.67029"
       ry="0" />
    <path
       inkscape:connector-curvature="0"
       id="rect6760"
       d="M 1.5025849e-7,263.13332 H 33.866668 v 33.86666 H 1.5025849e-7 Z"
       style="opacity:1;fill:#f5ffce;fill-opacity:1;stroke:none;stroke-width:0.79374999;stroke-linecap:square;stroke-linejoin:bevel;stroke-miterlimit:4;stroke-dasharray:none;stroke-dashoffset:0;stroke-opacity:1" />
    <path
       style="opacity:1;fill:#231816;fill-opacity:1;stroke:none;stroke-width:0.79374999;stroke-linecap:square;stroke-linejoin:bevel;stroke-miterlimit:4;stroke-dasharray:none;stroke-dashoffset:0;stroke-opacity:1"
       d="m 12.17631,291.67028 h 7.243493 l 0.35273,1.8994 h -7.948956 z"
       id="rect15077"
       inkscape:connector-curvature="0"
       sodipodi:nodetypes="ccccc" />
    <g
       id="g12294"
       transform="matrix(0.26458333,0,0,0.26458333,49.961838,242.99832)">
      <path
         style="opacity:1;fill:#917c6f;fill-opacity:1;stroke:none;stroke-width:0.97081232;stroke-linecap:square;stroke-linejoin:bevel;stroke-miterlimit:4;stroke-dasharray:none;stroke-dashoffset:0;stroke-opacity:1"
         d="m -155.93619,189.25343 h 61.510348 v 14.80163 h -61.510348 z"
         id="path12290"
         inkscape:connector-curvature="0"
         sodipodi:nodetypes="ccccc" />
      <path
         inkscape:connector-curvature="0"
         style="opacity:1;fill:#483737;fill-opacity:1;stroke:none;stroke-width:0.89871705;stroke-linecap:square;stroke-linejoin:bevel;stroke-miterlimit:4;stroke-dasharray:none;stroke-dashoffset:0;stroke-opacity:1"
         d="m -160.26892,186.70354 h 70.175818 c 0.667875,0 1.205552,0.53767 1.205552,1.20555 v 2.538 c 0,0.66788 -0.537677,1.20556 -1.205552,1.20556 h -70.175818 c -0.66788,0 -1.20555,-0.53768 -1.20555,-1.20556 v -2.538 c 0,-0.66788 0.53767,-1.20555 1.20555,-1.20555 z"
         id="rect12292" />
    </g>
    <path
       style="fill:#ffad74;fill-opacity:1;fill-rule:evenodd;stroke:none;stroke-width:0.09107698;stroke-linecap:butt;stroke-linejoin:miter;stroke-miterlimit:4;stroke-dasharray:none;stroke-opacity:1"
       d="m 14.721585,281.16509 -0.06532,1.81797 1.330283,1.64611 c 0,0 1.293249,-1.47193 1.315023,-1.62434 l -0.0762,-1.8724 z"
       id="path13758"
       inkscape:connector-curvature="0"
       sodipodi:nodetypes="cccccc" />
    <path
       style="fill:#ffc699;fill-opacity:1;fill-rule:evenodd;stroke:none;stroke-width:0.18215396px;stroke-linecap:butt;stroke-linejoin:miter;stroke-opacity:1"
       d="m 7.5715582,277.05498 c 1.2863232,1.5127 2.8601488,3.08036 4.1675048,4.46988 l -0.847693,0.89222 C 9.5026938,281.16594 8.197026,279.84563 6.5262996,278.3334 Z"
       id="path13948"
       inkscape:connector-curvature="0"
       sodipodi:nodetypes="ccccc" />
    <path
       style="fill:#ffc699;fill-opacity:1;fill-rule:evenodd;stroke:none;stroke-width:0.01521517;stroke-linecap:butt;stroke-linejoin:miter;stroke-miterlimit:4;stroke-dasharray:none;stroke-opacity:1"
       d="m 8.3194248,274.30442 c -0.5639021,0.85514 -0.3479151,1.79265 -0.2970323,2.43865 0.050888,0.646 -0.4678482,1.94442 -2.0967344,1.85084 -0.3788343,-0.0218 -0.6073957,-0.35362 -0.708291,-0.73933 C 4.7688,277.65213 4.3103808,277.58234 3.8559167,277.45937 3.6497635,277.3187 3.5280473,276.82863 3.9669844,276.81321 l 1.2252706,0.26486 -1.4561734,-0.74403 c -0.3564261,-0.218 -0.2701133,-0.94975 0.1290471,-0.82458 l 1.3827369,0.69245 -1.2636822,-1.0321 c -0.3057125,-0.41305 -0.089141,-1.09946 0.3685085,-0.88858 0.4323548,0.3217 1.0016141,0.8269 1.6079066,1.23091 -0.3859059,-0.4625 -0.8024718,-0.87269 -1.1314655,-1.43227 -0.3073475,-0.42625 0.1228855,-1.15095 0.6070809,-0.71101 0.4546148,0.76019 1.016985,1.42346 1.571982,2.09336 -0.079998,-0.73537 0.082694,-1.04831 0.3119878,-1.42991 0.2392947,-0.39824 0.9878518,-0.2049 0.9992411,0.27211 z"
       id="path13938"
       inkscape:connector-curvature="0"
       sodipodi:nodetypes="czscccccccccccccsc" />
    <g
       id="g13962"
       transform="matrix(-0.1817848,-0.01159091,-0.01159091,0.1817848,100.11192,186.52817)">
      <path
         style="fill:#ffc699;fill-opacity:1;fill-rule:evenodd;stroke:none;stroke-width:1px;stroke-linecap:butt;stroke-linejoin:miter;stroke-opacity:1"
         d="m 379.92157,581.46837 c 9.23502,-5.79201 18.99595,-13.10248 27.57843,-19.10616 l 4.17678,5.31066 c -7.89495,6.55489 -16.1001,12.60413 -25.63649,20.48484 z"
         id="path13964"
         inkscape:connector-curvature="0"
         sodipodi:nodetypes="ccccc" />
      <path
         style="fill:#ffd0ab;fill-opacity:1;fill-rule:evenodd;stroke:none;stroke-width:0.1;stroke-linecap:butt;stroke-linejoin:miter;stroke-miterlimit:4;stroke-dasharray:none;stroke-opacity:1"
         d="m 362.44076,572.14544 c 5.02788,4.477 11.3298,3.95971 15.57949,4.24029 4.24967,0.28056 12.20331,4.88345 10.05281,15.3889 -0.50015,2.44329 -2.87486,3.61569 -5.47903,3.90678 -1.7413,2.72577 -2.62911,5.6412 -3.85913,8.48058 -1.11001,1.20761 -4.4126,1.53533 -4.09736,-1.33402 l 2.88244,-7.71829 -6.2175,8.76645 c -1.75521,2.1118 -6.43276,0.85773 -5.2408,-1.61989 l 5.81253,-8.33764 -5.20893,5.47361 c -2.97579,1.59732 -7.23512,-0.461 -5.43039,-3.23787 2.50157,-2.50746 3.62628,-3.96342 6.82782,-7.52419 -3.37334,2.07206 -0.53356,1.85882 -4.48443,3.46884 -3.06329,1.59545 -7.36933,-1.88875 -4.04971,-4.62143 5.37455,-2.23714 4.31885,-2.73261 9.20115,-5.7081 -4.85854,-0.17581 -6.73978,-1.53015 -9.00465,-3.3827 -2.36357,-1.9333 -0.39752,-6.6188 2.71569,-6.24132 z"
         id="path13966"
         inkscape:connector-curvature="0"
         sodipodi:nodetypes="czscccccccccccccsc" />
    </g>
    <g
       id="g12229"
       transform="matrix(0.06759272,0.03203517,-0.03549928,0.07490184,61.940014,266.74716)">
      <rect
         ry="4.8882575"
         y="381.78214"
         x="-364.3974"
         height="97.765152"
         width="80.434059"
         id="rect12212"
         style="opacity:1;fill:#231816;fill-opacity:1;stroke:none;stroke-width:0.30000001;stroke-linecap:square;stroke-linejoin:bevel;stroke-miterlimit:4;stroke-dasharray:none;stroke-dashoffset:0;stroke-opacity:0.24333335" />
      <rect
         style="opacity:1;fill:#b7c4c8;fill-opacity:1;stroke:none;stroke-width:0.25486109;stroke-linecap:square;stroke-linejoin:bevel;stroke-miterlimit:4;stroke-dasharray:none;stroke-dashoffset:0;stroke-opacity:0.24333335"
         id="rect12214"
         width="68.915878"
         height="82.35112"
         x="-358.63831"
         y="388.78214"
         ry="0" />
      <circle
         r="2.414031"
         cy="475.08408"
         cx="-324.18036"
         id="path12224"
         style="opacity:1;fill:#999999;fill-opacity:1;stroke:none;stroke-width:0.51215947;stroke-linecap:square;stroke-linejoin:bevel;stroke-miterlimit:4;stroke-dasharray:none;stroke-dashoffset:0;stroke-opacity:0.24333335" />
    </g>
    <ellipse
       style="opacity:1;fill:#ffc699;fill-opacity:1;stroke:none;stroke-width:0.10779399;stroke-linecap:square;stroke-linejoin:bevel;stroke-miterlimit:4;stroke-dasharray:none;stroke-dashoffset:0;stroke-opacity:0.24333335"
       id="path12283"
       cx="27.529554"
       cy="289.52286"
       rx="0.59877819"
       ry="0.658656" />
    <path
       style="opacity:1;fill:#ffc699;fill-opacity:1;stroke:none;stroke-width:0.10779399;stroke-linecap:square;stroke-linejoin:bevel;stroke-miterlimit:4;stroke-dasharray:none;stroke-dashoffset:0;stroke-opacity:0.24333335"
       d="m 27.608708,290.80114 c 0,0.36377 -0.351221,0.63787 -0.681918,0.63787 -0.330698,0 -0.598779,-0.29489 -0.598779,-0.65865 0,-0.36377 0.252495,-0.53395 0.583189,-0.53395 0.330698,0 0.697508,0.19096 0.697508,0.55473 z"
       id="ellipse12285"
       inkscape:connector-curvature="0"
       sodipodi:nodetypes="ccccc" />
    <path
       style="fill:#00aad4;fill-opacity:1;fill-rule:evenodd;stroke:none;stroke-width:0.17537729px;stroke-linecap:butt;stroke-linejoin:miter;stroke-opacity:1"
       d="m 17.941573,282.58532 0.794958,-0.0259 c 0.945862,0.46211 1.614083,1.16715 2.206339,1.93866 l -1.29453,1.69225 -0.80452,-0.66072 1.570009,6.00818 c -1.783842,0.89285 -7.796848,0.54008 -9.480239,-0.0558 l 1.691668,-6.38659 c -0.73067,-0.62881 -1.510952,-1.48088 -2.330685,-2.51047 l 1.597737,-1.81355 c 0.580199,0.60905 1.001673,1.30683 1.776934,1.79786 l 0.372717,0.0494 1.922448,0.56455 z"
       id="path13772"
       inkscape:connector-curvature="0"
       sodipodi:nodetypes="cccccccccccccc" />
    <path
       style="fill:#00222b;fill-rule:evenodd;stroke:none;stroke-width:0.18215396px;stroke-linecap:butt;stroke-linejoin:miter;stroke-opacity:1"
       d="m 15.340679,283.5808 c 0.06158,0.0154 0.631198,0.13855 0.631198,0.13855 l 0.669689,-0.23093 -0.177041,-0.36948 -0.523437,0.18474 -0.500344,-0.16164 z"
       id="path13774"
       inkscape:connector-curvature="0" />
    <path
       style="fill:#162d50;fill-opacity:1;fill-rule:evenodd;stroke:none;stroke-width:0.18215396px;stroke-linecap:butt;stroke-linejoin:miter;stroke-opacity:1"
       d="m 16.223855,283.4947 1.489066,1.47809 0.535732,-2.26188 -0.815676,-0.50208 -1.219236,0.92081 z"
       id="path13776"
       inkscape:connector-curvature="0"
       sodipodi:nodetypes="cccccc" />
    <path
       sodipodi:nodetypes="cccccc"
       inkscape:connector-curvature="0"
       id="path13778"
       d="m 15.694042,283.4947 -1.489067,1.47809 -0.535731,-2.26188 0.815676,-0.50208 1.219233,0.92081 z"
       style="fill:#162d50;fill-rule:evenodd;stroke:none;stroke-width:0.18215396px;stroke-linecap:butt;stroke-linejoin:miter;stroke-opacity:1" />
    <g
       id="g3207">
      <circle
         style="opacity:1;fill:#53676c;fill-opacity:1;stroke:none;stroke-width:0.11864346;stroke-linecap:square;stroke-linejoin:bevel;stroke-miterlimit:4;stroke-dasharray:none;stroke-dashoffset:0;stroke-opacity:0.24333335"
         id="circle12465"
         cx="26.580564"
         cy="269.34015"
         r="4.4737473" />
      <circle
         r="3.8016222"
         cy="269.34015"
         cx="26.580564"
         id="path12463"
         style="opacity:1;fill:#ffffff;fill-opacity:1;stroke:none;stroke-width:0.10081875;stroke-linecap:square;stroke-linejoin:bevel;stroke-miterlimit:4;stroke-dasharray:none;stroke-dashoffset:0;stroke-opacity:0.24333335" />
      <path
         style="fill:#5da200;fill-opacity:1;stroke-width:0.00484125"
         inkscape:connector-curvature="0"
         d="m 31.367229,266.91004 q 0,0.19365 -0.135561,0.32919 l -3.505068,3.50508 -0.658409,0.6584 q -0.135562,0.13558 -0.329203,0.13558 -0.193656,0 -0.329211,-0.13558 l -0.658409,-0.6584 -1.752534,-1.75254 q -0.135561,-0.13558 -0.135561,-0.32921 0,-0.19365 0.135561,-0.3292 l 0.658413,-0.65841 q 0.135546,-0.13557 0.329203,-0.13557 0.193651,0 0.329205,0.13557 l 1.423333,1.42817 3.175863,-3.1807 q 0.135546,-0.13558 0.329202,-0.13558 0.193652,0 0.329206,0.13558 l 0.658409,0.65841 q 0.135561,0.13557 0.135561,0.32921 z"
         id="path12525" />
    </g>
    <g
       id="g23053"
       transform="matrix(0.24451786,0,0,0.24451786,-75.928306,208.86914)">
      <path
         sodipodi:nodetypes="ccccc"
         inkscape:connector-curvature="0"
         id="path13802"
         d="m 357.94503,287.73897 c -6.1411,0.79382 -7.13272,-8.7481 -2.31478,-11.17133 -1.86308,-28.69552 41.45274,-25.95087 38.54611,-0.50321 6.04297,2.2681 4.76536,11.50241 -1.409,12.0771 -7.53784,13.93335 -25.13511,16.42862 -34.82233,-0.40256 z"
         style="fill:#ffc699;fill-opacity:1;fill-rule:evenodd;stroke:none;stroke-width:0.6885162px;stroke-linecap:butt;stroke-linejoin:miter;stroke-opacity:1" />
      <path
         sodipodi:nodetypes="sssssss"
         inkscape:connector-curvature="0"
         id="rect13808"
         d="m 362.77727,273.63696 c 1.2657,-1.02086 2.94578,-1.1301 4.79838,-0.85978 0.6242,0.0911 1.21037,0.29905 1.32162,0.91996 0.11126,0.62092 -0.31655,1.50549 -0.91997,1.32162 -2.05601,-0.62651 -3.68499,-0.39895 -4.79838,0.85978 -0.41794,0.47249 -1.21036,-0.29904 -1.32161,-0.91996 -0.11126,-0.62091 0.42895,-0.9256 0.91996,-1.32162 z"
         style="opacity:1;fill:#000000;fill-opacity:1;stroke:none;stroke-width:0.27540648;stroke-linecap:round;stroke-linejoin:round;stroke-miterlimit:4;stroke-dasharray:none;stroke-opacity:1" />
      <path
         sodipodi:nodetypes="ccccccccccccc"
         inkscape:connector-curvature="0"
         id="path13812"
         d="m 359.93556,264.71767 c -4.0038,2.53004 -2.21485,10.1706 -2.56192,15.86981 0.25465,1.24335 -1.13603,1.528 -1.35216,0.10674 -0.709,-14.2315 -8.77862,-8.53911 -5.20139,-34.00434 12.8044,10.17486 21.7644,-6.47234 40.14344,4.64875 l 0.14232,-3.27359 c 1.4844,0.6843 2.89236,2.96768 1.99263,5.97787 0,0 3.34475,-1.17422 5.30179,2.06378 -1.93248,-0.44784 -3.49949,0.32704 -3.4515,0.35583 3.86844,2.26565 0.42699,15.41909 -0.99631,23.44889 -0.11904,1.208 -1.61642,1.34947 -1.60121,-0.21351 -0.49395,-5.10392 2.38899,-13.27117 -2.2417,-14.98023 -9.71539,2.19918 -21.86349,2.24759 -30.17399,0 z"
         style="fill:#000000;fill-opacity:1;fill-rule:evenodd;stroke:none;stroke-width:0.6885162px;stroke-linecap:butt;stroke-linejoin:miter;stroke-opacity:1" />
      <g
         transform="translate(0,1.4241748)"
         id="g20976">
        <path
           inkscape:connector-curvature="0"
           style="opacity:1;fill:#ff9e5c;fill-opacity:1;stroke:none;stroke-width:0.3442581;stroke-linecap:round;stroke-linejoin:round;stroke-miterlimit:4;stroke-dasharray:none;stroke-opacity:1"
           d="m 376.85653,283.31294 a 2.0883336,1.1322291 0 0 1 -2.08835,1.13222 2.0883336,1.1322291 0 0 1 -2.08833,-1.13222 2.0883336,1.1322291 0 0 1 2.08833,-1.13222 2.0883336,1.1322291 0 0 1 2.08835,1.13222 z"
           id="path13814" />
        <path
           id="path13816"
           d="m 377.15896,283.80116 c 1e-5,0.54237 -1.05445,0.98204 -2.35519,0.98204 -1.30076,0 -2.35521,-0.43967 -2.35521,-0.98204 0,-0.54237 1.04556,-0.82772 2.3463,-0.82772 1.30075,0 2.36409,0.28535 2.3641,0.82772 z"
           style="opacity:1;fill:#ffc699;fill-opacity:1;stroke:none;stroke-width:0.3442581;stroke-linecap:round;stroke-linejoin:round;stroke-miterlimit:4;stroke-dasharray:none;stroke-opacity:1"
           inkscape:connector-curvature="0"
           sodipodi:nodetypes="sssss" />
      </g>
      <path
         sodipodi:nodetypes="ccsccccccsczcccc"
         inkscape:connector-curvature="0"
         id="path13822"
         d="m 395.66816,280.36314 c -0.2872,-0.18843 -0.64425,-0.16421 -0.91588,0.001 -0.54325,0.33108 -0.81704,1.14235 -0.54872,2.06503 0.10342,0.35566 0.28875,0.6318 0.51956,0.76478 0.30926,0.05 0.5173,0.013 0.65611,-0.27173 0.0257,0.0414 0.0634,0.13069 0.10338,0.24918 0.0359,1.05051 -0.44948,1.74508 -1.4169,1.77963 -0.33243,-0.0156 -0.33098,0.35981 10e-4,0.34241 1.51584,-0.0684 2.31985,-1.48209 1.7684,-2.82466 -0.22561,-0.31846 -0.44325,-0.14318 -0.70275,0.0412 -0.18862,0.13406 -0.38771,0.008 -0.47981,-0.23326 -0.165,-0.70786 0.1234,-1.27648 0.4479,-1.3875 0.32451,-0.11103 0.53361,0.2424 0.69464,0.63994 0.061,0.31104 0.52752,0.21957 0.46655,-0.0915 -0.10408,-0.52771 -0.30659,-0.8865 -0.5938,-1.07493 z"
         style="color:#000000;font-style:normal;font-variant:normal;font-weight:normal;font-stretch:normal;font-size:medium;line-height:normal;font-family:sans-serif;text-indent:0;text-align:start;text-decoration:none;text-decoration-line:none;text-decoration-style:solid;text-decoration-color:#000000;letter-spacing:normal;word-spacing:normal;text-transform:none;writing-mode:lr-tb;direction:ltr;baseline-shift:baseline;text-anchor:start;white-space:normal;clip-rule:nonzero;display:inline;overflow:visible;visibility:visible;opacity:0.5;isolation:auto;mix-blend-mode:normal;color-interpolation:sRGB;color-interpolation-filters:linearRGB;solid-color:#000000;solid-opacity:1;fill:#ff9e5c;fill-opacity:1;fill-rule:evenodd;stroke:none;stroke-width:0.48196134;stroke-linecap:round;stroke-linejoin:round;stroke-miterlimit:4;stroke-dasharray:none;stroke-dashoffset:0;stroke-opacity:1;color-rendering:auto;image-rendering:auto;shape-rendering:auto;text-rendering:auto;enable-background:accumulate" />
      <path
         style="color:#000000;font-style:normal;font-variant:normal;font-weight:normal;font-stretch:normal;font-size:medium;line-height:normal;font-family:sans-serif;text-indent:0;text-align:start;text-decoration:none;text-decoration-line:none;text-decoration-style:solid;text-decoration-color:#000000;letter-spacing:normal;word-spacing:normal;text-transform:none;writing-mode:lr-tb;direction:ltr;baseline-shift:baseline;text-anchor:start;white-space:normal;clip-rule:nonzero;display:inline;overflow:visible;visibility:visible;opacity:0.5;isolation:auto;mix-blend-mode:normal;color-interpolation:sRGB;color-interpolation-filters:linearRGB;solid-color:#000000;solid-opacity:1;fill:#ff9e5c;fill-opacity:1;fill-rule:evenodd;stroke:none;stroke-width:0.48196134;stroke-linecap:round;stroke-linejoin:round;stroke-miterlimit:4;stroke-dasharray:none;stroke-dashoffset:0;stroke-opacity:1;color-rendering:auto;image-rendering:auto;shape-rendering:auto;text-rendering:auto;enable-background:accumulate"
         d="m 354.50509,280.93963 c 0.25509,-0.23006 0.61165,-0.26061 0.90537,-0.13842 0.5874,0.24433 0.98176,1.00432 0.85737,1.95714 -0.048,0.36727 -0.18897,0.66845 -0.3968,0.83511 -0.29799,0.0967 -0.50926,0.0917 -0.68986,-0.16845 -0.019,0.0448 -0.0427,0.13884 -0.0642,0.26204 0.12481,1.04369 0.71048,1.65605 1.67184,1.54258 0.32618,-0.0661 0.38201,0.30513 0.0509,0.33862 -1.50853,0.1637 -2.51883,-1.11076 -2.17867,-2.52176 0.17439,-0.34916 0.41621,-0.20913 0.70082,-0.0664 0.20686,0.10369 0.38435,-0.0515 0.4386,-0.30375 0.055,-0.72473 -0.31672,-1.2427 -0.65435,-1.30291 -0.33766,-0.0601 -0.49038,0.32099 -0.58888,0.73844 -0.0128,0.31669 -0.48784,0.29749 -0.47503,-0.0192 0.0223,-0.53742 0.16774,-0.92289 0.42284,-1.15295 z"
         id="path13824"
         inkscape:connector-curvature="0"
         sodipodi:nodetypes="ccsccccccsczcccc" />
      <g
         transform="matrix(0.67162852,0,0,0.52815616,-93.413116,145.3561)"
         id="g13994">
        <path
           style="fill:#d35f5f;fill-opacity:1;fill-rule:evenodd;stroke:none;stroke-width:0.1;stroke-linecap:butt;stroke-linejoin:miter;stroke-miterlimit:4;stroke-dasharray:none;stroke-opacity:1"
           d="m 691.03168,273.71064 c -0.6213,-0.16499 -1.37869,-0.29091 -1.21691,1.16154 0.32905,2.95414 1.29624,5.49814 2.8079,7.72149 1.92262,2.47955 8.18042,3.28137 10.51821,0.17678 1.12989,-1.5005 2.82376,-4.41244 2.95343,-8.16298 0.0412,-1.19199 -0.37762,-1.87372 -1.24771,-1.30485 -4.33567,1.77479 -9.12728,1.44896 -13.81492,0.40802 z"
           id="path13986"
           inkscape:connector-curvature="0"
           sodipodi:nodetypes="cscsscc" />
        <path
           style="fill:#ffffff;fill-opacity:1;fill-rule:evenodd;stroke:none;stroke-width:0.1;stroke-linecap:butt;stroke-linejoin:miter;stroke-miterlimit:4;stroke-dasharray:none;stroke-opacity:1"
           d="m 689.89523,273.45187 c -0.24668,0.93489 -0.0683,1.68959 -0.0663,2.51907 3.58991,1.81845 13.44904,1.5818 16.2185,-0.34004 0.0531,-0.92895 0.18978,-1.83133 -0.11048,-2.87262 -3.36518,1.33162 -10.37086,1.93377 -16.04172,0.69359 z"
           id="path13988"
           inkscape:connector-curvature="0"
           sodipodi:nodetypes="ccccc" />
        <path
           style="fill:#a02c2c;fill-rule:evenodd;stroke:none;stroke-width:0.1;stroke-linecap:butt;stroke-linejoin:miter;stroke-miterlimit:4;stroke-dasharray:none;stroke-opacity:1"
           d="m 693.81591,281.00268 c 1.3017,-1.18273 7.76471,-0.72075 8.63996,-0.22097 -0.12031,1.42833 -2.2979,2.80256 -4.08796,2.85053 -1.99152,-0.0177 -3.73109,-0.73893 -4.552,-2.62956 z"
           id="path13992"
           inkscape:connector-curvature="0"
           sodipodi:nodetypes="cccc" />
        <path
           style="fill:#ffffff;fill-opacity:1;fill-rule:evenodd;stroke:none;stroke-width:0.1;stroke-linecap:butt;stroke-linejoin:miter;stroke-miterlimit:4;stroke-dasharray:none;stroke-opacity:1"
           d="m 692.18384,281.87613 c 0.0371,-0.41176 0.0964,-0.89213 0.26758,-1.08889 0.39924,-0.45873 1.2494,-0.44005 1.45288,0.0442 1.36635,3.25152 7.12152,3.53972 8.66206,-0.40327 0.20746,-0.4303 0.99725,-0.48036 1.4584,-0.13258 0.24982,0.2799 0.21483,0.55979 0.17678,0.83969 -1.68002,3.34515 -3.81883,3.69469 -5.96621,3.66812 -2.49084,-0.0308 -5.22572,-1.01589 -6.05149,-2.92727 z"
           id="path13990"
           inkscape:connector-curvature="0"
           sodipodi:nodetypes="csscccsc" />
      </g>
      <g
         transform="translate(-2.032932,2.75)"
         id="g20992">
        <ellipse
           style="opacity:1;fill:#ffffff;fill-opacity:1;stroke:none;stroke-width:0.28278869;stroke-linecap:round;stroke-linejoin:round;stroke-miterlimit:4;stroke-dasharray:none;stroke-opacity:1"
           id="ellipse12239"
           cx="385.52948"
           cy="277.80905"
           rx="2.4091384"
           ry="3.0296738" />
        <g
           id="g20987">
          <ellipse
             style="opacity:1;fill:#000000;fill-opacity:1;stroke:none;stroke-width:0.28278869;stroke-linecap:round;stroke-linejoin:round;stroke-miterlimit:4;stroke-dasharray:none;stroke-opacity:1"
             id="ellipse12241"
             cx="384.44394"
             cy="277.91013"
             rx="1.341874"
             ry="2.4540524" />
        </g>
      </g>
      <g
         transform="translate(2.032932,2.75)"
         id="g20984">
        <ellipse
           ry="3.0296738"
           rx="2.4091384"
           cy="277.59006"
           cx="365.38031"
           id="ellipse12237"
           style="opacity:1;fill:#ffffff;fill-opacity:1;stroke:none;stroke-width:0.28278869;stroke-linecap:round;stroke-linejoin:round;stroke-miterlimit:4;stroke-dasharray:none;stroke-opacity:1" />
        <ellipse
           style="opacity:1;fill:#000000;fill-opacity:1;stroke:none;stroke-width:0.28278869;stroke-linecap:round;stroke-linejoin:round;stroke-miterlimit:4;stroke-dasharray:none;stroke-opacity:1"
           id="ellipse12243"
           cx="366.47958"
           cy="277.65198"
           rx="1.341874"
           ry="2.4540524" />
      </g>
      <path
         style="opacity:1;fill:#000000;fill-opacity:1;stroke:none;stroke-width:0.27540648;stroke-linecap:round;stroke-linejoin:round;stroke-miterlimit:4;stroke-dasharray:none;stroke-opacity:1"
         d="m 381.30736,272.61487 c 1.57631,-0.39923 3.14858,0.20291 4.71916,1.22197 0.52917,0.34338 0.975,0.77705 0.81687,1.38771 -0.15812,0.61067 -0.91616,1.23586 -1.38772,0.81686 -1.60671,-1.42764 -3.18194,-1.90093 -4.71916,-1.22196 -0.57703,0.25486 -0.97499,-0.77704 -0.81686,-1.38771 0.15812,-0.61066 0.7762,-0.662 1.38771,-0.81687 z"
         id="path20995"
         inkscape:connector-curvature="0"
         sodipodi:nodetypes="sssssss" />
    </g>
    <g
       id="g13780"
       transform="matrix(0.01609945,0.00114934,-0.00117504,0.01645937,7.0728801,277.14331)"
       style="fill:#ffffff">
      <path
         inkscape:connector-curvature="0"
         id="path13782"
         d="m 670.87877,567.34848 c 0,0 1.41431,-0.69792 1.84971,-3.09305 7.1e-4,-0.14095 0.002,-0.28204 0.002,-0.42305 l 0.002,-0.42305 c -0.12963,-2.25699 -2.37313,-4.94778 -4.89879,-7.64003 -2.94747,-2.97641 -5.4796,-4.3995 -5.4796,-4.3995 0,0 -1.23953,-5.92916 -6.55869,-14.13541 -5.17808,-8.20554 -14.16295,-16.85347 -19.11338,-14.34028 -4.95044,2.5132 -0.61306,9.58628 -0.34168,11.70296 0.41175,2.25843 2.50917,5.93561 1.80384,5.93203 -0.84573,-0.14537 -11.46468,-20.36525 -38.29709,-14.86091 -6.92043,1.51603 -12.86053,4.44727 -17.67635,8.23032 l -0.23954,47.09964 c 1.70147,-1.68359 2.41113,-2.5261 2.41113,-2.5261 0,0 1.79093,8.47033 5.15728,12.29501 3.36637,3.82467 7.446,6.10176 8.72999,3.28787 1.28328,-2.67286 -2.60793,-14.25633 -2.60793,-14.25633 0,0 7.29991,7.08815 9.40737,8.79112 2.10748,1.70296 6.18783,3.83902 7.33577,0.0373 1.00685,-3.80243 -1.92625,-9.5992 -4.31946,-10.59852 -2.25214,-0.9986 -3.66287,-1.00576 -3.66287,-1.00576 0,0 -1.40137,-1.84039 -2.10388,-2.40805 -0.84357,-0.5684 -0.98464,-0.56909 -0.98464,-0.56909 0,0 1.27323,-0.69864 5.22253,-0.53752 4.0904,0.16181 7.33434,0.31934 7.33434,0.31934 0,0 3.64063,5.37729 5.88918,7.08098 2.10676,1.84397 7.58635,6.24348 9.55204,8.08673 1.82461,1.84258 2.94887,2.69439 3.66214,1.14681 0.57217,-1.54832 -0.39453,-5.64284 -2.91878,-8.61711 -2.66602,-2.83398 -5.47959,-4.3995 -6.45991,-5.81469 -0.83783,-1.6965 -1.39567,-2.96854 -1.39567,-2.96854 0,0 5.20032,3.83401 6.46351,5.10962 1.40499,1.13531 10.68634,6.96435 12.23312,7.95936 1.54608,1.13603 2.255,0.43454 2.255,0.43454 0,0 1.12429,0.85182 1.55036,0.28992 0.42608,-0.56192 1.57404,-4.36362 -1.37701,-6.63496 -3.09139,-2.41309 -4.91959,-3.55055 -4.63602,-3.83115 0.14242,-0.28132 3.24107,0.72159 3.6686,-0.12243 0.28573,-0.70365 -0.13169,-1.83394 -0.55352,-2.11812 -0.28,-0.42448 0.85287,-1.26484 0.85287,-1.26484 0,0 1.1286,0.006 5.78181,0.45246 4.65324,0.44672 16.38233,-3.44219 18.78484,-4.2761 2.40256,-0.83392 3.67507,-1.39152 3.67507,-1.39152 v 0 z m -89.18395,60.18524 c 9.76627,-6.29624 10.27123,-22.37002 4.92628,-25.49965 -1.54678,-0.99502 -3.095,-1.70799 -4.7857,-2.13965 l -0.0373,7.33289 c 0.42179,0.28417 0.84285,0.70937 1.12141,1.4159 0.83782,1.6965 0.40387,3.80961 0.40387,3.80961 0,0 -0.12743,-2.68004 -1.1078,-4.09523 -0.14036,-0.14169 -0.2807,-0.28347 -0.42107,-0.4252 l -0.0996,19.60133 z m 0.47622,-93.63522 c -2.12398,1.54044 -3.96724,3.36432 -5.66942,5.18894 l -0.2374,46.67659 c 1.41502,-0.83892 2.68898,-1.67856 3.8233,-2.80097 0.70895,-0.7015 1.27682,-1.4037 1.84397,-1.96491 z m -6.13131,96.00382 c 2.11826,-0.41229 4.09756,-1.24834 5.65509,-2.3686 l 0.0996,-19.60133 c -0.84069,-1.13245 -1.54247,-1.84112 -1.54247,-1.84112 0,0 0.70393,0.28561 1.54606,1.13603 l 0.0373,-7.33289 c -1.83107,-0.57339 -3.80465,-0.86546 -5.64075,-0.45173 l -0.0624,12.26846 v 0 c 0.42464,-0.2799 1.13072,-0.4173 0.84355,0.56838 -0.14389,0.56334 -0.56716,0.56119 -0.84929,0.55975 v 0 l -0.0366,7.19186 c 0.28214,0.002 0.70537,0.003 0.98821,-0.13595 0,0 -0.28357,0.28059 -0.99036,0.55903 l -0.048,9.44814 z m 0.46189,-90.81488 c -9.92814,10.38503 -14.3652,22.9133 -15.36707,25.7286 -1.57402,4.36362 -11.67049,20.10658 -12.56424,29.4094 -0.75342,9.44454 -1.01139,32.4296 20.41581,35.64102 2.53716,0.43595 4.93538,0.44815 7.05361,0.0359 l 0.048,-9.44814 c -1.97788,0.55402 -6.35398,1.09586 -11.26285,-4.56994 -6.59166,-7.64863 -3.28388,-20.04162 1.9573,-24.24557 3.40008,-2.80313 6.65264,-4.33779 9.48198,-5.87464 l 0.23739,-46.6766 v 0 z m -0.30697,60.35524 -0.0624,12.26846 c -0.42468,0.27986 -0.7068,0.27844 -0.98682,-0.14609 -0.28643,0.84468 0.27571,1.27057 0.98108,1.27416 l -0.0366,7.19187 c -4.51647,0.40008 -10.70358,-3.57996 -9.12021,-9.77679 1.86979,-7.04154 5.2713,-10.12667 9.22492,-10.81167 z"
         style="fill:#ffffff;fill-opacity:1;stroke:none" />
      <g
         id="g13784"
         transform="matrix(0.67529885,0.00343447,-0.00343313,0.67503372,391.44175,224.96591)"
         inkscape:transform-center-y="-65.497173"
         style="fill:#ffffff;fill-opacity:1">
        <path
           style="fill:#ffffff;fill-opacity:1;stroke:none"
           d="m 317.0411,345.99007 13.283,-0.49733 c 7.12992,-0.26696 16.9201,4.73977 16.36027,13.87359 l -3.48135,56.79988 c -0.43649,7.12156 -3.50599,10.88958 -9.1489,10.88958 h -17.51036 c -7.13493,0 -10.13574,-4.51857 -10.6409,-11.63558 l -3.97869,-56.05388 c -0.50516,-7.11701 4.99786,-12.99738 15.11693,-13.37626 z"
           id="path13786"
           inkscape:connector-curvature="0"
           sodipodi:nodetypes="sssssssss" />
      </g>
      <g
         inkscape:transform-center-y="-53.403829"
         transform="matrix(0.5509376,-0.44632896,0.44650645,0.55072309,163.59292,448.32869)"
         id="g13788"
         inkscape:transform-center-x="43.829697"
         style="fill:#ffffff;fill-opacity:0.70301753">
        <path
           sodipodi:nodetypes="sssssssss"
           inkscape:connector-curvature="0"
           id="path13790"
           d="m 371.26562,369.32169 13.283,-0.49733 c 7.12992,-0.26696 16.9201,4.73977 16.36027,13.87359 l -3.48135,56.79988 c -0.43649,7.12156 -3.50599,10.88958 -9.1489,10.88958 h -17.51036 c -7.13493,0 -10.13574,-4.51857 -10.6409,-11.63558 l -3.97869,-56.05388 c -0.50516,-7.11701 4.99786,-12.99738 15.11693,-13.37626 z"
           style="fill:#ffffff;fill-opacity:1;stroke:none" />
      </g>
      <g
         inkscape:transform-center-x="63.28487"
         id="g13792"
         transform="matrix(0.14153282,-0.65409844,0.65435592,0.14147986,169.00482,760.52157)"
         inkscape:transform-center-y="-14.415814"
         style="fill:#ffffff;fill-opacity:1">
        <path
           style="fill:#ffffff;fill-opacity:1;stroke:none"
           d="m 405.90926,416.54301 13.283,-0.49733 c 7.12992,-0.26696 16.9201,4.73977 16.36027,13.87359 l -3.48135,56.79988 c -0.43649,7.12156 -3.50599,10.88958 -9.1489,10.88958 h -17.51036 c -7.13493,0 -10.13574,-4.51857 -10.6409,-11.63558 l -3.97869,-56.05388 c -0.50516,-7.11701 4.99786,-12.99738 15.11693,-13.37626 z"
           id="path13794"
           inkscape:connector-curvature="0"
           sodipodi:nodetypes="sssssssss" />
      </g>
      <g
         inkscape:transform-center-y="24.205256"
         transform="matrix(-0.24306426,-0.46928712,0.46947045,-0.24296696,376.9741,933.02481)"
         id="g13796"
         inkscape:transform-center-x="45.418014"
         style="fill:#ffffff;fill-opacity:1">
        <path
           sodipodi:nodetypes="sssssssss"
           inkscape:connector-curvature="0"
           id="path13798"
           d="m 419.22402,488.33427 13.283,-0.49733 c 7.12992,-0.26696 16.9201,4.73977 16.36027,13.87359 l -3.48135,56.79988 c -0.43649,7.12156 -3.50599,10.88958 -9.1489,10.88958 h -17.51036 c -7.13493,0 -10.13574,-4.51857 -10.6409,-11.63558 l -3.97869,-56.05388 c -0.50516,-7.11701 4.99786,-12.99738 15.11693,-13.37626 z"
           style="fill:#ffffff;fill-opacity:1;stroke:none" />
      </g>
    </g>
  </g>
</svg>
