<?xml version="1.0" encoding="UTF-8" standalone="no"?>
<svg
   xmlns:dc="http://purl.org/dc/elements/1.1/"
   xmlns:cc="http://creativecommons.org/ns#"
   xmlns:rdf="http://www.w3.org/1999/02/22-rdf-syntax-ns#"
   xmlns:svg="http://www.w3.org/2000/svg"
   xmlns="http://www.w3.org/2000/svg"
   xmlns:xlink="http://www.w3.org/1999/xlink"
   xmlns:sodipodi="http://sodipodi.sourceforge.net/DTD/sodipodi-0.dtd"
   xmlns:inkscape="http://www.inkscape.org/namespaces/inkscape"
   version="1.1"
   width="128"
   height="128"
viewBox="0 0 128 128"
   id="svg2"
   inkscape:version="0.91 r13725"
   sodipodi:docname="delete.svg">
  <metadata
     id="metadata48">
    <rdf:RDF>
      <cc:Work
         rdf:about="">
        <dc:format>image/svg+xml</dc:format>
        <dc:type
           rdf:resource="http://purl.org/dc/dcmitype/StillImage" />
        <dc:title></dc:title>
      </cc:Work>
    </rdf:RDF>
  </metadata>
  <sodipodi:namedview
     pagecolor="#ffffff"
     bordercolor="#666666"
     borderopacity="1"
     objecttolerance="10"
     gridtolerance="10"
     guidetolerance="10"
     inkscape:pageopacity="0"
     inkscape:pageshadow="2"
     inkscape:window-width="1855"
     inkscape:window-height="1056"
     id="namedview46"
     showgrid="false"
     inkscape:zoom="2.9329813"
     inkscape:cx="35.498916"
     inkscape:cy="-9.3594208"
     inkscape:window-x="65"
     inkscape:window-y="24"
     inkscape:window-maximized="1"
     inkscape:current-layer="svg2" />
  <defs
     id="defs3206">
    <linearGradient
       id="linearGradient3325">
      <stop
         style="stop-color:#d61313"
         offset="0"
         id="stop6" />
      <stop
         style="stop-color:#ffffff"
         offset="1"
         id="stop8" />
    </linearGradient>
    <linearGradient
       id="linearGradient3311">
      <stop
         style="stop-color:#fe0000"
         offset="0"
         id="stop11" />
      <stop
         style="stop-color:#d20000"
         offset="0.25"
         id="stop13" />
      <stop
         style="stop-color:#990000"
         offset="0.5"
         id="stop15" />
      <stop
         style="stop-color:#c82f2f"
         offset="0.75"
         id="stop17" />
      <stop
         style="stop-color:#fc6363"
         offset="1"
         id="stop19" />
    </linearGradient>
    <linearGradient
       id="linearGradient3303">
      <stop
         style="stop-color:#d30000"
         offset="0"
         id="stop22" />
      <stop
         style="stop-color:#fd6767"
         offset="1"
         id="stop24" />
    </linearGradient>
    <linearGradient
       id="linearGradient2485">
      <stop
         style="stop-color:#663232"
         offset="0"
         id="stop27" />
      <stop
         style="stop-color:#a70202"
         offset="1"
         id="stop29" />
    </linearGradient>
    <linearGradient
       x1="10.754942"
       y1="98.848442"
       x2="117.45568"
       y2="98.848442"
       id="linearGradient2521"
       xlink:href="#linearGradient2485"
       gradientUnits="userSpaceOnUse"
       gradientTransform="translate(81.7143,353.849)" />
    <linearGradient
       x1="94.450401"
       y1="452.07587"
       x2="195.77328"
       y2="452.07587"
       id="linearGradient3309"
       xlink:href="#linearGradient3303"
       gradientUnits="userSpaceOnUse" />
    <linearGradient
       x1="97.563675"
       y1="451.79282"
       x2="193.68799"
       y2="451.79282"
       id="linearGradient3317"
       xlink:href="#linearGradient3311"
       gradientUnits="userSpaceOnUse" />
    <linearGradient
       x1="63.963604"
       y1="66.583618"
       x2="63.963604"
       y2="17.370178"
       id="linearGradient3331"
       xlink:href="#linearGradient3325"
       gradientUnits="userSpaceOnUse" />
    <filter
       id="filter3341"
       style="color-interpolation-filters:sRGB">
      <feGaussianBlur
         id="feGaussianBlur3343"
         stdDeviation="1.1015221" />
    </filter>
    <linearGradient
       x1="63.963604"
       y1="66.583618"
       x2="63.963604"
       y2="17.370178"
       id="linearGradient38"
       xlink:href="#linearGradient3325"
       gradientUnits="userSpaceOnUse"
       gradientTransform="translate(-7.6908145,-7.983407)" />
    <linearGradient
       x1="97.563675"
       y1="451.79282"
       x2="193.68799"
       y2="451.79282"
       id="linearGradient41"
       xlink:href="#linearGradient3311"
       gradientUnits="userSpaceOnUse"
       gradientTransform="translate(-89.405114,-362.05941)" />
    <linearGradient
       x1="94.450401"
       y1="452.07587"
       x2="195.77328"
       y2="452.07587"
       id="linearGradient44"
       xlink:href="#linearGradient3303"
       gradientUnits="userSpaceOnUse"
       gradientTransform="translate(-89.405114,-362.05941)" />
    <linearGradient
       x1="10.754942"
       y1="98.848442"
       x2="117.45568"
       y2="98.848442"
       id="linearGradient47"
       xlink:href="#linearGradient2485"
       gradientUnits="userSpaceOnUse"
       gradientTransform="translate(-7.6908145,-8.210407)" />
  </defs>
  <g
     id="g4176"
     transform="matrix(1.0902859,0,0,1.0902859,1.7459143,2.7786557)">
    <path
       style="opacity:0.5;fill:#000000;filter:url(#filter3341)"
       id="path3233"
       d="m 24.099296,2.643653 c -2.1365,0 -4.26916,0.83166 -5.90625,2.46875 l -13.0937505,13.0625 c -3.27419,3.27419 -3.27419,8.53832 0,11.8125 l 27.7500005,27.75 -27.7500005,27.71875 c -3.27419,3.27419 -3.27419,8.53831 0,11.8125 L 18.193046,110.33115 c 3.27419,3.27419 8.53831,3.27419 11.8125,0 l 27.71875,-27.718747 27.71875,27.718747 c 3.27418,3.27419 8.53831,3.27419 11.8125,0 L 110.3493,97.268653 c 3.27418,-3.27419 3.27418,-8.53831 0,-11.8125 l -27.750004,-27.71875 27.750004,-27.75 c 3.27418,-3.27418 3.27418,-8.53831 0,-11.8125 L 97.255546,5.112403 c -3.27419,-3.27418 -8.53832,-3.27418 -11.8125,0 l -27.71875,27.71875 -27.71875,-27.71875 c -1.63709,-1.63709 -3.76975,-2.46875 -5.90625,-2.46875 z"
       inkscape:connector-curvature="0" />
    <path
       style="fill:url(#linearGradient47)"
       id="path3235"
       d="m 22.684176,0.94550301 c -2.1365,0 -4.26916,0.83165999 -5.90625,2.46874999 l -13.0937545,13.0625 c -3.27418999,3.27419 -3.27418999,8.53832 0,11.8125 l 27.7500045,27.75 -27.7500045,27.71875 c -3.27418999,3.27419 -3.27418999,8.53831 0,11.8125 L 16.777926,108.633 c 3.27419,3.27419 8.53831,3.27419 11.8125,0 L 56.309176,80.914253 84.027926,108.633 c 3.27418,3.27419 8.53831,3.27419 11.8125,0 L 108.93418,95.570503 c 3.27418,-3.27419 3.27418,-8.53831 0,-11.8125 l -27.750004,-27.71875 27.750004,-27.75 c 3.27418,-3.27418 3.27418,-8.53831 0,-11.8125 L 95.840426,3.414253 c -3.27419,-3.27417999 -8.53832,-3.27417999 -11.8125,0 l -27.71875,27.71875 -27.71875,-27.71875 c -1.63709,-1.63709 -3.76975,-2.46874999 -5.90625,-2.46874999 z"
       inkscape:connector-curvature="0" />
    <path
       style="fill:url(#linearGradient44)"
       id="path3237"
       d="m 22.746676,4.070503 c -1.26886,0 -2.52773,0.49649 -3.5,1.46875 L 5.8404215,18.945503 c -1.94453,1.94453 -1.94453,5.08672 0,7.03125 l 30.0312545,30.0625 -30.0312545,30.03125 c -1.94453,1.94453 -1.94453,5.08672 0,7.03125 L 19.246676,106.508 c 1.94453,1.94453 5.05547,1.94454 7,0 l 30.0625,-30.062497 30.0625,30.062497 c 1.94453,1.94453 5.05547,1.94454 7,0 L 106.77793,93.101753 c 1.94453,-1.94453 1.94453,-5.08671 0,-7.03125 l -30.031254,-30.03125 30.031254,-30.0625 c 1.94453,-1.94453 1.94453,-5.08672 0,-7.03125 L 93.371676,5.539253 c -1.94453,-1.94453 -5.05547,-1.94453 -7,0 l -30.0625,30.0625 -30.0625,-30.0625 c -0.97227,-0.97226 -2.23114,-1.46875 -3.5,-1.46875 z"
       inkscape:connector-curvature="0" />
    <path
       style="fill:url(#linearGradient41)"
       id="path3239"
       d="m 22.751136,6.065593 c 0.74714,0 1.49112,0.27238 2.09375,0.875 l 31.46875,31.5 31.46875,-31.5 c 1.19036,-1.19036 2.99714,-1.19036 4.1875,0 l 13.406254,13.40625 c 1.18278,1.18278 1.18278,3.03597 0,4.21875 l -31.468754,31.46875 31.468754,31.4375 c 1.18279,1.1828 1.18278,3.03596 0,4.21875 L 91.969886,105.09684 c -1.19036,1.19036 -2.99715,1.19035 -4.1875,0 L 56.313636,73.628093 24.844886,105.09684 c -1.19036,1.19036 -2.99714,1.19036 -4.1875,0 L 7.2511355,91.690593 c -1.182782,-1.18278 -1.18278,-3.03597 0,-4.21875 L 38.688636,56.034343 7.2511355,24.565593 c -1.182782,-1.18278 -1.18278,-3.03597 0,-4.21875 L 20.657386,6.940593 c 0.60263,-0.60262 1.34662,-0.875 2.09375,-0.875 z"
       inkscape:connector-curvature="0" />
    <path
       style="fill:url(#linearGradient38)"
       id="rect2468"
       d="m 22.902936,9.485343 -13.1250005,13.125 33.4062505,33.40625 -1.375,1.375 c 4.688747,0.926993 9.540533,1.40625 14.5,1.40625 4.959467,0 9.811253,-0.479257 14.5,-1.40625 l -1.375,-1.375 33.406254,-33.40625 -13.125004,-13.125 -33.40625,33.40625 -33.40625,-33.40625 z"
       inkscape:connector-curvature="0" />
  </g>
</svg>
