<svg xmlns="http://www.w3.org/2000/svg" version="1.0" space="preserve" xmlns:cc="http://creativecommons.org/ns#" xmlns:dc="http://purl.org/dc/elements/1.1/" height="60" viewBox="0 0 128 128" width="60" xmlns:rdf="http://www.w3.org/1999/02/22-rdf-syntax-ns#"><linearGradient id="XMLID_4_" y2="99.458" gradientUnits="userSpaceOnUse" x2="64" y1="-1.1782" x1="64"><stop style="stop-color:#00008d;" offset="0"/><stop style="stop-color:#0053bd;" offset="1"/><midPointStop style="stop-color:#00008D;" offset="0"/><midPointStop style="stop-color:#00008D;" offset="0.5"/><midPointStop style="stop-color:#0053BD;" offset="1"/></linearGradient><path style="fill:url(#XMLID_4_);" d="M121.45,65.815c-0.68-1.991-2.46-3.32-4.46-3.32h-16.67v-41.946c0-6.176-4.73-11.183-10.567-11.183h-54.822c-5.837,0-10.568,5.0068-10.568,11.183v41.946h-13.352c-2.0003,0-3.7854,1.329-4.4602,3.32-0.6748,1.993-0.0947,4.22,1.4502,5.562l52.988,46.113c1.749,1.52,4.271,1.52,6.02,0l52.991-46.113c1.54-1.344,2.12-3.569,1.45-5.562z"/><radialGradient id="XMLID_5_" gradientUnits="userSpaceOnUse" cy="107.82" cx="27.576" gradientTransform="matrix(1, 0, 0, 1.0565, 0, -0.544571)" r="115.48"><stop style="stop-color:#ffffff;" offset="0"/><stop style="stop-color:#ddeeff;" offset="0.057175"/><stop style="stop-color:#b5daff;" offset="0.13293"/><stop style="stop-color:#9dceff;" offset="0.19331"/><stop style="stop-color:#94caff;" offset="0.23034"/><stop style="stop-color:#0b74ff;" offset="0.59551"/><stop style="stop-color:#0035ed;" offset="0.81461"/><midPointStop style="stop-color:#FFFFFF;" offset="0"/><midPointStop style="stop-color:#FFFFFF;" offset="0.4"/><midPointStop style="stop-color:#94CAFF;" offset="0.230337"/><midPointStop style="stop-color:#94CAFF;" offset="0.5"/><midPointStop style="stop-color:#0B74FF;" offset="0.595506"/><midPointStop style="stop-color:#0B74FF;" offset="0.5"/><midPointStop style="stop-color:#0035ED;" offset="0.814607"/></radialGradient><path style="fill:url(#XMLID_5_);" d="M95.584,67.507v-46.958c0-3.403-2.617-6.171-5.831-6.171h-54.822c-3.216,0-5.831,2.768-5.831,6.171v46.958h-18.089l52.988,46.113,52.991-46.113h-21.406z"/><linearGradient id="XMLID_6_" y2="61.277" gradientUnits="userSpaceOnUse" x2="62.342" y1="8.8262" x1="62.342"><stop style="stop-color:#ffffff;" offset="0"/><stop style="stop-color:#74aeff;" offset="1"/><midPointStop style="stop-color:#FFFFFF;" offset="0"/><midPointStop style="stop-color:#FFFFFF;" offset="0.5"/><midPointStop style="stop-color:#74AEFF;" offset="1"/></linearGradient><path style="fill:url(#XMLID_6_);" d="M51.409,61.351c14.399-7.585,27.37-16.011,42.377-18.805v-22.665c0-1.986-1.809-3.602-4.033-3.602h-54.822c-2.224,0-4.033,1.616-4.033,3.602v40.957c6.625,3.028,13.823,3.919,20.511,0.513z"/><polyline style="fill:none;" points="0,128,0,0,128,0,128,128" fill="none"/></svg>