<?xml version="1.0" encoding="UTF-8" standalone="no"?>
<!-- Created with Inkscape (http://www.inkscape.org/) -->

<svg
   xmlns:dc="http://purl.org/dc/elements/1.1/"
   xmlns:cc="http://creativecommons.org/ns#"
   xmlns:rdf="http://www.w3.org/1999/02/22-rdf-syntax-ns#"
   xmlns:svg="http://www.w3.org/2000/svg"
   xmlns="http://www.w3.org/2000/svg"
   xmlns:xlink="http://www.w3.org/1999/xlink"
   xmlns:sodipodi="http://sodipodi.sourceforge.net/DTD/sodipodi-0.dtd"
   xmlns:inkscape="http://www.inkscape.org/namespaces/inkscape"
   width="128"
   height="128"
   viewBox="0 0 33.866666 33.866668"
   version="1.1"
   id="svg8"
   inkscape:version="0.92.3 (2405546, 2018-03-11)"
   sodipodi:docname="embedregistry.svg">
  <defs
     id="defs2">
    <linearGradient
       inkscape:collect="always"
       id="linearGradient1392">
      <stop
         style="stop-color:#010000;stop-opacity:1"
         offset="0"
         id="stop1388" />
      <stop
         style="stop-color:#7b7b7e;stop-opacity:1"
         offset="1"
         id="stop1390" />
    </linearGradient>
    <linearGradient
       inkscape:collect="always"
       id="linearGradient1361">
      <stop
         style="stop-color:#dcdcdc;stop-opacity:1"
         offset="0"
         id="stop1357" />
      <stop
         style="stop-color:#ffffff;stop-opacity:0.99484539"
         offset="1"
         id="stop1359" />
    </linearGradient>
    <linearGradient
       inkscape:collect="always"
       id="linearGradient1351">
      <stop
         style="stop-color:#d9d9e3;stop-opacity:1;"
         offset="0"
         id="stop1347" />
      <stop
         style="stop-color:#fdfdfd;stop-opacity:1"
         offset="1"
         id="stop1349" />
    </linearGradient>
    <style
       id="style924">.cls-1{fill:#b22424;}.cls-2{fill:#dd2c28;}.cls-3{fill:#fff;}</style>
    <linearGradient
       inkscape:collect="always"
       xlink:href="#linearGradient1351"
       id="linearGradient1353"
       x1="-3.7135057"
       y1="287.95425"
       x2="-3.7611158"
       y2="278.05157"
       gradientUnits="userSpaceOnUse"
       gradientTransform="matrix(1.0087029,0,0,1.1062674,0.09488261,-30.295317)" />
    <linearGradient
       inkscape:collect="always"
       xlink:href="#linearGradient1361"
       id="linearGradient1363"
       x1="-3.5090218"
       y1="278.50385"
       x2="-3.5090218"
       y2="276.88516"
       gradientUnits="userSpaceOnUse" />
    <linearGradient
       inkscape:collect="always"
       xlink:href="#linearGradient1392"
       id="linearGradient1394"
       x1="-9.6826649"
       y1="64.402939"
       x2="-9.6826649"
       y2="39.082859"
       gradientUnits="userSpaceOnUse"
       gradientTransform="matrix(0.26458333,0,0,0.26458333,0,263.13332)" />
    <clipPath
       clipPathUnits="userSpaceOnUse"
       id="clipPath1400">
      <rect
         ry="0"
         y="276.67093"
         x="-12.425961"
         height="2.2376251"
         width="18.329483"
         id="rect1402"
         style="opacity:1;fill:url(#linearGradient1404);fill-opacity:1;stroke:none;stroke-width:0.35277778;stroke-linecap:round;stroke-linejoin:bevel;stroke-miterlimit:4;stroke-dasharray:none;stroke-dashoffset:0;stroke-opacity:1" />
    </clipPath>
    <linearGradient
       inkscape:collect="always"
       xlink:href="#linearGradient1361"
       id="linearGradient1404"
       gradientUnits="userSpaceOnUse"
       gradientTransform="translate(0,1.2291667e-6)"
       x1="-3.5090218"
       y1="278.50385"
       x2="-3.5090218"
       y2="276.88516" />
    <linearGradient
       inkscape:collect="always"
       xlink:href="#linearGradient1361"
       id="linearGradient1421"
       gradientUnits="userSpaceOnUse"
       x1="-3.5090218"
       y1="278.50385"
       x2="-3.5090218"
       y2="276.88516" />
    <linearGradient
       inkscape:collect="always"
       xlink:href="#linearGradient1392"
       id="linearGradient1423"
       gradientUnits="userSpaceOnUse"
       gradientTransform="matrix(0.26458333,0,0,0.26458333,0,263.13332)"
       x1="-9.6826649"
       y1="64.402939"
       x2="-9.6826649"
       y2="39.082859" />
  </defs>
  <sodipodi:namedview
     id="base"
     pagecolor="#ffffff"
     bordercolor="#666666"
     borderopacity="1.0"
     inkscape:pageopacity="0.0"
     inkscape:pageshadow="2"
     inkscape:zoom="2"
     inkscape:cx="88.735546"
     inkscape:cy="63.811305"
     inkscape:document-units="mm"
     inkscape:current-layer="layer1"
     showgrid="false"
     units="px"
     inkscape:window-width="1366"
     inkscape:window-height="713"
     inkscape:window-x="0"
     inkscape:window-y="27"
     inkscape:window-maximized="1" />
  <metadata
     id="metadata5">
    <rdf:RDF>
      <cc:Work
         rdf:about="">
        <dc:format>image/svg+xml</dc:format>
        <dc:type
           rdf:resource="http://purl.org/dc/dcmitype/StillImage" />
        <dc:title></dc:title>
      </cc:Work>
    </rdf:RDF>
  </metadata>
  <g
     inkscape:label="Capa 1"
     inkscape:groupmode="layer"
     id="layer1"
     transform="translate(0,-263.13332)">
    <g
       id="g1742"
       inkscape:export-filename="/var/www/chamilo/main/img/icons/32/embedregistry.png"
       inkscape:export-xdpi="24.000002"
       inkscape:export-ydpi="24.000002">
      <rect
         y="263.13333"
         x="0"
         height="33.866665"
         width="33.866665"
         id="rect1532"
         style="opacity:0;fill:#ff9955;fill-opacity:1;stroke:none;stroke-width:0.40419206;stroke-linecap:round;stroke-linejoin:round;stroke-miterlimit:4;stroke-dasharray:none;stroke-dashoffset:0;stroke-opacity:1" />
      <g
         transform="matrix(1.6399888,0,0,1.6399888,22.077944,-178.44413)"
         id="g1427">
        <rect
           style="opacity:1;fill:#eaeaf0;fill-opacity:1;stroke:#000000;stroke-width:0.3696824;stroke-linecap:round;stroke-linejoin:round;stroke-miterlimit:4;stroke-dasharray:none;stroke-dashoffset:0;stroke-opacity:1"
           id="rect1343"
           width="16.637775"
           height="11.309497"
           x="-11.401783"
           y="277.59595"
           ry="1.1187079" />
        <rect
           style="opacity:1;fill:url(#linearGradient1353);fill-opacity:1;stroke:none;stroke-width:0.37266013;stroke-linecap:round;stroke-linejoin:bevel;stroke-miterlimit:4;stroke-dasharray:none;stroke-dashoffset:0;stroke-opacity:1"
           id="rect1345"
           width="15.607597"
           height="10.322994"
           x="-10.902472"
           y="278.14679"
           ry="1.0103216" />
      </g>
      <g
         transform="translate(-1.5130768e-6,6.7619774e-6)"
         id="g1717">
        <path
           style="fill:#87cdde;fill-rule:nonzero;stroke:none;stroke-width:0.21695696"
           inkscape:connector-curvature="0"
           d="m 23.313783,286.08384 c -0.0033,1.66527 -0.668096,3.26099 -1.848058,4.43607 -1.179961,1.17508 -2.77843,1.83323 -4.443694,1.82965 -0.145361,0 -0.290722,-0.004 -0.433914,-0.0174 -3.294531,-0.21277 -5.857838,-2.94696 -5.857838,-6.24836 0,-3.30139 2.563307,-6.03559 5.857838,-6.24836 0.143192,-0.013 0.288553,-0.0174 0.433914,-0.0174 1.665264,-0.004 3.263733,0.65457 4.443694,1.82965 1.179962,1.17508 1.844738,2.77081 1.848058,4.43607 z"
           id="Shape" />
        <ellipse
           style="fill:#aaeeff;fill-rule:nonzero;stroke:none;stroke-width:0.21695696"
           cx="16.588118"
           cy="286.08383"
           id="Oval"
           rx="5.8578382"
           ry="6.2483582" />
        <path
           style="fill:#0088aa;fill-rule:nonzero;stroke:none;stroke-width:0.21695696"
           inkscape:connector-curvature="0"
           d="m 22.662912,286.08384 c -0.01047,3.10682 -2.53405,5.61876 -5.640881,5.61485 -0.182244,0 -0.362318,-0.009 -0.542393,-0.026 -2.888328,-0.26559 -5.098472,-2.68829 -5.098472,-5.58881 0,-2.90051 2.210144,-5.32321 5.098472,-5.58881 0.180075,-0.0174 0.360149,-0.026 0.542393,-0.026 3.106833,-0.004 5.630419,2.50802 5.640881,5.61484 z"
           id="path1238" />
        <ellipse
           style="fill:#00aad4;fill-rule:nonzero;stroke:none;stroke-width:0.21695696"
           cx="16.744553"
           cy="286.14929"
           id="ellipse1240"
           rx="5.0984883"
           ry="5.5888133" />
        <path
           style="fill:#0088aa;fill-rule:nonzero;stroke:none;stroke-width:0.21695696"
           inkscape:connector-curvature="0"
           d="m 17.022031,291.6976 c -3.096874,-0.0149 -5.596693,-2.5349 -5.586743,-5.63179 0.0099,-3.0969 2.52591,-5.60076 5.622815,-5.59579 3.096906,0.005 5.604809,2.51691 5.604809,5.61382 -0.01101,3.10641 -2.534451,5.61772 -5.640881,5.61376 z m 0,-10.79361 c -2.857231,0.0149 -5.162787,2.34063 -5.15284,5.19789 0.0099,2.85725 2.331639,5.16685 5.188905,5.16187 2.857265,-0.005 5.170902,-2.32264 5.170902,-5.17991 -0.01078,-2.86686 -2.340084,-5.18404 -5.206967,-5.17985 z"
           id="path1242" />
        <path
           style="fill:#9e9e9e;fill-rule:nonzero;stroke:none;stroke-width:0.21695696"
           inkscape:connector-curvature="0"
           d="m 19.315266,286.26392 -0.30157,0.21044 -3.174081,2.19778 c -0.06622,0.0452 -0.152086,0.0498 -0.222769,0.012 -0.07068,-0.0378 -0.114439,-0.11188 -0.113514,-0.19206 v -4.81644 c -9.33e-4,-0.0802 0.04283,-0.15421 0.11351,-0.19206 0.07068,-0.0378 0.156558,-0.0332 0.222773,0.012 l 3.475651,2.40822 c 0.0582,0.0415 0.09275,0.10858 0.09275,0.18007 0,0.0715 -0.03455,0.13857 -0.09275,0.18008 z"
           id="path1244" />
        <path
           style="fill:#d5f6ff;fill-rule:nonzero;stroke:none;stroke-width:0.21695696"
           inkscape:connector-curvature="0"
           d="m 19.013696,286.47436 -3.174081,2.19778 c -0.06622,0.0452 -0.152086,0.0498 -0.222769,0.012 -0.07068,-0.0378 -0.114439,-0.11188 -0.113514,-0.19206 l -1.4e-5,-4.4064 c 0.04262,-1.9e-4 0.08427,0.0127 0.11934,0.0369 z"
           id="path1246" />
        <ellipse
           style="fill:none;fill-rule:evenodd;stroke:#000000;stroke-width:0.43391392;stroke-linecap:round;stroke-linejoin:round"
           cx="17.022032"
           cy="286.08383"
           id="ellipse1249"
           rx="6.2917519"
           ry="6.2646322" />
        <ellipse
           style="fill:none;fill-rule:evenodd;stroke:#000000;stroke-width:0.43391392;stroke-linecap:round;stroke-linejoin:round"
           cx="17.022032"
           cy="286.08383"
           id="ellipse1251"
           rx="5.423924"
           ry="5.3968043" />
        <path
           style="fill:none;fill-rule:evenodd;stroke:#000000;stroke-width:0.43391392;stroke-linecap:round;stroke-linejoin:round"
           inkscape:connector-curvature="0"
           d="m 15.503332,283.67473 v 4.81823 c -9.11e-4,0.0799 0.04273,0.15368 0.113218,0.19133 0.07049,0.0377 0.156075,0.0329 0.221981,-0.0123 l 3.476767,-2.40912 c 0.05845,-0.0409 0.09326,-0.10773 0.09326,-0.17906 0,-0.0713 -0.03481,-0.13817 -0.09326,-0.17905 l -3.476767,-2.40912 c -0.06591,-0.0452 -0.151494,-0.0499 -0.221981,-0.0123 -0.07049,0.0377 -0.114139,0.11143 -0.113218,0.19134 z"
           id="path1253" />
      </g>
      <g
         transform="matrix(1.6399888,0,0,1.6399888,22.370394,-179.32231)"
         id="g1411">
        <rect
           style="opacity:1;fill:url(#linearGradient1363);fill-opacity:1;stroke:none;stroke-width:0.35277778;stroke-linecap:round;stroke-linejoin:round;stroke-miterlimit:4;stroke-dasharray:none;stroke-dashoffset:0;stroke-opacity:1"
           id="rect1355"
           width="18.329483"
           height="2.2376251"
           x="-12.425961"
           y="276.67093"
           ry="0.62279654" />
        <path
           style="opacity:1;fill:url(#linearGradient1394);fill-opacity:1;stroke:none;stroke-width:0.31014252;stroke-linecap:round;stroke-linejoin:bevel;stroke-miterlimit:4;stroke-dasharray:none;stroke-dashoffset:0;stroke-opacity:1"
           d="m -1.5781983,276.28342 1.35650641,2.90422 H 1.3978474 l -1.35650626,-2.90422 z m 3.3806722,0.0238 1.3565063,2.90422 h 1.6190227 l -1.3565063,-2.90422 z m -6.7608275,0.0238 1.3565063,2.90422 h 1.6190226 l -1.3565064,-2.90422 z m -3.3801554,0.0243 1.3565063,2.9037 H -5.36298 l -1.3565063,-2.9037 z m -3.380156,0.0238 1.356507,2.9037 h 1.6190225 l -1.3565065,-2.9037 z"
           id="rect1365"
           inkscape:connector-curvature="0"
           clip-path="url(#clipPath1400)" />
        <rect
           ry="0.45447317"
           y="276.67093"
           x="-12.425961"
           height="2.2376251"
           width="18.329483"
           id="rect1406"
           style="opacity:1;fill:none;fill-opacity:1;stroke:#000000;stroke-width:0.35277778;stroke-linecap:round;stroke-linejoin:round;stroke-miterlimit:4;stroke-dasharray:none;stroke-dashoffset:0;stroke-opacity:1" />
      </g>
      <g
         inkscape:transform-center-y="-3.2008351"
         inkscape:transform-center-x="-9.3829614"
         id="g1419"
         transform="matrix(1.5899422,-0.40205348,0.40205348,1.5899422,-89.825568,-172.91553)">
        <rect
           ry="0.62279654"
           y="276.67093"
           x="-12.425961"
           height="2.2376251"
           width="18.329483"
           id="rect1413"
           style="opacity:1;fill:url(#linearGradient1421);fill-opacity:1;stroke:none;stroke-width:0.35277778;stroke-linecap:round;stroke-linejoin:round;stroke-miterlimit:4;stroke-dasharray:none;stroke-dashoffset:0;stroke-opacity:1" />
        <path
           clip-path="url(#clipPath1400)"
           inkscape:connector-curvature="0"
           id="path1415"
           d="m -1.5781983,276.28342 1.35650641,2.90422 H 1.3978474 l -1.35650626,-2.90422 z m 3.3806722,0.0238 1.3565063,2.90422 h 1.6190227 l -1.3565063,-2.90422 z m -6.7608275,0.0238 1.3565063,2.90422 h 1.6190226 l -1.3565064,-2.90422 z m -3.3801554,0.0243 1.3565063,2.9037 H -5.36298 l -1.3565063,-2.9037 z m -3.380156,0.0238 1.356507,2.9037 h 1.6190225 l -1.3565065,-2.9037 z"
           style="opacity:1;fill:url(#linearGradient1423);fill-opacity:1;stroke:none;stroke-width:0.31014252;stroke-linecap:round;stroke-linejoin:bevel;stroke-miterlimit:4;stroke-dasharray:none;stroke-dashoffset:0;stroke-opacity:1" />
        <rect
           style="opacity:1;fill:none;fill-opacity:1;stroke:#000000;stroke-width:0.35277778;stroke-linecap:round;stroke-linejoin:round;stroke-miterlimit:4;stroke-dasharray:none;stroke-dashoffset:0;stroke-opacity:1"
           id="rect1417"
           width="18.329483"
           height="2.2376251"
           x="-12.425961"
           y="276.67093"
           ry="0.45447317" />
      </g>
    </g>
  </g>
</svg>
