<?xml version="1.0" encoding="UTF-8" standalone="no"?>
<svg
   xmlns:dc="http://purl.org/dc/elements/1.1/"
   xmlns:cc="http://creativecommons.org/ns#"
   xmlns:rdf="http://www.w3.org/1999/02/22-rdf-syntax-ns#"
   xmlns:svg="http://www.w3.org/2000/svg"
   xmlns="http://www.w3.org/2000/svg"
   xmlns:xlink="http://www.w3.org/1999/xlink"
   xmlns:sodipodi="http://sodipodi.sourceforge.net/DTD/sodipodi-0.dtd"
   xmlns:inkscape="http://www.inkscape.org/namespaces/inkscape"
   height="128"
   viewBox="0 0 128 128"
   width="128"
   version="1.1"
   id="svg4"
   sodipodi:docname="external_link.svg"
   inkscape:version="0.92.3 (2405546, 2018-03-11)">
  <metadata
     id="metadata10">
    <rdf:RDF>
      <cc:Work
         rdf:about="">
        <dc:format>image/svg+xml</dc:format>
        <dc:type
           rdf:resource="http://purl.org/dc/dcmitype/StillImage" />
        <dc:title></dc:title>
      </cc:Work>
    </rdf:RDF>
  </metadata>
  <defs
     id="defs8">
    <radialGradient
       xlink:href="#linearGradient5060"
       r="117.14286"
       id="radialGradient6719"
       gradientUnits="userSpaceOnUse"
       gradientTransform="matrix(-2.774389,0,0,1.969706,112.7623,-872.8854)"
       fy="486.64789"
       fx="605.71429"
       cy="486.64789"
       cx="605.71429" />
    <linearGradient
       id="linearGradient5060">
      <stop
         style="stop-color:black;stop-opacity:1;"
         offset="0"
         id="stop5062" />
      <stop
         style="stop-color:black;stop-opacity:0;"
         offset="1"
         id="stop5064" />
    </linearGradient>
    <radialGradient
       xlink:href="#linearGradient5060"
       r="117.14286"
       id="radialGradient6717"
       gradientUnits="userSpaceOnUse"
       gradientTransform="matrix(2.774389,0,0,1.969706,-1891.633,-872.8854)"
       fy="486.64789"
       fx="605.71429"
       cy="486.64789"
       cx="605.71429" />
    <linearGradient
       id="linearGradient5048">
      <stop
         style="stop-color:black;stop-opacity:0;"
         offset="0"
         id="stop5050" />
      <stop
         style="stop-color:black;stop-opacity:1;"
         offset="0.5"
         id="stop5056" />
      <stop
         style="stop-color:black;stop-opacity:0;"
         offset="1"
         id="stop5052" />
    </linearGradient>
    <linearGradient
       y2="609.50507"
       y1="366.64789"
       xlink:href="#linearGradient5048"
       x2="302.85715"
       x1="302.85715"
       id="linearGradient6715"
       gradientUnits="userSpaceOnUse"
       gradientTransform="matrix(2.774389,0,0,1.969706,-1892.179,-872.8854)" />
    <linearGradient
       id="linearGradient11520">
      <stop
         style="stop-color:#ffffff;stop-opacity:1.0000000;"
         offset="0.0000000"
         id="stop11522" />
      <stop
         style="stop-color:#dcdcdc;stop-opacity:1.0000000;"
         offset="1.0000000"
         id="stop11524" />
    </linearGradient>
    <radialGradient
       xlink:href="#linearGradient5060"
       r="6.5659914"
       id="radialGradient1348"
       gradientUnits="userSpaceOnUse"
       gradientTransform="matrix(1,0,0,0.338462,0,29.48178)"
       fy="44.565483"
       fx="30.203562"
       cy="44.565483"
       cx="30.203562" />
    <radialGradient
       xlink:href="#linearGradient11520"
       r="20.530962"
       id="radialGradient1366"
       gradientUnits="userSpaceOnUse"
       gradientTransform="matrix(1.0332421,0,0,1.0332421,-13.047087,-19.221421)"
       fy="35.87817"
       fx="24.44569"
       cy="35.87817"
       cx="24.44569" />
  </defs>
  <sodipodi:namedview
     pagecolor="#ffffff"
     bordercolor="#666666"
     borderopacity="1"
     objecttolerance="10"
     gridtolerance="10"
     guidetolerance="10"
     inkscape:pageopacity="0"
     inkscape:pageshadow="2"
     inkscape:window-width="1319"
     inkscape:window-height="713"
     id="namedview6"
     showgrid="false"
     inkscape:zoom="2"
     inkscape:cx="102.21806"
     inkscape:cy="29.007403"
     inkscape:window-x="47"
     inkscape:window-y="27"
     inkscape:window-maximized="1"
     inkscape:current-layer="svg4" />
  <g
     id="g1121"
     transform="translate(0.58755422,-1.3133354)"
     inkscape:export-filename="/var/www/chamilo/main/img/icons/16/external_link.png"
     inkscape:export-xdpi="12"
     inkscape:export-ydpi="12">
    <rect
       y="1.3133354"
       x="-0.58755422"
       height="128"
       width="128"
       id="rect1111"
       style="opacity:1;fill:#cbe4ff;fill-opacity:0;stroke:none;stroke-width:25.76903534;stroke-miterlimit:4;stroke-dasharray:none;stroke-dashoffset:0;stroke-opacity:1" />
    <g
       transform="matrix(7.4377987,0,0,7.4377987,-27.054286,-19.297854)"
       id="g1109">
      <path
         sodipodi:type="inkscape:offset"
         inkscape:radius="0.43343499"
         inkscape:original="M 13.705078 4.3925781 A 0.7727402 0.7727402 0 0 0 13.738281 5.9375 L 16.503906 5.9375 L 8.5605469 13.888672 A 0.7727402 0.7727402 0 1 0 9.6425781 14.986328 L 17.601562 7.0273438 L 17.601562 9.8007812 A 0.7727402 0.7727402 0 0 0 19.146484 9.8007812 L 19.146484 5.1640625 A 0.7727402 0.7727402 0 0 0 18.375 4.3925781 L 13.738281 4.3925781 A 0.7727402 0.7727402 0 0 0 13.705078 4.3925781 z "
         style="fill:#3566a4;fill-opacity:1;stroke-width:0.77274019"
         id="path1025"
         d="m 13.689453,3.9589844 c -0.624612,0.023526 -1.17554,0.6075108 -1.162109,1.2324218 0.01342,0.6242928 0.586611,1.1819055 1.210937,1.1796876 h 1.71875 l -7.2031248,7.2109372 0.025391,-0.02344 c -0.2517986,0.214144 -0.4093209,0.535007 -0.4238281,0.865234 -0.014507,0.330227 0.1156067,0.66499 0.3476562,0.900391 0.2320495,0.2354 0.5641303,0.369146 0.8945312,0.359375 0.330401,-0.0098 0.6533617,-0.163407 0.8710938,-0.41211 l 7.199219,-7.1972652 v 1.7265624 a 0.43347834,0.43347834 0 0 0 0,0.011719 c 0.01668,0.620519 0.584334,1.173828 1.205078,1.173828 0.620743,0 1.190346,-0.553309 1.207031,-1.173828 a 0.43347834,0.43347834 0 0 0 0,-0.011719 V 5.1640625 C 19.579055,4.5338174 19.005245,3.9600081 18.375,3.9589844 h -4.626953 c -0.01727,-3.712e-4 -0.03546,-3.712e-4 -0.05274,0 a 0.43347834,0.43347834 0 0 0 -0.0059,0 z" />
      <path
         inkscape:connector-curvature="0"
         d="M 17.601428,7.0271384 9.6422038,14.986362 A 0.7727402,0.7727402 0 1 1 8.5603676,13.889071 L 16.504137,5.9375747 h -2.76641 a 0.7727402,0.7727402 0 0 1 0,-1.5454804 h 4.636441 a 0.7727402,0.7727402 0 0 1 0.77274,0.7727402 v 4.6364412 a 0.7727402,0.7727402 0 0 1 -1.54548,0 z"
         id="path819"
         style="fill:#98b9dc;fill-opacity:1;stroke-width:0.77274019" />
      <path
         sodipodi:type="inkscape:offset"
         inkscape:radius="0.49225906"
         inkscape:original="M 6.7832031 5.9375 C 5.9331889 5.9375 5.2382812 6.6324077 5.2382812 7.4824219 L 5.2382812 16.755859 A 1.5454804 1.5454804 0 0 0 6.7832031 18.300781 L 16.056641 18.300781 A 1.5454804 1.5454804 0 0 0 17.601562 16.755859 L 17.601562 12.892578 A 0.7727405 0.7727405 0 0 0 16.056641 12.892578 L 16.056641 16.755859 L 6.7832031 16.755859 L 6.7832031 7.4824219 L 10.646484 7.4824219 A 0.7727402 0.7727402 0 0 0 10.646484 5.9375 L 6.7832031 5.9375 z "
         style="fill:#3566a4;fill-opacity:1;stroke-width:0.77274019"
         id="path1021"
         d="m 6.7832031,5.4453125 c -1.1183035,0 -2.0371094,0.9188058 -2.0371093,2.0371094 v 9.2734371 c 1.926e-4,0.533234 0.2206032,1.0624 0.5976562,1.439453 0.377053,0.377054 0.9062196,0.597464 1.4394531,0.597657 h 9.2734379 c 0.533233,-1.93e-4 1.0624,-0.220603 1.439453,-0.597657 0.377053,-0.377053 0.597463,-0.906219 0.597656,-1.439453 v -3.863281 a 0.49230828,0.49230828 0 0 0 0,-0.01367 c -0.01752,-0.650764 -0.614624,-1.230469 -1.265625,-1.230468 -0.651001,0 -1.246148,0.579704 -1.263672,1.230468 a 0.49230828,0.49230828 0 0 0 0,0.01367 v 3.371094 H 7.2753906 V 7.9746094 h 3.3710934 a 0.49230828,0.49230828 0 0 0 0.01367,0 c 0.650781,-0.0175 1.230469,-0.6126563 1.230469,-1.2636719 0,-0.6510156 -0.579688,-1.2481246 -1.230469,-1.265625 a 0.49230828,0.49230828 0 0 0 -0.01367,0 z" />
      <path
         inkscape:connector-curvature="0"
         d="m 16.055947,12.892236 a 0.7727405,0.7727405 0 0 1 1.545481,0 v 3.863702 a 1.5454804,1.5454804 0 0 1 -1.545481,1.54548 H 6.7830651 A 1.5454804,1.5454804 0 0 1 5.2375847,16.755938 V 7.4830551 c 0,-0.8500142 0.6954662,-1.5454804 1.5454804,-1.5454804 h 3.8637009 a 0.7727402,0.7727402 0 0 1 0,1.5454804 H 6.7830651 v 9.2728829 h 9.2728819 z"
         id="path2"
         style="fill:#5d91c9;fill-opacity:1;stroke-width:0.77274019" />
      <path
         style="fill:#98b9dc;fill-opacity:1;stroke-width:0.77274019"
         id="path1045"
         d="M 5.2375847,16.172145 V 7.4830551 c 0,-0.8500142 0.6954662,-1.5454804 1.5454804,-1.5454804 h 3.8637009 c 1.03032,0 1.03032,1.5454804 0,1.5454804 H 6.7830651 v 7.4866099 z"
         inkscape:connector-curvature="0"
         sodipodi:nodetypes="cssssccc" />
      <path
         style="fill:#5d91c9;fill-opacity:1;stroke-width:0.77274019"
         id="path1047"
         d="M 17.601428,7.0271384 9.6422038,14.986362 c -0.3824604,0.43483 -0.9131974,0.259341 -1.1233276,0.05045 3.4505518,-3.49488 6.8466718,-7.0202284 10.3359958,-10.4765782 0.08898,0.064559 0.292036,0.2042691 0.292036,0.6046007 v 4.6364412 c -7.41e-4,1.0295783 -1.546221,1.0295783 -1.54548,0 z"
         inkscape:connector-curvature="0"
         sodipodi:nodetypes="ccccsccc" />
    </g>
  </g>
</svg>
