<?xml version="1.0" encoding="UTF-8" standalone="no"?>
<!-- Created with Inkscape (http://www.inkscape.org/) -->

<svg
   width="128"
   height="128"
   viewBox="0 0 128 128"
   id="svg10658"
   version="1.1"
   inkscape:version="1.1.2 (0a00cf5339, 2022-02-04)"
   sodipodi:docname="eye-slash.svg"
   xmlns:inkscape="http://www.inkscape.org/namespaces/inkscape"
   xmlns:sodipodi="http://sodipodi.sourceforge.net/DTD/sodipodi-0.dtd"
   xmlns:xlink="http://www.w3.org/1999/xlink"
   xmlns="http://www.w3.org/2000/svg"
   xmlns:svg="http://www.w3.org/2000/svg"
   xmlns:rdf="http://www.w3.org/1999/02/22-rdf-syntax-ns#"
   xmlns:cc="http://creativecommons.org/ns#"
   xmlns:dc="http://purl.org/dc/elements/1.1/">
  <defs
     id="defs10660">
    <linearGradient
       inkscape:collect="always"
       xlink:href="#linearGradient7610"
       id="linearGradient7618"
       x1="199.92903"
       y1="85.563477"
       x2="211.45731"
       y2="85.563477"
       gradientUnits="userSpaceOnUse"
       gradientTransform="matrix(0.86698477,0,0,0.86698477,23.39458,15.899244)" />
    <linearGradient
       id="linearGradient7610"
       inkscape:collect="always">
      <stop
         id="stop13016"
         offset="0"
         style="stop-color:#0088aa;stop-opacity:1;" />
      <stop
         id="stop13018"
         offset="1"
         style="stop-color:#006680;stop-opacity:1" />
    </linearGradient>
  </defs>
  <sodipodi:namedview
     id="base"
     pagecolor="#ffffff"
     bordercolor="#666666"
     borderopacity="1.0"
     inkscape:pageopacity="0.0"
     inkscape:pageshadow="2"
     inkscape:zoom="2"
     inkscape:cx="129"
     inkscape:cy="56"
     inkscape:document-units="px"
     inkscape:current-layer="layer1"
     showgrid="false"
     units="px"
     inkscape:window-width="1366"
     inkscape:window-height="731"
     inkscape:window-x="0"
     inkscape:window-y="0"
     inkscape:window-maximized="1"
     inkscape:pagecheckerboard="0"
     inkscape:snap-bbox="true"
     inkscape:snap-center="true"
     inkscape:lockguides="true" />
  <metadata
     id="metadata10663">
    <rdf:RDF>
      <cc:Work
         rdf:about="">
        <dc:format>image/svg+xml</dc:format>
        <dc:type
           rdf:resource="http://purl.org/dc/dcmitype/StillImage" />
      </cc:Work>
    </rdf:RDF>
  </metadata>
  <g
     inkscape:label="Capa 1"
     inkscape:groupmode="layer"
     id="layer1"
     transform="translate(0,-924.36216)">
    <g
       id="g7343"
       transform="matrix(5.3333333,0,0,5.3333333,-1015.2146,511.94192)"
       inkscape:export-filename="/var/www/chamilo/main/img/icons/22/eyes.png"
       inkscape:export-xdpi="90"
       inkscape:export-ydpi="90">
      <rect
         ry="0"
         y="77.328796"
         x="190.35274"
         height="24"
         width="24"
         id="rect6795"
         style="opacity:0;fill:#ececec;fill-opacity:1;stroke:none;stroke-opacity:1" />
      <g
         transform="translate(1.1929383e-6,1.270475e-6)"
         id="g7329">
        <path
           style="fill:#ffffff;stroke:none"
           d="m 192.14335,91.247329 c 5.98435,5.011055 14.20046,4.730023 18.77758,-0.506146 -4.3124,-7.39171 -12.87365,-6.685246 -18.86099,-1.02757 -0.7021,0.541768 -0.43847,1.196626 0.0834,1.533716 z"
           id="path6799"
           inkscape:connector-curvature="0"
           sodipodi:nodetypes="cccc" />
        <path
           id="svg_117"
           d="m 190.85418,90.198509 c 0,0 9.31585,-13.273622 22.65029,-1.857142 0,0 0.60882,0.548175 0.21318,1.248325 -0.49868,0.882631 -1.70499,-0.578496 -1.70499,-0.578496 0,0 -9.25484,-10.959822 -21.15848,1.187313 z"
           inkscape:connector-curvature="0" />
        <path
           id="svg_119"
           d="m 205.22627,86.03806 c 0.92486,0.906913 1.49857,2.170679 1.49857,3.568316 0,2.760015 -2.23741,4.997418 -4.99741,4.997418 -2.76003,0 -4.99743,-2.237403 -4.99743,-4.997418 0,-1.344005 0.53064,-2.564272 1.39383,-3.462105 0,0 1.38645,-0.585112 3.6036,-0.585112 2.21712,0 3.49884,0.478901 3.49884,0.478901 z m -5.88174,3.362228 -1.96163,-0.181594 c -0.0113,0.12796 -0.0196,0.256977 -0.0196,0.387894 0,0.686677 0.16301,1.333658 0.44554,1.911591 l 1.77181,-0.858348 c -0.15647,-0.318212 -0.24663,-0.674642 -0.24663,-1.053033 2e-4,-0.0701 0.005,-0.138517 0.0106,-0.20651 z m 2.34762,-1.588944 c -1.01079,0 -1.83008,0.819284 -1.83008,1.830084 0,1.010801 0.81929,1.830085 1.83008,1.830085 1.0108,0 1.83009,-0.819283 1.83009,-1.830085 0,-1.010801 -0.81929,-1.830084 -1.83009,-1.830084 z"
           inkscape:connector-curvature="0"
           style="fill:url(#linearGradient7618);fill-opacity:1" />
        <path
           id="svg_118"
           d="m 191.58483,90.168006 c 0,0 10.22917,-11.294645 19.87984,-0.426155 0,0 1.43098,1.765627 0.48716,2.526786 -0.94382,0.761159 -1.43098,-0.213168 -1.67447,-0.365326 -0.2435,-0.15216 -0.39584,0.09133 -0.5785,0.395831 -0.18266,0.3045 -8.92002,6.606397 -17.99237,-1.369977 0,0 9.83333,7.915547 17.74888,0.517668 0,0 0.88299,-0.974145 -0.0303,-2.100632 -0.91332,-1.126486 -6.39341,-8.189727 -17.84022,0.821805 z"
           inkscape:connector-curvature="0"
           style="fill:#000000" />
        <circle
           r="2.0291471"
           cy="89.728737"
           cx="201.61891"
           style="fill:#000000;fill-opacity:1;stroke:none"
           id="path7627"
           inkscape:export-filename="/var/www/chamilo/main/img/icons/32/visible.png"
           inkscape:export-xdpi="90"
           inkscape:export-ydpi="90" />
      </g>
    </g>
    <rect
       style="fill:#000000;fill-opacity:1;stroke:none;stroke-width:0.24539;stroke-opacity:1"
       id="rect15804"
       width="12.108109"
       height="104"
       x="547.42493"
       y="771.96112"
       transform="rotate(30.078781)" />
    <path
       id="rect15981"
       style="fill:#000000;fill-opacity:1;stroke:none;stroke-width:0.160646;stroke-opacity:1"
       transform="translate(0,924.36216)"
       d="m 94.03125,40.289062 c 0.03225,0.176784 0.07362,0.349276 0.144531,0.509766 -0.220186,-0.08522 -0.362933,-0.138266 -0.46289,-0.199219 l -30.574219,52.78711 c 0.06363,-0.0082 0.117676,-0.01507 0.189453,-0.02539 0.408593,0.06455 0.466826,0.07156 0.523437,0.08789 0.08692,-0.01245 0.17593,-0.0083 0.263672,-0.01367 0.04824,0.03894 0.102742,0.07176 0.152344,0.109375 0.657826,-0.423215 1.768688,-0.718578 3.333984,-0.712891 0.538635,0.002 0.920304,-0.01997 1.195313,-0.02344 0.01719,-0.674291 0.04467,-1.170406 0.08398,-1.210938 0.03626,-0.03739 0.08163,0.307095 0.136719,1.214844 0.200872,0.01204 0.307449,0.0568 0.353516,0.169922 l 29.048828,-50.15625 c -0.145844,0.0089 -0.26597,0.0028 -0.375,-0.01367 -0.87843,1.144574 -1.672862,1.932916 -1.527344,-0.460938 0.0044,-0.0717 0.008,-0.193654 0.01367,-0.318359 -0.05991,-0.03988 -0.119388,-0.07813 -0.183594,-0.128906 -0.387748,-0.02539 -0.610037,-0.07193 -0.796875,-0.228516 -0.01547,4.03e-4 -0.02796,-0.0038 -0.04297,-0.0039 -0.681922,1.451327 -1.104922,0.486426 -1.300781,-0.814453 -0.0094,-0.01931 -0.02254,-0.03698 -0.03125,-0.05664 0.0066,0.0025 0.01662,0.0071 0.02344,0.0098 -0.02224,-0.152888 -0.04257,-0.308755 -0.05859,-0.466797 -0.03865,-0.01841 -0.07221,-0.03612 -0.109375,-0.05469 z m 0.109375,0.05469 c 0.0044,0.0021 0.0093,0.0038 0.01367,0.0059 -0.0052,-0.0087 -0.01036,-0.01465 -0.01563,-0.02344 5.88e-4,0.0059 0.0014,0.01169 0.002,0.01758 z m 4.265625,1.990234 c -0.04966,0.06674 -0.09871,0.130851 -0.148438,0.197266 0.0151,0.02234 0.02673,0.04671 0.04297,0.06836 0.02153,0.02871 0.11073,0.04922 0.210938,0.06836 l 0.0957,-0.166016 z M 63.080078,93.738281 c -0.04695,-9.79e-4 -0.09307,0.0013 -0.138672,0.0078 0.168032,0.122303 0.341798,0.267122 0.517578,0.417968 0.0637,-0.0088 0.1402,-0.0091 0.210938,-0.01367 0.02889,-0.05428 0.06393,-0.107307 0.103516,-0.160157 -0.226808,-0.140381 -0.464302,-0.247177 -0.69336,-0.251953 z" />
    <path
       id="rect15983"
       style="fill:#000000;fill-opacity:1;stroke:none;stroke-width:0.160646;stroke-opacity:1"
       transform="translate(0,924.36216)"
       d="m 103.0957,45.40625 c 0.26344,0.195909 0.43929,0.352097 0.54492,0.472656 0.002,-0.07817 0.004,-0.156791 0.01,-0.228515 -0.23451,-0.144886 -0.41494,-0.209704 -0.55469,-0.244141 z m 0.67774,0.328125 c -5.1e-4,0.128406 -0.003,0.237128 -0.008,0.322266 0.0402,0.08924 0.03,0.150227 -0.0117,0.189453 -0.004,0.05331 -0.0113,0.123747 -0.0117,0.158203 0.0871,0.01802 0.0443,0.0087 0.21875,0.04687 0.11996,-0.07481 0.24254,-0.14428 0.36718,-0.212891 -0.14942,-0.148756 -0.3015,-0.292497 -0.45703,-0.433593 -0.0344,-0.02514 -0.0647,-0.04812 -0.0977,-0.07031 z m -1.08203,0.06641 -0.0957,0.167969 c 0.41062,0.232805 0.80652,0.435532 1.11133,0.576172 -0.007,-0.03431 -0.0149,-0.06953 -0.0215,-0.105469 -0.0732,-0.03166 -0.14546,-0.06452 -0.21875,-0.0957 0.008,0.0035 0.14713,0.0321 0.20898,0.04492 -0.006,-0.03258 -0.0124,-0.05975 -0.0176,-0.09375 -0.0904,0.02766 -0.18206,0.03125 -0.22265,0.0332 -0.22911,-0.09849 -0.45184,-0.205033 -0.625,-0.378906 -0.0366,-0.0367 -0.0775,-0.08885 -0.11914,-0.148438 z m -0.16602,0.289063 -25.855468,44.640625 c 0.254581,-0.105524 0.520186,-0.18379 0.798828,-0.220703 0.242856,-0.043 0.48383,-0.09798 0.728516,-0.128907 0.234421,-0.02963 -0.113588,0.201809 0.132812,0.103516 0.276252,-0.412461 0.490152,-0.621337 0.480469,-0.251953 0.144583,-0.09727 0.284363,-0.203189 0.435547,-0.289063 1.049558,-0.596158 1.26622,-0.679273 2.09375,-1.027343 0.338194,-0.454294 0.728367,-0.662779 1.115234,-0.673828 0.160373,-0.0046 0.318228,0.03388 0.472656,0.08984 0.457342,-0.122754 0.874794,-0.189636 1.248047,-0.207031 L 107.00781,48.705078 c -0.0262,-0.03187 -0.0536,-0.06276 -0.0781,-0.0957 -0.06,-0.02704 -0.11889,-0.06505 -0.17774,-0.103516 -0.38205,0.04151 -0.65386,0.01935 -0.86328,-0.07227 -0.17411,0.04627 -0.3232,0.07092 -0.44922,0.07422 0.27084,0.132368 0.70137,0.208985 0.50391,0.226563 -0.17247,0.01535 -0.40714,-0.09363 -0.63477,-0.228516 -0.23782,-0.02296 -0.37725,-0.134152 -0.45898,-0.300781 -0.0254,-0.01755 -0.0574,-0.03925 -0.0801,-0.05469 -0.15346,-0.144933 -0.31357,-0.284432 -0.46094,-0.435547 -0.20147,-0.206596 -0.34294,-0.406378 -0.44531,-0.638672 -0.59638,-0.200733 -1.03822,-0.523978 -1.33789,-0.986328 z m 1.22266,0.376953 c 0.006,0.03596 0.0163,0.07183 0.0391,0.113281 0.30534,0.13692 0.50997,0.213034 0.375,0.113281 -0.12571,-0.09291 -0.26905,-0.16173 -0.41406,-0.226562 z m 0.95312,0.152344 c 0.003,0.151195 0.005,0.342043 0.0215,0.382812 0.0146,-0.0082 0.0289,-0.01524 0.0469,-0.02148 0.0138,-0.08505 0.0185,-0.108036 0.0273,-0.160157 -0.008,-0.04295 -0.0161,-0.0859 -0.0234,-0.128906 -0.0268,-0.02708 -0.0547,-0.05436 -0.0723,-0.07227 z m 0.0684,0.361328 c -0.003,0.01664 -0.003,0.01323 -0.006,0.03125 -4.3e-4,0.0087 -0.002,0.01674 -0.002,0.02539 0.0191,0.0093 0.0409,0.01597 0.0762,0.02148 -0.006,-0.0316 -0.01,-0.06401 -0.0156,-0.0957 -0.019,0.0064 -0.0316,0.0091 -0.0508,0.01563 z m -0.008,0.05664 c -0.0154,-0.0075 -0.0311,-0.01581 -0.0391,-0.03516 -0.0508,0.02851 -0.0826,0.07047 -0.0977,0.119141 0.0443,5.89e-4 0.0885,0.0032 0.13281,0.0039 0.002,-0.02974 0.002,-0.05799 0.004,-0.08789 z m 0.19922,-0.11914 c -0.0335,0.01116 -0.0576,0.01783 -0.0918,0.0293 0.006,0.04278 0.0132,0.08469 0.0234,0.125 0.0407,0.0079 0.0828,0.01687 0.14453,0.04102 -0.023,-0.05933 -0.0517,-0.131698 -0.0762,-0.195312 z m -0.20313,0.234375 c -0.0352,0.0042 -0.0702,0.0054 -0.10547,0.0098 0.0339,0.01532 0.0689,0.03489 0.10157,0.04883 9.6e-4,-0.01969 0.003,-0.03879 0.004,-0.05859 z m -27.365232,43.6875 c -0.186387,9.9e-4 -0.332837,0.394456 -0.46875,0.935547 0.09759,0.02125 0.195397,0.0426 0.285156,0.07227 0.13654,-0.05829 0.273569,-0.09911 0.41211,-0.132812 0.05743,-0.114649 0.122169,-0.223847 0.183594,-0.339844 -0.15862,-0.375358 -0.293515,-0.535786 -0.41211,-0.535156 z m -0.628906,0.09375 c -0.06526,0.0036 -0.147753,0.01877 -0.232422,0.03516 l -0.449219,0.777344 c 0.100209,-0.01356 0.174389,-0.02332 0.31836,-0.04492 0.0055,3.1e-4 0.01014,0.0016 0.01563,0.002 0.185055,-0.199658 0.354188,-0.412387 0.492187,-0.648437 0.0587,-0.100409 -0.0142,-0.12834 -0.144531,-0.121094 z" />
    <path
       id="rect15985"
       style="fill:#000000;fill-opacity:1;stroke:none;stroke-width:0.160646;stroke-opacity:1"
       d="M 111.43164,51.417969 91.826172,85.269531 c 0.184133,-0.210982 0.414525,-0.322177 0.671875,-0.328125 0.306294,-0.0071 0.650661,0.13892 1,0.435547 0.247967,-0.119068 0.486544,-0.256623 0.722656,-0.398437 -0.394865,-2.193256 0.305697,-3.365599 1.220703,-3.353516 0.612429,0.008 1.309064,0.575562 1.839844,1.6875 1.025471,-0.969823 1.936629,-1.500434 2.654297,-1.689453 L 115.45703,54.826172 c -0.44746,0.02798 -1.2865,-0.370414 -3.00976,-1.082031 -0.0467,-0.0193 -0.0257,-0.142426 0.0254,-0.302735 -0.0132,-0.01846 -0.0229,-0.02992 -0.041,-0.05664 -0.49321,-0.726227 -0.81489,-1.387947 -1,-1.966797 z m 1.12695,1.789062 c -0.0481,0.0073 -0.0539,0.06106 -0.0469,0.123047 0.0151,-0.04144 0.0295,-0.07988 0.0469,-0.123047 z"
       transform="translate(0,924.36216)" />
    <path
       id="rect15987"
       style="fill:#000000;fill-opacity:1;stroke:none;stroke-width:0.160646;stroke-opacity:1"
       transform="translate(0,924.36216)"
       d="m 120.42773,56.597656 -11.90429,20.552735 c 0.28243,0.09783 0.59682,0.290418 0.92383,0.535156 0.29128,-0.401499 0.70167,-0.60744 1.14257,-0.580078 0.84284,0.0523 1.79482,0.959602 2.23438,2.976562 l 11.00976,-19.011719 c -0.28956,-0.389003 -0.56466,-0.889383 -0.80664,-1.505859 -0.79022,-1.054919 -1.64123,-2.066034 -2.59961,-2.966797 z" />
  </g>
</svg>
