<?xml version="1.0" encoding="UTF-8" standalone="no"?>
<!-- Created with Inkscape (http://www.inkscape.org/) -->

<svg
   xmlns:osb="http://www.openswatchbook.org/uri/2009/osb"
   xmlns:dc="http://purl.org/dc/elements/1.1/"
   xmlns:cc="http://creativecommons.org/ns#"
   xmlns:rdf="http://www.w3.org/1999/02/22-rdf-syntax-ns#"
   xmlns:svg="http://www.w3.org/2000/svg"
   xmlns="http://www.w3.org/2000/svg"
   xmlns:xlink="http://www.w3.org/1999/xlink"
   xmlns:sodipodi="http://sodipodi.sourceforge.net/DTD/sodipodi-0.dtd"
   xmlns:inkscape="http://www.inkscape.org/namespaces/inkscape"
   width="128"
   height="128"
   viewBox="0 0 128 128"
   id="svg2"
   version="1.1"
   inkscape:version="0.91 r13725"
   sodipodi:docname="file_java.svg">
  <defs
     id="defs4">
    <linearGradient
       inkscape:collect="always"
       id="linearGradient89352">
      <stop
         style="stop-color:#234e8f;stop-opacity:1"
         offset="0"
         id="stop89354" />
      <stop
         style="stop-color:#3969b2;stop-opacity:1"
         offset="1"
         id="stop89356" />
    </linearGradient>
    <linearGradient
       id="XMLID_8_"
       gradientUnits="userSpaceOnUse"
       x1="74.5"
       y1="5.0479002"
       x2="74.5"
       y2="124.2402"
       gradientTransform="matrix(1.0333334,0,0,1.0333334,-12.351081,919.84935)">
      <stop
         offset="0"
         style="stop-color:#FFFFFF"
         id="stop4539" />
      <stop
         offset="1"
         style="stop-color:#E1E1DF"
         id="stop4541" />
    </linearGradient>
    <linearGradient
       id="XMLID_9_"
       gradientUnits="userSpaceOnUse"
       x1="74.5"
       y1="11.0811"
       x2="74.5"
       y2="121.4673"
       gradientTransform="matrix(1.0333334,0,0,1.0333334,-12.569554,919.84935)">
      <stop
         offset="0"
         style="stop-color:#FDFDFD"
         id="stop4546" />
      <stop
         offset="0.2985"
         style="stop-color:#F3F2F2"
         id="stop4548" />
      <stop
         offset="0.8174"
         style="stop-color:#D7D6D6"
         id="stop4550" />
      <stop
         offset="1"
         style="stop-color:#CCCBCA"
         id="stop4552" />
    </linearGradient>
    <radialGradient
       id="XMLID_10_"
       cx="110"
       cy="32.869099"
       r="15.5963"
       gradientUnits="userSpaceOnUse"
       gradientTransform="matrix(1.0333334,0,0,1.0333334,-12.351081,919.84935)">
      <stop
         offset="0.2135"
         style="stop-color:#8E8E8F"
         id="stop4557" />
      <stop
         offset="0.927"
         style="stop-color:#EEEEEE"
         id="stop4559" />
    </radialGradient>
    <linearGradient
       id="XMLID_11_"
       gradientUnits="userSpaceOnUse"
       x1="92.023399"
       y1="9.9473"
       x2="104.2735"
       y2="32.947201"
       gradientTransform="matrix(1.0333334,0,0,1.0333334,-12.351081,919.84935)">
      <stop
         offset="0"
         style="stop-color:#FFFEFE"
         id="stop4566" />
      <stop
         offset="1"
         style="stop-color:#CFD0D0"
         id="stop4568" />
    </linearGradient>
    <linearGradient
       id="XMLID_12_"
       gradientUnits="userSpaceOnUse"
       x1="99.530296"
       y1="5.1806998"
       x2="105.9053"
       y2="31.930599"
       gradientTransform="matrix(1.0333334,0,0,1.0333334,-12.351081,919.84935)">
      <stop
         offset="0"
         style="stop-color:#FCFDFD"
         id="stop4573" />
      <stop
         offset="1"
         style="stop-color:#EEEEEE"
         id="stop4575" />
    </linearGradient>
    <linearGradient
       id="linearGradient5314"
       osb:paint="solid">
      <stop
         style="stop-color:#ededed;stop-opacity:1;"
         offset="0"
         id="stop5316" />
    </linearGradient>
    <linearGradient
       inkscape:collect="always"
       xlink:href="#linearGradient89352"
       id="linearGradient89358"
       x1="65.401649"
       y1="1049.4427"
       x2="65.401649"
       y2="1015.601"
       gradientUnits="userSpaceOnUse" />
  </defs>
  <sodipodi:namedview
     id="base"
     pagecolor="#ffffff"
     bordercolor="#666666"
     borderopacity="1.0"
     inkscape:pageopacity="0.0"
     inkscape:pageshadow="2"
     inkscape:zoom="4.4028446"
     inkscape:cx="116.08935"
     inkscape:cy="52.380997"
     inkscape:document-units="px"
     inkscape:current-layer="layer1"
     showgrid="false"
     units="px"
     inkscape:window-width="1873"
     inkscape:window-height="1056"
     inkscape:window-x="1413"
     inkscape:window-y="24"
     inkscape:window-maximized="1" />
  <metadata
     id="metadata7">
    <rdf:RDF>
      <cc:Work
         rdf:about="">
        <dc:format>image/svg+xml</dc:format>
        <dc:type
           rdf:resource="http://purl.org/dc/dcmitype/StillImage" />
        <dc:title></dc:title>
      </cc:Work>
    </rdf:RDF>
  </metadata>
  <g
     inkscape:label="Capa 1"
     inkscape:groupmode="layer"
     id="layer1"
     transform="translate(0,-924.36216)">
    <path
       d="m 19.337121,927.08268 c -1.911667,0 -3.7882,1.891 -3.7882,3.81714 0,109.93638 0,109.93638 0,113.46728 0,4.0475 4.133333,4.6489 4.133333,4.6489 l 89.900006,0 c 0,0 4.13333,-0.2769 4.13333,-4.1519 0,-3.875 0,-81.09498 0,-81.09498 0,-5.37023 -28.597498,-36.68644 -36.027165,-36.68644 l -58.351304,0 z"
       id="path4532"
       inkscape:connector-curvature="0"
       style="opacity:0.2" />
    <path
       d="m 19.337121,928.11602 c -1.911667,0 -3.7882,1.891 -3.7882,3.81713 0,109.93635 0,109.93635 0,113.46725 0,4.0476 5.166667,4.649 5.166667,4.649 l 87.833342,0 c 0,0 5.16666,-0.277 5.16666,-4.152 0,-3.875 0,-81.09495 0,-81.09495 0,-5.37023 -28.597498,-36.68643 -36.027165,-36.68643 l -58.351304,0 z"
       id="path4534"
       inkscape:connector-curvature="0"
       style="opacity:0.2" />
    <path
       d="m 19.337121,926.04935 c -1.911667,0 -3.7882,1.891 -3.7882,3.81713 0,109.93632 0,109.93632 0,113.46722 0,4.0476 3.1,4.649 3.1,4.649 l 91.966669,0 c 0,0 3.1,-0.2769 3.1,-4.1519 0,-3.875 0,-81.09501 0,-81.09501 0,-5.37024 -28.597498,-36.68644 -36.027165,-36.68644 l -58.351304,0 z"
       id="path4536"
       inkscape:connector-curvature="0"
       style="opacity:0.6;fill:#262626" />
    <path
       d="m 112.68226,1043.9661 c 0,2.6702 -2.47793,2.9833 -2.47793,2.9833 l -91.040809,0 c 0,0 -2.581267,-0.4909 -2.581267,-3.1858 0,-20.4776 0,-112.69122 0,-113.89712 0,-1.364 1.4043,-2.7838 2.754867,-2.7838 1.027133,0 50.084637,0 58.351304,0 7.2664,0 34.993835,31.33687 34.993835,35.65414 0,4.77297 0,65.24988 0,81.22928 z"
       id="path4543"
       inkscape:connector-curvature="0"
       style="fill:url(#XMLID_8_)" />
    <path
       d="m 111.43046,1043.1074 c 0,2.5637 -2.06667,2.8086 -2.06667,2.8086 l -89.900009,0 c 0,0 -2.066666,-0.1684 -2.066666,-2.3239 0,-18.6155 0,-112.50318 0,-113.72562 0,-1.364 1.3609,-2.7838 2.6691,-2.7838 0.996133,0 49.454303,0 57.46367,0 7.040101,0 33.900575,31.33687 33.900575,35.65414 0,4.78433 0,64.76318 0,80.37058 z"
       id="path4554"
       inkscape:connector-curvature="0"
       style="fill:url(#XMLID_9_)" />
    <path
       style="opacity:1;fill:url(#linearGradient89358);fill-opacity:1;stroke:none;stroke-width:2;stroke-linecap:round;stroke-linejoin:round;stroke-miterlimit:4;stroke-dasharray:none;stroke-dashoffset:0;stroke-opacity:0.74509804"
       d="m 112.94723,1019.5424 0,23.5966 c 0,2.1265 -0.11554,3.9546 -3.51132,3.9522 l -89.120787,-0.064 c -2.593827,0 -3.745542,-1.7618 -3.745542,-3.8883 l 0,-23.5966 z"
       id="rect7361"
       inkscape:connector-curvature="0"
       sodipodi:nodetypes="csssscc" />
    <text
       xml:space="preserve"
       style="font-style:normal;font-variant:normal;font-weight:normal;font-stretch:normal;font-size:22.17122078px;line-height:125%;font-family:'Arial Black';-inkscape-font-specification:'Arial Black, Normal';text-align:start;letter-spacing:0px;word-spacing:0px;writing-mode:lr-tb;text-anchor:start;fill:#ffffff;fill-opacity:1;stroke:none;stroke-width:1px;stroke-linecap:butt;stroke-linejoin:miter;stroke-opacity:1"
       x="30.532665"
       y="1041.2521"
       id="text7357"
       sodipodi:linespacing="125%"><tspan
         sodipodi:role="line"
         id="tspan7359"
         x="30.532665"
         y="1041.2521">JAVA</tspan></text>
    <path
       d="m 111.64893,960.14935 c 0,7.41934 -2.914,13.43334 -10.33334,13.43334 -7.419331,0 -16.533331,-6.014 -16.533331,-13.43334 0,-7.41933 2.914,-9.3 10.333334,-9.3 7.419337,0 11.366667,4.13334 16.533337,9.3 z"
       id="path4561"
       inkscape:connector-curvature="0"
       style="fill:url(#XMLID_10_)" />
    <path
       d="m 74.877758,927.04445 c 0.565233,0 0.978567,0.002 3.736534,1.23277 4.3214,1.95403 4.239766,22.96583 4.239766,27.5621 l -10e-4,0.13227 c 0,0.53836 0.4123,0.99096 0.9486,1.0354 6.172101,0.51253 24.095262,-0.87627 27.286202,4.1602 1.23896,1.6616 1.4105,2.95326 1.98193,2.95326 0.57143,0 0.64583,-0.8122 0.64583,-1.38363 0,-0.82357 -0.26556,-1.62647 -0.79153,-2.50893 -0.004,-0.009 -0.002,-0.0186 -0.006,-0.0269 -0.0145,-0.0289 -0.0393,-0.0672 -0.0548,-0.0971 l 0,-10e-4 c -2.38183,-4.85563 -26.649662,-31.3937 -33.432462,-33.67633 -0.0062,-0.002 -0.0072,-0.008 -0.0124,-0.0103 -0.0072,-0.003 -0.0155,-0.002 -0.0217,-0.004 -0.0217,-0.008 -0.05063,-0.0238 -0.07233,-0.032 -0.09713,-0.03 -0.193234,-0.0424 -0.2883,-0.0444 -0.4433,-0.1488 -0.8897,-0.28623 -1.347467,-0.28623 -0.524934,0 -2.750734,0.47223 -2.810667,0.9951 z"
       id="path4563"
       inkscape:connector-curvature="0"
       style="opacity:0.5;fill:#343434" />
    <path
       d="m 112.68226,962.73682 c -3.4875,-8.91663 -28.795901,-6.76007 -28.795901,-6.76007 -0.134334,2.7559 1.548966,-28.89407 -6.197934,-28.89407 7.267434,0 34.993835,32.87447 34.993835,35.65414 z"
       id="path4570"
       inkscape:connector-curvature="0"
       style="fill:url(#XMLID_11_)" />
    <path
       d="m 112.68226,962.73682 c -1.55,-8.2057 -27.641668,-8.33487 -27.641668,-8.33487 -0.02583,2.75487 0.283133,-27.31927 -7.352167,-27.31927 7.267434,0 34.993835,32.87447 34.993835,35.65414 z"
       id="path4577"
       inkscape:connector-curvature="0"
       style="fill:url(#XMLID_12_)" />
    <g
       id="g89305"
       transform="translate(1.5669125,917.27172)">
      <path
         inkscape:connector-curvature="0"
         d="m 54.8,77 1.7,-1 -1.9,0.5 c -2.8,0.8 -3.2,1.7 -3.2,2.4 0.2,1.8 4.8,3.2 10.1,3.2 2.8,0 6.9,-0.4 11.1,-2.2 l 0.6,-0.2 -0.6,-0.2 c -1.9,-0.8 -3.4,-1.6 -3.4,-1.6 l -0.1,-0.1 -0.1,0 c -3.4,0.6 -5.5,0.9 -7.7,0.9 -1.4,0 -2.9,-0.1 -5,-0.3 -1.9,-0.2 -2.1,-0.6 -2.1,-0.7 0,-0.3 0.3,-0.6 0.6,-0.7 z"
         style="fill:#3969b2"
         id="path89307" />
      <path
         inkscape:connector-curvature="0"
         d="m 74.5,73.1 -0.7,-0.3 c -1.5,-0.5 -2.4,-1.5 -2.5,-1.5 l -0.1,-0.1 -0.1,0 c -4.1,0.8 -7.3,1.1 -10.5,1.1 -1.8,0 -3.6,-0.1 -6,-0.4 -1.6,-0.2 -2,-0.6 -2,-0.8 -0.1,-0.4 0.5,-1 0.7,-1.2 L 54.5,69 53,69.5 c -2.5,0.8 -3.7,1.7 -3.5,2.7 0.3,1.7 4.7,2.8 10.8,2.8 4.5,0 9.3,-0.7 13.4,-1.9 l 0.8,0 z"
         style="fill:#3969b2"
         id="path89309" />
      <path
         inkscape:connector-curvature="0"
         d="m 63,50.5 c -0.8,2.5 0,5.3 2.5,8.1 0.8,0.9 1.2,1.9 1.1,2.9 -0.2,1.9 -1.8,3.3 -1.8,3.3 l -1.8,1.5 2.1,-1.1 c 0.2,-0.1 4.3,-2.2 5,-5.4 0.3,-1.3 0,-2.6 -0.8,-3.8 l -0.4,-0.6 c -1.3,-1.9 -2.4,-3.3 -2,-5 0.5,-2.3 3.6,-4.9 10.1,-8.7 l 1.5,-0.9 -1.7,0.4 c -0.6,0.2 -11.9,3 -13.8,9.3 z"
         style="fill:#f3492c"
         id="path89311" />
      <path
         inkscape:connector-curvature="0"
         d="m 59.9,88.1 c 13.3,0 22.7,-2.5 23.2,-4.9 0.1,-0.4 -0.1,-1.1 -1.3,-1.7 l -1.7,-0.8 1.4,1.2 c 0,0 0.4,0.3 0.3,0.7 -0.1,0.3 -0.4,0.9 -2.2,1.4 -3.5,1.2 -11.5,2 -19.4,2 -7.4,0 -13.1,-0.6 -15.6,-1.7 -0.3,-0.1 -0.5,-0.3 -0.5,-0.4 0.1,-0.5 2.2,-1.4 3.7,-1.7 1,-0.2 1.6,-0.2 1.9,-0.2 0.1,0 0.1,0 0.1,0 L 50.7,82.1 50,81.4 C 49.6,81.1 49,81 48.2,81 c -2.9,0 -8.4,2 -8.6,3.8 -0.1,0.9 1,1.6 3.3,1.9 5.7,0.9 11.4,1.4 17,1.4 l 0,0 z"
         style="fill:#3969b2"
         id="path89313" />
      <path
         inkscape:connector-curvature="0"
         d="m 57.4,68.6 c 6.1,0 11.8,-0.6 15.9,-1.7 l 0.1,0 c 1.2,-0.8 2.8,-1.5 2.8,-1.5 l 2,-0.9 L 76,65 c 0,0 -4.7,0.8 -9.3,1.2 -3.2,0.3 -6.6,0.4 -9.5,0.4 -2.2,0 -4.1,-0.1 -5.3,-0.3 -2.2,-0.3 -2.2,-0.7 -2.2,-0.7 0,-0.6 3.2,-1.7 6.2,-2.5 l 1.6,-0.4 -1.6,-0.1 c 0,0 -0.2,0 -0.4,0 -1.4,0 -5.1,0.2 -9.4,2.3 -0.4,0.2 -1.4,0.7 -1.3,1.4 0.2,1.8 6.9,2.3 12.6,2.3 z"
         style="fill:#3969b2"
         id="path89315" />
      <path
         inkscape:connector-curvature="0"
         d="m 77,63.4 -0.4,0.7 0.7,-0.3 c 0,0 0.4,-0.2 1.3,-0.3 0.2,0 0.4,-0.1 0.7,-0.1 1.4,0 3.1,0.9 3.5,2.6 0.3,1.2 0.2,4.4 -6.8,8 l -0.1,0 0,0.1 c 0,0.1 -0.1,0.2 -0.2,0.2 l -0.8,0.7 1,-0.3 c 7.9,-2.1 10.4,-5.8 10,-8.6 -0.3,-2.4 -2.5,-4.1 -5.3,-4.1 -0.8,0 -1.6,0.1 -2.4,0.4 -0.8,0.4 -1.2,1 -1.2,1 z"
         style="fill:#3969b2"
         id="path89317" />
      <path
         inkscape:connector-curvature="0"
         d="m 62.7,63 0.9,0.8 -0.5,-1.1 C 62.6,61.5 61.7,60.3 60.9,59.2 58.2,55.3 55.4,51.4 63,45.4 68,41.5 70.6,37.6 70.8,33.9 71,30.6 69.2,28.8 69.1,28.7 l -0.6,-0.7 0.2,0.9 c 1.7,6.7 -2.9,10.3 -7.4,13.8 -2.2,1.8 -4.5,3.6 -6,5.7 -3,4.6 1.8,9.5 7.4,14.6 z"
         style="fill:#f3492c"
         id="path89319" />
      <path
         inkscape:connector-curvature="0"
         d="m 85.4,84.8 c 0,0 -1,1.9 -9,3.4 -4.6,0.9 -10,1.3 -15.6,1.3 -4.6,0 -9.1,-0.3 -12.5,-0.9 l -0.9,-0.2 0.8,0.6 c 0.2,0.1 1.8,1.2 8.9,1.7 2,0.1 4.2,0.2 6.3,0.2 l 0,0 c 10.7,0 22.3,-1.6 22.6,-6.1 l 0.1,-1.4 -0.7,1.4 z"
         style="fill:#3969b2"
         id="path89321" />
    </g>
  </g>
</svg>
