<?xml version="1.0" encoding="UTF-8" standalone="no"?>
<!-- Created with Inkscape (http://www.inkscape.org/) -->

<svg
   xmlns:a="http://ns.adobe.com/AdobeSVGViewerExtensions/3.0/"
   xmlns:osb="http://www.openswatchbook.org/uri/2009/osb"
   xmlns:dc="http://purl.org/dc/elements/1.1/"
   xmlns:cc="http://creativecommons.org/ns#"
   xmlns:rdf="http://www.w3.org/1999/02/22-rdf-syntax-ns#"
   xmlns:svg="http://www.w3.org/2000/svg"
   xmlns="http://www.w3.org/2000/svg"
   xmlns:sodipodi="http://sodipodi.sourceforge.net/DTD/sodipodi-0.dtd"
   xmlns:inkscape="http://www.inkscape.org/namespaces/inkscape"
   width="128"
   height="128"
   viewBox="0 0 128 128"
   id="svg2"
   version="1.1"
   inkscape:version="0.91 r13725"
   sodipodi:docname="file_html.svg">
  <defs
     id="defs4">
    <linearGradient
       id="XMLID_8_"
       gradientUnits="userSpaceOnUse"
       x1="74.5"
       y1="5.0479002"
       x2="74.5"
       y2="124.2402">
      <stop
         offset="0"
         style="stop-color:#FFFFFF"
         id="stop4539" />
      <stop
         offset="1"
         style="stop-color:#E1E1DF"
         id="stop4541" />
    </linearGradient>
    <linearGradient
       id="XMLID_9_"
       gradientUnits="userSpaceOnUse"
       x1="74.5"
       y1="11.0811"
       x2="74.5"
       y2="121.4673">
      <stop
         offset="0"
         style="stop-color:#FDFDFD"
         id="stop4546" />
      <stop
         offset="0.2985"
         style="stop-color:#F3F2F2"
         id="stop4548" />
      <stop
         offset="0.8174"
         style="stop-color:#D7D6D6"
         id="stop4550" />
      <stop
         offset="1"
         style="stop-color:#CCCBCA"
         id="stop4552" />
    </linearGradient>
    <radialGradient
       id="XMLID_10_"
       cx="110"
       cy="32.869099"
       r="15.5963"
       gradientUnits="userSpaceOnUse">
      <stop
         offset="0.2135"
         style="stop-color:#8E8E8F"
         id="stop4557" />
      <stop
         offset="0.927"
         style="stop-color:#EEEEEE"
         id="stop4559" />
    </radialGradient>
    <linearGradient
       id="XMLID_11_"
       gradientUnits="userSpaceOnUse"
       x1="92.023399"
       y1="9.9473"
       x2="104.2735"
       y2="32.947201">
      <stop
         offset="0"
         style="stop-color:#FFFEFE"
         id="stop4566" />
      <stop
         offset="1"
         style="stop-color:#CFD0D0"
         id="stop4568" />
    </linearGradient>
    <linearGradient
       id="XMLID_12_"
       gradientUnits="userSpaceOnUse"
       x1="99.530296"
       y1="5.1806998"
       x2="105.9053"
       y2="31.930599">
      <stop
         offset="0"
         style="stop-color:#FCFDFD"
         id="stop4573" />
      <stop
         offset="1"
         style="stop-color:#EEEEEE"
         id="stop4575" />
    </linearGradient>
    <linearGradient
       id="linearGradient5314"
       osb:paint="solid">
      <stop
         style="stop-color:#ededed;stop-opacity:1;"
         offset="0"
         id="stop5316" />
    </linearGradient>
    <linearGradient
       gradientTransform="matrix(0.44277059,0,0,-0.44277059,87.014274,236.36952)"
       y2="397.33981"
       x2="12.9912"
       y1="397.33981"
       x1="-117.002"
       gradientUnits="userSpaceOnUse"
       id="XMLID_15_-0">
      <stop
         id="stop3957"
         style="stop-color:#0053BD"
         offset="0" />
      <stop
         id="stop3958"
         style="stop-color:#0032A4"
         offset="0.9944" />
      <a:midPointStop
         id="midPointStop3959"
         style="stop-color:#0053BD"
         offset="0" />
      <a:midPointStop
         id="midPointStop3960"
         style="stop-color:#0053BD"
         offset="0.5" />
      <a:midPointStop
         id="midPointStop3961"
         style="stop-color:#0032A4"
         offset="0.9944" />
    </linearGradient>
    <radialGradient
       gradientUnits="userSpaceOnUse"
       gradientTransform="matrix(0.44277059,0,0,-0.44277059,87.014274,236.36952)"
       fy="439.63181"
       fx="-57.0215"
       r="97.988297"
       cy="439.63181"
       cx="-57.0215"
       id="XMLID_16_-9">
      <stop
         id="stop3966"
         style="stop-color:#FFFFFF"
         offset="0" />
      <stop
         id="stop3967"
         style="stop-color:#57ADFF"
         offset="0.5955" />
      <stop
         id="stop3968"
         style="stop-color:#C9E6FF"
         offset="0.9944" />
      <a:midPointStop
         id="midPointStop3969"
         style="stop-color:#FFFFFF"
         offset="0" />
      <a:midPointStop
         id="midPointStop3970"
         style="stop-color:#FFFFFF"
         offset="0.5" />
      <a:midPointStop
         id="midPointStop3971"
         style="stop-color:#57ADFF"
         offset="0.5955" />
      <a:midPointStop
         id="midPointStop3972"
         style="stop-color:#57ADFF"
         offset="0.5" />
      <a:midPointStop
         id="midPointStop3973"
         style="stop-color:#C9E6FF"
         offset="0.9944" />
    </radialGradient>
    <linearGradient
       gradientTransform="matrix(0.44277059,0,0,-0.44277059,87.014274,236.36952)"
       y2="332.80569"
       x2="-52.1973"
       y1="434.4072"
       x1="-52.1973"
       gradientUnits="userSpaceOnUse"
       id="XMLID_17_-3">
      <stop
         id="stop3976"
         style="stop-color:#0066CC"
         offset="0" />
      <stop
         id="stop3977"
         style="stop-color:#003366"
         offset="0.2" />
      <stop
         id="stop3978"
         style="stop-color:#428AFF"
         offset="1" />
      <a:midPointStop
         id="midPointStop3979"
         style="stop-color:#0066CC"
         offset="0" />
      <a:midPointStop
         id="midPointStop3980"
         style="stop-color:#0066CC"
         offset="0.5" />
      <a:midPointStop
         id="midPointStop3981"
         style="stop-color:#003366"
         offset="0.2" />
      <a:midPointStop
         id="midPointStop3982"
         style="stop-color:#003366"
         offset="0.5" />
      <a:midPointStop
         id="midPointStop3983"
         style="stop-color:#428AFF"
         offset="1" />
    </linearGradient>
    <linearGradient
       gradientTransform="matrix(0.44277059,0,0,-0.44277059,87.014274,236.36952)"
       y2="361.422"
       x2="-52.250999"
       y1="457.0303"
       x1="-52.250999"
       gradientUnits="userSpaceOnUse"
       id="XMLID_18_-6">
      <stop
         id="stop3986"
         style="stop-color:#FFFFFF"
         offset="0" />
      <stop
         id="stop3987"
         style="stop-color:#94CAFF"
         offset="1" />
      <a:midPointStop
         id="midPointStop3988"
         style="stop-color:#FFFFFF"
         offset="0" />
      <a:midPointStop
         id="midPointStop3989"
         style="stop-color:#FFFFFF"
         offset="0.5" />
      <a:midPointStop
         id="midPointStop3990"
         style="stop-color:#94CAFF"
         offset="1" />
    </linearGradient>
    <linearGradient
       gradientTransform="matrix(0.9145591,0,0,0.9145591,12.332276,5.6499353)"
       id="XMLID_19_-0"
       gradientUnits="userSpaceOnUse"
       x1="141.2715"
       y1="70.4282"
       x2="141.2715"
       y2="158.0706">
      <stop
         offset="0"
         style="stop-color:#FFFFFF"
         id="stop3994" />
      <stop
         offset="0.9944"
         style="stop-color:#003399"
         id="stop3995" />
      <a:midPointStop
         offset="0"
         style="stop-color:#FFFFFF"
         id="midPointStop3996" />
      <a:midPointStop
         offset="0.5"
         style="stop-color:#FFFFFF"
         id="midPointStop3997" />
      <a:midPointStop
         offset="0.9944"
         style="stop-color:#003399"
         id="midPointStop3998" />
    </linearGradient>
    <linearGradient
       gradientTransform="matrix(0.9145591,0,0,0.9145591,12.332276,5.6499353)"
       id="XMLID_20_-6"
       gradientUnits="userSpaceOnUse"
       x1="100.5088"
       y1="70.033203"
       x2="100.5088"
       y2="130.0289">
      <stop
         offset="0"
         style="stop-color:#FFFFFF"
         id="stop4001" />
      <stop
         offset="0.9944"
         style="stop-color:#003399"
         id="stop4002" />
      <a:midPointStop
         offset="0"
         style="stop-color:#FFFFFF"
         id="midPointStop4003" />
      <a:midPointStop
         offset="0.5"
         style="stop-color:#FFFFFF"
         id="midPointStop4004" />
      <a:midPointStop
         offset="0.9944"
         style="stop-color:#003399"
         id="midPointStop4005" />
    </linearGradient>
    <linearGradient
       gradientTransform="matrix(0.9145591,0,0,0.9145591,12.332276,5.6499353)"
       id="XMLID_21_-2"
       gradientUnits="userSpaceOnUse"
       x1="124.5747"
       y1="73.443802"
       x2="124.5747"
       y2="79.161301">
      <stop
         offset="0"
         style="stop-color:#FFFFFF"
         id="stop4008" />
      <stop
         offset="0.9944"
         style="stop-color:#003399"
         id="stop4009" />
      <a:midPointStop
         offset="0"
         style="stop-color:#FFFFFF"
         id="midPointStop4010" />
      <a:midPointStop
         offset="0.5"
         style="stop-color:#FFFFFF"
         id="midPointStop4011" />
      <a:midPointStop
         offset="0.9944"
         style="stop-color:#003399"
         id="midPointStop4012" />
    </linearGradient>
    <linearGradient
       gradientTransform="matrix(0.9145591,0,0,0.9145591,12.332276,5.6499353)"
       id="XMLID_22_-6"
       gradientUnits="userSpaceOnUse"
       x1="106.0073"
       y1="72.496597"
       x2="106.0073"
       y2="73.125504">
      <stop
         offset="0"
         style="stop-color:#FFFFFF"
         id="stop4015" />
      <stop
         offset="0.9944"
         style="stop-color:#003399"
         id="stop4016" />
      <a:midPointStop
         offset="0"
         style="stop-color:#FFFFFF"
         id="midPointStop4017" />
      <a:midPointStop
         offset="0.5"
         style="stop-color:#FFFFFF"
         id="midPointStop4018" />
      <a:midPointStop
         offset="0.9944"
         style="stop-color:#003399"
         id="midPointStop4019" />
    </linearGradient>
    <linearGradient
       gradientTransform="matrix(0.9145591,0,0,0.9145591,12.332276,5.6499353)"
       id="XMLID_23_-1"
       gradientUnits="userSpaceOnUse"
       x1="120.4849"
       y1="68.116699"
       x2="120.4849"
       y2="85.320099">
      <stop
         offset="0"
         style="stop-color:#FFFFFF"
         id="stop4022-8" />
      <stop
         offset="0.9944"
         style="stop-color:#003399"
         id="stop4023" />
      <a:midPointStop
         offset="0"
         style="stop-color:#FFFFFF"
         id="midPointStop4024" />
      <a:midPointStop
         offset="0.5"
         style="stop-color:#FFFFFF"
         id="midPointStop4025" />
      <a:midPointStop
         offset="0.9944"
         style="stop-color:#003399"
         id="midPointStop4026" />
    </linearGradient>
    <linearGradient
       gradientTransform="matrix(0.9145591,0,0,0.9145591,12.332276,5.6499353)"
       id="XMLID_24_-7"
       gradientUnits="userSpaceOnUse"
       x1="132.78419"
       y1="67.756302"
       x2="132.78419"
       y2="73.864899">
      <stop
         offset="0"
         style="stop-color:#FFFFFF"
         id="stop4029" />
      <stop
         offset="0.9944"
         style="stop-color:#003399"
         id="stop4030" />
      <a:midPointStop
         offset="0"
         style="stop-color:#FFFFFF"
         id="midPointStop4031" />
      <a:midPointStop
         offset="0.5"
         style="stop-color:#FFFFFF"
         id="midPointStop4032" />
      <a:midPointStop
         offset="0.9944"
         style="stop-color:#003399"
         id="midPointStop4033" />
    </linearGradient>
  </defs>
  <sodipodi:namedview
     id="base"
     pagecolor="#ffffff"
     bordercolor="#666666"
     borderopacity="1.0"
     inkscape:pageopacity="0.0"
     inkscape:pageshadow="2"
     inkscape:zoom="3.1132813"
     inkscape:cx="11.903479"
     inkscape:cy="44.308281"
     inkscape:document-units="px"
     inkscape:current-layer="layer1"
     showgrid="false"
     units="px"
     inkscape:window-width="1873"
     inkscape:window-height="1056"
     inkscape:window-x="1413"
     inkscape:window-y="24"
     inkscape:window-maximized="1" />
  <metadata
     id="metadata7">
    <rdf:RDF>
      <cc:Work
         rdf:about="">
        <dc:format>image/svg+xml</dc:format>
        <dc:type
           rdf:resource="http://purl.org/dc/dcmitype/StillImage" />
        <dc:title></dc:title>
      </cc:Work>
    </rdf:RDF>
  </metadata>
  <g
     inkscape:label="Capa 1"
     inkscape:groupmode="layer"
     id="layer1"
     transform="translate(0,-924.36216)">
    <g
       id="g3964"
       inkscape:export-filename="/var/www/chamilo11/main/img/icons/16/file_html.png"
       inkscape:export-xdpi="11.25"
       inkscape:export-ydpi="11.25">
      <g
         id="g5149"
         transform="matrix(1.0333334,0,0,1.0333334,-12.983338,920.16213)">
        <path
           d="M 30.666,7 C 28.816,7 27,8.83 27,10.694 c 0,106.39 0,106.39 0,109.807 0,3.917 4,4.499 4,4.499 l 87,0 c 0,0 4,-0.268 4,-4.018 0,-3.75 0,-78.479 0,-78.479 C 122,37.306 94.325,7 87.135,7 L 30.666,7 Z"
           id="path4532"
           inkscape:connector-curvature="0"
           style="opacity:0.2" />
        <path
           d="M 30.666,8 C 28.816,8 27,9.83 27,11.694 c 0,106.39 0,106.39 0,109.807 0,3.917 5,4.499 5,4.499 l 85,0 c 0,0 5,-0.268 5,-4.018 0,-3.75 0,-78.479 0,-78.479 C 122,38.306 94.325,8 87.135,8 L 30.666,8 Z"
           id="path4534"
           inkscape:connector-curvature="0"
           style="opacity:0.2" />
        <path
           d="M 30.666,6 C 28.816,6 27,7.83 27,9.694 c 0,106.39 0,106.39 0,109.807 0,3.917 3,4.499 3,4.499 l 89,0 c 0,0 3,-0.268 3,-4.018 0,-3.75 0,-78.479 0,-78.479 C 122,36.306 94.325,6 87.135,6 L 30.666,6 Z"
           id="path4536"
           inkscape:connector-curvature="0"
           style="opacity:0.6;fill:#262626" />
        <path
           d="m 121,120.113 c 0,2.584 -2.398,2.887 -2.398,2.887 l -88.104,0 C 30.498,123 28,122.525 28,119.917 28,100.1 28,10.861 28,9.694 28,8.374 29.359,7 30.666,7 31.66,7 79.135,7 87.135,7 94.167,7 121,37.326 121,41.504 c 0,4.619 0,63.145 0,78.609 z"
           id="path4543"
           inkscape:connector-curvature="0"
           style="fill:url(#XMLID_8_)" />
        <path
           d="m 120,119.282 c 0,2.481 -2,2.718 -2,2.718 l -87,0 c 0,0 -2,-0.163 -2,-2.249 C 29,101.736 29,10.877 29,9.694 29,8.374 30.317,7 31.583,7 32.547,7 79.442,7 87.193,7 94.006,7 120,37.326 120,41.504 c 0,4.63 0,62.674 0,77.778 z"
           id="path4554"
           inkscape:connector-curvature="0"
           style="fill:url(#XMLID_9_)" />
        <path
           d="m 120,39 c 0,7.18 -2.82,13 -10,13 -7.18,0 -16,-5.82 -16,-13 0,-7.18 2.82,-9 10,-9 7.18,0 11,4 16,9 z"
           id="path4561"
           inkscape:connector-curvature="0"
           style="fill:url(#XMLID_10_)" />
        <path
           d="m 84.415,6.963 c 0.547,0 0.947,0.002 3.616,1.193 4.182,1.891 4.103,22.225 4.103,26.673 l -0.001,0.128 c 0,0.521 0.399,0.959 0.918,1.002 5.973,0.496 23.318,-0.848 26.406,4.026 1.199,1.608 1.365,2.858 1.918,2.858 0.553,0 0.625,-0.786 0.625,-1.339 0,-0.797 -0.257,-1.574 -0.766,-2.428 -0.004,-0.009 -0.002,-0.018 -0.006,-0.026 -0.014,-0.028 -0.038,-0.065 -0.053,-0.094 l 0,-0.001 C 118.87,34.256 95.385,8.574 88.821,6.365 88.815,6.363 88.814,6.357 88.809,6.355 88.802,6.352 88.794,6.353 88.788,6.351 88.767,6.343 88.739,6.328 88.718,6.32 88.624,6.291 88.531,6.279 88.439,6.277 88.01,6.133 87.578,6 87.135,6 86.627,6 84.473,6.457 84.415,6.963 Z"
           id="path4563"
           inkscape:connector-curvature="0"
           style="opacity:0.5;fill:#343434" />
        <path
           d="M 121,41.504 C 117.625,32.875 93.133,34.962 93.133,34.962 93.003,37.629 94.632,7 87.135,7 94.168,7 121,38.814 121,41.504 Z"
           id="path4570"
           inkscape:connector-curvature="0"
           style="fill:url(#XMLID_11_)" />
        <path
           d="M 121,41.504 C 119.5,33.563 94.25,33.438 94.25,33.438 94.225,36.104 94.524,7 87.135,7 94.168,7 121,38.814 121,41.504 Z"
           id="path4577"
           inkscape:connector-curvature="0"
           style="fill:url(#XMLID_12_)" />
      </g>
      <rect
         inkscape:export-ydpi="90"
         inkscape:export-xdpi="90"
         inkscape:export-filename="/var/www/chamilo11/main/img/icons/128/file_image.png"
         ry="0"
         rx="0"
         y="924.36218"
         x="2.7339171e-09"
         height="128"
         width="128"
         id="rect25157"
         style="opacity:0;fill:#123871;fill-opacity:1;stroke:none;stroke-width:0.51876956;stroke-linecap:round;stroke-linejoin:round;stroke-miterlimit:4;stroke-dasharray:none;stroke-dashoffset:0;stroke-opacity:1" />
      <g
         id="g3453"
         style="overflow:visible"
         transform="matrix(1.093423,0,0,1.093423,-6.715981,921.19903)">
        <path
           style="opacity:0.2"
           inkscape:connector-curvature="0"
           id="path3954"
           d="m 42.018679,41.988303 c -5.973265,5.958257 -9.262482,13.835142 -9.262482,22.181155 0,17.377078 14.115457,31.513353 31.465423,31.513353 17.352388,0 31.468812,-14.136275 31.468812,-31.513353 0,-17.320918 -14.116424,-31.412652 -31.468812,-31.412652 -8.349886,9.68e-4 -16.235486,3.27905 -22.202941,9.231497 z"
           enable-background="new    " />
        <path
           style="opacity:0.2"
           inkscape:connector-curvature="0"
           id="path3955"
           d="m 41.694308,41.340046 c -5.973264,5.957772 -9.262966,13.834658 -9.262966,22.181155 0,17.376594 14.115941,31.513837 31.465908,31.513837 17.352387,0 31.468812,-14.137243 31.468812,-31.513837 0,-17.320918 -14.116425,-31.413621 -31.468812,-31.413621 -8.350371,0.0015 -16.235487,3.280019 -22.202942,9.232466 z"
           enable-background="new    " />
        <path
           style="fill:url(#XMLID_15_-0)"
           inkscape:connector-curvature="0"
           id="path3962"
           d="m 41.045082,40.691304 c -5.97278,5.957288 -9.262481,13.834658 -9.262481,22.181155 0,17.376594 14.115456,31.512869 31.465907,31.512869 17.352387,0 31.468328,-14.136275 31.468328,-31.512869 0,-17.320918 -14.115941,-31.41362 -31.468328,-31.41362 -8.35037,9.68e-4 -16.235486,3.27905 -22.203426,9.232465 z" />
        <path
           style="fill:#b0d9ff"
           inkscape:connector-curvature="0"
           id="path3963"
           d="m 41.961551,41.610193 c -5.727324,5.712316 -8.882435,13.263378 -8.882435,21.262266 0,16.661042 13.53401,30.215869 30.168424,30.215869 16.635866,0 30.170844,-13.554827 30.170844,-30.215869 0,-16.605366 -13.534978,-30.115653 -30.170844,-30.115653 -8.002761,9.68e-4 -15.563022,3.144945 -21.285989,8.853387 z" />
        <path
           style="fill:#ffffff"
           inkscape:connector-curvature="0"
           id="path3964"
           d="m 63.248508,92.115216 c 16.120262,0 29.198216,-13.132177 29.198216,-29.242757 0,-16.007458 -13.076986,-29.141572 -29.198216,-29.141572 -16.006006,4.84e-4 -29.194827,13.134114 -29.194827,29.141572 0,16.11058 13.189305,29.242757 29.194827,29.242757 z" />
        <path
           style="fill:url(#XMLID_16_-9)"
           inkscape:connector-curvature="0"
           id="path3974"
           d="m 63.248508,92.115216 c 16.120262,0 29.198216,-13.132177 29.198216,-29.242757 0,-16.007458 -13.076986,-29.141572 -29.198216,-29.141572 -16.006006,4.84e-4 -29.194827,13.134114 -29.194827,29.141572 0,16.11058 13.189305,29.242757 29.194827,29.242757 z" />
        <path
           style="fill:url(#XMLID_17_-3)"
           inkscape:connector-curvature="0"
           id="path3984"
           d="m 53.550788,36.942158 c -0.144272,0 -0.302584,0.05955 -0.464286,0.151535 0.380047,-0.111836 0.558693,-0.151535 0.464286,-0.151535 m 9.400461,1.833906 0.09441,-1.375429 -1.450954,0.09102 0.191717,1.283928 1.164831,4.84e-4 M 46.573426,62.542279 c -0.292417,-0.275473 -0.09634,-1.469352 -0.09634,-1.469352 0,0 -4.362062,-2.292382 -9.10998,-3.669747 -0.585319,-0.169932 -0.289997,-1.375429 0.289514,-1.832938 l -0.192202,-1.2878 c -0.09634,-0.640027 0.970207,-3.760281 2.03579,-4.033818 1.06655,-0.276441 -0.09731,1.833422 -0.09731,1.833422 l -1.065099,0.642448 c 0,0 1.259237,1.46693 1.551171,1.46693 0.289997,0 0.774617,-0.734917 0.774617,-0.734917 l -1.356064,-0.915017 1.259721,-0.552398 0.0794,-0.483168 0.211567,-0.06778 2.08614,-3.158984 c 1.441756,-0.590161 3.213692,-1.321206 3.438815,-1.4282 0.388277,-0.182519 3.100404,-1.741436 3.585508,-2.107926 0.486072,-0.368912 1.549718,-0.274989 1.936543,-0.274989 0.389729,0 0.970207,-0.184456 1.06655,-1.195331 0.09683,-1.008939 0.485104,-1.192426 0.776554,-0.916469 0.291449,0.272569 -0.29145,0.732981 0.387792,0.916469 0.67779,0.184455 1.258753,0.642932 1.744825,0.184455 0.353903,-0.335505 -0.120066,-0.718457 -0.439595,-1.007486 l 5.381167,0 0.582415,-1.654291 -1.259721,-0.183487 -4.653995,-0.457508 0,-0.551431 -0.370848,0.06245 c 0.503985,-2.767803 3.495943,-2.311748 1.24326,-3.913752 -0.13701,-0.09876 -2.107926,3.104761 -2.609491,3.042792 -0.908722,-0.120066 -2.082267,-0.129749 -2.332081,0.165574 -0.331149,0.390698 0.743148,-1.341539 1.667363,-1.866342 -1.476129,0.434753 -6.138839,2.02998 -11.067339,7.280914 -4.712576,5.019518 -6.591506,11.782892 -6.591506,12.01915 0,0.458476 0.970208,0.642448 1.066551,1.194363 0.09731,0.547557 -1.841168,2.384851 -1.841168,3.301804 0,0.422166 -0.45654,6.077838 1.160957,10.735706 1.891034,5.436843 5.927756,9.97755 6.397368,10.276746 l 0.968271,-0.459445 c 0,0 -2.22896,-3.944736 -2.325303,-4.312679 -0.09586,-0.366007 2.519441,-5.688593 3.780614,-5.503169 1.259237,0.179614 0.96924,0.550462 1.744341,0.09102 0.775585,-0.457508 1.259721,-4.222146 2.132133,-4.587184 0.872896,-0.368912 1.841168,-0.82642 1.744825,-1.743857 -0.101185,-0.920341 -3.395727,-2.570275 -3.685725,-2.84478 m 21.029397,-26.977002 -2.616268,-0.917921 0.485103,1.469351 2.131165,-0.55143 m -9.788253,3.394758 c 0.291934,0 6.105434,-3.851782 5.523987,-3.944736 -0.57951,-0.09102 -0.676821,0 -2.230412,-0.183488 -1.548266,-0.183487 -3.197232,2.202333 -3.584056,2.570276 -0.387793,0.367459 -0.257076,1.557948 0.290481,1.557948 m 26.682164,27.666411 0.750894,-0.97408 -0.750894,-0.263854 -0.562566,0.707322 -0.655519,0.971176 0.562081,0.26579 0.656004,-0.706354 m 3.281955,3.185613 -0.188329,-1.416581 -1.217601,0 -0.09392,1.060741 -1.127068,-0.174773 -0.27983,-1.151759 -0.562081,-0.353419 -0.657941,0.795435 -0.655035,-0.175741 -0.189297,0.617273 0.751862,0.179614 0,5.746205 2.653548,0.639059 c -0.061,0.106026 -0.106994,0.194623 -0.122003,0.243036 -0.189781,0.620178 0.749442,0.887905 1.403994,0.620178 0.244972,-0.09731 1.017168,-0.878222 1.502272,-2.031917 0.675853,-1.60733 1.265531,-3.729296 1.384628,-4.479222 l 0.303553,-0.64971 -1.876025,0.707322 -1.033146,-0.175741 0.0024,0 M 91.719068,59.110242 91.229123,58.16182 C 90.648645,54.890032 89.318724,50.703228 86.468134,46.376024 82.17724,39.87021 70.238457,36.118159 70.238457,36.118159 l -0.655519,0.794467 -0.376174,-0.616789 -0.938254,-0.354871 0,0.796887 0.8453,0.70829 -0.562565,0.264822 -2.158761,0.175257 -4.876697,2.654032 0.468159,2.121966 -0.564018,0.177678 -0.278862,0.441531 1.594258,2.38582 0.09344,0.797856 -1.312975,0.264822 0,1.590869 -0.749926,0.176226 0.09392,1.238903 -6.379454,4.424515 0.187844,2.47248 c 0.468159,0.620178 4.127256,4.33495 4.127256,4.33495 0,0 4.22021,0.174289 5.15798,-0.353903 0.938255,-0.530129 0.280799,0.530612 0.563534,0.796403 0.27983,0.266759 0.374237,2.121966 0.655036,2.299644 0.281282,0.175741 0,1.236482 0.375205,1.592322 0.374721,0.350998 0.374721,4.598319 0.374721,4.598319 0,0 2.25123,3.800465 2.25123,4.774061 0,0.973113 -0.09441,0.884032 1.688665,0.796403 1.782587,-0.08811 2.156824,-0.796403 2.531061,-1.059773 0.376657,-0.26579 0.376657,-0.884999 0.752346,-1.41658 0.376174,-0.531581 1.030725,-2.563498 1.876994,-3.27082 0.842396,-0.709259 3.094594,-1.24084 3.280502,-2.476354 0.187845,-1.238903 1.032178,-2.211531 1.032178,-2.211531 l 4.055603,-4.289441 -0.114256,0.576121 -0.09392,2.209111 1.220506,-0.441048 -0.09295,-2.389209 -0.438143,-0.463317 0.06245,-0.06778 c 0,0 -0.281766,-0.530129 -0.655519,-0.530129 -0.374721,0 -2.628372,0.530129 -3.001157,0.442016 -0.375689,-0.08908 -1.971884,-4.333982 -2.252682,-4.508755 -0.281767,-0.176709 -2.062902,-3.096531 -2.062902,-3.096531 0,0 4.125803,4.952223 4.783259,6.896996 0.380531,1.133361 1.81212,0.07843 2.97695,-1.103829 l 0.308394,0.751862 0.748958,-0.178646 -0.09392,-0.883547 0.844332,0 0,1.326047 -0.280798,0.70829 -0.09634,1.147886 0.751378,0.709742 0.375689,-0.618241 1.217117,-1.15079 1.407866,-0.707806 0.376174,0.707806 0.188328,0.973597 -0.376657,1.060257 -0.749926,0.618725 -0.374721,1.592322 0,0.794466 -0.843364,-0.530612 -0.09295,-1.678983 -1.219538,0.09005 -0.562565,1.501304 0.844332,1.24084 1.968495,0.264822 1.595227,-1.505178 0.187361,-2.914496 0.709258,-0.93777 c 0.46235,1.188068 0.79253,2.431328 0.79253,3.589381 0,1.269887 0.580479,-0.879191 0.08666,-4.751307 l 0.28564,-0.380046 m -23.638403,-9.01993 -5.064542,-0.179614 2.15634,-1.767095 1.125615,0 1.782587,1.236966 0,0.709743 m 6.192578,-0.619209 0,0.795918 -2.156824,0 0.187361,0.532065 -1.314428,0.178162 -0.09199,0.439595 -0.938255,-0.174288 -1.689633,-0.35584 0.282735,-0.440563 0.281767,-0.533034 0.937771,-0.972144 0.376173,0.70829 1.406414,-0.08957 0.749926,-0.796403 2.907234,0.530613 -0.938255,0.177194 m 0.18494,-1.150307 -1.124163,0.176226 -0.18736,-0.796887 1.405445,-0.175742 0.188813,-0.795434 1.03363,1.062193 -1.316365,0.528192 0,0.0015 m 5.442168,27.500353 -0.656972,0.531581 0.09344,1.3275 0.844332,0 0,-1.147886 0.751863,-0.975049 0,-2.032885 -0.470096,-0.09102 -0.561597,2.387756 -9.68e-4,0 m -6.283596,-2.649674 c 0,0 -0.656972,0.171384 0.09247,0.439595 0.748958,0.267727 3.752051,-4.329624 3.752051,-4.329624 l -2.532997,1.589417 -1.312492,2.300612 9.68e-4,0 m -5.106178,16.948618 -0.560629,-0.53497 -1.126099,-0.178646 -0.186392,0.53497 -1.50082,-0.176709 -0.09392,-0.712164 -1.125131,0 -1.218569,0.712164 -2.155856,0 -0.18736,-0.534486 -3.468347,-0.35826 -0.563534,0.53497 -1.403993,-0.353419 -0.188329,-1.24907 -0.656004,-0.09102 -0.75041,1.340088 -2.531061,-0.09005 c 0.453151,0.213504 4.231829,2.469092 10.028869,2.938703 7.687588,0.622115 11.344264,-1.246165 11.344264,-1.246165 l -0.281767,-0.268695 -3.374909,-0.266759 0,-4.84e-4 0,0 z" />
        <path
           style="fill:url(#XMLID_18_-6)"
           inkscape:connector-curvature="0"
           id="path3991"
           d="m 63.150228,57.023133 c 10.000305,0 18.700221,-3.445593 23.176054,-8.524659 C 81.81898,39.895869 73.109865,34.024273 63.10714,34.024273 c -9.91558,4.84e-4 -18.63583,5.851747 -23.171696,14.430145 4.464214,5.102305 13.184948,8.568715 23.214784,8.568715 z"
           enable-background="new    " />
        <g
           id="g3992"
           transform="matrix(0.48413557,0,0,0.48413557,2.0092314,1.8437817)">
          <linearGradient
             y2="158.0706"
             x2="141.2715"
             y1="70.4282"
             x1="141.2715"
             gradientUnits="userSpaceOnUse"
             id="linearGradient3538">
            <stop
               id="stop3540"
               style="stop-color:#FFFFFF"
               offset="0" />
            <stop
               id="stop3542"
               style="stop-color:#003399"
               offset="0.9944" />
            <a:midPointStop
               id="midPointStop3996"
               style="stop-color:#FFFFFF"
               offset="0" />
            <a:midPointStop
               id="midPointStop3997"
               style="stop-color:#FFFFFF"
               offset="0.5" />
            <a:midPointStop
               id="midPointStop3998"
               style="stop-color:#003399"
               offset="0.9944" />
          </linearGradient>
          <path
             style="fill:url(#XMLID_19_-0)"
             inkscape:connector-curvature="0"
             id="path3999"
             d="m 152.751,104.585 c 0,0 1.402,1.683 3.159,3.951 7.592,-3.053 13.896,-7.23 18.25,-12.17 -3.086,-5.89 -7.131,-11.155 -11.905,-15.569 C 152.21,74.344 140.93,70.795 140.93,70.795 l -1.354,1.641 -0.777,-1.274 -1.938,-0.733 0,1.646 1.746,1.463 -1.162,0.547 -4.459,0.362 -10.073,5.482 0.967,4.383 -1.165,0.367 -0.576,0.912 3.293,4.928 0.193,1.648 -2.712,0.547 0,3.286 -1.549,0.364 0.194,2.559 -13.177,9.139 0.312,4.101 c 5.522,1.167 11.435,1.813 17.596,1.813 10.702,0 20.669,-1.923 29.089,-5.223 -1.213,-1.85 -2.627,-4.168 -2.627,-4.168 z m -16.278,-4.93 -10.461,-0.371 4.454,-3.65 2.325,0 3.682,2.555 0,1.466 z m 12.791,-1.279 0,1.644 -4.455,0 0.387,1.099 -2.715,0.368 -0.19,0.908 -1.938,-0.36 -3.49,-0.735 0.584,-0.91 0.582,-1.101 1.937,-2.008 0.777,1.463 2.905,-0.185 1.549,-1.645 6.005,1.096 -1.938,0.366 z m 0.382,-2.379 0,0.003 -2.322,0.364 -0.387,-1.646 2.903,-0.363 0.39,-1.643 2.135,2.194 -2.719,1.091 z"
             enable-background="new    " />
          <linearGradient
             y2="130.0289"
             x2="100.5088"
             y1="70.033203"
             x1="100.5088"
             gradientUnits="userSpaceOnUse"
             id="linearGradient3545">
            <stop
               id="stop3547"
               style="stop-color:#FFFFFF"
               offset="0" />
            <stop
               id="stop3549"
               style="stop-color:#003399"
               offset="0.9944" />
            <a:midPointStop
               id="midPointStop4003"
               style="stop-color:#FFFFFF"
               offset="0" />
            <a:midPointStop
               id="midPointStop4004"
               style="stop-color:#FFFFFF"
               offset="0.5" />
            <a:midPointStop
               id="midPointStop4005"
               style="stop-color:#003399"
               offset="0.9944" />
          </linearGradient>
          <path
             style="fill:url(#XMLID_20_-6)"
             inkscape:connector-curvature="0"
             id="path4006"
             d="m 91.652,92.964 c 0.802,-0.377 6.404,-3.597 7.406,-4.354 1.004,-0.762 3.201,-0.568 4,-0.568 0.805,0 2.004,-0.381 2.203,-2.469 0.2,-2.084 1.002,-2.463 1.604,-1.893 0.602,0.563 -0.602,1.514 0.801,1.893 1.4,0.381 2.6,1.328 3.604,0.381 0.731,-0.693 -0.248,-1.484 -0.908,-2.081 l 11.115,0 1.203,-3.417 -2.602,-0.379 -9.613,-0.945 0,-1.139 -0.766,0.129 c 1.041,-5.717 7.221,-4.775 2.568,-8.084 -0.283,-0.204 -4.354,6.413 -5.39,6.285 -1.877,-0.248 -4.301,-0.268 -4.817,0.342 -0.684,0.807 1.535,-2.771 3.444,-3.855 -2.373,0.699 -8.736,2.868 -16.238,8.898 -4.341,4.198 -8.045,9.115 -10.929,14.568 1.084,1.239 2.3,2.427 3.618,3.567 l 2.594,-3.929 c 2.978,-1.218 6.639,-2.728 7.103,-2.95 z"
             enable-background="new    " />
          <linearGradient
             y2="79.161301"
             x2="124.5747"
             y1="73.443802"
             x1="124.5747"
             gradientUnits="userSpaceOnUse"
             id="linearGradient3552">
            <stop
               id="stop3554"
               style="stop-color:#FFFFFF"
               offset="0" />
            <stop
               id="stop3556"
               style="stop-color:#003399"
               offset="0.9944" />
            <a:midPointStop
               id="midPointStop4010"
               style="stop-color:#FFFFFF"
               offset="0" />
            <a:midPointStop
               id="midPointStop4011"
               style="stop-color:#FFFFFF"
               offset="0.5" />
            <a:midPointStop
               id="midPointStop4012"
               style="stop-color:#003399"
               offset="0.9944" />
          </linearGradient>
          <polygon
             style="fill:url(#XMLID_21_-2)"
             id="polygon4013"
             points="125.878,76.284 125.878,76.285 126.073,73.444 123.076,73.631 123.473,76.284 "
             enable-background="new    " />
          <linearGradient
             y2="73.125504"
             x2="106.0073"
             y1="72.496597"
             x1="106.0073"
             gradientUnits="userSpaceOnUse"
             id="linearGradient3559">
            <stop
               id="stop3561"
               style="stop-color:#FFFFFF"
               offset="0" />
            <stop
               id="stop3563"
               style="stop-color:#003399"
               offset="0.9944" />
            <a:midPointStop
               id="midPointStop4017"
               style="stop-color:#FFFFFF"
               offset="0" />
            <a:midPointStop
               id="midPointStop4018"
               style="stop-color:#FFFFFF"
               offset="0.5" />
            <a:midPointStop
               id="midPointStop4019"
               style="stop-color:#003399"
               offset="0.9944" />
          </linearGradient>
          <path
             style="fill:url(#XMLID_22_-6)"
             inkscape:connector-curvature="0"
             id="path4020"
             d="m 106.461,72.497 c -0.298,0 -0.625,0.123 -0.959,0.313 0.785,-0.231 1.154,-0.313 0.959,-0.313 z"
             enable-background="new    " />
          <linearGradient
             y2="85.320099"
             x2="120.4849"
             y1="68.116699"
             x1="120.4849"
             gradientUnits="userSpaceOnUse"
             id="linearGradient3566">
            <stop
               id="stop3568"
               style="stop-color:#FFFFFF"
               offset="0" />
            <stop
               id="stop3570"
               style="stop-color:#003399"
               offset="0.9944" />
            <a:midPointStop
               id="midPointStop4024"
               style="stop-color:#FFFFFF"
               offset="0" />
            <a:midPointStop
               id="midPointStop4025"
               style="stop-color:#FFFFFF"
               offset="0.5" />
            <a:midPointStop
               id="midPointStop4026"
               style="stop-color:#003399"
               offset="0.9944" />
          </linearGradient>
          <path
             style="fill:url(#XMLID_23_-1)"
             inkscape:connector-curvature="0"
             id="path4027"
             d="m 114.667,73.446 c -0.8,0.76 -0.53,3.219 0.601,3.219 0.603,0 12.611,-7.956 11.41,-8.148 -1.197,-0.188 -1.398,0 -4.607,-0.379 -3.199,-0.38 -6.605,4.548 -7.404,5.308 z"
             enable-background="new    " />
          <linearGradient
             y2="73.864899"
             x2="132.78419"
             y1="67.756302"
             x1="132.78419"
             gradientUnits="userSpaceOnUse"
             id="linearGradient3573">
            <stop
               id="stop3575"
               style="stop-color:#FFFFFF"
               offset="0" />
            <stop
               id="stop3577"
               style="stop-color:#003399"
               offset="0.9944" />
            <a:midPointStop
               id="midPointStop4031"
               style="stop-color:#FFFFFF"
               offset="0" />
            <a:midPointStop
               id="midPointStop4032"
               style="stop-color:#FFFFFF"
               offset="0.5" />
            <a:midPointStop
               id="midPointStop4033"
               style="stop-color:#003399"
               offset="0.9944" />
          </linearGradient>
          <polygon
             style="fill:url(#XMLID_24_-7)"
             id="polygon4034"
             points="131.084,70.792 135.486,69.653 130.082,67.756 "
             enable-background="new    " />
        </g>
      </g>
    </g>
  </g>
</svg>
