<?xml version="1.0" encoding="utf-8"?>
<!-- Generator: Adobe Illustrator 14.0.0, SVG Export Plug-In . SVG Version: 6.00 Build 43363)  -->
<!DOCTYPE svg PUBLIC "-//W3C//DTD SVG 1.1//EN" "http://www.w3.org/Graphics/SVG/1.1/DTD/svg11.dtd">
<svg version="1.1" id="Layer_1" xmlns="http://www.w3.org/2000/svg" xmlns:xlink="http://www.w3.org/1999/xlink" x="0px" y="0px"
	 width="128px" height="128px" viewBox="0 0 128 128" enable-background="new 0 0 128 128" xml:space="preserve">
<path fill="#025018" stroke="#025018" stroke-width="0.0938" d="M37.4,30.4c3.2-0.5,7.7-0.8,9.1,2.9c6.8,17,13,34.3,20,51.2
	c2.8,1.1,6.7,1.2,7.8,4.6c0.3,2.801,1,6.9-2.3,8.301c-8.7,0.3-17.4,0.1-26,0.1c-4.8-0.4-5.4-6.6-3.8-10.1c1.2-1.9,3.8-1.7,5.8-2.2
	C47.1,82.6,46.1,80.1,45.1,77.6c-4.3,0.101-8.7-0.3-13,0.2c-2.2,1.7-2.3,4.8-2.7,7.3c2.5,0.5,5.9,0.5,7,3.4c2,3,0.9,8.9-3.3,9
	c-7.7,0-15.4,0.2-23.1-0.1C5.8,96.3,5.7,91.1,6.7,87.7C8.3,85.1,12,85.8,14.2,84.1c1-1,1.6-2.5,2.2-3.899c6-15.3,12-30.6,17.9-45.9
	C35,32.8,35.6,30.8,37.4,30.4z"/>
<path fill="#9DE79D" stroke="#9DE79D" stroke-width="0.0938" d="M38,33.3c1.3,0.3,3.6-0.4,4,1.5c3.9,10,7.5,20.1,11.3,30.101
	c-1.9,2.5-3.9,5-6.1,7.3c-6.7,0-13.3,0-19.9,0.1c-1.6,4.601-4.2,9.2-3.8,14.2c2.4,1.9,5.6,2.2,8.5,3.3c-0.3,0.5-0.8,1.4-1.1,1.8
	c-7.1,0.9-14.2,0.5-21.4,0.5c0.1-0.699,0.2-2.199,0.3-3c2.6-0.8,5.8-1.399,7.5-3.8c2.1-3.2,3.1-6.899,4.6-10.399
	C27.3,61.1,32.5,47.1,38,33.3z"/>
<path fill="#025018" stroke="#025018" stroke-width="0.0938" d="M29,68.2c2.5-7.2,5.5-14.2,8.1-21.4c2.7,7.2,5.8,14.3,8.4,21.5
	C40,68.5,34.5,68.4,29,68.2z"/>
<path fill="#025018" stroke="#025018" stroke-width="0.0938" d="M81.8,52.9c6.101-5.6,15.3-6.6,23-4.5c6.3,1.8,11,8,10.8,14.6
	c0.101,7.2,0,14.3-0.1,21.5c2.7,0.7,6.1,1.4,6.9,4.5c0.1,2.4,0.8,5.3-1.4,7c-5.6,3.3-12.8,3.4-18.1-0.5c-6.5,3.5-15.2,4.8-21.4,0
	c-6-4.4-7.3-13.4-3.6-19.7c1.3-2.3,3.399-4,5.399-5.7c-2.2-1.699-4.5-3.5-5.1-6.3C76.9,59.8,78.7,55.5,81.8,52.9z"/>
<path fill="#9DE79D" stroke="#9DE79D" stroke-width="0.0938" d="M82.9,55.9c5.1-5.4,13.5-6.3,20.3-4.2c4.8,1.5,7.6,6.9,6.899,11.6
	c-2.6,2.101-5,4.4-7.5,6.5C97.5,71.9,91,73,88.2,78.4c-1.8,3.3-0.2,7,1.7,9.899c-1.5,1.4-3,2.8-4.4,4.2c-2.2-1.4-4.6-2.8-5.5-5.3
	c-1.9-4.9-0.5-11.2,4.4-13.8C90.2,70.3,96.7,69.2,102.6,66.6c0-3.399,0.4-7.3-2.1-10.1c-2.6-3.4-7.6-2.7-10.9-0.7
	c0.2,2,0.7,4,0.5,6.1c-0.8,3.3-5.8,4.6-8,1.9C80.4,61.4,80.8,57.9,82.9,55.9z"/>
<path fill="#9DE79D" stroke="#9DE79D" stroke-width="0.0938" d="M95.6,59.6c0.4-0.3,1.4-0.7,1.801-1l-0.2,0.7c-0.7,2-1,4-1,6.101
	V66.1c-0.4,0-1.2-0.1-1.7-0.1C94.9,63.8,95.2,61.7,95.6,59.6z"/>
<path fill="#4DD24D" stroke="#4DD24D" stroke-width="0.0938" d="M36.7,64.7c-1.8-0.9-0.2-5.2,1.9-4.4l0.2,0.5
	C38.2,62.1,37.5,63.4,36.7,64.7z"/>
<path fill="#FFFFFF" stroke="#FFFFFF" stroke-width="0.0938" d="M96.2,65.4c0-2.101,0.3-4.101,1-6.101c1.1,1.3,3.3,3.9,1.3,5.4
	C98,64.8,96.8,65.2,96.2,65.4z"/>
<path fill="#9DE79D" stroke="#9DE79D" stroke-width="0.0938" d="M36.7,64.7c0.8-1.3,1.5-2.6,2.1-3.9c0.5,1.4,1.1,2.9,1.5,4.4
	C39.4,65.1,37.6,64.8,36.7,64.7z"/>
<path fill="#4DD24D" stroke="#4DD24D" stroke-width="0.0938" d="M102.6,69.8c2.5-2.1,4.9-4.399,7.5-6.5c1,7.5-0.399,15,0.301,22.5
	c0.399,3.5,6.6,1.5,6.5,5.101c-2.7,2-6.301,2.199-9.5,1.6c-2.2-0.7-3.7-2.8-5.301-4.3c-4.6,3.6-10.699,6.7-16.6,4.3
	c1.4-1.4,2.9-2.8,4.4-4.2c4.199-0.1,9.6,0,12-4.2C103,79.4,102.4,74.5,102.6,69.8z"/>
<path fill="#4DD24D" stroke="#4DD24D" stroke-width="0.0938" d="M53.3,64.9C56.5,71,58.1,77.8,60.9,84.1c1.3,3.2,4.8,4.2,7.7,5.4
	c0.101,0.6,0.301,1.7,0.4,2.3c-8.1,0-16.1,0.4-24.2,0.3c0.1-0.8,0.2-2.199,0.3-3c2.3-0.399,4.6-1,6.9-1.399
	c-0.4-5.5-3.5-10.2-4.8-15.5C49.4,69.9,51.4,67.4,53.3,64.9z"/>
<path fill="#025018" stroke="#025018" stroke-width="0.0938" d="M88.2,78.4C91,73,97.5,71.9,102.6,69.8
	C102.4,74.5,103,79.4,101.9,84.1c-2.4,4.2-7.801,4.101-12,4.2C88,85.4,86.4,81.7,88.2,78.4z"/>
<path fill="#4DD24D" stroke="#4DD24D" stroke-width="0.0938" d="M93,85.2c-1.8-4.3,2.7-7.101,6.1-8.4l-0.6,0.5
	C95.9,79.3,93.6,81.8,93,85.2z"/>
<path fill="#FFFFFF" stroke="#FFFFFF" stroke-width="0.0938" d="M93,85.2c0.6-3.4,2.9-5.9,5.5-7.9C98.7,79.4,100,82.4,97.8,83.9
	C96.5,85.1,94.6,84.8,93,85.2z"/>
</svg>
