<?xml version="1.0" encoding="UTF-8" standalone="no"?>
<!-- Created with Inkscape (http://www.inkscape.org/) -->

<svg
   xmlns:dc="http://purl.org/dc/elements/1.1/"
   xmlns:cc="http://creativecommons.org/ns#"
   xmlns:rdf="http://www.w3.org/1999/02/22-rdf-syntax-ns#"
   xmlns:svg="http://www.w3.org/2000/svg"
   xmlns="http://www.w3.org/2000/svg"
   xmlns:sodipodi="http://sodipodi.sourceforge.net/DTD/sodipodi-0.dtd"
   xmlns:inkscape="http://www.inkscape.org/namespaces/inkscape"
   width="128"
   height="128"
   viewBox="0 0 128 128"
   id="svg5350"
   version="1.1"
   inkscape:version="0.91 r13725"
   sodipodi:docname="icon-chamilo.svg">
  <defs
     id="defs5352" />
  <sodipodi:namedview
     id="base"
     pagecolor="#ffffff"
     bordercolor="#666666"
     borderopacity="1.0"
     inkscape:pageopacity="0.0"
     inkscape:pageshadow="2"
     inkscape:zoom="1.2298387"
     inkscape:cx="-34.733336"
     inkscape:cy="21.255317"
     inkscape:document-units="px"
     inkscape:current-layer="layer1"
     showgrid="false"
     units="px"
     inkscape:window-width="1325"
     inkscape:window-height="747"
     inkscape:window-x="41"
     inkscape:window-y="21"
     inkscape:window-maximized="1" />
  <metadata
     id="metadata5355">
    <rdf:RDF>
      <cc:Work
         rdf:about="">
        <dc:format>image/svg+xml</dc:format>
        <dc:type
           rdf:resource="http://purl.org/dc/dcmitype/StillImage" />
        <dc:title></dc:title>
      </cc:Work>
    </rdf:RDF>
  </metadata>
  <g
     inkscape:label="Capa 1"
     inkscape:groupmode="layer"
     id="layer1"
     transform="translate(0,-924.36216)">
    <g
       transform="matrix(5.8181818,0,0,5.8181818,-1494.0532,503.26784)"
       id="g5317"
       inkscape:export-filename="/var/www/chamilo11/main/img/icons/22/icon-chamilo.png"
       inkscape:export-xdpi="90"
       inkscape:export-ydpi="90">
      <rect
         y="72.463745"
         x="256.68115"
         height="22"
         width="22"
         id="rect5271"
         style="opacity:0;fill:#e6e6e6;fill-opacity:1;stroke:none;stroke-width:1.5;stroke-linecap:round;stroke-linejoin:round;stroke-miterlimit:4;stroke-dasharray:none;stroke-dashoffset:0;stroke-opacity:1" />
      <g
         style="fill:#ffffff"
         transform="matrix(0.29854428,0,0,0.29854428,156.15111,63.156854)"
         id="g5260">
        <path
           inkscape:connector-curvature="0"
           id="path5211"
           d="m 403.13306,76.03732 c 0,0 0.49099,-0.247707 0.64215,-1.09779 2.4e-4,-0.05003 6.9e-4,-0.100102 6.9e-4,-0.15015 l 7e-4,-0.15015 c -0.045,-0.801055 -0.82386,-1.756075 -1.70067,-2.711613 -1.02325,-1.056392 -1.9023,-1.561478 -1.9023,-1.561478 0,0 -0.43032,-2.104388 -2.27693,-5.016965 -1.79762,-2.912325 -4.91682,-5.981664 -6.63542,-5.089678 -1.71859,0.89199 -0.21283,3.40238 -0.11861,4.153636 0.14294,0.801566 0.87108,2.106677 0.62622,2.105406 -0.2936,-0.0516 -3.98009,-7.22807 -13.29525,-5.27446 -2.40251,0.538072 -4.46468,1.578433 -6.13654,2.92112 l -0.0832,16.716688 c 0.59068,-0.597543 0.83705,-0.896568 0.83705,-0.896568 0,0 0.62174,3.006304 1.7904,4.363767 1.16868,1.357458 2.58497,2.165647 3.03072,1.166936 0.4455,-0.948656 -0.90538,-5.059882 -0.90538,-5.059882 0,0 2.53425,2.515739 3.26588,3.12016 0.73163,0.604418 2.14817,1.362552 2.54669,0.01324 0.34954,-1.349565 -0.66872,-3.406965 -1.49955,-3.761646 -0.78185,-0.354425 -1.2716,-0.356966 -1.2716,-0.356966 0,0 -0.48651,-0.653194 -0.73039,-0.854669 -0.29285,-0.201738 -0.34183,-0.201983 -0.34183,-0.201983 0,0 0.44202,-0.247962 1.81306,-0.190777 1.42003,0.05743 2.5462,0.11334 2.5462,0.11334 0,0 1.26388,1.908518 2.04449,2.513194 0.73139,0.654466 2.63369,2.215947 3.3161,2.870157 0.63343,0.653972 1.02373,0.956298 1.27135,0.407028 0.19863,-0.549533 -0.13697,-2.002767 -1.01329,-3.0584 -0.92554,-1.005841 -1.9023,-1.561479 -2.24263,-2.06376 -0.29086,-0.602125 -0.48452,-1.0536 -0.48452,-1.0536 0,0 1.80535,1.360774 2.24388,1.813516 0.48776,0.402946 3.70988,2.471799 4.24686,2.82495 0.53674,0.403202 0.78285,0.154228 0.78285,0.154228 0,0 0.39031,0.302329 0.53822,0.102899 0.14792,-0.199438 0.54645,-1.548744 -0.47804,-2.354892 -1.07321,-0.856458 -1.70789,-1.260168 -1.60945,-1.359759 0.0494,-0.09985 1.12518,0.256108 1.2736,-0.04345 0.0992,-0.249741 -0.0457,-0.650905 -0.19216,-0.751767 -0.0972,-0.150657 0.29608,-0.448919 0.29608,-0.448919 0,0 0.39181,0.0021 2.00722,0.160588 1.61542,0.15855 5.68731,-1.221708 6.52136,-1.517681 0.83408,-0.295977 1.27584,-0.493881 1.27584,-0.493881 l 0,0 z m -30.96118,21.361053 c 3.39046,-2.234673 3.56577,-7.939607 1.71021,-9.050381 -0.53698,-0.353154 -1.07446,-0.606203 -1.66141,-0.759409 l -0.0129,2.602603 c 0.14643,0.100858 0.29261,0.251771 0.38931,0.502534 0.29086,0.602124 0.14021,1.352113 0.14021,1.352113 0,0 -0.0442,-0.951204 -0.38459,-1.453486 -0.0487,-0.05029 -0.0974,-0.10061 -0.14618,-0.150913 l -0.0346,6.956939 z m 0.16532,-33.233179 c -0.73736,0.546736 -1.37727,1.19407 -1.9682,1.841668 L 370.2866,82.5734 c 0.49124,-0.297751 0.93351,-0.595757 1.3273,-0.994125 0.24612,-0.248978 0.44327,-0.498204 0.64016,-0.697389 l 0.0832,-16.716692 0,0 z m -2.12855,34.073847 c 0.73538,-0.146331 1.42251,-0.443063 1.96323,-0.840668 l 0.0346,-6.956939 C 371.91463,90.039503 371.671,89.78798 371.671,89.78798 c 0,0 0.24438,0.10137 0.53673,0.403202 l 0.0129,-2.602602 c -0.63568,-0.203509 -1.32083,-0.307171 -1.95825,-0.160329 l -0.0217,4.354344 0,0 c 0.14742,-0.09934 0.39254,-0.148109 0.29285,0.20173 -0.05,0.199942 -0.1969,0.199179 -0.29484,0.198668 l 0,0 -0.0127,2.552547 c 0.0979,7.1e-4 0.24488,0.0011 0.34307,-0.04825 0,0 -0.0985,0.09959 -0.34382,0.198412 l -0.0167,3.35335 z M 370.369,66.006862 c -3.44666,3.685873 -4.98704,8.132429 -5.33485,9.13164 -0.54643,1.548744 -4.05153,7.136264 -4.36181,10.438037 -0.26156,3.352073 -0.35112,11.509971 7.08757,12.649774 0.8808,0.154728 1.71337,0.159058 2.44874,0.01274 l 0.0167,-3.353351 c -0.68664,0.196634 -2.20585,0.388945 -3.91002,-1.621971 -2.28837,-2.714665 -1.14003,-7.113207 0.6795,-8.605281 1.18038,-0.994892 2.30954,-1.539576 3.29177,-2.085038 l 0.0824,-16.566541 0,0 z m -0.10657,21.421389 -0.0217,4.354344 c -0.14743,0.09933 -0.24537,0.09882 -0.34259,-0.05185 -0.0994,0.299796 0.0957,0.450953 0.3406,0.452227 l -0.0127,2.552552 c -1.56794,0.141997 -3.71586,-1.270606 -3.16618,-3.469996 0.64912,-2.499196 1.82999,-3.594176 3.20253,-3.837297 z"
           style="fill:#ffffff;fill-opacity:1;stroke:none" />
        <g
           id="g5213"
           transform="matrix(0.23443739,0.00121897,-0.00119185,0.23958417,306.12344,-66.967199)"
           inkscape:transform-center-y="-65.497173"
           style="fill:#ffffff;fill-opacity:1">
          <path
             style="fill:#ffffff;fill-opacity:1;stroke:none"
             d="m 317.497,435.66599 13.283,-0.49733 c 7.12992,-0.26696 16.9201,4.73977 16.36027,13.87359 l -3.48135,56.79988 c -0.43649,7.12156 -3.50599,10.88958 -9.1489,10.88958 l -17.51036,0 c -7.13493,0 -10.13574,-4.51857 -10.6409,-11.63558 l -3.97869,-56.05388 c -0.50516,-7.11701 4.99786,-12.99738 15.11693,-13.37626 z"
             id="path5215"
             inkscape:connector-curvature="0"
             sodipodi:nodetypes="sssssssss" />
        </g>
        <g
           inkscape:transform-center-y="-53.403829"
           transform="matrix(0.19126402,-0.15841187,0.1550096,0.19546362,227.02322,12.309117)"
           id="g5217"
           inkscape:transform-center-x="43.829697"
           style="fill:#ffffff;fill-opacity:0.70301753">
          <path
             sodipodi:nodetypes="sssssssss"
             inkscape:connector-curvature="0"
             id="path5219"
             d="m 317.497,435.66599 13.283,-0.49733 c 7.12992,-0.26696 16.9201,4.73977 16.36027,13.87359 l -3.48135,56.79988 c -0.43649,7.12156 -3.50599,10.88958 -9.1489,10.88958 l -17.51036,0 c -7.13493,0 -10.13574,-4.51857 -10.6409,-11.63558 l -3.97869,-56.05388 c -0.50516,-7.11701 4.99786,-12.99738 15.11693,-13.37626 z"
             style="fill:#ffffff;fill-opacity:1;stroke:none" />
        </g>
        <g
           inkscape:transform-center-x="63.28487"
           id="g5222"
           transform="matrix(0.04913467,-0.23215378,0.22716682,0.05021428,228.90202,123.11317)"
           inkscape:transform-center-y="-14.415814"
           style="fill:#ffffff;fill-opacity:1">
          <path
             style="fill:#ffffff;fill-opacity:1;stroke:none"
             d="m 317.497,435.66599 13.283,-0.49733 c 7.12992,-0.26696 16.9201,4.73977 16.36027,13.87359 l -3.48135,56.79988 c -0.43649,7.12156 -3.50599,10.88958 -9.1489,10.88958 l -17.51036,0 c -7.13493,0 -10.13574,-4.51857 -10.6409,-11.63558 l -3.97869,-56.05388 c -0.50516,-7.11701 4.99786,-12.99738 15.11693,-13.37626 z"
             id="path5224"
             inkscape:connector-curvature="0"
             sodipodi:nodetypes="sssssssss" />
        </g>
        <g
           inkscape:transform-center-y="24.205256"
           transform="matrix(-0.08438242,-0.16656022,0.16298181,-0.08623427,301.10084,184.33833)"
           id="g5226"
           inkscape:transform-center-x="45.418014"
           style="fill:#ffffff;fill-opacity:1">
          <path
             sodipodi:nodetypes="sssssssss"
             inkscape:connector-curvature="0"
             id="path5228"
             d="m 317.497,435.66599 13.283,-0.49733 c 7.12992,-0.26696 16.9201,4.73977 16.36027,13.87359 l -3.48135,56.79988 c -0.43649,7.12156 -3.50599,10.88958 -9.1489,10.88958 l -17.51036,0 c -7.13493,0 -10.13574,-4.51857 -10.6409,-11.63558 l -3.97869,-56.05388 c -0.50516,-7.11701 4.99786,-12.99738 15.11693,-13.37626 z"
             style="fill:#ffffff;fill-opacity:1;stroke:none" />
        </g>
      </g>
    </g>
  </g>
</svg>
