<?xml version="1.0" encoding="UTF-8" standalone="no"?>
<!-- Created with Inkscape (http://www.inkscape.org/) -->

<svg
   xmlns:dc="http://purl.org/dc/elements/1.1/"
   xmlns:cc="http://creativecommons.org/ns#"
   xmlns:rdf="http://www.w3.org/1999/02/22-rdf-syntax-ns#"
   xmlns:svg="http://www.w3.org/2000/svg"
   xmlns="http://www.w3.org/2000/svg"
   xmlns:sodipodi="http://sodipodi.sourceforge.net/DTD/sodipodi-0.dtd"
   xmlns:inkscape="http://www.inkscape.org/namespaces/inkscape"
   width="128"
   height="128"
   viewBox="0 0 33.866666 33.866668"
   version="1.1"
   id="svg1962"
   inkscape:version="0.92.3 (2405546, 2018-03-11)"
   sodipodi:docname="ofaj_admin.svg">
  <defs
     id="defs1956" />
  <sodipodi:namedview
     id="base"
     pagecolor="#ffffff"
     bordercolor="#666666"
     borderopacity="1.0"
     inkscape:pageopacity="0.0"
     inkscape:pageshadow="2"
     inkscape:zoom="1.3893543"
     inkscape:cx="29.038572"
     inkscape:cy="93.678238"
     inkscape:document-units="mm"
     inkscape:current-layer="layer1"
     showgrid="false"
     units="px"
     inkscape:window-width="1366"
     inkscape:window-height="713"
     inkscape:window-x="0"
     inkscape:window-y="27"
     inkscape:window-maximized="1" />
  <metadata
     id="metadata1959">
    <rdf:RDF>
      <cc:Work
         rdf:about="">
        <dc:format>image/svg+xml</dc:format>
        <dc:type
           rdf:resource="http://purl.org/dc/dcmitype/StillImage" />
        <dc:title />
      </cc:Work>
    </rdf:RDF>
  </metadata>
  <g
     inkscape:label="Capa 1"
     inkscape:groupmode="layer"
     id="layer1"
     transform="translate(0,-263.13332)">
    <rect
       y="263.13333"
       x="2.9882813e-06"
       height="33.866665"
       width="33.866665"
       id="rect1847"
       style="opacity:0;fill:#4fa6c2;fill-opacity:1;stroke:none;stroke-width:0.56153017;stroke-linecap:round;stroke-linejoin:bevel;stroke-miterlimit:4;stroke-dasharray:none;stroke-dashoffset:0;stroke-opacity:1" />
    <path
       style="fill:#ffffff;stroke-width:0.18038309"
       inkscape:connector-curvature="0"
       class="cls-5"
       d="m 28.852654,289.69049 a 13.119263,13.119263 0 0 0 -9.43043,-11.1603 7.2910847,7.2910847 0 1 0 -7.204496,0 13.039894,13.039894 0 0 0 -1.637881,0.58805 13.209454,13.209454 0 0 0 -5.4006731,4.36888 12.902803,12.902803 0 0 0 -2.0834196,4.57271 c -0.3445289,1.48455 -0.7071041,3.6257 0.31387,4.93347 a 2.7977418,2.7977418 0 0 0 2.2024691,1.07148 H 26.026052 c 1.610821,0 2.826602,-1.31319 2.826602,-2.9168 -0.02523,-0.23269 -0.05952,-0.46178 -0.0956,-0.68905 a 3.1007854,3.1007854 0 0 0 0.0956,-0.76844 z"
       id="path1384" />
    <path
       sodipodi:nodetypes="cccccccc"
       inkscape:connector-curvature="0"
       id="path1388"
       d="m 14.949382,280.29091 h 1.808914 l 0.819882,4.53468 -0.819882,5.01387 -0.993315,1.48208 -0.815599,-1.48208 -0.851413,-5.32922 z"
       style="opacity:1;fill:#c8102e;fill-opacity:1;stroke:none;stroke-width:0.48102161;stroke-linecap:round;stroke-linejoin:bevel;stroke-miterlimit:4;stroke-dasharray:none;stroke-dashoffset:0;stroke-opacity:1" />
    <path
       sodipodi:nodetypes="cccccccc"
       inkscape:connector-curvature="0"
       id="path1390"
       d="M 4.9804264,293.84425 H 25.981928 c 1.86968,-0.0154 2.903151,-1.28517 2.870726,-4.15376 -1.748306,-7.75059 -5.593639,-9.4431 -9.43043,-11.1603 l -3.81715,8.84816 -3.387346,-8.84816 c -6.1169061,2.25123 -8.4591434,6.30269 -9.1293232,11.15159 -0.2038948,2.07479 0.086604,3.74242 1.8920216,4.16247 z"
       style="fill:#c8102e;fill-opacity:1;stroke:none;stroke-width:0.18038309px;stroke-linecap:butt;stroke-linejoin:miter;stroke-opacity:1" />
    <path
       sodipodi:nodetypes="ccccccc"
       inkscape:connector-curvature="0"
       id="path1392"
       d="m 12.217728,278.53019 -3.9132984,4.05483 7.3006444,4.79333 7.014508,-4.88252 -3.197358,-3.96564 -3.81715,8.84816 z"
       style="fill:#ffffff;fill-opacity:1;stroke:#c8102e;stroke-width:0.70555556;stroke-linecap:round;stroke-linejoin:bevel;stroke-opacity:1;stroke-miterlimit:4;stroke-dasharray:none" />
    <path
       style="fill:#c8102e;stroke-width:0.18038309;fill-opacity:1"
       inkscape:connector-curvature="0"
       class="cls-6"
       d="m 29.393804,289.69049 a 13.889498,13.889498 0 0 0 -9.827272,-11.68161 l 0.129876,0.9885 c 4.994807,-2.96189 5.254558,-10.3107 0.277791,-13.44576 -4.702589,-2.96189 -11.1061901,0.0271 -11.9052844,5.5071 a 7.9368567,7.9368567 0 0 0 3.8710224,7.93686 l 0.129876,-0.9885 a 13.83358,13.83358 0 0 0 -9.7641333,11.38759 c -0.2922241,2.12851 0.2092398,4.65749 2.6642544,5.14993 0.6096937,0.12266 1.2753057,0.0649 1.8922193,0.0649 H 24.081521 c 0.649379,0 1.302365,0.0235 1.951744,0 a 3.403829,3.403829 0 0 0 2.705746,-1.38894 c 0.768436,-1.07148 0.606088,-2.28726 0.658399,-3.5265 0.02884,-0.69628 -1.053433,-0.69447 -1.082298,0 -0.01084,0.25975 -0.08838,0.51049 -0.0956,0.76844 -0.01084,0.31386 0.11545,0.61871 0.08658,0.93979 a 2.4027029,2.4027029 0 0 1 -0.72153,1.508 c -0.467192,0.44555 -1.028181,0.59166 -1.654114,0.61692 -0.597067,0.0234 -1.199548,0 -1.803829,0 H 8.4693617 c -1.6883858,0 -4.2786826,0.47621 -4.9966062,-1.54589 -0.4202932,-1.18511 -0.1370889,-2.5903 0.1443088,-3.77361 a 12.560075,12.560075 0 0 1 1.8489205,-4.18669 12.729636,12.729636 0 0 1 6.8942452,-4.96595 0.5411493,0.5411493 0 0 0 0.129876,-0.9885 c -4.2841025,-2.5416 -4.5727132,-8.87485 -0.277791,-11.58059 4.026151,-2.53619 9.498975,-0.0758 10.272817,4.61961 0.459979,2.79774 -0.92897,5.52874 -3.335286,6.95737 a 0.5411493,0.5411493 0 0 0 0.129875,0.9885 12.763908,12.763908 0 0 1 9.033591,10.6426 c 0.08117,0.68005 1.165276,0.68727 1.080492,-0.003 z"
       id="path1394" />
    <path
       inkscape:connector-curvature="0"
       id="path1396"
       d="m 16.741955,281.49578 -1.792566,-6.8e-4 -0.553183,-1.70508 1.450682,-1.053 1.449749,1.05429 z"
       inkscape:transform-center-y="-0.65850098"
       inkscape:transform-center-x="-0.2827321"
       style="opacity:1;fill:#c8102e;fill-opacity:1;stroke:none;stroke-width:0.29650795;stroke-linecap:round;stroke-linejoin:bevel;stroke-miterlimit:4;stroke-dasharray:none;stroke-dashoffset:0;stroke-opacity:1" />
    <path
       inkscape:connector-curvature="0"
       style="fill:#c8102e;fill-opacity:1;stroke-width:0.4847796"
       d="m 30.855589,286.38105 -1.485363,-0.29766 c -0.07468,-0.21476 -0.162887,-0.42321 -0.260324,-0.62488 l 0.841572,-1.26237 c 0.256452,-0.38443 0.20555,-0.89684 -0.12119,-1.22309 l -0.932721,-0.93273 c -0.187606,-0.1876 -0.435332,-0.28407 -0.686445,-0.28407 -0.185669,0 -0.373283,0.0533 -0.536649,0.16288 l -1.262369,0.8411 c -0.202634,-0.0979 -0.411093,-0.18519 -0.625847,-0.25985 l -0.297655,-1.48585 c -0.09017,-0.45375 -0.488664,-0.77952 -0.950658,-0.77952 h -1.318602 c -0.461994,0 -0.859994,0.32625 -0.95065,0.77952 l -0.297655,1.48585 c -0.214754,0.0747 -0.423212,0.1624 -0.624882,0.25985 l -1.261876,-0.8411 c -0.164346,-0.10956 -0.351465,-0.16288 -0.537621,-0.16288 -0.250635,0 -0.498353,0.0965 -0.685967,0.28407 l -0.932227,0.93273 c -0.326748,0.32674 -0.377649,0.83866 -0.121197,1.22309 l 0.841093,1.26237 c -0.09793,0.20215 -0.185191,0.41061 -0.259846,0.62537 l -1.486334,0.29717 c -0.453269,0.0906 -0.779523,0.48865 -0.779523,0.95065 v 1.3186 c 0,0.46199 0.326254,0.86048 0.779523,0.95065 l 1.485856,0.29814 c 0.07468,0.21476 0.162394,0.42321 0.259838,0.62488 l -0.840607,1.26237 c -0.256452,0.38442 -0.205551,0.89684 0.121197,1.22309 l 0.932713,0.93273 c 0.187606,0.1876 0.435332,0.28407 0.685959,0.28407 0.186156,0 0.373769,-0.0538 0.537143,-0.16288 l 1.262362,-0.84158 c 0.202156,0.0984 0.410606,0.18567 0.625368,0.26033 l 0.297169,1.48536 c 0.09066,0.45376 0.488656,0.78001 0.95065,0.78001 h 1.318602 c 0.461994,0 0.860489,-0.32674 0.950658,-0.78001 l 0.298134,-1.48536 c 0.214761,-0.0747 0.423212,-0.16289 0.624882,-0.26033 l 1.262369,0.84158 c 0.163852,0.10907 0.351466,0.16288 0.536649,0.16288 0.251113,0 0.498839,-0.0965 0.686445,-0.28407 l 0.932721,-0.93273 c 0.32674,-0.32674 0.377642,-0.83867 0.12119,-1.22309 l -0.841572,-1.26237 c 0.09841,-0.20264 0.185669,-0.41109 0.260324,-0.62585 l 1.485363,-0.29717 c 0.453269,-0.0897 0.780009,-0.48866 0.780009,-0.95065 v -1.3186 c 0,-0.462 -0.32674,-0.86 -0.780009,-0.95065 z"
       id="path1482" />
    <path
       inkscape:connector-curvature="0"
       style="fill:#ffffff;fill-opacity:1;stroke-width:0.4847796"
       d="m 29.179705,288.94795 c -0.336916,0.0674 -0.612762,0.30784 -0.725227,0.63264 -0.06257,0.17889 -0.135254,0.35244 -0.216698,0.52066 -0.150768,0.30977 -0.12507,0.67529 0.06542,0.96083 l 0.841579,1.26236 -0.932713,0.93272 -1.262369,-0.84158 c -0.161916,-0.1081 -0.34953,-0.16289 -0.537622,-0.16289 -0.143979,0 -0.28893,0.032 -0.42224,0.0965 -0.168704,0.0814 -0.341768,0.15512 -0.521628,0.21767 -0.323832,0.11246 -0.564283,0.3883 -0.631663,0.72522 l -0.298142,1.48634 H 23.2198 l -0.297169,-1.48634 c -0.06735,-0.33692 -0.307832,-0.61276 -0.63215,-0.72522 -0.178888,-0.0626 -0.352923,-0.13526 -0.521142,-0.2167 -0.133796,-0.0654 -0.278261,-0.0975 -0.422726,-0.0975 -0.188578,0 -0.375705,0.0548 -0.537621,0.16289 l -1.262362,0.84158 -0.932721,-0.93272 0.841094,-1.26236 c 0.190522,-0.28602 0.215239,-0.65155 0.06642,-0.95987 -0.08144,-0.1687 -0.154641,-0.34177 -0.217184,-0.52162 -0.112464,-0.32383 -0.388789,-0.56428 -0.725226,-0.63166 l -1.485849,-0.29815 -7.71e-4,-1.31908 1.486334,-0.29717 c 0.336438,-0.0674 0.612762,-0.30783 0.725235,-0.63215 0.06257,-0.17889 0.134767,-0.35293 0.21669,-0.52114 0.150282,-0.30929 0.125078,-0.67482 -0.06596,-0.96035 l -0.840607,-1.26237 0.932234,-0.93271 1.262362,0.84109 c 0.161916,0.1081 0.349529,0.16289 0.537621,0.16289 0.143979,0 0.288445,-0.032 0.422248,-0.0965 0.168219,-0.0814 0.341768,-0.15464 0.521135,-0.21718 0.324318,-0.11246 0.564769,-0.38879 0.632157,-0.72523 l 0.297648,-1.48584 1.318601,-4.9e-4 0.29717,1.48633 c 0.06743,0.33644 0.307839,0.61277 0.632643,0.72523 0.17888,0.0626 0.35243,0.13477 0.520649,0.2167 0.134289,0.065 0.278268,0.097 0.423212,0.097 0.188578,0 0.375705,-0.0548 0.537621,-0.16289 l 1.262369,-0.84109 0.932714,0.93271 -0.84158,1.26237 c -0.190514,0.28602 -0.214754,0.65106 -0.06642,0.95986 0.08144,0.16822 0.155126,0.34178 0.217662,0.52114 0.112472,0.32432 0.388311,0.56477 0.725234,0.63215 l 1.485363,0.29766 0.0015,1.3186 z"
       id="path1459" />
    <path
       inkscape:connector-curvature="0"
       style="fill:#c8102e;fill-opacity:1;stroke-width:0.4847796"
       d="m 23.879129,290.96075 c -1.639525,0 -2.969274,-1.33022 -2.969274,-2.96927 0,-1.63953 1.329749,-2.96928 2.969274,-2.96928 1.639039,0 2.969275,1.32975 2.969275,2.96928 0,1.63905 -1.330236,2.96927 -2.969275,2.96927 z"
       id="path1461" />
    <path
       inkscape:connector-curvature="0"
       style="fill:#ffffff;fill-opacity:1;stroke-width:0.4847796"
       d="m 23.879129,289.44582 c -0.802798,0 -1.454342,-0.65154 -1.454342,-1.45434 0,-0.80279 0.651544,-1.45433 1.454342,-1.45433 0.80279,0 1.454334,0.65154 1.454334,1.45433 0,0.8028 -0.651544,1.45434 -1.454334,1.45434 z"
       id="path1463" />
  </g>
</svg>
