<?xml version="1.0" encoding="UTF-8" standalone="no"?>
<!-- Created with Inkscape (http://www.inkscape.org/) -->

<svg
   xmlns:dc="http://purl.org/dc/elements/1.1/"
   xmlns:cc="http://creativecommons.org/ns#"
   xmlns:rdf="http://www.w3.org/1999/02/22-rdf-syntax-ns#"
   xmlns:svg="http://www.w3.org/2000/svg"
   xmlns="http://www.w3.org/2000/svg"
   xmlns:sodipodi="http://sodipodi.sourceforge.net/DTD/sodipodi-0.dtd"
   xmlns:inkscape="http://www.inkscape.org/namespaces/inkscape"
   width="128"
   height="128"
   viewBox="0 0 33.866666 33.866668"
   version="1.1"
   id="svg1962"
   inkscape:version="0.92.3 (2405546, 2018-03-11)"
   sodipodi:docname="ofaj_student.svg">
  <defs
     id="defs1956" />
  <sodipodi:namedview
     id="base"
     pagecolor="#ffffff"
     bordercolor="#666666"
     borderopacity="1.0"
     inkscape:pageopacity="0.0"
     inkscape:pageshadow="2"
     inkscape:zoom="2.0070572"
     inkscape:cx="74.678482"
     inkscape:cy="45.989578"
     inkscape:document-units="mm"
     inkscape:current-layer="layer1"
     showgrid="false"
     units="px"
     inkscape:window-width="1366"
     inkscape:window-height="713"
     inkscape:window-x="0"
     inkscape:window-y="27"
     inkscape:window-maximized="1" />
  <metadata
     id="metadata1959">
    <rdf:RDF>
      <cc:Work
         rdf:about="">
        <dc:format>image/svg+xml</dc:format>
        <dc:type
           rdf:resource="http://purl.org/dc/dcmitype/StillImage" />
        <dc:title />
      </cc:Work>
    </rdf:RDF>
  </metadata>
  <g
     inkscape:label="Capa 1"
     inkscape:groupmode="layer"
     id="layer1"
     transform="translate(0,-263.13332)">
    <rect
       y="263.13333"
       x="8.8134769e-08"
       height="33.866665"
       width="33.866665"
       id="rect1843"
       style="opacity:0;fill:#4fa6c2;fill-opacity:1;stroke:none;stroke-width:0.56153017;stroke-linecap:round;stroke-linejoin:bevel;stroke-miterlimit:4;stroke-dasharray:none;stroke-dashoffset:0;stroke-opacity:1" />
    <path
       style="fill:#ffffff;stroke-width:0.17579487"
       inkscape:connector-curvature="0"
       class="cls-5"
       d="m 29.639566,291.49907 a 12.785562,12.785562 0 0 0 -9.190558,-10.87643 7.1056288,7.1056288 0 1 0 -7.021242,0 12.708212,12.708212 0 0 0 -1.59622,0.57309 12.873459,12.873459 0 0 0 -5.2633021,4.25776 12.574608,12.574608 0 0 0 -2.0304278,4.4564 c -0.3357682,1.44679 -0.6891155,3.53347 0.305883,4.80798 a 2.7265785,2.7265785 0 0 0 2.1464525,1.04423 H 26.884861 c 1.569849,0 2.754705,-1.27979 2.754705,-2.84261 -0.02458,-0.22677 -0.058,-0.45003 -0.09317,-0.67153 a 3.0219139,3.0219139 0 0 0 0.09317,-0.74889 z"
       id="path1538" />
    <path
       sodipodi:nodetypes="ccccccc"
       inkscape:connector-curvature="0"
       id="path1544"
       d="M 6.3745517,295.54717 H 26.841859 c 1.822124,-0.015 2.829307,-1.25248 2.797707,-4.0481 -1.703836,-7.55344 -5.45136,-9.2029 -9.190558,-10.87643 0.828961,8.88402 -8.348397,7.90217 -7.021242,0 -5.9613171,2.19398 -8.2439774,6.14238 -8.8971131,10.86795 -0.1987105,2.022 0.084402,3.64722 1.8438988,4.05658 z"
       style="fill:#0085ba;fill-opacity:1;stroke:none;stroke-width:0.17579487px;stroke-linecap:butt;stroke-linejoin:miter;stroke-opacity:1" />
    <path
       style="fill:#009fdf;fill-opacity:1;stroke:none;stroke-width:0.17579487px;stroke-linecap:butt;stroke-linejoin:miter;stroke-opacity:1"
       d="M 6.3745517,295.54717 H 26.841859 c 1.822124,-0.015 2.829307,-1.25248 2.797707,-4.0481 -1.703836,-7.55344 -4.147525,-8.37714 -7.886723,-10.05067 0.872422,9.97055 -11.08404,8.06043 -9.756886,0.15825 -5.9613167,2.19397 -6.8121684,5.15836 -7.4653041,9.88393 -0.1987105,2.02201 0.084402,3.64722 1.8438988,4.05659 z"
       id="path1586"
       inkscape:connector-curvature="0"
       sodipodi:nodetypes="cccccccc" />
    <path
       style="fill:#0085ba;stroke-width:0.17579487;fill-opacity:1"
       inkscape:connector-curvature="0"
       class="cls-6"
       d="M 30.166951,291.49907 A 13.536205,13.536205 0 0 0 20.589646,280.1146 l 0.126572,0.96335 c 4.867759,-2.88655 5.120903,-10.04843 0.270725,-13.10375 -4.582974,-2.88655 -10.823693,0.0264 -11.6024618,5.36702 a 7.7349749,7.7349749 0 0 0 3.7725588,7.73498 l 0.126573,-0.96336 a 13.481709,13.481709 0 0 0 -9.5157785,11.09793 c -0.2847877,2.07438 0.2039223,4.53902 2.5964918,5.01894 0.5941856,0.11955 1.242867,0.0633 1.8440888,0.0633 H 24.989791 c 0.632862,0 1.269238,0.0228 1.902099,0 a 3.3172493,3.3172493 0 0 0 2.636924,-1.35362 c 0.748889,-1.04423 0.59067,-2.22909 0.641651,-3.4368 0.02811,-0.67857 -1.026637,-0.6768 -1.054769,0 -0.01056,0.25315 -0.08613,0.4975 -0.09317,0.74889 -0.01056,0.30588 0.112514,0.60298 0.08438,0.91589 a 2.3415878,2.3415878 0 0 1 -0.703177,1.46964 c -0.455309,0.43422 -1.002028,0.57662 -1.61204,0.60123 -0.58188,0.0229 -1.169036,0 -1.757947,0 H 9.7747425 c -1.6454401,0 -4.1698501,0.46409 -4.8695146,-1.50657 -0.4096026,-1.15497 -0.1336045,-2.52441 0.1406355,-3.67762 a 12.240597,12.240597 0 0 1 1.801896,-4.0802 12.405845,12.405845 0 0 1 6.7188836,-4.83964 0.52738463,0.52738463 0 0 0 0.126572,-0.96335 c -4.1751319,-2.47696 -4.4564015,-8.64911 -0.270725,-11.28603 3.923742,-2.47168 9.25736,-0.0738 10.011518,4.5021 0.448279,2.72658 -0.905341,5.38811 -3.25045,6.78041 a 0.52738463,0.52738463 0 0 0 0.126572,0.96336 12.439245,12.439245 0 0 1 8.803812,10.37189 c 0.07911,0.66275 1.135636,0.66979 1.053009,-0.003 z"
       id="path1548" />
    <path
       inkscape:connector-curvature="0"
       style="fill:#0085ba;fill-opacity:1;stroke-width:0.04272688"
       d="m 25.174039,276.61684 c -0.01198,-0.0197 -0.117646,-0.28572 -0.234798,-0.59122 -0.701389,-1.82903 -0.750696,-2.20569 -0.345375,-2.63834 l 0.170161,-0.18164 -0.01324,-1.96543 c -0.01357,-2.0158 -0.02553,-2.15771 -0.181815,-2.15771 -0.07269,0 -0.965774,0.34008 -1.036422,0.39467 -0.0383,0.0296 -0.05462,0.52497 -0.06409,1.94817 l -0.0127,1.90849 -0.12149,0.24755 c -0.504136,1.02727 -2.091303,1.76936 -4.514376,2.11072 -0.421206,0.0593 -0.827572,0.0753 -1.922708,0.0753 -1.09514,0 -1.501502,-0.0159 -1.922711,-0.0753 -2.423072,-0.34136 -4.01024,-1.08345 -4.514377,-2.11072 l -0.121487,-0.24755 -0.0127,-1.90849 c -0.0095,-1.42348 -0.02578,-1.91846 -0.06409,-1.94777 -0.02827,-0.0216 -0.9550502,-0.39033 -2.0595395,-0.81938 -2.207459,-0.8575 -2.2431604,-0.87658 -2.2431604,-1.19931 0,-0.12514 0.030789,-0.20343 0.1174977,-0.29885 0.1083206,-0.1192 0.5288045,-0.25447 5.3808412,-1.73112 3.28165,-0.99872 5.329756,-1.60181 5.439739,-1.60181 0.110051,0 2.155281,0.60264 5.437277,1.60213 5.79224,1.76396 5.500804,1.65764 5.500804,2.00678 0,0.20182 -0.08173,0.33847 -0.256496,0.42885 -0.06772,0.035 -0.541548,0.22727 -1.052952,0.42722 -0.511406,0.19995 -0.945672,0.37938 -0.965033,0.39874 -0.01935,0.0194 -0.0062,0.15867 0.02948,0.30958 0.05279,0.22402 0.06479,0.63699 0.06531,2.25016 l 7.3e-4,1.97579 0.132575,0.11783 c 0.444777,0.3953 0.390323,0.89219 -0.289166,2.63871 -0.233368,0.59983 -0.285033,0.70044 -0.325557,0.63395 z"
       id="path1584" />
    <path
       inkscape:connector-curvature="0"
       style="fill:#009fdf;stroke-width:0.04272688;fill-opacity:1"
       d="m 18.606252,274.7866 c 1.681459,-0.21218 2.965399,-0.65998 3.603471,-1.25677 0.363347,-0.33984 0.347087,-0.248 0.361831,-2.04394 0.01241,-1.51085 0.0092,-1.59158 -0.06409,-1.5916 -0.04242,-1e-5 -1.288462,0.47454 -2.768947,1.05456 -1.969128,0.77147 -2.735024,1.05311 -2.852817,1.04907 -0.09875,-0.004 -1.197605,-0.41124 -2.841337,-1.05459 -1.474172,-0.57699 -2.715033,-1.04905 -2.757468,-1.04904 -0.07324,2e-5 -0.07649,0.0807 -0.06409,1.5916 0.01473,1.79594 -0.0016,1.7041 0.361832,2.04394 0.737536,0.68982 2.39558,1.19196 4.415279,1.33717 0.47948,0.0345 2.089627,-0.0152 2.606339,-0.0804 z"
       id="path1582" />
    <path
       inkscape:connector-curvature="0"
       style="fill:#009fdf;fill-opacity:1;stroke-width:0.04272688"
       d="m 20.124064,269.80275 c 1.75018,-0.68485 3.182145,-1.2613 3.182145,-1.28099 0,-0.0538 0.02648,-0.05 -3.204515,-0.46389 -1.656736,-0.21224 -3.085901,-0.39733 -3.175927,-0.41132 -0.09318,-0.0145 -0.226603,-0.0807 -0.309769,-0.15371 -0.120531,-0.10583 -0.146087,-0.15813 -0.146087,-0.29902 0,-0.22424 0.219098,-0.46129 0.426345,-0.46129 0.152173,0 6.927605,0.87343 7.328579,0.94474 0.140999,0.0251 0.354005,0.0918 0.473349,0.14823 l 0.216985,0.10265 0.445281,-0.17322 c 0.426168,-0.16579 0.546996,-0.23023 0.506523,-0.27016 -0.03876,-0.0383 -8.882311,-2.71768 -8.969794,-2.71768 -0.08748,0 -8.9310233,2.67942 -8.9697949,2.71768 -0.010179,0.01 -6.153e-4,0.0358 0.021355,0.0572 0.047891,0.0468 8.8607219,3.50159 8.9387559,3.50415 0.02994,0.001 1.48638,-0.55854 3.23656,-1.24339 z"
       id="path1574" />
  </g>
</svg>
