<?xml version="1.0" encoding="UTF-8" standalone="no"?>
<!-- Created with Inkscape (http://www.inkscape.org/) -->

<svg
   xmlns:dc="http://purl.org/dc/elements/1.1/"
   xmlns:cc="http://creativecommons.org/ns#"
   xmlns:rdf="http://www.w3.org/1999/02/22-rdf-syntax-ns#"
   xmlns:svg="http://www.w3.org/2000/svg"
   xmlns="http://www.w3.org/2000/svg"
   xmlns:xlink="http://www.w3.org/1999/xlink"
   xmlns:sodipodi="http://sodipodi.sourceforge.net/DTD/sodipodi-0.dtd"
   xmlns:inkscape="http://www.inkscape.org/namespaces/inkscape"
   width="128"
   height="128"
   viewBox="0 0 33.866666 33.866668"
   version="1.1"
   id="svg1962"
   inkscape:version="0.92.3 (2405546, 2018-03-11)"
   sodipodi:docname="identifier_graduated.svg">
  <defs
     id="defs1956">
    <linearGradient
       gradientTransform="matrix(0.30307422,0,0,0.30307422,-179.46149,58.965274)"
       gradientUnits="userSpaceOnUse"
       xlink:href="#linearGradient3219"
       id="linearGradient44667"
       y2="745.30084"
       x2="517.02167"
       y1="705.48438"
       x1="517.02167" />
    <linearGradient
       id="linearGradient3219">
      <stop
         offset="0"
         style="stop-color:#0e7309;stop-opacity:1"
         id="stop3221" />
      <stop
         offset="1"
         style="stop-color:#70d13e;stop-opacity:1"
         id="stop3223" />
    </linearGradient>
    <linearGradient
       gradientTransform="matrix(0.30307422,0,0,0.30307422,-30.952722,257.42414)"
       gradientUnits="userSpaceOnUse"
       xlink:href="#linearGradient44699"
       id="linearGradient44076"
       y2="66.310989"
       x2="83.28125"
       y1="123.09795"
       x1="83.28125" />
    <linearGradient
       id="linearGradient44699">
      <stop
         offset="0"
         style="stop-color:#000173;stop-opacity:0.93333334"
         id="stop44701" />
      <stop
         offset="1"
         style="stop-color:#3575f0;stop-opacity:1"
         id="stop44703" />
    </linearGradient>
    <radialGradient
       gradientTransform="matrix(0,0.61335648,-0.59343566,0,380.56191,-30.323115)"
       gradientUnits="userSpaceOnUse"
       xlink:href="#linearGradient44080"
       id="radialGradient44073"
       fy="670.92523"
       fx="491.52231"
       r="36.426601"
       cy="670.92523"
       cx="491.52231" />
    <linearGradient
       id="linearGradient44080">
      <stop
         offset="0"
         style="stop-color:#2c8300;stop-opacity:1"
         id="stop44082" />
      <stop
         offset="0.25"
         style="stop-color:#57aeff;stop-opacity:1"
         id="stop44084" />
      <stop
         offset="0.5"
         style="stop-color:#ffffff;stop-opacity:1"
         id="stop44086" />
      <stop
         offset="1"
         style="stop-color:#5aafff;stop-opacity:1"
         id="stop44088" />
    </linearGradient>
    <linearGradient
       gradientTransform="matrix(0.30307422,0,0,0.30307422,-166.59317,64.385993)"
       gradientUnits="userSpaceOnUse"
       xlink:href="#linearGradient44090"
       id="linearGradient44070"
       y2="745.30084"
       x2="517.02167"
       y1="705.48438"
       x1="517.02167" />
    <linearGradient
       id="linearGradient44090">
      <stop
         offset="0"
         style="stop-color:#0926bb;stop-opacity:1"
         id="stop44092" />
      <stop
         offset="1"
         style="stop-color:#6bb5fe;stop-opacity:1"
         id="stop44094" />
    </linearGradient>
    <linearGradient
       gradientTransform="matrix(-0.30307422,0,0,0.30307422,131.46401,64.385993)"
       gradientUnits="userSpaceOnUse"
       xlink:href="#linearGradient44090"
       id="linearGradient44067"
       y2="745.30084"
       x2="517.02167"
       y1="705.48438"
       x1="517.02167" />
    <linearGradient
       gradientUnits="userSpaceOnUse"
       xlink:href="#linearGradient44615"
       id="linearGradient44613"
       y2="964.61743"
       x2="-248.7769"
       y1="958.07971"
       x1="-246.57739"
       gradientTransform="matrix(0.30307422,0,0,0.30307422,54.657723,-10.09726)" />
    <linearGradient
       id="linearGradient44615">
      <stop
         offset="0"
         style="stop-color:#2f68fa;stop-opacity:1"
         id="stop44617" />
      <stop
         offset="1"
         style="stop-color:#c7d5fb;stop-opacity:1"
         id="stop44619" />
    </linearGradient>
    <linearGradient
       gradientUnits="userSpaceOnUse"
       xlink:href="#linearGradient44693"
       id="linearGradient44691"
       y2="84.910484"
       x2="-35.566662"
       y1="76.562927"
       x1="-35.566662"
       gradientTransform="matrix(0.35715633,0,0,0.28234752,-4.359751,258.68846)" />
    <linearGradient
       id="linearGradient44693">
      <stop
         offset="0"
         style="stop-color:#3690e6;stop-opacity:1"
         id="stop44695" />
      <stop
         offset="1"
         style="stop-color:#d0e9ff;stop-opacity:1"
         id="stop44697" />
    </linearGradient>
    <radialGradient
       gradientTransform="matrix(0.25946578,-0.01931383,0.0352014,0.4729025,-170.61949,-47.002214)"
       gradientUnits="userSpaceOnUse"
       xlink:href="#linearGradient44605"
       id="radialGradient44061"
       fy="709.6579"
       fx="479.68311"
       r="5.0058851"
       cy="709.6579"
       cx="479.68311" />
    <linearGradient
       id="linearGradient44605">
      <stop
         offset="0"
         style="stop-color:#d0ecff;stop-opacity:1"
         id="stop44607" />
      <stop
         offset="0.5"
         style="stop-color:#d7f0ff;stop-opacity:1"
         id="stop44609" />
      <stop
         offset="1"
         style="stop-color:#ffffff;stop-opacity:1"
         id="stop44611" />
    </linearGradient>
    <linearGradient
       gradientTransform="matrix(-0.30307422,0,0,0.30307422,-89.88875,-10.09726)"
       gradientUnits="userSpaceOnUse"
       xlink:href="#linearGradient44615"
       id="linearGradient44625"
       y2="964.61743"
       x2="-248.7769"
       y1="958.07971"
       x1="-246.57739" />
    <radialGradient
       gradientTransform="matrix(0,0.75078086,-0.74322676,0,24.317248,228.07002)"
       gradientUnits="userSpaceOnUse"
       xlink:href="#linearGradient44627"
       id="radialGradient44048"
       fy="59.728882"
       fx="53.60223"
       r="17.834057"
       cy="59.728882"
       cx="53.60223" />
    <linearGradient
       id="linearGradient44627">
      <stop
         offset="0"
         style="stop-color:#fffcfb;stop-opacity:1"
         id="stop44629" />
      <stop
         offset="1"
         style="stop-color:#f4ad94;stop-opacity:1"
         id="stop44633" />
    </linearGradient>
    <linearGradient
       gradientUnits="userSpaceOnUse"
       xlink:href="#linearGradient44681"
       id="linearGradient44677"
       y2="47.542713"
       x2="60.126968"
       y1="81.913818"
       x1="60.126968"
       gradientTransform="matrix(0.45341143,0,0,0.45341143,-44.669328,242.99801)" />
    <linearGradient
       id="linearGradient44681">
      <stop
         offset="0"
         style="stop-color:#ff5c38;stop-opacity:1"
         id="stop44683" />
      <stop
         offset="0.30397323"
         style="stop-color:#fb7e65;stop-opacity:0.99607843"
         id="stop44685" />
      <stop
         offset="1"
         style="stop-color:#cd0000;stop-opacity:0.98039216"
         id="stop44687" />
    </linearGradient>
  </defs>
  <sodipodi:namedview
     id="base"
     pagecolor="#ffffff"
     bordercolor="#666666"
     borderopacity="1.0"
     inkscape:pageopacity="0.0"
     inkscape:pageshadow="2"
     inkscape:zoom="2.7787087"
     inkscape:cx="59.94186"
     inkscape:cy="68.374359"
     inkscape:document-units="mm"
     inkscape:current-layer="layer1"
     showgrid="false"
     units="px"
     inkscape:window-width="1366"
     inkscape:window-height="713"
     inkscape:window-x="0"
     inkscape:window-y="27"
     inkscape:window-maximized="1" />
  <metadata
     id="metadata1959">
    <rdf:RDF>
      <cc:Work
         rdf:about="">
        <dc:format>image/svg+xml</dc:format>
        <dc:type
           rdf:resource="http://purl.org/dc/dcmitype/StillImage" />
        <dc:title />
      </cc:Work>
    </rdf:RDF>
  </metadata>
  <g
     inkscape:label="Capa 1"
     inkscape:groupmode="layer"
     id="layer1"
     transform="translate(0,-263.13332)">
    <g
       id="g62229"
       transform="translate(-0.58453321,0.13588526)"
       inkscape:export-filename="/home/aragonc/Escritorio/tmp/icons01.png"
       inkscape:export-xdpi="25.500002"
       inkscape:export-ydpi="25.500002">
      <rect
         y="262.99744"
         x="0.58453321"
         height="33.866665"
         width="33.866665"
         id="rect1841"
         style="opacity:0;fill:#4fa6c2;fill-opacity:1;stroke:none;stroke-width:0.56153017;stroke-linecap:round;stroke-linejoin:bevel;stroke-miterlimit:4;stroke-dasharray:none;stroke-dashoffset:0;stroke-opacity:1" />
      <g
         transform="translate(-0.52916667,-0.52916667)"
         id="g62203">
        <g
           id="g60388"
           transform="matrix(1.0440645,0,0,1.0519975,34.792048,-13.696059)">
          <path
             style="fill:#000000;fill-opacity:0;fill-rule:evenodd;stroke:url(#linearGradient44667);stroke-width:0.45461133;stroke-linecap:butt;stroke-linejoin:miter;stroke-miterlimit:4;stroke-dasharray:none;stroke-opacity:1"
             id="path3217"
             d="m -25.157676,272.89755 c 2.565111,2.74649 4.520437,7.30334 5.093317,11.71463"
             inkscape:connector-curvature="0" />
          <path
             style="fill:url(#linearGradient44076);fill-opacity:1;stroke:none;stroke-width:0.45461133;stroke-linecap:square;stroke-linejoin:miter;stroke-miterlimit:4;stroke-dashoffset:0;stroke-opacity:1"
             id="path44014"
             d="m -17.589043,275.44759 c -6.556844,0 -11.876721,5.25757 -11.876721,11.74412 v 1.85633 c 0,1.83447 1.9019,5.68266 8.760739,5.68266 h 6.222493 c 6.858685,0 8.77021,-3.66104 8.77021,-5.68266 v -1.85633 c 0,-6.48655 -5.319877,-11.74412 -11.876721,-11.74412 z"
             inkscape:connector-curvature="0" />
          <path
             style="fill:url(#radialGradient44073);fill-opacity:1;stroke:none;stroke-width:0.45461133;stroke-linecap:square;stroke-linejoin:miter;stroke-miterlimit:4;stroke-dashoffset:0;stroke-opacity:1"
             id="path44016"
             d="m -17.589043,276.10244 c -6.094889,0 -11.039964,4.82113 -11.039964,10.76921 v 1.70223 c 0,1.68218 1.767905,5.21089 8.143514,5.21089 h 5.784096 c 6.375466,0 8.152317,-3.3571 8.152317,-5.21089 v -1.70223 c 0,-5.94808 -4.945074,-10.76921 -11.039963,-10.76921 z"
             inkscape:connector-curvature="0" />
          <path
             style="fill:#000000;fill-opacity:0;fill-rule:evenodd;stroke:url(#linearGradient44070);stroke-width:0.45461133;stroke-linecap:butt;stroke-linejoin:miter;stroke-miterlimit:4;stroke-dasharray:none;stroke-opacity:1"
             id="path44018"
             d="m -12.289357,278.31827 c 2.565111,2.74649 4.520437,7.30334 5.093317,11.71463"
             inkscape:connector-curvature="0" />
          <path
             style="fill:#000000;fill-opacity:0;fill-rule:evenodd;stroke:url(#linearGradient44067);stroke-width:0.45461133;stroke-linecap:butt;stroke-linejoin:miter;stroke-miterlimit:4;stroke-dasharray:none;stroke-opacity:1"
             id="path44020"
             d="m -22.839798,278.31827 c -2.565112,2.74649 -4.520438,7.30334 -5.093317,11.71463"
             inkscape:connector-curvature="0" />
          <path
             style="fill:#c5ffbd;fill-opacity:1;fill-rule:evenodd;stroke:url(#linearGradient44613);stroke-width:0.30307421px;stroke-linecap:butt;stroke-linejoin:miter;stroke-opacity:1"
             id="path44022"
             d="m -19.617152,279.5916 c -0.697889,0.59833 -1.503924,1.07007 -1.127806,2.51028 -1.715621,-0.34751 -3.0155,-2.69436 -1.928182,-4.3657 z"
             inkscape:connector-curvature="0" />
          <path
             style="fill:url(#linearGradient44691);fill-opacity:1;stroke:none;stroke-width:0.27167815;stroke-linecap:square;stroke-linejoin:miter;stroke-miterlimit:4;stroke-dasharray:none;stroke-dashoffset:0;stroke-opacity:1"
             id="path44024"
             d="m -17.564576,282.66273 -1.932133,-2.6456 h 3.864265 z"
             inkscape:connector-curvature="0" />
          <path
             style="fill:url(#radialGradient44061);fill-opacity:1;fill-rule:evenodd;stroke:none;stroke-width:0.30307421px;stroke-linecap:butt;stroke-linejoin:miter;stroke-opacity:1"
             id="path44028"
             d="m -22.606,277.94913 2.727668,1.65744 c -0.299486,0.24696 -0.610277,0.49878 -0.833454,0.84293 -0.227088,0.35017 -0.298047,0.83089 -0.198893,1.43013 -0.718034,-0.2208 -1.36187,-0.80154 -1.714263,-1.53431 -0.364677,-0.75833 -0.408638,-1.63755 0.01894,-2.39619 z"
             inkscape:connector-curvature="0" />
          <path
             style="fill:#9dcfff;fill-opacity:1;fill-rule:evenodd;stroke:url(#linearGradient44625);stroke-width:0.30307421px;stroke-linecap:butt;stroke-linejoin:miter;stroke-opacity:1"
             id="path44621"
             d="m -15.613875,279.5916 c 0.697889,0.59833 1.503924,1.07007 1.127806,2.51028 1.715621,-0.34751 3.015501,-2.69436 1.928182,-4.3657 z"
             inkscape:connector-curvature="0" />
          <path
             style="fill:url(#radialGradient44048);fill-opacity:1;stroke:url(#linearGradient44677);stroke-width:0.60614842;stroke-linecap:square;stroke-linejoin:miter;stroke-miterlimit:4;stroke-dasharray:none;stroke-dashoffset:0;stroke-opacity:1"
             id="path44030"
             d="m -9.781485,272.24268 a 7.7830918,7.7830918 0 1 1 -15.566183,0 7.7830917,7.7830917 0 1 1 15.566183,0 z"
             inkscape:connector-curvature="0" />
        </g>
        <g
           id="g62177">
          <path
             id="path61477"
             d="M 31.372347,292.6117 H 19.533675 c -0.240074,0 -0.420129,-0.19505 -0.420129,-0.42013 v -8.29755 c 0,-0.24009 0.195062,-0.42013 0.420129,-0.42013 h 11.838672 c 0.240074,0 0.420129,0.19504 0.420129,0.42013 v 8.29755 c 0,0.22508 -0.180055,0.42013 -0.420129,0.42013 z"
             style="fill:#ffffff;stroke:#4c78db;stroke-width:0.54739761;stroke-miterlimit:4;stroke-dasharray:none;stroke-opacity:0.98823529"
             inkscape:connector-curvature="0" />
          <g
             transform="matrix(0.04351477,0,0,0.04351477,14.565615,277.10318)"
             id="g61489">
            <rect
               id="rect61483"
               height="11.2"
               width="218"
               style="fill:#e6e9ee"
               y="211.2"
               x="135.2" />
            <rect
               id="rect61485"
               height="11.2"
               width="218"
               style="fill:#e6e9ee"
               y="234.39999"
               x="135.2" />
            <rect
               id="rect61487"
               height="11.2"
               width="160.39999"
               style="fill:#e6e9ee"
               y="258"
               x="164" />
          </g>
          <polygon
             transform="matrix(0.04351477,0,0,0.04351477,14.565615,277.10318)"
             id="polygon61491"
             points="280,316.8 298.8,326.4 318,336 271.2,429.6 259.2,406 233.2,410.4 "
             style="fill:#2b3b4e;stroke:#0e304b;stroke-width:8.10708141;stroke-miterlimit:4;stroke-dasharray:none;stroke-opacity:1" />
          <polygon
             transform="matrix(0.04351477,0,0,0.04351477,14.565615,277.10318)"
             id="polygon61493"
             points="328.8,329.6 310,338.8 290.8,348.4 337.6,442 349.6,418.8 375.6,423.2 "
             style="fill:#324a5e;stroke:#0e314e;stroke-width:8.10708141;stroke-miterlimit:4;stroke-dasharray:none;stroke-opacity:1" />
          <path
             id="path61495"
             d="m 30.996794,290.36648 v 0 c 0.191464,-0.19147 0.191464,-0.50477 0,-0.69623 v 0 c -0.139248,-0.13925 -0.191466,-0.34812 -0.104436,-0.53959 v 0 c 0.104436,-0.26109 -0.01741,-0.53958 -0.261088,-0.64402 v 0 c -0.191466,-0.0697 -0.313307,-0.26108 -0.313307,-0.45255 v 0 c 0,-0.2785 -0.226277,-0.50477 -0.504771,-0.50477 v 0 c -0.208871,0 -0.382931,-0.12184 -0.452554,-0.3133 v 0 c -0.104436,-0.2611 -0.400336,-0.36553 -0.644019,-0.2611 v 0 c -0.191464,0.0697 -0.400336,0.0348 -0.539583,-0.10443 v 0 c -0.191465,-0.19147 -0.504771,-0.19147 -0.696236,0 v 0 c -0.139247,0.13924 -0.348118,0.19146 -0.539583,0.10443 v 0 c -0.261089,-0.10443 -0.539584,0.0174 -0.644019,0.2611 v 0 c -0.06963,0.19146 -0.261089,0.3133 -0.452554,0.3133 v 0 c -0.278495,0 -0.504771,0.22627 -0.504771,0.50477 v 0 c 0,0.20887 -0.121842,0.38293 -0.313307,0.45255 v 0 c -0.261088,0.10444 -0.365523,0.40034 -0.261088,0.64402 v 0 c 0.06963,0.19147 0.03481,0.40034 -0.104435,0.53959 v 0 c -0.191466,0.19146 -0.191466,0.50476 0,0.69623 v 0 c 0.139247,0.13925 0.191464,0.34812 0.104435,0.53958 v 0 c -0.104435,0.2611 0.01741,0.53959 0.261088,0.64403 v 0 c 0.191465,0.0696 0.313307,0.26108 0.313307,0.45254 v 0 c 0,0.2785 0.226276,0.50478 0.504771,0.50478 v 0 c 0.208871,0 0.38293,0.12184 0.452554,0.31331 v 0 c 0.104435,0.26108 0.400336,0.36552 0.644019,0.26108 v 0 c 0.191465,-0.0696 0.400336,-0.0348 0.539583,0.10444 v 0 c 0.191465,0.19146 0.504771,0.19146 0.696236,0 v 0 c 0.139247,-0.13925 0.348119,-0.19146 0.539583,-0.10444 v 0 c 0.261089,0.10444 0.539583,-0.0174 0.644019,-0.26108 v 0 c 0.06962,-0.19147 0.261089,-0.31331 0.452554,-0.31331 v 0 c 0.278494,0 0.504771,-0.22628 0.504771,-0.50478 v 0 c 0,-0.20886 0.121841,-0.38293 0.313307,-0.45254 v 0 c 0.261088,-0.10444 0.365524,-0.40034 0.261088,-0.64403 v 0 c -0.08703,-0.17405 -0.03481,-0.40033 0.104436,-0.53958 z"
             style="fill:#ffa000;fill-opacity:1;stroke:#ff8b00;stroke-width:0.35277778;stroke-miterlimit:4;stroke-dasharray:none;stroke-opacity:0.98823529"
             inkscape:connector-curvature="0" />
          <circle
             id="circle61497"
             r="2.314986"
             cy="290.01834"
             cx="27.811512"
             style="fill:#ffffff;stroke-width:0.04351477" />
          <circle
             id="circle61499"
             r="2.0364914"
             cy="290.01834"
             cx="27.811512"
             style="fill:#ffa000;fill-opacity:1;stroke-width:0.04351477" />
        </g>
      </g>
    </g>
    <g
       id="g61501"
       transform="matrix(0.05416599,0,0,0.05416599,19.805169,284.08181)" />
    <g
       id="g61503"
       transform="matrix(0.05416599,0,0,0.05416599,19.805169,284.08181)" />
    <g
       id="g61505"
       transform="matrix(0.05416599,0,0,0.05416599,19.805169,284.08181)" />
    <g
       id="g61507"
       transform="matrix(0.05416599,0,0,0.05416599,19.805169,284.08181)" />
    <g
       id="g61509"
       transform="matrix(0.05416599,0,0,0.05416599,19.805169,284.08181)" />
    <g
       id="g61511"
       transform="matrix(0.05416599,0,0,0.05416599,19.805169,284.08181)" />
    <g
       id="g61513"
       transform="matrix(0.05416599,0,0,0.05416599,19.805169,284.08181)" />
    <g
       id="g61515"
       transform="matrix(0.05416599,0,0,0.05416599,19.805169,284.08181)" />
    <g
       id="g61517"
       transform="matrix(0.05416599,0,0,0.05416599,19.805169,284.08181)" />
    <g
       id="g61519"
       transform="matrix(0.05416599,0,0,0.05416599,19.805169,284.08181)" />
    <g
       id="g61521"
       transform="matrix(0.05416599,0,0,0.05416599,19.805169,284.08181)" />
    <g
       id="g61523"
       transform="matrix(0.05416599,0,0,0.05416599,19.805169,284.08181)" />
    <g
       id="g61525"
       transform="matrix(0.05416599,0,0,0.05416599,19.805169,284.08181)" />
    <g
       id="g61527"
       transform="matrix(0.05416599,0,0,0.05416599,19.805169,284.08181)" />
    <g
       id="g61529"
       transform="matrix(0.05416599,0,0,0.05416599,19.805169,284.08181)" />
  </g>
</svg>
