<?xml version="1.0" encoding="UTF-8" standalone="no"?>
<!-- Created with Inkscape (http://www.inkscape.org/) -->

<svg
   xmlns:dc="http://purl.org/dc/elements/1.1/"
   xmlns:cc="http://creativecommons.org/ns#"
   xmlns:rdf="http://www.w3.org/1999/02/22-rdf-syntax-ns#"
   xmlns:svg="http://www.w3.org/2000/svg"
   xmlns="http://www.w3.org/2000/svg"
   xmlns:xlink="http://www.w3.org/1999/xlink"
   xmlns:sodipodi="http://sodipodi.sourceforge.net/DTD/sodipodi-0.dtd"
   xmlns:inkscape="http://www.inkscape.org/namespaces/inkscape"
   width="128"
   height="128"
   viewBox="0 0 128 128"
   id="svg2"
   version="1.1"
   inkscape:version="0.91 r"
   sodipodi:docname="import_hotpotatoes.svg">
  <defs
     id="defs4">
    <linearGradient
       inkscape:collect="always"
       id="linearGradient4406">
      <stop
         style="stop-color:#2a1b11;stop-opacity:1;"
         offset="0"
         id="stop4408" />
      <stop
         style="stop-color:#2a1b11;stop-opacity:0;"
         offset="1"
         id="stop4410" />
    </linearGradient>
    <linearGradient
       inkscape:collect="always"
       id="linearGradient4396">
      <stop
         style="stop-color:#583923;stop-opacity:1"
         offset="0"
         id="stop4398" />
      <stop
         style="stop-color:#f19552;stop-opacity:1"
         offset="1"
         id="stop4400" />
    </linearGradient>
    <linearGradient
       inkscape:collect="always"
       id="linearGradient4367">
      <stop
         style="stop-color:#7ea2c8;stop-opacity:1"
         offset="0"
         id="stop4369" />
      <stop
         style="stop-color:#04548d;stop-opacity:1"
         offset="1"
         id="stop4371" />
    </linearGradient>
    <linearGradient
       id="linearGradient3607">
      <stop
         offset="0"
         style="stop-color:#f9fbff;stop-opacity:1"
         id="stop3609" />
      <stop
         offset="1"
         style="stop-color:#62aaff;stop-opacity:1"
         id="stop3611" />
    </linearGradient>
    <linearGradient
       id="linearGradient3596">
      <stop
         offset="0"
         style="stop-color:#0035ed;stop-opacity:1"
         id="stop3598" />
      <stop
         offset="0.55445766"
         style="stop-color:#1c7eff;stop-opacity:1"
         id="stop3615" />
      <stop
         offset="1"
         style="stop-color:#98cbff;stop-opacity:1"
         id="stop3600" />
    </linearGradient>
    <linearGradient
       id="linearGradient3585">
      <stop
         offset="0"
         style="stop-color:#00008d;stop-opacity:1"
         id="stop3587" />
      <stop
         offset="1"
         style="stop-color:#0048b7;stop-opacity:1"
         id="stop3589" />
    </linearGradient>
    <linearGradient
       gradientTransform="matrix(0.03112505,0,0,0.03112505,-59.971883,66.472321)"
       gradientUnits="userSpaceOnUse"
       xlink:href="#linearGradient3607"
       id="linearGradient3628"
       y2="1350.958"
       x2="2758.4744"
       y1="317.79666"
       x1="2891.4258" />
    <linearGradient
       gradientTransform="matrix(0.03112505,0,0,0.03112505,-59.971883,66.472321)"
       gradientUnits="userSpaceOnUse"
       xlink:href="#linearGradient3585"
       id="linearGradient3630"
       y2="1792.3729"
       x2="2745.7627"
       y1="288.13559"
       x1="2758.4746" />
    <linearGradient
       gradientTransform="matrix(0.03112505,0,0,0.03112505,-59.971883,66.472321)"
       gradientUnits="userSpaceOnUse"
       xlink:href="#linearGradient3596"
       id="linearGradient3632"
       y2="1682.2034"
       x2="2453.3899"
       y1="627.11865"
       x1="3275.4238" />
    <radialGradient
       inkscape:collect="always"
       xlink:href="#linearGradient4367"
       id="radialGradient4373"
       cx="291.85678"
       cy="1068.9424"
       fx="291.85678"
       fy="1068.9424"
       r="53.147457"
       gradientUnits="userSpaceOnUse"
       gradientTransform="matrix(1.0640055,1.1657428e-7,-1.3439002e-7,1.2266147,-18.680305,-242.23814)" />
    <linearGradient
       inkscape:collect="always"
       xlink:href="#linearGradient4396"
       id="linearGradient4402"
       x1="320.82214"
       y1="1049.7795"
       x2="293.79111"
       y2="1005.9442"
       gradientUnits="userSpaceOnUse" />
    <linearGradient
       inkscape:collect="always"
       xlink:href="#linearGradient4406"
       id="linearGradient4412"
       x1="332.12546"
       y1="1057.9159"
       x2="288.23044"
       y2="1029.0074"
       gradientUnits="userSpaceOnUse" />
  </defs>
  <sodipodi:namedview
     id="base"
     pagecolor="#ffffff"
     bordercolor="#666666"
     borderopacity="1.0"
     inkscape:pageopacity="0.0"
     inkscape:pageshadow="2"
     inkscape:zoom="2.2014223"
     inkscape:cx="160.81503"
     inkscape:cy="44.025268"
     inkscape:document-units="px"
     inkscape:current-layer="layer1"
     showgrid="false"
     units="px"
     inkscape:window-width="1920"
     inkscape:window-height="1051"
     inkscape:window-x="1366"
     inkscape:window-y="0"
     inkscape:window-maximized="1"
     showguides="false" />
  <metadata
     id="metadata7">
    <rdf:RDF>
      <cc:Work
         rdf:about="">
        <dc:format>image/svg+xml</dc:format>
        <dc:type
           rdf:resource="http://purl.org/dc/dcmitype/StillImage" />
        <dc:title></dc:title>
      </cc:Work>
    </rdf:RDF>
  </metadata>
  <g
     inkscape:label="Capa 1"
     inkscape:groupmode="layer"
     id="layer1"
     transform="translate(0,-924.36216)">
    <g
       id="g4439"
       transform="translate(-250.88355,-55.889585)">
      <circle
         r="53.147457"
         cy="1043.7314"
         cx="315.47787"
         id="path4365"
         style="opacity:1;fill:url(#radialGradient4373);fill-opacity:1;stroke:none;stroke-width:1.10000002;stroke-linecap:round;stroke-linejoin:round;stroke-miterlimit:4;stroke-dasharray:none;stroke-dashoffset:0;stroke-opacity:1" />
      <path
         sodipodi:nodetypes="cccccsccsscccccc"
         inkscape:connector-curvature="0"
         id="path4375"
         d="m 355.09159,1074.2041 c -1.22839,-1.8341 -1.59973,-2.032 -4.33626,-6.7453 -0.42458,-7.9433 0.0448,-15.844 -3.37265,-23.9298 -0.47707,-4.4559 -1.54371,-8.676 -3.53325,-12.5269 2.02961,-13.4725 -5.6177,-15.0918 -10.11794,-8.9938 -1.15584,-3.2821 -0.36033,-8.4993 -1.84693,-10.324 -3.85173,-4.7277 -9.31903,-5.1905 -12.60728,1.9727 -3.6511,-15.51166 -10.77261,-11.5067 -14.6148,-6.7453 -2.8179,-2.5093 -6.58862,-4.7519 -8.88455,-4.9062 -1.81352,-0.1219 -2.67728,1.7133 -3.99053,2.5585 -2.80299,1.8041 -4.96591,5.8787 -3.50635,11.3414 -2.45142,2.7907 -5.22375,5.2284 -5.62108,10.2786 -6.85144,0.7011 -2.55189,8.3967 -6.42409,19.5935 3.06591,7.7966 8.53537,14.1511 13.65119,20.7177 l 32.76286,26.9811 c 12.06965,-2.9707 22.794,-9.641 32.44166,-19.2722 z"
         style="fill:#feca96;fill-opacity:1;fill-rule:evenodd;stroke:none;stroke-width:1px;stroke-linecap:butt;stroke-linejoin:miter;stroke-opacity:1" />
      <path
         sodipodi:nodetypes="sssssssssssccccscsccccscccscssssscssscccssccssssscscssccsccssscccsscccsccscscsssssssccsssscscsssscssccsccssssccccscccsccccscccccsccsccscccssssscssccccsscscccscsc"
         inkscape:connector-curvature="0"
         id="path4363"
         d="m 310.37989,1102.3257 c -26.76614,-2.5192 -48.48202,-22.63 -53.07545,-49.1525 -0.91753,-5.2978 -0.91753,-14.2049 0,-19.5027 4.30212,-24.8405 23.72735,-44.26569 48.56779,-48.56781 5.29785,-0.91753 14.20491,-0.91753 19.50276,0 24.86674,4.30668 44.26111,23.70101 48.56779,48.56781 0.91753,5.2978 0.91753,14.2049 0,19.5027 -3.15401,18.2113 -14.74051,34.1789 -30.88932,42.5694 -9.90003,5.1438 -22.02047,7.5858 -32.67357,6.5831 z m 8.02983,-11.0776 c 0,-0.5095 -8.6086,-8.3675 -11.98062,-11.0927 -1.64181,-1.3269 -6.07933,-5.0549 -9.91023,-7.8428 -3.8309,-2.788 -7.37693,-5.5482 -7.88006,-6.1339 -0.79283,-0.923 -7.04083,-9.6596 -11.19335,-15.6518 -1.69919,-2.4519 -2.05921,-5.2887 -1.03708,-8.1716 0.45792,-1.2915 0.78881,-4.0505 1.01244,-8.442 0.37361,-7.3369 0.48185,-7.6029 3.2451,-7.9754 1.5729,-0.2121 1.70999,-0.3305 1.99961,-1.7265 0.4494,-2.1661 1.73441,-4.4946 3.59319,-6.5112 1.58129,-1.7155 1.61179,-1.8016 1.16577,-3.2902 -1.11005,-3.705 -0.13168,-6.6026 3.53276,-10.4626 l 2.19969,-2.3172 2.44646,0 c 2.41206,0 3.646,0.5892 5.49265,2.6225 0.2189,0.241 0.97369,0.8318 1.67729,1.3129 l 1.27928,0.8747 1.47692,-1.6348 c 1.93001,-2.1363 3.41837,-2.8671 5.96146,-2.9271 3.56188,-0.084 5.08375,1.612 6.57041,7.3229 0.48313,1.8559 1.01476,3.5315 1.18141,3.7235 0.16665,0.192 0.49313,-0.357 0.72551,-1.22 1.20078,-4.4593 7.28357,-5.5574 11.06355,-1.9972 1.38161,1.3013 1.4865,1.7348 1.9316,7.983 l 0.25097,3.5228 1.25447,-1.1865 c 1.76284,-1.6673 2.72151,-2.078 4.85025,-2.078 3.99153,0 6.12867,4.3988 4.99265,10.2763 -0.28806,1.4903 -0.15397,2.1417 1.00818,4.8973 1.21306,2.8762 2.44033,8.1465 1.99967,8.5871 -0.0971,0.097 0.33366,1.5749 0.95735,3.2838 1.5205,4.1663 2.25682,8.4704 2.79523,16.3392 0.43789,6.3997 0.48314,6.6215 1.77373,8.6953 l 1.32438,2.1281 1.27247,-1.7301 c 1.93833,-2.6353 5.42035,-10.0752 6.51214,-13.9141 5.6903,-20.0082 -1.8397,-41.1396 -18.88578,-52.9992 -9.88373,-6.87645 -22.70857,-9.86805 -34.61151,-8.07368 -18.24624,2.75062 -33.30019,15.61468 -38.91783,33.25638 -3.73962,11.744 -2.66166,25.1262 2.92009,36.2514 7.12518,14.2014 21.58177,24.3795 37.19413,26.1864 4.01149,0.4642 8.75565,0.5265 8.75565,0.115 z m 6.19564,-0.4777 c 3.96137,-0.6933 10.84183,-3.2211 14.53453,-5.3399 4.4779,-2.5693 9.55151,-6.5734 12.16683,-9.6021 l 2.05081,-2.3749 -1.51978,-2.5269 c -1.39589,-2.3208 -1.53998,-2.8392 -1.76759,-6.3589 -0.64949,-10.0439 -1.3689,-15.2308 -2.50999,-18.0971 l -0.60849,-1.5284 -0.86974,2.7432 c -1.35197,4.2641 -2.92614,6.8081 -6.37839,10.3078 -4.26815,4.3268 -6.17925,5.1119 -12.33848,5.0689 -3.29547,-0.023 -5.01373,-0.2367 -6.94819,-0.864 -1.41351,-0.4583 -2.63453,-0.7689 -2.71336,-0.69 -0.0789,0.079 0.31646,1.0507 0.87845,2.1598 1.13068,2.2312 1.2874,3.2369 0.50446,3.2369 -0.28453,0 -1.20557,-1.4116 -2.04675,-3.1369 l -1.52943,-3.137 -4.78061,-1.8995 c -5.71734,-2.2718 -11.98827,-5.2961 -14.54363,-7.0142 -1.02092,-0.6863 -2.94589,-2.4018 -4.2777,-3.8121 l -2.42147,-2.5642 -1.22956,1.2296 c -1.25875,1.2587 -2.88285,1.6511 -2.88285,0.6964 0,-0.2932 0.45708,-0.7414 1.01572,-0.9959 3.3831,-1.5415 2.48415,-10.8006 -1.58708,-16.3467 -1.56512,-2.1321 -2.47142,-2.8252 -3.68114,-2.815 -1.7419,0.015 -1.90678,0.5105 -2.14403,6.4464 -0.17111,4.2812 -0.45393,6.4425 -1.14414,8.7434 -1.12777,3.7595 -0.94044,5.0467 1.15425,7.9309 0.8577,1.181 2.98259,4.2069 4.72199,6.7244 5.7892,8.3788 5.86807,8.4608 13.56253,14.0985 9.20166,6.7421 13.92818,10.6751 19.14,15.9268 2.64055,2.6608 4.47657,4.204 5.0016,4.204 0.45625,0 1.8923,-0.186 3.19123,-0.4133 z m 9.94534,-30.8174 c 3.71847,-1.854 7.86597,-6.8074 9.79383,-11.6969 1.19159,-3.0222 1.29966,-9.9468 0.20427,-13.0884 -0.39982,-1.1467 -0.88199,-2.1807 -1.07148,-2.2978 -0.18949,-0.1171 -0.64035,0.4105 -1.0019,1.1724 -1.44266,3.0402 -3.67164,4.1852 -6.60798,3.3945 -1.97361,-0.5314 -2.72299,-1.7106 -2.83795,-4.4657 l -0.0922,-2.2099 -1.21827,1.323 c -1.93638,2.1028 -5.1126,2.3363 -7.94756,0.5842 -2.07058,-1.2797 -2.57722,-2.8753 -2.87213,-9.0451 -0.21379,-4.4728 -0.31508,-5.1209 -0.55317,-3.5392 -0.48483,3.221 -2.7858,5.0301 -6.39434,5.0276 -1.38793,-8e-4 -2.54426,-0.2667 -3.38098,-0.7769 -1.30116,-0.7934 -1.90094,-2.2155 -3.33548,-7.9089 -0.33029,-1.3109 -0.8315,-2.2792 -1.31316,-2.5369 -1.41849,-0.7592 -8.9062,-0.4597 -11.91368,0.4764 -3.73087,1.1614 -7.16588,4.0793 -8.92951,7.5853 -0.70976,1.411 -1.29186,2.9847 -1.29355,3.4972 -0.002,0.5125 0.63458,1.6767 1.41394,2.5871 2.79983,3.2707 4.95123,9.3567 4.95123,14.0062 0,1.6572 0.17667,1.932 3.28363,5.1072 3.0423,3.1091 3.67851,3.5461 8.65683,5.9463 6.34802,3.0605 11.58712,5.1845 16.51765,6.6963 3.1038,0.9517 4.27591,1.1014 8.77769,1.121 4.75043,0.021 5.36423,-0.062 7.16428,-0.959 z m 5.31847,-24.7948 c 2.54054,-2.5406 4.06001,-10.3384 2.60997,-13.3941 -0.85642,-1.8048 -2.76281,-2.8605 -4.41609,-2.4456 -0.62011,0.1557 -1.82713,1.0185 -2.68229,1.9174 -1.49739,1.5741 -1.52713,1.6575 -0.8051,2.2584 0.69648,0.5795 0.71623,0.8499 0.27808,3.8079 -0.7713,5.2074 -0.67811,6.8468 0.45355,7.9784 1.34508,1.3451 3.14257,1.2969 4.56188,-0.1224 z m -9.3129,-4.1558 1.07289,-1.2751 -0.15659,-8.5758 c -0.10867,-5.9514 -0.31214,-8.8564 -0.66489,-9.4927 -1.35573,-2.4453 -6.18467,-3.3749 -8.15974,-1.5707 -1.15574,1.0557 -2.86212,5.9734 -2.42178,6.9794 0.23853,0.5449 0.34683,0.4429 0.53774,-0.5068 0.13148,-0.6541 0.53354,-1.2459 0.89347,-1.3152 0.58375,-0.1125 0.66937,0.6532 0.79296,7.0908 l 0.13855,7.2169 1.48671,1.3621 c 1.27184,1.1653 1.77008,1.3621 3.44726,1.3621 1.71744,0 2.09357,-0.1581 3.03342,-1.275 z m 2.85438,-5.7897 c -0.10011,-0.3831 -0.18202,-0.07 -0.18202,0.6965 0,0.7662 0.0819,1.0796 0.18202,0.6965 0.10011,-0.3831 0.10011,-1.01 0,-1.393 z m -17.82018,-1.6821 c 3.53739,-1.0145 3.87853,-2.709 2.04723,-10.1689 -2.02714,-8.2576 -2.67659,-9.5309 -5.09224,-9.9841 -3.2569,-0.611 -6.58292,1.8723 -7.59978,5.6742 -0.28266,1.0568 -0.79967,2.2373 -1.14892,2.6232 -0.59387,0.6562 -0.55316,0.7017 0.62831,0.7017 1.14879,0 1.24068,-0.09 1.01358,-0.9951 -0.19053,-0.7591 -0.0946,-0.995 0.40458,-0.995 0.83324,0 1.9756,2.6264 3.28916,7.5623 1.2608,4.7376 1.44364,5.0724 3.01777,5.5273 1.72847,0.4994 1.88017,0.5018 3.44031,0.054 z m -24.2005,-9.2634 c 1.84242,-0.8628 2.46217,-1.4925 1.46903,-1.4925 -0.65391,0 -2.70838,-2.019 -2.70838,-2.6616 0,-0.8238 0.85683,-0.6132 2.01336,0.4948 0.79294,0.7597 1.74137,1.1136 3.7447,1.3973 4.2795,0.606 7.12543,-0.5281 7.60815,-3.0318 0.19884,-1.0314 0.0793,-1.2848 -0.79412,-1.6828 -0.56551,-0.2576 -1.80057,-1.1804 -2.74458,-2.0505 -3.34418,-3.0826 -5.65352,-3.1149 -8.15848,-0.1141 -2.52087,3.0199 -3.25851,4.483 -3.25417,6.4546 0.004,1.8813 0.33563,3.5822 0.69814,3.5822 0.11781,0 1.07466,-0.403 2.12635,-0.8956 z"
         style="fill:#000000" />
      <path
         sodipodi:nodetypes="ccscccccccc"
         inkscape:connector-curvature="0"
         id="path4386"
         d="m 289.24466,1043.2078 c 6.07475,8.4998 20.32333,14.9178 27.55706,16.276 7.56714,3.2119 13.70584,3.0597 18.88491,-0.1806 8.36232,-5.232 12.94534,-17.4195 7.44009,-28.3011 -3.0609,10.2564 -10.41968,5.6105 -10.09493,-0.8456 -4.23643,5.2734 -9.39814,3.1566 -10.80194,-0.6597 -0.23592,-6.0628 -0.57035,-11.6893 -2.27828,-11.2331 0.68115,4.2191 -4.19686,8.1738 -9.6577,4.8154 -1.56389,-3.4919 -2.12026,-8.831 -4.82838,-10.2251 -15.64126,-0.8741 -20.66717,5.111 -22.48431,13.1694 4.46742,5.157 7.13613,10.7458 6.26348,17.1844 z"
         style="fill:url(#linearGradient4402);fill-opacity:1;fill-rule:evenodd;stroke:#000000;stroke-width:1px;stroke-linecap:butt;stroke-linejoin:miter;stroke-opacity:1" />
      <path
         sodipodi:nodetypes="cscccc"
         inkscape:connector-curvature="0"
         id="path4404"
         d="m 288.92346,1036.6231 c 9.692,9.016 22.98613,18.3196 33.48557,18.6299 8.85507,0.2617 20.37476,-4.3965 23.52823,-14.936 1.0671,7.0401 -5.64429,22.9167 -19.59348,22.1631 -18.39048,-4.8492 -32.80167,-10.8247 -36.93851,-18.6299 z"
         style="fill:url(#linearGradient4412);fill-opacity:1;fill-rule:evenodd;stroke:none;stroke-width:1px;stroke-linecap:butt;stroke-linejoin:miter;stroke-opacity:1" />
      <path
         inkscape:connector-curvature="0"
         id="path4414"
         d="m 304.46986,1039.7329 a 3.8708105,2.8398309 37.280584 0 1 1.35979,4.6042 3.8708105,2.8398309 37.280584 0 1 -4.80005,-0.085 3.8708105,2.8398309 37.280584 0 1 -1.35978,-4.6042 3.8708105,2.8398309 37.280584 0 1 4.80004,0.085 z"
         style="opacity:1;fill:#6a4225;fill-opacity:1;stroke:none;stroke-width:1.10000002;stroke-linecap:round;stroke-linejoin:round;stroke-miterlimit:4;stroke-dasharray:none;stroke-dashoffset:0;stroke-opacity:1" />
      <path
         style="opacity:1;fill:#472f1f;fill-opacity:1;stroke:none;stroke-width:1.10000002;stroke-linecap:round;stroke-linejoin:round;stroke-miterlimit:4;stroke-dasharray:none;stroke-dashoffset:0;stroke-opacity:1"
         d="m 318.91578,1042.5879 a 2.7735504,2.034823 37.280584 0 1 0.97433,3.2991 2.7735504,2.034823 37.280584 0 1 -3.43937,-0.061 2.7735504,2.034823 37.280584 0 1 -0.97433,-3.2991 2.7735504,2.034823 37.280584 0 1 3.43937,0.061 z"
         id="path4417"
         inkscape:connector-curvature="0" />
      <path
         inkscape:connector-curvature="0"
         id="path4419"
         d="m 333.49188,1039.3465 a 4.3789825,2.6437186 18.182153 0 1 2.54546,4.0065 4.3789825,2.6437186 18.182153 0 1 -5.43127,0.5473 4.3789825,2.6437186 18.182153 0 1 -2.54546,-4.0065 4.3789825,2.6437186 18.182153 0 1 5.43127,-0.5473 z"
         style="opacity:1;fill:#472f1f;fill-opacity:1;stroke:none;stroke-width:1.10000002;stroke-linecap:round;stroke-linejoin:round;stroke-miterlimit:4;stroke-dasharray:none;stroke-dashoffset:0;stroke-opacity:1" />
      <path
         style="opacity:1;fill:#6a4225;fill-opacity:1;stroke:none;stroke-width:1.10000002;stroke-linecap:round;stroke-linejoin:round;stroke-miterlimit:4;stroke-dasharray:none;stroke-dashoffset:0;stroke-opacity:1"
         d="m 299.91898,1026.0195 a 5.0521646,3.1770631 27.633946 0 1 2.27307,5.1774 5.0521646,3.1770631 27.633946 0 1 -6.26441,-0.1458 5.0521646,3.1770631 27.633946 0 1 -2.27307,-5.1774 5.0521646,3.1770631 27.633946 0 1 6.26441,0.1458 z"
         id="path4421"
         inkscape:connector-curvature="0" />
      <path
         inkscape:connector-curvature="0"
         id="path4423"
         d="m 313.18085,1027.4273 a 2.7735504,2.034823 37.280584 0 1 0.97433,3.299 2.7735504,2.034823 37.280584 0 1 -3.43937,-0.061 2.7735504,2.034823 37.280584 0 1 -0.97433,-3.299 2.7735504,2.034823 37.280584 0 1 3.43937,0.061 z"
         style="opacity:1;fill:#6a4225;fill-opacity:1;stroke:none;stroke-width:1.10000002;stroke-linecap:round;stroke-linejoin:round;stroke-miterlimit:4;stroke-dasharray:none;stroke-dashoffset:0;stroke-opacity:1" />
      <path
         sodipodi:nodetypes="cccccccc"
         inkscape:connector-curvature="0"
         id="path4437"
         d="m 277.5207,1041.2806 2.89084,6.9059 c 3.15629,6.3464 7.46427,11.3491 11.88457,16.2208 11.60795,7.5632 22.87283,18.002 31.95985,26.4994 l -4.01506,0.5219 c -6.94111,-7.6158 -20.43848,-18.5567 -29.75157,-25.3349 -4.8185,-6.3526 -13.20899,-16.627 -13.69134,-19.6738 z"
         style="fill:#e98e5e;fill-opacity:1;fill-rule:evenodd;stroke:none;stroke-width:1px;stroke-linecap:butt;stroke-linejoin:miter;stroke-opacity:1" />
    </g>
    <g
       transform="matrix(1.0157772,0,0,1.0157772,0.88072914,922.94)"
       id="g4150">
      <path
         d="M 3.1354782,96.608205 30.106924,72.614293 56.878952,96.54226 48.511963,97.922067 47.251286,122.45784 14.279833,122.58973 13.079936,97.998865 3.1354782,96.608205 Z"
         id="rect3593"
         style="fill:url(#linearGradient3632);fill-opacity:1;fill-rule:nonzero;stroke:none"
         inkscape:connector-curvature="0" />
      <path
         d="m 30.00055,71.16803 c -0.93632,-0.0064 -1.563055,0.637875 -1.563055,0.637875 L 3.2397713,93.717021 c -0.00128,0 -0.00256,0 -0.00383,0 l -0.019471,0.01724 c -1.0641185,0.874269 -1.6106212,1.898367 -1.2148477,3.035651 0.4539496,1.304414 1.1690053,1.686168 2.8537815,1.677869 l 0.00511,0 0.00511,0 7.3970559,-0.01724 0.04743,20.990889 c 0.273255,2.76708 2.560322,4.70343 4.728062,4.85779 l 27.285226,0.0224 0,0 c 1.338598,0.0255 2.49935,-0.66999 3.386795,-1.58249 0.893083,-0.91826 1.537424,-2.12621 1.538394,-3.48297 l 4.35e-4,-20.784943 5.509044,0 c 1.313995,0.03319 2.457497,0 3.090437,-1.449327 0.762015,-1.741963 -0.599425,-2.812407 -1.339978,-3.453539 0,0 -24.978496,-21.767351 -24.978496,-21.767351 0,0 -0.708065,-0.610424 -1.528971,-0.614574 z m 0.0032,2.438314 c 0,0 25.749359,22.420931 25.749359,22.420931 l -8.801748,-0.01979 -0.04475,23.231935 0,0 0,0 c 0,0.50126 -0.34093,1.26298 -0.892903,1.83051 -0.551968,0.56752 -1.271581,0.80296 -1.663703,0.79243 l -27.172713,-0.0191 c -1.191502,-0.0357 -2.423535,-1.28948 -2.567816,-2.59019 l 0.02043,-23.193059 c 0,0 -10.4141244,-0.03192 -10.4141244,-0.03192 0,0 25.7879554,-22.423612 25.7879554,-22.423612 l -3.2e-5,0 z"
         id="rect2818"
         style="color:#000000;font-style:normal;font-variant:normal;font-weight:normal;font-stretch:normal;font-size:medium;line-height:normal;font-family:'Bitstream Vera Sans';-inkscape-font-specification:'Bitstream Vera Sans';text-indent:0;text-align:start;text-decoration:none;text-decoration-line:none;letter-spacing:normal;word-spacing:normal;text-transform:none;direction:ltr;block-progression:tb;writing-mode:lr-tb;text-anchor:start;display:inline;overflow:visible;visibility:visible;fill:url(#linearGradient3630);fill-opacity:1;stroke:none;stroke-width:76;marker:none;enable-background:accumulate"
         inkscape:connector-curvature="0" />
      <path
         d="m 6.6909221,95.187351 23.3481349,-20.266635 23.31782,20.289425 -6.329779,-0.01021 c -0.558326,0.01213 -0.935835,0.311021 -0.939684,0.907209 l 0.0019,3.215421 C 35.644453,94.624996 33.377265,104.01973 15.653938,108.52067 l -0.07069,-12.419981 c 0.0064,-0.511922 -0.392626,-0.88576 -0.970231,-0.914615 l -7.9221735,0 z"
         id="rect3604"
         style="fill:url(#linearGradient3628);fill-opacity:1;fill-rule:nonzero;stroke:none"
         inkscape:connector-curvature="0" />
    </g>
  </g>
</svg>
