<?xml version="1.0" encoding="UTF-8" standalone="no"?>
<!-- Created with Sodipodi ("http://www.sodipodi.com/") -->

<svg
   xmlns:a="http://ns.adobe.com/AdobeSVGViewerExtensions/3.0/"
   xmlns:dc="http://purl.org/dc/elements/1.1/"
   xmlns:cc="http://creativecommons.org/ns#"
   xmlns:rdf="http://www.w3.org/1999/02/22-rdf-syntax-ns#"
   xmlns:svg="http://www.w3.org/2000/svg"
   xmlns="http://www.w3.org/2000/svg"
   xmlns:sodipodi="http://sodipodi.sourceforge.net/DTD/sodipodi-0.dtd"
   xmlns:inkscape="http://www.inkscape.org/namespaces/inkscape"
   width="128"
   height="128"
   viewBox="0 0 128 128"
   style="overflow:visible"
   xml:space="preserve"
   id="svg742"
   sodipodi:version="0.32"
   sodipodi:docname="lock.svg"
   version="1.1"
   inkscape:version="0.91 r13725"><metadata
     id="metadata71"><rdf:RDF><cc:Work
         rdf:about=""><dc:format>image/svg+xml</dc:format><dc:type
           rdf:resource="http://purl.org/dc/dcmitype/StillImage" /><dc:title /></cc:Work></rdf:RDF></metadata><defs
     id="defs856"><linearGradient
       id="XMLID_3_"
       gradientUnits="userSpaceOnUse"
       x1="126.5005"
       y1="2223.1006"
       x2="126.5003"
       y2="-3194.6587"
       gradientTransform="matrix(1.6,0,0,1.6,-76.80031,213.33331)"><stop
         offset="0"
         style="stop-color:#616161"
         id="stop765" /><stop
         offset="1"
         style="stop-color:#828282"
         id="stop766" /><a:midPointStop
         offset="0"
         style="stop-color:#616161"
         id="midPointStop767" /><a:midPointStop
         offset="0.5"
         style="stop-color:#616161"
         id="midPointStop768" /><a:midPointStop
         offset="1"
         style="stop-color:#828282"
         id="midPointStop769" /></linearGradient><linearGradient
       id="XMLID_4_"
       gradientUnits="userSpaceOnUse"
       x1="126.6763"
       y1="164.1006"
       x2="126.6763"
       y2="61.4673"
       gradientTransform="matrix(1.6,0,0,1.6,-76.80031,213.33331)"><stop
         offset="0"
         style="stop-color:#828282"
         id="stop779" /><stop
         offset="1"
         style="stop-color:#DADADA"
         id="stop780" /><a:midPointStop
         offset="0"
         style="stop-color:#828282"
         id="midPointStop781" /><a:midPointStop
         offset="0.5"
         style="stop-color:#828282"
         id="midPointStop782" /><a:midPointStop
         offset="1"
         style="stop-color:#DADADA"
         id="midPointStop783" /></linearGradient><linearGradient
       id="XMLID_5_"
       gradientUnits="userSpaceOnUse"
       x1="126.5005"
       y1="1541.29"
       x2="126.5003"
       y2="-2053.55"
       gradientTransform="matrix(1.6,0,0,1.6,-76.80031,213.33331)"><stop
         offset="0"
         style="stop-color:#616161"
         id="stop790" /><stop
         offset="1"
         style="stop-color:#828282"
         id="stop791" /><a:midPointStop
         offset="0"
         style="stop-color:#616161"
         id="midPointStop792" /><a:midPointStop
         offset="0.5"
         style="stop-color:#616161"
         id="midPointStop793" /><a:midPointStop
         offset="1"
         style="stop-color:#828282"
         id="midPointStop794" /></linearGradient><linearGradient
       id="XMLID_6_"
       gradientUnits="userSpaceOnUse"
       x1="126.5005"
       y1="1541.3174"
       x2="126.5003"
       y2="-2053.6267"
       gradientTransform="matrix(1.6,0,0,1.6,-76.80031,213.33331)"><stop
         offset="0"
         style="stop-color:#824F26"
         id="stop797" /><stop
         offset="1"
         style="stop-color:#C76200"
         id="stop798" /><a:midPointStop
         offset="0"
         style="stop-color:#824F26"
         id="midPointStop799" /><a:midPointStop
         offset="0.5"
         style="stop-color:#824F26"
         id="midPointStop800" /><a:midPointStop
         offset="1"
         style="stop-color:#C76200"
         id="midPointStop801" /></linearGradient><linearGradient
       id="XMLID_7_"
       gradientUnits="userSpaceOnUse"
       x1="126.5005"
       y1="1541.3047"
       x2="126.5003"
       y2="-2053.6067"
       gradientTransform="matrix(1.6,0,0,1.6,-76.80031,213.33331)"><stop
         offset="0"
         style="stop-color:#FF9200"
         id="stop804" /><stop
         offset="1"
         style="stop-color:#FFD700"
         id="stop805" /><a:midPointStop
         offset="0"
         style="stop-color:#FF9200"
         id="midPointStop806" /><a:midPointStop
         offset="0.5"
         style="stop-color:#FF9200"
         id="midPointStop807" /><a:midPointStop
         offset="1"
         style="stop-color:#FFD700"
         id="midPointStop808" /></linearGradient><linearGradient
       id="XMLID_8_"
       gradientUnits="userSpaceOnUse"
       x1="126.5005"
       y1="197.4785"
       x2="126.5005"
       y2="74.639099"
       gradientTransform="matrix(1.6,0,0,1.6,-76.80031,213.33331)"><stop
         offset="0"
         style="stop-color:#A87D28"
         id="stop811" /><stop
         offset="1"
         style="stop-color:#D6A84A"
         id="stop812" /><a:midPointStop
         offset="0"
         style="stop-color:#A87D28"
         id="midPointStop813" /><a:midPointStop
         offset="0.5"
         style="stop-color:#A87D28"
         id="midPointStop814" /><a:midPointStop
         offset="1"
         style="stop-color:#D6A84A"
         id="midPointStop815" /></linearGradient><linearGradient
       id="XMLID_9_"
       gradientUnits="userSpaceOnUse"
       x1="126.501"
       y1="197.4697"
       x2="126.501"
       y2="74.636597"
       gradientTransform="matrix(1.6,0,0,1.6,-76.80031,213.33331)"><stop
         offset="0"
         style="stop-color:#FF9200"
         id="stop818" /><stop
         offset="1"
         style="stop-color:#FFF030"
         id="stop819" /><a:midPointStop
         offset="0"
         style="stop-color:#FF9200"
         id="midPointStop820" /><a:midPointStop
         offset="0.5"
         style="stop-color:#FF9200"
         id="midPointStop821" /><a:midPointStop
         offset="1"
         style="stop-color:#FFF030"
         id="midPointStop822" /></linearGradient><linearGradient
       id="XMLID_10_"
       gradientUnits="userSpaceOnUse"
       x1="126.5"
       y1="109.6641"
       x2="126.5"
       y2="189.8033"
       gradientTransform="matrix(1.6,0,0,1.6,-76.80031,213.33331)"><stop
         offset="0"
         style="stop-color:#FFC957"
         id="stop826" /><stop
         offset="0.1712"
         style="stop-color:#FFBD2F"
         id="stop827" /><stop
         offset="0.3443"
         style="stop-color:#FFB20D"
         id="stop828" /><stop
         offset="0.4382"
         style="stop-color:#FFAE00"
         id="stop829" /><stop
         offset="1"
         style="stop-color:#FFF030"
         id="stop830" /><a:midPointStop
         offset="0"
         style="stop-color:#FFC957"
         id="midPointStop831" /><a:midPointStop
         offset="0.4299"
         style="stop-color:#FFC957"
         id="midPointStop832" /><a:midPointStop
         offset="0.4382"
         style="stop-color:#FFAE00"
         id="midPointStop833" /><a:midPointStop
         offset="0.5"
         style="stop-color:#FFAE00"
         id="midPointStop834" /><a:midPointStop
         offset="1"
         style="stop-color:#FFF030"
         id="midPointStop835" /></linearGradient><linearGradient
       id="XMLID_11_"
       gradientUnits="userSpaceOnUse"
       x1="69.798302"
       y1="100.5889"
       x2="129.04289"
       y2="159.8334"
       gradientTransform="matrix(1.6,0,0,1.6,-76.80031,213.33331)"><stop
         offset="0"
         style="stop-color:#FFFFFF"
         id="stop838" /><stop
         offset="0.3259"
         style="stop-color:#FFEABE"
         id="stop839" /><stop
         offset="0.6409"
         style="stop-color:#FFD886"
         id="stop840" /><stop
         offset="0.8742"
         style="stop-color:#FFCD64"
         id="stop841" /><stop
         offset="1"
         style="stop-color:#FFC957"
         id="stop842" /><a:midPointStop
         offset="0"
         style="stop-color:#FFFFFF"
         id="midPointStop843" /><a:midPointStop
         offset="0.4299"
         style="stop-color:#FFFFFF"
         id="midPointStop844" /><a:midPointStop
         offset="1"
         style="stop-color:#FFC957"
         id="midPointStop845" /></linearGradient><linearGradient
       id="XMLID_12_"
       gradientUnits="userSpaceOnUse"
       x1="126.5005"
       y1="164.7646"
       x2="126.5005"
       y2="117.4438"
       gradientTransform="matrix(1.6,0,0,1.6,-76.80031,213.33331)"><stop
         offset="0"
         style="stop-color:#FF9200"
         id="stop848" /><stop
         offset="1"
         style="stop-color:#FFFFFF"
         id="stop849" /><a:midPointStop
         offset="0"
         style="stop-color:#FF9200"
         id="midPointStop850" /><a:midPointStop
         offset="0.5"
         style="stop-color:#FF9200"
         id="midPointStop851" /><a:midPointStop
         offset="1"
         style="stop-color:#FFFFFF"
         id="midPointStop852" /></linearGradient><linearGradient
       id="XMLID_1_"
       gradientUnits="userSpaceOnUse"
       x1="128.9995"
       y1="11"
       x2="128.9995"
       y2="245.0005"><stop
         offset="0"
         style="stop-color:#494949"
         id="stop749" /><stop
         offset="1"
         style="stop-color:#000000"
         id="stop750" /><a:midPointStop
         offset="0"
         style="stop-color:#494949"
         id="midPointStop751" /><a:midPointStop
         offset="0.5"
         style="stop-color:#494949"
         id="midPointStop752" /><a:midPointStop
         offset="1"
         style="stop-color:#000000"
         id="midPointStop753" /></linearGradient><linearGradient
       id="XMLID_2_"
       gradientUnits="userSpaceOnUse"
       x1="29.0532"
       y1="29.0532"
       x2="226.9471"
       y2="226.9471"><stop
         offset="0"
         style="stop-color:#FFFFFF"
         id="stop757" /><stop
         offset="1"
         style="stop-color:#DADADA"
         id="stop758" /><a:midPointStop
         offset="0"
         style="stop-color:#FFFFFF"
         id="midPointStop759" /><a:midPointStop
         offset="0.5"
         style="stop-color:#FFFFFF"
         id="midPointStop760" /><a:midPointStop
         offset="1"
         style="stop-color:#DADADA"
         id="midPointStop761" /></linearGradient></defs><sodipodi:namedview
     id="base"
     showgrid="false"
     units="px"
     inkscape:zoom="0.43548991"
     inkscape:cx="160.4162"
     inkscape:cy="49.316381"
     inkscape:window-width="1325"
     inkscape:window-height="747"
     inkscape:window-x="41"
     inkscape:window-y="21"
     inkscape:window-maximized="1"
     inkscape:current-layer="svg742" /><g
     id="g4199"
     transform="matrix(0.49186292,0,0,0.49186292,0,-142.70583)"><path
       inkscape:connector-curvature="0"
       id="path763"
       d="m 256,546.13333 -256,0 0,-256 256,0 0,256 z"
       style="font-size:12px;fill:none" /><path
       inkscape:connector-curvature="0"
       id="path770"
       d="m 198.35329,380.63571 -5.2688,0 c -4.9088,-42.2336 -33.128,-74.6224 -67.2064,-74.6224 -34.072,0 -62.2832,32.3872 -67.1968,74.6224 l -5.8304,0 c -5.92,0 -10.7376,5.3376 -10.7376,11.9024 l 0,123.6976 c 0,6.56 4.8176,11.8928 10.7376,11.8928 l 145.5024,0 c 5.9184,0 10.7344,-5.3328 10.7344,-11.8928 l 0,-123.6976 c 0,-6.5648 -4.816,-11.9024 -10.7344,-11.9024 m -72.4768,-40.648 c 18.016,0 33.144,17.3328 37.3632,40.648 l -74.7184,0 c 4.224,-23.3152 19.3456,-40.648 37.3552,-40.648 z"
       style="font-size:12px;fill:url(#XMLID_3_)" /><g
       transform="matrix(1.6,0,0,1.6,-76.80031,213.33331)"
       id="g771"
       style="font-size:12px;opacity:0.2;stroke:#000000"><path
         inkscape:connector-curvature="0"
         id="path772"
         d="m 179.883,105.517 -5.027,0 C 171.045,78.06 152.241,57.136 129.674,57.136 c -22.566,0 -41.365,20.924 -45.175,48.381 l -5.379,0 c -5.266,0 -9.551,4.284 -9.551,9.55 l 0,77.251 c 0,5.264 4.285,9.547 9.551,9.547 l 100.763,0 c 5.266,0 9.549,-4.283 9.549,-9.547 l 0,-77.251 c 0,-5.266 -4.284,-9.55 -9.549,-9.55 M 129.674,85.951 c 8.908,0 16.52,8.159 19.428,19.565 l -38.85,0 c 2.907,-11.406 10.517,-19.565 19.422,-19.565 z"
         style="stroke:none" /></g><g
       transform="matrix(1.6,0,0,1.6,-76.80031,213.33331)"
       id="g773"
       style="font-size:12px;opacity:0.2;stroke:#000000"><path
         inkscape:connector-curvature="0"
         id="path774"
         d="m 177.883,104.517 -5.027,0 C 169.045,77.06 150.241,56.136 127.674,56.136 c -22.565,0 -41.364,20.924 -45.175,48.381 l -5.379,0 c -5.266,0 -9.551,4.284 -9.551,9.55 l 0,77.251 c 0,5.264 4.285,9.547 9.551,9.547 l 100.763,0 c 5.266,0 9.549,-4.283 9.549,-9.547 l 0,-77.251 c 0,-5.266 -4.284,-9.55 -9.549,-9.55 m -50.21,-19.566 c 8.909,0 16.52,8.159 19.428,19.565 l -38.85,0 c 2.908,-11.406 10.517,-19.565 19.422,-19.565 z"
         style="stroke:none" /></g><path
       inkscape:connector-curvature="0"
       id="path775"
       d="m 52.44769,393.78291 c 0,51.7392 32.9392,93.8352 73.4304,93.8352 40.4944,0 73.4416,-42.0976 73.4416,-93.8352 0,-51.7376 -32.9472,-93.8336 -73.4416,-93.8336 -40.4912,0.002 -73.4304,42.096 -73.4304,93.8336 m 40.3344,0 c 0,-26.3152 14.8464,-47.728 33.096,-47.728 18.2576,0 33.1072,21.4128 33.1072,47.728 0,26.3184 -14.8496,47.728 -33.1072,47.728 -18.2496,0 -33.096,-21.4096 -33.096,-47.728 z"
       style="font-size:12px;fill:#616161" /><path
       inkscape:connector-curvature="0"
       id="path776"
       d="m 125.87649,306.01491 c -37.5296,0 -67.9568,39.2944 -67.9568,87.768 0,48.4768 30.4272,87.768 67.9568,87.768 37.5376,0 67.9728,-39.2928 67.9728,-87.768 0,-48.4752 -30.4336,-87.768 -67.9728,-87.768 m 0,141.5648 c -21.264,0 -38.568,-24.1312 -38.568,-53.7968 0,-29.6592 17.304,-53.7952 38.568,-53.7952 21.2752,0 38.576,24.136 38.576,53.7952 0,29.6656 -17.2992,53.7968 -38.576,53.7968 z"
       style="font-size:12px;fill:#949494" /><path
       inkscape:connector-curvature="0"
       id="path777"
       d="m 60.36449,393.78291 c 0,46.8336 29.3952,84.9376 65.512,84.9376 36.1296,0 65.52,-38.1024 65.52,-84.9376 0,-46.8352 -29.3904,-84.9344 -65.52,-84.9344 -36.1168,0 -65.512,38.1008 -65.512,84.9344 m 24.496,0 c 0,-31.2224 18.4,-56.624 41.0176,-56.624 22.6224,0 41.0288,25.4016 41.0288,56.624 0,31.2256 -18.4064,56.6304 -41.0288,56.6304 -22.6176,0 -41.0176,-25.4048 -41.0176,-56.6304 z"
       style="font-size:12px;fill:#b1b1c5" /><path
       inkscape:connector-curvature="0"
       id="path784"
       d="m 62.81569,393.78291 c 0,45.2672 28.2928,82.1104 63.0608,82.1104 34.7792,0 63.0688,-36.8432 63.0688,-82.1104 0,-45.2688 -28.2912,-82.1024 -63.0688,-82.1024 -34.768,0 -63.0608,36.8336 -63.0608,82.1024 m 19.5952,0 c 0,-32.784 19.4992,-59.4576 43.4656,-59.4576 23.976,0 43.4752,26.6736 43.4752,59.4576 0,32.7792 -19.5008,59.4576 -43.4752,59.4576 -23.9664,0 -43.4656,-26.6768 -43.4656,-59.4576 z"
       style="font-size:12px;fill:url(#XMLID_4_)" /><g
       transform="matrix(1.6,0,0,1.6,-76.80031,213.33331)"
       id="g785"
       style="font-size:12px;opacity:0.5;stroke:#000000"><path
         inkscape:connector-curvature="0"
         id="path786"
         d="m 104.085,154.794 c 6.401,5.852 14.191,9.307 22.588,9.307 8.401,0 16.19,-3.451 22.596,-9.304 6.344,-8.552 10.313,-20.653 10.313,-34.05 0,-25.858 -14.762,-46.896 -32.909,-46.896 -18.143,0 -32.907,21.037 -32.907,46.896 0,13.397 3.971,25.492 10.319,34.047 M 126.673,75.62 c 14.985,0 27.172,16.671 27.172,37.161 0,0.602 -0.045,1.182 -0.064,1.77 0.02,0.59 0.064,1.172 0.064,1.771 0,14.811 -6.383,27.59 -15.576,33.555 -3.395,3.045 -7.354,4.825 -11.596,4.825 -4.238,0 -8.197,-1.78 -11.59,-4.825 -9.193,-5.965 -15.576,-18.744 -15.576,-33.555 0,-0.6 0.046,-1.182 0.067,-1.771 -0.021,-0.588 -0.067,-1.168 -0.067,-1.77 0,-20.49 12.187,-37.161 27.166,-37.161 z"
         style="fill:#ffffff;stroke:none" /></g><g
       transform="matrix(1.6,0,0,1.6,-76.80031,213.33331)"
       id="g787"
       style="font-size:12px;opacity:0.5;stroke:#000000"><path
         inkscape:connector-curvature="0"
         id="path788"
         d="m 159.582,117.206 c 0,-25.856 -14.762,-46.894 -32.909,-46.894 -18.143,0 -32.907,21.037 -32.907,46.894 0,25.855 14.765,46.895 32.907,46.895 18.147,0 32.909,-21.039 32.909,-46.895 m -32.909,33.96 c -4.238,0 -8.197,-1.785 -11.59,-4.824 -9.193,-5.971 -15.576,-18.75 -15.576,-33.561 0,-20.49 12.187,-37.161 27.166,-37.161 14.985,0 27.172,16.671 27.172,37.161 0,14.811 -6.383,27.59 -15.576,33.561 -3.394,3.039 -7.353,4.824 -11.596,4.824 z"
         style="fill:#ffffff;stroke:none" /></g><path
       inkscape:connector-curvature="0"
       id="path795"
       d="m 44.99169,380.74771 c -6.56,0 -11.8944,5.3328 -11.8944,11.8928 l 0,123.6016 c 0,6.56 5.3344,11.888 11.8944,11.888 l 161.2208,0 c 6.5568,0 11.8912,-5.328 11.8912,-11.888 l 0,-123.6016 c 0,-6.56 -5.3344,-11.8928 -11.8912,-11.8928 l -161.2208,0 z"
       style="font-size:12px;fill:url(#XMLID_5_)" /><path
       inkscape:connector-curvature="0"
       id="path802"
       d="m 44.99169,377.36051 c -8.4256,0 -15.2816,6.8544 -15.2816,15.28 l 0,123.6016 c 0,8.4224 6.856,15.2752 15.2816,15.2752 l 161.2208,0 c 8.4256,0 15.2784,-6.8528 15.2784,-15.2752 l 0,-123.6016 c 0,-8.4256 -6.8528,-15.28 -15.2784,-15.28 l -161.2208,0 z"
       style="font-size:12px;fill:url(#XMLID_6_)" /><path
       inkscape:connector-curvature="0"
       id="path809"
       d="m 215.42849,516.24051 c 0,5.0928 -4.1216,9.2128 -9.216,9.2128 l -161.2208,0 c -5.0928,0 -9.2192,-4.12 -9.2192,-9.2128 l 0,-123.6016 c 0,-5.0912 4.1264,-9.216 9.2192,-9.216 l 161.2208,0 c 5.0944,0 9.216,4.1248 9.216,9.216 l 0,123.6016 z"
       style="font-size:12px;fill:url(#XMLID_7_)" /><path
       inkscape:connector-curvature="0"
       id="path816"
       d="m 44.99169,384.96211 c -4.24,0 -7.6784,3.44 -7.6784,7.6784 l 0,123.6016 c 0,4.2336 3.4368,7.68 7.6784,7.68 l 161.2208,0 c 4.2368,0 7.6752,-3.4464 7.6752,-7.68 l 0,-123.6016 c 0,-4.2368 -3.4368,-7.6784 -7.6752,-7.6784 l -161.2208,0 z"
       style="font-size:12px;fill:url(#XMLID_8_)" /><path
       inkscape:connector-curvature="0"
       id="path823"
       d="m 44.99169,386.49491 c -3.3904,0 -6.1456,2.7552 -6.1456,6.1456 l 0,123.6016 c 0,3.392 2.7552,6.1408 6.1456,6.1408 l 161.2208,0 c 3.3904,0 6.144,-2.7488 6.144,-6.1408 l 0,-123.6016 c 0,-3.3904 -2.7536,-6.1456 -6.144,-6.1456 l -161.2208,0 z"
       style="font-size:12px;fill:url(#XMLID_9_)" /><path
       inkscape:connector-curvature="0"
       id="path824"
       d="m 44.99169,386.49491 c -3.3904,0 -6.1456,2.7552 -6.1456,6.1456 l 0,123.6016 c 0,3.392 2.7552,6.1408 6.1456,6.1408 l 161.2208,0 c 3.3904,0 6.144,-2.7488 6.144,-6.1408 l 0,-123.6016 c 0,-3.3904 -2.7536,-6.1456 -6.144,-6.1456 l -161.2208,0 z"
       style="font-size:12px;opacity:0.5;fill:#ffffff" /><path
       inkscape:connector-curvature="0"
       id="path836"
       d="m 44.99169,389.56211 c -1.6944,0 -3.0752,1.3808 -3.0752,3.0784 l 0,123.6016 c 0,1.7008 1.3808,3.0736 3.0752,3.0736 l 161.2208,0 c 1.6944,0 3.072,-1.3728 3.072,-3.0736 l 0,-123.6016 c 0,-1.6976 -1.3776,-3.0784 -3.072,-3.0784 l -161.2208,0 z"
       style="font-size:12px;fill:url(#XMLID_10_)" /><path
       inkscape:connector-curvature="0"
       id="path846"
       d="m 44.74049,481.82291 c 7.0688,1.6816 14.4944,2.592 22.1536,2.592 47.2672,0 85.5872,-34.1952 85.5872,-76.3808 0,-5.3664 -0.6288,-10.592 -1.8032,-15.64 -44.48,0 -102.8496,0 -105.936,0 -0.0016,3.3248 -0.0016,55.3984 -0.0016,89.4288 z"
       style="font-size:12px;opacity:0.8;fill:url(#XMLID_11_)" /><path
       inkscape:connector-curvature="0"
       id="path853"
       d="m 100.10049,426.73971 c 0,7.088 3.0496,13.6464 8.1136,18.4256 -1.648,5.1616 -10.1488,31.792 -10.1488,31.792 l 55.0672,0 c 0,0 -8.5024,-26.632 -10.1504,-31.792 5.0624,-4.7776 8.1152,-11.3376 8.1152,-18.4256 0,-14.0592 -11.44,-25.4976 -25.5008,-25.4976 -14.0576,0 -25.496,11.4384 -25.496,25.4976 z"
       style="font-size:12px;fill:url(#XMLID_12_)" /><path
       inkscape:connector-curvature="0"
       id="path854"
       d="m 106.59169,426.73971 c 0,6.3408 3.144,12.2432 8.416,15.7904 l 0.7056,0.4784 c 0,0 -7.9152,24.8016 -8.7632,27.4592 2.76,0 34.536,0 37.2992,0 -0.8464,-2.6576 -8.7664,-27.4592 -8.7664,-27.4592 l 0.7088,-0.4784 c 5.2688,-3.5472 8.416,-9.4496 8.416,-15.7904 0,-10.4848 -8.528,-19.0096 -19.0096,-19.0096 -10.4816,0 -19.0064,8.5248 -19.0064,19.0096 z"
       style="font-size:12px;fill:#616161" /></g></svg>