<?xml version="1.0" encoding="UTF-8" standalone="no"?>
<svg
   xmlns:dc="http://purl.org/dc/elements/1.1/"
   xmlns:cc="http://creativecommons.org/ns#"
   xmlns:rdf="http://www.w3.org/1999/02/22-rdf-syntax-ns#"
   xmlns:svg="http://www.w3.org/2000/svg"
   xmlns="http://www.w3.org/2000/svg"
   xmlns:sodipodi="http://sodipodi.sourceforge.net/DTD/sodipodi-0.dtd"
   xmlns:inkscape="http://www.inkscape.org/namespaces/inkscape"
   height="128"
   version="1.1"
   width="128"
   id="svg2"
viewBox="0 0 128 128"
   inkscape:version="0.91 r"
   sodipodi:docname="lock-closed.svg">
  <metadata
     id="metadata24">
    <rdf:RDF>
      <cc:Work
         rdf:about="">
        <dc:format>image/svg+xml</dc:format>
        <dc:type
           rdf:resource="http://purl.org/dc/dcmitype/StillImage" />
        <dc:title />
      </cc:Work>
    </rdf:RDF>
  </metadata>
  <defs
     id="defs22" />
  <sodipodi:namedview
     pagecolor="#ffffff"
     bordercolor="#666666"
     borderopacity="1"
     objecttolerance="10"
     gridtolerance="10"
     guidetolerance="10"
     inkscape:pageopacity="0"
     inkscape:pageshadow="2"
     inkscape:window-width="1920"
     inkscape:window-height="1051"
     id="namedview20"
     showgrid="false"
     inkscape:zoom="2.4583333"
     inkscape:cx="51.94532"
     inkscape:cy="55.244273"
     inkscape:window-x="0"
     inkscape:window-y="0"
     inkscape:window-maximized="1"
     inkscape:current-layer="svg2" />
  <g
     id="g3354"
     transform="matrix(5.3333333,0,0,5.3333333,0,-0.38351889)"
     inkscape:export-filename="/var/www/chamilo/main/img/icons/16/lock-closed.png"
     inkscape:export-xdpi="11.25"
     inkscape:export-ydpi="11.25">
    <g
       id="g4"
       transform="translate(0,-1028.8281)">
      <path
         style="fill:#f1c40f"
         inkscape:connector-curvature="0"
         id="path6"
         d="m 5,1037.4 c -1.1046,0 -2,0.9 -2,2 l 0,1 0,6 0,1 c 0,1.1 0.8954,2 2,2 l 2,0 10,0 2,0 c 1.105,0 2,-0.9 2,-2 l 0,-7 0,-1 c 0,-1.1 -0.895,-2 -2,-2 l -2,0 -12,0 z" />
      <path
         style="fill:#f39c12"
         inkscape:connector-curvature="0"
         id="path8"
         d="m 5,1040.4 c -1.1046,0 -2,0.9 -2,2 l 0,1 0,6 0,1 c 0,1.1 0.8954,2 2,2 l 2,0 10,0 2,0 c 1.105,0 2,-0.9 2,-2 l 0,-7 0,-1 c 0,-1.1 -0.895,-2 -2,-2 l -2,0 -12,0 z" />
      <path
         style="fill:#bdc3c7"
         inkscape:connector-curvature="0"
         id="path10"
         d="m 12,1029.4 c -3.866,0 -7,3.1 -7,7 l 3,0 c 0,-2.2 1.7909,-4 4,-4 2.209,0 4,1.8 4,4 l 3,0 c 0,-3.9 -3.134,-7 -7,-7 z" />
      <path
         style="fill:#e67e22"
         inkscape:connector-curvature="0"
         id="path12"
         transform="translate(0,1028.4)"
         d="m 5,14 0,1 14,0 0,-1 -14,0 z m 0,2 0,1 14,0 0,-1 -14,0 z m 0,2 0,1 14,0 0,-1 -14,0 z m 0,2 0,1 14,0 0,-1 -14,0 z" />
      <path
         style="fill:#7f8c8d"
         inkscape:connector-curvature="0"
         id="path14"
         d="m 5,1037.4 0,1 c 0,0.5 0.6716,1 1.5,1 0.8284,0 1.5,-0.5 1.5,-1 l 0,-1 c 0,0.5 -0.6716,1 -1.5,1 -0.8284,0 -1.5,-0.5 -1.5,-1 z" />
      <path
         style="fill:#7f8c8d"
         inkscape:connector-curvature="0"
         id="path16"
         d="m 16,1037.4 0,1 c 0,0.5 0.672,1 1.5,1 0.828,0 1.5,-0.5 1.5,-1 l 0,-1 c 0,0.5 -0.672,1 -1.5,1 -0.828,0 -1.5,-0.5 -1.5,-1 z" />
      <path
         style="fill:#95a5a6"
         inkscape:connector-curvature="0"
         id="path18"
         transform="translate(0,1028.4)"
         d="m 12,2.4375 c -0.351,0 -0.699,0.0338 -1.031,0.0937 C 10.722,2.5758 10.482,2.6441 10.25,2.7188 10.033,2.7886 9.8271,2.8749 9.625,2.9688 9.519,3.018 9.4141,3.0696 9.3125,3.125 9.1806,3.1969 9.0612,3.2932 8.9375,3.375 8.8217,3.4515 8.7019,3.5092 8.5938,3.5938 8.4531,3.7035 8.3139,3.8149 8.1875,3.9375 8.1506,3.9737 8.1294,4.0253 8.0938,4.0625 7.9254,4.2369 7.7625,4.3981 7.625,4.5938 7.4848,4.7931 7.3546,5.0003 7.25,5.2188 7.246,5.2272 7.254,5.2415 7.25,5.25 7.1389,5.4859 7.0341,5.7459 6.9688,6 6.7158,6.5844 6.0264,7 5.2188,7 5.1588,7 5.1356,7.0018 5.0938,7 5.0833,6.9996 5.077,7.0014 5.0625,7 L 5,8 5,9 5,10 8,10 8,9 8,8 C 8,7.7239 8.0405,7.4479 8.0938,7.1875 8.4667,5.3648 10.067,4 12,4 c 2.209,0 4,1.7909 4,4 l 0,1 0,1 3,0 0,-1 0,-1 -0.062,-1 c -0.015,0.0014 -0.021,-4e-4 -0.032,0 L 18.781,7 C 17.974,7 17.284,6.5844 17.031,6 16.966,5.7459 16.861,5.4859 16.75,5.25 16.746,5.2415 16.754,5.2272 16.75,5.2188 16.645,5.0003 16.515,4.7931 16.375,4.5938 16.237,4.3981 16.075,4.2369 15.906,4.0625 15.87,4.0245 15.851,3.9744 15.812,3.9375 15.686,3.8149 15.547,3.7035 15.406,3.5938 15.302,3.5121 15.174,3.449 15.062,3.375 14.94,3.2941 14.818,3.1962 14.688,3.125 14.587,3.07 14.48,3.0176 14.375,2.9688 14.173,2.8749 13.967,2.7886 13.75,2.7188 13.518,2.6441 13.278,2.5758 13.031,2.5312 12.699,2.4713 12.351,2.4375 12,2.4375 Z" />
    </g>
    <rect
       y="0.071909942"
       x="0"
       height="24"
       width="24"
       id="rect3352"
       style="opacity:0;fill:#ffccaa;fill-opacity:1;stroke:none;stroke-width:1;stroke-linecap:round;stroke-linejoin:round;stroke-miterlimit:4;stroke-dasharray:none;stroke-dashoffset:0;stroke-opacity:1" />
  </g>
</svg>
