<?xml version="1.0" encoding="UTF-8" standalone="no"?>
<!-- Created with Inkscape (http://www.inkscape.org/) -->

<svg
   xmlns:dc="http://purl.org/dc/elements/1.1/"
   xmlns:cc="http://creativecommons.org/ns#"
   xmlns:rdf="http://www.w3.org/1999/02/22-rdf-syntax-ns#"
   xmlns:svg="http://www.w3.org/2000/svg"
   xmlns="http://www.w3.org/2000/svg"
   xmlns:xlink="http://www.w3.org/1999/xlink"
   xmlns:sodipodi="http://sodipodi.sourceforge.net/DTD/sodipodi-0.dtd"
   xmlns:inkscape="http://www.inkscape.org/namespaces/inkscape"
   width="124"
   height="124"
   id="svg7613"
   version="1.1"
   viewBox="0 0 124 124"
   inkscape:version="0.92.3 (unknown)"
   sodipodi:docname="mcua_na.svg">
  <sodipodi:namedview
     id="base"
     pagecolor="#ffffff"
     bordercolor="#666666"
     borderopacity="1.0"
     inkscape:pageopacity="0.0"
     inkscape:pageshadow="2"
     inkscape:zoom="7.0887097"
     inkscape:cx="-0.63481204"
     inkscape:cy="33.786121"
     inkscape:document-units="px"
     inkscape:current-layer="layer1"
     showgrid="false"
     inkscape:window-width="1920"
     inkscape:window-height="1025"
     inkscape:window-x="0"
     inkscape:window-y="27"
     inkscape:window-maximized="1" />
  <defs
     id="defs7615">
    <radialGradient
       r="15.213428"
       fy="458.46527"
       fx="55.21796"
       cy="458.46527"
       cx="55.21796"
       gradientTransform="matrix(0.55758631,0,0,0.57073983,33.783815,180.81737)"
       gradientUnits="userSpaceOnUse"
       id="radialGradient7559"
       xlink:href="#linearGradient4799"
       inkscape:collect="always" />
    <linearGradient
       id="linearGradient4799">
      <stop
         id="stop4801"
         offset="0"
         style="stop-color:#ffde00;stop-opacity:1;" />
      <stop
         id="stop4803"
         offset="1"
         style="stop-color:#ffa700;stop-opacity:1;" />
    </linearGradient>
    <radialGradient
       inkscape:collect="always"
       xlink:href="#linearGradient4799"
       id="radialGradient7646"
       gradientUnits="userSpaceOnUse"
       gradientTransform="matrix(0.55758631,0,0,0.57073983,33.783815,180.81737)"
       cx="55.21796"
       cy="458.46527"
       fx="55.21796"
       fy="458.46527"
       r="15.213428" />
    <linearGradient
       id="linearGradient4799-193">
      <stop
         id="stop837"
         offset="0"
         style="stop-color:#7f7f7f;stop-opacity:1;;opacity:1" />
      <stop
         id="stop839"
         offset="1"
         style="stop-color:#7f7f7f;stop-opacity:1;;opacity:1" />
    </linearGradient>
  </defs>
  <metadata
     id="metadata7618">
    <rdf:RDF>
      <cc:Work
         rdf:about="">
        <dc:format>image/svg+xml</dc:format>
        <dc:type
           rdf:resource="http://purl.org/dc/dcmitype/StillImage" />
        <dc:title />
      </cc:Work>
    </rdf:RDF>
  </metadata>
  <g
     transform="translate(0,-928.36218)"
     id="layer1"
     inkscape:groupmode="layer"
     inkscape:label="Capa 1">
    <g
       inkscape:export-ydpi="90"
       inkscape:export-xdpi="90"
       inkscape:export-filename="/home/aragonc/Escritorio/icons_answer/32/mcua.png"
       inkscape:label="#g6833"
       transform="matrix(1.9374998,0,0,1.9374998,-97.656481,172.51481)"
       id="mcua">
      <rect
         style="opacity:0;fill:#cccccc;fill-opacity:1;stroke:none"
         id="rect3029"
         width="64"
         height="64"
         x="50.596973"
         y="390.05341" />
      <rect
         style="fill:#3d3d3d;fill-opacity:1;stroke:none;opacity:1"
         id="rect3031"
         width="42.888599"
         height="53.322857"
         x="62.167103"
         y="395.9635"
         ry="3.2374587" />
      <rect
         ry="3.2374587"
         y="394.68195"
         x="60.885578"
         height="53.322857"
         width="42.888599"
         id="rect3044"
         style="fill:#ffffff;fill-opacity:1;stroke:#9b9b9b;stroke-width:1;stroke-miterlimit:4;stroke-opacity:1;stroke-dasharray:none;opacity:1" />
      <path
         transform="matrix(0.48135106,0,0,0.48135106,-2.052564,223.39784)"
         d="m 155.90733,412.62436 a 8.0542526,8.0542526 0 0 1 -8.05426,8.05425 8.0542526,8.0542526 0 0 1 -8.05425,-8.05425 8.0542526,8.0542526 0 0 1 8.05425,-8.05425 8.0542526,8.0542526 0 0 1 8.05426,8.05425 z"
         sodipodi:ry="8.0542526"
         sodipodi:rx="8.0542526"
         sodipodi:cy="412.62436"
         sodipodi:cx="147.85307"
         id="path3945"
         style="fill:#ffffff;fill-opacity:1;stroke:#494949;stroke-width:2.58886695;stroke-miterlimit:4;stroke-opacity:1;stroke-dasharray:none;opacity:1"
         sodipodi:type="arc" />
      <g
         id="g3951"
         transform="matrix(0.55384615,0,0,0.55384615,-11.511376,181.33218)">
        <path
           transform="matrix(0.86910609,0,0,0.86910609,17.078411,52.826863)"
           d="m 155.90733,412.62436 a 8.0542526,8.0542526 0 0 1 -8.05426,8.05425 8.0542526,8.0542526 0 0 1 -8.05425,-8.05425 8.0542526,8.0542526 0 0 1 8.05425,-8.05425 8.0542526,8.0542526 0 0 1 8.05426,8.05425 z"
           sodipodi:ry="8.0542526"
           sodipodi:rx="8.0542526"
           sodipodi:cy="412.62436"
           sodipodi:cx="147.85307"
           id="path3943"
           style="fill:#555555;fill-opacity:1;stroke:#494949;stroke-width:2.58886695;stroke-miterlimit:4;stroke-opacity:1;stroke-dasharray:none;opacity:1"
           sodipodi:type="arc" />
        <path
           transform="matrix(0.40150241,0,0,0.40150241,86.162705,245.83381)"
           d="m 155.90733,412.62436 a 8.0542526,8.0542526 0 0 1 -8.05426,8.05425 8.0542526,8.0542526 0 0 1 -8.05425,-8.05425 8.0542526,8.0542526 0 0 1 8.05425,-8.05425 8.0542526,8.0542526 0 0 1 8.05426,8.05425 z"
           sodipodi:ry="8.0542526"
           sodipodi:rx="8.0542526"
           sodipodi:cy="412.62436"
           sodipodi:cx="147.85307"
           id="path3949"
           style="fill:#ffffff;fill-opacity:1;stroke:#494949;stroke-opacity:1;opacity:1"
           sodipodi:type="arc" />
      </g>
      <rect
         style="fill:#494949;fill-opacity:1;stroke:none;opacity:1"
         id="rect3962"
         width="22"
         height="3"
         x="76.050621"
         y="407.7825"
         ry="1.5" />
      <rect
         ry="1.5"
         y="420.21616"
         x="76.050621"
         height="3"
         width="22"
         id="rect3964"
         style="fill:#494949;fill-opacity:1;stroke:none;opacity:1" />
      <path
         style="fill:#cccccc;fill-opacity:1;stroke:#7f7f7f;stroke-width:0.83637941;stroke-linecap:round;stroke-linejoin:round;stroke-miterlimit:4;stroke-opacity:1;stroke-dasharray:none;opacity:1"
         d="m 63.753306,439.96834 -0.02837,-5.07522 c 0.03252,-1.11444 2.046782,-1.05051 2.183209,-0.0285 l 0,5.01854 3.374048,-3.4024 c 0.82795,-0.77673 2.032319,0.58656 1.304254,1.36097 l -3.147222,3.54417 4.423124,0.0284 c 1.29025,0.16752 1.127626,2.29901 0.05669,2.38169 l -4.281356,-0.0284 3.23228,3.11887 c 0.763126,0.85437 -0.254947,2.33446 -1.389312,1.58778 l -3.629229,-3.48746 -0.02836,5.01853 c 0.128311,1.06573 -2.055826,1.26709 -2.268268,0.0284 l 0.02836,-4.76338 -3.20393,3.20394 c -1.127903,0.27764 -2.053803,-0.52426 -1.616141,-1.50274 l 3.402402,-3.26063 -4.905129,0.0568 c -1.20828,-0.23463 -1.178963,-2.22438 0.02837,-2.38168 l 5.018541,-0.0284 -3.515814,-3.4591 c -0.684036,-1.08866 0.489656,-2.19074 1.417667,-1.53108 z"
         id="path4797"
         inkscape:connector-curvature="0"
         sodipodi:nodetypes="ccccccccccccccccccccccccc" />
    </g>
  </g>
</svg>
