<?xml version="1.0" encoding="UTF-8" standalone="no"?>
<!-- Created with Inkscape (http://www.inkscape.org/) -->

<svg
   xmlns:dc="http://purl.org/dc/elements/1.1/"
   xmlns:cc="http://creativecommons.org/ns#"
   xmlns:rdf="http://www.w3.org/1999/02/22-rdf-syntax-ns#"
   xmlns:svg="http://www.w3.org/2000/svg"
   xmlns="http://www.w3.org/2000/svg"
   xmlns:xlink="http://www.w3.org/1999/xlink"
   xmlns:sodipodi="http://sodipodi.sourceforge.net/DTD/sodipodi-0.dtd"
   xmlns:inkscape="http://www.inkscape.org/namespaces/inkscape"
   width="128"
   height="128"
   viewBox="0 0 128 128"
   id="svg2"
   version="1.1"
   inkscape:version="0.91 r"
   sodipodi:docname="new_promotion.svg">
  <defs
     id="defs4">
    <linearGradient
       inkscape:collect="always"
       id="linearGradient4757">
      <stop
         style="stop-color:#ffff00;stop-opacity:1;"
         offset="0"
         id="stop4759" />
      <stop
         style="stop-color:#ff6600;stop-opacity:1"
         offset="1"
         id="stop4761" />
    </linearGradient>
    <linearGradient
       id="linearGradient44699">
      <stop
         offset="0"
         style="stop-color:#000173;stop-opacity:0.93333334"
         id="stop44701" />
      <stop
         offset="1"
         style="stop-color:#3575f0;stop-opacity:1"
         id="stop44703" />
    </linearGradient>
    <linearGradient
       id="linearGradient44693">
      <stop
         offset="0"
         style="stop-color:#3690e6;stop-opacity:1"
         id="stop44695" />
      <stop
         offset="1"
         style="stop-color:#d0e9ff;stop-opacity:1"
         id="stop44697" />
    </linearGradient>
    <linearGradient
       id="linearGradient44681">
      <stop
         offset="0"
         style="stop-color:#ff5c38;stop-opacity:1"
         id="stop44683" />
      <stop
         offset="0.30397323"
         style="stop-color:#fb7e65;stop-opacity:0.99607843"
         id="stop44685" />
      <stop
         offset="1"
         style="stop-color:#cd0000;stop-opacity:0.98039216"
         id="stop44687" />
    </linearGradient>
    <linearGradient
       id="linearGradient44627">
      <stop
         offset="0"
         style="stop-color:#fffcfb;stop-opacity:1"
         id="stop44629" />
      <stop
         offset="1"
         style="stop-color:#f4ad94;stop-opacity:1"
         id="stop44633" />
    </linearGradient>
    <linearGradient
       id="linearGradient44615">
      <stop
         offset="0"
         style="stop-color:#2f68fa;stop-opacity:1"
         id="stop44617" />
      <stop
         offset="1"
         style="stop-color:#c7d5fb;stop-opacity:1"
         id="stop44619" />
    </linearGradient>
    <linearGradient
       id="linearGradient44605">
      <stop
         offset="0"
         style="stop-color:#d0ecff;stop-opacity:1"
         id="stop44607" />
      <stop
         offset="0.5"
         style="stop-color:#d7f0ff;stop-opacity:1"
         id="stop44609" />
      <stop
         offset="1"
         style="stop-color:#ffffff;stop-opacity:1"
         id="stop44611" />
    </linearGradient>
    <linearGradient
       id="linearGradient44090">
      <stop
         offset="0"
         style="stop-color:#0926bb;stop-opacity:1"
         id="stop44092" />
      <stop
         offset="1"
         style="stop-color:#6bb5fe;stop-opacity:1"
         id="stop44094" />
    </linearGradient>
    <linearGradient
       id="linearGradient44080">
      <stop
         offset="0"
         style="stop-color:#2c8300;stop-opacity:1"
         id="stop44082" />
      <stop
         offset="0.25"
         style="stop-color:#57aeff;stop-opacity:1"
         id="stop44084" />
      <stop
         offset="0.5"
         style="stop-color:#ffffff;stop-opacity:1"
         id="stop44086" />
      <stop
         offset="1"
         style="stop-color:#5aafff;stop-opacity:1"
         id="stop44088" />
    </linearGradient>
    <filter
       id="filter3297">
      <feGaussianBlur
         id="feGaussianBlur3299"
         stdDeviation="0.26694977"
         inkscape:collect="always" />
    </filter>
    <filter
       id="filter3293">
      <feGaussianBlur
         id="feGaussianBlur3295"
         stdDeviation="0.355"
         inkscape:collect="always" />
    </filter>
    <linearGradient
       id="linearGradient3219">
      <stop
         offset="0"
         style="stop-color:#0e7309;stop-opacity:1"
         id="stop3221" />
      <stop
         offset="1"
         style="stop-color:#70d13e;stop-opacity:1"
         id="stop3223" />
    </linearGradient>
    <radialGradient
       gradientTransform="matrix(0,1.655849,-1.6391884,0,152.15006,-32.923726)"
       gradientUnits="userSpaceOnUse"
       xlink:href="#linearGradient44627"
       id="radialGradient44048"
       fy="59.728882"
       fx="53.60223"
       r="17.834057"
       cy="59.728882"
       cx="53.60223" />
    <radialGradient
       gradientTransform="matrix(0.856113,-0.0637264,0.1161478,1.5603521,-743.30707,-121.7687)"
       gradientUnits="userSpaceOnUse"
       xlink:href="#linearGradient44605"
       id="radialGradient44061"
       fy="709.6579"
       fx="479.68311"
       r="5.0058851"
       cy="709.6579"
       cx="479.68311" />
    <linearGradient
       gradientTransform="matrix(-1,0,0,1,253.42404,245.75912)"
       gradientUnits="userSpaceOnUse"
       xlink:href="#linearGradient44090"
       id="linearGradient44067"
       y2="745.30084"
       x2="517.02167"
       y1="705.48438"
       x1="517.02167" />
    <linearGradient
       gradientTransform="translate(-730.02214,245.75912)"
       gradientUnits="userSpaceOnUse"
       xlink:href="#linearGradient44090"
       id="linearGradient44070"
       y2="745.30084"
       x2="517.02167"
       y1="705.48438"
       x1="517.02167" />
    <radialGradient
       gradientTransform="matrix(0,2.0237831,-1.9580539,0,1075.328,-66.735647)"
       gradientUnits="userSpaceOnUse"
       xlink:href="#linearGradient44080"
       id="radialGradient44073"
       fy="670.92523"
       fx="491.52231"
       r="36.426601"
       cy="670.92523"
       cx="491.52231" />
    <linearGradient
       gradientTransform="translate(-282.47353,882.69271)"
       gradientUnits="userSpaceOnUse"
       xlink:href="#linearGradient44699"
       id="linearGradient44076"
       y2="66.310989"
       x2="83.28125"
       y1="123.09795"
       x1="83.28125" />
    <linearGradient
       gradientUnits="userSpaceOnUse"
       xlink:href="#linearGradient44615"
       id="linearGradient44613"
       y2="964.61743"
       x2="-248.7769"
       y1="958.07971"
       x1="-246.57739" />
    <linearGradient
       gradientTransform="matrix(-1,0,0,1,-476.93424,0)"
       gradientUnits="userSpaceOnUse"
       xlink:href="#linearGradient44615"
       id="linearGradient44625"
       y2="964.61743"
       x2="-248.7769"
       y1="958.07971"
       x1="-246.57739" />
    <linearGradient
       gradientTransform="translate(-772.48144,227.87334)"
       gradientUnits="userSpaceOnUse"
       xlink:href="#linearGradient3219"
       id="linearGradient44667"
       y2="745.30084"
       x2="517.02167"
       y1="705.48438"
       x1="517.02167" />
    <linearGradient
       gradientUnits="userSpaceOnUse"
       xlink:href="#linearGradient44681"
       id="linearGradient44677"
       y2="47.542713"
       x2="60.126968"
       y1="81.913818"
       x1="60.126968" />
    <linearGradient
       gradientUnits="userSpaceOnUse"
       xlink:href="#linearGradient44693"
       id="linearGradient44691"
       y2="84.910484"
       x2="-35.566662"
       y1="76.562927"
       x1="-35.566662" />
    <linearGradient
       inkscape:collect="always"
       xlink:href="#linearGradient4757"
       id="linearGradient4800"
       x1="25.176987"
       y1="943.85968"
       x2="54.848354"
       y2="943.85968"
       gradientUnits="userSpaceOnUse"
       gradientTransform="translate(0.31103869,-3.427902)" />
    <radialGradient
       inkscape:collect="always"
       xlink:href="#linearGradient4799"
       id="radialGradient5866"
       gradientUnits="userSpaceOnUse"
       gradientTransform="matrix(2.0419786,0,0,2.090149,-80.42966,61.142758)"
       cx="55.21796"
       cy="458.46527"
       fx="55.21796"
       fy="458.46527"
       r="15.213428" />
    <linearGradient
       id="linearGradient4799">
      <stop
         style="stop-color:#ffde00;stop-opacity:1;"
         offset="0"
         id="stop4801" />
      <stop
         style="stop-color:#ffa700;stop-opacity:1;"
         offset="1"
         id="stop4803" />
    </linearGradient>
    <linearGradient
       inkscape:collect="always"
       xlink:href="#linearGradient14054"
       id="linearGradient8056"
       gradientUnits="userSpaceOnUse"
       gradientTransform="matrix(3.9333348,0,0,3.9333348,-869.52462,-874.5388)"
       x1="204.4826"
       y1="452.41125"
       x2="203.51833"
       y2="475.66125" />
    <linearGradient
       inkscape:collect="always"
       id="linearGradient14054">
      <stop
         style="stop-color:#093678;stop-opacity:1"
         offset="0"
         id="stop14056" />
      <stop
         style="stop-color:#000b1c;stop-opacity:1"
         offset="1"
         id="stop14058" />
    </linearGradient>
    <linearGradient
       inkscape:collect="always"
       xlink:href="#linearGradient14084"
       id="linearGradient8058"
       gradientUnits="userSpaceOnUse"
       x1="207.37875"
       y1="458.02274"
       x2="212.86673"
       y2="464.74023" />
    <linearGradient
       inkscape:collect="always"
       id="linearGradient14084">
      <stop
         style="stop-color:#ffcc00;stop-opacity:1"
         offset="0"
         id="stop14086" />
      <stop
         style="stop-color:#d45500;stop-opacity:1"
         offset="1"
         id="stop14088" />
    </linearGradient>
  </defs>
  <sodipodi:namedview
     id="base"
     pagecolor="#ffffff"
     bordercolor="#666666"
     borderopacity="1.0"
     inkscape:pageopacity="0.0"
     inkscape:pageshadow="2"
     inkscape:zoom="4"
     inkscape:cx="13.933422"
     inkscape:cy="64.733402"
     inkscape:document-units="px"
     inkscape:current-layer="layer1"
     showgrid="false"
     units="px"
     inkscape:window-width="1920"
     inkscape:window-height="1051"
     inkscape:window-x="1366"
     inkscape:window-y="0"
     inkscape:window-maximized="1"
     inkscape:object-paths="true"
     showguides="false" />
  <metadata
     id="metadata7">
    <rdf:RDF>
      <cc:Work
         rdf:about="">
        <dc:format>image/svg+xml</dc:format>
        <dc:type
           rdf:resource="http://purl.org/dc/dcmitype/StillImage" />
        <dc:title />
      </cc:Work>
    </rdf:RDF>
  </metadata>
  <g
     inkscape:label="Capa 1"
     inkscape:groupmode="layer"
     id="layer1"
     transform="translate(0,-924.36216)">
    <rect
       style="opacity:0;fill:#008080;fill-opacity:1;stroke:none;stroke-width:0.5;stroke-linecap:round;stroke-linejoin:round;stroke-miterlimit:4;stroke-dasharray:none;stroke-dashoffset:0;stroke-opacity:1"
       id="rect9678"
       width="128"
       height="128"
       x="0"
       y="924.36218" />
    <g
       transform="matrix(0.9583338,0,0,0.9583338,291.72865,80.786356)"
       id="g3498"
       inkscape:export-filename="/var/www/chamilo/main/img/icons/32/add-user.png"
       inkscape:export-xdpi="22.5"
       inkscape:export-ydpi="22.5">
      <path
         inkscape:connector-curvature="0"
         d="m -263.35265,933.74757 c 8.46364,9.0621 14.91528,24.09751 16.80551,38.65267"
         id="path3217"
         style="fill:#000000;fill-opacity:0;fill-rule:evenodd;stroke:url(#linearGradient44667);stroke-width:1.5;stroke-linecap:butt;stroke-linejoin:miter;stroke-miterlimit:4;stroke-dasharray:none;stroke-opacity:1" />
      <path
         inkscape:connector-curvature="0"
         d="m -237.54657,906.14303 c -14.71669,0 -26.69498,11.97829 -26.69498,26.69498 0,14.71669 11.97829,26.69498 26.69498,26.69498 14.71668,0 26.69497,-11.97829 26.69497,-26.69498 0,-14.71669 -11.97829,-26.69498 -26.69497,-26.69498 z"
         id="path44010"
         style="fill:#000000;fill-opacity:0.50196078;stroke:none;stroke-width:1.33686185;stroke-linecap:square;stroke-linejoin:miter;stroke-miterlimit:4;stroke-dasharray:none;stroke-dashoffset:0;stroke-opacity:1;filter:url(#filter3297)" />
      <path
         inkscape:connector-curvature="0"
         d="m -237.62978,943.41146 c -21.63445,0 -39.1875,17.34747 -39.1875,38.75 l 0,6.125 c 0,6.05287 6.27536,18.75004 28.90625,18.75004 l 20.53125,0 c 22.63038,0 28.9375,-12.07968 28.9375,-18.75004 l 0,-6.125 c 0,-21.40254 -17.55305,-38.75 -39.1875,-38.75 z"
         id="path44012"
         style="fill:#000000;fill-opacity:0.50196078;stroke:none;stroke-width:1.5;stroke-linecap:square;stroke-linejoin:miter;stroke-miterlimit:4;stroke-dashoffset:0;stroke-opacity:1;filter:url(#filter3293)" />
      <path
         inkscape:connector-curvature="0"
         d="m -238.37978,942.16146 c -21.63445,0 -39.1875,17.34747 -39.1875,38.75 l 0,6.125 c 0,6.05287 6.27536,18.75004 28.90625,18.75004 l 20.53125,0 c 22.63038,0 28.9375,-12.07968 28.9375,-18.75004 l 0,-6.125 c 0,-21.40254 -17.55305,-38.75 -39.1875,-38.75 z"
         id="path44014"
         style="fill:url(#linearGradient44076);fill-opacity:1;stroke:none;stroke-width:1.5;stroke-linecap:square;stroke-linejoin:miter;stroke-miterlimit:4;stroke-dashoffset:0;stroke-opacity:1" />
      <path
         inkscape:connector-curvature="0"
         d="m -238.37978,944.32217 c -20.11022,0 -36.4266,15.9074 -36.4266,35.53322 l 0,5.61655 c 0,5.55039 5.83324,17.19346 26.8697,17.19346 l 19.08475,0 c 21.03599,0 26.89875,-11.07683 26.89875,-17.19346 l 0,-5.61655 c 0,-19.62582 -16.31638,-35.53322 -36.4266,-35.53322 z"
         id="path44016"
         style="fill:url(#radialGradient44073);fill-opacity:1;stroke:none;stroke-width:1.5;stroke-linecap:square;stroke-linejoin:miter;stroke-miterlimit:4;stroke-dashoffset:0;stroke-opacity:1" />
      <path
         inkscape:connector-curvature="0"
         d="m -220.89335,951.63335 c 8.46364,9.0621 14.91528,24.09751 16.80551,38.65267"
         id="path44018"
         style="fill:#000000;fill-opacity:0;fill-rule:evenodd;stroke:url(#linearGradient44070);stroke-width:1.5;stroke-linecap:butt;stroke-linejoin:miter;stroke-miterlimit:4;stroke-dasharray:none;stroke-opacity:1" />
      <path
         inkscape:connector-curvature="0"
         d="m -255.70476,951.63335 c -8.46364,9.0621 -14.91528,24.09751 -16.80551,38.65267"
         id="path44020"
         style="fill:#000000;fill-opacity:0;fill-rule:evenodd;stroke:url(#linearGradient44067);stroke-width:1.5;stroke-linecap:butt;stroke-linejoin:miter;stroke-miterlimit:4;stroke-dasharray:none;stroke-opacity:1" />
      <path
         inkscape:connector-curvature="0"
         d="m -245.07157,955.83473 c -2.3027,1.97418 -4.96223,3.5307 -3.72122,8.28271 -5.66073,-1.14662 -9.94971,-8.89011 -6.36208,-14.40472 l 10.0833,6.12201 z"
         id="path44022"
         style="fill:#c5ffbd;fill-opacity:1;fill-rule:evenodd;stroke:url(#linearGradient44613);stroke-width:1px;stroke-linecap:butt;stroke-linejoin:miter;stroke-opacity:1" />
      <path
         inkscape:connector-curvature="0"
         d="m -36.972118,84.910487 -5.409768,-9.369991 10.819535,-10e-7 -5.409767,9.369992 z"
         transform="matrix(1.1784451,0,0,0.9316118,-194.72944,886.86434)"
         id="path44024"
         style="fill:url(#linearGradient44691);fill-opacity:1;stroke:none;stroke-width:0.85552669;stroke-linecap:square;stroke-linejoin:miter;stroke-miterlimit:4;stroke-dasharray:none;stroke-dashoffset:0;stroke-opacity:1" />
      <path
         inkscape:connector-curvature="0"
         d="m -254.93334,950.41537 9,5.46875 c -0.98816,0.81483 -2.01362,1.64574 -2.75,2.78125 -0.74928,1.1554 -0.98341,2.74156 -0.65625,4.71875 -2.36917,-0.72853 -4.49352,-2.64468 -5.65625,-5.0625 -1.20326,-2.5021 -1.34831,-5.40312 0.0625,-7.90625 z"
         id="path44028"
         style="fill:url(#radialGradient44061);fill-opacity:1;fill-rule:evenodd;stroke:none;stroke-width:1px;stroke-linecap:butt;stroke-linejoin:miter;stroke-opacity:1" />
      <path
         inkscape:connector-curvature="0"
         d="m -231.86267,955.83473 c 2.3027,1.97418 4.96223,3.5307 3.72122,8.28271 5.66073,-1.14662 9.94971,-8.89011 6.36208,-14.40472 l -10.0833,6.12201 z"
         id="path44621"
         style="fill:#9dcfff;fill-opacity:1;fill-rule:evenodd;stroke:url(#linearGradient44625);stroke-width:1px;stroke-linecap:butt;stroke-linejoin:miter;stroke-opacity:1" />
      <path
         inkscape:connector-curvature="0"
         d="m 76.945221,64.499184 a 17.165627,17.165627 0 1 1 -34.331253,0 17.165627,17.165627 0 1 1 34.331253,0 z"
         transform="matrix(1.4960409,0,0,1.4960409,-327.73177,835.09337)"
         id="path44030"
         style="fill:url(#radialGradient44048);fill-opacity:1;stroke:url(#linearGradient44677);stroke-width:1.33686185;stroke-linecap:square;stroke-linejoin:miter;stroke-miterlimit:4;stroke-dasharray:none;stroke-dashoffset:0;stroke-opacity:1" />
    </g>
    <path
       style="fill:#283a4d;fill-opacity:1;fill-rule:evenodd;stroke:none;stroke-width:0.30000001;stroke-linecap:butt;stroke-linejoin:miter;stroke-miterlimit:4;stroke-dasharray:none;stroke-opacity:1"
       d="m 42.206136,947.07362 0.07842,13.01555 c 1.576376,7.77927 13.985867,12.25665 20.933922,12.73841 6.608646,-0.53901 19.985403,-5.34264 21.170717,-12.73841 l 0,-13.01555 z"
       id="path4416"
       inkscape:connector-curvature="0"
       sodipodi:nodetypes="cccccc" />
    <path
       style="fill:#5d6d7e;fill-opacity:1;fill-rule:evenodd;stroke:none;stroke-width:0.2;stroke-linecap:butt;stroke-linejoin:miter;stroke-miterlimit:4;stroke-dasharray:none;stroke-opacity:1"
       d="m 63.25832,968.36117 c 10.638013,-1.08172 17.706165,-5.11247 21.130735,-12.15312 l -0.03917,-9.13443 -42.143612,0.0387 0.05664,9.4092 c 4.494599,8.48057 12.720675,10.20414 20.995402,11.83962 z"
       id="path4418"
       inkscape:connector-curvature="0"
       sodipodi:nodetypes="cccccc" />
    <path
       style="fill:#283a4d;fill-opacity:1;fill-rule:evenodd;stroke:none;stroke-width:0.40000001;stroke-linecap:butt;stroke-linejoin:miter;stroke-miterlimit:4;stroke-dasharray:none;stroke-opacity:1"
       d="m 20.030101,942.062 43.466709,17.40885 43.02316,-17.51974 c 0,0 -43.02316,-17.29798 -43.466701,-17.18709 -0.443541,0.11089 -43.023168,17.29798 -43.023168,17.29798 z"
       id="path4414"
       inkscape:connector-curvature="0" />
    <path
       style="fill:url(#linearGradient4800);fill-opacity:1;fill-rule:evenodd;stroke:none;stroke-width:0.2;stroke-linecap:butt;stroke-linejoin:miter;stroke-miterlimit:4;stroke-dasharray:none;stroke-opacity:1"
       d="m 25.488025,944.2398 24.828679,-9.48691 4.842688,1.56046 -25.035601,9.79737 z"
       id="path4420"
       inkscape:connector-curvature="0"
       sodipodi:nodetypes="ccccc" />
    <path
       style="fill:#ff6600;fill-opacity:1;fill-rule:evenodd;stroke:none;stroke-width:0.2;stroke-linecap:butt;stroke-linejoin:miter;stroke-miterlimit:4;stroke-dasharray:none;stroke-opacity:1"
       d="m 30.130808,946.11449 -0.157252,19.42635 -2.15836,-2.21181 -2.398569,1.3671 0.04634,-20.45974 z"
       id="path4422"
       inkscape:connector-curvature="0"
       sodipodi:nodetypes="cccccc" />
    <path
       sodipodi:nodetypes="ccccccccccccccccccccccccc"
       inkscape:connector-curvature="0"
       id="path4797"
       d="m 29.323781,1010.1991 -0.103476,-18.58667 c 0.120455,-4.08134 7.495542,-3.84714 7.995163,-0.10554 l 0,18.37881 12.35638,-12.46005 c 3.032047,-2.84466 7.442702,2.14823 4.776441,4.98415 l -11.525688,12.9794 16.198076,0.1054 c 4.725213,0.6135 4.129723,8.4193 0.207307,8.7223 l -15.679154,-0.1056 11.837249,11.4221 c 2.794587,3.1287 -0.933864,8.5491 -5.088001,5.8147 l -13.290737,-12.7718 -0.104732,18.3788 c 0.469794,3.9029 -7.528811,4.6402 -8.306799,0.1054 l 0.105224,-17.4441 -11.733185,11.7334 c -4.130725,1.0165 -7.5214209,-1.9199 -5.918733,-5.5034 l 12.460264,-11.9409 -17.9634809,0.2078 c -4.424949,-0.8592 -4.317569,-8.1464 0.105223,-8.7223 l 18.3786859,-0.1054 -12.87548,-12.6679 c -2.5049709,-3.98692 1.793257,-8.02307 5.191749,-5.60728 z"
       style="overflow:visible;fill:url(#radialGradient5866);fill-opacity:1;stroke:#ff4100;stroke-width:1.66299999;stroke-linecap:round;stroke-linejoin:round;stroke-miterlimit:4;stroke-dasharray:none;stroke-opacity:1" />
    <rect
       y="918.90845"
       x="-134.05939"
       height="76.308693"
       width="105.35719"
       id="rect14024"
       style="fill:url(#linearGradient8056);fill-opacity:1;stroke:#00274a;stroke-opacity:1" />
    <g
       id="g14034"
       style="font-style:normal;font-variant:normal;font-weight:bold;font-stretch:normal;font-size:60.12385559px;line-height:125%;font-family:Snickles;-inkscape-font-specification:'Snickles Bold';text-align:start;letter-spacing:0px;word-spacing:0px;writing-mode:lr-tb;text-anchor:start;fill:#ffffff;fill-opacity:1;stroke:none"
       transform="matrix(1.0324295,0,0,0.73278535,-356.76763,892.60655)">
      <path
         inkscape:connector-curvature="0"
         id="path14036"
         d="m 223.79985,118.15627 c 0.0783,2.87703 0.79265,4.7559 2.14308,5.63661 0.39143,0.25444 0.98837,0.38165 1.7908,0.38165 0.48929,0 1.07643,-0.0489 1.76144,-0.14679 1.72229,-0.23485 3.20973,-0.81222 4.46232,-1.73208 0.84157,-0.56757 1.62443,-1.25258 2.34859,-2.05502 -0.23487,1.60488 -0.4208,3.15103 -0.55779,4.63846 -1e-5,0.15658 0.32292,0.25444 0.96879,0.29358 0.88071,0 1.58529,-0.0587 2.11373,-0.17615 2.07457,-0.39143 3.13143,-1.01771 3.17059,-1.87887 0.23485,-3.44459 1.24278,-8.84633 3.02381,-16.20526 1.03727,-2.48556 1.61463,-5.03965 1.73208,-7.662265 -2e-5,-0.293544 -0.32295,-0.44033 -0.96879,-0.44036 -0.27402,3e-5 -0.61652,0.02939 -1.02751,0.08807 -0.0392,-1.722267 -0.59695,-2.818273 -1.67336,-3.288024 -0.62631,-0.273968 -1.34067,-0.410969 -2.14309,-0.411003 -1.33088,3.4e-5 -2.91618,0.371893 -4.75589,1.11558 -4.05132,1.604899 -6.91855,3.953482 -8.60171,7.045762 -2.5443,4.67763 -3.81645,9.29651 -3.81645,13.85667 0,0.31316 0.01,0.62631 0.0294,0.93944 m 6.48797,-5.60725 c 0.35228,-2.36815 1.096,-4.93202 2.23116,-7.69163 0.27399,-0.68498 0.77307,-1.71249 1.49722,-3.08252 0.39143,-0.72412 0.81222,-1.30148 1.26237,-1.73209 0.0783,-0.07825 0.65564,-0.557759 1.73208,-1.438509 l 0.0587,-0.05872 c 0.0391,3.1e-5 0.0978,-0.03911 0.17614,-0.117429 0.0391,-0.03911 0.0978,-0.08804 0.17615,-0.146787 0.0978,-0.05868 0.20549,-0.13697 0.32293,-0.234859 l 0.0587,0 c 0.50885,0.391462 0.7535,1.233039 0.73394,2.524734 -2e-5,0.25445 -0.01,0.53824 -0.0294,0.85136 -1e-5,0.27403 0.37185,0.41103 1.11558,0.411 0.21527,3e-5 0.45013,-0.0195 0.70457,-0.0587 -0.0783,0.48931 -0.19572,1.03732 -0.35228,1.64401 -0.13702,0.58717 -0.31316,1.35046 -0.52844,2.28987 -0.2153,0.91989 -0.40123,1.67339 -0.55779,2.26052 -1.15473,2.68132 -3.00424,5.73448 -5.54854,9.15949 -1.23301,1.72231 -2.05501,2.79874 -2.46601,3.22931 l -0.35229,-0.70458 c -0.33272,-0.99814 -0.49908,-2.21157 -0.49908,-3.64031 0,-1.03728 0.0881,-2.192 0.26422,-3.46416" />
      <path
         sodipodi:nodetypes="ccscccccccccccccccccccccccccccccccccccccccccccccccccccccsc"
         inkscape:connector-curvature="0"
         id="path14038"
         d="m 247.9487,124.58553 c 0.56757,0.68501 1.46786,1.08622 2.70087,1.20365 0.274,0.0196 0.53822,0.0294 0.79265,0.0294 2.38773,0 4.91246,-0.97858 7.5742,-2.93574 2.87701,-2.13329 5.49959,-5.40174 7.86777,-9.80535 1.87885,-3.48372 2.81828,-6.63474 2.8183,-9.45307 -2e-5,-1.58527 -0.29359,-3.06292 -0.88072,-4.43296 -0.76331,-1.800553 -2.05503,-2.955274 -3.87517,-3.464167 -0.66545,-0.176111 -1.37981,-0.273969 -2.14308,-0.293574 -1.05688,3.4e-5 -2.1431,0.176178 -3.25867,0.528433 0.19571,-0.841544 0.69478,-2.945486 1.49722,-6.311831 l 0.61651,-2.407303 c 0.23485,-0.841535 0.43056,-1.643968 0.58715,-2.407303 0.4697,-1.898396 0.70456,-3.248833 0.70457,-4.051314 -1e-5,-0.176096 -0.01,-0.332668 -0.0294,-0.469718 -0.0587,-0.332668 -0.43058,-0.499026 -1.11557,-0.499075 -0.52845,4.9e-5 -1.26238,0.107693 -2.20181,0.322931 -1.97673,0.450194 -2.95531,1.037341 -2.93573,1.761441 -1e-5,0.05876 -1e-5,0.146834 0,0.264216 0.0196,0.0979 0.0294,0.185977 0.0294,0.264217 -10e-6,0.763336 -0.23487,2.064844 -0.70458,3.904527 l -0.64586,2.583447 c -0.31315,1.193905 -0.53822,2.074624 -0.67522,2.642162 -0.80244,3.405486 -1.54616,6.791364 -2.23116,10.157641 -0.31315,1.56575 -1.12537,4.89292 -2.43666,9.9815 -0.39143,1.60489 -0.7535,3.20975 -1.08622,4.81461 -0.11743,0.56758 -0.24464,1.33088 -0.38165,2.28987 -0.0783,0.4893 -0.14678,0.95902 -0.2055,1.40915 -0.0587,0.43059 -0.10764,0.73395 -0.14679,0.91008 l -0.0587,0.26422 c -0.33271,0.86115 -0.49907,1.57551 -0.49908,2.14308 1e-5,0.46973 0.10765,0.82201 0.32294,1.05687 m 5.95954,-3.3761 0.58714,-1.67337 c 0.15657,-2.44643 0.82201,-5.81274 1.9963,-10.09892 0.88072,-3.40543 1.66358,-6.75217 2.34859,-10.040218 l 0.0294,-0.11743 c 0.0196,-0.05869 0.0293,-0.127185 0.0294,-0.205501 0.56756,-0.234829 1.00792,-0.489259 1.32108,-0.763291 l 0.0294,-0.05871 0.0881,-0.05872 c 0.72414,0.352319 1.37978,1.047109 1.96694,2.08437 0.74371,1.31132 1.11557,2.82812 1.11558,4.55039 -1e-5,0.91989 -0.10766,1.90825 -0.32293,2.96509 -0.4893,2.2899 -1.50702,4.81463 -3.05317,7.5742 -0.48929,0.84159 -1.15473,1.88867 -1.9963,3.14124 -0.11743,0.15658 -0.21529,0.29358 -0.29357,0.411 -0.0783,0.11744 -0.19572,0.26423 -0.35229,0.44036 -0.13701,0.15658 -0.28379,0.33273 -0.44036,0.52843 -0.11743,0.11744 -0.21529,0.22508 -0.29357,0.32293 -0.0783,0.0979 -0.13701,0.17616 -0.17615,0.23486 l -0.0587,0.0881 c -0.45015,0.52844 -1.0373,1.13516 -1.76144,1.82016 -0.0783,0.0391 -0.17615,0.11744 -0.29357,0.23486 -0.11744,0.11743 -0.19572,0.19572 -0.23486,0.23486 l 0,-0.0587 c -0.27401,-0.23485 -0.41101,-0.50885 -0.41101,-0.822 0,-0.21528 0.0587,-0.45993 0.17615,-0.73394" />
      <path
         sodipodi:nodetypes="cscccccccccccccccccccccccccccccccccc"
         inkscape:connector-curvature="0"
         id="path14040"
         d="m 271.80398,109.84814 c -0.33271,2.11374 -0.49907,4.03176 -0.49907,5.75404 0,2.97489 0.48929,5.38219 1.46786,7.22191 0.90029,1.7223 2.42688,2.58345 4.57975,2.58344 1.13515,1e-5 2.45623,-0.23485 3.96324,-0.70457 3.01401,-0.959 5.42131,-2.96509 7.22191,-6.01826 0.11741,-0.1957 0.0978,-0.34249 -0.0587,-0.44036 -0.15659,-0.11742 -0.45995,-0.1957 -0.91008,-0.23486 -0.72416,1e-5 -1.24281,0.0489 -1.55594,0.14679 -1.95717,0.3523 -3.18039,0.91009 -3.66967,1.67337 -0.52844,0.84158 -1.11559,1.62445 -1.76144,2.34859 -0.0392,0.0392 -0.0979,0.0881 -0.17615,0.14678 -0.0783,0.0587 -0.15657,0.12722 -0.23485,0.2055 -0.4893,-0.31313 -0.94923,-0.91007 -1.3798,-1.79079 -0.7633,-1.48743 -1.16451,-3.62073 -1.20365,-6.39991 -1e-5,-0.23484 -1e-5,-0.45991 0,-0.67522 -1e-5,-1.82013 0.2055,-3.836 0.6165,-6.04761 0.39143,-2.28985 1.08622,-4.45251 2.08437,-6.48797 1.03729,-2.035418 2.22137,-3.503284 3.55224,-4.403607 l 0.0587,-0.05872 0.35229,0.205501 c 0.48928,0.234891 0.89049,0.489321 1.20365,0.763292 1.19385,1.076466 1.80057,2.661764 1.82015,4.755884 -10e-6,1.48747 -0.51866,2.8477 -1.55594,4.08068 -0.45015,0.45016 -0.41101,0.77309 0.11743,0.96879 0.31314,0.11745 0.7535,0.13703 1.32108,0.0587 2.07458,-0.15654 3.47394,-0.65562 4.19811,-1.49722 1.40913,-1.60484 2.11371,-3.41521 2.11373,-5.43111 -2e-5,-1.898411 -0.66546,-3.532635 -1.9963,-4.902677 -1.01774,-1.017687 -2.46604,-1.536333 -4.34489,-1.55594 -0.60673,3.5e-5 -1.26238,0.04896 -1.96695,0.146787 -3.01402,0.489323 -5.61704,1.712545 -7.80905,3.669669 -2.77916,2.485611 -4.62868,6.458641 -5.54854,11.919081 m 12.65302,-13.475021 0.0587,-0.05871 -0.0587,0.05871" />
    </g>
    <g
       transform="matrix(3.9333348,0,0,3.9333348,-869.52462,-874.5388)"
       id="g14072">
      <g
         id="g14066">
        <path
           style="fill:#aa4400;fill-opacity:1;stroke:none"
           d="m 213.32189,485.88008 -3.5714,0 -7.05358,-8.90032 3.12498,0.16182 z"
           id="path14030"
           inkscape:connector-curvature="0"
           sodipodi:nodetypes="ccccc" />
        <g
           id="g14062">
          <path
             style="fill:#aa4400;fill-opacity:1;stroke:none"
             d="m 187.51832,485.96101 3.57144,0 7.05357,-8.90034 -3.12499,0.16183 z"
             id="path14028"
             inkscape:connector-curvature="0"
             sodipodi:nodetypes="ccccc" />
          <rect
             style="fill:#aa4400;fill-opacity:1;stroke:none"
             id="rect14032"
             width="13.839286"
             height="1.3755052"
             x="193.23264"
             y="480.29715" />
        </g>
      </g>
      <rect
         style="fill:#803300;fill-opacity:1;stroke:none"
         id="rect14026"
         width="30"
         height="2.2655382"
         x="185.37549"
         y="475.92789" />
    </g>
    <g
       transform="matrix(3.9333348,0,0,3.9333348,-869.52462,-874.5388)"
       id="g14094">
      <path
         style="fill:url(#linearGradient8058);fill-opacity:1"
         d="m 212.51319,459.86121 -4.03766,4.06785 -2.42259,-2.44152 4.03765,-4.06787 2.4226,2.44154 z"
         id="path14042"
         inkscape:connector-curvature="0" />
      <path
         style="fill:#ffffff;fill-opacity:1"
         d="m 208.40628,464.00436 -2.44213,0.004 0,-2.44073 0.16755,-0.15227 0.18321,0.30295 0.19709,0.0736 0.0976,0.26697 0.25493,0.0821 0.12243,0.23652 0.20782,0.0905 0.13096,0.25592 0.2438,0.11516 0.13085,0.27807 0.33823,0.18639 0.17242,0.27509 0.35798,0.2501 z"
         id="path14082"
         inkscape:connector-curvature="0"
         sodipodi:nodetypes="ccccccccccccccccc" />
      <path
         style="fill:#000000;stroke:none"
         d="m 205.96093,463.17859 0.85157,0.83203 -0.85156,0.004 z"
         id="path14092"
         inkscape:connector-curvature="0"
         sodipodi:nodetypes="cccc" />
    </g>
  </g>
</svg>
