<?xml version="1.0" encoding="UTF-8" standalone="no"?>
<!-- Created with Inkscape (http://www.inkscape.org/) -->

<svg
   xmlns:dc="http://purl.org/dc/elements/1.1/"
   xmlns:cc="http://creativecommons.org/ns#"
   xmlns:rdf="http://www.w3.org/1999/02/22-rdf-syntax-ns#"
   xmlns:svg="http://www.w3.org/2000/svg"
   xmlns="http://www.w3.org/2000/svg"
   xmlns:xlink="http://www.w3.org/1999/xlink"
   xmlns:sodipodi="http://sodipodi.sourceforge.net/DTD/sodipodi-0.dtd"
   xmlns:inkscape="http://www.inkscape.org/namespaces/inkscape"
   id="svg2"
   height="128"
   width="128"
   version="1.0"
viewBox="0 0 128 128"
   inkscape:version="0.91 r"
   sodipodi:docname="new_exercice.svg">
  <sodipodi:namedview
     pagecolor="#ffffff"
     bordercolor="#666666"
     borderopacity="1"
     objecttolerance="10"
     gridtolerance="10"
     guidetolerance="10"
     inkscape:pageopacity="0"
     inkscape:pageshadow="2"
     inkscape:window-width="1920"
     inkscape:window-height="1051"
     id="namedview5504"
     showgrid="false"
     inkscape:zoom="2.6074563"
     inkscape:cx="68.606863"
     inkscape:cy="57.010277"
     inkscape:window-x="1366"
     inkscape:window-y="0"
     inkscape:window-maximized="1"
     inkscape:current-layer="svg2" />
  <metadata
     id="metadata170">
    <rdf:RDF>
      <cc:Work
         rdf:about="">
        <dc:format>image/svg+xml</dc:format>
        <dc:type
           rdf:resource="http://purl.org/dc/dcmitype/StillImage" />
        <dc:title></dc:title>
      </cc:Work>
    </rdf:RDF>
  </metadata>
  <defs
     id="defs4">
    <linearGradient
       id="linearGradient3377">
      <stop
         id="stop3379"
         stop-color="#00339e"
         offset="0" />
      <stop
         id="stop3387"
         stop-color="#0062c8"
         offset=".32431" />
      <stop
         id="stop3381"
         stop-color="#4fb0ec"
         offset="1" />
    </linearGradient>
    <filter
       id="filter3210">
      <feGaussianBlur
         id="feGaussianBlur3212"
         stdDeviation="0.48975825" />
    </filter>
    <filter
       id="filter3283">
      <feGaussianBlur
         id="feGaussianBlur3285"
         stdDeviation="0.29866253" />
    </filter>
    <filter
       id="filter3425">
      <feGaussianBlur
         id="feGaussianBlur3427"
         stdDeviation="0.30246456" />
    </filter>
    <filter
       id="filter3437">
      <feGaussianBlur
         id="feGaussianBlur3439"
         stdDeviation="0.90128066" />
    </filter>
    <linearGradient
       id="linearGradient3947"
       y2="307.61"
       gradientUnits="userSpaceOnUse"
       x2="127.95"
       gradientTransform="matrix(0.31443723,0,0,0.31443723,52.976492,6.7280564)"
       y1="77.207"
       x1="127.95">
      <stop
         id="stop563"
         stop-color="#3c3"
         offset="0" />
      <stop
         id="stop564"
         stop-color="#366"
         offset="1" />
    </linearGradient>
    <linearGradient
       id="linearGradient3949"
       y2="307.36"
       gradientUnits="userSpaceOnUse"
       x2="127.95"
       gradientTransform="matrix(0.38177,0,0,0.38177,445.32,231.28)"
       y1="77.367"
       x1="127.95">
      <stop
         id="stop570"
         stop-color="#cf6"
         offset=".0056" />
      <stop
         id="stop571"
         stop-color="#090"
         offset="1" />
    </linearGradient>
    <radialGradient
       id="radialGradient2330"
       gradientUnits="userSpaceOnUse"
       cy="19.631"
       cx="36.255"
       gradientTransform="matrix(1.0733,-6.0093e-8,6.8393e-8,1.2215,-0.7384223,-6.6444933)"
       r="7.3534">
      <stop
         id="stop3255"
         stop-color="#fff"
         offset="0" />
      <stop
         id="stop3257"
         stop-color="#fff"
         stop-opacity=".5"
         offset="1" />
    </radialGradient>
    <linearGradient
       id="linearGradient2333"
       y2="244.68"
       gradientUnits="userSpaceOnUse"
       x2="352.78"
       gradientTransform="translate(-302.65242,-236.38109)"
       y1="258.97"
       x1="351.29">
      <stop
         id="stop3240"
         stop-color="#21b933"
         offset="0" />
      <stop
         id="stop3246"
         stop-color="#35cd35"
         offset=".15053" />
      <stop
         id="stop3242"
         stop-color="#d2ffd1"
         offset="1" />
    </linearGradient>
    <linearGradient
       id="linearGradient2336"
       y2="249.71"
       gradientUnits="userSpaceOnUse"
       x2="350.66"
       gradientTransform="translate(-302.65242,-236.38109)"
       y1="264.18"
       x1="350.66">
      <stop
         id="stop3230"
         stop-color="#037806"
         offset="0" />
      <stop
         id="stop3232"
         stop-color="#39b71d"
         offset="1" />
    </linearGradient>
    <linearGradient
       id="linearGradient2339"
       y2="16.662"
       gradientUnits="userSpaceOnUse"
       x2="63.776"
       y1="16.662"
       x1="30.422"
       gradientTransform="translate(1.9175777,-2.3010933)">
      <stop
         id="stop3218"
         stop-color="#306266"
         offset="0" />
      <stop
         id="stop3224"
         stop-color="#026404"
         offset=".5" />
      <stop
         id="stop3220"
         stop-color="#002931"
         offset="1" />
    </linearGradient>
    <linearGradient
       id="linearGradient2343"
       y2="305.46"
       gradientUnits="userSpaceOnUse"
       x2="405.43"
       gradientTransform="matrix(1.1788,0,0,1.1788,-374.99242,-291.37109)"
       y1="317.2"
       x1="409.9">
      <stop
         id="stop3348"
         stop-color="#fff"
         offset="0" />
      <stop
         id="stop3350"
         stop-color="#b5daff"
         offset="1" />
    </linearGradient>
    <linearGradient
       id="linearGradient2346"
       y2="257.7"
       xlink:href="#linearGradient3377"
       gradientUnits="userSpaceOnUse"
       x2="385.93"
       gradientTransform="translate(-302.65242,-236.38109)"
       y1="339.33"
       x1="350.34" />
    <linearGradient
       id="linearGradient2352"
       y2="70.443"
       gradientUnits="userSpaceOnUse"
       x2="100.08"
       y1="85.691"
       x1="105.23"
       gradientTransform="translate(1.9175777,-2.3010933)">
      <stop
         id="stop3340"
         stop-color="#fff"
         offset="0" />
      <stop
         id="stop3342"
         stop-color="#d0e9ff"
         offset="1" />
    </linearGradient>
    <linearGradient
       id="linearGradient2355"
       y2="28.459"
       gradientUnits="userSpaceOnUse"
       x2="55.679"
       y1="94.561"
       x1="55.679"
       gradientTransform="translate(1.9175777,-2.3010933)">
      <stop
         id="stop3610"
         stop-color="#a166d7"
         offset="0" />
      <stop
         id="stop3612"
         stop-color="#fc76fd"
         offset="1" />
    </linearGradient>
    <linearGradient
       id="linearGradient2360"
       y2="264.79"
       gradientUnits="userSpaceOnUse"
       x2="366.64"
       gradientTransform="translate(-302.65242,-236.38109)"
       y1="332.65"
       x1="354.4">
      <stop
         id="stop3332"
         stop-color="#badeff"
         offset="0" />
      <stop
         id="stop3334"
         stop-color="#fff"
         offset="1" />
    </linearGradient>
    <linearGradient
       id="linearGradient2363"
       y2="28.659"
       gradientUnits="userSpaceOnUse"
       x2="47.893"
       y1="101.58"
       x1="47.893"
       gradientTransform="translate(1.9175777,-2.3010933)">
      <stop
         id="stop3326"
         stop-color="#e3effa"
         offset="0" />
      <stop
         id="stop3328"
         stop-color="#fff"
         offset="1" />
    </linearGradient>
    <linearGradient
       id="linearGradient2367"
       y2="25.053"
       gradientUnits="userSpaceOnUse"
       x2="62.709"
       y1="95.051"
       x1="80.626"
       gradientTransform="translate(1.9175777,-2.3010933)">
      <stop
         id="stop3642"
         stop-color="#ffdc8b"
         offset="0" />
      <stop
         id="stop3644"
         stop-color="#ffecb8"
         offset="1" />
    </linearGradient>
    <linearGradient
       id="linearGradient2370"
       y2="22.031"
       gradientUnits="userSpaceOnUse"
       x2="12.753"
       y1="107.47"
       x1="42.926"
       gradientTransform="translate(1.9175777,-2.3010933)">
      <stop
         id="stop3204"
         stop-color="#fff"
         offset="0" />
      <stop
         id="stop3206"
         stop-color="#fff"
         stop-opacity=".5"
         offset="1" />
    </linearGradient>
    <linearGradient
       id="linearGradient2373"
       y2="245.74"
       gradientUnits="userSpaceOnUse"
       x2="365.23"
       gradientTransform="translate(-302.65242,-236.38109)"
       y1="319.77"
       x1="399.44">
      <stop
         id="stop3196"
         stop-color="#febf2d"
         offset="0" />
      <stop
         id="stop3198"
         stop-color="#fff0c3"
         offset="1" />
    </linearGradient>
    <linearGradient
       id="linearGradient2376"
       y2="291.78"
       gradientUnits="userSpaceOnUse"
       x2="362.7"
       gradientTransform="translate(-302.65242,-236.38109)"
       y1="347.77"
       x1="342.52">
      <stop
         id="stop3188"
         stop-color="#ffec2d"
         offset="0" />
      <stop
         id="stop3190"
         stop-color="#ff6d00"
         offset="1" />
    </linearGradient>
    <linearGradient
       id="linearGradient2379"
       y2="17.886"
       gradientUnits="userSpaceOnUse"
       x2="77.453"
       y1="117.11"
       x1="40.437"
       gradientTransform="translate(1.9175777,-2.3010933)">
      <stop
         id="stop3172"
         stop-color="#820000"
         offset="0" />
      <stop
         id="stop3174"
         stop-color="#fe3200"
         offset="1" />
    </linearGradient>
    <radialGradient
       id="radialGradient3362"
       gradientUnits="userSpaceOnUse"
       cy="258.95"
       cx="515.44"
       gradientTransform="matrix(-0.68912,0,1.2875e-6,-0.66403,465.92758,205.22891)"
       r="30.028">
      <stop
         id="stop3931"
         stop-color="#ceff67"
         offset="0" />
      <stop
         id="stop3933"
         stop-color="#ceff67"
         stop-opacity="0"
         offset="1" />
    </radialGradient>
    <radialGradient
       id="radialGradient3365"
       gradientUnits="userSpaceOnUse"
       cy="101.16"
       cx="57.085"
       gradientTransform="matrix(0.32762,0,0,0.24565,52.224578,13.685907)"
       r="120.81">
      <stop
         id="stop3917"
         stop-color="#fff"
         offset="0" />
      <stop
         id="stop3919"
         stop-color="#82d655"
         offset="1" />
    </radialGradient>
    <linearGradient
       id="linearGradient3370"
       y2="212.99"
       gradientUnits="userSpaceOnUse"
       x2="127.95"
       gradientTransform="matrix(0.31444,0,0,0.31444,52.977578,6.7274067)"
       y1="47.327"
       x1="127.95">
      <stop
         id="stop556"
         stop-color="#090"
         offset="0" />
      <stop
         id="stop557"
         stop-color="#334966"
         offset="1" />
    </linearGradient>
    <filter
       id="filter3315">
      <feGaussianBlur
         id="feGaussianBlur3317"
         stdDeviation="0.32406465" />
    </filter>
    <filter
       id="filter5261">
      <feGaussianBlur
         id="feGaussianBlur5263"
         stdDeviation="0.30019291" />
    </filter>
    <filter
       id="filter6238">
      <feGaussianBlur
         id="feGaussianBlur6240"
         stdDeviation="1.9093925" />
    </filter>
    <radialGradient
       inkscape:collect="always"
       xlink:href="#linearGradient4799"
       id="radialGradient5866"
       gradientUnits="userSpaceOnUse"
       gradientTransform="matrix(2.1296766,0,0,2.1799157,-82.742712,-907.03594)"
       cx="55.21796"
       cy="458.46527"
       fx="55.21796"
       fy="458.46527"
       r="15.213428" />
    <linearGradient
       id="linearGradient4799">
      <stop
         style="stop-color:#ffde00;stop-opacity:1;"
         offset="0"
         id="stop4801" />
      <stop
         style="stop-color:#ffa700;stop-opacity:1;"
         offset="1"
         id="stop4803" />
    </linearGradient>
    <linearGradient
       inkscape:collect="always"
       xlink:href="#linearGradient3377"
       id="linearGradient6122"
       gradientUnits="userSpaceOnUse"
       gradientTransform="translate(-302.65242,-236.38109)"
       x1="350.34"
       y1="339.33"
       x2="385.93"
       y2="257.7" />
  </defs>
  <g
     id="g6152"
     transform="matrix(0.95029595,0,0,1.0010228,0.04002031,-0.06215879)">
    <path
       d="M 6.7167777,35.678907 33.330778,110.31891 c 1.789,5.02 6.689,7.86 13.687,6.69 l 68.430002,-11.38 c 7.66,-1.27 11.04,-14.323003 8.44,-19.723003 l -30.211002,-62.678 c -3.436,-7.128 -9.801,-11.791 -20.841,-10.732 l -55.913,5.366 c -2.554,0.245 -6.6322,2.155 -8.0249003,6.029 l -1.621,4.508 c -1.0641,2.959 -1.5053,4.628 -0.5599,7.28 z"
       id="path3441"
       inkscape:connector-curvature="0"
       style="opacity:0.5;fill-rule:evenodd" />
    <path
       d="M 5.7868777,33.945907 32.401878,108.58891 c 1.788,5.02 6.688,7.85 13.686,6.69 l 68.430002,-11.38 c 7.66,-1.27 11.04,-14.326003 8.44,-19.726003 l -30.211002,-62.678 c -3.436,-7.128 -9.801,-11.7910003 -20.841,-10.732 l -55.913,5.366 c -2.554,0.245 -6.6321003,2.155 -8.0248003,6.029 l -1.621,4.508 c -1.0641,2.96 -1.5053,4.628 -0.5599,7.28 z"
       id="path2396"
       style="fill:url(#linearGradient2379);fill-rule:evenodd"
       inkscape:connector-curvature="0" />
    <path
       d="M 9.4825777,35.777907 34.578578,106.96891 c 1.659,4.71 4.483,6.14 11.037,5.03 l 68.252002,-11.6 c 6.4,-1.090003 7.73,-11.998003 6.35,-14.831003 l -31.422002,-64.646 c -2.116,-4.354 -6.475,-8.535 -16.822,-7.555 l -53.367,5.055 c -2.515,0.238 -6.7731,0.614 -8.2625,4.66 l -1.8489003,5.022 c -1.0182,2.766 0.1104,5.186 0.9874,7.674 z"
       id="path3168"
       style="fill:url(#linearGradient2376);fill-rule:evenodd"
       inkscape:connector-curvature="0" />
    <path
       d="m 36.778578,98.838907 c 1.878,6.680003 6.412,7.240003 14.886,5.790003 L 115.62758,93.689907 c 6.39,-1.094 5.97,-5.289 4.59,-8.122 l -31.422002,-64.646 c -1.933,-3.348 -6.475,-8.535 -16.822,-7.555 l -53.367,5.055 c -1.86,0.176 -4.675,0.428 -6.617,2.185 -0.6828,0.618 -1.8391,2.693 -0.9856,5.114 l 25.775,73.118 z"
       id="path3178"
       style="fill:url(#linearGradient2373);fill-rule:evenodd"
       inkscape:connector-curvature="0" />
    <path
       d="m 13.229578,19.729907 c -0.438,0.241 -0.865,0.528 -1.25,0.875 -0.6826,0.618 -1.8217,2.704 -0.9682,5.125 l 25.781,73.089 c 1.879,6.690003 6.401,7.270003 14.875,5.820003 L 115.63738,93.698907 c 4.38,-0.749 5.54,-2.965 5.4,-5.188 -0.8,1.001 -2.21,1.822 -4.53,2.219 L 52.542378,101.66891 c -8.473,1.45 -12.996,0.87 -14.875,-5.814003 l -25.125,-71.344 c -0.7363,-2.092 0.026,-3.922 0.687,-4.781 z"
       id="path3182"
       style="fill:url(#linearGradient2370);fill-rule:evenodd;filter:url(#filter3210)"
       inkscape:connector-curvature="0" />
    <path
       d="m 115.33758,87.586907 -35.527002,-69.086 -61.95,5.314 24.902,75.614 72.575002,-11.842 z"
       id="path3630"
       style="fill:url(#linearGradient2367);fill-rule:evenodd"
       inkscape:connector-curvature="0" />
    <path
       d="m 84.034578,21.431907 -62.343,2.375 c -0.473,0.016 -0.917,0.237 -1.188,0.625 -0.27,0.387 -0.335,0.895 -0.187,1.344 l 25.687,77.123003 c 0.765,2.3 3.092,3.73 5.25,3.13 L 110.18758,89.556907 c 0.53,-0.159 0.92,-0.59 1.03,-1.125 l 4.5,-20.875 c 0.1,-0.423 0.01,-0.868 -0.25,-1.219 -10.33,-14.33 -20.027002,-29.655 -30.120002,-44.281 -0.301,-0.421 -0.797,-0.657 -1.313,-0.625 z"
       id="path3433"
       inkscape:connector-curvature="0"
       style="opacity:0.5;fill-rule:evenodd;filter:url(#filter3437)" />
    <path
       d="m 22.291578,23.982907 60.345,-2.799 c 10.071,14.593 19.781002,29.186 29.511002,43.779 l -4.7,20.136 -58.716002,15.720003 -26.44,-76.836003 z"
       id="path3287"
       style="fill:url(#linearGradient2363);fill-rule:evenodd"
       inkscape:connector-curvature="0" />
    <path
       d="m 24.573578,24.260907 57.502,-2.165 c 9.466,13.717 18.750002,28.679 27.902002,42.396 l -3.8,18.15 -55.195002,14.773 -26.409,-73.154 z"
       id="path3312"
       style="fill:url(#linearGradient2360);fill-rule:evenodd"
       inkscape:connector-curvature="0" />
    <path
       d="m 26.985578,30.899907 58.418,-3.612 m -56.006,9.94 59.333,-5.06 m -57.076,11.388 60.249,-6.507 m -57.838,13.302 61.165,-7.955 m -56.185,21.7 62.992002,-10.85 m -60.114002,18.423 63.914002,-12.298 m -58.547002,20.492 56.117002,-11.897 m -53.004002,21.287 57.554002,-14.367 m -71.324002,-17.896 62.081,-9.402"
       id="path3557"
       inkscape:connector-curvature="0"
       style="fill:none;stroke:#3769e6;stroke-width:0.5" />
    <path
       d="m 111.35758,63.237907 -16.470002,3.219 c -0.176,0.031 -0.332,0.119 -0.406,0.281 -0.075,0.162 -0.059,0.377 0.031,0.531 l 11.435002,19.156 0.94,-0.531 4.69,-21.562 -0.22,-1.094 z"
       id="path3398"
       inkscape:connector-curvature="0"
       style="opacity:0.25;fill-rule:evenodd;filter:url(#filter3425)" />
    <path
       d="m 32.792578,25.823907 -2.031,0.063 -0.063,0.031 26.938,68.062 1.906,-0.531 -26.75,-67.625 z"
       id="path3598"
       style="fill:url(#linearGradient2355);fill-rule:evenodd"
       inkscape:connector-curvature="0" />
    <path
       d="m 96.789578,67.841907 15.358002,-2.879 -4.88,20.853 -10.478002,-17.974 z"
       id="path3293"
       style="fill:url(#linearGradient2352);fill-rule:evenodd"
       inkscape:connector-curvature="0" />
    <path
       d="m 83.105578,19.698907 -62.344,2.375 c -0.473,0.016 -0.917,0.238 -1.188,0.625 -0.27,0.387 -0.335,0.895 -0.187,1.344 l 25.687,77.126003 c 0.765,2.3 3.092,3.73 5.25,3.12 L 109.25758,87.823907 c 0.53,-0.159 0.92,-0.59 1.04,-1.125 l 4.5,-20.875 c 0.09,-0.423 0,-0.868 -0.26,-1.219 -10.33,-14.33 -20.026002,-29.655 -30.120002,-44.281 -0.301,-0.421 -0.797,-0.657 -1.312,-0.625 z m -0.469,1.5 c 10.07,14.593 19.801002,29.157 29.531002,43.75 l -4.72,20.156 -0.03,0 -0.16,0.719 -0.34,-0.594 -58.188002,15.589003 -26.437,-76.839003 60.344,-2.781 z"
       id="path3375"
       style="fill:url(#linearGradient6122);fill-rule:evenodd"
       inkscape:connector-curvature="0" />
    <path
       d="m 112.29758,63.698907 -16.474002,3.219 c -0.175,0.031 -0.331,0.119 -0.406,0.281 -0.075,0.162 -0.059,0.377 0.031,0.531 l 11.439002,19.157 0.94,-0.532 -11.035002,-18.531 15.715002,-3.031 -0.21,-1.094 z"
       id="path3393"
       style="fill:url(#linearGradient2346);fill-rule:evenodd"
       inkscape:connector-curvature="0" />
    <path
       d="m 111.86758,66.163907 -13.044002,2.504 8.964002,14.965 4.08,-17.469 z"
       id="path3299"
       style="fill:url(#linearGradient2343);fill-rule:evenodd"
       inkscape:connector-curvature="0" />
    <path
       d="m 32.047578,14.659907 c 7.052,-8.4096003 17.965,-9.9958003 25.103,-5.5470003 1.557,0.9590003 13.561,8.6200003 9.665,15.7830003 -2.266,4.166 -8.884,4.801 -15.362,5.608 -8.868,1.105 -10.209,-0.445 -11.753,-1.703 -3.391,-2.766 -6.435,-9.472 -7.653,-14.141 z"
       id="path3279"
       inkscape:connector-curvature="0"
       style="opacity:0.5;fill-rule:evenodd;filter:url(#filter3283)" />
    <path
       d="m 31.424578,13.903907 c 7.052,-8.4099003 17.965,-9.9960003 25.104,-5.5470003 1.557,0.959 13.561,8.6190003 9.664,15.7830003 -2.266,4.166 -8.884,4.801 -15.361,5.608 -8.869,1.105 -10.21,-0.445 -11.753,-1.704 -3.392,-2.765 -6.436,-9.471 -7.654,-14.14 z"
       id="path3214"
       style="fill:url(#linearGradient2339);fill-rule:evenodd"
       inkscape:connector-curvature="0" />
    <path
       d="m 33.040578,13.645907 c 6.267,-7.4733003 16.365,-8.5397003 22.708,-4.5860003 1.384,0.852 11.546,8.0340003 8.588,14.0250003 -2.296,4.652 -20.155,6.693 -24.007,3.773 -4.57,-3.464 -6.207,-9.063 -7.289,-13.212 z"
       id="path3226"
       style="fill:url(#linearGradient2336);fill-rule:evenodd"
       inkscape:connector-curvature="0" />
    <path
       d="m 35.456578,12.593907 c 4.474,-4.7120003 12.393,-6.9233003 20.007,-3.2480003 1.383,0.8520003 10.402,8.1870003 5.099,12.2520003 -3.382,2.594 -14.836,4.496 -18.357,2.449 -4.199,-2.441 -6.932,-7.661 -6.749,-11.453 z"
       id="path3236"
       style="fill:url(#linearGradient2333);fill-rule:evenodd"
       inkscape:connector-curvature="0" />
    <path
       d="m 36.855578,11.292907 c -0.285,0.234 -0.579,0.468 -0.844,0.718 -0.19,0.231 -0.372,0.455 -0.563,0.594 -0.034,0.711 0.027,1.467 0.188,2.25 0.215,1.045 0.602,2.129 1.125,3.188 0.392,0.794 0.863,1.575 1.406,2.312 0.905,1.227 1.997,2.322 3.25,3.188 0.007,0.005 0.024,-0.005 0.031,0 0.244,0.167 0.495,0.352 0.75,0.5 0.203,0.117 0.436,0.22 0.688,0.312 0.135,0.05 0.289,0.083 0.437,0.125 0.405,0.115 0.825,0.217 1.313,0.281 0.095,0.014 0.183,0.021 0.281,0.032 0.251,0.028 0.514,0.046 0.781,0.062 0.728,0.045 1.497,0.066 2.313,0.032 0.816,-0.035 1.677,-0.116 2.531,-0.219 -1.768,-0.277 -3.709,-0.268 -4.781,-0.657 -8.722,-4.056 -8.625,-9.863 -8.906,-12.718 z"
       id="path3248"
       style="fill:url(#radialGradient2330);fill-rule:evenodd"
       inkscape:connector-curvature="0" />
    <path
       transform="matrix(0.31444,0,0,0.31444,-117.19242,-92.226093)"
       d="m 758.49,359.91 c 0,0 -130.56,89.47 -132.58,90.86 -1.69,-1.68 -41.78,-41.6 -41.78,-41.6 -2.98,-2.96 -6.89,-4.06 -10.47,-2.94 -3.89,1.23 -6.4,4.01 -7.08,7.81 l -0.42,2.36 c -0.13,0.77 -0.12,1.53 0.04,2.29 l 0.59,2.8 0.41,1.25 46.25,101.69 c 1.45,3.18 4.38,5.43 7.83,6 3.44,0.58 6.94,-0.6 9.35,-3.14 L 771.86,378 c 2.07,-2.17 3.26,-5.27 3.26,-8.49 l -0.13,-1.23 -0.57,-2.72 c -0.7,-3.33 -2.86,-5.81 -6.23,-7.16 -2.16,-0.87 -5.59,-1.31 -9.7,1.51 z"
       id="path554"
       inkscape:connector-curvature="0"
       style="opacity:0.5;filter:url(#filter6238)" />
    <path
       d="m 120.84758,20.502907 c 0,0 -41.052002,28.133 -41.687002,28.569 -0.531,-0.53 -13.137,-13.079 -13.137,-13.079 -0.936,-0.934 -2.166,-1.28 -3.291,-0.926 -1.223,0.388 -2.013,1.26 -2.226,2.456 l -0.132,0.743 c -0.043,0.24 -0.038,0.481 0.012,0.718 l 0.185,0.881 0.128,0.392 14.544,31.977 c 0.456,1.001 1.376,1.706 2.462,1.887 1.082,0.182 2.181,-0.188 2.94,-0.989 l 44.412002,-46.943 c 0.65,-0.682 1.02,-1.655 1.02,-2.667 l -0.04,-0.388 -0.18,-0.857 c -0.22,-1.047 -0.9,-1.825 -1.96,-2.25 -0.68,-0.272 -1.76,-0.41 -3.05,0.476 z"
       id="path561"
       style="fill:url(#linearGradient3370);filter:url(#filter5261)"
       inkscape:connector-curvature="0" />
    <path
       d="m 121.90609,22.064047 c 0,0 -42.589911,29.189447 -42.977017,29.453009 C 77.322994,49.919214 64.68851,37.334147 64.68851,37.334147 c -0.370633,-0.370633 -0.88952,-0.625959 -1.391935,-0.461233 -0.502414,0.15649 -0.848338,0.461233 -0.938938,0.98012 l -0.131781,0.741267 0.189435,0.881284 c 0,0.0082 14.53707,31.981553 14.53707,31.981553 0.197671,0.428288 0.593013,0.724794 1.054246,0.807158 0.469469,0.07413 0.938938,-0.08236 1.260154,-0.428288 L 123.67689,24.897334 c 0.32122,-0.337688 0.51065,-0.840102 0.51065,-1.375462 l -0.1812,-0.856575 c -0.0988,-0.461233 -0.37887,-0.708322 -0.81539,-0.881284 -0.43652,-0.181199 -0.88952,0.0082 -1.28486,0.280034 z"
       id="path568"
       style="fill:url(#linearGradient3947)"
       inkscape:connector-curvature="0" />
    <path
       transform="matrix(0.82363,0,0,0.82363,-313.80242,-183.76109)"
       d="m 477.57,287.23 c -0.55,0.38 -1.28,0.31 -1.74,-0.15 0,0 -17.15,-17.08 -17.5,-17.43 -0.04,0.1 -0.06,0.21 -0.06,0.32 0,0.13 0.02,0.26 0.07,0.37 0,0 17.6,38.69 17.66,38.81 0.33,-0.35 53.91,-56.99 53.91,-56.99 0.09,-0.1 0.15,-0.29 0.15,-0.49 0,-0.12 -0.03,-0.24 -0.08,-0.35 -0.39,0.26 -52.41,35.91 -52.41,35.91 z"
       id="path575"
       style="fill:url(#linearGradient3949);filter:url(#filter3315)"
       inkscape:connector-curvature="0" />
    <path
       d="m 80.181578,53.743907 0,10e-4 c -0.896,0.612 -2.104,0.502 -2.872,-0.263 0,0 -6.305,-6.278 -10.466,-10.421 3.329,7.321 9.646,21.209 11.737,25.805 1.911,-2.019 29.507002,-31.185 37.727002,-39.878 -9.87,6.761 -36.126002,24.756 -36.126002,24.756 z"
       id="path582"
       style="fill:url(#radialGradient3365)"
       inkscape:connector-curvature="0" />
    <path
       d="m 80.181578,53.743907 0,10e-4 c -0.896,0.612 -2.104,0.502 -2.872,-0.263 0,0 -6.305,-6.278 -10.466,-10.421 3.329,7.321 9.646,21.209 11.737,25.805 1.911,-2.019 29.507002,-31.185 37.727002,-39.878 -9.87,6.761 -36.126002,24.756 -36.126002,24.756 z"
       id="path3927"
       style="fill:url(#radialGradient3362)"
       inkscape:connector-curvature="0" />
  </g>
  <path
     sodipodi:nodetypes="ccccccccccccccccccccccccc"
     inkscape:connector-curvature="0"
     id="path4797"
     d="M 31.724453,82.77986 31.616075,63.395156 c 0.124236,-4.256503 7.817593,-4.012249 8.338674,-0.108411 l 0,19.168052 12.887024,-12.995219 c 3.162323,-2.966662 7.762355,2.240415 4.981541,5.198203 l -12.020679,13.536745 16.893932,0.108477 c 4.928052,0.6399 4.306917,8.781105 0.216501,9.096918 L 46.560615,97.291462 58.906168,109.20384 c 2.914729,3.26334 -0.973761,8.91653 -5.306415,6.0646 l -13.86168,-13.3203 -0.108335,19.16806 c 0.490076,4.0706 -7.852137,4.83961 -8.663547,0.10846 l 0.108302,-18.19341 -12.237268,12.23722 c -4.307964,1.06038 -7.8444,-2.00228 -6.17277,-5.73954 L 25.659785,97.07505 6.9248597,97.291874 C 2.309888,96.395724 2.421862,88.796037 7.0332349,88.195172 L 26.201329,88.086699 12.772831,74.874823 c -2.612645,-4.158128 1.870223,-8.367515 5.414718,-5.847956 z"
     style="overflow:visible;fill:url(#radialGradient5866);fill-opacity:1;stroke:#ff4100;stroke-width:3.19451427;stroke-linecap:round;stroke-linejoin:round;stroke-miterlimit:4;stroke-dasharray:none;stroke-opacity:1" />
</svg>
