<?xml version="1.0" encoding="UTF-8" standalone="no"?>
<!-- Created with Inkscape (http://www.inkscape.org/) -->
<svg
   xmlns:a="http://ns.adobe.com/AdobeSVGViewerExtensions/3.0/"
   xmlns:svg="http://www.w3.org/2000/svg"
   xmlns="http://www.w3.org/2000/svg"
   version="1.0"
   width="48pt"
   height="48pt"
   viewBox="0 0 256 256"
   id="svg2"
   xml:space="preserve"><defs
   id="defs134" />
	
		<g
   id="Layer_1">
			<rect
   width="256"
   height="256"
   x="0"
   y="0"
   style="fill:none"
   id="_x3C_Slice_x3E_" /> 
		</g>
		<g
   id="Layer_2">
			<g
   id="g9">
				
					<linearGradient
   x1="105.15137"
   y1="177.91406"
   x2="228.31577"
   y2="177.91406"
   id="XMLID_15_"
   gradientUnits="userSpaceOnUse">
					<stop
   style="stop-color:#585868;stop-opacity:1"
   offset="0"
   id="stop12" />
					<stop
   style="stop-color:#333366;stop-opacity:1"
   offset="1"
   id="stop14" />
					<a:midPointStop
   style="stop-color:#585868"
   offset="0" />
					<a:midPointStop
   style="stop-color:#585868"
   offset="0.5" />
					<a:midPointStop
   style="stop-color:#333366"
   offset="1" />
				</linearGradient>
				<path
   d="M 90.637695,105.95068 L 21.024902,137.06934 C 19.596191,137.70703 18.67627,139.12695 18.67627,140.69043 C 18.67627,140.69434 18.67627,140.69629 18.67627,140.7002 C 18.67627,140.73047 18.689453,140.75977 18.689941,140.79102 C 18.689453,140.82422 18.67627,140.85254 18.67627,140.88574 C 18.67627,140.88965 18.67627,140.8916 18.67627,140.89551 C 18.67627,140.92676 18.688965,140.95605 18.689941,140.98633 C 18.689453,141.01953 18.67627,141.04883 18.67627,141.08203 C 18.67627,141.08594 18.67627,141.08887 18.67627,141.09277 C 18.67627,141.12402 18.688965,141.15137 18.689941,141.18262 C 18.688965,141.21484 18.67627,141.24414 18.67627,141.27539 C 18.67627,141.2793 18.67627,141.2832 18.67627,141.28711 C 18.67627,141.31836 18.688965,141.34668 18.689941,141.37793 C 18.689453,141.40918 18.67627,141.44043 18.67627,141.4707 C 18.67627,141.47461 18.67627,141.47852 18.67627,141.48242 C 18.67627,141.51367 18.688965,141.54297 18.689941,141.57324 C 18.688965,141.60449 18.67627,141.63379 18.67627,141.66699 C 18.67627,141.6709 18.67627,141.67285 18.67627,141.67676 C 18.67627,141.70703 18.688965,141.73633 18.689941,141.76758 C 18.689453,141.80078 18.67627,141.8291 18.67627,141.8623 C 18.67627,141.86621 18.67627,141.87012 18.67627,141.87402 C 18.67627,141.90527 18.688965,141.93164 18.689941,141.96289 C 18.688965,141.99609 18.67627,142.02539 18.67627,142.05566 C 18.67627,142.05957 18.67627,142.06348 18.67627,142.06738 C 18.67627,142.09863 18.688965,142.12793 18.689941,142.15918 C 18.689453,142.18945 18.67627,142.2207 18.67627,142.25195 C 18.67627,142.25586 18.67627,142.25977 18.67627,142.26367 C 18.67627,142.29395 18.688965,142.32324 18.689941,142.35449 C 18.688965,142.38574 18.67627,142.41406 18.67627,142.44727 C 18.67627,142.44922 18.67627,142.45117 18.67627,142.45508 C 18.67627,142.48633 18.689453,142.51563 18.689941,142.54785 C 18.689453,142.5791 18.67627,142.6084 18.67627,142.6416 C 18.67627,142.64551 18.67627,142.64844 18.67627,142.65234 C 18.67627,142.68359 18.688965,142.71289 18.689941,142.74414 C 18.689453,142.77441 18.67627,142.80566 18.67627,142.83691 C 18.67627,142.84082 18.67627,142.84473 18.67627,142.84863 C 18.67627,142.87988 18.688965,142.9082 18.689941,142.93945 C 18.688965,142.9707 18.67627,143 18.67627,143.03223 C 18.67627,143.03613 18.67627,143.03809 18.67627,143.04199 C 18.67627,143.07324 18.688965,143.10254 18.689941,143.13281 C 18.689453,143.16602 18.67627,143.19531 18.67627,143.22852 C 18.67627,143.23242 18.67627,143.23633 18.67627,143.24023 C 18.67627,143.27051 18.688965,143.29785 18.689941,143.3291 C 18.688965,143.3623 18.67627,143.39063 18.67627,143.42188 C 18.67627,143.42578 18.67627,143.42969 18.67627,143.43359 C 18.67627,143.46484 18.688965,143.49316 18.689941,143.52441 C 18.689453,143.55566 18.67627,143.58691 18.67627,143.61719 C 18.67627,143.62109 18.67627,143.625 18.67627,143.62891 C 18.67627,143.66016 18.688965,143.68945 18.689941,143.7207 C 18.688965,143.75098 18.67627,143.78027 18.67627,143.81348 C 18.67627,143.81738 18.67627,143.81934 18.67627,143.82324 C 18.67627,143.85352 18.688965,143.88281 18.689941,143.91406 C 18.689453,143.94727 18.67627,143.97559 18.67627,144.00879 C 18.67627,144.0127 18.67627,144.0166 18.67627,144.02051 C 18.67627,144.05176 18.688965,144.0791 18.689941,144.10938 C 18.688965,144.14258 18.67627,144.17188 18.67627,144.20313 C 18.67627,144.20703 18.67627,144.20898 18.67627,144.21094 C 18.67627,144.24316 18.689453,144.27246 18.689941,144.30371 C 18.689453,144.33594 18.67627,144.36523 18.67627,144.39844 C 18.67627,144.40234 18.67627,144.4043 18.67627,144.4082 C 18.67627,144.43945 18.688965,144.46777 18.689941,144.49902 C 18.689453,144.53223 18.67627,144.56152 18.67627,144.59375 C 18.67627,144.59766 18.67627,144.60156 18.67627,144.60547 C 18.67627,144.63672 18.688965,144.66406 18.689941,144.69531 C 18.688965,144.72754 18.67627,144.75684 18.67627,144.78809 C 18.67627,144.79199 18.67627,144.7959 18.67627,144.7998 C 18.67627,144.83008 18.688965,144.85938 18.689941,144.89063 C 18.689453,144.92188 18.67627,144.95215 18.67627,144.9834 C 18.67627,144.9873 18.67627,144.99121 18.67627,144.99512 C 18.67627,145.02637 18.688965,145.05566 18.689941,145.08594 C 18.688965,145.11719 18.67627,145.14648 18.67627,145.17871 C 18.67627,145.18262 18.67627,145.18457 18.67627,145.18848 C 18.67627,145.21973 18.688965,145.24902 18.689941,145.28027 C 18.689453,145.3125 18.67627,145.3418 18.67627,145.375 C 18.67627,145.37891 18.67627,145.38281 18.67627,145.38672 C 18.67627,145.41699 18.688965,145.44434 18.689941,145.47559 C 18.688965,145.50879 18.67627,145.53711 18.67627,145.56836 C 18.67627,145.57227 18.67627,145.57617 18.67627,145.58008 C 18.67627,145.61133 18.688965,145.64063 18.689941,145.6709 C 18.689453,145.70215 18.67627,145.7334 18.67627,145.76465 C 18.67627,145.76856 18.67627,145.77246 18.67627,145.77637 C 18.67627,145.80664 18.688965,145.83594 18.689941,145.86719 C 18.688965,145.89844 18.67627,145.92676 18.67627,145.95996 C 18.67627,145.96191 18.67627,145.96387 18.67627,145.96777 C 18.67627,145.99902 18.689453,146.02734 18.689941,146.06055 C 18.689453,146.0918 18.67627,146.12109 18.67627,146.15332 C 18.67627,146.15723 18.67627,146.16113 18.67627,146.16504 C 18.67627,146.19629 18.688965,146.22559 18.689941,146.25684 C 18.689453,146.28711 18.67627,146.31836 18.67627,146.34961 C 18.67627,146.35352 18.67627,146.35742 18.67627,146.36133 C 18.67627,146.3916 18.688965,146.4209 18.689941,146.45215 C 18.688965,146.4834 18.67627,146.51172 18.67627,146.54492 C 18.67627,146.54883 18.67627,146.55078 18.67627,146.55469 C 18.67627,146.58594 18.688965,146.61523 18.689941,146.64551 C 18.689453,146.67871 18.67627,146.70801 18.67627,146.74023 C 18.67627,146.74414 18.67627,146.74805 18.67627,146.75195 C 18.67627,146.7832 18.688965,146.81055 18.689941,146.8418 C 18.688965,146.87402 18.67627,146.90332 18.67627,146.93457 C 18.67627,146.93848 18.67627,146.94238 18.67627,146.94629 C 18.67627,146.97754 18.688965,147.00586 18.689941,147.03711 C 18.689453,147.06836 18.67627,147.09961 18.67627,147.12988 C 18.67627,147.13379 18.67627,147.1377 18.67627,147.1416 C 18.67627,147.17285 18.688965,147.20215 18.689941,147.23242 C 18.688965,147.26367 18.67627,147.29297 18.67627,147.32617 C 18.67627,147.32813 18.67627,147.33008 18.67627,147.33398 C 18.67627,147.36426 18.689453,147.39356 18.689941,147.42676 C 18.689453,147.45801 18.67627,147.48633 18.67627,147.51953 C 18.67627,147.52344 18.67627,147.52734 18.67627,147.53125 C 18.67627,147.5625 18.688965,147.59082 18.689941,147.62207 C 18.689453,147.65332 18.67627,147.68457 18.67627,147.71484 C 18.67627,147.71875 18.67627,147.72266 18.67627,147.72656 C 18.67627,147.75781 18.688965,147.78711 18.689941,147.81836 C 18.688965,147.84863 18.67627,147.87793 18.67627,147.91113 C 18.67627,147.91504 18.67627,147.91699 18.67627,147.9209 C 18.67627,147.95117 18.688965,147.98047 18.689941,148.01172 C 18.689453,148.04492 18.67627,148.07324 18.67627,148.10645 C 18.67627,148.11035 18.67627,148.11426 18.67627,148.11816 C 18.67627,148.14941 18.688965,148.17676 18.689941,148.20703 C 18.688965,148.24023 18.67627,148.26953 18.67627,148.30078 C 18.67627,148.30469 18.67627,148.30762 18.67627,148.31152 C 18.67627,148.34277 18.688965,148.37207 18.689941,148.40332 C 18.689453,148.43359 18.67627,148.46484 18.67627,148.49609 C 18.67627,148.5 18.67627,148.50391 18.67627,148.50781 C 18.67627,148.53906 18.688965,148.56738 18.689941,148.59863 C 18.688965,148.62988 18.67627,148.65918 18.67627,148.69141 C 18.67627,148.69531 18.67627,148.69727 18.67627,148.70117 C 18.67627,148.73242 18.688965,148.76172 18.689941,148.79199 C 18.689453,148.8252 18.67627,148.85449 18.67627,148.8877 C 18.67627,148.8916 18.67627,148.89551 18.67627,148.89941 C 18.67627,148.92969 18.688965,148.95703 18.689941,148.98828 C 18.688965,149.02148 18.67627,149.04981 18.67627,149.08106 C 18.67627,149.08496 18.67627,149.08691 18.67627,149.08887 C 18.67627,149.12207 18.689453,149.15039 18.689941,149.18164 C 18.689453,149.21484 18.67627,149.24414 18.67627,149.27637 C 18.67627,149.28027 18.67627,149.28223 18.67627,149.28613 C 18.67627,149.31738 18.688965,149.34668 18.689941,149.37793 C 18.689453,149.41016 18.67627,149.43945 18.67627,149.47266 C 18.67627,149.47656 18.67627,149.48047 18.67627,149.48438 C 18.67627,149.51465 18.688965,149.54199 18.689941,149.57324 C 18.688965,149.60645 18.67627,149.63477 18.67627,149.66602 C 18.67627,149.66992 18.67627,149.67383 18.67627,149.67773 C 18.67627,149.70898 18.688965,149.73828 18.689941,149.76856 C 18.689453,149.79981 18.67627,149.83106 18.67627,149.86231 C 18.67627,149.86621 18.67627,149.86914 18.67627,149.87305 C 18.67627,149.9043 18.688965,149.93359 18.689941,149.96484 C 18.688965,149.99512 18.67627,150.02441 18.67627,150.05762 C 18.67627,150.06152 18.67627,150.06348 18.67627,150.06738 C 18.67627,150.09863 18.688965,150.12695 18.689941,150.1582 C 18.689453,150.19141 18.67627,150.2207 18.67627,150.25293 C 18.67627,150.25684 18.67627,150.26074 18.67627,150.26465 C 18.67627,150.2959 18.688965,150.32324 18.689941,150.35352 C 18.688965,150.38672 18.67627,150.41602 18.67627,150.44727 C 18.67627,150.45117 18.67627,150.45508 18.67627,150.45898 C 18.67627,150.48926 18.688965,150.51856 18.689941,150.54981 C 18.689453,150.58106 18.67627,150.61133 18.67627,150.64258 C 18.67627,150.64648 18.67627,150.65039 18.67627,150.6543 C 18.67627,150.68555 18.688965,150.71387 18.689941,150.74512 C 18.688965,150.77637 18.67627,150.80566 18.67627,150.83789 C 18.67627,150.83984 18.67627,150.8418 18.67627,150.8457 C 18.67627,150.87695 18.689453,150.90625 18.689941,150.93945 C 18.689453,150.96973 18.67627,150.99902 18.67627,151.03223 C 18.67627,151.03613 18.67627,151.04004 18.67627,151.04395 C 18.67627,151.07422 18.688965,151.10352 18.689941,151.13477 C 18.689453,151.16602 18.67627,151.19629 18.67627,151.22754 C 18.67627,151.23145 18.67627,151.23535 18.67627,151.23926 C 18.67627,151.27051 18.688965,151.29981 18.689941,151.33008 C 18.688965,151.36133 18.67627,151.39063 18.67627,151.42383 C 18.67627,151.42773 18.67627,151.42969 18.67627,151.43359 C 18.67627,151.46387 18.688965,151.49316 18.689941,151.52441 C 18.689453,151.55664 18.67627,151.58594 18.67627,151.61914 C 18.67627,151.62305 18.67627,151.62695 18.67627,151.63086 C 18.67627,151.66211 18.688965,151.68848 18.689941,151.71973 C 18.688965,151.75293 18.67627,151.78223 18.67627,151.8125 C 18.67627,151.81641 18.67627,151.82031 18.67627,151.82422 C 18.67627,151.85547 18.688965,151.88477 18.689941,151.91504 C 18.689453,151.94629 18.67627,151.97754 18.67627,152.00879 C 18.67627,152.0127 18.67627,152.0166 18.67627,152.02051 C 18.67627,152.05078 18.688965,152.08008 18.689941,152.11133 C 18.688965,152.14258 18.67627,152.1709 18.67627,152.2041 C 18.67627,152.20801 18.67627,152.20996 18.67627,152.21387 C 18.67627,152.24512 18.688965,152.27441 18.689941,152.30469 C 18.689453,152.33789 18.67627,152.36719 18.67627,152.39941 C 18.67627,152.40332 18.67627,152.40723 18.67627,152.41113 C 18.67627,152.44238 18.688965,152.46973 18.689941,152.50098 C 18.688965,152.5332 18.67627,152.5625 18.67627,152.59375 C 18.67627,152.59766 18.67627,152.59961 18.67627,152.60156 C 18.679688,154.1709 19.607422,155.59082 21.042969,156.22461 C 21.042969,156.22461 58.303711,172.65723 70.333984,177.96387 C 58.391602,183.30176 22.01709,199.5625 22.01709,199.5625 C 20.587891,200.20117 19.668457,201.61914 19.668457,203.18457 C 19.668457,203.18652 19.668457,203.19043 19.668457,203.19238 C 19.668457,203.22559 19.681152,203.25488 19.681641,203.28613 C 19.681152,203.31641 19.668457,203.34766 19.668457,203.37891 C 19.668457,203.38281 19.668457,203.38672 19.668457,203.39062 C 19.668457,203.4209 19.680664,203.4502 19.681641,203.48145 C 19.681152,203.5127 19.668457,203.54297 19.668457,203.57422 C 19.668457,203.57812 19.668457,203.58203 19.668457,203.58594 C 19.668457,203.61719 19.680664,203.64648 19.681641,203.67676 C 19.680664,203.70801 19.668457,203.7373 19.668457,203.77051 C 19.668457,203.77441 19.668457,203.77539 19.668457,203.7793 C 19.668457,203.81055 19.680664,203.83984 19.681641,203.87109 C 19.681152,203.90332 19.668457,203.93262 19.668457,203.96582 C 19.668457,203.96973 19.668457,203.97363 19.668457,203.97754 C 19.668457,204.00879 19.680664,204.03516 19.681641,204.06641 C 19.680664,204.09961 19.668457,204.12891 19.668457,204.15918 C 19.668457,204.16309 19.668457,204.16699 19.668457,204.1709 C 19.668457,204.20215 19.680664,204.23145 19.681641,204.26172 C 19.681152,204.29297 19.668457,204.32422 19.668457,204.35547 C 19.668457,204.35938 19.668457,204.36328 19.668457,204.36719 C 19.668457,204.39746 19.680664,204.42676 19.681641,204.45801 C 19.680664,204.48926 19.668457,204.51758 19.668457,204.55078 C 19.668457,204.55469 19.668457,204.55664 19.668457,204.56055 C 19.668457,204.5918 19.680664,204.62012 19.681641,204.65137 C 19.681152,204.68457 19.668457,204.71387 19.668457,204.74609 C 19.668457,204.75 19.668457,204.75391 19.668457,204.75781 C 19.668457,204.78906 19.680664,204.81641 19.681641,204.84766 C 19.680664,204.87988 19.668457,204.90918 19.668457,204.94043 C 19.668457,204.94434 19.668457,204.94629 19.668457,204.94824 C 19.668457,204.98047 19.681152,205.00977 19.681641,205.04102 C 19.681152,205.07422 19.668457,205.10254 19.668457,205.13574 C 19.668457,205.13965 19.668457,205.1416 19.668457,205.14551 C 19.668457,205.17676 19.680664,205.20605 19.681641,205.23633 C 19.681152,205.26953 19.668457,205.29883 19.668457,205.33203 C 19.668457,205.33594 19.668457,205.33984 19.668457,205.34277 C 19.668457,205.37402 19.680664,205.40137 19.681641,205.43262 C 19.680664,205.46484 19.668457,205.49414 19.668457,205.52539 C 19.668457,205.5293 19.668457,205.5332 19.668457,205.53711 C 19.668457,205.56836 19.680664,205.59668 19.681641,205.62793 C 19.681152,205.65918 19.668457,205.69043 19.668457,205.7207 C 19.668457,205.72461 19.668457,205.72852 19.668457,205.73242 C 19.668457,205.76367 19.680664,205.79297 19.681641,205.82324 C 19.680664,205.85449 19.668457,205.88379 19.668457,205.91699 C 19.668457,205.9209 19.668457,205.92285 19.668457,205.92676 C 19.668457,205.95703 19.680664,205.98633 19.681641,206.01758 C 19.681152,206.05078 19.668457,206.0791 19.668457,206.1123 C 19.668457,206.11621 19.668457,206.12012 19.668457,206.12402 C 19.668457,206.15527 19.680664,206.18262 19.681641,206.21289 C 19.680664,206.24609 19.668457,206.27539 19.668457,206.30566 C 19.668457,206.30957 19.668457,206.31348 19.668457,206.31738 C 19.668457,206.34863 19.680664,206.37793 19.681641,206.40918 C 19.681152,206.43945 19.668457,206.4707 19.668457,206.50195 C 19.668457,206.50586 19.668457,206.50977 19.668457,206.51367 C 19.668457,206.54395 19.680664,206.57324 19.681641,206.60449 C 19.680664,206.63574 19.668457,206.66406 19.668457,206.69727 C 19.668457,206.69922 19.668457,206.70117 19.668457,206.70508 C 19.668457,206.73633 19.681152,206.76563 19.681641,206.79785 C 19.681152,206.8291 19.668457,206.8584 19.668457,206.8916 C 19.668457,206.89551 19.668457,206.89941 19.668457,206.90332 C 19.668457,206.93359 19.680664,206.96289 19.681641,206.99414 C 19.681152,207.02539 19.668457,207.05566 19.668457,207.08691 C 19.668457,207.09082 19.668457,207.09473 19.668457,207.09863 C 19.668457,207.12988 19.680664,207.1582 19.681641,207.18945 C 19.680664,207.2207 19.668457,207.25 19.668457,207.28223 C 19.668457,207.28613 19.668457,207.28809 19.668457,207.29199 C 19.668457,207.32324 19.680664,207.35254 19.681641,207.38379 C 19.681152,207.41602 19.668457,207.44531 19.668457,207.47852 C 19.668457,207.48242 19.668457,207.48633 19.668457,207.49023 C 19.668457,207.52051 19.680664,207.54785 19.681641,207.5791 C 19.680664,207.61231 19.668457,207.64063 19.668457,207.67188 C 19.668457,207.67578 19.668457,207.67969 19.668457,207.68359 C 19.668457,207.71484 19.680664,207.74414 19.681641,207.77441 C 19.681152,207.80566 19.668457,207.83691 19.668457,207.86719 C 19.668457,207.87109 19.668457,207.875 19.668457,207.87891 C 19.668457,207.91016 19.680664,207.93945 19.681641,207.9707 C 19.680664,208.00098 19.668457,208.03027 19.668457,208.06348 C 19.668457,208.06738 19.668457,208.06934 19.668457,208.07324 C 19.668457,208.10449 19.680664,208.13281 19.681641,208.16406 C 19.681152,208.19727 19.668457,208.22656 19.668457,208.25879 C 19.668457,208.2627 19.668457,208.2666 19.668457,208.27051 C 19.668457,208.30176 19.680664,208.3291 19.681641,208.35938 C 19.680664,208.39258 19.668457,208.42188 19.668457,208.45313 C 19.668457,208.45703 19.668457,208.45898 19.668457,208.46094 C 19.668457,208.49316 19.681152,208.52246 19.681641,208.55371 C 19.681152,208.58691 19.668457,208.61523 19.668457,208.64844 C 19.668457,208.65234 19.668457,208.6543 19.668457,208.6582 C 19.668457,208.68945 19.680664,208.71777 19.681641,208.74902 C 19.681152,208.78223 19.668457,208.81152 19.668457,208.84375 C 19.668457,208.84766 19.668457,208.85156 19.668457,208.85547 C 19.668457,208.88672 19.680664,208.91406 19.681641,208.94531 C 19.680664,208.97754 19.668457,209.00684 19.668457,209.03809 C 19.668457,209.04199 19.668457,209.0459 19.668457,209.04981 C 19.668457,209.08008 19.680664,209.10938 19.681641,209.14063 C 19.681152,209.17188 19.668457,209.20215 19.668457,209.2334 C 19.668457,209.23731 19.668457,209.24121 19.668457,209.24512 C 19.668457,209.27637 19.680664,209.30566 19.681641,209.33594 C 19.680664,209.36719 19.668457,209.39648 19.668457,209.42969 C 19.668457,209.43262 19.668457,209.43457 19.668457,209.43848 C 19.668457,209.46973 19.680664,209.49902 19.681641,209.53027 C 19.681152,209.5625 19.668457,209.5918 19.668457,209.625 C 19.668457,209.62891 19.668457,209.63281 19.668457,209.63672 C 19.668457,209.66797 19.680664,209.69434 19.681641,209.72559 C 19.680664,209.75879 19.668457,209.78809 19.668457,209.81836 C 19.668457,209.82227 19.668457,209.82422 19.668457,209.82617 C 19.668457,209.85938 19.681152,209.88867 19.681641,209.91895 C 19.681152,209.95215 19.668457,209.98145 19.668457,210.01465 C 19.668457,210.01855 19.668457,210.02051 19.668457,210.02441 C 19.668457,210.05469 19.680664,210.08398 19.681641,210.11523 C 19.681152,210.14844 19.668457,210.17676 19.668457,210.20996 C 19.668457,210.21387 19.668457,210.21777 19.668457,210.22168 C 19.668457,210.25293 19.680664,210.2793 19.681641,210.31055 C 19.680664,210.34375 19.668457,210.37305 19.668457,210.40332 C 19.668457,210.40723 19.668457,210.41113 19.668457,210.41504 C 19.668457,210.44629 19.680664,210.47559 19.681641,210.50684 C 19.681152,210.53711 19.668457,210.56836 19.668457,210.59961 C 19.668457,210.60352 19.668457,210.60742 19.668457,210.61133 C 19.668457,210.6416 19.680664,210.6709 19.681641,210.70215 C 19.680664,210.7334 19.668457,210.76172 19.668457,210.79492 C 19.668457,210.79883 19.668457,210.80078 19.668457,210.80469 C 19.668457,210.83594 19.680664,210.86523 19.681641,210.89551 C 19.681152,210.92871 19.668457,210.95801 19.668457,210.99121 C 19.668457,210.99512 19.668457,210.99805 19.668457,211.00195 C 19.668457,211.0332 19.680664,211.06055 19.681641,211.0918 C 19.680664,211.12402 19.668457,211.15332 19.668457,211.18457 C 19.668457,211.18848 19.668457,211.19238 19.668457,211.19629 C 19.668457,211.22754 19.680664,211.25586 19.681641,211.28711 C 19.681152,211.31836 19.668457,211.34961 19.668457,211.37988 C 19.668457,211.38379 19.668457,211.3877 19.668457,211.3916 C 19.668457,211.42285 19.680664,211.45215 19.681641,211.48242 C 19.680664,211.51367 19.668457,211.54297 19.668457,211.57617 C 19.668457,211.57813 19.668457,211.58008 19.668457,211.58398 C 19.668457,211.61426 19.681152,211.64355 19.681641,211.67676 C 19.681152,211.70801 19.668457,211.73633 19.668457,211.76953 C 19.668457,211.77344 19.668457,211.77734 19.668457,211.78125 C 19.668457,211.8125 19.680664,211.84082 19.681641,211.87207 C 19.681152,211.90332 19.668457,211.93457 19.668457,211.96484 C 19.668457,211.96875 19.668457,211.97266 19.668457,211.97656 C 19.668457,212.00781 19.680664,212.03711 19.681641,212.06836 C 19.680664,212.09863 19.668457,212.12793 19.668457,212.16113 C 19.668457,212.16504 19.668457,212.16699 19.668457,212.1709 C 19.668457,212.20117 19.680664,212.23047 19.681641,212.26172 C 19.681152,212.29492 19.668457,212.32324 19.668457,212.35645 C 19.668457,212.36035 19.668457,212.36426 19.668457,212.36816 C 19.668457,212.39941 19.680664,212.42676 19.681641,212.45703 C 19.680664,212.49023 19.668457,212.51953 19.668457,212.55078 C 19.668457,212.55469 19.668457,212.55859 19.668457,212.56152 C 19.668457,212.59277 19.680664,212.62207 19.681641,212.65332 C 19.681152,212.68359 19.668457,212.71484 19.668457,212.74609 C 19.668457,212.75 19.668457,212.75391 19.668457,212.75781 C 19.668457,212.78906 19.680664,212.81738 19.681641,212.84863 C 19.680664,212.87988 19.668457,212.90918 19.668457,212.94141 C 19.668457,212.94531 19.668457,212.94727 19.668457,212.95117 C 19.668457,212.98242 19.680664,213.01172 19.681641,213.04199 C 19.681152,213.0752 19.668457,213.10449 19.668457,213.1377 C 19.668457,213.1416 19.668457,213.14551 19.668457,213.14941 C 19.668457,213.17969 19.680664,213.20703 19.681641,213.23828 C 19.680664,213.27148 19.668457,213.2998 19.668457,213.33105 C 19.668457,213.33496 19.668457,213.33691 19.668457,213.33887 C 19.668457,213.37207 19.681152,213.40137 19.681641,213.43164 C 19.681152,213.46484 19.668457,213.49414 19.668457,213.52637 C 19.668457,213.53027 19.668457,213.53223 19.668457,213.53613 C 19.668457,213.56738 19.680664,213.59668 19.681641,213.62793 C 19.681152,213.66016 19.668457,213.68945 19.668457,213.72266 C 19.668457,213.72656 19.668457,213.73047 19.668457,213.73438 C 19.668457,213.76465 19.680664,213.79199 19.681641,213.82324 C 19.680664,213.85645 19.668457,213.88477 19.668457,213.91602 C 19.668457,213.91992 19.668457,213.92383 19.668457,213.92773 C 19.668457,213.95898 19.680664,213.98828 19.681641,214.01855 C 19.681152,214.0498 19.668457,214.08105 19.668457,214.1123 C 19.668457,214.11621 19.668457,214.12012 19.668457,214.12402 C 19.668457,214.1543 19.680664,214.18359 19.681641,214.21484 C 19.680664,214.24512 19.668457,214.27441 19.668457,214.30762 C 19.668457,214.31152 19.668457,214.31348 19.668457,214.31738 C 19.668457,214.34863 19.680664,214.37695 19.681641,214.4082 C 19.681152,214.44141 19.668457,214.4707 19.668457,214.50293 C 19.668457,214.50684 19.668457,214.51074 19.668457,214.51465 C 19.668457,214.5459 19.680664,214.57324 19.681641,214.60449 C 19.680664,214.63672 19.668457,214.66602 19.668457,214.69727 C 19.668457,214.70117 19.668457,214.70508 19.668457,214.70898 C 19.668457,214.73926 19.680664,214.76855 19.681641,214.7998 C 19.681152,214.83105 19.668457,214.86133 19.668457,214.89258 C 19.668457,214.89648 19.668457,214.90039 19.668457,214.9043 C 19.668457,214.93555 19.680664,214.96484 19.681641,214.99512 C 19.680664,215.02637 19.668457,215.05566 19.668457,215.08789 C 19.668457,215.08984 19.668457,215.09375 19.668457,215.0957 C 19.671875,216.66504 20.599121,218.08594 22.034668,218.71875 L 92.705566,249.88574 C 93.731933,250.33984 94.901855,250.33594 95.925781,249.87793 L 165.53906,218.75977 L 234.97461,187.67773 C 236.4043,187.04102 237.32422,185.62012 237.32422,184.05664 C 237.32422,184.05273 237.32422,184.05078 237.32422,184.04883 C 237.32422,184.0166 237.31055,183.9873 237.31055,183.95605 C 237.31055,183.92285 237.32422,183.89453 237.32422,183.86133 C 237.32422,183.85742 237.32422,183.85547 237.32422,183.85156 C 237.32422,183.82031 237.31055,183.79199 237.31055,183.76074 C 237.31055,183.72754 237.32422,183.69824 237.32422,183.66602 C 237.32422,183.66211 237.32422,183.6582 237.32422,183.6543 C 237.32422,183.62305 237.31055,183.5957 237.31055,183.56445 C 237.31055,183.53223 237.32422,183.50293 237.32422,183.47168 C 237.32422,183.46777 237.32422,183.46387 237.32422,183.45996 C 237.32422,183.42969 237.31055,183.40039 237.31055,183.36914 C 237.31055,183.33789 237.32422,183.30762 237.32422,183.27637 C 237.32422,183.27246 237.32422,183.26855 237.32422,183.26465 C 237.32422,183.2334 237.31055,183.2041 237.31055,183.17383 C 237.31055,183.14258 237.32422,183.11328 237.32422,183.08008 C 237.32422,183.07715 237.32422,183.0752 237.32422,183.07129 C 237.32422,183.04004 237.31055,183.01074 237.31055,182.97949 C 237.31055,182.94727 237.32422,182.91797 237.32422,182.88477 C 237.32422,182.88086 237.32422,182.87695 237.32422,182.87305 C 237.32422,182.8418 237.31055,182.81543 237.31055,182.78418 C 237.31055,182.75098 237.32422,182.72168 237.32422,182.69141 C 237.32422,182.6875 237.32422,182.68359 237.32422,182.67969 C 237.32422,182.64844 237.31055,182.61914 237.31055,182.58887 C 237.31055,182.55762 237.32422,182.52637 237.32422,182.49512 C 237.32422,182.49121 237.32422,182.4873 237.32422,182.4834 C 237.32422,182.45312 237.31055,182.42383 237.31055,182.39258 C 237.31055,182.36133 237.32422,182.33301 237.32422,182.2998 C 237.32422,182.29785 237.32422,182.2959 237.32422,182.29199 C 237.32422,182.26074 237.31055,182.23242 237.31055,182.20117 C 237.31055,182.16797 237.32422,182.13867 237.32422,182.10645 C 237.32422,182.10254 237.32422,182.09863 237.32422,182.09473 C 237.32422,182.06348 237.31055,182.03418 237.31055,182.00293 C 237.31055,181.97266 237.32422,181.94141 237.32422,181.91016 C 237.32422,181.90625 237.32422,181.90234 237.32422,181.89844 C 237.32422,181.86816 237.31055,181.83887 237.31055,181.80762 C 237.31055,181.77637 237.32422,181.74805 237.32422,181.71484 C 237.32422,181.71094 237.32422,181.70898 237.32422,181.70508 C 237.32422,181.67383 237.31055,181.64453 237.31055,181.61426 C 237.31055,181.58105 237.32422,181.55176 237.32422,181.51855 C 237.32422,181.51562 237.32422,181.51172 237.32422,181.50781 C 237.32422,181.47656 237.31055,181.44922 237.31055,181.41797 C 237.31055,181.38574 237.32422,181.35645 237.32422,181.3252 C 237.32422,181.32129 237.32422,181.31738 237.32422,181.31348 C 237.32422,181.28223 237.31055,181.25391 237.31055,181.22266 C 237.31055,181.19141 237.32422,181.16016 237.32422,181.12988 C 237.32422,181.12598 237.32422,181.12207 237.32422,181.11816 C 237.32422,181.08691 237.31055,181.05762 237.31055,181.02734 C 237.31055,180.99609 237.32422,180.9668 237.32422,180.93359 C 237.32422,180.92969 237.32422,180.92773 237.32422,180.92383 C 237.32422,180.89355 237.31055,180.86426 237.31055,180.83301 C 237.31055,180.7998 237.32422,180.77148 237.32422,180.73828 C 237.32422,180.73437 237.32422,180.73047 237.32422,180.72656 C 237.32422,180.69531 237.31055,180.66895 237.31055,180.6377 C 237.31055,180.60449 237.32422,180.5752 237.32422,180.54492 C 237.32422,180.54297 237.32422,180.53906 237.32422,180.53711 C 237.32422,180.50391 237.31055,180.47461 237.31055,180.44336 C 237.31055,180.41113 237.32422,180.38184 237.32422,180.34863 C 237.32422,180.34473 237.32422,180.34277 237.32422,180.33887 C 237.32422,180.30859 237.31055,180.2793 237.31055,180.24805 C 237.31055,180.21484 237.32422,180.18652 237.32422,180.15332 C 237.32422,180.14941 237.32422,180.14551 237.32422,180.1416 C 237.32422,180.11035 237.31055,180.08301 237.31055,180.05273 C 237.31055,180.01953 237.32422,179.99023 237.32422,179.95898 C 237.32422,179.95508 237.32422,179.95117 237.32422,179.94824 C 237.32422,179.91699 237.31055,179.88769 237.31055,179.85644 C 237.31055,179.82617 237.32422,179.79492 237.32422,179.76367 C 237.32422,179.75977 237.32422,179.75586 237.32422,179.75195 C 237.32422,179.7207 237.31055,179.69238 237.31055,179.66113 C 237.31055,179.62988 237.32422,179.60059 237.32422,179.56836 C 237.32422,179.56445 237.32422,179.5625 237.32422,179.55859 C 237.32422,179.52734 237.31055,179.49805 237.31055,179.46777 C 237.31055,179.43457 237.32422,179.40527 237.32422,179.37207 C 237.32422,179.36816 237.32422,179.36426 237.32422,179.36035 C 237.32422,179.33008 237.31055,179.30273 237.31055,179.27148 C 237.31055,179.23828 237.32422,179.20996 237.32422,179.17871 C 237.32422,179.1748 237.32422,179.1709 237.32422,179.16699 C 237.32422,179.13574 237.31055,179.10742 237.31055,179.07617 C 237.31055,179.04492 237.32422,179.01367 237.32422,178.9834 C 237.32422,178.97949 237.32422,178.97559 237.32422,178.97168 C 237.32422,178.94043 237.31055,178.91113 237.31055,178.87988 C 237.31055,178.84961 237.32422,178.82031 237.32422,178.78711 C 237.32422,178.78516 237.32422,178.7832 237.32422,178.7793 C 237.32422,178.74805 237.31055,178.71973 237.31055,178.68848 C 237.31055,178.65527 237.32422,178.62695 237.32422,178.59375 C 237.32422,178.58984 237.32422,178.58594 237.32422,178.58203 C 237.32422,178.55078 237.31055,178.52148 237.31055,178.49121 C 237.31055,178.45996 237.32422,178.42871 237.32422,178.39746 C 237.32422,178.39355 237.32422,178.38965 237.32422,178.38672 C 237.32422,178.35547 237.31055,178.32617 237.31055,178.29492 C 237.31055,178.26465 237.32422,178.23535 237.32422,178.20215 C 237.32422,178.19824 237.32422,178.19629 237.32422,178.19238 C 237.32422,178.16113 237.31055,178.13281 237.31055,178.10156 C 237.31055,178.06836 237.32422,178.03906 237.32422,178.00684 C 237.32422,178.00293 237.32422,177.99902 237.32422,177.99512 C 237.32422,177.96387 237.31055,177.93652 237.31055,177.90625 C 237.31055,177.87305 237.32422,177.84375 237.32422,177.8125 C 237.32422,177.80859 237.32422,177.80469 237.32422,177.80078 C 237.32422,177.77051 237.31055,177.74121 237.31055,177.70996 C 237.31055,177.67871 237.32422,177.64844 237.32422,177.61719 C 237.32422,177.61328 237.32422,177.60937 237.32422,177.60547 C 237.32422,177.57422 237.31055,177.54492 237.31055,177.51465 C 237.31055,177.4834 237.32422,177.4541 237.32422,177.42187 C 237.32422,177.41992 237.32422,177.41797 237.32422,177.41406 C 237.32422,177.38281 237.31055,177.35352 237.31055,177.32227 C 237.31055,177.29004 237.32422,177.26074 237.32422,177.22754 C 237.32422,177.22363 237.32422,177.21973 237.32422,177.21582 C 237.32422,177.18457 237.31055,177.15625 237.31055,177.125 C 237.31055,177.09375 237.32422,177.0625 237.32422,177.03223 C 237.32422,177.02832 237.32422,177.02441 237.32422,177.02051 C 237.32422,176.98926 237.31055,176.95996 237.31055,176.92969 C 237.31055,176.89844 237.32422,176.86914 237.32422,176.83594 C 237.32422,176.83203 237.32422,176.83008 237.32422,176.82617 C 237.32422,176.7959 237.31055,176.7666 237.31055,176.73535 C 237.31055,176.70312 237.32422,176.67383 237.32422,176.64062 C 237.32422,176.63672 237.32422,176.63281 237.32422,176.62891 C 237.32422,176.59766 237.31055,176.57129 237.31055,176.54004 C 237.31055,176.50684 237.32422,176.47754 237.32422,176.44726 C 237.32422,176.44336 237.32422,176.43945 237.32422,176.43555 C 237.32422,176.4043 237.31055,176.375 237.31055,176.34375 C 237.31055,176.31348 237.32422,176.28223 237.32422,176.25098 C 237.32422,176.24707 237.32422,176.24316 237.32422,176.23926 C 237.32422,176.20898 237.31055,176.17969 237.31055,176.14844 C 237.31055,176.11719 237.32422,176.08887 237.32422,176.05566 C 237.32422,176.05176 237.32422,176.0498 237.32422,176.0459 C 237.32422,176.01465 237.31055,175.98535 237.31055,175.95508 C 237.31055,175.92187 237.32422,175.89258 237.32422,175.85937 C 237.32422,175.85644 237.32422,175.85254 237.32422,175.84863 C 237.32422,175.81738 237.31055,175.79004 237.31055,175.75879 C 237.31055,175.72656 237.32422,175.69726 237.32422,175.66601 C 237.32422,175.66406 237.32422,175.66016 237.32422,175.6582 C 237.32422,175.625 237.31055,175.59668 237.31055,175.56543 C 237.31055,175.53223 237.32422,175.50293 237.32422,175.4707 C 237.32422,175.4668 237.32422,175.46484 237.32422,175.46094 C 237.32422,175.42969 237.31055,175.40039 237.31055,175.37012 C 237.31055,175.33691 237.32422,175.30762 237.32422,175.27441 C 237.32422,175.27051 237.32422,175.2666 237.32422,175.26269 C 237.32422,175.23242 237.31055,175.20508 237.31055,175.17383 C 237.31055,175.14062 237.32422,175.1123 237.32422,175.08105 C 237.32422,175.07715 237.32422,175.07324 237.32422,175.06934 C 237.32422,175.03809 237.31055,175.00976 237.31055,174.97851 C 237.31055,174.94726 237.32422,174.91601 237.32422,174.88574 C 237.32422,174.88184 237.32422,174.87793 237.32422,174.87402 C 237.32422,174.84277 237.31055,174.81348 237.31055,174.78223 C 237.31055,174.75195 237.32422,174.72266 237.32422,174.68945 C 237.32422,174.68555 237.32422,174.68359 237.32422,174.67969 C 237.32422,174.64941 237.31055,174.62012 237.31055,174.58887 C 237.31055,174.55566 237.32422,174.52734 237.32422,174.49414 C 237.32422,174.49023 237.32422,174.48633 237.32422,174.48242 C 237.32422,174.45117 237.31055,174.42383 237.31055,174.39355 C 237.31055,174.36035 237.32422,174.33105 237.32422,174.2998 C 237.32422,174.2959 237.32422,174.29297 237.32422,174.28906 C 237.32422,174.25781 237.31055,174.22851 237.31055,174.19726 C 237.31055,174.16699 237.32422,174.13574 237.32422,174.10449 C 237.32422,174.10059 237.32422,174.09668 237.32422,174.09277 C 237.32422,174.06152 237.31055,174.0332 237.31055,174.00195 C 237.31055,173.9707 237.32422,173.94141 237.32422,173.90918 C 237.32422,173.90723 237.32422,173.90527 237.32422,173.90137 C 237.32422,173.87012 237.31055,173.84082 237.31055,173.81055 C 237.31055,173.77734 237.32422,173.74805 237.32422,173.71484 C 237.32422,173.71094 237.32422,173.70703 237.32422,173.70312 C 237.32422,173.67285 237.31055,173.64355 237.31055,173.6123 C 237.31055,173.58105 237.32422,173.55078 237.32422,173.51953 C 237.32422,173.51562 237.32422,173.51172 237.32422,173.50781 C 237.32422,173.47656 237.31055,173.44824 237.31055,173.41699 C 237.31055,173.38574 237.32422,173.35644 237.32422,173.32422 C 237.32422,173.32031 237.32422,173.31836 237.32422,173.31445 C 237.32422,173.2832 237.31055,173.25391 237.31055,173.22266 C 237.31055,173.19043 237.32422,173.16113 237.32422,173.12793 C 237.32422,173.12402 237.32422,173.12012 237.32422,173.11621 C 237.32422,173.08594 237.31055,173.05859 237.31055,173.02734 C 237.31055,172.99414 237.32422,172.96582 237.32422,172.93457 C 237.32422,172.93066 237.32422,172.92676 237.32422,172.92285 C 237.32422,172.8916 237.31055,172.8623 237.31055,172.83203 C 237.31055,172.80078 237.32422,172.76953 237.32422,172.73828 C 237.32422,172.73437 237.32422,172.73047 237.32422,172.72754 C 237.32422,172.69629 237.31055,172.66699 237.31055,172.63574 C 237.31055,172.60547 237.32422,172.57617 237.32422,172.54297 C 237.32422,172.53906 237.32422,172.53711 237.32422,172.5332 C 237.32422,172.50195 237.31055,172.47363 237.31055,172.44238 C 237.31055,172.40918 237.32422,172.37988 237.32422,172.34766 C 237.32422,172.34375 237.32422,172.33984 237.32422,172.33594 C 237.32422,172.30469 237.31055,172.27734 237.31055,172.24707 C 237.31055,172.21387 237.32422,172.18457 237.32422,172.15332 C 237.32422,172.14941 237.32422,172.14551 237.32422,172.14355 C 237.32031,170.57422 236.39258,169.15625 234.95703,168.52246 C 234.95703,168.52246 168.42578,139.17871 165.74609,137.99902 C 165.39844,137.63867 165.00586,137.32129 164.5293,137.11035 L 93.85791,105.94287 C 92.832031,105.48975 91.661621,105.49268 90.637695,105.95068 z "
   style="fill:url(#XMLID_15_)"
   id="path16" />
				
					<linearGradient
   x1="105.15869"
   y1="177.91406"
   x2="228.31952"
   y2="177.91406"
   id="XMLID_16_"
   gradientUnits="userSpaceOnUse">
					<stop
   style="stop-color:#cecedb;stop-opacity:1"
   offset="0"
   id="stop19" />
					<stop
   style="stop-color:#7d7d99;stop-opacity:1"
   offset="1"
   id="stop21" />
					<a:midPointStop
   style="stop-color:#CECEDB"
   offset="0" />
					<a:midPointStop
   style="stop-color:#CECEDB"
   offset="0.5" />
					<a:midPointStop
   style="stop-color:#7D7D99"
   offset="1" />
				</linearGradient>
				<polygon
   points="233.13672,172.25 233.35547,172.15332 162.75195,141.01367 162.92773,140.93652 162.70898,140.83984 162.92773,140.74023 92.256836,109.57275 22.644043,140.69043 22.863281,140.78711 22.644043,140.88574 22.864258,140.98242 22.644043,141.08203 22.863281,141.17871 22.644043,141.27539 22.864258,141.37207 22.644043,141.4707 22.863281,141.56738 22.644043,141.66699 22.864258,141.76367 22.644043,141.8623 22.863281,141.95898 22.644043,142.05566 22.864258,142.15332 22.644043,142.25195 22.863281,142.34863 22.644043,142.44727 22.863281,142.54395 22.644043,142.6416 22.864258,142.73828 22.644043,142.83691 22.863281,142.93359 22.644043,143.03223 22.864258,143.12988 22.644043,143.22852 22.863281,143.3252 22.644043,143.42188 22.864258,143.51855 22.644043,143.61719 22.863281,143.71484 22.644043,143.81348 22.864258,143.91016 22.644043,144.00879 22.863281,144.10547 22.644043,144.20312 22.863281,144.2998 22.644043,144.39844 22.864258,144.49512 22.644043,144.59375 22.863281,144.69141 22.644043,144.78809 22.864258,144.88477 22.644043,144.9834 22.863281,145.08008 22.644043,145.17871 22.864258,145.27637 22.644043,145.375 22.863281,145.47168 22.644043,145.56836 22.864258,145.66504 22.644043,145.76465 22.863281,145.86133 22.644043,145.95996 22.863281,146.05664 22.644043,146.15332 22.864258,146.25098 22.644043,146.34961 22.863281,146.44629 22.644043,146.54492 22.864258,146.6416 22.644043,146.74023 22.863281,146.83789 22.644043,146.93457 22.864258,147.03125 22.644043,147.12988 22.863281,147.22656 22.644043,147.32617 22.863281,147.42285 22.644043,147.51953 22.864258,147.61621 22.644043,147.71484 22.863281,147.8125 22.644043,147.91113 22.864258,148.00781 22.644043,148.10645 22.863281,148.20312 22.644043,148.30078 22.864258,148.39746 22.644043,148.49609 22.863281,148.59277 22.644043,148.69141 22.864258,148.78809 22.644043,148.8877 22.863281,148.98438 22.644043,149.08105 22.863281,149.17773 22.644043,149.27637 22.864258,149.37402 22.644043,149.47266 22.863281,149.56934 22.644043,149.66602 22.864258,149.7627 22.644043,149.8623 22.863281,149.95898 22.644043,150.05762 22.864258,150.1543 22.644043,150.25293 22.863281,150.34961 22.644043,150.44727 22.864258,150.54395 22.644043,150.64258 22.863281,150.73926 22.644043,150.83789 22.863281,150.93555 22.644043,151.03223 22.864258,151.12891 22.644043,151.22754 22.863281,151.32422 22.644043,151.42383 22.864258,151.52051 22.644043,151.61914 22.863281,151.71582 22.644043,151.8125 22.864258,151.91016 22.644043,152.00879 22.863281,152.10547 22.644043,152.2041 22.864258,152.30078 22.644043,152.39941 22.863281,152.49707 22.644043,152.59375 80.111816,177.93848 23.63623,203.18457 23.855469,203.28223 23.63623,203.37891 23.856445,203.47559 23.63623,203.57422 23.855469,203.6709 23.63623,203.77051 23.856445,203.86719 23.63623,203.96582 23.855469,204.0625 23.63623,204.15918 23.856445,204.25684 23.63623,204.35547 23.855469,204.45215 23.63623,204.55078 23.856445,204.64746 23.63623,204.74609 23.855469,204.84375 23.63623,204.94043 23.855469,205.03711 23.63623,205.13574 23.856445,205.23242 23.63623,205.33203 23.855469,205.42871 23.63623,205.52539 23.856445,205.62207 23.63623,205.7207 23.855469,205.81836 23.63623,205.91699 23.856445,206.01367 23.63623,206.1123 23.855469,206.20898 23.63623,206.30566 23.856445,206.40332 23.63623,206.50195 23.855469,206.59863 23.63623,206.69727 23.855469,206.79395 23.63623,206.8916 23.856445,206.98828 23.63623,207.08691 23.855469,207.18359 23.63623,207.28223 23.856445,207.37988 23.63623,207.47852 23.855469,207.5752 23.63623,207.67188 23.856445,207.76855 23.63623,207.86719 23.855469,207.96484 23.63623,208.06348 23.856445,208.16016 23.63623,208.25879 23.855469,208.35547 23.63623,208.45312 23.855469,208.5498 23.63623,208.64844 23.856445,208.74512 23.63623,208.84375 23.855469,208.94141 23.63623,209.03809 23.856445,209.13477 23.63623,209.2334 23.855469,209.33008 23.63623,209.42969 23.856445,209.52637 23.63623,209.625 23.855469,209.72168 23.63623,209.81836 23.855469,209.91504 23.63623,210.01465 23.856445,210.11133 23.63623,210.20996 23.855469,210.30664 23.63623,210.40332 23.856445,210.50098 23.63623,210.59961 23.855469,210.69629 23.63623,210.79492 23.856445,210.8916 23.63623,210.99121 23.855469,211.08789 23.63623,211.18457 23.856445,211.28125 23.63623,211.37988 23.855469,211.47656 23.63623,211.57617 23.855469,211.67285 23.63623,211.76953 23.856445,211.86621 23.63623,211.96484 23.855469,212.0625 23.63623,212.16113 23.856445,212.25781 23.63623,212.35645 23.855469,212.45312 23.63623,212.55078 23.856445,212.64746 23.63623,212.74609 23.855469,212.84277 23.63623,212.94141 23.856445,213.03906 23.63623,213.1377 23.855469,213.23438 23.63623,213.33105 23.855469,213.42773 23.63623,213.52637 23.856445,213.62402 23.63623,213.72266 23.855469,213.81934 23.63623,213.91602 23.856445,214.0127 23.63623,214.1123 23.855469,214.20898 23.63623,214.30762 23.856445,214.4043 23.63623,214.50293 23.855469,214.60059 23.63623,214.69727 23.856445,214.79395 23.63623,214.89258 23.855469,214.98926 23.63623,215.08789 94.306641,246.25488 163.91992,215.13867 163.87109,215.11719 233.35547,184.05664 233.13672,183.95996 233.35547,183.86133 233.13672,183.76465 233.35547,183.66602 233.13672,183.56836 233.35547,183.47168 233.13672,183.375 233.35547,183.27637 233.13672,183.17969 233.35547,183.08008 233.13672,182.9834 233.35547,182.88477 233.13672,182.78809 233.35547,182.69141 233.13672,182.59473 233.35547,182.49512 233.13672,182.39844 233.35547,182.2998 233.13672,182.20312 233.35547,182.10645 233.13672,182.00879 233.35547,181.91016 233.13672,181.81348 233.35547,181.71484 233.13672,181.61816 233.35547,181.51855 233.13672,181.42188 233.35547,181.3252 233.13672,181.22852 233.35547,181.12988 233.13672,181.0332 233.35547,180.93359 233.13672,180.83691 233.35547,180.73828 233.13672,180.6416 233.35547,180.54492 233.13672,180.44727 233.35547,180.34863 233.13672,180.25195 233.35547,180.15332 233.13672,180.05664 233.35547,179.95898 233.13672,179.8623 233.35547,179.76367 233.13672,179.66699 233.35547,179.56836 233.13672,179.4707 233.35547,179.37207 233.13672,179.27539 233.35547,179.17871 233.13672,179.08203 233.35547,178.9834 233.13672,178.88574 233.35547,178.78711 233.13672,178.69043 233.35547,178.59375 233.13672,178.49707 233.35547,178.39746 233.13672,178.30078 233.35547,178.20215 233.13672,178.10547 233.35547,178.00684 233.13672,177.90918 233.35547,177.8125 233.13672,177.71582 233.35547,177.61719 233.13672,177.52051 233.35547,177.42188 233.13672,177.32422 233.35547,177.22754 233.13672,177.13086 233.35547,177.03223 233.13672,176.93555 233.35547,176.83594 233.13672,176.73926 233.35547,176.64062 233.13672,176.54395 233.35547,176.44727 233.13672,176.34961 233.35547,176.25098 233.13672,176.1543 233.35547,176.05566 233.13672,175.95898 233.35547,175.85938 233.13672,175.7627 233.35547,175.66602 233.13672,175.56934 233.35547,175.4707 233.13672,175.37402 233.35547,175.27441 233.13672,175.17773 233.35547,175.08105 233.13672,174.98438 233.35547,174.88574 233.13672,174.78809 233.35547,174.68945 233.13672,174.59277 233.35547,174.49414 233.13672,174.39746 233.35547,174.2998 233.13672,174.20312 233.35547,174.10449 233.13672,174.00781 233.35547,173.90918 233.13672,173.8125 233.35547,173.71484 233.13672,173.61816 233.35547,173.51953 233.13672,173.42285 233.35547,173.32422 233.13672,173.22656 233.35547,173.12793 233.13672,173.03125 233.35547,172.93457 233.13672,172.83789 233.35547,172.73828 233.13672,172.6416 233.35547,172.54297 233.13672,172.44629 233.35547,172.34766 233.13672,172.25 "
   style="fill:url(#XMLID_16_)"
   id="polygon23" />
				
					<linearGradient
   x1="31.683594"
   y1="177.91406"
   x2="224.31596"
   y2="177.91406"
   id="XMLID_17_"
   gradientUnits="userSpaceOnUse">
					<stop
   style="stop-color:#cecedb;stop-opacity:1"
   offset="0"
   id="stop26" />
					<stop
   style="stop-color:#333366;stop-opacity:1"
   offset="1"
   id="stop28" />
					<a:midPointStop
   style="stop-color:#CECEDB"
   offset="0" />
					<a:midPointStop
   style="stop-color:#CECEDB"
   offset="0.5" />
					<a:midPointStop
   style="stop-color:#333366"
   offset="1" />
				</linearGradient>
				<polygon
   points="233.13672,172.25 233.35547,172.15332 162.75195,141.01367 162.92773,140.93652 162.70898,140.83984 162.92773,140.74023 92.256836,109.57275 22.644043,140.69043 22.863281,140.78711 22.644043,140.88574 22.864258,140.98242 22.644043,141.08203 22.863281,141.17871 22.644043,141.27539 22.864258,141.37207 22.644043,141.4707 22.863281,141.56738 22.644043,141.66699 22.864258,141.76367 22.644043,141.8623 22.863281,141.95898 22.644043,142.05566 22.864258,142.15332 22.644043,142.25195 22.863281,142.34863 22.644043,142.44727 22.863281,142.54395 22.644043,142.6416 22.864258,142.73828 22.644043,142.83691 22.863281,142.93359 22.644043,143.03223 22.864258,143.12988 22.644043,143.22852 22.863281,143.3252 22.644043,143.42188 22.864258,143.51855 22.644043,143.61719 22.863281,143.71484 22.644043,143.81348 22.864258,143.91016 22.644043,144.00879 22.863281,144.10547 22.644043,144.20312 22.863281,144.2998 22.644043,144.39844 22.864258,144.49512 22.644043,144.59375 22.863281,144.69141 22.644043,144.78809 22.864258,144.88477 22.644043,144.9834 22.863281,145.08008 22.644043,145.17871 22.864258,145.27637 22.644043,145.375 22.863281,145.47168 22.644043,145.56836 22.864258,145.66504 22.644043,145.76465 22.863281,145.86133 22.644043,145.95996 22.863281,146.05664 22.644043,146.15332 22.864258,146.25098 22.644043,146.34961 22.863281,146.44629 22.644043,146.54492 22.864258,146.6416 22.644043,146.74023 22.863281,146.83789 22.644043,146.93457 22.864258,147.03125 22.644043,147.12988 22.863281,147.22656 22.644043,147.32617 22.863281,147.42285 22.644043,147.51953 22.864258,147.61621 22.644043,147.71484 22.863281,147.8125 22.644043,147.91113 22.864258,148.00781 22.644043,148.10645 22.863281,148.20312 22.644043,148.30078 22.864258,148.39746 22.644043,148.49609 22.863281,148.59277 22.644043,148.69141 22.864258,148.78809 22.644043,148.8877 22.863281,148.98438 22.644043,149.08105 22.863281,149.17773 22.644043,149.27637 22.864258,149.37402 22.644043,149.47266 22.863281,149.56934 22.644043,149.66602 22.864258,149.7627 22.644043,149.8623 22.863281,149.95898 22.644043,150.05762 22.864258,150.1543 22.644043,150.25293 22.863281,150.34961 22.644043,150.44727 22.864258,150.54395 22.644043,150.64258 22.863281,150.73926 22.644043,150.83789 22.863281,150.93555 22.644043,151.03223 22.864258,151.12891 22.644043,151.22754 22.863281,151.32422 22.644043,151.42383 22.864258,151.52051 22.644043,151.61914 22.863281,151.71582 22.644043,151.8125 22.864258,151.91016 22.644043,152.00879 22.863281,152.10547 22.644043,152.2041 22.864258,152.30078 22.644043,152.39941 22.863281,152.49707 22.644043,152.59375 80.111816,177.93848 23.63623,203.18457 23.855469,203.28223 23.63623,203.37891 23.856445,203.47559 23.63623,203.57422 23.855469,203.6709 23.63623,203.77051 23.856445,203.86719 23.63623,203.96582 23.855469,204.0625 23.63623,204.15918 23.856445,204.25684 23.63623,204.35547 23.855469,204.45215 23.63623,204.55078 23.856445,204.64746 23.63623,204.74609 23.855469,204.84375 23.63623,204.94043 23.855469,205.03711 23.63623,205.13574 23.856445,205.23242 23.63623,205.33203 23.855469,205.42871 23.63623,205.52539 23.856445,205.62207 23.63623,205.7207 23.855469,205.81836 23.63623,205.91699 23.856445,206.01367 23.63623,206.1123 23.855469,206.20898 23.63623,206.30566 23.856445,206.40332 23.63623,206.50195 23.855469,206.59863 23.63623,206.69727 23.855469,206.79395 23.63623,206.8916 23.856445,206.98828 23.63623,207.08691 23.855469,207.18359 23.63623,207.28223 23.856445,207.37988 23.63623,207.47852 23.855469,207.5752 23.63623,207.67188 23.856445,207.76855 23.63623,207.86719 23.855469,207.96484 23.63623,208.06348 23.856445,208.16016 23.63623,208.25879 23.855469,208.35547 23.63623,208.45312 23.855469,208.5498 23.63623,208.64844 23.856445,208.74512 23.63623,208.84375 23.855469,208.94141 23.63623,209.03809 23.856445,209.13477 23.63623,209.2334 23.855469,209.33008 23.63623,209.42969 23.856445,209.52637 23.63623,209.625 23.855469,209.72168 23.63623,209.81836 23.855469,209.91504 23.63623,210.01465 23.856445,210.11133 23.63623,210.20996 23.855469,210.30664 23.63623,210.40332 23.856445,210.50098 23.63623,210.59961 23.855469,210.69629 23.63623,210.79492 23.856445,210.8916 23.63623,210.99121 23.855469,211.08789 23.63623,211.18457 23.856445,211.28125 23.63623,211.37988 23.855469,211.47656 23.63623,211.57617 23.855469,211.67285 23.63623,211.76953 23.856445,211.86621 23.63623,211.96484 23.855469,212.0625 23.63623,212.16113 23.856445,212.25781 23.63623,212.35645 23.855469,212.45312 23.63623,212.55078 23.856445,212.64746 23.63623,212.74609 23.855469,212.84277 23.63623,212.94141 23.856445,213.03906 23.63623,213.1377 23.855469,213.23438 23.63623,213.33105 23.855469,213.42773 23.63623,213.52637 23.856445,213.62402 23.63623,213.72266 23.855469,213.81934 23.63623,213.91602 23.856445,214.0127 23.63623,214.1123 23.855469,214.20898 23.63623,214.30762 23.856445,214.4043 23.63623,214.50293 23.855469,214.60059 23.63623,214.69727 23.856445,214.79395 23.63623,214.89258 23.855469,214.98926 23.63623,215.08789 94.306641,246.25488 163.91992,215.13867 163.87109,215.11719 233.35547,184.05664 233.13672,183.95996 233.35547,183.86133 233.13672,183.76465 233.35547,183.66602 233.13672,183.56836 233.35547,183.47168 233.13672,183.375 233.35547,183.27637 233.13672,183.17969 233.35547,183.08008 233.13672,182.9834 233.35547,182.88477 233.13672,182.78809 233.35547,182.69141 233.13672,182.59473 233.35547,182.49512 233.13672,182.39844 233.35547,182.2998 233.13672,182.20312 233.35547,182.10645 233.13672,182.00879 233.35547,181.91016 233.13672,181.81348 233.35547,181.71484 233.13672,181.61816 233.35547,181.51855 233.13672,181.42188 233.35547,181.3252 233.13672,181.22852 233.35547,181.12988 233.13672,181.0332 233.35547,180.93359 233.13672,180.83691 233.35547,180.73828 233.13672,180.6416 233.35547,180.54492 233.13672,180.44727 233.35547,180.34863 233.13672,180.25195 233.35547,180.15332 233.13672,180.05664 233.35547,179.95898 233.13672,179.8623 233.35547,179.76367 233.13672,179.66699 233.35547,179.56836 233.13672,179.4707 233.35547,179.37207 233.13672,179.27539 233.35547,179.17871 233.13672,179.08203 233.35547,178.9834 233.13672,178.88574 233.35547,178.78711 233.13672,178.69043 233.35547,178.59375 233.13672,178.49707 233.35547,178.39746 233.13672,178.30078 233.35547,178.20215 233.13672,178.10547 233.35547,178.00684 233.13672,177.90918 233.35547,177.8125 233.13672,177.71582 233.35547,177.61719 233.13672,177.52051 233.35547,177.42188 233.13672,177.32422 233.35547,177.22754 233.13672,177.13086 233.35547,177.03223 233.13672,176.93555 233.35547,176.83594 233.13672,176.73926 233.35547,176.64062 233.13672,176.54395 233.35547,176.44727 233.13672,176.34961 233.35547,176.25098 233.13672,176.1543 233.35547,176.05566 233.13672,175.95898 233.35547,175.85938 233.13672,175.7627 233.35547,175.66602 233.13672,175.56934 233.35547,175.4707 233.13672,175.37402 233.35547,175.27441 233.13672,175.17773 233.35547,175.08105 233.13672,174.98438 233.35547,174.88574 233.13672,174.78809 233.35547,174.68945 233.13672,174.59277 233.35547,174.49414 233.13672,174.39746 233.35547,174.2998 233.13672,174.20312 233.35547,174.10449 233.13672,174.00781 233.35547,173.90918 233.13672,173.8125 233.35547,173.71484 233.13672,173.61816 233.35547,173.51953 233.13672,173.42285 233.35547,173.32422 233.13672,173.22656 233.35547,173.12793 233.13672,173.03125 233.35547,172.93457 233.13672,172.83789 233.35547,172.73828 233.13672,172.6416 233.35547,172.54297 233.13672,172.44629 233.35547,172.34766 233.13672,172.25 "
   style="fill:url(#XMLID_17_)"
   id="polygon30" />
				
					<linearGradient
   x1="29.923828"
   y1="-181.63818"
   x2="120.60237"
   y2="-181.63818"
   id="XMLID_18_"
   gradientUnits="userSpaceOnUse"
   gradientTransform="matrix(0.706900,0.707400,-0.707400,0.706900,-18.47993,247.2877)">
					<stop
   style="stop-color:#e6edff;stop-opacity:1"
   offset="0"
   id="stop33" />
					<stop
   style="stop-color:#9a9ab1;stop-opacity:1"
   offset="1"
   id="stop35" />
					<a:midPointStop
   style="stop-color:#E6EDFF"
   offset="0" />
					<a:midPointStop
   style="stop-color:#E6EDFF"
   offset="0.5" />
					<a:midPointStop
   style="stop-color:#9A9AB1"
   offset="1" />
				</linearGradient>
				<polygon
   points="93.072754,172.10352 162.68555,140.98438 233.35547,172.15332 163.74219,203.27051 93.072754,172.10352 "
   style="fill:url(#XMLID_18_)"
   id="polygon37" />
				
					<linearGradient
   x1="99.09082"
   y1="172.12695"
   x2="227.33727"
   y2="172.12695"
   id="XMLID_19_"
   gradientUnits="userSpaceOnUse">
					<stop
   style="stop-color:#ffffff;stop-opacity:1"
   offset="0"
   id="stop40" />
					<stop
   style="stop-color:#585868;stop-opacity:1"
   offset="1"
   id="stop42" />
					<a:midPointStop
   style="stop-color:#FFFFFF"
   offset="0" />
					<a:midPointStop
   style="stop-color:#FFFFFF"
   offset="0.5" />
					<a:midPointStop
   style="stop-color:#585868"
   offset="1" />
				</linearGradient>
				<path
   d="M 162.68555,140.98438 L 93.072754,172.10352 L 163.74219,203.27051 L 233.35547,172.15332 L 162.68555,140.98438 z M 163.74023,202.18555 C 162.9668,201.84473 99.349121,173.78711 95.51709,172.09766 C 99.337402,170.38867 161.91602,142.41406 162.6875,142.06934 C 163.46094,142.41211 227.07813,170.46777 230.91211,172.15918 C 227.0918,173.86621 164.51172,201.84082 163.74023,202.18555 z "
   style="fill:url(#XMLID_19_)"
   id="path44" />
				
					<linearGradient
   x1="91.435547"
   y1="203.19434"
   x2="198.5663"
   y2="203.85588"
   id="XMLID_20_"
   gradientUnits="userSpaceOnUse">
					<stop
   style="stop-color:#e6edff;stop-opacity:1"
   offset="0"
   id="stop47" />
					<stop
   style="stop-color:#7d7d99;stop-opacity:1"
   offset="1"
   id="stop49" />
					<a:midPointStop
   style="stop-color:#E6EDFF"
   offset="0" />
					<a:midPointStop
   style="stop-color:#E6EDFF"
   offset="0.5" />
					<a:midPointStop
   style="stop-color:#7D7D99"
   offset="1" />
				</linearGradient>
				<polygon
   points="23.63623,203.18457 93.249023,172.06641 163.91992,203.23535 94.306641,234.35156 23.63623,203.18457 "
   style="fill:url(#XMLID_20_)"
   id="polygon51" />
				
					<linearGradient
   x1="29.79834"
   y1="140.71582"
   x2="172.74742"
   y2="140.71582"
   id="XMLID_21_"
   gradientUnits="userSpaceOnUse">
					<stop
   style="stop-color:#ffffff;stop-opacity:1"
   offset="0"
   id="stop54" />
					<stop
   style="stop-color:#eef2ff;stop-opacity:1"
   offset="0.2130812"
   id="stop56" />
					<stop
   style="stop-color:#e6edff;stop-opacity:1"
   offset="0.37640399"
   id="stop58" />
					<stop
   style="stop-color:#9a9ab1;stop-opacity:1"
   offset="1"
   id="stop60" />
					<a:midPointStop
   style="stop-color:#FFFFFF"
   offset="0" />
					<a:midPointStop
   style="stop-color:#FFFFFF"
   offset="0.382353" />
					<a:midPointStop
   style="stop-color:#E6EDFF"
   offset="0.376404" />
					<a:midPointStop
   style="stop-color:#E6EDFF"
   offset="0.5" />
					<a:midPointStop
   style="stop-color:#9A9AB1"
   offset="1" />
				</linearGradient>
				<polygon
   points="22.644043,140.69043 92.256836,109.57275 162.92773,140.74023 93.314941,171.85938 22.644043,140.69043 "
   style="fill:url(#XMLID_21_)"
   id="polygon62" />
				<g
   id="g64">
					
						<radialGradient
   cx="35.915039"
   cy="179.12402"
   r="117.04955"
   fx="35.915039"
   fy="179.12402"
   id="XMLID_22_"
   gradientUnits="userSpaceOnUse">
						<stop
   style="stop-color:#ffffff;stop-opacity:1"
   offset="0"
   id="stop67" />
						<stop
   style="stop-color:#ececff;stop-opacity:1"
   offset="0.67742008"
   id="stop69" />
						<stop
   style="stop-color:#e1e1ff;stop-opacity:1"
   offset="1"
   id="stop71" />
						<a:midPointStop
   style="stop-color:#FFFFFF"
   offset="0" />
						<a:midPointStop
   style="stop-color:#FFFFFF"
   offset="0.548022" />
						<a:midPointStop
   style="stop-color:#E1E1FF"
   offset="1" />
					</radialGradient>
					<path
   d="M 114.54834,162.36816 C 92.699219,149.53809 56.699707,144.58594 27.381836,142.78027 L 93.314941,171.85938 L 114.54834,162.36816 z "
   style="fill:url(#XMLID_22_)"
   id="path73" />
					
						<radialGradient
   cx="35.909668"
   cy="179.12305"
   r="117.05299"
   fx="35.909668"
   fy="179.12305"
   id="XMLID_23_"
   gradientUnits="userSpaceOnUse">
						<stop
   style="stop-color:#ffffff;stop-opacity:1"
   offset="0"
   id="stop76" />
						<stop
   style="stop-color:#ececff;stop-opacity:1"
   offset="0.67742008"
   id="stop78" />
						<stop
   style="stop-color:#e1e1ff;stop-opacity:1"
   offset="1"
   id="stop80" />
						<a:midPointStop
   style="stop-color:#FFFFFF"
   offset="0" />
						<a:midPointStop
   style="stop-color:#FFFFFF"
   offset="0.548022" />
						<a:midPointStop
   style="stop-color:#E1E1FF"
   offset="1" />
					</radialGradient>
					<path
   d="M 93.249023,172.06641 L 23.63623,203.18457 L 63.273926,220.66602 C 71.786621,208.46973 128.0249,209.14844 133.11914,189.65039 L 93.249023,172.06641 z "
   style="fill:url(#XMLID_23_)"
   id="path82" />
				</g>
				
					<linearGradient
   x1="157.90137"
   y1="203.20898"
   x2="29.654465"
   y2="203.209"
   id="XMLID_24_"
   gradientUnits="userSpaceOnUse">
					<stop
   style="stop-color:#ffffff;stop-opacity:1"
   offset="0"
   id="stop85" />
					<stop
   style="stop-color:#585868;stop-opacity:1"
   offset="1"
   id="stop87" />
					<a:midPointStop
   style="stop-color:#FFFFFF"
   offset="0" />
					<a:midPointStop
   style="stop-color:#FFFFFF"
   offset="0.5" />
					<a:midPointStop
   style="stop-color:#585868"
   offset="1" />
				</linearGradient>
				<path
   d="M 93.249023,172.06641 L 23.63623,203.18457 L 94.306641,234.35156 L 163.91992,203.23535 L 93.249023,172.06641 z M 94.303711,233.2666 C 93.530273,232.92578 29.912598,204.86816 26.080566,203.17871 C 29.901367,201.4707 92.47998,173.49609 93.251953,173.15137 C 94.025391,173.49414 157.64258,201.5498 161.47461,203.24121 C 157.6543,204.94824 95.075195,232.92188 94.303711,233.2666 z "
   style="fill:url(#XMLID_24_)"
   id="path89" />
				
					<linearGradient
   x1="156.90918"
   y1="140.71582"
   x2="28.662277"
   y2="140.71584"
   id="XMLID_25_"
   gradientUnits="userSpaceOnUse">
					<stop
   style="stop-color:#ffffff;stop-opacity:1"
   offset="0"
   id="stop92" />
					<stop
   style="stop-color:#585868;stop-opacity:1"
   offset="1"
   id="stop94" />
					<a:midPointStop
   style="stop-color:#FFFFFF"
   offset="0" />
					<a:midPointStop
   style="stop-color:#FFFFFF"
   offset="0.5" />
					<a:midPointStop
   style="stop-color:#585868"
   offset="1" />
				</linearGradient>
				<path
   d="M 92.256836,109.57275 L 22.644043,140.69043 L 93.314941,171.85937 L 162.92773,140.74023 L 92.256836,109.57275 z M 93.312012,170.77441 C 92.538086,170.43164 28.920898,142.37598 25.088379,140.68457 C 28.90918,138.97754 91.488281,111.00342 92.259766,110.65869 C 93.033203,110.99951 156.65039,139.05664 160.48438,140.74609 C 156.66211,142.45508 94.083496,170.42969 93.312012,170.77441 z "
   style="fill:url(#XMLID_25_)"
   id="path96" />
				<g
   style="opacity:0.3"
   id="g98">
					<path
   d="M 154.22656,136.90234 L 138.02539,138.40234 C 136.26172,138.56445 134.63867,138.9541 133.92578,139.38867 C 133.21094,139.82227 133.54687,140.21387 134.77539,140.37598 L 157.10547,143.34473 L 162.92773,140.74023 L 154.22656,136.90234 z "
   id="path100" />
					<polygon
   points="162.68555,140.98438 157.33984,143.375 172.74805,145.42285 162.68555,140.98438 "
   id="polygon102" />
					<path
   d="M 191.68945,153.77734 L 157.74023,174.40723 C 156.77148,174.99609 173.99414,174.99609 174.96289,174.40723 L 201.66797,158.17871 L 191.68945,153.77734 z "
   id="path104" />
				</g>
				<linearGradient
   x1="75.570312"
   y1="90.3125"
   x2="174.23633"
   y2="90.3125"
   id="XMLID_26_"
   gradientUnits="userSpaceOnUse">
					<stop
   style="stop-color:#990000;stop-opacity:1"
   offset="0"
   id="stop107" />
					<stop
   style="stop-color:#600000;stop-opacity:1"
   offset="1"
   id="stop109" />
					<a:midPointStop
   style="stop-color:#990000"
   offset="0" />
					<a:midPointStop
   style="stop-color:#990000"
   offset="0.5" />
					<a:midPointStop
   style="stop-color:#600000"
   offset="1" />
				</linearGradient>
				<path
   d="M 170.26758,5.7763672 L 160.98047,5.7763672 C 160.97266,5.7763672 160.96484,5.7792969 160.95703,5.7792969 C 160.72461,5.7802735 160.49219,5.8066407 160.26172,5.8491211 C 160.20898,5.8588867 160.15625,5.8691406 160.10547,5.8808594 C 159.89648,5.9282227 159.68945,5.9863282 159.48828,6.0678711 L 159.44531,6.0864258 C 159.43945,6.0883789 159.43555,6.0893555 159.43164,6.0913086 L 78.04541,39.14209 C 76.549316,39.749512 75.570312,41.203613 75.570312,42.818359 C 75.570312,44.433105 76.549316,45.887207 78.04541,46.494629 L 157.01367,78.563477 L 157.01367,173.20605 C 157.01367,175.39648 174.23633,175.39648 174.23633,173.20605 L 174.23633,9.7441406 C 174.23633,7.5527344 172.45898,5.7763672 170.26758,5.7763672 z "
   style="fill:url(#XMLID_26_)"
   id="path111" />
				
					<linearGradient
   x1="79.538086"
   y1="42.818359"
   x2="160.98047"
   y2="42.818359"
   id="XMLID_27_"
   gradientUnits="userSpaceOnUse">
					<stop
   style="stop-color:#ff0000;stop-opacity:1"
   offset="0"
   id="stop114" />
					<stop
   style="stop-color:#990000;stop-opacity:1"
   offset="0.94382012"
   id="stop116" />
					<stop
   style="stop-color:#7c0000;stop-opacity:1"
   offset="1"
   id="stop118" />
					<a:midPointStop
   style="stop-color:#FF0000"
   offset="0" />
					<a:midPointStop
   style="stop-color:#FF0000"
   offset="0.5" />
					<a:midPointStop
   style="stop-color:#990000"
   offset="0.9438201" />
					<a:midPointStop
   style="stop-color:#990000"
   offset="0.5" />
					<a:midPointStop
   style="stop-color:#7C0000"
   offset="1" />
				</linearGradient>
				<polygon
   points="160.98047,75.893066 79.538086,42.818359 160.98047,9.7441406 160.98047,75.893066 "
   style="fill:url(#XMLID_27_)"
   id="polygon120" />
				
					<linearGradient
   x1="160.98047"
   y1="91.475098"
   x2="170.26758"
   y2="91.475098"
   id="XMLID_28_"
   gradientUnits="userSpaceOnUse">
					<stop
   style="stop-color:#824f26;stop-opacity:1"
   offset="0"
   id="stop123" />
					<stop
   style="stop-color:#d6a84a;stop-opacity:1"
   offset="0.20224699"
   id="stop125" />
					<stop
   style="stop-color:#ffe091;stop-opacity:1"
   offset="0.348315"
   id="stop127" />
					<stop
   style="stop-color:#996600;stop-opacity:1"
   offset="1"
   id="stop129" />
					<a:midPointStop
   style="stop-color:#824F26"
   offset="0" />
					<a:midPointStop
   style="stop-color:#824F26"
   offset="0.5" />
					<a:midPointStop
   style="stop-color:#D6A84A"
   offset="0.202247" />
					<a:midPointStop
   style="stop-color:#D6A84A"
   offset="0.5" />
					<a:midPointStop
   style="stop-color:#FFE091"
   offset="0.348315" />
					<a:midPointStop
   style="stop-color:#FFE091"
   offset="0.5" />
					<a:midPointStop
   style="stop-color:#996600"
   offset="1" />
				</linearGradient>
				<rect
   width="9.2871094"
   height="163.46191"
   x="160.98047"
   y="9.7441406"
   style="fill:url(#XMLID_28_)"
   id="rect131" /> 
			</g>
		</g>
	</svg>