<?xml version="1.0" encoding="UTF-8" standalone="no"?>
<!-- Created with Inkscape (http://www.inkscape.org/) -->

<svg
   xmlns:dc="http://purl.org/dc/elements/1.1/"
   xmlns:cc="http://creativecommons.org/ns#"
   xmlns:rdf="http://www.w3.org/1999/02/22-rdf-syntax-ns#"
   xmlns:svg="http://www.w3.org/2000/svg"
   xmlns="http://www.w3.org/2000/svg"
   xmlns:sodipodi="http://sodipodi.sourceforge.net/DTD/sodipodi-0.dtd"
   xmlns:inkscape="http://www.inkscape.org/namespaces/inkscape"
   width="128"
   height="128"
   viewBox="0 0 33.866666 33.866668"
   version="1.1"
   id="svg1962"
   inkscape:version="0.92.3 (2405546, 2018-03-11)"
   sodipodi:docname="ofaj_graduated.svg">
  <defs
     id="defs1956" />
  <sodipodi:namedview
     id="base"
     pagecolor="#ffffff"
     bordercolor="#666666"
     borderopacity="1.0"
     inkscape:pageopacity="0.0"
     inkscape:pageshadow="2"
     inkscape:zoom="3.9296875"
     inkscape:cx="64"
     inkscape:cy="64"
     inkscape:document-units="mm"
     inkscape:current-layer="layer1"
     showgrid="false"
     units="px"
     inkscape:window-width="1366"
     inkscape:window-height="713"
     inkscape:window-x="0"
     inkscape:window-y="27"
     inkscape:window-maximized="1" />
  <metadata
     id="metadata1959">
    <rdf:RDF>
      <cc:Work
         rdf:about="">
        <dc:format>image/svg+xml</dc:format>
        <dc:type
           rdf:resource="http://purl.org/dc/dcmitype/StillImage" />
        <dc:title></dc:title>
      </cc:Work>
    </rdf:RDF>
  </metadata>
  <g
     inkscape:label="Capa 1"
     inkscape:groupmode="layer"
     id="layer1"
     transform="translate(0,-263.13332)">
    <g
       transform="translate(-19.084032,249.21128)"
       id="g1938">
      <rect
         y="13.922043"
         x="19.084032"
         height="33.866665"
         width="33.866665"
         id="rect1841"
         style="opacity:0;fill:#4fa6c2;fill-opacity:1;stroke:none;stroke-width:0.56153017;stroke-linecap:round;stroke-linejoin:bevel;stroke-miterlimit:4;stroke-dasharray:none;stroke-dashoffset:0;stroke-opacity:1" />
      <g
         transform="matrix(1.0514149,0,0,1.0514149,-1.5767318,-0.76112652)"
         id="g1880">
        <path
           id="path1620"
           d="m 48.233207,40.248682 a 13.280868,13.280868 0 0 0 -9.546596,-11.297776 7.3808974,7.3808974 0 1 0 -7.293242,0 13.200522,13.200522 0 0 0 -1.658056,0.595292 13.37217,13.37217 0 0 0 -5.4672,4.422696 13.061742,13.061742 0 0 0 -2.109085,4.629041 c -0.348776,1.502839 -0.715812,3.670359 0.317732,4.994246 a 2.8322048,2.8322048 0 0 0 2.229605,1.084678 h 20.665421 c 1.630664,0 2.861421,-1.329368 2.861421,-2.95273 -0.02554,-0.235559 -0.06025,-0.467466 -0.09678,-0.697545 a 3.1389814,3.1389814 0 0 0 0.09678,-0.777902 z"
           class="cls-5"
           inkscape:connector-curvature="0"
           style="fill:#ffffff;stroke-width:0.18260507" />
        <path
           style="fill:#e6e6e6;stroke-width:0.18260507"
           d="m 35.405789,15.149893 c -3.31504,0.08197 -6.168473,2.364705 -6.976157,5.580891 -0.807684,3.216187 0.628675,6.576221 3.511654,8.214704 -0.565376,0.161125 -1.119308,0.359988 -1.658069,0.595251 -2.182759,0.964548 -4.067864,2.49527 -5.459962,4.433525 -0.999504,1.389052 -1.715618,2.96137 -2.10745,4.627184 -0.781734,2.029066 -0.858419,6.00489 2.538283,6.075542 h 4.565126 C 28.949472,44.676624 28.128147,44.276565 27.591575,43.592064 26.558032,42.270005 26.92502,40.100726 27.2738,38.59788 c 0.391722,-1.665787 1.107713,-3.238105 2.107091,-4.627178 1.395333,-1.936025 3.283028,-3.463662 5.467454,-4.424608 0.53876,-0.235262 1.092692,-0.434132 1.658068,-0.59525 v -0.0055 c -2.542056,-1.44459 -3.99174,-4.253571 -3.696471,-7.162473 0.295269,-2.908903 2.279819,-5.369291 5.060303,-6.273619 -0.79519,-0.258567 -1.628538,-0.380133 -2.464456,-0.359504 z"
           id="path1622"
           inkscape:connector-curvature="0"
           sodipodi:nodetypes="csccccccccccccscc" />
        <path
           style="fill:#1c2224;fill-opacity:1;stroke:none;stroke-width:0.18260507px;stroke-linecap:butt;stroke-linejoin:miter;stroke-opacity:1"
           d="m 24.066918,44.453605 h 21.260201 c 1.892711,-0.0156 2.938912,-1.301001 2.906088,-4.204923 -1.769842,-7.84606 -5.662543,-9.559419 -9.546596,-11.297776 0.861075,9.228177 -8.671809,8.208299 -7.293242,0 -6.192255,2.278967 -8.563344,6.380331 -9.241782,11.288963 -0.206409,2.100339 0.08767,3.788514 1.915331,4.213736 z"
           id="path1624"
           inkscape:connector-curvature="0"
           sodipodi:nodetypes="ccccccc" />
        <path
           sodipodi:nodetypes="cccccccc"
           inkscape:connector-curvature="0"
           id="path1626"
           d="m 24.066918,44.453605 h 21.260201 c 1.892711,-0.0156 2.938912,-1.301001 2.906088,-4.204923 -1.769842,-7.84606 -4.308198,-8.701666 -8.192251,-10.440023 0.90622,10.356797 -11.51343,8.372681 -10.134863,0.164376 -6.192255,2.278966 -7.076068,5.358195 -7.754506,10.266827 -0.206409,2.100339 0.08767,3.788515 1.915331,4.213737 z"
           style="fill:#008b5d;fill-opacity:1;stroke:none;stroke-width:0.18260507px;stroke-linecap:butt;stroke-linejoin:miter;stroke-opacity:1" />
        <path
           id="path1628"
           d="m 48.781022,40.248682 a 14.060591,14.060591 0 0 0 -9.948325,-11.8255 l 0.131476,1.000671 c 5.056333,-2.998377 5.319284,-10.437705 0.281213,-13.611382 -4.760516,-2.998376 -11.242998,0.02739 -12.051936,5.574934 a 8.0346241,8.0346241 0 0 0 3.918707,8.034626 l 0.131475,-1.000678 a 14.003984,14.003984 0 0 0 -9.884415,11.527862 c -0.29582,2.154737 0.211822,4.714862 2.697079,5.213372 0.617204,0.124174 1.291015,0.0657 1.915528,0.0657 h 17.431478 c 0.657378,0 1.318408,0.02374 1.975786,0 a 3.4457579,3.4457579 0 0 0 2.739076,-1.406058 c 0.777901,-1.084677 0.613553,-2.315434 0.666509,-3.569933 0.02919,-0.704855 -1.066409,-0.703026 -1.09563,0 -0.01097,0.262951 -0.08947,0.516772 -0.09678,0.777901 -0.01097,0.317729 0.116871,0.626335 0.08765,0.951373 a 2.4322998,2.4322998 0 0 1 -0.730418,1.526574 c -0.472947,0.451034 -1.040846,0.598949 -1.674489,0.624513 -0.604422,0.02374 -1.214325,0 -1.826049,0 H 27.59883 c -1.709184,0 -4.331388,0.482077 -5.058157,-1.564926 -0.425471,-1.199714 -0.138781,-2.622212 0.146083,-3.820096 a 12.714792,12.714792 0 0 1 1.871701,-4.238265 12.886441,12.886441 0 0 1 6.97917,-5.027119 0.54781526,0.54781526 0 0 0 0.131476,-1.000678 C 27.332228,25.90867 27.040062,19.497407 31.38789,16.758331 c 4.075745,-2.567427 9.615985,-0.07669 10.399359,4.676516 0.465644,2.832205 -0.940414,5.596846 -3.376371,7.043078 a 0.54781526,0.54781526 0 0 0 0.131475,1.000678 12.921136,12.921136 0 0 1 9.144868,10.773696 c 0.08217,0.688422 1.17963,0.69573 1.093801,-0.0035 z"
           class="cls-6"
           inkscape:connector-curvature="0"
           style="fill:#1c2224;stroke-width:0.18260507" />
        <g
           id="g1866">
          <path
             inkscape:connector-curvature="0"
             id="path1826"
             d="M 49.036466,30.636545 H 34.221514 c -0.656807,0 -1.191225,0.53442 -1.191225,1.191225 v 10.051076 c 0,0.656806 0.534418,1.191225 1.191225,1.191225 h 8.638827 l -0.260844,1.590794 c -0.04908,0.29944 0.04997,0.570694 0.264996,0.72549 0.214966,0.154796 0.503446,0.163099 0.771982,0.02153 l 1.863824,-0.981016 c 0.052,-0.02671 0.195293,-0.02671 0.247298,0 l 1.863823,0.981016 c 0.127496,0.06708 0.259551,0.100543 0.386093,0.100543 0.139952,0 0.273097,-0.04093 0.385957,-0.122187 0.214966,-0.154789 0.314006,-0.426119 0.264997,-0.725559 l -0.260776,-1.59071 h 0.648842 c 0.656807,0 1.191225,-0.53442 1.191225,-1.191225 V 31.827743 c -6.8e-5,-0.656882 -0.534486,-1.191225 -1.191292,-1.191225 z"
             style="fill:#1c2224;fill-opacity:1;stroke-width:0.06806996" />
          <path
             inkscape:connector-curvature="0"
             id="path1824"
             d="m 45.623982,41.028244 c -1.144733,0 -2.076134,-0.9314 -2.076134,-2.076136 0,-1.144728 0.931401,-2.076128 2.076134,-2.076128 1.144733,0 2.076134,0.9314 2.076134,2.076128 0,1.144736 -0.931401,2.076136 -2.076134,2.076136 z"
             style="fill:#ffba00;fill-opacity:1;stroke-width:0.06806996" />
          <path
             inkscape:connector-curvature="0"
             id="path1822"
             d="m 46.223202,43.523417 c -0.347225,-0.182837 -0.851283,-0.182837 -1.19844,0 l -1.317698,0.693564 0.418902,-2.55528 c 0.444293,0.246622 0.954954,0.387525 1.498084,0.387525 0.54313,0 1.053723,-0.140972 1.498084,-0.387525 l 0.163231,0.996206 c 4.09e-4,0.0014 5.45e-4,0.0035 8.97e-4,0.0048 l 0.254786,1.554112 z"
             style="fill:#ffba00;fill-opacity:1;stroke-width:0.06806996" />
          <path
             inkscape:connector-curvature="0"
             id="path1732"
             d="m 49.206641,41.878846 c 0,0.09224 -0.07794,0.170173 -0.170175,0.170173 h -0.816228 l -0.186443,-1.137378 c -6.9e-4,-0.0041 -0.0019,-0.0088 -0.0029,-0.01325 0.431224,-0.532169 0.690298,-1.209459 0.690298,-1.946254 0,-1.707803 -1.389376,-3.097187 -3.097184,-3.097187 -1.707807,0 -3.097183,1.389384 -3.097183,3.097187 0,0.736795 0.259074,1.413947 0.690297,1.946254 -8.97e-4,0.0041 -0.0021,0.0088 -0.0029,0.01318 l -0.186581,1.138338 c -0.0057,-2.07e-4 -0.01123,-6.9e-4 -0.01695,-6.9e-4 h -8.789181 c -0.09224,0 -0.170175,-0.07793 -0.170175,-0.170173 V 31.82797 c 0,-0.09224 0.07794,-0.170173 0.170175,-0.170173 h 14.814952 c 0.09224,0 0.170175,0.07793 0.170175,0.170173 z"
             style="fill:#ffffff;stroke-width:0.06806996" />
          <path
             inkscape:connector-curvature="0"
             style="fill:#1c2224;fill-opacity:1;stroke-width:0.06806996"
             d="M 47.230978,33.574581 H 35.659083 c -0.282013,0 -0.510524,0.228513 -0.510524,0.510526 0,0.282014 0.228511,0.510526 0.510524,0.510526 h 11.571895 c 0.282014,0 0.510525,-0.228512 0.510525,-0.510526 0,-0.282013 -0.228511,-0.510526 -0.510525,-0.510526 z"
             id="path1734" />
          <path
             inkscape:connector-curvature="0"
             style="fill:#1c2224;fill-opacity:1;stroke-width:0.06806996"
             d="m 40.560121,36.342851 h -4.901038 c -0.282013,0 -0.510524,0.228513 -0.510524,0.510519 0,0.282021 0.228511,0.510533 0.510524,0.510533 h 4.901038 c 0.282014,0 0.510525,-0.228512 0.510525,-0.510533 0,-0.282006 -0.228511,-0.510519 -0.510525,-0.510519 z"
             id="path1736" />
        </g>
      </g>
    </g>
  </g>
</svg>
