<?xml version="1.0" encoding="UTF-8" standalone="no"?>
<!-- Created with Inkscape (http://www.inkscape.org/) -->

<svg
   xmlns:dc="http://purl.org/dc/elements/1.1/"
   xmlns:cc="http://creativecommons.org/ns#"
   xmlns:rdf="http://www.w3.org/1999/02/22-rdf-syntax-ns#"
   xmlns:svg="http://www.w3.org/2000/svg"
   xmlns="http://www.w3.org/2000/svg"
   xmlns:sodipodi="http://sodipodi.sourceforge.net/DTD/sodipodi-0.dtd"
   xmlns:inkscape="http://www.inkscape.org/namespaces/inkscape"
   width="128"
   height="128"
   viewBox="0 0 33.866666 33.866668"
   version="1.1"
   id="svg1962"
   inkscape:version="0.92.3 (2405546, 2018-03-11)"
   sodipodi:docname="ofaj_teacher.svg">
  <defs
     id="defs1956" />
  <sodipodi:namedview
     id="base"
     pagecolor="#ffffff"
     bordercolor="#666666"
     borderopacity="1.0"
     inkscape:pageopacity="0.0"
     inkscape:pageshadow="2"
     inkscape:zoom="3.9296875"
     inkscape:cx="64"
     inkscape:cy="64"
     inkscape:document-units="mm"
     inkscape:current-layer="layer1"
     showgrid="false"
     units="px"
     inkscape:window-width="1366"
     inkscape:window-height="713"
     inkscape:window-x="0"
     inkscape:window-y="27"
     inkscape:window-maximized="1" />
  <metadata
     id="metadata1959">
    <rdf:RDF>
      <cc:Work
         rdf:about="">
        <dc:format>image/svg+xml</dc:format>
        <dc:type
           rdf:resource="http://purl.org/dc/dcmitype/StillImage" />
        <dc:title></dc:title>
      </cc:Work>
    </rdf:RDF>
  </metadata>
  <g
     inkscape:label="Capa 1"
     inkscape:groupmode="layer"
     id="layer1"
     transform="translate(0,-263.13332)">
    <g
       transform="translate(-106.63519,249.16753)"
       id="g1909">
      <rect
         y="13.96579"
         x="106.63519"
         height="33.866665"
         width="33.866665"
         id="rect1845"
         style="opacity:0;fill:#4fa6c2;fill-opacity:1;stroke:none;stroke-width:0.56153017;stroke-linecap:round;stroke-linejoin:bevel;stroke-miterlimit:4;stroke-dasharray:none;stroke-dashoffset:0;stroke-opacity:1" />
      <g
         transform="matrix(0.70292109,0,0,0.70292109,40.740547,-44.478325)"
         id="g1382">
        <path
           id="path1190"
           d="m 136.95771,122.17529 a 19.243146,19.243146 0 0 0 -13.83242,-16.36977 10.694458,10.694458 0 1 0 -10.56745,0 19.126729,19.126729 0 0 0 -2.40242,0.86254 19.375437,19.375437 0 0 0 -7.92163,6.40821 18.925646,18.925646 0 0 0 -3.055933,6.70719 c -0.505354,2.17752 -1.037166,5.31812 0.460375,7.23635 a 4.1036874,4.1036874 0 0 0 3.230558,1.57163 h 29.9429 c 2.36273,0 4.14602,-1.92617 4.14602,-4.27832 -0.037,-0.34131 -0.0873,-0.67733 -0.14023,-1.0107 a 4.5481874,4.5481874 0 0 0 0.14023,-1.12713 z"
           class="cls-5"
           inkscape:connector-curvature="0"
           style="fill:#ffffff;stroke-width:0.26458332" />
        <path
           style="fill:#e6e6e6;stroke-width:0.99999994"
           d="m 447.38867,324.31641 c -18.15415,0.44891 -33.7804,12.94983 -38.20352,30.56263 -4.42312,17.6128 3.44281,36.01334 19.23087,44.98619 -3.09617,0.88236 -6.12967,1.9714 -9.08008,3.25977 -11.95344,5.28215 -22.27684,13.66482 -29.90039,24.2793 -5.47358,7.60685 -9.39523,16.21735 -11.54102,25.33984 -4.28101,11.11175 -4.70096,32.88455 13.90039,33.27148 h 25 c -4.76297,-0.002 -9.26079,-2.19286 -12.19922,-5.9414 -5.65999,-7.23999 -3.65025,-19.11961 -1.74023,-27.34961 2.14519,-9.12235 6.06617,-17.73283 11.53906,-25.33984 7.64126,-10.60223 17.97884,-18.96805 29.94141,-24.23047 2.95041,-1.28837 5.98391,-2.37741 9.08008,-3.25977 v -0.0293 c -13.92106,-7.91102 -21.85996,-23.29384 -20.24298,-39.22386 1.61698,-15.93002 12.48497,-29.40384 27.71173,-34.35621 -4.3547,-1.41599 -8.91836,-2.08172 -13.4961,-1.96875 z"
           transform="scale(0.26458333)"
           id="path1194"
           inkscape:connector-curvature="0"
           sodipodi:nodetypes="csccccccccccccscc" />
        <path
           style="opacity:1;fill:#ff0000;fill-opacity:1;stroke:none;stroke-width:0.70555556;stroke-linecap:round;stroke-linejoin:bevel;stroke-miterlimit:4;stroke-dasharray:none;stroke-dashoffset:0;stroke-opacity:1"
           d="m 116.56459,108.38812 h 2.65329 l 1.20259,6.6514 -1.20259,7.35427 -1.45698,2.1739 -1.19631,-2.1739 -1.24884,-7.81681 z"
           id="rect1370"
           inkscape:connector-curvature="0"
           sodipodi:nodetypes="cccccccc" />
        <path
           style="fill:#0055d4;stroke:none;stroke-width:0.26458332px;stroke-linecap:butt;stroke-linejoin:miter;stroke-opacity:1"
           d="m 101.94227,128.26796 h 30.8047 c 2.74242,-0.0226 4.2583,-1.88507 4.21074,-6.09267 -2.56439,-11.36845 -8.20467,-13.851 -13.83242,-16.36977 l -5.59894,12.97835 -4.96851,-12.97835 c -8.97219,3.30208 -12.40775,9.2447 -13.390764,16.357 -0.299073,3.04326 0.12703,5.48932 2.775194,6.10544 z"
           id="path1364"
           inkscape:connector-curvature="0"
           sodipodi:nodetypes="cccccccc" />
        <path
           style="fill:#80b3ff;stroke:none;stroke-width:0.26458332px;stroke-linecap:butt;stroke-linejoin:miter;stroke-opacity:1"
           d="m 112.55784,105.80552 -5.73997,5.94757 10.70848,7.03078 10.28878,-7.16161 -4.68984,-5.81674 -5.59894,12.97835 z"
           id="path1366"
           inkscape:connector-curvature="0"
           sodipodi:nodetypes="ccccccc" />
        <path
           id="path1202"
           d="m 137.75146,122.17529 a 20.372916,20.372916 0 0 0 -14.4145,-17.13441 l 0.1905,1.44991 c 7.32631,-4.34446 7.70731,-15.123581 0.40746,-19.72204 -6.89769,-4.344458 -16.2904,0.03969 -17.4625,8.07773 a 11.641667,11.641667 0 0 0 5.67796,11.64167 l 0.1905,-1.44992 a 20.290896,20.290896 0 0 0 -14.321898,16.70315 c -0.428625,3.12208 0.306917,6.83154 3.907898,7.55385 0.89429,0.17992 1.8706,0.0952 2.77548,0.0952 h 25.25712 c 0.9525,0 1.91029,0.0344 2.86279,0 a 4.9926874,4.9926874 0 0 0 3.96875,-2.03729 c 1.12713,-1.57163 0.889,-3.35492 0.96573,-5.17261 0.0423,-1.02129 -1.54516,-1.01864 -1.5875,0 -0.0159,0.381 -0.12964,0.74877 -0.14023,1.12713 -0.0159,0.46037 0.16934,0.90752 0.127,1.37848 a 3.52425,3.52425 0 0 1 -1.05833,2.21191 c -0.68527,0.65352 -1.50812,0.86784 -2.42623,0.90488 -0.87577,0.0344 -1.75948,0 -2.64583,0 h -22.96584 c -2.4765,0 -6.27591,0.6985 -7.328953,-2.26748 -0.61648,-1.73831 -0.201084,-3.79942 0.211666,-5.53508 a 18.422937,18.422937 0 0 1 2.711977,-6.14098 18.671646,18.671646 0 0 1 10.11238,-7.28398 0.79374999,0.79374999 0 0 0 0.1905,-1.44992 c -6.28386,-3.72798 -6.70719,-13.017498 -0.40746,-16.986248 5.9055,-3.720041 13.93296,-0.111125 15.06802,6.775979 0.67469,4.103688 -1.3626,8.109479 -4.89215,10.204979 a 0.79374999,0.79374999 0 0 0 0.1905,1.44992 18.721916,18.721916 0 0 1 13.25034,15.61041 c 0.11906,0.99748 1.70921,1.00807 1.58485,-0.005 z"
           class="cls-6"
           inkscape:connector-curvature="0"
           style="fill:#1c2224;stroke-width:0.26458332" />
        <path
           inkscape:connector-curvature="0"
           transform="matrix(0.5790589,0.21131914,-0.21131914,0.5790589,72.897017,21.040889)"
           style="opacity:1;fill:#ff0000;fill-opacity:1;stroke:none;stroke-width:0.70555556;stroke-linecap:round;stroke-linejoin:bevel;stroke-miterlimit:4;stroke-dasharray:none;stroke-dashoffset:0;stroke-opacity:1"
           inkscape:transform-center-x="-0.2827321"
           inkscape:transform-center-y="-0.65850098"
           d="m 120.11693,110.06051 -4.00766,1.46053 -2.62748,-3.36019 2.38379,-3.53723 4.10074,1.17405 z"
           id="path1368" />
      </g>
    </g>
  </g>
</svg>
