<?xml version="1.0" encoding="UTF-8" standalone="no"?>
<!-- Created with Inkscape (http://www.inkscape.org/) -->

<svg
   xmlns:dc="http://purl.org/dc/elements/1.1/"
   xmlns:cc="http://creativecommons.org/ns#"
   xmlns:rdf="http://www.w3.org/1999/02/22-rdf-syntax-ns#"
   xmlns:svg="http://www.w3.org/2000/svg"
   xmlns="http://www.w3.org/2000/svg"
   xmlns:sodipodi="http://sodipodi.sourceforge.net/DTD/sodipodi-0.dtd"
   xmlns:inkscape="http://www.inkscape.org/namespaces/inkscape"
   width="128"
   height="128"
   viewBox="0 0 33.866666 33.866668"
   version="1.1"
   id="svg1962"
   inkscape:version="0.92.3 (2405546, 2018-03-11)"
   sodipodi:docname="ofaj_admin.svg">
  <defs
     id="defs1956" />
  <sodipodi:namedview
     id="base"
     pagecolor="#ffffff"
     bordercolor="#666666"
     borderopacity="1.0"
     inkscape:pageopacity="0.0"
     inkscape:pageshadow="2"
     inkscape:zoom="3.9296875"
     inkscape:cx="64"
     inkscape:cy="64"
     inkscape:document-units="mm"
     inkscape:current-layer="layer1"
     showgrid="false"
     units="px"
     inkscape:window-width="1366"
     inkscape:window-height="713"
     inkscape:window-x="0"
     inkscape:window-y="27"
     inkscape:window-maximized="1" />
  <metadata
     id="metadata1959">
    <rdf:RDF>
      <cc:Work
         rdf:about="">
        <dc:format>image/svg+xml</dc:format>
        <dc:type
           rdf:resource="http://purl.org/dc/dcmitype/StillImage" />
        <dc:title></dc:title>
      </cc:Work>
    </rdf:RDF>
  </metadata>
  <g
     inkscape:label="Capa 1"
     inkscape:groupmode="layer"
     id="layer1"
     transform="translate(0,-263.13332)">
    <g
       transform="translate(-147.52081,248.74808)"
       id="g1898">
      <rect
         style="opacity:0;fill:#4fa6c2;fill-opacity:1;stroke:none;stroke-width:0.56153017;stroke-linecap:round;stroke-linejoin:bevel;stroke-miterlimit:4;stroke-dasharray:none;stroke-dashoffset:0;stroke-opacity:1"
         id="rect1847"
         width="33.866665"
         height="33.866665"
         x="147.52081"
         y="14.385244" />
      <g
         transform="matrix(0.6817629,0,0,0.6817629,53.032602,-42.35217)"
         id="g1618">
        <path
           style="fill:#ffffff;stroke-width:0.26458332"
           inkscape:connector-curvature="0"
           class="cls-5"
           d="m 180.9146,122.17529 a 19.243146,19.243146 0 0 0 -13.83242,-16.36977 10.694458,10.694458 0 1 0 -10.56745,0 19.126729,19.126729 0 0 0 -2.40242,0.86254 19.375437,19.375437 0 0 0 -7.92163,6.40821 18.925646,18.925646 0 0 0 -3.05593,6.70719 c -0.50535,2.17752 -1.03717,5.31812 0.46038,7.23635 a 4.1036874,4.1036874 0 0 0 3.23055,1.57163 h 29.9429 c 2.36273,0 4.14602,-1.92617 4.14602,-4.27832 -0.037,-0.34131 -0.0873,-0.67733 -0.14023,-1.0107 a 4.5481874,4.5481874 0 0 0 0.14023,-1.12713 z"
           id="path1384" />
        <path
           sodipodi:nodetypes="csccccccccccccscc"
           inkscape:connector-curvature="0"
           id="path1386"
           d="m 162.32848,85.808716 c -4.80329,0.118774 -8.93773,3.426309 -10.10802,8.086362 -1.17028,4.660053 0.91091,9.528532 5.08817,11.902592 -0.81919,0.23346 -1.62181,0.5216 -2.40244,0.86248 -3.16268,1.39757 -5.89408,3.61549 -7.91114,6.4239 -1.44822,2.01265 -2.48582,4.29084 -3.05356,6.7045 -1.13269,2.93999 -1.2438,8.70071 3.67781,8.80308 h 6.61458 c -1.2602,-5.3e-4 -2.45025,-0.58019 -3.22771,-1.57199 -1.49754,-1.91558 -0.96579,-5.05873 -0.46043,-7.23626 0.56758,-2.41362 1.605,-4.69181 3.05304,-6.70449 2.02175,-2.80518 4.7569,-5.01863 7.922,-6.41098 0.78063,-0.34088 1.58324,-0.62903 2.40243,-0.86248 v -0.008 c -3.68328,-2.09312 -5.78378,-6.163158 -5.35595,-10.377975 0.42783,-4.214818 3.30331,-7.779766 7.33206,-9.090081 -1.15218,-0.374647 -2.35965,-0.550788 -3.57084,-0.520898 z"
           style="fill:#e6e6e6;stroke-width:0.26458332" />
        <path
           sodipodi:nodetypes="cccccccc"
           inkscape:connector-curvature="0"
           id="path1388"
           d="m 160.52148,108.38812 h 2.65329 l 1.20259,6.6514 -1.20259,7.35427 -1.45698,2.1739 -1.19631,-2.1739 -1.24884,-7.81681 z"
           style="opacity:1;fill:#002777;fill-opacity:1;stroke:none;stroke-width:0.70555556;stroke-linecap:round;stroke-linejoin:bevel;stroke-miterlimit:4;stroke-dasharray:none;stroke-dashoffset:0;stroke-opacity:1" />
        <path
           sodipodi:nodetypes="cccccccc"
           inkscape:connector-curvature="0"
           id="path1390"
           d="m 145.89916,128.26796 h 30.8047 c 2.74242,-0.0226 4.2583,-1.88507 4.21074,-6.09267 -2.56439,-11.36845 -8.20467,-13.851 -13.83242,-16.36977 l -5.59894,12.97835 -4.96851,-12.97835 c -8.97219,3.30208 -12.40775,9.2447 -13.39076,16.357 -0.29907,3.04326 0.12703,5.48932 2.77519,6.10544 z"
           style="fill:#1c2224;fill-opacity:1;stroke:none;stroke-width:0.26458332px;stroke-linecap:butt;stroke-linejoin:miter;stroke-opacity:1" />
        <path
           sodipodi:nodetypes="ccccccc"
           inkscape:connector-curvature="0"
           id="path1392"
           d="m 156.51473,105.80552 -5.73997,5.94757 10.70848,7.03078 10.28878,-7.16161 -4.68984,-5.81674 -5.59894,12.97835 z"
           style="fill:#c1c1c1;fill-opacity:1;stroke:none;stroke-width:0.26458332px;stroke-linecap:butt;stroke-linejoin:miter;stroke-opacity:1" />
        <path
           style="fill:#1c2224;stroke-width:0.26458332"
           inkscape:connector-curvature="0"
           class="cls-6"
           d="m 181.70835,122.17529 a 20.372916,20.372916 0 0 0 -14.4145,-17.13441 l 0.1905,1.44991 c 7.32631,-4.34446 7.70731,-15.123581 0.40746,-19.72204 -6.89769,-4.344458 -16.2904,0.03969 -17.4625,8.07773 a 11.641667,11.641667 0 0 0 5.67796,11.64167 l 0.1905,-1.44992 a 20.290896,20.290896 0 0 0 -14.32189,16.70315 c -0.42863,3.12208 0.30691,6.83154 3.90789,7.55385 0.89429,0.17992 1.8706,0.0952 2.77548,0.0952 h 25.25712 c 0.9525,0 1.91029,0.0344 2.86279,0 a 4.9926874,4.9926874 0 0 0 3.96875,-2.03729 c 1.12713,-1.57163 0.889,-3.35492 0.96573,-5.17261 0.0423,-1.02129 -1.54516,-1.01864 -1.5875,0 -0.0159,0.381 -0.12964,0.74877 -0.14023,1.12713 -0.0159,0.46037 0.16934,0.90752 0.127,1.37848 a 3.52425,3.52425 0 0 1 -1.05833,2.21191 c -0.68527,0.65352 -1.50812,0.86784 -2.42623,0.90488 -0.87577,0.0344 -1.75948,0 -2.64583,0 h -22.96584 c -2.4765,0 -6.27591,0.6985 -7.32895,-2.26748 -0.61648,-1.73831 -0.20108,-3.79942 0.21167,-5.53508 a 18.422937,18.422937 0 0 1 2.71197,-6.14098 18.671646,18.671646 0 0 1 10.11238,-7.28398 0.79374999,0.79374999 0 0 0 0.1905,-1.44992 c -6.28386,-3.72798 -6.70719,-13.017498 -0.40746,-16.986248 5.9055,-3.720041 13.93296,-0.111125 15.06802,6.775979 0.67469,4.103688 -1.3626,8.109479 -4.89215,10.204979 a 0.79374999,0.79374999 0 0 0 0.1905,1.44992 18.721916,18.721916 0 0 1 13.25034,15.61041 c 0.11906,0.99748 1.70921,1.00807 1.58485,-0.005 z"
           id="path1394" />
        <path
           inkscape:connector-curvature="0"
           id="path1396"
           d="m 163.1508,110.15541 -2.62931,-0.001 -0.8114,-2.50098 2.12784,-1.54453 2.12647,1.54641 z"
           inkscape:transform-center-y="-0.65850098"
           inkscape:transform-center-x="-0.2827321"
           style="opacity:1;fill:#002777;fill-opacity:1;stroke:none;stroke-width:0.43491361;stroke-linecap:round;stroke-linejoin:bevel;stroke-miterlimit:4;stroke-dasharray:none;stroke-dashoffset:0;stroke-opacity:1" />
        <g
           id="g1536"
           transform="matrix(1.131579,0,0,1.131579,-22.844674,-17.003888)">
          <path
             id="path1482"
             d="m 182.66259,118.70575 -1.92537,-0.38583 c -0.0968,-0.27838 -0.21114,-0.54858 -0.33744,-0.80999 l 1.09087,-1.63632 c 0.33242,-0.49831 0.26644,-1.16251 -0.15709,-1.58541 l -1.20902,-1.20902 c -0.24318,-0.24318 -0.56429,-0.36823 -0.88979,-0.36823 -0.24067,0 -0.48386,0.0691 -0.69562,0.21114 l -1.63632,1.09025 c -0.26266,-0.12694 -0.53287,-0.24005 -0.81124,-0.33682 l -0.38583,-1.926 c -0.11688,-0.58817 -0.63342,-1.01044 -1.23227,-1.01044 h -1.70921 c -0.59885,0 -1.11475,0.4229 -1.23226,1.01044 l -0.38583,1.926 c -0.27837,0.0968 -0.54858,0.21051 -0.80999,0.33682 l -1.63568,-1.09025 c -0.21303,-0.14202 -0.45558,-0.21114 -0.69688,-0.21114 -0.32488,0 -0.64598,0.12505 -0.88917,0.36823 l -1.20838,1.20902 c -0.42354,0.42353 -0.48952,1.0871 -0.1571,1.58541 l 1.09025,1.63632 c -0.12694,0.26204 -0.24005,0.53224 -0.33682,0.81062 l -1.92663,0.3852 c -0.58754,0.11751 -1.01044,0.63341 -1.01044,1.23226 v 1.70921 c 0,0.59885 0.4229,1.11538 1.01044,1.23226 l 1.92601,0.38646 c 0.0968,0.27838 0.2105,0.54858 0.33681,0.80999 l -1.08962,1.63632 c -0.33242,0.4983 -0.26644,1.16251 0.1571,1.58541 l 1.20901,1.20902 c 0.24318,0.24318 0.56429,0.36823 0.88916,0.36823 0.2413,0 0.48449,-0.0697 0.69626,-0.21114 l 1.63631,-1.09088 c 0.26204,0.12757 0.53224,0.24068 0.81062,0.33745 l 0.3852,1.92537 c 0.11751,0.58817 0.63341,1.01107 1.23226,1.01107 h 1.70921 c 0.59885,0 1.11539,-0.42353 1.23227,-1.01107 l 0.38645,-1.92537 c 0.27838,-0.0968 0.54858,-0.21114 0.80999,-0.33745 l 1.63632,1.09088 c 0.21239,0.14139 0.45558,0.21114 0.69562,0.21114 0.3255,0 0.64661,-0.12505 0.88979,-0.36823 l 1.20902,-1.20902 c 0.42353,-0.42353 0.48951,-1.08711 0.15709,-1.58541 l -1.09087,-1.63632 c 0.12756,-0.26267 0.24067,-0.53287 0.33744,-0.81125 l 1.92537,-0.3852 c 0.58754,-0.11625 1.01107,-0.63341 1.01107,-1.23226 v -1.70921 c 0,-0.59885 -0.42353,-1.11475 -1.01107,-1.23226 z"
             style="fill:#1c2224;fill-opacity:1;stroke-width:0.62838542"
             inkscape:connector-curvature="0" />
          <path
             id="path1459"
             d="m 180.49026,122.03305 c -0.43672,0.0873 -0.79428,0.39902 -0.94006,0.82004 -0.0811,0.23188 -0.17532,0.45684 -0.28089,0.67489 -0.19543,0.40154 -0.16212,0.87534 0.0848,1.24546 l 1.09088,1.63631 -1.20901,1.20902 -1.63632,-1.09088 c -0.20988,-0.14013 -0.45307,-0.21114 -0.69688,-0.21114 -0.18663,0 -0.37452,0.0415 -0.54732,0.12505 -0.21868,0.10557 -0.44301,0.20108 -0.67615,0.28215 -0.41976,0.14578 -0.73144,0.50333 -0.81878,0.94006 l -0.38646,1.92663 h -1.70921 l -0.3852,-1.92663 c -0.0873,-0.43673 -0.39902,-0.79428 -0.81941,-0.94006 -0.23188,-0.0811 -0.45747,-0.17532 -0.67552,-0.28089 -0.17343,-0.0848 -0.36069,-0.12631 -0.54795,-0.12631 -0.24444,0 -0.487,0.071 -0.69688,0.21114 l -1.63631,1.09088 -1.20902,-1.20902 1.09025,-1.63631 c 0.24696,-0.37075 0.279,-0.84455 0.0861,-1.24421 -0.10557,-0.21867 -0.20045,-0.44301 -0.28152,-0.67614 -0.14578,-0.41976 -0.50396,-0.73144 -0.94006,-0.81878 l -1.926,-0.38646 -0.001,-1.70984 1.92663,-0.3852 c 0.4361,-0.0873 0.79428,-0.39902 0.94007,-0.81941 0.0811,-0.23188 0.17469,-0.45747 0.28088,-0.67552 0.1948,-0.40091 0.16213,-0.87471 -0.0855,-1.24483 l -1.08962,-1.63632 1.20839,-1.20901 1.63631,1.09025 c 0.20988,0.14013 0.45307,0.21114 0.69688,0.21114 0.18663,0 0.37389,-0.0415 0.54733,-0.12505 0.21805,-0.10557 0.44301,-0.20046 0.67551,-0.28152 0.42039,-0.14578 0.73207,-0.50396 0.81942,-0.94006 l 0.38582,-1.926 1.70921,-6.3e-4 0.3852,1.92663 c 0.0874,0.4361 0.39903,0.79428 0.82005,0.94006 0.23187,0.0811 0.45683,0.17469 0.67488,0.28089 0.17407,0.0842 0.3607,0.12568 0.54858,0.12568 0.24444,0 0.487,-0.071 0.69688,-0.21114 l 1.63632,-1.09025 1.20901,1.20901 -1.09088,1.63632 c -0.24695,0.37075 -0.27837,0.84392 -0.0861,1.2442 0.10556,0.21805 0.20108,0.44302 0.28214,0.67552 0.14579,0.42039 0.50334,0.73207 0.94007,0.81941 l 1.92537,0.38583 0.002,1.70921 z"
             style="fill:#ffcc00;fill-opacity:1;stroke-width:0.62838542"
             inkscape:connector-curvature="0" />
          <path
             id="path1486"
             d="m 173.6195,116.39392 c -2.42871,0 -4.3987,1.96999 -4.3987,4.3987 0,2.42933 1.96999,4.39869 4.3987,4.39869 2.42871,0 4.3987,-1.96998 4.3987,-4.39869 0,-2.42871 -1.96999,-4.3987 -4.3987,-4.3987 z"
             style="fill:#1c2224;fill-opacity:1;stroke-width:0.62838542"
             inkscape:connector-curvature="0" />
          <path
             id="path1461"
             d="m 173.6195,124.6421 c -2.1252,0 -3.84886,-1.72428 -3.84886,-3.84886 0,-2.1252 1.72366,-3.84886 3.84886,-3.84886 2.12457,0 3.84886,1.72366 3.84886,3.84886 0,2.12458 -1.72429,3.84886 -3.84886,3.84886 z"
             style="fill:#ffa200;fill-opacity:1;stroke-width:0.62838542"
             inkscape:connector-curvature="0" />
          <path
             id="path1490"
             d="m 173.6195,118.27907 c -1.38873,0 -2.51354,1.12481 -2.51354,2.51355 0,1.3881 1.12481,2.51354 2.51354,2.51354 1.3881,0 2.51354,-1.12544 2.51354,-2.51354 0,-1.38811 -1.12544,-2.51355 -2.51354,-2.51355 z"
             style="fill:#1c2224;fill-opacity:1;stroke-width:0.62838542"
             inkscape:connector-curvature="0" />
          <path
             id="path1463"
             d="m 173.6195,122.6784 c -1.04061,0 -1.88516,-0.84455 -1.88516,-1.88516 0,-1.0406 0.84455,-1.88515 1.88516,-1.88515 1.0406,0 1.88515,0.84455 1.88515,1.88515 0,1.04061 -0.84455,1.88516 -1.88515,1.88516 z"
             style="fill:#0055d4;fill-opacity:1;stroke-width:0.62838542"
             inkscape:connector-curvature="0" />
        </g>
      </g>
    </g>
  </g>
</svg>
