<?xml version="1.0" encoding="UTF-8" standalone="no"?>
<!-- Created with Inkscape (http://www.inkscape.org/) -->

<svg
   xmlns:dc="http://purl.org/dc/elements/1.1/"
   xmlns:cc="http://creativecommons.org/ns#"
   xmlns:rdf="http://www.w3.org/1999/02/22-rdf-syntax-ns#"
   xmlns:svg="http://www.w3.org/2000/svg"
   xmlns="http://www.w3.org/2000/svg"
   xmlns:sodipodi="http://sodipodi.sourceforge.net/DTD/sodipodi-0.dtd"
   xmlns:inkscape="http://www.inkscape.org/namespaces/inkscape"
   width="128"
   height="128"
   viewBox="0 0 33.866666 33.866668"
   version="1.1"
   id="svg1962"
   inkscape:version="0.92.3 (2405546, 2018-03-11)"
   sodipodi:docname="ofaj_student.svg">
  <defs
     id="defs1956" />
  <sodipodi:namedview
     id="base"
     pagecolor="#ffffff"
     bordercolor="#666666"
     borderopacity="1.0"
     inkscape:pageopacity="0.0"
     inkscape:pageshadow="2"
     inkscape:zoom="3.9296875"
     inkscape:cx="64"
     inkscape:cy="64"
     inkscape:document-units="mm"
     inkscape:current-layer="layer1"
     showgrid="false"
     units="px"
     inkscape:window-width="1366"
     inkscape:window-height="713"
     inkscape:window-x="0"
     inkscape:window-y="27"
     inkscape:window-maximized="1" />
  <metadata
     id="metadata1959">
    <rdf:RDF>
      <cc:Work
         rdf:about="">
        <dc:format>image/svg+xml</dc:format>
        <dc:type
           rdf:resource="http://purl.org/dc/dcmitype/StillImage" />
        <dc:title></dc:title>
      </cc:Work>
    </rdf:RDF>
  </metadata>
  <g
     inkscape:label="Capa 1"
     inkscape:groupmode="layer"
     id="layer1"
     transform="translate(0,-263.13332)">
    <g
       transform="translate(-62.009159,249.30099)"
       id="g1922">
      <rect
         style="opacity:0;fill:#4fa6c2;fill-opacity:1;stroke:none;stroke-width:0.56153017;stroke-linecap:round;stroke-linejoin:bevel;stroke-miterlimit:4;stroke-dasharray:none;stroke-dashoffset:0;stroke-opacity:1"
         id="rect1843"
         width="33.866665"
         height="33.866665"
         x="62.009159"
         y="13.832329" />
      <g
         transform="matrix(0.66442159,0,0,0.66442159,30.552354,-38.977823)"
         id="g1602">
        <path
           style="fill:#ffffff;stroke-width:0.26458332"
           inkscape:connector-curvature="0"
           class="cls-5"
           d="m 91.954223,122.17529 a 19.243146,19.243146 0 0 0 -13.83242,-16.36977 10.694458,10.694458 0 1 0 -10.56745,0 19.126729,19.126729 0 0 0 -2.40242,0.86254 19.375437,19.375437 0 0 0 -7.92163,6.40821 18.925646,18.925646 0 0 0 -3.055933,6.70719 c -0.505354,2.17752 -1.037166,5.31812 0.460375,7.23635 a 4.1036874,4.1036874 0 0 0 3.230558,1.57163 h 29.9429 c 2.36273,0 4.14602,-1.92617 4.14602,-4.27832 -0.037,-0.34131 -0.0873,-0.67733 -0.14023,-1.0107 a 4.5481874,4.5481874 0 0 0 0.14023,-1.12713 z"
           id="path1538" />
        <path
           sodipodi:nodetypes="csccccccccccccscc"
           inkscape:connector-curvature="0"
           id="path1540"
           d="m 73.368097,85.808716 c -4.803285,0.118774 -8.937731,3.426309 -10.108014,8.086362 -1.170284,4.660053 0.91091,9.528532 5.088167,11.902592 -0.819195,0.23346 -1.621808,0.5216 -2.402438,0.86248 -3.162681,1.39757 -5.89408,3.61549 -7.911144,6.4239 -1.448218,2.01265 -2.485822,4.29084 -3.053562,6.7045 -1.132684,2.93999 -1.243796,8.70071 3.677812,8.80308 h 6.614583 c -1.260203,-5.3e-4 -2.450251,-0.58019 -3.22771,-1.57199 -1.497539,-1.91558 -0.965796,-5.05873 -0.460436,-7.23626 0.567581,-2.41362 1.605007,-4.69181 3.053043,-6.70449 2.02175,-2.80518 4.756901,-5.01863 7.921998,-6.41098 0.780629,-0.34088 1.583242,-0.62903 2.402437,-0.86248 v -0.008 c -3.68328,-2.09312 -5.783781,-6.163158 -5.355955,-10.377975 0.427826,-4.214818 3.303315,-7.779766 7.332062,-9.090081 -1.152181,-0.374647 -2.359649,-0.550788 -3.570843,-0.520898 z"
           style="fill:#e6e6e6;stroke-width:0.26458332" />
        <path
           sodipodi:nodetypes="ccccccc"
           inkscape:connector-curvature="0"
           id="path1544"
           d="m 56.938783,128.26796 h 30.8047 c 2.74242,-0.0226 4.2583,-1.88507 4.21074,-6.09267 -2.56439,-11.36845 -8.20467,-13.851 -13.83242,-16.36977 1.247644,13.37105 -12.564908,11.89331 -10.56745,0 -8.97219,3.30208 -12.40775,9.2447 -13.390764,16.357 -0.299073,3.04326 0.12703,5.48932 2.775194,6.10544 z"
           style="fill:#1c2224;fill-opacity:1;stroke:none;stroke-width:0.26458332px;stroke-linecap:butt;stroke-linejoin:miter;stroke-opacity:1" />
        <path
           style="fill:#008b5d;fill-opacity:1;stroke:none;stroke-width:0.26458332px;stroke-linecap:butt;stroke-linejoin:miter;stroke-opacity:1"
           d="m 56.938783,128.26796 h 30.8047 c 2.74242,-0.0226 4.2583,-1.88507 4.21074,-6.09267 -2.56439,-11.36845 -6.242309,-12.60817 -11.870059,-15.12694 1.313056,15.00635 -16.682239,12.13149 -14.684781,0.23817 -8.97219,3.30208 -10.25278,7.76369 -11.235794,14.87599 -0.299073,3.04326 0.12703,5.48932 2.775194,6.10544 z"
           id="path1586"
           inkscape:connector-curvature="0"
           sodipodi:nodetypes="cccccccc" />
        <path
           style="fill:#1c2224;stroke-width:0.26458332"
           inkscape:connector-curvature="0"
           class="cls-6"
           d="m 92.747973,122.17529 a 20.372916,20.372916 0 0 0 -14.4145,-17.13441 l 0.1905,1.44991 c 7.32631,-4.34446 7.70731,-15.123581 0.40746,-19.72204 -6.89769,-4.344458 -16.2904,0.03969 -17.4625,8.07773 a 11.641667,11.641667 0 0 0 5.67796,11.64167 l 0.1905,-1.44992 a 20.290896,20.290896 0 0 0 -14.321898,16.70315 c -0.428625,3.12208 0.306917,6.83154 3.907898,7.55385 0.89429,0.17992 1.8706,0.0952 2.77548,0.0952 h 25.25712 c 0.9525,0 1.91029,0.0344 2.86279,0 a 4.9926874,4.9926874 0 0 0 3.96875,-2.03729 c 1.12713,-1.57163 0.889,-3.35492 0.96573,-5.17261 0.0423,-1.02129 -1.54516,-1.01864 -1.5875,0 -0.0159,0.381 -0.12964,0.74877 -0.14023,1.12713 -0.0159,0.46037 0.16934,0.90752 0.127,1.37848 a 3.52425,3.52425 0 0 1 -1.05833,2.21191 c -0.68527,0.65352 -1.50812,0.86784 -2.42623,0.90488 -0.87577,0.0344 -1.75948,0 -2.64583,0 h -22.96584 c -2.4765,0 -6.27591,0.6985 -7.328953,-2.26748 -0.61648,-1.73831 -0.201084,-3.79942 0.211666,-5.53508 a 18.422937,18.422937 0 0 1 2.711977,-6.14098 18.671646,18.671646 0 0 1 10.11238,-7.28398 0.79374999,0.79374999 0 0 0 0.1905,-1.44992 c -6.28386,-3.72798 -6.70719,-13.017498 -0.40746,-16.986248 5.9055,-3.720041 13.93296,-0.111125 15.06802,6.775979 0.67469,4.103688 -1.3626,8.109479 -4.89215,10.204979 a 0.79374999,0.79374999 0 0 0 0.1905,1.44992 18.721916,18.721916 0 0 1 13.25034,15.61041 c 0.11906,0.99748 1.70921,1.00807 1.58485,-0.005 z"
           id="path1548" />
        <g
           id="g1591"
           transform="translate(0,2.0351452)">
          <path
             id="path1584"
             d="m 85.233299,97.741373 c -0.01803,-0.02961 -0.177065,-0.43003 -0.353387,-0.889825 -1.055639,-2.75282 -1.129849,-3.31972 -0.519813,-3.97088 l 0.256104,-0.273375 -0.01993,-2.958117 c -0.02043,-3.03391 -0.03842,-3.247494 -0.273644,-3.247494 -0.10941,0 -1.453556,0.511843 -1.559887,0.593997 -0.05765,0.04454 -0.0822,0.790118 -0.09646,2.93214 l -0.01912,2.872394 -0.182851,0.372585 c -0.758759,1.54611 -3.147554,2.663005 -6.794445,3.176785 -0.633944,0.08931 -1.245552,0.11325 -2.893807,0.11325 -1.648261,0 -2.259863,-0.02397 -2.893812,-0.11325 -3.646889,-0.51378 -6.035685,-1.630675 -6.794446,-3.176785 l -0.182846,-0.372585 -0.01911,-2.872394 c -0.01426,-2.142446 -0.0388,-2.887424 -0.09646,-2.931534 -0.04255,-0.03254 -1.437416,-0.587476 -3.099748,-1.233221 -3.322377,-1.290598 -3.37611,-1.319322 -3.37611,-1.80504 0,-0.188355 0.04634,-0.306175 0.176842,-0.449801 0.16303,-0.179394 0.795887,-0.382996 8.098535,-2.605446 4.939108,-1.50314 8.021648,-2.410839 8.18718,-2.410839 0.165634,0 3.243845,0.907019 8.183474,2.411322 8.717717,2.654876 8.279087,2.494852 8.279087,3.02033 0,0.303766 -0.123009,0.509427 -0.386044,0.645449 -0.101923,0.05269 -0.815068,0.342058 -1.584765,0.642996 -0.769702,0.300939 -1.423301,0.571003 -1.452441,0.600143 -0.02913,0.02913 -0.0093,0.23881 0.04437,0.465937 0.07946,0.337159 0.09751,0.958703 0.09829,3.386645 l 0.0011,2.973693 0.199534,0.17734 c 0.669419,0.594955 0.587463,1.342815 -0.435215,3.971451 -0.351234,0.902784 -0.428994,1.054204 -0.489985,0.954129 z"
             style="fill:#1c2224;fill-opacity:1;stroke-width:0.06430688"
             inkscape:connector-curvature="0" />
          <path
             id="path1582"
             d="m 75.34833,94.986738 c 2.530711,-0.31935 4.463129,-0.99332 5.42347,-1.891525 0.546862,-0.511485 0.52239,-0.37325 0.544581,-3.07627 0.01867,-2.273932 0.01379,-2.395432 -0.09646,-2.395464 -0.06385,-2.1e-5 -1.939223,0.714213 -4.167455,1.587188 -2.963672,1.161111 -4.116399,1.585001 -4.293685,1.578911 -0.148619,-0.0055 -1.802477,-0.618937 -4.276406,-1.587224 -2.218731,-0.868403 -4.086312,-1.578896 -4.150179,-1.578875 -0.110237,3.2e-5 -0.115128,0.121532 -0.09646,2.395464 0.02217,2.70302 -0.0024,2.564785 0.544582,3.07627 1.110043,1.038225 3.605512,1.79398 6.645297,2.01253 0.721651,0.05194 3.145032,-0.02285 3.922719,-0.121005 z"
             style="fill:#1a1a1a;stroke-width:0.06430688"
             inkscape:connector-curvature="0" />
          <path
             id="path1574"
             d="m 77.63274,87.485707 c 2.634141,-1.030756 4.789347,-1.898349 4.789347,-1.927985 0,-0.081 0.03986,-0.07522 -4.823015,-0.698184 -2.493501,-0.319431 -4.644492,-0.598011 -4.779987,-0.619063 -0.140243,-0.0218 -0.341053,-0.121438 -0.466224,-0.23134 -0.181408,-0.159279 -0.219871,-0.238008 -0.219871,-0.450049 0,-0.337492 0.329757,-0.694279 0.641679,-0.694279 0.22903,0 10.426519,1.314584 11.030013,1.421906 0.212213,0.03772 0.532802,0.138139 0.712422,0.223101 l 0.326578,0.154488 0.670178,-0.260713 c 0.641413,-0.249516 0.823267,-0.346508 0.762352,-0.40661 -0.05834,-0.05756 -13.368487,-4.090288 -13.500154,-4.090288 -0.131669,0 -13.441802,4.032715 -13.500156,4.090288 -0.01532,0.01513 -9.26e-4,0.05386 0.03214,0.08616 0.07208,0.07045 13.335994,5.270122 13.453441,5.273987 0.04506,0.0016 2.237103,-0.840649 4.871244,-1.871399 z"
             style="fill:#005e8f;fill-opacity:1;stroke-width:0.06430688"
             inkscape:connector-curvature="0" />
        </g>
      </g>
    </g>
  </g>
</svg>
