<?xml version="1.0" encoding="UTF-8" standalone="no"?>
<!-- Created with Inkscape (http://www.inkscape.org/) -->

<svg
   xmlns:dc="http://purl.org/dc/elements/1.1/"
   xmlns:cc="http://creativecommons.org/ns#"
   xmlns:rdf="http://www.w3.org/1999/02/22-rdf-syntax-ns#"
   xmlns:svg="http://www.w3.org/2000/svg"
   xmlns="http://www.w3.org/2000/svg"
   xmlns:sodipodi="http://sodipodi.sourceforge.net/DTD/sodipodi-0.dtd"
   xmlns:inkscape="http://www.inkscape.org/namespaces/inkscape"
   width="128"
   height="128"
   viewBox="0 0 33.866666 33.866668"
   version="1.1"
   id="svg1962"
   inkscape:version="0.92.3 (2405546, 2018-03-11)"
   sodipodi:docname="ofaj_teacher.svg">
  <defs
     id="defs1956" />
  <sodipodi:namedview
     id="base"
     pagecolor="#ffffff"
     bordercolor="#666666"
     borderopacity="1.0"
     inkscape:pageopacity="0.0"
     inkscape:pageshadow="2"
     inkscape:zoom="1.0035286"
     inkscape:cx="184.64569"
     inkscape:cy="-66.72048"
     inkscape:document-units="mm"
     inkscape:current-layer="layer1"
     showgrid="false"
     units="px"
     inkscape:window-width="1366"
     inkscape:window-height="713"
     inkscape:window-x="0"
     inkscape:window-y="27"
     inkscape:window-maximized="1" />
  <metadata
     id="metadata1959">
    <rdf:RDF>
      <cc:Work
         rdf:about="">
        <dc:format>image/svg+xml</dc:format>
        <dc:type
           rdf:resource="http://purl.org/dc/dcmitype/StillImage" />
        <dc:title />
      </cc:Work>
    </rdf:RDF>
  </metadata>
  <g
     inkscape:label="Capa 1"
     inkscape:groupmode="layer"
     id="layer1"
     transform="translate(0,-263.13332)">
    <rect
       style="opacity:0;fill:#4fa6c2;fill-opacity:1;stroke:none;stroke-width:0.56153017;stroke-linecap:round;stroke-linejoin:bevel;stroke-miterlimit:4;stroke-dasharray:none;stroke-dashoffset:0;stroke-opacity:1"
       id="rect1845"
       width="33.866665"
       height="33.866665"
       x="2.8710938e-06"
       y="263.13333" />
    <path
       id="path1190"
       d="m 30.37582,290.5688 a 13.526413,13.526413 0 0 0 -9.7231,-11.50666 7.5173601,7.5173601 0 1 0 -7.428083,0 13.444581,13.444581 0 0 0 -1.688712,0.6063 13.619403,13.619403 0 0 0 -5.5682809,4.50446 13.303236,13.303236 0 0 0 -2.1480798,4.71463 c -0.3552239,1.53062 -0.7290458,3.73822 0.3236073,5.08658 a 2.8845684,2.8845684 0 0 0 2.2708274,1.10474 h 21.047496 c 1.660813,0 2.914325,-1.35395 2.914325,-3.00733 -0.02601,-0.23991 -0.06137,-0.47611 -0.09857,-0.71044 a 3.1970168,3.1970168 0 0 0 0.09857,-0.79228 z"
       class="cls-5"
       inkscape:connector-curvature="0"
       style="fill:#ffffff;stroke-width:0.1859812" />
    <path
       style="opacity:1;fill:#60006e;fill-opacity:1;stroke:none;stroke-width:0.49594989;stroke-linecap:round;stroke-linejoin:bevel;stroke-miterlimit:4;stroke-dasharray:none;stroke-dashoffset:0;stroke-opacity:1"
       d="m 16.041066,280.87751 h 1.865053 l 0.845326,4.6754 -0.845326,5.16948 -1.024142,1.52808 -0.840911,-1.52808 -0.877836,-5.4946 z"
       id="rect1370"
       inkscape:connector-curvature="0"
       sodipodi:nodetypes="cccccccc" />
    <path
       style="fill:#772583;stroke:none;stroke-width:0.1859812px;stroke-linecap:butt;stroke-linejoin:miter;stroke-opacity:1;fill-opacity:1"
       d="M 5.7627285,294.85146 H 27.416002 c 1.927705,-0.0159 2.993249,-1.32505 2.959818,-4.28266 -1.802564,-7.99113 -5.767236,-9.73616 -9.7231,-11.50666 l -3.935613,9.12276 -3.49247,-9.12276 c -6.306742,2.3211 -8.7216696,6.4983 -9.4126508,11.49768 -0.2102248,2.13917 0.089292,3.85856 1.9507423,4.29164 z"
       id="path1364"
       inkscape:connector-curvature="0"
       sodipodi:nodetypes="cccccccc" />
    <path
       style="fill:#ffffff;fill-opacity:1;stroke:#60006e;stroke-width:0.70555556;stroke-linecap:round;stroke-linejoin:bevel;stroke-miterlimit:4;stroke-dasharray:none;stroke-opacity:1"
       d="m 13.224637,279.06214 -4.0347464,4.18067 7.5272164,4.94209 7.2322,-5.03405 -3.411935,-4.27821 -3.820265,9.31226 z"
       id="path1366"
       inkscape:connector-curvature="0"
       sodipodi:nodetypes="ccccccc" />
    <path
       id="path1202"
       d="M 30.933763,290.5688 A 14.320552,14.320552 0 0 0 20.801507,278.52466 l 0.133907,1.01917 c 5.149818,-3.05381 5.417631,-10.63068 0.286412,-13.86304 -4.848532,-3.05381 -11.4508657,0.0279 -12.2747595,5.67801 a 8.1831733,8.1831733 0 0 0 3.9911575,8.18318 l 0.133907,-1.01918 A 14.262899,14.262899 0 0 0 3.0049667,290.26379 c -0.3012896,2.19458 0.2157384,4.80204 2.7469439,5.30976 0.6286153,0.12647 1.3148842,0.0669 1.9509434,0.0669 h 17.753762 c 0.669533,0 1.342783,0.0242 2.012316,0 a 3.5094653,3.5094653 0 0 0 2.789718,-1.43205 c 0.792283,-1.10473 0.624897,-2.35825 0.678832,-3.63594 0.02973,-0.71788 -1.086126,-0.71602 -1.115887,0 -0.01118,0.26781 -0.09113,0.52633 -0.09857,0.79228 -0.01118,0.32361 0.119033,0.63792 0.08927,0.96897 a 2.4772697,2.4772697 0 0 1 -0.743922,1.5548 c -0.481691,0.45937 -1.06009,0.61002 -1.705449,0.63605 -0.615597,0.0242 -1.236775,0 -1.859809,0 H 9.3599413 c -1.7407841,0 -4.4114695,0.491 -5.1516756,-1.59385 -0.4333368,-1.2219 -0.1413462,-2.6707 0.1487844,-3.89073 a 12.949871,12.949871 0 0 1 1.9063059,-4.31662 13.124694,13.124694 0 0 1 7.108205,-5.12007 0.55794361,0.55794361 0 0 0 0.133907,-1.01918 c -4.4170581,-2.62047 -4.7146257,-9.15027 -0.286413,-11.93999 4.151101,-2.61489 9.793772,-0.0781 10.591629,4.76298 0.474254,2.88457 -0.9578,5.70032 -3.438795,7.1733 a 0.55794361,0.55794361 0 0 0 0.133906,1.01917 13.16003,13.16003 0 0 1 9.313944,10.97289 c 0.08369,0.70115 1.20144,0.70859 1.114024,-0.004 z"
       class="cls-6"
       inkscape:connector-curvature="0"
       style="fill:#60006e;stroke-width:0.1859812;fill-opacity:1" />
    <path
       inkscape:connector-curvature="0"
       style="opacity:1;fill:#60006e;fill-opacity:1;stroke:none;stroke-width:0.30570996;stroke-linecap:round;stroke-linejoin:bevel;stroke-miterlimit:4;stroke-dasharray:none;stroke-dashoffset:0;stroke-opacity:1"
       inkscape:transform-center-x="-0.2827321"
       inkscape:transform-center-y="-0.65850098"
       d="m 17.889265,282.11977 -1.848197,-8.2e-4 -0.570346,-1.75799 1.495703,-1.08568 1.494741,1.087 z"
       id="path1368" />
  </g>
</svg>
