<?xml version="1.0" encoding="UTF-8" standalone="no"?>
<!-- Created with Inkscape (http://www.inkscape.org/) -->

<svg
   xmlns:dc="http://purl.org/dc/elements/1.1/"
   xmlns:cc="http://creativecommons.org/ns#"
   xmlns:rdf="http://www.w3.org/1999/02/22-rdf-syntax-ns#"
   xmlns:svg="http://www.w3.org/2000/svg"
   xmlns="http://www.w3.org/2000/svg"
   xmlns:sodipodi="http://sodipodi.sourceforge.net/DTD/sodipodi-0.dtd"
   xmlns:inkscape="http://www.inkscape.org/namespaces/inkscape"
   width="128"
   height="128"
   viewBox="0 0 33.866666 33.866668"
   version="1.1"
   id="svg1962"
   inkscape:version="0.92.3 (2405546, 2018-03-11)"
   sodipodi:docname="ofaj_graduated.svg">
  <defs
     id="defs1956" />
  <sodipodi:namedview
     id="base"
     pagecolor="#ffffff"
     bordercolor="#666666"
     borderopacity="1.0"
     inkscape:pageopacity="0.0"
     inkscape:pageshadow="2"
     inkscape:zoom="1.0250888"
     inkscape:cx="109.124"
     inkscape:cy="84.68442"
     inkscape:document-units="mm"
     inkscape:current-layer="layer1"
     showgrid="false"
     units="px"
     inkscape:window-width="1366"
     inkscape:window-height="713"
     inkscape:window-x="0"
     inkscape:window-y="27"
     inkscape:window-maximized="1" />
  <metadata
     id="metadata1959">
    <rdf:RDF>
      <cc:Work
         rdf:about="">
        <dc:format>image/svg+xml</dc:format>
        <dc:type
           rdf:resource="http://purl.org/dc/dcmitype/StillImage" />
        <dc:title />
      </cc:Work>
    </rdf:RDF>
  </metadata>
  <g
     inkscape:label="Capa 1"
     inkscape:groupmode="layer"
     id="layer1"
     transform="translate(0,-263.13332)">
    <rect
       style="opacity:0;fill:#4fa6c2;fill-opacity:1;stroke:none;stroke-width:0.56153017;stroke-linecap:round;stroke-linejoin:bevel;stroke-miterlimit:4;stroke-dasharray:none;stroke-dashoffset:0;stroke-opacity:1"
       id="rect1841"
       width="33.866665"
       height="33.866665"
       x="5.871582e-08"
       y="263.13333" />
    <path
       id="path1620"
       d="m 30.052349,290.76821 a 13.963703,13.963703 0 0 0 -10.037434,-11.87865 7.7603855,7.7603855 0 1 0 -7.668223,0 13.879226,13.879226 0 0 0 -1.743305,0.6259 14.059699,14.059699 0 0 0 -5.7482954,4.65009 13.73331,13.73331 0 0 0 -2.2175234,4.86704 c -0.3667083,1.58011 -0.7526154,3.85907 0.3340682,5.25103 a 2.9778223,2.9778223 0 0 0 2.3442399,1.14045 H 27.043808 c 1.714504,0 3.008541,-1.39772 3.008541,-3.10455 -0.02685,-0.24767 -0.06335,-0.4915 -0.101756,-0.73341 a 3.3003718,3.3003718 0 0 0 0.101756,-0.8179 z"
       class="cls-5"
       inkscape:connector-curvature="0"
       style="fill:#ffffff;stroke-width:0.1919937" />
    <path
       style="fill:#4e8637;fill-opacity:1;stroke:none;stroke-width:0.1919937px;stroke-linecap:butt;stroke-linejoin:miter;stroke-opacity:1"
       d="M 4.6435522,295.18933 H 26.996844 c 1.990025,-0.0164 3.090016,-1.36789 3.055505,-4.42112 -1.860839,-8.24946 -5.953683,-10.05091 -10.037434,-11.87865 0.905347,9.70265 -9.117669,8.63033 -7.668223,0 -6.5106292,2.39614 -9.0036275,6.70838 -9.7169474,11.86939 -0.2170215,2.20833 0.092178,3.9833 2.0138076,4.43038 z"
       id="path1624"
       inkscape:connector-curvature="0"
       sodipodi:nodetypes="ccccccc" />
    <path
       sodipodi:nodetypes="cccccccc"
       inkscape:connector-curvature="0"
       id="path1626"
       d="M 4.6435522,295.18933 H 26.996844 c 1.990025,-0.0164 3.090016,-1.36789 3.055505,-4.42112 -1.860839,-8.24946 -4.529704,-9.14906 -8.613455,-10.97679 0.952813,10.88929 -12.1053921,8.80316 -10.655946,0.17283 -6.5106294,2.39613 -7.4398835,5.63368 -8.1532034,10.79469 -0.2170215,2.20833 0.092178,3.9833 2.0138076,4.43039 z"
       style="fill:#509e2f;fill-opacity:1;stroke:none;stroke-width:0.1919937px;stroke-linecap:butt;stroke-linejoin:miter;stroke-opacity:1" />
    <path
       id="path1628"
       d="m 30.628329,290.76821 a 14.783515,14.783515 0 0 0 -10.459817,-12.4335 l 0.138236,1.05212 c 5.316304,-3.15254 5.592775,-10.97436 0.295672,-14.31121 -5.005278,-3.15254 -11.821056,0.0288 -12.6715855,5.86157 a 8.4477235,8.4477235 0 0 0 4.1201865,8.44772 l 0.138235,-1.05213 A 14.723997,14.723997 0 0 0 1.796635,290.45335 c -0.3110295,2.26552 0.2227128,4.95728 2.8357491,5.48142 0.6489374,0.13056 1.3573924,0.0691 2.0140146,0.0691 H 24.974114 c 0.691177,0 1.386194,0.025 2.077371,0 a 3.6229212,3.6229212 0 0 0 2.879906,-1.47835 c 0.817896,-1.14044 0.645098,-2.43448 0.700777,-3.75348 0.03069,-0.74109 -1.121238,-0.73917 -1.151962,0 -0.01153,0.27647 -0.09407,0.54335 -0.101756,0.8179 -0.01153,0.33407 0.12288,0.65854 0.09216,1.00029 a 2.5573563,2.5573563 0 0 1 -0.767972,1.60506 c -0.497264,0.47422 -1.094361,0.62974 -1.760583,0.65662 -0.635498,0.025 -1.276759,0 -1.919935,0 H 8.3570571 c -1.7970615,0 -4.5540859,0.50687 -5.3182217,-1.64538 -0.4473465,-1.2614 -0.1459164,-2.75704 0.1535939,-4.01651 a 13.368522,13.368522 0 0 1 1.9679343,-4.45617 13.548996,13.548996 0 0 1 7.3380034,-5.28559 0.57598113,0.57598113 0 0 0 0.138236,-1.05213 c -4.5598552,-2.70519 -4.8670429,-9.44609 -0.295672,-12.32599 4.285299,-2.69943 10.11039,-0.0806 10.934041,4.91696 0.489585,2.97782 -0.988765,5.8846 -3.549967,7.40519 a 0.57598113,0.57598113 0 0 0 0.138235,1.05213 13.585475,13.585475 0 0 1 9.615051,11.32763 c 0.08639,0.72381 1.24028,0.7315 1.150038,-0.004 z"
       class="cls-6"
       inkscape:connector-curvature="0"
       style="fill:#4e8637;stroke-width:0.1919937;fill-opacity:1" />
    <path
       style="fill:#4e8637;fill-opacity:1;stroke-width:0.07156977"
       d="M 30.896907,280.66187 H 15.320246 c -0.690577,0 -1.252472,0.5619 -1.252472,1.25247 v 10.56785 c 0,0.69058 0.561895,1.25247 1.252472,1.25247 h 9.082991 l -0.274255,1.67259 c -0.0516,0.31483 0.05254,0.60004 0.278621,0.76279 0.226018,0.16275 0.52933,0.17148 0.811673,0.0226 l 1.959652,-1.03146 c 0.05467,-0.0281 0.205334,-0.0281 0.260013,0 l 1.959651,1.03146 c 0.134052,0.0705 0.272896,0.10571 0.405944,0.10571 0.147148,0 0.287139,-0.043 0.405801,-0.12847 0.226019,-0.16275 0.330151,-0.44803 0.278622,-0.76286 l -0.274184,-1.6725 h 0.682202 c 0.690577,0 1.252472,-0.5619 1.252472,-1.25247 v -10.56778 c -7.1e-5,-0.69065 -0.561966,-1.25247 -1.252542,-1.25247 z"
       id="path1826"
       inkscape:connector-curvature="0" />
    <path
       style="fill:#fbfbfb;fill-opacity:1;stroke-width:0.07156977"
       d="m 27.30897,291.58786 c -1.203589,0 -2.182878,-0.97929 -2.182878,-2.18288 0,-1.20359 0.979289,-2.18288 2.182878,-2.18288 1.20359,0 2.182879,0.97929 2.182879,2.18288 0,1.20359 -0.979289,2.18288 -2.182879,2.18288 z"
       id="path1824"
       inkscape:connector-curvature="0" />
    <path
       style="fill:#fbfbfb;fill-opacity:1;stroke-width:0.07156977"
       d="m 27.938999,294.21132 c -0.365077,-0.19224 -0.895051,-0.19224 -1.260057,0 l -1.385448,0.72922 0.44044,-2.68666 c 0.467136,0.25931 1.004053,0.40745 1.575108,0.40745 0.571055,0 1.1079,-0.14822 1.575108,-0.40745 l 0.171623,1.04743 c 4.3e-4,10e-4 5.73e-4,0.004 9.43e-4,0.005 l 0.267886,1.63401 z"
       id="path1822"
       inkscape:connector-curvature="0" />
    <path
       style="fill:#ffffff;stroke-width:0.07156977"
       d="m 31.075832,292.48219 c 0,0.097 -0.08195,0.17893 -0.178925,0.17893 h -0.858194 l -0.196029,-1.19586 c -7.26e-4,-0.004 -0.002,-0.009 -0.003,-0.0139 0.453395,-0.55953 0.725789,-1.27165 0.725789,-2.04632 0,-1.79561 -1.46081,-3.25643 -3.256425,-3.25643 -1.795614,0 -3.256424,1.46082 -3.256424,3.25643 0,0.77467 0.272394,1.48664 0.725788,2.04632 -9.43e-4,0.004 -0.0022,0.009 -0.003,0.0139 l -0.196174,1.19686 c -0.006,-2.2e-4 -0.01181,-7.2e-4 -0.01782,-7.2e-4 h -9.241075 c -0.09698,0 -0.178925,-0.0819 -0.178925,-0.17893 v -10.56785 c 0,-0.097 0.08195,-0.17892 0.178925,-0.17892 h 15.576661 c 0.09698,0 0.178924,0.0819 0.178924,0.17892 z"
       id="path1732"
       inkscape:connector-curvature="0" />
    <path
       id="path1734"
       d="M 28.99859,283.75096 H 16.831727 c -0.296512,0 -0.536772,0.24027 -0.536772,0.53678 0,0.29651 0.24026,0.53677 0.536772,0.53677 H 28.99859 c 0.296514,0 0.536774,-0.24026 0.536774,-0.53677 0,-0.29651 -0.24026,-0.53678 -0.536774,-0.53678 z"
       style="fill:#4e8637;fill-opacity:1;stroke-width:0.07156977"
       inkscape:connector-curvature="0" />
    <path
       id="path1736"
       d="m 21.984752,286.66157 h -5.153025 c -0.296512,0 -0.536772,0.24026 -0.536772,0.53676 0,0.29652 0.24026,0.53678 0.536772,0.53678 h 5.153025 c 0.296513,0 0.536773,-0.24026 0.536773,-0.53678 0,-0.2965 -0.24026,-0.53676 -0.536773,-0.53676 z"
       style="fill:#4e8637;fill-opacity:1;stroke-width:0.07156977"
       inkscape:connector-curvature="0" />
  </g>
</svg>
