<?xml version="1.0" encoding="UTF-8"?>
<!DOCTYPE svg PUBLIC "-//W3C//DTD SVG 1.1//EN" "http://www.w3.org/Graphics/SVG/1.1/DTD/svg11.dtd">
<svg xmlns="http://www.w3.org/2000/svg" version="1.1" width="1024px" height="1024px" style="shape-rendering:geometricPrecision; text-rendering:geometricPrecision; image-rendering:optimizeQuality; fill-rule:evenodd; clip-rule:evenodd" xmlns:xlink="http://www.w3.org/1999/xlink">
<g><path style="opacity:1" fill="#2781d2" d="M -0.5,-0.5 C 340.833,-0.5 682.167,-0.5 1023.5,-0.5C 1023.5,340.833 1023.5,682.167 1023.5,1023.5C 825.5,1023.5 627.5,1023.5 429.5,1023.5C 438.329,1016.83 445.162,1008.5 450,998.5C 450.495,996.527 450.662,994.527 450.5,992.5C 451.29,991.391 451.79,990.058 452,988.5C 452.5,964.836 452.667,941.169 452.5,917.5C 452.5,902.833 452.5,888.167 452.5,873.5C 452.5,848.833 452.5,824.167 452.5,799.5C 452.5,794.167 452.5,788.833 452.5,783.5C 474.169,783.667 495.836,783.5 517.5,783C 531.72,779.416 538.22,770.25 537,755.5C 534.116,748.264 529.616,742.097 523.5,737C 515.333,730.331 507.333,723.498 499.5,716.5C 491.141,709.138 482.808,701.804 474.5,694.5C 475.978,694.762 477.311,694.429 478.5,693.5C 476.042,692.876 474.376,691.376 473.5,689C 471.545,688.047 469.878,686.713 468.5,685C 465.629,684.869 463.295,683.703 461.5,681.5C 460.893,681.624 460.56,681.957 460.5,682.5C 456.518,680.183 453.185,677.183 450.5,673.5C 451.525,673.103 451.692,672.437 451,671.5C 440.547,657.809 432.547,642.809 427,626.5C 426.498,623.487 425.998,620.487 425.5,617.5C 425.343,616.127 425.51,614.793 426,613.5C 428.033,614.016 428.033,613.35 426,611.5C 425.667,611.833 425.333,612.167 425,612.5C 424.358,608.509 423.858,604.509 423.5,600.5C 436.809,598.548 449.976,595.881 463,592.5C 464.981,592.629 466.647,593.296 468,594.5C 469.675,593.405 470.842,591.905 471.5,590C 473.927,589.098 476.26,588.264 478.5,587.5C 478.97,586.307 479.97,585.64 481.5,585.5C 484.154,584.732 486.821,584.566 489.5,585C 491.997,589.816 494.497,594.649 497,599.5C 500.414,603.723 504.247,607.389 508.5,610.5C 509.007,611.859 510.007,612.859 511.5,613.5C 516.467,614.662 521.467,614.829 526.5,614C 530.353,611.757 534.353,609.757 538.5,608C 540.99,603.355 543.657,598.855 546.5,594.5C 548.906,590.554 550.24,586.22 550.5,581.5C 552.461,578.551 553.627,575.218 554,571.5C 554.858,562.61 554.358,553.943 552.5,545.5C 550.447,537.392 547.281,529.725 543,522.5C 525.877,505.557 509.877,506.557 495,525.5C 493.028,529.747 491.528,534.081 490.5,538.5C 487.763,538.599 485.096,538.265 482.5,537.5C 474.564,534.438 466.231,532.772 457.5,532.5C 445.695,529.309 433.695,526.976 421.5,525.5C 422.508,514.133 423.841,502.8 425.5,491.5C 426.151,490.909 426.818,490.243 427.5,489.5C 427.937,482.979 429.104,476.646 431,470.5C 431.333,473.167 431.667,475.833 432,478.5C 432.001,475.313 432.834,472.48 434.5,470C 433.884,468.6 433.551,467.1 433.5,465.5C 433.685,462.866 434.685,460.7 436.5,459C 436.07,457.566 435.236,456.399 434,455.5C 433.501,451.514 433.334,447.514 433.5,443.5C 438.746,409.201 443.746,374.868 448.5,340.5C 449.75,340.423 450.583,339.756 451,338.5C 451.499,332.509 451.666,326.509 451.5,320.5C 430.66,320.169 409.993,320.503 389.5,321.5C 388.501,374.331 388.168,427.331 388.5,480.5C 385.167,480.5 381.833,480.5 378.5,480.5C 355.006,479.502 331.339,479.169 307.5,479.5C 307.832,426.997 307.499,374.664 306.5,322.5C 306.5,321.833 306.167,321.5 305.5,321.5C 305.631,320.624 305.298,319.957 304.5,319.5C 279.372,320.158 254.372,320.824 229.5,321.5C 228.167,397.5 228.167,473.5 229.5,549.5C 209.537,566.461 189.87,583.795 170.5,601.5C 126.929,638.064 83.9286,675.398 41.5,713.5C 28.7811,723.317 16.6145,733.984 5,745.5C 3.06609,748.514 1.23276,751.514 -0.5,754.5C -0.5,502.833 -0.5,251.167 -0.5,-0.5 Z"/></g>
<g><path style="opacity:1" fill="#4f86c4" d="M 762.5,336.5 C 756.543,332.517 750.209,329.017 743.5,326C 738.429,323.655 733.095,322.488 727.5,322.5C 691.337,321.502 655.004,321.168 618.5,321.5C 618.5,321.167 618.5,320.833 618.5,320.5C 636.164,319.833 653.997,319.5 672,319.5C 693.19,319.396 714.357,319.896 735.5,321C 741.808,322.66 747.808,324.994 753.5,328C 757.329,329.997 760.329,332.83 762.5,336.5 Z"/></g>
<g><path style="opacity:1" fill="#6893c6" d="M 305.5,321.5 C 280.167,321.5 254.833,321.5 229.5,321.5C 254.372,320.824 279.372,320.158 304.5,319.5C 305.298,319.957 305.631,320.624 305.5,321.5 Z"/></g>
<g><path style="opacity:1" fill="#6591c5" d="M 389.5,321.5 C 409.993,320.503 430.66,320.169 451.5,320.5C 451.666,326.509 451.499,332.509 451,338.5C 450.583,339.756 449.75,340.423 448.5,340.5C 449.602,334.552 450.269,328.552 450.5,322.5C 430.34,321.503 410.007,321.17 389.5,321.5 Z"/></g>
<g><path style="opacity:1" fill="#fdfdfd" d="M 229.5,322.5 C 254.833,322.5 280.167,322.5 305.5,322.5C 305.333,375.501 305.5,428.501 306,481.5C 333.931,482.832 361.764,482.832 389.5,481.5C 389.5,428.5 389.5,375.5 389.5,322.5C 409.833,322.5 430.167,322.5 450.5,322.5C 450.269,328.552 449.602,334.552 448.5,340.5C 443.746,374.868 438.746,409.201 433.5,443.5C 430.476,459.323 427.81,475.323 425.5,491.5C 423.841,502.8 422.508,514.133 421.5,525.5C 433.695,526.976 445.695,529.309 457.5,532.5C 463.056,533.992 468.722,535.492 474.5,537C 477.146,537.497 479.813,537.664 482.5,537.5C 485.096,538.265 487.763,538.599 490.5,538.5C 491.528,534.081 493.028,529.747 495,525.5C 509.877,506.557 525.877,505.557 543,522.5C 547.281,529.725 550.447,537.392 552.5,545.5C 552.905,557.678 552.239,569.678 550.5,581.5C 550.24,586.22 548.906,590.554 546.5,594.5C 544.031,597.144 541.698,599.977 539.5,603C 535.726,606.768 531.393,609.768 526.5,612C 524.419,612.869 522.253,613.369 520,613.5C 516.197,612.399 512.364,611.399 508.5,610.5C 504.247,607.389 500.414,603.723 497,599.5C 494.497,594.649 491.997,589.816 489.5,585C 486.821,584.566 484.154,584.732 481.5,585.5C 479.97,585.64 478.97,586.307 478.5,587.5C 474.818,587.335 471.152,587.501 467.5,588C 452.264,592.025 436.931,595.525 421.5,598.5C 422.046,605.102 423.379,611.435 425.5,617.5C 425.998,620.487 426.498,623.487 427,626.5C 432.547,642.809 440.547,657.809 451,671.5C 451.692,672.437 451.525,673.103 450.5,673.5C 429.871,656.207 409.538,638.54 389.5,620.5C 389.5,599.167 389.5,577.833 389.5,556.5C 365.167,556.5 340.833,556.5 316.5,556.5C 305.372,547.21 294.372,537.71 283.5,528C 274.927,521.536 265.927,520.869 256.5,526C 247.641,533.365 238.974,540.865 230.5,548.5C 229.501,473.335 229.167,398.002 229.5,322.5 Z"/></g>
<g><path style="opacity:1" fill="#fdfdfd" d="M 727.5,322.5 C 733.095,322.488 738.429,323.655 743.5,326C 750.209,329.017 756.543,332.517 762.5,336.5C 762.833,336.5 763.167,336.5 763.5,336.5C 768.938,343.723 774.604,350.723 780.5,357.5C 792.947,382.382 798.613,408.882 797.5,437C 797.752,466.593 791.085,494.427 777.5,520.5C 774.512,524.462 771.512,528.462 768.5,532.5C 761.641,538.087 754.641,543.421 747.5,548.5C 746.508,548.328 745.842,548.662 745.5,549.5C 741.213,550.232 737.213,551.565 733.5,553.5C 731.786,554.738 729.786,555.405 727.5,555.5C 704.346,556.104 681.346,556.77 658.5,557.5C 657.501,602.664 657.168,647.997 657.5,693.5C 628.662,693.831 599.995,693.498 571.5,692.5C 571.5,692.167 571.5,691.833 571.5,691.5C 576.98,688.593 582.313,685.426 587.5,682C 590.698,677.974 594.032,674.141 597.5,670.5C 598.167,670.167 598.833,669.833 599.5,669.5C 601.089,667.085 603.256,665.085 606,663.5C 607.03,658.438 609.363,654.105 613,650.5C 614.026,647.198 614.86,643.865 615.5,640.5C 617.014,634.776 618.681,629.109 620.5,623.5C 621.891,621.04 623.058,618.374 624,615.5C 626.646,602.604 628.646,589.604 630,576.5C 630.667,565.167 630.667,553.833 630,542.5C 629.722,541.584 629.222,540.918 628.5,540.5C 627.081,513.093 617.915,488.76 601,467.5C 592.068,458.912 582.235,451.412 571.5,445C 567.035,444.126 562.702,443.293 558.5,442.5C 547.007,441.341 535.341,441.174 523.5,442C 522.263,442.232 521.263,442.732 520.5,443.5C 514.391,445.14 508.391,446.974 502.5,449C 501.333,449.5 500.5,450.333 500,451.5C 499.503,448.854 499.336,446.187 499.5,443.5C 500.853,428.739 502.853,414.072 505.5,399.5C 543.167,399.5 580.833,399.5 618.5,399.5C 618.5,373.833 618.5,348.167 618.5,322.5C 654.833,322.5 691.167,322.5 727.5,322.5 Z"/></g>
<g><path style="opacity:1" fill="#96afd3" d="M 389.5,321.5 C 410.007,321.17 430.34,321.503 450.5,322.5C 430.167,322.5 409.833,322.5 389.5,322.5C 389.5,375.5 389.5,428.5 389.5,481.5C 361.995,481.831 334.662,481.498 307.5,480.5C 331.167,480.5 354.833,480.5 378.5,480.5C 381.833,480.5 385.167,480.5 388.5,480.5C 388.168,427.331 388.501,374.331 389.5,321.5 Z"/></g>
<g><path style="opacity:1" fill="#9bb3d8" d="M 618.5,321.5 C 655.004,321.168 691.337,321.502 727.5,322.5C 691.167,322.5 654.833,322.5 618.5,322.5C 618.5,348.167 618.5,373.833 618.5,399.5C 580.833,399.5 543.167,399.5 505.5,399.5C 505.5,398.833 505.833,398.5 506.5,398.5C 542.835,398.667 579.168,398.5 615.5,398C 616,397.5 616.5,397 617,396.5C 617.168,371.33 617.668,346.33 618.5,321.5 Z"/></g>
<g><path style="opacity:1" fill="#bbcce7" d="M 229.5,322.5 C 229.5,322.167 229.5,321.833 229.5,321.5C 254.833,321.5 280.167,321.5 305.5,321.5C 306.167,321.5 306.5,321.833 306.5,322.5C 306.168,375.336 306.501,428.003 307.5,480.5C 334.662,481.498 361.995,481.831 389.5,481.5C 361.764,482.832 333.931,482.832 306,481.5C 305.5,428.501 305.333,375.501 305.5,322.5C 280.167,322.5 254.833,322.5 229.5,322.5 Z"/></g>
<g><path style="opacity:1" fill="#759ac1" d="M 229.5,321.5 C 229.5,321.833 229.5,322.167 229.5,322.5C 229.167,398.002 229.501,473.335 230.5,548.5C 230.5,549.167 230.167,549.5 229.5,549.5C 228.167,473.5 228.167,397.5 229.5,321.5 Z"/></g>
<g><path style="opacity:1" fill="#4e81bd" d="M 306.5,322.5 C 307.499,374.664 307.832,426.997 307.5,479.5C 331.339,479.169 355.006,479.502 378.5,480.5C 354.833,480.5 331.167,480.5 307.5,480.5C 306.501,428.003 306.168,375.336 306.5,322.5 Z"/></g>
<g><path style="opacity:1" fill="#6797ca" d="M 763.5,336.5 C 768.316,339.151 771.983,342.984 774.5,348C 776.329,348.273 777.829,349.107 779,350.5C 779.44,352.866 779.94,355.199 780.5,357.5C 774.604,350.723 768.938,343.723 763.5,336.5 Z"/></g>
<g><path style="opacity:1" fill="#497ec6" d="M 618.5,320.5 C 618.5,320.833 618.5,321.167 618.5,321.5C 617.668,346.33 617.168,371.33 617,396.5C 616.5,397 616,397.5 615.5,398C 579.168,398.5 542.835,398.667 506.5,398.5C 505.402,397.603 505.402,396.77 506.5,396C 543.165,395.5 579.832,395.333 616.5,395.5C 616.819,371.301 616.485,347.134 615.5,323C 615.748,321.251 616.748,320.418 618.5,320.5 Z"/></g>
<g><path style="opacity:1" fill="#9fbee1" d="M 658.5,397.5 C 669.326,396.341 680.326,396.174 691.5,397C 693.058,397.21 694.391,397.71 695.5,398.5C 692.5,398.5 689.5,398.5 686.5,398.5C 677.348,397.506 668.015,397.173 658.5,397.5 Z"/></g>
<g><path style="opacity:1" fill="#2981d2" d="M 686.5,398.5 C 689.5,398.5 692.5,398.5 695.5,398.5C 708.268,400.771 716.435,408.104 720,420.5C 723.674,434.368 723.174,448.035 718.5,461.5C 715.81,464.873 713.477,468.54 711.5,472.5C 706.284,475.939 700.617,478.606 694.5,480.5C 682.833,480.5 671.167,480.5 659.5,480.5C 659.5,453.167 659.5,425.833 659.5,398.5C 668.5,398.5 677.5,398.5 686.5,398.5 Z"/></g>
<g><path style="opacity:1" fill="#6191c4" d="M 658.5,397.5 C 668.015,397.173 677.348,397.506 686.5,398.5C 677.5,398.5 668.5,398.5 659.5,398.5C 659.5,425.833 659.5,453.167 659.5,480.5C 671.167,480.5 682.833,480.5 694.5,480.5C 682.678,481.495 670.678,481.828 658.5,481.5C 658.5,453.5 658.5,425.5 658.5,397.5 Z"/></g>
<g><path style="opacity:1" fill="#538ac4" d="M 505.5,399.5 C 502.853,414.072 500.853,428.739 499.5,443.5C 498.833,444.833 498.167,446.167 497.5,447.5C 498.012,436.43 499.178,425.43 501,414.5C 502.225,410.325 503.058,405.991 503.5,401.5C 503.747,400.287 504.414,399.62 505.5,399.5 Z"/></g>
<g><path style="opacity:1" fill="#c7deed" d="M 499.5,443.5 C 499.336,446.187 499.503,448.854 500,451.5C 500.5,450.333 501.333,449.5 502.5,449C 508.391,446.974 514.391,445.14 520.5,443.5C 513.411,447.459 506.078,451.125 498.5,454.5C 497.534,452.604 497.201,450.604 497.5,448.5C 497.5,448.167 497.5,447.833 497.5,447.5C 498.167,446.167 498.833,444.833 499.5,443.5 Z"/></g>
<g><path style="opacity:1" fill="#4687c9" d="M 558.5,442.5 C 547.14,442.283 535.807,442.616 524.5,443.5C 524.719,444.675 524.386,445.675 523.5,446.5C 521.051,446.98 518.885,447.98 517,449.5C 516.08,451.632 514.913,453.632 513.5,455.5C 512.491,452.013 510.158,450.68 506.5,451.5C 506.328,453.492 506.995,455.158 508.5,456.5C 507.68,458.111 506.346,458.778 504.5,458.5C 504.5,457.5 504.5,456.5 504.5,455.5C 501.833,455.5 499.167,455.5 496.5,455.5C 496.198,452.941 496.532,450.607 497.5,448.5C 497.201,450.604 497.534,452.604 498.5,454.5C 506.078,451.125 513.411,447.459 520.5,443.5C 521.263,442.732 522.263,442.232 523.5,442C 535.341,441.174 547.007,441.341 558.5,442.5 Z"/></g>
<g><path style="opacity:1" fill="#4988cb" d="M 433.5,443.5 C 433.334,447.514 433.501,451.514 434,455.5C 435.236,456.399 436.07,457.566 436.5,459C 434.685,460.7 433.685,462.866 433.5,465.5C 433.551,467.1 433.884,468.6 434.5,470C 432.834,472.48 432.001,475.313 432,478.5C 431.667,475.833 431.333,473.167 431,470.5C 429.104,476.646 427.937,482.979 427.5,489.5C 426.818,490.243 426.151,490.909 425.5,491.5C 427.81,475.323 430.476,459.323 433.5,443.5 Z"/></g>
<g><path style="opacity:1" fill="#9ebfdf" d="M 718.5,461.5 C 717.374,465.954 715.041,469.621 711.5,472.5C 713.477,468.54 715.81,464.873 718.5,461.5 Z"/></g>
<g><path style="opacity:1" fill="#02038f" d="M 316.5,556.5 C 316.5,557.167 316.833,557.5 317.5,557.5C 335.489,572.824 353.156,588.491 370.5,604.5C 359.664,605.468 348.664,605.468 337.5,604.5C 314.213,585.381 291.38,565.715 269,545.5C 254.64,557.698 240.474,570.032 226.5,582.5C 218.352,589.738 210.019,596.738 201.5,603.5C 190.828,603.667 180.161,603.5 169.5,603C 170.056,602.617 170.389,602.117 170.5,601.5C 189.87,583.795 209.537,566.461 229.5,549.5C 230.167,549.5 230.5,549.167 230.5,548.5C 238.974,540.865 247.641,533.365 256.5,526C 265.927,520.869 274.927,521.536 283.5,528C 294.372,537.71 305.372,547.21 316.5,556.5 Z"/></g>
<g><path style="opacity:1" fill="#90b1d9" d="M 777.5,520.5 C 775.951,525.603 772.951,529.603 768.5,532.5C 771.512,528.462 774.512,524.462 777.5,520.5 Z"/></g>
<g><path style="opacity:1" fill="#77a0c9" d="M 457.5,532.5 C 466.231,532.772 474.564,534.438 482.5,537.5C 479.813,537.664 477.146,537.497 474.5,537C 468.722,535.492 463.056,533.992 457.5,532.5 Z"/></g>
<g><path style="opacity:1" fill="#91b6db" d="M 768.5,532.5 C 767.797,534.716 766.464,536.549 764.5,538C 760.949,540.268 757.616,542.768 754.5,545.5C 752.026,546.32 749.693,547.32 747.5,548.5C 754.641,543.421 761.641,538.087 768.5,532.5 Z"/></g>
<g><path style="opacity:1" fill="#0938eb" d="M 337.5,604.5 C 381.203,643.539 425.203,682.206 469.5,720.5C 484.185,733.851 499.185,746.851 514.5,759.5C 486.508,760.5 458.508,760.833 430.5,760.5C 428.5,758.833 426.5,757.167 424.5,755.5C 424.973,754.094 425.973,753.427 427.5,753.5C 448.844,753.833 470.177,753.5 491.5,752.5C 491.376,751.893 491.043,751.56 490.5,751.5C 490.5,750.833 490.167,750.5 489.5,750.5C 484.248,745.853 478.914,741.186 473.5,736.5C 467.321,730.921 460.988,725.588 454.5,720.5C 444.918,711.041 434.918,702.041 424.5,693.5C 417.771,687.431 410.771,681.764 403.5,676.5C 398.446,670.806 392.78,665.806 386.5,661.5C 376.072,651.129 365.072,641.463 353.5,632.5C 347.516,626.52 341.183,620.853 334.5,615.5C 312.653,596.637 290.82,577.637 269,558.5C 258.445,567.857 247.611,576.857 236.5,585.5C 234.429,584.046 232.262,582.713 230,581.5C 228.862,581.989 227.695,582.322 226.5,582.5C 240.474,570.032 254.64,557.698 269,545.5C 291.38,565.715 314.213,585.381 337.5,604.5 Z"/></g>
<g><path style="opacity:1" fill="#87afd4" d="M 745.5,549.5 C 742.004,552.048 738.004,553.381 733.5,553.5C 737.213,551.565 741.213,550.232 745.5,549.5 Z"/></g>
<g><path style="opacity:1" fill="#6291c7" d="M 628.5,540.5 C 629.222,540.918 629.722,541.584 630,542.5C 630.667,553.833 630.667,565.167 630,576.5C 628.646,589.604 626.646,602.604 624,615.5C 623.058,618.374 621.891,621.04 620.5,623.5C 620.491,617.044 621.825,610.878 624.5,605C 623.048,601.251 623.548,597.751 626,594.5C 628.165,576.568 628.998,558.568 628.5,540.5 Z"/></g>
<g><path style="opacity:1" fill="#2980d0" d="M 317.5,557.5 C 341.167,557.5 364.833,557.5 388.5,557.5C 388.5,578.167 388.5,598.833 388.5,619.5C 382.5,614.5 376.5,609.5 370.5,604.5C 353.156,588.491 335.489,572.824 317.5,557.5 Z"/></g>
<g><path style="opacity:1" fill="#d5e1f6" d="M 658.5,557.5 C 658.5,603.167 658.5,648.833 658.5,694.5C 629.159,694.833 599.826,694.5 570.5,693.5C 570.624,692.893 570.957,692.56 571.5,692.5C 599.995,693.498 628.662,693.831 657.5,693.5C 657.168,647.997 657.501,602.664 658.5,557.5 Z"/></g>
<g><path style="opacity:1" fill="#6b92ca" d="M 727.5,555.5 C 726.4,556.558 725.066,557.392 723.5,558C 702.169,558.5 680.836,558.667 659.5,558.5C 659.832,604.003 659.499,649.336 658.5,694.5C 658.5,648.833 658.5,603.167 658.5,557.5C 681.346,556.77 704.346,556.104 727.5,555.5 Z"/></g>
<g><path style="opacity:1" fill="#94b0d5" d="M 316.5,556.5 C 340.833,556.5 365.167,556.5 389.5,556.5C 389.5,577.833 389.5,599.167 389.5,620.5C 388.833,620.5 388.5,620.167 388.5,619.5C 388.5,598.833 388.5,578.167 388.5,557.5C 364.833,557.5 341.167,557.5 317.5,557.5C 316.833,557.5 316.5,557.167 316.5,556.5 Z"/></g>
<g><path style="opacity:1" fill="#d1e0f1" d="M 552.5,545.5 C 554.358,553.943 554.858,562.61 554,571.5C 553.627,575.218 552.461,578.551 550.5,581.5C 552.239,569.678 552.905,557.678 552.5,545.5 Z"/></g>
<g><path style="opacity:1" fill="#ebf3fe" d="M 334.5,615.5 C 331.36,616.641 328.027,616.808 324.5,616C 289.795,611.638 255.128,606.971 220.5,602C 221.71,600.961 222.71,599.794 223.5,598.5C 227.64,593.939 231.973,589.605 236.5,585.5C 247.611,576.857 258.445,567.857 269,558.5C 290.82,577.637 312.653,596.637 334.5,615.5 Z"/></g>
<g><path style="opacity:1" fill="#e2eefe" d="M 223.5,598.5 C 222.71,599.794 221.71,600.961 220.5,602C 255.128,606.971 289.795,611.638 324.5,616C 328.027,616.808 331.36,616.641 334.5,615.5C 341.183,620.853 347.516,626.52 353.5,632.5C 352.551,633.152 351.385,633.486 350,633.5C 339.225,631.987 328.391,631.154 317.5,631C 279.467,626.281 241.467,621.281 203.5,616C 204.056,615.617 204.389,615.117 204.5,614.5C 210.242,608.422 216.575,603.088 223.5,598.5 Z"/></g>
<g><path style="opacity:1" fill="#0e49f0" d="M 236.5,585.5 C 231.973,589.605 227.64,593.939 223.5,598.5C 216.575,603.088 210.242,608.422 204.5,614.5C 202.02,615.912 199.687,617.578 197.5,619.5C 195.059,618.443 192.725,617.11 190.5,615.5C 189.583,616.127 188.583,616.461 187.5,616.5C 192.167,612.167 196.833,607.833 201.5,603.5C 210.019,596.738 218.352,589.738 226.5,582.5C 227.695,582.322 228.862,581.989 230,581.5C 232.262,582.713 234.429,584.046 236.5,585.5 Z"/></g>
<g><path style="opacity:1" fill="#4f86c5" d="M 478.5,587.5 C 476.26,588.264 473.927,589.098 471.5,590C 470.842,591.905 469.675,593.405 468,594.5C 466.647,593.296 464.981,592.629 463,592.5C 449.976,595.881 436.809,598.548 423.5,600.5C 423.858,604.509 424.358,608.509 425,612.5C 425.333,612.167 425.667,611.833 426,611.5C 428.033,613.35 428.033,614.016 426,613.5C 425.51,614.793 425.343,616.127 425.5,617.5C 423.379,611.435 422.046,605.102 421.5,598.5C 436.931,595.525 452.264,592.025 467.5,588C 471.152,587.501 474.818,587.335 478.5,587.5 Z"/></g>
<g><path style="opacity:1" fill="#598ac2" d="M 546.5,594.5 C 543.657,598.855 540.99,603.355 538.5,608C 534.353,609.757 530.353,611.757 526.5,614C 521.467,614.829 516.467,614.662 511.5,613.5C 510.007,612.859 509.007,611.859 508.5,610.5C 512.364,611.399 516.197,612.399 520,613.5C 522.253,613.369 524.419,612.869 526.5,612C 531.393,609.768 535.726,606.768 539.5,603C 541.698,599.977 544.031,597.144 546.5,594.5 Z"/></g>
<g><path style="opacity:1" fill="#1555f3" d="M 197.5,619.5 C 191.833,624.833 186.167,630.167 180.5,635.5C 179.609,636.11 178.609,636.443 177.5,636.5C 175.511,635.012 173.678,633.345 172,631.5C 171.184,632.823 170.017,633.489 168.5,633.5C 174.464,627.542 180.797,621.875 187.5,616.5C 188.583,616.461 189.583,616.127 190.5,615.5C 192.725,617.11 195.059,618.443 197.5,619.5 Z"/></g>
<g><path style="opacity:1" fill="#d8e9fe" d="M 204.5,614.5 C 204.389,615.117 204.056,615.617 203.5,616C 241.467,621.281 279.467,626.281 317.5,631C 328.391,631.154 339.225,631.987 350,633.5C 351.385,633.486 352.551,633.152 353.5,632.5C 365.072,641.463 376.072,651.129 386.5,661.5C 385.726,662.147 384.726,662.48 383.5,662.5C 315.555,654.383 247.888,645.383 180.5,635.5C 186.167,630.167 191.833,624.833 197.5,619.5C 199.687,617.578 202.02,615.912 204.5,614.5 Z"/></g>
<g><path style="opacity:1" fill="#d1e5fe" d="M 180.5,635.5 C 247.888,645.383 315.555,654.383 383.5,662.5C 384.726,662.48 385.726,662.147 386.5,661.5C 392.78,665.806 398.446,670.806 403.5,676.5C 403.083,677.124 402.416,677.457 401.5,677.5C 334.525,668.861 267.525,660.361 200.5,652C 189.812,650.426 179.146,648.759 168.5,647C 169.71,645.961 170.71,644.794 171.5,643.5C 173.5,641.167 175.5,638.833 177.5,636.5C 178.609,636.443 179.609,636.11 180.5,635.5 Z"/></g>
<g><path style="opacity:1" fill="#145ef5" d="M 177.5,636.5 C 175.5,638.833 173.5,641.167 171.5,643.5C 164.602,648.122 158.269,653.456 152.5,659.5C 151.833,659.833 151.167,660.167 150.5,660.5C 148.731,659.579 147.065,658.412 145.5,657C 144.207,656.51 142.873,656.343 141.5,656.5C 149.933,648.124 158.933,640.458 168.5,633.5C 170.017,633.489 171.184,632.823 172,631.5C 173.678,633.345 175.511,635.012 177.5,636.5 Z"/></g>
<g><path style="opacity:1" fill="#cae1fe" d="M 171.5,643.5 C 170.71,644.794 169.71,645.961 168.5,647C 179.146,648.759 189.812,650.426 200.5,652C 267.525,660.361 334.525,668.861 401.5,677.5C 402.416,677.457 403.083,677.124 403.5,676.5C 410.771,681.764 417.771,687.431 424.5,693.5C 423.551,694.152 422.385,694.486 421,694.5C 410.896,692.771 400.73,691.604 390.5,691C 310.966,680.898 231.633,670.398 152.5,659.5C 158.269,653.456 164.602,648.122 171.5,643.5 Z"/></g>
<g><path style="opacity:1" fill="#cce1f1" d="M 615.5,640.5 C 614.86,643.865 614.026,647.198 613,650.5C 609.363,654.105 607.03,658.438 606,663.5C 603.256,665.085 601.089,667.085 599.5,669.5C 604.847,659.74 610.181,650.074 615.5,640.5 Z"/></g>
<g><path style="opacity:1" fill="#001197" d="M 170.5,601.5 C 170.389,602.117 170.056,602.617 169.5,603C 180.161,603.5 190.828,603.667 201.5,603.5C 196.833,607.833 192.167,612.167 187.5,616.5C 180.797,621.875 174.464,627.542 168.5,633.5C 158.933,640.458 149.933,648.124 141.5,656.5C 131.179,664.822 121.179,673.489 111.5,682.5C 101.179,690.822 91.1794,699.489 81.5,708.5C 78.8333,710.5 76.1667,712.5 73.5,714.5C 62.6536,714.828 51.9869,714.494 41.5,713.5C 83.9286,675.398 126.929,638.064 170.5,601.5 Z"/></g>
<g><path style="opacity:1" fill="#021197" d="M 337.5,604.5 C 348.664,605.468 359.664,605.468 370.5,604.5C 376.5,609.5 382.5,614.5 388.5,619.5C 388.5,620.167 388.833,620.5 389.5,620.5C 409.538,638.54 429.871,656.207 450.5,673.5C 453.185,677.183 456.518,680.183 460.5,682.5C 464.847,686.845 469.514,690.845 474.5,694.5C 482.808,701.804 491.141,709.138 499.5,716.5C 489.5,717.833 479.5,719.167 469.5,720.5C 425.203,682.206 381.203,643.539 337.5,604.5 Z"/></g>
<g><path style="opacity:1" fill="#c2ddfe" d="M 152.5,659.5 C 231.633,670.398 310.966,680.898 390.5,691C 400.73,691.604 410.896,692.771 421,694.5C 422.385,694.486 423.551,694.152 424.5,693.5C 434.918,702.041 444.918,711.041 454.5,720.5C 454.265,721.097 453.765,721.43 453,721.5C 345.516,707.614 238.016,693.781 130.5,680C 131.252,679.329 131.586,678.496 131.5,677.5C 137.645,671.599 143.978,665.932 150.5,660.5C 151.167,660.167 151.833,659.833 152.5,659.5 Z"/></g>
<g><path style="opacity:1" fill="#196bf8" d="M 141.5,656.5 C 142.873,656.343 144.207,656.51 145.5,657C 147.065,658.412 148.731,659.579 150.5,660.5C 143.978,665.932 137.645,671.599 131.5,677.5C 128.124,680.878 124.457,683.878 120.5,686.5C 117.474,685.118 114.474,683.785 111.5,682.5C 121.179,673.489 131.179,664.822 141.5,656.5 Z"/></g>
<g><path style="opacity:1" fill="#b8d8fe" d="M 131.5,677.5 C 131.586,678.496 131.252,679.329 130.5,680C 238.016,693.781 345.516,707.614 453,721.5C 453.765,721.43 454.265,721.097 454.5,720.5C 460.988,725.588 467.321,730.921 473.5,736.5C 473.38,737.586 472.713,738.253 471.5,738.5C 366.185,724.86 260.852,711.36 155.5,698C 142.257,696.421 129.257,694.254 116.5,691.5C 117.3,689.427 118.633,687.76 120.5,686.5C 124.457,683.878 128.124,680.878 131.5,677.5 Z"/></g>
<g><path style="opacity:1" fill="#4585c9" d="M 597.5,670.5 C 594.032,674.141 590.698,677.974 587.5,682C 582.313,685.426 576.98,688.593 571.5,691.5C 569.824,692.183 569.157,693.517 569.5,695.5C 599.167,695.5 628.833,695.5 658.5,695.5C 628.338,696.498 598.005,696.831 567.5,696.5C 567.5,694.167 567.5,691.833 567.5,689.5C 570.5,689.833 571.833,688.5 571.5,685.5C 570.167,685.5 568.833,685.5 567.5,685.5C 567.5,684.167 567.5,682.833 567.5,681.5C 571.306,681.412 574.972,682.079 578.5,683.5C 580.904,682.992 581.571,681.825 580.5,680C 581.667,679.5 582.5,678.667 583,677.5C 587.489,680.543 589.322,679.209 588.5,673.5C 591.882,673.274 594.882,672.274 597.5,670.5 Z"/></g>
<g><path style="opacity:1" fill="#adc4e3" d="M 474.5,694.5 C 469.514,690.845 464.847,686.845 460.5,682.5C 460.56,681.957 460.893,681.624 461.5,681.5C 463.295,683.703 465.629,684.869 468.5,685C 469.878,686.713 471.545,688.047 473.5,689C 474.376,691.376 476.042,692.876 478.5,693.5C 477.311,694.429 475.978,694.762 474.5,694.5 Z"/></g>
<g><path style="opacity:1" fill="#1d76fb" d="M 111.5,682.5 C 114.474,683.785 117.474,685.118 120.5,686.5C 118.633,687.76 117.3,689.427 116.5,691.5C 111.752,693.882 107.752,697.216 104.5,701.5C 100.016,704.582 95.683,707.916 91.5,711.5C 89.4535,709.721 87.2869,708.054 85,706.5C 84.1841,707.823 83.0174,708.489 81.5,708.5C 91.1794,699.489 101.179,690.822 111.5,682.5 Z"/></g>
<g><path style="opacity:1" fill="#a5c2e9" d="M 571.5,691.5 C 571.5,691.833 571.5,692.167 571.5,692.5C 570.957,692.56 570.624,692.893 570.5,693.5C 599.826,694.5 629.159,694.833 658.5,694.5C 658.5,694.833 658.5,695.167 658.5,695.5C 628.833,695.5 599.167,695.5 569.5,695.5C 569.157,693.517 569.824,692.183 571.5,691.5 Z"/></g>
<g><path style="opacity:1" fill="#b1d4fe" d="M 116.5,691.5 C 129.257,694.254 142.257,696.421 155.5,698C 260.852,711.36 366.185,724.86 471.5,738.5C 472.713,738.253 473.38,737.586 473.5,736.5C 478.914,741.186 484.248,745.853 489.5,750.5C 479.347,751.494 469.014,751.828 458.5,751.5C 339.576,736.231 220.576,720.731 101.5,705C 102.71,703.961 103.71,702.794 104.5,701.5C 107.752,697.216 111.752,693.882 116.5,691.5 Z"/></g>
<g><path style="opacity:1" fill="#abd1fe" d="M 104.5,701.5 C 103.71,702.794 102.71,703.961 101.5,705C 220.576,720.731 339.576,736.231 458.5,751.5C 448.652,751.173 438.986,751.506 429.5,752.5C 428.508,752.328 427.842,752.662 427.5,753.5C 425.973,753.427 424.973,754.094 424.5,755.5C 423.599,756.29 422.932,757.29 422.5,758.5C 312.679,744.454 202.845,730.454 93,716.5C 91.3189,716.392 90.1522,715.725 89.5,714.5C 90.1667,713.5 90.8333,712.5 91.5,711.5C 95.683,707.916 100.016,704.582 104.5,701.5 Z"/></g>
<g><path style="opacity:1" fill="#2883fd" d="M 91.5,711.5 C 90.8333,712.5 90.1667,713.5 89.5,714.5C 84.4116,718.039 79.7449,722.039 75.5,726.5C 72.8883,727.779 70.5549,729.445 68.5,731.5C 65.6071,729.886 62.6071,728.553 59.5,727.5C 64.1667,723.167 68.8333,718.833 73.5,714.5C 76.1667,712.5 78.8333,710.5 81.5,708.5C 83.0174,708.489 84.1841,707.823 85,706.5C 87.2869,708.054 89.4535,709.721 91.5,711.5 Z"/></g>
<g><path style="opacity:1" fill="#a5cdff" d="M 89.5,714.5 C 90.1522,715.725 91.3189,716.392 93,716.5C 202.845,730.454 312.679,744.454 422.5,758.5C 422.5,762.833 422.5,767.167 422.5,771.5C 306.624,757.135 190.957,742.135 75.5,726.5C 79.7449,722.039 84.4116,718.039 89.5,714.5 Z"/></g>
<g><path style="opacity:1" fill="#9fcafe" d="M 75.5,726.5 C 190.957,742.135 306.624,757.135 422.5,771.5C 422.83,778.2 422.497,784.866 421.5,791.5C 410.37,786.458 398.703,782.792 386.5,780.5C 371.074,777.374 355.407,774.874 339.5,773C 248.111,761.802 156.778,750.135 65.5,738C 64.7476,737.329 64.4142,736.496 64.5,735.5C 65.8333,734.167 67.1667,732.833 68.5,731.5C 70.5549,729.445 72.8883,727.779 75.5,726.5 Z"/></g>
<g><path style="opacity:1" fill="#99c7fe" d="M 64.5,735.5 C 64.4142,736.496 64.7476,737.329 65.5,738C 156.778,750.135 248.111,761.802 339.5,773C 355.407,774.874 371.074,777.374 386.5,780.5C 383.833,780.5 381.167,780.5 378.5,780.5C 365.99,779.018 353.657,780.351 341.5,784.5C 339.167,785.167 336.833,785.833 334.5,786.5C 266.753,778.152 199.086,769.485 131.5,760.5C 131.672,759.508 131.338,758.842 130.5,758.5C 129.712,755.379 127.712,753.712 124.5,753.5C 124.5,752.833 124.167,752.5 123.5,752.5C 97.8333,751.833 72.1667,751.167 46.5,750.5C 52.5,745.5 58.5,740.5 64.5,735.5 Z"/></g>
<g><path style="opacity:1" fill="#3e92fe" d="M 59.5,727.5 C 62.6071,728.553 65.6071,729.886 68.5,731.5C 67.1667,732.833 65.8333,734.167 64.5,735.5C 58.5,740.5 52.5,745.5 46.5,750.5C 45.9569,750.56 45.6236,750.893 45.5,751.5C 71.4915,752.5 97.4915,752.833 123.5,752.5C 124.167,752.5 124.5,752.833 124.5,753.5C 112.495,753.333 100.495,753.5 88.5,754C 90.8333,755.667 93.1667,757.333 95.5,759C 83.6667,759.167 71.8333,759.333 60,759.5C 47.8139,759.499 35.9806,758.832 24.5,757.5C 36.1415,747.529 47.8082,737.529 59.5,727.5 Z"/></g>
<g><path style="opacity:1" fill="#63a8ff" d="M 46.5,750.5 C 72.1667,751.167 97.8333,751.833 123.5,752.5C 97.4915,752.833 71.4915,752.5 45.5,751.5C 45.6236,750.893 45.9569,750.56 46.5,750.5 Z"/></g>
<g><path style="opacity:1" fill="#75a1f9" d="M 489.5,750.5 C 490.167,750.5 490.5,750.833 490.5,751.5C 470.34,752.497 450.007,752.83 429.5,752.5C 438.986,751.506 448.652,751.173 458.5,751.5C 469.014,751.828 479.347,751.494 489.5,750.5 Z"/></g>
<g><path style="opacity:1" fill="#2156f1" d="M 490.5,751.5 C 491.043,751.56 491.376,751.893 491.5,752.5C 470.177,753.5 448.844,753.833 427.5,753.5C 427.842,752.662 428.508,752.328 429.5,752.5C 450.007,752.83 470.34,752.497 490.5,751.5 Z"/></g>
<g><path style="opacity:1" fill="#2c85fb" d="M 124.5,753.5 C 127.712,753.712 129.712,755.379 130.5,758.5C 130.5,768.5 130.5,778.5 130.5,788.5C 129.681,791.305 129.181,794.305 129,797.5C 126.815,796.072 124.815,794.405 123,792.5C 122.768,793.737 122.268,794.737 121.5,795.5C 121.828,783.655 121.495,771.988 120.5,760.5C 87.8265,760.833 55.1599,760.5 22.5,759.5C 22.8555,758.478 23.5222,757.811 24.5,757.5C 35.9806,758.832 47.8139,759.499 60,759.5C 71.8333,759.333 83.6667,759.167 95.5,759C 93.1667,757.333 90.8333,755.667 88.5,754C 100.495,753.5 112.495,753.333 124.5,753.5 Z"/></g>
<g><path style="opacity:1" fill="#0021a0" d="M 41.5,713.5 C 51.9869,714.494 62.6536,714.828 73.5,714.5C 68.8333,718.833 64.1667,723.167 59.5,727.5C 47.8082,737.529 36.1415,747.529 24.5,757.5C 23.5222,757.811 22.8555,758.478 22.5,759.5C 55.1599,760.5 87.8265,760.833 120.5,760.5C 120.5,772.5 120.5,784.5 120.5,796.5C 113.543,795.614 106.543,795.28 99.5,795.5C 99.8168,791.298 99.4834,787.298 98.5,783.5C 72.1646,783.667 45.8312,783.5 19.5,783C 14.6602,782.224 10.3269,780.391 6.5,777.5C 3.78093,773.615 1.4476,769.615 -0.5,765.5C -0.5,761.833 -0.5,758.167 -0.5,754.5C 1.23276,751.514 3.06609,748.514 5,745.5C 16.6145,733.984 28.7811,723.317 41.5,713.5 Z"/></g>
<g><path style="opacity:1" fill="#92c3fe" d="M 131.5,760.5 C 199.086,769.485 266.753,778.152 334.5,786.5C 330.039,788.564 325.706,790.898 321.5,793.5C 318.977,794.801 316.31,795.801 313.5,796.5C 252.788,789.208 192.121,781.541 131.5,773.5C 131.5,769.167 131.5,764.833 131.5,760.5 Z"/></g>
<g><path style="opacity:1" fill="#0021a0" d="M 499.5,716.5 C 507.333,723.498 515.333,730.331 523.5,737C 529.616,742.097 534.116,748.264 537,755.5C 538.22,770.25 531.72,779.416 517.5,783C 495.836,783.5 474.169,783.667 452.5,783.5C 452.5,788.833 452.5,794.167 452.5,799.5C 445.5,799.5 438.5,799.5 431.5,799.5C 431.784,797.585 431.451,795.919 430.5,794.5C 430.5,783.167 430.5,771.833 430.5,760.5C 458.508,760.833 486.508,760.5 514.5,759.5C 499.185,746.851 484.185,733.851 469.5,720.5C 479.5,719.167 489.5,717.833 499.5,716.5 Z"/></g>
<g><path style="opacity:1" fill="#2681d2" d="M -0.5,765.5 C 1.4476,769.615 3.78093,773.615 6.5,777.5C 10.3269,780.391 14.6602,782.224 19.5,783C 45.8312,783.5 72.1646,783.667 98.5,783.5C 98.3333,850.167 98.5,916.834 99,983.5C 100.128,985.345 100.628,987.345 100.5,989.5C 103.681,1003.86 111.347,1015.19 123.5,1023.5C 82.1667,1023.5 40.8333,1023.5 -0.5,1023.5C -0.5,937.5 -0.5,851.5 -0.5,765.5 Z"/></g>
<g><path style="opacity:1" fill="#8cc0fe" d="M 131.5,773.5 C 192.121,781.541 252.788,789.208 313.5,796.5C 310.202,798.485 306.869,800.485 303.5,802.5C 301.079,804.238 298.412,805.571 295.5,806.5C 240.847,799.74 186.18,793.073 131.5,786.5C 131.5,782.167 131.5,777.833 131.5,773.5 Z"/></g>
<g><path style="opacity:1" fill="#0f5af6" d="M 378.5,780.5 C 376.712,780.215 375.045,780.548 373.5,781.5C 373.709,782.086 374.043,782.586 374.5,783C 393.058,797.239 411.724,811.406 430.5,825.5C 430.5,837.5 430.5,849.5 430.5,861.5C 429.835,859.302 429.168,856.969 428.5,854.5C 398.986,831.908 369.652,809.075 340.5,786C 341.056,785.617 341.389,785.117 341.5,784.5C 353.657,780.351 365.99,779.018 378.5,780.5 Z"/></g>
<g><path style="opacity:1" fill="#0f52f3" d="M 424.5,755.5 C 426.5,757.167 428.5,758.833 430.5,760.5C 430.5,771.833 430.5,783.167 430.5,794.5C 430.5,804.833 430.5,815.167 430.5,825.5C 411.724,811.406 393.058,797.239 374.5,783C 374.043,782.586 373.709,782.086 373.5,781.5C 375.045,780.548 376.712,780.215 378.5,780.5C 381.167,780.5 383.833,780.5 386.5,780.5C 398.703,782.792 410.37,786.458 421.5,791.5C 422.497,784.866 422.83,778.2 422.5,771.5C 422.5,767.167 422.5,762.833 422.5,758.5C 422.932,757.29 423.599,756.29 424.5,755.5 Z"/></g>
<g><path style="opacity:1" fill="#1160f7" d="M 341.5,784.5 C 341.389,785.117 341.056,785.617 340.5,786C 369.652,809.075 398.986,831.908 428.5,854.5C 429.168,856.969 429.835,859.302 430.5,861.5C 430.5,863.5 430.5,865.5 430.5,867.5C 429.677,870.977 429.177,874.644 429,878.5C 394.786,851.285 360.286,824.451 325.5,798C 323.808,796.693 322.475,795.193 321.5,793.5C 325.706,790.898 330.039,788.564 334.5,786.5C 336.833,785.833 339.167,785.167 341.5,784.5 Z"/></g>
<g><path style="opacity:1" fill="#86bdfe" d="M 131.5,786.5 C 186.18,793.073 240.847,799.74 295.5,806.5C 291.228,808.774 287.228,811.441 283.5,814.5C 280.605,815.399 277.938,816.733 275.5,818.5C 227.534,812.348 179.534,806.348 131.5,800.5C 131.5,795.833 131.5,791.167 131.5,786.5 Z"/></g>
<g><path style="opacity:1" fill="#1366f9" d="M 321.5,793.5 C 322.475,795.193 323.808,796.693 325.5,798C 360.286,824.451 394.786,851.285 429,878.5C 429.177,874.644 429.677,870.977 430.5,867.5C 430.5,869.5 430.5,871.5 430.5,873.5C 430.5,884.5 430.5,895.5 430.5,906.5C 430.167,906.5 429.833,906.5 429.5,906.5C 387.177,873.018 344.677,839.685 302,806.5C 301.7,804.934 302.2,803.601 303.5,802.5C 306.869,800.485 310.202,798.485 313.5,796.5C 316.31,795.801 318.977,794.801 321.5,793.5 Z"/></g>
<g><path style="opacity:1" fill="#7db8fe" d="M 131.5,800.5 C 179.534,806.348 227.534,812.348 275.5,818.5C 272.833,820.167 270.167,821.833 267.5,823.5C 262.167,826.5 256.833,829.5 251.5,832.5C 248.299,833.931 245.299,835.597 242.5,837.5C 241.833,837.5 241.167,837.5 240.5,837.5C 204.154,832.942 167.821,828.276 131.5,823.5C 131.5,815.833 131.5,808.167 131.5,800.5 Z"/></g>
<g><path style="opacity:1" fill="#166dfa" d="M 303.5,802.5 C 302.2,803.601 301.7,804.934 302,806.5C 344.677,839.685 387.177,873.018 429.5,906.5C 429.666,913.841 429.5,921.174 429,928.5C 380.599,890.382 332.099,852.382 283.5,814.5C 287.228,811.441 291.228,808.774 295.5,806.5C 298.412,805.571 301.079,804.238 303.5,802.5 Z"/></g>
<g><path style="opacity:1" fill="#1873fb" d="M 283.5,814.5 C 332.099,852.382 380.599,890.382 429,928.5C 429.5,921.174 429.666,913.841 429.5,906.5C 429.833,906.5 430.167,906.5 430.5,906.5C 430.5,910.167 430.5,913.833 430.5,917.5C 430.831,941.006 430.498,964.339 429.5,987.5C 429.5,983.167 429.5,978.833 429.5,974.5C 429.666,966.826 429.5,959.159 429,951.5C 375.358,909.531 321.691,867.531 268,825.5C 267.536,824.906 267.369,824.239 267.5,823.5C 270.167,821.833 272.833,820.167 275.5,818.5C 277.938,816.733 280.605,815.399 283.5,814.5 Z"/></g>
<g><path style="opacity:1" fill="#73b3ff" d="M 131.5,823.5 C 167.821,828.276 204.154,832.942 240.5,837.5C 237.833,839.167 235.167,840.833 232.5,842.5C 229.397,843.686 226.397,845.02 223.5,846.5C 221.5,847.167 219.5,847.833 217.5,848.5C 189.192,844.98 160.859,841.647 132.5,838.5C 132.737,837.209 132.404,836.209 131.5,835.5C 131.5,831.5 131.5,827.5 131.5,823.5 Z"/></g>
<g><path style="opacity:1" fill="#1a79fd" d="M 267.5,823.5 C 267.369,824.239 267.536,824.906 268,825.5C 321.691,867.531 375.358,909.531 429,951.5C 429.5,959.159 429.666,966.826 429.5,974.5C 369.376,928.215 309.376,881.715 249.5,835C 250.381,834.292 251.047,833.458 251.5,832.5C 256.833,829.5 262.167,826.5 267.5,823.5 Z"/></g>
<g><path style="opacity:1" fill="#4899fe" d="M 130.5,788.5 C 130.667,807.17 130.5,825.836 130,844.5C 127.371,842.112 124.538,840.112 121.5,838.5C 121.5,824.167 121.5,809.833 121.5,795.5C 122.268,794.737 122.768,793.737 123,792.5C 124.815,794.405 126.815,796.072 129,797.5C 129.181,794.305 129.681,791.305 130.5,788.5 Z"/></g>
<g><path style="opacity:1" fill="#012da8" d="M 120.5,760.5 C 121.495,771.988 121.828,783.655 121.5,795.5C 121.5,809.833 121.5,824.167 121.5,838.5C 121.088,849.164 120.755,859.83 120.5,870.5C 113.5,870.5 106.5,870.5 99.5,870.5C 99.5,845.5 99.5,820.5 99.5,795.5C 106.543,795.28 113.543,795.614 120.5,796.5C 120.5,784.5 120.5,772.5 120.5,760.5 Z"/></g>
<g><path style="opacity:1" fill="#1d7efe" d="M 251.5,832.5 C 251.047,833.458 250.381,834.292 249.5,835C 309.376,881.715 369.376,928.215 429.5,974.5C 429.5,978.833 429.5,983.167 429.5,987.5C 429.167,987.5 428.833,987.5 428.5,987.5C 428.489,985.983 427.823,984.816 426.5,984C 364.443,936.457 302.777,888.29 241.5,839.5C 241.863,838.817 242.196,838.15 242.5,837.5C 245.299,835.597 248.299,833.931 251.5,832.5 Z"/></g>
<g><path style="opacity:1" fill="#6bafff" d="M 131.5,835.5 C 132.404,836.209 132.737,837.209 132.5,838.5C 160.859,841.647 189.192,844.98 217.5,848.5C 216.833,849.167 216.167,849.833 215.5,850.5C 212.914,851.01 210.581,852.01 208.5,853.5C 203.859,855.485 199.193,857.485 194.5,859.5C 192.5,860.167 190.5,860.833 188.5,861.5C 183.989,862.931 179.655,864.598 175.5,866.5C 172.341,867.885 169.008,868.885 165.5,869.5C 164.833,869.5 164.167,869.5 163.5,869.5C 154.013,867.768 144.346,866.268 134.5,865C 133.584,864.626 132.75,864.126 132,863.5C 131.5,854.173 131.334,844.839 131.5,835.5 Z"/></g>
<g><path style="opacity:1" fill="#002ca6" d="M 430.5,794.5 C 431.451,795.919 431.784,797.585 431.5,799.5C 438.5,799.5 445.5,799.5 452.5,799.5C 452.5,824.167 452.5,848.833 452.5,873.5C 445.167,873.5 437.833,873.5 430.5,873.5C 430.5,871.5 430.5,869.5 430.5,867.5C 430.5,865.5 430.5,863.5 430.5,861.5C 430.5,849.5 430.5,837.5 430.5,825.5C 430.5,815.167 430.5,804.833 430.5,794.5 Z"/></g>
<g><path style="opacity:1" fill="#2281fe" d="M 240.5,837.5 C 241.167,837.5 241.833,837.5 242.5,837.5C 242.196,838.15 241.863,838.817 241.5,839.5C 302.777,888.29 364.443,936.457 426.5,984C 427.823,984.816 428.489,985.983 428.5,987.5C 428.5,988.833 428.5,990.167 428.5,991.5C 427.272,992.306 426.272,993.306 425.5,994.5C 418.025,987.865 410.358,981.365 402.5,975C 345.182,931.527 288.516,887.36 232.5,842.5C 235.167,840.833 237.833,839.167 240.5,837.5 Z"/></g>
<g><path style="opacity:1" fill="#2885fe" d="M 232.5,842.5 C 288.516,887.36 345.182,931.527 402.5,975C 410.358,981.365 418.025,987.865 425.5,994.5C 423.906,997.764 421.573,1000.43 418.5,1002.5C 418.703,1000.61 418.037,999.11 416.5,998C 357.8,951.97 298.8,906.303 239.5,861C 234.643,856.749 229.643,852.749 224.5,849C 223.748,848.329 223.414,847.496 223.5,846.5C 226.397,845.02 229.397,843.686 232.5,842.5 Z"/></g>
<g><path style="opacity:1" fill="#2f89fe" d="M 223.5,846.5 C 223.414,847.496 223.748,848.329 224.5,849C 229.643,852.749 234.643,856.749 239.5,861C 298.8,906.303 357.8,951.97 416.5,998C 418.037,999.11 418.703,1000.61 418.5,1002.5C 416.117,1004.36 413.45,1005.69 410.5,1006.5C 410.67,1005.18 410.337,1004.01 409.5,1003C 345.151,953.313 280.818,903.647 216.5,854C 215.663,852.989 215.33,851.822 215.5,850.5C 216.167,849.833 216.833,849.167 217.5,848.5C 219.5,847.833 221.5,847.167 223.5,846.5 Z"/></g>
<g><path style="opacity:1" fill="#348dfe" d="M 215.5,850.5 C 215.33,851.822 215.663,852.989 216.5,854C 280.818,903.647 345.151,953.313 409.5,1003C 410.337,1004.01 410.67,1005.18 410.5,1006.5C 406.702,1007.48 402.702,1007.82 398.5,1007.5C 333.815,957.161 269.148,906.828 204.5,856.5C 206.184,855.85 207.517,854.85 208.5,853.5C 210.581,852.01 212.914,851.01 215.5,850.5 Z"/></g>
<g><path style="opacity:1" fill="#3b91ff" d="M 208.5,853.5 C 207.517,854.85 206.184,855.85 204.5,856.5C 269.148,906.828 333.815,957.161 398.5,1007.5C 393.5,1007.5 388.5,1007.5 383.5,1007.5C 320.358,958.419 257.358,909.086 194.5,859.5C 199.193,857.485 203.859,855.485 208.5,853.5 Z"/></g>
<g><path style="opacity:1" fill="#4295ff" d="M 194.5,859.5 C 257.358,909.086 320.358,958.419 383.5,1007.5C 378.5,1007.5 373.5,1007.5 368.5,1007.5C 367.091,1005.58 365.424,1003.75 363.5,1002C 303.82,956.488 244.487,910.488 185.5,864C 186.942,863.623 187.942,862.79 188.5,861.5C 190.5,860.833 192.5,860.167 194.5,859.5 Z"/></g>
<g><path style="opacity:1" fill="#4799ff" d="M 188.5,861.5 C 187.942,862.79 186.942,863.623 185.5,864C 244.487,910.488 303.82,956.488 363.5,1002C 365.424,1003.75 367.091,1005.58 368.5,1007.5C 363.833,1007.5 359.167,1007.5 354.5,1007.5C 353.04,1005.54 351.373,1003.7 349.5,1002C 290.97,957.278 232.97,912.111 175.5,866.5C 179.655,864.598 183.989,862.931 188.5,861.5 Z"/></g>
<g><path style="opacity:1" fill="#4e9dff" d="M 175.5,866.5 C 232.97,912.111 290.97,957.278 349.5,1002C 351.373,1003.7 353.04,1005.54 354.5,1007.5C 349.167,1007.5 343.833,1007.5 338.5,1007.5C 280.662,961.833 222.662,916.333 164.5,871C 165.056,870.617 165.389,870.117 165.5,869.5C 169.008,868.885 172.341,867.885 175.5,866.5 Z"/></g>
<g><path style="opacity:1" fill="#0034ab" d="M 99.5,870.5 C 106.5,870.5 113.5,870.5 120.5,870.5C 120.5,885.167 120.5,899.833 120.5,914.5C 113.5,914.5 106.5,914.5 99.5,914.5C 99.5,899.833 99.5,885.167 99.5,870.5 Z"/></g>
<g><path style="opacity:1" fill="#66acff" d="M 279.5,1006.5 C 227.387,964.712 174.72,923.712 121.5,883.5C 121.334,879.154 121.501,874.821 122,870.5C 179.863,915.704 237.696,960.871 295.5,1006C 290.177,1006.5 284.844,1006.67 279.5,1006.5 Z"/></g>
<g><path style="opacity:1" fill="#54a0ff" d="M 163.5,869.5 C 164.167,869.5 164.833,869.5 165.5,869.5C 165.389,870.117 165.056,870.617 164.5,871C 222.662,916.333 280.662,961.833 338.5,1007.5C 334.167,1007.5 329.833,1007.5 325.5,1007.5C 269.939,963.106 213.939,919.273 157.5,876C 156.663,874.989 156.33,873.822 156.5,872.5C 159.063,871.912 161.396,870.912 163.5,869.5 Z"/></g>
<g><path style="opacity:1" fill="#5aa4ff" d="M 156.5,872.5 C 156.33,873.822 156.663,874.989 157.5,876C 213.939,919.273 269.939,963.106 325.5,1007.5C 320.5,1007.5 315.5,1007.5 310.5,1007.5C 255.353,963.864 200.02,920.364 144.5,877C 148.33,875.002 152.33,873.502 156.5,872.5 Z"/></g>
<g><path style="opacity:1" fill="#0034ab" d="M 430.5,873.5 C 437.833,873.5 445.167,873.5 452.5,873.5C 452.5,888.167 452.5,902.833 452.5,917.5C 445.167,917.5 437.833,917.5 430.5,917.5C 430.5,913.833 430.5,910.167 430.5,906.5C 430.5,895.5 430.5,884.5 430.5,873.5 Z"/></g>
<g><path style="opacity:1" fill="#5ea5fc" d="M 130.5,758.5 C 131.338,758.842 131.672,759.508 131.5,760.5C 131.5,764.833 131.5,769.167 131.5,773.5C 131.5,777.833 131.5,782.167 131.5,786.5C 131.5,791.167 131.5,795.833 131.5,800.5C 131.5,808.167 131.5,815.833 131.5,823.5C 131.5,827.5 131.5,831.5 131.5,835.5C 131.334,844.839 131.5,854.173 132,863.5C 132.75,864.126 133.584,864.626 134.5,865C 144.346,866.268 154.013,867.768 163.5,869.5C 161.396,870.912 159.063,871.912 156.5,872.5C 152.33,873.502 148.33,875.002 144.5,877C 200.02,920.364 255.353,963.864 310.5,1007.5C 286.5,1007.5 262.5,1007.5 238.5,1007.5C 247.318,1006.51 256.318,1006.17 265.5,1006.5C 270.167,1006.5 274.833,1006.5 279.5,1006.5C 284.844,1006.67 290.177,1006.5 295.5,1006C 237.696,960.871 179.863,915.704 122,870.5C 121.501,874.821 121.334,879.154 121.5,883.5C 121.5,887.167 121.5,890.833 121.5,894.5C 121.5,901.833 121.5,909.167 121.5,916.5C 121.5,923.833 121.5,931.167 121.5,938.5C 121.5,942.5 121.5,946.5 121.5,950.5C 121.5,961.167 121.5,971.833 121.5,982.5C 120.503,960.006 120.169,937.339 120.5,914.5C 120.5,899.833 120.5,885.167 120.5,870.5C 120.755,859.83 121.088,849.164 121.5,838.5C 124.538,840.112 127.371,842.112 130,844.5C 130.5,825.836 130.667,807.17 130.5,788.5C 130.5,778.5 130.5,768.5 130.5,758.5 Z"/></g>
<g><path style="opacity:1" fill="#6db0ff" d="M 121.5,883.5 C 174.72,923.712 227.387,964.712 279.5,1006.5C 274.833,1006.5 270.167,1006.5 265.5,1006.5C 217.759,968.654 169.759,931.32 121.5,894.5C 121.5,890.833 121.5,887.167 121.5,883.5 Z"/></g>
<g><path style="opacity:1" fill="#76b5fe" d="M 121.5,894.5 C 169.759,931.32 217.759,968.654 265.5,1006.5C 256.318,1006.17 247.318,1006.51 238.5,1007.5C 205.996,1007.83 173.662,1007.5 141.5,1006.5C 158.833,1006.5 176.167,1006.5 193.5,1006.5C 198.833,1006.5 204.167,1006.5 209.5,1006.5C 218.839,1006.67 228.173,1006.5 237.5,1006C 198.939,975.903 160.272,946.069 121.5,916.5C 121.5,909.167 121.5,901.833 121.5,894.5 Z"/></g>
<g><path style="opacity:1" fill="#83beff" d="M 121.5,916.5 C 160.272,946.069 198.939,975.903 237.5,1006C 228.173,1006.5 218.839,1006.67 209.5,1006.5C 180.137,983.825 150.803,961.158 121.5,938.5C 121.5,931.167 121.5,923.833 121.5,916.5 Z"/></g>
<g><path style="opacity:1" fill="#8bc3ff" d="M 121.5,938.5 C 150.803,961.158 180.137,983.825 209.5,1006.5C 204.167,1006.5 198.833,1006.5 193.5,1006.5C 169.515,987.838 145.515,969.171 121.5,950.5C 121.5,946.5 121.5,942.5 121.5,938.5 Z"/></g>
<g><path style="opacity:1" fill="#0342b3" d="M 98.5,783.5 C 99.4834,787.298 99.8168,791.298 99.5,795.5C 99.5,820.5 99.5,845.5 99.5,870.5C 99.5,885.167 99.5,899.833 99.5,914.5C 106.5,914.5 113.5,914.5 120.5,914.5C 120.169,937.339 120.503,960.006 121.5,982.5C 121.5,983.5 121.5,984.5 121.5,985.5C 121.5,986.833 121.5,988.167 121.5,989.5C 114.5,989.5 107.5,989.5 100.5,989.5C 100.628,987.345 100.128,985.345 99,983.5C 98.5,916.834 98.3333,850.167 98.5,783.5 Z"/></g>
<g><path style="opacity:1" fill="#003fb2" d="M 430.5,917.5 C 437.833,917.5 445.167,917.5 452.5,917.5C 452.667,941.169 452.5,964.836 452,988.5C 451.79,990.058 451.29,991.391 450.5,992.5C 442.981,992.825 435.648,992.492 428.5,991.5C 428.5,990.167 428.5,988.833 428.5,987.5C 428.833,987.5 429.167,987.5 429.5,987.5C 430.498,964.339 430.831,941.006 430.5,917.5 Z"/></g>
<g><path style="opacity:1" fill="#95c9fe" d="M 121.5,950.5 C 145.515,969.171 169.515,987.838 193.5,1006.5C 176.167,1006.5 158.833,1006.5 141.5,1006.5C 131.427,1002.76 124.76,995.76 121.5,985.5C 121.5,984.5 121.5,983.5 121.5,982.5C 121.5,971.833 121.5,961.167 121.5,950.5 Z"/></g>
<g><path style="opacity:1" fill="#0047b6" d="M 121.5,985.5 C 124.76,995.76 131.427,1002.76 141.5,1006.5C 173.662,1007.5 205.996,1007.83 238.5,1007.5C 262.5,1007.5 286.5,1007.5 310.5,1007.5C 315.5,1007.5 320.5,1007.5 325.5,1007.5C 329.833,1007.5 334.167,1007.5 338.5,1007.5C 343.833,1007.5 349.167,1007.5 354.5,1007.5C 359.167,1007.5 363.833,1007.5 368.5,1007.5C 373.5,1007.5 378.5,1007.5 383.5,1007.5C 388.5,1007.5 393.5,1007.5 398.5,1007.5C 402.702,1007.82 406.702,1007.48 410.5,1006.5C 413.45,1005.69 416.117,1004.36 418.5,1002.5C 421.573,1000.43 423.906,997.764 425.5,994.5C 426.272,993.306 427.272,992.306 428.5,991.5C 435.648,992.492 442.981,992.825 450.5,992.5C 450.662,994.527 450.495,996.527 450,998.5C 445.162,1008.5 438.329,1016.83 429.5,1023.5C 327.5,1023.5 225.5,1023.5 123.5,1023.5C 111.347,1015.19 103.681,1003.86 100.5,989.5C 107.5,989.5 114.5,989.5 121.5,989.5C 121.5,988.167 121.5,986.833 121.5,985.5 Z"/></g>
</svg>
