<?xml version="1.0" encoding="UTF-8"?>
<!DOCTYPE svg PUBLIC "-//W3C//DTD SVG 1.1//EN" "http://www.w3.org/Graphics/SVG/1.1/DTD/svg11.dtd">
<svg xmlns="http://www.w3.org/2000/svg" version="1.1" width="1024px" height="1024px" style="shape-rendering:geometricPrecision; text-rendering:geometricPrecision; image-rendering:optimizeQuality; fill-rule:evenodd; clip-rule:evenodd" xmlns:xlink="http://www.w3.org/1999/xlink">
<g><path style="opacity:1" fill="#2781d2" d="M -0.5,-0.5 C 340.833,-0.5 682.167,-0.5 1023.5,-0.5C 1023.5,340.833 1023.5,682.167 1023.5,1023.5C 682.167,1023.5 340.833,1023.5 -0.5,1023.5C -0.5,682.167 -0.5,340.833 -0.5,-0.5 Z"/></g>
<g><path style="opacity:1" fill="#4c84c5" d="M 747.5,326.5 C 747.5,326.833 747.5,327.167 747.5,327.5C 744.994,326.25 742.327,325.584 739.5,325.5C 739.03,324.307 738.03,323.64 736.5,323.5C 733.532,322.838 730.532,322.505 727.5,322.5C 691.337,321.502 655.004,321.168 618.5,321.5C 618.5,321.167 618.5,320.833 618.5,320.5C 653.998,319.336 689.664,319.169 725.5,320C 730.229,320.273 734.896,320.939 739.5,322C 742.821,322.498 745.487,323.998 747.5,326.5 Z"/></g>
<g><path style="opacity:1" fill="#6893c6" d="M 305.5,321.5 C 280.167,321.5 254.833,321.5 229.5,321.5C 254.372,320.824 279.372,320.158 304.5,319.5C 305.298,319.957 305.631,320.624 305.5,321.5 Z"/></g>
<g><path style="opacity:1" fill="#6591c5" d="M 389.5,321.5 C 409.993,320.503 430.66,320.169 451.5,320.5C 451.666,326.509 451.499,332.509 451,338.5C 450.583,339.756 449.75,340.423 448.5,340.5C 449.602,334.552 450.269,328.552 450.5,322.5C 430.34,321.503 410.007,321.17 389.5,321.5 Z"/></g>
<g><path style="opacity:1" fill="#fdfefe" d="M 389.5,481.5 C 389.5,428.5 389.5,375.5 389.5,322.5C 409.833,322.5 430.167,322.5 450.5,322.5C 450.269,328.552 449.602,334.552 448.5,340.5C 448.5,340.833 448.5,341.167 448.5,341.5C 446.74,351.648 445.407,361.982 444.5,372.5C 443.343,375.273 442.676,378.273 442.5,381.5C 440.75,385.183 440.083,389.183 440.5,393.5C 440.5,394.167 440.5,394.833 440.5,395.5C 439.196,400.984 438.196,406.651 437.5,412.5C 435.933,411.319 435.099,409.653 435,407.5C 434.853,410.571 434.02,413.404 432.5,416C 435.246,421.915 434.912,427.748 431.5,433.5C 431.931,434.293 432.265,435.127 432.5,436C 431.358,442.111 430.691,448.278 430.5,454.5C 430.002,459.152 429.669,463.819 429.5,468.5C 429.5,468.833 429.5,469.167 429.5,469.5C 427.882,472.171 427.215,475.171 427.5,478.5C 427.5,479.167 427.5,479.833 427.5,480.5C 426.475,483.974 425.808,487.64 425.5,491.5C 424.873,496.141 424.54,500.807 424.5,505.5C 422.882,509.575 421.882,513.908 421.5,518.5C 420.197,521.355 420.197,524.355 421.5,527.5C 423.235,528.057 424.902,528.39 426.5,528.5C 427.711,529.274 427.711,530.107 426.5,531C 428.101,531.273 429.601,531.773 431,532.5C 433.456,530.679 436.289,530.012 439.5,530.5C 441.833,530.5 444.167,530.5 446.5,530.5C 448.72,533.477 451.72,535.31 455.5,536C 459.5,536.333 463.5,536.667 467.5,537C 468.416,537.374 469.25,537.874 470,538.5C 476.528,538.914 483.028,538.914 489.5,538.5C 490.434,537.432 490.768,536.099 490.5,534.5C 491.979,532.28 493.312,529.946 494.5,527.5C 495.906,527.027 496.573,526.027 496.5,524.5C 496.5,524.167 496.5,523.833 496.5,523.5C 499.5,522.5 501.5,520.5 502.5,517.5C 504.223,515.782 506.223,514.449 508.5,513.5C 516.598,511.936 524.598,512.269 532.5,514.5C 534.754,515.415 536.754,516.748 538.5,518.5C 539.419,521.089 541.086,523.089 543.5,524.5C 546.016,527.534 548.016,530.868 549.5,534.5C 549.5,535.167 549.5,535.833 549.5,536.5C 549.66,538.153 550.326,539.486 551.5,540.5C 551.366,542.292 551.699,543.958 552.5,545.5C 552.905,557.678 552.239,569.678 550.5,581.5C 550.24,586.22 548.906,590.554 546.5,594.5C 543.815,597.19 541.482,600.19 539.5,603.5C 539.167,603.5 538.833,603.5 538.5,603.5C 535.783,606.22 532.783,608.553 529.5,610.5C 528.391,610.557 527.391,610.89 526.5,611.5C 522.5,611.5 518.5,611.5 514.5,611.5C 512.5,611.167 510.5,610.833 508.5,610.5C 502.823,605.822 497.823,600.489 493.5,594.5C 493.5,594.167 493.5,593.833 493.5,593.5C 492.147,590.795 490.814,588.128 489.5,585.5C 488.903,584.861 488.07,584.528 487,584.5C 483.628,584.609 480.794,585.609 478.5,587.5C 476.5,587.5 474.5,587.5 472.5,587.5C 466.635,588.465 460.969,589.798 455.5,591.5C 451.098,591.308 447.098,592.308 443.5,594.5C 439.159,594.658 435.159,595.658 431.5,597.5C 429.265,597.205 427.265,597.539 425.5,598.5C 424.167,598.5 422.833,598.5 421.5,598.5C 421.198,601.059 421.532,603.393 422.5,605.5C 423.008,609.736 424.008,613.736 425.5,617.5C 425.993,619.806 426.326,622.139 426.5,624.5C 426.796,626.403 427.463,628.07 428.5,629.5C 428.755,631.967 429.755,633.967 431.5,635.5C 431.5,636.5 431.5,637.5 431.5,638.5C 431.755,640.967 432.755,642.967 434.5,644.5C 434.285,646.179 434.952,647.179 436.5,647.5C 437.038,649.117 437.371,650.784 437.5,652.5C 439.082,656.79 440.749,661.123 442.5,665.5C 444.759,667.338 447.092,669.004 449.5,670.5C 451.833,672.167 453.833,674.167 455.5,676.5C 456.911,678.914 458.911,680.581 461.5,681.5C 465.424,685.802 470.091,689.136 475.5,691.5C 475.804,692.15 476.137,692.817 476.5,693.5C 447.508,694.5 418.508,694.833 389.5,694.5C 389.5,648.5 389.5,602.5 389.5,556.5C 361.662,556.169 333.995,556.502 306.5,557.5C 305.501,602.997 305.168,648.664 305.5,694.5C 280.167,694.5 254.833,694.5 229.5,694.5C 229.5,570.5 229.5,446.5 229.5,322.5C 254.833,322.5 280.167,322.5 305.5,322.5C 305.333,375.501 305.5,428.501 306,481.5C 333.931,482.832 361.764,482.832 389.5,481.5 Z"/></g>
<g><path style="opacity:1" fill="#fdfefd" d="M 727.5,322.5 C 731.159,324.342 735.159,325.342 739.5,325.5C 742.327,325.584 744.994,326.25 747.5,327.5C 752.36,330.682 757.36,333.682 762.5,336.5C 762.833,336.5 763.167,336.5 763.5,336.5C 766.195,339.526 768.862,342.526 771.5,345.5C 772.419,348.089 774.086,350.089 776.5,351.5C 776.557,352.609 776.89,353.609 777.5,354.5C 777.5,356.5 777.5,358.5 777.5,360.5C 778.822,360.33 779.989,360.663 781,361.5C 782.024,364.383 783.191,367.217 784.5,370C 782.47,374.41 783.804,377.243 788.5,378.5C 789.687,380.072 790.687,381.739 791.5,383.5C 791.674,385.861 792.007,388.194 792.5,390.5C 792.989,399.425 794.322,408.092 796.5,416.5C 796.714,434.183 796.381,451.85 795.5,469.5C 794.34,473.681 793.34,478.015 792.5,482.5C 791.699,484.042 791.366,485.708 791.5,487.5C 790.076,489.515 789.41,491.848 789.5,494.5C 787.935,496.509 786.935,498.843 786.5,501.5C 786.5,501.833 786.5,502.167 786.5,502.5C 783.504,508.492 780.504,514.492 777.5,520.5C 774.512,524.462 771.512,528.462 768.5,532.5C 761.641,538.087 754.641,543.421 747.5,548.5C 746.508,548.328 745.842,548.662 745.5,549.5C 741.213,550.232 737.213,551.565 733.5,553.5C 729.316,553.851 725.316,554.518 721.5,555.5C 719.735,556.461 717.735,556.795 715.5,556.5C 696.326,556.17 677.326,556.503 658.5,557.5C 657.501,602.664 657.168,647.997 657.5,693.5C 628.662,693.831 599.995,693.498 571.5,692.5C 571.5,692.167 571.5,691.833 571.5,691.5C 571.833,691.5 572.167,691.5 572.5,691.5C 573.873,691.657 575.207,691.49 576.5,691C 578.692,689.933 580.358,688.433 581.5,686.5C 586.263,685.748 589.596,683.082 591.5,678.5C 593.03,677.933 594.53,677.267 596,676.5C 596.989,674.03 598.155,671.697 599.5,669.5C 601.089,667.085 603.256,665.085 606,663.5C 607.03,658.438 609.363,654.105 613,650.5C 614.026,647.198 614.86,643.865 615.5,640.5C 615.5,639.833 615.5,639.167 615.5,638.5C 616.167,637.5 616.833,636.5 617.5,635.5C 621.302,634.502 622.302,632.168 620.5,628.5C 621.785,625.979 622.452,623.313 622.5,620.5C 622.5,619.833 622.5,619.167 622.5,618.5C 623.924,616.485 624.59,614.152 624.5,611.5C 627.332,600.006 628.998,588.339 629.5,576.5C 629.828,564.322 629.495,552.322 628.5,540.5C 628.387,535.482 628.053,530.482 627.5,525.5C 628.054,521.256 627.054,517.59 624.5,514.5C 624.88,512.302 624.213,510.635 622.5,509.5C 622.768,507.901 622.434,506.568 621.5,505.5C 620.012,500.533 618.012,495.866 615.5,491.5C 613.926,486.68 611.593,482.347 608.5,478.5C 605.917,475.003 603.584,471.336 601.5,467.5C 599.062,461.633 595.395,456.633 590.5,452.5C 589.522,452.977 588.689,453.643 588,454.5C 587.74,452.382 586.74,450.716 585,449.5C 583.374,449.854 581.541,449.854 579.5,449.5C 577.181,449.008 575.181,448.008 573.5,446.5C 571.629,445.203 569.629,444.203 567.5,443.5C 565.611,442.678 563.611,441.845 561.5,441C 550.992,440.175 540.658,440.341 530.5,441.5C 526.84,441.159 523.507,441.825 520.5,443.5C 515.913,444.021 511.913,445.688 508.5,448.5C 504.987,447.876 502.153,448.876 500,451.5C 499.365,449.365 499.699,447.365 501,445.5C 502.281,445.619 503.448,445.119 504.5,444C 503.128,442.758 502.128,441.258 501.5,439.5C 503.973,426.383 505.64,413.05 506.5,399.5C 544.004,399.832 581.337,399.498 618.5,398.5C 619.498,373.339 619.831,348.005 619.5,322.5C 655.5,322.5 691.5,322.5 727.5,322.5 Z"/></g>
<g><path style="opacity:1" fill="#b1c8e3" d="M 727.5,322.5 C 730.532,322.505 733.532,322.838 736.5,323.5C 738.03,323.64 739.03,324.307 739.5,325.5C 735.159,325.342 731.159,324.342 727.5,322.5 Z"/></g>
<g><path style="opacity:1" fill="#6094c1" d="M 747.5,326.5 C 749.655,326.372 751.655,326.872 753.5,328C 757.329,329.997 760.329,332.83 762.5,336.5C 757.36,333.682 752.36,330.682 747.5,327.5C 747.5,327.167 747.5,326.833 747.5,326.5 Z"/></g>
<g><path style="opacity:1" fill="#96afd3" d="M 389.5,321.5 C 410.007,321.17 430.34,321.503 450.5,322.5C 430.167,322.5 409.833,322.5 389.5,322.5C 389.5,375.5 389.5,428.5 389.5,481.5C 361.995,481.831 334.662,481.498 307.5,480.5C 331.167,480.5 354.833,480.5 378.5,480.5C 379.833,480.5 381.167,480.5 382.5,480.5C 384.5,480.5 386.5,480.5 388.5,480.5C 388.5,428.5 388.5,376.5 388.5,324.5C 388.263,323.209 388.596,322.209 389.5,321.5 Z"/></g>
<g><path style="opacity:1" fill="#6f96c5" d="M 618.5,321.5 C 618.5,347.167 618.5,372.833 618.5,398.5C 617.5,398.5 616.5,398.5 615.5,398.5C 615.783,397.711 616.283,397.044 617,396.5C 617.168,371.33 617.668,346.33 618.5,321.5 Z"/></g>
<g><path style="opacity:1" fill="#3a7ec6" d="M 228.5,323.5 C 228.167,447.334 228.5,571.001 229.5,694.5C 254.661,695.498 279.995,695.831 305.5,695.5C 279.672,696.498 253.672,696.831 227.5,696.5C 227.667,573.5 227.5,450.5 227,327.5C 224.554,324.822 224.054,321.822 225.5,318.5C 226.325,320.36 227.325,322.026 228.5,323.5 Z"/></g>
<g><path style="opacity:1" fill="#a3bada" d="M 229.5,321.5 C 254.833,321.5 280.167,321.5 305.5,321.5C 306.167,321.5 306.5,321.833 306.5,322.5C 306.168,375.336 306.501,428.003 307.5,480.5C 334.662,481.498 361.995,481.831 389.5,481.5C 361.764,482.832 333.931,482.832 306,481.5C 305.5,428.501 305.333,375.501 305.5,322.5C 280.167,322.5 254.833,322.5 229.5,322.5C 229.5,446.5 229.5,570.5 229.5,694.5C 228.5,571.001 228.167,447.334 228.5,323.5C 228.328,322.508 228.662,321.842 229.5,321.5 Z"/></g>
<g><path style="opacity:1" fill="#437cc5" d="M 388.5,324.5 C 388.5,376.5 388.5,428.5 388.5,480.5C 386.5,480.5 384.5,480.5 382.5,480.5C 383.878,479.766 385.378,479.099 387,478.5C 387.167,426.998 387.667,375.665 388.5,324.5 Z"/></g>
<g><path style="opacity:1" fill="#ced8ed" d="M 618.5,321.5 C 655.004,321.168 691.337,321.502 727.5,322.5C 691.5,322.5 655.5,322.5 619.5,322.5C 619.831,348.005 619.498,373.339 618.5,398.5C 618.5,372.833 618.5,347.167 618.5,321.5 Z"/></g>
<g><path style="opacity:1" fill="#6393c0" d="M 763.5,336.5 C 767.478,338.478 770.478,341.478 772.5,345.5C 772.167,345.5 771.833,345.5 771.5,345.5C 768.862,342.526 766.195,339.526 763.5,336.5 Z"/></g>
<g><path style="opacity:1" fill="#4e81bd" d="M 306.5,322.5 C 307.499,374.664 307.832,426.997 307.5,479.5C 331.339,479.169 355.006,479.502 378.5,480.5C 354.833,480.5 331.167,480.5 307.5,480.5C 306.501,428.003 306.168,375.336 306.5,322.5 Z"/></g>
<g><path style="opacity:1" fill="#a4c5e3" d="M 771.5,345.5 C 771.833,345.5 772.167,345.5 772.5,345.5C 774.252,347.246 775.585,349.246 776.5,351.5C 774.086,350.089 772.419,348.089 771.5,345.5 Z"/></g>
<g><path style="opacity:1" fill="#90b5d8" d="M 776.5,351.5 C 777.906,351.973 778.573,352.973 778.5,354.5C 778.167,354.5 777.833,354.5 777.5,354.5C 776.89,353.609 776.557,352.609 776.5,351.5 Z"/></g>
<g><path style="opacity:1" fill="#4e85c4" d="M 448.5,341.5 C 448.018,349.676 447.351,357.843 446.5,366C 446.467,368.61 445.8,370.777 444.5,372.5C 445.407,361.982 446.74,351.648 448.5,341.5 Z"/></g>
<g><path style="opacity:1" fill="#deedf7" d="M 777.5,354.5 C 777.833,354.5 778.167,354.5 778.5,354.5C 782.871,360.575 786.204,367.242 788.5,374.5C 788.5,375.833 788.5,377.167 788.5,378.5C 783.804,377.243 782.47,374.41 784.5,370C 783.191,367.217 782.024,364.383 781,361.5C 779.989,360.663 778.822,360.33 777.5,360.5C 777.5,358.5 777.5,356.5 777.5,354.5 Z"/></g>
<g><path style="opacity:1" fill="#5e8ec7" d="M 788.5,374.5 C 789.458,374.953 790.292,375.619 791,376.5C 791.497,378.81 791.663,381.143 791.5,383.5C 790.687,381.739 789.687,380.072 788.5,378.5C 788.5,377.167 788.5,375.833 788.5,374.5 Z"/></g>
<g><path style="opacity:1" fill="#a6c9e5" d="M 442.5,381.5 C 442.149,385.684 441.482,389.684 440.5,393.5C 440.083,389.183 440.75,385.183 442.5,381.5 Z"/></g>
<g><path style="opacity:1" fill="#4f86be" d="M 791.5,383.5 C 795.083,390.969 796.75,398.969 796.5,407.5C 795.167,401.833 793.833,396.167 792.5,390.5C 792.007,388.194 791.674,385.861 791.5,383.5 Z"/></g>
<g><path style="opacity:1" fill="#497ec6" d="M 618.5,320.5 C 618.5,320.833 618.5,321.167 618.5,321.5C 617.668,346.33 617.168,371.33 617,396.5C 616.283,397.044 615.783,397.711 615.5,398.5C 579.167,398.5 542.833,398.5 506.5,398.5C 505.402,397.603 505.402,396.77 506.5,396C 543.165,395.5 579.832,395.333 616.5,395.5C 616.819,371.301 616.485,347.134 615.5,323C 615.748,321.251 616.748,320.418 618.5,320.5 Z"/></g>
<g><path style="opacity:1" fill="#cce3f4" d="M 792.5,390.5 C 793.833,396.167 795.167,401.833 796.5,407.5C 796.5,410.5 796.5,413.5 796.5,416.5C 794.322,408.092 792.989,399.425 792.5,390.5 Z"/></g>
<g><path style="opacity:1" fill="#9fbee1" d="M 658.5,397.5 C 669.321,396.505 680.321,396.172 691.5,396.5C 692.833,397.167 694.167,397.833 695.5,398.5C 692.5,398.5 689.5,398.5 686.5,398.5C 677.348,397.506 668.015,397.173 658.5,397.5 Z"/></g>
<g><path style="opacity:1" fill="#2880d8" d="M 448.5,372.5 C 449.164,375.146 449.498,377.979 449.5,381C 448.463,392.835 447.463,404.668 446.5,416.5C 445.5,416.5 444.5,416.5 443.5,416.5C 443.171,410.463 443.504,404.463 444.5,398.5C 445.843,389.731 447.177,381.064 448.5,372.5 Z"/></g>
<g><path style="opacity:1" fill="#a4c6e0" d="M 697.5,398.5 C 700.831,398.018 703.497,399.018 705.5,401.5C 702.603,400.871 699.936,399.871 697.5,398.5 Z"/></g>
<g><path style="opacity:1" fill="#3982c6" d="M 686.5,398.5 C 689.5,398.5 692.5,398.5 695.5,398.5C 696.167,398.5 696.833,398.5 697.5,398.5C 699.936,399.871 702.603,400.871 705.5,401.5C 712.11,404.457 716.11,409.457 717.5,416.5C 716.265,416.279 715.265,415.612 714.5,414.5C 713.808,415.025 713.308,415.692 713,416.5C 712.503,413.854 712.336,411.187 712.5,408.5C 709.63,407.97 707.63,406.303 706.5,403.5C 703.216,402.343 699.882,402.176 696.5,403C 696.957,403.414 697.291,403.914 697.5,404.5C 693.919,406.775 690.253,406.775 686.5,404.5C 688.078,403.702 689.744,403.202 691.5,403C 691.833,402 692.167,401 692.5,400C 690.292,399.809 688.292,399.309 686.5,398.5 Z"/></g>
<g><path style="opacity:1" fill="#6695c1" d="M 505.5,399.5 C 505.149,403.684 504.482,407.684 503.5,411.5C 502.911,407.029 503.577,403.029 505.5,399.5 Z"/></g>
<g><path style="opacity:1" fill="#2881d2" d="M 686.5,398.5 C 688.292,399.309 690.292,399.809 692.5,400C 692.167,401 691.833,402 691.5,403C 689.744,403.202 688.078,403.702 686.5,404.5C 690.253,406.775 693.919,406.775 697.5,404.5C 697.291,403.914 696.957,403.414 696.5,403C 699.882,402.176 703.216,402.343 706.5,403.5C 707.63,406.303 709.63,407.97 712.5,408.5C 712.336,411.187 712.503,413.854 713,416.5C 713.308,415.692 713.808,415.025 714.5,414.5C 715.265,415.612 716.265,416.279 717.5,416.5C 718.61,420.406 719.443,424.406 720,428.5C 720.383,429.056 720.883,429.389 721.5,429.5C 723.243,440.442 722.243,451.108 718.5,461.5C 715.81,464.873 713.477,468.54 711.5,472.5C 710.021,473.759 708.354,474.759 706.5,475.5C 705.391,475.557 704.391,475.89 703.5,476.5C 694.653,478.307 685.486,479.307 676,479.5C 670.422,479.478 664.922,479.144 659.5,478.5C 659.5,451.833 659.5,425.167 659.5,398.5C 668.5,398.5 677.5,398.5 686.5,398.5 Z"/></g>
<g><path style="opacity:1" fill="#dff1f8" d="M 691.5,396.5 C 697.033,396.145 702.367,396.978 707.5,399C 710.368,403.201 713.868,406.701 718,409.5C 718.696,412.478 719.196,415.478 719.5,418.5C 718.833,417.833 718.167,417.167 717.5,416.5C 716.11,409.457 712.11,404.457 705.5,401.5C 703.497,399.018 700.831,398.018 697.5,398.5C 696.833,398.5 696.167,398.5 695.5,398.5C 694.167,397.833 692.833,397.167 691.5,396.5 Z"/></g>
<g><path style="opacity:1" fill="#5a8cc2" d="M 658.5,397.5 C 668.015,397.173 677.348,397.506 686.5,398.5C 677.5,398.5 668.5,398.5 659.5,398.5C 659.5,425.167 659.5,451.833 659.5,478.5C 659.167,478.5 658.833,478.5 658.5,478.5C 658.5,451.5 658.5,424.5 658.5,397.5 Z"/></g>
<g><path style="opacity:1" fill="#e6f3f8" d="M 437.5,412.5 C 436.627,416.768 436.294,421.102 436.5,425.5C 434.956,430.606 433.956,435.939 433.5,441.5C 432.319,445.743 431.652,450.076 431.5,454.5C 431.167,454.5 430.833,454.5 430.5,454.5C 430.691,448.278 431.358,442.111 432.5,436C 432.265,435.127 431.931,434.293 431.5,433.5C 434.912,427.748 435.246,421.915 432.5,416C 434.02,413.404 434.853,410.571 435,407.5C 435.099,409.653 435.933,411.319 437.5,412.5 Z"/></g>
<g><path style="opacity:1" fill="#5b89c1" d="M 440.5,395.5 C 440.444,405.808 439.111,415.808 436.5,425.5C 436.294,421.102 436.627,416.768 437.5,412.5C 438.196,406.651 439.196,400.984 440.5,395.5 Z"/></g>
<g><path style="opacity:1" fill="#518bbe" d="M 717.5,416.5 C 718.167,417.167 718.833,417.833 719.5,418.5C 720.422,422.112 721.089,425.779 721.5,429.5C 720.883,429.389 720.383,429.056 720,428.5C 719.443,424.406 718.61,420.406 717.5,416.5 Z"/></g>
<g><path style="opacity:1" fill="#4e84bd" d="M 436.5,425.5 C 436.946,431.245 435.946,436.579 433.5,441.5C 433.956,435.939 434.956,430.606 436.5,425.5 Z"/></g>
<g><path style="opacity:1" fill="#6695cb" d="M 796.5,416.5 C 797.268,417.263 797.768,418.263 798,419.5C 798.667,433.5 798.667,447.5 798,461.5C 798.053,464.675 797.22,467.342 795.5,469.5C 796.381,451.85 796.714,434.183 796.5,416.5 Z"/></g>
<g><path style="opacity:1" fill="#8fb4d7" d="M 500.5,434.5 C 500.324,437.727 499.657,440.727 498.5,443.5C 498.215,440.171 498.882,437.171 500.5,434.5 Z"/></g>
<g><path style="opacity:1" fill="#c7dcf2" d="M 530.5,441.5 C 540.658,440.341 550.992,440.175 561.5,441C 563.611,441.845 565.611,442.678 567.5,443.5C 566.5,443.5 565.5,443.5 564.5,443.5C 562.5,443.5 560.5,443.5 558.5,443.5C 558.5,443.167 558.5,442.833 558.5,442.5C 549.348,441.506 540.015,441.173 530.5,441.5 Z"/></g>
<g><path style="opacity:1" fill="#6d99cb" d="M 530.5,441.5 C 540.015,441.173 549.348,441.506 558.5,442.5C 547.14,442.283 535.807,442.616 524.5,443.5C 522.308,445.59 519.641,446.59 516.5,446.5C 517.833,445.5 519.167,444.5 520.5,443.5C 523.507,441.825 526.84,441.159 530.5,441.5 Z"/></g>
<g><path style="opacity:1" fill="#ddebf6" d="M 506.5,398.5 C 542.833,398.5 579.167,398.5 615.5,398.5C 616.5,398.5 617.5,398.5 618.5,398.5C 581.337,399.498 544.004,399.832 506.5,399.5C 505.64,413.05 503.973,426.383 501.5,439.5C 502.128,441.258 503.128,442.758 504.5,444C 503.448,445.119 502.281,445.619 501,445.5C 499.699,447.365 499.365,449.365 500,451.5C 502.153,448.876 504.987,447.876 508.5,448.5C 508.5,448.833 508.5,449.167 508.5,449.5C 504.91,450.628 501.577,452.295 498.5,454.5C 497.54,450.861 497.54,447.195 498.5,443.5C 499.657,440.727 500.324,437.727 500.5,434.5C 501.167,428.5 501.833,422.5 502.5,416.5C 503.451,415.081 503.784,413.415 503.5,411.5C 504.482,407.684 505.149,403.684 505.5,399.5C 505.5,398.833 505.833,398.5 506.5,398.5 Z"/></g>
<g><path style="opacity:1" fill="#8db2d9" d="M 564.5,443.5 C 565.5,443.5 566.5,443.5 567.5,443.5C 569.629,444.203 571.629,445.203 573.5,446.5C 569.971,446.443 566.971,445.443 564.5,443.5 Z"/></g>
<g><path style="opacity:1" fill="#3682c7" d="M 502.5,416.5 C 501.833,422.5 501.167,428.5 500.5,434.5C 498.882,437.171 498.215,440.171 498.5,443.5C 497.54,447.195 497.54,450.861 498.5,454.5C 501.577,452.295 504.91,450.628 508.5,449.5C 510.979,448.026 513.646,447.026 516.5,446.5C 519.641,446.59 522.308,445.59 524.5,443.5C 524.719,444.675 524.386,445.675 523.5,446.5C 521.051,446.98 518.885,447.98 517,449.5C 516.08,451.632 514.913,453.632 513.5,455.5C 512.491,452.013 510.158,450.68 506.5,451.5C 506.328,453.492 506.995,455.158 508.5,456.5C 507.68,458.111 506.346,458.778 504.5,458.5C 504.5,457.5 504.5,456.5 504.5,455.5C 501.552,455.777 498.719,455.444 496,454.5C 494.599,456.192 492.766,456.859 490.5,456.5C 490.34,454.801 490.506,453.134 491,451.5C 493.046,449.624 494.879,447.624 496.5,445.5C 497.55,435.501 499.55,425.834 502.5,416.5 Z"/></g>
<g><path style="opacity:1" fill="#a4c5e0" d="M 520.5,443.5 C 519.167,444.5 517.833,445.5 516.5,446.5C 513.646,447.026 510.979,448.026 508.5,449.5C 508.5,449.167 508.5,448.833 508.5,448.5C 511.913,445.688 515.913,444.021 520.5,443.5 Z"/></g>
<g><path style="opacity:1" fill="#3b81c9" d="M 558.5,443.5 C 560.5,443.5 562.5,443.5 564.5,443.5C 566.971,445.443 569.971,446.443 573.5,446.5C 575.181,448.008 577.181,449.008 579.5,449.5C 586.366,453.921 592.366,459.254 597.5,465.5C 595.549,465.227 594.049,465.893 593,467.5C 592.319,465.105 591.485,462.772 590.5,460.5C 587.446,459.528 585.113,457.695 583.5,455C 579.011,453.235 574.345,452.235 569.5,452C 569.034,450.701 569.034,449.201 569.5,447.5C 566.482,447.665 563.482,447.498 560.5,447C 559.027,446.29 558.36,445.124 558.5,443.5 Z"/></g>
<g><path style="opacity:1" fill="#e0eef6" d="M 579.5,449.5 C 581.541,449.854 583.374,449.854 585,449.5C 586.74,450.716 587.74,452.382 588,454.5C 588.689,453.643 589.522,452.977 590.5,452.5C 595.395,456.633 599.062,461.633 601.5,467.5C 600.833,467.167 600.167,466.833 599.5,466.5C 598.833,466.167 598.167,465.833 597.5,465.5C 592.366,459.254 586.366,453.921 579.5,449.5 Z"/></g>
<g><path style="opacity:1" fill="#739fce" d="M 430.5,454.5 C 430.833,454.5 431.167,454.5 431.5,454.5C 431.638,459.414 430.972,464.081 429.5,468.5C 429.669,463.819 430.002,459.152 430.5,454.5 Z"/></g>
<g><path style="opacity:1" fill="#9ebfdf" d="M 718.5,461.5 C 717.374,465.954 715.041,469.621 711.5,472.5C 713.477,468.54 715.81,464.873 718.5,461.5 Z"/></g>
<g><path style="opacity:1" fill="#6798c6" d="M 599.5,466.5 C 600.167,466.833 600.833,467.167 601.5,467.5C 603.584,471.336 605.917,475.003 608.5,478.5C 605.983,477.107 604.316,475.107 603.5,472.5C 602.5,472.5 601.5,472.5 600.5,472.5C 600.483,470.435 600.15,468.435 599.5,466.5 Z"/></g>
<g><path style="opacity:1" fill="#9cbae1" d="M 429.5,469.5 C 429.324,472.727 428.657,475.727 427.5,478.5C 427.215,475.171 427.882,472.171 429.5,469.5 Z"/></g>
<g><path style="opacity:1" fill="#5f94cb" d="M 795.5,469.5 C 796.035,474.312 795.035,478.645 792.5,482.5C 793.34,478.015 794.34,473.681 795.5,469.5 Z"/></g>
<g><path style="opacity:1" fill="#adcde8" d="M 706.5,475.5 C 705.656,477.759 703.989,478.759 701.5,478.5C 702.167,477.833 702.833,477.167 703.5,476.5C 704.391,475.89 705.391,475.557 706.5,475.5 Z"/></g>
<g><path style="opacity:1" fill="#4283c3" d="M 703.5,476.5 C 702.833,477.167 702.167,477.833 701.5,478.5C 698.848,478.41 696.515,479.076 694.5,480.5C 682.452,481.145 670.785,480.478 659.5,478.5C 664.922,479.144 670.422,479.478 676,479.5C 685.486,479.307 694.653,478.307 703.5,476.5 Z"/></g>
<g><path style="opacity:1" fill="#aac3de" d="M 701.5,478.5 C 699.485,479.924 697.152,480.59 694.5,480.5C 696.515,479.076 698.848,478.41 701.5,478.5 Z"/></g>
<g><path style="opacity:1" fill="#79a5cf" d="M 658.5,478.5 C 658.833,478.5 659.167,478.5 659.5,478.5C 670.785,480.478 682.452,481.145 694.5,480.5C 682.678,481.495 670.678,481.828 658.5,481.5C 658.5,480.5 658.5,479.5 658.5,478.5 Z"/></g>
<g><path style="opacity:1" fill="#77a3ce" d="M 427.5,480.5 C 427.665,483.518 427.498,486.518 427,489.5C 426.722,490.416 426.222,491.082 425.5,491.5C 425.808,487.64 426.475,483.974 427.5,480.5 Z"/></g>
<g><path style="opacity:1" fill="#508bc5" d="M 608.5,478.5 C 611.593,482.347 613.926,486.68 615.5,491.5C 614.25,491.423 613.417,490.756 613,489.5C 612.667,490.5 612.333,491.5 612,492.5C 611.11,487.734 609.943,483.067 608.5,478.5 Z"/></g>
<g><path style="opacity:1" fill="#8bb4db" d="M 791.5,487.5 C 791.59,490.152 790.924,492.485 789.5,494.5C 789.41,491.848 790.076,489.515 791.5,487.5 Z"/></g>
<g><path style="opacity:1" fill="#8dafd0" d="M 789.5,494.5 C 789.834,497.491 788.834,499.824 786.5,501.5C 786.935,498.843 787.935,496.509 789.5,494.5 Z"/></g>
<g><path style="opacity:1" fill="#739dcb" d="M 615.5,491.5 C 618.012,495.866 620.012,500.533 621.5,505.5C 617.941,501.694 615.941,497.027 615.5,491.5 Z"/></g>
<g><path style="opacity:1" fill="#3082cb" d="M 526.5,508.5 C 522.029,507.911 518.029,508.577 514.5,510.5C 511.923,510.455 509.923,511.455 508.5,513.5C 506.223,514.449 504.223,515.782 502.5,517.5C 500.5,519.167 498.5,520.833 496.5,522.5C 496.5,519.833 496.5,517.167 496.5,514.5C 497.822,514.67 498.989,514.337 500,513.5C 500.372,509.682 501.206,506.015 502.5,502.5C 504.5,502.5 506.5,502.5 508.5,502.5C 508.395,497.846 509.729,497.346 512.5,501C 510.5,502.667 508.5,504.333 506.5,506C 507.973,506.71 508.64,507.876 508.5,509.5C 514.511,507.424 520.511,507.09 526.5,508.5 Z"/></g>
<g><path style="opacity:1" fill="#4b83c1" d="M 526.5,508.5 C 529.049,509.509 531.715,510.342 534.5,511C 535.667,514.167 537.833,516.333 541,517.5C 541.483,518.448 541.649,519.448 541.5,520.5C 540.5,519.833 539.5,519.167 538.5,518.5C 536.754,516.748 534.754,515.415 532.5,514.5C 531.264,512.172 529.264,511.006 526.5,511C 522.514,510.501 518.514,510.334 514.5,510.5C 518.029,508.577 522.029,507.911 526.5,508.5 Z"/></g>
<g><path style="opacity:1" fill="#c9dff0" d="M 514.5,510.5 C 518.514,510.334 522.514,510.501 526.5,511C 529.264,511.006 531.264,512.172 532.5,514.5C 524.598,512.269 516.598,511.936 508.5,513.5C 509.923,511.455 511.923,510.455 514.5,510.5 Z"/></g>
<g><path style="opacity:1" fill="#abcae6" d="M 622.5,509.5 C 624.213,510.635 624.88,512.302 624.5,514.5C 623.463,513.07 622.796,511.403 622.5,509.5 Z"/></g>
<g><path style="opacity:1" fill="#5384c1" d="M 424.5,505.5 C 424.299,511.193 424.132,516.86 424,522.5C 426.953,523.324 429.453,524.657 431.5,526.5C 428.14,526.384 424.807,526.051 421.5,525.5C 421.5,523.167 421.5,520.833 421.5,518.5C 421.882,513.908 422.882,509.575 424.5,505.5 Z"/></g>
<g><path style="opacity:1" fill="#588fca" d="M 786.5,502.5 C 785.043,507.756 783.876,513.089 783,518.5C 781.185,519.244 779.352,519.911 777.5,520.5C 780.504,514.492 783.504,508.492 786.5,502.5 Z"/></g>
<g><path style="opacity:1" fill="#abc5e5" d="M 502.5,517.5 C 501.5,520.5 499.5,522.5 496.5,523.5C 496.5,523.167 496.5,522.833 496.5,522.5C 498.5,520.833 500.5,519.167 502.5,517.5 Z"/></g>
<g><path style="opacity:1" fill="#4d86c0" d="M 541.5,520.5 C 542.496,520.414 543.329,520.748 544,521.5C 545.586,524.919 547.752,527.919 550.5,530.5C 549.754,531.736 549.421,533.07 549.5,534.5C 548.016,530.868 546.016,527.534 543.5,524.5C 543.267,522.938 542.6,521.605 541.5,520.5 Z"/></g>
<g><path style="opacity:1" fill="#a4c7e4" d="M 538.5,518.5 C 539.5,519.167 540.5,519.833 541.5,520.5C 542.6,521.605 543.267,522.938 543.5,524.5C 541.086,523.089 539.419,521.089 538.5,518.5 Z"/></g>
<g><path style="opacity:1" fill="#d2e6f3" d="M 624.5,514.5 C 627.054,517.59 628.054,521.256 627.5,525.5C 626.349,523.221 625.349,520.888 624.5,518.5C 624.5,517.167 624.5,515.833 624.5,514.5 Z"/></g>
<g><path style="opacity:1" fill="#4f87c1" d="M 496.5,523.5 C 496.5,523.833 496.5,524.167 496.5,524.5C 495.094,524.973 494.427,525.973 494.5,527.5C 493.312,529.946 491.979,532.28 490.5,534.5C 491.187,531.088 492.187,527.754 493.5,524.5C 494.325,523.614 495.325,523.281 496.5,523.5 Z"/></g>
<g><path style="opacity:1" fill="#90b1d9" d="M 777.5,520.5 C 775.951,525.603 772.951,529.603 768.5,532.5C 771.512,528.462 774.512,524.462 777.5,520.5 Z"/></g>
<g><path style="opacity:1" fill="#94b9dc" d="M 496.5,524.5 C 496.573,526.027 495.906,527.027 494.5,527.5C 494.427,525.973 495.094,524.973 496.5,524.5 Z"/></g>
<g><path style="opacity:1" fill="#e1f0f8" d="M 421.5,518.5 C 421.5,520.833 421.5,523.167 421.5,525.5C 424.807,526.051 428.14,526.384 431.5,526.5C 433.5,527.167 435.5,527.833 437.5,528.5C 438.167,529.167 438.833,529.833 439.5,530.5C 436.289,530.012 433.456,530.679 431,532.5C 429.601,531.773 428.101,531.273 426.5,531C 427.711,530.107 427.711,529.274 426.5,528.5C 424.902,528.39 423.235,528.057 421.5,527.5C 420.197,524.355 420.197,521.355 421.5,518.5 Z"/></g>
<g><path style="opacity:1" fill="#3581c5" d="M 469.5,533.5 C 465.548,532.728 461.548,532.395 457.5,532.5C 455.095,531.232 452.428,530.565 449.5,530.5C 448.5,530.5 447.5,530.5 446.5,530.5C 443.829,528.882 440.829,528.215 437.5,528.5C 435.5,527.833 433.5,527.167 431.5,526.5C 433.604,526.799 435.604,526.466 437.5,525.5C 435.5,524.5 433.5,523.5 431.5,522.5C 432.5,522.167 433.5,521.833 434.5,521.5C 437.377,522.767 440.377,523.767 443.5,524.5C 443.5,525.5 443.5,526.5 443.5,527.5C 446.91,527.543 450.243,527.043 453.5,526C 454.667,525.5 455.5,524.667 456,523.5C 456.494,525.134 456.66,526.801 456.5,528.5C 460.886,530.182 465.219,531.848 469.5,533.5 Z"/></g>
<g><path style="opacity:1" fill="#afcae7" d="M 437.5,528.5 C 440.829,528.215 443.829,528.882 446.5,530.5C 444.167,530.5 441.833,530.5 439.5,530.5C 438.833,529.833 438.167,529.167 437.5,528.5 Z"/></g>
<g><path style="opacity:1" fill="#80abd5" d="M 449.5,530.5 C 452.428,530.565 455.095,531.232 457.5,532.5C 454.505,532.706 451.838,532.04 449.5,530.5 Z"/></g>
<g><path style="opacity:1" fill="#77a0c9" d="M 457.5,532.5 C 461.548,532.395 465.548,532.728 469.5,533.5C 473.974,534.66 478.307,535.993 482.5,537.5C 479.813,537.664 477.146,537.497 474.5,537C 468.722,535.492 463.056,533.992 457.5,532.5 Z"/></g>
<g><path style="opacity:1" fill="#e4f1f9" d="M 446.5,530.5 C 447.5,530.5 448.5,530.5 449.5,530.5C 451.838,532.04 454.505,532.706 457.5,532.5C 463.056,533.992 468.722,535.492 474.5,537C 477.146,537.497 479.813,537.664 482.5,537.5C 484.764,538.219 487.097,538.552 489.5,538.5C 483.028,538.914 476.528,538.914 470,538.5C 469.25,537.874 468.416,537.374 467.5,537C 463.5,536.667 459.5,536.333 455.5,536C 451.72,535.31 448.72,533.477 446.5,530.5 Z"/></g>
<g><path style="opacity:1" fill="#4b88bf" d="M 624.5,518.5 C 625.349,520.888 626.349,523.221 627.5,525.5C 628.053,530.482 628.387,535.482 628.5,540.5C 626.782,533.493 625.448,526.159 624.5,518.5 Z"/></g>
<g><path style="opacity:1" fill="#8cb1d3" d="M 549.5,536.5 C 551.104,537.287 551.771,538.62 551.5,540.5C 550.326,539.486 549.66,538.153 549.5,536.5 Z"/></g>
<g><path style="opacity:1" fill="#91b6db" d="M 768.5,532.5 C 767.797,534.716 766.464,536.549 764.5,538C 760.949,540.268 757.616,542.768 754.5,545.5C 752.026,546.32 749.693,547.32 747.5,548.5C 754.641,543.421 761.641,538.087 768.5,532.5 Z"/></g>
<g><path style="opacity:1" fill="#6f97cc" d="M 549.5,534.5 C 550.15,534.804 550.817,535.137 551.5,535.5C 554.607,547.412 555.274,559.412 553.5,571.5C 553.826,562.651 553.493,553.984 552.5,545.5C 551.699,543.958 551.366,542.292 551.5,540.5C 551.771,538.62 551.104,537.287 549.5,536.5C 549.5,535.833 549.5,535.167 549.5,534.5 Z"/></g>
<g><path style="opacity:1" fill="#87afd4" d="M 745.5,549.5 C 742.004,552.048 738.004,553.381 733.5,553.5C 737.213,551.565 741.213,550.232 745.5,549.5 Z"/></g>
<g><path style="opacity:1" fill="#acc4e6" d="M 733.5,553.5 C 731.786,554.738 729.786,555.405 727.5,555.5C 725.5,555.5 723.5,555.5 721.5,555.5C 725.316,554.518 729.316,553.851 733.5,553.5 Z"/></g>
<g><path style="opacity:1" fill="#4a80bb" d="M 721.5,555.5 C 723.5,555.5 725.5,555.5 727.5,555.5C 726.4,556.558 725.066,557.392 723.5,558C 702.169,558.5 680.836,558.667 659.5,558.5C 678.167,557.833 696.833,557.167 715.5,556.5C 717.735,556.795 719.735,556.461 721.5,555.5 Z"/></g>
<g><path style="opacity:1" fill="#4f80bb" d="M 306.5,557.5 C 333.833,557.5 361.167,557.5 388.5,557.5C 388.5,560.833 388.5,564.167 388.5,567.5C 388.167,567.5 387.833,567.5 387.5,567.5C 387.5,564.5 387.5,561.5 387.5,558.5C 360.833,558.5 334.167,558.5 307.5,558.5C 307.832,604.003 307.499,649.336 306.5,694.5C 306.5,648.833 306.5,603.167 306.5,557.5 Z"/></g>
<g><path style="opacity:1" fill="#7498cf" d="M 715.5,556.5 C 696.833,557.167 678.167,557.833 659.5,558.5C 659.5,561.5 659.5,564.5 659.5,567.5C 659.5,609.833 659.5,652.167 659.5,694.5C 659.167,694.5 658.833,694.5 658.5,694.5C 658.5,648.833 658.5,603.167 658.5,557.5C 677.326,556.503 696.326,556.17 715.5,556.5 Z"/></g>
<g><path style="opacity:1" fill="#2585cd" d="M 661.5,691.5 C 660.501,650.337 660.168,609.003 660.5,567.5C 660.369,566.624 660.702,565.957 661.5,565.5C 665.445,566.268 669.445,566.768 673.5,567C 669.848,567.499 666.182,567.665 662.5,567.5C 662.832,609.003 662.499,650.337 661.5,691.5 Z"/></g>
<g><path style="opacity:1" fill="#94b0d5" d="M 306.5,557.5 C 333.995,556.502 361.662,556.169 389.5,556.5C 389.5,602.5 389.5,648.5 389.5,694.5C 389.167,694.5 388.833,694.5 388.5,694.5C 388.5,652.167 388.5,609.833 388.5,567.5C 388.5,564.167 388.5,560.833 388.5,557.5C 361.167,557.5 333.833,557.5 306.5,557.5 Z"/></g>
<g><path style="opacity:1" fill="#3678c8" d="M 659.5,567.5 C 659.833,567.5 660.167,567.5 660.5,567.5C 660.168,609.003 660.501,650.337 661.5,691.5C 662.914,693.598 662.248,694.598 659.5,694.5C 659.5,652.167 659.5,609.833 659.5,567.5 Z"/></g>
<g><path style="opacity:1" fill="#deebf5" d="M 552.5,545.5 C 553.493,553.984 553.826,562.651 553.5,571.5C 553.552,573.903 553.219,576.236 552.5,578.5C 551.833,579.5 551.167,580.5 550.5,581.5C 552.239,569.678 552.905,557.678 552.5,545.5 Z"/></g>
<g><path style="opacity:1" fill="#3f7bc3" d="M 387.5,567.5 C 387.833,567.5 388.167,567.5 388.5,567.5C 388.5,609.833 388.5,652.167 388.5,694.5C 417.815,696.492 447.481,697.159 477.5,696.5C 448.294,697.174 418.961,697.841 389.5,698.5C 388.914,698.291 388.414,697.957 388,697.5C 387.5,654.168 387.333,610.835 387.5,567.5 Z"/></g>
<g><path style="opacity:1" fill="#6590bf" d="M 489.5,585.5 C 485.952,586.702 482.285,587.369 478.5,587.5C 480.794,585.609 483.628,584.609 487,584.5C 488.07,584.528 488.903,584.861 489.5,585.5 Z"/></g>
<g><path style="opacity:1" fill="#80a9d4" d="M 472.5,587.5 C 467.265,590.261 461.599,591.594 455.5,591.5C 460.969,589.798 466.635,588.465 472.5,587.5 Z"/></g>
<g><path style="opacity:1" fill="#8aaed6" d="M 455.5,591.5 C 453.371,592.203 451.371,593.203 449.5,594.5C 447.5,594.5 445.5,594.5 443.5,594.5C 447.098,592.308 451.098,591.308 455.5,591.5 Z"/></g>
<g><path style="opacity:1" fill="#508cc8" d="M 489.5,585.5 C 490.814,588.128 492.147,590.795 493.5,593.5C 492.312,592.316 491.145,592.316 490,593.5C 489.503,590.854 489.336,588.187 489.5,585.5 Z"/></g>
<g><path style="opacity:1" fill="#6391bf" d="M 443.5,594.5 C 439.841,596.342 435.841,597.342 431.5,597.5C 435.159,595.658 439.159,594.658 443.5,594.5 Z"/></g>
<g><path style="opacity:1" fill="#85abcf" d="M 546.5,594.5 C 545.25,598.408 542.917,601.408 539.5,603.5C 541.482,600.19 543.815,597.19 546.5,594.5 Z"/></g>
<g><path style="opacity:1" fill="#417fc3" d="M 443.5,594.5 C 445.5,594.5 447.5,594.5 449.5,594.5C 446.442,596.132 443.109,597.299 439.5,598C 434.102,598.517 428.769,599.351 423.5,600.5C 423.858,604.509 424.358,608.509 425,612.5C 426.131,611.396 426.965,611.729 427.5,613.5C 427.154,614.696 426.654,614.696 426,613.5C 425.51,614.793 425.343,616.127 425.5,617.5C 424.008,613.736 423.008,609.736 422.5,605.5C 421.532,603.393 421.198,601.059 421.5,598.5C 422.833,598.5 424.167,598.5 425.5,598.5C 427.265,597.539 429.265,597.205 431.5,597.5C 435.841,597.342 439.841,596.342 443.5,594.5 Z"/></g>
<g><path style="opacity:1" fill="#5188c3" d="M 629.5,576.5 C 628.998,588.339 627.332,600.006 624.5,611.5C 624.167,611.5 623.833,611.5 623.5,611.5C 624.306,607.957 624.306,604.457 623.5,601C 625.59,592.631 627.59,584.464 629.5,576.5 Z"/></g>
<g><path style="opacity:1" fill="#4486c8" d="M 493.5,594.5 C 497.823,600.489 502.823,605.822 508.5,610.5C 505.761,610.293 503.427,609.293 501.5,607.5C 499.944,608.547 498.277,609.214 496.5,609.5C 497.167,607.167 497.833,604.833 498.5,602.5C 495.794,602.575 493.127,602.908 490.5,603.5C 490.5,602.5 490.5,601.5 490.5,600.5C 491.5,600.5 492.5,600.5 493.5,600.5C 493.5,598.5 493.5,596.5 493.5,594.5 Z"/></g>
<g><path style="opacity:1" fill="#6b92be" d="M 425.5,598.5 C 424.791,599.404 423.791,599.737 422.5,599.5C 422.5,601.5 422.5,603.5 422.5,605.5C 422.5,603.5 422.5,601.5 422.5,599.5C 423.791,599.737 424.791,599.404 425.5,598.5 Z"/></g>
<g><path style="opacity:1" fill="#99bbdc" d="M 538.5,603.5 C 536.938,607.733 533.938,610.067 529.5,610.5C 532.783,608.553 535.783,606.22 538.5,603.5 Z"/></g>
<g><path style="opacity:1" fill="#4082c4" d="M 552.5,578.5 C 551.965,582.819 551.465,587.152 551,591.5C 547.708,596.806 544.375,602.139 541,607.5C 540.506,609.134 540.34,610.801 540.5,612.5C 535.529,610.723 530.862,611.223 526.5,614C 521.467,614.829 516.467,614.662 511.5,613.5C 510.007,612.859 509.007,611.859 508.5,610.5C 510.5,610.833 512.5,611.167 514.5,611.5C 518.47,614.079 522.47,614.079 526.5,611.5C 527.391,610.89 528.391,610.557 529.5,610.5C 533.938,610.067 536.938,607.733 538.5,603.5C 538.833,603.5 539.167,603.5 539.5,603.5C 542.917,601.408 545.25,598.408 546.5,594.5C 548.906,590.554 550.24,586.22 550.5,581.5C 551.167,580.5 551.833,579.5 552.5,578.5 Z"/></g>
<g><path style="opacity:1" fill="#b3d8ec" d="M 514.5,611.5 C 518.5,611.5 522.5,611.5 526.5,611.5C 522.47,614.079 518.47,614.079 514.5,611.5 Z"/></g>
<g><path style="opacity:1" fill="#a1bedb" d="M 623.5,611.5 C 623.833,611.5 624.167,611.5 624.5,611.5C 624.59,614.152 623.924,616.485 622.5,618.5C 622.674,616.139 623.007,613.806 623.5,611.5 Z"/></g>
<g><path style="opacity:1" fill="#8aafd2" d="M 426.5,624.5 C 428.213,625.635 428.88,627.302 428.5,629.5C 427.463,628.07 426.796,626.403 426.5,624.5 Z"/></g>
<g><path style="opacity:1" fill="#deeef5" d="M 622.5,620.5 C 622.452,623.313 621.785,625.979 620.5,628.5C 622.302,632.168 621.302,634.502 617.5,635.5C 618.589,630.233 620.256,625.233 622.5,620.5 Z"/></g>
<g><path style="opacity:1" fill="#4681bc" d="M 431.5,635.5 C 432.5,635.5 433.5,635.5 434.5,635.5C 434.541,639.616 435.207,643.616 436.5,647.5C 434.952,647.179 434.285,646.179 434.5,644.5C 434.245,642.033 433.245,640.033 431.5,638.5C 431.5,637.5 431.5,636.5 431.5,635.5 Z"/></g>
<g><path style="opacity:1" fill="#5085be" d="M 615.5,638.5 C 615.5,639.167 615.5,639.833 615.5,640.5C 614.021,642.72 612.688,645.054 611.5,647.5C 610.657,643.343 611.991,640.343 615.5,638.5 Z"/></g>
<g><path style="opacity:1" fill="#94b7d6" d="M 431.5,638.5 C 433.245,640.033 434.245,642.033 434.5,644.5C 432.755,642.967 431.755,640.967 431.5,638.5 Z"/></g>
<g><path style="opacity:1" fill="#d2e5f3" d="M 615.5,640.5 C 614.86,643.865 614.026,647.198 613,650.5C 609.363,654.105 607.03,658.438 606,663.5C 603.256,665.085 601.089,667.085 599.5,669.5C 604.01,662.482 608.01,655.149 611.5,647.5C 612.688,645.054 614.021,642.72 615.5,640.5 Z"/></g>
<g><path style="opacity:1" fill="#ddeaf5" d="M 437.5,652.5 C 441.68,658.355 445.68,664.355 449.5,670.5C 447.092,669.004 444.759,667.338 442.5,665.5C 440.749,661.123 439.082,656.79 437.5,652.5 Z"/></g>
<g><path style="opacity:1" fill="#7097c2" d="M 455.5,676.5 C 458.089,677.419 460.089,679.086 461.5,681.5C 458.911,680.581 456.911,678.914 455.5,676.5 Z"/></g>
<g><path style="opacity:1" fill="#cce2f1" d="M 599.5,669.5 C 598.155,671.697 596.989,674.03 596,676.5C 594.53,677.267 593.03,677.933 591.5,678.5C 593.773,675.223 596.44,672.223 599.5,669.5 Z"/></g>
<g><path style="opacity:1" fill="#c7daef" d="M 591.5,678.5 C 589.596,683.082 586.263,685.748 581.5,686.5C 584.854,683.828 588.187,681.161 591.5,678.5 Z"/></g>
<g><path style="opacity:1" fill="#6796c5" d="M 461.5,681.5 C 465.922,683.406 470.256,685.572 474.5,688C 475.823,688.816 476.489,689.983 476.5,691.5C 476.167,691.5 475.833,691.5 475.5,691.5C 470.091,689.136 465.424,685.802 461.5,681.5 Z"/></g>
<g><path style="opacity:1" fill="#cce5f4" d="M 581.5,686.5 C 580.358,688.433 578.692,689.933 576.5,691C 575.207,691.49 573.873,691.657 572.5,691.5C 575.008,689.076 578.008,687.41 581.5,686.5 Z"/></g>
<g><path style="opacity:1" fill="#dae7f9" d="M 658.5,557.5 C 658.5,603.167 658.5,648.833 658.5,694.5C 629.159,694.833 599.826,694.5 570.5,693.5C 570.624,692.893 570.957,692.56 571.5,692.5C 599.995,693.498 628.662,693.831 657.5,693.5C 657.168,647.997 657.501,602.664 658.5,557.5 Z"/></g>
<g><path style="opacity:1" fill="#acc6e9" d="M 306.5,557.5 C 306.5,603.167 306.5,648.833 306.5,694.5C 306.5,695.167 306.167,695.5 305.5,695.5C 279.995,695.831 254.661,695.498 229.5,694.5C 254.833,694.5 280.167,694.5 305.5,694.5C 305.168,648.664 305.501,602.997 306.5,557.5 Z"/></g>
<g><path style="opacity:1" fill="#a5c2eb" d="M 475.5,691.5 C 475.833,691.5 476.167,691.5 476.5,691.5C 476.833,691.5 477.167,691.5 477.5,691.5C 478.141,692.482 478.807,693.482 479.5,694.5C 449.336,695.83 419.336,695.83 389.5,694.5C 418.508,694.833 447.508,694.5 476.5,693.5C 476.137,692.817 475.804,692.15 475.5,691.5 Z"/></g>
<g><path style="opacity:1" fill="#a5c2e9" d="M 571.5,691.5 C 571.5,691.833 571.5,692.167 571.5,692.5C 570.957,692.56 570.624,692.893 570.5,693.5C 599.826,694.5 629.159,694.833 658.5,694.5C 658.5,694.833 658.5,695.167 658.5,695.5C 628.833,695.5 599.167,695.5 569.5,695.5C 569.5,694.5 569.5,693.5 569.5,692.5C 569.842,691.662 570.508,691.328 571.5,691.5 Z"/></g>
<g><path style="opacity:1" fill="#5e8fcb" d="M 477.5,691.5 C 482.7,693.507 482.7,695.173 477.5,696.5C 447.481,697.159 417.815,696.492 388.5,694.5C 388.833,694.5 389.167,694.5 389.5,694.5C 419.336,695.83 449.336,695.83 479.5,694.5C 478.807,693.482 478.141,692.482 477.5,691.5 Z"/></g>
<g><path style="opacity:1" fill="#6090ca" d="M 569.5,692.5 C 569.5,693.5 569.5,694.5 569.5,695.5C 599.167,695.5 628.833,695.5 658.5,695.5C 628.338,696.498 598.005,696.831 567.5,696.5C 567.229,694.62 567.896,693.287 569.5,692.5 Z"/></g>
<g><path style="opacity:1" fill="#2b7fd7" d="M 236.5,703.5 C 260.167,703.5 283.833,703.5 307.5,703.5C 307.5,705.167 307.5,706.833 307.5,708.5C 283.909,706.626 260.242,705.959 236.5,706.5C 236.5,705.5 236.5,704.5 236.5,703.5 Z"/></g>
<g><path style="opacity:1" fill="#2b7ed7" d="M 385.5,700.5 C 387.167,700.5 388.833,700.5 390.5,700.5C 390.5,701.5 390.5,702.5 390.5,703.5C 418.167,703.5 445.833,703.5 473.5,703.5C 473.5,704.5 473.5,705.5 473.5,706.5C 445.593,706.172 417.759,706.505 390,707.5C 387.98,705.449 386.48,703.116 385.5,700.5 Z"/></g>
<g><path style="opacity:1" fill="#2c7ed7" d="M 579.5,703.5 C 603.167,703.5 626.833,703.5 650.5,703.5C 650.5,704.5 650.5,705.5 650.5,706.5C 626.833,706.5 603.167,706.5 579.5,706.5C 579.5,705.5 579.5,704.5 579.5,703.5 Z"/></g>
</svg>
