<?xml version="1.0" encoding="UTF-8" standalone="no"?>
<!-- Created with Inkscape (http://www.inkscape.org/) -->

<svg
   xmlns:dc="http://purl.org/dc/elements/1.1/"
   xmlns:cc="http://creativecommons.org/ns#"
   xmlns:rdf="http://www.w3.org/1999/02/22-rdf-syntax-ns#"
   xmlns:svg="http://www.w3.org/2000/svg"
   xmlns="http://www.w3.org/2000/svg"
   xmlns:sodipodi="http://sodipodi.sourceforge.net/DTD/sodipodi-0.dtd"
   xmlns:inkscape="http://www.inkscape.org/namespaces/inkscape"
   version="1.1"
   id="svg496"
   width="128"
   height="128"
   viewBox="0 0 128 128"
   sodipodi:docname="plugins.svg"
   inkscape:version="0.92.3 (2405546, 2018-03-11)">
  <metadata
     id="metadata502">
    <rdf:RDF>
      <cc:Work
         rdf:about="">
        <dc:format>image/svg+xml</dc:format>
        <dc:type
           rdf:resource="http://purl.org/dc/dcmitype/StillImage" />
        <dc:title></dc:title>
      </cc:Work>
    </rdf:RDF>
  </metadata>
  <defs
     id="defs500" />
  <sodipodi:namedview
     pagecolor="#ffffff"
     bordercolor="#666666"
     borderopacity="1"
     objecttolerance="10"
     gridtolerance="10"
     guidetolerance="10"
     inkscape:pageopacity="0"
     inkscape:pageshadow="2"
     inkscape:window-width="1920"
     inkscape:window-height="1080"
     id="namedview498"
     showgrid="false"
     inkscape:zoom="5.1972655"
     inkscape:cx="61.761873"
     inkscape:cy="55.378621"
     inkscape:window-x="0"
     inkscape:window-y="0"
     inkscape:window-maximized="1"
     inkscape:current-layer="svg496" />
  <path
     inkscape:connector-curvature="0"
     id="path544"
     d="M 6.960404,119.41746 3.9542651,116.41132 V 97.418016 C 3.8324215,88.965601 3.7351637,89.746809 4.0329255,81.343909 L 14.51381,87.771544 c 0.0792,-28.491953 -0.158024,-24.808 1.110992,-52.610561 L 6.0546228,42.128471 5.8672559,29.859799 V 11.78276 L 6.9768318,8.8912483 8.0864218,5.9997365 36.919147,5.3691557 65.751888,5.3006752 84.928064,4.9703722 105.04106,4.8274363 l 3.8833,2.5717322 4.07066,4.0706645 v 10.634376 l -0.18283,11.36568 c 1.3312,-0.822722 3.78205,-1.81465 5.11326,-2.637376 8.62168,-4.126318 4.43649,-4.375782 5.01383,4.244567 l -0.37927,26.412229 -0.0138,14.065892 0.4112,16.546793 -10.23883,-4.822462 0.27639,4.441433 v 12.373345 12.37334 l -4.25164,2.97798 -4.25165,2.97796 H 57.22914 9.9665428 Z"
     style="fill:#f1f4f5;stroke:#000000;stroke-width:1.9129957;stroke-opacity:0.4584718"
     sodipodi:nodetypes="ccccccccccccccccccccccccccccccccc" />
  <path
     inkscape:connector-curvature="0"
     id="path530"
     d="m 8.8733949,117.50447 -3.006139,-3.00614 V 95.9121 L 6.2419895,84.258458 C 9.2003157,85.10955 13.152248,89.300154 16.200112,89.457845 15.704059,65.10106 15.885603,70.919135 27.712035,60.216492 57.778222,32.821096 90.231379,45.611648 111.59174,48.980302 c 9.53882,6.469567 4.10708,2.480395 9.53882,6.469567 l -1.19021,25.84433 -0.63966,1.9534 -0.63965,1.953399 -7.84061,0.527603 -0.69457,3.217589 -0.57474,13.31121 -0.57474,13.31123 -2.05073,2.47098 -2.05075,2.47101 H 58.377051 11.879534 Z"
     style="fill:#cccccc;stroke-width:1.9129957"
     sodipodi:nodetypes="cccccccccccccccccccc" />
  <path
     inkscape:connector-curvature="0"
     id="path514"
     d="m 11.988848,118.21501 -2.2955958,-2.29559 0.012913,-2.00865 0.012913,-2.00864 45.1762168,-0.32951 45.176235,-0.32949 1.60186,-1.60186 1.60186,-1.60185 0.32029,-13.372619 0.32029,-13.372613 1.68213,-2.123643 1.68215,-2.123645 4.77033,0.911909 9.07979,-22.50894 0.18736,34.753872 -5.97591,-3.48631 -4.52125,-0.98883 0.2616,6.005035 0.38953,9.898854 -0.38953,14.58365 -3.77974,2.74834 -4.63768,1.54613 H 58.474413 14.284213 Z M 7.276306,104.67067 6.5574405,113.81512 C 4.7289668,99.167961 9.1885088,77.282004 7.276306,104.67067 Z"
     style="fill:#b3b3b3;stroke-width:1.9129957"
     sodipodi:nodetypes="cccccccccccccccccccccccccccc" />
  <path
     inkscape:connector-curvature="0"
     id="path510"
     d="m 11.880266,116.89445 -2.5954862,-1.64457 1.6389832,-0.96505 1.638984,-0.96504 44.907831,-0.35378 44.907842,-0.3538 2.4388,-2.02402 2.43881,-2.02402 v 2.72112 2.72113 l -2.29559,2.29559 -2.2956,2.2956 -44.094543,-0.0293 -44.09456,-0.0292 z M 105.34304,82.988767 v -2.425278 l 1.58101,-0.977117 1.58101,-0.977121 4.15798,1.087334 4.15798,1.087337 v 1.472756 1.472762 l -5.73899,0.842296 -5.73899,0.842312 z"
     style="fill:#999999;stroke-width:1.9129957" />
  <path
     inkscape:connector-curvature="0"
     id="path508"
     d="m 15.432239,116.68462 -2.869492,-1.85442 45.546553,-0.0292 45.54654,-0.0293 -1.18229,1.913 -1.18231,1.913 -41.49475,-0.0293 -41.494757,-0.0293 z"
     style="fill:#666666;stroke-width:1.9129957" />
</svg>
