<?xml version="1.0" encoding="UTF-8" standalone="no"?>
<!-- Created with Inkscape (http://www.inkscape.org/) -->

<svg
   xmlns:dc="http://purl.org/dc/elements/1.1/"
   xmlns:cc="http://creativecommons.org/ns#"
   xmlns:rdf="http://www.w3.org/1999/02/22-rdf-syntax-ns#"
   xmlns:svg="http://www.w3.org/2000/svg"
   xmlns="http://www.w3.org/2000/svg"
   xmlns:sodipodi="http://sodipodi.sourceforge.net/DTD/sodipodi-0.dtd"
   xmlns:inkscape="http://www.inkscape.org/namespaces/inkscape"
   width="128"
   height="128"
   viewBox="0 0 128 128"
   id="svg21921"
   version="1.1"
   inkscape:version="0.91 r"
   sodipodi:docname="post-forum.svg">
  <defs
     id="defs21923" />
  <sodipodi:namedview
     id="base"
     pagecolor="#ffffff"
     bordercolor="#666666"
     borderopacity="1.0"
     inkscape:pageopacity="0.0"
     inkscape:pageshadow="2"
     inkscape:zoom="1.979899"
     inkscape:cx="-1.3199403"
     inkscape:cy="90.968099"
     inkscape:document-units="px"
     inkscape:current-layer="layer1"
     showgrid="false"
     units="px"
     inkscape:window-width="1920"
     inkscape:window-height="1051"
     inkscape:window-x="1366"
     inkscape:window-y="0"
     inkscape:window-maximized="1" />
  <metadata
     id="metadata21926">
    <rdf:RDF>
      <cc:Work
         rdf:about="">
        <dc:format>image/svg+xml</dc:format>
        <dc:type
           rdf:resource="http://purl.org/dc/dcmitype/StillImage" />
        <dc:title></dc:title>
      </cc:Work>
    </rdf:RDF>
  </metadata>
  <g
     inkscape:label="Capa 1"
     inkscape:groupmode="layer"
     id="layer1"
     transform="translate(0,-924.36216)">
    <g
       id="g10001"
       transform="matrix(5.8181818,0,0,5.8181818,-4661.2482,-516.19013)">
      <rect
         ry="0"
         y="247.59492"
         x="801.15204"
         height="22"
         width="22"
         id="rect9886"
         style="opacity:0;fill:#ffff00;fill-opacity:1;stroke:none;stroke-width:1;stroke-linecap:round;stroke-linejoin:round;stroke-miterlimit:4;stroke-dasharray:none;stroke-dashoffset:0;stroke-opacity:1" />
      <g
         transform="matrix(1,0,0,0.98375513,-2.1250001,5.3581581)"
         id="g9991">
        <path
           style="opacity:1;fill:#ffffff;fill-opacity:1;stroke:none;stroke-width:1;stroke-linecap:round;stroke-linejoin:round;stroke-miterlimit:4;stroke-dasharray:none;stroke-dashoffset:0;stroke-opacity:1"
           d="m 805.33766,249.46938 9.49998,0 4.09377,4.4375 0.0625,13.90625 -13.65625,0 z"
           id="rect9891"
           inkscape:connector-curvature="0"
           sodipodi:nodetypes="cccccc" />
        <path
           style="fill:#008080;fill-rule:evenodd;stroke:none;stroke-width:1"
           id="document-text"
           d="m 814.41563,249.04215 -8.06221,0 c -0.84951,0 -1.53818,0.64004 -1.53818,1.43017 l 0,16.3765 c 0,0.78986 0.68426,1.43017 1.53408,1.43017 l 11.52443,0 c 0.84725,0 1.53408,-0.63996 1.53408,-1.41839 l 0,-12.47489 0,-0.35623 -4.60819,-4.98733 -0.38401,0 0,0 0,0 z m -0.38402,0.71247 -7.68371,0 c -0.42229,0 -0.76463,0.32437 -0.76463,0.70924 l 0,16.39341 c 0,0.39171 0.34923,0.70924 0.768,0.70924 l 11.52053,0 c 0.42415,0 0.768,-0.31701 0.768,-0.70777 l 0,-12.11679 -3.07373,0 c -0.84746,0 -1.53446,-0.63165 -1.53446,-1.42917 l 0,-3.55816 0,0 z m 0.76803,0.35624 0,3.19988 c 0,0.39695 0.34612,0.71874 0.76553,0.71874 l 2.84418,0 -3.60971,-3.91862 0,0 z m -7.68031,3.91862 0,0.71247 5.37622,0 0,-0.71247 -5.37622,0 0,0 z m 0,-2.13743 0,0.71248 5.37622,0 0,-0.71248 -5.37622,0 0,0 z m 0,4.27485 0,0.71248 9.98441,0 0,-0.71248 -9.98441,0 0,0 z m 0,2.13743 0,0.71248 9.98441,0 0,-0.71248 -9.98441,0 0,0 z m 0,2.13743 0,0.71247 9.98441,0 0,-0.71247 -9.98441,0 0,0 z m 0,2.13742 0,0.71248 9.98441,0 0,-0.71248 -9.98441,0 0,0 z m 0,2.13743 0,0.71248 9.98441,0 0,-0.71248 -9.98441,0 0,0 z"
           inkscape:connector-curvature="0" />
      </g>
      <g
         transform="translate(2.9375001,-0.87500008)"
         id="g9995">
        <path
           sodipodi:nodetypes="cccccc"
           inkscape:connector-curvature="0"
           id="path9997"
           d="m 805.33766,249.46938 9.49998,0 4.09377,4.4375 0.0625,13.90625 -13.65625,0 z"
           style="opacity:1;fill:#ffffff;fill-opacity:1;stroke:none;stroke-width:1;stroke-linecap:round;stroke-linejoin:round;stroke-miterlimit:4;stroke-dasharray:none;stroke-dashoffset:0;stroke-opacity:1" />
        <path
           inkscape:connector-curvature="0"
           d="m 814.41563,249.04215 -8.06221,0 c -0.84951,0 -1.53818,0.64004 -1.53818,1.43017 l 0,16.3765 c 0,0.78986 0.68426,1.43017 1.53408,1.43017 l 11.52443,0 c 0.84725,0 1.53408,-0.63996 1.53408,-1.41839 l 0,-12.47489 0,-0.35623 -4.60819,-4.98733 -0.38401,0 0,0 0,0 z m -0.38402,0.71247 -7.68371,0 c -0.42229,0 -0.76463,0.32437 -0.76463,0.70924 l 0,16.39341 c 0,0.39171 0.34923,0.70924 0.768,0.70924 l 11.52053,0 c 0.42415,0 0.768,-0.31701 0.768,-0.70777 l 0,-12.11679 -3.07373,0 c -0.84746,0 -1.53446,-0.63165 -1.53446,-1.42917 l 0,-3.55816 0,0 z m 0.76803,0.35624 0,3.19988 c 0,0.39695 0.34612,0.71874 0.76553,0.71874 l 2.84418,0 -3.60971,-3.91862 0,0 z m -7.68031,3.91862 0,0.71247 5.37622,0 0,-0.71247 -5.37622,0 0,0 z m 0,-2.13743 0,0.71248 5.37622,0 0,-0.71248 -5.37622,0 0,0 z m 0,4.27485 0,0.71248 9.98441,0 0,-0.71248 -9.98441,0 0,0 z m 0,2.13743 0,0.71248 9.98441,0 0,-0.71248 -9.98441,0 0,0 z m 0,2.13743 0,0.71247 9.98441,0 0,-0.71247 -9.98441,0 0,0 z m 0,2.13742 0,0.71248 9.98441,0 0,-0.71248 -9.98441,0 0,0 z m 0,2.13743 0,0.71248 9.98441,0 0,-0.71248 -9.98441,0 0,0 z"
           id="path9999"
           style="fill:#008080;fill-rule:evenodd;stroke:none;stroke-width:1" />
      </g>
    </g>
  </g>
</svg>
