<?xml version="1.0" encoding="UTF-8" standalone="no"?>
<!-- Created with Sodipodi ("http://www.sodipodi.com/") -->

<svg
   xmlns:a="http://ns.adobe.com/AdobeSVGViewerExtensions/3.0/"
   xmlns:xapMM="http://ns.adobe.com/xap/1.0/mm/"
   xmlns:xapGImg="http://ns.adobe.com/xap/1.0/g/img/"
   xmlns:xap="http://ns.adobe.com/xap/1.0/"
   xmlns:x="adobe:ns:meta/"
   xmlns:dc="http://purl.org/dc/elements/1.1/"
   xmlns:cc="http://creativecommons.org/ns#"
   xmlns:rdf="http://www.w3.org/1999/02/22-rdf-syntax-ns#"
   xmlns:svg="http://www.w3.org/2000/svg"
   xmlns="http://www.w3.org/2000/svg"
   xmlns:sodipodi="http://sodipodi.sourceforge.net/DTD/sodipodi-0.dtd"
   xmlns:inkscape="http://www.inkscape.org/namespaces/inkscape"
   width="128"
   height="128"
   viewBox="0 0 128 128"
   style="overflow:visible"
   xml:space="preserve"
   id="svg1057"
   sodipodi:version="0.32"
   sodipodi:docname="printer.svg"
   version="1.1"
   inkscape:version="0.91 r13725"><defs
     id="defs1199" /><sodipodi:namedview
     id="base"
     showgrid="false"
     units="px"
     inkscape:zoom="2.6987909"
     inkscape:cx="28.830545"
     inkscape:cy="79.007202"
     inkscape:window-width="1325"
     inkscape:window-height="747"
     inkscape:window-x="41"
     inkscape:window-y="21"
     inkscape:window-maximized="1"
     inkscape:current-layer="svg1057" /><metadata
     id="metadata1058"><xpacket>begin='﻿' id='W5M0MpCehiHzreSzNTczkc9d'    </xpacket><x:xmpmeta
       x:xmptk="XMP toolkit 3.0-29, framework 1.6"><metadata><rdf:RDF><rdf:Description
             rdf:about="uuid:bcb648b3-15a3-41a4-815d-774960d2ac54" /><rdf:Description
             rdf:about="uuid:bcb648b3-15a3-41a4-815d-774960d2ac54" /><rdf:Description
             rdf:about="uuid:bcb648b3-15a3-41a4-815d-774960d2ac54"><xap:CreateDate>
2003-06-11T12:03:38Z</xap:CreateDate><xap:ModifyDate>
2004-03-29T09:19:38Z</xap:ModifyDate><xap:CreatorTool>
Adobe Illustrator 10.0</xap:CreatorTool><xap:MetadataDate>
2004-02-14T13:06:31+01:00</xap:MetadataDate><xap:Thumbnails><rdf:Alt><rdf:li
                   rdf:parseType="Resource"><xapGImg:format>
JPEG</xapGImg:format><xapGImg:width>
256</xapGImg:width><xapGImg:height>
256</xapGImg:height><xapGImg:image>
/9j/4AAQSkZJRgABAgEASABIAAD/7QAsUGhvdG9zaG9wIDMuMAA4QklNA+0AAAAAABAASAAAAAEA
AQBIAAAAAQAB/+4ADkFkb2JlAGTAAAAAAf/bAIQABgQEBAUEBgUFBgkGBQYJCwgGBggLDAoKCwoK
DBAMDAwMDAwQDA4PEA8ODBMTFBQTExwbGxscHx8fHx8fHx8fHwEHBwcNDA0YEBAYGhURFRofHx8f
Hx8fHx8fHx8fHx8fHx8fHx8fHx8fHx8fHx8fHx8fHx8fHx8fHx8fHx8fHx8f/8AAEQgBAAEAAwER
AAIRAQMRAf/EAaIAAAAHAQEBAQEAAAAAAAAAAAQFAwIGAQAHCAkKCwEAAgIDAQEBAQEAAAAAAAAA
AQACAwQFBgcICQoLEAACAQMDAgQCBgcDBAIGAnMBAgMRBAAFIRIxQVEGE2EicYEUMpGhBxWxQiPB
UtHhMxZi8CRygvElQzRTkqKyY3PCNUQnk6OzNhdUZHTD0uIIJoMJChgZhJRFRqS0VtNVKBry4/PE
1OT0ZXWFlaW1xdXl9WZ2hpamtsbW5vY3R1dnd4eXp7fH1+f3OEhYaHiImKi4yNjo+Ck5SVlpeYmZ
qbnJ2en5KjpKWmp6ipqqusra6voRAAICAQIDBQUEBQYECAMDbQEAAhEDBCESMUEFURNhIgZxgZEy
obHwFMHR4SNCFVJicvEzJDRDghaSUyWiY7LCB3PSNeJEgxdUkwgJChgZJjZFGidkdFU38qOzwygp
0+PzhJSktMTU5PRldYWVpbXF1eX1RlZmdoaWprbG1ub2R1dnd4eXp7fH1+f3OEhYaHiImKi4yNjo
+DlJWWl5iZmpucnZ6fkqOkpaanqKmqq6ytrq+v/aAAwDAQACEQMRAD8A9U4q7FXYq7FXYq7FXYq7
FXYq7FXYq7FXYq7FXYq7FXYq7FXYq7FXYq7FXYq7FXYq7FXYq7FXYq7FXYq7FXYq7FXYq7FXYq7F
XYq7FXYq8vGjzeZ/N2rW91dvGLV5REacwFST01UAkU2zI4uGIQmf/KqLf/q5P/yKH/NWR8byWnf8
qot/+rk//Iof81Y+N5LTv+VUW/8A1cn/AORQ/wCasfG8lp3/ACqi3/6uT/8AIof81Y+N5LTv+VUW
/wD1cn/5FD/mrHxvJad/yqi3/wCrk/8AyKH/ADVj43ktO/5VRb/9XJ/+RQ/5qx8byWnf8qot/wDq
5P8A8ih/zVj43ktO/wCVUW//AFcn/wCRQ/5qx8byWnf8qot/+rk//Iof81Y+N5LTv+VUW/8A1cn/
AORQ/wCasfG8lp3/ACqi3/6uT/8AIof81Y+N5LSA/LvzHdw3I0uUmW1kI9KpJMbEhaL/AJJr0xzD
dQ9MylLsVdirsVdirsVdirsVdirsVdirsVdirsVdirsVdirsVYF5N/5TjXv9ef8A6iMun9IQGe5S
l2KuxV2KuxV2KtE4q0Xw0haZT4Y0trTOfDDS2tNyfAY8KLRA6ZFk8c8j/wDHft/9ZP8Aia5dm6ID
2PKUuxV2KuxV2KuxV2KuxV2KuxV2KuxV2KuxV2KuxV2KuxVgHkxq+etfHg9x/wBRGXT+kIDP8pS7
FXYq7FXYq0TiqwnChYThQsJwqsJxQsJwoTAdBlbY8a8itXX4P9ZP+Jrl2bogPZcpS7FXYq7FXYq7
FXYq7FXYq7FXYq7FXYq7FXYq7FXYq7FXnnkhq+ffMI8HuP8AqIy6f0hAeh5Sl2KuxV2KtE4qsJwo
WE4ULCcKrCcULCcKFhOFUzHQZU2PFvy/auvQ/wCun/Exl2ZAe05Sl2KuxV2KuxV2KuxV2KuxV2Ku
xV2KuxV2KuxV2KuxV2KvOPIrV/MHzGPB7j/qJy6f0hAej5Sl2KuxVonFVhOFCwnChYThVYTihYTh
QsJwqsJwoTZfsj5ZS2vEvy5auvRf66f8TGXZUB7blKXYq7FXYq7FXYq7FXYq7FXYq7FXYq7FXYq7
FXYq7FXYq808hNX8xfMo8Huf+orLp/SEPS8pS7FWicVWE4ULCcKFhOFVhOKFhOFCwnCqwnChTZsV
Tlfsj5ZS2vD/AMs2rrsf+vH/AMTGXZUB7jlKXYq7FXYq7FXYq7FXYq7FXYq7FXYq7FXYq7FXYq7F
XYq8w/L5q/mT5nHhJc/9RWWz+kIen5UlonFVhOFCwnChYThVYTihYThQsJwqsJwoU2bFVNmxSnq/
ZHyylseF/lc1ddT/AF4/+JjLcqA91ypLsVdirsVdirsVdirsVdirsVdirsVdirsVdirsVdirsVeW
fl21fzM80jwkuv8AqLy2f0hD1InKkrCcKFhOFCwnCqwnFCwnChYThVYThQps2KqbNilTZsVZCv2R
8hlLY8H/ACoauuD/AF4/+JjLcqA95ypLsVdirsVdirsVdirsVdirsVdirsVdirsVdirsVdiqVa35
r8taEF/TGp21iziqJNIquw8VT7RHyGKvN/ysvba9/MXzLd2sgmtrj6xNBKvRo3ugysPYg5bP6Qh6
252ysJUicLFYThVYTihYThQsJwqsJwoU2bFVNmxSps2KqTNilkyfYX5DKWb5z/LnzFouk6yj6peR
2iO8ZV5TxWgYV36bZblQH0RaXdpeW0dzaTR3FtKOUU8TB0YeKspIOVJVcVdirsVdirsVdirsVdir
sVdirsVdirsVU7i6traIy3MyQRDrJIwRfvagxVjeofmh+XthUXGv2ZK7MsMnrkEdqQ+ocVY1qf8A
zkL+XttDIbOa4vpgrekI4HRWah41MvpkCvtirxDyz5d1X8xfMWp3uqaotqsMUl9qeozKZAiA9FQF
dh2FQAoxV6b+Rdtb2nmzVrO2uBd29tbNFDdqvESpHMqrIFq1OYFaVy2f0hD2yU7DKwpUCckhYTih
YThQsJwqsJwoU2bFVNmxSps2KqTNilSZsVZWn2F+Qylm+VvLnkC285yS2qaxHp+qxKfqVnLEXFx8
JZvjDDgF4b/C2W5UBZ+VX5mXfkjVJ7PUfVk0aYkXNolGMcymnNASADtRt9/oypL26y/PX8srogNq
jWznos8Ey/8ADKjL+OKsl03zr5Q1OgsNasrh2pSNJ4+e/ihPIfdiqdYq7FXYq7FXYq7FXYq7FVG8
vLSytZLu8mS3tYV5SzysERVHdmagGKvIvNf/ADkhodk72/l2zbU5V2+tzEwwV8VWnqP/AMLirzy4
/ND84PNUjx6bLcJETRotLhKKhPjKoaRfpfFVKL8ofzJ1mRp9SZYpe0l/cmR2r7x+ufvw8Kp9Zf8A
OPUh4Ne60B/PHDAT9zs4/wCI4eFU9tfyF8nROGmuL25p1RpEVD/wEat/w2HhQmms+V/Lvk78vvMM
+j2xt5tQSG0kZpJHLhn40+Nmp8MjHbBIJSL/AJx8P/Oy6iPCy/5mpk5/SEPdJz8IysKUOTkmKwnC
hYThVYThQps2KqbNilTZsVUmbFKkzYqps2KsvT7C/IZSzfK35d6gbLzxotxWg+tJEx6UWf8AdN+D
5bkQHqmufk55Fu9Qu5WspIZp5XkeSKaUfE7ciQGZlHXwyIASxu7/AOcfvLrRkWmpXkMnZpRFKv8A
wKrF+vHhVIL/AP5x91qMA2GqW9x4idHg+7j62DhVK08r/nF5VJfTzfRwxmgNhMZUYf8AGFGJI/1k
wUqb6J/zkJ560mf6trlvFqSxnjKkqfVrgU7ckAUfTGcCvYfJP5ueUPNjJbW8xs9UYf8AHPuaK7Ed
fTYfDJ9Br7YqzXFXYq7FXYq0zKqlmICgVJOwAGKvl/8AMnzxrH5geaY9D0XnJpSTelYWybCZxUGd
/bqRX7K77b4qzryl+S/lvSYo5tVRdV1CgL+qK26nuEjP2vm9fkMmAr0CKCKGNYokWONBREQBVAHY
AYULuOKu44q7jirC/wA6br0fJ+n2YNGu7syN7rEjCn3suQkli35CX9na+aNTa6uI4E+qFQ0rqgJ9
VNqsRlxxyIFAsDOI5l7LfecfKUKn1dbsI+Bo/K6hWh6b1bJQ0uU8oy+Ra5ajGP4h80rm/MPyJHTl
5h0416cbmJ/+IsctGhzn+CXyLWdVi/nR+aFl/NH8vo24tr1oT1+F+Q+9QRlg7Ozn+AsDrcX84Ieb
82fy7jALa5AQdvhDsfuVTkh2ZqD/AAFB12H+cFA/m/8Alz/1eo/+Rc3/ADRkv5L1H837mP5/D/OW
H83fy6/6vUf/ACLm/wCaMf5L1H837k/n8P8AOWN+bf5ef9XmP/kXN/zRg/kvUfzfuX8/h/nfept+
bP5e/wDV5j/5Fzf80Yf5L1H837k/n8P87713/KzvIbKCNat6EVFSwP3EZH+TdR/MLL89h/nBtfzE
8kSKSut2lOnxSBT9zUyJ7Pzj+CSRrMP84Lx518oOAV1uw+LoDcxA/cWrkTosw/gl8izGqxfzo/MM
5tvNHlmVAItXspCoHILcRNT50bMU6fIOcZfItgzQP8Q+b5L024eOZZ4yOcLq6H3U1H6scoI5s4kH
k+rLx0neO5T7FxGkq/JhtkIskPxwodxxV3HFUu1ny3oWtQ+jqljFdrQhWkUc1r/I4oy/7E4q8X/M
X8o5dAgbW9BkklsITzngY1lgFdnVhQsg+9eu+5ESEvSfyU/NKXzHZnRdYk5azZrWO4brcRDarf5a
9D49etcir1XFXYq7FXnn55+aX0PyPNb278LzVm+pxEdRGwJmb/gBx/2WKsH/ACF8qLDp9x5kuErN
dE29kT+zEhpIw/1nHH/Y++Sir1rjkkO44q7jiruOKu44q8w/PW6X6/o9kTQW1q87e3rNxP8AyZyA
BJoKTQTbRvyU8gNptpLqmnvcag8SPeObidAZmUF6KjrQciaZuD2lnh6YSqI2Gw5B1Y0eKXqkPUee
5TaH8ovywhXimhREVr8cs7n73kY5A9pak/x/d+pmNHgH8P3o2P8ALr8u425L5fsif8qJWH3NUZUd
bqD/ABy+bMabD/NCunkbyChqPLumk9PitYWH3FTkTq8/8+XzLIYMX82PyC//AAX5D/6lzS/+kK3/
AOaMH5rP/Pn/AKYp8HF/Nj8giR5f8rAUGj2IA6D6tD/zTkPFy/zpfMsuDH/NHyb/AEB5W/6s9j/0
jQ/804+Ll/nS+ZXgx/zR8nfoDyt/1Z7H/pGh/wCacfFy/wA6XzK8GP8Amj5LJfLPlCZOE2iafInX
i9rAwr8iuEZ8o5Tl8yg48Z5xj8gof4L8h/8AUuaX/wBIVv8A80ZL81n/AJ8/9MUeDi/mx+QUj5D/
AC/JJ/w7p2/hbRD/AI1yX5vP/Pl8yjwMP82PyQ0n5ZflxIhRtAtAD3VSp+9SDkxr9QP4ywOlw/zQ
gp/yc/K6ZuTaIqmlBwnuUH3LIBlg7U1I/j+wfqYHRYD/AA/aWAfmV+X/AJf8siwuNCt2t7a5Mkd0
rSPJ+8Xi0dOZY7rz+7KdVqcmaFzNmJ+/+xu0+GGOVR2B/Q9I0m9mufJvl+6RyK2ogcg9WgpHv/wJ
zCg5hXi5uv8AfjZOlbF5dj/dh+4f0xpVwv7sftA/MDGlXjUrgdVU/Qf64KVc9+ssbxTQLJFICrod
1KkUIIINQRjwq+d9Qin8j/mCJbTkkFrMJrbc1a2k/Zr3opK18RlRFJfWGj6jFqWm295GQyyoGqOl
aYFRmKuxV84/85G6u955vstJjJZNPtgSg3/fXDcjQe6KmKvYPLujx6PoNhpcYFLSBImIFAzhfjb/
AGTVOTVMaYodTFXUxV1MVXKnJgviaYq8h/MVRq35niypyiWS1tWH/FdFeX7g7ZbpY3kHlv8ALdp1
Mqgfl83p/wBc98yvDcLxHfXPfHw18R31z3x8NfEd9c98fDXxHfXPfHw18R31z3x8NfEcbwAVJoMf
DR4qi+s2qdZQT4Df9WTGnkejA6mI6qDeYYB9kM33DJjSFgdWFJvMTfsqB8zX+mS/KMTrFh1+Y9wP
lkvyoY/mytOuzn/dn6sP5YI/NHva/Tc3+/Dj+WHcv5k97F/zEne/8uksxc200cyr16kxH7lkJyOT
T+iXu+7f9DZg1H7yPv8Av2Tr8u5vrP5exR9TY3kkVPAP+8/XJmmhzd4m3D2yxClczQ21tLcznhDA
jSSueyoOTH7hhQTQtj76zZyaJ+kL2Z/Xu1521hbyNEIIz9gyyRlXaUjcjlxHSnfMeeU3UXVanXVG
wd/uXeRL3Ub/AEV57xmkT6xKtnM/2ngUgKSe9G5CvemXuZoskp4wZc2R8PbFynlX55aQPR03VlUA
qzWkzdzyHqRj6OL/AH5CavQ/yI1s33lOK2dqvbgpT/jGeP8AxHjkEvTMVdir5f1Tnr/57SLQOo1Z
UYHcGOyIVuv+RBiFfQ/HJq7jiruOKu44q7jiq+2KfWo0qORNQO+2+Aq8XsZBf/mXfXxNVimup4z7
BjCo/wCBkzP7PhfEfKvn/Y6/tDJQA8/x97Ovrfvmf4bq/Ed9b98fDXxHfW/fHw18Ro3gAqTQDqTj
4a+KgbjzLZRVCv6reCdPv6ZfDRyPk489dAeaXTearh9o6Rj7z95zIjogObjy15PLZByaxLIavIW+
Zrlo04HINJ1JPMrf0n75LwUeO79J++Pgr47v0n74+Cvju/Sfvj4K+O79J++Pgr47v0n74+CvjoXU
7k3enXNsDvNE6KfAlSAfvx8DvTHU0bTz8nLkT6HrVoOimC4T/ZBgf+IDOMMTGVHo9xGQIsMt4ZJK
ld2UN3azWs684LhGilXxRwVYfccbQRYpjsP5e6aESG4uri6tY6Bbd2RQVHQOyKrN9/zyIiAbcL+T
8d2d2SxW0UMSRRIscUYCoigBVUCgAA6AZJzgF3DFWI/mtp/1nyNqBCc5LcxzJQVI4yKGP0IWwS5K
kH/OO2olLq6sydvUDUr2kXj+tcrS+gMVdir5f/KhX1P81xfg1CteXbnrUSK6frlGEK+i+OFXccVd
xxVa7IgqxpiqDluZG2T4V/HCh1pILYXN424toJJTX/JFcZJeN+TOSz31yxqT6cYJ68t3f7+S5u+z
cX7q+8/d+C8/2pl/eAdw+9lP1s+OZ/hut8Ro3lASTQDqcfDXxEmv/OFrBVLf99IP2v2B9Pf6MzMX
Z8pbnYOFl7RjHaO5SG68w3d0f3spK9kGyj6BmfDSRjyDr8mslLmUP+kj45Z4LX47v0kfHHwV8d36
SPjj4K+O79JHxx8FfHd+kj44+Cvju/SR8cfBXx3fpI+OPgr47v0kfHHwV8d36SPjj4K+O79JHxx8
FfHZb+Sk4GuXtp0S4tZo0X3jkHH/AISucH2pi8PUTHnfz3fROy83iaeEvL7tno3DMNzncMVdwxV3
DFXcMVSnzbatP5V1iJV5u9lcBF8W9JuP44lXkH5H3Rg8zyLWnJEf/gHr/HK0vqDFVK8kaK0nlU8W
SNmDeBCk13xV82/84/Kp863Veo0+Ur8/Wh/hhCvoWmFXUxVTmlEYoN27DFUE/JzVjU4UNcMKoLzJ
N9V8oa1N05QeiP8AnsfT/wCN8jJLyvy2oTTi/QzSyOf9ifTH/CoM6zSY+HDEeX37/peR1suLNI+f
3bIy/wBVtbGH1Z3pX7KDdmPgBmbiwSmaDg5ckYCyw7VPMV3fMVr6dv2iU/8AEj3zb4dJGHmXT588
snkEu9f3zI4XG4Xev748K8LvX98eFeF3r++PCvC71/fHhXhd6/vjwrwu9f3x4V4Xev748K8LvX98
eFeF3r++PCvC71/fHhXhd6/vjwrwsw/KS99Dzra77SSFW+UsRRR/wS1ziPaXDw54y/nR+57v2ayX
pzH+bL73tUsXGV18GI+45z70KzhhV3DFXcMVdwxVZNEGhkDfZ4nkfAU3wK+dvylk4ebV3oWgcD51
XIJfV6nkoPiK4qgtd/44eo/8w03/ACbOKvl78qbie38yTTQO0ci2r8WU0P8AeR5ZjFlBe56f51da
Jfxcx/v6PZvpXp92SOPuW2RWeqWF6lbWZZHp/dk0b/gTvlZBCWniepLA1PfG1W+nhV3p4qxv8zrp
bTyS4Y0E9wgb/VRTIf8AiGMYmUgB1YylQJPR5hPqkOi6PbpL8U6xqiR92cKORPtXrnf4NMckqHIP
E5svALPMsMvNTuLydpp35OengB4AZvceEQFB02QmZsqHrZPhYcDvWx4V4HetjwrwO9bHhXgd62PC
vA71seFeB3rY8K8DvWx4V4HetjwrwO9bHhXgd62PCvA71seFeB3rY8K8Ce+Rr/6t5ospq0CSRyE/
8Y5VNPuY5yvtVh/dQn3Sr5/2PS+zc6nKPeL+X9r6XvIqXL+5r94ziQ9eoenhV3pnFV4t3oSfhUbl
jsMFqll5r+j2lR6n1qUfsRbr9LdPuyQgShjmr+aNSuraaOIi1hKN8EWzHbu/X7ssEAFt43+V3/KW
Rf8AGNv1jMdL6xtyTBGT1KKT92KqGqxCXS7yImgkgkUnwqhGKvlb8s2C6/MD+1bOB/waH+GWYuaC
9Oy9DYJBBBoR0IxVNLPzPrFqAom9aMfsS/H+P2vxyJgCm06tfOlm9Bd2zRn+eIhh9xpkDjPRbTW2
1fRrmnpXaBj+y/wH/hqZAxISx/8AM/RNT1bQraKwha5jgMklxHGQXYEAAIv7VQWzI0RAzwJIA4hz
cfVAnFIDuLwPXdP80G6kudS026tqmgEsMiKq9gOSjxz1DTZsHCBCcT7iHhM+HLdyjIfApNyOZtOL
TuRxpadyONLTuRxpadyONLTuRxpadyONLTuRxpadyONLTuRxpadyONLTuRxpadyONLS+KOeZwkKN
I56KgLH7hkZSjEWTTKMCeQZT5S8k+bbzV7cppd1HF8R9eWJ4ovsHq7gLnNe0Wqwz00oicTKxtYvm
7vsbT5I5xIxkI0d68n0rcSxIkcl1KkLFF9QuwUcqb0rTPPw9gldz5l0O3qBK1ww/ZjG33mg/HJiB
RaUXXnW4NVs7dIR/O/xt/AfryYx962kl5qeoXhrcztIP5SaL/wACKDJiICELhVTuSFtpWJoAjEn6
MSrzf8rIy3mtCP2YmP8AwyjMRk+rrcEQRg9Qqj8MVXOiujIwqrAhh4g4q+Tfy7VovNJhanL0pUb5
rQ7f8Dk8fNBeqenmQh3p4q708Vd6eKu9PFVaCe7tzWCZ4j/kMV/VgICpjB5m1uLb1/UHg6g/jQH8
ciYBNqs2v293/wAdLSrW88eaA/8AEw/hk4SnD6ZEfFhLHGXMAoSay/Ly7H+leWrePxMEUaHrXqnp
Zkx7Q1UeWSXzLjy0OA84R+SHbyV+Uc430t4T/MJLkfgJGGZEe3NbH+P7I/qaZdk6Y/wfaf1oZvyr
/KuYjhc3MW3QSkf8TjOWj2j1o6g/ANR7E0x6H5qTfkx+XL09PV7pK/zTQfxjGWj2o1Y6Q+R/W1ns
HB3y+f7Fg/I3yUxPDXJyPD1IDT7lyX+irVfzYfKX/FMf9D+Dvn8x+pY35E+U+R469KF7AmEn79sm
PavUdYQ+39aD7P4f50vs/UuT8ivKAHx67Mx8Q0I/gcifavU9Iw+Uv+KSPZ/D1lL7P1Np+SPkRa+p
rk7U7CW3H/GpwH2p1X82Hyl/xSR2Bg75fMfqVV/J/wDLOPd9Su3NN/30dP8AhYsrPtNrD/NHw/az
HYWn/pfNWi/Lf8poKcxPc0FKNJN9/wAATKpe0GtP8QHwj+psHY2mH8N/EohPLH5U27Vi0MyEUpya
Rxt/xklOUy7X1kueQ/YPuDbHszTD+AIpJPJ9sALPy1ZKV+y7QwhtvE8CT9+Y89XqJfVkmf8AOLfH
SYY8oR+QRB8136J6drBBbRj7KonT8afhmMY2bJtvAA5IKfXNZnrzu5AD2Q8P+I0wiISgGVnYsxLM
epO5ySGvTxV3p4q708Vd6eKoXVh6el3kn8kEjfchOA8lYB+UsXLzI7gfZhYe++/8MxWT6nUcVA8B
TFW8VfK2jxfUfzSuLU7CO9vLcgU7GRR+IyUOavVfSzIYu9LFXelirvSxVJdS82+WNLu2tNR1GG2u
VAJickGhFQemR4glC/8AKwvI3/V5t/vP9MeMK7/lYXkb/q82/wB5/pjxhXf8rC8jf9Xm3+8/0x4w
rv8AlYXkb/q82/3n+mPGFd/ysLyN/wBXm3+8/wBMeMK7/lYXkb/q82/3n+mPGFd/ysLyN/1ebf7z
/THjCu/5WF5G/wCrzb/ef6Y8YV3/ACsLyN/1ebf7z/THjCu/5WF5G/6vNv8Aef6Y8YV3/KwvI3/V
5t/vP9MeMK7/AJWF5G/6vNv95/pjxhXf8rC8jf8AV5t/vP8ATHjCu/5WF5G/6vNv95/pjxhXf8rC
8jf9Xm3+8/0x4wrv+VheRv8Aq82/3n+mPGFd/wArC8jf9Xm3+8/0x4wrv+VheRv+rzb/AHn+mPGF
TnS9Q0/VbUXenzrc2rMVWVOhK7H8cINqi/Swod6WKu9LFUp82kQ+WdTc97eRP+DHD/jbIyOyWJ/k
rbeprFw9P99qPpJB/WMx0vpbFXYq+ZfOcP6L/Oa4J+FGv4Zif8m4COx3/wBc4RzV6j6eZCHenirv
TxV3p4q+efzYj9bzjPINwY0p8t8x5c0sN+q+2BXfVfbFXfVfbFXfVfbFXfVfbFXfVfbFXfVfbFXf
VfbFXfVfbFXfVfbFXfVfbFXfVfbFXfVfbFXfVfbFXfVfbFXfVfbFXfVfbFXfVfbFXvn5NCnlGKH+
V5GA+cjZbjQWeenliu9PFXenirF/zLlEHlG6WtDO8Ua/8GGP4KchM7KhPyIsiZWmI3acUPsoB/Wp
ylL3zFXYq+eP+cgbB7TzpaahGOIu7VG5/wDFsLsp+5eGKvRLJ0urOC6T7E8aSr8nUMP15faFb0cV
d6OKrJ1EUEkn8ilvuFcbV88efYvV19n61iT+OUlLHfqvtgV6Z+WX5faRqOkTalrFr9YSaX07RGZ1
osY+JxwK15M3H/Y4qzH/AJVj5F/6tSf8jJv+a8Vd/wAqx8i/9WpP+Rk3/NeKu/5Vj5F/6tSf8jJv
+a8Vd/yrHyL/ANWpP+Rk3/NeKu/5Vj5F/wCrUn/Iyb/mvFXf8qx8i/8AVqT/AJGTf814q7/lWPkX
/q1J/wAjJv8AmvFXf8qx8i/9WpP+Rk3/ADXirv8AlWPkX/q1J/yMm/5rxV3/ACrHyL/1ak/5GTf8
14q7/lWPkX/q1J/yMm/5rxV3/KsfIv8A1ak/5GTf814q7/lWPkX/AKtSf8jJv+a8Vd/yrHyL/wBW
pP8AkZN/zXirx3zn5Y/QnmO7sUUi35CW16kelIOSAE9eNeJ9xiqSfVfbFXsn5QnhpsMP8wloPcSV
ycEPSPRyxXejirvRxV51+c1yI9M0+yrvNM0xHtEvH/mZkJlQyn8jtOMWmQSEUJVpSf8AW6fhJlaX
rOKuxV5P/wA5D6Objy5p+qIKtYXBjfbpHcL1P+zjUfTirvyyvRqHk2xJNZLYNbSe3pn4R/wBXLIn
ZDKvRyVq70cbVDalZTz6fcw268ppY2SNRTcsKU3wEq8r1z8pPO+o331mGxXhwC/HLEpqK9i2VpY7
qP5ZeadPu4bS5tkFxcU9KNZUYnk3EfZJ6nCIkq92s/J97punWWm2kIaCyt0hDhlAZ6cpHoTX4pGY
5FXHQdY/3x/w6f8ANWFVp0LWf98f8On/ADVirX6D1n/fP/Dp/wA1YqtOiaz/AL5/4dP+asVaOi61
/vn/AIdP+asVWnRda/30f+DT+uNK0dG1v/fR/wCDT+uGlWnR9b/30f8Ag0/rjStHSNb/AN9H/g0/
rjSrTpOuf77P/Bp/XGlWnStc/wB9n/g0/rjStHS9c/32f+DT+uNKtOma7/vs/wDBp/XDSoqw0nWZ
GaN4eTdVq6fT3wEKxH85PJl3Joun6yYeNxZu1rc7qSYZDzjYkHoshYf7LABasI0v8pPOOqWEN/ZW
sctrOOUb+tEK0JB2LVFCKYkUrPfIvkTzPo09ql/aenHCZTK6ujKAysR9lj44QrOvRyy0O9HG1d6O
Nq8T/Ny6N95wh06I1NrFHDx/4slPM/gy5XIpe1/lvpy2mjrQUUKqJ8qcv1EZFWX4q7FUp82aEmve
W9R0hqA3cLLEx6CUfFGx+TqDirxP8ldVez1XUPLt4DFJITLFG+xE0PwypT+Yrv8A7HJRKvYfTXxG
SQ7018RirggBqDQjocVX83/34fvOKsU8sxHXfOk2ovV7Wx+KMncVHwxfxf6MnPaNK9Hc0X55QlRJ
wqtJxVaThVaTiqwnFVpOKrScKrScVWE4qtJxQtJwqtJxVYTiq6CYxTJJ/Kd/l3xKplrukwazot5p
stPTu4mQN14sRVH/ANi1DkAaKXlf5T6rdQPqHlu7ZoriykaSOMncUbhKv+xen35bMdUPRCzkUMhp
8zkVW+mviMVd6a+IxVRvJ7aztJru4cJBbo0srnsqCpP3DFXz/wCXY5/MnnSbUpV2kmadh148yeC/
7EdPllaX0zodp9V0yGOlGI5sP9bcfcMVR2KuxV2KvGvzU/LvVrXWh5x8sKTOGE17BGBzWRf93IP2
g37a/TvU0VQWl/nRZ8Vh1myltbkbSPEOaV7nixV1+W+TElZHafmP5RugPT1OJCe03KKn/IwKMNhC
a2/mDTLkVt7yCYHp6ciN+onxwqhvMWrm20qXg1JJR6Sf7Lqfurkox3VPvy/0n6h5fjldaTXh9d/H
idkH/A7/AE5DIbKhP5Wq1PDIJUycVWk4VWk4qsJxVaTiq0nCq0nFVhOKrScULScKrScVWE4qtJxV
aThVO9Kn9W2Ck/FH8J+XbK5BLyD8yIJPKv5h2PmOFStnqHxXFOnJQI5xT3QhvnlsDYpDOG1OBIxI
8qrGRUOWABFK1qcaVAXPnHy7bV9fU7ZCOq+qhb/gQa4NlSa9/NryjbA8LmS6YfsQRsfxfgv44LCs
K8z+fNc822x0zS7J7fT5GHryMas4U1AZqBVFe2+RJSzT8rfI5tEVplqdnncjrXtv40oPbIq9cxV2
KuxV2KuxVj+s+QvK2r1a6sUEh6ugA38aUK/hirDdQ/IXQJiTaymMnpXkKf8AAmn4Yqx+7/5x/u1J
+rXPL/ZrT8VGKofyz5FmsfMC6HLKZZXkUTkdERRzYChI+zX6cvhtG0PeAEjjCqAqoKKo6ADYDKEo
cnCq0nCq0nFVhOKrScVWk4VWk4qsJxVaTihaThVaTiqwnFVpOKrScKrScVRWlXHpXYUn4ZPhPz7Y
JBUt/Njy4dc8mXaxJyu7H/S7anUmMHmv+yjLbeNMjA0UvDPJ3kY+aEkaGdvXibjJFsDSnwkEg7Uw
zFFQzez/ACHeo9bkR/lyA/8AEeByCsg078ldKtyDIIgR3A5n/hwf14qyrTvImh2fE8DIy9K7D+JH
34qyCGCGCMRwoEQdFUUxVfirsVdirsVdirsVdiqH1C9isbGe8l/u4EaRh48RWn09MIFlWF/lvZS3
Vxf69c/FNO5jjY+LHnIR+Ay3KeiAzedqAL9OVBKgThVaTiqwnFVpOKrScKrScVWE4qtJxQtJwqtJ
xVYTiq0nFVpOFVpOKrScVW8iDUbEd8VZPaTrcWqSdeQow9+hyshLwLT+fkT8259PHwWF1IPq46Ax
S/HF91TH9+WHcIfQSOrorqaqwDKfEHfKkt4q7FXYq7FXYq7FXYq7FXYq7FWF/mdqTRabb6bFUyXj
1dR1KRkED6XI+7LcQ3tBZLoOmLpmj2tiPtRIPUI7u3xOf+CJyEjZSjiiE1IqcirXpR/yjFWvRi/l
GKu9CH+UY2rX1eH+QY2rvq0H8gxtXfVoP5BhtWvqtv8A77GNq76pbf77GNq19Ttv99jG1d9Stf8A
fYxtWvqNp/voY2rvqNp/vpcbV31Cz/30uNq1+j7L/fK42Vd+jrL/AHyuNlWv0bY/75XGyqtDDFCv
CJQi1rQeOC1eR/8AOQvl9307T/MlsCJ7CQW87r1Ech5Rsf8AVkFP9llmM9EFm/5ceYF1vytaXNf3
gQCQeB6EfQwIyBFJZRgV2KuxV2KuxV2KuxV2KuxV2KsR89+Wb7Ufq+o6eSbu0FPTFeTAHkpT/KBy
yE65oLCzqXnYEg3V2COoLPk+OHcrX6T86/8ALXd/8G+PHDuV36T86/8ALXd/8G+PHDuV36T86/8A
LXd/8G+PHDuVadS879ru7/4N8eKHcq06j567Xl3/AMG+Dij3Kpm/8/dr27/4N8eKPcqw3v5g9r67
/wCRj48Ue5VhvPzE7X93/wAjHx4o9yrDdfmR21C7/wCRr48Ue5VhuPzL7ajd/wDI2THij3KsM35n
dtSu/wDkbJjxR7lWGX80e2p3f/I6T+mDiiqwv+avbVLv/kdJ/THiiqwn82O2q3f/ACOk/pjxRVYf
+Vt9tWu/+R8n9MeKKrCv5v8AbVrv/kfL/THiiqwx/nF21e7/AOR8v9MeKKrDF+cv/V4u/wDpIl/p
jxRVD32kfmtqVq9lqGpT3FnNQSwyzSOjcSGFVINaEA48UVeqflHod5o+nC1kqYlVuTEUHJmDfrr9
GVk2UvQ8CuxV2KuxV2KuxV2KuxV2KuxV2KuxV2KuxV2KuxV2KuxV2KuxV2KuxV2KuxV2KuxV2Kux
V2KuxV2KuxV2KuxV2KuxV2Kv/9k=</xapGImg:image></rdf:li></rdf:Alt></xap:Thumbnails></rdf:Description><rdf:Description
             rdf:about="uuid:bcb648b3-15a3-41a4-815d-774960d2ac54"><xapMM:DocumentID>
uuid:d239e853-732f-4c92-b61f-ae7afe52f4ba</xapMM:DocumentID></rdf:Description><rdf:Description
             rdf:about="uuid:bcb648b3-15a3-41a4-815d-774960d2ac54"><dc:format>
image/svg+xml</dc:format></rdf:Description><cc:Work
             rdf:about=""><dc:format>image/svg+xml</dc:format><dc:type
               rdf:resource="http://purl.org/dc/dcmitype/StillImage" /><dc:title /></cc:Work></rdf:RDF></metadata></x:xmpmeta><xpacket>end='w'    </xpacket></metadata><g
     id="Layer_2"
     transform="scale(2.6666667,2.6666667)"><path
       style="opacity:0.2"
       d="m 46.563,28.461 c 0,-2.711 -0.311,-7.57 -2.391,-9.65 -1.043,-1.041 -3.688,-1.793 -8.058,-2.299 -0.122,-0.659 -0.67,-1.16 -1.337,-1.219 -0.156,-0.014 -0.317,-0.026 -0.476,-0.04 l 0,-12.469 c 0,-0.4 -0.326,-0.726 -0.726,-0.726 l -18.552,0 c -0.4,0 -0.726,0.326 -0.726,0.726 l 0,12.479 c -0.155,0.014 -0.313,0.025 -0.466,0.039 -0.666,0.061 -1.215,0.562 -1.336,1.219 -4.391,0.509 -7.041,1.258 -8.073,2.29 -2.076,2.076 -2.386,6.985 -2.386,9.727 0,4.595 0.836,10.316 2.386,11.866 0.64,0.641 2.837,1.063 5.781,1.338 -1.394,3.528 -1.458,3.773 -1.458,4.01 0,0.4 0.326,0.727 0.726,0.727 l 29.768,0 c 0.4,0 0.726,-0.326 0.726,-0.727 0,-0.24 -0.067,-0.486 -1.508,-4.038 2.87,-0.271 5.092,-0.685 5.716,-1.31 1.648,-1.648 2.39,-7.977 2.39,-11.943 z"
       id="path1060"
       inkscape:connector-curvature="0" /><path
       style="opacity:0.2"
       d="m 46.199,28.244 c 0,-2.711 -0.31,-7.569 -2.391,-9.649 -1.043,-1.041 -3.687,-1.793 -8.058,-2.299 -0.122,-0.659 -0.669,-1.16 -1.336,-1.219 -0.156,-0.014 -0.318,-0.026 -0.477,-0.04 l 0,-12.469 c 0,-0.4 -0.325,-0.726 -0.726,-0.726 l -18.551,0 c -0.4,0 -0.726,0.326 -0.726,0.726 l 0,12.479 c -0.155,0.014 -0.313,0.025 -0.466,0.039 -0.666,0.061 -1.215,0.562 -1.336,1.219 -4.391,0.509 -7.041,1.258 -8.073,2.29 -2.076,2.076 -2.386,6.985 -2.386,9.727 0,4.596 0.836,10.317 2.386,11.867 0.64,0.64 2.837,1.063 5.781,1.337 -1.393,3.529 -1.458,3.773 -1.458,4.011 0,0.4 0.325,0.726 0.726,0.726 l 29.768,0 c 0.4,0 0.727,-0.325 0.727,-0.726 0,-0.24 -0.067,-0.487 -1.509,-4.038 2.87,-0.271 5.093,-0.686 5.716,-1.31 1.648,-1.65 2.389,-7.978 2.389,-11.945 z"
       id="path1061"
       inkscape:connector-curvature="0" /><linearGradient
       id="XMLID_15_"
       gradientUnits="userSpaceOnUse"
       x1="23.700701"
       y1="41.6758"
       x2="23.700701"
       y2="14.3296"><stop
         offset="0"
         style="stop-color:#616161"
         id="stop1063" /><stop
         offset="0.5225"
         style="stop-color:#555555"
         id="stop1064" /><stop
         offset="1"
         style="stop-color:#494949"
         id="stop1065" /><a:midPointStop
         offset="0"
         style="stop-color:#616161"
         id="midPointStop1066" /><a:midPointStop
         offset="0.5"
         style="stop-color:#616161"
         id="midPointStop1067" /><a:midPointStop
         offset="0.5225"
         style="stop-color:#555555"
         id="midPointStop1068" /><a:midPointStop
         offset="0.5"
         style="stop-color:#555555"
         id="midPointStop1069" /><a:midPointStop
         offset="1"
         style="stop-color:#494949"
         id="midPointStop1070" /></linearGradient><path
       style="fill:url(#XMLID_15_)"
       d="m 13.232,14.766 0,0 c -0.666,0.06 -1.215,0.561 -1.337,1.219 -4.391,0.509 -7.04,1.257 -8.072,2.29 -2.076,2.076 -2.386,6.985 -2.386,9.727 0,4.596 0.836,10.316 2.386,11.867 1.508,1.508 11.653,1.814 19.897,1.808 6.745,-0.005 18.292,-0.246 19.853,-1.808 1.648,-1.649 2.391,-7.979 2.391,-11.944 0,-2.711 -0.311,-7.569 -2.391,-9.649 -1.043,-1.042 -3.688,-1.793 -8.058,-2.3 -0.122,-0.659 -0.67,-1.16 -1.337,-1.219 -6.342,-0.573 -14.563,-0.569 -20.946,0.009 z m -1.337,1.22 0,10e-4 c 0,-10e-4 0,-10e-4 0,-10e-4 z"
       id="path1071"
       inkscape:connector-curvature="0" /><linearGradient
       id="XMLID_16_"
       gradientUnits="userSpaceOnUse"
       x1="23.700701"
       y1="40.502899"
       x2="23.700701"
       y2="29.894501"><stop
         offset="0"
         style="stop-color:#CECEDB"
         id="stop1073" /><stop
         offset="0.1854"
         style="stop-color:#E9E9EF"
         id="stop1074" /><stop
         offset="0.5225"
         style="stop-color:#CECEDB"
         id="stop1075" /><stop
         offset="1"
         style="stop-color:#B1B1C5"
         id="stop1076" /><a:midPointStop
         offset="0"
         style="stop-color:#CECEDB"
         id="midPointStop1077" /><a:midPointStop
         offset="0.5"
         style="stop-color:#CECEDB"
         id="midPointStop1078" /><a:midPointStop
         offset="0.1854"
         style="stop-color:#E9E9EF"
         id="midPointStop1079" /><a:midPointStop
         offset="0.5"
         style="stop-color:#E9E9EF"
         id="midPointStop1080" /><a:midPointStop
         offset="0.5225"
         style="stop-color:#CECEDB"
         id="midPointStop1081" /><a:midPointStop
         offset="0.5"
         style="stop-color:#CECEDB"
         id="midPointStop1082" /><a:midPointStop
         offset="1"
         style="stop-color:#B1B1C5"
         id="midPointStop1083" /></linearGradient><path
       style="fill:url(#XMLID_16_)"
       d="m 4.552,39.501 c 2.037,2.037 36.312,1.979 38.291,0 1.979,-1.979 3.491,-16.643 0,-20.134 -3.491,-3.492 -34.857,-3.434 -38.291,0 -3.433,3.433 -2.036,18.098 0,20.134 z"
       id="path1084"
       inkscape:connector-curvature="0" /><linearGradient
       id="XMLID_17_"
       gradientUnits="userSpaceOnUse"
       x1="23.7017"
       y1="32.068401"
       x2="23.7017"
       y2="1.5501"><stop
         offset="0"
         style="stop-color:#F7F7F7"
         id="stop1086" /><stop
         offset="0.2346"
         style="stop-color:#F3F3F4"
         id="stop1087" /><stop
         offset="0.4771"
         style="stop-color:#E6E6EB"
         id="stop1088" /><stop
         offset="0.723"
         style="stop-color:#D2D2DC"
         id="stop1089" /><stop
         offset="0.9701"
         style="stop-color:#B5B5C8"
         id="stop1090" /><stop
         offset="1"
         style="stop-color:#B1B1C5"
         id="stop1091" /><a:midPointStop
         offset="0"
         style="stop-color:#F7F7F7"
         id="midPointStop1092" /><a:midPointStop
         offset="0.7006"
         style="stop-color:#F7F7F7"
         id="midPointStop1093" /><a:midPointStop
         offset="1"
         style="stop-color:#B1B1C5"
         id="midPointStop1094" /></linearGradient><path
       style="fill:url(#XMLID_17_)"
       d="m 23.701,31.341 c 8.459,0 16.045,-1.652 21.208,-4.268 -0.118,-3.434 -0.72,-6.563 -2.066,-7.964 -3.491,-3.633 -34.857,-3.572 -38.291,0 -1.329,1.383 -1.934,4.52 -2.059,7.965 5.164,2.615 12.75,4.267 21.208,4.267 z"
       id="path1095"
       inkscape:connector-curvature="0" /><linearGradient
       id="XMLID_18_"
       gradientUnits="userSpaceOnUse"
       x1="23.7017"
       y1="31.458"
       x2="23.7017"
       y2="2.1292"><stop
         offset="0"
         style="stop-color:#F7F7F7"
         id="stop1097" /><stop
         offset="0.5056"
         style="stop-color:#BDBDCF"
         id="stop1098" /><stop
         offset="1"
         style="stop-color:#B1B1C5"
         id="stop1099" /><a:midPointStop
         offset="0"
         style="stop-color:#F7F7F7"
         id="midPointStop1100" /><a:midPointStop
         offset="0.5085"
         style="stop-color:#F7F7F7"
         id="midPointStop1101" /><a:midPointStop
         offset="0.5056"
         style="stop-color:#BDBDCF"
         id="midPointStop1102" /><a:midPointStop
         offset="0.5"
         style="stop-color:#BDBDCF"
         id="midPointStop1103" /><a:midPointStop
         offset="1"
         style="stop-color:#B1B1C5"
         id="midPointStop1104" /></linearGradient><path
       style="fill:url(#XMLID_18_)"
       d="m 23.701,30.759 c 8.459,0 16.045,-1.588 21.208,-4.101 -0.118,-3.301 -0.72,-6.308 -2.066,-7.654 -3.491,-3.492 -34.857,-3.434 -38.291,0 -1.329,1.329 -1.934,4.343 -2.059,7.655 5.164,2.513 12.75,4.1 21.208,4.1 z"
       id="path1105"
       inkscape:connector-curvature="0" /><rect
       x="8.8050003"
       y="36.877998"
       style="opacity:0.8;fill:#ffffff"
       width="30.013"
       height="0.74800003"
       id="rect1106" /><linearGradient
       id="XMLID_19_"
       gradientUnits="userSpaceOnUse"
       x1="20.9858"
       y1="39.3223"
       x2="31.818399"
       y2="50.1548"><stop
         offset="0"
         style="stop-color:#9A9AB1"
         id="stop1108" /><stop
         offset="1"
         style="stop-color:#585868"
         id="stop1109" /><a:midPointStop
         offset="0"
         style="stop-color:#9A9AB1"
         id="midPointStop1110" /><a:midPointStop
         offset="0.5"
         style="stop-color:#9A9AB1"
         id="midPointStop1111" /><a:midPointStop
         offset="1"
         style="stop-color:#585868"
         id="midPointStop1112" /></linearGradient><path
       style="fill:url(#XMLID_19_)"
       d="m 12.828,34.119 c -0.37,0 -0.689,0.403 -0.728,0.765 0.001,-0.013 0.002,-0.026 0.002,-0.039 0,-0.014 -0.012,-0.022 -0.014,-0.036 -0.154,0.506 -0.949,2.521 -1.901,4.923 -1.961,4.944 -2.042,5.218 -2.042,5.484 0,0.4 0.325,0.726 0.726,0.726 l 29.769,0 c 0.399,0 0.726,-0.325 0.726,-0.726 0,-0.27 -0.083,-0.543 -2.087,-5.463 -0.844,-2.071 -1.563,-3.845 -1.854,-4.637 -0.065,-0.058 -0.11,-0.138 -0.121,-0.231 -0.039,-0.361 -0.359,-0.766 -0.728,-0.766 l -21.748,0 z m -1.403,0.597 c 0.032,0.138 0.125,0.256 0.271,0.283 0.166,0.03 0.315,-0.067 0.382,-0.216 -0.029,-0.152 -0.138,-0.281 -0.301,-0.299 -0.162,-0.017 -0.291,0.088 -0.352,0.232 z"
       id="path1113"
       inkscape:connector-curvature="0" /><linearGradient
       id="XMLID_20_"
       gradientUnits="userSpaceOnUse"
       x1="23.7017"
       y1="31.960899"
       x2="23.7017"
       y2="37.149399"><stop
         offset="0"
         style="stop-color:#B2B2B2"
         id="stop1115" /><stop
         offset="1"
         style="stop-color:#828282"
         id="stop1116" /><a:midPointStop
         offset="0"
         style="stop-color:#B2B2B2"
         id="midPointStop1117" /><a:midPointStop
         offset="0.5"
         style="stop-color:#B2B2B2"
         id="midPointStop1118" /><a:midPointStop
         offset="1"
         style="stop-color:#828282"
         id="midPointStop1119" /></linearGradient><path
       style="opacity:0.8;fill:url(#XMLID_20_)"
       d="m 37.896,31.961 0,5.188 c 0.366,0 0.622,0 0.741,0 10e-4,-1.276 -0.741,-5.188 -0.741,-5.188 z m -29.13,5.188 c 0.133,0 0.385,0 0.733,0 l 0,-5.188 c 0,0 -0.733,3.912 -0.733,5.188 z"
       id="path1120"
       inkscape:connector-curvature="0" /><linearGradient
       id="XMLID_21_"
       gradientUnits="userSpaceOnUse"
       x1="23.6978"
       y1="37.0439"
       x2="23.6978"
       y2="32.7383"><stop
         offset="0"
         style="stop-color:#666666"
         id="stop1122" /><stop
         offset="1"
         style="stop-color:#333333"
         id="stop1123" /><a:midPointStop
         offset="0"
         style="stop-color:#666666"
         id="midPointStop1124" /><a:midPointStop
         offset="0.5"
         style="stop-color:#666666"
         id="midPointStop1125" /><a:midPointStop
         offset="1"
         style="stop-color:#333333"
         id="midPointStop1126" /></linearGradient><rect
       x="9.4989996"
       y="32.737999"
       style="fill:url(#XMLID_21_)"
       width="28.396999"
       height="4.3060002"
       id="rect1127" /><path
       style="opacity:0.5;fill:#ffffff"
       d="m 34.065,19.702 c 3.383,0 6.63,0.213 9.653,0.604 -0.248,-0.523 -0.538,-0.965 -0.876,-1.302 -3.491,-3.492 -34.857,-3.434 -38.291,0 -1.329,1.329 -1.934,4.343 -2.059,7.655 0.956,0.465 1.995,0.899 3.106,1.296 3.172,-4.74 14.713,-8.253 28.467,-8.253 z"
       id="path1128"
       inkscape:connector-curvature="0" /><g
       id="g1129"><circle
         style="fill:#336666"
         cx="39.937"
         cy="22.176001"
         r="0.972"
         id="circle1130" /><linearGradient
         id="XMLID_22_"
         gradientUnits="userSpaceOnUse"
         x1="-6.4966002"
         y1="-38.180698"
         x2="-6.3817"
         y2="-37.491199"
         gradientTransform="matrix(0.7071,-0.7071,0.7071,0.7071,71.522,44.5771)"><stop
           offset="0"
           style="stop-color:#72C296"
           id="stop1132" /><stop
           offset="1"
           style="stop-color:#009F81"
           id="stop1133" /><a:midPointStop
           offset="0"
           style="stop-color:#72C296"
           id="midPointStop1134" /><a:midPointStop
           offset="0.5"
           style="stop-color:#72C296"
           id="midPointStop1135" /><a:midPointStop
           offset="1"
           style="stop-color:#009F81"
           id="midPointStop1136" /></linearGradient><path
         style="fill:url(#XMLID_22_)"
         d="m 40.235,21.398 c -0.359,0.031 -0.888,0.397 -1.061,0.843 -0.171,0.445 0.103,0.744 0.462,0.713 0.36,-0.03 0.89,-0.397 1.061,-0.842 0.171,-0.445 -0.103,-0.744 -0.462,-0.714 z"
         id="path1137"
         inkscape:connector-curvature="0" /><linearGradient
         id="XMLID_23_"
         gradientUnits="userSpaceOnUse"
         x1="-6.3134999"
         y1="-38.7192"
         x2="-6.3134999"
         y2="-38.1609"
         gradientTransform="matrix(0.7071,-0.7071,0.7071,0.7071,71.522,44.5771)"><stop
           offset="0"
           style="stop-color:#FFFFFF"
           id="stop1139" /><stop
           offset="1"
           style="stop-color:#33CC66"
           id="stop1140" /><a:midPointStop
           offset="0"
           style="stop-color:#FFFFFF"
           id="midPointStop1141" /><a:midPointStop
           offset="0.5"
           style="stop-color:#FFFFFF"
           id="midPointStop1142" /><a:midPointStop
           offset="1"
           style="stop-color:#33CC66"
           id="midPointStop1143" /></linearGradient><path
         style="fill:url(#XMLID_23_)"
         d="m 40.238,21.388 c -0.306,0.027 -0.763,0.34 -0.918,0.719 -0.029,0.071 -0.045,0.137 -0.049,0.198 0.214,-0.056 0.437,-0.135 0.646,-0.233 0.38,-0.178 0.624,-0.376 0.683,-0.531 -0.075,-0.109 -0.208,-0.167 -0.362,-0.153 z"
         id="path1144"
         inkscape:connector-curvature="0" /></g><path
       style="fill:#ffffff"
       d="m 44.908,26.618 c -0.016,-0.396 -0.036,-0.787 -0.065,-1.172 0.029,0.385 0.05,0.777 0.065,1.172 z"
       id="path1145"
       inkscape:connector-curvature="0" /><path
       style="fill:#ffffff"
       d="m 44.908,26.618 c 0,0.013 0,0.027 0,0.04 10e-4,0 10e-4,0 10e-4,0 0,-0.013 -10e-4,-0.027 -10e-4,-0.04 z"
       id="path1146"
       inkscape:connector-curvature="0" /><path
       style="fill:#ffffff"
       d="M 36.536,29.442 C 35.99,25.495 35.198,20.019 34.503,16.164 34.465,15.957 34.295,15.802 34.087,15.783 27.799,15.217 19.649,15.22 13.326,15.794 c -0.208,0.019 -0.378,0.174 -0.416,0.38 -0.704,3.858 -1.521,9.323 -2.086,13.261 3.859,0.845 8.236,1.324 12.877,1.324 4.623,0 8.986,-0.476 12.835,-1.317 z"
       id="path1147"
       inkscape:connector-curvature="0" /><linearGradient
       id="XMLID_24_"
       gradientUnits="userSpaceOnUse"
       x1="23.679199"
       y1="30.654301"
       x2="23.679199"
       y2="15.8262"><stop
         offset="0"
         style="stop-color:#949494"
         id="stop1149" /><stop
         offset="1"
         style="stop-color:#616161"
         id="stop1150" /><a:midPointStop
         offset="0"
         style="stop-color:#949494"
         id="midPointStop1151" /><a:midPointStop
         offset="0.5"
         style="stop-color:#949494"
         id="midPointStop1152" /><a:midPointStop
         offset="1"
         style="stop-color:#616161"
         id="midPointStop1153" /></linearGradient><path
       style="fill:url(#XMLID_24_)"
       d="m 13.368,16.254 c -0.73,3.973 -1.588,9.725 -2.096,13.233 3.774,0.749 7.986,1.167 12.429,1.167 4.427,0 8.623,-0.416 12.385,-1.158 -0.488,-3.51 -1.318,-9.275 -2.041,-13.253 -6.286,-0.562 -14.39,-0.555 -20.677,0.011 z"
       id="path1154"
       inkscape:connector-curvature="0" /><linearGradient
       id="XMLID_25_"
       gradientUnits="userSpaceOnUse"
       x1="23.700701"
       y1="4.5127001"
       x2="23.700701"
       y2="19.908199"><stop
         offset="0"
         style="stop-color:#9A9AB1"
         id="stop1156" /><stop
         offset="1"
         style="stop-color:#585868"
         id="stop1157" /><a:midPointStop
         offset="0"
         style="stop-color:#9A9AB1"
         id="midPointStop1158" /><a:midPointStop
         offset="0.5"
         style="stop-color:#9A9AB1"
         id="midPointStop1159" /><a:midPointStop
         offset="1"
         style="stop-color:#585868"
         id="midPointStop1160" /></linearGradient><path
       style="fill:url(#XMLID_25_)"
       d="m 14.424,1.522 c -0.401,0 -0.726,0.325 -0.726,0.726 l 0,22.626 c 0,0.4 0.325,0.726 0.726,0.726 l 18.552,0 c 0.4,0 0.727,-0.325 0.727,-0.726 l 0,-22.626 c 0,-0.401 -0.326,-0.726 -0.727,-0.726 l -18.552,0 z"
       id="path1161"
       inkscape:connector-curvature="0" /><path
       style="fill:#ffffff"
       d="m 14.424,2.248 c 0,0.406 0,22.221 0,22.626 0.404,0 18.149,0 18.552,0 0,-0.405 0,-22.22 0,-22.626 -0.403,0 -18.148,0 -18.552,0 z"
       id="path1162"
       inkscape:connector-curvature="0" /><linearGradient
       id="XMLID_26_"
       gradientUnits="userSpaceOnUse"
       x1="12.6787"
       y1="2.5386"
       x2="32.335499"
       y2="22.195601"><stop
         offset="0.3202"
         style="stop-color:#FFFFFF"
         id="stop1164" /><stop
         offset="0.6236"
         style="stop-color:#E6EEF6"
         id="stop1165" /><stop
         offset="0.9382"
         style="stop-color:#CECEDB"
         id="stop1166" /><a:midPointStop
         offset="0.3202"
         style="stop-color:#FFFFFF"
         id="midPointStop1167" /><a:midPointStop
         offset="0.5"
         style="stop-color:#FFFFFF"
         id="midPointStop1168" /><a:midPointStop
         offset="0.6236"
         style="stop-color:#E6EEF6"
         id="midPointStop1169" /><a:midPointStop
         offset="0.5"
         style="stop-color:#E6EEF6"
         id="midPointStop1170" /><a:midPointStop
         offset="0.9382"
         style="stop-color:#CECEDB"
         id="midPointStop1171" /></linearGradient><path
       style="fill:url(#XMLID_26_)"
       d="m 15.875,3.699 c 0,2.369 0,17.355 0,19.723 2.257,0 13.393,0 15.65,0 0,-2.368 0,-17.354 0,-19.723 -2.256,0 -13.392,0 -15.65,0 z"
       id="path1172"
       inkscape:connector-curvature="0" /><path
       style="fill:#ffffff"
       d="m 12.828,34.845 c 0,0.396 -3.957,9.976 -3.957,10.371 0.994,0 28.775,0 29.768,0 0,-0.396 -4.064,-9.976 -4.064,-10.371 -0.993,0 -20.753,0 -21.747,0 z"
       id="path1173"
       inkscape:connector-curvature="0" /><linearGradient
       id="XMLID_27_"
       gradientUnits="userSpaceOnUse"
       x1="14.5005"
       y1="32.291"
       x2="35.789902"
       y2="53.580601"><stop
         offset="0"
         style="stop-color:#FFFFFF"
         id="stop1175" /><stop
         offset="1"
         style="stop-color:#CECEDB"
         id="stop1176" /><a:midPointStop
         offset="0"
         style="stop-color:#FFFFFF"
         id="midPointStop1177" /><a:midPointStop
         offset="0.5"
         style="stop-color:#FFFFFF"
         id="midPointStop1178" /><a:midPointStop
         offset="1"
         style="stop-color:#CECEDB"
         id="midPointStop1179" /></linearGradient><path
       style="fill:url(#XMLID_27_)"
       d="m 13.871,36.297 c -0.294,0.784 -0.797,2.064 -1.67,4.265 -0.403,1.016 -0.882,2.224 -1.262,3.202 3.31,0 22.275,0 25.614,0 -0.39,-0.977 -0.879,-2.178 -1.291,-3.189 -0.9,-2.209 -1.418,-3.493 -1.72,-4.277 -1.781,-0.001 -17.876,-0.001 -19.671,-0.001 z"
       id="path1180"
       inkscape:connector-curvature="0" /><path
       style="fill:#0053bd"
       d="m 13.77,19.497 c -0.702,2.889 -1.526,7.071 -2.014,9.622 3.626,0.544 7.674,0.849 11.945,0.849 4.254,0 8.287,-0.303 11.903,-0.843 -0.47,-2.552 -1.269,-6.743 -1.963,-9.635 -6.042,-0.41 -13.829,-0.404 -19.871,0.007 z"
       id="path1181"
       inkscape:connector-curvature="0" /><linearGradient
       id="XMLID_28_"
       gradientUnits="userSpaceOnUse"
       x1="23.679199"
       y1="19.6987"
       x2="23.679199"
       y2="28.9786"><stop
         offset="0"
         style="stop-color:#F7F7F7"
         id="stop1183" /><stop
         offset="0.0425"
         style="stop-color:#E5F0F8"
         id="stop1184" /><stop
         offset="0.3388"
         style="stop-color:#6BC2FC"
         id="stop1185" /><stop
         offset="0.5419"
         style="stop-color:#1EA4FE"
         id="stop1186" /><stop
         offset="0.6348"
         style="stop-color:#0099FF"
         id="stop1187" /><stop
         offset="1"
         style="stop-color:#006DFF"
         id="stop1188" /><a:midPointStop
         offset="0"
         style="stop-color:#F7F7F7"
         id="midPointStop1189" /><a:midPointStop
         offset="0.4689"
         style="stop-color:#F7F7F7"
         id="midPointStop1190" /><a:midPointStop
         offset="0.6348"
         style="stop-color:#0099FF"
         id="midPointStop1191" /><a:midPointStop
         offset="0.5"
         style="stop-color:#0099FF"
         id="midPointStop1192" /><a:midPointStop
         offset="1"
         style="stop-color:#006DFF"
         id="midPointStop1193" /></linearGradient><path
       style="fill:url(#XMLID_28_)"
       d="m 13.77,19.981 c -0.702,2.92 -1.526,7.147 -2.014,9.728 3.626,0.55 7.674,0.857 11.945,0.857 4.254,0 8.287,-0.306 11.903,-0.852 -0.47,-2.58 -1.269,-6.817 -1.963,-9.741 C 27.599,19.56 19.812,19.565 13.77,19.981 Z"
       id="path1194"
       inkscape:connector-curvature="0" /><path
       style="opacity:0.4;fill:#ffffff"
       d="m 33.717,21.215 c 0.067,0 0.135,0.001 0.203,0.002 -0.095,-0.431 -0.188,-0.847 -0.279,-1.238 -6.042,-0.421 -13.829,-0.416 -19.871,0.008 -0.669,2.832 -1.448,6.869 -1.942,9.514 3.244,-4.834 11.819,-8.286 21.889,-8.286 z"
       id="path1195"
       inkscape:connector-curvature="0" /><path
       style="opacity:0.2"
       d="m 35.055,37.121 c -0.293,-1.339 -0.479,-2.25 -0.479,-2.401 -0.993,0 -20.753,0 -21.747,0 0,0.151 -0.182,1.063 -0.466,2.401 l 22.692,0 z"
       id="path1196"
       inkscape:connector-curvature="0" /><polyline
       id="_x3C_Slice_x3E_"
       style="fill:none"
       points="0,48 0,0 48,0 48,48 " /></g></svg>