<?xml version="1.0" encoding="UTF-8" standalone="no"?>
<!DOCTYPE svg PUBLIC "-//W3C//DTD SVG 1.1//EN" "http://www.w3.org/Graphics/SVG/1.1/DTD/svg11.dtd">
<svg width="48pt" height="48pt" viewBox="0 0 48 48" style="enable-background:new 0 0 48 48" xmlns="http://www.w3.org/2000/svg" xmlns:xlink="http://www.w3.org/1999/xlink">
<defs>
<linearGradient id="XMLID_6_" y2="1.8302" gradientUnits="userSpaceOnUse" x2="24" y1="43.646" x1="24">
  <stop stop-color="#824F26" offset=".0056"/>
  <stop stop-color="#C77700" offset="1"/>
</linearGradient>
<linearGradient id="XMLID_7_" y2="2.9206" gradientUnits="userSpaceOnUse" x2="23.92" y1="29.357" x1="23.92">
  <stop stop-color="#FFAE00" offset="0"/>
  <stop stop-color="#FFFFDE" offset="1"/>
</linearGradient>
<linearGradient id="XMLID_8_" y2="32.399" gradientUnits="userSpaceOnUse" x2="8.8548" y1="18.899" x1="24.042">
  <stop stop-color="#FFAE00" offset="0"/>
  <stop stop-color="#FFFFDE" offset="1"/>
</linearGradient>
<linearGradient id="XMLID_9_" y2="9.008" gradientUnits="userSpaceOnUse" x2="25.52" y1="35.867" x1="37.541">
  <stop stop-color="#FFFFA2" offset=".0056"/>
  <stop stop-color="#FFAE00" offset="1"/>
</linearGradient>
<linearGradient id="XMLID_10_" y2="6.6709" gradientUnits="userSpaceOnUse" x2="23.871" y1="11.92" x1="23.871">
  <stop stop-color="#FF6D00" offset="0"/>
  <stop stop-color="#D3630D" offset=".2261"/>
  <stop stop-color="#B05A18" offset=".4495"/>
  <stop stop-color="#975420" offset=".6586"/>
  <stop stop-color="#875024" offset=".8479"/>
  <stop stop-color="#824F26" offset="1"/>
</linearGradient>
</defs>
<path opacity=".2" d="m24.6 3.18l-20.232 7.484c-0.294 0.109-0.49 0.39-0.49 0.704v26.695c0 0.316 0.198 0.599 0.495 0.706l0.432 0.156 20.15 7.396c0.163 0.06 0.343 0.061 0.508 0.003l20.032-7.044c0.301-0.105 0.501-0.389 0.501-0.707v-27.51c0-0.318-0.2-0.602-0.5-0.708l-20.387-7.18c-0.164-0.057-0.345-0.056-0.509 0.005z"/>
<path opacity=".2" d="m24.225 2.805l-20.232 7.484c-0.294 0.109-0.49 0.39-0.49 0.704v26.695c0 0.316 0.198 0.599 0.495 0.706l0.432 0.156 20.15 7.396c0.163 0.06 0.343 0.061 0.508 0.003l20.032-7.044c0.301-0.105 0.501-0.389 0.501-0.707v-27.51c0-0.318-0.2-0.602-0.5-0.708l-20.386-7.18c-0.165-0.057-0.346-0.056-0.51 0.005z"/>
<path fill="url(#XMLID_6_)" d="m23.663 2.43l-20.232 7.484c-0.294 0.109-0.49 0.39-0.49 0.704v26.695c0 0.316 0.198 0.599 0.495 0.706l0.432 0.156 20.15 7.396c0.164 0.06 0.343 0.061 0.508 0.003l20.032-7.044c0.301-0.105 0.501-0.389 0.501-0.707v-27.51c0-0.318-0.2-0.602-0.5-0.708l-20.386-7.18c-0.166-0.057-0.346-0.056-0.51 0.005z"/>
<polygon points="23.989 11.065 4.334 11.065 4.334 37.07 4.349 37.07 23.92 44.311 23.989 44.285" fill="#febf59"/>
<polygon points="23.989 11.065 23.989 44.285 23.92 44.311 43.491 37.07 43.666 37.07 43.666 11.065" fill="#fff"/>
<polygon points="4.334 11.065 23.92 18.311 43.506 11.065 23.92 3.82" fill="#fff"/>
<path fill="#fff" d="m4.334 11.065m19.586 7.246l-19.586-7.246v25.802h0.015l19.571 7.239 0.069-0.025v-25.795l-0.069 0.025z"/>
<path fill="url(#XMLID_7_)" d="m23.92 3.82l-19.311 7.144c3.172 1.173 6.345 2.347 9.518 3.521 2.17 0.803 4.34 1.605 6.51 2.408 0.884 0.327 2.323 1.214 3.283 1.214 0.831 0 2.078-0.768 2.843-1.051 2.317-0.857 4.634-1.714 6.95-2.571 3.173-1.173 6.345-2.347 9.518-3.521l-19.311-7.144z"/>
<path fill="url(#XMLID_8_)" d="m4.334 11.695v25.249h0.015l19.204 7.112c0.004-8.374 0.243-17.074-0.068-25.269-6.384-2.363-12.768-4.727-19.151-7.092z"/>
<path fill="url(#XMLID_9_)" d="m24.441 44.183l19.051-7.023h0.174v-25.19c-2.207 0.768-18.723 6.53-19.097 7.044-0.392 0.536-0.14 24.093-0.128 25.169z"/>
<path fill="url(#XMLID_10_)" d="m24.035 10.982l19.265-0.046-19.359-1.172v-6.047s-0.781 5.729-0.984 6-18.516 1.265-18.516 1.265l18.469-0.281 0.938 7.453 0.187-7.172z"/>
<polyline points="0 48 0 0 48 0 48 48" fill="none"/>
</svg>
