<?xml version="1.0" encoding="UTF-8" standalone="no"?>
<!-- Created with Inkscape (http://www.inkscape.org/) -->

<svg
   xmlns:dc="http://purl.org/dc/elements/1.1/"
   xmlns:cc="http://creativecommons.org/ns#"
   xmlns:rdf="http://www.w3.org/1999/02/22-rdf-syntax-ns#"
   xmlns:svg="http://www.w3.org/2000/svg"
   xmlns="http://www.w3.org/2000/svg"
   xmlns:xlink="http://www.w3.org/1999/xlink"
   xmlns:sodipodi="http://sodipodi.sourceforge.net/DTD/sodipodi-0.dtd"
   xmlns:inkscape="http://www.inkscape.org/namespaces/inkscape"
   width="128"
   height="128"
   viewBox="0 0 128 128"
   id="svg4218"
   version="1.1"
   inkscape:version="0.91 r13725"
   sodipodi:docname="shared_setting.svg">
  <defs
     id="defs4220">
    <linearGradient
       inkscape:collect="always"
       xlink:href="#linearGradient4673"
       id="linearGradient4679"
       x1="215.41988"
       y1="129.51402"
       x2="228.56911"
       y2="28.799734"
       gradientUnits="userSpaceOnUse" />
    <linearGradient
       inkscape:collect="always"
       id="linearGradient4673">
      <stop
         style="stop-color:#007590;stop-opacity:1;"
         offset="0"
         id="stop4675" />
      <stop
         style="stop-color:#005a8c;stop-opacity:1"
         offset="1"
         id="stop4677" />
    </linearGradient>
    <linearGradient
       gradientTransform="matrix(0.86698477,0,0,0.86698477,23.39458,15.899244)"
       gradientUnits="userSpaceOnUse"
       y2="85.563477"
       x2="211.45731"
       y1="85.563477"
       x1="199.92903"
       id="linearGradient7618"
       xlink:href="#linearGradient7610"
       inkscape:collect="always" />
    <linearGradient
       inkscape:collect="always"
       id="linearGradient7610">
      <stop
         style="stop-color:#0088aa;stop-opacity:1;"
         offset="0"
         id="stop13016" />
      <stop
         style="stop-color:#006680;stop-opacity:1"
         offset="1"
         id="stop13018" />
    </linearGradient>
  </defs>
  <sodipodi:namedview
     id="base"
     pagecolor="#ffffff"
     bordercolor="#666666"
     borderopacity="1.0"
     inkscape:pageopacity="0.0"
     inkscape:pageshadow="2"
     inkscape:zoom="2.8"
     inkscape:cx="57.37411"
     inkscape:cy="60.467762"
     inkscape:document-units="px"
     inkscape:current-layer="layer1"
     showgrid="false"
     units="px"
     inkscape:window-width="1325"
     inkscape:window-height="747"
     inkscape:window-x="41"
     inkscape:window-y="21"
     inkscape:window-maximized="1" />
  <metadata
     id="metadata4223">
    <rdf:RDF>
      <cc:Work
         rdf:about="">
        <dc:format>image/svg+xml</dc:format>
        <dc:type
           rdf:resource="http://purl.org/dc/dcmitype/StillImage" />
        <dc:title></dc:title>
      </cc:Work>
    </rdf:RDF>
  </metadata>
  <g
     inkscape:label="Capa 1"
     inkscape:groupmode="layer"
     id="layer1"
     transform="translate(0,-924.36216)">
    <g
       transform="translate(-159.95155,901.1941)"
       id="g4779"
       inkscape:export-filename="/var/www/chamilo11/main/img/icons/32/shared_setting.png"
       inkscape:export-xdpi="22.500002"
       inkscape:export-ydpi="22.500002">
      <rect
         y="23.168062"
         x="159.95155"
         height="128"
         width="128"
         id="rect4647"
         style="opacity:0;fill:#e6e6e6;fill-opacity:1;stroke:none;stroke-width:2;stroke-linecap:round;stroke-linejoin:round;stroke-miterlimit:4;stroke-dasharray:2, 4;stroke-dashoffset:0;stroke-opacity:1" />
      <g
         id="g4763">
        <g
           id="g4723"
           transform="matrix(1.033652,0,0,1.033652,-8.4667815,-0.55918151)">
          <rect
             y="52.272556"
             x="168.569"
             height="74.215225"
             width="111.16219"
             id="rect4408"
             style="opacity:1;fill:#ffffff;fill-opacity:1;stroke:none;stroke-width:2;stroke-linecap:round;stroke-linejoin:round;stroke-miterlimit:4;stroke-dasharray:2, 4;stroke-dashoffset:0;stroke-opacity:1" />
          <rect
             y="43.790775"
             x="247.67857"
             height="7.5"
             width="20.714285"
             id="rect4681"
             style="opacity:1;fill:#ffffff;fill-opacity:1;stroke:none;stroke-width:2;stroke-linecap:round;stroke-linejoin:round;stroke-miterlimit:4;stroke-dasharray:2, 4;stroke-dashoffset:0;stroke-opacity:1" />
          <rect
             transform="scale(-1,1)"
             style="opacity:1;fill:#ff302a;fill-opacity:1;stroke:none;stroke-width:2;stroke-linecap:round;stroke-linejoin:round;stroke-miterlimit:4;stroke-dasharray:2, 4;stroke-dashoffset:0;stroke-opacity:1"
             id="rect4683"
             width="8.2142868"
             height="7.5"
             x="-276.60715"
             y="43.790775" />
          <path
             inkscape:connector-curvature="0"
             d="m 273.10723,37.83381 -96.51378,0 c -6.16875,0.01412 -11.16459,5.009971 -11.17358,11.176152 l 0,71.722398 c 0.009,6.16618 5.00526,11.16674 11.17358,11.17615 l 96.51421,0 c 6.16575,-0.009 11.16674,-5.00997 11.17573,-11.17615 l 0,-71.721971 c -0.009,-6.166608 -5.00998,-11.162458 -11.17616,-11.176579 z m -1.18402,7.164925 c 1.40226,0 2.54007,1.137381 2.54007,2.539646 0,1.402259 -1.13738,2.539641 -2.54007,2.539641 -1.40441,0 -2.53965,-1.137382 -2.53965,-2.539641 0,-1.402265 1.13524,-2.539646 2.53965,-2.539646 z m -19.96071,0.148058 12.49026,0 c 1.32096,0 2.38859,1.072767 2.38859,2.391156 0,1.318822 -1.06763,2.386455 -2.38859,2.386455 l -12.49026,0 c -1.32096,0 -2.38902,-1.068059 -2.38902,-2.386455 0,-1.318389 1.06806,-2.391156 2.38902,-2.391156 z m 26.22659,75.585567 c -0.004,2.77671 -2.30772,5.07972 -5.08186,5.07972 l -96.51378,0 c -2.772,0 -5.07287,-2.30301 -5.07972,-5.07972 l 0,-64.562612 106.67579,0 0,64.562612 z"
             style="fill:url(#linearGradient4679);fill-opacity:1"
             id="path4321" />
        </g>
        <g
           transform="matrix(0.625,0,0,0.625,183.95156,-530.55829)"
           id="layer1-4"
           inkscape:label="Capa 1">
          <g
             inkscape:export-ydpi="90"
             inkscape:export-xdpi="90"
             inkscape:export-filename="/var/www/chamilo/main/img/icons/22/eyes.png"
             transform="matrix(5.3333333,0,0,5.3333333,-1015.2146,511.94192)"
             id="g7343">
            <rect
               style="opacity:0;fill:#ececec;fill-opacity:1;stroke:none;stroke-opacity:1"
               id="rect6795"
               width="24"
               height="24"
               x="190.35274"
               y="77.328796"
               ry="0" />
            <g
               id="g7329"
               transform="translate(1.1929383e-6,1.270475e-6)">
              <path
                 sodipodi:nodetypes="cccc"
                 inkscape:connector-curvature="0"
                 id="path6799"
                 d="m 192.14335,91.247329 c 5.98435,5.011055 14.20046,4.730023 18.77758,-0.506146 -4.3124,-7.39171 -12.87365,-6.685246 -18.86099,-1.02757 -0.7021,0.541768 -0.43847,1.196626 0.0834,1.533716 z"
                 style="fill:#ffffff;stroke:none" />
              <path
                 inkscape:connector-curvature="0"
                 d="m 190.85418,90.198509 c 0,0 9.31585,-13.273622 22.65029,-1.857142 0,0 0.60882,0.548175 0.21318,1.248325 -0.49868,0.882631 -1.70499,-0.578496 -1.70499,-0.578496 0,0 -9.25484,-10.959822 -21.15848,1.187313 z"
                 id="svg_117" />
              <path
                 style="fill:url(#linearGradient7618);fill-opacity:1"
                 inkscape:connector-curvature="0"
                 d="m 205.22627,86.03806 c 0.92486,0.906913 1.49857,2.170679 1.49857,3.568316 0,2.760015 -2.23741,4.997418 -4.99741,4.997418 -2.76003,0 -4.99743,-2.237403 -4.99743,-4.997418 0,-1.344005 0.53064,-2.564272 1.39383,-3.462105 0,0 1.38645,-0.585112 3.6036,-0.585112 2.21712,0 3.49884,0.478901 3.49884,0.478901 z m -5.88174,3.362228 -1.96163,-0.181594 c -0.0113,0.12796 -0.0196,0.256977 -0.0196,0.387894 0,0.686677 0.16301,1.333658 0.44554,1.911591 l 1.77181,-0.858348 c -0.15647,-0.318212 -0.24663,-0.674642 -0.24663,-1.053033 2e-4,-0.0701 0.005,-0.138517 0.0106,-0.20651 z m 2.34762,-1.588944 c -1.01079,0 -1.83008,0.819284 -1.83008,1.830084 0,1.010801 0.81929,1.830085 1.83008,1.830085 1.0108,0 1.83009,-0.819283 1.83009,-1.830085 0,-1.010801 -0.81929,-1.830084 -1.83009,-1.830084 z"
                 id="svg_119" />
              <path
                 style="fill:#000000"
                 inkscape:connector-curvature="0"
                 d="m 191.58483,90.168006 c 0,0 10.22917,-11.294645 19.87984,-0.426155 0,0 1.43098,1.765627 0.48716,2.526786 -0.94382,0.761159 -1.43098,-0.213168 -1.67447,-0.365326 -0.2435,-0.15216 -0.39584,0.09133 -0.5785,0.395831 -0.18266,0.3045 -8.92002,6.606397 -17.99237,-1.369977 0,0 9.83333,7.915547 17.74888,0.517668 0,0 0.88299,-0.974145 -0.0303,-2.100632 -0.91332,-1.126486 -6.39341,-8.189727 -17.84022,0.821805 z"
                 id="svg_118" />
              <circle
                 inkscape:export-ydpi="90"
                 inkscape:export-xdpi="90"
                 inkscape:export-filename="/var/www/chamilo/main/img/icons/32/visible.png"
                 id="path7627"
                 style="fill:#000000;fill-opacity:1;stroke:none"
                 cx="201.61891"
                 cy="89.728737"
                 r="2.0291471" />
            </g>
          </g>
        </g>
      </g>
    </g>
  </g>
</svg>
