<?xml version="1.0" encoding="UTF-8" standalone="no"?>
<svg
   xmlns:dc="http://purl.org/dc/elements/1.1/"
   xmlns:cc="http://creativecommons.org/ns#"
   xmlns:rdf="http://www.w3.org/1999/02/22-rdf-syntax-ns#"
   xmlns:svg="http://www.w3.org/2000/svg"
   xmlns="http://www.w3.org/2000/svg"
   xmlns:xlink="http://www.w3.org/1999/xlink"
   xmlns:sodipodi="http://sodipodi.sourceforge.net/DTD/sodipodi-0.dtd"
   xmlns:inkscape="http://www.inkscape.org/namespaces/inkscape"
   height="128"
   id="Layer_1"
   version="1.1"
   viewBox="0 0 128 128"
   width="128"
   xml:space="preserve"
   inkscape:version="0.91 r"
   sodipodi:docname="shibboleth.svg"><metadata
     id="metadata9"><rdf:RDF><cc:Work
         rdf:about=""><dc:format>image/svg+xml</dc:format><dc:type
           rdf:resource="http://purl.org/dc/dcmitype/StillImage" /><dc:title></dc:title></cc:Work></rdf:RDF></metadata><sodipodi:namedview
     pagecolor="#ffffff"
     bordercolor="#666666"
     borderopacity="1"
     objecttolerance="10"
     gridtolerance="10"
     guidetolerance="10"
     inkscape:pageopacity="0"
     inkscape:pageshadow="2"
     inkscape:window-width="1920"
     inkscape:window-height="1051"
     id="namedview7"
     showgrid="false"
     inkscape:zoom="1.84375"
     inkscape:cx="108.51243"
     inkscape:cy="-5.2677819"
     inkscape:window-x="1366"
     inkscape:window-y="0"
     inkscape:window-maximized="1"
     inkscape:current-layer="Layer_1" /><defs
     id="defs12"><linearGradient
       inkscape:collect="always"
       id="linearGradient4331"><stop
         style="stop-color:#fe8d04;stop-opacity:1"
         offset="0"
         id="stop4333" /><stop
         style="stop-color:#ffd202;stop-opacity:1"
         offset="1"
         id="stop4335" /></linearGradient><linearGradient
       inkscape:collect="always"
       id="linearGradient4295"><stop
         style="stop-color:#ffffff;stop-opacity:1;"
         offset="0"
         id="stop4297" /><stop
         style="stop-color:#ffffff;stop-opacity:0;"
         offset="1"
         id="stop4299" /></linearGradient><linearGradient
       inkscape:collect="always"
       id="linearGradient4285"><stop
         style="stop-color:#ffffff;stop-opacity:1"
         offset="0"
         id="stop4287" /><stop
         style="stop-color:#ffdd55;stop-opacity:0;"
         offset="1"
         id="stop4289" /></linearGradient><linearGradient
       inkscape:collect="always"
       id="linearGradient4269"><stop
         style="stop-color:#fd0c0e;stop-opacity:1;"
         offset="0"
         id="stop4271" /><stop
         id="stop4277"
         offset="0.46325403"
         style="stop-color:#fe6007;stop-opacity:1;" /><stop
         style="stop-color:#fe8704;stop-opacity:1;"
         offset="0.69243133"
         id="stop4279" /><stop
         style="stop-color:#ffd202;stop-opacity:1"
         offset="1"
         id="stop4273" /></linearGradient><linearGradient
       inkscape:collect="always"
       xlink:href="#linearGradient4269"
       id="linearGradient4275"
       x1="231.95157"
       y1="117.63242"
       x2="199.21442"
       y2="22.904079"
       gradientUnits="userSpaceOnUse"
       gradientTransform="translate(-151.48908,-2.3016031)" /><linearGradient
       inkscape:collect="always"
       xlink:href="#linearGradient4285"
       id="linearGradient4291"
       x1="52.680351"
       y1="20.126043"
       x2="69.374671"
       y2="19.742529"
       gradientUnits="userSpaceOnUse" /><linearGradient
       inkscape:collect="always"
       xlink:href="#linearGradient4295"
       id="linearGradient4301"
       x1="51.697114"
       y1="26.189133"
       x2="64.40979"
       y2="26.189133"
       gradientUnits="userSpaceOnUse" /><linearGradient
       inkscape:collect="always"
       xlink:href="#linearGradient4331"
       id="linearGradient4337"
       x1="59.292091"
       y1="39.817051"
       x2="71.79763"
       y2="13.737993"
       gradientUnits="userSpaceOnUse" /></defs><g
     id="g4303"><path
       inkscape:connector-curvature="0"
       id="path4258"
       d="m 68.624197,1.7882407 c -0.09219,0.00988 -0.16882,0.096288 -0.22851,0.2734374 -0.14818,0.4397365 -0.55968,1.7590097 -0.91407,2.9316407 -0.3544,1.1726293 -1.32636,3.6482731 -2.1582,5.5019532 l -1.51172,3.371094 -2.11133,-2.220703 -2.11328,-2.2187501 -11.0957,0.341796 c -11.04501,0.3406561 -12.28954,0.2317741 -18.12109,-1.585937 l -1.16407,-0.363281 1.0918,3.6503901 c 1.36509,4.562952 3.12846,8.075911 4.86914,9.699219 l 1.3418,1.251953 -1.3711,3.544922 c -5.14452,13.290768 -5.69473,24.873945 -1.70507,35.927734 0.82036,2.272905 2.24563,5.24952 3.16601,6.613282 l 1.67188,2.478515 -1.73633,3.423829 c -1.00887,1.987615 -2.79657,4.376244 -4.26367,5.695312 l -2.52735,2.271484 -4.29883,-0.25 c -4.83039,-0.279625 -5.07118,-0.167823 -7.51757,3.457032 -1.80163,2.669507 -1.88027,2.907649 -0.82813,2.503906 0.96622,-0.37077 3.50781,1.273639 3.50781,2.269531 0,0.550269 0.25358,0.623902 0.93164,0.271485 0.51302,-0.2667 1.41369,-0.292361 2,-0.05664 1.97858,0.795465 4.78116,0.500815 7.56836,-0.796875 1.52478,-0.709925 3.86376,-1.454328 5.19727,-1.654297 2.3465,-0.351891 2.9969,-0.893664 1.89258,-1.576172 -0.29315,-0.181182 -0.53321,-1.03225 -0.53321,-1.892578 0,-1.6662 2.25854,-3.699477 6.58399,-5.923828 2.05153,-1.055037 2.05835,-1.05466 4.79687,0.02344 1.50841,0.593826 3.77143,1.342826 5.02735,1.664063 l 2.2832,0.583984 -1.03711,1.439453 c -2.64632,3.672621 -4.4074,4.769677 -8.30078,5.167969 -5.02531,0.514106 -5.93428,0.946274 -7.19922,3.425781 -1.28723,2.523167 -1.47935,4.228361 -0.37109,3.308594 1.08048,-0.896722 2.53953,0.91974 2.10156,2.617188 -0.30053,1.164784 -0.24072,1.232544 0.53125,0.599609 1.27504,-1.0454 4.11133,-0.314927 4.11133,1.058595 0,0.75122 0.27222,0.98416 0.93359,0.80273 0.51302,-0.14075 1.79548,-0.40115 2.84961,-0.57812 1.39423,-0.23407 2.39531,-0.91687 3.67383,-2.507814 0.97894,-1.218156 2.82413,-2.658384 4.16601,-3.251954 1.97825,-0.875076 2.25136,-1.155146 1.52344,-1.5625 -1.31607,-0.736512 -1.07996,-1.336748 0.66406,-1.685546 0.85323,-0.17065 4.11421,-2.239818 7.2461,-4.597657 5.19502,-3.911057 5.9084,-4.287109 8.14062,-4.287109 2.1285,0 7.04883,1.731097 7.04883,2.480469 0,1.13379 -1.32138,2.316406 -2.58789,2.316406 -2.87914,0 -6.88547,1.56835 -8.29883,3.248047 -3.71371,4.413492 0.75975,8.772768 8.48828,8.271484 1.75895,-0.114101 3.59933,-0.235108 4.08985,-0.267578 1.78789,-0.118529 4.35274,-3.022503 6.38672,-7.228516 1.1411,-2.35965 2.36956,-4.289062 2.72851,-4.289062 0.35895,0 1.17459,1.079238 1.8125,2.398438 3.38569,7.001806 1.07473,15.485491 -5.89062,21.630861 -3.52307,3.10825 -11.29926,6.96046 -16.05664,7.95312 -9.09839,1.8984 -18.26279,-0.1119 -26.65039,-5.84765 l -3.19922,-2.1875 -0.04688,-3.02344 c -0.07987,-5.10781 -3.94103,-9.437949 -9.29883,-10.427735 -3.6602,-0.676194 -12.20902,0.988603 -9.68945,1.886716 2.11454,0.75376 3.81126,3.052429 5.20313,7.050779 1.96323,5.63964 3.56016,7.20142 7.42382,7.25782 2.62019,0.0384 3.07583,0.24457 5.63868,2.54882 4.80839,4.32311 13.02862,8.29675 19.35156,9.35352 13.6456,2.2808 30.25502,-3.65706 39.833983,-14.24219 11.11814,-12.285898 13.73405,-31.802455 6.19336,-46.203121 -2.34589,-4.479923 -8.746523,-10.749506 -13.287113,-13.015626 -3.08426,-1.53934 -3.5081,-1.919349 -3.0625,-2.751953 0.28438,-0.531384 0.7553,-1.112758 1.04688,-1.292968 0.87155,-0.538651 0.60055,-1.332032 -0.45508,-1.332032 -0.72531,0 -0.23196,-0.750454 1.86719,-2.849609 2.8823,-2.88229 3.48907,-4.078125 2.07226,-4.078125 -0.42718,0 0.43227,-1.131261 1.91016,-2.513672 3.693333,-3.454661 7.301263,-9.905512 5.058593,-9.044922 -1.14364,0.438854 -1.13833,0.419193 0.94531,-3.041015 1.70408,-2.829886 2.86306,-6.494377 2.24805,-7.109375 -0.15295,-0.152967 -1.14196,0.232813 -2.19726,0.855468 -1.05532,0.622653 -2.02667,1.13086 -2.16016,1.13086 -0.1335,0 0.34616,-0.933253 1.06641,-2.074219 1.53355,-2.429326 3.13979,-7.0591961 2.88086,-8.3007811 -0.13434,-0.6441496 -1.47754,0.19402 -5.24414,3.2695311 -5.215913,4.258918 -12.141253,9.238281 -12.849613,9.238281 -0.22056,0 -0.47867,-0.472603 -0.57227,-1.048828 -0.14615,-0.898948 -0.95663,-0.47728 -5.71094,2.96875 l -5.54101,4.017578 0.33398,-2.435547 c 0.35904,-2.619474 0.28918,-2.724183 -1.2793,-1.884765 -1.27944,0.684742 -1.3152,0.155006 -0.22656,-3.433594 0.80539,-2.654867 1.10218,-8.84375 0.42383,-8.84375 -0.20382,0 -1.04301,0.643897 -1.86523,1.431641 -0.82223,0.787736 -1.498,1.208306 -1.5,0.933593 -0.02879,-3.5713221 -2.25527,-10.7302616 -3.14649,-10.6347653 z"
       style="fill:url(#linearGradient4275);fill-opacity:1" /><ellipse
       ry="0.88135594"
       rx="0.91525424"
       cy="15.288136"
       cx="51.932201"
       id="path4281"
       style="opacity:1;fill:#ff0000;fill-opacity:1;stroke:none;stroke-width:2;stroke-linecap:round;stroke-linejoin:round;stroke-miterlimit:4;stroke-dasharray:none;stroke-dashoffset:0;stroke-opacity:1" /><path
       sodipodi:nodetypes="ccccc"
       inkscape:connector-curvature="0"
       id="path4283"
       d="m 53.116903,23.971409 c 0.239697,0.09588 9.348191,-1.198486 9.348191,-1.198486 l 6.328007,1.629941 c 0.360172,-4.241374 -0.233345,-8.10456 -7.190917,-9.44407 -5.948303,0.878123 -8.781295,7.137277 -8.485281,9.012615 z"
       style="fill:url(#linearGradient4291);fill-opacity:1;fill-rule:evenodd;stroke:none;stroke-width:1px;stroke-linecap:butt;stroke-linejoin:miter;stroke-opacity:1" /><path
       sodipodi:nodetypes="cccc"
       inkscape:connector-curvature="0"
       id="path4293"
       d="m 52.661478,24.450804 c 0.392177,1.069366 2.516321,3.701116 4.530277,4.841883 2.436626,-1.529683 4.330943,-3.818597 6.136249,-6.232128 -0.334702,-0.349808 -9.156296,0.495654 -10.666526,1.390245 z"
       style="fill:url(#linearGradient4301);fill-opacity:1;fill-rule:evenodd;stroke:none;stroke-width:1px;stroke-linecap:butt;stroke-linejoin:miter;stroke-opacity:1" /><path
       inkscape:connector-curvature="0"
       id="path4189"
       d="m 61.842326,124.07346 c -6.322936,-1.05677 -14.544601,-5.03052 -19.353,-9.35363 -2.56285,-2.30425 -3.017425,-2.50973 -5.637611,-2.54809 -3.863669,-0.0564 -5.461568,-1.61873 -7.424796,-7.25837 -1.391866,-3.99835 -3.088025,-6.297098 -5.202568,-7.050849 -2.519575,-0.898119 6.029585,-2.56159 9.689789,-1.885396 5.357799,0.989786 9.218614,5.319135 9.298483,10.426945 l 0.04723,3.02311 3.198091,2.1869 c 8.387592,5.73575 17.552305,7.7469 26.650698,5.8485 4.75738,-0.99266 12.534398,-4.84435 16.057466,-7.9526 6.965351,-6.14537 9.275605,-14.630366 5.88991,-21.632173 -0.637908,-1.3192 -1.453521,-2.398555 -1.812464,-2.398555 -0.358952,0 -1.586259,1.930618 -2.72736,4.290268 -2.033985,4.206012 -4.600535,7.110123 -6.38842,7.228652 -0.490523,0.03247 -2.331006,0.152466 -4.089952,0.266567 -7.728529,0.501284 -12.201925,-3.857745 -8.488213,-8.271237 1.413365,-1.679697 5.420566,-3.247743 8.299704,-3.247743 1.266508,0 2.587075,-1.182182 2.587075,-2.315972 0,-0.749372 -4.918977,-2.48116 -7.047473,-2.48116 -2.232226,0 -2.946126,0.375926 -8.141147,4.286983 -3.13189,2.357839 -6.392454,4.426598 -7.245684,4.597248 -1.744019,0.348798 -1.98093,0.94965 -0.664859,1.686162 0.727912,0.407354 0.455558,0.686713 -1.522695,1.561789 -1.34188,0.593569 -3.187799,2.034594 -4.166742,3.25275 -1.278522,1.590952 -2.279968,2.274779 -3.674195,2.508849 -1.054128,0.176973 -2.33635,0.436921 -2.849373,0.577672 -0.661366,0.181425 -0.932784,-0.05253 -0.932784,-0.803719 0,-1.373525 -2.836827,-2.103592 -4.111866,-1.058192 -0.771974,0.632939 -0.831908,0.565321 -0.531383,-0.599464 0.437975,-1.697448 -1.019856,-3.514291 -2.100335,-2.617569 -1.108266,0.919767 -0.918015,-0.784785 0.369215,-3.307952 1.264944,-2.479507 2.174792,-2.912512 7.200107,-3.426618 3.893375,-0.398292 5.653728,-1.494091 8.300048,-5.166712 l 1.037832,-1.440346 -2.283481,-0.584085 c -1.255924,-0.321237 -3.517649,-1.069921 -5.026066,-1.663747 -2.738519,-1.078097 -2.745593,-1.078127 -4.797123,-0.02309 -4.325456,2.224351 -6.585174,4.256877 -6.585174,5.923077 0,0.860328 0.239862,1.712473 0.533007,1.893655 1.10432,0.682508 0.454998,1.22319 -1.891507,1.575081 -1.333506,0.199969 -3.672109,0.944425 -5.19689,1.65435 -2.787195,1.29769 -5.590911,1.593137 -7.569489,0.797672 -0.586309,-0.23572 -1.485776,-0.210419 -1.998799,0.05628 -0.678064,0.352417 -0.932765,0.278108 -0.932765,-0.272161 0,-0.995892 -2.541438,-2.640117 -3.507658,-2.269347 -1.05214,0.403743 -0.973334,0.165514 0.828287,-2.503993 2.446397,-3.624855 2.687676,-3.735778 7.518067,-3.456153 l 4.298436,0.248836 2.526551,-2.27159 c 1.467104,-1.319068 3.255064,-3.706898 4.263929,-5.694513 L 38.271776,70.986859 36.598347,68.50731 C 35.677969,67.143548 34.253711,64.168095 33.433355,61.895191 29.443689,50.841401 29.993207,39.257868 35.13773,25.9671 L 36.510215,22.421314 35.16841,21.16997 c -1.740683,-1.623308 -3.504244,-5.136113 -4.869326,-9.699065 l -1.092129,-3.6506025 1.16329,0.3626054 c 5.831551,1.8177111 7.077366,1.9267441 18.122377,1.5860876 l 11.095903,-0.342229 2.111935,2.2200945 2.111926,2.220103 1.512461,-3.370339 c 0.831839,-1.8536805 1.802398,-4.3297584 2.156795,-5.5023877 0.354387,-1.172631 0.765588,-2.4918405 0.913764,-2.931577 0.636767,-1.88959334 3.34491,6.4194691 3.376673,10.3602397 0.002,0.274713 0.676755,-0.145036 1.498981,-0.932772 0.822225,-0.787744 1.661729,-1.432255 1.865549,-1.432255 0.678349,0 0.382233,6.188403 -0.423157,8.84327 -1.088645,3.5886 -1.053744,4.11954 0.225694,3.434798 1.568488,-0.839418 1.638911,-0.735763 1.27987,1.883711 l -0.333812,2.435475 5.540896,-4.016169 c 4.75431,-3.44603 5.565082,-3.867444 5.711231,-2.968496 0.09358,0.576225 0.350786,1.047689 0.571353,1.047689 0.70836,0 7.634284,-4.979022 12.850186,-9.23794 3.7666,-3.0755108 5.10989,-3.9127727 5.24423,-3.2686235 0.25893,1.2415852 -1.34847,5.8706955 -2.88202,8.3000215 -0.72025,1.140966 -1.20033,2.074479 -1.06683,2.074479 0.13349,0 1.10617,-0.509446 2.16149,-1.132099 1.0553,-0.622655 2.04395,-1.006955 2.1969,-0.853988 0.61501,0.614998 -0.54349,4.279492 -2.24757,7.109378 -2.08364,3.460208 -2.08978,3.479927 -0.94614,3.041073 2.24267,-0.86059 -1.36411,5.589021 -5.057439,9.043682 -1.477895,1.382411 -2.33759,2.513471 -1.910409,2.513471 1.41681,0 0.808509,1.196432 -2.073787,4.078722 -2.099154,2.099155 -2.590854,2.850462 -1.865549,2.850462 1.055633,0 1.326333,0.792114 0.454781,1.330765 -0.29158,0.18021 -0.762833,0.762414 -1.04722,1.293798 -0.445601,0.832604 -0.02234,1.213027 3.061959,2.752367 4.540596,2.266119 10.940864,8.535922 13.286754,13.015844 7.54069,14.400667 4.92463,33.915373 -6.19351,46.201277 -9.57896,10.58513 -26.186633,16.52351 -39.83223,14.24271 z m 17.129512,-3.03985 C 95.84844,116.39998 106.78941,103.79025 109.10392,86.305599 111.10745,71.17057 103.57634,57.322288 90.659245,52.389201 c -2.274901,-0.868795 -2.498449,-0.860764 -5.749813,0.20659 -1.8606,0.61079 -5.218065,1.276824 -7.461036,1.480076 -2.620521,0.23747 -4.966838,0.819472 -6.56457,1.628347 -1.367542,0.692333 -2.953073,1.25879 -3.523422,1.25879 -0.949738,0 -0.971769,-0.100894 -0.261864,-1.199283 1.1565,-1.789339 4.909433,-11.297694 6.258791,-15.857166 1.044859,-3.530592 1.542551,-4.34008 4.260121,-6.929179 3.605691,-3.435213 5.527612,-5.943616 6.695408,-8.738532 1.013766,-2.426322 1.138602,-2.485679 -5.60753,2.666258 -6.886427,5.259081 -8.491165,7.058534 -11.912579,13.357984 -4.176365,7.689439 -5.395268,9.501681 -7.439359,11.060792 -2.602573,1.985084 -2.857559,1.693782 -0.711745,-0.813119 1.030138,-1.203472 2.271565,-3.028115 2.758729,-4.054747 l 0.88577,-1.866611 -1.986509,-1.63745 c -1.092581,-0.900596 -2.429984,-2.613842 -2.972004,-3.807208 -1.039506,-2.288708 -1.326816,-6.97164 -0.507198,-8.266983 0.358392,-0.566418 -0.132167,-1.310659 -1.875271,-2.845 -1.298349,-1.142846 -2.498901,-2.62879 -2.667879,-3.302086 -0.66233,-2.638901 4.168523,-9.075016 7.278402,-9.696992 1.76175,-0.352349 1.951597,-0.994873 0.701945,-2.375718 -0.788161,-0.870911 -1.740477,-0.922045 -11.66326,-0.626268 -9.212504,0.274613 -11.20224,0.192164 -13.500038,-0.559414 -1.482263,-0.484822 -2.826338,-0.881495 -2.986843,-0.881495 -0.612246,0 1.957403,5.682059 3.374697,7.462198 0.81691,1.026053 2.762121,2.585119 4.322679,3.464592 2.748348,1.548859 4.549034,3.617218 2.328478,2.674622 -0.553021,-0.234758 -1.634208,-0.535521 -2.40263,-0.668369 -1.320754,-0.22834 -1.48491,0.0014 -3.002537,4.206236 -2.867448,7.944295 -3.507688,11.995452 -3.179701,20.119885 0.305095,7.557588 0.984069,10.705821 3.417182,15.844642 2.775821,5.862635 8.826778,10.93466 15.506433,12.997793 4.611063,1.424206 5.28039,1.354974 6.517556,-0.674135 1.543171,-2.530976 1.398301,-0.341781 -0.202797,3.064836 -2.475306,5.266595 -5.292266,8.346541 -9.750027,10.660279 -4.53271,2.352625 -5.577136,3.459798 -4.651042,4.930372 1.01164,1.606401 2.309054,1.443452 2.941009,-0.369386 0.316721,-0.908546 1.061557,-1.91186 1.655177,-2.229556 1.038935,-0.556022 1.046807,-0.531216 0.210451,0.662862 -1.105973,1.578997 -1.110401,3.337402 -0.01071,4.250074 0.742914,0.616556 1.107931,0.439687 2.717727,-1.316917 1.022765,-1.116018 2.818072,-2.45827 3.989594,-2.982769 1.205771,-0.539836 1.87677,-1.110155 1.546369,-1.314349 -1.398829,-0.864536 -0.361242,-2.936521 4.019451,-8.026504 5.813243,-6.754506 7.329735,-9.01348 6.971229,-10.384385 -0.194446,-0.743592 -0.02121,-1.075416 0.561306,-1.075416 0.676893,0 0.614695,-0.242521 -0.316409,-1.233632 -1.802044,-1.918187 -1.373364,-2.121472 1.067559,-0.506228 1.655455,1.095479 1.987168,1.519485 1.293403,1.653225 -0.64577,0.124486 -0.815259,0.452761 -0.550407,1.066027 0.50766,1.175517 0.516752,2.16819 0.0369,4.023274 -0.387702,1.498759 -0.354576,1.52941 1.296085,1.199278 0.931686,-0.186325 2.208319,-0.338791 2.836983,-0.338791 1.081115,0 1.132673,-0.20925 0.952148,-3.864348 -0.205441,-4.159849 0.983776,-8.390772 3.108747,-11.060036 l 1.060811,-1.332538 -0.843173,2.398565 c -1.307616,3.71975 -1.207074,9.380648 0.215226,12.11827 2.051288,3.948284 5.699087,5.294592 9.287617,3.427813 1.09934,-0.571884 1.998802,-0.854254 1.998802,-0.627488 0,0.517933 -3.263669,3.736894 -3.788812,3.736894 -0.667916,0 -2.699776,3.683357 -2.346855,4.254381 0.212849,0.344403 -0.796085,0.543834 -2.760859,0.545723 -5.945414,0.0059 -9.492311,2.001151 -9.133457,5.138385 0.203554,1.779519 1.166296,2.038668 1.403083,0.377686 0.177387,-1.244369 2.046132,-3.221048 2.559662,-2.707512 0.174694,0.174683 -0.06671,0.866198 -0.536274,1.536705 -1.231531,1.758247 -1.067829,3.039938 0.436485,3.417497 1.984939,0.498191 3.223863,0.06642 3.403279,-1.186098 0.08964,-0.626002 0.626141,-1.557291 1.19217,-2.069536 1.001282,-0.906158 1.025714,-0.875222 0.90299,1.14362 -0.122196,2.010155 -0.0764,2.069556 1.46657,1.901651 2.215564,-0.241112 2.637975,-0.700715 5.422613,-5.899957 1.351195,-2.522851 3.369472,-6.026141 4.485065,-7.785087 3.07787,-4.852882 3.322154,-5.789476 2.277282,-8.731405 -0.60772,-1.711052 -0.753718,-3.006563 -0.460144,-4.083113 l 0.430018,-1.576858 0.36772,1.599048 c 0.202255,0.879473 0.8868,2.608869 1.521215,3.843114 1.512168,2.941915 1.460255,3.726137 -0.445578,6.731315 -0.879475,1.386788 -1.599044,2.635103 -1.599044,2.774049 0,0.138927 0.685188,1.198472 1.522629,2.354524 3.464595,4.782748 3.624185,11.349491 0.432396,17.791161 -4.330327,8.73939 -13.268021,14.94779 -24.783249,17.21518 -9.20435,1.81231 -20.941473,-1.14575 -28.246845,-7.11889 -1.503143,-1.22911 -2.485697,-1.70269 -2.826072,-1.36236 -0.792726,0.79278 4.651485,5.4908 8.925814,7.70252 3.139553,1.62449 5.461506,2.39447 11.661948,3.86684 2.402689,0.57061 13.45762,-0.19851 17.056451,-1.18665 z M 40.742699,66.957013 c -0.929321,-0.723828 -3.612461,-4.578237 -3.612461,-5.18939 0,-0.207213 0.997195,0.543849 2.215981,1.669033 1.795008,1.657126 2.361844,1.924741 2.983723,1.408635 0.516929,-0.429012 0.672259,-1.225323 0.475524,-2.437676 l -0.29219,-1.800518 2.403112,2.215099 c 1.87042,1.724096 2.562938,2.082452 3.124185,1.616662 0.906257,-0.752126 1.391305,-0.02407 0.994608,1.492883 -0.399827,1.528948 -1.335209,1.462016 -3.358331,-0.240329 -0.914355,-0.769377 -1.723681,-1.30905 -1.798522,-1.199283 -0.07488,0.109778 -0.419348,0.859183 -0.765578,1.665368 -0.701443,1.633252 -1.118853,1.774064 -2.370051,0.799516 z m 10.559796,-3.10573 c -0.758956,-0.901957 -1.37992,-1.841768 -1.37992,-2.08846 0,-0.246684 -0.167285,-0.887888 -0.371735,-1.424889 -0.204459,-0.537006 0.420028,-0.07688 1.387753,1.022433 1.90421,2.163213 2.942063,2.499077 3.47013,1.122991 0.544648,-1.419353 0.97666,-0.4086 0.585856,1.370713 -0.470633,2.142804 -1.88759,2.141741 -3.692084,-0.0023 z M 38.865264,56.829748 C 38.57512,56.463307 38.03494,55.563842 37.664898,54.83095 l -0.672829,-1.332538 1.534876,1.399288 c 0.844178,0.76961 1.834692,1.289297 2.201142,1.154867 0.366441,-0.134436 0.666257,0.135341 0.666257,0.599515 0,1.004771 -1.775408,1.129498 -2.52908,0.177666 z m 5.487791,-1.11634 c -0.747808,-0.980431 -1.359661,-1.972206 -1.359661,-2.203938 0,-0.231731 0.512403,0.230084 1.138671,1.026255 0.743478,0.945177 1.483444,1.357433 2.132058,1.187811 0.712621,-0.186352 0.993387,0.02744 0.993387,0.756356 0,1.573118 -1.402198,1.203084 -2.904455,-0.766484 z m 5.870605,-0.657519 c -0.462594,-0.462594 -1.111907,-1.362051 -1.442944,-1.998797 l -0.601865,-1.157721 1.271634,1.119856 c 0.699387,0.615924 1.691367,1.267995 2.20438,1.44906 0.513032,0.18106 0.932784,0.576589 0.932784,0.878946 0,0.832418 -1.414556,0.658085 -2.363989,-0.291344 z M 38.304381,49.364574 c -0.305484,-0.368084 -0.709768,-1.387479 -0.898432,-2.265309 -0.303528,-1.412402 -0.269421,-1.473389 0.296458,-0.530037 0.351691,0.586321 1.128211,1.605707 1.725599,2.265309 0.880831,0.97259 0.929784,1.199283 0.258981,1.199283 -0.454948,0 -1.077113,-0.301161 -1.382606,-0.669246 z m 4.936836,-1.498945 c -1.289011,-2.492664 -0.697438,-2.764533 0.946393,-0.43493 1.064469,1.508538 1.248915,2.070107 0.679963,2.070107 -0.429434,0 -1.161282,-0.735829 -1.626356,-1.635177 z m -3.993868,-7.453994 c -0.322014,-0.601673 -0.510346,-1.466833 -0.418512,-1.922574 0.101249,-0.502168 0.508831,-0.07119 1.034734,1.093966 0.911147,2.018673 0.393332,2.714974 -0.616222,0.828608 z m 4.142763,-21.435034 c -1.234283,-1.506283 -2.669513,-2.574392 -4.088536,-3.042708 -2.734691,-0.902533 -4.261616,-2.410966 -1.864654,-1.842072 5.194568,1.232865 6.893285,2.103615 7.948495,4.07431 0.7595,1.418471 0.896279,2.141903 0.483061,2.555117 -0.413219,0.413222 -1.114925,-0.08075 -2.478366,-1.744647 z m 7.188171,-3.56715 c -1.096409,-0.914435 -1.121402,-1.036179 -0.266499,-1.298699 0.518828,-0.159316 2.142606,-0.08528 3.608398,0.16455 1.465791,0.249813 2.274694,0.482429 1.797557,0.516903 -0.477128,0.03447 -1.166104,0.422483 -1.531049,0.862215 -0.885544,1.067015 -2.137194,0.982042 -3.608407,-0.244969 z m 2.009366,-0.02153 c 0,-0.293161 -0.239862,-0.533014 -0.533026,-0.533014 -0.293145,0 -0.532998,0.239853 -0.532998,0.533014 0,0.293151 0.239853,0.533013 0.532998,0.533013 0.293164,0 0.533026,-0.239862 0.533026,-0.533013 z M 38.915476,109.7619 c 2.485588,-0.94497 2.754468,-4.88286 0.559977,-8.20082 -1.808154,-2.733805 -4.838193,-4.063976 -9.274395,-4.071405 l -3.464581,-0.0059 1.676332,1.321466 c 1.183225,0.93275 2.108393,2.506089 3.145154,5.348729 1.986991,5.44796 3.914304,6.91694 7.357513,5.60787 z m 6.535277,-19.557603 c 2.274074,-1.376555 2.041808,-1.541842 -0.985299,-0.701148 -2.140727,0.594525 -3.366646,2.17247 -2.807101,3.613201 0.296096,0.762369 0.445296,0.707031 1.032618,-0.382976 0.377579,-0.700741 1.619478,-1.838841 2.759782,-2.529077 z M 30.075139,88.421902 c 1.249948,-0.567356 3.090002,-1.184896 4.088998,-1.372303 1.734199,-0.32534 1.802654,-0.425125 1.513603,-2.206348 -0.285588,-1.75991 -0.08452,-2.075361 3.549369,-5.567975 l 3.852107,-3.70237 -1.495665,-1.176484 c -0.822619,-0.647068 -1.621465,-1.073085 -1.775201,-0.946707 -0.153755,0.126382 -1.396549,1.705317 -2.761779,3.508745 -1.36522,1.80342 -3.181315,3.86718 -4.035746,4.586148 -0.854431,0.718958 -1.471833,1.552253 -1.371999,1.851764 0.11448,0.343612 -1.25397,0.266646 -3.708172,-0.208533 -3.434441,-0.664958 -4.119637,-0.657037 -5.854301,0.0677 -1.997864,0.83475 -2.987925,2.674598 -2.343277,4.354503 0.473615,1.234224 1.299648,0.954882 2.173542,-0.735038 0.558285,-1.079593 1.299009,-1.609845 2.493892,-1.785206 l 1.699712,-0.249466 -1.414172,1.030146 c -1.485284,1.081947 -1.879492,2.796707 -0.747904,3.253312 1.424915,0.574967 3.963461,0.284594 6.136993,-0.701954 z m 34.462204,-3.742167 c 2.469845,-2.238277 3.22767,-3.198086 2.525085,-3.198086 -1.271664,0 -8.168658,6.339383 -6.933077,6.372562 0.483474,0.01299 2.467061,-1.41554 4.407992,-3.174476 z M 72.09594,53.32077 c 3.648022,-2.650194 3.927548,-3.454441 0.70656,-2.032933 -2.894468,1.277404 -5.17729,3.543113 -3.569895,3.543113 0.431501,0 1.72001,-0.679582 2.863335,-1.51018 z m 10.689532,-1.949159 c 3.109367,-0.923383 7.864317,-4.134301 6.527996,-4.408226 -0.468409,-0.09598 -2.669414,0.435629 -4.891111,1.181423 -2.221688,0.745804 -4.495005,1.355998 -5.051824,1.355998 -0.556819,0 -1.57573,0.599646 -2.264244,1.332539 l -1.251847,1.332531 2.12822,0 c 1.170522,0 3.331784,-0.357417 4.80281,-0.794265 z m -5.269625,-4.836775 c 2.926939,-2.694627 2.151157,-3.103202 -1.808213,-0.952324 -2.740457,1.488719 -3.931494,2.617476 -3.931494,3.725941 0,1.187394 3.025011,-0.274386 5.739707,-2.773617 z m 7.496912,-0.379627 c 3.154324,-1.274092 9.661145,-5.811759 8.763075,-6.111111 -0.282754,-0.09427 -2.290182,0.536579 -4.460959,1.401851 -2.170777,0.865263 -4.817687,1.733689 -5.882009,1.929838 -1.481594,0.273042 -2.265691,0.861493 -3.3455,2.510757 l -1.410345,2.154139 1.651752,-0.330351 c 0.908461,-0.181689 3.016254,-0.881501 4.683986,-1.555123 z M 77.135188,42.64328 c 1.303318,-0.840065 3.074141,-2.279209 3.935174,-3.19809 l 1.565517,-1.670689 -1.366991,0 c -0.751852,0 -1.634847,0.322735 -1.962205,0.717185 -0.327367,0.394454 -1.543249,1.144693 -2.701944,1.667198 -1.398537,0.630645 -2.286147,1.464629 -2.640426,2.480897 -0.699131,2.005555 0.06347,2.006399 3.170875,0.0039 z m 9.133826,-2.002638 c 2.142871,-0.76889 4.837947,-1.874725 5.989065,-2.457428 3.830676,-1.93909 10.203721,-8.810771 9.149301,-9.865169 -0.28309,-0.283105 -1.751984,0.66057 -6.445114,4.140609 -1.172637,0.869526 -4.005528,2.395173 -6.295326,3.390315 -2.957786,1.285461 -4.706066,2.443511 -6.037939,3.999501 -2.248983,2.627436 -1.767103,2.732312 3.640013,0.792172 z M 80.64817,35.561063 c 1.259866,-1.378689 3.382173,-4.752769 3.385302,-5.382013 9.52e-4,-0.219863 -0.291797,-0.39976 -0.650887,-0.39976 -1.031221,0 -7.875337,7.061091 -7.875337,8.124999 0,0.909941 0.10007,0.906579 1.998799,-0.06706 1.099341,-0.563747 2.513297,-1.588014 3.142123,-2.276148 z m 9.02858,-2.297913 c 5.53697,-2.693578 9.808122,-6.286027 12.75876,-10.731361 3.09141,-4.657389 1.86812,-4.404906 -4.90323,1.012023 -1.811215,1.448936 -5.049275,3.426696 -7.195689,4.395014 -2.985249,1.346762 -4.157345,2.199983 -4.986527,3.629947 -0.596188,1.028145 -1.53282,2.365324 -2.081413,2.971511 -0.98156,1.084611 -0.977427,1.102163 0.259867,1.102163 0.691524,0 3.458233,-1.070683 6.148232,-2.379297 z M 62.377439,23.430095 c -0.104781,-0.120747 -2.214298,0.09527 -4.687902,0.480095 l -4.497454,0.699631 0.897066,1.202854 c 0.493383,0.661567 1.475228,1.556709 2.181886,1.989189 1.227208,0.751061 1.397229,0.675573 3.790836,-1.68295 1.378316,-1.358103 2.420312,-2.568073 2.315568,-2.688819 z m 29.392659,1.835058 c 3.866995,-2.162547 7.640126,-6.032647 9.543492,-9.788744 0.75755,-1.494964 1.37737,-2.846091 1.37737,-3.002493 0,-0.156401 -2.09874,1.364971 -4.663871,3.380834 -2.565133,2.015854 -6.162421,4.438496 -7.993974,5.383646 -2.807593,1.448828 -3.539353,2.135104 -4.663864,4.373951 -0.733579,1.460516 -1.333782,2.745069 -1.333782,2.854561 0,0.443361 4.682844,-1.495104 7.734629,-3.201755 z m -23.19203,-3.551386 c 0,-1.807432 -0.318256,-2.500409 -1.774749,-3.86435 -2.29153,-2.145916 -4.430121,-2.917452 -6.555468,-2.365006 -1.982898,0.51541 -4.689289,3.124882 -6.119038,5.89991 -1.219002,2.365986 -1.358253,2.324971 4.855,1.430072 3.255467,-0.468894 4.442883,-0.429856 6.396173,0.210281 1.3192,0.432336 2.578446,0.809783 2.798324,0.838765 0.219868,0.02896 0.399758,-0.938365 0.399758,-2.149672 z"
       style="fill:#000000" /></g><path
     style="fill:url(#linearGradient4337);fill-opacity:1;fill-rule:evenodd;stroke:none;stroke-width:1px;stroke-linecap:butt;stroke-linejoin:miter;stroke-opacity:1"
     d="m 58.390241,30.874689 0.728925,-1.687491 c 1.643746,-1.855525 3.232609,-3.71105 4.122735,-5.566574 0.891618,-0.316583 3.789005,0.601154 6.24925,1.24988 0.321881,-3.251614 1.025445,-6.47986 -4.727207,-10.103384 l 3.981217,-9.8756094 c 1.556452,2.0362074 2.013033,6.1666874 1.917578,9.2043734 1.214466,0.03196 2.492851,-0.894869 3.835155,-2.780488 0.667488,4.590312 -1.364234,10.965496 -1.917577,12.464255 L 75.360805,23.444075 74.497894,28.19008 62.992428,43.051307 C 60.95332,42.885768 55.305337,37.061866 58.390241,30.874689 Z"
     id="path4329"
     inkscape:connector-curvature="0"
     sodipodi:nodetypes="ccccccccccccc" /></svg>