<?xml version="1.0" encoding="UTF-8" standalone="no"?>
<!-- Created with Sodipodi ("http://www.sodipodi.com/") -->

<svg
   xmlns:a="http://ns.adobe.com/AdobeSVGViewerExtensions/3.0/"
   xmlns:dc="http://purl.org/dc/elements/1.1/"
   xmlns:cc="http://creativecommons.org/ns#"
   xmlns:rdf="http://www.w3.org/1999/02/22-rdf-syntax-ns#"
   xmlns:svg="http://www.w3.org/2000/svg"
   xmlns="http://www.w3.org/2000/svg"
   xmlns:sodipodi="http://sodipodi.sourceforge.net/DTD/sodipodi-0.dtd"
   xmlns:inkscape="http://www.inkscape.org/namespaces/inkscape"
   width="48pt"
   height="48pt"
   viewBox="0 0 256 256"
   style="overflow:visible;enable-background:new 0 0 256 256"
   xml:space="preserve"
   id="svg4655"
   sodipodi:version="0.32"
   sodipodi:docname="Gnome-mime-application-x-kpresenter.svg"
   version="1.1"
   inkscape:version="0.91 r13725"><metadata
     id="metadata158"><rdf:RDF><cc:Work
         rdf:about=""><dc:format>image/svg+xml</dc:format><dc:type
           rdf:resource="http://purl.org/dc/dcmitype/StillImage" /></cc:Work></rdf:RDF></metadata><defs
     id="defs4886" /><sodipodi:namedview
     id="base"
     showgrid="false"
     inkscape:zoom="11.935145"
     inkscape:cx="9.8313611"
     inkscape:cy="31.114677"
     inkscape:window-width="1680"
     inkscape:window-height="1026"
     inkscape:window-x="1920"
     inkscape:window-y="24"
     inkscape:window-maximized="1"
     inkscape:current-layer="Layer_1" /><g
     id="Layer_1"
     style="stroke:#000000;"><linearGradient
       id="XMLID_1_"
       gradientUnits="userSpaceOnUse"
       x1="128.9995"
       y1="11"
       x2="128.9995"
       y2="245.0005"><stop
         offset="0"
         style="stop-color:#494949"
         id="stop4661" /><stop
         offset="1"
         style="stop-color:#000000"
         id="stop4662" /><a:midPointStop
         offset="0"
         style="stop-color:#494949"
         id="midPointStop4663" /><a:midPointStop
         offset="0.5"
         style="stop-color:#494949"
         id="midPointStop4664" /><a:midPointStop
         offset="1"
         style="stop-color:#000000"
         id="midPointStop4665" /></linearGradient><linearGradient
       id="XMLID_2_"
       gradientUnits="userSpaceOnUse"
       x1="29.0532"
       y1="29.0532"
       x2="226.9471"
       y2="226.9471"><stop
         offset="0"
         style="stop-color:#FFFFFF"
         id="stop4669" /><stop
         offset="1"
         style="stop-color:#DADADA"
         id="stop4670" /><a:midPointStop
         offset="0"
         style="stop-color:#FFFFFF"
         id="midPointStop4671" /><a:midPointStop
         offset="0.5"
         style="stop-color:#FFFFFF"
         id="midPointStop4672" /><a:midPointStop
         offset="1"
         style="stop-color:#DADADA"
         id="midPointStop4673" /></linearGradient><path
       style="fill:none;stroke:none;"
       d="M256,256H0V0h256V256z"
       id="path4675" /><linearGradient
       id="XMLID_6_"
       gradientUnits="userSpaceOnUse"
       x1="146.3174"
       y1="196.3359"
       x2="146.3174"
       y2="80.2026"><stop
         offset="0"
         style="stop-color:#F8310E"
         id="stop4710" /><stop
         offset="0.25"
         style="stop-color:#EB2109"
         id="stop4711" /><stop
         offset="0.7143"
         style="stop-color:#D60903"
         id="stop4712" /><stop
         offset="1"
         style="stop-color:#CF0000"
         id="stop4713" /><a:midPointStop
         offset="0"
         style="stop-color:#F8310E"
         id="midPointStop4714" /><a:midPointStop
         offset="0.4"
         style="stop-color:#F8310E"
         id="midPointStop4715" /><a:midPointStop
         offset="1"
         style="stop-color:#CF0000"
         id="midPointStop4716" /></linearGradient><linearGradient
       id="XMLID_7_"
       gradientUnits="userSpaceOnUse"
       x1="146.3174"
       y1="193.1641"
       x2="146.3174"
       y2="83.3755"><stop
         offset="0"
         style="stop-color:#FFF030"
         id="stop4719" /><stop
         offset="0.0035"
         style="stop-color:#FFF030"
         id="stop4720" /><stop
         offset="0.4397"
         style="stop-color:#FFC816"
         id="stop4721" /><stop
         offset="0.787"
         style="stop-color:#FFB006"
         id="stop4722" /><stop
         offset="1"
         style="stop-color:#FFA700"
         id="stop4723" /><a:midPointStop
         offset="0"
         style="stop-color:#FFF030"
         id="midPointStop4724" /><a:midPointStop
         offset="0.4"
         style="stop-color:#FFF030"
         id="midPointStop4725" /><a:midPointStop
         offset="1"
         style="stop-color:#FFA700"
         id="midPointStop4726" /></linearGradient><linearGradient
       id="XMLID_8_"
       gradientUnits="userSpaceOnUse"
       x1="146.3184"
       y1="83.375"
       x2="146.3184"
       y2="193.1646"><stop
         offset="0"
         style="stop-color:#FFF030"
         id="stop4729" /><stop
         offset="0.0035"
         style="stop-color:#FFF030"
         id="stop4730" /><stop
         offset="0.4397"
         style="stop-color:#FFC816"
         id="stop4731" /><stop
         offset="0.787"
         style="stop-color:#FFB006"
         id="stop4732" /><stop
         offset="1"
         style="stop-color:#FFA700"
         id="stop4733" /><a:midPointStop
         offset="0"
         style="stop-color:#FFF030"
         id="midPointStop4734" /><a:midPointStop
         offset="0.4"
         style="stop-color:#FFF030"
         id="midPointStop4735" /><a:midPointStop
         offset="1"
         style="stop-color:#FFA700"
         id="midPointStop4736" /></linearGradient><linearGradient
       id="XMLID_9_"
       gradientUnits="userSpaceOnUse"
       x1="146.3174"
       y1="85.9141"
       x2="146.3174"
       y2="138.4946"><stop
         offset="0"
         style="stop-color:#FFFFFF"
         id="stop4739" /><stop
         offset="1"
         style="stop-color:#FFFF00"
         id="stop4740" /><a:midPointStop
         offset="0"
         style="stop-color:#FFFFFF"
         id="midPointStop4741" /><a:midPointStop
         offset="0.5"
         style="stop-color:#FFFFFF"
         id="midPointStop4742" /><a:midPointStop
         offset="1"
         style="stop-color:#FFFF00"
         id="midPointStop4743" /></linearGradient><linearGradient
       id="XMLID_10_"
       gradientUnits="userSpaceOnUse"
       x1="107.145"
       y1="173.2598"
       x2="107.145"
       y2="57.1255"><stop
         offset="0"
         style="stop-color:#006600"
         id="stop4748" /><stop
         offset="0.2817"
         style="stop-color:#006100"
         id="stop4749" /><stop
         offset="1"
         style="stop-color:#005800"
         id="stop4750" /><a:midPointStop
         offset="0"
         style="stop-color:#006600"
         id="midPointStop4751" /><a:midPointStop
         offset="0.4"
         style="stop-color:#006600"
         id="midPointStop4752" /><a:midPointStop
         offset="1"
         style="stop-color:#005800"
         id="midPointStop4753" /></linearGradient><linearGradient
       id="XMLID_11_"
       gradientUnits="userSpaceOnUse"
       x1="107.144"
       y1="170.0859"
       x2="107.144"
       y2="60.2983"><stop
         offset="0"
         style="stop-color:#33CC33"
         id="stop4756" /><stop
         offset="0.2978"
         style="stop-color:#99FF66"
         id="stop4757" /><stop
         offset="0.3859"
         style="stop-color:#80EE55"
         id="stop4758" /><stop
         offset="0.5929"
         style="stop-color:#49CA31"
         id="stop4759" /><stop
         offset="0.7716"
         style="stop-color:#21AF16"
         id="stop4760" /><stop
         offset="0.9132"
         style="stop-color:#099F06"
         id="stop4761" /><stop
         offset="1"
         style="stop-color:#009900"
         id="stop4762" /><a:midPointStop
         offset="0"
         style="stop-color:#33CC33"
         id="midPointStop4763" /><a:midPointStop
         offset="0.5"
         style="stop-color:#33CC33"
         id="midPointStop4764" /><a:midPointStop
         offset="0.2978"
         style="stop-color:#99FF66"
         id="midPointStop4765" /><a:midPointStop
         offset="0.4"
         style="stop-color:#99FF66"
         id="midPointStop4766" /><a:midPointStop
         offset="1"
         style="stop-color:#009900"
         id="midPointStop4767" /></linearGradient><linearGradient
       id="XMLID_12_"
       gradientUnits="userSpaceOnUse"
       x1="107.144"
       y1="60.2979"
       x2="107.144"
       y2="170.0864"><stop
         offset="0"
         style="stop-color:#33CC33"
         id="stop4770" /><stop
         offset="1"
         style="stop-color:#009900"
         id="stop4771" /><a:midPointStop
         offset="0"
         style="stop-color:#33CC33"
         id="midPointStop4772" /><a:midPointStop
         offset="0.5"
         style="stop-color:#33CC33"
         id="midPointStop4773" /><a:midPointStop
         offset="1"
         style="stop-color:#009900"
         id="midPointStop4774" /></linearGradient><linearGradient
       id="XMLID_13_"
       gradientUnits="userSpaceOnUse"
       x1="107.1436"
       y1="62.8359"
       x2="107.1436"
       y2="115.4175"><stop
         offset="0"
         style="stop-color:#FFFFFF"
         id="stop4777" /><stop
         offset="1"
         style="stop-color:#33CC33"
         id="stop4778" /><a:midPointStop
         offset="0"
         style="stop-color:#FFFFFF"
         id="midPointStop4779" /><a:midPointStop
         offset="0.5"
         style="stop-color:#FFFFFF"
         id="midPointStop4780" /><a:midPointStop
         offset="1"
         style="stop-color:#33CC33"
         id="midPointStop4781" /></linearGradient><g
       id="g4286"
       transform="matrix(1.3920299,0,0,1.3920299,-47.099352,-47.685301)"><g
         id="g4676"><path
           id="path4677"
           d="m 74.971,70.494 c -6.642,0 -12.045,5.402 -12.045,12.045 l 0,92.045 c 0,6.641 5.403,12.044 12.045,12.044 l 109.234,0 c 6.642,0 12.045,-5.403 12.045,-12.044 l 0,-92.045 c 0,-6.643 -5.403,-12.045 -12.045,-12.045 l -109.234,0 z"
           style="opacity:0.2;stroke:none"
           inkscape:connector-curvature="0" /><path
           id="path4678"
           d="m 73.702,69.225 c -6.643,0 -12.045,5.403 -12.045,12.045 l 0,92.045 c 0,6.642 5.403,12.045 12.045,12.045 l 109.233,0 c 6.643,0 12.045,-5.403 12.045,-12.045 l 0,-92.045 c 0,-6.642 -5.402,-12.045 -12.045,-12.045 l -109.233,0 z"
           style="opacity:0.2;stroke:none"
           inkscape:connector-curvature="0" /><linearGradient
           y2="67.955597"
           x2="127.0493"
           y1="184.0898"
           x1="127.0493"
           gradientUnits="userSpaceOnUse"
           id="XMLID_3_"><stop
             id="stop4680"
             style="stop-color:#034CFE"
             offset="0" /><stop
             id="stop4681"
             style="stop-color:#0231D6"
             offset="0.2778" /><stop
             id="stop4682"
             style="stop-color:#0116AE"
             offset="0.5937" /><stop
             id="stop4683"
             style="stop-color:#000696"
             offset="0.8456" /><stop
             id="stop4684"
             style="stop-color:#00008D"
             offset="1" /><a:midPointStop
             id="midPointStop4685"
             style="stop-color:#034CFE"
             offset="0" /><a:midPointStop
             id="midPointStop4686"
             style="stop-color:#034CFE"
             offset="0.4" /><a:midPointStop
             id="midPointStop4687"
             style="stop-color:#00008D"
             offset="1" /></linearGradient><path
           id="path4688"
           d="M 72.433,67.955 C 65.79,67.955 60.388,73.358 60.388,80 l 0,92.046 c 0,6.641 5.402,12.044 12.045,12.044 l 109.233,0 c 6.643,0 12.045,-5.403 12.045,-12.044 l 0,-92.046 c 0,-6.642 -5.402,-12.045 -12.045,-12.045 l -109.233,0 z"
           style="fill:url(#XMLID_3_);stroke:none"
           inkscape:connector-curvature="0" /><linearGradient
           y2="71.128403"
           x2="127.0503"
           y1="180.91701"
           x1="127.0503"
           gradientUnits="userSpaceOnUse"
           id="XMLID_4_"><stop
             id="stop4690"
             style="stop-color:#94CAFF"
             offset="0" /><stop
             id="stop4691"
             style="stop-color:#80BDFF"
             offset="0.1039" /><stop
             id="stop4692"
             style="stop-color:#499BFF"
             offset="0.4059" /><stop
             id="stop4693"
             style="stop-color:#2182FF"
             offset="0.6667" /><stop
             id="stop4694"
             style="stop-color:#0973FF"
             offset="0.8733" /><stop
             id="stop4695"
             style="stop-color:#006DFF"
             offset="1" /><a:midPointStop
             id="midPointStop4696"
             style="stop-color:#94CAFF"
             offset="0" /><a:midPointStop
             id="midPointStop4697"
             style="stop-color:#94CAFF"
             offset="0.4" /><a:midPointStop
             id="midPointStop4698"
             style="stop-color:#006DFF"
             offset="1" /></linearGradient><path
           id="path4699"
           d="m 190.539,172.046 c 0,4.899 -3.973,8.871 -8.873,8.871 l -109.233,0 c -4.9,0 -8.873,-3.972 -8.873,-8.871 L 63.56,80 c 0,-4.899 3.973,-8.872 8.873,-8.872 l 109.233,0 c 4.9,0 8.873,3.973 8.873,8.872 l 0,92.046 z"
           style="fill:url(#XMLID_4_);stroke:none"
           inkscape:connector-curvature="0" /><linearGradient
           y2="126.2476"
           x2="127.0493"
           y1="73.667"
           x1="127.0493"
           gradientUnits="userSpaceOnUse"
           id="XMLID_5_"><stop
             id="stop4701"
             style="stop-color:#FFFFFF"
             offset="0" /><stop
             id="stop4702"
             style="stop-color:#57ADFF"
             offset="1" /><a:midPointStop
             id="midPointStop4703"
             style="stop-color:#FFFFFF"
             offset="0" /><a:midPointStop
             id="midPointStop4704"
             style="stop-color:#FFFFFF"
             offset="0.5" /><a:midPointStop
             id="midPointStop4705"
             style="stop-color:#57ADFF"
             offset="1" /></linearGradient><path
           id="path4706"
           d="M 96.561,119.359 C 123.178,97.371 160.872,93.326 188,110.58 L 188,80 c 0,-3.492 -2.841,-6.333 -6.334,-6.333 l -109.233,0 c -3.493,0 -6.334,2.841 -6.334,6.333 l 0,45.146 c 10.736,2.505 22.032,0.958 30.462,-5.787 z"
           style="fill:url(#XMLID_5_);stroke:none"
           inkscape:connector-curvature="0" /></g><path
         id="path4707"
         d="m 94.239,82.74 c -6.643,0 -12.045,5.402 -12.045,12.045 l 0,92.045 c 0,6.641 5.403,12.045 12.045,12.045 l 109.233,0 c 6.643,0 12.045,-5.404 12.045,-12.045 l 0,-92.045 c 0,-6.643 -5.402,-12.045 -12.045,-12.045 l -109.233,0 z"
         style="opacity:0.2;stroke:none"
         inkscape:connector-curvature="0" /><path
         id="path4708"
         d="m 92.97,81.472 c -6.643,0 -12.045,5.402 -12.045,12.044 l 0,92.045 c 0,6.642 5.402,12.045 12.045,12.045 l 109.233,0 c 6.643,0 12.045,-5.403 12.045,-12.045 l 0,-92.045 c 0,-6.642 -5.402,-12.044 -12.045,-12.044 l -109.233,0 z"
         style="opacity:0.2;stroke:none"
         inkscape:connector-curvature="0" /><path
         id="path4717"
         d="m 91.701,80.202 c -6.642,0 -12.045,5.402 -12.045,12.045 l 0,92.045 c 0,6.642 5.403,12.044 12.045,12.044 l 109.233,0 c 6.643,0 12.046,-5.402 12.046,-12.044 l 0,-92.045 c 0,-6.643 -5.403,-12.045 -12.046,-12.045 l -109.233,0 z"
         style="fill:url(#XMLID_6_);stroke:none"
         inkscape:connector-curvature="0" /><path
         id="path4727"
         d="m 209.807,184.292 c 0,4.899 -3.973,8.872 -8.873,8.872 l -109.233,0 c -4.9,0 -8.872,-3.973 -8.872,-8.872 l 0,-92.045 c 0,-4.899 3.972,-8.872 8.872,-8.872 l 109.233,0 c 4.9,0 8.873,3.973 8.873,8.872 l 0,92.045 z"
         style="fill:url(#XMLID_7_);stroke:none"
         inkscape:connector-curvature="0" /><path
         id="path4737"
         d="m 200.934,83.375 -2.611,0 c 4.665,0 8.448,3.782 8.448,8.447 l 0,87.644 c 0,4.665 -3.783,8.448 -8.448,8.448 l -104.01,0 c -4.666,0 -8.448,-3.783 -8.448,-8.448 l 0,-87.644 c 0,-4.665 3.783,-8.447 8.448,-8.447 l -2.612,0 c -4.9,0 -8.872,3.973 -8.872,8.872 l 0,92.045 c 0,4.899 3.972,8.872 8.872,8.872 l 109.233,0 c 4.9,0 8.873,-3.973 8.873,-8.872 l 0,-92.045 c 0,-4.899 -3.973,-8.872 -8.873,-8.872 z"
         style="fill:url(#XMLID_8_);stroke:none"
         inkscape:connector-curvature="0" /><path
         id="path4744"
         d="m 115.829,131.605 c 26.617,-21.988 64.31,-26.033 91.439,-8.779 l 0,-30.579 c 0,-3.492 -2.841,-6.333 -6.334,-6.333 l -109.233,0 c -3.493,0 -6.334,2.841 -6.334,6.333 l 0,45.146 c 10.736,2.505 22.032,0.957 30.462,-5.788 z"
         style="fill:url(#XMLID_9_);stroke:none"
         inkscape:connector-curvature="0" /><path
         id="path4745"
         d="m 55.066,59.664 c -6.642,0 -12.045,5.402 -12.045,12.044 l 0,92.045 c 0,6.642 5.404,12.045 12.045,12.045 l 109.234,0 c 6.642,0 12.044,-5.403 12.044,-12.045 l 0,-92.045 c 0,-6.642 -5.402,-12.044 -12.044,-12.044 l -109.234,0 z"
         style="opacity:0.2;stroke:none"
         inkscape:connector-curvature="0" /><path
         id="path4746"
         d="m 53.796,58.395 c -6.642,0 -12.045,5.402 -12.045,12.045 l 0,92.045 c 0,6.641 5.403,12.044 12.045,12.044 l 109.234,0 c 6.643,0 12.046,-5.403 12.046,-12.044 l 0,-92.046 c 0,-6.643 -5.403,-12.045 -12.046,-12.045 l -109.234,0 z"
         style="opacity:0.2;stroke:none"
         inkscape:connector-curvature="0" /><path
         id="path4754"
         d="m 52.527,57.125 c -6.642,0 -12.045,5.403 -12.045,12.045 l 0,92.045 c 0,6.642 5.403,12.045 12.045,12.045 l 109.233,0 c 6.643,0 12.046,-5.403 12.046,-12.045 l 0,-92.045 c 0,-6.642 -5.403,-12.045 -12.046,-12.045 l -109.233,0 z"
         style="fill:url(#XMLID_10_);stroke:none"
         inkscape:connector-curvature="0" /><path
         id="path4768"
         d="m 170.633,161.215 c 0,4.899 -3.973,8.871 -8.872,8.871 l -109.234,0 c -4.899,0 -8.872,-3.972 -8.872,-8.871 l 0,-92.045 c 0,-4.899 3.973,-8.872 8.872,-8.872 l 109.233,0 c 4.899,0 8.872,3.973 8.872,8.872 l 0,92.045 z"
         style="fill:url(#XMLID_11_);stroke:none"
         inkscape:connector-curvature="0" /><path
         id="path4775"
         d="m 161.761,60.298 -2.238,0 c 4.698,0 8.508,3.81 8.508,8.508 l 0,88.272 c 0,4.699 -3.81,8.508 -8.508,8.508 l -104.757,0 c -4.699,0 -8.508,-3.809 -8.508,-8.508 l 0,-88.272 c 0,-4.698 3.809,-8.508 8.508,-8.508 l -2.238,0 c -4.899,0 -8.872,3.973 -8.872,8.872 l 0,92.045 c 0,4.899 3.973,8.871 8.872,8.871 l 109.233,0 c 4.899,0 8.872,-3.972 8.872,-8.871 l 0,-92.045 c 0,-4.899 -3.973,-8.872 -8.872,-8.872 z"
         style="fill:url(#XMLID_12_);stroke:none"
         inkscape:connector-curvature="0" /><path
         id="path4782"
         d="m 76.655,108.528 c 26.617,-21.987 64.311,-26.033 91.438,-8.778 l 0,-30.58 c 0,-3.492 -2.84,-6.334 -6.333,-6.334 l -109.233,0 c -3.492,0 -6.333,2.842 -6.333,6.334 l 0,45.146 c 10.736,2.505 22.032,0.956 30.461,-5.788 z"
         style="fill:url(#XMLID_13_);stroke:none"
         inkscape:connector-curvature="0" /><g
         id="g4783"><path
           id="path4784"
           d="m 76.393,75.649 c -2.084,0 -3.782,1.696 -3.782,3.781 l 0,3.067 c 0,1.251 0.65,2.385 1.682,3.086 0,0.629 0,48.555 0,48.555 0,1.183 0.962,2.145 2.146,2.145 0,0 26.573,0 27.786,0 0,0.922 0,3.985 0,4.551 -0.623,0.354 -19.688,11.157 -19.688,11.157 -0.671,0.38 -1.088,1.095 -1.088,1.867 l 0.071,0.547 c 0.249,0.941 1.102,1.599 2.076,1.599 l 7.042,0 c 0.459,0 0.915,-0.151 1.284,-0.427 0,0 9.125,-6.809 11.157,-8.325 0.374,0.311 0.804,0.536 1.293,0.536 l 2.817,0 c 0.489,0 0.917,-0.226 1.292,-0.536 0.775,0.577 11.158,8.326 11.158,8.326 0.374,0.279 0.818,0.426 1.284,0.426 l 7.041,0 c 0.974,0 1.827,-0.657 2.076,-1.598 0,-0.003 0.071,-0.548 0.071,-0.548 0,-0.771 -0.417,-1.487 -1.089,-1.867 0,0 -17.204,-9.749 -19.688,-11.156 0,-0.565 0,-3.63 0,-4.552 1.213,0 27.785,0 27.785,0 1.184,0 2.146,-0.962 2.146,-2.145 0,0 0,-47.926 0,-48.555 1.032,-0.701 1.682,-1.835 1.682,-3.086 l 0,-3.067 c 0,-2.085 -1.696,-3.781 -3.781,-3.781 l -62.773,0 z"
           style="opacity:0.2;stroke:none"
           inkscape:connector-curvature="0" /><path
           id="path4785"
           d="m 75.758,75.016 c -2.085,0 -3.782,1.695 -3.782,3.78 l 0,3.068 c 0,1.25 0.649,2.383 1.682,3.085 0,0.63 0,48.555 0,48.555 0,1.184 0.962,2.146 2.146,2.146 0,0 26.574,0 27.786,0 0,0.921 0,3.985 0,4.55 -0.623,0.354 -19.688,11.158 -19.688,11.158 -0.671,0.379 -1.088,1.095 -1.088,1.865 l 0.071,0.548 c 0.249,0.941 1.102,1.6 2.076,1.6 l 7.042,0 c 0.459,0 0.915,-0.152 1.284,-0.427 0,0 9.125,-6.809 11.157,-8.326 0.375,0.311 0.804,0.535 1.293,0.535 l 2.817,0 c 0.488,0 0.917,-0.225 1.292,-0.535 0.774,0.577 11.158,8.326 11.158,8.326 0.374,0.278 0.818,0.427 1.284,0.427 l 7.041,0 c 0.973,0 1.827,-0.658 2.076,-1.599 0,-0.003 0.071,-0.549 0.071,-0.549 0,-0.77 -0.417,-1.486 -1.089,-1.865 0,0 -17.204,-9.75 -19.688,-11.157 0,-0.565 0,-3.63 0,-4.551 1.213,0 27.785,0 27.785,0 1.184,0 2.146,-0.962 2.146,-2.146 0,0 0,-47.925 0,-48.555 1.032,-0.702 1.683,-1.835 1.683,-3.085 l 0,-3.068 c 0,-2.085 -1.697,-3.78 -3.781,-3.78 l -62.774,0 z"
           style="opacity:0.2;stroke:none"
           inkscape:connector-curvature="0" /><linearGradient
           y2="75.870903"
           x2="140.0529"
           y1="142.8271"
           x1="73.096703"
           gradientUnits="userSpaceOnUse"
           id="XMLID_14_"><stop
             id="stop4787"
             style="stop-color:#494949"
             offset="0" /><stop
             id="stop4788"
             style="stop-color:#7D7D99"
             offset="1" /><a:midPointStop
             id="midPointStop4789"
             style="stop-color:#494949"
             offset="0" /><a:midPointStop
             id="midPointStop4790"
             style="stop-color:#494949"
             offset="0.5" /><a:midPointStop
             id="midPointStop4791"
             style="stop-color:#7D7D99"
             offset="1" /></linearGradient><path
           id="path4792"
           d="m 75.124,74.38 c -2.085,0 -3.782,1.696 -3.782,3.782 l 0,3.066 c 0,1.252 0.649,2.385 1.682,3.086 0,0.629 0,48.555 0,48.555 0,1.183 0.963,2.146 2.146,2.146 0,0 26.573,0 27.786,0 0,0.921 0,3.985 0,4.55 -0.623,0.354 -19.688,11.157 -19.688,11.157 -0.67,0.38 -1.088,1.095 -1.088,1.867 l 0.071,0.547 c 0.248,0.941 1.102,1.599 2.075,1.599 l 7.043,0 c 0.459,0 0.915,-0.151 1.283,-0.427 0,0 9.125,-6.809 11.157,-8.325 0.375,0.312 0.805,0.536 1.293,0.536 l 2.817,0 c 0.488,0 0.917,-0.225 1.292,-0.536 0.774,0.577 11.158,8.326 11.158,8.326 0.374,0.279 0.818,0.426 1.284,0.426 l 7.042,0 c 0.973,0 1.827,-0.657 2.075,-1.598 0,-0.003 0.07,-0.548 0.07,-0.548 0,-0.771 -0.416,-1.487 -1.088,-1.867 0,0 -17.204,-9.749 -19.688,-11.156 0,-0.565 0,-3.63 0,-4.551 1.214,0 27.785,0 27.785,0 1.185,0 2.146,-0.963 2.146,-2.146 0,0 0,-47.926 0,-48.555 1.032,-0.701 1.682,-1.834 1.682,-3.086 l 0,-3.066 c 0,-2.086 -1.697,-3.782 -3.782,-3.782 l -62.771,0 z"
           style="fill:url(#XMLID_14_);stroke:none"
           inkscape:connector-curvature="0" /><linearGradient
           y2="75.901703"
           x2="140.08411"
           y1="143.0479"
           x1="72.938004"
           gradientUnits="userSpaceOnUse"
           id="XMLID_15_"><stop
             id="stop4794"
             style="stop-color:#494949"
             offset="0" /><stop
             id="stop4795"
             style="stop-color:#00008D"
             offset="1" /><a:midPointStop
             id="midPointStop4796"
             style="stop-color:#494949"
             offset="0" /><a:midPointStop
             id="midPointStop4797"
             style="stop-color:#494949"
             offset="0.5" /><a:midPointStop
             id="midPointStop4798"
             style="stop-color:#00008D"
             offset="1" /></linearGradient><path
           id="path4799"
           d="m 75.124,75.016 c -1.735,0 -3.147,1.411 -3.147,3.146 l 0,3.066 c 0,1.204 0.687,2.238 1.682,2.769 0,2.162 0,48.872 0,48.872 0,0.835 0.676,1.511 1.511,1.511 0,0 25.695,0 28.42,0 0,1.711 0,4.46 0,5.555 -1.421,0.806 -20.01,11.34 -20.01,11.34 -0.481,0.272 -0.766,0.78 -0.766,1.314 0,0.128 0.017,0.257 0.051,0.386 0.175,0.663 0.774,1.126 1.461,1.126 l 7.043,0 c 0.325,0 0.642,-0.105 0.903,-0.301 0,0 8.505,-6.348 11.573,-8.637 0.269,0.423 0.719,0.721 1.257,0.721 l 2.817,0 c 0.538,0 0.988,-0.298 1.256,-0.721 3.068,2.289 11.573,8.637 11.573,8.637 0.261,0.195 0.579,0.301 0.905,0.301 l 7.042,0 c 0.687,0 1.286,-0.463 1.462,-1.126 0.033,-0.129 0.05,-0.258 0.05,-0.386 0,-0.534 -0.285,-1.042 -0.767,-1.314 0,0 -18.588,-10.534 -20.01,-11.339 0,-1.095 0,-3.845 0,-5.556 2.725,0 28.42,0 28.42,0 0.834,0 1.511,-0.676 1.511,-1.511 0,0 0,-46.71 0,-48.872 0.995,-0.53 1.683,-1.564 1.683,-2.769 l 0,-3.066 c 0,-1.735 -1.412,-3.146 -3.147,-3.146 l -62.773,0 z"
           style="fill:url(#XMLID_15_);stroke:none"
           inkscape:connector-curvature="0" /><path
           id="path4800"
           d="m 137.896,76.527 -62.772,0 c -0.904,0 -1.635,0.732 -1.635,1.635 l 0,3.066 c 0,0.904 0.731,1.636 1.635,1.636 l 0.046,0 0,50.005 29.932,0 0,7.946 -20.776,11.773 7.043,0 13.733,-10.249 0,2.033 2.817,0 0,-2.033 13.733,10.249 7.042,0 -20.775,-11.772 0,-7.947 29.931,0 0,-50.005 0.046,0 c 0.904,0 1.635,-0.731 1.635,-1.636 l 0,-3.066 C 139.53,77.26 138.8,76.527 137.896,76.527 Z"
           style="fill:#bebebe;stroke:none"
           inkscape:connector-curvature="0" /><path
           id="path4801"
           d="m 139.53,81.229 c 0,0.904 -0.73,1.636 -1.635,1.636 l -62.771,0 c -0.904,0 -1.635,-0.731 -1.635,-1.636 l 0,-3.066 c 0,-0.902 0.731,-1.635 1.635,-1.635 l 62.772,0 c 0.904,0 1.635,0.732 1.635,1.635 l 0,3.066 z"
           style="fill:#bebebe;stroke:none"
           inkscape:connector-curvature="0" /><path
           id="path4802"
           d="m 137.85,132.869 -62.68,0 0,-51.178 62.68,0 0,51.178 z"
           style="fill:#bebebe;stroke:none"
           inkscape:connector-curvature="0" /><g
           id="g4803"><path
             id="path4804"
             d="m 105.454,140.616 -21.128,11.973 7.043,0 15.729,-11.737 -1.644,-0.236 z"
             style="fill:#bebebe;stroke:none"
             inkscape:connector-curvature="0" /><path
             id="path4805"
             d="m 107.566,140.616 21.128,11.973 -7.042,0 -15.729,-11.737 1.643,-0.236 z"
             style="fill:#bebebe;stroke:none"
             inkscape:connector-curvature="0" /></g><path
           id="path4806"
           d="m 107.919,144.373 -2.817,0 0,-15.261 2.817,0 0,15.261 z"
           style="fill:#bebebe;stroke:none"
           inkscape:connector-curvature="0" /><g
           id="g4807"><radialGradient
             gradientUnits="userSpaceOnUse"
             fy="143.35451"
             fx="106.7212"
             r="14.6066"
             cy="143.35451"
             cx="106.7212"
             id="XMLID_16_"><stop
               id="stop4809"
               style="stop-color:#CECEDB"
               offset="0" /><stop
               id="stop4810"
               style="stop-color:#B1B1C5"
               offset="0.3371" /><stop
               id="stop4811"
               style="stop-color:#ABABC0"
               offset="0.5062" /><stop
               id="stop4812"
               style="stop-color:#9B9BB2"
               offset="0.7274" /><stop
               id="stop4813"
               style="stop-color:#80809B"
               offset="0.9766" /><stop
               id="stop4814"
               style="stop-color:#7D7D99"
               offset="1" /><a:midPointStop
               id="midPointStop4815"
               style="stop-color:#CECEDB"
               offset="0" /><a:midPointStop
               id="midPointStop4816"
               style="stop-color:#CECEDB"
               offset="0.5" /><a:midPointStop
               id="midPointStop4817"
               style="stop-color:#B1B1C5"
               offset="0.3371" /><a:midPointStop
               id="midPointStop4818"
               style="stop-color:#B1B1C5"
               offset="0.65" /><a:midPointStop
               id="midPointStop4819"
               style="stop-color:#7D7D99"
               offset="1" /></radialGradient><path
             id="path4820"
             d="m 105.454,140.616 -21.128,11.973 7.043,0 15.729,-11.737 -1.644,-0.236 z"
             style="fill:url(#XMLID_16_);stroke:none"
             inkscape:connector-curvature="0" /><radialGradient
             gradientUnits="userSpaceOnUse"
             fy="143.35451"
             fx="106.7202"
             r="14.6076"
             cy="143.35451"
             cx="106.7202"
             id="XMLID_17_"><stop
               id="stop4822"
               style="stop-color:#CECEDB"
               offset="0" /><stop
               id="stop4823"
               style="stop-color:#B1B1C5"
               offset="0.3371" /><stop
               id="stop4824"
               style="stop-color:#ABABC0"
               offset="0.5062" /><stop
               id="stop4825"
               style="stop-color:#9B9BB2"
               offset="0.7274" /><stop
               id="stop4826"
               style="stop-color:#80809B"
               offset="0.9766" /><stop
               id="stop4827"
               style="stop-color:#7D7D99"
               offset="1" /><a:midPointStop
               id="midPointStop4828"
               style="stop-color:#CECEDB"
               offset="0" /><a:midPointStop
               id="midPointStop4829"
               style="stop-color:#CECEDB"
               offset="0.5" /><a:midPointStop
               id="midPointStop4830"
               style="stop-color:#B1B1C5"
               offset="0.3371" /><a:midPointStop
               id="midPointStop4831"
               style="stop-color:#B1B1C5"
               offset="0.65" /><a:midPointStop
               id="midPointStop4832"
               style="stop-color:#7D7D99"
               offset="1" /></radialGradient><path
             id="path4833"
             d="m 107.566,140.616 21.128,11.973 -7.042,0 -15.729,-11.737 1.643,-0.236 z"
             style="fill:url(#XMLID_17_);stroke:none"
             inkscape:connector-curvature="0" /></g><linearGradient
           y2="152.5889"
           x2="106.5098"
           y1="140.6162"
           x1="106.5098"
           gradientUnits="userSpaceOnUse"
           id="XMLID_18_"><stop
             id="stop4835"
             style="stop-color:#FFFFFF"
             offset="0.0393" /><stop
             id="stop4836"
             style="stop-color:#CECEDB"
             offset="0.2584" /><stop
             id="stop4837"
             style="stop-color:#B1B1C5"
             offset="1" /><a:midPointStop
             id="midPointStop4838"
             style="stop-color:#FFFFFF"
             offset="0.0393" /><a:midPointStop
             id="midPointStop4839"
             style="stop-color:#FFFFFF"
             offset="0.5" /><a:midPointStop
             id="midPointStop4840"
             style="stop-color:#CECEDB"
             offset="0.2584" /><a:midPointStop
             id="midPointStop4841"
             style="stop-color:#CECEDB"
             offset="0.5" /><a:midPointStop
             id="midPointStop4842"
             style="stop-color:#B1B1C5"
             offset="1" /></linearGradient><path
           id="path4843"
           d="m 106.51,141.289 2.062,1.539 1.373,-0.196 17.572,9.957 1.178,0 -21.128,-11.973 -1.056,0.15 0.587,0.085 -0.588,0.438 z m -3.435,1.343 1.373,0.196 2.062,-1.539 -0.586,-0.438 0.586,-0.085 -1.056,-0.15 -21.128,11.973 1.178,0 17.571,-9.957 z"
           style="fill:url(#XMLID_18_);stroke:none"
           inkscape:connector-curvature="0" /><linearGradient
           y2="136.74319"
           x2="105.1016"
           y1="136.74319"
           x1="107.9189"
           gradientUnits="userSpaceOnUse"
           id="XMLID_19_"><stop
             id="stop4845"
             style="stop-color:#7D7D99"
             offset="0" /><stop
             id="stop4846"
             style="stop-color:#CECEDB"
             offset="1" /><a:midPointStop
             id="midPointStop4847"
             style="stop-color:#7D7D99"
             offset="0" /><a:midPointStop
             id="midPointStop4848"
             style="stop-color:#7D7D99"
             offset="0.5" /><a:midPointStop
             id="midPointStop4849"
             style="stop-color:#CECEDB"
             offset="1" /></linearGradient><path
           id="path4850"
           d="m 107.919,144.373 -2.817,0 0,-15.261 2.817,0 0,15.261 z"
           style="fill:url(#XMLID_19_);stroke:none"
           inkscape:connector-curvature="0" /><path
           id="path4851"
           d="m 105.102,133.373 2.817,0 0,-4.261 -2.817,0 0,4.261 z"
           style="opacity:0.2;stroke:none"
           inkscape:connector-curvature="0" /><path
           id="path4852"
           d="m 105.102,133.877 2.817,0 0,-4.765 -2.817,0 0,4.765 z"
           style="opacity:0.2;stroke:none"
           inkscape:connector-curvature="0" /><path
           id="path4853"
           d="m 137.85,132.869 -62.68,0 0,-51.178 62.68,0 0,51.178 z"
           style="fill:#ffffff;stroke:none"
           inkscape:connector-curvature="0" /><linearGradient
           y2="81.691902"
           x2="106.5098"
           y1="132.86909"
           x1="106.5098"
           gradientUnits="userSpaceOnUse"
           id="XMLID_20_"><stop
             id="stop4855"
             style="stop-color:#FFFFFF"
             offset="0" /><stop
             id="stop4856"
             style="stop-color:#FDFDFD"
             offset="0.4532" /><stop
             id="stop4857"
             style="stop-color:#F6F6F6"
             offset="0.6582" /><stop
             id="stop4858"
             style="stop-color:#E9E9E9"
             offset="0.8131" /><stop
             id="stop4859"
             style="stop-color:#D7D7D7"
             offset="0.9421" /><stop
             id="stop4860"
             style="stop-color:#CCCCCC"
             offset="1" /><a:midPointStop
             id="midPointStop4861"
             style="stop-color:#FFFFFF"
             offset="0" /><a:midPointStop
             id="midPointStop4862"
             style="stop-color:#FFFFFF"
             offset="0.8418" /><a:midPointStop
             id="midPointStop4863"
             style="stop-color:#CCCCCC"
             offset="1" /></linearGradient><path
           id="path4864"
           d="m 137.85,132.869 -62.68,0 0,-51.178 62.68,0 0,51.178 z"
           style="fill:url(#XMLID_20_);stroke:none"
           inkscape:connector-curvature="0" /><path
           id="path4865"
           d="m 77.184,83.706 c 0,3.566 0,43.582 0,47.148 3.65,0 55.002,0 58.651,0 0,-3.566 0,-43.582 0,-47.148 -3.649,0 -55.001,0 -58.651,0 z"
           style="fill:#ffffff;stroke:none"
           inkscape:connector-curvature="0" /><linearGradient
           y2="135.9949"
           x2="135.22391"
           y1="78.572304"
           x1="77.8013"
           gradientUnits="userSpaceOnUse"
           id="XMLID_21_"><stop
             id="stop4867"
             style="stop-color:#B3B8FF"
             offset="0" /><stop
             id="stop4868"
             style="stop-color:#FFFFFF"
             offset="1" /><a:midPointStop
             id="midPointStop4869"
             style="stop-color:#B3B8FF"
             offset="0" /><a:midPointStop
             id="midPointStop4870"
             style="stop-color:#B3B8FF"
             offset="0.5" /><a:midPointStop
             id="midPointStop4871"
             style="stop-color:#FFFFFF"
             offset="1" /></linearGradient><path
           id="path4872"
           d="m 77.184,83.706 c 0,3.566 0,43.582 0,47.148 3.65,0 55.002,0 58.651,0 0,-3.566 0,-43.582 0,-47.148 -3.649,0 -55.001,0 -58.651,0 z"
           style="fill:url(#XMLID_21_);stroke:none"
           inkscape:connector-curvature="0" /><path
           id="path4873"
           d="m 139.53,82.236 c 0,0.904 -0.73,1.635 -1.635,1.635 l -62.771,0 c -0.904,0 -1.635,-0.73 -1.635,-1.635 l 0,-3.066 c 0,-0.903 0.731,-1.636 1.635,-1.636 l 62.772,0 c 0.904,0 1.635,0.732 1.635,1.636 l 0,3.066 z"
           style="opacity:0.2;stroke:none"
           inkscape:connector-curvature="0" /><path
           id="path4874"
           d="m 139.53,81.732 c 0,0.903 -0.73,1.636 -1.635,1.636 l -62.771,0 c -0.904,0 -1.635,-0.732 -1.635,-1.636 l 0,-3.067 c 0,-0.902 0.731,-1.635 1.635,-1.635 l 62.772,0 c 0.904,0 1.635,0.732 1.635,1.635 l 0,3.067 z"
           style="opacity:0.2;stroke:none"
           inkscape:connector-curvature="0" /><linearGradient
           y2="76.527298"
           x2="106.5093"
           y1="82.864304"
           x1="106.5093"
           gradientUnits="userSpaceOnUse"
           id="XMLID_22_"><stop
             id="stop4876"
             style="stop-color:#003399"
             offset="0.0056" /><stop
             id="stop4877"
             style="stop-color:#006DFF"
             offset="0.382" /><stop
             id="stop4878"
             style="stop-color:#F0F0F0"
             offset="1" /><a:midPointStop
             id="midPointStop4879"
             style="stop-color:#003399"
             offset="0.0056" /><a:midPointStop
             id="midPointStop4880"
             style="stop-color:#003399"
             offset="0.5" /><a:midPointStop
             id="midPointStop4881"
             style="stop-color:#006DFF"
             offset="0.382" /><a:midPointStop
             id="midPointStop4882"
             style="stop-color:#006DFF"
             offset="0.5" /><a:midPointStop
             id="midPointStop4883"
             style="stop-color:#F0F0F0"
             offset="1" /></linearGradient><path
           id="path4884"
           d="m 139.53,81.229 c 0,0.904 -0.73,1.636 -1.635,1.636 l -62.771,0 c -0.904,0 -1.635,-0.731 -1.635,-1.636 l 0,-3.066 c 0,-0.902 0.731,-1.635 1.635,-1.635 l 62.772,0 c 0.904,0 1.635,0.732 1.635,1.635 l 0,3.066 z"
           style="fill:url(#XMLID_22_);stroke:none"
           inkscape:connector-curvature="0" /></g></g></g></svg>