<?xml version="1.0" encoding="UTF-8" standalone="no"?>
<svg
   xmlns:dc="http://purl.org/dc/elements/1.1/"
   xmlns:cc="http://creativecommons.org/ns#"
   xmlns:rdf="http://www.w3.org/1999/02/22-rdf-syntax-ns#"
   xmlns:svg="http://www.w3.org/2000/svg"
   xmlns="http://www.w3.org/2000/svg"
   xmlns:sodipodi="http://sodipodi.sourceforge.net/DTD/sodipodi-0.dtd"
   xmlns:inkscape="http://www.inkscape.org/namespaces/inkscape"
   height="128"
   width="128"
   version="1.1"
   id="svg2"
viewBox="0 0 128 128"
   inkscape:version="0.91 r13725"
   sodipodi:docname="strategy.svg">
  <metadata
     id="metadata343">
    <rdf:RDF>
      <cc:Work
         rdf:about="">
        <dc:format>image/svg+xml</dc:format>
        <dc:type
           rdf:resource="http://purl.org/dc/dcmitype/StillImage" />
        <dc:title></dc:title>
      </cc:Work>
    </rdf:RDF>
  </metadata>
  <sodipodi:namedview
     pagecolor="#ffffff"
     bordercolor="#666666"
     borderopacity="1"
     objecttolerance="10"
     gridtolerance="10"
     guidetolerance="10"
     inkscape:pageopacity="0"
     inkscape:pageshadow="2"
     inkscape:window-width="1855"
     inkscape:window-height="1056"
     id="namedview341"
     showgrid="false"
     inkscape:zoom="3.2661743"
     inkscape:cx="128"
     inkscape:cy="115.75326"
     inkscape:window-x="65"
     inkscape:window-y="24"
     inkscape:window-maximized="1"
     inkscape:current-layer="svg2" />
  <defs
     id="defs4">
    <linearGradient
       id="b"
       y2="196.88"
       gradientUnits="userSpaceOnUse"
       x2="148.47"
       gradientTransform="translate(1.2857,795.08)"
       y1="196.88"
       x1="77.249001">
      <stop
         stop-color="#fff"
         offset=".005618"
         id="stop7" />
      <stop
         stop-color="#fcfbfa"
         offset=".020536"
         id="stop9" />
      <stop
         stop-color="#d7c7ba"
         offset=".22389"
         id="stop11" />
      <stop
         stop-color="#b99c85"
         offset=".41813"
         id="stop13" />
      <stop
         stop-color="#a17b5c"
         offset=".59799"
         id="stop15" />
      <stop
         stop-color="#90633e"
         offset=".76048"
         id="stop17" />
      <stop
         stop-color="#86542c"
         offset=".89985"
         id="stop19" />
      <stop
         stop-color="#824f26"
         offset="1"
         id="stop21" />
    </linearGradient>
    <linearGradient
       id="c"
       y2="164.62"
       gradientUnits="userSpaceOnUse"
       x2="128.87"
       gradientTransform="translate(1.2857,795.08)"
       y1="179.42999"
       x1="128.87">
      <stop
         stop-color="#824f26"
         offset=".005618"
         id="stop24" />
      <stop
         stop-color="#5f3a1c"
         offset=".19033"
         id="stop26" />
      <stop
         stop-color="#362110"
         offset=".43913"
         id="stop28" />
      <stop
         stop-color="#180f07"
         offset=".66569"
         id="stop30" />
      <stop
         stop-color="#060402"
         offset=".86023"
         id="stop32" />
      <stop
         offset="1"
         id="stop34" />
    </linearGradient>
    <linearGradient
       id="d"
       y2="178.06"
       gradientUnits="userSpaceOnUse"
       x2="167.86"
       gradientTransform="translate(1.2857,795.08)"
       y1="178.06"
       x1="89.883003">
      <stop
         stop-color="#fff"
         offset=".005618"
         id="stop37" />
      <stop
         stop-color="#fcfbfa"
         offset=".020536"
         id="stop39" />
      <stop
         stop-color="#d7c7ba"
         offset=".22389"
         id="stop41" />
      <stop
         stop-color="#b99c85"
         offset=".41813"
         id="stop43" />
      <stop
         stop-color="#a17b5c"
         offset=".59799"
         id="stop45" />
      <stop
         stop-color="#90633e"
         offset=".76048"
         id="stop47" />
      <stop
         stop-color="#86542c"
         offset=".89985"
         id="stop49" />
      <stop
         stop-color="#824f26"
         offset="1"
         id="stop51" />
    </linearGradient>
    <linearGradient
       id="e"
       y2="186.28999"
       gradientUnits="userSpaceOnUse"
       x2="186.03999"
       gradientTransform="translate(1.2857,795.08)"
       y1="186.28999"
       x1="72.251999">
      <stop
         stop-color="#c77700"
         offset=".005618"
         id="stop54" />
      <stop
         stop-color="#cb7d07"
         offset=".022793"
         id="stop56" />
      <stop
         stop-color="#e19f30"
         offset=".13152"
         id="stop58" />
      <stop
         stop-color="#f2b84e"
         offset=".23044"
         id="stop60" />
      <stop
         stop-color="#fbc760"
         offset=".31535"
         id="stop62" />
      <stop
         stop-color="#fc6"
         offset=".37640"
         id="stop64" />
      <stop
         stop-color="#f5c25c"
         offset=".48154"
         id="stop66" />
      <stop
         stop-color="#dca943"
         offset="0.657"
         id="stop68" />
      <stop
         stop-color="#b27f19"
         offset=".87984"
         id="stop70" />
      <stop
         stop-color="#960"
         offset="1"
         id="stop72" />
    </linearGradient>
    <linearGradient
       id="f"
       y2="119.07"
       gradientUnits="userSpaceOnUse"
       x2="70.983002"
       gradientTransform="translate(1.2857,-1.286)"
       y1="119.07"
       x1="130.97">
      <stop
         stop-color="#f0f0f0"
         offset=".005618"
         id="stop75" />
      <stop
         stop-color="#eeedec"
         offset=".14274"
         id="stop77" />
      <stop
         stop-color="#e9e6df"
         offset=".28846"
         id="stop79" />
      <stop
         stop-color="#e1d9ca"
         offset=".43813"
         id="stop81" />
      <stop
         stop-color="#d5c7ac"
         offset=".59053"
         id="stop83" />
      <stop
         stop-color="#c6b186"
         offset=".74511"
         id="stop85" />
      <stop
         stop-color="#b39557"
         offset=".89929"
         id="stop87" />
      <stop
         stop-color="#a8843b"
         offset=".98315"
         id="stop89" />
    </linearGradient>
    <linearGradient
       id="g"
       y2="128.78999"
       gradientUnits="userSpaceOnUse"
       x2="119.12"
       gradientTransform="translate(1.2857,-1.286)"
       y1="128.78999"
       x1="96.525002">
      <stop
         stop-color="#fff"
         offset=".005618"
         id="stop92" />
      <stop
         stop-color="#a8843b"
         offset="1"
         id="stop94" />
    </linearGradient>
    <linearGradient
       id="h"
       y2="61.256001"
       gradientUnits="userSpaceOnUse"
       x2="159.42"
       gradientTransform="translate(1.2857,795.08)"
       y1="61.256001"
       x1="118.2">
      <stop
         stop-color="#d6c5a0"
         offset=".005618"
         id="stop97" />
      <stop
         stop-color="#d4c29c"
         offset=".19188"
         id="stop99" />
      <stop
         stop-color="#ceba8f"
         offset=".38970"
         id="stop101" />
      <stop
         stop-color="#c5ac7a"
         offset=".59288"
         id="stop103" />
      <stop
         stop-color="#b7995c"
         offset=".79833"
         id="stop105" />
      <stop
         stop-color="#a8843b"
         offset=".98315"
         id="stop107" />
    </linearGradient>
    <linearGradient
       id="i"
       y2="39.821999"
       gradientUnits="userSpaceOnUse"
       x2="145.42999"
       gradientTransform="translate(1.2857,795.08)"
       y1="39.821999"
       x1="117.33">
      <stop
         stop-color="#fff"
         offset=".005618"
         id="stop110" />
      <stop
         stop-color="#a8843b"
         offset="1"
         id="stop112" />
    </linearGradient>
    <linearGradient
       id="j"
       y2="27.985001"
       gradientUnits="userSpaceOnUse"
       x2="131.38"
       gradientTransform="translate(1.2857,795.08)"
       y1="42.276001"
       x1="131.38">
      <stop
         stop-color="#fff"
         offset=".005618"
         id="stop115" />
      <stop
         stop-color="#a8843b"
         offset="1"
         id="stop117" />
    </linearGradient>
    <linearGradient
       id="k"
       y2="46.786999"
       gradientUnits="userSpaceOnUse"
       x2="101.93"
       gradientTransform="translate(1.2857,795.08)"
       y1="46.786999"
       x1="92.713997">
      <stop
         stop-color="#fff"
         offset=".005618"
         id="stop120" />
      <stop
         stop-color="#a8843b"
         offset="1"
         id="stop122" />
    </linearGradient>
    <linearGradient
       id="l"
       y2="47.084999"
       gradientUnits="userSpaceOnUse"
       x2="94.021004"
       gradientTransform="translate(1.2857,795.08)"
       y1="47.084999"
       x1="70.990997">
      <stop
         stop-color="#fff"
         offset=".005618"
         id="stop125" />
      <stop
         stop-color="#a8843b"
         offset="1"
         id="stop127" />
    </linearGradient>
    <linearGradient
       id="m"
       y2="48.144001"
       gradientUnits="userSpaceOnUse"
       x2="94.021004"
       gradientTransform="translate(1.2857,-1.286)"
       y1="48.144001"
       x1="70.952003">
      <stop
         stop-color="#fff"
         offset=".005618"
         id="stop130" />
      <stop
         stop-color="#fbfbfc"
         offset=".28258"
         id="stop132" />
      <stop
         stop-color="#eeeef2"
         offset=".57662"
         id="stop134" />
      <stop
         stop-color="#d9d9e3"
         offset=".87760"
         id="stop136" />
      <stop
         stop-color="#cecedb"
         offset="1"
         id="stop138" />
    </linearGradient>
    <linearGradient
       id="n"
       y2="34.067001"
       gradientUnits="userSpaceOnUse"
       x2="90.850998"
       gradientTransform="translate(1.2857,-1.286)"
       y1="34.067001"
       x1="80.734001">
      <stop
         stop-color="#fff"
         offset=".005618"
         id="stop141" />
      <stop
         stop-color="#fcfcfb"
         offset=".16022"
         id="stop143" />
      <stop
         stop-color="#f5f4ee"
         offset=".32445"
         id="stop145" />
      <stop
         stop-color="#e8e5d9"
         offset=".49317"
         id="stop147" />
      <stop
         stop-color="#d6d2bb"
         offset=".66499"
         id="stop149" />
      <stop
         stop-color="#bfb895"
         offset=".83738"
         id="stop151" />
      <stop
         stop-color="#a89f6f"
         offset=".98315"
         id="stop153" />
    </linearGradient>
    <linearGradient
       id="o"
       y2="43.835999"
       gradientUnits="userSpaceOnUse"
       x2="68.973"
       gradientTransform="translate(1.2857,795.08)"
       y1="43.835999"
       x1="83.376999">
      <stop
         stop-color="#f0f0f0"
         offset=".005618"
         id="stop156" />
      <stop
         stop-color="#eeedec"
         offset=".14274"
         id="stop158" />
      <stop
         stop-color="#e9e6df"
         offset=".28846"
         id="stop160" />
      <stop
         stop-color="#e1d9ca"
         offset=".43813"
         id="stop162" />
      <stop
         stop-color="#d5c7ac"
         offset=".59053"
         id="stop164" />
      <stop
         stop-color="#c6b186"
         offset=".74511"
         id="stop166" />
      <stop
         stop-color="#b39557"
         offset=".89929"
         id="stop168" />
      <stop
         stop-color="#a8843b"
         offset=".98315"
         id="stop170" />
    </linearGradient>
    <linearGradient
       id="p"
       y2="57.082001"
       gradientUnits="userSpaceOnUse"
       x2="78.774002"
       gradientTransform="translate(1.2857,-1.286)"
       y1="57.082001"
       x1="70.279999">
      <stop
         stop-color="#fff"
         offset=".005618"
         id="stop173" />
      <stop
         stop-color="#e2e2e2"
         offset=".56180"
         id="stop175" />
      <stop
         stop-color="#cbc7b1"
         offset="1"
         id="stop177" />
    </linearGradient>
    <linearGradient
       id="q"
       y2="49.035"
       gradientUnits="userSpaceOnUse"
       x2="71.369003"
       gradientTransform="translate(1.2857,795.08)"
       y1="49.035"
       x1="71.111">
      <stop
         stop-color="#fff"
         offset=".005618"
         id="stop180" />
      <stop
         stop-color="#e2e2e2"
         offset=".56180"
         id="stop182" />
      <stop
         stop-color="#cbc7b1"
         offset="1"
         id="stop184" />
    </linearGradient>
    <linearGradient
       id="r"
       y2="26.688999"
       gradientUnits="userSpaceOnUse"
       x2="177.42"
       gradientTransform="translate(1.2857,795.08)"
       y1="26.688999"
       x1="152.83">
      <stop
         stop-color="#e6e6e6"
         offset=".005618"
         id="stop187" />
      <stop
         stop-color="#e4e3e2"
         offset=".17653"
         id="stop189" />
      <stop
         stop-color="#dddcd5"
         offset=".35801"
         id="stop191" />
      <stop
         stop-color="#d2cfc0"
         offset=".54443"
         id="stop193" />
      <stop
         stop-color="#c3bda2"
         offset=".73422"
         id="stop195" />
      <stop
         stop-color="#afa77c"
         offset=".92490"
         id="stop197" />
      <stop
         stop-color="#a89f6f"
         offset=".98315"
         id="stop199" />
    </linearGradient>
    <linearGradient
       id="s"
       y2="140.44"
       gradientUnits="userSpaceOnUse"
       x2="181.67999"
       gradientTransform="translate(1.2857,795.08)"
       y1="140.44"
       x1="163.28999">
      <stop
         stop-color="#fff"
         offset=".005618"
         id="stop202" />
      <stop
         stop-color="#e2e2e2"
         offset=".56180"
         id="stop204" />
      <stop
         stop-color="#cbc7b1"
         offset="1"
         id="stop206" />
    </linearGradient>
    <linearGradient
       id="t"
       y2="45.229"
       gradientUnits="userSpaceOnUse"
       x2="183.42"
       gradientTransform="translate(1.2857,795.08)"
       y1="45.229"
       x1="176.78999">
      <stop
         stop-color="#fff"
         offset=".005618"
         id="stop209" />
      <stop
         stop-color="#e2e2e2"
         offset=".56180"
         id="stop211" />
      <stop
         stop-color="#cbc7b1"
         offset="1"
         id="stop213" />
    </linearGradient>
    <linearGradient
       id="u"
       y2="96.121002"
       gradientUnits="userSpaceOnUse"
       x2="161.50999"
       gradientTransform="translate(1.2857,795.08)"
       y1="96.121002"
       x1="183.42">
      <stop
         stop-color="#fff"
         offset=".005618"
         id="stop216" />
      <stop
         stop-color="#fcfcfb"
         offset=".16022"
         id="stop218" />
      <stop
         stop-color="#f5f4ee"
         offset=".32445"
         id="stop220" />
      <stop
         stop-color="#e8e5d9"
         offset=".49317"
         id="stop222" />
      <stop
         stop-color="#d6d2bb"
         offset=".66499"
         id="stop224" />
      <stop
         stop-color="#bfb895"
         offset=".83738"
         id="stop226" />
      <stop
         stop-color="#a89f6f"
         offset=".98315"
         id="stop228" />
    </linearGradient>
    <linearGradient
       id="v"
       y2="95.163002"
       gradientUnits="userSpaceOnUse"
       x2="183.42"
       gradientTransform="translate(1.2857,-1.286)"
       y1="95.163002"
       x1="68.973">
      <stop
         stop-color="#fff"
         offset=".005618"
         id="stop231" />
      <stop
         stop-color="#e2e2e2"
         offset=".41573"
         id="stop233" />
      <stop
         stop-color="#cbc7b1"
         offset="1"
         id="stop235" />
    </linearGradient>
    <linearGradient
       id="w"
       y2="95.164001"
       gradientUnits="userSpaceOnUse"
       x2="183.42"
       gradientTransform="translate(1.2857,795.08)"
       y1="95.164001"
       x1="68.968002">
      <stop
         stop-color="#695600"
         offset=".005618"
         id="stop238" />
      <stop
         stop-color="#7d7a6d"
         offset="1"
         id="stop240" />
    </linearGradient>
    <linearGradient
       id="x"
       y2="229.5"
       gradientUnits="userSpaceOnUse"
       x2="187.03"
       gradientTransform="translate(1.2857,795.08)"
       y1="229.5"
       x1="71.586998">
      <stop
         stop-color="#033"
         offset=".005618"
         id="stop243" />
      <stop
         stop-color="#003a33"
         offset=".022793"
         id="stop245" />
      <stop
         stop-color="#006333"
         offset=".13152"
         id="stop247" />
      <stop
         stop-color="#008133"
         offset=".23044"
         id="stop249" />
      <stop
         stop-color="#009333"
         offset=".31535"
         id="stop251" />
      <stop
         stop-color="#093"
         offset=".37640"
         id="stop253" />
      <stop
         stop-color="#00902a"
         offset=".55312"
         id="stop255" />
      <stop
         stop-color="#007910"
         offset=".84711"
         id="stop257" />
      <stop
         stop-color="#006a00"
         offset="1"
         id="stop259" />
    </linearGradient>
    <linearGradient
       id="y"
       y2="164.62"
       gradientUnits="userSpaceOnUse"
       x2="129.31"
       gradientTransform="translate(1.2857,795.08)"
       y1="239.05"
       x1="129.31">
      <stop
         stop-color="#c76200"
         offset=".005618"
         id="stop262" />
      <stop
         stop-color="#c77100"
         offset=".023780"
         id="stop264" />
      <stop
         stop-color="#c77700"
         offset=".039326"
         id="stop266" />
      <stop
         stop-color="#fc6"
         offset=".70225"
         id="stop268" />
      <stop
         stop-color="#f5c25c"
         offset=".75245"
         id="stop270" />
      <stop
         stop-color="#dca943"
         offset=".83623"
         id="stop272" />
      <stop
         stop-color="#b27f19"
         offset=".94263"
         id="stop274" />
      <stop
         stop-color="#960"
         offset="1"
         id="stop276" />
    </linearGradient>
    <linearGradient
       id="a"
       y2="165.53"
       gradientUnits="userSpaceOnUse"
       x2="90.099998"
       gradientTransform="translate(1.2857,795.08)"
       y1="244.58"
       x1="169.14999">
      <stop
         stop-color="#633"
         offset=".005618"
         id="stop279" />
      <stop
         stop-color="#6f3e2b"
         offset=".47398"
         id="stop281" />
      <stop
         stop-color="#744426"
         offset="1"
         id="stop283" />
    </linearGradient>
  </defs>
  <g
     transform="matrix(0.53610216,0,0,0.53610216,-5.3111365,-430.86228)"
     id="g285">
    <path
       d="m 170.95,955.7 -81.897,3.2676 c -2.1455,0.0859 -3.8408,1.8496 -3.8408,3.9961 l 0,16.627 c -14.662,10.135 -15.69,14.684 -15.69,16.5 0,0.1602 0.0078,0.3008 0.01465,0.4199 0.16992,3.0684 2.0088,8.3067 3.3594,11.803 -0.86816,0.5136 -1.8369,1.0859 -1.8369,1.0859 -1.1904,0.7031 -1.9326,1.9727 -1.9639,3.3555 0,0 -0.21875,9.8594 -0.21875,9.8887 0,0.8046 0.24316,1.5918 0.69727,2.2578 1.042,1.5234 11.622,14.836 61.817,13.066 50.794,-1.7891 57.813,-9.0137 60.65,-16.262 0.18164,-0.4649 0.27539,-0.959 0.27539,-1.4571 l 0,-9.1484 c 0,-1.0039 -0.37695,-1.9707 -1.0566,-2.709 0,0 -1.8486,-2.0098 -3.333,-3.6231 1.1504,-3.0117 3.6904,-9.666 3.6904,-9.666 0.17774,-0.46288 0.26368,-0.94725 0.26368,-1.4258 0,-1.0293 -0.39746,-2.041 -1.1445,-2.8027 -1.0664,-1.0859 -9.5312,-9.6348 -15.627,-13.49 l 0,-17.686 c 0,-1.0898 -0.44336,-2.1309 -1.2285,-2.8848 -0.78516,-0.7539 -1.8428,-1.1562 -2.9307,-1.1133 z"
       id="path287"
       inkscape:connector-curvature="0"
       style="fill:url(#a)" />
    <path
       d="m 89.209,962.96 0,18.732 c 0,0 -15.9,10.672 -15.683,14.594 0.21777,3.9199 4.3564,13.721 4.3564,13.721 l -4.792,2.8321 -0.21777,9.8008 c 0,0 8.9297,13.068 58.374,11.326 49.441,-1.7422 55.105,-8.7129 57.066,-13.721 l 0,-9.1484 -5.0098,-5.4453 4.5742,-11.979 c 0,0 -11.328,-11.545 -16.771,-13.941 l 0,-20.037 -81.897,3.2656 z"
       id="path289"
       inkscape:connector-curvature="0"
       style="fill:url(#y)" />
    <path
       d="m 131.25,1028.7 c -46.349,1.6328 -57.098,-9.7481 -58.261,-11.18 l -0.11328,5.0801 c 0,0 8.9297,13.068 58.374,11.326 49.441,-1.7422 55.105,-8.7129 57.066,-13.721 l 0,-5.2285 c -1.9609,5.0098 -7.625,11.98 -57.066,13.723 z"
       id="path291"
       inkscape:connector-curvature="0"
       style="fill:url(#x)" />
    <path
       d="m 145.3,809.88 0.39,-0.49 c -1.64,1.39 -11.65,5.66 -20.38,8.99 -3.71,-0.43 -10.11,-0.42 -19.13,0.05 -14.666,0.76 -14.913,0.95 -15.953,1.77 -0.019,0.01 -0.031,0.04 -0.05,0.05 -1.443,0.37 -5.861,0.56 -9.971,0.41 -2.166,-0.08 -4.002,1.58 -4.138,3.75 -0.09,1.43 -3.253,5.21 -4.719,5.91 -4.187,1.68 -4.978,6.74 -5.055,7.31 -0.024,0.18 -0.036,0.35 -0.036,0.53 0,1.19 0.533,2.33 1.467,3.1 0,0 0.367,0.3 0.578,0.47 -0.013,0.22 -0.056,0.44 -0.056,0.66 0,2.12 0.644,3.97 1.444,5.36 -1.017,1.6 -1.653,3.63 -2.041,5.49 -0.03,0.15 -0.045,0.3 -0.045,0.45 0,0.91 0.518,1.85 1.02,2.61 0.843,0.84 1.089,1.07 1.698,1.51 1.45,0.78 6.941,6.17 11.159,10.73 0.757,0.82 1.82,1.28 2.935,1.28 l 3.048,0 c 1.109,0 2.167,-0.46 2.924,-1.27 3.458,-3.7 8.543,-7.95 13.121,-7.17 2.98,0.51 5.16,2.98 6.43,4.87 -22.906,23.13 -36.539,43.91 -40.475,61.79 -0.843,3.83 -1.208,7.34 -1.208,10.54 0,10.28 3.752,17.37 7.404,21.85 2.293,2.81 4.121,4.36 5.586,5.21 2.425,2.06 12.644,7.37 53.113,6.77 35.88,-0.53 45.37,-8.67 47.79,-13.72 2.05,-0.89 3.47,-2.13 4.23,-3.73 0.44,-0.92 0.59,-1.78 0.59,-2.52 0,-1.09 -0.31,-1.9 -0.45,-2.23 -0.19,-0.4 -0.44,-0.78 -0.75,-1.1 -0.21,-0.23 -17.22,-18.44 -17.22,-34.45 0,-3.53 0.83,-6.96 2.86,-10.06 0.06,-0.09 0.11,-0.19 0.17,-0.29 13.3,-24.7 17.23,-42.68 17.23,-55.3 0,-10.58 -2.76,-17.38 -5.06,-21.22 0.63,-0.57 1.12,-1.28 1.3,-2.12 0.05,-0.27 0.08,-0.53 0.08,-0.8 0,-0.8 -0.24,-1.59 -0.7,-2.26 l -2.84,-4.13 c -0.66,-0.97 -1.71,-1.6 -2.88,-1.72 0,0 -4.83,-0.51 -6.81,-0.72 -8.01,-7.9 -22.58,-8.02 -23.23,-8.02 -1.2,0 -2.61,0.92 -3.37,1.86 z m -55.92,11.27 c -0.168,0.25 -0.325,0.51 -0.432,0.79 0.118,-0.31 0.27,-0.57 0.432,-0.79 z m -7.541,144.81 c 0.441,0.21 0.838,0.34 1.206,0.43 -0.425,-0.08 -0.822,-0.22 -1.206,-0.43 z m 3.153,0.36 c -0.184,0.06 -0.371,0.08 -0.56,0.11 0.197,-0.03 0.398,-0.05 0.56,-0.11 z m -1.509,0.15 c 0.143,0.02 0.281,0.04 0.411,0.04 -0.14,0.01 -0.271,-0.03 -0.411,-0.04 z"
       id="path293"
       inkscape:connector-curvature="0"
       style="fill:url(#w)" />
    <path
       d="M 148.66,15.656 C 147.13,18.052 125.81,26.125 125.81,26.125 118.19,24.818 92.688,27 92.688,27 c -0.654,1.742 -12.626,1.281 -12.626,1.281 -0.217,3.486 -5.009,8.504 -7.187,9.375 -2.178,0.871 -2.625,4.156 -2.625,4.156 l 2.406,1.938 c -1.306,3.484 0.875,6.312 0.875,6.312 l 6.531,0.657 c -0.435,1.089 -5.656,1.75 -5.656,1.75 -1.743,0 -2.844,5.219 -2.844,5.219 1.96,0 12.844,11.781 12.844,11.781 l 3.063,0 c 18.511,-19.821 27.441,1.093 27.441,1.093 -71.881,71.228 -31.16,95.598 -31.16,95.598 0,0 6.533,6.56 50.53,5.9 44,-0.65 44.66,-12.87 44.66,-12.87 5.01,-1.31 3.94,-3.69 3.94,-3.69 0,0 -27.89,-29.4 -14.82,-49.44 30.28,-56.193 10,-75.591 10,-75.591 l 3.06,-1.969 -2.84,-4.125 -8.25,-0.875 c -6.53,-7.841 -21.37,-7.844 -21.37,-7.844 z"
       transform="translate(0,796.36)"
       id="path295"
       inkscape:connector-curvature="0"
       style="fill:url(#v)" />
    <path
       d="m 182.87,951.86 c 0,0 -27.881,-29.405 -14.812,-49.443 30.277,-56.195 10.02,-75.581 10.02,-75.581 l -4.5742,2.1787 1.5254,3.9199 c 8.0586,35.721 -8.0586,49.226 -11.762,75.58 -3.7031,26.355 15.682,47.048 15.682,47.048 5.0098,-1.3086 3.9219,-3.7031 3.9219,-3.7031 z"
       id="path297"
       inkscape:connector-curvature="0"
       style="fill:url(#u)" />
    <path
       d="m 180.05,829.48 -1.9766,1.2715 c 0,0 6.0938,5.834 6.5996,20.374 0.37891,-11.363 -2.543,-18.238 -4.623,-21.646 z"
       id="path299"
       inkscape:connector-curvature="0"
       style="fill:url(#t)" />
    <path
       d="m 164.65,916.59 c -1.1836,15.701 12.77,32.982 17.016,37.847 1.8203,-1.2266 1.207,-2.5781 1.207,-2.5781 0,0 -16.961,-17.889 -18.223,-35.269 z"
       id="path301"
       inkscape:connector-curvature="0"
       style="fill:url(#s)" />
    <path
       d="m 160,823.78 18.713,-2.4414 -0.41602,-0.6084 -8.2773,-0.87109 c -0.0332,-0.04 -0.0703,-0.0771 -0.10547,-0.11816 l -15.795,3.3857 5.8809,0.65332 z"
       id="path303"
       inkscape:connector-curvature="0"
       style="fill:url(#r)" />
    <path
       d="M 148.66,15.656 C 147.13,18.052 125.81,26.125 125.81,26.125 118.19,24.818 92.688,27 92.688,27 c -0.654,1.742 -12.626,1.281 -12.626,1.281 -0.217,3.486 -5.009,8.504 -7.187,9.375 -2.178,0.871 -2.625,4.156 -2.625,4.156 l 1.188,0.938 c 0.364,-0.495 0.827,-0.912 1.437,-1.156 2.178,-0.871 6.97,-5.891 7.187,-9.375 0,0 11.972,0.43 12.626,-1.313 0,0 25.502,-2.181 33.122,-0.875 0,0 21.32,-8.041 22.85,-10.437 0,0 14.84,0.002 21.37,7.844 l 8.25,0.843 0.97,1.438 1.87,-1.219 -2.84,-4.125 -8.25,-0.875 c -6.53,-7.841 -21.37,-7.844 -21.37,-7.844 z"
       transform="translate(0,796.36)"
       id="path305"
       inkscape:connector-curvature="0"
       style="fill:#ffffff" />
    <path
       d="m 72.655,844.04 -0.25781,-0.21094 c 0.04297,0.19629 0.0918,0.38477 0.14551,0.56348 0.03711,-0.11817 0.06738,-0.2334 0.1123,-0.35254 z"
       id="path307"
       inkscape:connector-curvature="0"
       style="fill:url(#q)" />
    <path
       d="m 73.156,53.406 c -0.998,1.5 -1.594,4.282 -1.594,4.282 0.243,0 0.615,0.184 1.094,0.5 0.457,-0.987 1.063,-1.782 1.75,-1.782 0,0 5.221,-0.661 5.656,-1.75 L 73.531,54 c 0,0 -0.164,-0.214 -0.375,-0.594 z"
       transform="translate(0,796.36)"
       id="path309"
       inkscape:connector-curvature="0"
       style="fill:url(#p)" />
    <path
       d="m 73.526,846.44 3.4521,0.3457 c -0.61524,-0.42871 -1.1055,-0.68555 -1.4004,-0.68555 0,0 1.1641,-5.5918 3.0273,-5.5918 0,0 5.5918,-0.69922 6.0576,-1.8633 l -6.9893,-0.69921 c 0,0 -2.3291,-3.0283 -0.93164,-6.7559 l -0.1748,-0.14356 c -1.333,1.459 -2.7568,2.6035 -3.6943,2.9785 -2.1777,0.87109 -2.6143,4.1387 -2.6143,4.1387 l 2.3965,1.9609 c -1.3066,3.4844 0.87109,6.3154 0.87109,6.3154 z"
       id="path311"
       inkscape:connector-curvature="0"
       style="fill:url(#o)" />
    <path
       d="m 88.844,29.344 c -2.289,0.105 -4.219,4.625 -4.219,4.625 l -2.594,1.719 c 0,0 12.83,2.627 9.563,-3.907 -0.919,-1.837 -1.855,-2.479 -2.75,-2.437 z"
       transform="translate(0,796.36)"
       id="path313"
       inkscape:connector-curvature="0"
       style="fill:url(#n)" />
    <path
       d="m 80.781,43 c -3.479,0.026 -6.644,0.345 -8.343,0.562 l 0.218,0.188 c -1.306,3.484 0.875,6.312 0.875,6.312 L 80,50.719 C 92.337,50.616 95.312,47.469 95.312,47.469 93.238,43.781 86.581,42.956 80.781,43 Z"
       transform="translate(0,796.36)"
       id="path315"
       inkscape:connector-curvature="0"
       style="fill:url(#m)" />
    <path
       d="m 72.432,839.94 0.22266,0.18262 c -0.21289,0.56836 -0.32617,1.1162 -0.37793,1.6406 5.2148,-0.58008 17.262,-1.3564 21.142,3.2061 1.4014,-0.625 1.8887,-1.1445 1.8887,-1.1445 -3.3193,-5.9004 -18.342,-4.4648 -22.875,-3.8848 z"
       id="path317"
       inkscape:connector-curvature="0"
       style="fill:url(#l)" />
    <path
       d="m 94,835.98 c 0,0 9.585,4.1377 8.0596,11.762 0,0 5.6631,-10.237 -8.0596,-11.762 z"
       id="path319"
       inkscape:connector-curvature="0"
       style="fill:url(#k)" />
    <path
       d="m 118.61,833.37 7.8408,-3.0488 c 0,0 3.9199,13.723 15.9,2.831 l 4.3574,1.3076 c 0,0 -6.3164,-20.039 -18.515,-6.9707 l -9.584,5.8809 z"
       id="path321"
       inkscape:connector-curvature="0"
       style="fill:url(#j)" />
    <path
       d="m 142.35,833.15 c -11.199,10.183 -15.355,-1.1465 -15.849,-2.665 l -7.8926,4.8438 7.8408,-3.0498 c 0,0 3.9199,13.723 15.9,2.832 l 4.3574,1.3066 c 0,0 -0.28906,-0.91113 -0.85937,-2.2178 l -3.498,-1.0498 z"
       id="path323"
       inkscape:connector-curvature="0"
       style="fill:url(#i)" />
    <path
       d="m 138,833.59 c 0,0 3.7031,-7.623 -6.3164,-6.5342 0,0 11.762,-4.3555 6.3164,6.5342 z"
       id="path325"
       inkscape:connector-curvature="0"
       style="fill:#ffffff" />
    <path
       d="m 158.33,838.06 c -1.2598,0.40039 -2.0234,1.6797 -1.7774,2.9785 1.6856,8.8838 0.32422,15.565 -4.0449,19.857 -9.9238,9.752 -32.27,5.2412 -32.494,5.1943 -1.3721,-0.28516 -2.7246,0.56152 -3.0674,1.919 -0.34277,1.3584 0.44433,2.7451 1.7861,3.1445 19.184,5.7158 32.449,4.5527 39.428,-3.459 9.168,-10.523 3.4121,-28.065 3.3398,-28.226 -0.54687,-1.2041 -1.9082,-1.8086 -3.1699,-1.4092 z"
       id="path327"
       inkscape:connector-curvature="0"
       style="fill:url(#h)" />
    <path
       d="m 97.812,101.38 22.528,52.28 c 1.31,-29.41 -22.528,-52.28 -22.528,-52.28 z"
       transform="translate(0,796.36)"
       id="path329"
       inkscape:connector-curvature="0"
       style="fill:url(#g)" />
    <path
       d="m 118.44,67 -3.53,3.562 C 43.029,141.79 83.75,166.16 83.75,166.16 c 0,0 6.34,6.33 48.5,5.9 -37.701,-0.39 -43.625,-6.31 -43.625,-6.31 0,0 -42.2,-25.29 29.815,-98.75 z"
       transform="translate(0,796.36)"
       id="path331"
       inkscape:connector-curvature="0"
       style="fill:url(#f)" />
    <path
       d="m 171.11,959.7 -81.897,3.2656 0,18.732 c 0,0 -15.424,10.355 -15.671,14.41 11.814,4.1934 31.401,6.9356 53.569,6.9356 27.079,0 50.308,-4.0899 60.222,-9.918 -2.3242,-2.3203 -11.492,-11.307 -16.223,-13.389 l 0,-20.037 z"
       id="path333"
       inkscape:connector-curvature="0"
       style="fill:url(#e)" />
    <path
       d="m 91.169,964.85 0,15.48 c 9.917,2.7031 22.69,4.1992 36.266,4.1992 16.23,0 31.607,-2.2188 41.711,-5.9336 l 0,-16.857 c -3.7852,0.15234 -74.475,2.9707 -77.977,3.1113 z"
       id="path335"
       inkscape:connector-curvature="0"
       style="fill:url(#d)" />
    <path
       d="m 89.209,970.46 c 9.8213,2.5156 22.699,4.0449 36.81,4.0449 18.535,0 34.949,-2.6348 45.088,-6.6836 l 0,-8.127 -81.897,3.2656 0,7.5 z"
       id="path337"
       inkscape:connector-curvature="0"
       style="fill:url(#c)" />
    <path
       d="m 89.426,984.75 c 0,0 -10.021,6.0996 -10.892,9.3652 0,0 22.435,9.3672 71.226,2.6153 l -60.334,-11.98 z"
       id="path339"
       inkscape:connector-curvature="0"
       style="fill:url(#b)" />
  </g>
</svg>
