<?xml version="1.0" encoding="UTF-8" standalone="no"?>
<!-- Created with Inkscape (http://www.inkscape.org/) -->

<svg
   xmlns:dc="http://purl.org/dc/elements/1.1/"
   xmlns:cc="http://creativecommons.org/ns#"
   xmlns:rdf="http://www.w3.org/1999/02/22-rdf-syntax-ns#"
   xmlns:svg="http://www.w3.org/2000/svg"
   xmlns="http://www.w3.org/2000/svg"
   xmlns:xlink="http://www.w3.org/1999/xlink"
   xmlns:sodipodi="http://sodipodi.sourceforge.net/DTD/sodipodi-0.dtd"
   xmlns:inkscape="http://www.inkscape.org/namespaces/inkscape"
   width="128"
   height="128"
   viewBox="0 0 128 128"
   id="svg12385"
   version="1.1"
   inkscape:version="0.91 r13725"
   sodipodi:docname="survey_reporting_question.svg">
  <defs
     id="defs12387">
    <filter
       inkscape:collect="always"
       style="color-interpolation-filters:sRGB"
       id="filter7261"
       x="-0.067088582"
       width="1.1341772"
       y="-0.067311794"
       height="1.1346236">
      <feGaussianBlur
         inkscape:collect="always"
         stdDeviation="0.31096954"
         id="feGaussianBlur7263" />
    </filter>
    <linearGradient
       inkscape:collect="always"
       xlink:href="#linearGradient7182"
       id="linearGradient7188"
       x1="670.53149"
       y1="513.03839"
       x2="660.55957"
       y2="505.56442"
       gradientUnits="userSpaceOnUse"
       gradientTransform="matrix(7.5573809,0,0,7.5573809,-5031.2835,-2864.978)" />
    <linearGradient
       inkscape:collect="always"
       id="linearGradient7182">
      <stop
         style="stop-color:#077cff;stop-opacity:1;"
         offset="0"
         id="stop7184" />
      <stop
         style="stop-color:#aaeeff;stop-opacity:1"
         offset="1"
         id="stop7186" />
    </linearGradient>
    <linearGradient
       inkscape:collect="always"
       xlink:href="#linearGradient7198"
       id="linearGradient7204"
       x1="674.32166"
       y1="509.98361"
       x2="678.28107"
       y2="505.9809"
       gradientUnits="userSpaceOnUse"
       gradientTransform="matrix(7.5573809,0,0,7.5573809,-5031.2835,-2864.978)" />
    <linearGradient
       inkscape:collect="always"
       id="linearGradient7198">
      <stop
         style="stop-color:#ff0000;stop-opacity:1;"
         offset="0"
         id="stop7200" />
      <stop
         style="stop-color:#aa0000;stop-opacity:1"
         offset="1"
         id="stop7202" />
    </linearGradient>
    <linearGradient
       inkscape:collect="always"
       xlink:href="#linearGradient7190"
       id="linearGradient7196"
       x1="680.45337"
       y1="516.93781"
       x2="673.8681"
       y2="512.42975"
       gradientUnits="userSpaceOnUse"
       gradientTransform="matrix(7.5573809,0,0,7.5573809,-5031.2316,-2864.978)" />
    <linearGradient
       inkscape:collect="always"
       id="linearGradient7190">
      <stop
         style="stop-color:#ecfe09;stop-opacity:1"
         offset="0"
         id="stop7192" />
      <stop
         style="stop-color:#ff9f00;stop-opacity:1"
         offset="1"
         id="stop7194" />
    </linearGradient>
    <linearGradient
       id="XMLID_8_"
       gradientUnits="userSpaceOnUse"
       x1="74.5"
       y1="5.0479002"
       x2="74.5"
       y2="124.2402"
       gradientTransform="matrix(1.0333334,0,0,1.0333334,-146.78079,923.78137)">
      <stop
         offset="0"
         style="stop-color:#FFFFFF"
         id="stop4539" />
      <stop
         offset="1"
         style="stop-color:#E1E1DF"
         id="stop4541" />
    </linearGradient>
    <linearGradient
       id="XMLID_9_"
       gradientUnits="userSpaceOnUse"
       x1="74.5"
       y1="11.0811"
       x2="74.5"
       y2="121.4673"
       gradientTransform="matrix(1.0333334,0,0,1.0333334,-146.99926,923.78137)">
      <stop
         offset="0"
         style="stop-color:#FDFDFD"
         id="stop4546" />
      <stop
         offset="0.2985"
         style="stop-color:#F3F2F2"
         id="stop4548" />
      <stop
         offset="0.8174"
         style="stop-color:#D7D6D6"
         id="stop4550" />
      <stop
         offset="1"
         style="stop-color:#CCCBCA"
         id="stop4552" />
    </linearGradient>
    <radialGradient
       id="XMLID_10_"
       cx="110"
       cy="32.869099"
       r="15.5963"
       gradientUnits="userSpaceOnUse"
       gradientTransform="matrix(1.0333334,0,0,1.0333334,-146.78079,923.78137)">
      <stop
         offset="0.2135"
         style="stop-color:#8E8E8F"
         id="stop4557" />
      <stop
         offset="0.927"
         style="stop-color:#EEEEEE"
         id="stop4559" />
    </radialGradient>
    <linearGradient
       id="XMLID_11_"
       gradientUnits="userSpaceOnUse"
       x1="92.023399"
       y1="9.9473"
       x2="104.2735"
       y2="32.947201"
       gradientTransform="matrix(1.0333334,0,0,1.0333334,-146.78079,923.78137)">
      <stop
         offset="0"
         style="stop-color:#FFFEFE"
         id="stop4566" />
      <stop
         offset="1"
         style="stop-color:#CFD0D0"
         id="stop4568" />
    </linearGradient>
    <linearGradient
       id="XMLID_12_"
       gradientUnits="userSpaceOnUse"
       x1="99.530296"
       y1="5.1806998"
       x2="105.9053"
       y2="31.930599"
       gradientTransform="matrix(1.0333334,0,0,1.0333334,-146.78079,923.78137)">
      <stop
         offset="0"
         style="stop-color:#FCFDFD"
         id="stop4573" />
      <stop
         offset="1"
         style="stop-color:#EEEEEE"
         id="stop4575" />
    </linearGradient>
  </defs>
  <sodipodi:namedview
     id="base"
     pagecolor="#ffffff"
     bordercolor="#666666"
     borderopacity="1.0"
     inkscape:pageopacity="0.0"
     inkscape:pageshadow="2"
     inkscape:zoom="1.3700194"
     inkscape:cx="134.56222"
     inkscape:cy="-34.201216"
     inkscape:document-units="px"
     inkscape:current-layer="layer1"
     showgrid="false"
     units="px"
     inkscape:window-width="1325"
     inkscape:window-height="747"
     inkscape:window-x="41"
     inkscape:window-y="21"
     inkscape:window-maximized="1" />
  <metadata
     id="metadata12390">
    <rdf:RDF>
      <cc:Work
         rdf:about="">
        <dc:format>image/svg+xml</dc:format>
        <dc:type
           rdf:resource="http://purl.org/dc/dcmitype/StillImage" />
        <dc:title></dc:title>
      </cc:Work>
    </rdf:RDF>
  </metadata>
  <g
     inkscape:label="Capa 1"
     inkscape:groupmode="layer"
     id="layer1"
     transform="translate(0,-924.3622)">
    <g
       id="g6073"
       inkscape:export-filename="/var/www/chamilo11/main/img/icons/22/survey_reporting_question.png"
       inkscape:export-xdpi="15.422112"
       inkscape:export-ydpi="15.422112">
      <rect
         y="924.36218"
         x="0"
         height="128"
         width="128"
         id="rect5912"
         style="opacity:1;fill:#e9feff;fill-opacity:0;stroke:none;stroke-width:8;stroke-linecap:round;stroke-linejoin:round;stroke-miterlimit:4;stroke-dasharray:none;stroke-dashoffset:0;stroke-opacity:1" />
      <rect
         ry="0"
         y="924.74927"
         x="0.26262656"
         height="128"
         width="128"
         id="rect7366"
         style="opacity:1;fill:#afdde9;fill-opacity:0;stroke:none;stroke-width:0.09173347;stroke-linecap:round;stroke-linejoin:round;stroke-miterlimit:4;stroke-dasharray:none;stroke-dashoffset:0;stroke-opacity:1" />
      <g
         transform="matrix(0.99128763,0,0,0.99128763,132.67664,4.6020241)"
         id="g5901">
        <path
           d="m -115.09259,931.0147 c -1.91167,0 -3.7882,1.891 -3.7882,3.81714 0,109.93636 0,109.93636 0,113.46726 0,4.0475 4.13333,4.6489 4.13333,4.6489 l 89.90001,0 c 0,0 4.13333,-0.2769 4.13333,-4.1519 0,-3.875 0,-81.09496 0,-81.09496 0,-5.37023 -28.597498,-36.68644 -36.027165,-36.68644 l -58.351305,0 z"
           id="path4532"
           inkscape:connector-curvature="0"
           style="opacity:0.2" />
        <path
           d="m -115.09259,932.04804 c -1.91167,0 -3.7882,1.891 -3.7882,3.81713 0,109.93633 0,109.93633 0,113.46723 0,4.0476 5.16667,4.649 5.16667,4.649 l 87.83334,0 c 0,0 5.16666,-0.277 5.16666,-4.152 0,-3.875 0,-81.09493 0,-81.09493 0,-5.37023 -28.597498,-36.68643 -36.027165,-36.68643 l -58.351305,0 z"
           id="path4534"
           inkscape:connector-curvature="0"
           style="opacity:0.2" />
        <path
           d="m -115.09259,929.98137 c -1.91167,0 -3.7882,1.891 -3.7882,3.81713 0,109.9363 0,109.9363 0,113.4672 0,4.0476 3.1,4.649 3.1,4.649 l 91.96667,0 c 0,0 3.1,-0.2769 3.1,-4.1519 0,-3.875 0,-81.09499 0,-81.09499 0,-5.37024 -28.597498,-36.68644 -36.027165,-36.68644 l -58.351305,0 z"
           id="path4536"
           inkscape:connector-curvature="0"
           style="opacity:0.6;fill:#262626" />
        <path
           d="m -21.74745,1047.8981 c 0,2.6702 -2.47793,2.9833 -2.47793,2.9833 l -91.04081,0 c 0,0 -2.58127,-0.4909 -2.58127,-3.1858 0,-20.4776 0,-112.6912 0,-113.8971 0,-1.364 1.4043,-2.7838 2.75487,-2.7838 1.02713,0 50.084638,0 58.351305,0 7.2664,0 34.993835,31.33687 34.993835,35.65414 0,4.77297 0,65.24986 0,81.22926 z"
           id="path4543"
           inkscape:connector-curvature="0"
           style="fill:url(#XMLID_8_)" />
        <path
           d="m -22.99925,1047.0394 c 0,2.5637 -2.06667,2.8086 -2.06667,2.8086 l -89.90001,0 c 0,0 -2.06667,-0.1684 -2.06667,-2.3239 0,-18.6155 0,-112.50316 0,-113.7256 0,-1.364 1.3609,-2.7838 2.6691,-2.7838 0.99614,0 49.454308,0 57.463675,0 7.040101,0 33.900575,31.33687 33.900575,35.65414 0,4.78433 0,64.76316 0,80.37056 z"
           id="path4554"
           inkscape:connector-curvature="0"
           style="fill:url(#XMLID_9_)" />
        <path
           d="m -22.78078,964.08137 c 0,7.41934 -2.914,13.43334 -10.33334,13.43334 -7.419331,0 -16.533331,-6.014 -16.533331,-13.43334 0,-7.41933 2.914,-9.3 10.333334,-9.3 7.419337,0 11.366667,4.13334 16.533337,9.3 z"
           id="path4561"
           inkscape:connector-curvature="0"
           style="fill:url(#XMLID_10_)" />
        <path
           d="m -59.551952,930.97647 c 0.565233,0 0.978567,0.002 3.736534,1.23277 4.3214,1.95403 4.239766,22.96583 4.239766,27.5621 l -0.001,0.13227 c 0,0.53836 0.4123,0.99096 0.9486,1.0354 6.172101,0.51253 24.095262,-0.87627 27.286202,4.1602 1.23896,1.6616 1.4105,2.95326 1.98193,2.95326 0.57143,0 0.64583,-0.8122 0.64583,-1.38363 0,-0.82357 -0.26556,-1.62647 -0.79153,-2.50893 -0.004,-0.009 -0.002,-0.0186 -0.006,-0.0269 -0.0145,-0.0289 -0.0393,-0.0672 -0.0548,-0.0971 l 0,-10e-4 c -2.38183,-4.85563 -26.649662,-31.3937 -33.432462,-33.67633 -0.0062,-0.002 -0.0072,-0.008 -0.0124,-0.0103 -0.0072,-0.003 -0.0155,-0.002 -0.0217,-0.004 -0.0217,-0.008 -0.05063,-0.0238 -0.07233,-0.032 -0.09713,-0.03 -0.193234,-0.0424 -0.2883,-0.0444 -0.4433,-0.1488 -0.8897,-0.28623 -1.347467,-0.28623 -0.524934,0 -2.750734,0.47223 -2.810667,0.9951 z"
           id="path4563"
           inkscape:connector-curvature="0"
           style="opacity:0.5;fill:#343434" />
        <path
           d="m -21.74745,966.66884 c -3.4875,-8.91663 -28.795901,-6.76007 -28.795901,-6.76007 -0.134334,2.7559 1.548966,-28.89407 -6.197934,-28.89407 7.267434,0 34.993835,32.87447 34.993835,35.65414 z"
           id="path4570"
           inkscape:connector-curvature="0"
           style="fill:url(#XMLID_11_)" />
        <path
           d="m -21.74745,966.66884 c -1.55,-8.2057 -27.641668,-8.33487 -27.641668,-8.33487 -0.02583,2.75487 0.283133,-27.31927 -7.352167,-27.31927 7.267434,0 34.993835,32.87447 34.993835,35.65414 z"
           id="path4577"
           inkscape:connector-curvature="0"
           style="fill:url(#XMLID_12_)" />
      </g>
      <g
         style="fill:#808080;filter:url(#filter7261)"
         transform="matrix(7.5573809,0,0,7.5573809,-5029.6303,-2864.2695)"
         id="g7211">
        <path
           style="fill:#808080;fill-opacity:1"
           id="path7213"
           d="m 673.24083,506.20406 c -2.77368,-2.2e-4 -5.02205,2.24814 -5.02183,5.02182 -2.2e-4,2.77369 2.24815,5.02205 5.02183,5.02183 2.77368,2.2e-4 5.02204,-2.24814 5.02182,-5.02183 l -5.02182,-2.2e-4 0,-5.0216 z"
           inkscape:connector-curvature="0" />
        <path
           style="fill:#808080;fill-opacity:1"
           id="path7215"
           d="m 674.32168,505.1601 0,5.02204 5.02182,0 c 2.3e-4,-2.7739 -2.24792,-5.02249 -5.02182,-5.02204 z"
           inkscape:connector-curvature="0" />
        <path
           inkscape:connector-curvature="0"
           d="m 673.24083,516.24464 0,-5.02204 5.02182,0 c 2.3e-4,2.7739 -2.24792,5.02249 -5.02182,5.02204 z"
           id="path7217"
           style="fill:#808080;fill-opacity:1" />
      </g>
      <g
         transform="translate(3.6495834,0)"
         id="g6038">
        <path
           inkscape:connector-curvature="0"
           d="m 56.653914,960.5989 c -20.961802,-0.002 -37.953557,16.9901 -37.951902,37.95182 -0.0017,20.96178 16.9901,37.95358 37.951902,37.95188 20.961727,0 37.953482,-16.9901 37.951826,-37.95188 l -37.951826,-0.002 0,-37.95017 z"
           id="path7165"
           style="fill:url(#linearGradient7188);fill-opacity:1;stroke:#2988d6;stroke-width:0.75573808;stroke-miterlimit:4;stroke-dasharray:none;stroke-opacity:1" />
        <path
           inkscape:connector-curvature="0"
           d="m 64.822266,952.7093 0,37.95348 37.951824,0 c 0.002,-20.96345 -16.988366,-37.95686 -37.951824,-37.95348 z"
           id="path7167"
           style="fill:url(#linearGradient7204);fill-opacity:1;stroke:#b22c0e;stroke-width:0.75573808;stroke-miterlimit:4;stroke-dasharray:none;stroke-opacity:1" />
        <path
           style="fill:url(#linearGradient7196);fill-opacity:1;stroke:#d29a00;stroke-width:0.75573808;stroke-miterlimit:4;stroke-dasharray:none;stroke-opacity:1"
           id="path7180"
           d="m 56.705787,1036.4794 0,-37.95344 37.951826,0 c 0.0017,20.96334 -16.988444,37.95684 -37.951826,37.95344 z"
           inkscape:connector-curvature="0" />
      </g>
    </g>
  </g>
</svg>
