<?xml version="1.0" encoding="UTF-8" standalone="no"?>
<!-- Created with Inkscape (http://www.inkscape.org/) -->
<svg
   xmlns:svg="http://www.w3.org/2000/svg"
   xmlns="http://www.w3.org/2000/svg"
   xmlns:xlink="http://www.w3.org/1999/xlink"
   xmlns:inkscape="http://www.inkscape.org/namespaces/inkscape"
   version="1.0"
   width="94"
   height="120"
   id="svg2">
  <defs
     id="defs4">
    <linearGradient
       id="linearGradient3651">
      <stop
         id="stop3653"
         style="stop-color:#af6f00;stop-opacity:1"
         offset="0" />
      <stop
         id="stop3655"
         style="stop-color:#be6605;stop-opacity:1"
         offset="1" />
    </linearGradient>
    <linearGradient
       id="linearGradient3637">
      <stop
         id="stop3639"
         style="stop-color:#04169e;stop-opacity:1"
         offset="0" />
      <stop
         id="stop3641"
         style="stop-color:#000000;stop-opacity:0"
         offset="1" />
    </linearGradient>
    <linearGradient
       id="linearGradient3629">
      <stop
         id="stop3631"
         style="stop-color:#043aee;stop-opacity:1"
         offset="0" />
      <stop
         id="stop3633"
         style="stop-color:#3279fc;stop-opacity:1"
         offset="1" />
    </linearGradient>
    <linearGradient
       id="linearGradient3583">
      <stop
         id="stop3585"
         style="stop-color:#ffffff;stop-opacity:0"
         offset="0" />
      <stop
         id="stop3591"
         style="stop-color:#ffffff;stop-opacity:1"
         offset="0.54929852" />
      <stop
         id="stop3587"
         style="stop-color:#ffffff;stop-opacity:0"
         offset="1" />
    </linearGradient>
    <linearGradient
       id="linearGradient3563">
      <stop
         id="stop3565"
         style="stop-color:#8ac8ff;stop-opacity:1"
         offset="0" />
      <stop
         id="stop3567"
         style="stop-color:#bae2ff;stop-opacity:1"
         offset="1" />
    </linearGradient>
    <linearGradient
       id="linearGradient3555">
      <stop
         id="stop3557"
         style="stop-color:#a9d6fe;stop-opacity:1"
         offset="0" />
      <stop
         id="stop3559"
         style="stop-color:#4b8af8;stop-opacity:1"
         offset="1" />
    </linearGradient>
    <linearGradient
       id="linearGradient3327">
      <stop
         id="stop3329"
         style="stop-color:#000000;stop-opacity:0"
         offset="0" />
      <stop
         id="stop3335"
         style="stop-color:#7b7b7b;stop-opacity:0.48627454"
         offset="0.2142363" />
      <stop
         id="stop3337"
         style="stop-color:#000000;stop-opacity:0"
         offset="0.36813799" />
      <stop
         id="stop3339"
         style="stop-color:#7b7b7b;stop-opacity:0.48627451"
         offset="0.47614193" />
      <stop
         id="stop3341"
         style="stop-color:#000000;stop-opacity:0"
         offset="0.63018304" />
      <stop
         id="stop3343"
         style="stop-color:#7b7b7b;stop-opacity:0.48627451"
         offset="0.74340498" />
      <stop
         id="stop3345"
         style="stop-color:#000000;stop-opacity:0"
         offset="0.89631242" />
      <stop
         id="stop3331"
         style="stop-color:#7b7b7b;stop-opacity:0.48627451"
         offset="1" />
    </linearGradient>
    <linearGradient
       id="linearGradient3313">
      <stop
         id="stop3315"
         style="stop-color:#fe9999;stop-opacity:1"
         offset="0" />
      <stop
         id="stop3321"
         style="stop-color:#ff0000;stop-opacity:1"
         offset="0.5" />
      <stop
         id="stop3317"
         style="stop-color:#fa6262;stop-opacity:1"
         offset="1" />
    </linearGradient>
    <linearGradient
       id="linearGradient3279">
      <stop
         id="stop3281"
         style="stop-color:#db0000;stop-opacity:1"
         offset="0" />
      <stop
         id="stop3287"
         style="stop-color:#ff4a00;stop-opacity:1"
         offset="0.5" />
      <stop
         id="stop3283"
         style="stop-color:#db0000;stop-opacity:1"
         offset="1" />
    </linearGradient>
    <linearGradient
       id="linearGradient3257">
      <stop
         id="stop3259"
         style="stop-color:#9ecaff;stop-opacity:1"
         offset="0" />
      <stop
         id="stop3267"
         style="stop-color:#d6e7ff;stop-opacity:1"
         offset="0.19790378" />
      <stop
         id="stop3265"
         style="stop-color:#f7fbff;stop-opacity:1"
         offset="0.34207499" />
      <stop
         id="stop3269"
         style="stop-color:#a8d4ff;stop-opacity:1"
         offset="0.59777641" />
      <stop
         id="stop3261"
         style="stop-color:#6eb9ff;stop-opacity:1"
         offset="1" />
    </linearGradient>
    <linearGradient
       id="linearGradient3247">
      <stop
         id="stop3249"
         style="stop-color:#fff4e3;stop-opacity:1"
         offset="0" />
      <stop
         id="stop3659"
         style="stop-color:#fad796;stop-opacity:1"
         offset="0.48903611" />
      <stop
         id="stop3255"
         style="stop-color:#dfc28c;stop-opacity:1"
         offset="0.77486038" />
      <stop
         id="stop3251"
         style="stop-color:#c09135;stop-opacity:1"
         offset="1" />
    </linearGradient>
    <radialGradient
       cx="28.342104"
       cy="9.5265131"
       r="30.18681"
       fx="28.342104"
       fy="9.5265131"
       id="radialGradient3253"
       xlink:href="#linearGradient3247"
       gradientUnits="userSpaceOnUse"
       gradientTransform="matrix(1.1706327,1.5739284,-1.302277,1.0912974,7.5700654,-46.009951)" />
    <radialGradient
       cx="44.999996"
       cy="43.831703"
       r="45.75"
       fx="44.999996"
       fy="43.831703"
       id="radialGradient3263"
       xlink:href="#linearGradient3257"
       gradientUnits="userSpaceOnUse"
       gradientTransform="matrix(2.5442479e-8,1.2021857,-2.6229502,5.5510804e-8,160.96837,0.9016436)" />
    <linearGradient
       x1="40.5"
       y1="63"
       x2="51.5"
       y2="63"
       id="linearGradient3285"
       xlink:href="#linearGradient3279"
       gradientUnits="userSpaceOnUse" />
    <linearGradient
       x1="39"
       y1="85"
       x2="52.5"
       y2="85"
       id="linearGradient3319"
       xlink:href="#linearGradient3313"
       gradientUnits="userSpaceOnUse"
       spreadMethod="pad" />
    <linearGradient
       x1="426.5"
       y1="529.36218"
       x2="441.5"
       y2="576.86218"
       id="linearGradient3333"
       xlink:href="#linearGradient3327"
       gradientUnits="userSpaceOnUse"
       gradientTransform="translate(-61,5.5)" />
    <linearGradient
       x1="62.5"
       y1="81"
       x2="72.5"
       y2="92.5"
       id="linearGradient3561"
       xlink:href="#linearGradient3555"
       gradientUnits="userSpaceOnUse" />
    <radialGradient
       cx="68.232399"
       cy="89.454887"
       r="9.5"
       fx="68.232399"
       fy="89.454887"
       id="radialGradient3569"
       xlink:href="#linearGradient3563"
       gradientUnits="userSpaceOnUse"
       gradientTransform="matrix(-2.0526308,1.9542793e-7,-2.4553773e-7,-2.5789475,217.55594,310.69944)" />
    <linearGradient
       x1="58"
       y1="82"
       x2="73.5"
       y2="95.5"
       id="linearGradient3589"
       xlink:href="#linearGradient3583"
       gradientUnits="userSpaceOnUse" />
    <filter
       id="filter3625">
      <feGaussianBlur
         id="feGaussianBlur3627"
         stdDeviation="0.45106132"
         inkscape:collect="always" />
    </filter>
    <linearGradient
       x1="50"
       y1="107.5"
       x2="25"
       y2="62.5"
       id="linearGradient3635"
       xlink:href="#linearGradient3629"
       gradientUnits="userSpaceOnUse" />
    <linearGradient
       x1="360.5"
       y1="522.36218"
       x2="338"
       y2="574.86218"
       id="linearGradient3643"
       xlink:href="#linearGradient3637"
       gradientUnits="userSpaceOnUse" />
    <linearGradient
       x1="360.5"
       y1="522.36218"
       x2="338"
       y2="574.86218"
       id="linearGradient3647"
       xlink:href="#linearGradient3637"
       gradientUnits="userSpaceOnUse"
       gradientTransform="matrix(-1,0,0,1,748.5,1.3000001e-6)" />
    <linearGradient
       x1="47.188858"
       y1="49.004749"
       x2="35.409637"
       y2="3.9934983"
       id="linearGradient3657"
       xlink:href="#linearGradient3651"
       gradientUnits="userSpaceOnUse" />
    <filter
       id="filter3717">
      <feGaussianBlur
         id="feGaussianBlur3719"
         stdDeviation="0.55475215"
         inkscape:collect="always" />
    </filter>
    <filter
       id="filter3721">
      <feGaussianBlur
         id="feGaussianBlur3723"
         stdDeviation="0.42812434"
         inkscape:collect="always" />
    </filter>
  </defs>
  <g
     transform="translate(-328,-472.36218)"
     id="layer1">
    <path
       d="M 75.465948,30 A 29.215948,30 0 1 1 17.034052,30 A 29.215948,30 0 1 1 75.465948,30 z"
       transform="matrix(1.0611908,0,0,0.99975,326.38626,473.8136)"
       id="path3703"
       style="opacity:1;fill:none;fill-opacity:1;fill-rule:evenodd;stroke:#000000;stroke-width:1.94172418;stroke-linecap:butt;stroke-linejoin:miter;stroke-miterlimit:4;stroke-dasharray:none;stroke-dashoffset:0;stroke-opacity:0.5372549;filter:url(#filter3721)" />
    <path
       d="M 352.57459,525.33856 C 339.07459,533.33856 331.07459,543.33856 330.57459,563.33856 C 331.07459,590.83856 357.57459,590.33856 375.07459,590.33856 C 392.57459,590.33856 419.57459,590.83856 420.07459,563.33856 C 419.57459,543.33856 411.57459,533.33856 398.07459,525.33856 C 398.07459,525.33856 353.40792,525.33856 352.57459,525.33856 z"
       id="path3661"
       style="fill:none;fill-opacity:0.5372549;fill-rule:evenodd;stroke:#000000;stroke-width:2;stroke-linecap:butt;stroke-linejoin:miter;stroke-miterlimit:4;stroke-dasharray:none;stroke-opacity:0.5372549;filter:url(#filter3717)" />
    <path
       d="M 23.5,52 C 10,60 2,70 1.5,90 C 2,117.5 28.5,117 46,117 C 63.5,117 90.5,117.5 91,90 C 90.5,70 82.5,60 69,52 C 69,52 24.333333,52 23.5,52 z"
       transform="translate(328,472.36218)"
       id="path3229"
       style="fill:url(#radialGradient3263);fill-opacity:1;fill-rule:evenodd;stroke:url(#linearGradient3635);stroke-width:2;stroke-linecap:butt;stroke-linejoin:miter;stroke-miterlimit:4;stroke-dasharray:none;stroke-opacity:1" />
    <path
       d="M 355,524.86218 C 337.5,547.36218 335,559.86218 332.5,574.86218"
       id="path3237"
       style="fill:none;fill-rule:evenodd;stroke:url(#linearGradient3643);stroke-width:1px;stroke-linecap:butt;stroke-linejoin:miter;stroke-opacity:1" />
    <path
       d="M 393.5,524.86218 C 411,547.36218 413.5,559.86218 416,574.86218"
       id="path3645"
       style="fill:none;fill-rule:evenodd;stroke:url(#linearGradient3647);stroke-width:1px;stroke-linecap:butt;stroke-linejoin:miter;stroke-opacity:1" />
    <path
       d="M 395,525.36218 C 396,529.86218 396,537.86218 388,541.36218 C 388,537.86218 385.5,534.36218 383.5,531.86218 C 383.5,531.86218 395,525.36218 395,525.36218 z"
       id="path3233"
       style="fill:#9cceff;fill-opacity:1;fill-rule:evenodd;stroke:#6690f7;stroke-width:1px;stroke-linecap:butt;stroke-linejoin:miter;stroke-opacity:1" />
    <path
       d="M 38,60 C 38,60 40.5,66 40.5,66 C 40.5,66 51.5,66 51.5,66 C 51.5,66 54,60 54,60 C 54,60 38,60 38,60 z"
       transform="translate(328,472.36218)"
       id="path3239"
       style="fill:url(#linearGradient3285);fill-opacity:1;fill-rule:evenodd;stroke:#a90609;stroke-width:1px;stroke-linecap:butt;stroke-linejoin:miter;stroke-opacity:1" />
    <path
       d="M 25.5,53 C 24.5,57.5 24.5,65.5 32.5,69 C 32.5,65.5 35,62 37,59.5 C 37,59.5 25.5,53 25.5,53 z"
       transform="translate(328,472.36218)"
       id="path3231"
       style="fill:#d3ebff;fill-opacity:1;fill-rule:evenodd;stroke:#6690f7;stroke-width:1px;stroke-linecap:butt;stroke-linejoin:miter;stroke-opacity:1" />
    <path
       d="M 75.465948,30 A 29.215948,30 0 1 1 17.034052,30 A 29.215948,30 0 1 1 75.465948,30 z"
       transform="matrix(1.0611908,0,0,0.99975,325.42362,473.36968)"
       id="path2457"
       style="opacity:1;fill:url(#radialGradient3253);fill-opacity:1;fill-rule:evenodd;stroke:url(#linearGradient3657);stroke-width:1.94172418;stroke-linecap:butt;stroke-linejoin:miter;stroke-miterlimit:4;stroke-dasharray:none;stroke-dashoffset:0;stroke-opacity:1" />
    <path
       d="M 59.5,79.5 C 59.5,79.5 59.5,94.5 59.5,94.5 C 59.5,94.5 68,96 68,96 C 68,96 77.5,94.5 77.5,94.5 C 77.5,94.5 77.5,79.5 77.5,79.5 C 77.5,79.5 59.5,79.5 59.5,79.5 z"
       transform="translate(328,472.36218)"
       id="path3243"
       style="fill:url(#radialGradient3569);fill-opacity:1;fill-rule:evenodd;stroke:url(#linearGradient3561);stroke-width:1px;stroke-linecap:butt;stroke-linejoin:miter;stroke-opacity:0.58139535" />
    <path
       d="M 40.5,66 C 40.5,66 36.5,100.5 36.5,100.5 C 36.5,100.5 46,105.5 46,105.5 C 46,105.5 55.5,101 55.5,101 C 55.5,101 51.5,66 51.5,66 C 51.5,66 40.5,66 40.5,66 z"
       transform="translate(328,472.36218)"
       id="path3241"
       style="fill:url(#linearGradient3319);fill-opacity:1;fill-rule:evenodd;stroke:#a90609;stroke-width:1px;stroke-linecap:butt;stroke-linejoin:miter;stroke-opacity:1" />
    <path
       d="M 368.5,538.36218 C 368.5,538.36218 364.5,572.86218 364.5,572.86218 C 364.5,572.86218 374,577.86218 374,577.86218 C 374,577.86218 383.5,573.36218 383.5,573.36218 C 383.5,573.36218 379.5,538.36218 379.5,538.36218 C 379.5,538.36218 368.5,538.36218 368.5,538.36218 z"
       id="path3323"
       style="fill:url(#linearGradient3333);fill-opacity:1;fill-rule:evenodd;stroke:#a90609;stroke-width:1px;stroke-linecap:butt;stroke-linejoin:miter;stroke-opacity:1" />
    <path
       d="M 61.5,82 C 61.5,82 61.5,93 61.5,93 C 61.5,93 68,94 68,94 C 68,94 73.5,93 73.5,93"
       transform="translate(328,472.36218)"
       id="path3571"
       style="fill:none;fill-rule:evenodd;stroke:url(#linearGradient3589);stroke-width:1px;stroke-linecap:butt;stroke-linejoin:miter;stroke-opacity:1;filter:url(#filter3625)" />
    <path
       d="M 60,84 C 60,84 77,84 77,84"
       transform="translate(328,472.36218)"
       id="path3649"
       style="fill:none;fill-rule:evenodd;stroke:#8abcfc;stroke-width:1px;stroke-linecap:butt;stroke-linejoin:miter;stroke-opacity:0.45930236" />
    <path
       d="M 70,83.75 A 1.25,1.25 0 1 1 67.5,83.75 A 1.25,1.25 0 1 1 70,83.75 z"
       transform="matrix(1.2,0,0,1.1,313.5,464.36218)"
       id="path3245"
       style="opacity:1;fill:#299d17;fill-opacity:1;fill-rule:evenodd;stroke:none;stroke-width:2;stroke-linecap:butt;stroke-linejoin:miter;stroke-miterlimit:4;stroke-dasharray:none;stroke-dashoffset:0;stroke-opacity:0.78431373" />
  </g>
</svg>
