<?xml version="1.0" encoding="UTF-8" standalone="no"?>
<svg
   xmlns:dc="http://purl.org/dc/elements/1.1/"
   xmlns:cc="http://creativecommons.org/ns#"
   xmlns:rdf="http://www.w3.org/1999/02/22-rdf-syntax-ns#"
   xmlns:svg="http://www.w3.org/2000/svg"
   xmlns="http://www.w3.org/2000/svg"
   xmlns:sodipodi="http://sodipodi.sourceforge.net/DTD/sodipodi-0.dtd"
   xmlns:inkscape="http://www.inkscape.org/namespaces/inkscape"
   viewBox="0 0 546.13333 546.13333"
   width="128"
   height="128"
   version="1.2"
   id="svg8650"
   inkscape:version="0.91 r"
   sodipodi:docname="topics.svg">
  <metadata
     id="metadata8918">
    <rdf:RDF>
      <cc:Work
         rdf:about="">
        <dc:format>image/svg+xml</dc:format>
        <dc:type
           rdf:resource="http://purl.org/dc/dcmitype/StillImage" />
        <dc:title>Postscript-viewer</dc:title>
      </cc:Work>
    </rdf:RDF>
  </metadata>
  <sodipodi:namedview
     pagecolor="#ffffff"
     bordercolor="#666666"
     borderopacity="1"
     objecttolerance="10"
     gridtolerance="10"
     guidetolerance="10"
     inkscape:pageopacity="0"
     inkscape:pageshadow="2"
     inkscape:window-width="1920"
     inkscape:window-height="1051"
     id="namedview8916"
     showgrid="false"
     inkscape:zoom="2.7812867"
     inkscape:cx="80.630017"
     inkscape:cy="7.3771742"
     inkscape:window-x="1366"
     inkscape:window-y="0"
     inkscape:window-maximized="1"
     inkscape:current-layer="svg8650" />
  <title
     id="title8652">Postscript-viewer</title>
  <defs
     id="defs8654">
    <linearGradient
       id="l1"
       gradientUnits="userSpaceOnUse"
       x1="-243.37"
       x2="-44.488998"
       y1="117.81"
       y2="117.81">
      <stop
         stop-color="#930000"
         offset="0"
         id="stop8657" />
      <stop
         stop-color="#7c0000"
         offset="1"
         id="stop8659" />
    </linearGradient>
    <linearGradient
       id="l2"
       gradientUnits="userSpaceOnUse"
       x1="16.385401"
       x2="215.2614"
       y1="1"
       y2="1">
      <stop
         stop-color="#900"
         offset="0"
         id="stop8662" />
      <stop
         stop-color="#cf0000"
         offset="1"
         id="stop8664" />
    </linearGradient>
    <linearGradient
       id="l3"
       gradientUnits="userSpaceOnUse"
       x1="127.52"
       x2="127.52"
       y1="258.85001"
       y2="35.526001">
      <stop
         stop-color="#cf0000"
         offset="0"
         id="stop8667" />
      <stop
         stop-color="#f00"
         offset="1"
         id="stop8669" />
    </linearGradient>
    <linearGradient
       id="l4"
       gradientUnits="userSpaceOnUse"
       x1="-52.449001"
       x2="231.94"
       y1="186.85001"
       y2="186.85001">
      <stop
         stop-color="#f00"
         offset="0"
         id="stop8672" />
      <stop
         stop-color="#fff"
         offset="1"
         id="stop8674" />
    </linearGradient>
    <linearGradient
       id="l5"
       gradientUnits="userSpaceOnUse"
       x1="43.792"
       x2="210.87"
       y1="103.57"
       y2="103.57">
      <stop
         stop-color="#428aff"
         offset="0"
         id="stop8677" />
      <stop
         stop-color="#006dff"
         offset="1"
         id="stop8679" />
    </linearGradient>
    <linearGradient
       id="l6"
       gradientUnits="userSpaceOnUse"
       x1="76.135902"
       x2="81.605904"
       y1="179.4724"
       y2="7.2224002">
      <stop
         stop-color="#7d7d99"
         offset="0"
         id="stop8682" />
      <stop
         stop-color="#c9e6ff"
         offset="0.75"
         id="stop8684" />
    </linearGradient>
    <linearGradient
       id="l7"
       gradientUnits="userSpaceOnUse"
       x1="156.43539"
       x2="158.2854"
       y1="186.2424"
       y2="31.152399">
      <stop
         stop-color="#7d7d99"
         offset="0"
         id="stop8687" />
      <stop
         stop-color="#c9e6ff"
         offset="0.75"
         id="stop8689" />
    </linearGradient>
    <linearGradient
       id="l8"
       gradientUnits="userSpaceOnUse"
       x1="78.475403"
       x2="79.405403"
       y1="44.232399"
       y2="137.37241">
      <stop
         stop-color="#fff"
         offset="0.0337"
         id="stop8692" />
      <stop
         stop-color="#c9e6ff"
         offset="1"
         id="stop8694" />
    </linearGradient>
    <linearGradient
       id="l9"
       gradientUnits="userSpaceOnUse"
       x1="160.8954"
       x2="144.0154"
       y1="50.062401"
       y2="172.4024">
      <stop
         stop-color="#fff"
         offset="0.0337"
         id="stop8697" />
      <stop
         stop-color="#c9e6ff"
         offset="1"
         id="stop8699" />
    </linearGradient>
    <linearGradient
       x1="99.298843"
       y1="107.5882"
       x2="208.19344"
       y2="130.08321"
       id="x2"
       gradientUnits="userSpaceOnUse">
      <stop
         stop-color="#494949"
         offset="0"
         id="stop8702" />
      <stop
         stop-color="#616161"
         offset="0.5"
         id="stop8704" />
      <stop
         stop-color="#000"
         offset="1"
         id="stop8706" />
    </linearGradient>
    <linearGradient
       id="x3"
       gradientUnits="userSpaceOnUse"
       x1="197.01601"
       y1="228.98531"
       x2="210.31931"
       y2="164.58659">
      <stop
         stop-color="#7c0000"
         offset="0"
         id="stop8709" />
      <stop
         stop-color="#cf0000"
         offset="1"
         id="stop8711" />
    </linearGradient>
    <linearGradient
       id="x4"
       gradientUnits="userSpaceOnUse"
       x1="100.5969"
       y1="107.857"
       x2="206.8931"
       y2="129.8152">
      <stop
         stop-color="#a2a2a2"
         offset="0"
         id="stop8714" />
      <stop
         stop-color="#494949"
         offset="1"
         id="stop8716" />
    </linearGradient>
    <linearGradient
       id="x5"
       gradientUnits="userSpaceOnUse"
       x1="213.5033"
       y1="192.80923"
       x2="196.562"
       y2="203.952">
      <stop
         stop-color="#ffc957"
         offset="0"
         id="stop8719" />
      <stop
         stop-color="#ff6d00"
         offset="1"
         id="stop8721" />
    </linearGradient>
    <linearGradient
       id="x6"
       gradientUnits="userSpaceOnUse"
       x1="212.50529"
       y1="193.3884"
       x2="199.13789"
       y2="202.1702">
      <stop
         stop-color="#FF6"
         offset="0"
         id="stop8724" />
      <stop
         stop-color="#ff6d00"
         offset="1"
         id="stop8726" />
    </linearGradient>
    <linearGradient
       id="x7"
       gradientUnits="userSpaceOnUse"
       x1="196.4892"
       y1="183.8362"
       x2="187.1963"
       y2="169.7043">
      <stop
         stop-color="#ffd700"
         offset="0"
         id="stop8729" />
      <stop
         stop-color="#fff"
         offset="1"
         id="stop8731" />
    </linearGradient>
    <linearGradient
       id="x8"
       gradientUnits="userSpaceOnUse"
       x1="130.0089"
       y1="82.741699"
       x2="208.25661"
       y2="201.737">
      <stop
         stop-color="#dadada"
         offset="0"
         id="stop8734" />
      <stop
         stop-color="#949494"
         offset="0.6124"
         id="stop8736" />
      <stop
         stop-color="#dadada"
         offset="1"
         id="stop8738" />
    </linearGradient>
    <linearGradient
       id="x9"
       gradientUnits="userSpaceOnUse"
       x1="185.2672"
       y1="170.6815"
       x2="190.94031"
       y2="166.9511">
      <stop
         stop-color="#b2b2b2"
         offset="0"
         id="stop8741" />
      <stop
         stop-color="#fff"
         offset="1"
         id="stop8743" />
    </linearGradient>
    <linearGradient
       id="x1"
       gradientUnits="userSpaceOnUse"
       x1="107.5451"
       y1="108.8226"
       x2="199.2496"
       y2="127.7666">
      <stop
         stop-color="#fff"
         offset="0"
         id="stop8746" />
      <stop
         stop-color="#494949"
         offset="1"
         id="stop8748" />
    </linearGradient>
    <radialGradient
       id="r1"
       gradientUnits="userSpaceOnUse"
       cx="160.33659"
       cy="81.892403"
       r="116.95">
      <stop
         stop-color="#0035ed"
         offset="0.0056"
         id="stop8751" />
      <stop
         stop-color="#94caff"
         offset="0.5674"
         id="stop8753" />
      <stop
         stop-color="#c9e6ff"
         offset="0.7079"
         id="stop8755" />
      <stop
         stop-color="#034cfe"
         offset="1"
         id="stop8757" />
    </radialGradient>
    <radialGradient
       id="r2"
       gradientUnits="userSpaceOnUse"
       cx="160.37131"
       cy="66.648697"
       r="116.95">
      <stop
         stop-color="#fff"
         offset="0.0056"
         id="stop8760" />
      <stop
         stop-color="#94caff"
         offset="0.45"
         id="stop8762" />
      <stop
         stop-color="#c9e6ff"
         offset="0.6"
         id="stop8764" />
      <stop
         stop-color="#fff"
         offset="1"
         id="stop8766" />
    </radialGradient>
  </defs>
  <g
     id="g9538">
    <rect
       y="-6.3205291e-05"
       x="-2.9740651"
       height="546.13336"
       width="546.13336"
       id="rect9460"
       style="opacity:0;fill:#aa1000;fill-opacity:0.8745098;stroke:none;stroke-width:1.10000002;stroke-linecap:round;stroke-linejoin:round;stroke-miterlimit:4;stroke-dasharray:none;stroke-dashoffset:0;stroke-opacity:1" />
    <g
       transform="matrix(2.3742227,0,0,2.3742227,-33.807698,-719.67787)"
       id="g9462">
      <g
         id="g8768"
         transform="translate(0,290.13333)">
        <title
           id="title8770">Book</title>
        <path
           d="m 36.797,54.336 0.001,-0.0127 -11.928,121.32 c -0.8193,8.5801 0.21,13.69 3.4346,17.094 4.501,4.749 11.841,4.7481 22.952,4.7481 l 0.1318,0 71.186,-4.6943 0.75,-0.3994 c 3.0723,-1.6387 4.5117,-1.3398 7.6631,-0.6846 l 4.3291,0.7529 72.075,6.9863 5.2217,0.2109 c 8.2832,0.3652 12.847,0.5664 15.998,-2.5576 3.3008,-3.2676 3.0664,-8.4248 2.3242,-18.015 l -9.72,-121.65 c -0.4453,-5.7305 -0.7149,-9.1924 -2.8428,-11.584 -2.3369,-2.623 -5.5488,-2.7148 -10.412,-2.8535 l -4.02,-0.145 -142.23,-6.891 c -19.819,-1.358 -23.587,4.306 -24.921,18.376 z"
           id="path8772"
           inkscape:connector-curvature="0"
           style="fill:url(#l1)" />
        <path
           d="M 61.523,39.667 C 43.707,38.448 41.781,42.593 40.637,54.673 l -11.928,121.33 c -1.6963,17.769 5.0625,17.78 22.547,17.778 l 70.2,-4.627 c 5.8408,-3.1143 8.4736,-1.0693 14.335,-0.3682 l 71.875,6.9658 c 19.675,0.6582 20.902,2.7109 19.426,-16.382 l -9.73,-121.65 c -0.96,-12.294 -1.2,-10.558 -13.62,-11.16 l -142.24,-6.891 z"
           id="path8774"
           inkscape:connector-curvature="0"
           style="fill:url(#l2)" />
        <path
           d="M 60.08,42.124 C 43.336,40.569 43.85,43.309 42.779,55.075 l -11.301,119.82 c -1.6338,17.796 -0.0068,15.962 17.482,15.965 l 70.197,-4.6348 c 5.416,-2.6748 10.185,-2.7959 14.331,-0.3633 l 70.755,7.0547 c 19.678,0.6758 20.724,2.709 19.421,-16.394 l -8.52,-121 c -0.84,-12.302 -1.18,-10.965 -13.61,-11.165 l -141.45,-2.241 z"
           id="path8776"
           inkscape:connector-curvature="0"
           style="fill:url(#l3)" />
        <path
           d="m 204.24,189.76 -70.755,-7.3272 c -4.1465,-2.5254 -8.915,-2.4014 -14.331,0.3779 l -70.197,4.8125 c -13.551,-0.002 -17.576,1.1348 -17.943,-6.9482 -0.3779,11.225 2.959,9.8389 17.943,9.8408 l 70.197,-4.8125 c 5.416,-2.7793 10.185,-2.9053 14.331,-0.3779 l 70.755,7.3272 c 17.017,0.6074 20.098,2.2568 19.777,-10.136 -0.3125,9.2236 -4.2217,7.7988 -19.777,7.2432 z"
           id="path8778"
           inkscape:connector-curvature="0"
           style="fill:url(#l4)" />
        <path
           d="m 60.97,33.47 -0.8652,0.2041 -0.4072,0.792 c -0.8848,1.7227 -3.7256,4.3037 -4.5928,4.5391 l -1.4629,0.2549 -0.1689,1.4844 -11.778,137.43 84.204,-0.2568 87.013,1.998 -7.7939,-137.04 c -0.1826,-3.1367 -3.0957,-3.4229 -4.835,-3.5947 -1.7412,-0.1709 -3.541,-0.3486 -4.9775,-1.9043 l -0.4414,-0.4785 -11.846,-2.0801 c -18.91,-3.453 -42.28,-7.718 -54.95,-0.331 -13.87,-9.36 -54.268,-4.031 -67.09,-1.011 z"
           id="path8780"
           inkscape:connector-curvature="0"
           style="fill:#0053bd" />
        <path
           d="m 61.412,34.383 c -1.0195,1.9844 -4.4648,5.3691 -6.0186,5.5615 l -11.602,135.36 82.122,-0.2734 0.9649,0.007 83.99,1.9658 -7.6768,-134.97 c -0.17,-3.117 -5.58,-0.289 -9.29,-4.31 -20.39,-3.23 -51.78,-11.468 -65.89,-1.938 -11.79,-9.746 -52.926,-4.627 -66.588,-1.409 z"
           id="path8782"
           inkscape:connector-curvature="0"
           style="fill:url(#l5)" />
        <path
           d="m 57.818,41.628 c -4.5459,44.244 -6.5313,86.956 -11.084,131.2 l 82.127,0.6895 c 0.709,-43.781 1.4141,-87.564 2.1289,-131.34 -9.8604,-7.2305 -36.838,-5.0361 -66.761,-1.3574 -0.4707,0.0615 -1.4414,-5.1846 -1.627,-4.7969 -0.9199,1.9502 -3.1123,5.3945 -4.7842,5.6084 z"
           id="path8784"
           inkscape:connector-curvature="0"
           style="fill:url(#l6)" />
        <path
           d="m 201.39,42.546 6.8565,132.38 -79.383,-1.3975 c 0.7109,-43.78 1.416,-87.571 2.1309,-131.35 8.3233,-6.8066 35.606,-6.7168 61.417,-2.5703 3.7686,4.1309 5.875,2.3643 8.9785,2.9443 z"
           id="path8786"
           inkscape:connector-curvature="0"
           style="fill:url(#l7)" />
        <path
           d="m 62.433,35.93 c -3.816,45.174 -7.628,90.35 -11.439,135.52 25.471,-1.5957 51.168,-5.1943 75.743,1.2998 0.2725,-44.73 0.5488,-89.454 0.8223,-134.19 -9.8076,-7.9941 -35.27,-6.6211 -65.127,-2.6348 z"
           id="path8788"
           inkscape:connector-curvature="0"
           style="fill:url(#l8)" />
        <path
           d="m 62.433,35.93 c -3.816,45.174 -7.628,90.35 -11.439,135.52 25.471,-1.5957 51.168,-5.1943 75.743,1.2998 0.2725,-44.73 0.5488,-89.454 0.8223,-134.19 -9.8076,-7.9941 -35.27,-6.6211 -65.127,-2.6348 z m 62.387,134.43 c -20.092,-4.7744 -41.027,-3.2637 -61.309,-1.7305 0,0 -7.3848,0.5254 -10.41,0.7402 0.3623,-4.291 10.865,-128.73 11.117,-131.72 23.537,-3.0918 51.032,-5.4502 61.404,1.9297 -0.0127,1.9863 -0.7744,126.35 -0.8027,130.78 z"
           id="path8790"
           inkscape:connector-curvature="0"
           style="fill:#ffffff" />
        <path
           d="m 192.48,39.452 7.4756,135.31 c -23.01,-3.9951 -64.398,-8.2568 -73.218,-2.0098 0.2725,-44.727 0.5488,-89.459 0.8223,-134.19 8.5723,-7.7334 38.708,-4.748 64.92,0.8896 z"
           id="path8792"
           inkscape:connector-curvature="0"
           style="fill:url(#l9)" />
        <path
           d="m 192.48,39.452 c -26.212,-5.6377 -56.348,-8.623 -64.92,-0.8896 -0.2734,44.731 -0.5498,89.464 -0.8223,134.19 8.8203,-6.2471 50.208,-1.9854 73.218,2.0098 l -7.48,-135.31 z m -63.796,130.26 c 0.0342,-5.5547 0.7871,-128.32 0.7979,-130.18 7.3193,-5.415 30.97,-4.8428 61.155,1.5098 0.1572,2.8506 7.0068,126.82 7.2607,131.42 -17.294,-2.8399 -55.398,-7.542 -69.214,-2.7461 z"
           id="path8794"
           inkscape:connector-curvature="0"
           style="fill:#ffffff" />
        <g
           id="g8796"
           style="fill:#565656;fill-opacity:0.11869998">
          <title
             id="title8798">Text Imitation</title>
          <path
             d="m 198.16,167.38 0.2461,2.0098 c -23.009,-3.9951 -61.554,-8.3271 -70.373,-2.0791 l 0.0742,-1.2647 c 8.5684,-7.7344 43.841,-4.3047 70.053,1.334 z"
             id="path8800"
             inkscape:connector-curvature="0" />
          <path
             d="m 198.02,161.78 0.2432,2.0107 c -23.008,-3.9932 -61.55,-8.3272 -70.371,-2.0781 l 0.0762,-1.2637 c 8.5674,-7.7344 43.842,-4.3047 70.052,1.3311 z"
             id="path8802"
             inkscape:connector-curvature="0" />
          <path
             d="m 197.88,156.18 0.2441,2.0088 c -23.008,-3.9922 -61.551,-8.3252 -70.374,-2.0781 l 0.0771,-1.2637 c 8.5693,-7.7354 43.841,-4.3047 70.053,1.333 z"
             id="path8804"
             inkscape:connector-curvature="0" />
          <path
             d="m 197.75,150.58 0.2461,2.0088 c -23.011,-3.9941 -61.554,-8.3262 -70.375,-2.0781 l 0.0742,-1.2637 c 8.5703,-7.7354 43.843,-4.3047 70.055,1.333 z"
             id="path8806"
             inkscape:connector-curvature="0" />
          <path
             d="m 197.26,144.99 0.2451,2.0088 c -22.894,-3.998 -61.241,-8.335 -70.018,-2.0869 l 0.0742,-1.2666 c 8.5244,-7.7315 43.618,-4.2988 69.698,1.3447 z"
             id="path8808"
             inkscape:connector-curvature="0" />
          <path
             d="m 197.12,139.39 0.2422,2.0117 c -22.892,-3.9981 -61.24,-8.3359 -70.017,-2.0859 l 0.0762,-1.2676 c 8.5254,-7.7305 43.619,-4.2969 69.698,1.3418 z"
             id="path8810"
             inkscape:connector-curvature="0" />
          <path
             d="m 196.63,133.8 0.2412,2.0098 c -22.777,-4.001 -60.932,-8.3418 -69.663,-2.0967 l 0.0762,-1.2637 c 8.4795,-7.7324 43.396,-4.294 69.346,1.3506 z"
             id="path8812"
             inkscape:connector-curvature="0" />
          <path
             d="m 196.85,128.19 0.2422,2.0088 c -22.8,-3.9971 -60.993,-8.3389 -69.732,-2.0928 l 0.0742,-1.2656 c 8.4883,-7.7324 43.442,-4.292 69.416,1.3496 z"
             id="path8814"
             inkscape:connector-curvature="0" />
          <path
             d="m 196.57,122.59 0.2393,2.0098 c -22.707,-4.001 -60.745,-8.3457 -69.448,-2.1006 l 0.0752,-1.2647 c 8.4531,-7.7315 43.264,-4.2891 69.134,1.3555 z"
             id="path8816"
             inkscape:connector-curvature="0" />
          <path
             d="m 196.15,117 0.2383,2.0088 c -22.565,-4.0029 -60.37,-8.3535 -69.022,-2.1104 l 0.0733,-1.2646 c 8.4043,-7.7305 42.998,-4.2832 68.71,1.3662 z"
             id="path8818"
             inkscape:connector-curvature="0" />
          <path
             d="m 195.88,111.4 0.2363,2.0098 c -22.474,-4.0078 -60.121,-8.3613 -68.734,-2.1191 l 0.0723,-1.2637 c 8.3643,-7.7285 42.817,-4.2783 68.426,1.3731 z"
             id="path8820"
             inkscape:connector-curvature="0" />
          <path
             d="m 195.6,105.8 0.2373,2.0117 c -22.36,-4.0107 -59.814,-8.3691 -68.38,-2.127 l 0.0713,-1.2656 c 8.3223,-7.7285 42.599,-4.2725 68.071,1.3809 z"
             id="path8822"
             inkscape:connector-curvature="0" />
          <path
             d="m 195.18,100.21 0.2344,2.0107 c -22.174,-4.0146 -59.315,-8.3818 -67.812,-2.1426 l 0.0713,-1.2627 c 8.2529,-7.7256 42.241,-4.2666 67.507,1.3945 z"
             id="path8824"
             inkscape:connector-curvature="0" />
          <path
             d="m 194.9,94.611 0.2383,2.0088 c -22.104,-4.0166 -59.132,-8.3848 -67.6,-2.1465 l 0.0713,-1.2637 c 8.2217,-7.7256 42.107,-4.2627 67.29,1.4014 z"
             id="path8826"
             inkscape:connector-curvature="0" />
          <path
             d="m 194.62,89.013 0.2344,2.0098 c -22.013,-4.0176 -58.885,-8.3916 -67.316,-2.1533 l 0.0713,-1.2627 c 8.1895,-7.7266 41.931,-4.2588 67.011,1.4063 z"
             id="path8828"
             inkscape:connector-curvature="0" />
          <path
             d="m 194.2,83.419 0.2363,2.0098 c -21.9,-4.021 -58.58,-8.398 -66.96,-2.162 l 0.0703,-1.2617 c 8.1436,-7.7256 41.709,-4.2549 66.654,1.4141 z"
             id="path8830"
             inkscape:connector-curvature="0" />
          <path
             d="m 193.99,77.819 0.2344,2.0107 c -21.77,-4.024 -58.26,-8.407 -66.6,-2.169 l 0.0684,-1.2656 c 8.1025,-7.7217 41.486,-4.2471 66.301,1.4238 z"
             id="path8832"
             inkscape:connector-curvature="0" />
          <path
             d="m 193.57,72.227 0.2334,2.0088 c -21.642,-4.0264 -57.889,-8.415 -66.178,-2.1787 l 0.0703,-1.2656 c 8.0469,-7.7227 41.22,-4.2393 65.874,1.4355 z"
             id="path8834"
             inkscape:connector-curvature="0" />
          <path
             d="m 193.23,66.63 0.2305,2.0117 c -21.504,-4.0313 -57.519,-8.4248 -65.75,-2.1904 l 0.0684,-1.2656 c 7.9922,-7.7207 40.954,-4.2344 65.451,1.4443 z"
             id="path8836"
             inkscape:connector-curvature="0" />
          <path
             d="m 192.81,61.037 0.2285,2.0088 c -21.35,-4.033 -57.09,-8.434 -65.26,-2.201 l 0.0664,-1.2656 c 7.9346,-7.7188 40.643,-4.2266 64.957,1.458 z"
             id="path8838"
             inkscape:connector-curvature="0" />
          <path
             d="m 192.74,55.435 0.2285,2.0088 c -21.318,-4.0332 -57.023,-8.4346 -65.182,-2.2031 l 0.0684,-1.2656 c 7.9209,-7.7178 40.598,-4.2246 64.885,1.46 z"
             id="path8840"
             inkscape:connector-curvature="0" />
          <path
             d="m 192.61,49.834 0.2295,2.0098 c -21.272,-4.0352 -56.9,-8.4395 -65.042,-2.207 l 0.0674,-1.2666 c 7.9063,-7.7158 40.51,-4.2217 64.745,1.4639 z"
             id="path8842"
             inkscape:connector-curvature="0" />
          <path
             d="m 53.778,163.62 -0.335,1.0273 c 25.474,-1.5947 47.568,-4.3037 72.144,2.1924 l -0.0459,-0.8486 c -10.777,-6.4619 -41.906,-6.3584 -71.763,-2.3711 z"
             id="path8844"
             inkscape:connector-curvature="0" />
          <path
             d="m 54.443,158 -0.3301,1.0283 c 25.186,-1.5889 47.033,-4.291 71.336,2.2129 l -0.0449,-0.8496 C 114.747,153.9258 83.963,154.0215 54.443,158 Z"
             id="path8846"
             inkscape:connector-curvature="0" />
          <path
             d="m 54.707,152.39 -0.3281,1.0274 c 25.045,-1.5859 46.768,-4.2822 70.935,2.2236 l -0.0459,-0.8506 c -10.599,-6.4668 -41.208,-6.374 -70.56,-2.4004 z"
             id="path8848"
             inkscape:connector-curvature="0" />
          <path
             d="m 55.071,146.78 -0.3262,1.0293 c 24.974,-1.585 46.637,-4.2813 70.735,2.2275 l -0.0459,-0.8506 c -10.569,-6.4668 -41.093,-6.377 -70.363,-2.4063 z"
             id="path8850"
             inkscape:connector-curvature="0" />
          <path
             d="m 55.337,141.17 -0.3242,1.0264 c 24.828,-1.5801 46.367,-4.2725 70.33,2.2363 l -0.0459,-0.8477 c -10.51,-6.4688 -40.857,-6.3818 -69.96,-2.415 z"
             id="path8852"
             inkscape:connector-curvature="0" />
          <path
             d="m 55.601,135.56 -0.3232,1.0273 c 24.758,-1.5791 46.236,-4.2715 70.13,2.2422 l -0.0459,-0.8496 c -10.48,-6.4688 -40.742,-6.3877 -69.761,-2.4199 z"
             id="path8854"
             inkscape:connector-curvature="0" />
          <path
             d="m 55.666,130.05 -0.3223,1.0283 c 24.688,-1.5772 46.106,-4.2676 69.93,2.2451 l -0.0459,-0.8477 c -10.448,-6.4707 -40.624,-6.3906 -69.562,-2.4258 z"
             id="path8856"
             inkscape:connector-curvature="0" />
          <path
             d="m 56.531,124.43 -0.3164,1.0274 c 24.332,-1.5703 45.438,-4.252 68.922,2.2695 l -0.0439,-0.8486 c -10.303,-6.4727 -40.043,-6.4014 -68.562,-2.4482 z"
             id="path8858"
             inkscape:connector-curvature="0" />
          <path
             d="m 56.899,118.92 -0.3164,1.0254 c 24.296,-1.5654 45.373,-4.249 68.822,2.2734 l -0.0439,-0.8467 c -10.288,-6.4746 -39.987,-6.4053 -68.462,-2.4522 z"
             id="path8860"
             inkscape:connector-curvature="0" />
          <path
             d="m 56.959,113.11 -0.3174,1.0264 c 24.227,-1.5635 45.24,-4.2461 68.622,2.2783 l -0.043,-0.8496 c -10.259,-6.4736 -39.869,-6.4072 -68.262,-2.4551 z"
             id="path8862"
             inkscape:connector-curvature="0" />
          <path
             d="m 57.726,107.59 -0.3125,1.0254 c 23.941,-1.5586 44.707,-4.2324 67.818,2.2979 l -0.0449,-0.8467 c -10.141,-6.4785 -39.403,-6.419 -67.461,-2.4766 z"
             id="path8864"
             inkscape:connector-curvature="0" />
          <path
             d="m 58.295,102.17 -0.3096,1.0273 c 23.691,-1.5527 44.241,-4.2217 67.115,2.3135 l -0.0449,-0.8467 c -10.04,-6.477 -38.998,-6.426 -66.765,-2.49 z"
             id="path8866"
             inkscape:connector-curvature="0" />
          <path
             d="m 58.66,96.657 -0.3047,1.0254 c 23.619,-1.548 44.105,-4.216 66.915,2.318 l -0.043,-0.8467 c -10.01,-6.479 -38.886,-6.429 -66.57,-2.496 z"
             id="path8868"
             inkscape:connector-curvature="0" />
          <path
             d="m 59.023,90.943 -0.3057,1.0264 c 23.516,-1.5479 43.909,-4.2129 66.613,2.3281 l -0.0459,-0.8486 c -9.95,-6.481 -38.697,-6.435 -66.257,-2.505 z"
             id="path8870"
             inkscape:connector-curvature="0" />
          <path
             d="m 59.582,85.024 -0.3037,1.0264 c 23.372,-1.5449 43.644,-4.207 66.209,2.3379 l -0.0439,-0.8496 c -9.91,-6.482 -38.477,-6.441 -65.868,-2.514 z"
             id="path8872"
             inkscape:connector-curvature="0" />
          <path
             d="m 60.552,79.598 -0.254,1.0254 c 22.98,-1.5352 42.912,-4.1895 65.102,2.3643 l -0.0439,-0.8506 c -9.6201,-6.4883 -37.362,-6.4688 -63.96,-2.5596 z"
             id="path8874"
             inkscape:connector-curvature="0" />
          <path
             d="m 61.01,73.782 -0.2939,1.0254 c 22.695,-1.5283 42.38,-4.1768 64.299,2.3838 l -0.0449,-0.8496 c -9.6201,-6.4883 -37.362,-6.4688 -63.96,-2.5596 z"
             id="path8876"
             inkscape:connector-curvature="0" />
          <path
             d="m 61.473,68.166 -0.2891,1.0273 c 22.516,-1.5254 42.047,-4.168 63.794,2.3936 l -0.043,-0.8467 c -9.55,-6.494 -37.078,-6.476 -63.467,-2.574 z"
             id="path8878"
             inkscape:connector-curvature="0" />
          <path
             d="m 62.24,62.545 -0.29,1.0234 c 22.234,-1.5156 41.517,-4.1533 62.991,2.417 l -0.042,-0.8496 C 115.4693,58.6397 88.292,58.6504 62.24,62.545 Z"
             id="path8880"
             inkscape:connector-curvature="0" />
          <path
             d="m 63.003,56.921 -0.2822,1.0273 c 21.841,-1.5078 40.783,-4.1396 61.885,2.4395 l -0.0439,-0.8467 c -9.2637,-6.499 -35.966,-6.5029 -61.559,-2.6201 z"
             id="path8882"
             inkscape:connector-curvature="0" />
          <path
             d="m 63.767,51.298 -0.2783,1.0264 c 21.629,-1.5039 40.386,-4.127 61.282,2.4561 l -0.043,-0.8467 c -9.18,-6.501 -35.62,-6.511 -60.963,-2.635 z"
             id="path8884"
             inkscape:connector-curvature="0" />
          <path
             d="m 64.331,45.68 -0.2744,1.0273 c 21.379,-1.4961 39.918,-4.1182 60.576,2.4727 l -0.042,-0.8467 c -9.0713,-6.5049 -35.209,-6.5225 -60.26,-2.6533 z"
             id="path8886"
             inkscape:connector-curvature="0" />
        </g>
        <path
           d="M 128.2,173.52 129.4617,34.9 c -0.5049,0.2734 -0.9951,0.5615 -1.4639,0.8721 -0.4551,-0.3701 -0.9678,-0.71 -1.5078,-1.0371 l -1.415,138.75 0.8379,0.007 0,0.007 2.2871,0.0264 z"
           id="path8888"
           inkscape:connector-curvature="0"
           style="fill:#000000" />
      </g>
      <g
         id="g8890"
         transform="translate(0,290.13333)">
        <title
           id="title8892">Magnifier</title>
        <path
           d="m 123.08,72.202 0,0 c -25.417,16.713 -32.499,50.989 -15.786,76.407 7.2598,11.041 18.238,19.113 30.915,22.727 12.265,3.501 25.371,2.5898 37.058,-2.4854 1.0215,1.5547 7.1475,10.871 7.1475,10.871 2.2441,3.4131 7.3467,3.7432 11.87,0.7686 2.6563,-1.7471 4.3457,-4.1299 4.834,-6.4912 0.3418,-1.6572 0.0908,-3.3037 -0.834,-4.7109 0,0 -6.1289,-9.3174 -7.1504,-10.871 8.3018,-7.7871 14.002,-17.928 16.295,-29.023 0.2725,-1.3262 0.5,-2.665 0.6748,-4.0156 1.7041,-13.07 -1.3565,-26.35 -8.6162,-37.39 -16.713,-25.418 -50.99,-32.5 -76.407,-15.786 z"
           id="path8894"
           inkscape:connector-curvature="0"
           style="fill:url(#x2)" />
        <path
           d="m 185.19,166.65 c -3.8799,2.5479 -6.4102,6.1182 -7.127,9.5938 -0.4219,2.041 -0.2188,4.0518 0.707,5.8018 l 0.0293,0.0566 0.0176,0.1035 26.828,40.803 c 3.1055,4.7207 10.631,5.0723 17.131,0.7998 6.501,-4.2744 9.1592,-11.322 6.0557,-16.044 l -26.864,-40.854 -0.0742,-0.0273 c -3.3428,-4.1982 -10.524,-4.2969 -16.703,-0.2324 z"
           id="path8896"
           inkscape:connector-curvature="0"
           style="fill:url(#x3)" />
        <path
           d="m 124.54,74.415 c -11.701,7.6963 -19.711,19.509 -22.553,33.261 -2.8418,13.755 -0.1689,27.775 7.5254,39.478 6.9111,10.51 17.361,18.194 29.427,21.634 12.027,3.4297 24.914,2.4434 36.286,-2.7813 l 1.0352,-0.4736 8.374,12.734 c 1.4131,2.1494 4.9385,2.1533 8.1982,0.009 3.2617,-2.1455 4.6553,-5.3838 3.2422,-7.5322 l -8.375,-12.735 0.8477,-0.7607 c 9.3027,-8.3711 15.317,-19.812 16.934,-32.213 1.6221,-12.441 -1.293,-25.082 -8.2031,-35.592 -15.93,-24.211 -48.56,-30.953 -72.76,-15.043 z"
           id="path8898"
           inkscape:connector-curvature="0"
           style="fill:url(#x4)" />
        <path
           d="m 199.26,169.46 26.51,40.314 c 1.9473,2.9649 -0.2949,7.8779 -5.0078,10.977 -4.7148,3.1016 -10.114,3.2119 -12.064,0.2471 l -26.508,-40.315 17.07,-11.223 z"
           id="path8900"
           inkscape:connector-curvature="0"
           style="fill:url(#x5)" />
        <path
           d="m 198.48,170.72 25.834,39.291 c 1.8984,2.8877 0.4209,7.2109 -3.2979,9.6553 -3.7178,2.4463 -8.2715,2.0879 -10.172,-0.7988 l -25.833,-39.29 13.469,-8.8574 z"
           id="path8902"
           inkscape:connector-curvature="0"
           style="fill:url(#x6)" />
        <path
           d="m 199.26,169.46 c 1.9492,2.9619 -0.2949,7.877 -5.0088,10.976 -4.7139,3.0986 -10.113,3.2129 -12.062,0.2471 -1.9483,-2.9629 0.2939,-7.876 5.0078,-10.976 4.7139,-3.0986 10.113,-3.2119 12.062,-0.2471 z"
           id="path8904"
           inkscape:connector-curvature="0"
           style="fill:url(#x7)" />
        <path
           d="m 110.36,146.6 c -15.63,-23.772 -9.0313,-55.711 14.739,-71.34 23.768,-15.631 55.709,-9.0313 71.338,14.739 14.545,22.119 9.835,51.312 -10.046,67.856 l 8.8418,13.444 c 1.0625,1.6152 -0.2608,4.3623 -2.9522,6.1338 -2.6924,1.7695 -5.7383,1.8955 -6.8008,0.2803 l -8.8389,-13.445 c -23.07,11.698 -51.737,4.4521 -66.281,-17.668 z"
           id="path8906"
           inkscape:connector-curvature="0"
           style="fill:url(#x8)" />
        <path
           d="m 185.93,159.76 c 0,0 8.8564,13.469 9.3623,14.233 -0.2998,0.4492 -1.0439,1.2754 -2.3721,2.1455 -1.3291,0.874 -2.3809,1.2314 -2.9121,1.3281 -0.501,-0.7656 -9.3594,-14.237 -9.3594,-14.237 l 5.2813,-3.4697 z"
           id="path8908"
           inkscape:connector-curvature="0"
           style="fill:url(#x9)" />
        <circle
           cx="153"
           cy="118.4"
           r="47"
           id="circle8910"
           style="fill:url(#x1)" />
        <circle
           cx="153"
           cy="118.4"
           r="44.5"
           id="circle8912"
           style="fill:url(#r1)" />
        <circle
           cx="153"
           cy="118.4"
           r="42"
           id="circle8914"
           style="fill:url(#r2)" />
      </g>
    </g>
  </g>
</svg>
