<?xml version="1.0" encoding="UTF-8" standalone="no"?>
<!-- Created with Inkscape (http://www.inkscape.org/) -->

<svg
   xmlns:dc="http://purl.org/dc/elements/1.1/"
   xmlns:cc="http://creativecommons.org/ns#"
   xmlns:rdf="http://www.w3.org/1999/02/22-rdf-syntax-ns#"
   xmlns:svg="http://www.w3.org/2000/svg"
   xmlns="http://www.w3.org/2000/svg"
   xmlns:sodipodi="http://sodipodi.sourceforge.net/DTD/sodipodi-0.dtd"
   xmlns:inkscape="http://www.inkscape.org/namespaces/inkscape"
   version="1.1"
   id="svg96"
   width="128"
   height="128"
   viewBox="0 0 128 128"
   sodipodi:docname="tuning.svg"
   inkscape:version="0.92.3 (2405546, 2018-03-11)">
  <metadata
     id="metadata102">
    <rdf:RDF>
      <cc:Work
         rdf:about="">
        <dc:format>image/svg+xml</dc:format>
        <dc:type
           rdf:resource="http://purl.org/dc/dcmitype/StillImage" />
        <dc:title></dc:title>
      </cc:Work>
    </rdf:RDF>
  </metadata>
  <defs
     id="defs100" />
  <sodipodi:namedview
     pagecolor="#ffffff"
     bordercolor="#666666"
     borderopacity="1"
     objecttolerance="10"
     gridtolerance="10"
     guidetolerance="10"
     inkscape:pageopacity="0"
     inkscape:pageshadow="2"
     inkscape:window-width="1920"
     inkscape:window-height="1052"
     id="namedview98"
     showgrid="false"
     inkscape:zoom="2.2395833"
     inkscape:cx="53.05981"
     inkscape:cy="60.628117"
     inkscape:window-x="0"
     inkscape:window-y="0"
     inkscape:window-maximized="1"
     inkscape:current-layer="svg96" />
  <path
     inkscape:connector-curvature="0"
     id="path216"
     d="m 53.861419,121.82765 c -10.290654,-2.52764 -12.141035,-4.02022 -12.871753,-10.38273 -0.786599,-6.8491 -1.541461,-7.30166 -9.643669,-5.78169 -7.686253,1.44197 -9.650741,0.54962 -15.641373,-7.105006 C 9.3089413,90.386063 9.1124129,89.303503 12.748137,82.272793 16.484528,75.047412 16.354531,74.631871 9.5482585,72.044132 2.9988964,69.554063 2.5884012,68.504861 4.2059346,58.389359 6.4072874,44.622845 10.194564,37.417909 15.229578,37.417909 c 2.193035,0 3.912151,-2.463151 3.912151,-5.605334 0,-6.3912 14.479687,-21.102119 20.770427,-21.102119 2.299584,0 6.554495,2.103212 9.455357,4.673804 3.35002,2.968614 5.654273,3.59399 6.315789,1.714111 3.203738,-9.1043063 7.685882,-11.641031 17.659201,-9.9944417 8.281709,1.3673041 10.818102,3.3115747 13.879981,10.6396827 3.375803,8.079435 4.407525,8.715334 10.427073,6.426706 5.733733,-2.179961 7.646393,-1.392126 13.495163,5.558737 7.18241,8.535822 8.58277,14.293054 4.14384,17.036462 -4.81158,2.97372 -2.80475,8.429177 4.28984,11.66166 6.26254,2.853424 6.7784,4.168633 5.14392,13.114748 -2.16524,11.851139 -8.65197,22.760039 -12.22184,20.553736 -1.40437,-0.867939 -2.59163,1.196975 -2.63835,4.588714 -0.1021,7.412335 -4.08949,12.951645 -13.936473,19.360665 -6.811834,4.43357 -7.82202,4.46746 -13.927448,0.46703 -8.433909,-5.52612 -8.627257,-5.49599 -12.694709,1.97715 -3.229209,5.93304 -4.106549,6.12271 -15.442081,3.33843 z m 14.595524,-20.01702 c 2.051012,-6.462188 13.265015,-8.680135 18.321449,-3.623693 2.389129,2.389143 6.042794,3.190713 9.517145,2.088013 6.064143,-1.924697 7.039593,-5.763012 3.062768,-12.051897 -3.202803,-5.064828 4.114375,-13.6818 9.773875,-11.510057 2.2136,0.849457 5.08686,-0.133003 6.38503,-2.183174 4.20627,-6.642918 2.58923,-12.459214 -3.91794,-14.092402 -7.80355,-1.958564 -10.62199,-12.905113 -4.81729,-18.709818 5.82233,-5.822329 -0.65147,-13.236133 -9.997779,-11.449474 -9.446857,1.80588 -16.215329,-2.499321 -16.215329,-10.314031 0,-3.90224 -1.542404,-6.582896 -3.787686,-6.582896 -2.083224,0 -5.474662,-0.647354 -7.536523,-1.438565 -2.276006,-0.873384 -4.962514,1.225162 -6.83804,5.341491 -3.522152,7.730282 -9.990652,8.7168 -16.792658,2.561068 -3.667809,-3.31932 -5.848337,-3.584041 -10.225592,-1.241405 -6.160323,3.296904 -6.637189,4.969656 -3.038373,10.657978 3.65527,5.777551 -1.661722,13.497631 -9.29612,13.497631 -5.192631,0 -6.582897,1.372101 -6.582897,6.496887 0,4.038012 1.921111,7.106619 5.075982,8.107935 6.26015,1.986901 9.641712,13.917974 5.394981,19.034962 -4.335894,5.224432 1.818804,12.460523 8.732087,10.266345 6.641359,-2.107886 18.187386,5.538886 18.187386,12.045275 0,4.367287 2.955332,6.440587 11.170691,7.836687 1.002697,0.17039 2.543872,-1.96121 3.424833,-4.73686 z M 50.092714,71.932682 C 34.748222,53.69678 48.974951,32.746708 71.626466,40.222384 c 10.472959,3.456387 14.283897,9.320134 14.283897,21.978102 0,11.563927 -6.878641,17.949358 -19.335788,17.949358 -7.404986,0 -11.130448,-1.857369 -16.481861,-8.217162 z m 27.492067,-0.75291 c 5.12652,-6.17706 -6.109845,-17.737381 -17.240342,-17.737381 -7.926868,0 -9.153765,0.874616 -9.153765,6.525406 0,11.594934 19.279424,19.784667 26.394107,11.211975 z"
     style="fill:#d2d2e0;stroke-width:2.67074537" />
  <path
     sodipodi:nodetypes="sssssssssssssssssssssssscssssssssssssssssssszssssssssssscsssscssssssss"
     inkscape:connector-curvature="0"
     id="path182"
     d="m 49.3641,121.02005 c -3.919247,-0.76218 -6.420194,-3.80918 -7.62356,-9.28808 -1.654852,-7.53447 -2.475396,-8.04268 -10.803621,-6.69121 -7.694616,1.24868 -9.802127,0.35401 -14.41009,-6.117285 C 10.325412,90.214388 9.7542026,85.264161 14.413083,80.605287 17.010706,78.007666 16.102226,76.05033 10.064367,71.235911 3.9780517,66.382847 2.8082204,63.829133 4.2890992,58.628551 8.7452015,42.979608 12.002425,37.417909 16.711178,37.417909 c 3.167709,0 4.412063,-1.359244 3.476446,-3.797423 -2.185147,-5.694403 3.457622,-14.327291 12.381019,-18.941759 7.225853,-3.736635 8.546882,-3.693142 14.933713,0.49167 6.680762,4.377405 7.177892,4.35671 10.688966,-0.444967 2.025282,-2.769742 3.682333,-6.030917 3.682333,-7.2470622 0,-1.9750028 5.961491,-1.2788437 19.044868,2.223983 2.395672,0.6413952 5.081339,4.7940362 5.968149,9.2280932 1.503771,7.518839 2.221449,7.947654 10.653884,6.365721 7.951734,-1.491755 9.741504,-0.713118 14.849334,6.460167 5.49184,7.71257 5.56894,8.520976 1.41708,14.857522 -4.24761,6.482676 -4.16442,6.804287 2.55153,9.864293 3.81826,1.739697 7.07533,4.472484 7.23792,6.072848 1.33516,13.141429 -5.2451,28.281831 -12.29172,28.281831 -2.27976,0 -3.25068,1.589761 -2.37098,3.882222 1.87194,4.878196 -4.48231,14.123672 -13.996318,20.364782 -7.055875,4.62856 -7.508585,4.61248 -14.005322,-0.49786 l -6.713754,-5.28105 -4.120181,6.79043 c -4.004755,6.60018 -7.664996,7.47026 -20.734045,4.9287 z m 15.800108,-11.49201 c 3.964091,-6.34753 11.909847,-6.91514 18.120617,-1.29448 4.020925,3.63889 5.209767,3.46665 11.788282,-1.70802 6.175633,-4.85774 7.060563,-7.11858 5.675733,-14.50036 -1.477764,-7.877176 -1.090536,-8.601429 3.90094,-7.296129 11.27791,2.949224 19.19436,-21.046702 8.10465,-24.56645 -7.15299,-2.270267 -9.59865,-11.374477 -4.55318,-16.949664 3.66662,-4.051566 3.59839,-5.139825 -0.67766,-10.808717 -3.91568,-5.191133 -5.69814,-5.798685 -10.100347,-3.442697 -6.686099,3.578294 -16.854371,-2.659481 -16.854371,-10.33939 0,-3.222522 -2.433514,-5.749939 -6.525072,-6.776854 -7.440715,-1.8674996 -12.170145,0.226399 -12.170145,5.388168 0,5.407802 -9.638197,6.730061 -16.094376,2.20798 -4.739297,-3.319534 -6.856957,-3.443619 -11.979783,-0.701966 -5.333246,2.854266 -5.815118,4.225199 -3.370777,9.589939 3.538305,7.765737 -1.079163,14.429999 -9.998113,14.429999 -5.166764,0 -6.226444,1.647581 -7.125901,11.079278 -0.852573,8.940079 2.273426,8.221328 3.725595,12.329842 1.452169,4.108541 6.177629,5.770787 4.994874,12.288981 -0.230915,1.272583 1.351104,5.016568 3.515598,8.320013 2.935197,4.479667 3.165161,6.776535 0.904797,9.036894 -3.771139,3.771145 -0.610255,3.924286 6.164257,0.298696 3.977327,-2.128611 6.297892,-1.538777 10.507403,2.670745 2.971485,2.971472 5.402699,7.806372 5.402699,10.744192 0,3.91224 1.780498,5.34149 6.654232,5.34149 3.761795,0 8.104232,-2.32184 9.990048,-5.34149 z M 42.510751,94.333291 c -2.570592,-0.671772 -4.673804,-2.335112 -4.673804,-3.696311 0,-3.773176 4.29048,-2.95323 8.012236,1.531218 1.82863,2.203365 2.877164,3.866679 2.330078,3.696312 -0.547089,-0.170394 -3.097917,-0.859446 -5.66851,-1.531219 z M 57.090027,77.35523 C 49.655972,74.371393 42.990914,59.756087 45.710991,52.403025 c 1.080858,-2.921832 4.807934,-7.188321 8.282395,-9.481084 3.854147,-2.543313 5.519148,-2.867016 4.270369,-0.830228 -1.385371,2.259579 -0.239352,3.338432 3.546245,3.338432 8.341066,0 17.779865,7.213189 21.643055,16.539749 3.129395,7.555031 2.897121,8.694077 -2.696534,13.223555 -6.617744,5.358716 -14.017551,6.034655 -23.666494,2.161781 z m 20.849675,-6.603097 c 2.76037,-3.32604 2.458659,-5.06392 -1.676039,-9.654104 C 66.023157,49.729364 51.190674,48.799995 51.190674,59.52699 c 0,12.732298 18.91171,20.668524 26.749028,11.225143 z"
     style="fill:#b5b5c9;stroke-width:2.67074537" />
  <path
     inkscape:connector-curvature="0"
     id="path180"
     d="m 49.3641,121.02005 c -3.919247,-0.76218 -6.420194,-3.80918 -7.62356,-9.28808 -1.654852,-7.53447 -2.475396,-8.04268 -10.803621,-6.69121 -7.694616,1.24868 -9.802127,0.35401 -14.41009,-6.117285 C 10.325412,90.214388 9.7542026,85.264161 14.413083,80.605287 17.010706,78.007666 16.102226,76.05033 10.064367,71.235911 3.9780517,66.382847 2.8082204,63.829133 4.2890992,58.628551 8.7452015,42.979608 12.002425,37.417909 16.711178,37.417909 c 3.167709,0 4.412063,-1.359244 3.476446,-3.797423 -2.185147,-5.694403 3.457622,-14.327291 12.381019,-18.941759 7.225853,-3.736635 8.546882,-3.693142 14.933713,0.49167 6.680762,4.377405 7.177892,4.35671 10.688966,-0.444967 2.025282,-2.769742 3.682333,-6.030917 3.682333,-7.2470622 0,-1.9750028 5.961491,-1.2788437 19.044868,2.223983 2.395672,0.6413952 5.081339,4.7940362 5.968149,9.2280932 1.503771,7.518839 2.221449,7.947654 10.653884,6.365721 7.951734,-1.491755 9.741504,-0.713118 14.849334,6.460167 5.49184,7.71257 5.56894,8.520976 1.41708,14.857522 -4.24761,6.482676 -4.16442,6.804287 2.55153,9.864293 3.81826,1.739697 7.07533,4.472484 7.23792,6.072848 1.33516,13.141429 -5.2451,28.281831 -12.29172,28.281831 -2.27976,0 -3.25068,1.589761 -2.37098,3.882222 1.87194,4.878196 -4.48231,14.123672 -13.996318,20.364782 -7.055875,4.62856 -7.508585,4.61248 -14.005322,-0.49786 l -6.713754,-5.28105 -4.120181,6.79043 c -4.004755,6.60018 -7.664996,7.47026 -20.734045,4.9287 z m 15.800108,-11.49201 c 4.03125,-6.45506 11.934495,-6.89284 18.423354,-1.02049 4.445541,4.02316 5.343635,3.75202 13.029167,-3.9335 6.811871,-6.811869 7.764531,-9.170057 5.450931,-13.493032 -3.883294,-7.256014 -3.585496,-7.964857 2.66005,-6.331589 11.21174,2.931917 19.05312,-21.08719 8.02672,-24.586828 -7.15299,-2.270267 -9.59865,-11.374477 -4.55318,-16.949664 3.66662,-4.051566 3.59839,-5.139825 -0.67766,-10.808717 -3.91568,-5.191133 -5.69814,-5.798685 -10.100347,-3.442697 -6.686099,3.578294 -16.854371,-2.659481 -16.854371,-10.33939 0,-3.222522 -2.433514,-5.749939 -6.525072,-6.776854 -7.495796,-1.881326 -12.170145,0.232596 -12.170145,5.50383 0,5.302401 -8.375952,6.280631 -15.46619,1.806305 -4.766584,-3.007975 -7.564064,-3.202555 -12.66023,-0.880588 -5.813663,2.648883 -6.20361,3.722488 -3.504056,9.647365 3.733857,8.194918 -0.659017,14.837208 -9.812573,14.837208 -5.166764,0 -6.226444,1.647581 -7.125901,11.079278 -0.852573,8.940079 -0.133228,11.320755 3.725595,12.329842 4.503178,1.177612 6.037697,5.37816 4.936033,13.511782 -0.263458,1.945104 0.816717,5.097812 2.400387,7.006032 1.583671,1.908194 2.129166,5.424551 1.212211,7.814094 -1.886935,4.917269 -0.122021,5.440789 6.462381,1.916927 5.97188,-3.196054 12.911256,1.93151 15.255714,11.272576 2.21385,8.8207 12.824769,9.91228 17.867182,1.83811 z M 57.867537,77.065828 C 49.452288,72.463066 45.849183,66.476002 45.849183,57.09565 c 0,-9.874495 3.728192,-13.217216 13.353726,-11.973023 11.392746,1.472622 20.46367,7.705915 24.144051,16.591143 3.257318,7.863849 3.056906,8.906722 -2.590439,13.479679 -6.867477,5.560919 -14.938173,6.221154 -22.888984,1.872379 z m 20.072165,-6.313695 c 2.76037,-3.32604 2.458659,-5.06392 -1.676039,-9.654104 C 66.023157,49.729364 51.190674,48.799995 51.190674,59.52699 c 0,12.732298 18.91171,20.668524 26.749028,11.225143 z"
     style="fill:#b2b2c9;stroke-width:2.67074537" />
  <path
     inkscape:connector-curvature="0"
     id="path176"
     d="m 49.3641,121.02005 c -3.919247,-0.76218 -6.420194,-3.80918 -7.62356,-9.28808 -1.654852,-7.53447 -2.475396,-8.04268 -10.803621,-6.69121 -7.694616,1.24868 -9.802127,0.35401 -14.41009,-6.117285 C 10.325412,90.214388 9.7542026,85.264161 14.413083,80.605287 17.010706,78.007666 16.102226,76.05033 10.064367,71.235911 3.9780517,66.382847 2.8082204,63.829133 4.2890992,58.628551 8.7452015,42.979608 12.002425,37.417909 16.711178,37.417909 c 3.167709,0 4.412063,-1.359244 3.476446,-3.797423 -2.185147,-5.694403 3.457622,-14.327291 12.381019,-18.941759 7.225853,-3.736635 8.546882,-3.693142 14.933713,0.49167 6.680762,4.377405 7.177892,4.35671 10.688966,-0.444967 2.025282,-2.769742 3.682333,-6.030917 3.682333,-7.2470622 0,-1.9750028 5.961491,-1.2788437 19.044868,2.223983 2.395672,0.6413952 5.081339,4.7940362 5.968149,9.2280932 1.503771,7.518839 2.221449,7.947654 10.653884,6.365721 7.951734,-1.491755 9.741504,-0.713118 14.849334,6.460167 5.49184,7.71257 5.56894,8.520976 1.41708,14.857522 -4.24761,6.482676 -4.16442,6.804287 2.55153,9.864293 3.81826,1.739697 7.07533,4.472484 7.23792,6.072848 1.33516,13.141429 -5.2451,28.281831 -12.29172,28.281831 -2.27976,0 -3.25068,1.589761 -2.37098,3.882222 1.87194,4.878196 -4.48231,14.123672 -13.996318,20.364782 -7.055875,4.62856 -7.508585,4.61248 -14.005322,-0.49786 l -6.713754,-5.28105 -4.120181,6.79043 c -4.004755,6.60018 -7.664996,7.47026 -20.734045,4.9287 z m 16.515673,-11.49201 c 2.06127,-6.4945 11.084487,-7.0145 17.707789,-1.02049 4.445541,4.02316 5.343635,3.75202 13.029167,-3.9335 6.930401,-6.930423 7.789711,-9.122998 5.356971,-13.668633 -2.497669,-4.666914 -2.095908,-5.414082 2.91117,-5.414082 11.83632,0 18.64345,-21.909219 7.86956,-25.328734 -7.14965,-2.269199 -9.72446,-11.630703 -4.60658,-16.748589 3.66004,-3.660037 3.66443,-4.742698 0.0416,-10.271825 -3.21681,-4.909465 -5.64821,-5.860857 -11.822384,-4.626022 -8.876503,1.775301 -15.798204,-2.636517 -15.798204,-10.06961 0,-3.03633 -2.533549,-5.599468 -6.525072,-6.601276 -7.586126,-1.903998 -12.170145,0.242851 -12.170145,5.699659 0,5.03385 -10.547641,4.981488 -17.785773,-0.08829 -5.133239,-3.595461 -6.25308,-3.350594 -12.915767,2.824177 -5.838675,5.411099 -6.981398,8.330031 -5.723448,14.619775 1.400884,7.00443 0.853139,7.858804 -5.038334,7.858804 -5.459131,0 -6.610095,1.302101 -6.610095,7.478087 0,4.112959 -1.397541,8.875619 -3.105648,10.583747 -2.3603668,2.360352 -1.3533241,3.771867 4.196432,5.88189 5.548915,2.109675 7.103888,4.288656 6.476595,9.075539 -0.454016,3.464625 0.962637,8.569621 3.148118,11.344418 3.665824,4.654335 3.611589,4.761191 -0.700202,1.379654 -4.003085,-3.139434 -4.673804,-3.090533 -4.673804,0.34068 0,5.295474 7.000647,10.94207 10.717785,8.644749 6.220724,-3.844618 15.281572,1.15483 16.917502,9.334472 1.354418,6.7721 2.860745,8.0469 9.508403,8.0469 5.553425,0 8.402453,-1.58615 9.594354,-5.34149 z M 55.898415,75.969273 C 48.232326,71.809694 44.799511,63.61526 46.295518,53.046347 c 0.728579,-5.147232 2.714684,-6.43151 11.004232,-7.115691 8.546881,-0.705422 11.549005,0.598949 19.362903,8.412845 10.757551,10.757548 11.541874,15.884311 3.311962,21.648767 -7.341678,5.142307 -14.569279,5.135416 -24.0762,-0.02404 z m 22.041287,-5.21714 c 2.76037,-3.32604 2.458659,-5.06392 -1.676039,-9.65413 C 66.023157,49.729364 51.190674,48.799995 51.190674,59.52699 c 0,12.732298 18.91171,20.668524 26.749028,11.225143 z"
     style="fill:#b2b2be;stroke-width:2.67074537" />
  <path
     inkscape:connector-curvature="0"
     id="path174"
     d="m 49.3641,121.02005 c -3.919247,-0.76218 -6.420194,-3.80918 -7.62356,-9.28808 -1.654852,-7.53447 -2.475396,-8.04268 -10.803621,-6.69121 -7.694616,1.24868 -9.802127,0.35401 -14.41009,-6.117285 C 10.325412,90.214388 9.7542026,85.264161 14.413083,80.605287 17.010706,78.007666 16.090319,76.040849 10.007368,71.190455 2.3933431,65.119237 2.3546589,64.94409 6.0560913,53.300174 8.2988991,46.244765 12.191476,40.354033 15.78747,38.573436 c 3.296343,-1.632223 5.28982,-3.671209 4.429949,-4.53108 -3.389044,-3.389042 2.34555,-12.677101 11.209315,-18.155208 8.625588,-5.330906 9.701503,-5.442971 14.093822,-1.467978 6.677386,6.042954 10.640578,5.369176 14.185786,-2.411707 1.921818,-4.2179267 4.63186,-6.2515203 7.287292,-5.4683189 2.325196,0.685802 7.401944,2.002378 11.281658,2.9257267 5.101772,1.2141872 7.492653,3.8719342 8.638897,9.6031512 1.473349,7.366738 2.221077,7.804983 10.626367,6.228143 7.951734,-1.491755 9.741504,-0.713118 14.849334,6.460167 5.49184,7.71257 5.56894,8.520976 1.41708,14.857522 -4.24761,6.482676 -4.16442,6.804287 2.55153,9.864293 3.81826,1.739697 7.07533,4.472484 7.23792,6.072848 1.33516,13.141429 -5.2451,28.281831 -12.29172,28.281831 -2.27976,0 -3.25068,1.589761 -2.37098,3.882222 1.87194,4.878196 -4.48231,14.123672 -13.996318,20.364782 -7.055875,4.62856 -7.508585,4.61248 -14.005322,-0.49786 l -6.713754,-5.28105 -4.120181,6.79043 c -4.004755,6.60018 -7.664996,7.47026 -20.734045,4.9287 z m 16.515673,-11.49201 c 2.06127,-6.4945 11.084487,-7.0145 17.707789,-1.02049 4.445541,4.02316 5.343635,3.75202 13.029167,-3.9335 6.930401,-6.930423 7.789711,-9.122998 5.356971,-13.668633 -2.497669,-4.666914 -2.095908,-5.414082 2.91117,-5.414082 11.83632,0 18.64345,-21.909219 7.86956,-25.328734 -7.14965,-2.269199 -9.72446,-11.630703 -4.60658,-16.748589 3.66004,-3.660037 3.66443,-4.742698 0.0416,-10.271825 -3.21681,-4.909465 -5.64821,-5.860857 -11.822384,-4.626022 -8.876503,1.775301 -15.798204,-2.636517 -15.798204,-10.06961 0,-3.03633 -2.533549,-5.599468 -6.525072,-6.601276 -7.586126,-1.903998 -12.170145,0.242851 -12.170145,5.699659 0,5.03385 -10.547641,4.981488 -17.785773,-0.08829 -5.133239,-3.595461 -6.25308,-3.350594 -12.915767,2.824177 -5.838675,5.411099 -6.981398,8.330031 -5.723448,14.619775 1.400884,7.00443 0.853139,7.858804 -5.038334,7.858804 -5.459131,0 -6.610095,1.302101 -6.610095,7.478087 0,4.112959 -1.397541,8.875619 -3.105648,10.583747 -2.3603668,2.360352 -1.3533241,3.771867 4.196432,5.88189 5.548915,2.109675 7.103888,4.288656 6.476595,9.075539 -0.454016,3.464625 0.962637,8.569621 3.148118,11.344418 3.665824,4.654335 3.611589,4.761191 -0.700202,1.379654 -4.003085,-3.139434 -4.673804,-3.090533 -4.673804,0.34068 0,5.295474 7.000647,10.94207 10.717785,8.644749 6.220724,-3.844618 15.281572,1.15483 16.917502,9.334472 1.354418,6.7721 2.860745,8.0469 9.508403,8.0469 5.553425,0 8.402453,-1.58615 9.594354,-5.34149 z M 55.898415,75.969273 C 48.232326,71.809694 44.799511,63.61526 46.295518,53.046347 c 0.728579,-5.147232 2.714684,-6.43151 11.004232,-7.115691 8.546881,-0.705422 11.549005,0.598949 19.362903,8.412845 10.757551,10.757548 11.541874,15.884311 3.311962,21.648767 -7.341678,5.142307 -14.569279,5.135416 -24.0762,-0.02404 z M 76.344322,73.187238 C 82.255803,70.918787 81.606187,65.990167 74.559695,59.647387 62.987251,49.230645 51.190674,49.169869 51.190674,59.526937 c 0,11.509336 12.735408,18.425552 25.153648,13.660248 z"
     style="fill:#acacc2;stroke-width:2.67074537" />
  <path
     inkscape:connector-curvature="0"
     id="path172"
     d="m 49.3641,121.02005 c -3.919247,-0.76218 -6.420194,-3.80918 -7.62356,-9.28808 -1.654852,-7.53447 -2.475396,-8.04268 -10.803621,-6.69121 -7.694616,1.24868 -9.802127,0.35401 -14.41009,-6.117285 C 10.325412,90.214388 9.7542026,85.264161 14.413083,80.605287 17.010706,78.007666 16.090319,76.040849 10.007368,71.190455 2.3933431,65.119237 2.3546589,64.94409 6.0560913,53.300174 8.2988991,46.244765 12.191476,40.354033 15.78747,38.573436 c 3.296343,-1.632223 5.28982,-3.671209 4.429949,-4.53108 -3.389044,-3.389042 2.34555,-12.677101 11.209315,-18.155208 8.625588,-5.330906 9.701503,-5.442971 14.093822,-1.467978 6.677386,6.042954 10.640578,5.369176 14.185786,-2.411707 1.921818,-4.2179267 4.63186,-6.2515203 7.287292,-5.4683189 2.325196,0.685802 7.401944,2.002378 11.281658,2.9257267 5.101772,1.2141872 7.492653,3.8719342 8.638897,9.6031512 1.473349,7.366738 2.221077,7.804983 10.626367,6.228143 7.951734,-1.491755 9.741504,-0.713118 14.849334,6.460167 5.49184,7.71257 5.56894,8.520976 1.41708,14.857522 -4.24761,6.482676 -4.16442,6.804287 2.55153,9.864293 3.81826,1.739697 7.07533,4.472484 7.23792,6.072848 1.33516,13.141429 -5.2451,28.281831 -12.29172,28.281831 -2.27976,0 -3.25068,1.589761 -2.37098,3.882222 1.87194,4.878196 -4.48231,14.123672 -13.996318,20.364782 -7.055875,4.62856 -7.508585,4.61248 -14.005322,-0.49786 l -6.713754,-5.28105 -4.120181,6.79043 c -4.004755,6.60018 -7.664996,7.47026 -20.734045,4.9287 z m 25.208057,-16.8335 c 2.332412,0 6.389344,1.94444 9.015405,4.321 4.445541,4.02316 5.343635,3.75202 13.029167,-3.9335 6.930401,-6.930423 7.789711,-9.122998 5.356971,-13.668633 -2.497669,-4.666914 -2.095908,-5.414082 2.91117,-5.414082 11.83632,0 18.64345,-21.909219 7.86956,-25.328734 -7.14965,-2.269199 -9.72446,-11.630703 -4.60658,-16.748589 3.64054,-3.640538 3.65115,-4.762959 0.0963,-10.188345 -3.28468,-5.013048 -5.62813,-5.832056 -13.180582,-4.606465 -8.427521,1.367601 -9.426713,0.798986 -12.107036,-6.889788 C 79.084715,10.622679 67.901666,7.3111791 62.374962,15.63484 c -4.51771,6.804036 -9.107573,7.24245 -17.595851,1.680716 -5.849581,-3.832792 -6.736196,-3.599072 -14.75192,3.888736 -7.113228,6.64475 -8.059131,8.843252 -5.700759,13.249912 4.015508,7.503045 3.643724,8.305195 -3.849331,8.305195 -5.186664,0 -6.676863,1.370982 -6.676863,6.142715 0,3.378492 -1.502294,7.665824 -3.338432,9.527413 -2.675522,2.712596 -2.3351523,4.12534 1.714112,7.114679 2.778899,2.051506 6.384405,4.18642 8.012236,4.744259 2.126583,0.728739 2.031762,3.528855 -0.33686,9.947591 -2.824373,7.653795 -2.656333,9.640776 1.173184,13.872359 3.124751,3.452793 6.600532,4.470988 11.550916,3.3837 7.594916,-1.66812 12.032929,1.768301 13.668106,10.583445 0.533008,2.87343 3.967381,6.00359 7.631943,6.95598 5.088614,1.32245 7.819747,0.24598 11.559402,-4.55672 2.693108,-3.45856 6.804899,-6.28827 9.137312,-6.28827 z M 57.867537,77.065828 C 49.464087,72.469502 45.849183,66.479261 45.849183,57.15024 c 0,-7.293896 1.164886,-8.880791 7.548263,-10.282818 13.148451,-2.887882 26.864763,5.542195 30.969565,19.033969 3.241668,10.654805 -14.084969,17.954647 -26.499474,11.164437 z m 18.476785,-3.87859 C 82.255803,70.918787 81.606187,65.990167 74.559695,59.647387 62.987251,49.230645 51.190674,49.169869 51.190674,59.526937 c 0,11.509336 12.735408,18.425552 25.153648,13.660248 z"
     style="fill:#b2b2b2;stroke-width:2.67074537" />
  <path
     inkscape:connector-curvature="0"
     id="path168"
     d="m 49.492293,121.03685 c -3.843475,-0.75291 -6.240533,-3.79764 -7.347573,-9.33284 -1.535769,-7.67888 -2.249686,-8.11693 -10.931814,-6.70804 -8.013915,1.3005 -10.029493,0.46706 -14.686077,-6.072495 C 10.325412,90.214388 9.7542026,85.264161 14.413083,80.605287 17.010706,78.007666 16.090319,76.040849 10.007368,71.190455 2.3933431,65.119237 2.3546589,64.94409 6.0560913,53.300174 8.2988991,46.244765 12.191476,40.354033 15.78747,38.573436 c 3.296343,-1.632223 5.28982,-3.671209 4.429949,-4.53108 -3.389044,-3.389042 2.34555,-12.677101 11.209315,-18.155208 8.625588,-5.330906 9.701503,-5.442971 14.093822,-1.467978 6.677386,6.042954 10.640578,5.369176 14.185786,-2.411707 1.921818,-4.2179267 4.63186,-6.2515203 7.287292,-5.4683189 2.325196,0.685802 7.46375,2.0178896 11.419012,2.960198 5.247165,1.2500959 7.4133,3.6310309 8.012236,8.8067509 0.740605,6.399992 1.776248,7.019845 10.593527,6.340448 8.293111,-0.639008 10.661101,0.494673 15.640841,7.488065 5.71594,8.027299 5.74047,8.382174 0.94576,13.68027 -4.79023,5.293142 -4.77993,5.537844 0.38363,9.113011 10.99438,7.612318 11.53576,8.685904 9.32441,18.490771 -2.49607,11.067248 -7.05748,17.414168 -12.51525,17.414168 -2.11019,0 -3.02311,1.31641 -2.02871,2.925401 0.9944,1.608963 0.26045,5.817016 -1.63099,9.351213 -4.08617,7.63507 -20.392109,17.94359 -22.637143,14.31103 -0.857355,-1.38721 -3.900787,-3.77561 -6.763185,-5.30752 -4.344536,-2.32512 -5.714505,-1.66564 -8.292188,3.99175 -3.047126,6.68773 -6.559549,7.55594 -19.953291,4.93215 z m 25.079864,-16.8503 c 2.332412,0 6.32347,1.88483 8.869013,4.18851 3.760834,3.40351 5.6032,3.57968 9.830127,0.93991 8.523853,-5.32322 11.864543,-12.50101 8.630613,-18.543678 -2.464524,-4.605006 -1.972223,-5.279957 3.85111,-5.279957 11.60747,0 17.67266,-21.941802 7.00141,-25.328734 -7.25238,-2.301809 -9.59008,-11.383956 -4.40492,-17.11349 C 114.92112,35.787566 107.97235,28.0703 94.862316,28.0703 86.818045,28.0703 84.486537,26.956431 83.681708,22.72881 81.304013,10.2392 67.282096,5.9461799 61.873655,16.051946 c -3.436363,6.420905 -9.909643,6.869216 -16.256018,1.125826 -4.250048,-3.846239 -5.272657,-3.813095 -11.669415,0.378223 -8.98616,5.887957 -12.4663,12.361286 -9.319547,17.335074 3.897242,6.160015 2.981531,7.86833 -4.217677,7.86833 -4.780692,0 -7.500945,1.993634 -9.347608,6.850729 -4.3027617,11.317107 -3.1553158,16.468708 4.072221,18.282705 7.149705,1.794474 8.910426,8.955142 3.525934,14.339632 -2.420741,2.420737 -2.288869,4.761698 0.569059,10.1018 2.980264,5.568664 5.134627,6.667917 10.834041,5.528042 8.157514,-1.631504 14.92322,2.623153 16.240944,10.213253 0.503601,2.90072 3.870455,5.99454 7.569854,6.95598 5.088614,1.32245 7.819747,0.24598 11.559402,-4.55672 2.693108,-3.45856 6.804899,-6.28827 9.137312,-6.28827 z M 57.867537,76.924065 C 45.106045,69.605341 41.433386,53.322822 51.347318,48.017058 c 16.283297,-8.714556 41.503895,14.508939 29.160979,26.851868 -5.888788,5.88878 -14.580427,6.677745 -22.64076,2.055139 z m 18.476785,-3.736827 c 6.492136,-2.491271 5.058722,-7.885135 -4.155995,-15.638816 -10.06155,-8.466236 -19.283962,-8.112501 -20.544583,0.788003 -1.675439,11.829346 11.668022,19.851864 24.700578,14.850813 z"
     style="fill:#ababb3;stroke-width:2.67074537" />
  <path
     style="fill:#808080;stroke-width:2.67074537"
     d="M 66.035156 6.578125 C 63.016711 6.5269988 61.504137 8.0634156 59.666016 12.097656 C 58.792475 14.014867 57.888396 15.492426 56.921875 16.541016 C 56.828554 16.625424 56.733331 16.724043 56.640625 16.802734 C 56.36184 17.039373 56.085466 17.250414 55.810547 17.435547 C 55.613549 17.568207 55.416835 17.671 55.220703 17.777344 C 55.13985 17.820948 55.059354 17.878853 54.978516 17.917969 C 54.899656 17.956394 54.820951 17.98212 54.742188 18.011719 C 54.719379 18.02029 54.696678 18.029518 54.673828 18.039062 C 54.497834 18.111932 54.321373 18.19241 54.144531 18.244141 C 54.142042 18.244869 54.139209 18.24537 54.136719 18.246094 C 54.103712 18.254682 54.07005 18.256647 54.037109 18.265625 C 53.569431 18.391045 53.096718 18.438644 52.613281 18.417969 C 52.582476 18.416631 52.552381 18.421851 52.521484 18.419922 C 52.519562 18.419733 52.517547 18.420111 52.515625 18.419922 C 52.439627 18.412455 52.363995 18.403427 52.287109 18.392578 C 52.285226 18.392372 52.283134 18.392786 52.28125 18.392578 C 52.178096 18.381168 52.073269 18.361388 51.96875 18.341797 C 51.931502 18.335415 51.894831 18.329471 51.857422 18.322266 C 50.680234 18.065039 49.400402 17.433225 47.986328 16.423828 C 47.937692 16.388571 47.890826 16.358449 47.841797 16.322266 C 47.615943 16.158036 47.381149 15.970136 47.148438 15.787109 C 46.962383 15.639385 46.779823 15.49987 46.587891 15.339844 C 46.443107 15.219565 46.292992 15.088148 46.144531 14.958984 C 46.120263 14.93787 46.096441 14.91746 46.072266 14.896484 C 45.826111 14.683543 45.58446 14.478074 45.328125 14.246094 C 44.867465 13.829202 44.441489 13.465098 44.037109 13.138672 C 43.91125 13.037093 43.796833 12.958142 43.675781 12.865234 C 43.406454 12.658548 43.140528 12.460968 42.892578 12.296875 C 42.623365 12.118737 42.359482 11.954701 42.111328 11.826172 C 42.081674 11.810811 42.052825 11.79786 42.023438 11.783203 C 41.668054 11.606032 41.331265 11.481533 41.007812 11.40625 C 40.921857 11.386237 40.836232 11.362509 40.751953 11.349609 C 40.69878 11.341472 40.646335 11.341256 40.59375 11.335938 C 40.503412 11.326815 40.413067 11.31724 40.324219 11.316406 C 40.260094 11.315788 40.1963 11.32054 40.132812 11.324219 C 40.055219 11.328731 39.977226 11.334799 39.900391 11.345703 C 39.836971 11.3547 39.773973 11.367528 39.710938 11.380859 C 39.632494 11.397458 39.55462 11.418124 39.476562 11.441406 C 39.416046 11.459457 39.355329 11.47795 39.294922 11.5 C 39.222202 11.526558 39.148906 11.557514 39.076172 11.589844 C 39.008661 11.619841 38.940724 11.648646 38.873047 11.683594 C 38.843099 11.699062 38.813205 11.719894 38.783203 11.736328 C 38.543941 11.867392 38.303035 12.022855 38.056641 12.214844 C 38.055412 12.215801 38.053963 12.215838 38.052734 12.216797 C 36.433848 12.86417 34.37718 14.062654 31.425781 15.886719 C 30.470006 16.47742 29.601804 17.065405 28.771484 17.654297 C 28.721472 17.672696 28.680138 17.683466 28.628906 17.703125 C 27.489077 18.140518 26.452836 18.65612 25.701172 19.134766 C 25.32534 19.374088 25.021181 19.60427 24.810547 19.810547 C 24.599912 20.016824 24.482422 20.199426 24.482422 20.34375 C 24.482422 20.481799 24.5057 20.605739 24.544922 20.716797 C 24.54762 20.724208 24.553777 20.729036 24.556641 20.736328 C 24.596175 20.839954 24.650095 20.931359 24.720703 21.011719 C 24.72107 21.012137 24.720335 21.013254 24.720703 21.013672 C 23.687609 22.054603 22.837608 23.124287 22.144531 24.236328 C 20.820825 26.1205 19.983356 27.998448 19.667969 29.761719 C 19.635448 29.751244 19.610776 29.757674 19.582031 29.755859 C 19.549627 29.754217 19.515553 29.74997 19.488281 29.759766 C 19.454329 29.77077 19.428843 29.798777 19.402344 29.826172 C 19.391332 29.8385 19.378734 29.847906 19.369141 29.863281 C 19.339729 29.906697 19.318063 29.964136 19.300781 30.033203 C 19.24719 30.247374 19.275112 30.627566 19.341797 31.080078 C 19.353368 31.155387 19.368007 31.235037 19.382812 31.316406 C 19.437649 31.625986 19.508322 31.963549 19.613281 32.363281 C 19.613879 32.365557 19.614635 32.366862 19.615234 32.369141 C 19.680461 32.78292 19.778285 33.185587 19.919922 33.574219 C 19.974097 34.575035 20.116114 35.633319 20.306641 36.730469 C 19.842891 37.153093 19.064974 37.417969 18.025391 37.417969 C 16.174977 37.417969 14.213868 38.650995 12.365234 40.738281 C 12.219209 40.802398 12.041246 40.919064 11.828125 41.091797 C 11.615886 41.263295 11.370253 41.48839 11.089844 41.765625 C 10.903416 41.949943 10.705725 42.205078 10.503906 42.490234 C 10.454515 42.559815 10.405602 42.629976 10.355469 42.705078 C 10.165459 42.990553 9.9733852 43.301362 9.7753906 43.660156 C 9.7680523 43.673454 9.7612527 43.683874 9.7539062 43.697266 C 9.6965277 43.801382 9.6378987 43.923559 9.5800781 44.033203 C 9.453649 44.27405 9.3269941 44.529444 9.1992188 44.794922 C 8.5838133 46.067771 7.9633386 47.593296 7.3867188 49.261719 C 7.3865118 49.262317 7.3869257 49.263073 7.3867188 49.263672 C 6.3196759 51.919357 5.443405 54.864798 4.875 57.964844 C 4.0674096 62.369387 4.1201467 64.937238 5.6425781 67.240234 C 5.6444881 67.245448 5.6465443 67.250627 5.6484375 67.255859 C 5.6994506 67.39441 5.7429683 67.540865 5.7988281 67.673828 C 5.7993721 67.675129 5.8002352 67.676436 5.8007812 67.677734 C 5.8040608 67.685356 5.8092039 67.691616 5.8125 67.699219 C 5.8339607 67.749854 5.8606469 67.793935 5.8828125 67.84375 C 5.9879631 68.080003 6.097698 68.311823 6.21875 68.529297 C 6.3007599 68.67687 6.393195 68.81226 6.4824219 68.951172 C 6.5733057 69.092271 6.6653254 69.23128 6.7636719 69.363281 C 6.8623321 69.496204 6.9641847 69.624353 7.0703125 69.748047 C 7.1604138 69.852625 7.2561122 69.950954 7.3515625 70.048828 C 7.4835967 70.184799 7.6136268 70.322308 7.7558594 70.445312 C 7.768571 70.456258 7.7840824 70.463767 7.796875 70.474609 C 8.1672851 70.789892 8.5757286 71.056587 9.0136719 71.283203 C 9.0565201 71.305279 9.0971398 71.330343 9.140625 71.351562 C 9.3449251 71.45168 9.5589584 71.538196 9.7773438 71.619141 C 9.8508063 71.64629 9.9249634 71.672286 10 71.697266 C 10.228098 71.773382 10.460445 71.84271 10.703125 71.898438 C 10.706599 71.899235 10.709414 71.90155 10.712891 71.902344 C 13.876352 74.254186 15.318703 75.733167 15.384766 77.734375 C 15.344096 77.877048 15.318591 77.99752 15.273438 78.146484 C 14.798934 79.71191 14.382209 81.159399 13.869141 82.890625 C 13.868501 82.892785 13.867828 82.894324 13.867188 82.896484 C 13.73844 83.187698 13.642977 83.433054 13.503906 83.738281 C 13.310061 84.163725 13.170182 84.543569 13.013672 84.935547 C 12.939606 85.121042 12.846695 85.322754 12.78125 85.501953 C 12.772411 85.524661 12.760104 85.550241 12.751953 85.572266 C 12.751742 85.572852 12.752164 85.573632 12.751953 85.574219 C 12.714309 85.678635 12.679171 85.782262 12.644531 85.884766 C 12.524782 86.239118 12.424756 86.582374 12.341797 86.917969 C 11.340491 90.585865 12.375091 93.09204 16.195312 98.457031 C 18.528085 101.73312 20.191479 103.64842 22.121094 104.64062 C 22.924941 105.24303 23.668943 105.60751 24.423828 105.74609 C 24.425821 105.74646 24.427694 105.74768 24.429688 105.74805 C 24.678186 105.83849 24.908089 105.89535 25.115234 105.91406 C 25.166896 105.9193 25.214815 105.91931 25.263672 105.91992 C 25.314823 105.91996 25.368078 105.92314 25.416016 105.91797 C 25.520446 105.90785 25.619159 105.88793 25.707031 105.85156 C 25.81265 105.80785 25.882536 105.77927 25.986328 105.73633 C 25.988842 105.7359 25.991626 105.73481 25.994141 105.73438 C 26.309069 105.68007 26.63224 105.60238 26.972656 105.49023 C 28.185362 105.43386 29.566899 105.2632 31.212891 104.99609 C 35.472822 104.30481 37.809832 104.06331 39.271484 104.89844 C 39.272285 104.89975 39.272637 104.90103 39.273438 104.90234 C 39.465402 105.21718 39.656959 105.56463 39.851562 105.94727 C 40.046877 106.33129 40.244938 106.75003 40.451172 107.20508 C 40.86364 108.11517 41.306699 109.1703 41.8125 110.38086 C 41.839012 110.44431 41.86972 110.49953 41.896484 110.5625 C 41.978727 110.94741 42.058688 111.27392 42.144531 111.70312 C 43.251571 117.23833 45.648712 120.2842 49.492188 121.03711 C 62.885928 123.6609 66.398186 122.7932 69.445312 116.10547 C 69.723635 115.49462 69.982855 114.96755 70.238281 114.4707 C 71.217705 113.14195 72.04998 112.056 72.736328 111.32227 C 72.737633 111.32146 72.73893 111.32112 72.740234 111.32031 C 72.939152 111.1972 73.138826 111.10289 73.341797 111.03516 C 73.351529 111.03192 73.361344 111.0285 73.371094 111.02539 C 73.998921 110.82427 74.663586 110.88311 75.46875 111.17969 C 75.723959 111.27369 75.996632 111.3941 76.283203 111.53516 C 76.327564 111.55708 76.372766 111.58244 76.417969 111.60547 C 76.6675 111.73209 76.931396 111.87529 77.208984 112.03516 C 77.264867 112.06743 77.319834 112.09922 77.376953 112.13281 C 78.059094 112.53283 78.82172 113.01893 79.710938 113.60156 C 80.055891 113.82759 80.421057 114.03653 80.794922 114.23633 C 81.094307 114.40069 81.400697 114.55229 81.712891 114.70117 C 83.010236 115.70396 84.053653 116.69773 84.5 117.41992 C 86.745034 121.05248 103.0525 110.74444 107.13867 103.10938 C 107.96773 101.56027 108.55636 99.889837 108.89258 98.357422 C 108.92491 98.23696 108.94415 98.123422 108.9707 98.005859 C 108.98737 97.933142 109.00326 97.860596 109.01758 97.789062 C 109.04048 97.673028 109.06153 97.558186 109.07812 97.445312 C 109.09904 97.305578 109.11209 97.169584 109.12305 97.035156 C 109.12738 96.978848 109.1401 96.918661 109.14258 96.863281 C 109.27876 95.567366 109.18311 94.467224 108.79102 93.798828 C 108.79598 93.248788 108.8893 92.764409 109.05273 92.347656 C 109.07524 92.292292 109.086 92.226449 109.11133 92.173828 C 109.11172 92.172977 109.11288 92.172717 109.11328 92.171875 C 109.13258 92.13159 109.16117 92.101579 109.18164 92.0625 C 109.39265 91.675484 109.68272 91.368677 110.04883 91.158203 C 110.07663 91.142223 110.11196 91.135956 110.14062 91.121094 C 110.30016 91.038383 110.46819 90.966561 110.6543 90.919922 C 110.87897 90.865014 111.11976 90.832031 111.38086 90.832031 C 111.57166 90.832031 111.76219 90.819962 111.95312 90.796875 C 111.95439 90.796722 111.95577 90.797029 111.95703 90.796875 C 111.97526 90.794646 111.99349 90.789546 112.01172 90.787109 C 112.18306 90.764311 112.35429 90.734088 112.52539 90.693359 C 112.52797 90.692745 112.53062 90.692024 112.5332 90.691406 C 112.54883 90.687643 112.56445 90.681645 112.58008 90.677734 C 112.75594 90.633932 112.93219 90.581615 113.10742 90.519531 C 113.29891 90.451689 113.48936 90.372106 113.67969 90.283203 C 113.86756 90.195445 114.05587 90.097738 114.24219 89.990234 C 114.2442 89.98907 114.24603 89.987494 114.24805 89.986328 C 114.25373 89.983025 114.25994 89.979884 114.26562 89.976562 C 114.43115 89.880304 114.59385 89.773362 114.75781 89.662109 C 114.83345 89.610546 114.90716 89.544915 114.98242 89.490234 C 115.28497 89.271446 115.58557 89.036359 115.88086 88.769531 C 115.92921 88.72565 115.97531 88.674025 116.02344 88.628906 C 116.33782 88.335446 116.64767 88.021415 116.95117 87.677734 C 116.98418 87.640211 117.01596 87.598638 117.04883 87.560547 C 117.36461 87.195951 117.67354 86.808744 117.97461 86.394531 C 117.99609 86.364896 118.01571 86.332609 118.03711 86.302734 C 118.34813 85.86971 118.65123 85.414318 118.94336 84.933594 C 118.94652 84.928391 118.94997 84.923177 118.95312 84.917969 C 118.95945 84.90752 118.96439 84.895235 118.9707 84.884766 C 119.27246 84.385529 119.56164 83.864615 119.83984 83.320312 C 119.8409 83.318248 119.84269 83.316519 119.84375 83.314453 C 119.84811 83.306073 119.85306 83.297453 119.85742 83.289062 C 120.05834 82.894692 120.25431 82.497233 120.44141 82.082031 C 121.43051 79.924125 122.20882 77.493635 122.70312 74.931641 C 122.70388 74.927747 122.70433 74.923816 122.70508 74.919922 C 122.70571 74.91668 122.7064 74.913398 122.70703 74.910156 C 122.8314 74.26325 122.93942 73.610518 123.02539 72.949219 C 123.0265 72.940702 123.0282 72.932347 123.0293 72.923828 C 123.02972 72.920623 123.02888 72.917268 123.0293 72.914062 C 123.1151 72.248349 123.18835 71.577923 123.23242 70.902344 C 123.27812 70.22612 123.30078 69.549652 123.30078 68.873047 C 123.30078 68.391937 123.28365 67.930436 123.26953 67.466797 C 123.26921 67.412887 123.26427 67.364154 123.26367 67.310547 C 123.25211 66.947083 123.24249 66.576095 123.22266 66.236328 C 123.19669 65.715018 123.15526 65.215201 123.09961 64.730469 C 123.08294 64.576689 123.06765 64.419199 123.04883 64.271484 C 123.03585 64.1773 123.0298 64.073037 123.01562 63.980469 C 122.64471 60.900638 121.94724 58.783203 121.14062 58.783203 C 119.95247 58.783203 116.66387 57.090213 113.83203 55.019531 C 112.79994 54.264844 112.0318 53.673071 111.42383 53.132812 C 111.42351 53.132275 111.42415 53.131397 111.42383 53.130859 C 111.25166 52.840352 111.11263 52.559069 111.00391 52.283203 C 110.99958 52.272212 110.99642 52.260975 110.99219 52.25 C 110.79227 51.731352 110.70693 51.230418 110.73828 50.71875 C 110.74102 50.674573 110.74159 50.630293 110.74609 50.585938 C 110.77236 50.32471 110.8321 50.060893 110.91992 49.789062 C 110.9283 49.763217 110.93833 49.736916 110.94727 49.710938 C 111.0419 49.435024 111.16171 49.152569 111.32031 48.857422 C 111.45153 48.613232 111.62313 48.352035 111.79883 48.089844 C 111.96025 47.849248 112.14831 47.59525 112.34766 47.335938 C 112.45847 47.191629 112.55699 47.053258 112.67969 46.902344 C 113.01701 46.487619 113.38643 46.05694 113.81445 45.583984 C 114.15714 45.205322 114.42342 44.88954 114.71094 44.556641 C 114.84417 44.402358 115.01145 44.220146 115.13281 44.074219 C 115.13618 44.070157 115.13922 44.066561 115.14258 44.0625 C 115.28749 43.887413 115.42341 43.714008 115.55078 43.548828 C 115.55187 43.547426 115.55346 43.546314 115.55469 43.544922 C 115.55721 43.541642 115.55998 43.538432 115.5625 43.535156 C 115.62024 43.460666 115.68217 43.3832 115.73633 43.310547 C 115.73872 43.307342 115.73981 43.303983 115.74219 43.300781 C 115.80128 43.220558 115.85354 43.142797 115.9082 43.064453 C 116.02879 42.893752 116.14467 42.723398 116.24414 42.560547 C 117.56693 40.394998 116.98297 38.779901 114.29883 34.976562 C 114.23474 34.885211 114.1681 34.787258 114.10156 34.693359 C 113.57289 33.951603 112.99477 33.155925 112.31055 32.230469 C 111.6742 31.369765 111.07671 30.598373 110.50391 29.90625 C 110.50236 29.904379 110.50155 29.90226 110.5 29.900391 C 110.21513 29.556305 109.93498 29.232859 109.66016 28.927734 C 109.6579 28.925231 109.65655 28.922423 109.6543 28.919922 C 109.38034 28.615988 109.10953 28.333432 108.8418 28.066406 C 108.57143 27.796756 108.30302 27.546404 108.03516 27.3125 C 107.76754 27.078955 107.50127 26.861866 107.23242 26.662109 C 106.69486 26.262523 106.15162 25.92955 105.58594 25.654297 C 105.34089 25.535061 105.09038 25.429948 104.83594 25.332031 C 104.79693 25.317019 104.75997 25.297731 104.7207 25.283203 C 104.71937 25.282709 104.71813 25.281744 104.7168 25.28125 C 104.42288 25.172655 104.12087 25.078575 103.81055 24.996094 C 103.65989 24.956051 103.50088 24.926785 103.3457 24.892578 C 103.32951 24.889009 103.31311 24.886319 103.29688 24.882812 C 102.82118 24.779905 102.3306 24.696694 101.80469 24.644531 C 101.80277 24.644341 101.80074 24.642767 101.79883 24.642578 C 101.6166 24.624508 101.42172 24.616037 101.23242 24.603516 C 101.05848 24.592109 100.89122 24.575229 100.71094 24.568359 C 100.70279 24.568049 100.69371 24.568661 100.68555 24.568359 C 100.2375 24.551813 99.753091 24.557123 99.261719 24.566406 C 98.472492 24.579794 97.644454 24.613937 96.722656 24.683594 C 95.795343 24.753666 94.974403 24.799648 94.210938 24.828125 C 93.438363 24.849923 92.740417 24.845094 92.113281 24.810547 C 91.7782 24.792088 91.465039 24.762906 91.167969 24.726562 C 91.108969 24.719383 91.057567 24.709076 91 24.701172 C 90.76227 24.668368 90.53049 24.631575 90.316406 24.585938 C 90.257264 24.573385 90.203897 24.556525 90.146484 24.542969 C 89.957393 24.498104 89.774475 24.450632 89.603516 24.394531 C 89.529562 24.370421 89.461342 24.342668 89.390625 24.316406 C 89.232225 24.257206 89.078345 24.195348 88.935547 24.125 C 88.892497 24.103922 88.852241 24.080706 88.810547 24.058594 C 88.652724 23.974415 88.502529 23.88458 88.363281 23.785156 C 88.335464 23.765395 88.308362 23.744992 88.28125 23.724609 C 88.13884 23.617032 88.004772 23.502131 87.880859 23.376953 C 87.861052 23.357023 87.841625 23.336797 87.822266 23.316406 C 87.689428 23.17598 87.566144 23.025895 87.453125 22.863281 C 87.449095 22.857483 87.445412 22.85153 87.441406 22.845703 C 87.321038 22.670624 87.209711 22.482933 87.109375 22.28125 C 86.779616 21.522156 86.559709 20.5754 86.390625 19.384766 C 86.127804 17.534075 85.554703 15.957938 84.605469 14.576172 C 84.603818 14.573769 84.603215 14.570761 84.601562 14.568359 C 84.600741 14.567166 84.600431 14.565646 84.599609 14.564453 C 84.407494 14.167537 84.212467 13.815099 84.017578 13.494141 C 83.957031 13.393889 83.896167 13.294595 83.835938 13.203125 C 83.78857 13.131556 83.74233 13.05992 83.695312 12.994141 C 83.565531 12.811609 83.437773 12.644562 83.3125 12.511719 C 83.231876 12.426222 83.156192 12.362719 83.083984 12.3125 C 83.066912 12.300747 83.051749 12.29496 83.035156 12.285156 C 82.982425 12.25349 82.930693 12.229388 82.882812 12.216797 C 82.866768 12.212842 82.851428 12.210827 82.835938 12.208984 C 82.785337 12.202122 82.738031 12.205628 82.693359 12.220703 C 82.684856 12.223689 82.676256 12.22671 82.667969 12.230469 C 82.617231 12.252884 82.569862 12.288868 82.527344 12.339844 C 82.526039 12.341406 82.524734 12.342162 82.523438 12.34375 C 79.893259 10.199697 75.791091 8.5951625 69.623047 7.125 C 68.214762 6.7893334 67.041305 6.5951671 66.035156 6.578125 z M 70.236328 10.447266 C 70.236976 10.447234 70.237633 10.447297 70.238281 10.447266 C 70.479158 10.466935 70.716314 10.488396 70.998047 10.5 C 71.335483 10.513899 71.653368 10.516488 71.953125 10.509766 C 77.145114 11.124688 82.320674 15.579597 83.681641 22.728516 C 84.131893 25.093609 85.062372 26.483781 87.201172 27.25 C 87.201907 27.250509 87.20239 27.251445 87.203125 27.251953 C 88.976584 28.478365 91.28328 28.799316 94.28125 28.341797 C 94.708947 28.276526 95.152859 28.194301 95.609375 28.097656 C 108.22366 28.390723 114.79262 35.929388 108.34961 43.048828 C 103.16445 48.778362 105.50153 57.8603 112.75391 60.162109 C 123.33448 63.520263 117.45958 85.107802 106.04492 85.474609 C 105.86839 85.478889 105.70077 85.492188 105.51953 85.492188 C 104.9173 85.492188 104.39226 85.503297 103.90625 85.523438 C 103.7331 85.530557 103.57101 85.542391 103.41211 85.552734 C 103.08483 85.574328 102.78775 85.604808 102.51953 85.642578 C 102.37553 85.662688 102.21539 85.679622 102.08789 85.705078 C 102.05417 85.71187 102.02281 85.721326 101.99023 85.728516 C 101.74407 85.782415 101.52442 85.845069 101.3418 85.923828 C 101.14721 86.007747 100.98884 86.107818 100.86328 86.224609 C 100.8568 86.230671 100.852 86.237984 100.8457 86.244141 C 100.73453 86.352224 100.65228 86.475858 100.5957 86.615234 C 100.59164 86.625228 100.58582 86.634368 100.58203 86.644531 C 100.55707 86.711621 100.54052 86.784621 100.52734 86.859375 C 100.52311 86.883514 100.52061 86.908634 100.51758 86.933594 C 100.48667 87.186868 100.51473 87.484382 100.60352 87.830078 C 100.60427 87.833002 100.60471 87.83496 100.60547 87.837891 C 100.62069 87.897889 100.63168 87.952613 100.65039 88.015625 C 100.65039 88.015625 100.65039 88.017578 100.65039 88.017578 C 100.68728 88.139983 100.76295 88.301395 100.8125 88.435547 C 100.82265 88.460778 100.8326 88.485554 100.8418 88.509766 C 100.93225 88.749204 101.00831 88.97181 101.13672 89.25 C 101.13747 89.251619 101.13792 89.254239 101.13867 89.255859 C 101.19617 89.380369 101.28295 89.541169 101.34766 89.673828 C 101.35997 89.698187 101.37332 89.722814 101.38477 89.746094 C 101.54689 90.075237 101.69836 90.390342 101.90234 90.771484 C 102.10446 91.149151 102.28054 91.530211 102.43164 91.916016 C 102.43164 91.916016 102.43164 91.917969 102.43164 91.917969 C 102.57384 92.28126 102.68956 92.64833 102.78711 93.017578 C 102.8232 93.155589 102.84506 93.294895 102.875 93.433594 C 102.9252 93.663567 102.9764 93.8933 103.00977 94.125 C 103.00986 94.125631 103.00968 94.126322 103.00977 94.126953 C 103.02203 94.212766 103.02707 94.298784 103.03711 94.384766 C 103.04454 94.464168 103.05314 94.543516 103.06055 94.623047 C 103.08151 94.851789 103.1024 95.080618 103.10742 95.310547 C 103.10746 95.312498 103.10738 95.314455 103.10742 95.316406 C 103.10841 95.354086 103.10684 95.391994 103.10742 95.429688 C 103.10705 95.508493 103.10598 95.587332 103.10547 95.666016 C 103.04443 99.872996 100.3208 104.22856 95.332031 107.9043 C 94.544604 108.41863 93.719196 108.92323 92.820312 109.4043 C 91.435372 110.1455 90.30909 110.68908 89.314453 111.07031 C 87.403754 111.37285 85.799828 110.50934 83.441406 108.375 C 80.895863 106.07132 76.904678 104.1875 74.572266 104.1875 C 72.239853 104.1875 68.128655 107.01605 65.435547 110.47461 C 61.695892 115.27731 58.963614 116.3537 53.875 115.03125 C 50.175601 114.06981 46.808289 110.97689 46.304688 108.07617 C 45.466279 103.24694 42.419405 99.774481 38.214844 98.302734 C 37.085106 97.857708 35.910016 97.614529 34.738281 97.578125 C 33.255902 97.456183 31.68933 97.538306 30.064453 97.863281 C 24.365039 99.003156 22.210733 97.902648 19.230469 92.333984 C 16.372541 86.993882 16.241368 84.653159 18.662109 82.232422 C 24.046601 76.847932 22.284471 69.687052 15.134766 67.892578 C 11.757473 67.044931 9.7258161 65.455055 8.9394531 62.861328 C 8.8554829 60.174124 9.2425849 56.436654 10.007812 52.634766 C 10.316294 51.674073 10.656383 50.677542 11.0625 49.609375 C 12.909163 44.75228 15.629464 42.759766 20.410156 42.759766 C 21.24477 42.759766 21.986293 42.733788 22.654297 42.683594 C 22.876255 42.728728 23.111665 42.759766 23.359375 42.759766 C 23.471673 42.759766 23.565894 42.692294 23.646484 42.578125 C 27.773072 42.008585 27.834867 39.957994 24.628906 34.890625 C 21.482153 29.916837 24.961106 23.444598 33.947266 17.556641 C 35.87114 16.29607 37.304593 15.418243 38.490234 14.902344 C 41.068941 14.669442 43.565913 15.320985 45.613281 17.173828 C 45.614799 17.175201 45.615669 17.17636 45.617188 17.177734 C 45.643991 17.201993 45.670456 17.222057 45.697266 17.246094 C 45.745653 17.289533 45.793591 17.324899 45.841797 17.367188 C 45.843204 17.368422 45.844295 17.369847 45.845703 17.371094 C 46.751625 18.442347 47.706728 19.281919 48.685547 19.902344 C 48.974881 20.085738 49.265918 20.242095 49.558594 20.386719 C 49.6068 20.410447 49.65485 20.438259 49.703125 20.460938 C 49.993884 20.598106 50.285654 20.71121 50.578125 20.810547 C 50.619109 20.824382 50.660169 20.84042 50.701172 20.853516 C 51.012561 20.953616 51.323228 21.030268 51.634766 21.087891 C 51.649681 21.090624 51.664773 21.093066 51.679688 21.095703 C 51.999911 21.152853 52.318163 21.186584 52.636719 21.199219 C 52.649744 21.199721 52.66276 21.200744 52.675781 21.201172 C 52.997233 21.212094 53.316895 21.200066 53.634766 21.166016 C 53.637995 21.16567 53.641303 21.166366 53.644531 21.166016 C 56.981692 21.418483 59.918588 19.704675 61.873047 16.052734 C 63.843573 12.370771 66.95876 10.606442 70.236328 10.447266 z M 59.457031 46.107422 C 56.653761 46.072936 53.891921 46.655929 51.347656 48.017578 C 41.433724 53.323342 45.105696 69.605104 57.867188 76.923828 C 65.92752 81.546434 74.619024 80.757921 80.507812 74.869141 C 90.922149 64.454794 74.594691 46.293645 59.457031 46.107422 z M 58.259766 51.503906 C 59.585451 51.474343 60.997119 51.644552 62.439453 51.966797 C 65.403061 52.807871 68.740525 54.64839 72.1875 57.548828 C 75.83945 60.621745 78.248671 63.317405 79.447266 65.615234 C 79.557727 65.944231 79.649493 66.273261 79.724609 66.599609 C 79.734954 66.644068 79.740316 66.688026 79.75 66.732422 C 79.812966 67.024792 79.865178 67.314568 79.898438 67.603516 C 79.901162 67.626441 79.901763 67.648974 79.904297 67.671875 C 79.93748 67.982269 79.95759 68.290647 79.955078 68.595703 C 79.955057 68.598275 79.955102 68.600944 79.955078 68.603516 C 79.955041 68.609416 79.953176 68.615196 79.953125 68.621094 C 79.949466 68.937401 79.926344 69.251481 79.882812 69.560547 C 79.882543 69.562464 79.883084 69.56449 79.882812 69.566406 C 79.882722 69.567043 79.882903 69.567723 79.882812 69.568359 C 78.993824 72.223126 75.703904 73.733356 69.863281 74.169922 C 67.776119 74.325931 65.955664 74.379591 64.347656 74.306641 C 56.363799 72.715537 50.500193 66.415471 51.644531 58.335938 C 52.208336 54.355244 54.366765 52.089821 57.478516 51.552734 C 57.736376 51.531276 57.994649 51.509819 58.259766 51.503906 z "
     id="path166" />
  <g
     id="g366" />
  <path
     inkscape:connector-curvature="0"
     id="path142"
     d="m 52.526046,120.54553 c -5.507197,-1.17141 -8.271119,-3.51702 -8.840258,-7.50228 -1.239677,-8.68059 -6.678447,-12.09524 -14.517685,-9.11477 -5.732642,2.17954 -7.464425,1.42297 -12.579595,-5.495648 -5.320158,-7.195923 -5.577612,-8.878172 -2.496931,-16.31561 2.316636,-5.592861 2.516886,-8.598411 0.615118,-9.232339 C 13.155846,72.367934 9.6133262,70.166038 6.8344274,67.991757 2.2680058,64.418914 2.5527676,64.358716 9.7941201,67.366028 20.601091,71.854162 22.06061,74.617582 17.389393,81.746763 c -3.538408,5.400274 -3.472414,6.781396 0.622666,13.031288 3.785186,5.776929 5.92306,6.695929 12.312113,5.292669 8.720606,-1.915352 15.525011,2.23646 15.525011,9.47284 0,4.26315 6.865805,7.86428 15.176809,7.96024 1.737152,0.0214 3.921354,-2.36719 4.853781,-5.30501 1.999357,-6.29944 11.025838,-7.06757 17.216473,-1.46515 3.781963,3.42264 5.321383,3.06399 13.151522,-3.06401 7.398262,-5.79001 8.615612,-8.203273 7.344392,-14.559353 -1.33375,-6.668744 -0.73199,-7.618942 4.82504,-7.618942 4.71993,0 7.10109,-2.157935 9.28084,-8.410791 4.21512,-12.091479 3.72855,-14.4056 -3.74485,-17.81072 -7.50629,-3.420103 -8.76818,-11.450006 -2.60337,-16.566345 3.63267,-3.014846 3.57114,-3.989564 -0.56855,-9.006939 -4.21419,-5.107664 -4.0513,-5.081055 1.76723,0.288676 6.35594,5.865686 6.36635,5.962359 1.25055,11.615245 -5.12691,5.665177 -5.11352,5.736373 2.17151,11.545266 4.7964,3.824507 7.33024,8.381493 7.33024,13.183093 0,8.6393 -7.0837,20.504006 -12.2417,20.504006 -1.98832,0 -2.98793,1.634469 -2.22134,3.63216 1.72937,4.506669 -10.566456,19.512014 -17.894602,21.837884 -3.447097,1.09407 -7.374975,-0.0545 -10.806132,-3.15955 -5.257424,-4.7579 -5.522015,-4.69789 -10.714341,2.43003 -2.928091,4.01964 -6.124935,7.1662 -7.104103,6.99242 -0.979164,-0.17387 -5.385806,-1.08291 -9.792536,-2.02024 z M 62.594556,78.087014 C 55.812639,76.987629 45.849183,65.605847 45.849183,58.957854 c 0,-12.248291 16.631415,-14.495977 29.173285,-3.942687 4.519433,3.802847 8.217149,9.063948 8.217149,11.691347 0,7.868069 -9.615268,13.168457 -20.645061,11.3805 z M 80.084997,68.560172 C 81.405584,61.87583 68.624452,50.771635 59.610046,50.771635 c -9.25593,0 -12.179253,5.370506 -7.961799,14.626828 5.27586,11.57923 26.311675,13.918082 28.43675,3.161709 z M 6.2096987,56.113137 c 0,-3.672286 0.6061889,-5.17458 1.3470865,-3.338443 0.7408976,1.836148 0.7408976,4.840737 0,6.676874 -0.7408976,1.836138 -1.3470865,0.333843 -1.3470865,-3.338431 z M 86.016842,25.527855 c -1.770065,-2.132799 -2.657557,-6.038764 -1.972201,-8.679922 0.965541,-3.720912 1.315855,-3.429761 1.555912,1.293134 0.185083,3.641383 2.729019,7.067644 6.318986,8.510635 4.066517,1.634539 4.603941,2.470121 1.662393,2.584683 -2.390734,0.0931 -5.795024,-1.575729 -7.56509,-3.70853 z m 15.417228,-0.617351 c 1.92794,-0.771501 4.23146,-0.676617 5.11893,0.210855 0.88746,0.887468 -0.68995,1.518693 -3.50535,1.402727 -3.11127,-0.128143 -3.744122,-0.761003 -1.61358,-1.613574 z"
     style="fill:#89899d;stroke-width:2.67074537" />
  <path
     inkscape:connector-curvature="0"
     id="path138"
     d="m 52.558659,120.54214 c -5.065493,-1.08403 -8.340327,-3.65083 -8.967316,-7.02857 -1.657951,-8.93172 -5.586259,-11.6882 -14.59971,-10.2445 -7.323058,1.17291 -9.173234,0.2393 -13.221761,-6.672589 -3.990363,-6.812484 -4.198511,-9.152885 -1.366782,-15.367842 2.356737,-5.172486 2.478113,-7.618916 0.412164,-8.307567 -1.610556,-0.536874 -5.2019278,-2.699349 -7.9808266,-4.805526 -4.4967501,-3.408165 -4.0977288,-3.480034 3.6273786,-0.653531 9.10445,3.33122 10.497027,6.972942 5.929776,15.506935 -2.061982,3.852844 -1.630228,6.847897 1.725442,11.969292 3.680209,5.616708 5.8496,6.528828 12.207148,5.132478 8.731826,-1.917835 15.525011,2.23841 15.525011,9.49859 0,8.95092 15.566225,10.92385 20.746154,2.62948 3.931161,-6.29482 10.51794,-6.87965 16.500909,-1.46515 3.781963,3.42264 5.321383,3.06399 13.151522,-3.06401 7.398262,-5.79001 8.615612,-8.203273 7.344392,-14.559353 -1.34185,-6.709259 -0.74734,-7.618942 4.9791,-7.618942 5.31926,0 7.11158,-2.031663 9.84708,-11.161926 2.32074,-7.745963 2.46946,-11.453491 0.48595,-12.114688 -1.57204,-0.524 -5.08434,-2.5805 -7.80511,-4.569965 -4.22766,-3.091335 -4.48519,-4.630485 -1.77137,-10.586666 1.74652,-3.83319 4.58936,-6.969436 6.31743,-6.969436 1.94281,0 1.45502,1.86402 -1.27812,4.884102 -6.07263,6.710178 -5.55511,9.765801 2.25681,13.325157 4.60191,2.096776 6.67687,5.176145 6.67687,9.908946 0,9.111007 -7.16971,22.625967 -12.00312,22.625967 -2.15193,0 -3.23822,1.603942 -2.45992,3.63216 1.72937,4.506669 -10.566456,19.512014 -17.894602,21.837884 -3.447097,1.09407 -7.374975,-0.0545 -10.806132,-3.15955 -5.257424,-4.7579 -5.522015,-4.69789 -10.714341,2.43003 -2.928091,4.01964 -6.124935,7.1662 -7.104103,6.99242 -0.979164,-0.17387 -5.37113,-1.08443 -9.759923,-2.02363 z m 0.697216,-47.736845 c -2.257284,-2.570593 -4.835307,-7.678393 -5.728941,-11.350668 -1.408422,-5.787745 -1.145883,-5.649774 1.971542,1.036249 1.977978,4.242239 6.472944,9.307441 9.988812,11.256043 4.339485,2.40506 5.02439,3.573297 2.132614,3.637529 -2.34293,0.05208 -6.106742,-2.008561 -8.364027,-4.579153 z m 21.30382,1.919812 C 86.901436,69.764358 78.664014,54.840446 61.315351,50.730073 53.225747,48.813432 53.094418,48.625889 59.665683,48.37427 c 8.342631,-0.319442 23.573934,11.391325 23.573934,18.125101 0,5.759436 -5.144731,11.03146 -10.549444,10.81043 -2.539347,-0.103892 -1.816627,-1.103018 1.869522,-2.584694 z M 5.9988506,54.555184 c 0.128153,-3.111258 0.7610029,-3.74411 1.6135751,-1.613557 0.7714998,1.92793 0.6766181,4.231448 -0.2108473,5.11891 C 6.5141119,58.947999 5.8828847,57.370604 5.9988506,54.555184 Z M 109.6064,32.744104 c -3.32206,-4.235951 -3.22759,-4.330415 1.00836,-1.008353 4.44879,3.488979 5.86356,5.682158 3.66545,5.682158 -0.5546,0 -2.65781,-2.103212 -4.67381,-4.673805 z M 86.016842,25.527855 c -1.770065,-2.132799 -2.657557,-6.038764 -1.972201,-8.679922 0.965541,-3.720912 1.315855,-3.429761 1.555912,1.293134 0.185083,3.641383 2.729019,7.067644 6.318986,8.510635 4.066517,1.634539 4.603941,2.470121 1.662393,2.584683 -2.390734,0.0931 -5.795024,-1.575729 -7.56509,-3.70853 z"
     style="fill:#858599;stroke-width:2.67074537" />
  <path
     inkscape:connector-curvature="0"
     id="path136"
     d="m 52.558659,120.54214 c -5.065493,-1.08403 -8.340327,-3.65083 -8.967316,-7.02857 -1.657951,-8.93172 -5.586259,-11.6882 -14.59971,-10.2445 -7.323058,1.17291 -9.173234,0.2393 -13.221761,-6.672589 -3.990363,-6.812484 -4.198511,-9.152885 -1.366782,-15.367842 2.356737,-5.172486 2.478113,-7.618916 0.412164,-8.307567 -1.610556,-0.536874 -5.2019278,-2.793707 -7.9808266,-5.015206 -4.2678326,-3.41177 -3.7044645,-3.386158 3.6273786,0.165052 9.304588,4.506536 10.237201,6.849661 5.929776,14.898165 -2.061982,3.852844 -1.630228,6.847898 1.725442,11.969292 3.680209,5.616715 5.8496,6.528825 12.207148,5.132475 8.731826,-1.917832 15.525011,2.23841 15.525011,9.49859 0,8.97955 16.857223,11.05413 21.365962,2.62948 3.36668,-6.2907 9.884466,-6.89202 15.881101,-1.46514 3.781963,3.42264 5.321383,3.06398 13.151522,-3.06402 7.464792,-5.84206 8.621912,-8.171755 7.311982,-14.72141 -1.37676,-6.88382 -0.86956,-7.685337 4.39877,-6.951256 4.9195,0.685447 6.65501,-1.217566 9.98093,-10.944314 2.81649,-8.236899 3.13682,-12.076976 1.06628,-12.782374 -1.62783,-0.554553 -5.20062,-2.646895 -7.93952,-4.649634 -4.45647,-3.258656 -4.58919,-4.371289 -1.26282,-10.586663 2.04437,-3.819927 4.90205,-6.945321 6.3504,-6.945321 1.44836,0 0.64436,2.197844 -1.78667,4.884101 -6.07263,6.710178 -5.55511,9.765802 2.25681,13.325158 4.60191,2.096775 6.67687,5.176144 6.67687,9.908946 0,9.111007 -7.16971,22.625966 -12.00312,22.625966 -2.15193,0 -3.23822,1.603943 -2.45992,3.63216 1.72937,4.506669 -10.566456,19.512011 -17.894602,21.837881 -3.447097,1.09407 -7.374975,-0.0545 -10.806132,-3.15954 -5.257424,-4.75791 -5.522015,-4.6979 -10.714341,2.43003 -2.928091,4.01963 -6.124935,7.1662 -7.104103,6.99241 -0.979164,-0.17387 -5.37113,-1.08443 -9.759923,-2.02362 z m 1.830713,-47.736845 c -2.972911,-2.570593 -6.098725,-7.678393 -6.946256,-11.350668 -1.355126,-5.871633 -1.107251,-5.746669 2.05536,1.036249 1.977978,4.242239 6.472944,9.307441 9.988812,11.256043 3.515865,1.948576 5.023335,3.585476 3.349929,3.637529 -1.673406,0.05208 -5.474937,-2.008561 -8.447845,-4.579153 z m 20.170323,1.919812 c 3.305047,-1.328456 6.104058,-4.557333 6.220024,-7.175251 0.13052,-2.9465 0.735451,-3.453808 1.587868,-1.331634 1.815364,4.519542 -3.978636,11.305452 -9.470284,11.091579 -2.941548,-0.114575 -2.404125,-0.950145 1.662392,-2.584694 z M 72.928446,56.024281 c -3.467778,-2.888945 -5.156343,-5.252646 -3.752365,-5.252646 1.403979,0 4.727983,2.403682 7.386673,5.341502 6.107674,6.748893 4.527073,6.710247 -3.634308,-0.08894 z m -17.063968,-7.02143 c 1.836137,-0.740896 4.840726,-0.740896 6.676863,0 1.836137,0.7409 0.333843,1.347087 -3.338432,1.347087 -3.672274,0 -5.174569,-0.606187 -3.338431,-1.347087 z M 109.6064,32.744104 c -3.32206,-4.235951 -3.22759,-4.330415 1.00836,-1.008353 4.44879,3.488979 5.86356,5.682158 3.66545,5.682158 -0.5546,0 -2.65781,-2.103212 -4.67381,-4.673805 z M 86.016842,25.527855 c -1.770065,-2.132799 -2.657557,-6.038764 -1.972201,-8.679922 0.999099,-3.850238 1.307512,-3.637278 1.555912,1.074363 0.170394,3.232056 2.413021,7.101474 4.983614,8.598708 2.570592,1.497233 3.318668,2.758789 1.662392,2.803454 -1.656279,0.04468 -4.459651,-1.663802 -6.229717,-3.796603 z"
     style="fill:#828293;stroke-width:2.67074537" />
  <path
     sodipodi:nodetypes="sssssssssssssssscssssssscsscscsssss"
     inkscape:connector-curvature="0"
     id="path130"
     d="m 52.558659,120.54214 c -5.081862,-1.08752 -8.328073,-3.63993 -8.939159,-7.02857 -1.424022,-7.89665 -5.128634,-10.66239 -14.281826,-10.66239 -5.700678,0 -9.791045,-2.09931 -13.372554,-6.863175 -4.462615,-5.935892 -4.70732,-7.856211 -1.811113,-14.212692 2.783073,-6.108181 2.697675,-7.761372 -0.505616,-9.788067 -2.789266,-1.764776 -2.90864,-2.449902 -0.432018,-2.479494 5.080211,-0.06063 6.760176,6.762621 3.270452,13.283219 -4.586161,8.569327 3.275955,19.818319 12.273105,17.560179 8.541103,-2.143675 16.50182,2.31401 17.57042,9.8387 1.206557,8.49618 16.557865,10.09387 20.801319,2.16491 3.444762,-6.4366 11.381434,-7.18644 16.084456,-1.51965 6.898223,8.31184 25.951455,-10.46014 20.147895,-19.850506 -1.00365,-1.62392 0.52649,-2.822524 3.60324,-2.822524 12.93819,0 18.64019,-23.582227 6.98593,-28.892256 -7.8073,-3.557246 -8.59248,-9.065356 -2.00306,-14.051541 3.97614,-3.008726 4.17547,-2.977807 1.33537,0.207143 -5.04609,5.65878 -4.04808,9.506974 3.33843,12.872514 4.60191,2.096775 6.67687,5.176145 6.67687,9.908919 0,9.405136 -7.22962,22.625967 -12.37268,22.625967 -2.7943,0 -3.66199,1.46266 -2.56443,4.322868 1.09739,2.859754 -1.58208,7.379426 -7.91666,13.353726 -10.930705,10.30897 -13.445767,10.84595 -20.575997,4.39319 -4.906477,-4.4403 -5.351103,-4.32663 -10.448348,2.67074 -2.928091,4.01964 -6.124935,7.1662 -7.104103,6.99242 -0.979164,-0.17387 -5.37113,-1.08443 -9.759923,-2.02363 z M 75.895068,74.594427 c 2.570592,-1.497246 4.768685,-4.765731 4.884651,-7.263332 0.135781,-2.924573 0.701039,-3.320725 1.587868,-1.112873 1.598294,3.979117 -3.727688,11.298508 -8.134911,11.17966 -1.656277,-0.0446 -0.908201,-1.306235 1.662392,-2.803455 z M 74.886714,56.780823 c -3.322062,-4.235962 -3.227598,-4.330427 1.008354,-1.008367 4.448788,3.488982 5.863565,5.682171 3.665451,5.682171 -0.554597,0 -2.657809,-2.103212 -4.673805,-4.673804 z"
     style="fill:#7b7b8b;stroke-width:2.67074537" />
  <path
     inkscape:connector-curvature="0"
     id="path128"
     d="m 52.558659,120.54214 c -5.065493,-1.08403 -8.340327,-3.65083 -8.967316,-7.02857 -1.614412,-8.69718 -5.725555,-11.86999 -13.393259,-10.33645 -5.346173,1.06923 -8.517716,-0.14983 -12.4531,-4.78718 l -5.280119,-6.221742 5.901561,4.990341 c 3.77182,3.189431 8.11698,4.434291 12.040542,3.449561 7.828013,-1.964706 11.738799,0.51457 15.209027,9.64198 3.61007,9.49519 16.27663,10.22025 22.379166,1.28102 3.959142,-5.79952 4.381841,-5.85505 12.11496,-1.59112 7.375068,4.0665 8.509109,4.07625 14.251014,0.12259 9.838585,-6.77454 12.764345,-11.850528 9.907425,-17.188707 -2.02097,-3.776221 -1.45465,-4.711756 2.85223,-4.711756 7.35755,0 14.38645,-11.507787 12.96101,-21.219899 -0.63579,-4.331923 -0.17162,-7.267846 1.03151,-6.524257 6.55597,4.051814 -2.27236,30.414901 -10.18519,30.414901 -2.7943,0 -3.66199,1.462661 -2.56443,4.322869 1.09739,2.859754 -1.58208,7.379429 -7.91666,13.353729 -10.930705,10.30897 -13.445767,10.84595 -20.575997,4.39319 -4.906477,-4.4403 -5.351103,-4.32664 -10.448348,2.67074 -2.928091,4.01963 -6.124935,7.1662 -7.104103,6.99241 -0.979164,-0.17386 -5.37113,-1.08443 -9.759923,-2.02362 z M 15.366554,79.2126 c 1.169433,-3.070423 0.470467,-5.837608 -1.844828,-7.303661 -2.787473,-1.765015 -2.864485,-2.370607 -0.305353,-2.401187 4.882314,-0.05849 7.225813,7.743773 3.451009,11.48928 -2.458467,2.439405 -2.754759,2.032971 -1.300828,-1.784432 z m 60.528514,-4.618173 c 2.570592,-1.497246 4.768685,-4.765731 4.884651,-7.263332 0.135781,-2.924573 0.701039,-3.320725 1.587868,-1.112873 1.598294,3.979117 -3.727688,11.298508 -8.134911,11.17966 -1.656277,-0.0446 -0.908201,-1.306235 1.662392,-2.803455 z M 74.886714,56.780823 c -3.322062,-4.235962 -3.227598,-4.330427 1.008354,-1.008367 4.448788,3.488982 5.863565,5.682171 3.665451,5.682171 -0.554597,0 -2.657809,-2.103212 -4.673805,-4.673804 z m 33.275956,-2.210175 c -0.89994,-2.345198 0.45367,-6.193595 3.05303,-8.679909 4.41527,-4.22326 4.47157,-4.134749 1.0329,1.623957 -3.11662,5.21935 -3.0638,6.455221 0.36922,8.639036 2.79409,1.777354 2.97074,2.560711 0.58386,2.589234 -1.88224,0.02137 -4.14979,-1.855046 -5.03901,-4.172318 z"
     style="fill:#7b7b83;stroke-width:2.67074537" />
  <path
     inkscape:connector-curvature="0"
     id="path126"
     d="m 52.526046,120.54553 c -5.596077,-1.19032 -8.26867,-3.50409 -8.862596,-7.67275 -0.467698,-3.28267 -3.439244,-7.78183 -6.603436,-9.99812 -3.16419,-2.2163 -4.584281,-4.011197 -3.155756,-3.988709 4.837941,0.07612 8.929504,4.046289 11.711737,11.364129 3.61007,9.49519 16.27663,10.22025 22.379166,1.28102 3.959142,-5.79952 4.381841,-5.85505 12.11496,-1.59112 7.375068,4.0665 8.509109,4.07625 14.251014,0.12259 9.838585,-6.77454 12.764345,-11.850528 9.907425,-17.188707 -2.01437,-3.763882 -1.45865,-4.711756 2.76236,-4.711756 2.9062,0 7.15491,-2.671092 9.44157,-5.935758 4.68879,-6.69417 5.60525,-4.430366 1.39285,3.440588 -1.52059,2.841245 -4.65376,5.165915 -6.9626,5.165915 -2.77091,0 -3.63401,1.469444 -2.53905,4.322869 1.09739,2.859754 -1.58208,7.379429 -7.91666,13.353729 -10.937721,10.31559 -13.444127,10.84744 -20.600125,4.37137 -4.937038,-4.46797 -5.388939,-4.35818 -10.993605,2.67074 -3.214706,4.03163 -6.400694,7.18802 -7.079972,7.01423 -0.679274,-0.17386 -4.840552,-1.0829 -9.247282,-2.02023 z M 17.552602,98.177375 c -5.044404,-5.958005 -5.042243,-5.972347 0.253753,-1.683878 2.93782,2.378913 7.144244,4.988153 9.347611,5.798323 3.400243,1.25025 3.361867,1.50491 -0.253748,1.68388 -2.342932,0.11591 -6.549356,-2.49328 -9.347612,-5.798325 z M 75.895068,74.594427 c 2.570592,-1.497246 4.768685,-4.765731 4.884651,-7.263332 0.135781,-2.924573 0.701039,-3.320725 1.587868,-1.112873 1.598294,3.979117 -3.727688,11.298508 -8.134911,11.17966 -1.656277,-0.0446 -0.908201,-1.306235 1.662392,-2.803455 z m -62.09483,-2.456819 c -2.407121,-1.555602 -2.736533,-2.605285 -0.825306,-2.629856 1.749447,-0.02137 3.923588,1.160947 4.831424,2.629856 2.049276,3.315784 1.124713,3.315784 -4.006118,0 z M 120.31267,67.379889 c -0.87987,-5.307358 -0.48793,-7.79887 0.99374,-6.31722 1.34564,1.345655 1.99944,5.289384 1.45288,8.763837 -0.84096,5.345977 -1.21711,4.969829 -2.44662,-2.446617 z M 74.886714,56.780823 c -3.322062,-4.235962 -3.227598,-4.330427 1.008354,-1.008367 4.448788,3.488982 5.863565,5.682171 3.665451,5.682171 -0.554597,0 -2.657809,-2.103212 -4.673805,-4.673804 z m 33.286536,-2.182587 c -0.8834,-2.302105 -0.54522,-5.246601 0.7515,-6.543328 1.36309,-1.363087 2.35769,0.402644 2.35769,4.185637 0,7.582017 -0.8555,8.230714 -3.10919,2.357691 z"
     style="fill:#757582;stroke-width:2.67074537" />
  <path
     inkscape:connector-curvature="0"
     id="path124"
     d="m 52.558659,120.54214 c -4.919967,-1.05288 -8.143904,-3.51192 -8.408073,-6.41323 -0.301986,-3.31669 -0.05673,-3.50768 0.830904,-0.64712 2.045331,6.59142 18.127299,5.22459 22.951963,-1.95069 3.899646,-5.7996 4.308553,-5.85368 11.724719,-1.55026 8.571551,4.97384 14.865058,3.11185 22.726968,-6.72397 3.19852,-4.001582 3.7374,-6.918864 1.90909,-10.335067 -2.08061,-3.887671 -1.48307,-4.759723 3.26139,-4.759723 3.19479,0 7.5098,-2.103212 9.58891,-4.673804 3.41146,-4.217908 3.49614,-4.087656 0.86814,1.335373 -1.60162,3.305047 -4.80109,6.009177 -7.10993,6.009177 -2.77091,0 -3.63401,1.469444 -2.53905,4.322868 1.09739,2.859754 -1.58208,7.379426 -7.91666,13.353726 -10.937721,10.31559 -13.444127,10.84745 -20.600125,4.37137 -4.937038,-4.46797 -5.388939,-4.35818 -10.993605,2.67074 -3.214706,4.03163 -6.400694,7.18802 -7.079972,7.01424 -0.679274,-0.17387 -4.825876,-1.08443 -9.214669,-2.02363 z M 36.654603,102.63279 c -2.849034,-2.08326 -4.048981,-3.769327 -2.666547,-3.746839 3.691656,0.06009 10.578704,4.802509 9.108836,6.272379 -0.694223,0.69423 -3.593253,-0.44225 -6.442289,-2.52554 z M 17.552602,98.177375 c -5.044404,-5.958005 -5.042243,-5.972347 0.253753,-1.683878 2.93782,2.378913 7.144244,4.988153 9.347611,5.798323 3.400243,1.25025 3.361867,1.50491 -0.253748,1.68388 -2.342932,0.11591 -6.549356,-2.49328 -9.347612,-5.798325 z M 79.405209,71.354733 c 1.002948,-2.633943 2.496325,-4.116206 3.318613,-3.29391 0.822287,0.822269 0.0017,2.97732 -1.823543,4.788966 -2.63767,2.618052 -2.944443,2.31129 -1.49507,-1.495056 z m 40.907461,-3.974844 c -0.87987,-5.307358 -0.48793,-7.79887 0.99374,-6.31722 1.34564,1.345655 1.99944,5.289384 1.45288,8.763837 -0.84096,5.345977 -1.21711,4.969829 -2.44662,-2.446617 z"
     style="fill:#72727c;stroke-width:2.67074537" />
  <path
     inkscape:connector-curvature="0"
     id="path122"
     d="m 52.558659,120.54214 c -4.919967,-1.05288 -8.143904,-3.51192 -8.408073,-6.41323 -0.301986,-3.31669 -0.05673,-3.50768 0.830904,-0.64712 0.692644,2.23215 3.476605,4.05849 6.186581,4.05849 2.709973,0 6.602699,0.64293 8.650499,1.42874 2.196065,0.8427 5.209486,-1.34824 7.3466,-5.34149 4.113776,-7.68667 8.557776,-8.60311 13.403702,-2.76411 5.132179,6.18389 9.581184,4.86516 20.273368,-6.00918 5.96735,-6.06903 8.651,-7.720726 6.81086,-4.19187 -2.9873,5.7288 -16.601296,16.87791 -20.609353,16.87791 -1.126491,0 -4.365069,-2.09678 -7.196842,-4.65949 -4.937038,-4.46797 -5.388939,-4.35818 -10.993605,2.67074 -3.214706,4.03163 -6.400694,7.18802 -7.079972,7.01424 -0.679274,-0.17387 -4.825876,-1.08443 -9.214669,-2.02363 z M 36.654603,102.63279 c -2.849034,-2.08326 -4.048981,-3.769327 -2.666547,-3.746839 3.691656,0.06009 10.578704,4.802509 9.108836,6.272379 -0.694223,0.69423 -3.593253,-0.44225 -6.442289,-2.52554 z M 16.130316,96.842003 c -3.322062,-4.235963 -3.227597,-4.330427 1.008354,-1.008367 2.570592,2.015985 4.673804,4.119224 4.673804,4.673804 0,2.1981 -2.193177,0.78333 -5.682158,-3.665437 z m 86.984934,-6.259907 c -0.82261,-1.331019 1.14691,-2.420016 4.37671,-2.420016 3.2298,0 7.57346,-2.103212 9.65257,-4.673804 3.45165,-4.267611 3.54262,-4.180544 1.04669,1.001743 -2.94919,6.123405 -12.63713,10.03821 -15.07597,6.092077 z M 79.405209,71.354733 c 1.002948,-2.633943 2.496325,-4.116206 3.318613,-3.29391 0.822287,0.822269 0.0017,2.97732 -1.823543,4.788966 -2.63767,2.618052 -2.944443,2.31129 -1.49507,-1.495056 z m 40.907461,-3.974844 c -0.87987,-5.307358 -0.48793,-7.79887 0.99374,-6.31722 1.34564,1.345655 1.99944,5.289384 1.45288,8.763837 -0.84096,5.345977 -1.21711,4.969829 -2.44662,-2.446617 z"
     style="fill:#737374;stroke-width:2.67074537" />
  <path
     inkscape:connector-curvature="0"
     id="path114"
     d="m 50.522987,118.44224 c 1.836138,-0.74092 4.840726,-0.74092 6.676863,0 1.836138,0.74089 0.333844,1.34707 -3.338431,1.34707 -3.672275,0 -5.174569,-0.60618 -3.338432,-1.34707 z M 64.5444,117.69788 c 0,-1.38222 1.18807,-3.24739 2.640155,-4.14484 1.513938,-0.93564 1.961681,0.13648 1.049632,2.51315 -1.775488,4.62682 -3.689787,5.4734 -3.689787,1.63169 z m 16.024472,-4.16372 c -1.82863,-2.20336 -5.280835,-4.10101 -7.671569,-4.21697 -2.72767,-0.1322 -3.112818,-0.70943 -1.033998,-1.54938 1.822033,-0.73622 6.490996,1.16143 10.375469,4.21694 3.884474,3.05555 5.845925,5.55553 4.358779,5.55553 -1.487143,0 -4.200051,-1.80275 -6.028681,-4.00612 z m 10.682981,0.40112 c 0,-0.61721 3.152564,-3.18783 7.005696,-5.71248 3.853131,-2.52469 6.189871,-3.27028 5.192751,-1.65691 -1.90546,3.08311 -12.198447,9.30135 -12.198447,7.36939 z M 35.166202,101.51581 c -2.407122,-1.555605 -2.736534,-2.605288 -0.825306,-2.629859 1.749448,-0.02137 3.923587,1.160949 4.831424,2.629859 2.049276,3.31578 1.124712,3.31578 -4.006118,0 z"
     style="fill:#65656b;stroke-width:2.67074537" />
  <path
     inkscape:connector-curvature="0"
     id="path112"
     d="m 78.269937,112.10993 c -8.279751,-6.89773 -4.541514,-6.8194 4.240911,0.0889 3.734835,2.93782 5.727152,5.30151 4.427375,5.25263 -1.29978,-0.0489 -5.200507,-2.45254 -8.668286,-5.34149 z m 12.981916,1.82535 c 0,-0.61721 3.152564,-3.18783 7.005696,-5.71248 3.853131,-2.52469 6.189871,-3.27028 5.192751,-1.65691 -1.90546,3.08311 -12.198447,9.30135 -12.198447,7.36939 z"
     style="fill:#626264;stroke-width:2.67074537" />
  <path
     inkscape:connector-curvature="0"
     id="path110"
     d="m 76.719981,110.77846 c -2.851344,-2.15665 -3.899879,-3.92116 -2.330076,-3.92116 1.5698,0 4.350337,1.80275 6.178967,4.00612 4.158895,5.01114 2.850585,4.98227 -3.848891,-0.0849 z"
     style="fill:#5c5c60;stroke-width:2.67074537" />
  <path
     inkscape:connector-curvature="0"
     id="path108"
     d="m 77.55746,110.19573 c -3.322063,-4.23596 -3.227599,-4.33043 1.008353,-1.00837 2.570592,2.01599 4.673804,4.11923 4.673804,4.67381 0,2.1981 -2.193178,0.78333 -5.682157,-3.66544 z"
     style="fill:#5a5a5b;stroke-width:2.67074537" />
</svg>
