<?xml version="1.0" encoding="UTF-8" standalone="no"?>
<svg
   xmlns:dc="http://purl.org/dc/elements/1.1/"
   xmlns:cc="http://creativecommons.org/ns#"
   xmlns:rdf="http://www.w3.org/1999/02/22-rdf-syntax-ns#"
   xmlns:svg="http://www.w3.org/2000/svg"
   xmlns="http://www.w3.org/2000/svg"
   xmlns:sodipodi="http://sodipodi.sourceforge.net/DTD/sodipodi-0.dtd"
   xmlns:inkscape="http://www.inkscape.org/namespaces/inkscape"
   height="24"
   version="1.1"
   width="24"
   id="svg2"
viewBox="0 0 24 24"
   inkscape:version="0.91 r"
   sodipodi:docname="unknown.svg">
  <metadata
     id="metadata16">
    <rdf:RDF>
      <cc:Work
         rdf:about="">
        <dc:format>image/svg+xml</dc:format>
        <dc:type
           rdf:resource="http://purl.org/dc/dcmitype/StillImage" />
        <dc:title></dc:title>
      </cc:Work>
    </rdf:RDF>
  </metadata>
  <defs
     id="defs14" />
  <sodipodi:namedview
     pagecolor="#ffffff"
     bordercolor="#666666"
     borderopacity="1"
     objecttolerance="10"
     gridtolerance="10"
     guidetolerance="10"
     inkscape:pageopacity="0"
     inkscape:pageshadow="2"
     inkscape:window-width="1920"
     inkscape:window-height="1051"
     id="namedview12"
     showgrid="false"
     inkscape:zoom="19.666667"
     inkscape:cx="9.0308807"
     inkscape:cy="6.3407536"
     inkscape:window-x="0"
     inkscape:window-y="0"
     inkscape:window-maximized="1"
     inkscape:current-layer="svg2" />
  <rect
     style="opacity:1;fill:#f9f9f9;fill-opacity:1;stroke:none;stroke-width:2;stroke-linecap:round;stroke-linejoin:round;stroke-miterlimit:4;stroke-dasharray:none;stroke-dashoffset:0;stroke-opacity:1"
     id="rect4144"
     width="24"
     height="24"
     x="0.11523365"
     y="0.015081692"
     inkscape:export-filename="/var/www/chamilo/main/img/icons/16/unknown.png"
     inkscape:export-xdpi="60"
     inkscape:export-ydpi="60" />
  <path
     inkscape:connector-curvature="0"
     d="m 14.974917,17.068064 c -0.08463,-0.893441 -0.05218,-1.516966 -0.05218,-2.333368 0.423185,-0.212276 1.181439,-1.56574 1.309555,-2.709146 0.33275,-0.02605 0.857384,-0.336426 1.011006,-1.56186 C 17.326199,9.8058023 16.996928,9.4355662 16.79635,9.3191751 17.337796,7.7623035 18.462425,2.9459204 14.716368,2.4482089 14.330864,1.8008517 13.343626,1.4732933 12.060737,1.4732933 6.9280266,1.5636348 6.3089012,5.1789706 7.4341093,9.3191751 7.234111,9.4355662 6.9048384,9.8058023 6.9871565,10.46369 c 0.1542016,1.225434 0.6782553,1.535811 1.0110062,1.56186 0.1275351,1.142852 0.9159345,2.49687 1.3402785,2.709146 0,0.816402 0.03189,1.439927 -0.05275,2.333368 -1.0156435,2.610491 -7.8683409,1.87778 -8.18486,6.912535 l 22.0288048,0 c -0.31594,-5.034755 -7.139073,-4.302044 -8.154716,-6.912535 z"
     id="path4156"
     style="fill:#34495e;fill-opacity:1"
     inkscape:export-filename="/var/www/chamilo/main/img/icons/16/unknown.png"
     inkscape:export-xdpi="60"
     inkscape:export-ydpi="60" />
</svg>
