<?xml version="1.0" encoding="UTF-8" standalone="no"?>
<svg
   xmlns:dc="http://purl.org/dc/elements/1.1/"
   xmlns:cc="http://creativecommons.org/ns#"
   xmlns:rdf="http://www.w3.org/1999/02/22-rdf-syntax-ns#"
   xmlns:svg="http://www.w3.org/2000/svg"
   xmlns="http://www.w3.org/2000/svg"
   xmlns:sodipodi="http://sodipodi.sourceforge.net/DTD/sodipodi-0.dtd"
   xmlns:inkscape="http://www.inkscape.org/namespaces/inkscape"
   height="128"
   version="1.1"
   width="128"
   viewBox="0 0 128 128"
   id="svg2"
   inkscape:version="0.91 r13725"
   sodipodi:docname="webcam.svg">
  <metadata
     id="metadata44">
    <rdf:RDF>
      <cc:Work
         rdf:about="">
        <dc:format>image/svg+xml</dc:format>
        <dc:type
           rdf:resource="http://purl.org/dc/dcmitype/StillImage" />
        <dc:title />
      </cc:Work>
    </rdf:RDF>
  </metadata>
  <defs
     id="defs42" />
  <sodipodi:namedview
     pagecolor="#ffffff"
     bordercolor="#666666"
     borderopacity="1"
     objecttolerance="10"
     gridtolerance="10"
     guidetolerance="10"
     inkscape:pageopacity="0"
     inkscape:pageshadow="2"
     inkscape:window-width="1325"
     inkscape:window-height="747"
     id="namedview40"
     showgrid="false"
     inkscape:zoom="1.7383042"
     inkscape:cx="115.89968"
     inkscape:cy="30.710338"
     inkscape:window-x="41"
     inkscape:window-y="21"
     inkscape:window-maximized="1"
     inkscape:current-layer="svg2" />
  <g
     transform="matrix(5.3406829,0,0,5.3406829,0.26150362,-5492.0967)"
     id="g4">
    <path
       d="M 24,12 A 12,12 0 1 1 0,12 12,12 0 1 1 24,12 Z"
       transform="matrix(0.91667,0,0,0.91667,1,1029.4)"
       id="path6"
       inkscape:connector-curvature="0"
       style="fill:#bdc3c7" />
    <g
       id="g8"
       style="fill:#95a5a6">
      <path
         d="m 6,1048.4 c 1.6702,1.2 3.7518,2 6,2 2.248,0 4.33,-0.8 6,-2 l -12,0 z"
         id="path10"
         inkscape:connector-curvature="0" />
      <path
         d="M 12,1 C 5.9249,1 1,5.9249 1,12 1,18.075 5.9249,23 12,23 L 12,1 Z"
         transform="translate(0,1028.4)"
         id="path12"
         inkscape:connector-curvature="0" />
      <path
         d="M 17,13 A 6,6 0 1 1 5,13 6,6 0 1 1 17,13 Z"
         transform="translate(1,1028.4)"
         id="path14"
         inkscape:connector-curvature="0" />
    </g>
    <path
       d="m 12,1035.4 c -3.3137,0 -6,2.6 -6,6 0,3.3 2.6863,6 6,6 l 0,-12 z"
       id="path16"
       inkscape:connector-curvature="0"
       style="fill:#7f8c8d" />
    <path
       d="M 17,13 A 6,6 0 1 1 5,13 6,6 0 1 1 17,13 Z"
       transform="translate(1,1027.4)"
       id="path18"
       inkscape:connector-curvature="0"
       style="fill:#ecf0f1" />
    <path
       d="m 15,12.5 a 3,3.5 0 1 1 -6,0 3,3.5 0 1 1 6,0 z"
       transform="matrix(1.3333,0,0,1.1429,-4,1026.1)"
       id="path20"
       inkscape:connector-curvature="0"
       style="fill:#34495e" />
    <path
       d="m 15,12.5 a 3,3.5 0 1 1 -6,0 3,3.5 0 1 1 6,0 z"
       transform="matrix(1,0,0,0.85714,0,1029.6)"
       id="path22"
       inkscape:connector-curvature="0"
       style="fill:#2c3e50" />
    <path
       d="m 14,13 a 2,2 0 1 1 -4,0 2,2 0 1 1 4,0 z"
       transform="translate(0,1027.4)"
       id="path24"
       inkscape:connector-curvature="0"
       style="fill:#34495e" />
    <path
       d="m 13,13 a 1,1 0 1 1 -2,0 1,1 0 1 1 2,0 z"
       transform="translate(0,1027.4)"
       id="path26"
       inkscape:connector-curvature="0"
       style="fill:#3498db" />
    <path
       d="m 25,12.5 a 1.5,1.5 0 1 1 -3,0 1.5,1.5 0 1 1 3,0 z"
       transform="matrix(0.66667,0,0,0.66666,-4.6667,1030)"
       id="path28"
       inkscape:connector-curvature="0"
       style="fill:#ecf0f1" />
    <rect
       height="1"
       width="3"
       x="9"
       y="1030.4"
       id="rect30"
       style="fill:#7f8c8d" />
    <rect
       height="1"
       width="3"
       x="9"
       y="1032.4"
       id="rect32"
       style="fill:#7f8c8d" />
    <rect
       height="1"
       width="3"
       x="12"
       y="1030.4"
       id="rect34"
       style="fill:#95a5a6" />
    <rect
       height="1"
       width="3"
       x="12"
       y="1032.4"
       id="rect36"
       style="fill:#95a5a6" />
    <path
       d="m 6,20 c 1.6702,1.252 3.7518,2 6,2 l 0,-2 -6,0 z"
       transform="translate(0,1028.4)"
       id="path38"
       inkscape:connector-curvature="0"
       style="fill:#7f8c8d" />
  </g>
</svg>
