<?xml version="1.0" encoding="UTF-8" standalone="no"?>
<svg
   xmlns:dc="http://purl.org/dc/elements/1.1/"
   xmlns:cc="http://creativecommons.org/ns#"
   xmlns:rdf="http://www.w3.org/1999/02/22-rdf-syntax-ns#"
   xmlns:svg="http://www.w3.org/2000/svg"
   xmlns="http://www.w3.org/2000/svg"
   xmlns:sodipodi="http://sodipodi.sourceforge.net/DTD/sodipodi-0.dtd"
   xmlns:inkscape="http://www.inkscape.org/namespaces/inkscape"
   viewBox="0 0 960 200"
   version="1.1"
   id="svg66"
   sodipodi:docname="titleremindernote.svg"
   width="960"
   height="200"
   inkscape:version="1.0.1 (3bc2e813f5, 2020-09-07)"
   inkscape:export-filename="D:\wamp64\www\chamilo-1.11.16\plugin\adv_oel_tools_teachdoc\engine\medias\title\titleremindernote.png"
   inkscape:export-xdpi="31.200001"
   inkscape:export-ydpi="31.200001">
  <metadata
     id="metadata72">
    <rdf:RDF>
      <cc:Work
         rdf:about="">
        <dc:format>image/svg+xml</dc:format>
        <dc:type
           rdf:resource="http://purl.org/dc/dcmitype/StillImage" />
        <dc:title />
      </cc:Work>
    </rdf:RDF>
  </metadata>
  <defs
     id="defs70" />
  <sodipodi:namedview
     pagecolor="#ffffff"
     bordercolor="#666666"
     borderopacity="1"
     objecttolerance="10"
     gridtolerance="10"
     guidetolerance="10"
     inkscape:pageopacity="0"
     inkscape:pageshadow="2"
     inkscape:window-width="1510"
     inkscape:window-height="968"
     id="namedview68"
     showgrid="false"
     inkscape:zoom="1.964578"
     inkscape:cx="207.58006"
     inkscape:cy="137.83926"
     inkscape:window-x="160"
     inkscape:window-y="77"
     inkscape:window-maximized="0"
     inkscape:current-layer="svg66"
     inkscape:document-rotation="0"
     inkscape:snap-global="false" />
  <path
     id="rect861"
     style="fill:#ffffff;stroke:#68e1fd;stroke-width:3.06577;stroke-linecap:round;stroke-linejoin:round;stroke-opacity:1"
     d="M 165.62406,-3.957713 973.48387,-6.0798735 972.46384,208.25833 121.76098,207.54165 Z"
     sodipodi:nodetypes="ccccc" />
  <g
     id="g927"
     transform="matrix(0.57727206,0,0,0.60310822,-42.335175,5.7182219)">
    <path
       d="M 227.36,218.44 119.23,197.87 139.39,91.95 269.27,116.66 253.19,201.14 Z"
       fill="#68e1fd"
       id="path862" />
    <path
       d="m 227.36,219.44 h -0.18 L 119.05,198.85 a 1,1 0 0 1 -0.8,-1.17 L 138.4,91.76 a 1,1 0 0 1 1.17,-0.8 l 129.89,24.72 a 1,1 0 0 1 0.79,1.16 l -16.07,84.49 a 1,1 0 0 1 -0.43,0.65 l -25.83,17.29 a 1,1 0 0 1 -0.56,0.17 z m -107,-22.37 106.75,20.31 25.14,-16.83 15.81,-83.1 -127.88,-24.33 z"
       fill="#093f68"
       id="path864" />
    <path
       d="m 262.59,211.53 -109.85,6.91 -6.78,-107.61 131.96,-8.31 5.4,85.83 z"
       fill="#ffffff"
       id="path866" />
    <path
       d="m 152.74,219.44 a 1,1 0 0 1 -1,-0.93 L 145,110.9 a 1,1 0 0 1 0.24,-0.73 1,1 0 0 1 0.69,-0.34 l 132,-8.31 a 1.06,1.06 0 0 1 0.73,0.25 1,1 0 0 1 0.33,0.69 l 5.41,85.83 a 1.06,1.06 0 0 1 -0.25,0.73 l -20.73,23.17 a 1,1 0 0 1 -0.68,0.33 L 152.8,219.44 Z M 147,111.77 153.65,217.38 262.09,210.55 282.3,188 277,103.58 Z"
       fill="#093f68"
       id="path868" />
    <path
       d="m 262.59,211.53 -0.95,-21.81 21.68,-1.37 z"
       fill="#68e1fd"
       id="path870" />
    <path
       d="m 262.59,212.53 a 1,1 0 0 1 -0.33,-0.06 1,1 0 0 1 -0.67,-0.9 l -0.95,-21.81 a 1,1 0 0 1 0.93,-1 l 21.69,-1.36 a 1,1 0 0 1 1,0.56 1,1 0 0 1 -0.15,1.1 l -20.73,23.17 a 1,1 0 0 1 -0.79,0.3 z m 0.09,-21.87 0.8,18.37 17.52,-19.52 z"
       fill="#093f68"
       id="path872" />
    <g
       fill="#dfeaef"
       id="g884">
      <path
         d="m 166.51,131.76 a 1.0004499,1.0004499 0 0 1 -0.06,-2 l 90.63,-5.71 a 1.0021103,1.0021103 0 1 1 0.13,2 l -90.64,5.71 z"
         id="path874" />
      <path
         d="m 167.6,149.05 a 1.0004499,1.0004499 0 0 1 -0.06,-2 l 90.63,-5.71 a 1.0021103,1.0021103 0 0 1 0.13,2 l -90.64,5.7 z"
         id="path876" />
      <path
         d="m 168.69,166.35 a 1.0004499,1.0004499 0 0 1 -0.06,-2 l 90.63,-5.71 a 1.0021103,1.0021103 0 0 1 0.13,2 l -90.64,5.71 z"
         id="path878" />
      <path
         d="m 169.78,183.64 a 1.0004499,1.0004499 0 0 1 -0.06,-2 l 90.63,-5.71 a 1.0021103,1.0021103 0 1 1 0.13,2 l -90.64,5.71 z"
         id="path880" />
      <path
         d="m 170.87,200.94 a 1.0006123,1.0006123 0 0 1 -0.07,-2 l 63.42,-4 a 1.0017984,1.0017984 0 1 1 0.12,2 l -63.41,4 z"
         id="path882" />
    </g>
    <path
       d="m 210.71,120.27 a 3,3 0 0 1 -1.75,-5.43 l 11,-7.9 a 3,3 0 1 1 3.5,4.87 l -11,7.9 a 3,3 0 0 1 -1.75,0.56 z"
       fill="#093f68"
       id="path886" />
    <ellipse
       cx="227.96001"
       cy="104.33"
       fill="#ffbc0e"
       rx="11.69"
       ry="17.42"
       transform="rotate(-39.94,227.97978,104.33852)"
       id="ellipse888" />
    <path
       d="m 233.35,120.66 a 14.42,14.42 0 0 1 -4.09,-0.62 23.3,23.3 0 0 1 -11,-7.56 c -6.52,-7.79 -7.46,-17.78 -2.09,-22.27 2.65,-2.23 6.4,-2.79 10.53,-1.59 a 23.3,23.3 0 0 1 11,7.56 23.35,23.35 0 0 1 5.51,12.18 c 0.45,4.28 -0.76,7.87 -3.42,10.09 a 9.76,9.76 0 0 1 -6.44,2.21 z M 222.59,90 a 7.9,7.9 0 0 0 -5.17,1.74 c -4.52,3.78 -3.47,12.51 2.35,19.45 a 21.28,21.28 0 0 0 10,6.93 c 3.48,1 6.57,0.59 8.7,-1.2 2.13,-1.79 3.09,-4.75 2.71,-8.35 a 21.29,21.29 0 0 0 -5.06,-11.1 21.26,21.26 0 0 0 -10,-6.93 12.57,12.57 0 0 0 -3.53,-0.54 z"
       fill="#093f68"
       id="path890" />
    <path
       d="m 240.91,85.73 -15.36,9.06 c 0,0 -1.21,3.89 2.45,9.06 3.84,5.42 8.68,4.41 8.68,4.41 L 250,94.62 Z"
       fill="#ffbc0e"
       id="path892" />
    <path
       d="m 235.71,109.33 c -1.84,0 -5.49,-0.61 -8.52,-4.91 -3.9,-5.5 -2.65,-9.74 -2.6,-9.92 a 1.06,1.06 0 0 1 0.45,-0.57 l 15.36,-9.06 a 1,1 0 0 1 1.21,0.15 l 9.06,8.89 a 1,1 0 0 1 0,1.41 L 237.4,109 a 1,1 0 0 1 -0.51,0.28 5.6,5.6 0 0 1 -1.18,0.05 z m -9.28,-13.89 c -0.16,1 -0.34,4 2.39,7.83 2.92,4.12 6.38,4.14 7.38,4 L 248.56,94.6 240.76,87 Z"
       fill="#093f68"
       id="path894" />
    <ellipse
       cx="248.48"
       cy="87.199997"
       fill="#ffbc0e"
       rx="7.25"
       ry="11.97"
       transform="rotate(-38.57,248.47592,87.198635)"
       id="ellipse896" />
    <path
       d="m 252.72,98.6 c -3.41,0 -7.5,-2.27 -10.68,-6.26 -4.54,-5.68 -5.26,-12.4 -1.64,-15.28 1.8,-1.44 4.34,-1.65 7.16,-0.61 a 17.54,17.54 0 0 1 7.37,5.6 c 4.54,5.69 5.26,12.4 1.64,15.29 a 6.1,6.1 0 0 1 -3.85,1.26 z m -8.49,-20.8 a 4.06,4.06 0 0 0 -2.58,0.82 c -2.65,2.11 -1.76,7.83 1.95,12.47 3.71,4.64 9.07,6.79 11.72,4.68 2.65,-2.11 1.76,-7.82 -1.95,-12.47 a 15.62,15.62 0 0 0 -6.5,-5 8,8 0 0 0 -2.64,-0.5 z"
       fill="#093f68"
       id="path898" />
  </g>
</svg>
