<?xml version="1.0" encoding="UTF-8" standalone="no"?>
<svg
   xmlns:dc="http://purl.org/dc/elements/1.1/"
   xmlns:cc="http://creativecommons.org/ns#"
   xmlns:rdf="http://www.w3.org/1999/02/22-rdf-syntax-ns#"
   xmlns:svg="http://www.w3.org/2000/svg"
   xmlns="http://www.w3.org/2000/svg"
   xmlns:sodipodi="http://sodipodi.sourceforge.net/DTD/sodipodi-0.dtd"
   xmlns:inkscape="http://www.inkscape.org/namespaces/inkscape"
   viewBox="0 0 960 200"
   version="1.1"
   id="svg66"
   sodipodi:docname="titletarget.svg"
   width="960"
   height="200"
   inkscape:version="1.0.1 (3bc2e813f5, 2020-09-07)"
   inkscape:export-filename="D:\wamp64\www\chamilo-1.11.16\plugin\adv_oel_tools_teachdoc\engine\medias\title\titletarget.png"
   inkscape:export-xdpi="31.200001"
   inkscape:export-ydpi="31.200001">
  <metadata
     id="metadata72">
    <rdf:RDF>
      <cc:Work
         rdf:about="">
        <dc:format>image/svg+xml</dc:format>
        <dc:type
           rdf:resource="http://purl.org/dc/dcmitype/StillImage" />
        <dc:title />
      </cc:Work>
    </rdf:RDF>
  </metadata>
  <defs
     id="defs70" />
  <sodipodi:namedview
     pagecolor="#ffffff"
     bordercolor="#666666"
     borderopacity="1"
     objecttolerance="10"
     gridtolerance="10"
     guidetolerance="10"
     inkscape:pageopacity="0"
     inkscape:pageshadow="2"
     inkscape:window-width="1920"
     inkscape:window-height="1017"
     id="namedview68"
     showgrid="false"
     inkscape:zoom="1.9023909"
     inkscape:cx="149.17016"
     inkscape:cy="209.96731"
     inkscape:window-x="-8"
     inkscape:window-y="-8"
     inkscape:window-maximized="1"
     inkscape:current-layer="svg66"
     inkscape:document-rotation="0"
     inkscape:snap-global="false" />
  <path
     id="rect861-4"
     style="fill:#ffffff;stroke:none;stroke-width:3.066;stroke-linecap:round;stroke-linejoin:round;stroke-miterlimit:4;stroke-dasharray:none;stroke-opacity:1"
     d="m 117.78376,207.13807 -139.85981,2.12216 1.02003,-214.3382151 182.70286,0.71668 z"
     sodipodi:nodetypes="ccccc" />
  <path
     id="rect861"
     style="fill:#ffffff;stroke:none;stroke-width:3.06577;stroke-linecap:round;stroke-linejoin:round;stroke-opacity:1"
     d="M 169.62406,-3.957713 977.48387,-6.0798735 976.46384,208.25833 125.76098,207.54165 Z"
     sodipodi:nodetypes="ccccc" />
  <g
     id="g928"
     transform="matrix(0.48412739,0,0,0.48001898,-20.939944,28.064391)">
    <g
       fill="#093f68"
       id="g862">
      <path
         d="M 207.08,232.69 V 67.46 a 2.69,2.69 0 0 0 -2.45,-2.74 2.59,2.59 0 0 0 -2.73,2.59 v 165.38 a 2.59,2.59 0 0 0 2.59,2.59 2.59,2.59 0 0 0 2.59,-2.59 z"
         id="path850" />
      <path
         d="m 204.49,236.28 a 3.59,3.59 0 0 1 -3.59,-3.59 V 67.31 a 3.58,3.58 0 0 1 3.78,-3.59 3.67,3.67 0 0 1 3.4,3.74 v 165.23 a 3.59,3.59 0 0 1 -3.59,3.59 z m 0,-170.56 a 1.57,1.57 0 0 0 -1.59,1.59 v 165.38 a 1.59,1.59 0 0 0 3.18,0 V 67.46 a 1.69,1.69 0 0 0 -1.5,-1.74 z"
         id="path852" />
      <path
         d="m 156.53,233.47 c 9,-28.33 17.1,-53 25.14,-76.8 a 2.68,2.68 0 0 0 -1.33,-3.33 2.59,2.59 0 0 0 -3.53,1.53 c -8.07,23.86 -16.17,48.62 -25.22,77 a 2.59,2.59 0 0 0 2.47,3.38 2.59,2.59 0 0 0 2.47,-1.78 z"
         id="path854" />
      <path
         d="m 154.06,236.28 a 3.59,3.59 0 0 1 -3.42,-4.69 c 9.08,-28.54 17.1,-53 25.22,-77 a 3.61,3.61 0 0 1 4.9,-2.12 3.71,3.71 0 0 1 1.86,4.56 c -8.1,24 -16.09,48.36 -25.14,76.78 a 3.56,3.56 0 0 1 -3.42,2.47 z m 25.2,-82.17 a 1.58,1.58 0 0 0 -1.5,1.08 c -8.12,24 -16.13,48.48 -25.22,77 a 1.59,1.59 0 0 0 0.24,1.43 1.55,1.55 0 0 0 1.28,0.65 1.62,1.62 0 0 0 1.52,-1.11 c 9,-28.44 17,-52.85 25.15,-76.82 a 1.59,1.59 0 0 0 -1.47,-2.24 z"
         id="path856" />
      <path
         d="m 254.92,235.28 a 2.6,2.6 0 0 0 2.47,-3.38 c -9,-28.38 -17.13,-53.11 -25.19,-76.94 a 2.65,2.65 0 0 0 -2.82,-1.83 2.59,2.59 0 0 0 -2.12,3.4 c 8.05,23.83 16.15,48.56 25.18,76.94 a 2.61,2.61 0 0 0 2.48,1.81 z"
         id="path858" />
      <path
         d="m 254.92,236.28 a 3.58,3.58 0 0 1 -3.43,-2.51 c -9.07,-28.49 -17.07,-52.93 -25.18,-76.92 a 3.54,3.54 0 0 1 0.35,-3 3.58,3.58 0 0 1 2.59,-1.67 3.64,3.64 0 0 1 3.9,2.5 c 8.1,24 16.11,48.44 25.19,77 a 3.59,3.59 0 0 1 -3.42,4.68 z m -25.21,-82.17 h -0.19 a 1.6,1.6 0 0 0 -1.32,2.09 c 8.12,24 16.12,48.45 25.2,77 a 1.61,1.61 0 0 0 1.52,1.11 1.59,1.59 0 0 0 1.51,-2.08 c -9.07,-28.5 -17.07,-52.95 -25.18,-76.92 a 1.68,1.68 0 0 0 -1.54,-1.2 z"
         id="path860" />
    </g>
    <circle
       cx="204.49001"
       cy="144.42"
       fill="#68e1fd"
       r="69.160004"
       id="circle864" />
    <path
       d="m 204.49,214.59 a 70.17,70.17 0 1 1 70.16,-70.17 70.25,70.25 0 0 1 -70.16,70.17 z m 0,-138.33 a 68.17,68.17 0 1 0 68.16,68.16 68.24,68.24 0 0 0 -68.16,-68.16 z"
       fill="#093f68"
       id="path866-4" />
    <circle
       cx="204.49001"
       cy="144.42"
       fill="#ffffff"
       r="57.310001"
       id="circle868" />
    <path
       d="m 204.49,202.73 a 58.31,58.31 0 1 1 58.31,-58.31 58.37,58.37 0 0 1 -58.31,58.31 z m 0,-114.61 a 56.31,56.31 0 1 0 56.31,56.3 56.37,56.37 0 0 0 -56.31,-56.3 z"
       fill="#093f68"
       id="path870-1" />
    <circle
       cx="204.49001"
       cy="144.42"
       fill="#68e1fd"
       r="42.549999"
       id="circle872" />
    <path
       d="M 204.49,188 A 43.56,43.56 0 1 1 248,144.42 43.61,43.61 0 0 1 204.49,188 Z m 0,-85.11 A 41.56,41.56 0 1 0 246,144.42 41.6,41.6 0 0 0 204.49,102.87 Z"
       fill="#093f68"
       id="path874-1" />
    <circle
       cx="204.49001"
       cy="144.42"
       fill="#ffffff"
       r="29.1"
       id="circle876" />
    <path
       d="m 204.49,174.52 a 30.1,30.1 0 1 1 30.09,-30.1 30.13,30.13 0 0 1 -30.09,30.1 z m 0,-58.19 a 28.1,28.1 0 1 0 28.09,28.09 28.13,28.13 0 0 0 -28.09,-28.09 z"
       fill="#093f68"
       id="path878-7" />
    <circle
       cx="204.49001"
       cy="144.42"
       fill="#68e1fd"
       r="16.120001"
       id="circle880" />
    <path
       d="m 204.49,161.54 a 17.12,17.12 0 1 1 17.12,-17.12 17.14,17.14 0 0 1 -17.12,17.12 z m 0,-32.24 a 15.12,15.12 0 1 0 15.12,15.12 15.14,15.14 0 0 0 -15.12,-15.12 z"
       fill="#093f68"
       id="path882-0" />
    <path
       d="m 142.1,95.12 -15.75,7.08 22.89,17.64 16.48,-6.44 z"
       fill="#f56132"
       id="path884" />
    <path
       d="m 149.24,120.84 a 1.07,1.07 0 0 1 -0.62,-0.2 L 125.74,103 a 1,1 0 0 1 0.2,-1.7 l 15.75,-7.08 a 1,1 0 0 1 1,0.12 l 23.62,18.28 a 1,1 0 0 1 -0.25,1.73 l -16.48,6.44 a 1.13,1.13 0 0 1 -0.34,0.05 z m -21,-18.42 21.12,16.29 14.31,-5.59 L 142,96.28 Z"
       fill="#093f68"
       id="path886-4" />
    <path
       d="m 141.76,94.13 5.51,-14.43 20.3,19.4 -1.85,14.3 z"
       fill="#f56132"
       id="path888" />
    <path
       d="m 165.72,114.4 a 1,1 0 0 1 -0.63,-0.22 l -24,-19.27 a 1,1 0 0 1 -0.31,-1.14 l 5.51,-14.42 A 1,1 0 0 1 147.01,78.73 1,1 0 0 1 148,79 l 20.31,19.4 a 1,1 0 0 1 0.3,0.85 l -1.86,14.3 a 1,1 0 0 1 -0.62,0.8 1,1 0 0 1 -0.41,0.05 z M 143,93.8 l 22,17.71 1.56,-12 -18.86,-18 z"
       fill="#093f68"
       id="path890-3" />
    <path
       d="m 204.75,147 a 2.33,2.33 0 0 1 -1.44,-0.51 L 132.1,89.9 a 2.33,2.33 0 1 1 2.9,-3.64 l 71.2,56.61 a 2.33,2.33 0 0 1 -1.45,4.15 z"
       fill="#ffbc0e"
       id="path892-6" />
    <path
       d="m 204.75,148 a 3.3,3.3 0 0 1 -2.06,-0.73 L 131.48,90.68 A 3.33,3.33 0 0 1 131,86 a 3.34,3.34 0 0 1 4.67,-0.54 l 71.21,56.62 a 3.33,3.33 0 0 1 -2.08,5.93 z m -71.2,-61.27 a 1.33,1.33 0 0 0 -0.82,2.37 l 71.2,56.61 a 1.36,1.36 0 0 0 1.86,-0.21 1.33,1.33 0 0 0 -0.21,-1.87 L 134.38,87 a 1.37,1.37 0 0 0 -0.83,-0.25 z"
       fill="#093f68"
       id="path894-1" />
  </g>
</svg>
