<?xml version="1.0" encoding="UTF-8" standalone="no"?>
<svg
   xmlns:dc="http://purl.org/dc/elements/1.1/"
   xmlns:cc="http://creativecommons.org/ns#"
   xmlns:rdf="http://www.w3.org/1999/02/22-rdf-syntax-ns#"
   xmlns:svg="http://www.w3.org/2000/svg"
   xmlns="http://www.w3.org/2000/svg"
   xmlns:sodipodi="http://sodipodi.sourceforge.net/DTD/sodipodi-0.dtd"
   xmlns:inkscape="http://www.inkscape.org/namespaces/inkscape"
   viewBox="0 0 960 200"
   version="1.1"
   id="svg66"
   sodipodi:docname="titleiconknowledge.svg"
   width="960"
   height="200"
   inkscape:version="1.0.1 (3bc2e813f5, 2020-09-07)">
  <metadata
     id="metadata72">
    <rdf:RDF>
      <cc:Work
         rdf:about="">
        <dc:format>image/svg+xml</dc:format>
        <dc:type
           rdf:resource="http://purl.org/dc/dcmitype/StillImage" />
        <dc:title></dc:title>
      </cc:Work>
    </rdf:RDF>
  </metadata>
  <defs
     id="defs70" />
  <sodipodi:namedview
     pagecolor="#ffffff"
     bordercolor="#666666"
     borderopacity="1"
     objecttolerance="10"
     gridtolerance="10"
     guidetolerance="10"
     inkscape:pageopacity="0"
     inkscape:pageshadow="2"
     inkscape:window-width="1920"
     inkscape:window-height="1017"
     id="namedview68"
     showgrid="false"
     inkscape:zoom="0.982289"
     inkscape:cx="475.15847"
     inkscape:cy="315.52241"
     inkscape:window-x="-8"
     inkscape:window-y="-8"
     inkscape:window-maximized="1"
     inkscape:current-layer="svg66"
     inkscape:document-rotation="0" />
  <path
     d="m 107.6271,70.878559 -2.03688,7.41864 c -21.519655,2.412224 -34.763925,17.198182 -34.763925,17.198182 0,0 -14.089162,-15.723785 -36.800801,-17.384814 v -7.232008 l -3.653593,9.061006 V 124.4934 c 0,0 24.469931,-4.15257 40.454394,9.96617 15.984464,-14.11874 40.454395,-9.96617 40.454395,-9.96617 V 79.939565 Z"
     fill="#68e1fd"
     id="path2"
     style="fill:#aa87de;stroke-width:0.461614" />
  <path
     d="m 70.826295,134.92615 a 0.45669896,0.46658115 0 0 1 -0.296854,-0.11664 c -15.664774,-13.81547 -39.83785,-9.89619 -40.084468,-9.8542 A 0.45669896,0.46658115 0 0 1 30.075047,124.848 0.45669896,0.46658115 0 0 1 29.915203,124.4934 V 79.939565 a 0.45669896,0.46658115 0 0 1 0.03197,-0.177301 l 3.653592,-9.061006 a 0.45669896,0.46658115 0 0 1 0.511503,-0.279949 0.45669896,0.46658115 0 0 1 0.369926,0.466581 v 6.798088 C 54.960574,79.342341 68.5428,92.504595 70.826295,94.8375 73.027584,92.565251 85.83799,80.163524 105.234,77.877276 l 1.95467,-7.115363 a 0.45669896,0.46658115 0 0 1 0.41559,-0.340604 0.45669896,0.46658115 0 0 1 0.4567,0.28928 l 3.6536,9.061007 a 0.45669896,0.46658115 0 0 1 0.0366,0.1773 v 44.553834 a 0.45669896,0.46658115 0 0 1 -0.15985,0.3546 0.45669896,0.46658115 0 0 1 -0.36993,0.10732 c -0.24662,-0.042 -24.428828,-3.95195 -40.084469,9.85419 a 0.45669896,0.46658115 0 0 1 -0.310555,0.10731 z M 38.624452,123.48092 c 8.567672,0 22.058559,1.61437 32.201843,10.36277 14.669172,-12.64902 36.339535,-10.37677 39.997705,-9.88686 V 80.032881 l -3.1147,-7.726584 -1.68064,6.116879 a 0.45669896,0.46658115 0 0 1 -0.3882,0.335938 C 84.554666,81.124681 71.296696,95.668016 71.164253,95.812656 a 0.45669896,0.46658115 0 0 1 -0.675915,0 C 70.351328,95.658684 56.253032,80.205516 33.993525,78.577148 A 0.45669896,0.46658115 0 0 1 33.568794,78.110567 V 73.234794 L 30.8286,80.032881 v 43.923949 a 61.074352,62.395898 0 0 1 7.795852,-0.47591 z"
     fill="#093f68"
     id="path4"
     style="stroke-width:0.461614" />
  <path
     d="M 70.826295,129.68645 V 88.347358 c 0,0 -14.280976,-18.747232 -36.800801,-17.468799 v 48.151171 c 0,0 22.241239,-4.44651 36.800801,10.65672 z"
     fill="#ffffff"
     id="path6"
     style="stroke-width:0.461614" />
  <path
     d="M 70.826295,130.15303 A 0.45669896,0.46658115 0 0 1 70.50204,130.01305 C 56.289568,115.26909 34.331481,119.44033 34.112266,119.48698 A 0.45669896,0.46658115 0 0 1 33.568794,119.0204 V 70.878559 a 0.45669896,0.46658115 0 0 1 0.429297,-0.466582 c 22.506126,-1.29243 37.042853,17.459468 37.188996,17.6461 a 0.45669896,0.46658115 0 0 1 0.09591,0.289281 v 41.339092 a 0.45669896,0.46658115 0 0 1 -0.456699,0.46658 z m -29.292671,-12.1731 c 7.667976,0 19.638056,1.66569 28.835973,10.59139 V 88.510661 C 69.090839,86.914954 55.298531,70.365319 34.482192,71.321811 v 47.157359 a 47.871184,48.907037 0 0 1 7.051432,-0.49924 z"
     fill="#093f68"
     id="path8"
     style="stroke-width:0.461614" />
  <path
     d="M 70.826295,129.68645 V 88.347358 c 0,0 14.280976,-18.747232 36.800805,-17.468799 v 48.151171 c 0,0 -22.241242,-4.44651 -36.800805,10.65672 z"
     fill="#ffffff"
     id="path10"
     style="stroke-width:0.461614" />
  <path
     d="m 70.826295,130.15303 a 0.45669896,0.46658115 0 0 1 -0.456698,-0.46658 V 88.347358 a 0.45669896,0.46658115 0 0 1 0.09591,-0.289281 c 0.146144,-0.186632 14.673737,-18.933864 37.189003,-17.6461 a 0.45669896,0.46658115 0 0 1 0.4293,0.466582 v 48.151171 a 0.45669896,0.46658115 0 0 1 -0.16442,0.35927 0.45669896,0.46658115 0 0 1 -0.37906,0.098 c -0.21922,-0.0467 -22.177303,-4.19923 -36.389774,10.52607 a 0.45669896,0.46658115 0 0 1 -0.324257,0.13998 z M 71.282994,88.510661 V 128.57132 C 84.559233,115.66102 103.70863,117.93793 107.1704,118.47917 V 71.321811 C 86.35406,70.369986 72.561752,86.905622 71.282994,88.510661 Z"
     fill="#093f68"
     id="path12"
     style="stroke-width:0.461614" />
  <g
     fill="#dfeaef"
     id="g30"
     transform="matrix(0.45669896,0,0,0.46658115,-20.513495,23.450584)">
    <path
       d="m 189,147 a 1,1 0 0 1 -0.68,-0.27 c -27,-25.25 -54.37,-23.5 -54.64,-23.48 a 1.0028086,1.0028086 0 1 1 -0.15,-2 c 0.28,0 28.45,-1.87 56.16,24 a 1,1 0 0 1 0.05,1.41 A 1,1 0 0 1 189,147 Z"
       id="path14" />
    <path
       d="m 189,164.64 a 1,1 0 0 1 -0.68,-0.27 c -27,-25.25 -54.37,-23.5 -54.64,-23.48 a 1.0028086,1.0028086 0 0 1 -0.15,-2 c 0.28,0 28.46,-1.87 56.16,24 a 1,1 0 0 1 0.05,1.41 1,1 0 0 1 -0.74,0.34 z"
       id="path16" />
    <path
       d="m 189,182.28 a 1,1 0 0 1 -0.68,-0.27 c -27,-25.24 -54.37,-23.5 -54.64,-23.48 a 1.0028086,1.0028086 0 0 1 -0.15,-2 c 0.28,0 28.46,-1.87 56.16,24 a 1,1 0 0 1 0.05,1.41 1,1 0 0 1 -0.74,0.34 z"
       id="path18" />
    <path
       d="m 189,199.92 a 1,1 0 0 1 -0.68,-0.27 c -27,-25.24 -54.37,-23.5 -54.64,-23.48 a 1.0028086,1.0028086 0 0 1 -0.15,-2 c 0.28,0 28.46,-1.87 56.16,24 a 1,1 0 0 1 0.05,1.41 1,1 0 0 1 -0.74,0.34 z"
       id="path20" />
    <path
       d="m 211,147 a 1,1 0 0 1 -0.73,-0.32 1,1 0 0 1 0,-1.41 c 14.46,-13.51 28.93,-19.32 38.52,-21.82 10.43,-2.71 17.35,-2.22 17.64,-2.19 a 1,1 0 0 1 0.92,1.07 1,1 0 0 1 -1.07,0.92 c -0.27,0 -27.61,-1.77 -54.64,23.48 A 1,1 0 0 1 211,147 Z"
       id="path22" />
    <path
       d="m 211,164.64 a 1,1 0 0 1 -0.73,-0.32 1,1 0 0 1 0,-1.41 c 14.46,-13.51 28.93,-19.32 38.52,-21.81 10.43,-2.72 17.35,-2.22 17.64,-2.2 a 1,1 0 0 1 0.92,1.07 1,1 0 0 1 -1.07,0.92 c -0.27,0 -27.61,-1.77 -54.64,23.48 a 1,1 0 0 1 -0.64,0.27 z"
       id="path24" />
    <path
       d="m 211,182.28 a 1,1 0 0 1 -0.73,-0.32 1,1 0 0 1 0,-1.41 c 14.46,-13.51 28.93,-19.32 38.52,-21.81 10.43,-2.72 17.35,-2.22 17.64,-2.2 a 1,1 0 0 1 0.92,1.07 1,1 0 0 1 -1.07,0.92 c -0.27,0 -27.62,-1.76 -54.64,23.48 a 1,1 0 0 1 -0.64,0.27 z"
       id="path26" />
    <path
       d="m 211,199.92 a 1,1 0 0 1 -0.73,-0.32 1,1 0 0 1 0,-1.41 c 14.46,-13.51 28.93,-19.32 38.52,-21.81 10.43,-2.72 17.35,-2.22 17.64,-2.2 a 1,1 0 0 1 0.92,1.07 1,1 0 0 1 -1.07,0.92 c -0.27,0 -27.62,-1.76 -54.64,23.48 a 1,1 0 0 1 -0.64,0.27 z"
       id="path28" />
  </g>
  <path
     d="m 70.826295,134.92615 a 0.45669896,0.46658115 0 0 1 -0.456698,-0.46658 v -4.77312 a 0.45669908,0.46658129 0 0 1 0.913397,0 v 4.77312 a 0.45669896,0.46658115 0 0 1 -0.456699,0.46658 z"
     fill="#093f68"
     id="path32"
     style="stroke-width:0.461614" />
  <path
     d="m 111.28069,124.95998 a 0.45669896,0.46658115 0 0 1 -0.37906,-0.2053 l -3.65359,-5.46366 a 0.45669896,0.46658115 0 1 1 0.75355,-0.52724 l 3.6536,5.46833 a 0.45669896,0.46658115 0 0 1 -0.12332,0.64855 0.45669896,0.46658115 0 0 1 -0.25118,0.0793 z"
     fill="#093f68"
     id="path34"
     style="stroke-width:0.461614" />
  <path
     d="m 30.371901,124.95998 a 0.45669896,0.46658115 0 0 1 -0.255751,-0.0793 0.45669896,0.46658115 0 0 1 -0.123309,-0.64855 l 3.653592,-5.46833 a 0.45669896,0.46658115 0 1 1 0.753554,0.52724 l -3.653592,5.46366 a 0.45669896,0.46658115 0 0 1 -0.374494,0.2053 z"
     fill="#093f68"
     id="path36"
     style="stroke-width:0.461614" />
  <ellipse
     cx="71.114014"
     cy="106.20808"
     fill="#093f68"
     rx="5.1652656"
     ry="3.6999888"
     id="ellipse38"
     style="stroke-width:0.461614" />
  <path
     d="m 71.114016,110.37932 c -3.096419,0 -5.617397,-1.86633 -5.617397,-4.16657 0,-2.30024 2.520978,-4.17124 5.617397,-4.17124 3.096419,0 5.621965,1.86633 5.621965,4.17124 0,2.30491 -2.520979,4.16657 -5.621965,4.16657 z m 0,-7.40464 c -2.59405,0 -4.704,1.45106 -4.704,3.23807 0,1.78701 2.10995,3.23341 4.704,3.23341 2.59405,0 4.708566,-1.45107 4.708566,-3.23341 0,-1.78234 -2.10995,-3.23807 -4.708566,-3.23807 z"
     fill="#093f68"
     id="path40"
     style="stroke-width:0.461614" />
  <path
     d="m 86.317524,76.020283 a 15.267446,15.597809 0 1 0 -26.65295,10.390763 17.24952,17.62277 0 0 1 4.425412,10.171469 h 13.91105 a 16.345255,16.69894 0 0 1 4.210765,-9.933512 15.185241,15.513823 0 0 0 4.105723,-10.62872 z"
     fill="#ffffff"
     id="path42"
     style="stroke-width:0.461614" />
  <path
     d="M 78.005604,97.063093 H 64.094553 a 0.45669896,0.46658115 0 0 1 -0.4567,-0.424588 16.706047,17.067539 0 0 0 -4.311237,-9.91485 15.724145,16.064389 0 1 1 23.227708,0.247288 15.911391,16.255687 0 0 0 -4.11029,9.653564 0.45669896,0.46658115 0 0 1 -0.43843,0.438586 z M 64.505581,96.129931 h 13.088993 a 16.806521,17.170187 0 0 1 4.288403,-9.798204 14.810748,15.131227 0 1 0 -21.87588,-0.233291 17.660548,18.042693 0 0 1 4.498484,10.031495 z"
     fill="#093f68"
     id="path44"
     style="stroke-width:0.461614" />
  <path
     d="m 69.602342,97.063093 a 0.45669896,0.46658115 0 0 1 -0.456698,-0.466581 c 0,-0.09798 0,-7.297329 -0.913398,-12.27575 a 11.951812,12.210429 0 0 1 -4.32494,-1.828999 c -1.370097,-0.965822 -2.128217,-2.094949 -2.100815,-3.088766 0.03654,-1.138459 0.57544,-1.973639 1.452303,-2.234924 1.370097,-0.405925 3.114687,0.643882 4.471082,2.673509 a 10.718725,10.95066 0 0 1 1.269624,3.67666 12.906313,13.185584 0 0 0 4.206197,-0.03732 c 0.936232,-3.67666 2.26066,-6.471481 3.562252,-6.737432 a 2.8863374,2.9487929 0 0 1 3.196892,2.048291 c 0.196381,0.681208 0.525204,3.01878 -3.589652,4.726468 a 14.865551,15.187216 0 0 1 -2.383969,0.760527 c -0.858595,3.59734 -1.406634,8.071854 -1.073244,11.84183 a 0.45854485,0.468467 0 1 1 -0.913397,0.08398 38.755473,39.594077 0 0 1 0.981902,-11.743849 13.856247,14.156072 0 0 1 -3.786033,0.02332 c 0.858593,5.020414 0.872294,11.720519 0.872294,12.131111 a 0.45669896,0.46658115 0 0 1 -0.4704,0.447917 z M 63.87077,78.012585 a 1.2330871,1.2597691 0 0 0 -0.351657,0.05132 c -0.662214,0.195965 -0.780956,0.933163 -0.794656,1.367083 0,0.653215 0.634811,1.535052 1.708053,2.29558 a 10.773528,11.006649 0 0 0 3.603355,1.595708 8.818857,9.009682 0 0 0 -1.054975,-2.953459 c -1.109778,-1.665695 -2.297196,-2.356235 -3.11012,-2.356235 z m 13.367579,-0.382597 a 1.4523026,1.4837281 0 0 0 -0.283154,0.02799 c -0.822058,0.167971 -1.881599,2.444887 -2.740193,5.598975 a 14.308378,14.617988 0 0 0 1.785693,-0.60189 c 2.283494,-0.933162 3.434376,-2.295579 3.055316,-3.592675 a 2.0231764,2.0669545 0 0 0 -1.83593,-1.432401 z"
     fill="#70cc40"
     id="path46"
     style="fill:#ffcc00;stroke-width:0.461614" />
  <rect
     fill="#ffbc0e"
     height="10.834014"
     rx="1.1280464"
     width="15.829185"
     x="63.199429"
     y="96.16259"
     id="rect48"
     style="stroke-width:0.461614" />
  <path
     d="M 77.90513,107.46319 H 64.32747 a 1.5893124,1.6237024 0 0 1 -1.584746,-1.61904 V 97.315047 A 1.5893124,1.6237024 0 0 1 64.32747,95.69601 h 13.57766 a 1.5893124,1.6237024 0 0 1 1.584745,1.619037 v 8.529103 a 1.5893124,1.6237024 0 0 1 -1.584745,1.61904 z M 64.32747,96.629173 a 0.67134747,0.6858743 0 0 0 -0.671348,0.685874 v 8.529103 a 0.67134747,0.6858743 0 0 0 0.671348,0.68587 h 13.57766 a 0.67134747,0.6858743 0 0 0 0.671347,-0.68587 V 97.315047 A 0.67134747,0.6858743 0 0 0 77.90513,96.629173 Z"
     fill="#093f68"
     id="path50"
     style="stroke-width:0.461614" />
  <path
     d="M 78.809393,100.09587 H 63.423205 a 0.45669979,0.466582 0 0 1 0,-0.933161 h 15.386188 a 0.45669979,0.466582 0 0 1 0,0.933161 z"
     fill="#093f68"
     id="path52"
     style="stroke-width:0.461614" />
  <path
     d="M 78.809393,103.99649 H 63.423205 a 0.45669896,0.46658115 0 1 1 0,-0.93316 h 15.386188 a 0.45669896,0.46658115 0 1 1 0,0.93316 z"
     fill="#093f68"
     id="path54"
     style="stroke-width:0.461614" />
  <path
     d="m 53.672683,70.108699 a 0.42016303,0.42925466 0 0 1 -0.164413,-0.03265 l -5.777241,-2.300245 a 0.45757179,0.46747289 0 0 1 0.328824,-0.872507 l 5.777242,2.272251 a 0.45669896,0.46658115 0 0 1 -0.164412,0.900501 z"
     fill="#dfeaef"
     id="path56"
     style="fill:#ffcc00;stroke-width:0.461614" />
  <path
     d="M 60.089303,59.99322 A 0.45669896,0.46658115 0 0 1 59.742212,59.829917 L 55.988147,55.32741 a 0.45669896,0.46658115 0 1 1 0.68048,-0.615888 l 3.754066,4.507174 a 0.45669896,0.46658115 0 0 1 -0.347091,0.765193 z"
     fill="#dfeaef"
     id="path58"
     style="fill:#ffcc00;stroke-width:0.461614" />
  <path
     d="m 87.979908,70.108699 a 0.46403851,0.47407954 0 0 1 -0.164411,-0.933161 l 5.777241,-2.27225 a 0.45669896,0.46658115 0 0 1 0.58914,0.270616 0.45669896,0.46658115 0 0 1 -0.26032,0.60189 l -5.777238,2.286247 a 0.42016303,0.42925466 0 0 1 -0.164412,0.04667 z"
     fill="#dfeaef"
     id="path60"
     style="fill:#ffcc00;stroke-width:0.461614" />
  <path
     d="m 81.563288,59.99322 a 0.45669896,0.46658115 0 0 1 -0.347092,-0.765193 l 3.767767,-4.516505 a 0.45672188,0.46660458 0 0 1 0.694182,0.606555 l -3.767766,4.525838 a 0.45669896,0.46658115 0 0 1 -0.347091,0.149305 z"
     fill="#dfeaef"
     id="path62"
     style="fill:#ffcc00;stroke-width:0.461614" />
  <path
     d="m 70.826295,57.804955 a 0.45669896,0.46658115 0 0 1 -0.456698,-0.466581 v -4.922431 a 0.45669908,0.46658129 0 1 1 0.913397,0 v 4.922431 a 0.45669896,0.46658115 0 0 1 -0.456699,0.466581 z"
     fill="#dfeaef"
     id="path64"
     style="fill:#ffcc00;stroke-width:0.461614" />
  <path
     id="rect861"
     style="fill:#ffffff;stroke:#aa87de;stroke-width:3.06577;stroke-linecap:round;stroke-linejoin:round"
     d="M 165.62406,-3.957713 973.48387,-6.0798735 972.46384,208.25833 121.76098,207.54165 Z"
     sodipodi:nodetypes="ccccc" />
</svg>
