<svg width="330" height="109" viewBox="0 0 330 109" fill="none" xmlns="http://www.w3.org/2000/svg">
<path opacity="0.2" fill-rule="evenodd" clip-rule="evenodd" d="M200.312 35.0118L319.469 -1.55981C329.809 -4.79061 330.913 -12.1101 321.937 -17.9211L217.12 -89.8431C206.428 -97.8525 196.26 -100.837 180.603 -95.0369L61.6195 -58.631C51.2792 -55.4002 50.1752 -48.0807 59.1516 -42.2697L159.229 29.7745C169.982 38.1849 180.758 40.3099 200.312 35.0118Z" fill="#D9F4FF"/>
<path opacity="0.25" fill-rule="evenodd" clip-rule="evenodd" d="M61.6559 71.8593L-61.7485 49.1471C-72.29 47.101 -74.1577 40.0036 -65.9233 33.2823L29.7952 -49.2144C37.9197 -56.3533 52.9337 -60.4496 63.0694 -58.2928L186.474 -35.5806C197.015 -33.5345 198.883 -26.4371 190.649 -19.7158L94.9301 62.7809C85.4843 71.1519 71.6817 73.5986 61.6559 71.8593Z" fill="#D9F4FF"/>
<path opacity="0.3" fill-rule="evenodd" clip-rule="evenodd" d="M90.9531 17.0096L101.347 -110.242C102.134 -121.139 95.8849 -124.813 87.3776 -118.454L-15.6547 -45.6628C-24.5296 -39.5197 -32.3014 -25.813 -32.8787 -15.2859L-43.2726 111.965C-44.06 122.863 -37.8106 126.537 -29.3033 120.178L73.7291 47.3864C84.1147 40.2626 90.0081 27.3206 90.9531 17.0096Z" fill="#D9F4FF"/>
</svg>