<?xml version="1.0" encoding="UTF-8" standalone="no"?>
<!-- Created with Inkscape (http://www.inkscape.org/) -->

<svg
   xmlns:dc="http://purl.org/dc/elements/1.1/"
   xmlns:cc="http://creativecommons.org/ns#"
   xmlns:rdf="http://www.w3.org/1999/02/22-rdf-syntax-ns#"
   xmlns:svg="http://www.w3.org/2000/svg"
   xmlns="http://www.w3.org/2000/svg"
   xmlns:xlink="http://www.w3.org/1999/xlink"
   xmlns:sodipodi="http://sodipodi.sourceforge.net/DTD/sodipodi-0.dtd"
   xmlns:inkscape="http://www.inkscape.org/namespaces/inkscape"
   width="240"
   height="340"
   viewBox="0 0 240 340.00001"
   id="svg4971"
   version="1.1"
   inkscape:version="0.91 r"
   sodipodi:docname="doubts.svg">
  <defs
     id="defs4973">
    <linearGradient
       inkscape:collect="always"
       xlink:href="#linearGradient14690"
       id="linearGradient15569"
       gradientUnits="userSpaceOnUse"
       gradientTransform="translate(-29.921573,255.07843)"
       x1="393.30127"
       y1="560.97107"
       x2="444.34442"
       y2="560.97107" />
    <linearGradient
       inkscape:collect="always"
       id="linearGradient14690">
      <stop
         style="stop-color:#ffd6a5;stop-opacity:1"
         offset="0"
         id="stop14692" />
      <stop
         style="stop-color:#f7b57e;stop-opacity:1"
         offset="1"
         id="stop14694" />
    </linearGradient>
    <linearGradient
       inkscape:collect="always"
       xlink:href="#linearGradient15529"
       id="linearGradient15571"
       gradientUnits="userSpaceOnUse"
       gradientTransform="translate(34.648232,62.57895)"
       x1="103.35806"
       y1="561.49011"
       x2="93.853813"
       y2="576.33936" />
    <linearGradient
       inkscape:collect="always"
       id="linearGradient15529">
      <stop
         style="stop-color:#fed9a9;stop-opacity:1"
         offset="0"
         id="stop15531" />
      <stop
         style="stop-color:#f9be89;stop-opacity:1"
         offset="1"
         id="stop15533" />
    </linearGradient>
    <linearGradient
       inkscape:collect="always"
       xlink:href="#linearGradient9229"
       id="linearGradient15440"
       gradientUnits="userSpaceOnUse"
       gradientTransform="matrix(0.85485396,0.1304697,-0.1304697,0.85485396,293.72544,321.43001)"
       x1="173.94234"
       y1="546.22064"
       x2="173.327"
       y2="512.27954" />
    <linearGradient
       inkscape:collect="always"
       id="linearGradient9229">
      <stop
         style="stop-color:#f7b37d;stop-opacity:1"
         offset="0"
         id="stop9231" />
      <stop
         style="stop-color:#fed9a9;stop-opacity:1"
         offset="1"
         id="stop9233" />
    </linearGradient>
    <linearGradient
       inkscape:collect="always"
       xlink:href="#linearGradient14690"
       id="linearGradient9141"
       gradientUnits="userSpaceOnUse"
       gradientTransform="translate(-29.921573,255.07843)"
       x1="393.30127"
       y1="560.97107"
       x2="444.34442"
       y2="560.97107" />
    <linearGradient
       inkscape:collect="always"
       xlink:href="#linearGradient15529"
       id="linearGradient9143"
       gradientUnits="userSpaceOnUse"
       gradientTransform="translate(34.648232,62.57895)"
       x1="103.35806"
       y1="561.49011"
       x2="93.853813"
       y2="576.33936" />
  </defs>
  <sodipodi:namedview
     id="base"
     pagecolor="#ffffff"
     bordercolor="#666666"
     borderopacity="1.0"
     inkscape:pageopacity="0.0"
     inkscape:pageshadow="2"
     inkscape:zoom="0.92235839"
     inkscape:cx="475.14061"
     inkscape:cy="88.82762"
     inkscape:document-units="px"
     inkscape:current-layer="layer1"
     showgrid="false"
     units="px"
     inkscape:window-width="1920"
     inkscape:window-height="1056"
     inkscape:window-x="1920"
     inkscape:window-y="24"
     inkscape:window-maximized="1" />
  <metadata
     id="metadata4976">
    <rdf:RDF>
      <cc:Work
         rdf:about="">
        <dc:format>image/svg+xml</dc:format>
        <dc:type
           rdf:resource="http://purl.org/dc/dcmitype/StillImage" />
        <dc:title></dc:title>
      </cc:Work>
    </rdf:RDF>
  </metadata>
  <g
     inkscape:label="Capa 1"
     inkscape:groupmode="layer"
     id="layer1"
     transform="translate(0,-712.36218)">
    <g
       id="g9194"
       inkscape:export-filename="/var/www/chamilo/main/default_course_document/images/mr_chamilo/doubts.png"
       inkscape:export-xdpi="90"
       inkscape:export-ydpi="90">
      <g
         transform="matrix(1.4747635,0,0,1.4747635,-406.98635,-347.14794)"
         id="g15577">
        <g
           id="g15557"
           transform="matrix(-0.86256513,-0.50594603,-0.50594603,0.86256513,1064.7348,291.58489)">
          <path
             sodipodi:nodetypes="csccscc"
             inkscape:connector-curvature="0"
             id="path15559"
             d="m 368.04198,810.5794 c 9.23354,8.37503 19.42675,11.84637 26.2267,8.64598 5.71774,-2.69106 8.81836,-9.36275 11.5643,-15.7751 l 7.95496,3.71231 c -3.54691,9.16957 -9.25378,16.4258 -16.6676,19.65689 -9.17861,4.00021 -21.36262,2.28445 -33.09504,-7.63607 z"
             style="fill:url(#linearGradient9141);fill-opacity:1;fill-rule:evenodd;stroke:none;stroke-width:1px;stroke-linecap:butt;stroke-linejoin:miter;stroke-opacity:1" />
          <g
             id="g15561"
             transform="translate(277.71618,171.29661)">
            <path
               sodipodi:nodetypes="cccccccccccccccc"
               inkscape:connector-curvature="0"
               id="path15563"
               d="m 131.52186,639.94218 c -8.45834,-4.15742 -4.09123,-11.19923 2.38649,-13.34664 1.42314,-1.17395 2.70206,-2.95489 3.44714,-6.98268 1.19487,-2.99319 7.92586,-3.33514 7.15946,2.12132 -0.22794,2.28725 -1.73063,3.93712 -3.0936,5.65685 -0.31499,0.96676 -1.06535,1.99572 0.17678,2.74004 l 0.97227,0.79549 c 1.29799,-1.27018 1.89738,-3.07774 4.5962,-3.27036 1.50751,-3.57974 3.56175,-3.34375 5.48007,-2.12133 l 1.85616,9.28078 c -0.89704,0.96377 -1.67039,2.08658 -3.35876,2.03293 l 0.53033,3.62393 c -2.12132,1.57972 -4.24264,2.71371 -6.36396,2.65165 l 0.17678,2.47487 c -1.88167,1.58061 -3.68391,3.2313 -7.51301,3.09359 -2.25306,-2.84863 -4.84352,-5.47232 -6.45235,-8.75044 z"
               style="fill:url(#linearGradient9143);fill-opacity:1;fill-rule:evenodd;stroke:none;stroke-width:0.30000001;stroke-linecap:butt;stroke-linejoin:miter;stroke-miterlimit:4;stroke-dasharray:none;stroke-opacity:1" />
            <path
               sodipodi:nodetypes="cccccsscsccscccc"
               inkscape:connector-curvature="0"
               id="path15565"
               d="m 140.68359,633.21875 c -0.64477,-0.0258 -1.22826,0.033 -1.75195,0.17578 -1.04738,0.28565 -1.84562,0.91698 -2.36523,1.79688 -1.03924,1.75978 -1.03497,4.44252 -0.31446,7.65429 0.10286,0.45573 0.78646,0.30144 0.6836,-0.15429 -0.70173,-3.12801 -0.64263,-5.66083 0.23242,-7.14258 0.43752,-0.74088 1.06006,-1.23656 1.94726,-1.47852 0.84137,-0.22946 1.97476,-0.17051 3.33399,0.1543 0.41468,0.8825 1.4774,2.60024 1.81074,4.62573 0.34561,2.10003 0.48852,4.95371 0.50509,6.68864 0.0331,0.4851 0.76803,0.40457 0.69532,-0.0762 -0.0173,-1.83 -0.16161,-4.60496 -0.51096,-6.7277 -0.34934,-2.12275 -1.38994,-3.96681 -1.91816,-5.00074 -0.0457,-0.0893 -0.12745,-0.15474 -0.22461,-0.17968 -0.77163,-0.1996 -1.47828,-0.31012 -2.12305,-0.33594 z"
               style="color:#000000;font-style:normal;font-variant:normal;font-weight:normal;font-stretch:normal;font-size:medium;line-height:normal;font-family:sans-serif;text-indent:0;text-align:start;text-decoration:none;text-decoration-line:none;text-decoration-style:solid;text-decoration-color:#000000;letter-spacing:normal;word-spacing:normal;text-transform:none;direction:ltr;block-progression:tb;writing-mode:lr-tb;baseline-shift:baseline;text-anchor:start;white-space:normal;clip-rule:nonzero;display:inline;overflow:visible;visibility:visible;opacity:1;isolation:auto;mix-blend-mode:normal;color-interpolation:sRGB;color-interpolation-filters:linearRGB;solid-color:#000000;solid-opacity:1;fill:#ffae70;fill-opacity:1;fill-rule:evenodd;stroke:none;stroke-width:0.69999999;stroke-linecap:round;stroke-linejoin:round;stroke-miterlimit:4;stroke-dasharray:none;stroke-dashoffset:0;stroke-opacity:1;color-rendering:auto;image-rendering:auto;shape-rendering:auto;text-rendering:auto;enable-background:accumulate" />
            <path
               sodipodi:nodetypes="csccscssccscccc"
               inkscape:connector-curvature="0"
               id="path15567"
               d="m 146.42773,627.88086 c -0.76391,0.10003 -1.45233,0.39427 -2.05273,0.87305 -1.20079,0.95755 -2.04556,2.60044 -2.63281,4.8125 -0.14233,0.40725 0.4986,0.5783 0.57812,0.15429 0.56917,-2.14393 1.38554,-3.6654 2.42969,-4.49804 1.02363,-0.81628 2.28207,-1.00386 3.91211,-0.49414 0.16272,0.17828 0.42934,0.72247 0.66016,1.50585 0.23953,0.81296 0.46919,1.85272 0.67382,2.97461 0.40928,2.24379 0.91085,5.34587 1.04883,7.11329 0.0146,0.4175 0.64834,0.36777 0.59766,-0.0469 -0.13996,-1.79271 -0.64259,-4.90386 -1.05664,-7.17383 -0.20703,-1.13498 -0.43808,-2.19057 -0.6875,-3.03711 -0.24943,-0.84654 -0.4806,-1.47245 -0.84766,-1.82422 -0.032,-0.0316 -0.0707,-0.0557 -0.11328,-0.0703 -0.9052,-0.29624 -1.74585,-0.38909 -2.50977,-0.28905 z"
               style="color:#000000;font-style:normal;font-variant:normal;font-weight:normal;font-stretch:normal;font-size:medium;line-height:normal;font-family:sans-serif;text-indent:0;text-align:start;text-decoration:none;text-decoration-line:none;text-decoration-style:solid;text-decoration-color:#000000;letter-spacing:normal;word-spacing:normal;text-transform:none;direction:ltr;block-progression:tb;writing-mode:lr-tb;baseline-shift:baseline;text-anchor:start;white-space:normal;clip-rule:nonzero;display:inline;overflow:visible;visibility:visible;opacity:1;isolation:auto;mix-blend-mode:normal;color-interpolation:sRGB;color-interpolation-filters:linearRGB;solid-color:#000000;solid-opacity:1;fill:#ffae70;fill-opacity:1;fill-rule:evenodd;stroke:none;stroke-width:0.60000002;stroke-linecap:round;stroke-linejoin:round;stroke-miterlimit:4;stroke-dasharray:none;stroke-dashoffset:0;stroke-opacity:1;color-rendering:auto;image-rendering:auto;shape-rendering:auto;text-rendering:auto;enable-background:accumulate" />
          </g>
        </g>
        <path
           style="fill:#f7b078;fill-opacity:1;fill-rule:evenodd;stroke:none;stroke-width:0.5;stroke-linecap:butt;stroke-linejoin:miter;stroke-miterlimit:4;stroke-dasharray:none;stroke-opacity:1"
           d="m 344.92657,796.71422 -1.60439,9.85711 6.11507,9.87961 c 0,0 8.05495,-7.12898 8.27821,-7.94414 l 0.87099,-10.25077 z"
           id="path15290"
           inkscape:connector-curvature="0"
           sodipodi:nodetypes="cccccc" />
        <path
           style="fill:#1c2224;fill-opacity:1;fill-rule:evenodd;stroke:none;stroke-width:1px;stroke-linecap:butt;stroke-linejoin:miter;stroke-opacity:1"
           d="m 325.41568,862.54136 37.99211,-0.28255 c 4.28181,22.9427 12.28593,48.19019 18.20502,71.00002 l -13.98447,1.31478 c -5.57105,-22.76928 -11.66544,-47.65985 -19.16724,-57.7012 -0.75198,-2.44635 -7.20328,-2.48059 -7.41058,-0.23905 -6.18629,13.88565 -3.4704,41.02071 2.45928,58.45801 l -15.80949,0.58005 c -6.43917,-22.47369 -5.47942,-51.89305 -2.28463,-73.13006 z"
           id="path15292"
           inkscape:connector-curvature="0"
           sodipodi:nodetypes="ccccccccc" />
        <g
           id="g15550">
          <path
             style="fill:url(#linearGradient15569);fill-opacity:1;fill-rule:evenodd;stroke:none;stroke-width:1px;stroke-linecap:butt;stroke-linejoin:miter;stroke-opacity:1"
             d="m 368.04198,810.5794 c 9.23354,8.37503 19.42675,11.84637 26.2267,8.64598 5.71774,-2.69106 8.81836,-9.36275 11.5643,-15.7751 l 7.95496,3.71231 c -3.54691,9.16957 -9.25378,16.4258 -16.6676,19.65689 -9.17861,4.00021 -21.36262,2.28445 -33.09504,-7.63607 z"
             id="path15294"
             inkscape:connector-curvature="0"
             sodipodi:nodetypes="csccscc" />
          <g
             transform="translate(277.71618,171.29661)"
             id="g15545">
            <path
               style="fill:url(#linearGradient15571);fill-opacity:1;fill-rule:evenodd;stroke:none;stroke-width:0.30000001;stroke-linecap:butt;stroke-linejoin:miter;stroke-miterlimit:4;stroke-dasharray:none;stroke-opacity:1"
               d="m 131.52186,639.94218 c -8.45834,-4.15742 -4.09123,-11.19923 2.38649,-13.34664 1.42314,-1.17395 2.70206,-2.95489 3.44714,-6.98268 1.19487,-2.99319 7.92586,-3.33514 7.15946,2.12132 -0.22794,2.28725 -1.73063,3.93712 -3.0936,5.65685 -0.31499,0.96676 -1.06535,1.99572 0.17678,2.74004 l 0.97227,0.79549 c 1.29799,-1.27018 1.89738,-3.07774 4.5962,-3.27036 1.50751,-3.57974 3.56175,-3.34375 5.48007,-2.12133 l 1.85616,9.28078 c -0.89704,0.96377 -1.67039,2.08658 -3.35876,2.03293 l 0.53033,3.62393 c -2.12132,1.57972 -4.24264,2.71371 -6.36396,2.65165 l 0.17678,2.47487 c -1.88167,1.58061 -3.68391,3.2313 -7.51301,3.09359 -2.25306,-2.84863 -4.84352,-5.47232 -6.45235,-8.75044 z"
               id="path15527"
               inkscape:connector-curvature="0"
               sodipodi:nodetypes="cccccccccccccccc" />
            <path
               style="color:#000000;font-style:normal;font-variant:normal;font-weight:normal;font-stretch:normal;font-size:medium;line-height:normal;font-family:sans-serif;text-indent:0;text-align:start;text-decoration:none;text-decoration-line:none;text-decoration-style:solid;text-decoration-color:#000000;letter-spacing:normal;word-spacing:normal;text-transform:none;direction:ltr;block-progression:tb;writing-mode:lr-tb;baseline-shift:baseline;text-anchor:start;white-space:normal;clip-rule:nonzero;display:inline;overflow:visible;visibility:visible;opacity:1;isolation:auto;mix-blend-mode:normal;color-interpolation:sRGB;color-interpolation-filters:linearRGB;solid-color:#000000;solid-opacity:1;fill:#ffae70;fill-opacity:1;fill-rule:evenodd;stroke:none;stroke-width:0.69999999;stroke-linecap:round;stroke-linejoin:round;stroke-miterlimit:4;stroke-dasharray:none;stroke-dashoffset:0;stroke-opacity:1;color-rendering:auto;image-rendering:auto;shape-rendering:auto;text-rendering:auto;enable-background:accumulate"
               d="m 140.68359,633.21875 c -0.64477,-0.0258 -1.22826,0.033 -1.75195,0.17578 -1.04738,0.28565 -1.84562,0.91698 -2.36523,1.79688 -1.03924,1.75978 -1.03497,4.44252 -0.31446,7.65429 0.10286,0.45573 0.78646,0.30144 0.6836,-0.15429 -0.70173,-3.12801 -0.64263,-5.66083 0.23242,-7.14258 0.43752,-0.74088 1.06006,-1.23656 1.94726,-1.47852 0.84137,-0.22946 1.97476,-0.17051 3.33399,0.1543 0.41468,0.8825 1.4774,2.60024 1.81074,4.62573 0.34561,2.10003 0.48852,4.95371 0.50509,6.68864 0.0331,0.4851 0.76803,0.40457 0.69532,-0.0762 -0.0173,-1.83 -0.16161,-4.60496 -0.51096,-6.7277 -0.34934,-2.12275 -1.38994,-3.96681 -1.91816,-5.00074 -0.0457,-0.0893 -0.12745,-0.15474 -0.22461,-0.17968 -0.77163,-0.1996 -1.47828,-0.31012 -2.12305,-0.33594 z"
               id="path15537"
               inkscape:connector-curvature="0"
               sodipodi:nodetypes="cccccsscsccscccc" />
            <path
               style="color:#000000;font-style:normal;font-variant:normal;font-weight:normal;font-stretch:normal;font-size:medium;line-height:normal;font-family:sans-serif;text-indent:0;text-align:start;text-decoration:none;text-decoration-line:none;text-decoration-style:solid;text-decoration-color:#000000;letter-spacing:normal;word-spacing:normal;text-transform:none;direction:ltr;block-progression:tb;writing-mode:lr-tb;baseline-shift:baseline;text-anchor:start;white-space:normal;clip-rule:nonzero;display:inline;overflow:visible;visibility:visible;opacity:1;isolation:auto;mix-blend-mode:normal;color-interpolation:sRGB;color-interpolation-filters:linearRGB;solid-color:#000000;solid-opacity:1;fill:#ffae70;fill-opacity:1;fill-rule:evenodd;stroke:none;stroke-width:0.60000002;stroke-linecap:round;stroke-linejoin:round;stroke-miterlimit:4;stroke-dasharray:none;stroke-dashoffset:0;stroke-opacity:1;color-rendering:auto;image-rendering:auto;shape-rendering:auto;text-rendering:auto;enable-background:accumulate"
               d="m 146.42773,627.88086 c -0.76391,0.10003 -1.45233,0.39427 -2.05273,0.87305 -1.20079,0.95755 -2.04556,2.60044 -2.63281,4.8125 -0.14233,0.40725 0.4986,0.5783 0.57812,0.15429 0.56917,-2.14393 1.38554,-3.6654 2.42969,-4.49804 1.02363,-0.81628 2.28207,-1.00386 3.91211,-0.49414 0.16272,0.17828 0.42934,0.72247 0.66016,1.50585 0.23953,0.81296 0.46919,1.85272 0.67382,2.97461 0.40928,2.24379 0.91085,5.34587 1.04883,7.11329 0.0146,0.4175 0.64834,0.36777 0.59766,-0.0469 -0.13996,-1.79271 -0.64259,-4.90386 -1.05664,-7.17383 -0.20703,-1.13498 -0.43808,-2.19057 -0.6875,-3.03711 -0.24943,-0.84654 -0.4806,-1.47245 -0.84766,-1.82422 -0.032,-0.0316 -0.0707,-0.0557 -0.11328,-0.0703 -0.9052,-0.29624 -1.74585,-0.38909 -2.50977,-0.28905 z"
               id="path15539"
               inkscape:connector-curvature="0"
               sodipodi:nodetypes="csccscssccscccc" />
          </g>
        </g>
        <path
           style="fill:#2e75a3;fill-opacity:1;fill-rule:evenodd;stroke:none;stroke-width:1px;stroke-linecap:butt;stroke-linejoin:miter;stroke-opacity:1"
           d="m 359.08569,807.28592 15.68783,5.36144 -6.63167,10.97735 -7.14016,-3.36567 c -2.26728,9.60161 -1.21157,28.57475 3.50845,42.78188 -10.10404,4.55428 -31.59187,3.89788 -40.83346,0.36904 0.89935,-23.37943 7.81911,-40.72573 10.63643,-47.87435 l -8.54164,0.71558 1.00699,-12.84969 15.76431,0.60053 3.53659,4.18672 8.21375,0.34767 z"
           id="path15316"
           inkscape:connector-curvature="0"
           sodipodi:nodetypes="ccccccccccccc" />
        <path
           sodipodi:nodetypes="ccccccc"
           style="fill:#00222b;fill-opacity:1;fill-rule:evenodd;stroke:none;stroke-width:1px;stroke-linecap:butt;stroke-linejoin:miter;stroke-opacity:1"
           d="m 343.78017,807.76567 c 0.33807,0.0845 1.85211,1.57825 1.85211,1.57825 l 4.49409,-0.0745 -0.0881,-2.0726 -4.06683,0.0861 -1.64197,-1.92599 z"
           id="path15318"
           inkscape:connector-curvature="0" />
        <path
           style="fill:#004455;fill-opacity:1;fill-rule:evenodd;stroke:none;stroke-width:1px;stroke-linecap:butt;stroke-linejoin:miter;stroke-opacity:1"
           d="m 348.06466,809.19577 6.3186,8.77739 6.1231,-11.17996 -0.72145,-3.55183 -2.00826,0.26217 0.26917,1.20028 -4.30693,2.79746 -5.64112,-0.83991 z"
           id="path15320"
           inkscape:connector-curvature="0"
           sodipodi:nodetypes="ccccccccc" />
        <path
           sodipodi:nodetypes="cccccc"
           inkscape:connector-curvature="0"
           id="path15322"
           d="m 345.33283,807.11864 -8.17475,8.11448 2.53896,-11.44513 3.63826,-0.32565 2.05305,1.65212 z"
           style="fill:#004455;fill-opacity:1;fill-rule:evenodd;stroke:none;stroke-width:1px;stroke-linecap:butt;stroke-linejoin:miter;stroke-opacity:1" />
        <g
           id="g15324"
           transform="matrix(0.07241932,0,0,0.07403826,299.57315,779.47989)"
           style="fill:#ffffff">
          <path
             inkscape:connector-curvature="0"
             id="path15326"
             d="m 670.87877,627.88432 c 0,0 1.41431,-0.69792 1.84971,-3.09305 7.1e-4,-0.14095 0.002,-0.28204 0.002,-0.42305 l 0.002,-0.42305 c -0.12963,-2.25699 -2.37313,-4.94778 -4.89879,-7.64003 -2.94747,-2.97641 -5.4796,-4.3995 -5.4796,-4.3995 0,0 -1.23953,-5.92916 -6.55869,-14.13541 -5.17808,-8.20554 -14.16295,-16.85347 -19.11338,-14.34028 -4.95044,2.5132 -0.61306,9.58628 -0.34168,11.70296 0.41175,2.25843 2.50917,5.93561 1.80384,5.93203 -0.84573,-0.14537 -11.46468,-20.36525 -38.29709,-14.86091 -6.92043,1.51603 -12.86053,4.44727 -17.67635,8.23032 l -0.23954,47.09964 c 1.70147,-1.68359 2.41113,-2.5261 2.41113,-2.5261 0,0 1.79093,8.47033 5.15728,12.29501 3.36637,3.82467 7.446,6.10176 8.72999,3.28787 1.28328,-2.67286 -2.60793,-14.25633 -2.60793,-14.25633 0,0 7.29991,7.08815 9.40737,8.79112 2.10748,1.70296 6.18783,3.83902 7.33577,0.0373 1.00685,-3.80243 -1.92625,-9.5992 -4.31946,-10.59852 -2.25214,-0.9986 -3.66287,-1.00576 -3.66287,-1.00576 0,0 -1.40137,-1.84039 -2.10388,-2.40805 -0.84357,-0.5684 -0.98464,-0.56909 -0.98464,-0.56909 0,0 1.27323,-0.69864 5.22253,-0.53752 4.0904,0.16181 7.33434,0.31934 7.33434,0.31934 0,0 3.64063,5.37729 5.88918,7.08098 2.10676,1.84397 7.58635,6.24348 9.55204,8.08673 1.82461,1.84258 2.94887,2.69439 3.66214,1.14681 0.57217,-1.54832 -0.39453,-5.64284 -2.91878,-8.61711 -2.66602,-2.83398 -5.47959,-4.3995 -6.45991,-5.81469 -0.83783,-1.6965 -1.39567,-2.96854 -1.39567,-2.96854 0,0 5.20032,3.83401 6.46351,5.10962 1.40499,1.13531 10.68634,6.96435 12.23312,7.95936 1.54608,1.13603 2.255,0.43454 2.255,0.43454 0,0 1.12429,0.85182 1.55036,0.28992 0.42608,-0.56192 1.57404,-4.36362 -1.37701,-6.63496 -3.09139,-2.41309 -4.91959,-3.55055 -4.63602,-3.83115 0.14242,-0.28132 3.24107,0.72159 3.6686,-0.12243 0.28573,-0.70365 -0.13169,-1.83394 -0.55352,-2.11812 -0.28,-0.42448 0.85287,-1.26484 0.85287,-1.26484 0,0 1.1286,0.006 5.78181,0.45246 4.65324,0.44672 16.38233,-3.44219 18.78484,-4.2761 2.40256,-0.83392 3.67507,-1.39152 3.67507,-1.39152 l 0,0 z m -89.18395,60.18524 c 9.76627,-6.29624 10.27123,-22.37002 4.92628,-25.49965 -1.54678,-0.99502 -3.095,-1.70799 -4.7857,-2.13965 l -0.0373,7.33289 c 0.42179,0.28417 0.84285,0.70937 1.12141,1.4159 0.83782,1.6965 0.40387,3.80961 0.40387,3.80961 0,0 -0.12743,-2.68004 -1.1078,-4.09523 -0.14036,-0.14169 -0.2807,-0.28347 -0.42107,-0.4252 l -0.0996,19.60133 z m 0.47622,-93.63522 c -2.12398,1.54044 -3.96724,3.36432 -5.66942,5.18894 l -0.2374,46.67659 c 1.41502,-0.83892 2.68898,-1.67856 3.8233,-2.80097 0.70895,-0.7015 1.27682,-1.4037 1.84397,-1.96491 l 0.23955,-47.09965 0,0 z m -6.13131,96.00382 c 2.11826,-0.41229 4.09756,-1.24834 5.65509,-2.3686 l 0.0996,-19.60133 c -0.84069,-1.13245 -1.54247,-1.84112 -1.54247,-1.84112 0,0 0.70393,0.28561 1.54606,1.13603 l 0.0373,-7.33289 c -1.83107,-0.57339 -3.80465,-0.86546 -5.64075,-0.45173 l -0.0624,12.26846 0,0 c 0.42464,-0.2799 1.13072,-0.4173 0.84355,0.56838 -0.14389,0.56334 -0.56716,0.56119 -0.84929,0.55975 l 0,0 -0.0366,7.19186 c 0.28214,0.002 0.70537,0.003 0.98821,-0.13595 0,0 -0.28357,0.28059 -0.99036,0.55903 l -0.048,9.44814 z m 0.46189,-90.81488 c -9.92814,10.38503 -14.3652,22.9133 -15.36707,25.7286 -1.57402,4.36362 -11.67049,20.10658 -12.56424,29.4094 -0.75342,9.44454 -1.01139,32.4296 20.41581,35.64102 2.53716,0.43595 4.93538,0.44815 7.05361,0.0359 l 0.048,-9.44814 c -1.97788,0.55402 -6.35398,1.09586 -11.26285,-4.56994 -6.59166,-7.64863 -3.28388,-20.04162 1.9573,-24.24557 3.40008,-2.80313 6.65264,-4.33779 9.48198,-5.87464 l 0.23739,-46.6766 0,0 z m -0.30697,60.35524 -0.0624,12.26846 c -0.42468,0.27986 -0.7068,0.27844 -0.98682,-0.14609 -0.28643,0.84468 0.27571,1.27057 0.98108,1.27416 l -0.0366,7.19187 c -4.51647,0.40008 -10.70358,-3.57996 -9.12021,-9.77679 1.86979,-7.04154 5.2713,-10.12667 9.22492,-10.81167 z"
             style="fill:#ffffff;fill-opacity:1;stroke:none" />
          <g
             id="g15328"
             transform="matrix(0.67529885,0.00343447,-0.00343313,0.67503372,391.44175,224.96591)"
             inkscape:transform-center-y="-65.497173"
             style="fill:#ffffff;fill-opacity:1">
            <path
               style="fill:#ffffff;fill-opacity:1;stroke:none"
               d="m 317.497,435.66599 13.283,-0.49733 c 7.12992,-0.26696 16.9201,4.73977 16.36027,13.87359 l -3.48135,56.79988 c -0.43649,7.12156 -3.50599,10.88958 -9.1489,10.88958 l -17.51036,0 c -7.13493,0 -10.13574,-4.51857 -10.6409,-11.63558 l -3.97869,-56.05388 c -0.50516,-7.11701 4.99786,-12.99738 15.11693,-13.37626 z"
               id="path15330"
               inkscape:connector-curvature="0"
               sodipodi:nodetypes="sssssssss" />
          </g>
          <g
             inkscape:transform-center-y="-53.403829"
             transform="matrix(0.5509376,-0.44632896,0.44650645,0.55072309,163.59292,448.32869)"
             id="g15332"
             inkscape:transform-center-x="43.829697"
             style="fill:#ffffff;fill-opacity:0.70301753">
            <path
               sodipodi:nodetypes="sssssssss"
               inkscape:connector-curvature="0"
               id="path15334"
               d="m 317.497,435.66599 13.283,-0.49733 c 7.12992,-0.26696 16.9201,4.73977 16.36027,13.87359 l -3.48135,56.79988 c -0.43649,7.12156 -3.50599,10.88958 -9.1489,10.88958 l -17.51036,0 c -7.13493,0 -10.13574,-4.51857 -10.6409,-11.63558 l -3.97869,-56.05388 c -0.50516,-7.11701 4.99786,-12.99738 15.11693,-13.37626 z"
               style="fill:#ffffff;fill-opacity:1;stroke:none" />
          </g>
          <g
             inkscape:transform-center-x="63.28487"
             id="g15336"
             transform="matrix(0.14153282,-0.65409844,0.65435592,0.14147986,169.00482,760.52157)"
             inkscape:transform-center-y="-14.415814"
             style="fill:#ffffff;fill-opacity:1">
            <path
               style="fill:#ffffff;fill-opacity:1;stroke:none"
               d="m 317.497,435.66599 13.283,-0.49733 c 7.12992,-0.26696 16.9201,4.73977 16.36027,13.87359 l -3.48135,56.79988 c -0.43649,7.12156 -3.50599,10.88958 -9.1489,10.88958 l -17.51036,0 c -7.13493,0 -10.13574,-4.51857 -10.6409,-11.63558 l -3.97869,-56.05388 c -0.50516,-7.11701 4.99786,-12.99738 15.11693,-13.37626 z"
               id="path15338"
               inkscape:connector-curvature="0"
               sodipodi:nodetypes="sssssssss" />
          </g>
          <g
             inkscape:transform-center-y="24.205256"
             transform="matrix(-0.24306426,-0.46928712,0.46947045,-0.24296696,376.9741,933.02481)"
             id="g15340"
             inkscape:transform-center-x="45.418014"
             style="fill:#ffffff;fill-opacity:1">
            <path
               sodipodi:nodetypes="sssssssss"
               inkscape:connector-curvature="0"
               id="path15342"
               d="m 317.497,435.66599 13.283,-0.49733 c 7.12992,-0.26696 16.9201,4.73977 16.36027,13.87359 l -3.48135,56.79988 c -0.43649,7.12156 -3.50599,10.88958 -9.1489,10.88958 l -17.51036,0 c -7.13493,0 -10.13574,-4.51857 -10.6409,-11.63558 l -3.97869,-56.05388 c -0.50516,-7.11701 4.99786,-12.99738 15.11693,-13.37626 z"
               style="fill:#ffffff;fill-opacity:1;stroke:none" />
          </g>
        </g>
        <path
           style="fill:#000000;fill-opacity:1;fill-rule:evenodd;stroke:none;stroke-width:1px;stroke-linecap:butt;stroke-linejoin:miter;stroke-opacity:1"
           d="m 365.80004,940.55088 20.15093,-0.22777 c 0.40077,-3.3071 -3.36342,-7.17778 -5.34748,-7.98521 -3.4271,-1.39468 -6.77243,-1.40757 -11.46361,0.5416 -2.85749,1.58189 -3.33984,7.67138 -3.33984,7.67138 z"
           id="path15344"
           inkscape:connector-curvature="0"
           sodipodi:nodetypes="ccscc" />
        <path
           sodipodi:nodetypes="cccccc"
           inkscape:connector-curvature="0"
           id="path15346"
           d="m 345.10157,941.71713 c -0.4674,0.63219 -22.3514,1.42126 -22.3514,1.42126 -2.31374,0.17149 -2.99415,-2.65951 -1.618,-3.5977 0,0 5.47803,-3.80974 6.74611,-4.38619 4.03426,-2.40362 12.86224,-2.86599 15.23897,-1.27037 1.39129,1.58124 2.02211,4.99156 1.98432,7.833 z"
           style="fill:#000000;fill-opacity:1;fill-rule:evenodd;stroke:none;stroke-width:1px;stroke-linecap:butt;stroke-linejoin:miter;stroke-opacity:1" />
        <path
           style="fill:url(#linearGradient15440);fill-opacity:1;fill-rule:evenodd;stroke:none;stroke-width:1px;stroke-linecap:butt;stroke-linejoin:miter;stroke-opacity:1"
           d="m 329.56213,782.59154 c -8.99118,-0.20596 -8.32399,-14.12328 -0.87552,-16.54672 3.61313,-41.60852 65.20336,-28.17599 55.45373,7.72413 8.17933,4.58068 4.32145,17.55909 -4.66947,17.03123 -13.87585,18.35334 -39.68831,18.07987 -49.90874,-8.20864 z"
           id="path15376"
           inkscape:connector-curvature="0"
           sodipodi:nodetypes="ccccc" />
        <rect
           style="opacity:1;fill:#000000;fill-opacity:1;stroke:none;stroke-width:0.40000001;stroke-linecap:round;stroke-linejoin:round;stroke-miterlimit:4;stroke-dasharray:none;stroke-opacity:1"
           id="rect15378"
           width="10.387684"
           height="3.3075209"
           x="209.29312"
           y="811.94653"
           ry="1.6537604"
           transform="matrix(0.98691766,-0.16122511,0.16122511,0.98691766,0,0)" />
        <rect
           ry="1.6537604"
           y="494.13498"
           x="692.83527"
           height="3.3075209"
           width="10.387684"
           id="rect15380"
           style="opacity:1;fill:#000000;fill-opacity:1;stroke:none;stroke-width:0.40000001;stroke-linecap:round;stroke-linejoin:round;stroke-miterlimit:4;stroke-dasharray:none;stroke-opacity:1"
           transform="matrix(0.87422472,0.48552151,-0.48552151,0.87422472,0,0)" />
        <path
           style="fill:#000000;fill-opacity:1;fill-rule:evenodd;stroke:none;stroke-width:1px;stroke-linecap:butt;stroke-linejoin:miter;stroke-opacity:1"
           d="m 337.46477,749.97436 c -6.30296,2.75522 -5.40872,14.11735 -7.15593,22.22404 0.0932,1.84098 -1.9659,1.94494 -1.96476,-0.14303 2.10059,-20.58857 -5.06566,-32.57586 5.1533,-47.46651 16.01486,14.27084 33.41597,2.33201 51.44825,12.97544 l 0.9217,-4.66895 c 1.98131,1.30777 3.50244,4.89471 1.55101,9.0195 0,0 5.05962,-0.95298 7.15994,4.12492 -2.67646,-1.06647 -5.09614,-0.2973 -5.03355,-0.24545 5.05772,4.10066 -2.76573,22.23189 -6.56885,33.44895 -0.43562,1.70835 -2.61653,1.58334 -2.25219,-0.65742 0.40923,-7.43631 6.33817,-18.53089 0.0641,-21.99944 -14.43101,1.02859 -31.88352,-1.56392 -43.32298,-6.61205 z"
           id="path15382"
           inkscape:connector-curvature="0"
           sodipodi:nodetypes="ccccccccccccc" />
        <g
           transform="translate(-28.767544,257.57476)"
           id="g15384">
          <path
             id="path15386"
             d="m 385.62857,528.8758 a 3.033093,1.644448 8.6776443 0 1 -3.24648,1.168 3.033093,1.644448 8.6776443 0 1 -2.75027,-2.08324 3.033093,1.644448 8.6776443 0 1 3.24648,-1.168 3.033093,1.644448 8.6776443 0 1 2.75027,2.08324 z"
             style="opacity:1;fill:#ffb380;fill-opacity:1;stroke:none;stroke-width:0.5;stroke-linecap:round;stroke-linejoin:round;stroke-miterlimit:4;stroke-dasharray:none;stroke-opacity:1"
             inkscape:connector-curvature="0" />
          <path
             sodipodi:nodetypes="sssss"
             inkscape:connector-curvature="0"
             style="opacity:1;fill:#fdd2a1;fill-opacity:1;stroke:none;stroke-width:0.5;stroke-linecap:round;stroke-linejoin:round;stroke-miterlimit:4;stroke-dasharray:none;stroke-opacity:1"
             d="m 385.95584,529.64305 c -0.11885,0.77872 -1.72917,1.17894 -3.59674,0.8939 -1.86758,-0.28503 -3.2852,-1.14738 -3.16634,-1.92609 0.11886,-0.77872 1.68257,-0.95932 3.55014,-0.67429 1.86757,0.28503 3.33177,0.92776 3.21294,1.70648 z"
             id="path15388" />
        </g>
        <path
           style="color:#000000;font-style:normal;font-variant:normal;font-weight:normal;font-stretch:normal;font-size:medium;line-height:normal;font-family:sans-serif;text-indent:0;text-align:start;text-decoration:none;text-decoration-line:none;text-decoration-style:solid;text-decoration-color:#000000;letter-spacing:normal;word-spacing:normal;text-transform:none;direction:ltr;block-progression:tb;writing-mode:lr-tb;baseline-shift:baseline;text-anchor:start;white-space:normal;clip-rule:nonzero;display:inline;overflow:visible;visibility:visible;opacity:0.5;isolation:auto;mix-blend-mode:normal;color-interpolation:sRGB;color-interpolation-filters:linearRGB;solid-color:#000000;solid-opacity:1;fill:#ffb380;fill-opacity:1;fill-rule:evenodd;stroke:none;stroke-width:0.69999999;stroke-linecap:round;stroke-linejoin:round;stroke-miterlimit:4;stroke-dasharray:none;stroke-dashoffset:0;stroke-opacity:1;color-rendering:auto;image-rendering:auto;shape-rendering:auto;text-rendering:auto;enable-background:accumulate"
           d="m 385.34026,780.26783 c -0.37108,-0.33348 -0.88902,-0.37695 -1.31526,-0.19899 -0.85254,0.35632 -1.42341,1.46112 -1.24036,2.84468 0.0706,0.5333 0.27614,0.97039 0.57839,1.21191 0.43305,0.13966 0.73987,0.13199 1.00155,-0.24638 0.0278,0.0651 0.0625,0.20155 0.0938,0.38043 -0.17865,1.51616 -1.02775,2.40703 -2.4243,2.24465 -0.47391,-0.0952 -0.55407,0.44408 -0.0733,0.49188 2.19138,0.23397 3.65554,-1.61959 3.15798,-3.66806 -0.25414,-0.50666 -0.60502,-0.30269 -1.01803,-0.0947 -0.30019,0.15114 -0.55835,-0.0738 -0.63778,-0.44005 -0.0818,-1.05248 0.4569,-1.8057 0.94714,-1.894 0.49025,-0.0883 0.71301,0.46497 0.8571,1.07103 0.0194,0.45994 0.70929,0.43086 0.6899,-0.0291 -0.0338,-0.78048 -0.24593,-1.33999 -0.617,-1.67347 z"
           id="path15390"
           inkscape:connector-curvature="0"
           sodipodi:nodetypes="ccsccccccsczcccc" />
        <path
           sodipodi:nodetypes="ccsccccccsczcccc"
           inkscape:connector-curvature="0"
           id="path15392"
           d="m 326.11311,772.07543 c 0.41667,-0.27441 0.93529,-0.24012 1.33022,-3.3e-4 0.78985,0.47952 1.18953,1.6571 0.80214,2.99788 -0.14938,0.5168 -0.41781,0.91834 -0.75272,1.11207 -0.44903,0.0735 -0.75127,0.0201 -0.95359,-0.39303 -0.0371,0.0602 -0.0918,0.18998 -0.14949,0.36218 -0.0495,1.52586 0.65718,2.5334 2.06234,2.58117 0.48279,-0.0234 0.48162,0.52178 -10e-4,0.49732 -2.20177,-0.0955 -3.37306,-2.14677 -2.57548,-4.0981 0.32689,-0.46309 0.6434,-0.20905 1.02077,0.0582 0.27429,0.19422 0.56312,0.0103 0.6963,-0.33999 0.2378,-1.0285 -0.18243,-1.85365 -0.65401,-2.01409 -0.47161,-0.16042 -0.7744,0.35341 -1.00728,0.93119 -0.0878,0.4519 -0.76564,0.32023 -0.67784,-0.1317 0.14982,-0.76671 0.44307,-1.28831 0.85974,-1.56271 z"
           style="color:#000000;font-style:normal;font-variant:normal;font-weight:normal;font-stretch:normal;font-size:medium;line-height:normal;font-family:sans-serif;text-indent:0;text-align:start;text-decoration:none;text-decoration-line:none;text-decoration-style:solid;text-decoration-color:#000000;letter-spacing:normal;word-spacing:normal;text-transform:none;direction:ltr;block-progression:tb;writing-mode:lr-tb;baseline-shift:baseline;text-anchor:start;white-space:normal;clip-rule:nonzero;display:inline;overflow:visible;visibility:visible;opacity:0.5;isolation:auto;mix-blend-mode:normal;color-interpolation:sRGB;color-interpolation-filters:linearRGB;solid-color:#000000;solid-opacity:1;fill:#ffb380;fill-opacity:1;fill-rule:evenodd;stroke:none;stroke-width:0.69999999;stroke-linecap:round;stroke-linejoin:round;stroke-miterlimit:4;stroke-dasharray:none;stroke-dashoffset:0;stroke-opacity:1;color-rendering:auto;image-rendering:auto;shape-rendering:auto;text-rendering:auto;enable-background:accumulate" />
        <path
           style="fill:#552200"
           d="m 337.92431,785.36904 c -1.48746,-0.40505 -2.82312,-1.11611 -3.84426,-2.04657 -0.54327,-0.49502 -1.41511,-1.61411 -1.76021,-2.25938 -0.90419,-1.69059 -1.08369,-3.56507 -0.70163,-7.32696 0.12293,-1.21007 0.19792,-2.0221 0.18701,-2.02431 -0.17556,-0.0357 -1.17763,-0.33127 -1.20884,-0.35657 -0.0411,-0.0334 0.4681,-3.37768 0.51277,-3.37117 0.0206,0.003 2.04845,0.0115 3.90634,0.0163 1.35206,0.004 2.22149,0.0253 3.86146,0.0966 0.90855,0.0395 1.23749,0.0785 3.18117,0.37679 4.06447,0.62382 6.12636,1.22756 10.10589,2.95932 1.62558,0.70739 2.40359,1.00398 3.28696,1.25305 0.45541,0.12838 0.60394,0.15105 1.07692,0.16436 0.91744,0.0258 1.74852,-0.0252 3.51109,-0.21552 4.31494,-0.46583 6.46305,-0.42707 10.52857,0.18996 1.94418,0.29498 2.26975,0.35604 3.14873,0.5893 1.58659,0.42112 2.42292,0.65971 3.71446,1.05967 1.77475,0.5496 3.71268,1.14639 3.73338,1.14969 0.0451,0.007 -0.46642,3.35117 -0.51619,3.37065 -0.0374,0.0149 -1.08195,-0.002 -1.26018,-0.0203 -0.011,-10e-4 -0.18172,0.79628 -0.42535,1.98794 -0.75748,3.70459 -1.48797,5.44018 -2.85527,6.7841 -0.52188,0.51294 -1.68786,1.32101 -2.35404,1.63145 -1.98892,0.92678 -4.39724,1.0593 -7.03516,0.3871 -1.86253,-0.47461 -3.17958,-1.03673 -4.48771,-1.91537 -1.40009,-0.94039 -2.3622,-2.00145 -3.07439,-3.39059 -0.66836,-1.30362 -1.14276,-3.00214 -1.36751,-4.89606 -0.16512,-1.39149 -0.237,-1.78944 -0.42443,-2.34968 -0.19548,-0.58432 -0.52688,-1.06625 -0.91556,-1.33148 -0.25518,-0.17413 -0.30087,-0.1884 -0.89199,-0.27862 -0.5911,-0.0902 -0.63893,-0.0905 -0.93448,-1.4e-4 -0.4501,0.13722 -0.91017,0.49835 -1.27105,0.99776 -0.34601,0.47882 -0.53332,0.83721 -1.10601,2.1161 -0.77945,1.74066 -1.73893,3.22033 -2.76572,4.26524 -1.09414,1.11344 -2.32896,1.8392 -3.94583,2.31914 -0.90737,0.26935 -1.56558,0.39026 -2.5712,0.47232 -1.67373,0.13657 -3.62844,-0.0203 -5.03867,-0.40428 z m 2.90774,-1.17282 c 1.3008,0.0692 2.77084,-0.0375 3.48123,-0.2526 2.13084,-0.6452 4.59798,-2.76915 5.77719,-4.97353 0.46032,-0.86051 0.63763,-1.37395 0.76839,-2.22497 0.12411,-0.80847 0.11683,-1.21253 -0.0346,-1.91103 -0.43785,-2.01896 -2.0222,-3.22303 -5.34254,-4.06021 -1.63127,-0.41129 -5.93089,-1.00694 -7.40416,-1.02572 -1.52973,-0.0195 -2.49789,0.44031 -3.32189,1.57766 -0.48561,0.67031 -0.58301,0.97939 -0.89767,2.84874 -0.29975,1.7806 -0.37434,2.59891 -0.32173,3.52565 0.0368,0.64751 0.21008,1.59603 0.37965,2.07793 0.73394,2.08587 2.30266,3.44269 4.74537,4.1044 0.3257,0.0882 1.72002,0.28972 2.17074,0.31364 z m 29.12581,4.35695 c 2.16865,-0.0897 3.82185,-0.91784 5.01005,-2.50958 0.3056,-0.40939 0.75395,-1.26303 0.98221,-1.87009 0.32669,-0.86885 0.49951,-1.67217 0.74459,-3.46111 0.25725,-1.87811 0.2565,-2.20217 -0.007,-2.98682 -0.44722,-1.33136 -1.23414,-2.05904 -2.70003,-2.49674 -1.41181,-0.42154 -5.69336,-1.13557 -7.37304,-1.22961 -1.99141,-0.11147 -3.4423,0.0732 -4.4944,0.57208 -0.96114,0.45573 -1.71716,1.30501 -2.16542,2.43255 -0.2151,0.541 -0.37479,1.66678 -0.33112,2.33461 0.18231,2.7921 2.00844,6.10513 4.17778,7.57949 0.58943,0.40059 1.94836,0.94246 3.18562,1.27026 0.65327,0.1731 2.40567,0.38833 2.97087,0.36498 z"
           id="path15394"
           inkscape:connector-curvature="0"
           sodipodi:nodetypes="cssccccsscsccsccscccsccsssccssccssssccccsccssscssccccssccssscssccc" />
        <g
           transform="matrix(0.9864238,0.13528561,-0.16421966,0.81262467,-86.657271,277.3167)"
           id="g15406">
          <ellipse
             style="opacity:1;fill:#ffffff;fill-opacity:1;stroke:none;stroke-width:0.40000001;stroke-linecap:round;stroke-linejoin:round;stroke-miterlimit:4;stroke-dasharray:none;stroke-opacity:1"
             id="ellipse15408"
             cx="547.45984"
             cy="526.40558"
             rx="3.4076869"
             ry="4.2854242" />
          <ellipse
             ry="3.4712172"
             rx="1.8980589"
             cy="526.54852"
             cx="545.92432"
             id="ellipse15410"
             style="opacity:1;fill:#000000;fill-opacity:1;stroke:none;stroke-width:0.40000001;stroke-linecap:round;stroke-linejoin:round;stroke-miterlimit:4;stroke-dasharray:none;stroke-opacity:1" />
        </g>
        <g
           transform="matrix(0.9864238,0.14549763,-0.16421966,0.87396554,-81.707523,240.10487)"
           id="g15412">
          <ellipse
             ry="4.2854242"
             rx="3.4076869"
             cy="526.09583"
             cx="518.95917"
             id="ellipse15414"
             style="opacity:1;fill:#ffffff;fill-opacity:1;stroke:none;stroke-width:0.40000001;stroke-linecap:round;stroke-linejoin:round;stroke-miterlimit:4;stroke-dasharray:none;stroke-opacity:1" />
          <ellipse
             style="opacity:1;fill:#000000;fill-opacity:1;stroke:none;stroke-width:0.40000001;stroke-linecap:round;stroke-linejoin:round;stroke-miterlimit:4;stroke-dasharray:none;stroke-opacity:1"
             id="ellipse15416"
             cx="520.51404"
             cy="526.18341"
             rx="1.8980589"
             ry="3.4712172" />
        </g>
        <path
           style="color:#000000;font-style:normal;font-variant:normal;font-weight:normal;font-stretch:normal;font-size:medium;line-height:normal;font-family:sans-serif;text-indent:0;text-align:start;text-decoration:none;text-decoration-line:none;text-decoration-style:solid;text-decoration-color:#000000;letter-spacing:normal;word-spacing:normal;text-transform:none;direction:ltr;block-progression:tb;writing-mode:lr-tb;baseline-shift:baseline;text-anchor:start;white-space:normal;clip-rule:nonzero;display:inline;overflow:visible;visibility:visible;opacity:1;isolation:auto;mix-blend-mode:normal;color-interpolation:sRGB;color-interpolation-filters:linearRGB;solid-color:#000000;solid-opacity:1;fill:#ffae70;fill-opacity:1;fill-rule:evenodd;stroke:none;stroke-width:0.815;stroke-linecap:round;stroke-linejoin:round;stroke-miterlimit:4;stroke-dasharray:none;stroke-dashoffset:0;stroke-opacity:1;color-rendering:auto;image-rendering:auto;shape-rendering:auto;text-rendering:auto;enable-background:accumulate"
           d="m 346.59632,792.84926 c -0.57088,0.007 -0.53866,0.67736 0.0287,0.61363 4.8581,-0.30607 9.49625,-0.40207 12.91016,1.2793 0.49922,0.27707 0.94981,-0.81343 0.42566,-1.03983 -4.3291,-1.80795 -9.17081,-1.1143 -13.36452,-0.8531 z"
           id="path15573"
           inkscape:connector-curvature="0"
           sodipodi:nodetypes="ccccc" />
      </g>
      <g
         transform="matrix(0.97362887,0.22813773,-0.22813773,0.97362887,176.59814,-28.519491)"
         id="text9183"
         style="font-style:normal;font-variant:normal;font-weight:normal;font-stretch:normal;font-size:60.23361206px;line-height:125%;font-family:'Hemi Head 426';-inkscape-font-specification:'Hemi Head 426, Normal';text-align:start;letter-spacing:0px;word-spacing:0px;writing-mode:lr-tb;text-anchor:start;fill:#2e75a3;fill-opacity:1;stroke:none;stroke-width:1px;stroke-linecap:butt;stroke-linejoin:miter;stroke-opacity:1">
        <path
           inkscape:connector-curvature="0"
           id="path9188"
           style="fill:#2e75a3;fill-opacity:1"
           d="m 221.26276,770.11568 q -1.62631,7.3485 -12.58882,7.3485 -1.74678,0 -2.59005,0.9035 -0.84327,0.84327 -1.32514,3.37308 l -0.42163,2.16841 -8.67364,0 1.0842,-5.05962 q 0.84327,-3.97542 3.55378,-6.32453 2.71052,-2.40934 6.74617,-2.40934 l 1.26491,0 q 1.32513,0 2.10817,-0.12047 0.84327,-0.12047 1.38537,-0.5421 0.54211,-0.48187 0.90351,-1.32514 0.3614,-0.84327 0.7228,-2.28888 l 0.24094,-0.96374 q 0.1807,-0.66257 0.1807,-1.20467 0,-0.60233 0.0602,-1.0842 0,-1.26491 -0.84327,-1.56608 -0.78304,-0.3614 -3.25261,-0.3614 l -6.9871,0 q -4.69823,0 -5.60173,4.21635 l -8.67364,0 0.66257,-2.95144 q 0.60234,-2.77075 1.38537,-4.45729 0.78304,-1.74678 2.04795,-2.65028 1.32514,-0.96374 3.31284,-1.26491 2.04795,-0.30116 5.24033,-0.30116 l 13.49233,0 q 2.46958,0 4.15612,0.24093 1.68654,0.1807 2.71051,0.7228 1.0842,0.54211 1.50584,1.50584 0.48187,0.90351 0.48187,2.34912 0,1.6263 -0.60234,3.85495 l -1.68654,8.19177 z m -19.09405,24.21391 -8.67364,0 1.68654,-8.19177 8.67364,0 -1.68654,8.19177 z" />
      </g>
      <g
         style="font-style:normal;font-variant:normal;font-weight:normal;font-stretch:normal;font-size:60.23361206px;line-height:125%;font-family:'Hemi Head 426';-inkscape-font-specification:'Hemi Head 426, Normal';text-align:start;letter-spacing:0px;word-spacing:0px;writing-mode:lr-tb;text-anchor:start;fill:#2e75a3;fill-opacity:1;stroke:none;stroke-width:1px;stroke-linecap:butt;stroke-linejoin:miter;stroke-opacity:1"
         id="g9190"
         transform="matrix(-0.69392703,-0.15366044,0.15366044,-0.69392703,74.051683,1312.6991)">
        <path
           d="m 221.26276,770.11568 q -1.62631,7.3485 -12.58882,7.3485 -1.74678,0 -2.59005,0.9035 -0.84327,0.84327 -1.32514,3.37308 l -0.42163,2.16841 -8.67364,0 1.0842,-5.05962 q 0.84327,-3.97542 3.55378,-6.32453 2.71052,-2.40934 6.74617,-2.40934 l 1.26491,0 q 1.32513,0 2.10817,-0.12047 0.84327,-0.12047 1.38537,-0.5421 0.54211,-0.48187 0.90351,-1.32514 0.3614,-0.84327 0.7228,-2.28888 l 0.24094,-0.96374 q 0.1807,-0.66257 0.1807,-1.20467 0,-0.60233 0.0602,-1.0842 0,-1.26491 -0.84327,-1.56608 -0.78304,-0.3614 -3.25261,-0.3614 l -6.9871,0 q -4.69823,0 -5.60173,4.21635 l -8.67364,0 0.66257,-2.95144 q 0.60234,-2.77075 1.38537,-4.45729 0.78304,-1.74678 2.04795,-2.65028 1.32514,-0.96374 3.31284,-1.26491 2.04795,-0.30116 5.24033,-0.30116 l 13.49233,0 q 2.46958,0 4.15612,0.24093 1.68654,0.1807 2.71051,0.7228 1.0842,0.54211 1.50584,1.50584 0.48187,0.90351 0.48187,2.34912 0,1.6263 -0.60234,3.85495 l -1.68654,8.19177 z m -19.09405,24.21391 -8.67364,0 1.68654,-8.19177 8.67364,0 -1.68654,8.19177 z"
           style="fill:#2e75a3;fill-opacity:1"
           id="path9192"
           inkscape:connector-curvature="0" />
      </g>
    </g>
  </g>
</svg>
