<?xml version="1.0" encoding="UTF-8" standalone="no"?>
<!-- Created with Inkscape (http://www.inkscape.org/) -->

<svg
   xmlns:dc="http://purl.org/dc/elements/1.1/"
   xmlns:cc="http://creativecommons.org/ns#"
   xmlns:rdf="http://www.w3.org/1999/02/22-rdf-syntax-ns#"
   xmlns:svg="http://www.w3.org/2000/svg"
   xmlns="http://www.w3.org/2000/svg"
   xmlns:sodipodi="http://sodipodi.sourceforge.net/DTD/sodipodi-0.dtd"
   xmlns:inkscape="http://www.inkscape.org/namespaces/inkscape"
   width="1920"
   height="195"
   viewBox="0 0 1920 195"
   id="svg10621"
   version="1.1"
   inkscape:version="0.92.4 (5da689c313, 2019-01-14)"
   sodipodi:docname="background.svg"
   inkscape:export-filename="D:\wamp\www\chamilo-1.11.10\web\css\themes\chamilo_granit\svg\background.png"
   inkscape:export-xdpi="90"
   inkscape:export-ydpi="90">
  <defs
     id="defs10623">
    <clipPath
       clipPathUnits="userSpaceOnUse"
       id="clipPath2871-6-7-5">
      <rect
         style="fill:none;stroke:none"
         id="rect2873-7-1-4"
         width="397"
         height="113"
         x="53.999989"
         y="44" />
    </clipPath>
    <clipPath
       clipPathUnits="userSpaceOnUse"
       id="clipPath2867-2-4-7">
      <rect
         style="fill:none;stroke:none"
         id="rect2869-9-4-9"
         width="397"
         height="113"
         x="53.999989"
         y="44" />
    </clipPath>
    <clipPath
       clipPathUnits="userSpaceOnUse"
       id="clipPath10574">
      <rect
         style="opacity:0.719;fill:#655f4e;fill-opacity:1;stroke:none;stroke-width:1;stroke-linecap:round;stroke-linejoin:round;stroke-miterlimit:4;stroke-dasharray:none;stroke-dashoffset:0;stroke-opacity:1"
         id="rect10576"
         width="1920"
         height="195"
         x="0.074270003"
         y="-911.32257" />
    </clipPath>
    <linearGradient
       id="SVGID_1_"
       gradientUnits="userSpaceOnUse"
       x1="2682.8638"
       y1="1446.11"
       x2="2682.8638"
       y2="-9.094947e-13"
       gradientTransform="translate(30.450183,-989.63093)">
      <stop
         offset="0"
         style="stop-color:#8A908E"
         id="stop20265" />
      <stop
         offset="0.4024"
         style="stop-color:#848D8E"
         id="stop20267" />
      <stop
         offset="0.9292"
         style="stop-color:#74868E"
         id="stop20269" />
      <stop
         offset="1"
         style="stop-color:#71858E"
         id="stop20271" />
    </linearGradient>
    <linearGradient
       id="SVGID_2_"
       gradientUnits="userSpaceOnUse"
       x1="296.55499"
       y1="1446.0601"
       x2="296.55499"
       y2="0"
       gradientTransform="translate(30.450183,-989.63093)">
      <stop
         offset="0"
         style="stop-color:#8A908E"
         id="stop20982" />
      <stop
         offset="0.4024"
         style="stop-color:#848D8E"
         id="stop20984" />
      <stop
         offset="0.9292"
         style="stop-color:#74868E"
         id="stop20986" />
      <stop
         offset="1"
         style="stop-color:#71858E"
         id="stop20988" />
    </linearGradient>
    <linearGradient
       id="SVGID_3_"
       gradientUnits="userSpaceOnUse"
       x1="571.70972"
       y1="1446.0601"
       x2="571.70972"
       y2="-1.327021e-08"
       gradientTransform="translate(30.450183,-989.63093)">
      <stop
         offset="0"
         style="stop-color:#8A908E"
         id="stop20997" />
      <stop
         offset="0.4024"
         style="stop-color:#848D8E"
         id="stop20999" />
      <stop
         offset="0.9292"
         style="stop-color:#74868E"
         id="stop21001" />
      <stop
         offset="1"
         style="stop-color:#71858E"
         id="stop21003" />
    </linearGradient>
    <linearGradient
       id="SVGID_4_"
       gradientUnits="userSpaceOnUse"
       x1="560.25873"
       y1="1446.0601"
       x2="560.25873"
       y2="-1.327044e-08"
       gradientTransform="translate(30.450183,-989.63093)">
      <stop
         offset="0"
         style="stop-color:#8A908E"
         id="stop21010" />
      <stop
         offset="0.4024"
         style="stop-color:#848D8E"
         id="stop21012" />
      <stop
         offset="0.9292"
         style="stop-color:#74868E"
         id="stop21014" />
      <stop
         offset="1"
         style="stop-color:#71858E"
         id="stop21016" />
    </linearGradient>
    <linearGradient
       id="SVGID_5_"
       gradientUnits="userSpaceOnUse"
       x1="565.11353"
       y1="1446.0601"
       x2="565.11353"
       y2="-1.327044e-08"
       gradientTransform="translate(30.450183,-989.63093)">
      <stop
         offset="0"
         style="stop-color:#8A908E"
         id="stop21021" />
      <stop
         offset="0.4024"
         style="stop-color:#848D8E"
         id="stop21023" />
      <stop
         offset="0.9292"
         style="stop-color:#74868E"
         id="stop21025" />
      <stop
         offset="1"
         style="stop-color:#71858E"
         id="stop21027" />
    </linearGradient>
  </defs>
  <sodipodi:namedview
     id="base"
     pagecolor="#ffffff"
     bordercolor="#666666"
     borderopacity="1.0"
     inkscape:pageopacity="0.0"
     inkscape:pageshadow="2"
     inkscape:zoom="0.175"
     inkscape:cx="1580.2952"
     inkscape:cy="472.63388"
     inkscape:document-units="px"
     inkscape:current-layer="layer1"
     showgrid="false"
     units="px"
     inkscape:window-width="1920"
     inkscape:window-height="1017"
     inkscape:window-x="-8"
     inkscape:window-y="-8"
     inkscape:window-maximized="1"
     inkscape:snap-global="false" />
  <metadata
     id="metadata10626">
    <rdf:RDF>
      <cc:Work
         rdf:about="">
        <dc:format>image/svg+xml</dc:format>
        <dc:type
           rdf:resource="http://purl.org/dc/dcmitype/StillImage" />
        <dc:title />
      </cc:Work>
    </rdf:RDF>
  </metadata>
  <g
     inkscape:label="Capa 1"
     inkscape:groupmode="layer"
     id="layer1"
     transform="translate(0,-857.36216)">
    <g
       id="g22143"
       transform="matrix(0.98148001,0,0,0.86754667,477.24643,-2007.8087)" />
    <path
       d="m 1593.8959,947.88068 c 0.047,3.59855 -0.099,7.20865 0.075,10.80722 -9.6939,-0.0259 -19.3877,0.0143 -29.0816,-0.0203 -0.043,19.47779 -0.043,38.95846 -0.04,58.4363 0,11.4243 0,22.8485 0,34.2728 -2.3008,-0.011 -4.5954,0.011 -6.89,-0.011 0.015,-27.0411 0,-54.0794 0.012,-81.12054 0.012,-3.86955 0,-7.7392 0,-11.60594 -1.2545,0 -2.5058,0 -3.7541,0.006 0.028,3.86383 0,7.7306 0.013,11.60018 0,27.04405 -0.012,54.0909 0.012,81.1349 -2.2947,-0.011 -4.5861,0 -6.8746,0 0,-0.092 -0.012,-0.2826 -0.012,-0.3747 0.5682,-0.274 0.6396,-0.842 0.6272,-1.3726 -0.028,-18.6963 -0.012,-37.3928 0,-56.08919 0,-7.16541 0,-14.3308 0,-21.49624 -0.06,-4.39151 0.1179,-8.7859 -0.084,-13.17162 -0.1397,-0.0346 -0.413,-0.10091 -0.5527,-0.13551 l -0.062,-0.003 c -4.3284,-0.11822 -8.663,-0.0203 -12.9914,-0.052 -2.5709,0.0375 -5.1481,-0.0778 -7.7129,0.0606 l -0.09,0.009 c -0.015,0.92851 0,1.86273 -0.019,2.797 0.7328,1.07841 1.1333,2.32114 1.8661,3.40243 1.2203,1.86278 2.4499,3.71969 3.5521,5.64588 0.6676,1.13605 1.6394,2.07608 2.5182,3.07087 0.1894,0.0143 0.5682,0.0375 0.7577,0.049 -0.1122,0.91119 0.121,1.93771 -0.4689,2.74508 -0.8757,1.52244 -2.0928,2.86904 -2.8038,4.47224 0.3912,0.50173 0.7575,1.02648 1.1147,1.55997 0.4409,0.70644 0.885,1.41285 1.3382,2.1251 0.6149,0.83328 1.3414,1.60897 1.801,2.54319 l -0.04,0.14705 c 2.0803,1.25144 4.3873,2.15395 6.6199,3.15166 1.0525,0.34889 2.2448,1.27733 3.3471,0.54495 0.3447,-0.16725 0.6893,-0.32871 1.0495,-0.48728 l 0.1925,-0.22781 c 0.1925,1.07266 0.2639,2.15974 0.2639,3.24966 0,1.20824 -0.086,2.41637 -0.1894,3.61297 -2.5523,1.34947 -4.9587,2.918 -7.4427,4.3626 -0.975,0.041 -1.7574,0.5998 -2.5431,1.0612 -1.6517,0.966 -3.3192,1.906 -4.9618,2.8805 -1.1364,-0.9601 -2.3629,-1.8193 -3.4806,-2.7939 -0.4814,-0.3894 -0.6087,-0.992 -0.8168,-1.5168 -0.4657,-1.37823 -0.8134,-2.7969 -0.9097,-4.24149 -0.3323,0.88809 0.068,1.90302 0,2.84019 0.087,6.3811 0.1708,12.7621 0.3352,19.1404 -1.4562,0 -2.9093,0 -4.3593,0 -0.077,-4.2011 -0.2143,-8.3966 -0.2175,-12.5979 0.025,-2.9036 -0.071,-5.8043 -0.1303,-8.70219 -0.2453,-2.06458 -0.013,-4.15223 -0.354,-6.20527 -0.1677,-1.07265 -0.025,-2.15973 -0.1242,-3.23236 -0.2018,2.32404 0.1122,4.65388 0.065,6.98371 0.2329,3.97924 0.028,7.96701 0.2297,11.94901 0.012,1.6495 0.028,3.3016 0.06,4.9539 -1.0525,-0.011 -2.102,-0.011 -3.1484,0 -0.043,-7.6008 -0.2329,-15.19297 -0.3105,-22.79092 -1.2513,-1.06107 -1.7791,-2.61527 -2.6735,-3.90995 -1.0587,-1.55709 -1.835,-3.24389 -2.5864,-4.93937 0.019,2.90361 0.2949,5.80154 0.2546,8.70515 -0.4409,1.25146 -1.7823,2.29237 -1.4935,3.70817 0.1146,1.16201 0.4253,2.34432 0.118,3.50632 -0.2453,0.83043 -0.1894,1.68678 -0.208,2.54036 -0.3416,1.41284 -0.7701,2.80844 -0.9719,4.25014 -0.2795,-0.2941 -0.5558,-0.5825 -0.8259,-0.865 -0.4969,1.3927 -0.5714,3.3361 0.8104,4.3107 -0.022,1.6639 0.2484,3.3795 -0.295,4.9971 -0.7483,1.5398 0.8849,3.1113 0,4.6482 -0.5154,0.4556 -0.9564,1.0235 -0.7018,1.7242 0.3664,1.7936 0.5713,3.662 1.3259,5.3576 0.1863,0.078 0.5589,0.2307 0.7421,0.3085 -0.03,1.3033 -0.9657,2.3961 -2.071,3.0968 -1.6519,0.297 -3.3256,0.496 -4.9961,0.6546 -1.6581,-0.4066 -3.2106,-1.1217 -4.8221,-1.6551 0,-2.4971 0.1615,-4.9884 0.3105,-7.4768 0.2081,-1.2601 -1.1737,-2.2058 -0.8415,-3.4746 0.2081,-1.7473 0.2081,-3.5294 0.7825,-5.2161 0.1614,-1.4332 -0.1677,-2.8691 -0.1832,-4.3022 -0.1273,-1.4533 0.1211,-2.8979 0.3073,-4.3367 -0.8227,-0.037 -1.5244,-0.4296 -2.2107,-0.7987 0.5745,-4.60486 1.0279,-9.24732 0.8509,-13.88392 -0.012,-1.63776 -0.7018,-3.16892 -1.1738,-4.72022 -6.6416,0.46138 -13.305,0.6459 -19.9497,1.06977 0.015,22.94947 -0.012,45.89907 0.013,68.84557 -15.2176,-0.011 -30.4322,0 -45.65,-0.011 0.022,-27.0727 0,-54.14268 0.013,-81.21554 0,-0.76697 -0.012,-1.53403 -0.028,-2.29815 3.1889,0.19899 6.387,0.0404 9.579,0.0895 11.5972,0 23.1914,0 34.7855,0.0116 0.5217,0.0432 1.0154,-0.1413 1.4438,-0.41812 -2.0678,-0.20185 -4.1483,-0.0577 -6.2192,-0.10674 0.2762,-0.42677 0.5837,-0.83907 0.8166,-1.28601 -1.2762,-2.19145 -1.2514,-4.78081 -2.009,-7.13369 -0.03,2.8027 -0.037,5.61409 0.1334,8.41391 -2.0772,0.0143 -4.1514,0.0203 -6.2254,0.006 0.062,-2.90944 -0.174,-5.81596 -0.087,-8.72539 -20.723,-0.0807 -41.4522,0 -62.175,-0.0404 -0.028,30.89343 -0.019,61.78403 -0.015,92.67743 -15.2178,0.066 -30.4355,0.011 -45.6502,0.03 -0.012,-26.995 0.013,-53.99286 -0.012,-80.98789 0.096,-0.40081 0.2018,-0.79583 0.3229,-1.1851 0.019,26.80187 0.022,53.60359 0,80.40839 -0.012,0.4728 0.1802,0.9284 0.354,1.3753 0.3323,-2.941 0.065,-5.9082 0.1335,-8.8579 0.025,-27.3901 -0.015,-54.78015 0.022,-82.17021 0.096,-0.61704 -0.2764,-1.05822 -0.8508,-1.29465 -64.3244,0.26965 -43.6213,0.16955 -107.0673,0.006 -0.037,30.89632 -0.015,61.79266 -0.022,92.69196 -9.1289,0.037 -18.2576,0 -27.3864,0.017 0,-30.9021 0.013,-61.8071 -0.022,-92.7092 -2.779,0.0143 -5.5549,0.0172 -8.3307,-0.003 -0.06,30.90497 -0.022,61.807 -0.037,92.712 -0.7484,0 -1.4905,0 -2.2295,0 0.013,-27.0411 0,-54.08511 0.012,-81.12627 0,-3.76575 0.012,-7.53161 -0.012,-11.2974 v -0.27684 c -7.7501,0.009 -15.5033,0 -23.2535,0.003 -0.065,-3.49477 0.028,-6.99241 -0.043,-10.48718 0.094,-0.006 0.2764,-0.0143 0.3696,-0.0203 16.1057,0.075 32.2146,0.0116 48.3203,0.0315 105.0492,0 210.0952,-0.003 315.1444,0 13.5348,-0.029 27.0758,0.0606 40.6105,-0.0432 0.096,-0.0722 0.2856,-0.21062 0.3788,-0.27986 z m -111.9764,30.3283 c 0,-0.12395 0,-0.37481 0,-0.49883 -1.0463,-0.32585 -2.1207,-0.54789 -3.195,-0.74102 0.012,0.44115 0.028,0.89098 0.062,1.34364 1.0432,-0.0403 2.0896,-0.0721 3.136,-0.10382 z"
       id="path21963"
       inkscape:connector-curvature="0"
       sodipodi:nodetypes="cccccccccccccccccccccccccccccccccccccscccccccccccccccccccccccccccccccccccccccccccccccccccccccccccccccccccccccccccccccccccccccccc"
       style="fill:#afdde9;stroke-width:0.29921946" />
    <path
       style="fill:#afdde9;stroke-width:0.29921946"
       inkscape:connector-curvature="0"
       d="m 1588.9279,947.99023 c 1.5276,0.009 3.0771,-0.124 4.5892,0.17015 -13.5349,0.10382 -27.0758,0.0143 -40.6106,0.0432 -105.0491,-0.003 -210.0951,0 -315.1443,0 -16.1058,-0.0203 -32.2146,0.0432 -48.3203,-0.0315 1.4965,-0.27109 3.0243,-0.1961 4.5425,-0.18453 25.157,0.003 50.3107,0 75.4677,0.003 3.3533,-0.0894 6.7223,0.18454 10.0602,-0.1615 5.6481,-0.14708 11.3054,-0.0203 16.9566,-0.0634 7.3122,0.0432 14.6309,-0.0836 21.9399,0.0634 1.8755,0.27108 3.7758,0.13265 5.6668,0.15857 17.6055,0.003 35.2109,0 52.8133,0.003 7.4024,-0.0518 14.8048,0.0981 22.2041,-0.075 5.5673,-0.17015 11.1501,0.12394 16.7143,-0.15282 l 0.2173,0.0229 c 2.3506,0.39502 4.7507,0.1269 7.1262,0.20474 6.2006,-0.006 12.4014,-0.003 18.6051,-0.003 7.3621,-0.0432 14.7366,0.12684 22.0923,-0.17299 14.8918,-0.11248 29.7897,-0.0172 44.6844,-0.0491 3.1702,0.0807 6.3591,-0.17589 9.5169,0.15283 -0.1614,-0.6113 -0.4316,-1.17935 -0.7328,-1.7301 0.1273,-0.11244 0.3788,-0.34027 0.5031,-0.45267 0.2048,0.67471 0.2762,1.37248 0.3135,2.07607 0.1739,-0.006 0.5217,-0.0203 0.6925,-0.029 2.5988,-0.003 5.2009,-0.0865 7.7967,0.0432 1.6114,0.23645 3.2478,0.17014 4.8749,0.1615 19.1425,0.006 38.288,-0.003 57.4305,0.003 z"
       id="path21965" />
    <path
       style="fill:#afdde9;stroke-width:0.29921946"
       inkscape:connector-curvature="0"
       d="m 1547.982,1049.6267 c 0.012,0.5305 -0.059,1.0985 -0.6272,1.3725 -0.086,-6.8973 -0.015,-13.7974 -0.037,-20.6947 0.043,-11.0494 -0.09,-22.1074 0.065,-33.15402 0.1029,-1.1967 0.1894,-2.40484 0.1894,-3.61297 h 0.4037 c 0,18.69639 -0.022,37.39279 0.012,56.08919 z"
       id="path21985" />
    <path
       style="fill:#afdde9;stroke-width:0.29921946"
       inkscape:connector-curvature="0"
       d="m 1547.9757,972.04121 c 0,7.16544 0,14.33085 0,21.4962 h -0.4036 c 0,-1.08991 -0.071,-2.17699 -0.264,-3.24962 0.022,-6.68097 0,-13.36197 0.013,-20.04009 0.012,-3.83788 -0.03,-7.67579 0.019,-11.51366 0.1397,0.0346 0.413,0.10089 0.5527,0.13554 0.2018,4.38575 0.025,8.78016 0.084,13.17163 z"
       id="path21987" />
    <path
       style="fill:#afdde9;stroke-width:0.29921946"
       inkscape:connector-curvature="0"
       d="m 1547.2772,958.73115 c -3.4777,0.39506 -7.0019,0.0605 -10.4981,0.17303 -3.4001,-0.10383 -6.828,0.20471 -10.2063,-0.16432 2.5647,-0.13847 5.1419,-0.0229 7.7129,-0.0606 4.3284,0.0315 8.6631,-0.0663 12.9915,0.0518 z"
       id="path21991" />
    <path
       inkscape:connector-curvature="0"
       d="m 1525.7189,943.09702 c 0.6335,1.51093 0.7763,3.12568 0.9036,4.72886 -2.5957,-0.12975 -5.1977,-0.0461 -7.7967,-0.0432 -0.047,-0.85352 -0.084,-1.70414 -0.1304,-2.55477 -0.6054,0.003 -1.2358,0.009 -1.596,0.51905 0.053,0.10953 0.1646,0.32871 0.2174,0.44114 0.3012,0.55077 0.5713,1.1188 0.7328,1.73009 -3.1579,-0.32872 -6.3468,-0.072 -9.517,-0.15283 -14.8947,0.0315 -29.7926,-0.0634 -44.6844,0.0491 -0.2483,-0.37777 -0.4873,-0.74972 -0.7264,-1.11882 -0.2019,0.33739 -0.3975,0.67763 -0.5839,1.02078 -1.6176,0.0432 -3.2354,0.0432 -4.85,-0.003 -0.8694,-1.47921 -1.6735,-2.99303 -2.6579,-4.40594 -0.4688,-0.62861 -0.5775,-1.40426 -0.9564,-2.06458 -1.0278,-1.61186 -1.3103,-3.49473 -2.0152,-5.22772 -0.3756,-1.25143 -1.2233,-2.30099 -1.7543,-3.48323 -0.2235,-0.85638 -0.1987,-1.74449 -0.3073,-2.61239 l -0.028,-0.47291 c 0.3291,-0.96018 0.4564,-2.06169 1.2854,-2.79121 0.6148,-0.66317 1.4097,-1.20527 1.8693,-1.98381 0.3912,-0.97458 0.5775,-2.02128 1.1271,-2.93825 0.7203,-1.3927 1.9965,-2.41923 2.9839,-3.63607 0.5464,-0.63723 0.5993,-1.48496 0.8539,-2.23466 0.2764,-1.07266 0.8136,-2.05591 1.2141,-3.08531 0.4532,-1.17937 0.096,-2.50287 0.7048,-3.64472 0.919,-1.8627 1.4842,-3.84941 2.217,-5.77845 0.4657,-1.23702 0.7607,-2.52303 0.978,-3.81485 0.9253,-0.4498 2.0369,0.21627 2.8567,-0.46712 0.1428,-0.0315 0.4222,-0.0952 0.5651,-0.12686 1.0091,-0.34888 1.9779,-0.82178 3.0305,-1.06113 1.0713,-0.0952 2.1486,0.0143 3.2262,-0.0315 1.9095,-0.72951 3.4465,-2.15681 5.4772,-2.63835 1.9531,-0.49307 3.8999,-1.02364 5.7536,-1.79064 -0.065,-1.66953 0.2235,-3.32175 0.2359,-4.98552 0.022,-1.35235 0,-2.70181 0.1337,-4.0455 0.028,-0.11821 0.09,-0.3518 0.1178,-0.46998 0.1181,-0.43251 0.2329,-0.86502 0.3572,-1.29469 l 0.071,-0.26818 c 0.077,-0.34025 0.1521,-0.6805 0.2484,-1.01496 0.2421,-0.68917 0.6737,-1.30048 1.1395,-1.87716 1.1147,-1.30908 1.1054,-3.0853 1.9686,-4.51838 0.6334,-1.01499 0.8538,-2.1972 0.4161,-3.31885 0.5061,-0.82179 1.3009,-1.4129 2.1052,-1.96939 0.5402,-0.39216 1.0588,-0.81025 1.5649,-1.24854 0.081,-0.0229 0.2453,-0.0693 0.3291,-0.0923 1.891,-0.0577 3.4589,1.01496 5.1947,1.46479 1.4811,-0.22491 3.0523,0.16725 3.9434,1.35524 0.1708,0.47865 0.3632,0.96018 0.6024,1.42155 1.214,0.68339 2.897,0.88809 3.5521,2.17703 l 2.0369,5.76116 -0.1087,0.23931 c -1.0277,1.20817 -1.3538,2.95268 -0.2826,4.23583 -0.071,0.36042 -0.146,0.72373 -0.2205,1.08994 -0.1614,0.46425 -0.3633,0.91695 -0.5496,1.37253 0.043,-0.003 0.087,-0.006 0.1305,-0.009 0,0.006 -0.012,0.009 -0.012,0.0143 -0.1242,0.19894 -0.1957,0.41232 -0.2174,0.62571 -0.1986,0.60266 -0.3974,1.20816 -0.6055,1.81082 -0.2856,0.80161 -1.0619,1.28603 -1.6518,1.87423 -0.9129,0.88524 -1.773,1.81371 -2.72,2.66724 -0.5993,0.51325 -0.7421,1.30044 -1.0247,1.97804 -0.3757,1.10437 -0.9253,2.15396 -1.2171,3.2814 0.4377,0.77274 1.0991,1.47631 1.9903,1.81659 1.863,0.80157 3.4559,2.0732 5.3872,2.75658 2.0804,0.88234 4.3967,1.29756 6.2256,2.63835 1.0432,1.62055 0.708,3.53227 0.5651,5.31713 -0.1956,0.95733 -0.3664,1.95789 -0.9533,2.79122 -0.2794,0.42386 -0.6675,0.83616 -0.6396,1.36962 -0.1029,2.58648 0.3851,5.17294 1.2979,7.61524 0.1521,-0.0894 0.4626,-0.2682 0.6179,-0.35757 0.4099,2.18856 -0.385,4.34248 -1.7823,6.09274 1.273,0.11538 1.1706,1.54845 1.5929,2.38177 0.5775,1.86849 1.5246,3.67352 1.5587,5.65448 0.019,1.57723 0.4533,3.16313 0.1242,4.73175 0.1708,0.21339 0.3446,0.42963 0.534,0.64879 -0.012,0.18742 -0.013,0.55939 -0.019,0.7468 0.1429,0.0315 0.4316,0.0923 0.5745,0.12402 0.09,-0.32872 0.1864,-0.65165 0.2918,-0.97462 2.8909,0.0548 5.8749,-0.77565 8.7004,0.0634 z m -57.9614,-4.5213 c 0.6086,-1.85695 -1.1893,-3.33906 -1.0868,-5.15273 -0.022,-0.99194 -0.4781,-2.11072 0.3882,-2.90655 -0.559,-1.28314 -0.2794,-2.68162 -0.3447,-4.01955 -0.053,-0.86502 0.069,-1.7243 0.3974,-2.53169 -0.3011,0.20473 -0.6023,0.40947 -0.8942,0.61995 -0.1615,1.37829 -0.6893,2.7191 -1.478,3.89845 -1.2482,1.38117 -1.0618,3.33327 -1.0837,5.02876 0.1336,0.0375 0.3975,0.11533 0.531,0.15571 0.028,0.43251 0.1987,0.79583 0.7018,0.89963 -0.025,0.11247 -0.075,0.34314 -0.099,0.45561 l 0.4005,0.006 0.012,0.21624 c 0.09,0.14128 0.267,0.41812 0.354,0.55652 0.065,0.10674 0.1956,0.32007 0.2609,0.42387 l 0.3446,-0.0375 c -0.028,0.14417 -0.077,0.42676 -0.1052,0.57091 l 0.4037,-0.003 -0.075,0.34025 c 0.1863,0.072 0.5651,0.22202 0.7544,0.29701 -0.047,0.35178 -0.086,0.70934 -0.121,1.06977 0.1863,0.029 0.559,0.0865 0.7452,0.11248 z m -2.6983,8.65329 c 0.531,-0.0404 0.5651,-0.95729 0.05,-1.02938 -0.5278,0.072 -0.6489,0.96593 -0.05,1.02938 z"
       id="path21993"
       style="fill:#afdde9;stroke-width:0.29921946" />
    <path
       style="fill:#afdde9;stroke-width:0.29921946"
       inkscape:connector-curvature="0"
       d="m 1522.8624,997.58013 c 0.058,2.89787 0.1552,5.79857 0.1303,8.70227 -0.1122,0.2594 -0.2143,0.5248 -0.3136,0.7929 -0.2018,-3.982 0,-7.96985 -0.2298,-11.94899 0.047,-2.32993 -0.267,-4.65975 -0.065,-6.9838 0.099,1.07266 -0.043,2.1597 0.1241,3.23236 0.3416,2.05303 0.1087,4.14068 0.3541,6.20526 z"
       id="path21995" />
    <path
       style="fill:#afdde9;stroke-width:0.29921946"
       inkscape:connector-curvature="0"
       d="m 1514.1434,923.62784 c -0.1553,0.0895 -0.4658,0.26815 -0.6179,0.35759 -0.9128,-2.44232 -1.4004,-5.02879 -1.2979,-7.61526 -0.028,-0.53342 0.3602,-0.94577 0.6396,-1.36964 0.099,2.90074 0.2951,5.84767 1.2762,8.62731 z"
       id="path21999" />
    <path
       style="fill:#afdde9;stroke-width:0.29921946"
       inkscape:connector-curvature="0"
       d="m 1512.771,1023.5775 c -0.1832,-0.078 -0.5558,-0.2308 -0.7421,-0.3086 -0.7545,-1.6955 -0.9595,-3.564 -1.3259,-5.3576 -0.2546,-0.7006 0.1864,-1.2686 0.7018,-1.7242 -0.081,2.5173 0.8322,4.9451 1.3662,7.3904 z"
       id="path22001" />
    <path
       style="fill:#afdde9;stroke-width:0.29921946"
       inkscape:connector-curvature="0"
       d="m 1510.8925,1002.2311 c 0.2174,1.4446 0.6179,2.8604 0.8103,4.3108 -1.3817,-0.9746 -1.3071,-2.918 -0.8103,-4.3108 z"
       id="path22003" />
    <path
       style="fill:#afdde9;stroke-width:0.29921946"
       inkscape:connector-curvature="0"
       d="m 1508.4271,878.67171 c -0.071,0.61131 -0.1677,1.22259 -0.2982,1.82813 l -2.0367,-5.76117 c 0.034,0.0663 0.065,0.1384 0.093,0.21049 0.6644,1.27737 1.096,2.71909 2.2418,3.72255 z"
       id="path22005" />
    <path
       style="fill:#afdde9;stroke-width:0.29921946"
       inkscape:connector-curvature="0"
       d="m 1505.4866,873.35459 c 0.1925,0.46135 0.3913,0.92272 0.6056,1.38408 -0.6552,-1.28893 -2.3382,-1.49364 -3.5523,-2.17701 0.084,-0.0548 0.2547,-0.16148 0.3416,-0.21628 0.8881,0.28257 1.7388,0.65743 2.6051,1.00921 z"
       id="path22007" />
    <path
       style="fill:#afdde9;stroke-width:0.29921946"
       inkscape:connector-curvature="0"
       d="m 1501.7606,870.35867 c 0.043,0.19321 0.1304,0.58536 0.177,0.78143 -0.8912,-1.18798 -2.4623,-1.58015 -3.9434,-1.35524 -1.7357,-0.44983 -3.3038,-1.52245 -5.1947,-1.46479 1.7388,-0.74969 3.3845,0.44695 4.9525,1.01496 0.6987,0.34603 1.4625,-0.10663 2.1984,-0.0143 0.6489,0.25665 1.2203,0.6661 1.8102,1.03805 z"
       id="path22009" />
    <path
       style="fill:#afdde9;stroke-width:0.29921946"
       inkscape:connector-curvature="0"
       d="m 1465.1089,946.19963 c 0.5154,0.072 0.4813,0.989 -0.05,1.02938 -0.5993,-0.0634 -0.4782,-0.95729 0.05,-1.02938 z"
       id="path22023" />
    <path
       inkscape:connector-curvature="0"
       d="m 1449.9688,929.44667 0.028,0.4729 c -0.3199,4.57604 0,9.16365 -0.1367,13.74836 -13.1466,0.49596 -26.3056,0.70934 -39.4648,0.76123 -0.04,1.02075 -0.013,2.04727 0.1146,3.06515 -1.7823,0.24798 -3.5863,0.0865 -5.3779,0.12686 -1.7357,-0.0375 -3.5056,0.17011 -5.204,-0.25087 1.2017,-0.32006 2.4312,-0.55938 3.6856,-0.63435 0.1146,-0.13266 0.3478,-0.39217 0.4658,-0.52192 l 0.096,0.51038 c 0.03,0.17014 0.09,0.51039 0.1212,0.6776 0.3259,-0.0893 0.6519,-0.19317 0.978,-0.30561 0.1335,-0.79009 0.09,-1.58879 0.093,-2.38177 -0.2639,-0.0923 -0.5217,-0.17878 -0.7762,-0.25662 -3.338,-0.21628 -6.6852,-0.0952 -10.0262,-0.1759 -9.523,-0.12975 -19.0462,-0.3979 -28.5631,-0.72376 0.6334,-1.68971 0.2981,-3.49473 0.3508,-5.24215 0.037,-13.35044 -0.2142,-26.70088 -0.1645,-40.05134 -0.012,-1.50227 -0.081,-3.00455 -0.1738,-4.50108 27.6812,0.0375 55.3625,-0.0116 83.0407,0.0229 0.2266,-0.19896 0.4533,-0.39792 0.6862,-0.59687 0.034,8.60426 0.022,17.20564 0.05,25.80702 0.09,3.48324 -0.1832,6.97797 0.177,10.44968 z"
       id="path22025"
       style="fill:#afdde9;stroke-width:0.29921946" />
    <path
       style="fill:#afdde9;stroke-width:0.29921946"
       inkscape:connector-curvature="0"
       d="m 1449.7452,893.17267 v 0.0172 c -0.2329,0.19895 -0.4596,0.3979 -0.6863,0.5969 -27.6781,-0.0346 -55.3593,0.0143 -83.0406,-0.0229 -0.177,-0.009 -0.5341,-0.029 -0.7111,-0.0375 1.2886,-0.8737 2.9497,-0.42969 4.4246,-0.51039 26.6722,-0.0375 53.3444,0.0461 80.0165,-0.0434 z"
       id="path22027" />
    <path
       style="fill:#afdde9;stroke-width:0.29921946"
       inkscape:connector-curvature="0"
       d="m 1416.0248,947.7855 -0.2175,-0.0229 c -1.5959,-0.19893 -3.2105,-0.11823 -4.8127,-0.173 0.1145,-0.16154 0.3415,-0.48446 0.4533,-0.64592 1.3445,-0.0491 2.6796,0.35181 4.0335,0.16146 0.1862,0.21919 0.3539,0.4441 0.5434,0.68053 z"
       id="path22029" />
    <path
       style="fill:#afdde9;stroke-width:0.29921946"
       inkscape:connector-curvature="0"
       d="m 1415.4814,947.10504 c -1.3539,0.19027 -2.689,-0.21049 -4.0335,-0.16146 -0.1122,0.16146 -0.3385,0.48439 -0.4533,0.64588 1.6022,0.0548 3.2168,-0.0259 4.8127,0.17304 -5.5642,0.27679 -11.147,-0.0172 -16.7143,0.15283 0.053,-0.15573 0.1615,-0.4729 0.2142,-0.62865 0.1552,0.0203 0.4657,0.0606 0.621,0.0836 1.6984,0.42096 3.4683,0.21337 5.204,0.25086 1.7916,-0.0404 3.5956,0.12109 5.3779,-0.12687 0.3013,-0.31721 0.5899,-0.64592 0.885,-0.97175 1.3787,-0.0577 2.8379,-0.0519 4.0863,0.58249 z"
       id="path22031" />
    <path
       style="fill:#afdde9;stroke-width:0.29921946"
       inkscape:connector-curvature="0"
       d="m 1405.3683,944.71463 c 0,0.79298 0.04,1.59168 -0.094,2.38177 -0.3259,0.11244 -0.652,0.21627 -0.978,0.30561 -0.03,-0.16721 -0.09,-0.50746 -0.1211,-0.6776 0.1398,0.0491 0.416,0.14418 0.5527,0.19321 -0.012,-0.82468 -0.096,-1.64361 -0.1367,-2.45961 0.2547,0.0779 0.5123,0.16436 0.7763,0.25662 z"
       id="path22033" />
    <path
       style="fill:#afdde9;stroke-width:0.29921946"
       inkscape:connector-curvature="0"
       d="m 1366.1891,898.26486 c -0.05,13.35046 0.2017,26.7009 0.1645,40.05134 -0.053,1.74742 0.2826,3.55244 -0.3509,5.24215 l -0.3167,-0.029 c -0.058,-9.32512 -0.1211,-18.65315 -0.1645,-27.97825 -0.1211,-7.27499 0.037,-14.55287 -0.2174,-21.82496 0.1771,0.009 0.5341,0.029 0.7111,0.0374 0.093,1.49654 0.1676,2.99882 0.1739,4.50113 z"
       id="path22037" />
    <path
       style="fill:#afdde9;stroke-width:0.29921946"
       inkscape:connector-curvature="0"
       d="m 1357.467,958.66484 c 0.5745,0.23642 0.9471,0.6776 0.8508,1.29468 -0.037,27.39002 0,54.77998 -0.022,82.17008 -0.068,2.9498 0.1987,5.9169 -0.1335,8.858 -0.1739,-0.4469 -0.3602,-0.9025 -0.354,-1.3754 0.022,-26.8048 0.019,-53.60648 0,-80.40831 -0.1212,0.38928 -0.2267,0.78434 -0.3229,1.18514 -0.086,-3.90712 -0.053,-7.81708 -0.019,-11.72419 z"
       id="path22039" />
    <path
       style="fill:#afdde9;stroke-width:0.29921946"
       inkscape:connector-curvature="0"
       d="m 1212.3694,958.67638 v 0.27682 c -7.744,-0.12689 -15.4942,0 -23.238,-0.0634 l -0.019,-0.21049 c 7.7501,-0.003 15.5033,0.006 23.2535,-0.003 z"
       id="path22071" />
    <path
       sodipodi:nodetypes="ccccccccccccccccccccccccccccccccccccccccccccccccccccccccccccccccccccccccccccccccccccccccccccccccccccccccccccccccccccccccccccccccccccccccccccccccccccccccccccccccccccccccccccccccccccccccccccccccccccccccccccccccccccccccccccccccccccccccccccccccccccccccccccccccccccccccccccccccccccccccccccccccccccccccccccccccccccccccccccccccccccccccccccccccccccccccccccccccccccccccccccccccccccccccccccccccccccccccccccccccccccccccccccccccc"
       inkscape:connector-curvature="0"
       d="m 1210.736,1037.9429 c -0.2638,1.0957 -0.801,2.1222 -1.5928,2.9729 -1.3351,1.456 -2.484,3.0651 -3.9838,4.3914 -2.3722,2.1395 -5.3188,3.6563 -8.4053,4.7203 -1.4097,0.4613 -2.8721,0.7814 -4.2632,1.2975 0.065,0.4671 0.1367,0.9401 0.2112,1.4187 -3.3193,1.1447 -6.1635,3.3419 -9.7094,3.936 -0.3726,-0.9805 -0.8352,-1.9291 -1.1085,-2.9354 -1.2016,-0.5911 -0.9222,-1.9463 -1.1675,-2.9902 -0.298,-1.4331 -1.0371,-2.8143 -0.826,-4.305 0.1926,-1.7677 -0.3229,-3.7284 -1.7543,-4.9682 0.022,-0.92 -0.6489,-1.5773 -1.2109,-2.2521 -1.4035,-2.0674 -2.2077,-4.5069 -4.049,-6.3061 -1.3227,0.9256 -2.4747,2.0415 -3.7353,3.0362 -3.7447,-5.3977 -6.741,-11.2367 -10.8675,-16.401 -0.087,1.1504 0.019,2.3153 -0.1123,3.4687 -0.3509,0.5364 -1.0867,0.7354 -1.7171,0.8363 -3.2789,0.3576 -6.5237,-0.6228 -9.8025,-0.3404 -0.4534,1.4591 -1.1923,2.9383 -0.9067,4.4896 0.1584,0.6632 -0.6739,1.067 -0.6552,1.71 -0.1146,2.8805 -0.8415,5.7496 -0.5061,8.6446 -0.093,0.1239 -0.2795,0.3719 -0.3727,0.496 0.2857,0.9543 0.2113,1.9405 -0.1145,2.8805 l 0.77,-0.15 c -0.028,0.1327 -0.081,0.398 -0.1052,0.5307 0.4907,0.643 0.6459,1.4273 0.649,2.2116 0.3695,-0.011 0.7421,-0.011 1.1209,-0.011 0.177,0.075 0.5341,0.2192 0.7111,0.2941 0.4129,1.1044 0.7482,2.2347 1.2078,3.3276 -0.2235,0.2048 -0.4471,0.4152 -0.6644,0.6315 -0.3633,-1.3871 -0.8446,-2.8749 -2.0929,-3.8033 -0.1241,0.3459 -0.2576,0.6977 -0.3322,1.061 0.1584,0.3663 0.5216,0.6085 0.7918,0.9083 -0.3291,1.537 0.4067,3.0104 0.9346,4.432 0.385,0.6891 0.9067,1.2975 1.4532,1.8857 -0.1122,0.147 -0.3322,0.4412 -0.4409,0.5882 0.099,0.072 0.2949,0.2105 0.3943,0.2798 0.065,0.3921 0.1367,0.7843 0.2143,1.1822 1.3817,0.1065 2.3909,1.038 3.4931,1.7099 -0.053,0.8823 -0.205,1.7617 -0.1894,2.6498 0.8663,0.2827 1.804,0.075 2.7014,0.075 0.019,0.375 0.04,0.7526 0.065,1.1361 0.1894,0.023 0.5714,0.07 0.7638,0.096 -0.015,0.2711 -0.043,0.819 -0.058,1.09 -0.03,0.1702 -0.096,0.5074 -0.1273,0.6776 -3.7074,1.0294 -7.6756,1.1996 -11.4947,0.6719 -1.2079,-0.2337 -2.5399,-0.4586 -3.4497,-1.2976 -1.5494,-1.4504 -3.0616,-2.9325 -4.6265,-4.3656 -0.8694,-0.8103 -2.2946,-0.6142 -3.192,-1.3638 -1.0526,-1.1073 -0.8786,-2.6961 -1.2979,-4.0282 -0.357,-0.7382 -1.0401,-1.2775 -1.5711,-1.8974 -1.6643,0.096 -3.3161,0.274 -4.9742,0.4124 0.068,0.3258 0.1335,0.6517 0.205,0.989 0.4253,0.1183 0.8537,0.2394 1.2823,0.3662 0.5217,0.6517 1.0216,1.3265 1.5649,1.9665 0.04,0.7929 0.062,1.6205 -0.4006,2.3299 0.068,0.1268 0.2081,0.3834 0.2764,0.5131 0.09,2.4251 0.5837,4.9394 -0.3944,7.2779 -0.7389,0.1731 -1.4811,0.4181 -2.2542,0.3548 -0.3446,-0.4125 -0.5775,-0.8911 -0.9439,-1.2745 -0.3075,0.4469 -0.5807,0.917 -0.8508,1.3927 -1.27,0.081 -2.5181,-0.7872 -2.6207,-1.9954 -0.1955,-1.9377 0.5187,-3.8523 1.5184,-5.5276 0.7017,0.023 1.242,-0.2019 1.3134,-0.9228 -4.3376,-0.9284 -8.6724,-1.8713 -13.0069,-2.82 -1.8071,-0.3892 -3.9651,-1.3264 -5.5549,0.055 -3.1329,-0.3344 -6.2908,0.015 -9.3431,0.6862 -2.0616,0.3693 -4.0613,1.0353 -6.1603,1.2112 -1.4656,0.1817 -3.0926,0.1384 -4.2849,1.0842 l 0.9936,0.023 c -0.093,1.9868 0.053,4.0051 -0.4161,5.9602 -0.2422,0.9601 -1.1239,1.8108 -2.2294,1.8454 -1.1302,0.051 -2.2666,-0.064 -3.3813,-0.2336 -0.8787,-0.1355 -1.3041,-1.0063 -1.5494,-1.7042 -0.4534,-1.6925 -0.1491,-3.636 1.0836,-4.9912 0.4658,-0.5478 1.2544,-0.5824 1.9407,-0.5998 0.1122,-1.782 -0.4223,-4.0714 1.3009,-5.3487 0.5807,-0.1327 1.1427,-0.3144 1.711,-0.4846 0.024,-0.1182 0.077,-0.3546 0.1029,-0.4728 -3.0243,-0.1441 -6.03,-0.545 -9.0543,-0.7094 -0.037,1.9089 -0.1367,3.8235 -0.4006,5.7237 -0.1122,0.7238 -0.6148,1.4649 -1.4004,1.6869 -0.7234,0.017 -1.3911,-0.297 -2.071,-0.4788 -0.7701,0.1731 -1.7078,0.4009 -2.363,-0.1556 -1.1644,-0.8707 -1.1209,-2.399 -1.037,-3.6476 0.077,-1.3696 1.0588,-2.9814 2.7728,-2.696 0.1583,-0.2797 0.3167,-0.5535 0.4781,-0.8218 -0.1087,-1.3322 -0.019,-2.7652 0.7484,-3.9272 0.5184,-0.7815 1.6208,-0.3288 2.4188,-0.4124 8.8027,-0.015 17.6085,0 26.4113,-0.084 0.5061,-0.6171 0.9998,-1.2486 1.3072,-1.9723 -0.5403,-0.2307 -1.2513,-0.2451 -1.6022,-0.7469 0.028,-0.5592 0.3416,-1.0524 0.5993,-1.534 0.094,0.1731 0.2794,0.5219 0.3726,0.6949 0.025,-0.2046 0.077,-0.6199 0.1052,-0.8275 -0.3663,-0.1355 -0.7265,-0.2653 -1.0867,-0.395 0.037,-0.6171 0.1894,-1.2169 0.7762,-1.5859 0.037,0.196 0.1088,0.5912 0.1459,0.79 0.028,-0.3229 0.06,-0.6401 0.09,-0.9514 -0.3199,-0.1154 -0.6397,-0.2279 -0.9564,-0.3346 -0.068,-0.7267 0.1336,-1.3754 0.8601,-1.7328 -0.3043,-0.1848 -0.6117,-0.3663 -0.9097,-0.5394 0.1052,-0.5997 0.037,-1.3148 0.7172,-1.6378 0.037,0.2077 0.1122,0.62 0.149,0.8277 0.05,-0.2799 0.096,-0.5595 0.1491,-0.8304 -0.3322,-0.1501 -0.6613,-0.3 -0.9874,-0.4413 0.015,-0.4931 0.028,-0.9804 0.04,-1.4619 l 0.7513,-0.078 0.043,0.5592 c 0.062,-0.2334 0.1273,-0.467 0.1925,-0.6919 -0.3416,-0.1586 -0.6831,-0.3115 -1.0184,-0.4614 0.013,-0.5306 0.03,-1.0582 0.047,-1.5801 0.177,0.078 0.534,0.2306 0.711,0.3086 0.019,-0.1616 0.056,-0.4845 0.075,-0.646 -0.3478,-0.1356 -0.6956,-0.2711 -1.0403,-0.4008 0.2081,-0.5565 0.267,-1.2169 0.8228,-1.5946 0.062,0.1932 0.1926,0.5825 0.2578,0.7787 0.071,-0.3145 0.1428,-0.6258 0.2173,-0.9286 -0.4223,-0.11 -0.8445,-0.2192 -1.2636,-0.3172 0,-0.3575 0,-0.7065 0.012,-1.0525 0.4688,-0.2248 0.9314,-0.4613 1.3972,-0.692 -0.472,-0.1788 -0.9408,-0.3431 -1.4066,-0.5075 0.056,-0.4526 0.1146,-0.8909 0.18,-1.3321 0.2951,0 0.8882,0.011 1.1831,0.017 -0.1145,-0.6373 -0.8694,-0.6921 -1.3817,-0.9227 0.034,-0.4383 0.065,-0.8736 0.096,-1.3033 0.4471,-0.07 0.8942,-0.1385 1.3444,-0.2077 -0.4937,-0.2393 -0.9874,-0.4556 -1.4841,-0.6718 -0.1335,-0.9343 0.5185,-1.5051 1.3009,-1.9463 -0.4223,-0.075 -0.8445,-0.1443 -1.2638,-0.2077 0,-0.4728 0,-0.94 0,-1.4013 0.2423,0.011 0.7266,0.029 0.9689,0.037 0.022,-0.1586 0.065,-0.4728 0.087,-0.6314 -0.3385,-0.1211 -0.6707,-0.2508 -0.9936,-0.3865 -0.075,-0.3603 -0.096,-0.7209 -0.1367,-1.0727 0.5061,-0.1671 1.0495,-0.3142 1.3506,-0.7641 -0.4594,-0.09 -0.919,-0.173 -1.3754,-0.2479 0.013,-0.4555 0.015,-0.9054 0.075,-1.3465 0.4999,-0.2279 1.093,-0.1471 1.6332,-0.2192 -0.2732,-1.6752 0.2298,-3.2959 0.6458,-4.9048 -1.2947,-0.046 -2.6702,0.3085 -3.8998,-0.173 -0.9005,-0.346 -1.1178,-1.3005 -1.3166,-2.0818 0.1615,-0.09 0.4845,-0.2712 0.6459,-0.3605 -0.3571,-0.2595 -0.7142,-0.5306 -1.062,-0.7872 0.012,0.2508 0.025,0.7497 0.032,1.0005 -0.2297,0.038 -0.6924,0.1096 -0.9222,0.1472 -0.1428,-0.4124 -0.2919,-0.8219 -0.4346,-1.2255 -3.1424,0.5593 -6.2908,1.0899 -9.4332,1.6348 -0.8228,0.069 -1.4097,0.6344 -2.0182,1.0843 0,-0.1846 0,-0.5508 0,-0.7353 -0.5092,0.5449 -0.9936,1.1073 -1.5246,1.6379 v -1.0699 c -0.068,-0.012 -0.2018,-0.037 -0.2701,-0.049 -0.2112,0.5421 -0.3664,1.2746 -1.1457,1.2861 -1.0806,0.3806 -2.1766,0.04 -2.8194,-0.8275 -1.27,0.1527 -1.8227,-1.1015 -2.4344,-1.8974 -1.8847,-3.1371 -3.58,-6.48487 -4.024,-10.09211 -0.2858,-0.93422 -0.6055,-1.89732 -0.3106,-2.86901 -1.1426,-3.24104 -2.3753,-6.45034 -3.549,-9.68271 -2.276,-5.06913 -3.7944,-10.39487 -5.6294,-15.61109 -2.2418,-6.83672 -4.3874,-13.70223 -6.6045,-20.54466 -0.7358,-2.17991 -0.9904,-4.46364 -0.8537,-6.73868 -0.1123,-0.10674 -0.3292,-0.32296 -0.4379,-0.42965 -1.9189,-1.8887 -1.4066,-4.68565 -2.1518,-6.99818 -1.1582,-4.73176 -1.5401,-9.59042 -2.0462,-14.40868 -0.2484,-2.32986 0.7639,-4.9682 3.0926,-6.09564 0.9377,-0.0836 1.8971,-0.0404 2.8039,-0.3316 1.1798,-0.11534 2.4095,-0.12112 3.5304,0.2941 2.0865,0.67761 3.698,2.27219 5.8715,2.76237 0.1615,-2.07897 1.8879,-3.58126 2.453,-5.53337 0.4067,-1.23127 0.6428,-2.49999 0.916,-3.76004 0.1895,0.14994 0.3789,0.30277 0.5713,0.45847 0.531,-0.0315 1.065,-0.0634 1.5991,-0.0923 -0.1583,-1.26293 -0.8476,-2.37309 -1.214,-3.57837 -0.6769,-2.26928 -2.3444,-4.12624 -3.2044,-6.32344 -0.4441,-1.01499 -0.2018,-2.11358 -0.1894,-3.16894 0.03,-1.50228 0.1273,-2.99878 0.3229,-4.48956 0.7327,-3.85806 1.8941,-7.77091 4.3657,-11.00618 0.4626,0.0432 0.9253,0.0807 1.391,0.12112 0.1397,-0.29989 0.2794,-0.59402 0.4223,-0.88523 0.3788,-0.3691 0.7358,-0.76124 1.0712,-1.16493 0.7887,-0.0375 1.5556,-0.21049 2.3225,-0.36909 l 0.3292,-0.0346 c 0.2639,0.0315 0.7887,0.0923 1.0526,0.12111 -0.205,0.28547 -0.4036,0.5738 -0.6055,0.86218 1.4532,-0.13265 2.9095,-0.25088 4.3719,-0.25952 0.9812,0.29411 1.7636,1.01785 2.8193,1.12454 0.068,0.0404 0.2081,0.12401 0.2764,0.16725 -0.1584,0.10955 -0.4751,0.32581 -0.6303,0.43541 0.9873,0.59397 2.1176,0.93422 3.3037,0.95443 0.8881,0.39213 2.2295,0.84196 2.1457,1.95786 -0.4845,-0.91405 -1.3073,-1.53689 -2.3568,-1.81657 -0.047,0.56516 -0.4316,1.32638 0.3416,1.6234 0.028,0.12972 0.087,0.38924 0.1146,0.519 0.6085,0.46713 1.2233,0.9256 1.8505,1.3754 0.012,0.16436 0.032,0.48732 0.043,0.65168 0.354,0.19318 0.711,0.39217 1.0682,0.59111 -0.4566,0.11825 -0.9441,0.27391 -1.1148,0.72664 -0.1614,0.25084 -0.3198,0.50171 -0.4751,0.75834 0.1522,1.29757 -0.028,2.79696 0.9284,3.8725 0.062,0.0461 0.1895,0.13263 0.2546,0.17879 0.1926,0.0491 0.5807,0.14993 0.7763,0.19895 -0.2888,1.58013 -1.1457,3.16028 -0.6582,4.78079 0.2701,1.45614 1.1674,2.71044 1.9685,3.95899 -0.3508,0.65744 -0.8693,1.21395 -1.4748,1.68106 -0.6986,0.41234 -0.5154,1.16783 -0.4658,1.81947 0.205,0.0634 0.6211,0.1932 0.829,0.25662 -0.6148,1.25718 -1.065,2.56919 -1.4935,3.89269 0.1677,-0.12687 0.503,-0.37774 0.6707,-0.50176 -0.236,1.0467 -0.7545,2.07323 -0.5434,3.16896 0.2485,1.28893 -0.4067,2.62686 -1.6114,3.30735 -0.9409,0.63436 -2.1488,0.62571 -3.2573,0.55649 -0.2391,0.50463 -0.4905,1.00924 -0.7793,1.49363 0.3353,0.22203 0.6737,0.43541 1.0185,0.66321 -0.084,0.39503 -0.1708,0.78719 -0.2546,1.18799 2.5119,1.82236 4.1979,4.38862 6.2503,6.61756 2.3847,2.69602 4.9091,5.30269 6.9739,8.22653 0.5031,0.75547 1.0309,1.50227 1.6456,2.19141 1.0092,-1.76178 2.2171,-3.41401 3.2231,-5.17291 0.1428,0.12688 0.4254,0.3777 0.5651,0.50462 1.0153,-2.44519 1.2451,-5.10086 2.394,-7.5028 0.6862,-1.50807 1.1519,-3.10261 1.9561,-4.56165 0,0 4.5892,-2.65249 7.6602,-3.80328 0.7948,-1.04094 0.7948,-1.04094 0.7948,-1.04094 0,-0.20471 0.012,-0.60842 0.012,-0.81315 0.3974,0.11822 0.7917,0.2307 1.1986,0.35182 0.2825,1.57147 -0.3261,3.0651 -1.1365,4.41456 0.053,0.70645 0.1304,1.4273 -0.071,2.12512 -0.6863,2.07034 0.562,4.16663 0.2608,6.25998 -0.7204,2.43079 -3.1267,3.84656 -4.9897,5.48727 -1.4843,1.24277 -2.5803,2.96132 -2.6922,4.8442 0.3168,0.68052 0.8974,1.21684 1.3725,1.80506 0.6582,0.72089 1.1644,1.64936 2.1828,1.99824 -1.9344,2.58648 -3.7384,5.25369 -5.44,7.97856 1.2948,0.0836 1.7947,-1.21106 2.7418,-1.78487 1.2668,0.0229 2.515,-0.23355 3.7261,-0.55652 0.3167,-0.73237 0.7607,-1.41001 1.2761,-2.03573 0.857,-0.009 1.655,-0.31719 2.3908,-0.70642 0.7048,-1.22837 2.1021,-1.86274 3.1641,-2.7739 0.4223,0.0952 0.8352,0.20761 1.2668,0.29697 0.6925,-0.49017 1.3072,-1.06975 1.9345,-1.62914 0.3383,-1.03805 0.9283,-2.04727 1.8599,-2.71912 1.1239,-0.57091 2.3815,-0.85349 3.6018,-1.20238 1.6984,-0.47579 3.4434,-0.88813 5.2382,-0.77279 -0.056,0.82757 -0.4131,1.68684 -1.2421,2.09918 -1.1085,0.52768 -2.4032,0.70356 -3.3814,1.46768 1.7606,1.11878 3.7075,2.04148 5.8468,2.30392 1.9189,0.23931 3.7602,0.82754 5.4337,1.73585 -0.012,0.24218 -0.015,0.72662 -0.022,0.96885 -2.0307,0.0203 -3.962,-0.66032 -5.9771,-0.71802 -0.6334,-0.0634 -1.0681,0.40366 -1.537,0.70931 3.0957,0.89677 6.5143,0.45847 9.4765,1.84542 -0.2266,0.54498 -0.4564,1.09573 -0.6924,1.64071 -3.0522,0.78141 -6.2069,1.98961 -9.4144,1.20242 -2.6051,0.17301 -5.0736,-0.90541 -7.6849,-0.65168 -0.068,0.0836 -0.2111,0.25088 -0.2794,0.3345 -0.3851,0.34599 -0.5559,0.816 -0.3913,1.30331 0.3261,1.75891 0.6179,3.53802 1.2793,5.22194 -2.0524,0.9573 -3.931,2.19435 -5.7226,3.52362 -2.7852,2.177 -6.3373,3.37941 -8.84,5.88226 1.0588,0.74395 1.8972,1.7041 2.7573,2.63549 0.9812,0.62281 2.2542,0.46423 3.2789,0.99768 1.3414,0.56227 2.2542,1.75605 3.6608,2.20584 -0.1122,0.34312 -0.239,0.69777 -0.3105,1.0582 1.6923,1.139 3.7477,1.69548 5.7381,2.21163 2.7417,0.5767 5.4928,1.31488 8.3307,1.25144 3.5366,0.18743 7.0733,0.31143 10.6068,0.5421 2.5803,0.18453 5.1885,-0.0836 7.7471,0.35753 1.6487,0.26819 3.3875,0.31146 4.9121,1.02655 0.7856,0.3489 1.4128,0.91981 2.0835,1.4273 0.1052,0.029 0.3198,0.0836 0.4253,0.11247 0.047,0.0116 0.1367,0.0346 0.1802,0.0461 0.012,0.0778 0.019,0.23641 0.024,0.31717 1.5308,1.37253 2.2946,3.32464 2.6951,5.22773 0.1894,2.22604 -0.1087,4.45494 -0.1862,6.68099 1.5276,2.42494 2.9901,4.88455 4.5333,7.30093 0.2639,0.45271 0.531,0.90543 0.7979,1.36387 0.3105,0.47292 0.621,0.95156 0.9285,1.43592 0.081,0.13563 0.2391,0.4124 0.3167,0.55079 0.2019,0.29127 0.4037,0.58825 0.6086,0.88809 0.081,0.14135 0.2421,0.42394 0.3229,0.56518 0.3137,0.47578 0.6272,0.95442 0.9377,1.44173 0.1522,0.23065 0.3075,0.46425 0.4658,0.70062 0.1459,0.24799 0.2949,0.49889 0.4472,0.75549 0.1582,0.2249 0.3197,0.4556 0.4843,0.692 0.3043,0.4845 0.6148,0.9688 0.9284,1.4562 0.7204,1.1332 1.4376,2.2721 2.1766,3.3995 0.354,0.5537 0.7141,1.1073 1.0619,1.6696 0.3106,0.4816 0.6211,0.9631 0.9284,1.4532 1.1676,1.8915 2.4188,3.7371 3.7291,5.5479 l 0.1335,0.042 c 0.913,1.3207 2.0525,2.5375 2.6705,4.0167 -1.7886,1.8454 -3.5802,3.7341 -4.8564,5.9342 -0.4937,0.6401 -0.087,1.3955 0.1243,2.0615 0.5837,0.7209 1.1363,1.4678 1.6735,2.2261 0.2671,0.2539 0.531,0.5104 0.8074,0.7728 l -0.09,0.2941 0.4316,-0.09 c 0,0.1067 -0.012,0.3172 -0.013,0.424 0.5714,0.4094 1.0651,0.9168 1.3134,1.5598 0.2328,0.1125 0.4657,0.2278 0.7048,0.349 0.1398,0.6862 0.8509,1.0063 1.3663,1.4301 0.8849,0.6085 1.6456,1.3553 2.4933,2.007 0.4409,0.055 0.8942,0.04 1.3476,0.072 0.4223,0.5824 1.1271,0.7094 1.7823,0.3778 -0.2671,-0.1442 -0.8073,-0.4355 -1.0743,-0.5796 l 0.2545,-0.03 c 1.4284,-0.066 2.6549,0.5967 3.5211,1.6146 0.2361,-0.2047 0.4752,-0.4065 0.7142,-0.5998 0.3322,0.098 0.6676,0.199 1.0092,0.3058 -0.3696,0.2681 -0.739,0.5362 -1.1147,0.8014 0.5619,0.1701 1.1177,0.3404 1.6922,0.5047 0,-0.4009 -0.012,-0.7959 -0.019,-1.188 0.4129,0.5305 0.9439,0.9891 1.5649,1.3177 0.7328,0.1673 1.4718,0.3085 2.2325,0.3691 -0.09,-0.2941 -0.18,-0.5854 -0.2608,-0.8708 0.4006,-0.2364 0.8011,-0.4758 1.2017,-0.7151 0.8569,0.2306 1.7698,0.5046 2.5182,-0.1211 1.2419,-0.1528 2.4964,-0.5133 3.7601,-0.2941 0.708,0.1845 1.3693,0.4989 2.0369,0.7901 l -0.094,0.297 c 0.1988,0 0.5961,-0.015 0.7949,-0.02 z m -71.4558,-26.4069 c 1.0649,-3.9387 2.1425,-7.9324 2.1766,-12.01825 -2.4499,-0.94575 -3.9185,-3.10258 -5.9647,-4.55585 -0.2764,-0.12686 -0.5341,-0.53059 -0.8663,-0.3027 -0.3043,0.73235 -0.4502,1.52246 -0.8074,2.24043 -0.3321,0.7151 -1.1985,0.98034 -1.9188,1.24272 -2.9684,0.89094 -6.2876,0.21625 -9.1568,1.46194 -1.3755,0.70931 -1.1209,2.37591 -1.3817,3.59571 -0.2918,1.6522 -2.456,1.6609 -3.6639,2.4826 0.037,0.6142 1.0215,1.8743 -0.1926,1.9723 -0.18,0.1384 -0.3508,0.2855 -0.5091,0.4441 0.1146,1.1389 0.5744,2.2174 0.7514,3.3505 0.1122,-0.017 0.3354,-0.057 0.4471,-0.075 0.065,0.8161 0.1053,1.635 0.1123,2.4597 -1.0061,0.5449 -2.0153,1.1533 -3.164,1.384 -0.8571,0.2077 -1.5091,-0.5161 -1.7327,-1.1938 -0.5309,-1.4417 -0.7204,-2.9642 -1.0154,-4.4549 -0.7855,0.2019 -1.5679,0.4239 -2.335,0.6776 -0.1273,0.1615 -0.3849,0.4902 -0.5122,0.6516 -0.9843,0 -1.9655,-0.2709 -2.9435,-0.075 -0.043,0.3778 -0.084,0.7584 -0.1181,1.1478 0.8383,0.2709 1.7171,0.4007 2.6082,0.369 0.053,0.4037 0.1179,0.8102 0.1956,1.2225 -0.4067,0.1212 -0.8135,0.248 -1.214,0.3837 -0.012,0.1643 -0.022,0.4959 -0.028,0.663 0.3633,0.087 0.7266,0.1761 1.0961,0.2624 0.068,0.323 0.1366,0.6488 0.2081,0.9833 -0.4472,0.1269 -0.8912,0.2624 -1.3291,0.4066 -0.1052,0.6085 0.4286,1.1361 1.0806,0.79 0.062,0.2393 0.1801,0.7181 0.2423,0.9544 -0.6242,0.2509 -1.534,0.4008 -1.267,1.2285 0.2485,-0.021 0.7422,-0.066 0.9906,-0.087 0.071,0.3835 0.149,0.7727 0.2329,1.1649 -0.4006,0.1153 -0.798,0.2365 -1.1955,0.3633 -0.022,0.1529 -0.062,0.4585 -0.084,0.6113 0.3695,-0.015 0.7453,-0.026 1.1179,-0.034 0.065,0.4209 0.1335,0.8449 0.2049,1.2775 -0.4254,0.1152 -0.8445,0.2537 -1.2606,0.3978 0.013,0.1529 0.034,0.4585 0.043,0.6113 0.4099,-0.017 0.8166,-0.031 1.2296,-0.046 -0.022,0.3922 -0.053,0.7872 -0.094,1.188 -0.4626,0.2249 -1.1426,0.3115 -1.2077,0.9026 0.3632,0.1931 0.7637,0.2566 1.2047,0.1931 0.047,0.3691 0.1029,0.7468 0.1676,1.1275 -0.5557,0.2191 -1.4314,0.1816 -1.4158,0.9631 0.4626,-0.017 0.9283,-0.04 1.3973,-0.072 -0.081,0.666 0.1459,1.511 -0.7577,1.7732 l 0.019,-0.3229 c -0.3167,0.225 -0.5248,0.5451 -0.68,0.8825 0.4254,0.026 0.8508,0.055 1.2824,0.087 0.013,0.3777 0.028,0.7612 0.043,1.1504 -0.5124,0.1182 -0.8539,0.3952 -1.0185,0.8305 0.2918,-0.017 0.8756,-0.051 1.1674,-0.07 -0.028,0.4641 -0.047,0.9342 -0.068,1.41 -0.3353,0.1355 -0.6707,0.2767 -1.003,0.4239 0.025,0.1384 0.077,0.4152 0.1029,0.5535 0.2454,-0.09 0.7391,-0.2681 0.9844,-0.3546 -0.1052,0.6228 0.208,1.4389 -0.4596,1.8684 0.2297,0.5248 0.4534,1.0554 0.6863,1.586 -0.3105,0.1788 -0.621,0.3633 -0.9285,0.5507 l -0.121,-0.1211 c -0.09,0.1557 -0.2702,0.4642 -0.3602,0.62 0.3912,0.17 0.7825,0.3373 1.183,0.5104 -0.037,0.2047 -0.1087,0.6199 -0.1459,0.8246 -0.4378,0.1297 -1.0682,0.1615 -1.2266,0.6575 0.4907,0.5333 1.0993,0.9716 1.6551,1.4531 -0.5341,0.1818 -1.0682,0.372 -1.5991,0.5566 -0.015,0.4297 -0.028,0.8593 -0.04,1.2947 0.056,0.011 0.1707,0.03 0.2266,0.04 0.4192,0.5507 1.1272,0.7382 1.8196,0.7843 5.4275,0.2105 10.8582,0.3922 16.292,0.4469 l 0.019,-0.3979 c 0.444,-2.6701 1.7078,-5.2105 3.754,-7.1453 1.9717,-1.8568 3.782,-3.9733 4.4961,-6.5453 0.4781,-1.3064 0.6986,-2.7163 1.5557,-3.8726 1.1209,-1.3322 -0.6366,-3.5784 1.3009,-4.4608 0.03,-1.952 -0.028,-3.9042 0.1052,-5.8534 0.1459,-0.087 0.4379,-0.2594 0.5838,-0.3461 0.4099,-1.6808 0.5838,-3.3994 1.003,-5.0748 z m -32.7269,-1.5282 c -0.022,-0.1759 -0.062,-0.5276 -0.084,-0.7007 -0.2391,0.2221 -0.4782,0.4469 -0.7142,0.6777 0.1988,0 0.5993,0.017 0.798,0.023 z m -16.941,-126.80904 c 0.1769,-0.47001 0.013,-0.62572 -0.4999,-0.47579 -0.1833,0.46136 -0.015,0.61997 0.4999,0.47579 z m -8.1135,123.97454 c 0.1895,-0.4815 0.034,-0.6372 -0.472,-0.4699 -0.1924,0.4729 -0.037,0.6285 0.472,0.4699 z m -7.4148,-8.19471 c 0.1491,0.0256 0.444,0.0719 0.5931,0.0986 -0.652,-1.733 -1.1706,-3.51203 -1.981,-5.18452 0.2049,1.74454 0.7421,3.43999 1.3879,5.08644 z"
       id="path22073"
       style="fill:#afdde9;stroke-width:0.29921946" />
    <path
       style="fill:#afdde9;stroke-width:0.29921946"
       inkscape:connector-curvature="0"
       d="m 1196.5679,1037.0836 -0.1459,-0.011 c -0.3416,-0.1066 -0.677,-0.2076 -1.0092,-0.3056 -0.2391,0.1932 -0.4782,0.3951 -0.7142,0.5999 -0.8663,-1.0179 -2.0927,-1.6812 -3.5211,-1.6149 1.4625,-0.124 2.8846,-0.767 4.3657,-0.6141 1.0029,0.098 0.6676,1.3436 1.0247,1.9463 z m -3.2013,-0.9284 c 0.9345,0.1815 1.9313,0.4324 2.8255,-0.049 -0.5775,-0.8852 -2.4188,-1.0295 -2.8255,0.049 z"
       id="path22075" />
    <path
       style="fill:#afdde9;stroke-width:0.29921946"
       inkscape:connector-curvature="0"
       d="m 1196.1921,1036.1061 c -0.8942,0.4815 -1.891,0.2306 -2.8255,0.049 0.4067,-1.0784 2.248,-0.9343 2.8255,-0.049 z"
       id="path22077" />
    <path
       style="fill:#afdde9;stroke-width:0.29921946"
       inkscape:connector-curvature="0"
       d="m 1155.0786,1059.3525 c 0.2981,0.8103 0.7172,1.6523 0.3943,2.5202 0.015,-0.2711 0.043,-0.8189 0.058,-1.0899 -0.1926,-0.026 -0.5744,-0.072 -0.7639,-0.096 -0.025,-0.3835 -0.047,-0.7612 -0.065,-1.1361 -0.8973,0 -1.835,0.2076 -2.7013,-0.075 -0.015,-0.8882 0.1366,-1.7676 0.1894,-2.6499 -1.1023,-0.6719 -2.1114,-1.6032 -3.4932,-1.7099 -0.077,-0.3979 -0.149,-0.7901 -0.2143,-1.1822 -0.099,-0.07 -0.2949,-0.2077 -0.3942,-0.2797 0.1087,-0.147 0.3291,-0.4412 0.4409,-0.5883 -0.5464,-0.5882 -1.0681,-1.1965 -1.4532,-1.8858 0.096,-0.1759 0.2919,-0.5305 0.3913,-0.7064 0.6893,1.3004 1.4997,2.5894 1.5338,4.0916 1.1892,0.5047 2.3412,1.0986 3.341,1.8944 -0.032,0.969 0.043,1.9406 0.1242,2.9096 0.8508,-0.3664 1.7606,-0.3951 2.6114,-0.017 z"
       id="path22079" />
    <path
       style="fill:#afdde9;stroke-width:0.29921946"
       inkscape:connector-curvature="0"
       d="m 1147.4681,1050.4744 c -0.099,0.1759 -0.2949,0.5306 -0.3912,0.7064 -0.5278,-1.4215 -1.2637,-2.8949 -0.9346,-4.4317 -0.2701,-0.3 -0.6334,-0.5422 -0.7917,-0.9084 0.075,-0.3633 0.2079,-0.7151 0.3322,-1.0611 0.8569,1.8252 1.0743,3.8234 1.7853,5.6948 z"
       id="path22081" />
    <path
       style="fill:#afdde9;stroke-width:0.29921946"
       inkscape:connector-curvature="0"
       d="m 1126.2267,1052.0373 c 1.1923,-0.017 1.6581,1.0062 1.5649,1.9665 -0.5434,-0.6402 -1.0433,-1.3149 -1.5649,-1.9665 z"
       id="path22085" />
    <path
       style="fill:#afdde9;stroke-width:0.29921946"
       inkscape:connector-curvature="0"
       d="m 1126.4813,1044.8343 -0.019,0.3979 c -5.4338,-0.055 -10.8645,-0.2364 -16.2921,-0.4469 -0.6924,-0.046 -1.4003,-0.2336 -1.8195,-0.7844 2.8442,0.4615 5.7474,0.5364 8.632,0.571 3.1702,-0.023 6.328,0.2422 9.4983,0.2624 z"
       id="path22087" />
    <path
       style="fill:#afdde9;stroke-width:0.29921946"
       inkscape:connector-curvature="0"
       d="m 1126.2671,950.04039 -0.2081,0.11535 c -0.6613,-1.68399 -0.9533,-3.46304 -1.2793,-5.22198 -0.1645,-0.48729 0,-0.95729 0.3913,-1.30332 0.6893,2.07034 1.093,4.23872 1.0961,6.40995 z"
       id="path22089" />
    <path
       style="fill:#afdde9;stroke-width:0.29921946"
       inkscape:connector-curvature="0"
       d="m 1117.5046,1007.6549 c 0.6334,1.9666 1.1273,4.0081 0.9657,6.0726 l -0.1645,0.1066 c 0,-0.8246 -0.047,-1.6435 -0.1122,-2.4595 -0.1123,0.017 -0.3354,0.057 -0.4472,0.075 -0.177,-1.1332 -0.6366,-2.2117 -0.7514,-3.3506 0.1583,-0.1587 0.3291,-0.3057 0.5092,-0.4442 z"
       id="path22093" />
    <path
       style="fill:#afdde9;stroke-width:0.29921946"
       inkscape:connector-curvature="0"
       d="m 1108.7796,1038.1649 c 0.3167,0.4037 0.9625,0.7323 0.8694,1.309 -0.012,0.2163 -0.1428,0.3836 -0.2949,0.5422 l -0.019,-0.017 c 0.037,-0.2047 0.1087,-0.6199 0.1459,-0.8246 -0.4006,-0.1731 -0.7919,-0.3404 -1.183,-0.5105 0.09,-0.1556 0.27,-0.4641 0.3602,-0.6199 l 0.121,0.1212 z"
       id="path22105" />
    <path
       style="fill:#afdde9;stroke-width:0.29921946"
       inkscape:connector-curvature="0"
       d="m 1108.6305,1029.8 c 1.1738,-0.2452 0.8571,0.8044 0.8725,1.4734 l -0.1862,0.092 c -0.015,-0.3892 -0.03,-0.7727 -0.043,-1.1503 -0.4316,-0.032 -0.857,-0.061 -1.2824,-0.087 0.1553,-0.3374 0.3633,-0.6575 0.68,-0.8825 l -0.019,0.3229 z"
       id="path22107" />
    <path
       style="fill:#afdde9;stroke-width:0.29921946"
       inkscape:connector-curvature="0"
       d="m 1109.3354,1039.9988 0.019,0.017 c -0.1123,0.1211 -0.2391,0.2336 -0.3291,0.3633 0.2546,0.568 0.5061,1.1477 0.7389,1.73 -0.5557,-0.4815 -1.1644,-0.9197 -1.6549,-1.4532 0.1583,-0.4958 0.7886,-0.5278 1.2265,-0.6574 z"
       id="path22109" />
    <path
       style="fill:#afdde9;stroke-width:0.29921946"
       inkscape:connector-curvature="0"
       d="m 1106.4695,1009.3071 c 0.022,0.1731 0.062,0.5248 0.084,0.7007 -0.1987,0 -0.5992,-0.017 -0.798,-0.023 0.236,-0.2307 0.475,-0.4556 0.7141,-0.6776 z"
       id="path22111" />
    <path
       style="fill:#afdde9;stroke-width:0.29921946"
       inkscape:connector-curvature="0"
       d="m 1091.1741,898.82139 c 0.1335,0.68913 0.2701,1.37541 0.3632,2.07609 -0.208,-0.0634 -0.624,-0.19318 -0.829,-0.25662 -0.05,-0.65169 -0.2329,-1.40713 0.4658,-1.81947 z"
       id="path22113" />
    <path
       style="fill:#afdde9;stroke-width:0.29921946"
       inkscape:connector-curvature="0"
       d="m 1089.8544,883.39194 c 0.1181,1.54555 0.8509,3.07379 0.4534,4.63084 -0.9563,-1.07551 -0.7763,-2.5749 -0.9284,-3.87248 0.1553,-0.25663 0.3136,-0.50749 0.475,-0.75836 z"
       id="path22115" />
    <path
       style="fill:#afdde9;stroke-width:0.29921946"
       inkscape:connector-curvature="0"
       d="m 1089.1124,882.72297 c 0.5123,-0.14993 0.6768,0.006 0.4999,0.47579 -0.5154,0.14418 -0.6832,-0.0143 -0.4999,-0.47579 z"
       id="path22117" />
    <path
       style="fill:#afdde9;stroke-width:0.29921946"
       inkscape:connector-curvature="0"
       d="m 1087.7617,877.76341 c -1.1862,-0.0203 -2.3163,-0.36042 -3.3037,-0.9544 0.1552,-0.10954 0.4719,-0.32586 0.6302,-0.43541 0.8818,0.47287 1.7886,0.91406 2.6735,1.38981 z"
       id="path22119" />
    <path
       style="fill:#afdde9;stroke-width:0.29921946"
       inkscape:connector-curvature="0"
       d="m 1082.1757,874.75595 c 1.0123,0.22492 1.8413,0.85353 2.6363,1.45041 -1.0558,-0.10674 -1.8383,-0.83043 -2.8195,-1.12454 -0.8508,-0.20764 -1.7294,-0.28836 -2.602,-0.372 0.9253,-0.0172 1.863,-0.0952 2.7852,0.0461 z"
       id="path22121" />
    <path
       style="fill:#afdde9;stroke-width:0.29921946"
       inkscape:connector-curvature="0"
       d="m 1081.0268,1006.7034 c 0.5062,-0.1673 0.6615,-0.012 0.472,0.4699 -0.5091,0.1586 -0.6644,0 -0.472,-0.4699 z"
       id="path22123" />
    <path
       style="fill:#afdde9;stroke-width:0.29921946"
       inkscape:connector-curvature="0"
       d="m 1078.4311,874.19947 c -0.3136,0.0404 -0.9439,0.11823 -1.2576,0.15858 l -0.3291,0.0346 c -0.022,-0.14994 -0.068,-0.44695 -0.09,-0.59688 0.5838,0.0229 1.2048,0.0259 1.6767,0.4037 z"
       id="path22125" />
    <path
       style="fill:#afdde9;stroke-width:0.29921946"
       inkscape:connector-curvature="0"
       d="m 1074.6771,999.07657 c -0.1491,-0.0256 -0.444,-0.072 -0.5931,-0.0976 -0.6458,-1.64645 -1.183,-3.3419 -1.3879,-5.08634 0.8104,1.67239 1.329,3.45142 1.981,5.18442 z"
       id="path22127" />
    <path
       style="fill:#afdde9;stroke-width:0.29921946"
       inkscape:connector-curvature="0"
       d="m 1062.1888,911.93249 c 1.2606,0.77566 2.6858,1.31775 3.8283,2.25202 -2.1734,-0.49021 -3.785,-2.08477 -5.8715,-2.76237 -1.1209,-0.41523 -2.3505,-0.40948 -3.5304,-0.29411 0.1211,-0.0721 0.3602,-0.21628 0.4813,-0.28837 1.7885,-0.37484 3.608,0.17014 5.0923,1.09283 z"
       id="path22129" />
    <rect
       style="opacity:1;fill:#afdde9;fill-opacity:0.97647059;stroke:#f2f2f2;stroke-width:0.81790155;stroke-linecap:round;stroke-linejoin:round;stroke-miterlimit:4;stroke-dasharray:none;stroke-dashoffset:1.91999972;stroke-opacity:1"
       id="rect1624"
       width="795.52057"
       height="15.79089"
       x="-241.29738"
       y="1251.968"
       transform="matrix(0.62420502,-0.78126058,0.81497893,0.57949059,0,0)" />
    <rect
       style="opacity:1;fill:#afdde9;fill-opacity:0.97647059;stroke:#f2f2f2;stroke-width:0.81790155;stroke-linecap:round;stroke-linejoin:round;stroke-miterlimit:4;stroke-dasharray:none;stroke-dashoffset:1.91999972;stroke-opacity:1"
       id="rect1624-4"
       width="795.52057"
       height="15.79089"
       x="-294.99243"
       y="1284.2614"
       transform="matrix(0.62420502,-0.78126058,0.81497893,0.57949059,0,0)" />
    <rect
       style="opacity:1;fill:#afdde9;fill-opacity:0.97647059;stroke:#f2f2f2;stroke-width:0.81790155;stroke-linecap:round;stroke-linejoin:round;stroke-miterlimit:4;stroke-dasharray:none;stroke-dashoffset:1.91999972;stroke-opacity:1"
       id="rect1624-3"
       width="795.52057"
       height="15.79089"
       x="-347.98294"
       y="1317.4106"
       transform="matrix(0.62420502,-0.78126058,0.81497893,0.57949059,0,0)" />
    <rect
       style="opacity:1;fill:#afdde9;fill-opacity:0.97647059;stroke:#f2f2f2;stroke-width:0.81790155;stroke-linecap:round;stroke-linejoin:round;stroke-miterlimit:4;stroke-dasharray:none;stroke-dashoffset:1.91999972;stroke-opacity:1"
       id="rect1624-3-4"
       width="795.52057"
       height="15.79089"
       x="-238.95062"
       y="1910.6588"
       transform="matrix(0.62420502,-0.78126058,0.81497893,0.57949059,0,0)" />
  </g>
</svg>
