<?xml version="1.0" encoding="UTF-8" standalone="no"?>
<svg
   xmlns:dc="http://purl.org/dc/elements/1.1/"
   xmlns:cc="http://creativecommons.org/ns#"
   xmlns:rdf="http://www.w3.org/1999/02/22-rdf-syntax-ns#"
   xmlns:svg="http://www.w3.org/2000/svg"
   xmlns="http://www.w3.org/2000/svg"
   xmlns:sodipodi="http://sodipodi.sourceforge.net/DTD/sodipodi-0.dtd"
   xmlns:inkscape="http://www.inkscape.org/namespaces/inkscape"
   viewBox="0 0 78 78"
   height="78"
   width="78"
   xml:space="preserve"
   id="svg2"
   version="1.1"
   sodipodi:docname="graduation-symbol-publicdomainvectors.org.svg"
   inkscape:version="0.92.4 (5da689c313, 2019-01-14)"
   inkscape:export-filename="D:\wamp\www\chamilo-1.11.10\web\css\themes\chamilo_granit\svg\graduation-symbol-publicdomainvectors.org.png"
   inkscape:export-xdpi="58"
   inkscape:export-ydpi="58"><sodipodi:namedview
     pagecolor="#ffffff"
     bordercolor="#666666"
     borderopacity="1"
     objecttolerance="10"
     gridtolerance="10"
     guidetolerance="10"
     inkscape:pageopacity="0"
     inkscape:pageshadow="2"
     inkscape:window-width="1920"
     inkscape:window-height="1017"
     id="namedview54"
     showgrid="false"
     inkscape:zoom="3.1130902"
     inkscape:cx="17.558159"
     inkscape:cy="51.769284"
     inkscape:window-x="-8"
     inkscape:window-y="-8"
     inkscape:window-maximized="1"
     inkscape:current-layer="svg2" /><metadata
     id="metadata8"><rdf:RDF><cc:Work
         rdf:about=""><dc:format>image/svg+xml</dc:format><dc:type
           rdf:resource="http://purl.org/dc/dcmitype/StillImage" /><dc:title></dc:title></cc:Work></rdf:RDF></metadata><defs
     id="defs6" /><path
     id="path66"
     style="fill:#1e1f20;fill-opacity:1;fill-rule:evenodd;stroke:none;stroke-width:0.02759255"
     d="M 23.416611,7.2287997 H 53.9718 V 22.94666 c 0,6.041312 -30.555189,6.007844 -30.555189,0 V 7.2287997"
     inkscape:connector-curvature="0" /><path
     id="path68"
     style="fill:#216778;fill-opacity:1;fill-rule:evenodd;stroke:none;stroke-width:0.02759255"
     d="m 48.240578,50.673853 c 8.170426,8.895198 3.727934,23.883644 -5.457332,26.712137 -0.461771,-4.627787 -3.003087,-6.383512 -6.757148,-6.464878 6.800424,-2.273358 11.975943,-10.727096 6.757148,-18.542313 1.818845,-0.567833 3.637957,-1.136534 5.457332,-1.704946"
     inkscape:connector-curvature="0" /><path
     id="path70"
     style="fill:#008080;fill-opacity:1;fill-rule:evenodd;stroke:none;stroke-width:0.02759255"
     d="m 44.680723,54.131641 c -2.122555,12.391646 9.305855,21.989132 18.340186,18.627426 -2.018066,-4.09977 -0.834089,-7.120715 2.21676,-9.513811 -6.781158,2.340582 -15.426811,-1.417566 -15.176926,-11.090649 -1.793517,0.659297 -3.586502,1.317733 -5.38002,1.977034"
     inkscape:connector-curvature="0" /><path
     id="path92"
     style="fill:#9aa7b0;fill-opacity:1;fill-rule:evenodd;stroke:none;stroke-width:0.02759255"
     d="M 15.915093,44.545982 C 31.201526,41.298539 46.491128,36.947165 61.264072,29.768741 55.980104,35.215386 58.102136,46.203605 65.292817,46.535133 51.262399,51.787302 37.398744,59.003815 23.71188,68.416063 11.510597,76.806902 3.7164483,47.136723 15.915093,44.545982"
     inkscape:connector-curvature="0" /><path
     id="path94"
     style="fill:#b7c4cb;fill-opacity:1;fill-rule:evenodd;stroke:none;stroke-width:0.02759255"
     d="M 20.545458,64.798142 37.129599,56.552433 19.587878,55.735598 Z"
     inkscape:connector-curvature="0" /><path
     id="path96"
     style="fill:#6e7f8b;fill-opacity:1;fill-rule:evenodd;stroke:none;stroke-width:0.02759255"
     d="m 14.745628,51.65025 c -6.2204391,2.359914 -0.345405,20.650049 8.025296,11.224817 L 34.98593,56.765372 22.31628,50.015998 14.745628,51.65025"
     inkscape:connector-curvature="0" /><path
     id="path98"
     style="fill:#d2dce1;fill-opacity:1;fill-rule:evenodd;stroke:none;stroke-width:0.02759255"
     d="M 65.292817,46.535133 C 74.834041,42.967704 69.836371,28.733777 63.992999,31.75818 49.171772,39.42913 31.521864,46.390575 14.745628,51.65025 c 12.62664,-3.00796 17.455434,9.946038 8.966252,16.765813 13.065981,-8.34958 26.665238,-16.304735 41.580937,-21.88093"
     inkscape:connector-curvature="0" /><path
     id="path100"
     style="fill:#008080;fill-opacity:1;fill-rule:evenodd;stroke:none;stroke-width:0.02759255"
     d="m 36.324273,39.389312 c 7.176432,-1.709562 11.170081,14.412821 6.32704,17.676422 3.345063,-1.718502 6.689859,-3.436433 10.034659,-5.15465 5.818829,-2.67528 0.684208,-18.584438 -5.642569,-16.100739 -3.573306,1.193373 -7.146086,2.386168 -10.71913,3.578967"
     inkscape:connector-curvature="0" /><path
     id="path102"
     style="fill:#383d42;fill-opacity:1;fill-rule:evenodd;stroke:none;stroke-width:0.02759255"
     d="M 38.693811,3.934326 55.655284,6.5694998 72.615437,9.2049661 55.655284,11.84043 38.693811,14.475896 21.732867,11.84043 4.772714,9.2049661 21.732867,6.5694998 38.693811,3.934326"
     inkscape:connector-curvature="0" /><path
     id="path104"
     style="fill:#008080;fill-opacity:1;fill-rule:evenodd;stroke:none;stroke-width:0.02759255"
     d="m 22.33686,11.84043 -4.483653,-0.603033 v 20.30496 l 4.483653,1.313694 V 11.84043"
     inkscape:connector-curvature="0" /><path
     id="path106"
     style="fill:#008080;fill-opacity:1;fill-rule:evenodd;stroke:none;stroke-width:0.02759255"
     d="M 22.33686,11.84043 17.853207,11.237397 29.287427,9.0921495 33.219593,9.8025165 22.33686,11.84043"
     inkscape:connector-curvature="0" /></svg>