<svg xmlns="http://www.w3.org/2000/svg" viewBox="0 0 400 225">
  <defs>
    <style>
      .cls-1 {
        fill: #f06060;
      }

      .cls-2 {
        opacity: 0.15;
      }

      .cls-3 {
        fill: #231f20;
      }

      .cls-4 {
        fill: #fff;
      }

      .cls-5 {
        fill: #79aad3;
      }

      .cls-6 {
        fill: #b0afad;
      }

      .cls-7 {
        fill: none;
      }
    </style>
  </defs>
  <title>fill in the blanks</title>
  <g id="Layer_2" data-name="Layer 2">
    <g id="fill_in_the_blanks" data-name="fill in the blanks">
      <g>
        <rect class="cls-1" x="134.43" y="26.71" width="139.14" height="173.59"/>
        <g>
          <g class="cls-2">
            <rect class="cls-3" x="150.44" y="43.37" width="112.96" height="146.09"/>
          </g>
          <rect class="cls-4" x="147.52" y="40.46" width="112.96" height="146.09"/>
        </g>
        <path class="cls-5" d="M200.13,76.27H174.57a2.33,2.33,0,0,1-2.33-2.33V69.28a2.51,2.51,0,0,1,2.33-2.53h25.56a2.51,2.51,0,0,1,2.33,2.53v4.66A2.33,2.33,0,0,1,200.13,76.27Zm-25.47-7.19a.38.38,0,0,0-.09.19v4.66h25.56V69.28a.38.38,0,0,0-.09-.19Z"/>
        <path class="cls-6" d="M168.44,75.11h-6.59a1.17,1.17,0,0,1-1.17-1.17V69.28a1.35,1.35,0,0,1,1.17-1.36h6.59a1.35,1.35,0,0,1,1.17,1.36v4.66A1.17,1.17,0,0,1,168.44,75.11Z"/>
        <path class="cls-6" d="M220.14,75.11H206.41a1.17,1.17,0,0,1-1.17-1.17V69.28a1.35,1.35,0,0,1,1.17-1.36h13.73a1.35,1.35,0,0,1,1.17,1.36v4.66A1.17,1.17,0,0,1,220.14,75.11Z"/>
        <path class="cls-6" d="M248.57,75.11H226.88a1.17,1.17,0,0,1-1.17-1.17V69.28a1.35,1.35,0,0,1,1.17-1.36h21.68a1.35,1.35,0,0,1,1.17,1.36v4.66A1.17,1.17,0,0,1,248.57,75.11Z"/>
        <rect class="cls-6" x="160.69" y="89.46" width="12.72" height="7.19" rx="1.17" ry="1.17"/>
        <rect class="cls-6" x="176.87" y="89.46" width="9.94" height="7.19" rx="1.17" ry="1.17"/>
        <rect class="cls-6" x="211.36" y="89.46" width="19.68" height="7.19" rx="1.17" ry="1.17"/>
        <rect class="cls-6" x="234.61" y="89.46" width="7.56" height="7.19" rx="1.17" ry="1.17"/>
        <path class="cls-5" d="M206,97.81H191.48a2.33,2.33,0,0,1-2.33-2.33V90.62a2.33,2.33,0,0,1,2.33-2.33H206a2.33,2.33,0,0,1,2.33,2.33v4.85A2.33,2.33,0,0,1,206,97.81Zm-14.57-7.19v4.85H206V90.62Z"/>
        <rect class="cls-6" x="223.33" y="111" width="9.94" height="7.19" rx="1.17" ry="1.17"/>
        <rect class="cls-6" x="160.69" y="111" width="15.12" height="7.19" rx="1.17" ry="1.17"/>
        <rect class="cls-6" x="179.58" y="111" width="39.68" height="7.19" rx="1.17" ry="1.17"/>
        <rect class="cls-6" x="160.69" y="132.54" width="8.92" height="7.19" rx="1.17" ry="1.17"/>
        <rect class="cls-6" x="187.92" y="132.54" width="13.95" height="7.19" rx="1.17" ry="1.17"/>
        <rect class="cls-6" x="205.79" y="132.54" width="24.2" height="7.19" rx="1.17" ry="1.17"/>
        <rect class="cls-6" x="233.55" y="132.54" width="14.02" height="7.19" rx="1.17" ry="1.17"/>
        <path class="cls-5" d="M183.23,140.89h-8.66a2.33,2.33,0,0,1-2.33-2.33V133.7a2.33,2.33,0,0,1,2.33-2.33h8.66a2.33,2.33,0,0,1,2.33,2.33v4.85A2.33,2.33,0,0,1,183.23,140.89Zm-8.66-7.19v4.85h8.66V133.7Z"/>
        <rect class="cls-6" x="160.69" y="154.07" width="23.71" height="7.19" rx="1.17" ry="1.17"/>
        <rect class="cls-6" x="187.75" y="154.07" width="5.07" height="7.19" rx="1.17" ry="1.17"/>
        <path class="cls-5" d="M224.55,162.43H197.09a2.33,2.33,0,0,1-2.33-2.33v-4.85a2.33,2.33,0,0,1,2.33-2.33h27.46a2.33,2.33,0,0,1,2.33,2.33v4.85A2.33,2.33,0,0,1,224.55,162.43Zm-27.46-7.19v4.85h27.46v-4.85Z"/>
      </g>
      <rect class="cls-7" width="400" height="225"/>
    </g>
  </g>
</svg>
