<?xml version="1.0" encoding="utf-8"?>
<!-- Generator: Adobe Illustrator 20.1.0, SVG Export Plug-In . SVG Version: 6.00 Build 0)  -->
<svg version="1.1" id="Layer_1" xmlns="http://www.w3.org/2000/svg" xmlns:xlink="http://www.w3.org/1999/xlink" x="0px" y="0px"
	 viewBox="0 0 400 225" style="enable-background:new 0 0 400 225;" xml:space="preserve">
<style type="text/css">
	.st0{fill:none;}
	.st1{fill:#F0F3FC;}
	.st2{fill:#4574FF;}
	.st3{fill:#3D6084;}
	.st4{fill:#2C4277;}
	.st5{fill:#DAEFE0;}
	.st6{fill:#84BE93;}
	.st7{fill:#435E49;}
</style>
<title>column</title>
<g>
	<g id="Layer_2">
		<g id="column">
			<rect y="0" class="st0" width="400" height="225"/>
			<g>
				<g>
					<path class="st1" d="M219.5,187.4L219.5,187.4c-6.5,6.5-17.3,6.5-23.9,0l-85-85c-6.5-6.5-6.5-17.3,0-23.9l0,0
						c6.5-6.5,17.3-6.5,23.9,0l85,85C226.1,170.2,226.1,180.9,219.5,187.4z"/>
					<path class="st2" d="M206.6,194.1c-1.3-0.1-2.6-0.2-3.9-0.6l0.9-3.4c1.1,0.2,2.1,0.5,3.2,0.5L206.6,194.1z M210.5,193.9
						l-0.6-3.5c1.1-0.1,2.1-0.5,3.1-0.8l1.3,3.3C213,193.4,211.8,193.7,210.5,193.9z M199.1,192.1c-1.2-0.6-2.2-1.3-3.3-2.1l2.2-2.7
						c0.8,0.7,1.8,1.2,2.7,1.6L199.1,192.1z M217.7,191.2l-1.9-2.9c0.8-0.6,1.6-1.3,2.5-2l0.1-0.1l2.5,2.5l-0.2,0.2
						C219.8,189.7,218.9,190.5,217.7,191.2z M193.1,187.4l-2.5-2.5l2.5-2.5l2.5,2.5L193.1,187.4z M223.3,185.4l-2.9-1.9
						c0.6-0.9,1.1-1.9,1.4-2.8l3.3,1.2C224.6,183.2,224.1,184.4,223.3,185.4z M188.2,182.5l-2.5-2.5l2.5-2.5l2.5,2.5L188.2,182.5z
						 M225.9,178.2l-3.5-0.5c0.1-0.7,0.1-1.4,0.1-2.1c0-0.4,0-0.7,0-1.1l3.5-0.2c0,0.5,0,0.8,0,1.3
						C226.2,176.5,226.1,177.3,225.9,178.2z M183.1,177.5l-2.5-2.5l2.5-2.5l2.5,2.5L183.1,177.5z M178.2,172.5l-2.5-2.5l2.5-2.5
						l2.5,2.5L178.2,172.5z M222.1,171.4c-0.2-1.1-0.7-2-1.2-2.9l3.2-1.6c0.6,1.2,1.1,2.4,1.4,3.6L222.1,171.4z M173.2,167.5
						l-2.5-2.5l2.5-2.5l2.5,2.5L173.2,167.5z M219.2,165.9c-0.2-0.4-0.6-0.7-0.9-1.1l-1.4-1.4l2.5-2.5l1.4,1.4
						c0.4,0.5,0.8,0.8,1.2,1.3L219.2,165.9z M168.2,162.5l-2.5-2.5l2.5-2.5l2.5,2.5L168.2,162.5z M214.4,160.9l-2.5-2.5l2.5-2.5
						l2.5,2.5L214.4,160.9z M163.2,157.5l-2.5-2.5l2.5-2.5l2.5,2.5L163.2,157.5z M209.3,155.9l-2.5-2.5l2.5-2.5l2.5,2.5L209.3,155.9
						z M158.2,152.5l-2.5-2.5l2.5-2.5l2.5,2.5L158.2,152.5z M204.4,150.9l-2.5-2.5l2.5-2.5l2.5,2.5L204.4,150.9z M153.2,147.5
						l-2.5-2.5l2.5-2.5l2.5,2.5L153.2,147.5z M199.3,146l-2.5-2.5l2.5-2.5l2.5,2.5L199.3,146z M148.1,142.6l-2.5-2.5l2.5-2.5
						l2.5,2.5L148.1,142.6z M194.4,140.9l-2.5-2.5l2.5-2.5l2.5,2.5L194.4,140.9z M143.2,137.5l-2.5-2.5l2.5-2.5l2.5,2.5L143.2,137.5
						z M189.3,136l-2.5-2.5l2.5-2.5l2.5,2.5L189.3,136z M138.3,132.6l-2.5-2.5l2.5-2.5l2.5,2.5L138.3,132.6z M184.4,130.9l-2.5-2.5
						l2.5-2.5l2.5,2.5L184.4,130.9z M133.2,127.5l-2.5-2.5l2.5-2.5l2.5,2.5L133.2,127.5z M179.5,126l-2.5-2.5l2.5-2.5l2.5,2.5
						L179.5,126z M128.3,122.6l-2.5-2.5l2.5-2.5l2.5,2.5L128.3,122.6z M174.4,120.9l-2.5-2.5l2.5-2.5l2.5,2.5L174.4,120.9z
						 M123.2,117.5l-2.5-2.5l2.5-2.5l2.5,2.5L123.2,117.5z M169.4,116l-2.5-2.5l2.5-2.5l2.5,2.5L169.4,116z M118.3,112.6l-2.5-2.5
						l2.5-2.5l2.5,2.5L118.3,112.6z M164.4,111l-2.5-2.5l2.5-2.5l2.5,2.5L164.4,111z M113.2,107.6l-2.5-2.5l2.5-2.5l2.5,2.5
						L113.2,107.6z M159.4,106l-2.5-2.5l2.5-2.5l2.5,2.5L159.4,106z M108.3,102.5c-0.8-1.1-1.5-2.1-2.1-3.3l3.2-1.6
						c0.5,0.9,1.1,1.8,1.8,2.6L108.3,102.5z M154.5,101l-2.5-2.5l2.5-2.5l2.5,2.5L154.5,101z M149.4,96l-2.5-2.5l2.5-2.5l2.5,2.5
						L149.4,96z M104.6,95.5c-0.4-1.3-0.6-2.6-0.6-3.9l3.5-0.2c0.1,1.1,0.2,2.1,0.5,3.2L104.6,95.5z M144.5,91l-2.5-2.5l2.5-2.5
						l2.5,2.5L144.5,91z M107.7,88.3l-3.5-0.5c0.2-1.3,0.5-2.6,0.9-3.8l3.3,1.2C108.1,86.2,107.9,87.3,107.7,88.3z M139.4,86
						l-2.5-2.5l2.5-2.5l2.5,2.5L139.4,86z M109.9,82.4l-2.9-1.9c0.7-1.1,1.5-2.1,2.4-3.1l2.6,2.5C111.1,80.7,110.5,81.5,109.9,82.4z
						 M134.5,81l-1.2-1.2c-0.4-0.4-0.8-0.7-1.3-1.1l2.2-2.8c0.6,0.5,1.1,0.9,1.5,1.4l1.2,1.2L134.5,81z M114.3,78l-1.9-2.9
						c1.1-0.7,2.2-1.3,3.4-1.8l1.3,3.3C116.1,76.9,115.2,77.4,114.3,78z M129.4,77c-0.9-0.5-1.9-0.8-2.9-1.1l0.8-3.4
						c1.3,0.4,2.5,0.8,3.6,1.3L129.4,77z M120.1,75.7l-0.6-3.5c0.9-0.1,2-0.2,2.9-0.2c0.2,0,0.6,0,0.9,0l-0.1,3.5
						c-0.2,0-0.5,0-0.7,0C121.8,75.5,121,75.6,120.1,75.7z"/>
				</g>
			</g>
			<path class="st3" d="M123.9,58.4L123.9,58.4c-4.1,0-7.5-3.4-7.5-7.5l0,0c0-4.1,3.4-7.5,7.5-7.5l0,0c4.1,0,7.5,3.4,7.5,7.5l0,0
				C131.3,55,128,58.4,123.9,58.4z"/>
			<path class="st3" d="M164.7,58.4L164.7,58.4c-4.1,0-7.5-3.4-7.5-7.5l0,0c0-4.1,3.4-7.5,7.5-7.5l0,0c4.1,0,7.5,3.4,7.5,7.5l0,0
				C172.3,55,168.9,58.4,164.7,58.4z"/>
			<path class="st4" d="M121.1,98.9L121.1,98.9c-4.3,0-7.8-3.5-7.8-7.8l0,0c0-4.3,3.5-7.8,7.8-7.8l0,0c4.3,0,7.8,3.5,7.8,7.8l0,0
				C128.8,95.4,125.4,98.9,121.1,98.9z"/>
			<path class="st3" d="M164.7,99.4L164.7,99.4c-4.1,0-7.5-3.4-7.5-7.5l0,0c0-4.1,3.4-7.5,7.5-7.5l0,0c4.1,0,7.5,3.4,7.5,7.5l0,0
				C172.3,96,168.9,99.4,164.7,99.4z"/>
			<path class="st3" d="M205.7,58.4L205.7,58.4c-4.1,0-7.5-3.4-7.5-7.5l0,0c0-4.1,3.4-7.5,7.5-7.5l0,0c4.1,0,7.5,3.4,7.5,7.5l0,0
				C213.1,55,209.8,58.4,205.7,58.4z"/>
			<path class="st3" d="M205.7,99.4L205.7,99.4c-4.1,0-7.5-3.4-7.5-7.5l0,0c0-4.1,3.4-7.5,7.5-7.5l0,0c4.1,0,7.5,3.4,7.5,7.5l0,0
				C213.1,96,209.8,99.4,205.7,99.4z"/>
			<path class="st3" d="M123.9,140.2L123.9,140.2c-4.1,0-7.5-3.4-7.5-7.5l0,0c0-4.1,3.4-7.5,7.5-7.5l0,0c4.1,0,7.5,3.4,7.5,7.5l0,0
				C131.3,136.8,128,140.2,123.9,140.2z"/>
			<path class="st4" d="M164.7,140.2L164.7,140.2c-4.1,0-7.5-3.4-7.5-7.5l0,0c0-4.1,3.4-7.5,7.5-7.5l0,0c4.1,0,7.5,3.4,7.5,7.5l0,0
				C172.3,136.8,168.9,140.2,164.7,140.2z"/>
			<path class="st3" d="M123.9,181.2L123.9,181.2c-4.1,0-7.5-3.4-7.5-7.5l0,0c0-4.1,3.4-7.5,7.5-7.5l0,0c4.1,0,7.5,3.4,7.5,7.5l0,0
				C131.3,177.8,128,181.2,123.9,181.2z"/>
			<path class="st3" d="M164.7,181.2L164.7,181.2c-4.1,0-7.5-3.4-7.5-7.5l0,0c0-4.1,3.4-7.5,7.5-7.5l0,0c4.1,0,7.5,3.4,7.5,7.5l0,0
				C172.3,177.8,168.9,181.2,164.7,181.2z"/>
			<path class="st3" d="M205.7,140.2L205.7,140.2c-4.1,0-7.5-3.4-7.5-7.5l0,0c0-4.1,3.4-7.5,7.5-7.5l0,0c4.1,0,7.5,3.4,7.5,7.5l0,0
				C213.1,136.8,209.8,140.2,205.7,140.2z"/>
			<path class="st4" d="M205.7,181.2L205.7,181.2c-4.1,0-7.5-3.4-7.5-7.5l0,0c0-4.1,3.4-7.5,7.5-7.5l0,0c4.1,0,7.5,3.4,7.5,7.5l0,0
				C213.1,177.8,209.8,181.2,205.7,181.2z"/>
			<path class="st3" d="M246.5,181.2L246.5,181.2c-4.1,0-7.5-3.4-7.5-7.5l0,0c0-4.1,3.4-7.5,7.5-7.5l0,0c4.1,0,7.5,3.4,7.5,7.5l0,0
				C254.1,177.8,250.6,181.2,246.5,181.2z"/>
			<path class="st3" d="M287.5,58.4L287.5,58.4c-4.1,0-7.5-3.4-7.5-7.5l0,0c0-4.1,3.4-7.5,7.5-7.5l0,0c4.1,0,7.5,3.4,7.5,7.5l0,0
				C294.9,55,291.6,58.4,287.5,58.4z"/>
			<path class="st3" d="M287.5,99.4L287.5,99.4c-4.1,0-7.5-3.4-7.5-7.5l0,0c0-4.1,3.4-7.5,7.5-7.5l0,0c4.1,0,7.5,3.4,7.5,7.5l0,0
				C294.9,96,291.6,99.4,287.5,99.4z"/>
			<path class="st3" d="M287.5,140.2L287.5,140.2c-4.1,0-7.5-3.4-7.5-7.5l0,0c0-4.1,3.4-7.5,7.5-7.5l0,0c4.1,0,7.5,3.4,7.5,7.5l0,0
				C294.9,136.8,291.6,140.2,287.5,140.2z"/>
			<path class="st3" d="M287.5,181.2L287.5,181.2c-4.1,0-7.5-3.4-7.5-7.5l0,0c0-4.1,3.4-7.5,7.5-7.5l0,0c4.1,0,7.5,3.4,7.5,7.5l0,0
				C294.9,177.8,291.6,181.2,287.5,181.2z"/>
			<g>
				<g>
					<path class="st5" d="M246.5,154.7L246.5,154.7c-9.4,0-17.1-7.6-17.1-17.1V48.4c0-9.4,7.6-17.1,17.1-17.1l0,0
						c9.4,0,17.1,7.6,17.1,17.1v89.2C263.6,147.1,255.9,154.7,246.5,154.7z"/>
					<path class="st6" d="M246.5,156.5c-10.4,0-18.8-8.5-18.8-18.8V48.4c0-10.4,8.5-18.8,18.8-18.8s18.8,8.5,18.8,18.8v89.2
						C265.4,148,256.9,156.5,246.5,156.5z M246.5,33.1c-8.5,0-15.3,6.8-15.3,15.3v89.2c0,8.5,6.8,15.3,15.3,15.3
						c8.5,0,15.3-6.8,15.3-15.3V48.4C261.8,40,255,33.1,246.5,33.1z"/>
				</g>
			</g>
			<path class="st7" d="M246.5,58.4L246.5,58.4c-4.1,0-7.5-3.4-7.5-7.5l0,0c0-4.1,3.4-7.5,7.5-7.5l0,0c4.1,0,7.5,3.4,7.5,7.5l0,0
				C254.1,55,250.6,58.4,246.5,58.4z"/>
			<path class="st7" d="M246.5,99.4L246.5,99.4c-4.1,0-7.5-3.4-7.5-7.5l0,0c0-4.1,3.4-7.5,7.5-7.5l0,0c4.1,0,7.5,3.4,7.5,7.5l0,0
				C254.1,96,250.6,99.4,246.5,99.4z"/>
			<path class="st7" d="M246.5,140.2L246.5,140.2c-4.1,0-7.5-3.4-7.5-7.5l0,0c0-4.1,3.4-7.5,7.5-7.5l0,0c4.1,0,7.5,3.4,7.5,7.5l0,0
				C254.1,136.8,250.6,140.2,246.5,140.2z"/>
		</g>
	</g>
</g>
</svg>
