<?xml version="1.0" encoding="UTF-8" standalone="no"?>
<!-- Created with Inkscape (http://www.inkscape.org/) -->

<svg
   xmlns:dc="http://purl.org/dc/elements/1.1/"
   xmlns:cc="http://creativecommons.org/ns#"
   xmlns:rdf="http://www.w3.org/1999/02/22-rdf-syntax-ns#"
   xmlns:svg="http://www.w3.org/2000/svg"
   xmlns="http://www.w3.org/2000/svg"
   xmlns:xlink="http://www.w3.org/1999/xlink"
   xmlns:sodipodi="http://sodipodi.sourceforge.net/DTD/sodipodi-0.dtd"
   xmlns:inkscape="http://www.inkscape.org/namespaces/inkscape"
   version="1.0"
   width="16"
   height="16"
   viewBox="0 0 16 16"
   id="svg1"
   xml:space="preserve"
   sodipodi:version="0.32"
   inkscape:version="0.91 r13725"
   sodipodi:docname="attendance_na.svg"
   inkscape:output_extension="org.inkscape.output.svg.inkscape"><sodipodi:namedview
     inkscape:window-height="747"
     inkscape:window-width="1325"
     inkscape:pageshadow="2"
     inkscape:pageopacity="0.0"
     guidetolerance="10.0"
     gridtolerance="10.0"
     objecttolerance="10.0"
     borderopacity="1.0"
     bordercolor="#666666"
     pagecolor="#ffffff"
     id="base"
     showgrid="true"
     inkscape:zoom="18.85"
     inkscape:cx="-7.9371702"
     inkscape:cy="6.2312498"
     inkscape:window-x="41"
     inkscape:window-y="21"
     inkscape:current-layer="svg1"
     inkscape:window-maximized="1" /><metadata
     id="metadata2392"><rdf:RDF><cc:Work
         rdf:about=""><dc:format>image/svg+xml</dc:format><dc:type
           rdf:resource="http://purl.org/dc/dcmitype/StillImage" /><dc:title></dc:title></cc:Work></rdf:RDF></metadata><defs
     id="defs419"><linearGradient
       y2="139.1456"
       x2="127.5972"
       y1="36.8535"
       x1="127.5972"
       gradientUnits="userSpaceOnUse"
       id="POUETID_6_"><stop
         id="stop573"
         style="stop-color:#FFFFFF"
         offset="0.0056" /><stop
         id="stop9005"
         style="stop-color:#FF6666"
         offset="1" /></linearGradient><linearGradient
       y2="127.5029"
       x2="222.7139"
       y1="127.5029"
       x1="32.484901"
       gradientUnits="userSpaceOnUse"
       id="POUETID_5_"><stop
         id="stop563"
         style="stop-color:#FF6D00"
         offset="0.0056" /><stop
         id="stop564"
         style="stop-color:#CF0000"
         offset="0.5" /><stop
         id="stop565"
         style="stop-color:#FF6666"
         offset="1" /></linearGradient><linearGradient
       y2="127.5"
       x2="235.1136"
       y1="127.5"
       x1="20.086399"
       gradientUnits="userSpaceOnUse"
       id="POUETID_4_"><stop
         id="stop556"
         style="stop-color:#AA0000"
         offset="0.0056" /><stop
         id="stop557"
         style="stop-color:#663333"
         offset="1" /></linearGradient><linearGradient
       id="linearGradient5024"><stop
         id="stop5026"
         offset="0"
         style="stop-color:#ffffff;stop-opacity:1" /><stop
         id="stop5028"
         offset="1"
         style="stop-color:#ffffff;stop-opacity:0" /></linearGradient><linearGradient
       gradientTransform="matrix(3.7565752,0,0,3.7565752,-1281.1474,-1839.9864)"
       gradientUnits="userSpaceOnUse"
       xlink:href="#linearGradient5024"
       id="linearGradient5153"
       y2="709.06689"
       x2="466.6875"
       y1="664.79169"
       x1="466.6875" /><linearGradient
       id="linearGradient5032"><stop
         id="stop5034"
         offset="0"
         style="stop-color:#ce1212;stop-opacity:1" /><stop
         id="stop5036"
         offset="1"
         style="stop-color:#ff1212;stop-opacity:1" /></linearGradient><linearGradient
       gradientUnits="userSpaceOnUse"
       xlink:href="#linearGradient5032"
       id="linearGradient5125"
       y2="-6.6274176"
       x2="15.999988"
       y1="48.000011"
       x1="-6.6274176" /><filter
       id="filter5068"><feGaussianBlur
         inkscape:collect="always"
         stdDeviation="0.16424528"
         id="feGaussianBlur5070" /></filter></defs><g
     transform="scale(0.0625,0.0625)"
     id="Layer_1"><g
       id="g116"><linearGradient
         gradientUnits="userSpaceOnUse"
         id="XMLID_11_"
         y2="11.573135"
         x2="128.00047"
         y1="244.42773"
         x1="128.00049"><stop
           offset="0.005615"
           style="stop-color:#767676;stop-opacity:1"
           id="stop120" /><stop
           offset="0.54494399"
           style="stop-color:#464646;stop-opacity:1"
           id="stop122" /><stop
           offset="1"
           style="stop-color:#5e5e5e;stop-opacity:1"
           id="stop124" /><midPointStop
           offset="0.005615"
           style="stop-color:#767676"
           id="midPointStop126" /><midPointStop
           offset="0.5"
           style="stop-color:#767676"
           id="midPointStop128" /><midPointStop
           offset="0.544944"
           style="stop-color:#464646"
           id="midPointStop130" /><midPointStop
           offset="0.5"
           style="stop-color:#464646"
           id="midPointStop132" /><midPointStop
           offset="1"
           style="stop-color:#5e5e5e"
           id="midPointStop134" /></linearGradient><path
         inkscape:connector-curvature="0"
         style="fill:url(#XMLID_11_-100)"
         id="path137"
         d="m 4.9804688,128 c 0,67.83203 55.1875002,123.02148 123.0214812,123.02148 67.83106,0 123.01758,-55.18945 123.01758,-123.02148 C 251.01953,60.166504 195.83301,4.9785156 128.00195,4.9785156 60.167969,4.9785156 4.9804688,60.166504 4.9804688,128 Z" /><linearGradient
         gradientUnits="userSpaceOnUse"
         id="XMLID_12_"
         y2="11.546326"
         x2="127.9995"
         y1="244.40723"
         x1="127.99951"><stop
           offset="0.005615"
           style="stop-color:#a0a0a0;stop-opacity:1"
           id="stop141" /><stop
           offset="0.57303399"
           style="stop-color:#c9c9c9;stop-opacity:1"
           id="stop143" /><stop
           offset="1"
           style="stop-color:#ededed;stop-opacity:1"
           id="stop145" /><midPointStop
           offset="0.005615"
           style="stop-color:#a0a0a0"
           id="midPointStop147" /><midPointStop
           offset="0.5"
           style="stop-color:#a0a0a0"
           id="midPointStop149" /><midPointStop
           offset="0.573034"
           style="stop-color:#c9c9c9"
           id="midPointStop151" /><midPointStop
           offset="0.5"
           style="stop-color:#c9c9c9"
           id="midPointStop153" /><midPointStop
           offset="1"
           style="stop-color:#ededed"
           id="midPointStop155" /></linearGradient><path
         inkscape:connector-curvature="0"
         style="fill:url(#XMLID_12_-16)"
         id="path158"
         d="m 12.379883,128 c 0,63.75391 51.868164,115.62109 115.622067,115.62109 63.75196,0 115.61719,-51.86718 115.61719,-115.62109 0,-63.753906 -51.86523,-115.621582 -115.61719,-115.621582 C 64.248047,12.378418 12.379883,64.246094 12.379883,128 Z" /><linearGradient
         gradientUnits="userSpaceOnUse"
         id="XMLID_13_"
         y2="16.285156"
         x2="128.00243"
         y1="239.71191"
         x1="128.00244"><stop
           offset="0"
           style="stop-color:#ffffff;stop-opacity:1"
           id="stop162" /><stop
           offset="0.5"
           style="stop-color:#7f7f7f;stop-opacity:1"
           id="stop164" /><stop
           offset="1"
           style="stop-color:#e4e4e4;stop-opacity:1"
           id="stop166" /><midPointStop
           offset="0"
           style="stop-color:#ffffff"
           id="midPointStop168" /><midPointStop
           offset="0.5"
           style="stop-color:#ffffff"
           id="midPointStop170" /><midPointStop
           offset="0.5"
           style="stop-color:#7f7f7f"
           id="midPointStop172" /><midPointStop
           offset="0.5"
           style="stop-color:#7f7f7f"
           id="midPointStop174" /><midPointStop
           offset="1"
           style="stop-color:#e4e4e4"
           id="midPointStop176" /></linearGradient><path
         inkscape:connector-curvature="0"
         style="fill:url(#XMLID_13_-18)"
         id="path179"
         d="m 16.285156,128 c 0,61.60352 50.119141,111.71191 111.716794,111.71191 61.60157,0 111.7168,-50.10839 111.7168,-111.71191 0,-61.597656 -50.11523,-111.715332 -111.7168,-111.715332 C 66.404297,16.284668 16.285156,66.402344 16.285156,128 Z" /><path
         inkscape:connector-curvature="0"
         style="opacity:0.8;fill:#ffffff"
         id="path181"
         d="m 128.00195,30.241699 c -56.102536,0 -101.750973,45.638184 -101.750973,101.747561 0,56.10254 45.648437,101.73926 101.750973,101.73926 56.1045,0 101.74805,-45.63672 101.74805,-101.73926 0,-56.109377 -45.64355,-101.747561 -101.74805,-101.747561 z" /><path
         inkscape:connector-curvature="0"
         style="fill:#464646"
         id="path183"
         d="m 26.250977,128 c 0,56.10645 45.648437,101.73926 101.750973,101.73926 C 184.10645,229.73926 229.75,184.10645 229.75,128 229.75,71.896973 184.10645,26.252441 128.00195,26.252441 71.899414,26.252441 26.250977,71.896973 26.250977,128 Z" /><radialGradient
         gradientTransform="matrix(1.4187,0,0,1.4187,43.4252,-204.0338)"
         gradientUnits="userSpaceOnUse"
         id="XMLID_14_"
         fy="234.03906"
         fx="59.616211"
         r="69.963379"
         cy="234.03906"
         cx="59.616211"><stop
           offset="0.60112399"
           style="stop-color:#ffffff;stop-opacity:1"
           id="stop187" /><stop
           offset="0.87640399"
           style="stop-color:#ededed;stop-opacity:1"
           id="stop189" /><stop
           offset="0.9141686"
           style="stop-color:#e9e9e9;stop-opacity:1"
           id="stop191" /><stop
           offset="0.94998139"
           style="stop-color:#e0e0e0;stop-opacity:1"
           id="stop193" /><stop
           offset="0.9849053"
           style="stop-color:#cfcfcf;stop-opacity:1"
           id="stop195" /><stop
           offset="1"
           style="stop-color:#c6c6c6;stop-opacity:1"
           id="stop197" /><midPointStop
           offset="0.601124"
           style="stop-color:#ffffff"
           id="midPointStop199" /><midPointStop
           offset="0.5"
           style="stop-color:#ffffff"
           id="midPointStop201" /><midPointStop
           offset="0.876404"
           style="stop-color:#ededed"
           id="midPointStop203" /><midPointStop
           offset="0.717949"
           style="stop-color:#ededed"
           id="midPointStop205" /><midPointStop
           offset="1"
           style="stop-color:#c6c6c6"
           id="midPointStop207" /></radialGradient><path
         inkscape:connector-curvature="0"
         style="fill:url(#XMLID_14_-299)"
         id="path210"
         d="m 28.743164,128 c 0,54.72852 44.526367,99.25293 99.258786,99.25293 54.73145,0 99.25977,-44.52441 99.25977,-99.25293 0,-54.729004 -44.52832,-99.256836 -99.25977,-99.256836 -54.732419,0 -99.258786,44.527832 -99.258786,99.256836 z" /><path
         inkscape:connector-curvature="0"
         style="fill:#616161"
         id="path212"
         d="m 32.070312,124.75635 c -1.104492,0 -2,0.89551 -2,2 l 0,2.48681 c 0,1.1045 0.895508,2 2,2 l 17.441407,0 c 1.104492,0 2,-0.8955 2,-2 l 0,-2.48681 c 0,-1.10449 -0.895508,-2 -2,-2 l -17.441407,0 z" /><rect
         style="fill:#616161"
         id="rect214"
         y="126.75635"
         x="32.070312"
         height="2.4868164"
         width="17.441406" /><path
         inkscape:connector-curvature="0"
         style="fill:#616161"
         id="path216"
         d="m 206.49023,124.75635 c -1.10449,0 -2,0.89551 -2,2 l 0,2.48681 c 0,1.1045 0.89551,2 2,2 l 17.44825,0 c 1.10449,0 2,-0.8955 2,-2 l 0,-2.48681 c 0,-1.10449 -0.89551,-2 -2,-2 l -17.44825,0 z" /><rect
         style="fill:#616161"
         id="rect218"
         y="126.75635"
         x="206.49023"
         height="2.4868164"
         width="17.448242" /><path
         inkscape:connector-curvature="0"
         style="fill:#616161"
         id="path220"
         d="m 126.75586,204.49023 c -1.10449,0 -2,0.89551 -2,2 l 0,17.44141 c 0,1.10449 0.89551,2 2,2 l 2.49219,0 c 1.10449,0 2,-0.89551 2,-2 l 0,-17.44141 c 0,-1.10449 -0.89551,-2 -2,-2 l -2.49219,0 z" /><rect
         style="fill:#616161"
         id="rect222"
         y="206.49023"
         x="126.75586"
         height="17.441406"
         width="2.4921875" /><path
         inkscape:connector-curvature="0"
         style="fill:#616161"
         id="path224"
         d="m 126.75586,30.067871 c -1.10449,0 -2,0.895508 -2,2 l 0,17.441406 c 0,1.104493 0.89551,2 2,2 l 2.49219,0 c 1.10449,0 2,-0.895507 2,-2 l 0,-17.441406 c 0,-1.104492 -0.89551,-2 -2,-2 l -2.49219,0 0,0 z" /><rect
         style="fill:#616161"
         id="rect226"
         y="32.067871"
         x="126.75586"
         height="17.441406"
         width="2.4921875" /><path
         inkscape:connector-curvature="0"
         style="fill:#616161"
         id="path228"
         d="m 169.80664,197.93555 -2.15137,1.25 c -0.95312,0.55468 -1.27832,1.77539 -0.72656,2.73047 l 6.23145,10.77929 c 0.55175,0.95508 1.77246,1.28223 2.72851,0.73242 l 2.15723,-1.24023 c 0.45996,-0.26465 0.79687,-0.70117 0.93457,-1.21484 0.13769,-0.5127 0.0664,-1.05957 -0.2002,-1.51954 l -6.2373,-10.78906 c -0.26563,-0.45996 -0.7041,-0.79492 -1.2168,-0.93164 -0.51367,-0.13672 -1.06055,-0.0635 -1.51953,0.20313 z" /><polygon
         style="fill:#616161"
         id="polygon230"
         points="170.81152,199.66504 168.66016,200.91504 174.8916,211.69434 177.04883,210.4541 177.04883,210.4541 " /><path
         inkscape:connector-curvature="0"
         style="fill:#616161"
         id="path232"
         d="m 80.115234,42.565918 -2.159179,1.247559 c -0.957032,0.552734 -1.28418,1.775879 -0.731446,2.732421 l 6.229493,10.783692 c 0.552734,0.956055 1.77539,1.283691 2.731445,0.731445 l 2.15625,-1.244629 c 0.956055,-0.552246 1.28418,-1.77539 0.731445,-2.731933 L 82.847656,43.297852 c -0.265625,-0.459473 -0.702148,-0.794434 -1.214843,-0.932129 -0.512696,-0.137207 -1.058594,-0.06494 -1.517579,0.200195 z" /><rect
         style="fill:#616161"
         id="rect234"
         transform="matrix(0.499934,0.866063,-0.866063,0.499934,85.15588,-46.85146)"
         y="49.0681"
         x="76.921539"
         height="2.4936838"
         width="12.454769" /><path
         inkscape:connector-curvature="0"
         style="fill:#616161"
         id="path236"
         d="m 84.669922,197.73242 c -0.512695,0.1377 -0.950195,0.47266 -1.21582,0.93262 l -6.229493,10.78906 c -0.265625,0.45996 -0.33789,1.00684 -0.199218,1.51953 0.137695,0.5127 0.473632,0.9502 0.93457,1.21485 l 2.15918,1.24023 c 0.956054,0.54883 2.176757,0.22168 2.728515,-0.73437 l 6.225586,-10.7793 c 0.551758,-0.95508 0.225586,-2.17676 -0.728515,-2.73047 l -2.155274,-1.25 c -0.459961,-0.26562 -1.006836,-0.33887 -1.519531,-0.20215 z" /><polygon
         style="fill:#616161"
         id="polygon238"
         points="87.341797,200.91504 85.185547,199.66504 78.956055,210.4541 81.115234,211.69434 81.115234,211.69434 " /><path
         inkscape:connector-curvature="0"
         style="fill:#616161"
         id="path240"
         d="m 173.15918,43.297852 -6.23145,10.790527 c -0.26464,0.459473 -0.33691,1.005371 -0.19921,1.518066 0.13769,0.512696 0.47265,0.949219 0.93261,1.214356 l 2.15137,1.240722 c 0.95605,0.55127 2.17773,0.224122 2.73047,-0.731445 l 6.2373,-10.787109 c 0.26563,-0.459473 0.33789,-1.00586 0.2002,-1.518555 -0.13672,-0.512695 -0.47266,-0.949707 -0.93262,-1.214844 l -2.15722,-1.24414 c -0.95606,-0.551758 -2.17872,-0.224121 -2.73145,0.732422 z" /><polygon
         style="fill:#616161"
         id="polygon242"
         points="177.04883,45.541992 174.8916,44.297852 168.66016,55.088379 170.81152,56.329102 170.81152,56.329102 " /><path
         inkscape:connector-curvature="0"
         style="fill:#616161"
         id="path244"
         d="m 54.084961,166.9248 -10.786133,6.2334 c -0.458984,0.26563 -0.793945,0.70215 -0.930664,1.21485 -0.137695,0.51367 -0.06445,1.05957 0.201172,1.51855 l 1.24707,2.1543 c 0.552735,0.95508 1.775391,1.28223 2.731445,0.72949 l 10.786133,-6.23437 c 0.459961,-0.26563 0.794922,-0.70313 0.931641,-1.21582 0.136719,-0.5127 0.06445,-1.0586 -0.202149,-1.51758 l -1.24707,-2.15332 c -0.552734,-0.95508 -1.77539,-1.28223 -2.731445,-0.7295 z" /><rect
         style="fill:#616161"
         id="rect246"
         transform="matrix(-0.865782,0.500421,-0.500421,-0.865782,180.3773,297.3212)"
         y="171.60591"
         x="44.08728"
         height="2.4883676"
         width="12.458254" /><path
         inkscape:connector-curvature="0"
         style="fill:#616161"
         id="path248"
         d="m 209.45703,77.222656 -10.78906,6.232422 c -0.46094,0.266114 -0.7959,0.70459 -0.93262,1.218262 -0.13672,0.513672 -0.0625,1.060547 0.2041,1.520508 l 1.25391,2.152832 c 0.55469,0.95166 1.77441,1.275879 2.72852,0.725097 l 10.78613,-6.228515 c 0.45996,-0.265625 0.7959,-0.703125 0.93262,-1.216309 0.13671,-0.513183 0.0635,-1.060058 -0.20215,-1.519043 l -1.25098,-2.156738 c -0.55371,-0.954102 -1.77539,-1.280274 -2.73047,-0.728516 z" /><rect
         style="fill:#616161"
         id="rect250"
         transform="matrix(-0.865986,0.500069,-0.500069,-0.865986,425.3929,52.29269)"
         y="81.900574"
         x="199.46179"
         height="2.4932835"
         width="12.455323" /><path
         inkscape:connector-curvature="0"
         style="fill:#616161"
         id="path252"
         d="m 199.19336,167.64941 -1.25391,2.15332 c -0.26758,0.45997 -0.34082,1.00684 -0.2041,1.52051 0.13672,0.51367 0.47168,0.95215 0.93164,1.21778 l 10.78906,6.23437 c 0.95606,0.55273 2.17872,0.22656 2.73145,-0.72852 l 1.25098,-2.15917 c 0.2666,-0.45997 0.33886,-1.00586 0.20214,-1.51856 -0.13769,-0.51367 -0.47265,-0.95117 -0.93261,-1.2168 l -10.78614,-6.22851 c -0.9541,-0.55078 -2.17285,-0.22656 -2.72851,0.72558 z" /><polygon
         style="fill:#616161"
         id="polygon254"
         points="200.92188,168.65625 199.66797,170.80957 210.45703,177.04395 211.70801,174.88477 211.70801,174.88477 " /><rect
         style="opacity:0.2"
         id="rect256"
         transform="matrix(-0.760473,-0.64937,0.64937,-0.760473,85.54559,342.2205)"
         y="94.231461"
         x="103.96373"
         height="122.2031"
         width="3.8498869" /><linearGradient
         gradientTransform="matrix(0.9546,0.0532,0.0532,0.9377,-6.635652,8.097183)"
         gradientUnits="userSpaceOnUse"
         id="XMLID_15_"
         y2="149.69531"
         x2="154.29785"
         y1="149.69531"
         x1="62.462891"><stop
           offset="0"
           style="stop-color:#b2b2b2;stop-opacity:1"
           id="stop260" /><stop
           offset="1"
           style="stop-color:#7f7f7f;stop-opacity:1"
           id="stop262" /><midPointStop
           offset="0"
           style="stop-color:#b2b2b2"
           id="midPointStop264" /><midPointStop
           offset="0.5"
           style="stop-color:#b2b2b2"
           id="midPointStop266" /><midPointStop
           offset="1"
           style="stop-color:#7f7f7f"
           id="midPointStop268" /></linearGradient><polygon
         style="fill:url(#XMLID_15_-231)"
         id="polygon271"
         points="66.588867,201.96094 145.91699,109.00537 142.98828,106.50586 63.660156,199.46094 63.660156,199.46094 " /><path
         inkscape:connector-curvature="0"
         style="fill:#616161"
         id="path273"
         d="m 43.81543,77.953613 -1.247071,2.156739 c -0.265625,0.458984 -0.33789,1.005371 -0.200195,1.518066 0.136719,0.512207 0.472656,0.949707 0.931641,1.214844 l 10.786133,6.228515 c 0.956054,0.552246 2.179687,0.22461 2.731445,-0.731445 l 1.24707,-2.158203 c 0.265625,-0.459473 0.337891,-1.005371 0.201172,-1.517578 -0.137695,-0.512695 -0.472656,-0.949707 -0.932617,-1.214844 L 46.546875,77.222656 C 45.59082,76.67041 44.368164,76.997559 43.81543,77.953613 Z" /><rect
         style="fill:#616161"
         id="rect275"
         transform="matrix(0.866037,0.49998,-0.49998,0.866037,48.31216,-14.01864)"
         y="81.900818"
         x="44.089111"
         height="2.4913259"
         width="12.454591" /><path
         inkscape:connector-curvature="0"
         style="opacity:0.2"
         id="path277"
         d="m 189.22363,108.87109 c -0.15722,-0.58545 -0.73047,-0.94238 -1.28027,-0.79492 l -62.29004,16.68994 c -0.5498,0.14746 -0.86816,0.74219 -0.71094,1.33008 l 1.84961,6.90576 c 0.15821,0.58789 0.73047,0.94336 1.28125,0.7959 l 62.29004,-16.69092 c 0.54981,-0.14697 0.86914,-0.74218 0.71192,-1.32861 l -1.85157,-6.90723 z" /><path
         inkscape:connector-curvature="0"
         style="fill:#606060"
         id="path279"
         d="m 188.12402,107.771 c -0.15722,-0.58545 -0.73047,-0.9419 -1.28125,-0.79493 l -62.28906,16.68995 c -0.5498,0.14746 -0.86914,0.74267 -0.71094,1.33007 l 1.84961,6.90625 c 0.15821,0.58789 0.73047,0.94336 1.28028,0.7959 l 62.29101,-16.6914 c 0.54981,-0.14698 0.86914,-0.74219 0.71192,-1.32862 l -1.85157,-6.90722 z" /><linearGradient
         gradientTransform="matrix(0.2588,0.9659,-0.9659,0.2588,104.8109,257.7903)"
         gradientUnits="userSpaceOnUse"
         id="XMLID_16_"
         y2="-86.028809"
         x2="-116.19824"
         y1="-86.028809"
         x1="-123.34863"><stop
           offset="0"
           style="stop-color:#606060;stop-opacity:1"
           id="stop283" /><stop
           offset="0.0080328"
           style="stop-color:#6d6d6d;stop-opacity:1"
           id="stop285" /><stop
           offset="0.0341428"
           style="stop-color:#929292;stop-opacity:1"
           id="stop287" /><stop
           offset="0.0602025"
           style="stop-color:#afafaf;stop-opacity:1"
           id="stop289" /><stop
           offset="0.0858713"
           style="stop-color:#c4c4c4;stop-opacity:1"
           id="stop291" /><stop
           offset="0.1109687"
           style="stop-color:#d0d0d0;stop-opacity:1"
           id="stop293" /><stop
           offset="0.134831"
           style="stop-color:#d4d4d4;stop-opacity:1"
           id="stop295" /><stop
           offset="0.46629199"
           style="stop-color:#a5a5a5;stop-opacity:1"
           id="stop297" /><stop
           offset="0.85393202"
           style="stop-color:#8b8b8b;stop-opacity:1"
           id="stop299" /><stop
           offset="1"
           style="stop-color:#606060;stop-opacity:1"
           id="stop301" /><midPointStop
           offset="0"
           style="stop-color:#606060"
           id="midPointStop303" /><midPointStop
           offset="0.30303"
           style="stop-color:#606060"
           id="midPointStop305" /><midPointStop
           offset="0.134831"
           style="stop-color:#d4d4d4"
           id="midPointStop307" /><midPointStop
           offset="0.5"
           style="stop-color:#d4d4d4"
           id="midPointStop309" /><midPointStop
           offset="0.466292"
           style="stop-color:#a5a5a5"
           id="midPointStop311" /><midPointStop
           offset="0.5"
           style="stop-color:#a5a5a5"
           id="midPointStop313" /><midPointStop
           offset="0.853932"
           style="stop-color:#8b8b8b"
           id="midPointStop315" /><midPointStop
           offset="0.5"
           style="stop-color:#8b8b8b"
           id="midPointStop317" /><midPointStop
           offset="1"
           style="stop-color:#606060"
           id="midPointStop319" /></linearGradient><polygon
         style="fill:url(#XMLID_16_-600)"
         id="polygon322"
         points="188.97852,114.94482 126.68945,131.63477 124.83887,124.72852 187.12891,108.03857 187.12891,108.03857 " /><path
         inkscape:connector-curvature="0"
         style="opacity:0.2"
         id="path324"
         d="m 145.55762,133.42871 c 0.30371,-0.52637 -0.11231,-1.33594 -0.9336,-1.80957 L 51.853516,78.058105 c -0.820313,-0.473632 -1.730469,-0.430664 -2.03418,0.0957 l -3.575195,6.191894 c -0.303711,0.526367 0.114257,1.335938 0.93457,1.810059 l 92.769529,53.560062 c 0.82031,0.47363 1.73047,0.43066 2.03418,-0.0957 l 3.5752,-6.19141 z" /><path
         inkscape:connector-curvature="0"
         style="fill:#606060"
         id="path326"
         d="m 144.45801,132.3291 c 0.30371,-0.52637 -0.11328,-1.33691 -0.9336,-1.81055 L 50.753906,76.958008 c -0.820312,-0.473633 -1.730468,-0.430664 -2.034179,0.0957 l -3.575196,6.191894 c -0.304687,0.526368 0.113282,1.336426 0.934571,1.810059 l 92.769528,53.560549 c 0.82032,0.47363 1.73047,0.43067 2.03418,-0.0957 l 3.5752,-6.19141 z" /><linearGradient
         gradientTransform="matrix(-0.5,0.866,-0.866,-0.5,37.93764,322.7147)"
         gradientUnits="userSpaceOnUse"
         id="XMLID_17_"
         y2="58.22168"
         x2="-210.99219"
         y1="58.22168"
         x1="-218.14404"><stop
           offset="0"
           style="stop-color:#606060;stop-opacity:1"
           id="stop330" /><stop
           offset="0.191011"
           style="stop-color:#d4d4d4;stop-opacity:1"
           id="stop332" /><stop
           offset="0.46629199"
           style="stop-color:#a5a5a5;stop-opacity:1"
           id="stop334" /><stop
           offset="0.85393202"
           style="stop-color:#8b8b8b;stop-opacity:1"
           id="stop336" /><stop
           offset="1"
           style="stop-color:#606060;stop-opacity:1"
           id="stop338" /><midPointStop
           offset="0"
           style="stop-color:#606060"
           id="midPointStop340" /><midPointStop
           offset="0.5"
           style="stop-color:#606060"
           id="midPointStop342" /><midPointStop
           offset="0.191011"
           style="stop-color:#d4d4d4"
           id="midPointStop344" /><midPointStop
           offset="0.5"
           style="stop-color:#d4d4d4"
           id="midPointStop346" /><midPointStop
           offset="0.466292"
           style="stop-color:#a5a5a5"
           id="midPointStop348" /><midPointStop
           offset="0.5"
           style="stop-color:#a5a5a5"
           id="midPointStop350" /><midPointStop
           offset="0.853932"
           style="stop-color:#8b8b8b"
           id="midPointStop352" /><midPointStop
           offset="0.5"
           style="stop-color:#8b8b8b"
           id="midPointStop354" /><midPointStop
           offset="1"
           style="stop-color:#606060"
           id="midPointStop356" /></linearGradient><polygon
         style="fill:url(#XMLID_17_-337)"
         id="polygon359"
         points="139.39844,137.66309 46.628906,84.102539 50.204102,77.911133 142.97461,131.47168 142.97461,131.47168 " /><path
         inkscape:connector-curvature="0"
         style="opacity:0.2"
         id="path361"
         d="m 117.63965,129.10156 c 0,6.31836 5.13965,11.45996 11.45801,11.45996 6.31933,0 11.46191,-5.1416 11.46191,-11.45996 0,-6.32129 -5.14258,-11.46338 -11.46191,-11.46338 -6.31836,0 -11.45801,5.14209 -11.45801,11.46338 z" /><linearGradient
         gradientUnits="userSpaceOnUse"
         id="XMLID_18_"
         y2="128"
         x2="139.45898"
         y1="128"
         x1="116.54004"><stop
           offset="0"
           style="stop-color:#a5a5a5;stop-opacity:1"
           id="stop365" /><stop
           offset="1"
           style="stop-color:#606060;stop-opacity:1"
           id="stop367" /><midPointStop
           offset="0"
           style="stop-color:#a5a5a5"
           id="midPointStop369" /><midPointStop
           offset="0.5"
           style="stop-color:#a5a5a5"
           id="midPointStop371" /><midPointStop
           offset="1"
           style="stop-color:#606060"
           id="midPointStop373" /></linearGradient><path
         inkscape:connector-curvature="0"
         style="fill:url(#XMLID_18_-881)"
         id="path376"
         d="m 116.54004,128.00098 c 0,6.31933 5.13867,11.46093 11.45801,11.46093 6.31933,0 11.46093,-5.1416 11.46093,-11.46093 0,-6.32032 -5.1416,-11.46289 -11.46093,-11.46289 -6.31934,0 -11.45801,5.14257 -11.45801,11.46289 z" /><radialGradient
         gradientUnits="userSpaceOnUse"
         id="XMLID_19_"
         fy="116.17529"
         fx="126.61963"
         r="22.186035"
         cy="116.17529"
         cx="126.61963"><stop
           offset="0"
           style="stop-color:#a5a5a5;stop-opacity:1"
           id="stop380" /><stop
           offset="0.58988798"
           style="stop-color:#606060;stop-opacity:1"
           id="stop382" /><stop
           offset="1"
           style="stop-color:#ffffff;stop-opacity:1"
           id="stop384" /><midPointStop
           offset="0"
           style="stop-color:#a5a5a5"
           id="midPointStop386" /><midPointStop
           offset="0.5"
           style="stop-color:#a5a5a5"
           id="midPointStop388" /><midPointStop
           offset="0.589888"
           style="stop-color:#606060"
           id="midPointStop390" /><midPointStop
           offset="0.5"
           style="stop-color:#606060"
           id="midPointStop392" /><midPointStop
           offset="1"
           style="stop-color:#ffffff"
           id="midPointStop394" /></radialGradient><path
         inkscape:connector-curvature="0"
         style="fill:url(#XMLID_19_-684)"
         id="path397"
         d="m 117.63965,128.00098 c 0,5.71386 4.64746,10.36035 10.3584,10.36035 5.71386,0 10.36132,-4.64649 10.36132,-10.36035 0,-5.71338 -4.64746,-10.3628 -10.36132,-10.3628 -5.71094,0 -10.3584,4.64942 -10.3584,10.3628 z" /><linearGradient
         gradientUnits="userSpaceOnUse"
         id="XMLID_20_"
         y2="123.58594"
         x2="137.875"
         y1="123.58594"
         x1="117.74365"><stop
           offset="0"
           style="stop-color:#ffffff;stop-opacity:1"
           id="stop401" /><stop
           offset="1"
           style="stop-color:#606060;stop-opacity:1"
           id="stop403" /><midPointStop
           offset="0"
           style="stop-color:#ffffff"
           id="midPointStop405" /><midPointStop
           offset="0.5"
           style="stop-color:#ffffff"
           id="midPointStop407" /><midPointStop
           offset="1"
           style="stop-color:#606060"
           id="midPointStop409" /></linearGradient><path
         inkscape:connector-curvature="0"
         style="fill:url(#XMLID_20_-227)"
         id="path412"
         d="m 135.7373,125.42822 c -1.08105,-3.24267 -4.13769,-5.58984 -7.73925,-5.58984 -4.22852,0 -7.71387,3.23535 -8.11719,7.3623 5.33496,0.38477 10.73144,-0.0234 15.85644,-1.77246 z" /><linearGradient
         gradientUnits="userSpaceOnUse"
         id="XMLID_11_-100"
         y2="11.573135"
         x2="128.00047"
         y1="244.42773"
         x1="128.00049"><stop
           offset="0.005615"
           style="stop-color:#767676;stop-opacity:1"
           id="stop4364" /><stop
           offset="0.54494399"
           style="stop-color:#464646;stop-opacity:1"
           id="stop4366" /><stop
           offset="1"
           style="stop-color:#5e5e5e;stop-opacity:1"
           id="stop4368" /><midPointStop
           offset="0.005615"
           style="stop-color:#767676"
           id="midPointStop126" /><midPointStop
           offset="0.5"
           style="stop-color:#767676"
           id="midPointStop128" /><midPointStop
           offset="0.544944"
           style="stop-color:#464646"
           id="midPointStop130" /><midPointStop
           offset="0.5"
           style="stop-color:#464646"
           id="midPointStop132" /><midPointStop
           offset="1"
           style="stop-color:#5e5e5e"
           id="midPointStop134" /></linearGradient><linearGradient
         gradientUnits="userSpaceOnUse"
         id="XMLID_12_-16"
         y2="11.546326"
         x2="127.9995"
         y1="244.40723"
         x1="127.99951"><stop
           offset="0.005615"
           style="stop-color:#a0a0a0;stop-opacity:1"
           id="stop4371" /><stop
           offset="0.57303399"
           style="stop-color:#c9c9c9;stop-opacity:1"
           id="stop4373" /><stop
           offset="1"
           style="stop-color:#ededed;stop-opacity:1"
           id="stop4375" /><midPointStop
           offset="0.005615"
           style="stop-color:#a0a0a0"
           id="midPointStop147" /><midPointStop
           offset="0.5"
           style="stop-color:#a0a0a0"
           id="midPointStop149" /><midPointStop
           offset="0.573034"
           style="stop-color:#c9c9c9"
           id="midPointStop151" /><midPointStop
           offset="0.5"
           style="stop-color:#c9c9c9"
           id="midPointStop153" /><midPointStop
           offset="1"
           style="stop-color:#ededed"
           id="midPointStop155" /></linearGradient><linearGradient
         gradientUnits="userSpaceOnUse"
         id="XMLID_13_-18"
         y2="16.285156"
         x2="128.00243"
         y1="239.71191"
         x1="128.00244"><stop
           offset="0"
           style="stop-color:#ffffff;stop-opacity:1"
           id="stop4378" /><stop
           offset="0.5"
           style="stop-color:#7f7f7f;stop-opacity:1"
           id="stop4380" /><stop
           offset="1"
           style="stop-color:#e4e4e4;stop-opacity:1"
           id="stop4382" /><midPointStop
           offset="0"
           style="stop-color:#ffffff"
           id="midPointStop168" /><midPointStop
           offset="0.5"
           style="stop-color:#ffffff"
           id="midPointStop170" /><midPointStop
           offset="0.5"
           style="stop-color:#7f7f7f"
           id="midPointStop172" /><midPointStop
           offset="0.5"
           style="stop-color:#7f7f7f"
           id="midPointStop174" /><midPointStop
           offset="1"
           style="stop-color:#e4e4e4"
           id="midPointStop176" /></linearGradient><radialGradient
         gradientTransform="matrix(1.4187,0,0,1.4187,43.4252,-204.0338)"
         gradientUnits="userSpaceOnUse"
         id="XMLID_14_-299"
         fy="234.03906"
         fx="59.616211"
         r="69.963379"
         cy="234.03906"
         cx="59.616211"><stop
           offset="0.60112399"
           style="stop-color:#ffffff;stop-opacity:1"
           id="stop4385" /><stop
           offset="0.87640399"
           style="stop-color:#ededed;stop-opacity:1"
           id="stop4387" /><stop
           offset="0.9141686"
           style="stop-color:#e9e9e9;stop-opacity:1"
           id="stop4389" /><stop
           offset="0.94998139"
           style="stop-color:#e0e0e0;stop-opacity:1"
           id="stop4391" /><stop
           offset="0.9849053"
           style="stop-color:#cfcfcf;stop-opacity:1"
           id="stop4393" /><stop
           offset="1"
           style="stop-color:#c6c6c6;stop-opacity:1"
           id="stop4395" /><midPointStop
           offset="0.601124"
           style="stop-color:#ffffff"
           id="midPointStop199" /><midPointStop
           offset="0.5"
           style="stop-color:#ffffff"
           id="midPointStop201" /><midPointStop
           offset="0.876404"
           style="stop-color:#ededed"
           id="midPointStop203" /><midPointStop
           offset="0.717949"
           style="stop-color:#ededed"
           id="midPointStop205" /><midPointStop
           offset="1"
           style="stop-color:#c6c6c6"
           id="midPointStop207" /></radialGradient><linearGradient
         gradientTransform="matrix(0.9546,0.0532,0.0532,0.9377,-6.635652,8.097183)"
         gradientUnits="userSpaceOnUse"
         id="XMLID_15_-231"
         y2="149.69531"
         x2="154.29785"
         y1="149.69531"
         x1="62.462891"><stop
           offset="0"
           style="stop-color:#b2b2b2;stop-opacity:1"
           id="stop4398" /><stop
           offset="1"
           style="stop-color:#7f7f7f;stop-opacity:1"
           id="stop4400" /><midPointStop
           offset="0"
           style="stop-color:#b2b2b2"
           id="midPointStop264" /><midPointStop
           offset="0.5"
           style="stop-color:#b2b2b2"
           id="midPointStop266" /><midPointStop
           offset="1"
           style="stop-color:#7f7f7f"
           id="midPointStop268" /></linearGradient><linearGradient
         gradientTransform="matrix(0.2588,0.9659,-0.9659,0.2588,104.8109,257.7903)"
         gradientUnits="userSpaceOnUse"
         id="XMLID_16_-600"
         y2="-86.028809"
         x2="-116.19824"
         y1="-86.028809"
         x1="-123.34863"><stop
           offset="0"
           style="stop-color:#606060;stop-opacity:1"
           id="stop4403" /><stop
           offset="0.0080328"
           style="stop-color:#6d6d6d;stop-opacity:1"
           id="stop4405" /><stop
           offset="0.0341428"
           style="stop-color:#929292;stop-opacity:1"
           id="stop4407" /><stop
           offset="0.0602025"
           style="stop-color:#afafaf;stop-opacity:1"
           id="stop4409" /><stop
           offset="0.0858713"
           style="stop-color:#c4c4c4;stop-opacity:1"
           id="stop4411" /><stop
           offset="0.1109687"
           style="stop-color:#d0d0d0;stop-opacity:1"
           id="stop4413" /><stop
           offset="0.134831"
           style="stop-color:#d4d4d4;stop-opacity:1"
           id="stop4415" /><stop
           offset="0.46629199"
           style="stop-color:#a5a5a5;stop-opacity:1"
           id="stop4417" /><stop
           offset="0.85393202"
           style="stop-color:#8b8b8b;stop-opacity:1"
           id="stop4419" /><stop
           offset="1"
           style="stop-color:#606060;stop-opacity:1"
           id="stop4421" /><midPointStop
           offset="0"
           style="stop-color:#606060"
           id="midPointStop303" /><midPointStop
           offset="0.30303"
           style="stop-color:#606060"
           id="midPointStop305" /><midPointStop
           offset="0.134831"
           style="stop-color:#d4d4d4"
           id="midPointStop307" /><midPointStop
           offset="0.5"
           style="stop-color:#d4d4d4"
           id="midPointStop309" /><midPointStop
           offset="0.466292"
           style="stop-color:#a5a5a5"
           id="midPointStop311" /><midPointStop
           offset="0.5"
           style="stop-color:#a5a5a5"
           id="midPointStop313" /><midPointStop
           offset="0.853932"
           style="stop-color:#8b8b8b"
           id="midPointStop315" /><midPointStop
           offset="0.5"
           style="stop-color:#8b8b8b"
           id="midPointStop317" /><midPointStop
           offset="1"
           style="stop-color:#606060"
           id="midPointStop319" /></linearGradient><linearGradient
         gradientTransform="matrix(-0.5,0.866,-0.866,-0.5,37.93764,322.7147)"
         gradientUnits="userSpaceOnUse"
         id="XMLID_17_-337"
         y2="58.22168"
         x2="-210.99219"
         y1="58.22168"
         x1="-218.14404"><stop
           offset="0"
           style="stop-color:#606060;stop-opacity:1"
           id="stop4424" /><stop
           offset="0.191011"
           style="stop-color:#d4d4d4;stop-opacity:1"
           id="stop4426" /><stop
           offset="0.46629199"
           style="stop-color:#a5a5a5;stop-opacity:1"
           id="stop4428" /><stop
           offset="0.85393202"
           style="stop-color:#8b8b8b;stop-opacity:1"
           id="stop4430" /><stop
           offset="1"
           style="stop-color:#606060;stop-opacity:1"
           id="stop4432" /><midPointStop
           offset="0"
           style="stop-color:#606060"
           id="midPointStop340" /><midPointStop
           offset="0.5"
           style="stop-color:#606060"
           id="midPointStop342" /><midPointStop
           offset="0.191011"
           style="stop-color:#d4d4d4"
           id="midPointStop344" /><midPointStop
           offset="0.5"
           style="stop-color:#d4d4d4"
           id="midPointStop346" /><midPointStop
           offset="0.466292"
           style="stop-color:#a5a5a5"
           id="midPointStop348" /><midPointStop
           offset="0.5"
           style="stop-color:#a5a5a5"
           id="midPointStop350" /><midPointStop
           offset="0.853932"
           style="stop-color:#8b8b8b"
           id="midPointStop352" /><midPointStop
           offset="0.5"
           style="stop-color:#8b8b8b"
           id="midPointStop354" /><midPointStop
           offset="1"
           style="stop-color:#606060"
           id="midPointStop356" /></linearGradient><linearGradient
         gradientUnits="userSpaceOnUse"
         id="XMLID_18_-881"
         y2="128"
         x2="139.45898"
         y1="128"
         x1="116.54004"><stop
           offset="0"
           style="stop-color:#a5a5a5;stop-opacity:1"
           id="stop4435" /><stop
           offset="1"
           style="stop-color:#606060;stop-opacity:1"
           id="stop4437" /><midPointStop
           offset="0"
           style="stop-color:#a5a5a5"
           id="midPointStop369" /><midPointStop
           offset="0.5"
           style="stop-color:#a5a5a5"
           id="midPointStop371" /><midPointStop
           offset="1"
           style="stop-color:#606060"
           id="midPointStop373" /></linearGradient><radialGradient
         gradientUnits="userSpaceOnUse"
         id="XMLID_19_-684"
         fy="116.17529"
         fx="126.61963"
         r="22.186035"
         cy="116.17529"
         cx="126.61963"><stop
           offset="0"
           style="stop-color:#a5a5a5;stop-opacity:1"
           id="stop4440" /><stop
           offset="0.58988798"
           style="stop-color:#606060;stop-opacity:1"
           id="stop4442" /><stop
           offset="1"
           style="stop-color:#ffffff;stop-opacity:1"
           id="stop4444" /><midPointStop
           offset="0"
           style="stop-color:#a5a5a5"
           id="midPointStop386" /><midPointStop
           offset="0.5"
           style="stop-color:#a5a5a5"
           id="midPointStop388" /><midPointStop
           offset="0.589888"
           style="stop-color:#606060"
           id="midPointStop390" /><midPointStop
           offset="0.5"
           style="stop-color:#606060"
           id="midPointStop392" /><midPointStop
           offset="1"
           style="stop-color:#ffffff"
           id="midPointStop394" /></radialGradient><linearGradient
         gradientUnits="userSpaceOnUse"
         id="XMLID_20_-227"
         y2="123.58594"
         x2="137.875"
         y1="123.58594"
         x1="117.74365"><stop
           offset="0"
           style="stop-color:#ffffff;stop-opacity:1"
           id="stop4447" /><stop
           offset="1"
           style="stop-color:#606060;stop-opacity:1"
           id="stop4449" /><midPointStop
           offset="0"
           style="stop-color:#ffffff"
           id="midPointStop405" /><midPointStop
           offset="0.5"
           style="stop-color:#ffffff"
           id="midPointStop407" /><midPointStop
           offset="1"
           style="stop-color:#606060"
           id="midPointStop409" /></linearGradient></g><polyline
       style="fill:none"
       points="0,256 0,0 256,0 256,256 "
       id="_x3C_Slice_x3E_" /></g></svg>