<?xml version="1.0" encoding="UTF-8" standalone="no"?>
<!-- Created with Inkscape (http://www.inkscape.org/) -->

<svg
   xmlns:dc="http://purl.org/dc/elements/1.1/"
   xmlns:cc="http://creativecommons.org/ns#"
   xmlns:rdf="http://www.w3.org/1999/02/22-rdf-syntax-ns#"
   xmlns:svg="http://www.w3.org/2000/svg"
   xmlns="http://www.w3.org/2000/svg"
   xmlns:xlink="http://www.w3.org/1999/xlink"
   xmlns:sodipodi="http://sodipodi.sourceforge.net/DTD/sodipodi-0.dtd"
   xmlns:inkscape="http://www.inkscape.org/namespaces/inkscape"
   version="1.1"
   width="128"
   height="128"
   viewBox="0 0 128 128"
   id="svg1"
   xml:space="preserve"
   inkscape:version="0.91 r13725"
   sodipodi:docname="course_progress.svg"><metadata
     id="metadata189"><rdf:RDF><cc:Work
         rdf:about=""><dc:format>image/svg+xml</dc:format><dc:type
           rdf:resource="http://purl.org/dc/dcmitype/StillImage" /><dc:title /></cc:Work></rdf:RDF></metadata><defs
     id="defs187"><linearGradient
       inkscape:collect="always"
       id="linearGradient9690"><stop
         style="stop-color:#ffffff;stop-opacity:1"
         offset="0"
         id="stop9692" /><stop
         style="stop-color:#ffffff;stop-opacity:0"
         offset="1"
         id="stop9694" /></linearGradient><linearGradient
       inkscape:collect="always"
       id="linearGradient9675"><stop
         style="stop-color:#000000;stop-opacity:1;"
         offset="0"
         id="stop9677" /><stop
         style="stop-color:#000000;stop-opacity:0;"
         offset="1"
         id="stop9679" /></linearGradient><linearGradient
       inkscape:collect="always"
       id="linearGradient9610"><stop
         style="stop-color:#c1c4bd;stop-opacity:1;"
         offset="0"
         id="stop9612" /><stop
         style="stop-color:#c1c4bd;stop-opacity:0;"
         offset="1"
         id="stop9614" /></linearGradient><linearGradient
       x1="-243.36572"
       y1="117.81152"
       x2="-44.489182"
       y2="117.81152"
       id="XMLID_14_"
       gradientUnits="userSpaceOnUse"><stop
         id="stop120"
         style="stop-color:#930000;stop-opacity:1"
         offset="0" /><stop
         id="stop122"
         style="stop-color:#7c0000;stop-opacity:1"
         offset="1" /><midPointStop
         id="midPointStop124"
         style="stop-color:#930000"
         offset="0" /><midPointStop
         id="midPointStop126"
         style="stop-color:#930000"
         offset="0.5" /><midPointStop
         id="midPointStop128"
         style="stop-color:#7C0000"
         offset="1" /></linearGradient><linearGradient
       x1="-252.77881"
       y1="432.85742"
       x2="-53.903809"
       y2="432.85742"
       id="path22_1_"
       gradientUnits="userSpaceOnUse"
       gradientTransform="matrix(0.9997,-0.0243,0.0243,0.9997,269.165,-318.378)"><stop
         id="stop135"
         style="stop-color:#990000;stop-opacity:1"
         offset="0" /><stop
         id="stop137"
         style="stop-color:#cf0000;stop-opacity:1"
         offset="1" /><midPointStop
         id="midPointStop139"
         style="stop-color:#990000"
         offset="0" /><midPointStop
         id="midPointStop141"
         style="stop-color:#990000"
         offset="0.5" /><midPointStop
         id="midPointStop143"
         style="stop-color:#CF0000"
         offset="1" /></linearGradient><linearGradient
       x1="127.51514"
       y1="258.85254"
       x2="127.51513"
       y2="35.526123"
       id="path43_1_"
       gradientUnits="userSpaceOnUse"><stop
         id="stop150"
         style="stop-color:#cf0000;stop-opacity:1"
         offset="0" /><stop
         id="stop152"
         style="stop-color:#ff0000;stop-opacity:1"
         offset="1" /><midPointStop
         id="midPointStop154"
         style="stop-color:#CF0000"
         offset="0" /><midPointStop
         id="midPointStop156"
         style="stop-color:#CF0000"
         offset="0.5" /><midPointStop
         id="midPointStop158"
         style="stop-color:#FF0000"
         offset="1" /></linearGradient><linearGradient
       x1="-52.44873"
       y1="186.85156"
       x2="231.93796"
       y2="186.85156"
       id="XMLID_1_"
       gradientUnits="userSpaceOnUse"><stop
         id="stop165"
         style="stop-color:#ff0000;stop-opacity:1"
         offset="0" /><stop
         id="stop167"
         style="stop-color:#ffffff;stop-opacity:1"
         offset="1" /><midPointStop
         id="midPointStop169"
         style="stop-color:#FF0000"
         offset="0" /><midPointStop
         id="midPointStop171"
         style="stop-color:#FF0000"
         offset="0.5" /><midPointStop
         id="midPointStop173"
         style="stop-color:#FFFFFF"
         offset="1" /></linearGradient><linearGradient
       x1="43.791992"
       y1="103.56787"
       x2="210.86914"
       y2="103.56787"
       id="path47_1_"
       gradientUnits="userSpaceOnUse"
       gradientTransform="scale(2.1333332,2.1333332)"><stop
         id="stop182"
         style="stop-color:#428aff;stop-opacity:1"
         offset="0" /><stop
         id="stop184"
         style="stop-color:#006dff;stop-opacity:1"
         offset="1" /><midPointStop
         id="midPointStop186"
         style="stop-color:#428AFF"
         offset="0" /><midPointStop
         id="midPointStop188"
         style="stop-color:#428AFF"
         offset="0.5" /><midPointStop
         id="midPointStop190"
         style="stop-color:#006DFF"
         offset="1" /></linearGradient><linearGradient
       x1="-193.02539"
       y1="497.85254"
       x2="-187.56224"
       y2="325.60233"
       id="path64_1_"
       gradientUnits="userSpaceOnUse"
       gradientTransform="matrix(2.1326932,-0.05184,0.05184,2.1326932,574.22076,-679.20636)"><stop
         id="stop197"
         style="stop-color:#7d7d99;stop-opacity:1"
         offset="0" /><stop
         id="stop199"
         style="stop-color:#c9e6ff;stop-opacity:1"
         offset="0.75" /><midPointStop
         id="midPointStop201"
         style="stop-color:#7D7D99"
         offset="0" /><midPointStop
         id="midPointStop203"
         style="stop-color:#7D7D99"
         offset="0.5" /><midPointStop
         id="midPointStop205"
         style="stop-color:#C9E6FF"
         offset="0.75" /></linearGradient><linearGradient
       x1="-112.72949"
       y1="504.625"
       x2="-110.88468"
       y2="349.53345"
       id="path79_1_"
       gradientUnits="userSpaceOnUse"
       gradientTransform="matrix(2.1326932,-0.05184,0.05184,2.1326932,574.21863,-679.20636)"><stop
         id="stop212"
         style="stop-color:#7d7d99;stop-opacity:1"
         offset="0" /><stop
         id="stop214"
         style="stop-color:#c9e6ff;stop-opacity:1"
         offset="0.75" /><midPointStop
         id="midPointStop216"
         style="stop-color:#7D7D99"
         offset="0" /><midPointStop
         id="midPointStop218"
         style="stop-color:#7D7D99"
         offset="0.5" /><midPointStop
         id="midPointStop220"
         style="stop-color:#C9E6FF"
         offset="0.75" /></linearGradient><linearGradient
       x1="-190.68506"
       y1="362.61133"
       x2="-189.75751"
       y2="455.74768"
       id="path96_1_"
       gradientUnits="userSpaceOnUse"
       gradientTransform="matrix(2.1326932,-0.05184,0.05184,2.1326932,574.21863,-679.20636)"><stop
         id="stop227"
         style="stop-color:#ffffff;stop-opacity:1"
         offset="0.0337" /><stop
         id="stop229"
         style="stop-color:#c9e6ff;stop-opacity:1"
         offset="1" /><midPointStop
         id="midPointStop231"
         style="stop-color:#FFFFFF"
         offset="0.0337" /><midPointStop
         id="midPointStop233"
         style="stop-color:#FFFFFF"
         offset="0.5" /><midPointStop
         id="midPointStop235"
         style="stop-color:#C9E6FF"
         offset="1" /></linearGradient><linearGradient
       x1="-108.26758"
       y1="368.43945"
       x2="-125.14713"
       y2="490.78171"
       id="path111_1_"
       gradientUnits="userSpaceOnUse"
       gradientTransform="matrix(2.1326932,-0.05184,0.05184,2.1326932,574.21863,-679.20636)"><stop
         id="stop244"
         style="stop-color:#ffffff;stop-opacity:1"
         offset="0.0337" /><stop
         id="stop246"
         style="stop-color:#c9e6ff;stop-opacity:1"
         offset="1" /><midPointStop
         id="midPointStop248"
         style="stop-color:#FFFFFF"
         offset="0.0337" /><midPointStop
         id="midPointStop250"
         style="stop-color:#FFFFFF"
         offset="0.5" /><midPointStop
         id="midPointStop252"
         style="stop-color:#C9E6FF"
         offset="1" /></linearGradient><linearGradient
       inkscape:collect="always"
       xlink:href="#linearGradient9610"
       id="linearGradient9616"
       x1="836.93658"
       y1="302.01611"
       x2="755.57483"
       y2="301.3248"
       gradientUnits="userSpaceOnUse"
       gradientTransform="matrix(1,0,0,0.97432812,0,7.8608207)" /><linearGradient
       inkscape:collect="always"
       xlink:href="#linearGradient9610"
       id="linearGradient9620"
       gradientUnits="userSpaceOnUse"
       x1="836.93658"
       y1="302.01611"
       x2="755.57483"
       y2="301.3248"
       gradientTransform="matrix(-1,0,0,0.95662976,1678.2972,10.918568)" /><filter
       inkscape:collect="always"
       style="color-interpolation-filters:sRGB"
       id="filter9653"
       x="-0.75357977"
       width="2.5071595"
       y="-0.024789496"
       height="1.049579"><feGaussianBlur
         inkscape:collect="always"
         stdDeviation="1.7040974"
         id="feGaussianBlur9655" /></filter><linearGradient
       inkscape:collect="always"
       xlink:href="#linearGradient9675"
       id="linearGradient9681"
       x1="1168.9603"
       y1="111.01825"
       x2="1275.5564"
       y2="314.95959"
       gradientUnits="userSpaceOnUse" /><linearGradient
       inkscape:collect="always"
       xlink:href="#linearGradient9690"
       id="linearGradient9696"
       x1="669.06525"
       y1="249.10329"
       x2="771.30188"
       y2="412.25638"
       gradientUnits="userSpaceOnUse" /><linearGradient
       inkscape:collect="always"
       xlink:href="#linearGradient9690"
       id="linearGradient9700"
       gradientUnits="userSpaceOnUse"
       x1="669.06525"
       y1="249.10329"
       x2="771.30188"
       y2="412.25638"
       gradientTransform="matrix(-1,0,0,1,1672.0225,-0.64219554)" /></defs><sodipodi:namedview
     pagecolor="#ffffff"
     bordercolor="#666666"
     borderopacity="1"
     objecttolerance="10"
     gridtolerance="10"
     guidetolerance="10"
     inkscape:pageopacity="0"
     inkscape:pageshadow="2"
     inkscape:window-width="1325"
     inkscape:window-height="747"
     id="namedview185"
     showgrid="false"
     inkscape:zoom="1.5429271"
     inkscape:cx="39.259834"
     inkscape:cy="8.5199562"
     inkscape:window-x="41"
     inkscape:window-y="21"
     inkscape:window-maximized="1"
     inkscape:current-layer="svg1"
     showguides="false" /><polyline
     style="fill:none"
     points="0,256 0,0 256,0 256,256"
     id="_x3C_Slice_x3E_"
     transform="scale(2.1333332,2.1333332)" /><g
     id="g9702"
     transform="matrix(0.35387638,0,0,0.37862739,-231.35327,-56.790763)"><path
       sodipodi:nodetypes="ccccccccc"
       inkscape:connector-curvature="0"
       id="path9600"
       d="m 665.31362,424.41171 134.92031,0 c 4.76593,-9.25785 18.65574,-6.46549 21.02021,0.97768 l 31.77467,0 c 1.30239,-7.71179 15.79395,-10.93856 19.06483,0 l 133.94266,0 -26.88632,-196.02553 -285.97238,-0.97769 z"
       style="fill:#41293e;fill-opacity:0.99215686;fill-rule:evenodd;stroke:none;stroke-width:1.70666659;stroke-linecap:butt;stroke-linejoin:miter;stroke-miterlimit:4;stroke-dasharray:none;stroke-opacity:1" /><path
       sodipodi:nodetypes="cccccccc"
       inkscape:connector-curvature="0"
       id="path9602"
       d="m 676.11742,413.05293 c 44.55806,-0.64237 84.85061,-16.44491 126.16712,-1.38266 16.989,-17.34637 47.65256,-18.18906 67.75001,1.38266 40.12157,-16.46642 78.9535,0.43924 124.78446,0.69132 L 972.00523,223.9751 c -39.79396,-19.72232 -96.0006,-31.96971 -133.88522,-11.65713 -36.13227,-16.89607 -88.40914,-10.23803 -136.4235,11.31144 z"
       style="fill:#9b9d97;fill-opacity:1;fill-rule:evenodd;stroke:none;stroke-width:1.70666659;stroke-linecap:butt;stroke-linejoin:miter;stroke-miterlimit:4;stroke-dasharray:none;stroke-opacity:1" /><path
       sodipodi:nodetypes="ccccccc"
       inkscape:connector-curvature="0"
       id="path9604"
       d="m 683.40075,397.03657 c 34.79539,-15.91842 99.61102,-38.93121 152.02977,-9.77684 44.98792,-33.24059 118.81748,-4.39838 150.56327,6.35495 L 965.95126,226.4308 C 921.37613,201.42161 870.53451,199.87069 838.29199,215.00233 802.48321,199.8824 748.20881,205.22478 707.35398,226.91964 Z"
       style="fill:#666666;fill-opacity:1;fill-rule:evenodd;stroke:none;stroke-width:1.27999997;stroke-linecap:butt;stroke-linejoin:miter;stroke-miterlimit:4;stroke-dasharray:none;stroke-opacity:1" /><path
       style="fill:#ffffff;fill-opacity:1;fill-rule:evenodd;stroke:none;stroke-width:1.25636554;stroke-linecap:butt;stroke-linejoin:miter;stroke-miterlimit:4;stroke-dasharray:none;stroke-opacity:1"
       d="m 685.80555,394.29216 c 34.32176,-15.54763 98.25514,-38.02437 149.96038,-9.54911 44.37555,-32.46631 117.20017,-4.29592 148.51383,6.20692 l -19.76971,-163.2896 c -43.96838,-24.42665 -95.48178,-23.7188 -126.09209,-10.96529 -35.32136,-12.91087 -88.6865,-9.74678 -128.98523,11.44273 z"
       id="path9606"
       inkscape:connector-curvature="0"
       sodipodi:nodetypes="ccccccc" /><path
       sodipodi:nodetypes="ccccc"
       inkscape:connector-curvature="0"
       id="path9608"
       d="m 838.3636,221.81063 -2.44425,158.60532 C 818.19781,368.07417 783.45253,363.09292 746.60452,370.33208 L 756.72699,217.0477 c 27.68941,-6.00656 61.52414,-3.835 81.63661,4.76293 z"
       style="fill:url(#linearGradient9616);fill-opacity:1;fill-rule:evenodd;stroke:none;stroke-width:1.70666659;stroke-linecap:butt;stroke-linejoin:miter;stroke-miterlimit:4;stroke-dasharray:none;stroke-opacity:1" /><path
       style="fill:url(#linearGradient9620);fill-opacity:1;fill-rule:evenodd;stroke:none;stroke-width:1.70666659;stroke-linecap:butt;stroke-linejoin:miter;stroke-miterlimit:4;stroke-dasharray:none;stroke-opacity:1"
       d="m 838.37813,221.65564 -2.39504,158.41864 c 17.72154,-12.11759 58.86159,-20.37629 95.7096,-13.26862 L 921.57022,216.30564 c -27.68941,-5.89747 -63.07962,-3.09175 -83.19209,5.35 z"
       id="path9618"
       inkscape:connector-curvature="0"
       sodipodi:nodetypes="ccccc" /><path
       sodipodi:nodetypes="cccccc"
       inkscape:connector-curvature="0"
       id="rect9622"
       d="m 839.40533,207.15167 3.45664,0 0.10827,163.9058 -1.516,1.06461 -1.54074,-0.88731 z"
       style="opacity:1;fill:#999999;fill-opacity:1;stroke:none;stroke-width:0.40000001;stroke-linecap:square;stroke-linejoin:bevel;stroke-miterlimit:4;stroke-dasharray:none;stroke-dashoffset:0;stroke-opacity:0.46842107;filter:url(#filter9653)"
       transform="matrix(0.99988586,0.01510865,-0.01510865,0.99988586,0,0)" /><path
       sodipodi:nodetypes="cccccc"
       inkscape:connector-curvature="0"
       id="path9688"
       d="m 683.37634,409.59629 c 40.6071,-7.07729 85.0395,-15.46797 117.87123,-3.45663 8.16556,-4.11628 13.78481,-9.36425 29.72701,-10.02424 l 1.38266,-9.3329 c -46.17832,-17.19773 -98.08552,-9.18653 -147.94389,13.1352 z"
       style="fill:url(#linearGradient9696);fill-opacity:1;fill-rule:evenodd;stroke:none;stroke-width:0.85333329;stroke-linecap:butt;stroke-linejoin:miter;stroke-miterlimit:4;stroke-dasharray:none;stroke-opacity:1" /><path
       style="fill:url(#linearGradient9700);fill-opacity:1;fill-rule:evenodd;stroke:none;stroke-width:0.85333329;stroke-linecap:butt;stroke-linejoin:miter;stroke-miterlimit:4;stroke-dasharray:none;stroke-opacity:1"
       d="m 988.64619,408.9541 c -40.6071,-7.07729 -85.0395,-15.46797 -117.87123,-3.45663 -8.16556,-4.11628 -13.78481,-9.36425 -29.72701,-10.02424 l -1.38266,-9.3329 c 46.17832,-17.19773 98.08552,-9.18653 147.94389,13.1352 z"
       id="path9698"
       inkscape:connector-curvature="0"
       sodipodi:nodetypes="cccccc" /><g
       transform="translate(-382.99494,8.2959193)"
       id="g9683"><path
         sodipodi:type="inkscape:offset"
         inkscape:radius="1.4165888"
         inkscape:original="M 1219.0449 201.17383 C 1216.7841 201.12916 1214.6239 202.44286 1214.0508 205.33203 L 1216.791 236.41992 C 1220.352 276.83849 1310.3387 317.72834 1267.8926 390.92969 L 1287.5957 385.40039 L 1294.5098 399.22656 C 1300.7733 377.2293 1304.4566 349.98397 1296.2383 327.32812 C 1284.8145 295.83558 1238.2686 267.79587 1226.7598 229.85156 C 1224.3073 221.76559 1225.4511 225.6147 1224.6445 205.16797 C 1223.6678 202.62162 1221.3058 201.2185 1219.0449 201.17383 z "
         style="fill:#800000;fill-rule:evenodd;stroke:none;stroke-width:1.70666659;stroke-linecap:butt;stroke-linejoin:miter;stroke-miterlimit:4;stroke-dasharray:none;stroke-opacity:1"
         id="path9661"
         d="m 1219.0723,199.75781 c -2.8271,-0.0559 -5.7208,1.82365 -6.4102,5.29883 a 1.4167304,1.4167304 0 0 0 -0.022,0.40039 l 2.7383,31.08789 c 0.9342,10.60342 7.4209,20.91282 15.7481,31.64258 8.3271,10.72976 18.5651,21.90069 27.3183,34.02344 8.7532,12.12274 16.0053,25.1719 18.4746,39.61718 2.4693,14.44529 0.2219,30.3277 -10.2519,48.39063 a 1.4167304,1.4167304 0 0 0 1.6074,2.07422 l 18.5762,-5.21289 6.3906,12.7793 a 1.4167304,1.4167304 0 0 0 2.6308,-0.24415 c 6.3079,-22.15288 10.086,-49.64388 1.6973,-72.76953 -5.8762,-16.19935 -20.5131,-31.12681 -35,-46.79882 -14.4868,-15.67202 -28.8265,-32.05013 -34.4551,-50.60743 -1.2266,-4.04419 -1.4984,-4.85742 -1.6152,-7.36133 -0.1168,-2.5039 -0.035,-6.72057 -0.4395,-16.96679 a 1.4167304,1.4167304 0 0 0 -0.094,-0.45117 c -1.1879,-3.0969 -4.0674,-4.84649 -6.8945,-4.90235 z" /><path
         sodipodi:type="inkscape:offset"
         inkscape:radius="-0.87014127"
         inkscape:original="M 1219.0449 201.17383 C 1216.7841 201.12916 1214.6239 202.44286 1214.0508 205.33203 L 1216.791 236.41992 C 1220.352 276.83849 1310.3387 317.72834 1267.8926 390.92969 L 1287.5957 385.40039 L 1294.5098 399.22656 C 1300.7733 377.2293 1304.4566 349.98397 1296.2383 327.32812 C 1284.8145 295.83558 1238.2686 267.79587 1226.7598 229.85156 C 1224.3073 221.76559 1225.4511 225.6147 1224.6445 205.16797 C 1223.6678 202.62162 1221.3058 201.2185 1219.0449 201.17383 z "
         style="fill:#aa0000;fill-rule:evenodd;stroke:none;stroke-width:1.70666659;stroke-linecap:butt;stroke-linejoin:miter;stroke-miterlimit:4;stroke-dasharray:none;stroke-opacity:1"
         id="path9663"
         d="m 1219.0273,202.04297 c -1.8897,-0.0373 -3.5693,0.9198 -4.0937,3.38086 l 2.7246,30.91992 c 0.8633,9.79827 7.0343,19.8245 15.2754,30.44336 8.241,10.61886 18.5094,21.81639 27.3672,34.08398 8.8578,12.2676 16.3172,25.62073 18.873,40.57227 2.4706,14.45262 0.2463,30.39251 -9.5605,48.09961 l 17.748,-4.98047 a 0.87022828,0.87022828 0 0 1 1.0117,0.44922 l 5.879,11.75586 c 5.8553,-21.50118 9.0146,-47.51115 1.1679,-69.14258 -5.6109,-15.46796 -20.0143,-30.3251 -34.5273,-46.02539 -14.513,-15.70029 -29.1332,-32.26911 -34.9649,-51.49609 -1.226,-4.04225 -1.5885,-5.25199 -1.7129,-7.91797 -0.1229,-2.63656 -0.048,-6.83096 -0.4355,-16.79493 -0.87,-2.14315 -2.8684,-3.31044 -4.752,-3.34765 z" /><path
         d="m 1219.0273,202.04297 c -1.8897,-0.0373 -3.5693,0.9198 -4.0937,3.38086 l 2.7246,30.91992 c 0.8633,9.79827 7.0343,19.8245 15.2754,30.44336 8.241,10.61886 18.5094,21.81639 27.3672,34.08398 8.8578,12.2676 16.3172,25.62073 18.873,40.57227 2.4706,14.45262 0.2463,30.39251 -9.5605,48.09961 l 17.748,-4.98047 a 0.87022828,0.87022828 0 0 1 1.0117,0.44922 l 5.879,11.75586 c 5.8553,-21.50118 9.0146,-47.51115 1.1679,-69.14258 -5.6109,-15.46796 -20.0143,-30.3251 -34.5273,-46.02539 -14.513,-15.70029 -29.1332,-32.26911 -34.9649,-51.49609 -1.226,-4.04225 -1.5885,-5.25199 -1.7129,-7.91797 -0.1229,-2.63656 -0.048,-6.83096 -0.4355,-16.79493 -0.87,-2.14315 -2.8684,-3.31044 -4.752,-3.34765 z"
         id="path9665"
         style="fill:url(#linearGradient9681);fill-opacity:1;fill-rule:evenodd;stroke:none;stroke-width:1.70666659;stroke-linecap:butt;stroke-linejoin:miter;stroke-miterlimit:4;stroke-dasharray:none;stroke-opacity:1"
         inkscape:original="M 1219.0449 201.17383 C 1216.7841 201.12916 1214.6239 202.44286 1214.0508 205.33203 L 1216.791 236.41992 C 1220.352 276.83849 1310.3387 317.72834 1267.8926 390.92969 L 1287.5957 385.40039 L 1294.5098 399.22656 C 1300.7733 377.2293 1304.4566 349.98397 1296.2383 327.32812 C 1284.8145 295.83558 1238.2686 267.79587 1226.7598 229.85156 C 1224.3073 221.76559 1225.4511 225.6147 1224.6445 205.16797 C 1223.6678 202.62162 1221.3058 201.2185 1219.0449 201.17383 z "
         inkscape:radius="-0.87014127"
         sodipodi:type="inkscape:offset" /></g></g></svg>