<?xml version="1.0" encoding="UTF-8" standalone="no"?>
<svg
   xmlns:a="http://ns.adobe.com/AdobeSVGViewerExtensions/3.0/"
   xmlns:dc="http://purl.org/dc/elements/1.1/"
   xmlns:cc="http://creativecommons.org/ns#"
   xmlns:rdf="http://www.w3.org/1999/02/22-rdf-syntax-ns#"
   xmlns:svg="http://www.w3.org/2000/svg"
   xmlns="http://www.w3.org/2000/svg"
   xmlns:sodipodi="http://sodipodi.sourceforge.net/DTD/sodipodi-0.dtd"
   xmlns:inkscape="http://www.inkscape.org/namespaces/inkscape"
   height="128"
   version="1.1"
   width="128"
   id="svg2"
   viewBox="0 0 128 128"
   inkscape:version="0.91 r13725"
   sodipodi:docname="exercice_uncheck.svg">
  <metadata
     id="metadata20">
    <rdf:RDF>
      <cc:Work
         rdf:about="">
        <dc:format>image/svg+xml</dc:format>
        <dc:type
           rdf:resource="http://purl.org/dc/dcmitype/StillImage" />
        <dc:title></dc:title>
      </cc:Work>
    </rdf:RDF>
  </metadata>
  <defs
     id="defs18">
    <linearGradient
       id="XMLID_8_"
       gradientUnits="userSpaceOnUse"
       x1="74.5"
       y1="5.0479002"
       x2="74.5"
       y2="124.2402">
      <stop
         offset="0"
         style="stop-color:#FFFFFF"
         id="stop4539" />
      <stop
         offset="1"
         style="stop-color:#E1E1DF"
         id="stop4541" />
    </linearGradient>
    <linearGradient
       id="XMLID_9_"
       gradientUnits="userSpaceOnUse"
       x1="74.5"
       y1="11.0811"
       x2="74.5"
       y2="121.4673">
      <stop
         offset="0"
         style="stop-color:#FDFDFD"
         id="stop4546" />
      <stop
         offset="0.2985"
         style="stop-color:#F3F2F2"
         id="stop4548" />
      <stop
         offset="0.8174"
         style="stop-color:#D7D6D6"
         id="stop4550" />
      <stop
         offset="1"
         style="stop-color:#CCCBCA"
         id="stop4552" />
    </linearGradient>
    <radialGradient
       id="XMLID_10_"
       cx="110"
       cy="32.869099"
       r="15.5963"
       gradientUnits="userSpaceOnUse">
      <stop
         offset="0.2135"
         style="stop-color:#8E8E8F"
         id="stop4557" />
      <stop
         offset="0.927"
         style="stop-color:#EEEEEE"
         id="stop4559" />
    </radialGradient>
    <linearGradient
       id="XMLID_11_"
       gradientUnits="userSpaceOnUse"
       x1="92.023399"
       y1="9.9473"
       x2="104.2735"
       y2="32.947201">
      <stop
         offset="0"
         style="stop-color:#FFFEFE"
         id="stop4566" />
      <stop
         offset="1"
         style="stop-color:#CFD0D0"
         id="stop4568" />
    </linearGradient>
    <linearGradient
       id="XMLID_12_"
       gradientUnits="userSpaceOnUse"
       x1="99.530296"
       y1="5.1806998"
       x2="105.9053"
       y2="31.930599">
      <stop
         offset="0"
         style="stop-color:#FCFDFD"
         id="stop4573" />
      <stop
         offset="1"
         style="stop-color:#EEEEEE"
         id="stop4575" />
    </linearGradient>
    <style
       id="style4989">
      .cls-1 {
        fill: #cb0606;
      }

      .cls-1, .cls-2, .cls-3 {
        fill-rule: evenodd;
      }

      .cls-2 {
        fill: #fb8d8d;
      }

      .cls-3 {
        fill: #fff;
      }
    </style>
    <linearGradient
       id="linearGradient4799">
      <stop
         style="stop-color:#ffde00;stop-opacity:1;"
         offset="0"
         id="stop4801" />
      <stop
         style="stop-color:#ffa700;stop-opacity:1;"
         offset="1"
         id="stop4803" />
    </linearGradient>
    <linearGradient
       id="XMLID_139_"
       gradientUnits="userSpaceOnUse"
       x1="-978.25879"
       y1="-97.728996"
       x2="-958.24829"
       y2="-109.2294"
       gradientTransform="matrix(-0.3029494,2.5502786,2.5502786,0.3029494,142.16285,2550.761)">
      <stop
         offset="0"
         style="stop-color:#990000"
         id="stop1054" />
      <stop
         offset="1"
         style="stop-color:#7C0000"
         id="stop1055" />
      <a:midPointStop
         offset="0"
         style="stop-color:#990000"
         id="midPointStop1056" />
      <a:midPointStop
         offset="0.5"
         style="stop-color:#990000"
         id="midPointStop1057" />
      <a:midPointStop
         offset="1"
         style="stop-color:#7C0000"
         id="midPointStop1058" />
    </linearGradient>
    <linearGradient
       id="XMLID_140_"
       gradientUnits="userSpaceOnUse"
       x1="-1759.6841"
       y1="572.47748"
       x2="-1756.2351"
       y2="575.92682"
       gradientTransform="matrix(2.5661119,-0.0992276,0.0992276,2.5661119,4633.1297,-1596.7297)">
      <stop
         offset="0"
         style="stop-color:#F8F1DC"
         id="stop1061" />
      <stop
         offset="1"
         style="stop-color:#D6A84A"
         id="stop1062" />
      <a:midPointStop
         offset="0"
         style="stop-color:#F8F1DC"
         id="midPointStop1063" />
      <a:midPointStop
         offset="0.5"
         style="stop-color:#F8F1DC"
         id="midPointStop1064" />
      <a:midPointStop
         offset="1"
         style="stop-color:#D6A84A"
         id="midPointStop1065" />
    </linearGradient>
    <linearGradient
       id="XMLID_141_"
       gradientUnits="userSpaceOnUse"
       x1="-77.475098"
       y1="-9.6475"
       x2="-65.559402"
       y2="16.8074"
       gradientTransform="matrix(-2.5595127,0.21073554,0.21073554,2.5595127,-0.10527997,31.391666)">
      <stop
         offset="0"
         style="stop-color:#FFA700"
         id="stop1068" />
      <stop
         offset="0.7753"
         style="stop-color:#FFD700"
         id="stop1069" />
      <stop
         offset="1"
         style="stop-color:#FF794B"
         id="stop1070" />
      <a:midPointStop
         offset="0"
         style="stop-color:#FFA700"
         id="midPointStop1071" />
      <a:midPointStop
         offset="0.5"
         style="stop-color:#FFA700"
         id="midPointStop1072" />
      <a:midPointStop
         offset="0.7753"
         style="stop-color:#FFD700"
         id="midPointStop1073" />
      <a:midPointStop
         offset="0.5"
         style="stop-color:#FFD700"
         id="midPointStop1074" />
      <a:midPointStop
         offset="1"
         style="stop-color:#FF794B"
         id="midPointStop1075" />
    </linearGradient>
    <linearGradient
       id="XMLID_142_"
       gradientUnits="userSpaceOnUse"
       x1="-1753.1719"
       y1="564.30762"
       x2="-1751.3385"
       y2="562.12268"
       gradientTransform="matrix(2.5661119,-0.0992276,0.0992276,2.5661119,4633.1297,-1596.7297)">
      <stop
         offset="0"
         style="stop-color:#FFC957"
         id="stop1081" />
      <stop
         offset="1"
         style="stop-color:#FF6D00"
         id="stop1082" />
      <a:midPointStop
         offset="0"
         style="stop-color:#FFC957"
         id="midPointStop1083" />
      <a:midPointStop
         offset="0.5"
         style="stop-color:#FFC957"
         id="midPointStop1084" />
      <a:midPointStop
         offset="1"
         style="stop-color:#FF6D00"
         id="midPointStop1085" />
    </linearGradient>
    <linearGradient
       id="XMLID_143_"
       gradientUnits="userSpaceOnUse"
       x1="-1763.8779"
       y1="557.69922"
       x2="-1755.4205"
       y2="573.91705"
       gradientTransform="matrix(2.5661119,-0.0992276,0.0992276,2.5661119,4633.1297,-1596.7297)">
      <stop
         offset="0"
         style="stop-color:#FFA700"
         id="stop1088" />
      <stop
         offset="0.7753"
         style="stop-color:#FFD700"
         id="stop1089" />
      <stop
         offset="1"
         style="stop-color:#FF9200"
         id="stop1090" />
      <a:midPointStop
         offset="0"
         style="stop-color:#FFA700"
         id="midPointStop1091" />
      <a:midPointStop
         offset="0.5"
         style="stop-color:#FFA700"
         id="midPointStop1092" />
      <a:midPointStop
         offset="0.7753"
         style="stop-color:#FFD700"
         id="midPointStop1093" />
      <a:midPointStop
         offset="0.5"
         style="stop-color:#FFD700"
         id="midPointStop1094" />
      <a:midPointStop
         offset="1"
         style="stop-color:#FF9200"
         id="midPointStop1095" />
    </linearGradient>
    <linearGradient
       id="XMLID_144_"
       gradientUnits="userSpaceOnUse"
       x1="-77.0327"
       y1="9.4940996"
       x2="-64.389603"
       y2="9.4940996"
       gradientTransform="matrix(-2.5595127,0.21073554,0.21073554,2.5595127,-0.10527997,31.391666)">
      <stop
         offset="0"
         style="stop-color:#7D7D99"
         id="stop1098" />
      <stop
         offset="0.1798"
         style="stop-color:#B1B1C5"
         id="stop1099" />
      <stop
         offset="0.3727"
         style="stop-color:#BCBCC8"
         id="stop1100" />
      <stop
         offset="0.6825"
         style="stop-color:#C8C8CB"
         id="stop1101" />
      <stop
         offset="1"
         style="stop-color:#CCCCCC"
         id="stop1102" />
      <a:midPointStop
         offset="0"
         style="stop-color:#7D7D99"
         id="midPointStop1103" />
      <a:midPointStop
         offset="0.5"
         style="stop-color:#7D7D99"
         id="midPointStop1104" />
      <a:midPointStop
         offset="0.1798"
         style="stop-color:#B1B1C5"
         id="midPointStop1105" />
      <a:midPointStop
         offset="0.2881"
         style="stop-color:#B1B1C5"
         id="midPointStop1106" />
      <a:midPointStop
         offset="1"
         style="stop-color:#CCCCCC"
         id="midPointStop1107" />
    </linearGradient>
    <linearGradient
       gradientTransform="matrix(-0.3915,0.9202,0.9202,0.3915,-251.8165,957.8806)"
       y2="-109.2294"
       x2="-958.24829"
       y1="-97.728996"
       x1="-978.25879"
       gradientUnits="userSpaceOnUse"
       id="linearGradient5799">
      <stop
         id="stop5801"
         style="stop-color:#990000"
         offset="0" />
      <stop
         id="stop5803"
         style="stop-color:#7C0000"
         offset="1" />
      <a:midPointStop
         id="midPointStop1056"
         style="stop-color:#990000"
         offset="0" />
      <a:midPointStop
         id="midPointStop1057"
         style="stop-color:#990000"
         offset="0.5" />
      <a:midPointStop
         id="midPointStop1058"
         style="stop-color:#7C0000"
         offset="1" />
    </linearGradient>
    <linearGradient
       gradientTransform="matrix(0.97,0.2429,-0.2429,0.97,1879.3727,-102.3761)"
       y2="575.92682"
       x2="-1756.2351"
       y1="572.47748"
       x1="-1759.6841"
       gradientUnits="userSpaceOnUse"
       id="linearGradient5806">
      <stop
         id="stop5808"
         style="stop-color:#F8F1DC"
         offset="0" />
      <stop
         id="stop5810"
         style="stop-color:#D6A84A"
         offset="1" />
      <a:midPointStop
         id="midPointStop1063"
         style="stop-color:#F8F1DC"
         offset="0" />
      <a:midPointStop
         id="midPointStop1064"
         style="stop-color:#F8F1DC"
         offset="0.5" />
      <a:midPointStop
         id="midPointStop1065"
         style="stop-color:#D6A84A"
         offset="1" />
    </linearGradient>
    <linearGradient
       gradientTransform="matrix(-0.9797,-0.2005,-0.2005,0.9797,-30.1045,0.6561)"
       y2="16.8074"
       x2="-65.559402"
       y1="-9.6475"
       x1="-77.475098"
       gradientUnits="userSpaceOnUse"
       id="linearGradient5813">
      <stop
         id="stop5815"
         style="stop-color:#FFA700"
         offset="0" />
      <stop
         id="stop5817"
         style="stop-color:#FFD700"
         offset="0.7753" />
      <stop
         id="stop5819"
         style="stop-color:#FF794B"
         offset="1" />
      <a:midPointStop
         id="midPointStop1071"
         style="stop-color:#FFA700"
         offset="0" />
      <a:midPointStop
         id="midPointStop1072"
         style="stop-color:#FFA700"
         offset="0.5" />
      <a:midPointStop
         id="midPointStop1073"
         style="stop-color:#FFD700"
         offset="0.7753" />
      <a:midPointStop
         id="midPointStop1074"
         style="stop-color:#FFD700"
         offset="0.5" />
      <a:midPointStop
         id="midPointStop1075"
         style="stop-color:#FF794B"
         offset="1" />
    </linearGradient>
    <linearGradient
       gradientTransform="matrix(0.97,0.2429,-0.2429,0.97,1879.3727,-102.3761)"
       y2="562.12268"
       x2="-1751.3385"
       y1="564.30762"
       x1="-1753.1719"
       gradientUnits="userSpaceOnUse"
       id="linearGradient5825">
      <stop
         id="stop5827"
         style="stop-color:#FFC957"
         offset="0" />
      <stop
         id="stop5829"
         style="stop-color:#FF6D00"
         offset="1" />
      <a:midPointStop
         id="midPointStop1083"
         style="stop-color:#FFC957"
         offset="0" />
      <a:midPointStop
         id="midPointStop1084"
         style="stop-color:#FFC957"
         offset="0.5" />
      <a:midPointStop
         id="midPointStop1085"
         style="stop-color:#FF6D00"
         offset="1" />
    </linearGradient>
    <linearGradient
       gradientTransform="matrix(0.97,0.2429,-0.2429,0.97,1879.3727,-102.3761)"
       y2="574.7843"
       x2="-1756.1826"
       y1="557.69922"
       x1="-1763.8779"
       gradientUnits="userSpaceOnUse"
       id="linearGradient5832">
      <stop
         id="stop5834"
         style="stop-color:#FFA700"
         offset="0" />
      <stop
         id="stop5836"
         style="stop-color:#FFD700"
         offset="0.7753" />
      <stop
         id="stop5838"
         style="stop-color:#FF9200"
         offset="1" />
      <a:midPointStop
         id="midPointStop1091"
         style="stop-color:#FFA700"
         offset="0" />
      <a:midPointStop
         id="midPointStop1092"
         style="stop-color:#FFA700"
         offset="0.5" />
      <a:midPointStop
         id="midPointStop1093"
         style="stop-color:#FFD700"
         offset="0.7753" />
      <a:midPointStop
         id="midPointStop1094"
         style="stop-color:#FFD700"
         offset="0.5" />
      <a:midPointStop
         id="midPointStop1095"
         style="stop-color:#FF9200"
         offset="1" />
    </linearGradient>
    <linearGradient
       gradientTransform="matrix(-0.9797,-0.2005,-0.2005,0.9797,-30.1045,0.6561)"
       y2="9.4940996"
       x2="-64.389603"
       y1="9.4940996"
       x1="-77.0327"
       gradientUnits="userSpaceOnUse"
       id="linearGradient5841">
      <stop
         id="stop5843"
         style="stop-color:#7D7D99"
         offset="0" />
      <stop
         id="stop5845"
         style="stop-color:#B1B1C5"
         offset="0.1798" />
      <stop
         id="stop5847"
         style="stop-color:#BCBCC8"
         offset="0.3727" />
      <stop
         id="stop5849"
         style="stop-color:#C8C8CB"
         offset="0.6825" />
      <stop
         id="stop5851"
         style="stop-color:#CCCCCC"
         offset="1" />
      <a:midPointStop
         id="midPointStop1103"
         style="stop-color:#7D7D99"
         offset="0" />
      <a:midPointStop
         id="midPointStop1104"
         style="stop-color:#7D7D99"
         offset="0.5" />
      <a:midPointStop
         id="midPointStop1105"
         style="stop-color:#B1B1C5"
         offset="0.1798" />
      <a:midPointStop
         id="midPointStop1106"
         style="stop-color:#B1B1C5"
         offset="0.2881" />
      <a:midPointStop
         id="midPointStop1107"
         style="stop-color:#CCCCCC"
         offset="1" />
    </linearGradient>
  </defs>
  <sodipodi:namedview
     pagecolor="#ffffff"
     bordercolor="#666666"
     borderopacity="1"
     objecttolerance="10"
     gridtolerance="10"
     guidetolerance="10"
     inkscape:pageopacity="0"
     inkscape:pageshadow="2"
     inkscape:window-width="1873"
     inkscape:window-height="1056"
     id="namedview16"
     showgrid="false"
     inkscape:zoom="13.906433"
     inkscape:cx="50.003323"
     inkscape:cy="47.808665"
     inkscape:window-x="1413"
     inkscape:window-y="24"
     inkscape:window-maximized="1"
     inkscape:current-layer="svg2" />
  <g
     transform="matrix(1.0333334,0,0,1.0333334,-11.977454,-4.6306154)"
     id="g5149">
    <path
       style="opacity:0.2"
       inkscape:connector-curvature="0"
       id="path4532"
       d="M 30.666,7 C 28.816,7 27,8.83 27,10.694 c 0,106.39 0,106.39 0,109.807 0,3.917 4,4.499 4,4.499 l 87,0 c 0,0 4,-0.268 4,-4.018 0,-3.75 0,-78.479 0,-78.479 C 122,37.306 94.325,7 87.135,7 L 30.666,7 Z" />
    <path
       style="opacity:0.2"
       inkscape:connector-curvature="0"
       id="path4534"
       d="M 30.666,8 C 28.816,8 27,9.83 27,11.694 c 0,106.39 0,106.39 0,109.807 0,3.917 5,4.499 5,4.499 l 85,0 c 0,0 5,-0.268 5,-4.018 0,-3.75 0,-78.479 0,-78.479 C 122,38.306 94.325,8 87.135,8 L 30.666,8 Z" />
    <path
       style="opacity:0.6;fill:#262626"
       inkscape:connector-curvature="0"
       id="path4536"
       d="M 30.666,6 C 28.816,6 27,7.83 27,9.694 c 0,106.39 0,106.39 0,109.807 0,3.917 3,4.499 3,4.499 l 89,0 c 0,0 3,-0.268 3,-4.018 0,-3.75 0,-78.479 0,-78.479 C 122,36.306 94.325,6 87.135,6 L 30.666,6 Z" />
    <path
       style="fill:url(#XMLID_8_)"
       inkscape:connector-curvature="0"
       id="path4543"
       d="m 121,120.113 c 0,2.584 -2.398,2.887 -2.398,2.887 l -88.104,0 C 30.498,123 28,122.525 28,119.917 28,100.1 28,10.861 28,9.694 28,8.374 29.359,7 30.666,7 31.66,7 79.135,7 87.135,7 94.167,7 121,37.326 121,41.504 c 0,4.619 0,63.145 0,78.609 z" />
    <path
       style="fill:url(#XMLID_9_)"
       inkscape:connector-curvature="0"
       id="path4554"
       d="m 120,119.282 c 0,2.481 -2,2.718 -2,2.718 l -87,0 c 0,0 -2,-0.163 -2,-2.249 C 29,101.736 29,10.877 29,9.694 29,8.374 30.317,7 31.583,7 32.547,7 79.442,7 87.193,7 94.006,7 120,37.326 120,41.504 c 0,4.63 0,62.674 0,77.778 z" />
    <path
       style="fill:url(#XMLID_10_)"
       inkscape:connector-curvature="0"
       id="path4561"
       d="m 120,39 c 0,7.18 -2.82,13 -10,13 -7.18,0 -16,-5.82 -16,-13 0,-7.18 2.82,-9 10,-9 7.18,0 11,4 16,9 z" />
    <path
       style="opacity:0.5;fill:#343434"
       inkscape:connector-curvature="0"
       id="path4563"
       d="m 84.415,6.963 c 0.547,0 0.947,0.002 3.616,1.193 4.182,1.891 4.103,22.225 4.103,26.673 l -0.001,0.128 c 0,0.521 0.399,0.959 0.918,1.002 5.973,0.496 23.318,-0.848 26.406,4.026 1.199,1.608 1.365,2.858 1.918,2.858 0.553,0 0.625,-0.786 0.625,-1.339 0,-0.797 -0.257,-1.574 -0.766,-2.428 -0.004,-0.009 -0.002,-0.018 -0.006,-0.026 -0.014,-0.028 -0.038,-0.065 -0.053,-0.094 l 0,-0.001 C 118.87,34.256 95.385,8.574 88.821,6.365 88.815,6.363 88.814,6.357 88.809,6.355 88.802,6.352 88.794,6.353 88.788,6.351 88.767,6.343 88.739,6.328 88.718,6.32 88.624,6.291 88.531,6.279 88.439,6.277 88.01,6.133 87.578,6 87.135,6 86.627,6 84.473,6.457 84.415,6.963 Z" />
    <path
       style="fill:url(#XMLID_11_)"
       inkscape:connector-curvature="0"
       id="path4570"
       d="M 121,41.504 C 117.625,32.875 93.133,34.962 93.133,34.962 93.003,37.629 94.632,7 87.135,7 94.168,7 121,38.814 121,41.504 Z" />
    <path
       style="fill:url(#XMLID_12_)"
       inkscape:connector-curvature="0"
       id="path4577"
       d="M 121,41.504 C 119.5,33.563 94.25,33.438 94.25,33.438 94.225,36.104 94.524,7 87.135,7 94.168,7 121,38.814 121,41.504 Z" />
  </g>
  <g
     id="g6026"
     transform="translate(-74.497895,44.008409)">
    <path
       style="fill:#ffffff"
       d="m 151.61981,74.705643 c 3.64291,-15.638629 4.30086,-18.471247 4.73895,-19.096742 -0.0485,0.03555 -0.11873,0.08817 -0.11873,0.08817 L 186.3246,16.087244 c 1.61069,-2.107479 5.92426,-0.335482 9.25161,2.200606 3.29756,2.507331 6.16475,6.189022 4.66511,8.347018 l -30.248,39.654852 -0.22259,0.0623 -15.31672,8.732874 -3.15711,1.264028 0.32291,-1.643281 z"
       id="path1052"
       inkscape:connector-curvature="0" />
    <path
       style="fill:url(#XMLID_139_)"
       d="m 151.61981,74.705643 c 3.64291,-15.638629 4.30086,-18.471247 4.73895,-19.096742 -0.0485,0.03555 -0.11873,0.08817 -0.11873,0.08817 L 186.3246,16.087244 c 1.61069,-2.107479 5.92426,-0.335482 9.25161,2.200606 3.29756,2.507331 6.16475,6.189022 4.66511,8.347018 l -30.248,39.654852 -0.22259,0.0623 -15.31672,8.732874 -3.15711,1.264028 0.32291,-1.643281 z"
       id="path1059"
       inkscape:connector-curvature="0" />
    <path
       style="fill:url(#XMLID_140_)"
       d="m 158.38164,56.489844 -4.46174,16.554512 14.71338,-8.810915 -0.0734,-0.05885 c 0.10313,-0.04081 0.20338,-0.09147 0.28627,-0.155797 l 0.056,0.04519 28.85215,-37.856216 -0.057,-0.03954 c 0.85854,-1.128125 -0.75054,-3.799269 -3.59356,-5.968423 -2.84477,-2.165969 -5.84107,-3.008893 -6.7028,-1.882513 l -28.84794,37.852311 -0.17137,0.320236 z"
       id="path1066"
       inkscape:connector-curvature="0" />
    <path
       style="fill:url(#XMLID_141_)"
       d="m 166.88213,65.282357 c -0.88593,-0.08383 -2.00532,-0.463364 -3.16482,-1.071966 -0.71896,-0.373353 -1.4625,-0.849222 -2.19629,-1.410869 -0.659,-0.497871 -1.24764,-1.029657 -1.75687,-1.555195 -0.96523,-0.997053 -1.58172,-2.082528 -1.85189,-2.998889 l 0.47256,-1.753848 0.17138,-0.320236 28.65743,-37.606754 c -0.18038,0.967619 0.61136,2.470124 2.05181,3.967862 0.52803,0.544127 1.12664,1.091731 1.8069,1.607472 0.71253,0.543777 1.43942,1.008453 2.13578,1.377702 1.99601,1.054659 3.77498,1.356691 4.53593,0.682432 l 0.0103,0.0077 -28.85215,37.856216 -0.056,-0.04519 c -0.0822,0.06679 -0.18314,0.114991 -0.28627,0.155797 l 0.0734,0.05885 -1.75115,1.048916 z"
       id="path1076"
       inkscape:connector-curvature="0" />
    <path
       style="fill:#ffffff"
       d="m 197.84651,25.918678 c -0.66846,0.807782 -2.49983,0.537094 -4.56589,-0.555969 -0.68537,-0.359082 -1.39634,-0.815029 -2.09541,-1.349359 -0.66999,-0.508039 -1.25688,-1.04301 -1.77464,-1.579434 -1.66506,-1.72646 -2.44617,-3.467498 -1.83452,-4.341629 l -0.011,-0.01017 -29.04686,38.105678 c -0.19126,0.976148 0.47274,2.719266 1.94257,4.23518 0.50214,0.519581 1.07907,1.038735 1.72779,1.528904 0.7189,0.547269 1.44969,1.016155 2.15345,1.383245 2.10387,1.10343 4.06654,1.448155 4.72482,0.587163 0.14809,-0.198397 0.80391,-1.05867 0.81962,-1.087334 l 28.0699,-36.8333 -0.10983,-0.08298 z"
       id="path1077"
       inkscape:connector-curvature="0" />
    <path
       style="fill:#ffffff"
       d="m 194.10447,20.202275 c -2.84477,-2.165969 -5.84107,-3.008893 -6.7028,-1.882513 l -6.49935,8.529369 0.43415,11.21135 7.60579,-0.293944 8.81279,-11.556302 -0.057,-0.03954 c 0.86028,-1.13131 -0.75126,-3.801734 -3.59356,-5.968423 z"
       id="path1078"
       inkscape:connector-curvature="0" />
    <path
       style="fill:#ffffff"
       d="m 197.84651,25.918678 c -0.66846,0.807782 -2.49983,0.537094 -4.56589,-0.555969 -0.68537,-0.359082 -1.39634,-0.815029 -2.09541,-1.349359 -0.66999,-0.508039 -1.25688,-1.04301 -1.77464,-1.579434 -1.66506,-1.72646 -2.44617,-3.467498 -1.83452,-4.341629 l -0.011,-0.01017 -29.04686,38.105678 c -0.19126,0.976148 0.47274,2.719266 1.94257,4.23518 0.50214,0.519581 1.07907,1.038735 1.72779,1.528904 0.7189,0.547269 1.44969,1.016155 2.15345,1.383245 2.10387,1.10343 4.06654,1.448155 4.72482,0.587163 0.14809,-0.198397 0.80391,-1.05867 0.81962,-1.087334 l 28.0699,-36.8333 -0.10983,-0.08298 z"
       id="path1079"
       inkscape:connector-curvature="0" />
    <path
       style="fill:url(#XMLID_142_)"
       d="m 194.10447,20.202275 c -2.84477,-2.165969 -5.84107,-3.008893 -6.7028,-1.882513 l -6.49935,8.529369 0.43415,11.21135 7.60579,-0.293944 8.81279,-11.556302 -0.057,-0.03954 c 0.86028,-1.13131 -0.75126,-3.801734 -3.59356,-5.968423 z"
       id="path1086"
       inkscape:connector-curvature="0" />
    <path
       style="fill:url(#XMLID_143_)"
       d="m 197.84651,25.918678 c -0.66846,0.807782 -2.49983,0.537094 -4.56589,-0.555969 -0.68537,-0.359082 -1.39634,-0.815029 -2.09541,-1.349359 -0.66999,-0.508039 -1.25688,-1.04301 -1.77464,-1.579434 -1.66506,-1.72646 -2.44617,-3.467498 -1.83452,-4.341629 l -0.011,-0.01017 -29.04686,38.105678 c -0.19126,0.976148 0.47274,2.719266 1.94257,4.23518 0.50214,0.519581 1.07907,1.038735 1.72779,1.528904 0.7189,0.547269 1.44969,1.016155 2.15345,1.383245 2.10387,1.10343 4.06654,1.448155 4.72482,0.587163 0.14809,-0.198397 0.80391,-1.05867 0.81962,-1.087334 l 28.0699,-36.8333 -0.10983,-0.08298 z"
       id="path1096"
       inkscape:connector-curvature="0" />
    <path
       style="fill:url(#XMLID_144_)"
       d="m 195.45454,29.217339 c 0,0 -2.55405,0.122195 -4.61447,-0.969843 -0.68537,-0.359081 -1.39952,-0.816774 -2.09787,-1.348639 -0.66753,-0.508758 -1.25688,-1.043009 -1.77464,-1.579434 -1.35918,-1.411774 -2.13035,-2.834671 -2.0303,-3.784192 l 2.62851,-3.450646 0.011,0.01017 c -0.61165,0.874131 0.17018,2.617634 1.83452,4.341629 0.51776,0.536425 1.10465,1.071396 1.77464,1.579434 0.69907,0.53433 1.41004,0.990277 2.0954,1.349359 2.06361,1.093783 3.89744,1.363752 4.5659,0.555969 l 0.10737,0.0837 -28.06816,36.830115 c -0.015,0.03113 -0.67081,0.891402 -0.81962,1.087334 -0.13166,0.172198 -0.31335,0.29212 -0.53903,0.371372 l 26.92675,-35.076323 z"
       id="path1108"
       inkscape:connector-curvature="0" />
    <path
       style="fill:#003333"
       d="m 157.20598,68.299521 c 0.74089,0.567604 1.48977,1.052614 2.22014,1.446716 l -5.50376,3.297399 1.65746,-6.144838 c 0.48672,0.475925 1.02953,0.95153 1.62616,1.400723 z"
       id="path1109"
       inkscape:connector-curvature="0" />
    <path
       style="opacity:0.5;fill:#ffffff"
       d="m 160.32904,60.274157 29.22487,-37.697484 c -0.0454,-0.0456 -0.0972,-0.09469 -0.14087,-0.143477 -0.66397,-0.689044 -1.18474,-1.382433 -1.53693,-2.020696 l -29.07955,37.507921 c 0.29992,0.752507 0.81086,1.577183 1.53248,2.353736 z"
       id="path1110"
       inkscape:connector-curvature="0" />
    <path
       style="opacity:0.5;fill:#ffffff"
       d="M 189.41304,22.433196 C 189.11815,22.128678 188.855,21.82292 188.6201,21.522292 L 159.44493,59.15176 c 0.28218,0.425944 0.61521,0.861121 1.01583,1.271218 0.34668,0.35361 0.72335,0.709165 1.13454,1.054645 l 29.25219,-37.732211 c -0.53088,-0.42558 -1.01071,-0.868738 -1.43445,-1.312216 z"
       id="path1111"
       inkscape:connector-curvature="0" />
  </g>
  <path
     d="m 58.532159,24.762409 -19.157074,19.15707 c -0.391711,0.393945 -1.028304,0.393945 -1.41779,0 l -2.831168,-2.860058 c -0.389485,-0.39177 -1.028303,-1.032766 -1.415556,-1.428942 L 27.12231,32.703933 c -0.19363,-0.193669 -0.296017,-0.467448 -0.296017,-0.727827 0,-0.255976 0.102387,-0.505259 0.296017,-0.698884 l 2.886829,-2.601909 c 0.195855,-0.200319 0.456233,-0.298248 0.714442,-0.298248 0.253742,0.0014 0.507492,0.10239 0.701114,0.298248 l 6.534834,6.666108 c 0.389477,0.396176 1.02607,0.396176 1.417789,0 L 54.287644,20.471178 c 0.391727,-0.393944 1.026061,-0.393944 1.415571,0 l 2.831169,2.860058 c 0.389486,0.391772 0.389486,1.037229 -0.0016,1.431173 z"
     id="path4233"
     inkscape:connector-curvature="0"
     style="fill:#1f1f1f;fill-opacity:0.74509805" />
  <path
     style="fill:#1f1f1f;fill-opacity:0.74509805"
     inkscape:connector-curvature="0"
     id="path6164"
     d="M 57.381612,54.38899 38.224538,73.54606 c -0.391711,0.393945 -1.028304,0.393945 -1.41779,0 L 33.97558,70.686002 c -0.389485,-0.39177 -1.028303,-1.032766 -1.415556,-1.428942 l -6.588261,-6.926546 c -0.19363,-0.193669 -0.296017,-0.467448 -0.296017,-0.727827 0,-0.255976 0.102387,-0.505259 0.296017,-0.698884 l 2.886829,-2.601909 c 0.195855,-0.200319 0.456233,-0.298248 0.714442,-0.298248 0.253742,0.0014 0.507492,0.10239 0.701114,0.298248 l 6.534834,6.666108 c 0.389477,0.396176 1.02607,0.396176 1.417789,0 L 53.137097,50.097759 c 0.391727,-0.393944 1.026061,-0.393944 1.415571,0 l 2.831169,2.860058 c 0.389486,0.391772 0.389486,1.037229 -0.0016,1.431173 z" />
  <path
     d="M 57.381612,84.015561 38.224538,103.17263 c -0.391711,0.39395 -1.028304,0.39395 -1.41779,0 l -2.831168,-2.86006 c -0.389485,-0.391767 -1.028303,-1.032763 -1.415556,-1.428939 l -6.588261,-6.926546 c -0.19363,-0.193669 -0.296017,-0.467448 -0.296017,-0.727827 0,-0.255976 0.102387,-0.505259 0.296017,-0.698884 l 2.886829,-2.601909 c 0.195855,-0.200319 0.456233,-0.298248 0.714442,-0.298248 0.253742,0.0014 0.507492,0.10239 0.701114,0.298248 l 6.534834,6.666108 c 0.389477,0.396176 1.02607,0.396176 1.417789,0 L 53.137097,79.72433 c 0.391727,-0.393944 1.026061,-0.393944 1.415571,0 l 2.831169,2.860058 c 0.389486,0.391772 0.389486,1.037229 -0.0016,1.431173 z"
     id="path6166"
     inkscape:connector-curvature="0"
     style="fill:#1f1f1f;fill-opacity:0.74509805" />
</svg>
