<?xml version="1.0" encoding="UTF-8" standalone="no"?>
<svg
   xmlns:dc="http://purl.org/dc/elements/1.1/"
   xmlns:cc="http://creativecommons.org/ns#"
   xmlns:rdf="http://www.w3.org/1999/02/22-rdf-syntax-ns#"
   xmlns:svg="http://www.w3.org/2000/svg"
   xmlns="http://www.w3.org/2000/svg"
   xmlns:sodipodi="http://sodipodi.sourceforge.net/DTD/sodipodi-0.dtd"
   xmlns:inkscape="http://www.inkscape.org/namespaces/inkscape"
   width="128"
   height="128"
   viewBox="0 0 128 128"
   id="svg2"
   version="1.1"
   inkscape:version="0.91 r13725"
   sodipodi:docname="file_zip.svg">
  <metadata
     id="metadata65">
    <rdf:RDF>
      <cc:Work
         rdf:about="">
        <dc:format>image/svg+xml</dc:format>
        <dc:type
           rdf:resource="http://purl.org/dc/dcmitype/StillImage" />
        <dc:title></dc:title>
      </cc:Work>
    </rdf:RDF>
  </metadata>
  <sodipodi:namedview
     pagecolor="#ffffff"
     bordercolor="#666666"
     borderopacity="1"
     objecttolerance="10"
     gridtolerance="10"
     guidetolerance="10"
     inkscape:pageopacity="0"
     inkscape:pageshadow="2"
     inkscape:window-width="1873"
     inkscape:window-height="1056"
     id="namedview63"
     showgrid="false"
     units="px"
     inkscape:zoom="1.7419597"
     inkscape:cx="48.009584"
     inkscape:cy="72.80583"
     inkscape:window-x="1413"
     inkscape:window-y="24"
     inkscape:window-maximized="1"
     inkscape:current-layer="svg2" />
  <defs
     id="defs4">
    <linearGradient
       id="XMLID_6_"
       y2="1.8302"
       gradientUnits="userSpaceOnUse"
       x2="24"
       y1="43.646"
       x1="24"
       gradientTransform="matrix(2.6135561,0,0,2.6135561,0.652436,0.65244184)">
      <stop
         stop-color="#824F26"
         offset=".0056"
         id="stop7" />
      <stop
         stop-color="#C77700"
         offset="1"
         id="stop9" />
    </linearGradient>
    <linearGradient
       id="XMLID_7_"
       y2="2.9205999"
       gradientUnits="userSpaceOnUse"
       x2="23.92"
       y1="29.357"
       x1="23.92"
       gradientTransform="matrix(2.6135561,0,0,2.6135561,0.652436,0.65244184)">
      <stop
         stop-color="#FFAE00"
         offset="0"
         id="stop12" />
      <stop
         stop-color="#FFFFDE"
         offset="1"
         id="stop14" />
    </linearGradient>
    <linearGradient
       id="XMLID_8_"
       y2="32.398998"
       gradientUnits="userSpaceOnUse"
       x2="8.8548002"
       y1="18.899"
       x1="24.042"
       gradientTransform="matrix(2.6135561,0,0,2.6135561,0.652436,0.65244184)">
      <stop
         stop-color="#FFAE00"
         offset="0"
         id="stop17" />
      <stop
         stop-color="#FFFFDE"
         offset="1"
         id="stop19" />
    </linearGradient>
    <linearGradient
       id="XMLID_9_"
       y2="9.0080004"
       gradientUnits="userSpaceOnUse"
       x2="25.52"
       y1="35.867001"
       x1="37.541"
       gradientTransform="matrix(2.6135561,0,0,2.6135561,0.652436,0.65244184)">
      <stop
         stop-color="#FFFFA2"
         offset=".0056"
         id="stop22" />
      <stop
         stop-color="#FFAE00"
         offset="1"
         id="stop24" />
    </linearGradient>
    <linearGradient
       id="XMLID_10_"
       y2="6.6708999"
       gradientUnits="userSpaceOnUse"
       x2="23.871"
       y1="11.92"
       x1="23.871"
       gradientTransform="matrix(2.6135561,0,0,2.6135561,0.652436,0.65244184)">
      <stop
         stop-color="#FF6D00"
         offset="0"
         id="stop27" />
      <stop
         stop-color="#D3630D"
         offset=".2261"
         id="stop29" />
      <stop
         stop-color="#B05A18"
         offset=".4495"
         id="stop31" />
      <stop
         stop-color="#975420"
         offset=".6586"
         id="stop33" />
      <stop
         stop-color="#875024"
         offset=".8479"
         id="stop35" />
      <stop
         stop-color="#824F26"
         offset="1"
         id="stop37" />
    </linearGradient>
    <linearGradient
       id="XMLID_4_"
       y2="99.458"
       gradientUnits="userSpaceOnUse"
       x2="64"
       y1="-1.1782"
       x1="64"
       gradientTransform="matrix(0.95045356,0,0,0.95045356,-165.73115,3.7466424)">
      <stop
         style="stop-color:#00008d;"
         offset="0"
         id="stop5" />
      <stop
         style="stop-color:#0053bd;"
         offset="1"
         id="stop7-2" />
      <midPointStop
         style="stop-color:#00008D;"
         offset="0" />
      <midPointStop
         style="stop-color:#00008D;"
         offset="0.5" />
      <midPointStop
         style="stop-color:#0053BD;"
         offset="1" />
    </linearGradient>
    <radialGradient
       id="XMLID_5_"
       gradientUnits="userSpaceOnUse"
       cy="107.82"
       cx="27.576"
       gradientTransform="matrix(0.95045356,0,0,1.0041542,-165.73115,3.2290444)"
       r="115.48">
      <stop
         style="stop-color:#ffffff;"
         offset="0"
         id="stop12-0" />
      <stop
         style="stop-color:#ddeeff;"
         offset="0.057175"
         id="stop14-2" />
      <stop
         style="stop-color:#b5daff;"
         offset="0.13293"
         id="stop16" />
      <stop
         style="stop-color:#9dceff;"
         offset="0.19331"
         id="stop18" />
      <stop
         style="stop-color:#94caff;"
         offset="0.23034"
         id="stop20" />
      <stop
         style="stop-color:#0b74ff;"
         offset="0.59551"
         id="stop22-8" />
      <stop
         style="stop-color:#0035ed;"
         offset="0.81461"
         id="stop24-3" />
      <midPointStop
         style="stop-color:#FFFFFF;"
         offset="0" />
      <midPointStop
         style="stop-color:#FFFFFF;"
         offset="0.4" />
      <midPointStop
         style="stop-color:#94CAFF;"
         offset="0.230337" />
      <midPointStop
         style="stop-color:#94CAFF;"
         offset="0.5" />
      <midPointStop
         style="stop-color:#0B74FF;"
         offset="0.595506" />
      <midPointStop
         style="stop-color:#0B74FF;"
         offset="0.5" />
      <midPointStop
         style="stop-color:#0035ED;"
         offset="0.814607" />
    </radialGradient>
    <linearGradient
       id="XMLID_6_-3"
       y2="61.277"
       gradientUnits="userSpaceOnUse"
       x2="62.341999"
       y1="8.8261995"
       x1="62.341999"
       gradientTransform="matrix(0.95045356,0,0,0.95045356,-165.73115,3.7466424)">
      <stop
         style="stop-color:#ffffff;"
         offset="0"
         id="stop29-7" />
      <stop
         style="stop-color:#74aeff;"
         offset="1"
         id="stop31-0" />
      <midPointStop
         style="stop-color:#FFFFFF;"
         offset="0" />
      <midPointStop
         style="stop-color:#FFFFFF;"
         offset="0.5" />
      <midPointStop
         style="stop-color:#74AEFF;"
         offset="1" />
    </linearGradient>
  </defs>
  <g
     id="g3946"
     inkscape:export-filename="/var/www/chamilo11/main/img/icons/48/file_zip.png"
     inkscape:export-xdpi="33.876518"
     inkscape:export-ydpi="33.876518">
    <g
       transform="matrix(1.0913286,0,0,1.0872528,-5.2529433,-5.2160422)"
       id="g5122">
      <path
         d="M 64.945916,8.9635502 12.068449,28.523404 c -0.768385,0.284878 -1.280642,1.019287 -1.280642,1.839944 l 0,69.768882 c 0,0.82588 0.517484,1.56552 1.29371,1.84517 l 1.129056,0.40771 52.663155,19.32986 c 0.42601,0.15682 0.89645,0.15943 1.327687,0.008 l 52.354755,-18.40988 c 0.78668,-0.27443 1.30939,-1.01668 1.30939,-1.84779 l 0,-71.898927 c 0,-0.831111 -0.52271,-1.573361 -1.30678,-1.850398 L 66.276216,8.9504825 c -0.428623,-0.1489727 -0.901677,-0.1463592 -1.3303,0.013068 z"
         id="path39"
         inkscape:connector-curvature="0"
         style="opacity:0.2" />
      <path
         d="M 63.965833,7.9834667 11.088366,27.543321 c -0.768386,0.284877 -1.280643,1.019286 -1.280643,1.839943 l 0,69.76888 c 0,0.825884 0.517484,1.565516 1.29371,1.845166 l 1.129057,0.40772 52.663155,19.32986 c 0.42601,0.15681 0.89645,0.15943 1.327686,0.008 L 118.57609,102.333 c 0.78668,-0.27442 1.30939,-1.01667 1.30939,-1.84778 l 0,-71.898931 c 0,-0.83111 -0.52271,-1.57336 -1.30678,-1.850397 L 65.298746,7.9703989 c -0.431237,-0.1489727 -0.90429,-0.1463591 -1.332913,0.013068 z"
         id="path41"
         inkscape:connector-curvature="0"
         style="opacity:0.2" />
      <path
         d="M 62.497014,7.0033832 9.619547,26.563237 c -0.7683855,0.284878 -1.2806425,1.019287 -1.2806425,1.839944 l 0,69.76888 c 0,0.825883 0.5174841,1.56552 1.2937103,1.845169 l 1.1290562,0.40772 52.663155,19.32986 c 0.428624,0.15681 0.89645,0.15942 1.327687,0.008 l 52.354757,-18.40989 c 0.78668,-0.27443 1.30939,-1.01667 1.30939,-1.847786 l 0,-71.898928 c 0,-0.831111 -0.52271,-1.573361 -1.30678,-1.850398 L 63.829928,6.9903154 C 63.396077,6.8413427 62.925637,6.8439562 62.497014,7.0033832 Z"
         id="path43"
         inkscape:connector-curvature="0"
         style="fill:url(#XMLID_6_)" />
      <polygon
         points="4.334,11.065 4.334,37.07 4.349,37.07 23.92,44.311 23.989,44.285 23.989,11.065 "
         id="polygon45"
         style="fill:#febf59"
         transform="matrix(2.6135561,0,0,2.6135561,0.652436,0.65244184)" />
      <polygon
         points="23.989,44.285 23.92,44.311 43.491,37.07 43.666,37.07 43.666,11.065 23.989,11.065 "
         id="polygon47"
         style="fill:#ffffff"
         transform="matrix(2.6135561,0,0,2.6135561,0.652436,0.65244184)" />
      <polygon
         points="23.92,18.311 43.506,11.065 23.92,3.82 4.334,11.065 "
         id="polygon49"
         style="fill:#ffffff"
         transform="matrix(2.6135561,0,0,2.6135561,0.652436,0.65244184)" />
      <path
         d="m 11.979588,29.57144 m 51.18911,18.937828 -51.18911,-18.937828 0,67.434975 0.0392,0 51.149907,18.919535 0.180335,-0.0653 0,-67.416681 -0.180335,0.06534 z"
         id="path51"
         inkscape:connector-curvature="0"
         style="fill:#ffffff" />
      <path
         d="M 63.168698,10.636226 12.698316,29.307471 c 8.2902,3.065701 16.583014,6.134016 24.875827,9.202331 5.671417,2.098685 11.342833,4.194757 17.01425,6.293443 2.310384,0.854633 6.071291,3.172857 8.580305,3.172857 2.171865,0 5.430969,-2.007211 7.43034,-2.746847 6.055609,-2.239818 12.111219,-4.479635 18.164215,-6.719453 8.292813,-3.065701 16.583017,-6.134016 24.875827,-9.202331 L 63.168698,10.636226 Z"
         id="path53"
         inkscape:connector-curvature="0"
         style="fill:url(#XMLID_7_)" />
      <path
         d="m 11.979588,31.21798 0,65.989678 0.0392,0 50.190732,18.587612 C 62.219977,93.909351 62.844617,71.171413 62.031801,49.75332 45.346859,43.577487 28.661917,37.399041 11.979588,31.21798 Z"
         id="path55"
         inkscape:connector-curvature="0"
         style="fill:url(#XMLID_8_)" />
      <path
         d="m 64.530361,116.12719 49.790859,-18.355003 0.45476,0 0,-65.835479 C 109.00786,33.943919 65.842366,49.00323 64.864896,50.346598 63.840382,51.747464 64.498998,113.315 64.530361,116.12719 Z"
         id="path57"
         inkscape:connector-curvature="0"
         style="fill:url(#XMLID_9_)" />
      <path
         d="m 63.469257,29.354515 50.350163,-0.120224 -50.595837,-3.063087 0,-15.804174 c 0,0 -2.041188,14.973063 -2.57174,15.681336 -0.530552,0.708274 -48.392604,3.306149 -48.392604,3.306149 l 48.269767,-0.734409 2.451516,19.478833 0.488735,-18.744424 z"
         id="path59"
         inkscape:connector-curvature="0"
         style="fill:url(#XMLID_10_)" />
    </g>
    <polyline
       transform="scale(2.6666667,2.6567075)"
       style="fill:none"
       id="polyline61"
       points="0 48 0 0 48 0 48 48" />
  </g>
</svg>
