<?xml version="1.0" encoding="UTF-8" standalone="no"?>
<!-- Created with Inkscape (http://www.inkscape.org/) -->

<svg
   xmlns:osb="http://www.openswatchbook.org/uri/2009/osb"
   xmlns:dc="http://purl.org/dc/elements/1.1/"
   xmlns:cc="http://creativecommons.org/ns#"
   xmlns:rdf="http://www.w3.org/1999/02/22-rdf-syntax-ns#"
   xmlns:svg="http://www.w3.org/2000/svg"
   xmlns="http://www.w3.org/2000/svg"
   xmlns:xlink="http://www.w3.org/1999/xlink"
   xmlns:sodipodi="http://sodipodi.sourceforge.net/DTD/sodipodi-0.dtd"
   xmlns:inkscape="http://www.inkscape.org/namespaces/inkscape"
   width="128"
   height="128"
   viewBox="0 0 128 128"
   id="svg2"
   version="1.1"
   inkscape:version="0.91 r13725"
   sodipodi:docname="file_epub.svg">
  <defs
     id="defs4">
    <linearGradient
       inkscape:collect="always"
       id="linearGradient26796">
      <stop
         style="stop-color:#63851b;stop-opacity:1"
         offset="0"
         id="stop26798" />
      <stop
         style="stop-color:#85b916;stop-opacity:1"
         offset="1"
         id="stop26800" />
    </linearGradient>
    <linearGradient
       id="XMLID_8_"
       gradientUnits="userSpaceOnUse"
       x1="74.5"
       y1="5.0479002"
       x2="74.5"
       y2="124.2402"
       gradientTransform="matrix(1.0333334,0,0,1.0333334,-12.351081,919.84935)">
      <stop
         offset="0"
         style="stop-color:#FFFFFF"
         id="stop4539" />
      <stop
         offset="1"
         style="stop-color:#E1E1DF"
         id="stop4541" />
    </linearGradient>
    <linearGradient
       id="XMLID_9_"
       gradientUnits="userSpaceOnUse"
       x1="74.5"
       y1="11.0811"
       x2="74.5"
       y2="121.4673"
       gradientTransform="matrix(1.0333334,0,0,1.0333334,-12.569554,919.84935)">
      <stop
         offset="0"
         style="stop-color:#FDFDFD"
         id="stop4546" />
      <stop
         offset="0.2985"
         style="stop-color:#F3F2F2"
         id="stop4548" />
      <stop
         offset="0.8174"
         style="stop-color:#D7D6D6"
         id="stop4550" />
      <stop
         offset="1"
         style="stop-color:#CCCBCA"
         id="stop4552" />
    </linearGradient>
    <radialGradient
       id="XMLID_10_"
       cx="110"
       cy="32.869099"
       r="15.5963"
       gradientUnits="userSpaceOnUse"
       gradientTransform="matrix(1.0333334,0,0,1.0333334,-12.351081,919.84935)">
      <stop
         offset="0.2135"
         style="stop-color:#8E8E8F"
         id="stop4557" />
      <stop
         offset="0.927"
         style="stop-color:#EEEEEE"
         id="stop4559" />
    </radialGradient>
    <linearGradient
       id="XMLID_11_"
       gradientUnits="userSpaceOnUse"
       x1="92.023399"
       y1="9.9473"
       x2="104.2735"
       y2="32.947201"
       gradientTransform="matrix(1.0333334,0,0,1.0333334,-12.351081,919.84935)">
      <stop
         offset="0"
         style="stop-color:#FFFEFE"
         id="stop4566" />
      <stop
         offset="1"
         style="stop-color:#CFD0D0"
         id="stop4568" />
    </linearGradient>
    <linearGradient
       id="XMLID_12_"
       gradientUnits="userSpaceOnUse"
       x1="99.530296"
       y1="5.1806998"
       x2="105.9053"
       y2="31.930599"
       gradientTransform="matrix(1.0333334,0,0,1.0333334,-12.351081,919.84935)">
      <stop
         offset="0"
         style="stop-color:#FCFDFD"
         id="stop4573" />
      <stop
         offset="1"
         style="stop-color:#EEEEEE"
         id="stop4575" />
    </linearGradient>
    <linearGradient
       id="linearGradient5314"
       osb:paint="solid">
      <stop
         style="stop-color:#ededed;stop-opacity:1;"
         offset="0"
         id="stop5316" />
    </linearGradient>
    <linearGradient
       inkscape:collect="always"
       xlink:href="#linearGradient26796"
       id="linearGradient26802"
       x1="71.988297"
       y1="1041.9475"
       x2="71.306915"
       y2="1017.645"
       gradientUnits="userSpaceOnUse" />
  </defs>
  <sodipodi:namedview
     id="base"
     pagecolor="#ffffff"
     bordercolor="#666666"
     borderopacity="1.0"
     inkscape:pageopacity="0.0"
     inkscape:pageshadow="2"
     inkscape:zoom="2.2014223"
     inkscape:cx="178.55389"
     inkscape:cy="30.251725"
     inkscape:document-units="px"
     inkscape:current-layer="layer1"
     showgrid="false"
     units="px"
     inkscape:window-width="1873"
     inkscape:window-height="1056"
     inkscape:window-x="1413"
     inkscape:window-y="24"
     inkscape:window-maximized="1" />
  <metadata
     id="metadata7">
    <rdf:RDF>
      <cc:Work
         rdf:about="">
        <dc:format>image/svg+xml</dc:format>
        <dc:type
           rdf:resource="http://purl.org/dc/dcmitype/StillImage" />
        <dc:title></dc:title>
      </cc:Work>
    </rdf:RDF>
  </metadata>
  <g
     inkscape:label="Capa 1"
     inkscape:groupmode="layer"
     id="layer1"
     transform="translate(0,-924.36216)">
    <path
       d="m 19.337121,927.08268 c -1.911667,0 -3.7882,1.891 -3.7882,3.81714 0,109.93638 0,109.93638 0,113.46728 0,4.0475 4.133333,4.6489 4.133333,4.6489 l 89.900006,0 c 0,0 4.13333,-0.2769 4.13333,-4.1519 0,-3.875 0,-81.09498 0,-81.09498 0,-5.37023 -28.597498,-36.68644 -36.027165,-36.68644 l -58.351304,0 z"
       id="path4532"
       inkscape:connector-curvature="0"
       style="opacity:0.2" />
    <path
       d="m 19.337121,928.11602 c -1.911667,0 -3.7882,1.891 -3.7882,3.81713 0,109.93635 0,109.93635 0,113.46725 0,4.0476 5.166667,4.649 5.166667,4.649 l 87.833342,0 c 0,0 5.16666,-0.277 5.16666,-4.152 0,-3.875 0,-81.09495 0,-81.09495 0,-5.37023 -28.597498,-36.68643 -36.027165,-36.68643 l -58.351304,0 z"
       id="path4534"
       inkscape:connector-curvature="0"
       style="opacity:0.2" />
    <path
       d="m 19.337121,926.04935 c -1.911667,0 -3.7882,1.891 -3.7882,3.81713 0,109.93632 0,109.93632 0,113.46722 0,4.0476 3.1,4.649 3.1,4.649 l 91.966669,0 c 0,0 3.1,-0.2769 3.1,-4.1519 0,-3.875 0,-81.09501 0,-81.09501 0,-5.37024 -28.597498,-36.68644 -36.027165,-36.68644 l -58.351304,0 z"
       id="path4536"
       inkscape:connector-curvature="0"
       style="opacity:0.6;fill:#262626" />
    <path
       d="m 112.68226,1043.9661 c 0,2.6702 -2.47793,2.9833 -2.47793,2.9833 l -91.040809,0 c 0,0 -2.581267,-0.4909 -2.581267,-3.1858 0,-20.4776 0,-112.69122 0,-113.89712 0,-1.364 1.4043,-2.7838 2.754867,-2.7838 1.027133,0 50.084637,0 58.351304,0 7.2664,0 34.993835,31.33687 34.993835,35.65414 0,4.77297 0,65.24988 0,81.22928 z"
       id="path4543"
       inkscape:connector-curvature="0"
       style="fill:url(#XMLID_8_)" />
    <path
       d="m 111.43046,1043.1074 c 0,2.5637 -2.06667,2.8086 -2.06667,2.8086 l -89.900009,0 c 0,0 -2.066666,-0.1684 -2.066666,-2.3239 0,-18.6155 0,-112.50318 0,-113.72562 0,-1.364 1.3609,-2.7838 2.6691,-2.7838 0.996133,0 49.454303,0 57.46367,0 7.040101,0 33.900575,31.33687 33.900575,35.65414 0,4.78433 0,64.76318 0,80.37058 z"
       id="path4554"
       inkscape:connector-curvature="0"
       style="fill:url(#XMLID_9_)" />
    <path
       style="opacity:1;fill:url(#linearGradient26802);fill-opacity:1;stroke:none;stroke-width:2;stroke-linecap:round;stroke-linejoin:round;stroke-miterlimit:4;stroke-dasharray:none;stroke-dashoffset:0;stroke-opacity:0.74509804"
       d="m 112.94723,1019.5424 0,23.5966 c 0,2.1265 -0.11554,3.9546 -3.51132,3.9522 l -89.120787,-0.064 c -2.593827,0 -3.745542,-1.7618 -3.745542,-3.8883 l 0,-23.5966 z"
       id="rect7361"
       inkscape:connector-curvature="0"
       sodipodi:nodetypes="csssscc" />
    <text
       xml:space="preserve"
       style="font-style:normal;font-variant:normal;font-weight:normal;font-stretch:normal;font-size:22.17122078px;line-height:125%;font-family:'Arial Black';-inkscape-font-specification:'Arial Black, Normal';text-align:start;letter-spacing:0px;word-spacing:0px;writing-mode:lr-tb;text-anchor:start;fill:#ffffff;fill-opacity:1;stroke:none;stroke-width:1px;stroke-linecap:butt;stroke-linejoin:miter;stroke-opacity:1"
       x="30.532665"
       y="1041.2521"
       id="text7357"
       sodipodi:linespacing="125%"><tspan
         sodipodi:role="line"
         id="tspan7359"
         x="30.532665"
         y="1041.2521">EPUB</tspan></text>
    <path
       d="m 111.64893,960.14935 c 0,7.41934 -2.914,13.43334 -10.33334,13.43334 -7.419331,0 -16.533331,-6.014 -16.533331,-13.43334 0,-7.41933 2.914,-9.3 10.333334,-9.3 7.419337,0 11.366667,4.13334 16.533337,9.3 z"
       id="path4561"
       inkscape:connector-curvature="0"
       style="fill:url(#XMLID_10_)" />
    <path
       d="m 74.877758,927.04445 c 0.565233,0 0.978567,0.002 3.736534,1.23277 4.3214,1.95403 4.239766,22.96583 4.239766,27.5621 l -10e-4,0.13227 c 0,0.53836 0.4123,0.99096 0.9486,1.0354 6.172101,0.51253 24.095262,-0.87627 27.286202,4.1602 1.23896,1.6616 1.4105,2.95326 1.98193,2.95326 0.57143,0 0.64583,-0.8122 0.64583,-1.38363 0,-0.82357 -0.26556,-1.62647 -0.79153,-2.50893 -0.004,-0.009 -0.002,-0.0186 -0.006,-0.0269 -0.0145,-0.0289 -0.0393,-0.0672 -0.0548,-0.0971 l 0,-10e-4 c -2.38183,-4.85563 -26.649662,-31.3937 -33.432462,-33.67633 -0.0062,-0.002 -0.0072,-0.008 -0.0124,-0.0103 -0.0072,-0.003 -0.0155,-0.002 -0.0217,-0.004 -0.0217,-0.008 -0.05063,-0.0238 -0.07233,-0.032 -0.09713,-0.03 -0.193234,-0.0424 -0.2883,-0.0444 -0.4433,-0.1488 -0.8897,-0.28623 -1.347467,-0.28623 -0.524934,0 -2.750734,0.47223 -2.810667,0.9951 z"
       id="path4563"
       inkscape:connector-curvature="0"
       style="opacity:0.5;fill:#343434" />
    <path
       d="m 112.68226,962.73682 c -3.4875,-8.91663 -28.795901,-6.76007 -28.795901,-6.76007 -0.134334,2.7559 1.548966,-28.89407 -6.197934,-28.89407 7.267434,0 34.993835,32.87447 34.993835,35.65414 z"
       id="path4570"
       inkscape:connector-curvature="0"
       style="fill:url(#XMLID_11_)" />
    <path
       d="m 112.68226,962.73682 c -1.55,-8.2057 -27.641668,-8.33487 -27.641668,-8.33487 -0.02583,2.75487 0.283133,-27.31927 -7.352167,-27.31927 7.267434,0 34.993835,32.87447 34.993835,35.65414 z"
       id="path4577"
       inkscape:connector-curvature="0"
       style="fill:url(#XMLID_12_)" />
    <path
       inkscape:connector-curvature="0"
       d="m 77.014491,1001.5004 c -0.81771,0 -1.717987,-0.2333 -2.676292,-0.6934 -0.912546,-0.4382 -1.030096,-0.6053 -1.572251,-2.2369 l -0.01045,-0.0316 -0.01442,-0.0297 c -0.69701,-1.43254 -1.825754,-2.62428 -3.450729,-3.64338 -1.120455,-0.70301 -1.014511,-2.0952 -0.579294,-2.87578 0.432232,-0.58261 1.157593,-0.75968 1.926061,-0.90293 0.291803,-0.0544 0.584932,-0.0821 0.87176,-0.0821 1.197219,0 2.368905,0.47103 3.58204,1.43978 2.253013,1.79852 3.877821,4.22778 4.967272,7.4267 0.05438,0.15981 0.06648,0.28461 -0.247866,0.55261 -0.246872,0.2104 -0.602174,0.4447 -0.950181,0.6271 -0.569015,0.2977 -1.190089,0.4489 -1.84565,0.4489 0,0 0,0 0,0 z m 8.348532,5.4773 c 1.273651,-1.0082 2.089537,-2.356 2.781407,-3.6625 1.568106,-2.9601 1.847308,-5.94975 0.829979,-8.88568 -0.676286,-1.95161 -1.853111,-3.77654 -3.703403,-5.74372 -2.44683,-2.60118 -5.274494,-4.73963 -8.009147,-6.80777 -0.947363,-0.71625 -1.896549,-1.43017 -2.845902,-2.14426 -2.889009,-2.17243 -5.87617,-4.41881 -8.757719,-6.70532 -2.07561,-1.64719 -3.879977,-3.62299 -5.363195,-5.87269 -0.873914,-1.32571 -1.0674,-2.64064 -0.591066,-4.0199 0.275555,-0.79782 0.466221,-1.46582 0.600019,-2.10281 0.305066,-1.45221 -0.187517,-2.8978 -1.206503,-3.63377 -2.44169,2.2104 -4.035494,4.14509 -5.167389,6.27209 -2.071466,3.89242 -1.577225,7.40383 1.46896,10.43659 1.400983,1.39485 2.831311,2.52774 4.251361,3.3675 2.192663,1.29636 4.493757,2.50535 6.719081,3.67472 0.922494,0.48478 1.876323,0.98583 2.810754,1.4872 0.884194,0.47418 1.789942,0.94769 2.665681,1.40562 1.996691,1.04369 4.061358,2.12303 6.033843,3.29571 3.686491,2.19217 5.66196,4.98385 6.039149,8.53487 0.237421,2.23712 -0.407032,3.90284 -1.969998,5.09262 -0.880878,0.6707 -1.847474,0.8467 -2.6239,0.9885 l -0.143581,0.026 c -0.486281,0.09 -1.148971,0.1395 -1.866042,0.1395 -1.245964,0 -2.490931,-0.1448 -3.330692,-0.3874 -0.596537,-0.1723 -2.093848,-0.639 -3.112007,-1.2477 -3.296703,-1.97203 -4.560738,-4.82512 -3.756458,-8.48241 0.07262,-0.32181 0.137612,-0.58493 0.227474,-0.91271 -0.338392,0.0623 -0.580787,0.1386 -0.859988,0.22648 l -0.192657,0.0602 c -1.151127,0.35481 -1.777672,1.33715 -2.44086,2.37753 l -0.04211,0.066 c -0.245379,0.38481 -0.390784,0.89678 -0.37039,1.30436 0.09583,1.90197 0.820363,3.74627 2.215211,5.63835 3.612547,4.901 8.189036,7.4424 13.990763,7.7696 0.250851,0.014 0.49822,0.021 0.735641,0.021 2.013602,0 3.643717,-0.5156 4.983686,-1.5766 z m -16.778803,0.9406 c 0.565533,0 1.120289,-0.042 1.6583,-0.1232 -1.718152,-1.1688 -3.245473,-2.7006 -4.770969,-4.7794 l -0.117715,-0.1605 c -1.383243,-1.8852 -2.813573,-3.83461 -4.361618,-5.61576 -1.448234,-1.66591 -3.145165,-2.51071 -5.043207,-2.51071 -0.317998,0 -0.646773,0.0241 -0.977372,0.0706 -1.146319,0.16298 -2.240081,0.56267 -3.545232,1.30699 0.274061,0.11951 0.574153,0.21869 0.967258,0.28583 0.463402,0.0789 0.955321,0.16995 1.412755,0.30274 0.723039,0.20988 1.367492,0.56713 1.970328,1.0921 0.997766,0.86894 1.634758,1.62681 2.198632,2.61571 0.654069,1.1476 1.425521,2.2743 2.171607,3.3639 l 0.0829,0.1212 c 1.727438,2.5234 4.850387,4.03 8.353839,4.0302 1.65e-4,0 1.65e-4,0 4.97e-4,0 z m -24.021802,1.3482 c 1.25243,0 2.158675,-0.2154 3.08266,-1.3163 0.649924,-0.7718 1.112828,-1.5722 1.602924,-2.4196 0.226644,-0.392 0.461081,-0.7973 0.714418,-1.1972 1.128248,-1.7807 2.2366,-2.9214 3.593481,-3.6988 0.41101,-0.2354 0.746748,-0.462 1.02595,-0.6927 0.474843,-0.39226 0.5148,-0.61374 0.194645,-1.07751 -0.310537,-0.44965 -0.590236,-0.80356 -1.363678,-1.26482 -0.164636,-0.0983 -0.667996,-0.22984 -0.957145,-0.22984 -0.03929,0 -0.06002,0 -0.06698,0 -0.561553,0.0892 -0.813897,0.16725 -1.442929,0.40582 -1.875494,0.78916 -2.759523,1.56459 -3.635593,3.18735 -0.23825,0.4411 -0.463237,0.9048 -0.680762,1.3534 -0.1144,0.2358 -0.228799,0.4716 -0.345686,0.7059 l -0.11871,0.2386 c -0.185029,0.3723 -0.37636,0.7573 -0.580455,1.1322 -0.10611,0.1949 -0.32662,0.5998 -0.815721,0.5998 -0.169112,0 -0.330266,-0.049 -0.508332,-0.1099 -1.592479,-0.5378 -3.277472,-0.7991 -5.151308,-0.7991 -1.579214,0 -3.286092,0.189 -5.218454,0.5778 l -0.143414,0.029 c -0.8197,0.1636 -1.235518,0.2466 -1.738877,0.763 0.05305,0 0.10727,0.01 0.163476,0.013 0.11672,0.011 1.188928,0.1089 1.297028,0.1161 4.105461,0.3553 6.994636,1.3887 9.972678,3.5672 l 0.03233,0.024 c 0.02802,0.02 0.06698,0.05 0.09367,0.066 l 0.232779,0.01 c 0.265441,0.01 0.516125,0.016 0.76167,0.016 1.66e-4,2e-4 1.66e-4,2e-4 3.32e-4,2e-4 z m 44.45974,-20.49946 c -0.98848,-2.5531 -2.459595,-5.11947 -4.629876,-8.07596 -1.600768,-2.18056 -3.244809,-4.57897 -4.425779,-7.33899 -0.673467,-1.57358 -0.91553,-2.93991 -0.762666,-4.29995 0.1081,-0.96145 0.199288,-1.89969 0.127498,-2.8076 -0.09583,-1.20965 -0.422616,-2.1275 -1.02048,-2.85237 -0.956812,0.67778 -1.683997,1.63111 -2.324802,3.03524 -1.053804,2.30889 -0.909395,4.73285 0.454118,7.62815 1.370807,2.91007 3.42619,5.37928 5.436476,7.60693 4.07396,4.33757 5.861913,6.61065 7.751498,10.69605 0.159497,0.25367 0.333749,0.50037 0.517452,0.75023 -0.121694,-1.54855 -0.600847,-2.99164 -1.123439,-4.34173 z m -3.586516,-24.42153 c 0.36326,-2.01344 0.39526,-3.68202 0.152201,-5.24233 -0.545471,-3.49931 -2.077599,-6.01926 -4.683925,-7.70358 -1.327204,-0.85767 -2.835623,-1.25708 -4.746597,-1.25708 -0.641634,0 -1.277962,0.0474 -1.959055,0.11357 -0.01078,9.3e-4 -0.448646,0.0483 -0.504686,0.19315 -0.02753,0.0711 0.106608,0.27058 0.211723,0.36824 0.224987,0.20841 0.559399,0.36575 0.891655,0.5022 0.486614,0.19995 1.334831,0.37984 1.729592,0.43687 0.584102,0.0842 1.43149,0.27672 1.989894,0.44699 0.835615,0.25483 0.531876,0.84275 0.20078,1.1818 -0.508167,0.52011 -0.923323,0.75935 -1.661284,0.75935 -0.300424,0 -0.620909,-0.0529 -1.009039,-0.16663 -1.25674,-0.36823 -2.511159,-0.80129 -3.724294,-1.2201 l -0.630526,-0.21735 c -0.752883,-0.25881 -1.529973,-0.39013 -2.309383,-0.39013 -0.345852,0 -0.854517,0.0194 -1.203519,0.0707 -0.576144,0.0844 -0.624723,0.17972 -0.615936,0.21752 0.02603,0.11175 0.188677,0.42046 0.528561,0.64246 0.697673,0.45594 1.399988,0.75885 1.782316,0.9016 2.618263,0.97755 2.193823,1.58535 1.623482,1.8755 -0.656887,0.33408 -1.754627,0.51115 -3.447911,0.13363 -1.199042,-0.26743 -2.376696,-0.68375 -3.527327,-1.03806 -0.456106,-0.14059 -0.912213,-0.28101 -1.36915,-0.4188 -0.681922,-0.20575 -1.337483,-0.31004 -1.94861,-0.31004 -0.702149,0 -1.354228,0.13032 -1.993043,0.39841 -0.301751,0.12667 -0.401229,0.2409 -0.412171,0.28849 -0.01094,0.0468 0.02669,0.19033 0.237255,0.4329 0.228966,0.26411 0.496065,0.53419 0.793836,0.80311 1.516377,1.36949 3.422377,2.25286 6.179412,2.86448 3.096255,0.68689 6.321667,0.80726 9.440802,0.92796 1.269506,0.0491 1.761922,0.28318 2.151546,0.63185 0.799969,0.71559 2.832637,2.75985 3.097912,3.02264 1.01849,1.00971 2.223335,1.50046 3.683508,1.50046 0.833792,-1.6e-4 0.930617,-0.0769 1.051981,-0.74973 z m -4.763675,-3.40298 c -0.40073,-0.70464 -0.189671,-0.82451 0.518115,-0.64943 0.544477,0.13479 1.623483,0.67695 1.761592,1.50593 0.08107,0.48662 0.09948,0.79649 -0.511483,0.59521 -0.925478,-0.3049 -1.445251,-0.88352 -1.768224,-1.45171 z"
       id="snake" />
  </g>
</svg>
