<?xml version="1.0" encoding="UTF-8" standalone="no"?>
<!-- Created with Inkscape (http://www.inkscape.org/) -->

<svg
   xmlns:dc="http://purl.org/dc/elements/1.1/"
   xmlns:cc="http://creativecommons.org/ns#"
   xmlns:rdf="http://www.w3.org/1999/02/22-rdf-syntax-ns#"
   xmlns:svg="http://www.w3.org/2000/svg"
   xmlns="http://www.w3.org/2000/svg"
   xmlns:xlink="http://www.w3.org/1999/xlink"
   xmlns:sodipodi="http://sodipodi.sourceforge.net/DTD/sodipodi-0.dtd"
   xmlns:inkscape="http://www.inkscape.org/namespaces/inkscape"
   width="128"
   height="128"
   viewBox="0 0 128 128"
   id="svg3602"
   version="1.1"
   inkscape:version="0.91 r"
   sodipodi:docname="glossary.svg">
  <defs
     id="defs3604">
    <linearGradient
       inkscape:collect="always"
       id="linearGradient4578">
      <stop
         style="stop-color:#30c95d;stop-opacity:1;"
         offset="0"
         id="stop4580" />
      <stop
         style="stop-color:#30c95d;stop-opacity:0;"
         offset="1"
         id="stop4582" />
    </linearGradient>
    <linearGradient
       inkscape:collect="always"
       id="linearGradient4549">
      <stop
         style="stop-color:#32c835;stop-opacity:1"
         offset="0"
         id="stop4551" />
      <stop
         style="stop-color:#f2fbf0;stop-opacity:1"
         offset="1"
         id="stop4553" />
    </linearGradient>
    <linearGradient
       inkscape:collect="always"
       id="linearGradient4496">
      <stop
         style="stop-color:#fc004b;stop-opacity:1;"
         offset="0"
         id="stop4498" />
      <stop
         style="stop-color:#fc004b;stop-opacity:0;"
         offset="1"
         id="stop4500" />
    </linearGradient>
    <linearGradient
       inkscape:collect="always"
       id="linearGradient4488">
      <stop
         style="stop-color:#0270ff;stop-opacity:1;"
         offset="0"
         id="stop4490" />
      <stop
         style="stop-color:#95ccff;stop-opacity:1"
         offset="1"
         id="stop4492" />
    </linearGradient>
    <linearGradient
       inkscape:collect="always"
       id="linearGradient4458">
      <stop
         style="stop-color:#5fb1ff;stop-opacity:1;"
         offset="0"
         id="stop4460" />
      <stop
         style="stop-color:#f9fcff;stop-opacity:1"
         offset="1"
         id="stop4462" />
    </linearGradient>
    <linearGradient
       inkscape:collect="always"
       id="linearGradient4428">
      <stop
         style="stop-color:#ff0404;stop-opacity:1;"
         offset="0"
         id="stop4430" />
      <stop
         style="stop-color:#ffc9c9;stop-opacity:1"
         offset="1"
         id="stop4432" />
    </linearGradient>
    <linearGradient
       inkscape:collect="always"
       xlink:href="#linearGradient4428"
       id="linearGradient4434"
       x1="-62.407112"
       y1="1035.7466"
       x2="-29.863293"
       y2="986.40765"
       gradientUnits="userSpaceOnUse"
       gradientTransform="translate(79.910715,0.44642854)" />
    <linearGradient
       inkscape:collect="always"
       xlink:href="#linearGradient4458"
       id="linearGradient4464"
       x1="177.34048"
       y1="1008.6118"
       x2="174.6319"
       y2="944.46716"
       gradientUnits="userSpaceOnUse"
       gradientTransform="translate(-111.11678,-1.51523)" />
    <linearGradient
       inkscape:collect="always"
       xlink:href="#linearGradient4488"
       id="linearGradient4494"
       x1="177.33617"
       y1="85.010498"
       x2="170.84686"
       y2="10.511749"
       gradientUnits="userSpaceOnUse"
       gradientTransform="translate(-111.11678,922.84696)" />
    <linearGradient
       inkscape:collect="always"
       xlink:href="#linearGradient4496"
       id="linearGradient4502"
       x1="31.425241"
       y1="972.9967"
       x2="31.156317"
       y2="1046.9904"
       gradientUnits="userSpaceOnUse" />
    <linearGradient
       inkscape:collect="always"
       xlink:href="#linearGradient4458"
       id="linearGradient4511"
       gradientUnits="userSpaceOnUse"
       gradientTransform="translate(-111.11678,-1.51523)"
       x1="177.34048"
       y1="1008.6118"
       x2="174.6319"
       y2="944.46716" />
    <linearGradient
       inkscape:collect="always"
       xlink:href="#linearGradient4549"
       id="linearGradient4555"
       x1="339.29736"
       y1="1033.0453"
       x2="351.12433"
       y2="984.94617"
       gradientUnits="userSpaceOnUse"
       gradientTransform="translate(70.710678,1.3889598)" />
    <linearGradient
       inkscape:collect="always"
       xlink:href="#linearGradient4578"
       id="linearGradient4584"
       x1="419.08466"
       y1="973.25641"
       x2="420.52728"
       y2="1025.4055"
       gradientUnits="userSpaceOnUse" />
    <filter
       inkscape:collect="always"
       style="color-interpolation-filters:sRGB"
       id="filter4734"
       x="-0.036796348"
       width="1.0735927"
       y="-0.035237391"
       height="1.0704748">
      <feGaussianBlur
         inkscape:collect="always"
         stdDeviation="1.7825796"
         id="feGaussianBlur4736" />
    </filter>
  </defs>
  <sodipodi:namedview
     id="base"
     pagecolor="#ffffff"
     bordercolor="#666666"
     borderopacity="1.0"
     inkscape:pageopacity="0.0"
     inkscape:pageshadow="2"
     inkscape:zoom="2.8"
     inkscape:cx="72.005262"
     inkscape:cy="52.493716"
     inkscape:document-units="px"
     inkscape:current-layer="layer1"
     showgrid="false"
     units="px"
     inkscape:window-width="1920"
     inkscape:window-height="1051"
     inkscape:window-x="0"
     inkscape:window-y="0"
     inkscape:window-maximized="1" />
  <metadata
     id="metadata3607">
    <rdf:RDF>
      <cc:Work
         rdf:about="">
        <dc:format>image/svg+xml</dc:format>
        <dc:type
           rdf:resource="http://purl.org/dc/dcmitype/StillImage" />
        <dc:title></dc:title>
      </cc:Work>
    </rdf:RDF>
  </metadata>
  <g
     inkscape:label="Capa 1"
     inkscape:groupmode="layer"
     id="layer1"
     transform="translate(0,-924.36219)">
    <g
       id="g4759"
       transform="translate(-0.35714287,-1.0714037)">
      <rect
         y="925.43359"
         x="0.35714287"
         height="128"
         width="128"
         id="rect4757"
         style="opacity:0;fill:#ffffff;fill-opacity:1;stroke:none;stroke-width:0.40000001;stroke-linecap:round;stroke-linejoin:round;stroke-miterlimit:4;stroke-dasharray:none;stroke-dashoffset:0;stroke-opacity:1" />
      <g
         transform="matrix(0.96389711,0,0,0.96389711,4.8977203,34.995046)"
         id="g4738">
        <path
           style="fill:#666666;fill-opacity:0.98039216;fill-rule:evenodd;stroke:none;stroke-width:1px;stroke-linecap:butt;stroke-linejoin:miter;stroke-opacity:1;filter:url(#filter4734)"
           d="m 60.913431,929.48436 a 0.73664202,0.73664202 0 0 0 -0.722811,0.69596 l 0,-0.68063 -16.958243,0.32211 a 0.73664202,0.73664202 0 0 0 -0.01341,0 c -0.326254,0.009 -0.637743,0.0463 -0.927956,0.1035 -2.495995,0.49356 -4.001789,2.35636 -4.611033,3.99945 -0.475109,1.28131 -0.498769,2.46683 -0.44289,3.30919 0.05328,0.80268 0.248349,1.67064 0.575181,2.53653 0.004,0.0413 0.0076,0.0844 0.0076,0.0844 3.7e-5,2.2e-4 0.0056,0.0305 0.0076,0.0382 0.0043,0.0168 0.0075,0.0238 0.0098,0.0306 0.0078,0.0264 0.01152,0.037 0.01724,0.0538 0.0015,0.009 0.006,0.0124 0.0076,0.0173 0.01083,0.0304 0.02236,0.0649 0.04025,0.1112 0.04151,0.10684 0.102568,0.25704 0.187892,0.43522 0.170647,0.35625 0.430019,0.82477 0.805252,1.27689 0.827834,0.99775 2.028593,1.696 3.445333,1.94985 0.179813,0.0323 0.344008,0.0535 0.486986,0.0653 a 0.73664202,0.73664202 0 0 0 0.0098,0 c 0.859036,0.0736 1.751744,0.20604 2.47136,0.34317 0.673647,0.12833 1.190296,0.28714 1.274984,0.31444 l -0.130374,34.67187 c -3.536961,-1.26027 -7.274026,-1.72715 -10.71178,-1.98628 l -0.0058,0 c -0.09374,-0.009 -0.212004,-0.0172 -0.354693,-0.0209 a 1.87488,1.87488 0 0 0 -0.02492,0 l -0.01151,0 0,0.002 c -11.4098,-0.2074 -22.507708,3.94028 -26.9855575,12.98373 -1.637945,3.30797 -2.3153385,6.77361 -1.687197,10.06374 0.6364691,3.334 2.5693533,6.0624 5.0577555,7.7861 1.310001,0.9076 2.775554,1.5004 4.294681,1.8809 -3.24173,1.9365 -6.2814404,4.2246 -8.5836117,7.3259 -2.5972522,3.4987 -4.0922197,7.9138 -3.865214,12.7191 0.4785054,10.1293 7.2707567,18.1578 16.3025387,20.3826 6.975986,1.7181 14.634624,-0.3766 21.544348,-5.2669 2.26516,2.3518 4.954829,4.2238 8.15031,4.9849 5.605169,1.3356 11.41948,0.012 16.942905,-2.5846 1.07026,-0.5031 1.980141,-1.2877 2.636244,-2.2719 1.333066,-1.9991 1.729978,-4.2082 1.68528,-6.1545 -0.02429,-1.0576 -0.208484,-2.5562 -1.021904,-4.0915 -0.970766,-1.8319 -2.766898,-3.4487 -5.232228,-3.9684 -0.789652,-0.1668 -1.600901,-0.184 -2.394668,-0.055 a 1.87488,1.87488 0 0 0 -0.0018,0 c -0.624608,0.1034 -1.361194,0.1394 -1.992042,0.1418 0.174175,-6.3101 0.294541,-12.3749 0.364282,-18.6168 4.007652,1.7424 8.043666,2.6296 11.923492,2.7245 -0.06555,1.2373 -0.06264,2.3658 -0.01341,3.3132 0.08734,15.9322 13.036754,26.2447 27.018151,25.6109 10.072186,-0.457 16.415026,-8.475 19.247476,-12.6791 a 2.9369803,2.9369803 0 0 0 0.17062,-0.2301 2.9369803,2.9369803 0 0 0 0.006,-0.01 c 0.30854,-0.4653 0.53444,-0.9669 0.68063,-1.4879 0.61088,-2.1701 -0.13126,-3.998 -0.76114,-5.0364 -0.59874,-0.9869 -1.35698,-1.7393 -2.10326,-2.3065 -0.73653,-0.5597 -1.71315,-1.1326 -2.93149,-1.4343 a 2.9369803,2.9369803 0 0 0 -0.002,0 c -1.41053,-0.3488 -3.61241,-0.3637 -5.4738,1.1773 a 2.9369803,2.9369803 0 0 0 -0.004,0 c -0.48244,0.3997 -0.88414,0.8754 -1.19829,1.4187 -0.98255,1.6974 -1.98073,3.0993 -3.16542,4.0284 -1.18486,0.9293 -2.54844,1.527 -4.929289,1.5415 -2.022457,0.01 -3.282947,-0.7727 -4.854528,-2.9564 -1.500085,-2.0853 -2.68255,-5.4424 -2.989021,-8.5206 -0.490445,-4.9256 0.355382,-8.526 1.614339,-10.9878 1.00112,-1.0672 1.926813,-2.2032 2.755116,-3.4127 0.992268,-0.7317 1.864526,-0.9511 2.410008,-0.9626 -0.619424,3.1286 -0.732211,6.1904 0.828256,8.8156 2.190989,3.6863 6.392449,5.0926 10.031149,4.3752 3.52273,-0.6944 6.73714,-3.2858 7.91067,-7.1745 1.17749,-3.9012 0.0484,-8.34481 -2.95068,-12.45632 -2.91104,-3.99077 -7.60921,-6.09265 -12.56196,-6.651 a 2.9369803,2.9369803 0 0 0 -0.48892,-0.0884 l 0,0.004 c -0.066,-0.005 -0.13327,-0.007 -0.1994,-0.0134 0.0446,-0.58215 0.0748,-1.16673 0.0844,-1.75622 0.26277,-16.25495 -6.922102,-26.94857 -16.517294,-30.91599 -5.971224,-2.46893 -12.290786,-1.99747 -17.86511,0.19364 l 0.172554,-21.62488 c 0.02606,-3.02698 -2.462633,-5.49023 -5.489141,-5.43161 z m 10.947605,41.0334 c 1.968613,-0.0245 2.859286,0.17211 4.400132,2.08021 1.403378,1.73791 3.059673,5.59442 3.353302,12.62523 0.395034,9.45869 -3.034989,13.11246 -5.993382,14.29516 -1.411618,0.56434 -2.766547,0.64404 -4.053106,0.19172 -1.244044,-0.4375 -2.449238,-1.42354 -3.541196,-3.06954 l 0.14763,-23.89109 c 0.38134,-0.3809 0.733734,-0.7462 1.393855,-1.08519 1.276304,-0.65523 2.971986,-1.13024 4.292765,-1.1465 z m -37.720348,24.12499 c 0.320892,0.0128 0.559766,0.049 0.678713,0.10167 0.92426,0.40574 1.006857,0.3497 1.623927,1.89238 0.215158,0.53793 0.427127,2.41115 0.427551,4.6473 -2.18967,0.7179 -4.376047,1.4779 -6.560894,2.2433 0.980726,-2.0389 1.395849,-4.19885 1.420697,-6.09305 0.01218,-0.92911 -0.142303,-1.65649 -0.253079,-2.45408 0.510789,-0.10147 1.033929,-0.26534 1.493551,-0.30293 l 0,-0.002 c 0.446359,-0.0363 0.848643,-0.0454 1.169534,-0.0324 z m 2.609404,25.60515 0.04794,6.8581 c -1.502918,2.2658 -4.013751,3.4519 -6.047066,3.495 -1.132125,0.022 -2.159275,-0.3974 -2.339069,-0.5252 -0.140715,-0.1007 -0.20106,-0.1499 -0.228154,-0.1728 -0.0013,0 0.006,0.024 0.004,0.02 -0.02187,-0.039 -0.03377,-0.047 -0.004,-0.02 0.01642,0.012 -0.01017,-0.1268 -0.03452,-0.2549 0.0035,-2.0519 0.479441,-3.4192 1.361261,-4.6322 0.892102,-1.2268 2.284151,-2.3197 4.164307,-3.4318 0.988813,-0.5848 2.044124,-0.9162 3.075301,-1.3362 z m 76.341798,0.5503 a 2.9369803,2.9369803 0 0 1 0.70172,0.085 l -0.70172,-0.085 z"
           id="path4600"
           inkscape:connector-curvature="0" />
        <g
           id="g4592">
          <path
             inkscape:connector-curvature="0"
             id="path4451"
             d="m 33.570885,975.84132 c -11.623185,-0.21123 -22.927262,4.01536 -27.4888568,13.2279 -1.6685769,3.36984 -2.3597261,6.89878 -1.7198372,10.25055 0.6483722,3.39613 2.6169617,6.17733 5.151901,7.93333 1.334502,0.9244 2.828154,1.5284 4.375692,1.9158 -3.302356,1.9729 -6.3985477,4.3022 -8.7437739,7.4615 -2.6458252,3.5641 -4.16937413,8.0626 -3.9381228,12.9577 0.4874543,10.3186 7.4079152,18.4975 16.6086047,20.7636 7.106451,1.7503 14.908,-0.3833 21.946948,-5.3649 2.307522,2.3959 5.047158,4.3021 8.302399,5.0777 5.709995,1.3605 11.632529,0.013 17.259251,-2.633 1.090276,-0.5127 2.01792,-1.3107 2.686294,-2.3134 1.357997,-2.0366 1.761566,-4.2881 1.716032,-6.2706 -0.02474,-1.0775 -0.21202,-2.6044 -1.040653,-4.1683 -0.988921,-1.8664 -2.819299,-3.5131 -5.330734,-4.0428 -0.80442,-0.1697 -1.630361,-0.1865 -2.438973,-0.054 a 1.9099434,1.9099434 0 0 0 -0.0019,0 c -0.63629,0.1051 -1.387294,0.1418 -2.02994,0.1446 0.291905,-10.5753 0.454721,-20.3989 0.439472,-31.6343 -0.0071,-5.339 -1.85665,-10.41409 -4.55833,-14.06502 -5.361137,-7.2448 -13.701925,-8.63181 -20.790243,-9.16613 l -0.0057,0 c -0.09551,-0.008 -0.216113,-0.0174 -0.361471,-0.0209 a 1.9099434,1.9099434 0 0 0 -0.02663,0 l -0.01142,0 z m -2.418046,17.84711 c 0.909413,-0.0744 1.641107,-0.0379 1.883451,0.0685 0.941544,0.41329 1.026543,0.35764 1.655152,1.92909 0.21918,0.54801 0.433333,2.45533 0.433765,4.73338 -2.23062,0.7312 -4.457689,1.5051 -6.683394,2.2849 0.999067,-2.0771 1.422472,-4.27638 1.447783,-6.20591 0.01241,-0.9465 -0.143986,-1.68738 -0.256834,-2.49984 0.520343,-0.10333 1.051858,-0.27181 1.520077,-0.31011 z m 3.850609,26.05057 0.04946,6.9859 c -1.531025,2.3083 -4.088872,3.5158 -6.160213,3.5596 -1.153296,0.024 -2.200644,-0.4045 -2.3838,-0.5347 -0.301684,-0.2143 -0.270755,-0.2265 -0.228297,-0.1541 0.02832,0.049 -0.01298,-0.1405 -0.03996,-0.2815 0.0034,-2.0902 0.488593,-3.4827 1.386904,-4.7182 0.908786,-1.2499 2.3272,-2.3638 4.242518,-3.4967 1.007304,-0.5959 2.082915,-0.9323 3.133376,-1.3603 z"
             style="fill:#780302;fill-opacity:0.98039216;fill-rule:evenodd;stroke:none;stroke-width:1px;stroke-linecap:butt;stroke-linejoin:miter;stroke-opacity:1" />
          <path
             inkscape:connector-curvature="0"
             id="path4446"
             d="m 33.550763,977.80225 c -11.121477,-0.20493 -21.625502,3.88356 -25.7172188,12.14714 -1.5249576,3.07979 -2.0990743,6.1784 -1.5540136,9.03342 0.5497947,2.87979 2.2214388,5.23189 4.3580784,6.71189 4.172376,2.8902 10.057605,2.7981 14.029819,-0.872 2.536748,-2.3439 3.286569,-5.57036 3.322701,-8.32481 0.01813,-1.38244 -0.22561,-2.67204 -0.419849,-3.97811 2.186968,-0.7792 4.76769,-1.12472 6.235052,-0.48064 1.167738,0.51257 1.917919,1.11406 2.657782,2.96365 0.503074,1.25767 0.742437,3.71963 0.592729,6.78981 -7.38307,2.4234 -14.927415,4.8415 -21.176763,8.3609 -3.563801,2.007 -6.7862016,4.4124 -9.1588022,7.6085 -2.3952194,3.2266 -3.7681193,7.2721 -3.5582735,11.714 0.4492387,9.5097 6.7599632,16.9082 15.1354867,18.9712 6.858936,1.6893 14.640188,-0.4625 21.657405,-5.8855 2.25385,2.788 5.166594,4.794 8.535677,5.5967 5.132187,1.2228 10.603597,0.028 15.980885,-2.5001 0.769176,-0.3617 1.43598,-0.936 1.907371,-1.6433 1.095093,-1.6422 1.431499,-3.4632 1.392534,-5.1598 -0.02055,-0.8952 -0.175588,-2.1028 -0.816903,-3.3132 -0.766801,-1.4472 -2.094474,-2.6558 -4.031316,-3.0644 -0.568292,-0.1199 -1.159505,-0.1323 -1.732593,-0.038 -1.661758,0.2746 -3.630133,0.1928 -4.09401,0.048 -0.547221,-0.1717 -0.473896,-0.2335 -0.24887,0.023 0.225027,0.2562 0.123429,0.326 0.0646,-0.3268 l 0.0095,0.2565 c 0.326309,-11.2415 0.477711,-21.486 0.461644,-33.32394 -0.0065,-4.88072 -1.743048,-9.62279 -4.1776,-12.91274 -4.863503,-6.57231 -12.426997,-7.86217 -19.375777,-8.38559 -0.08785,-0.007 -0.175951,-0.013 -0.264069,-0.0152 a 2.1603363,2.1603363 0 0 0 -0.0152,0 z m 3.341699,39.04025 0.07219,10.4887 c -1.846362,3.1675 -5.162054,4.7764 -8.022739,4.8368 -1.534407,0.032 -2.842131,-0.4027 -3.524078,-0.8871 -0.735789,-0.5228 -0.957362,-0.8225 -1.07907,-1.9189 -0.01868,-4.9156 2.519124,-7.5213 6.565613,-9.9148 1.980539,-1.1716 4.009777,-1.9462 5.988082,-2.6047 z"
             style="fill:url(#linearGradient4502);fill-opacity:1;fill-rule:evenodd;stroke:none;stroke-width:1px;stroke-linecap:butt;stroke-linejoin:miter;stroke-opacity:1" />
          <path
             inkscape:connector-curvature="0"
             id="path4441"
             d="m -46.990234,984.29102 c -10.849519,-0.19992 -20.767549,3.90128 -24.408204,11.2539 -1.404533,2.83658 -1.857107,5.52318 -1.40625,7.88478 0.450858,2.3616 1.827,4.288 3.5625,5.4902 3.471001,2.4044 8.362802,2.3383 11.652344,-0.7011 2.018021,-1.8646 2.670858,-4.4974 2.703125,-6.9571 0.02427,-1.85014 -0.265126,-3.73342 -0.603515,-5.62693 2.873436,-1.4908 6.886949,-2.19364 9.695312,-0.96094 1.630908,0.71587 2.968094,1.92032 3.902344,4.25586 0.823435,2.05851 1.128399,5.25651 0.740234,9.40621 -8.084346,2.6674 -16.335465,5.2469 -22.875,8.9297 -3.499084,1.9706 -6.541656,4.2729 -8.722656,7.211 -2.181,2.938 -3.414259,6.5574 -3.222656,10.6132 0.418962,8.8687 6.192373,15.5614 13.873047,17.4532 6.832339,1.6828 14.944623,-0.5753 22.203125,-6.9551 2.158439,3.4707 5.228848,5.7981 8.822265,6.6543 4.604105,1.097 9.724233,0.046 14.96875,-2.4199 a 2.6033651,2.6033651 0 0 0 1.058594,-0.9121 c 0.864626,-1.2966 1.092801,-2.5321 1.058594,-4.0215 -0.0171,-0.7447 -0.124143,-1.5538 -0.582031,-2.418 -0.457889,-0.8642 -1.464141,-1.7675 -2.640626,-2.0156 a 2.6033651,2.6033651 0 0 0 -0.960937,-0.021 c -1.935418,0.3198 -4.023771,0.3563 -5.234375,-0.023 -1.196151,-0.3753 -1.585903,-0.5636 -1.736328,-2.2325 0.33492,-11.5381 0.491098,-22.0418 0.474609,-34.1914 -0.006,-4.46312 -1.684337,-9.01971 -3.859375,-11.95896 -4.435633,-5.99411 -11.313065,-7.20202 -18.316406,-7.72851 a 2.6033651,2.6033651 0 0 0 -0.146484,-0.008 z m 5.677734,34.87108 0.09766,14.5039 c -2.245417,4.2928 -6.578603,6.4364 -10.425781,6.5176 -1.986676,0.042 -3.757276,-0.47 -4.957031,-1.3223 -1.178623,-0.8373 -1.885377,-1.9185 -2.056641,-3.6582 -0.0682,-5.979 3.335709,-9.5581 7.853516,-12.2304 3.253127,-1.9243 6.630553,-3.001 9.488281,-3.8106 z"
             style="fill:#d83a3a;fill-opacity:1;fill-rule:evenodd;stroke:none;stroke-width:1px;stroke-linecap:butt;stroke-linejoin:miter;stroke-opacity:1"
             transform="translate(80.446429,-5.2678572)" />
          <path
             sodipodi:nodetypes="cssccsccccssccccc"
             inkscape:connector-curvature="0"
             id="path3616"
             d="m 33.406809,981.62698 c -10.114455,-0.18637 -19.12049,3.93404 -22.027344,9.80469 -4.8643503,9.82403 5.113703,13.85513 9.710938,9.60743 2.707044,-2.50125 1.942128,-7.02662 0.982421,-12.05469 7.03909,-5.05781 22.714357,-5.49847 19.732422,15.98249 -17.323003,5.7745 -35.3916503,10.7778 -34.7324223,24.7324 0.741642,15.6992 19.5508883,22.259 34.2851573,6.5176 3.614941,9.3475 12.07075,10.5919 21.875,5.9824 0.737969,-1.1066 1.10138,-4.1197 -0.535157,-4.4648 -4.271578,0.7059 -9.559639,0.5527 -10,-4.6426 0.339559,-11.618 0.493144,-22.1519 0.476563,-34.36925 -0.005,-3.6961 -1.644653,-8.11266 -3.347656,-10.41402 -3.78185,-5.11062 -9.572625,-6.16689 -16.419922,-6.68165 z m 8.30664,28.81842 0.126954,18.6875 c -5.252927,11.0842 -21.805648,10.9642 -22.666016,0.9473 -0.260694,-14.2194 17.137438,-18.2084 22.539062,-19.6348 z"
             style="fill:url(#linearGradient4434);fill-opacity:1;fill-rule:evenodd;stroke:none;stroke-width:1px;stroke-linecap:butt;stroke-linejoin:miter;stroke-opacity:1" />
        </g>
        <g
           id="g4521"
           transform="translate(0,2)">
          <path
             id="path4518"
             d="m 59.619141,925.27734 a 0.75041848,0.75041848 0 0 0 -0.736329,0.71094 l 0,-0.69531 -17.27539,0.32812 a 0.75041848,0.75041848 0 0 0 -0.01367,0 c -0.332357,0.007 -0.649669,0.0467 -0.945312,0.10547 -2.542673,0.50282 -4.076628,2.40043 -4.697266,4.07422 -0.483993,1.30522 -0.508098,2.51296 -0.451172,3.3711 0.05427,0.81765 0.252994,1.7019 0.585938,2.58398 0.0039,0.0422 0.0078,0.0858 0.0078,0.0859 3.9e-5,1.9e-4 0.0057,0.0305 0.0078,0.0391 0.0043,0.017 0.0077,0.0244 0.0098,0.0312 0.0081,0.0274 0.01174,0.0378 0.01758,0.0547 0.0016,0.005 0.0061,0.0126 0.0078,0.0176 0.01103,0.0313 0.02277,0.0664 0.04102,0.11328 0.0423,0.10876 0.104488,0.26188 0.191407,0.44336 0.173838,0.36294 0.438062,0.8401 0.820312,1.30078 0.843316,1.01638 2.066531,1.72775 3.509766,1.98632 0.183176,0.033 0.35044,0.0537 0.496093,0.0664 a 0.75041848,0.75041848 0 0 0 0.0098,0 c 0.875101,0.0749 1.784503,0.20991 2.517578,0.34961 0.686246,0.13078 1.212556,0.2925 1.298828,0.32031 l -0.253906,66.57428 c -0.0053,1.3898 0.513379,2.7233 1.457031,3.7441 2.035903,2.1999 5.471895,3.6063 8.84961,2.2539 1.046431,-0.4187 1.932276,-1.1468 2.548828,-2.0879 0.468141,-0.7146 0.754982,-1.0931 1.072265,-1.5254 9.561386,4.349 19.335808,3.8678 26.873047,-0.4961 8.66136,-5.0146 14.323138,-14.43252 14.492191,-24.89061 0.2677,-16.55897 -7.051536,-27.45253 -16.826175,-31.49414 -6.082895,-2.51515 -12.520645,-2.03479 -18.199219,0.19726 l 0.175782,-22.02929 c 0.02654,-3.08356 -2.508688,-5.59288 -5.591797,-5.53321 z m 11.152343,41.80078 c 2.00543,-0.0248 2.912761,0.17537 4.482422,2.11915 1.429624,1.77034 3.116896,5.69901 3.416016,12.86132 0.402422,9.63557 -3.091748,13.35768 -6.105469,14.5625 -1.438017,0.5749 -2.818286,0.65618 -4.128906,0.19532 -1.267309,-0.44564 -2.495043,-1.45016 -3.607422,-3.12696 l 0.150391,-24.33789 c 0.388472,-0.388 0.747456,-0.76018 1.419922,-1.10547 1.300173,-0.66757 3.027567,-1.15133 4.373046,-1.16797 z"
             style="fill:#004bb9;fill-opacity:0.96862745;fill-rule:evenodd;stroke:none;stroke-width:1px;stroke-linecap:butt;stroke-linejoin:miter;stroke-opacity:1"
             inkscape:connector-curvature="0" />
          <path
             id="path4480"
             d="m 59.66642,927.73563 -18.01172,0.3418 a 1.4123325,1.4123325 0 0 0 -0.006,0 c -0.17492,0.004 -0.34791,0.0245 -0.51953,0.0586 -1.58428,0.31136 -2.48242,1.46605 -2.87304,2.51953 -0.32233,0.86925 -0.3484,1.69466 -0.30469,2.35352 0.0448,0.67504 0.17952,1.36325 0.45703,2.03516 0.0788,0.19087 0.24054,0.70631 0.67383,1.22851 0.43297,0.52182 1.16873,0.97875 2.05273,1.13672 0.0909,0.0164 0.18148,0.0272 0.27344,0.0352 a 1.4123325,1.4123325 0 0 0 0.002,0 c 1.90019,0.16231 3.78836,0.46602 4.7461,0.91602 0.56091,0.26355 0.81785,0.46012 0.97265,0.66796 0.15294,0.20534 0.29259,0.53092 0.34961,1.26954 l -0.2539,66.84771 c -0.003,0.757 0.29078,1.5125 0.80468,2.0684 1.46971,1.5881 3.8512,2.5534 6.13086,1.6406 0.57208,-0.2289 1.07054,-0.6369 1.40821,-1.1525 0.93294,-1.424 1.54349,-2.3286 2.23047,-3.164 9.53973,5.0761 19.21626,4.6029 26.53906,0.3633 7.90714,-4.5779 13.11053,-13.20873 13.26562,-22.80273 0.25596,-15.83314 -6.56038,-25.56639 -15.30859,-29.1836 -6.63887,-2.74503 -13.88982,-1.76568 -19.74609,1.59766 l 0.20507,-25.72266 c 0.0139,-1.61438 -1.47374,-3.08592 -3.08789,-3.05468 z m 11.07422,36.88477 c 2.4188,-0.0299 4.48549,0.63046 6.42578,3.0332 1.92048,2.37819 3.64576,6.80258 3.95899,14.30273 0.42983,10.29185 -3.55,15.30957 -7.64649,16.94727 -3.95166,1.5798 -8.33855,0.27424 -11.11328,-4.38086 l 0.16406,-26.33789 c 0.55374,-0.62632 1.44211,-1.45641 2.74805,-2.12695 1.62077,-0.83219 3.61227,-1.41463 5.46289,-1.4375 z"
             style="fill:url(#linearGradient4494);fill-opacity:1;fill-rule:evenodd;stroke:none;stroke-width:1px;stroke-linecap:butt;stroke-linejoin:miter;stroke-opacity:1"
             inkscape:connector-curvature="0" />
          <path
             id="path4475"
             d="m 59.69377,929.14774 -18.01172,0.3418 a 1.6171967,1.6171967 0 0 0 -0.28125,0.0312 c -0.94379,0.18548 -1.5853,0.99119 -1.82031,1.625 -0.23502,0.6338 -0.25761,1.21329 -0.22071,1.76953 0.0369,0.55624 0.14218,1.07815 0.35352,1.58984 0.21134,0.5117 0.44549,1.29517 1.67187,1.51367 a 1.6171967,1.6171967 0 0 0 0.14649,0.0195 c 1.94562,0.16619 3.91428,0.42926 5.22461,1.04493 1.30595,0.61361 1.99951,1.28396 2.13476,3.12695 l -0.2539,66.94134 a 1.6171967,1.6171967 0 0 0 0.42968,1.1036 c 1.15204,1.2448 2.94319,1.9398 4.56836,1.289 a 1.6171967,1.6171967 0 0 0 0.75196,-0.6152 c 1.12229,-1.7131 1.85108,-3.1056 2.98047,-4.1856 9.52188,5.5246 19.08273,5.0931 26.26367,0.9356 7.47272,-4.3265 12.41349,-12.50697 12.56054,-21.60351 0.24939,-15.42678 -6.26542,-24.47728 -14.43554,-27.85546 -7.00241,-2.89535 -14.87877,-1.53261 -20.63867,2.70117 l 0.2246,-28.14258 a 1.6171967,1.6171967 0 0 0 -1.64843,-1.63086 z m 11.02929,34.06055 c 2.73232,-0.0338 5.35082,0.84397 7.54297,3.55859 2.19216,2.71463 3.94835,7.44038 4.26953,15.13086 0.44627,10.68552 -3.79402,16.42177 -8.5332,18.31636 -4.65307,1.8603 -10.00239,0.1594 -13.05078,-5.23433 l 0.16992,-27.43945 c 0.66258,-0.83999 1.88641,-1.90376 3.51172,-2.73828 1.79378,-0.92103 3.96477,-1.56748 6.08984,-1.59375 z"
             style="fill:#409aff;fill-opacity:1;fill-rule:evenodd;stroke:none;stroke-width:1px;stroke-linecap:butt;stroke-linejoin:miter;stroke-opacity:1"
             inkscape:connector-curvature="0" />
          <path
             id="path4454"
             d="m 59.72502,930.76493 -18.01172,0.3418 c -1.21011,0.23782 -0.74873,3.19491 -0.0449,3.32031 3.95114,0.33749 8.50355,0.94829 8.83984,5.68164 l -0.25391,67.04882 c 0.83861,0.9062 1.87425,1.2472 2.7793,0.8848 1.20469,-1.8389 1.9649,-3.9006 4.03906,-5.3047 18.93742,11.9771 37.22631,-1.6364 37.50196,-18.68752 0.48415,-29.94866 -24.61564,-32.99694 -35.10157,-21.84375 l 0.25194,-31.4414 z m 10.97851,30.82617 c 6.25454,-0.0773 12.78689,4.42592 13.44727,20.23828 0.93122,22.29762 -18.12093,26.17682 -24.82031,13.66016 l 0.17773,-28.57031 c 1.63425,-2.43641 6.33067,-5.268 11.19531,-5.32813 z"
             style="fill:url(#linearGradient4511);fill-opacity:1;fill-rule:evenodd;stroke:none;stroke-width:1px;stroke-linecap:butt;stroke-linejoin:miter;stroke-opacity:1"
             inkscape:connector-curvature="0" />
          <path
             style="fill:url(#linearGradient4464);fill-opacity:1;fill-rule:evenodd;stroke:none;stroke-width:1px;stroke-linecap:butt;stroke-linejoin:miter;stroke-opacity:1"
             d="m 59.72502,930.76493 -18.01172,0.3418 c -1.21011,0.23782 -0.74873,3.19491 -0.0449,3.32031 3.95114,0.33749 8.50355,0.94829 8.83984,5.68164 l -0.25391,67.04882 c 0.83861,0.9062 1.87425,1.2472 2.7793,0.8848 1.20469,-1.8389 1.9649,-3.9006 4.03906,-5.3047 18.93742,11.9771 37.22631,-1.6364 37.50196,-18.68752 0.48415,-29.94866 -24.61564,-32.99694 -35.10157,-21.84375 l 0.25194,-31.4414 z m 10.97851,30.82617 c 6.25454,-0.0773 12.78689,4.42592 13.44727,20.23828 0.93122,22.29762 -18.12093,26.17682 -24.82031,13.66016 l 0.17773,-28.57031 c 1.63425,-2.43641 6.33067,-5.268 11.19531,-5.32813 z"
             id="path4467"
             inkscape:connector-curvature="0" />
        </g>
        <g
           id="g4586"
           transform="matrix(1.0369056,0,0,1.0369056,-337.26227,-17.330607)">
          <path
             id="path4569"
             d="m 421.86914,969.49023 c -1.68012,-0.15323 -3.40732,-0.12585 -5.14453,0.0918 -2.32283,0.29111 -4.67647,0.92855 -6.95508,1.95313 -7.18264,3.2297 -11.40816,8.70172 -13.52734,13.92382 -2.07379,5.11024 -2.29294,9.89322 -2.13477,12.9375 0.0858,15.65272 12.80703,25.78492 26.54297,25.16212 9.89535,-0.4488 16.12744,-8.3269 18.91016,-12.457 a 2.8854187,2.8854187 0 0 0 0.16797,-0.2266 2.8854187,2.8854187 0 0 0 0.006,-0.01 c 0.30314,-0.4573 0.52432,-0.9493 0.66796,-1.461 0.60015,-2.1322 -0.1292,-3.9271 -0.74804,-4.9472 -0.5882,-0.9694 -1.33323,-1.7102 -2.06641,-2.2676 -0.72361,-0.55 -1.68196,-1.1118 -2.87891,-1.4082 a 2.8854187,2.8854187 0 0 0 -0.002,0 c -1.38576,-0.3428 -3.5502,-0.3579 -5.37891,1.1563 a 2.8854187,2.8854187 0 0 0 -0.002,0 c -0.47397,0.3928 -0.86909,0.8605 -1.17773,1.3945 -0.96529,1.6674 -1.9455,3.0442 -3.10938,3.9571 -1.16407,0.913 -2.5047,1.4996 -4.84375,1.5136 -1.98695,0.011 -3.22554,-0.7586 -4.76953,-2.9043 -1.47375,-2.0485 -2.63446,-5.347 -2.93555,-8.37105 -0.77888,-7.82274 1.86743,-12.25015 4.125,-14.0332 1.04624,-0.82633 1.96795,-1.04668 2.53516,-1.0586 -0.60855,3.07348 -0.72058,6.08096 0.8125,8.66016 2.15252,3.6213 6.28065,5.00375 9.85547,4.29883 3.46089,-0.68246 6.61857,-3.22863 7.77148,-7.04883 1.15683,-3.83305 0.048,-8.19894 -2.89843,-12.23828 -2.85991,-3.92069 -7.476,-5.9846 -12.3418,-6.53321 a 2.8854187,2.8854187 0 0 0 -0.48047,-0.0879 z m 12.83789,31.29297 a 2.8854187,2.8854187 0 0 0 -0.68945,-0.084 l 0.68945,0.084 z"
             style="fill:#008000;fill-opacity:1;fill-rule:evenodd;stroke:none;stroke-width:0.40000001;stroke-linecap:butt;stroke-linejoin:miter;stroke-miterlimit:4;stroke-dasharray:none;stroke-opacity:1"
             inkscape:connector-curvature="0" />
          <path
             id="path4571"
             d="m 421.70703,971.27148 c -1.54982,-0.14135 -3.14903,-0.11587 -4.75976,0.0859 -2.15147,0.26964 -4.33247,0.85943 -6.44336,1.8086 -6.74112,3.03116 -10.62695,8.09415 -12.60352,12.96484 -1.95106,4.8078 -2.16187,9.37409 -2.00977,12.22266 0.0618,14.73732 11.82192,24.00092 24.67774,23.41802 9.009,-0.4086 14.9727,-7.8752 17.59766,-11.791 a 1.0970434,1.0970434 0 0 0 0.0742,-0.098 1.0970434,1.0970434 0 0 0 0.004,0 c 0.19636,-0.2962 0.34305,-0.6173 0.4375,-0.9531 l 0,0 c 0.41931,-1.4886 -0.0981,-2.7812 -0.55664,-3.5371 -0.45048,-0.7424 -1.02755,-1.3217 -1.61914,-1.7715 -0.58571,-0.4452 -1.32528,-0.8725 -2.22656,-1.0957 a 1.0970434,1.0970434 0 0 0 -0.002,0 c -1.00397,-0.2483 -2.52975,-0.262 -3.80859,0.7969 -0.3093,0.2563 -0.57025,0.5639 -0.77148,0.9121 -1.00819,1.7418 -2.10275,3.3299 -3.55469,4.4687 -1.45194,1.1388 -3.25754,1.8789 -5.9375,1.8946 -2.5966,0.015 -4.47744,-1.2104 -6.23047,-3.6465 -1.71988,-2.3907 -2.93319,-5.9209 -3.26367,-9.24031 -0.82543,-8.29012 1.95688,-13.36981 4.79492,-15.61133 1.4205,-1.12193 2.8464,-1.5257 3.9043,-1.47265 0.64952,0.0326 1.14905,0.40638 1.68945,0.87109 -0.85048,3.29658 -1.00257,6.33111 0.40039,8.69141 1.74034,2.92788 5.07389,4.03059 7.97266,3.45898 2.83868,-0.55976 5.45144,-2.64871 6.40625,-5.8125 0.95687,-3.1705 0.0871,-6.93985 -2.63086,-10.66601 -2.53754,-3.47875 -6.76771,-5.39568 -11.3418,-5.85743 -0.002,-2e-4 -0.004,-0.002 -0.006,-0.002 a 1.0970434,1.0970434 0 0 0 -0.19336,-0.0352 z m 12.57031,31.24802 a 1.0970434,1.0970434 0 0 0 -0.26172,-0.033 l 0.26172,0.033 z"
             style="fill:url(#linearGradient4584);fill-opacity:1;fill-rule:evenodd;stroke:none;stroke-width:0.40000001;stroke-linecap:butt;stroke-linejoin:miter;stroke-miterlimit:4;stroke-dasharray:none;stroke-opacity:1"
             inkscape:connector-curvature="0" />
          <path
             id="path4573"
             d="m 421.54297,973.05273 c -1.41927,-0.12944 -2.88876,-0.10592 -4.37305,0.0801 -1.98002,0.24815 -3.99054,0.79232 -5.93359,1.66602 -6.30131,2.8334 -9.84266,7.48188 -11.67774,12.0039 -1.8224,4.49079 -2.03022,8.83365 -1.88671,11.48438 0.0258,13.84307 10.82638,22.24087 22.8164,21.69727 8.08372,-0.3666 13.79304,-7.3888 16.26367,-11.0938 0.0913,-0.1378 0.16219,-0.2902 0.20703,-0.4492 l 0,0 c 0.24237,-0.857 -0.053,-1.6136 -0.36328,-2.125 -0.31278,-0.5156 -0.72377,-0.9332 -1.17382,-1.2754 -0.4485,-0.3409 -0.96712,-0.6329 -1.57422,-0.7832 -0.62858,-0.1555 -1.5153,-0.1591 -2.23828,0.4395 -0.14529,0.1204 -0.26889,0.2663 -0.36329,0.4296 -2.10998,3.6456 -4.97668,7.2226 -11.03125,7.2579 -3.21658,0.018 -5.72303,-1.6554 -7.6914,-4.3907 -1.96414,-2.7295 -3.23216,-6.4953 -3.5918,-10.10737 -0.87204,-8.75834 2.04758,-14.49436 5.46484,-17.19336 1.70899,-1.34978 3.53225,-1.93425 5.10352,-1.85547 1.37047,0.0687 2.52748,0.69398 3.51758,1.83399 -1.16961,3.64069 -1.18369,6.57404 0.0215,8.60156 1.32883,2.23557 3.85864,3.05678 6.08789,2.61719 2.21761,-0.43729 4.28242,-2.06709 5.03907,-4.57422 0.75704,-2.50841 0.1278,-5.67867 -2.36329,-9.09375 -2.19237,-3.00557 -6.00112,-4.77763 -10.25976,-5.16602 z"
             style="fill:#63d386;fill-opacity:1;fill-rule:evenodd;stroke:none;stroke-width:0.40000001;stroke-linecap:butt;stroke-linejoin:miter;stroke-miterlimit:4;stroke-dasharray:none;stroke-opacity:1"
             inkscape:connector-curvature="0" />
          <path
             sodipodi:nodetypes="csscsccssc"
             inkscape:connector-curvature="0"
             id="path4547"
             d="m 424.76915,980.13628 c -6.03914,15.88715 14.9206,11.60005 5.74524,-0.97858 -3.26829,-4.48056 -11.4517,-6.12954 -18.62469,-2.90419 -11.83014,5.31946 -12.90371,17.07904 -12.6269,22.00238 0.008,13.05061 9.91907,20.64491 21.15324,20.13551 7.16199,-0.3248 12.66444,-6.8729 15.00752,-10.3866 0.29603,-1.0431 -1.94221,-2.7906 -2.7964,-2.0834 -2.21544,3.8278 -5.69388,8.0169 -12.4037,8.055 -7.58501,0.043 -12.10984,-8.2052 -12.87944,-15.93475 -1.82759,-18.35544 12.18675,-25.28451 17.42513,-17.90537 z"
             style="fill:url(#linearGradient4555);fill-opacity:1;fill-rule:evenodd;stroke:none;stroke-width:0.40000001;stroke-linecap:butt;stroke-linejoin:miter;stroke-miterlimit:4;stroke-dasharray:none;stroke-opacity:1" />
        </g>
      </g>
    </g>
  </g>
</svg>
