<?xml version="1.0" encoding="UTF-8" standalone="no"?>
<!-- Created with Inkscape (http://www.inkscape.org/) -->

<svg
   xmlns:dc="http://purl.org/dc/elements/1.1/"
   xmlns:cc="http://creativecommons.org/ns#"
   xmlns:rdf="http://www.w3.org/1999/02/22-rdf-syntax-ns#"
   xmlns:svg="http://www.w3.org/2000/svg"
   xmlns="http://www.w3.org/2000/svg"
   xmlns:xlink="http://www.w3.org/1999/xlink"
   xmlns:sodipodi="http://sodipodi.sourceforge.net/DTD/sodipodi-0.dtd"
   xmlns:inkscape="http://www.inkscape.org/namespaces/inkscape"
   width="128"
   height="128"
   viewBox="0 0 128 128"
   id="svg2"
   version="1.1"
   inkscape:version="0.91 r"
   sodipodi:docname="import_qti2.svg">
  <defs
     id="defs4">
    <linearGradient
       inkscape:collect="always"
       id="linearGradient4250">
      <stop
         style="stop-color:#717d97;stop-opacity:1"
         offset="0"
         id="stop4252" />
      <stop
         style="stop-color:#f2f3f5;stop-opacity:1"
         offset="1"
         id="stop4254" />
    </linearGradient>
    <linearGradient
       inkscape:collect="always"
       id="linearGradient4242">
      <stop
         style="stop-color:#7f89a2;stop-opacity:1"
         offset="0"
         id="stop4244" />
      <stop
         style="stop-color:#e6e7ec;stop-opacity:1"
         offset="1"
         id="stop4246" />
    </linearGradient>
    <linearGradient
       inkscape:collect="always"
       id="linearGradient4234">
      <stop
         style="stop-color:#7e89a2;stop-opacity:1"
         offset="0"
         id="stop4236" />
      <stop
         style="stop-color:#d8dbe1;stop-opacity:1"
         offset="1"
         id="stop4238" />
    </linearGradient>
    <linearGradient
       inkscape:collect="always"
       id="linearGradient4226">
      <stop
         style="stop-color:#8590a8;stop-opacity:1"
         offset="0"
         id="stop4228" />
      <stop
         style="stop-color:#edeef1;stop-opacity:1"
         offset="1"
         id="stop4230" />
    </linearGradient>
    <linearGradient
       id="XMLID_8_"
       gradientUnits="userSpaceOnUse"
       x1="74.5"
       y1="5.0479002"
       x2="74.5"
       y2="124.2402">
      <stop
         offset="0"
         style="stop-color:#FFFFFF"
         id="stop4539" />
      <stop
         offset="1"
         style="stop-color:#E1E1DF"
         id="stop4541" />
    </linearGradient>
    <linearGradient
       id="XMLID_9_"
       gradientUnits="userSpaceOnUse"
       x1="74.5"
       y1="11.0811"
       x2="74.5"
       y2="121.4673">
      <stop
         offset="0"
         style="stop-color:#FDFDFD"
         id="stop4546" />
      <stop
         offset="0.2985"
         style="stop-color:#F3F2F2"
         id="stop4548" />
      <stop
         offset="0.8174"
         style="stop-color:#D7D6D6"
         id="stop4550" />
      <stop
         offset="1"
         style="stop-color:#CCCBCA"
         id="stop4552" />
    </linearGradient>
    <radialGradient
       id="XMLID_10_"
       cx="110"
       cy="32.869099"
       r="15.5963"
       gradientUnits="userSpaceOnUse">
      <stop
         offset="0.2135"
         style="stop-color:#8E8E8F"
         id="stop4557" />
      <stop
         offset="0.927"
         style="stop-color:#EEEEEE"
         id="stop4559" />
    </radialGradient>
    <linearGradient
       id="XMLID_11_"
       gradientUnits="userSpaceOnUse"
       x1="92.023399"
       y1="9.9473"
       x2="104.2735"
       y2="32.947201">
      <stop
         offset="0"
         style="stop-color:#FFFEFE"
         id="stop4566" />
      <stop
         offset="1"
         style="stop-color:#CFD0D0"
         id="stop4568" />
    </linearGradient>
    <linearGradient
       id="XMLID_12_"
       gradientUnits="userSpaceOnUse"
       x1="99.530296"
       y1="5.1806998"
       x2="105.9053"
       y2="31.930599">
      <stop
         offset="0"
         style="stop-color:#FCFDFD"
         id="stop4573" />
      <stop
         offset="1"
         style="stop-color:#EEEEEE"
         id="stop4575" />
    </linearGradient>
    <linearGradient
       id="linearGradient3607">
      <stop
         offset="0"
         style="stop-color:#f9fbff;stop-opacity:1"
         id="stop3609" />
      <stop
         offset="1"
         style="stop-color:#62aaff;stop-opacity:1"
         id="stop3611" />
    </linearGradient>
    <linearGradient
       id="linearGradient3596">
      <stop
         offset="0"
         style="stop-color:#0035ed;stop-opacity:1"
         id="stop3598" />
      <stop
         offset="0.55445766"
         style="stop-color:#1c7eff;stop-opacity:1"
         id="stop3615" />
      <stop
         offset="1"
         style="stop-color:#98cbff;stop-opacity:1"
         id="stop3600" />
    </linearGradient>
    <linearGradient
       id="linearGradient3585">
      <stop
         offset="0"
         style="stop-color:#00008d;stop-opacity:1"
         id="stop3587" />
      <stop
         offset="1"
         style="stop-color:#0048b7;stop-opacity:1"
         id="stop3589" />
    </linearGradient>
    <linearGradient
       gradientTransform="matrix(0.03112505,0,0,0.03112505,-59.971883,66.472321)"
       gradientUnits="userSpaceOnUse"
       xlink:href="#linearGradient3607"
       id="linearGradient3628"
       y2="1350.958"
       x2="2758.4744"
       y1="317.79666"
       x1="2891.4258" />
    <linearGradient
       gradientTransform="matrix(0.03112505,0,0,0.03112505,-59.971883,66.472321)"
       gradientUnits="userSpaceOnUse"
       xlink:href="#linearGradient3585"
       id="linearGradient3630"
       y2="1792.3729"
       x2="2745.7627"
       y1="288.13559"
       x1="2758.4746" />
    <linearGradient
       gradientTransform="matrix(0.03112505,0,0,0.03112505,-59.971883,66.472321)"
       gradientUnits="userSpaceOnUse"
       xlink:href="#linearGradient3596"
       id="linearGradient3632"
       y2="1682.2034"
       x2="2453.3899"
       y1="627.11865"
       x1="3275.4238" />
    <linearGradient
       id="linearGradient7704">
      <stop
         style="stop-color:#ffffff;stop-opacity:1;"
         offset="0"
         id="stop7706" />
      <stop
         style="stop-color:#d8d8d8;stop-opacity:1;"
         offset="1"
         id="stop7708" />
    </linearGradient>
    <linearGradient
       id="linearGradient7696">
      <stop
         style="stop-color:#7496e9;stop-opacity:1;"
         offset="0"
         id="stop7698" />
      <stop
         style="stop-color:#003177;stop-opacity:1;"
         offset="1"
         id="stop7700" />
    </linearGradient>
    <linearGradient
       id="linearGradient7722">
      <stop
         id="stop7724"
         offset="0"
         style="stop-color:#96afee;stop-opacity:1;" />
      <stop
         id="stop7726"
         offset="1"
         style="stop-color:#0042a1;stop-opacity:1;" />
    </linearGradient>
    <linearGradient
       inkscape:collect="always"
       xlink:href="#linearGradient4226"
       id="linearGradient4232"
       x1="61.32399"
       y1="970.02905"
       x2="64.730881"
       y2="933.91602"
       gradientUnits="userSpaceOnUse"
       gradientTransform="matrix(1,0,0,1.0264901,0,-25.711175)" />
    <linearGradient
       inkscape:collect="always"
       xlink:href="#linearGradient4234"
       id="linearGradient4240"
       x1="19.586334"
       y1="973.104"
       x2="106.67637"
       y2="973.104"
       gradientUnits="userSpaceOnUse" />
    <linearGradient
       inkscape:collect="always"
       xlink:href="#linearGradient4242"
       id="linearGradient4248"
       x1="19.586334"
       y1="997.29334"
       x2="106.67637"
       y2="997.29334"
       gradientUnits="userSpaceOnUse" />
    <linearGradient
       inkscape:collect="always"
       xlink:href="#linearGradient4250"
       id="linearGradient4256"
       x1="19.586334"
       y1="1021.4827"
       x2="106.67637"
       y2="1021.4827"
       gradientUnits="userSpaceOnUse" />
  </defs>
  <sodipodi:namedview
     id="base"
     pagecolor="#ffffff"
     bordercolor="#666666"
     borderopacity="1.0"
     inkscape:pageopacity="0.0"
     inkscape:pageshadow="2"
     inkscape:zoom="4.4028446"
     inkscape:cx="50.27452"
     inkscape:cy="44.528268"
     inkscape:document-units="px"
     inkscape:current-layer="layer1"
     showgrid="false"
     units="px"
     inkscape:window-width="1920"
     inkscape:window-height="1051"
     inkscape:window-x="1366"
     inkscape:window-y="0"
     inkscape:window-maximized="1"
     showguides="false" />
  <metadata
     id="metadata7">
    <rdf:RDF>
      <cc:Work
         rdf:about="">
        <dc:format>image/svg+xml</dc:format>
        <dc:type
           rdf:resource="http://purl.org/dc/dcmitype/StillImage" />
        <dc:title />
      </cc:Work>
    </rdf:RDF>
  </metadata>
  <g
     inkscape:label="Capa 1"
     inkscape:groupmode="layer"
     id="layer1"
     transform="translate(0,-924.36216)">
    <g
       id="g4258"
       transform="matrix(1.0939555,0,0,1.0939555,-5.9315505,-92.792305)">
      <path
         id="path13483"
         d="m 19.594721,1002.1312 0,14.0298 0,1.9352 0,0.4838 c -0.01887,0 0,0 0,0.4838 0,11.6109 19.493711,21.7704 43.540823,21.7704 24.049048,0 43.540826,-10.1595 43.540826,-21.7704 l 0,-0.9676 0,-1.4514 0,-14.5136 -87.081649,0 z"
         inkscape:connector-curvature="0"
         style="fill:url(#linearGradient4256);fill-opacity:1" />
      <path
         id="path13485"
         d="m 106.67637,1002.1312 a 43.540824,19.351478 0 0 1 -87.081649,0 43.540824,19.351478 0 1 1 87.081649,0 z"
         inkscape:connector-curvature="0"
         style="fill:#bdc3c7" />
      <path
         id="path13487"
         d="m 19.897088,1019.0638 c -0.222542,0.4838 -0.302367,1.4513 -0.302367,2.4189 0,10.6433 19.493711,19.3515 43.540823,19.3515 24.049048,0 43.540826,-8.7082 43.540826,-19.3515 0,-0.9676 -0.0823,-1.9351 -0.29995,-2.4189 -2.68018,9.1919 -21.039894,16.9325 -43.240876,16.9325 -22.202917,0 -40.559244,-7.7406 -43.238456,-16.9325 z"
         inkscape:connector-curvature="0"
         style="fill:#7f8c8d" />
      <path
         id="path13489"
         d="m 19.594721,977.94188 0,14.02982 0,1.93515 0,0.48378 c -0.01887,0 0,0 0,0.48379 0,11.61088 19.493711,21.77038 43.540823,21.77038 24.049048,0 43.540826,-10.1595 43.540826,-21.77038 l 0,-0.96757 0,-1.45137 0,-14.5136 -87.081649,0 z"
         inkscape:connector-curvature="0"
         style="fill:url(#linearGradient4248);fill-opacity:1" />
      <path
         id="path13491"
         d="m 106.67637,977.94188 a 43.540824,19.351478 0 0 1 -87.081649,0 43.540824,19.351478 0 1 1 87.081649,0 z"
         inkscape:connector-curvature="0"
         style="fill:#bdc3c7" />
      <path
         id="path13493"
         d="m 19.897088,994.87442 c -0.222542,0.48379 -0.302367,1.45136 -0.302367,2.41893 0,10.64335 19.493711,19.35145 43.540823,19.35145 24.049048,0 43.540826,-8.7081 43.540826,-19.35145 0,-0.96757 -0.0823,-1.93514 -0.29995,-2.41893 -2.68018,9.19198 -21.039894,16.93258 -43.240876,16.93258 -22.202917,0 -40.559244,-7.7406 -43.238456,-16.93258 z"
         inkscape:connector-curvature="0"
         style="fill:#7f8c8d" />
      <path
         id="path13495"
         d="m 19.594721,953.75253 0,14.02982 0,1.93515 0,0.48379 c -0.01887,0 0,0 0,0.48378 0,11.61089 19.493711,21.77041 43.540823,21.77041 24.049048,0 43.540826,-10.15952 43.540826,-21.77041 l 0,-0.96757 0,-1.45136 0,-14.51361 -87.081649,0 z"
         inkscape:connector-curvature="0"
         style="fill:url(#linearGradient4240);fill-opacity:1" />
      <path
         id="path13497"
         d="m 19.897088,970.68507 c -0.222542,0.48379 -0.302367,1.45136 -0.302367,2.41894 0,10.64331 19.493711,19.35147 43.540823,19.35147 24.049048,0 43.540826,-8.70816 43.540826,-19.35147 0,-0.96758 -0.0823,-1.93515 -0.29995,-2.41894 -2.68018,9.19195 -21.039894,16.93255 -43.240876,16.93255 -22.202917,0 -40.559244,-7.7406 -43.238456,-16.93255 z"
         inkscape:connector-curvature="0"
         style="fill:#7f8c8d" />
      <path
         id="path13499"
         d="m 63.135544,1002.1312 0,38.703 c 24.049048,0 43.540826,-10.1595 43.540826,-21.7704 l 0,-0.9676 0,-1.4514 0,-14.5136 -43.540826,0 z"
         inkscape:connector-curvature="0"
         style="fill:#d0d3db;fill-opacity:1" />
      <g
         id="g13501"
         transform="matrix(4.8378692,0,0,4.8378692,5.0811138,-4021.5122)">
        <path
           id="path13503"
           transform="translate(0,1028.4)"
           d="m 12,6 0,8 c 4.971,0 9,-1.791 9,-4 0,-2.2091 -4.029,-4 -9,-4 z"
           inkscape:connector-curvature="0"
           style="fill:#ecf0f1" />
        <path
           id="path13505"
           transform="translate(0,1028.4)"
           d="m 12,5 0,8 c 4.971,0 9,-2.015 9,-4.5 L 21,8.3125 21,8 21,5 12,5 Z"
           inkscape:connector-curvature="0"
           style="fill:#bdc3c7" />
        <path
           id="path13507"
           transform="translate(0,1028.4)"
           d="M 20.938,8.5 C 20.384,10.473 16.589,12 12,12 l 0,1 c 4.971,0 9,-1.791 9,-4 0,-0.1694 -0.017,-0.3362 -0.062,-0.5 z"
           inkscape:connector-curvature="0"
           style="fill:#95a5a6" />
      </g>
      <path
         id="path13509"
         d="m 63.135544,958.59041 0,38.70295 c 24.049048,0 43.540826,-8.66462 43.540826,-19.35148 0,-10.68733 -19.491778,-19.35147 -43.540826,-19.35147 z"
         inkscape:connector-curvature="0"
         style="fill:#ecf0f1" />
      <path
         id="path13511"
         d="m 63.135544,953.75254 0,38.70295 c 24.049048,0 43.540826,-9.74831 43.540826,-21.77041 l 0,-0.9071 0,-1.51184 0,-14.5136 -43.540826,0 z"
         inkscape:connector-curvature="0"
         style="fill:#d0d3db;fill-opacity:1" />
      <path
         id="path13513"
         d="m 106.37642,970.68508 c -2.68018,9.54511 -21.039894,16.93254 -43.240876,16.93254 l 0,4.83787 c 24.049048,0 43.540826,-8.66462 43.540826,-19.35148 0,-0.81953 -0.0823,-1.62649 -0.29995,-2.41893 z"
         inkscape:connector-curvature="0"
         style="fill:#95a5a6" />
      <path
         id="path13515"
         d="m 106.37642,1019.0638 c -2.68018,9.1919 -21.039894,16.9325 -43.240876,16.9325 l 0,4.8379 c 24.049048,0 43.540826,-8.7082 43.540826,-19.3515 0,-0.9676 -0.0823,-1.9351 -0.29995,-2.4189 z"
         inkscape:connector-curvature="0"
         style="fill:#95a5a6" />
      <path
         id="path13517"
         d="m 106.67637,953.75254 a 43.540824,19.351478 0 0 1 -87.081649,0 43.540824,19.351478 0 1 1 87.081649,0 z"
         inkscape:connector-curvature="0"
         style="fill:#bdc3c7" />
      <ellipse
         ry="17.602257"
         rx="41.336914"
         cy="952.99463"
         cx="63.368126"
         id="path4213"
         style="opacity:1;fill:url(#linearGradient4232);fill-opacity:1;stroke:none;stroke-width:1.10000002;stroke-linecap:round;stroke-linejoin:round;stroke-miterlimit:4;stroke-dasharray:none;stroke-dashoffset:0;stroke-opacity:1" />
    </g>
    <g
       transform="matrix(1.0157772,0,0,1.0157772,0.88072914,922.94)"
       id="g4150">
      <path
         d="M 3.1354782,96.608205 30.106924,72.614293 56.878952,96.54226 48.511963,97.922067 47.251286,122.45784 14.279833,122.58973 13.079936,97.998865 3.1354782,96.608205 Z"
         id="rect3593"
         style="fill:url(#linearGradient3632);fill-opacity:1;fill-rule:nonzero;stroke:none"
         inkscape:connector-curvature="0" />
      <path
         d="m 30.00055,71.16803 c -0.93632,-0.0064 -1.563055,0.637875 -1.563055,0.637875 L 3.2397713,93.717021 c -0.00128,0 -0.00256,0 -0.00383,0 l -0.019471,0.01724 c -1.0641185,0.874269 -1.6106212,1.898367 -1.2148477,3.035651 0.4539496,1.304414 1.1690053,1.686168 2.8537815,1.677869 l 0.00511,0 0.00511,0 7.3970559,-0.01724 0.04743,20.990889 c 0.273255,2.76708 2.560322,4.70343 4.728062,4.85779 l 27.285226,0.0224 0,0 c 1.338598,0.0255 2.49935,-0.66999 3.386795,-1.58249 0.893083,-0.91826 1.537424,-2.12621 1.538394,-3.48297 l 4.35e-4,-20.784943 5.509044,0 c 1.313995,0.03319 2.457497,0 3.090437,-1.449327 0.762015,-1.741963 -0.599425,-2.812407 -1.339978,-3.453539 0,0 -24.978496,-21.767351 -24.978496,-21.767351 0,0 -0.708065,-0.610424 -1.528971,-0.614574 z m 0.0032,2.438314 c 0,0 25.749359,22.420931 25.749359,22.420931 l -8.801748,-0.01979 -0.04475,23.231935 0,0 0,0 c 0,0.50126 -0.34093,1.26298 -0.892903,1.83051 -0.551968,0.56752 -1.271581,0.80296 -1.663703,0.79243 l -27.172713,-0.0191 c -1.191502,-0.0357 -2.423535,-1.28948 -2.567816,-2.59019 l 0.02043,-23.193059 c 0,0 -10.4141244,-0.03192 -10.4141244,-0.03192 0,0 25.7879554,-22.423612 25.7879554,-22.423612 l -3.2e-5,0 z"
         id="rect2818"
         style="color:#000000;font-style:normal;font-variant:normal;font-weight:normal;font-stretch:normal;font-size:medium;line-height:normal;font-family:'Bitstream Vera Sans';-inkscape-font-specification:'Bitstream Vera Sans';text-indent:0;text-align:start;text-decoration:none;text-decoration-line:none;letter-spacing:normal;word-spacing:normal;text-transform:none;direction:ltr;block-progression:tb;writing-mode:lr-tb;text-anchor:start;display:inline;overflow:visible;visibility:visible;fill:url(#linearGradient3630);fill-opacity:1;stroke:none;stroke-width:76;marker:none;enable-background:accumulate"
         inkscape:connector-curvature="0" />
      <path
         d="m 6.6909221,95.187351 23.3481349,-20.266635 23.31782,20.289425 -6.329779,-0.01021 c -0.558326,0.01213 -0.935835,0.311021 -0.939684,0.907209 l 0.0019,3.215421 C 35.644453,94.624996 33.377265,104.01973 15.653938,108.52067 l -0.07069,-12.419981 c 0.0064,-0.511922 -0.392626,-0.88576 -0.970231,-0.914615 l -7.9221735,0 z"
         id="rect3604"
         style="fill:url(#linearGradient3628);fill-opacity:1;fill-rule:nonzero;stroke:none"
         inkscape:connector-curvature="0" />
    </g>
  </g>
</svg>
