<?xml version="1.0" encoding="UTF-8" standalone="no"?>
<svg
   xmlns:dc="http://purl.org/dc/elements/1.1/"
   xmlns:cc="http://creativecommons.org/ns#"
   xmlns:rdf="http://www.w3.org/1999/02/22-rdf-syntax-ns#"
   xmlns:svg="http://www.w3.org/2000/svg"
   xmlns="http://www.w3.org/2000/svg"
   xmlns:xlink="http://www.w3.org/1999/xlink"
   xmlns:sodipodi="http://sodipodi.sourceforge.net/DTD/sodipodi-0.dtd"
   xmlns:inkscape="http://www.inkscape.org/namespaces/inkscape"
   height="128"
   version="1.1"
   width="128"
viewBox="0 0 128 128"
   id="svg2"
   inkscape:version="0.91 r"
   sodipodi:docname="import_calendar.svg">
  <metadata
     id="metadata32">
    <rdf:RDF>
      <cc:Work
         rdf:about="">
        <dc:format>image/svg+xml</dc:format>
        <dc:type
           rdf:resource="http://purl.org/dc/dcmitype/StillImage" />
        <dc:title></dc:title>
      </cc:Work>
    </rdf:RDF>
  </metadata>
  <defs
     id="defs30">
    <linearGradient
       gradientTransform="matrix(0.03112505,0,0,0.03112505,-59.971883,66.472321)"
       gradientUnits="userSpaceOnUse"
       xlink:href="#linearGradient3596"
       id="linearGradient3632"
       y2="1682.2034"
       x2="2453.3899"
       y1="627.11865"
       x1="3275.4238" />
    <linearGradient
       id="linearGradient3596">
      <stop
         offset="0"
         style="stop-color:#0035ed;stop-opacity:1"
         id="stop3598" />
      <stop
         offset="0.55445766"
         style="stop-color:#1c7eff;stop-opacity:1"
         id="stop3615" />
      <stop
         offset="1"
         style="stop-color:#98cbff;stop-opacity:1"
         id="stop3600" />
    </linearGradient>
    <linearGradient
       gradientTransform="matrix(0.03112505,0,0,0.03112505,-59.971883,66.472321)"
       gradientUnits="userSpaceOnUse"
       xlink:href="#linearGradient3585"
       id="linearGradient3630"
       y2="1792.3729"
       x2="2745.7627"
       y1="288.13559"
       x1="2758.4746" />
    <linearGradient
       id="linearGradient3585">
      <stop
         offset="0"
         style="stop-color:#00008d;stop-opacity:1"
         id="stop3587" />
      <stop
         offset="1"
         style="stop-color:#0048b7;stop-opacity:1"
         id="stop3589" />
    </linearGradient>
    <linearGradient
       gradientTransform="matrix(0.03112505,0,0,0.03112505,-59.971883,66.472321)"
       gradientUnits="userSpaceOnUse"
       xlink:href="#linearGradient3607"
       id="linearGradient3628"
       y2="1350.958"
       x2="2758.4744"
       y1="317.79666"
       x1="2891.4258" />
    <linearGradient
       id="linearGradient3607">
      <stop
         offset="0"
         style="stop-color:#f9fbff;stop-opacity:1"
         id="stop3609" />
      <stop
         offset="1"
         style="stop-color:#62aaff;stop-opacity:1"
         id="stop3611" />
    </linearGradient>
  </defs>
  <sodipodi:namedview
     pagecolor="#ffffff"
     bordercolor="#666666"
     borderopacity="1"
     objecttolerance="10"
     gridtolerance="10"
     guidetolerance="10"
     inkscape:pageopacity="0"
     inkscape:pageshadow="2"
     inkscape:window-width="1920"
     inkscape:window-height="1051"
     id="namedview28"
     showgrid="false"
     inkscape:zoom="4.9166667"
     inkscape:cx="54.301666"
     inkscape:cy="67.41094"
     inkscape:window-x="1366"
     inkscape:window-y="0"
     inkscape:window-maximized="1"
     inkscape:current-layer="svg2" />
  <g
     id="g4224">
    <path
       d="m 23.312464,20.260004 c -6.452722,0 -11.683364,5.257514 -11.683364,11.683364 l 0,81.783552 c 0,6.42585 5.230642,11.68336 11.683364,11.68336 l 35.050093,0 11.683365,0 35.050098,0 c 6.45505,0 11.68336,-5.25751 11.68336,-11.68336 l 0,-81.783552 c 0,-6.42585 -5.22831,-11.683364 -11.68336,-11.683364 l -35.050098,0 -11.683365,0 -35.050093,0 z"
       id="path6"
       inkscape:connector-curvature="0"
       style="fill:#bdc3c7" />
    <path
       d="m 23.312464,14.418321 c -6.452722,0 -11.683364,5.230643 -11.683364,11.683364 l 0,81.783555 c 0,6.45505 5.230642,11.68335 11.683364,11.68335 l 35.050093,0 11.683365,0 35.050098,0 c 6.45505,0 11.68336,-5.2283 11.68336,-11.68335 l 0,-81.783555 c 0,-6.452721 -5.22831,-11.683364 -11.68336,-11.683364 l -35.050098,0 -11.683365,0 -35.050093,0 z"
       id="path8"
       inkscape:connector-curvature="0"
       style="fill:#ecf0f1" />
    <path
       d="m 23.312464,14.418321 c -6.452722,0 -11.683364,5.230643 -11.683364,11.683364 l 0,17.525047 0,5.841683 105.15028,0 0,-5.841683 0,-17.525047 c 0,-6.452721 -5.22831,-11.683364 -11.68336,-11.683364 l -35.050098,0 -11.683365,0 -35.050093,0 z"
       id="path10"
       inkscape:connector-curvature="0"
       style="fill:#e74c3c" />
    <path
       d="m 37.91667,29.022528 a 8.7625232,8.7625232 0 0 1 -17.525047,0 8.7625232,8.7625232 0 1 1 17.525047,0 z"
       id="path12"
       inkscape:connector-curvature="0"
       style="fill:#c0392b" />
    <path
       d="m 29.154146,2.7349572 c -3.22636,0 -5.841682,2.6153211 -5.841682,5.8416822 l 0,17.5250456 c 0,3.226362 2.615322,5.841683 5.841682,5.841683 3.226361,0 5.841682,-2.615321 5.841682,-5.841683 l 0,-17.5250456 c 0,-3.2263611 -2.615321,-5.8416822 -5.841682,-5.8416822 z"
       id="path14"
       inkscape:connector-curvature="0"
       style="fill:#bdc3c7" />
    <path
       d="m 108.01685,29.022528 a 8.7625232,8.7625232 0 0 1 -17.525041,0 8.7625232,8.7625232 0 1 1 17.525041,0 z"
       id="path16"
       inkscape:connector-curvature="0"
       style="fill:#c0392b" />
    <path
       inkscape:connector-curvature="0"
       id="path20"
       d="m 99.254332,2.7349572 c -3.224609,0 -5.841681,2.3366728 -5.841681,5.8416822 l 0,17.5250456 c 0,2.920843 2.617072,5.841683 5.841681,5.841683 3.224598,0 5.841688,-2.92084 5.841688,-5.841683 l 0,-17.5250456 c 0,-3.5050094 -2.61709,-5.8416822 -5.841688,-5.8416822 z"
       style="fill:#bdc3c7" />
    <path
       inkscape:connector-curvature="0"
       id="path4212"
       d="m 23.312464,61.151778 0,11.683365 11.683364,0 0,-11.683365 -11.683364,0 z"
       style="fill:#bdc3c7" />
    <path
       inkscape:connector-curvature="0"
       id="path4210"
       d="m 40.837511,61.151778 0,11.683365 11.683364,0 0,-11.683365 -11.683364,0 z"
       style="fill:#bdc3c7" />
    <path
       inkscape:connector-curvature="0"
       id="path4208"
       d="m 58.362557,61.151778 0,11.683365 11.683365,0 0,-11.683365 -11.683365,0 z"
       style="fill:#bdc3c7" />
    <path
       inkscape:connector-curvature="0"
       id="path4206"
       d="m 75.887604,61.151778 0,11.683365 11.683364,0 0,-11.683365 -11.683364,0 z"
       style="fill:#bdc3c7" />
    <path
       inkscape:connector-curvature="0"
       id="path22"
       d="m 93.412651,61.151778 0,11.683365 11.683369,0 0,-11.683365 -11.683369,0 z"
       style="fill:#bdc3c7" />
    <path
       inkscape:connector-curvature="0"
       id="path4183"
       d="m 23.312464,78.676826 0,11.683363 11.683364,0 0,-11.683363 -11.683364,0 z"
       style="fill:#bdc3c7" />
    <path
       inkscape:connector-curvature="0"
       id="path4181"
       d="m 40.837511,78.676826 0,11.683363 11.683364,0 0,-11.683363 -11.683364,0 z"
       style="fill:#bdc3c7;fill-opacity:1" />
    <path
       inkscape:connector-curvature="0"
       id="path4179"
       d="m 58.362557,78.676826 0,11.683363 11.683365,0 0,-11.683363 -11.683365,0 z"
       style="fill:#bdc3c7" />
    <path
       inkscape:connector-curvature="0"
       id="path4177"
       d="m 75.887604,78.676826 0,11.683363 11.683364,0 0,-11.683363 -11.683364,0 z"
       style="fill:#bdc3c7" />
    <path
       inkscape:connector-curvature="0"
       id="path24"
       d="m 93.412651,78.676826 0,11.683363 11.683369,0 0,-11.683363 -11.683369,0 z"
       style="fill:#bdc3c7" />
    <path
       inkscape:connector-curvature="0"
       id="path4222"
       d="m 23.312464,96.201872 0,11.683368 11.683364,0 0,-11.683368 -11.683364,0 z"
       style="fill:#bdc3c7" />
    <path
       inkscape:connector-curvature="0"
       id="path4220"
       d="m 40.837511,96.201872 0,11.683368 11.683364,0 0,-11.683368 -11.683364,0 z"
       style="fill:#bdc3c7" />
    <path
       inkscape:connector-curvature="0"
       id="path4218"
       d="m 58.362557,96.201872 0,11.683368 11.683365,0 0,-11.683368 -11.683365,0 z"
       style="fill:#bdc3c7" />
    <path
       inkscape:connector-curvature="0"
       id="path4216"
       d="m 75.887604,96.201872 0,11.683368 11.683364,0 0,-11.683368 -11.683364,0 z"
       style="fill:#bdc3c7" />
    <path
       inkscape:connector-curvature="0"
       id="path26"
       d="m 93.412651,96.201872 0,11.683368 11.683369,0 0,-11.683368 -11.683369,0 z"
       style="fill:#bdc3c7" />
  </g>
  <g
     transform="matrix(1.0157772,0,0,1.0157772,-1.7712406,1.3805196)"
     id="g4150">
    <path
       d="M 3.1354782,96.608205 30.106924,72.614293 56.878952,96.54226 48.511963,97.922067 47.251286,122.45784 14.279833,122.58973 13.079936,97.998865 3.1354782,96.608205 Z"
       id="rect3593"
       style="fill:url(#linearGradient3632);fill-opacity:1;fill-rule:nonzero;stroke:none"
       inkscape:connector-curvature="0" />
    <path
       d="m 30.00055,71.16803 c -0.93632,-0.0064 -1.563055,0.637875 -1.563055,0.637875 L 3.2397713,93.717021 c -0.00128,0 -0.00256,0 -0.00383,0 l -0.019471,0.01724 c -1.0641185,0.874269 -1.6106212,1.898367 -1.2148477,3.035651 0.4539496,1.304414 1.1690053,1.686168 2.8537815,1.677869 l 0.00511,0 0.00511,0 7.3970559,-0.01724 0.04743,20.990889 c 0.273255,2.76708 2.560322,4.70343 4.728062,4.85779 l 27.285226,0.0224 0,0 c 1.338598,0.0255 2.49935,-0.66999 3.386795,-1.58249 0.893083,-0.91826 1.537424,-2.12621 1.538394,-3.48297 l 4.35e-4,-20.784943 5.509044,0 c 1.313995,0.03319 2.457497,0 3.090437,-1.449327 0.762015,-1.741963 -0.599425,-2.812407 -1.339978,-3.453539 0,0 -24.978496,-21.767351 -24.978496,-21.767351 0,0 -0.708065,-0.610424 -1.528971,-0.614574 z m 0.0032,2.438314 c 0,0 25.749359,22.420931 25.749359,22.420931 l -8.801748,-0.01979 -0.04475,23.231935 0,0 0,0 c 0,0.50126 -0.34093,1.26298 -0.892903,1.83051 -0.551968,0.56752 -1.271581,0.80296 -1.663703,0.79243 l -27.172713,-0.0191 c -1.191502,-0.0357 -2.423535,-1.28948 -2.567816,-2.59019 l 0.02043,-23.193059 c 0,0 -10.4141244,-0.03192 -10.4141244,-0.03192 0,0 25.7879554,-22.423612 25.7879554,-22.423612 l -3.2e-5,0 z"
       id="rect2818"
       style="color:#000000;font-style:normal;font-variant:normal;font-weight:normal;font-stretch:normal;font-size:medium;line-height:normal;font-family:'Bitstream Vera Sans';-inkscape-font-specification:'Bitstream Vera Sans';text-indent:0;text-align:start;text-decoration:none;text-decoration-line:none;letter-spacing:normal;word-spacing:normal;text-transform:none;direction:ltr;block-progression:tb;writing-mode:lr-tb;text-anchor:start;display:inline;overflow:visible;visibility:visible;fill:url(#linearGradient3630);fill-opacity:1;stroke:none;stroke-width:76;marker:none;enable-background:accumulate"
       inkscape:connector-curvature="0" />
    <path
       d="m 6.6909221,95.187351 23.3481349,-20.266635 23.31782,20.289425 -6.329779,-0.01021 c -0.558326,0.01213 -0.935835,0.311021 -0.939684,0.907209 l 0.0019,3.215421 C 35.644453,94.624996 33.377265,104.01973 15.653938,108.52067 l -0.07069,-12.419981 c 0.0064,-0.511922 -0.392626,-0.88576 -0.970231,-0.914615 l -7.9221735,0 z"
       id="rect3604"
       style="fill:url(#linearGradient3628);fill-opacity:1;fill-rule:nonzero;stroke:none"
       inkscape:connector-curvature="0" />
  </g>
</svg>
