<?xml version="1.0" encoding="UTF-8" standalone="no"?>
<svg
   xmlns:dc="http://purl.org/dc/elements/1.1/"
   xmlns:cc="http://creativecommons.org/ns#"
   xmlns:rdf="http://www.w3.org/1999/02/22-rdf-syntax-ns#"
   xmlns:svg="http://www.w3.org/2000/svg"
   xmlns="http://www.w3.org/2000/svg"
   xmlns:xlink="http://www.w3.org/1999/xlink"
   xmlns:sodipodi="http://sodipodi.sourceforge.net/DTD/sodipodi-0.dtd"
   xmlns:inkscape="http://www.inkscape.org/namespaces/inkscape"
   height="128"
   version="1.1"
   width="128"
viewBox="0 0 128 128"
   id="svg2"
   inkscape:version="0.91 r"
   sodipodi:docname="info3.svg">
  <metadata
     id="metadata18">
    <rdf:RDF>
      <cc:Work
         rdf:about="">
        <dc:format>image/svg+xml</dc:format>
        <dc:type
           rdf:resource="http://purl.org/dc/dcmitype/StillImage" />
        <dc:title></dc:title>
      </cc:Work>
    </rdf:RDF>
  </metadata>
  <defs
     id="defs16">
    <linearGradient
       inkscape:collect="always"
       id="linearGradient4150">
      <stop
         style="stop-color:#3498db;stop-opacity:1;"
         offset="0"
         id="stop4152" />
      <stop
         style="stop-color:#004a79;stop-opacity:1"
         offset="1"
         id="stop4154" />
    </linearGradient>
    <linearGradient
       inkscape:collect="always"
       xlink:href="#linearGradient4150"
       id="linearGradient4156"
       x1="11.406779"
       y1="3.4576271"
       x2="12.389831"
       y2="22.677965"
       gradientUnits="userSpaceOnUse" />
  </defs>
  <sodipodi:namedview
     pagecolor="#ffffff"
     bordercolor="#666666"
     borderopacity="1"
     objecttolerance="10"
     gridtolerance="10"
     guidetolerance="10"
     inkscape:pageopacity="0"
     inkscape:pageshadow="2"
     inkscape:window-width="1920"
     inkscape:window-height="1051"
     id="namedview14"
     showgrid="false"
     inkscape:zoom="3.4766083"
     inkscape:cx="77.684518"
     inkscape:cy="38.730618"
     inkscape:window-x="1366"
     inkscape:window-y="0"
     inkscape:window-maximized="1"
     inkscape:current-layer="svg2" />
  <g
     id="g4185"
     transform="translate(0.4169192,-0.43776515)"
     inkscape:export-filename="/var/www/chamilo/main/img/icons/22/info3.png"
     inkscape:export-xdpi="15.46875"
     inkscape:export-ydpi="15.46875">
    <rect
       y="0.43776515"
       x="-0.4169192"
       height="128"
       width="128"
       id="rect4183"
       style="opacity:1;fill:#004a79;fill-opacity:0;stroke:none;stroke-width:2;stroke-linecap:round;stroke-linejoin:round;stroke-miterlimit:4;stroke-dasharray:none;stroke-dashoffset:0;stroke-opacity:1" />
    <g
       transform="matrix(5.7678319,0,0,5.7678319,-5.630902,-7.6601336)"
       id="g4158">
      <path
         style="fill:#2980b9"
         inkscape:connector-curvature="0"
         id="path6"
         d="M 22,13 A 10,10 0 0 1 2,13 10,10 0 1 1 22,13 Z" />
      <path
         style="fill:url(#linearGradient4156);fill-opacity:1"
         inkscape:connector-curvature="0"
         id="path8"
         d="M 22,12 A 10,10 0 0 1 2,12 10,10 0 1 1 22,12 Z" />
      <path
         style="fill:#2980b9"
         inkscape:connector-curvature="0"
         id="path10"
         d="m 11,7 0,2 2,0 0,-2 -2,0 z m -1,4 -1,1 2,0 0,6 -2,0 0,1 1,0 4,0 1,0 0,-1 -2,0 0,-7 -3,0 z" />
      <path
         style="fill:#ecf0f1"
         inkscape:connector-curvature="0"
         id="path12"
         d="m 11,6 0,2 2,0 0,-2 -2,0 z m -1,4 -1,1 2,0 0,6 -2,0 0,1 1,0 4,0 1,0 0,-1 -2,0 0,-7 -3,0 z" />
    </g>
  </g>
</svg>
