<?xml version="1.0" encoding="UTF-8" standalone="no"?>
<svg
   xmlns:dc="http://purl.org/dc/elements/1.1/"
   xmlns:cc="http://creativecommons.org/ns#"
   xmlns:rdf="http://www.w3.org/1999/02/22-rdf-syntax-ns#"
   xmlns:svg="http://www.w3.org/2000/svg"
   xmlns="http://www.w3.org/2000/svg"
   xmlns:xlink="http://www.w3.org/1999/xlink"
   xmlns:sodipodi="http://sodipodi.sourceforge.net/DTD/sodipodi-0.dtd"
   xmlns:inkscape="http://www.inkscape.org/namespaces/inkscape"
   height="128"
   version="1.1"
   width="128"
viewBox="0 0 128 128"
   id="svg2"
   inkscape:version="0.91 r"
   sodipodi:docname="new-course.svg">
  <metadata
     id="metadata18">
    <rdf:RDF>
      <cc:Work
         rdf:about="">
        <dc:format>image/svg+xml</dc:format>
        <dc:type
           rdf:resource="http://purl.org/dc/dcmitype/StillImage" />
        <dc:title></dc:title>
      </cc:Work>
    </rdf:RDF>
  </metadata>
  <defs
     id="defs16">
    <linearGradient
       inkscape:collect="always"
       xlink:href="#linearGradient14054"
       id="linearGradient8056"
       gradientUnits="userSpaceOnUse"
       gradientTransform="translate(14.435021,5.5540079)"
       x1="204.4826"
       y1="452.41125"
       x2="203.51833"
       y2="475.66125" />
    <linearGradient
       inkscape:collect="always"
       id="linearGradient14054">
      <stop
         style="stop-color:#008000;stop-opacity:1;"
         offset="0"
         id="stop14056" />
      <stop
         style="stop-color:#003400;stop-opacity:1"
         offset="1"
         id="stop14058" />
    </linearGradient>
    <linearGradient
       inkscape:collect="always"
       xlink:href="#linearGradient14084"
       id="linearGradient8058"
       gradientUnits="userSpaceOnUse"
       x1="207.37875"
       y1="458.02274"
       x2="212.86673"
       y2="464.74023" />
    <linearGradient
       inkscape:collect="always"
       id="linearGradient14084">
      <stop
         style="stop-color:#ffcc00;stop-opacity:1"
         offset="0"
         id="stop14086" />
      <stop
         style="stop-color:#d45500;stop-opacity:1"
         offset="1"
         id="stop14088" />
    </linearGradient>
  </defs>
  <sodipodi:namedview
     pagecolor="#ffffff"
     bordercolor="#666666"
     borderopacity="1"
     objecttolerance="10"
     gridtolerance="10"
     guidetolerance="10"
     inkscape:pageopacity="0"
     inkscape:pageshadow="2"
     inkscape:window-width="1920"
     inkscape:window-height="1051"
     id="namedview14"
     showgrid="false"
     inkscape:zoom="3.4766083"
     inkscape:cx="77.684518"
     inkscape:cy="38.730618"
     inkscape:window-x="1366"
     inkscape:window-y="0"
     inkscape:window-maximized="1"
     inkscape:current-layer="svg2" />
  <g
     id="g7242"
     transform="matrix(3.9333348,0,0,3.9333348,-781.61862,-1810.0479)">
    <rect
       y="461.51501"
       x="201.41763"
       height="19.400509"
       width="26.785715"
       id="rect14024"
       style="fill:url(#linearGradient8056);fill-opacity:1;stroke:none" />
    <g
       id="g14034"
       style="font-style:normal;font-variant:normal;font-weight:bold;font-stretch:normal;font-size:60.12385559px;line-height:125%;font-family:Snickles;-inkscape-font-specification:'Snickles Bold';text-align:start;letter-spacing:0px;word-spacing:0px;writing-mode:lr-tb;text-anchor:start;fill:#ffffff;fill-opacity:1;stroke:none"
       transform="matrix(0.26248197,0,0,0.18630129,144.79692,454.82809)">
      <path
         inkscape:connector-curvature="0"
         id="path14036"
         d="m 223.79985,118.15627 c 0.0783,2.87703 0.79265,4.7559 2.14308,5.63661 0.39143,0.25444 0.98837,0.38165 1.7908,0.38165 0.48929,0 1.07643,-0.0489 1.76144,-0.14679 1.72229,-0.23485 3.20973,-0.81222 4.46232,-1.73208 0.84157,-0.56757 1.62443,-1.25258 2.34859,-2.05502 -0.23487,1.60488 -0.4208,3.15103 -0.55779,4.63846 -1e-5,0.15658 0.32292,0.25444 0.96879,0.29358 0.88071,0 1.58529,-0.0587 2.11373,-0.17615 2.07457,-0.39143 3.13143,-1.01771 3.17059,-1.87887 0.23485,-3.44459 1.24278,-8.84633 3.02381,-16.20526 1.03727,-2.48556 1.61463,-5.03965 1.73208,-7.662265 -2e-5,-0.293544 -0.32295,-0.44033 -0.96879,-0.44036 -0.27402,3e-5 -0.61652,0.02939 -1.02751,0.08807 -0.0392,-1.722267 -0.59695,-2.818273 -1.67336,-3.288024 -0.62631,-0.273968 -1.34067,-0.410969 -2.14309,-0.411003 -1.33088,3.4e-5 -2.91618,0.371893 -4.75589,1.11558 -4.05132,1.604899 -6.91855,3.953482 -8.60171,7.045762 -2.5443,4.67763 -3.81645,9.29651 -3.81645,13.85667 0,0.31316 0.01,0.62631 0.0294,0.93944 m 6.48797,-5.60725 c 0.35228,-2.36815 1.096,-4.93202 2.23116,-7.69163 0.27399,-0.68498 0.77307,-1.71249 1.49722,-3.08252 0.39143,-0.72412 0.81222,-1.30148 1.26237,-1.73209 0.0783,-0.07825 0.65564,-0.557759 1.73208,-1.438509 l 0.0587,-0.05872 c 0.0391,3.1e-5 0.0978,-0.03911 0.17614,-0.117429 0.0391,-0.03911 0.0978,-0.08804 0.17615,-0.146787 0.0978,-0.05868 0.20549,-0.13697 0.32293,-0.234859 l 0.0587,0 c 0.50885,0.391462 0.7535,1.233039 0.73394,2.524734 -2e-5,0.25445 -0.01,0.53824 -0.0294,0.85136 -1e-5,0.27403 0.37185,0.41103 1.11558,0.411 0.21527,3e-5 0.45013,-0.0195 0.70457,-0.0587 -0.0783,0.48931 -0.19572,1.03732 -0.35228,1.64401 -0.13702,0.58717 -0.31316,1.35046 -0.52844,2.28987 -0.2153,0.91989 -0.40123,1.67339 -0.55779,2.26052 -1.15473,2.68132 -3.00424,5.73448 -5.54854,9.15949 -1.23301,1.72231 -2.05501,2.79874 -2.46601,3.22931 l -0.35229,-0.70458 c -0.33272,-0.99814 -0.49908,-2.21157 -0.49908,-3.64031 0,-1.03728 0.0881,-2.192 0.26422,-3.46416" />
      <path
         sodipodi:nodetypes="ccscccccccccccccccccccccccccccccccccccccccccccccccccccccsc"
         inkscape:connector-curvature="0"
         id="path14038"
         d="m 247.9487,124.58553 c 0.56757,0.68501 1.46786,1.08622 2.70087,1.20365 0.274,0.0196 0.53822,0.0294 0.79265,0.0294 2.38773,0 4.91246,-0.97858 7.5742,-2.93574 2.87701,-2.13329 5.49959,-5.40174 7.86777,-9.80535 1.87885,-3.48372 2.81828,-6.63474 2.8183,-9.45307 -2e-5,-1.58527 -0.29359,-3.06292 -0.88072,-4.43296 -0.76331,-1.800553 -2.05503,-2.955274 -3.87517,-3.464167 -0.66545,-0.176111 -1.37981,-0.273969 -2.14308,-0.293574 -1.05688,3.4e-5 -2.1431,0.176178 -3.25867,0.528433 0.19571,-0.841544 0.69478,-2.945486 1.49722,-6.311831 l 0.61651,-2.407303 c 0.23485,-0.841535 0.43056,-1.643968 0.58715,-2.407303 0.4697,-1.898396 0.70456,-3.248833 0.70457,-4.051314 -1e-5,-0.176096 -0.01,-0.332668 -0.0294,-0.469718 -0.0587,-0.332668 -0.43058,-0.499026 -1.11557,-0.499075 -0.52845,4.9e-5 -1.26238,0.107693 -2.20181,0.322931 -1.97673,0.450194 -2.95531,1.037341 -2.93573,1.761441 -1e-5,0.05876 -1e-5,0.146834 0,0.264216 0.0196,0.0979 0.0294,0.185977 0.0294,0.264217 -10e-6,0.763336 -0.23487,2.064844 -0.70458,3.904527 l -0.64586,2.583447 c -0.31315,1.193905 -0.53822,2.074624 -0.67522,2.642162 -0.80244,3.405486 -1.54616,6.791364 -2.23116,10.157641 -0.31315,1.56575 -1.12537,4.89292 -2.43666,9.9815 -0.39143,1.60489 -0.7535,3.20975 -1.08622,4.81461 -0.11743,0.56758 -0.24464,1.33088 -0.38165,2.28987 -0.0783,0.4893 -0.14678,0.95902 -0.2055,1.40915 -0.0587,0.43059 -0.10764,0.73395 -0.14679,0.91008 l -0.0587,0.26422 c -0.33271,0.86115 -0.49907,1.57551 -0.49908,2.14308 1e-5,0.46973 0.10765,0.82201 0.32294,1.05687 m 5.95954,-3.3761 0.58714,-1.67337 c 0.15657,-2.44643 0.82201,-5.81274 1.9963,-10.09892 0.88072,-3.40543 1.66358,-6.75217 2.34859,-10.040218 l 0.0294,-0.11743 c 0.0196,-0.05869 0.0293,-0.127185 0.0294,-0.205501 0.56756,-0.234829 1.00792,-0.489259 1.32108,-0.763291 l 0.0294,-0.05871 0.0881,-0.05872 c 0.72414,0.352319 1.37978,1.047109 1.96694,2.08437 0.74371,1.31132 1.11557,2.82812 1.11558,4.55039 -1e-5,0.91989 -0.10766,1.90825 -0.32293,2.96509 -0.4893,2.2899 -1.50702,4.81463 -3.05317,7.5742 -0.48929,0.84159 -1.15473,1.88867 -1.9963,3.14124 -0.11743,0.15658 -0.21529,0.29358 -0.29357,0.411 -0.0783,0.11744 -0.19572,0.26423 -0.35229,0.44036 -0.13701,0.15658 -0.28379,0.33273 -0.44036,0.52843 -0.11743,0.11744 -0.21529,0.22508 -0.29357,0.32293 -0.0783,0.0979 -0.13701,0.17616 -0.17615,0.23486 l -0.0587,0.0881 c -0.45015,0.52844 -1.0373,1.13516 -1.76144,1.82016 -0.0783,0.0391 -0.17615,0.11744 -0.29357,0.23486 -0.11744,0.11743 -0.19572,0.19572 -0.23486,0.23486 l 0,-0.0587 c -0.27401,-0.23485 -0.41101,-0.50885 -0.41101,-0.822 0,-0.21528 0.0587,-0.45993 0.17615,-0.73394" />
      <path
         sodipodi:nodetypes="cscccccccccccccccccccccccccccccccccc"
         inkscape:connector-curvature="0"
         id="path14040"
         d="m 271.80398,109.84814 c -0.33271,2.11374 -0.49907,4.03176 -0.49907,5.75404 0,2.97489 0.48929,5.38219 1.46786,7.22191 0.90029,1.7223 2.42688,2.58345 4.57975,2.58344 1.13515,1e-5 2.45623,-0.23485 3.96324,-0.70457 3.01401,-0.959 5.42131,-2.96509 7.22191,-6.01826 0.11741,-0.1957 0.0978,-0.34249 -0.0587,-0.44036 -0.15659,-0.11742 -0.45995,-0.1957 -0.91008,-0.23486 -0.72416,1e-5 -1.24281,0.0489 -1.55594,0.14679 -1.95717,0.3523 -3.18039,0.91009 -3.66967,1.67337 -0.52844,0.84158 -1.11559,1.62445 -1.76144,2.34859 -0.0392,0.0392 -0.0979,0.0881 -0.17615,0.14678 -0.0783,0.0587 -0.15657,0.12722 -0.23485,0.2055 -0.4893,-0.31313 -0.94923,-0.91007 -1.3798,-1.79079 -0.7633,-1.48743 -1.16451,-3.62073 -1.20365,-6.39991 -1e-5,-0.23484 -1e-5,-0.45991 0,-0.67522 -1e-5,-1.82013 0.2055,-3.836 0.6165,-6.04761 0.39143,-2.28985 1.08622,-4.45251 2.08437,-6.48797 1.03729,-2.035418 2.22137,-3.503284 3.55224,-4.403607 l 0.0587,-0.05872 0.35229,0.205501 c 0.48928,0.234891 0.89049,0.489321 1.20365,0.763292 1.19385,1.076466 1.80057,2.661764 1.82015,4.755884 -10e-6,1.48747 -0.51866,2.8477 -1.55594,4.08068 -0.45015,0.45016 -0.41101,0.77309 0.11743,0.96879 0.31314,0.11745 0.7535,0.13703 1.32108,0.0587 2.07458,-0.15654 3.47394,-0.65562 4.19811,-1.49722 1.40913,-1.60484 2.11371,-3.41521 2.11373,-5.43111 -2e-5,-1.898411 -0.66546,-3.532635 -1.9963,-4.902677 -1.01774,-1.017687 -2.46604,-1.536333 -4.34489,-1.55594 -0.60673,3.5e-5 -1.26238,0.04896 -1.96695,0.146787 -3.01402,0.489323 -5.61704,1.712545 -7.80905,3.669669 -2.77916,2.485611 -4.62868,6.458641 -5.54854,11.919081 m 12.65302,-13.475021 0.0587,-0.05871 -0.0587,0.05871" />
    </g>
    <g
       transform="translate(14.435021,5.5540079)"
       id="g14072">
      <g
         id="g14066">
        <path
           style="fill:#aa4400;fill-opacity:1;stroke:none"
           d="m 213.32189,485.88008 -3.5714,0 -7.05358,-8.90032 3.12498,0.16182 z"
           id="path14030"
           inkscape:connector-curvature="0"
           sodipodi:nodetypes="ccccc" />
        <g
           id="g14062">
          <path
             style="fill:#aa4400;fill-opacity:1;stroke:none"
             d="m 187.51832,485.96101 3.57144,0 7.05357,-8.90034 -3.12499,0.16183 z"
             id="path14028"
             inkscape:connector-curvature="0"
             sodipodi:nodetypes="ccccc" />
          <rect
             style="fill:#aa4400;fill-opacity:1;stroke:none"
             id="rect14032"
             width="13.839286"
             height="1.3755052"
             x="193.23264"
             y="480.29715" />
        </g>
      </g>
      <rect
         style="fill:#803300;fill-opacity:1;stroke:none"
         id="rect14026"
         width="30"
         height="2.2655382"
         x="185.37549"
         y="475.92789" />
    </g>
    <g
       transform="translate(14.435021,5.5540079)"
       id="g14094">
      <path
         style="fill:url(#linearGradient8058);fill-opacity:1"
         d="m 212.51319,459.86121 -4.03766,4.06785 -2.42259,-2.44152 4.03765,-4.06787 2.4226,2.44154 z"
         id="path14042"
         inkscape:connector-curvature="0" />
      <path
         style="fill:#ffffff;fill-opacity:1"
         d="m 208.40628,464.00436 -2.44213,0.004 0,-2.44073 0.16755,-0.15227 0.18321,0.30295 0.19709,0.0736 0.0976,0.26697 0.25493,0.0821 0.12243,0.23652 0.20782,0.0905 0.13096,0.25592 0.2438,0.11516 0.13085,0.27807 0.33823,0.18639 0.17242,0.27509 0.35798,0.2501 z"
         id="path14082"
         inkscape:connector-curvature="0"
         sodipodi:nodetypes="ccccccccccccccccc" />
      <path
         style="fill:#000000;stroke:none"
         d="m 205.96093,463.17859 0.85157,0.83203 -0.85156,0.004 z"
         id="path14092"
         inkscape:connector-curvature="0"
         sodipodi:nodetypes="cccc" />
    </g>
  </g>
</svg>
