<?xml version="1.0" encoding="UTF-8" standalone="no"?>
<svg
   xmlns:dc="http://purl.org/dc/elements/1.1/"
   xmlns:cc="http://creativecommons.org/ns#"
   xmlns:rdf="http://www.w3.org/1999/02/22-rdf-syntax-ns#"
   xmlns:svg="http://www.w3.org/2000/svg"
   xmlns="http://www.w3.org/2000/svg"
   xmlns:xlink="http://www.w3.org/1999/xlink"
   xmlns:sodipodi="http://sodipodi.sourceforge.net/DTD/sodipodi-0.dtd"
   xmlns:inkscape="http://www.inkscape.org/namespaces/inkscape"
   height="128"
   version="1.1"
   width="128"
   id="svg2"
viewBox="0 0 128 128"
   inkscape:version="0.91 r"
   sodipodi:docname="new_glossary_term.svg">
  <metadata
     id="metadata20">
    <rdf:RDF>
      <cc:Work
         rdf:about="">
        <dc:format>image/svg+xml</dc:format>
        <dc:type
           rdf:resource="http://purl.org/dc/dcmitype/StillImage" />
        <dc:title></dc:title>
      </cc:Work>
    </rdf:RDF>
  </metadata>
  <defs
     id="defs18">
    <linearGradient
       id="XMLID_8_"
       gradientUnits="userSpaceOnUse"
       x1="74.5"
       y1="5.0479002"
       x2="74.5"
       y2="124.2402">
      <stop
         offset="0"
         style="stop-color:#FFFFFF"
         id="stop4539" />
      <stop
         offset="1"
         style="stop-color:#E1E1DF"
         id="stop4541" />
    </linearGradient>
    <linearGradient
       id="XMLID_9_"
       gradientUnits="userSpaceOnUse"
       x1="74.5"
       y1="11.0811"
       x2="74.5"
       y2="121.4673">
      <stop
         offset="0"
         style="stop-color:#FDFDFD"
         id="stop4546" />
      <stop
         offset="0.2985"
         style="stop-color:#F3F2F2"
         id="stop4548" />
      <stop
         offset="0.8174"
         style="stop-color:#D7D6D6"
         id="stop4550" />
      <stop
         offset="1"
         style="stop-color:#CCCBCA"
         id="stop4552" />
    </linearGradient>
    <radialGradient
       id="XMLID_10_"
       cx="110"
       cy="32.869099"
       r="15.5963"
       gradientUnits="userSpaceOnUse">
      <stop
         offset="0.2135"
         style="stop-color:#8E8E8F"
         id="stop4557" />
      <stop
         offset="0.927"
         style="stop-color:#EEEEEE"
         id="stop4559" />
    </radialGradient>
    <linearGradient
       id="XMLID_11_"
       gradientUnits="userSpaceOnUse"
       x1="92.023399"
       y1="9.9473"
       x2="104.2735"
       y2="32.947201">
      <stop
         offset="0"
         style="stop-color:#FFFEFE"
         id="stop4566" />
      <stop
         offset="1"
         style="stop-color:#CFD0D0"
         id="stop4568" />
    </linearGradient>
    <linearGradient
       id="XMLID_12_"
       gradientUnits="userSpaceOnUse"
       x1="99.530296"
       y1="5.1806998"
       x2="105.9053"
       y2="31.930599">
      <stop
         offset="0"
         style="stop-color:#FCFDFD"
         id="stop4573" />
      <stop
         offset="1"
         style="stop-color:#EEEEEE"
         id="stop4575" />
    </linearGradient>
    <style
       id="style4989">
      .cls-1 {
        fill: #cb0606;
      }

      .cls-1, .cls-2, .cls-3 {
        fill-rule: evenodd;
      }

      .cls-2 {
        fill: #fb8d8d;
      }

      .cls-3 {
        fill: #fff;
      }
    </style>
    <radialGradient
       inkscape:collect="always"
       xlink:href="#linearGradient4799"
       id="radialGradient5866"
       gradientUnits="userSpaceOnUse"
       gradientTransform="matrix(1.876872,0,0,1.9211475,-73.952882,-782.53778)"
       cx="55.21796"
       cy="458.46527"
       fx="55.21796"
       fy="458.46527"
       r="15.213428" />
    <linearGradient
       id="linearGradient4799">
      <stop
         style="stop-color:#ffde00;stop-opacity:1;"
         offset="0"
         id="stop4801" />
      <stop
         style="stop-color:#ffa700;stop-opacity:1;"
         offset="1"
         id="stop4803" />
    </linearGradient>
  </defs>
  <sodipodi:namedview
     pagecolor="#ffffff"
     bordercolor="#666666"
     borderopacity="1"
     objecttolerance="10"
     gridtolerance="10"
     guidetolerance="10"
     inkscape:pageopacity="0"
     inkscape:pageshadow="2"
     inkscape:window-width="1920"
     inkscape:window-height="1051"
     id="namedview16"
     showgrid="false"
     inkscape:zoom="2.4583333"
     inkscape:cx="193.2819"
     inkscape:cy="49.048406"
     inkscape:window-x="1366"
     inkscape:window-y="0"
     inkscape:window-maximized="1"
     inkscape:current-layer="svg2" />
  <g
     transform="matrix(1.0333334,0,0,1.0333334,-11.977454,-4.6306154)"
     id="g5149">
    <path
       style="opacity:0.2"
       inkscape:connector-curvature="0"
       id="path4532"
       d="M 30.666,7 C 28.816,7 27,8.83 27,10.694 c 0,106.39 0,106.39 0,109.807 0,3.917 4,4.499 4,4.499 l 87,0 c 0,0 4,-0.268 4,-4.018 0,-3.75 0,-78.479 0,-78.479 C 122,37.306 94.325,7 87.135,7 L 30.666,7 Z" />
    <path
       style="opacity:0.2"
       inkscape:connector-curvature="0"
       id="path4534"
       d="M 30.666,8 C 28.816,8 27,9.83 27,11.694 c 0,106.39 0,106.39 0,109.807 0,3.917 5,4.499 5,4.499 l 85,0 c 0,0 5,-0.268 5,-4.018 0,-3.75 0,-78.479 0,-78.479 C 122,38.306 94.325,8 87.135,8 L 30.666,8 Z" />
    <path
       style="opacity:0.6;fill:#262626"
       inkscape:connector-curvature="0"
       id="path4536"
       d="M 30.666,6 C 28.816,6 27,7.83 27,9.694 c 0,106.39 0,106.39 0,109.807 0,3.917 3,4.499 3,4.499 l 89,0 c 0,0 3,-0.268 3,-4.018 0,-3.75 0,-78.479 0,-78.479 C 122,36.306 94.325,6 87.135,6 L 30.666,6 Z" />
    <path
       style="fill:url(#XMLID_8_)"
       inkscape:connector-curvature="0"
       id="path4543"
       d="m 121,120.113 c 0,2.584 -2.398,2.887 -2.398,2.887 l -88.104,0 C 30.498,123 28,122.525 28,119.917 28,100.1 28,10.861 28,9.694 28,8.374 29.359,7 30.666,7 31.66,7 79.135,7 87.135,7 94.167,7 121,37.326 121,41.504 c 0,4.619 0,63.145 0,78.609 z" />
    <path
       style="fill:url(#XMLID_9_)"
       inkscape:connector-curvature="0"
       id="path4554"
       d="m 120,119.282 c 0,2.481 -2,2.718 -2,2.718 l -87,0 c 0,0 -2,-0.163 -2,-2.249 C 29,101.736 29,10.877 29,9.694 29,8.374 30.317,7 31.583,7 32.547,7 79.442,7 87.193,7 94.006,7 120,37.326 120,41.504 c 0,4.63 0,62.674 0,77.778 z" />
    <path
       style="fill:url(#XMLID_10_)"
       inkscape:connector-curvature="0"
       id="path4561"
       d="m 120,39 c 0,7.18 -2.82,13 -10,13 -7.18,0 -16,-5.82 -16,-13 0,-7.18 2.82,-9 10,-9 7.18,0 11,4 16,9 z" />
    <path
       style="opacity:0.5;fill:#343434"
       inkscape:connector-curvature="0"
       id="path4563"
       d="m 84.415,6.963 c 0.547,0 0.947,0.002 3.616,1.193 4.182,1.891 4.103,22.225 4.103,26.673 l -0.001,0.128 c 0,0.521 0.399,0.959 0.918,1.002 5.973,0.496 23.318,-0.848 26.406,4.026 1.199,1.608 1.365,2.858 1.918,2.858 0.553,0 0.625,-0.786 0.625,-1.339 0,-0.797 -0.257,-1.574 -0.766,-2.428 -0.004,-0.009 -0.002,-0.018 -0.006,-0.026 -0.014,-0.028 -0.038,-0.065 -0.053,-0.094 l 0,-0.001 C 118.87,34.256 95.385,8.574 88.821,6.365 88.815,6.363 88.814,6.357 88.809,6.355 88.802,6.352 88.794,6.353 88.788,6.351 88.767,6.343 88.739,6.328 88.718,6.32 88.624,6.291 88.531,6.279 88.439,6.277 88.01,6.133 87.578,6 87.135,6 86.627,6 84.473,6.457 84.415,6.963 Z" />
    <path
       style="fill:url(#XMLID_11_)"
       inkscape:connector-curvature="0"
       id="path4570"
       d="M 121,41.504 C 117.625,32.875 93.133,34.962 93.133,34.962 93.003,37.629 94.632,7 87.135,7 94.168,7 121,38.814 121,41.504 Z" />
    <path
       style="fill:url(#XMLID_12_)"
       inkscape:connector-curvature="0"
       id="path4577"
       d="M 121,41.504 C 119.5,33.563 94.25,33.438 94.25,33.438 94.225,36.104 94.524,7 87.135,7 94.168,7 121,38.814 121,41.504 Z" />
  </g>
  <path
     id="path7868"
     d="m 66.390289,26.256206 24.949139,62.80367 c 0.720673,1.769412 1.501662,2.968017 2.3396,3.598392 0.843057,0.632939 1.951978,0.946198 3.333116,0.946198 l 2.430559,0 0,4.401737 -31.217664,0 0,-4.401737 2.923173,0 c 2.307533,0 3.896283,-0.265215 4.766901,-0.805896 0.870599,-0.535569 1.306224,-1.243451 1.306224,-2.126875 0,-0.693157 -0.180011,-1.499069 -0.54068,-2.415157 l -5.130125,-12.970093 -24.909419,0 -2.367118,5.915521 c -0.988481,2.462572 -1.483679,4.294116 -1.483679,5.492729 0,2.051924 0.720698,3.716262 2.162098,4.992387 1.443975,1.276125 3.410699,1.91675 5.905923,1.91675 l 2.117276,0 0,4.402371 -25.282912,0 0,-4.401737 1.443963,0 c 1.626548,0 3.055787,-0.535553 4.288993,-1.60925 1.746982,-1.513796 3.098055,-3.453597 4.061555,-5.820715 l 23.853033,-59.918295 5.050044,0 m -17.892007,44.395956 21.215581,0 -10.555581,-26.67627 -10.66,26.67627 m 17.892007,-49.520956 -5.050044,0 c -2.099331,0 -3.986606,1.278686 -4.762408,3.23067 L 32.724816,84.28017 c -0.64575,1.58875 -1.52149,2.857831 -2.655402,3.841199 -0.310051,0.270338 -0.54325,0.358097 -0.933382,0.358097 l -1.443331,0 c -2.830286,0 -5.125,2.294729 -5.125,5.125 l 0,4.401737 c 0,2.830287 2.294714,5.124997 5.125,5.124997 l 25.282261,0 c 2.830283,0 5.125,-2.29471 5.125,-5.124997 l 0,-4.401737 c 0,-2.830271 -2.294717,-5.125 -5.125,-5.125 l -2.117261,0 c -0.820635,0 -1.921875,-0.110178 -2.512537,-0.630375 -0.242794,-0.21525 -0.4305,-0.44075 -0.4305,-1.153759 0.0021,-0.01987 0.04994,-0.928262 1.115975,-3.583662 l 1.078812,-2.700226 17.957365,0 3.190304,8.068022 c -0.03784,0 -0.07238,0 -0.110179,0 l -2.921902,0 c -2.830275,0 -5.125,2.294729 -5.125,5.125 l 0,4.401737 c 0,2.830287 2.294725,5.124997 5.125,5.124997 l 31.217664,0 c 2.830307,0 5.124997,-2.29471 5.124997,-5.124997 l 0,-4.401737 c 0,-2.830271 -2.29469,-5.125 -5.124997,-5.125 l -2.429863,0 c -0.107668,0 -0.195446,-0.0057 -0.26527,-0.01025 -0.142814,-0.222927 -0.375398,-0.638052 -0.66051,-1.344021 L 71.152701,24.364443 c -0.773239,-1.951987 -2.662437,-3.233237 -4.762412,-3.233237 l 0,0 z m -10.324952,44.395956 3.070526,-7.682375 3.037838,7.682375 -6.108364,0 0,0 z"
     inkscape:connector-curvature="0"
     style="fill:#006680" />
  <path
     sodipodi:nodetypes="ccccccccccccccccccccccccc"
     inkscape:connector-curvature="0"
     id="path4797"
     d="m 26.926383,89.781336 -0.0955,-17.083633 c 0.10949,-3.751231 6.8896,-3.535973 7.34883,-0.09554 l 0,16.892696 11.35726,-11.452612 c 2.78693,-2.614501 6.84092,1.974466 4.3902,4.581147 l -10.59375,11.92986 14.88852,0.09556 c 4.34307,0.563934 3.79566,7.738736 0.1908,8.017056 l -14.41132,-0.0956 10.88006,10.4983 c 2.56874,2.87597 -0.85816,7.85809 -4.67651,5.34471 l -12.21622,-11.7391 -0.0955,16.8927 c 0.4319,3.5874 -6.92004,4.26513 -7.63514,0.0956 l 0.0955,-16.03376 -10.78464,10.78461 c -3.79658,0.93451 -6.9132198,-1.7646 -5.44002,-5.05822 l 11.4527,-10.97555 -16.5109788,0.1911 c -4.06715,-0.78978 -3.968467,-7.487342 0.09551,-8.016879 L 22.058883,94.458221 10.224423,82.814672 c -2.3025078,-3.664536 1.64822,-7.374242 4.77196,-5.153772 z"
     style="overflow:visible;fill:url(#radialGradient5866);fill-opacity:1;stroke:#ff4100;stroke-width:2.81530762;stroke-linecap:round;stroke-linejoin:round;stroke-miterlimit:4;stroke-dasharray:none;stroke-opacity:1" />
</svg>
