<?xml version="1.0" encoding="UTF-8" standalone="no"?>
<svg
   xmlns:dc="http://purl.org/dc/elements/1.1/"
   xmlns:cc="http://creativecommons.org/ns#"
   xmlns:rdf="http://www.w3.org/1999/02/22-rdf-syntax-ns#"
   xmlns:svg="http://www.w3.org/2000/svg"
   xmlns="http://www.w3.org/2000/svg"
   xmlns:xlink="http://www.w3.org/1999/xlink"
   xmlns:sodipodi="http://sodipodi.sourceforge.net/DTD/sodipodi-0.dtd"
   xmlns:inkscape="http://www.inkscape.org/namespaces/inkscape"
   height="128"
   version="1.1"
   width="128"
   id="svg2"
viewBox="0 0 128 128"
   inkscape:version="0.91 r"
   sodipodi:docname="notes_order_by_date_new.svg">
  <metadata
     id="metadata32">
    <rdf:RDF>
      <cc:Work
         rdf:about="">
        <dc:format>image/svg+xml</dc:format>
        <dc:type
           rdf:resource="http://purl.org/dc/dcmitype/StillImage" />
        <dc:title />
      </cc:Work>
    </rdf:RDF>
  </metadata>
  <defs
     id="defs30">
    <radialGradient
       inkscape:collect="always"
       xlink:href="#linearGradient4799"
       id="radialGradient5866"
       gradientUnits="userSpaceOnUse"
       gradientTransform="matrix(1.5247875,0,0,1.5607573,18.238751,-652.43162)"
       cx="55.21796"
       cy="458.46527"
       fx="55.21796"
       fy="458.46527"
       r="15.213428" />
    <linearGradient
       id="linearGradient4799">
      <stop
         style="stop-color:#ffde00;stop-opacity:1;"
         offset="0"
         id="stop4801" />
      <stop
         style="stop-color:#ffa700;stop-opacity:1;"
         offset="1"
         id="stop4803" />
    </linearGradient>
  </defs>
  <sodipodi:namedview
     pagecolor="#ffffff"
     bordercolor="#666666"
     borderopacity="1"
     objecttolerance="10"
     gridtolerance="10"
     guidetolerance="10"
     inkscape:pageopacity="0"
     inkscape:pageshadow="2"
     inkscape:window-width="1920"
     inkscape:window-height="1051"
     id="namedview28"
     showgrid="false"
     inkscape:zoom="4.9166667"
     inkscape:cx="1.2945461"
     inkscape:cy="54.055925"
     inkscape:window-x="1366"
     inkscape:window-y="0"
     inkscape:window-maximized="1"
     inkscape:current-layer="svg2" />
  <path
     style="fill:#bdc3c7"
     inkscape:connector-curvature="0"
     id="path6"
     d="m 20.92868,19.446445 c -6.602498,0 -11.9545503,5.379547 -11.9545503,11.95455 l 0,83.681865 c 0,6.575 5.3520523,11.95454 11.9545503,11.95454 l 35.863653,0 11.954552,0 35.863655,0 c 6.60488,0 11.95455,-5.37954 11.95455,-11.95454 l 0,-83.681865 c 0,-6.575003 -5.34967,-11.95455 -11.95455,-11.95455 l -35.863655,0 -11.954552,0 -35.863653,0 z" />
  <path
     style="fill:#ecf0f1"
     inkscape:connector-curvature="0"
     id="path8"
     d="m 20.92868,13.469169 c -6.602498,0 -11.9545503,5.352053 -11.9545503,11.95455 l 0,83.681861 c 0,6.60488 5.3520523,11.95454 11.9545503,11.95454 l 35.863653,0 11.954552,0 35.863655,0 c 6.60488,0 11.95455,-5.34966 11.95455,-11.95454 l 0,-83.681861 c 0,-6.602497 -5.34967,-11.95455 -11.95455,-11.95455 l -35.863655,0 -11.954552,0 -35.863653,0 z" />
  <g
     transform="matrix(1.0232113,0,0,1.0232113,-1.8433571,-2.2697393)"
     id="g22806">
    <path
       id="rect7608"
       d="m 18.026977,55.556891 89.709263,0 0,15.474324 -89.709263,0 z"
       style="opacity:1;fill:#ffffff;fill-opacity:1;stroke:#bdc3c7;stroke-width:2.05627275;stroke-linecap:round;stroke-linejoin:round;stroke-miterlimit:4;stroke-dasharray:none;stroke-dashoffset:0;stroke-opacity:1"
       inkscape:connector-curvature="0" />
    <path
       id="rect7610"
       d="m 18.026977,76.119623 89.709263,0 0,15.474329 -89.709263,0 z"
       style="opacity:1;fill:#ffffff;fill-opacity:1;stroke:#bdc3c7;stroke-width:2.05627275;stroke-linecap:round;stroke-linejoin:round;stroke-miterlimit:4;stroke-dasharray:none;stroke-dashoffset:0;stroke-opacity:1"
       inkscape:connector-curvature="0" />
    <path
       id="rect7612"
       d="m 18.026977,96.682352 89.709263,0 0,15.474318 -89.709263,0 z"
       style="opacity:1;fill:#ffffff;fill-opacity:1;stroke:#bdc3c7;stroke-width:2.05627275;stroke-linecap:round;stroke-linejoin:round;stroke-miterlimit:4;stroke-dasharray:none;stroke-dashoffset:0;stroke-opacity:1"
       inkscape:connector-curvature="0" />
  </g>
  <path
     style="fill:#0088aa"
     inkscape:connector-curvature="0"
     id="path10"
     d="m 20.92868,13.469169 c -6.602498,0 -11.9545503,5.352053 -11.9545503,11.95455 l 0,17.931827 0,5.977276 107.5909603,0 0,-5.977276 0,-17.931827 c 0,-6.602497 -5.34967,-11.95455 -11.95455,-11.95455 l -35.863655,0 -11.954552,0 -35.863653,0 z" />
  <path
     style="fill:#004455"
     inkscape:connector-curvature="0"
     id="path12"
     d="m 35.87187,28.412358 a 8.9659136,8.9659136 0 0 1 -17.931827,0 8.9659136,8.9659136 0 1 1 17.931827,0 z" />
  <path
     style="fill:#bdc3c7"
     inkscape:connector-curvature="0"
     id="path14"
     d="m 26.905956,1.5146182 c -3.301248,0 -5.977276,2.6760262 -5.977276,5.9772754 l 0,17.9318254 c 0,3.30125 2.676028,5.977276 5.977276,5.977276 3.301249,0 5.977275,-2.676026 5.977275,-5.977276 l 0,-17.9318254 c 0,-3.3012492 -2.676026,-5.9772754 -5.977275,-5.9772754 z" />
  <path
     style="fill:#004455"
     inkscape:connector-curvature="0"
     id="path16"
     d="m 107.59916,28.412358 a 8.9659131,8.9659131 0 0 1 -17.931813,0 8.9659131,8.9659131 0 1 1 17.931813,0 z" />
  <path
     style="fill:#bdc3c7"
     d="m 98.63326,1.5146182 c -3.299456,0 -5.977274,2.3909101 -5.977274,5.9772754 l 0,17.9318254 c 0,2.988639 2.677818,5.977276 5.977274,5.977276 3.29944,0 5.97728,-2.988637 5.97728,-5.977276 l 0,-17.9318254 c 0,-3.5863653 -2.67784,-5.9772754 -5.97728,-5.9772754 z"
     id="path20"
     inkscape:connector-curvature="0" />
  <path
     sodipodi:nodetypes="ccccccccccccccccccccccccc"
     inkscape:connector-curvature="0"
     id="path4797"
     d="m 100.19395,56.248155 -0.0777,-13.878875 c 0.089,-3.047532 5.59717,-2.872654 5.97026,-0.07759 l 0,13.723787 9.22673,-9.304194 c 2.26413,-2.124058 5.55762,1.604021 3.56664,3.721726 l -8.60647,9.691956 12.09558,0.078 c 3.52835,0.458117 3.08363,6.286988 0.15501,6.513082 l -11.70788,-0.078 8.83905,8.528994 c 2.08688,2.336483 -0.69717,6.383993 -3.79923,4.342085 l -9.92457,-9.536952 -0.0777,13.723782 c 0.35089,2.914427 -5.6219,3.464998 -6.202847,0.078 l 0.07756,-13.026004 -8.76153,8.76151 c -3.084378,0.759276 -5.616362,-1.433586 -4.419525,-4.109332 l 9.304281,-8.916673 -13.41367,0.155251 c -3.304189,-0.64156 -3.224018,-6.082748 0.07761,-6.512918 l 13.723798,-0.078 -9.614419,-9.459363 c -1.870577,-2.977072 1.339027,-5.990899 3.876781,-4.186992 z"
     style="overflow:visible;fill:url(#radialGradient5866);fill-opacity:1;stroke:#ff4100;stroke-width:2.28718066;stroke-linecap:round;stroke-linejoin:round;stroke-miterlimit:4;stroke-dasharray:none;stroke-opacity:1" />
</svg>
