<?xml version="1.0" encoding="UTF-8" standalone="no"?>
<!-- Created with Inkscape (http://www.inkscape.org/) -->

<svg
   xmlns:a="http://ns.adobe.com/AdobeSVGViewerExtensions/3.0/"
   xmlns:dc="http://purl.org/dc/elements/1.1/"
   xmlns:cc="http://creativecommons.org/ns#"
   xmlns:rdf="http://www.w3.org/1999/02/22-rdf-syntax-ns#"
   xmlns:svg="http://www.w3.org/2000/svg"
   xmlns="http://www.w3.org/2000/svg"
   xmlns:sodipodi="http://sodipodi.sourceforge.net/DTD/sodipodi-0.dtd"
   xmlns:inkscape="http://www.inkscape.org/namespaces/inkscape"
   version="1.0"
   width="128"
   height="128"
   viewBox="0 0 128 128"
   id="svg2"
   xml:space="preserve"
   inkscape:version="0.91 r13725"
   sodipodi:docname="objective.svg"><metadata
     id="metadata78"><rdf:RDF><cc:Work
         rdf:about=""><dc:format>image/svg+xml</dc:format><dc:type
           rdf:resource="http://purl.org/dc/dcmitype/StillImage" /><dc:title /></cc:Work></rdf:RDF></metadata><sodipodi:namedview
     pagecolor="#ffffff"
     bordercolor="#666666"
     borderopacity="1"
     objecttolerance="10"
     gridtolerance="10"
     guidetolerance="10"
     inkscape:pageopacity="0"
     inkscape:pageshadow="2"
     inkscape:window-width="981"
     inkscape:window-height="480"
     id="namedview76"
     showgrid="false"
     units="px"
     inkscape:zoom="1.2714193"
     inkscape:cx="-17.694389"
     inkscape:cy="9.9371833"
     inkscape:window-x="75"
     inkscape:window-y="34"
     inkscape:window-maximized="0"
     inkscape:current-layer="svg2" /><defs
     id="defs134" /><g
     id="Layer_1"
     transform="translate(0,290.13333)"><rect
       width="256"
       height="256"
       x="0"
       y="0"
       style="fill:none"
       id="_x3C_Slice_x3E_" /></g><g
     id="Layer_2"
     transform="matrix(0.49812765,0,0,0.49812765,-0.69534489,-0.21147058)"><g
       id="g9"><linearGradient
         x1="105.15137"
         y1="177.91406"
         x2="228.31577"
         y2="177.91406"
         id="XMLID_15_"
         gradientUnits="userSpaceOnUse"><stop
           style="stop-color:#585868;stop-opacity:1"
           offset="0"
           id="stop12" /><stop
           style="stop-color:#333366;stop-opacity:1"
           offset="1"
           id="stop14" /><a:midPointStop
           style="stop-color:#585868"
           offset="0" /><a:midPointStop
           style="stop-color:#585868"
           offset="0.5" /><a:midPointStop
           style="stop-color:#333366"
           offset="1" /></linearGradient><path
         d="m 90.637695,105.95068 -69.612793,31.11866 c -1.428711,0.63769 -2.348632,2.05761 -2.348632,3.62109 0,0.004 0,0.006 0,0.01 0,0.0303 0.01318,0.0596 0.01367,0.0908 -4.88e-4,0.0332 -0.01367,0.0615 -0.01367,0.0947 0,0.004 0,0.006 0,0.01 0,0.0312 0.0127,0.0605 0.01367,0.0908 -4.88e-4,0.0332 -0.01367,0.0625 -0.01367,0.0957 0,0.004 0,0.007 0,0.0107 0,0.0312 0.0127,0.0586 0.01367,0.0898 -9.76e-4,0.0322 -0.01367,0.0615 -0.01367,0.0928 0,0.004 0,0.008 0,0.0117 0,0.0312 0.0127,0.0596 0.01367,0.0908 -4.88e-4,0.0312 -0.01367,0.0625 -0.01367,0.0928 0,0.004 0,0.008 0,0.0117 0,0.0312 0.0127,0.0606 0.01367,0.0908 -9.76e-4,0.0312 -0.01367,0.0606 -0.01367,0.0937 0,0.004 0,0.006 0,0.01 0,0.0303 0.0127,0.0596 0.01367,0.0908 -4.88e-4,0.0332 -0.01367,0.0615 -0.01367,0.0947 0,0.004 0,0.008 0,0.0117 0,0.0312 0.0127,0.0576 0.01367,0.0889 -9.76e-4,0.0332 -0.01367,0.0625 -0.01367,0.0928 0,0.004 0,0.008 0,0.0117 0,0.0312 0.0127,0.0605 0.01367,0.0918 -4.88e-4,0.0303 -0.01367,0.0615 -0.01367,0.0928 0,0.004 0,0.008 0,0.0117 0,0.0303 0.0127,0.0596 0.01367,0.0908 -9.76e-4,0.0312 -0.01367,0.0596 -0.01367,0.0928 0,0.002 0,0.004 0,0.008 0,0.0312 0.01318,0.0605 0.01367,0.0928 -4.88e-4,0.0312 -0.01367,0.0605 -0.01367,0.0937 0,0.004 0,0.007 0,0.0107 0,0.0312 0.0127,0.0605 0.01367,0.0918 -4.88e-4,0.0303 -0.01367,0.0615 -0.01367,0.0928 0,0.004 0,0.008 0,0.0117 0,0.0312 0.0127,0.0596 0.01367,0.0908 -9.76e-4,0.0312 -0.01367,0.0606 -0.01367,0.0928 0,0.004 0,0.006 0,0.01 0,0.0312 0.0127,0.0606 0.01367,0.0908 -4.88e-4,0.0332 -0.01367,0.0625 -0.01367,0.0957 0,0.004 0,0.008 0,0.0117 0,0.0303 0.0127,0.0576 0.01367,0.0889 -9.76e-4,0.0332 -0.01367,0.0615 -0.01367,0.0928 0,0.004 0,0.008 0,0.0117 0,0.0312 0.0127,0.0596 0.01367,0.0908 -4.88e-4,0.0312 -0.01367,0.0625 -0.01367,0.0928 0,0.004 0,0.008 0,0.0117 0,0.0312 0.0127,0.0605 0.01367,0.0918 -9.76e-4,0.0303 -0.01367,0.0596 -0.01367,0.0928 0,0.004 0,0.006 0,0.01 0,0.0303 0.0127,0.0596 0.01367,0.0908 -4.88e-4,0.0332 -0.01367,0.0615 -0.01367,0.0947 0,0.004 0,0.008 0,0.0117 0,0.0312 0.0127,0.0586 0.01367,0.0889 -9.76e-4,0.0332 -0.01367,0.0625 -0.01367,0.0937 0,0.004 0,0.006 0,0.008 0,0.0322 0.01318,0.0615 0.01367,0.0928 -4.88e-4,0.0322 -0.01367,0.0615 -0.01367,0.0947 0,0.004 0,0.006 0,0.01 0,0.0312 0.0127,0.0596 0.01367,0.0908 -4.88e-4,0.0332 -0.01367,0.0625 -0.01367,0.0947 0,0.004 0,0.008 0,0.0117 0,0.0312 0.0127,0.0586 0.01367,0.0898 -9.76e-4,0.0322 -0.01367,0.0615 -0.01367,0.0928 0,0.004 0,0.008 0,0.0117 0,0.0303 0.0127,0.0596 0.01367,0.0908 -4.88e-4,0.0312 -0.01367,0.0615 -0.01367,0.0928 0,0.004 0,0.008 0,0.0117 0,0.0312 0.0127,0.0605 0.01367,0.0908 -9.76e-4,0.0312 -0.01367,0.0605 -0.01367,0.0928 0,0.004 0,0.006 0,0.01 0,0.0312 0.0127,0.0605 0.01367,0.0918 -4.88e-4,0.0322 -0.01367,0.0615 -0.01367,0.0947 0,0.004 0,0.008 0,0.0117 0,0.0303 0.0127,0.0576 0.01367,0.0889 -9.76e-4,0.0332 -0.01367,0.0615 -0.01367,0.0928 0,0.004 0,0.008 0,0.0117 0,0.0312 0.0127,0.0605 0.01367,0.0908 -4.88e-4,0.0312 -0.01367,0.0625 -0.01367,0.0937 0,0.004 0,0.008 0,0.0117 0,0.0303 0.0127,0.0596 0.01367,0.0908 -9.76e-4,0.0312 -0.01367,0.0596 -0.01367,0.0928 0,0.002 0,0.004 0,0.008 0,0.0312 0.01318,0.0596 0.01367,0.0928 -4.88e-4,0.0312 -0.01367,0.0605 -0.01367,0.0928 0,0.004 0,0.008 0,0.0117 0,0.0312 0.0127,0.0606 0.01367,0.0918 -4.88e-4,0.0303 -0.01367,0.0615 -0.01367,0.0928 0,0.004 0,0.008 0,0.0117 0,0.0303 0.0127,0.0596 0.01367,0.0908 -9.76e-4,0.0312 -0.01367,0.0596 -0.01367,0.0928 0,0.004 0,0.006 0,0.01 0,0.0312 0.0127,0.0605 0.01367,0.0908 -4.88e-4,0.0332 -0.01367,0.0625 -0.01367,0.0947 0,0.004 0,0.008 0,0.0117 0,0.0312 0.0127,0.0586 0.01367,0.0899 -9.76e-4,0.0322 -0.01367,0.0615 -0.01367,0.0928 0,0.004 0,0.008 0,0.0117 0,0.0312 0.0127,0.0596 0.01367,0.0908 -4.88e-4,0.0312 -0.01367,0.0625 -0.01367,0.0928 0,0.004 0,0.008 0,0.0117 0,0.0312 0.0127,0.0605 0.01367,0.0908 -9.76e-4,0.0312 -0.01367,0.0606 -0.01367,0.0937 0,0.002 0,0.004 0,0.008 0,0.0303 0.01318,0.0596 0.01367,0.0928 -4.88e-4,0.0312 -0.01367,0.0596 -0.01367,0.0928 0,0.004 0,0.008 0,0.0117 0,0.0312 0.0127,0.0596 0.01367,0.0908 -4.88e-4,0.0312 -0.01367,0.0625 -0.01367,0.0928 0,0.004 0,0.008 0,0.0117 0,0.0312 0.0127,0.0606 0.01367,0.0918 -9.76e-4,0.0303 -0.01367,0.0596 -0.01367,0.0928 0,0.004 0,0.006 0,0.01 0,0.0303 0.0127,0.0596 0.01367,0.0908 -4.88e-4,0.0332 -0.01367,0.0615 -0.01367,0.0947 0,0.004 0,0.008 0,0.0117 0,0.0312 0.0127,0.0586 0.01367,0.0889 -9.76e-4,0.0332 -0.01367,0.0625 -0.01367,0.0937 0,0.004 0,0.007 0,0.0107 0,0.0312 0.0127,0.0606 0.01367,0.0918 -4.88e-4,0.0303 -0.01367,0.0615 -0.01367,0.0928 0,0.004 0,0.008 0,0.0117 0,0.0312 0.0127,0.0596 0.01367,0.0908 -9.76e-4,0.0312 -0.01367,0.0605 -0.01367,0.0928 0,0.004 0,0.006 0,0.01 0,0.0312 0.0127,0.0606 0.01367,0.0908 -4.88e-4,0.0332 -0.01367,0.0625 -0.01367,0.0957 0,0.004 0,0.008 0,0.0117 0,0.0303 0.0127,0.0576 0.01367,0.0889 -9.76e-4,0.0332 -0.01367,0.0615 -0.01367,0.0928 0,0.004 0,0.006 0,0.008 0,0.0332 0.01318,0.0615 0.01367,0.0928 -4.88e-4,0.0332 -0.01367,0.0625 -0.01367,0.0947 0,0.004 0,0.006 0,0.01 0,0.0312 0.0127,0.0605 0.01367,0.0918 -4.88e-4,0.0322 -0.01367,0.0615 -0.01367,0.0947 0,0.004 0,0.008 0,0.0117 0,0.0303 0.0127,0.0576 0.01367,0.0889 -9.76e-4,0.0332 -0.01367,0.0615 -0.01367,0.0928 0,0.004 0,0.008 0,0.0117 0,0.0312 0.0127,0.0606 0.01367,0.0908 -4.88e-4,0.0312 -0.01367,0.0625 -0.01367,0.0937 0,0.004 0,0.007 0,0.0107 0,0.0312 0.0127,0.0605 0.01367,0.0918 -9.76e-4,0.0303 -0.01367,0.0596 -0.01367,0.0928 0,0.004 0,0.006 0,0.01 0,0.0312 0.0127,0.0596 0.01367,0.0908 -4.88e-4,0.0332 -0.01367,0.0625 -0.01367,0.0947 0,0.004 0,0.008 0,0.0117 0,0.0312 0.0127,0.0586 0.01367,0.0889 -9.76e-4,0.0332 -0.01367,0.0625 -0.01367,0.0937 0,0.004 0,0.008 0,0.0117 0,0.0303 0.0127,0.0596 0.01367,0.0908 -4.88e-4,0.0312 -0.01367,0.0615 -0.01367,0.0928 0,0.004 0,0.008 0,0.0117 0,0.0312 0.0127,0.0596 0.01367,0.0908 -9.76e-4,0.0312 -0.01367,0.0605 -0.01367,0.0928 0,0.002 0,0.004 0,0.008 0,0.0312 0.01318,0.0606 0.01367,0.0937 -4.88e-4,0.0303 -0.01367,0.0596 -0.01367,0.0928 0,0.004 0,0.008 0,0.0117 0,0.0303 0.0127,0.0596 0.01367,0.0908 -4.88e-4,0.0312 -0.01367,0.0615 -0.01367,0.0928 0,0.004 0,0.008 0,0.0117 0,0.0312 0.0127,0.0606 0.01367,0.0908 -9.76e-4,0.0312 -0.01367,0.0605 -0.01367,0.0937 0,0.004 0,0.006 0,0.01 0,0.0303 0.0127,0.0596 0.01367,0.0908 -4.88e-4,0.0322 -0.01367,0.0615 -0.01367,0.0947 0,0.004 0,0.008 0,0.0117 0,0.0312 0.0127,0.0576 0.01367,0.0889 -9.76e-4,0.0332 -0.01367,0.0625 -0.01367,0.0928 0,0.004 0,0.008 0,0.0117 0,0.0312 0.0127,0.0606 0.01367,0.0908 -4.88e-4,0.0312 -0.01367,0.0625 -0.01367,0.0937 0,0.004 0,0.008 0,0.0117 0,0.0303 0.0127,0.0596 0.01367,0.0908 -9.76e-4,0.0312 -0.01367,0.0596 -0.01367,0.0928 0,0.004 0,0.006 0,0.01 0,0.0312 0.0127,0.0605 0.01367,0.0908 -4.88e-4,0.0332 -0.01367,0.0625 -0.01367,0.0947 0,0.004 0,0.008 0,0.0117 0,0.0312 0.0127,0.0586 0.01367,0.0898 -9.76e-4,0.0322 -0.01367,0.0615 -0.01367,0.0928 0,0.004 0,0.006 0,0.008 0.0034,1.56934 0.931152,2.98926 2.366699,3.62305 0,0 37.260742,16.43262 49.291015,21.73926 -11.942382,5.33789 -48.316894,21.59863 -48.316894,21.59863 -1.429199,0.63867 -2.348633,2.05664 -2.348633,3.62207 0,0.002 0,0.006 0,0.008 0,0.0332 0.0127,0.0625 0.01318,0.0937 -4.89e-4,0.0303 -0.01318,0.0615 -0.01318,0.0928 0,0.004 0,0.008 0,0.0117 0,0.0303 0.01221,0.0596 0.01318,0.0908 -4.89e-4,0.0312 -0.01318,0.0615 -0.01318,0.0928 0,0.004 0,0.008 0,0.0117 0,0.0312 0.01221,0.0605 0.01318,0.0908 -9.77e-4,0.0312 -0.01318,0.0605 -0.01318,0.0937 0,0.004 0,0.005 0,0.009 0,0.0312 0.01221,0.0605 0.01318,0.0918 -4.89e-4,0.0322 -0.01318,0.0615 -0.01318,0.0947 0,0.004 0,0.008 0,0.0117 0,0.0312 0.01221,0.0576 0.01318,0.0889 -9.77e-4,0.0332 -0.01318,0.0625 -0.01318,0.0928 0,0.004 0,0.008 0,0.0117 0,0.0312 0.01221,0.0606 0.01318,0.0908 -4.89e-4,0.0312 -0.01318,0.0625 -0.01318,0.0937 0,0.004 0,0.008 0,0.0117 0,0.0303 0.01221,0.0596 0.01318,0.0908 -9.77e-4,0.0312 -0.01318,0.0596 -0.01318,0.0928 0,0.004 0,0.006 0,0.01 0,0.0312 0.01221,0.0596 0.01318,0.0908 -4.89e-4,0.0332 -0.01318,0.0625 -0.01318,0.0947 0,0.004 0,0.008 0,0.0117 0,0.0312 0.01221,0.0586 0.01318,0.0898 -9.77e-4,0.0322 -0.01318,0.0615 -0.01318,0.0928 0,0.004 0,0.006 0,0.008 0,0.0322 0.0127,0.0615 0.01318,0.0928 -4.89e-4,0.0332 -0.01318,0.0615 -0.01318,0.0947 0,0.004 0,0.006 0,0.01 0,0.0312 0.01221,0.0605 0.01318,0.0908 -4.89e-4,0.0332 -0.01318,0.0625 -0.01318,0.0957 0,0.004 0,0.008 0,0.0107 0,0.0312 0.01221,0.0586 0.01318,0.0898 -9.77e-4,0.0322 -0.01318,0.0615 -0.01318,0.0928 0,0.004 0,0.008 0,0.0117 0,0.0312 0.01221,0.0596 0.01318,0.0908 -4.89e-4,0.0312 -0.01318,0.0625 -0.01318,0.0928 0,0.004 0,0.008 0,0.0117 0,0.0312 0.01221,0.0606 0.01318,0.0908 -9.77e-4,0.0312 -0.01318,0.0606 -0.01318,0.0937 0,0.004 0,0.006 0,0.01 0,0.0303 0.01221,0.0596 0.01318,0.0908 -4.89e-4,0.0332 -0.01318,0.0615 -0.01318,0.0947 0,0.004 0,0.008 0,0.0117 0,0.0312 0.01221,0.0586 0.01318,0.0889 -9.77e-4,0.0332 -0.01318,0.0625 -0.01318,0.0928 0,0.004 0,0.008 0,0.0117 0,0.0312 0.01221,0.0605 0.01318,0.0918 -4.89e-4,0.0303 -0.01318,0.0615 -0.01318,0.0928 0,0.004 0,0.008 0,0.0117 0,0.0303 0.01221,0.0596 0.01318,0.0908 -9.77e-4,0.0312 -0.01318,0.0596 -0.01318,0.0928 0,0.002 0,0.004 0,0.008 0,0.0312 0.0127,0.0605 0.01318,0.0928 -4.89e-4,0.0312 -0.01318,0.0605 -0.01318,0.0937 0,0.004 0,0.008 0,0.0117 0,0.0303 0.01221,0.0596 0.01318,0.0908 -4.89e-4,0.0312 -0.01318,0.0615 -0.01318,0.0928 0,0.004 0,0.008 0,0.0117 0,0.0312 0.01221,0.0596 0.01318,0.0908 -9.77e-4,0.0312 -0.01318,0.0606 -0.01318,0.0928 0,0.004 0,0.006 0,0.01 0,0.0312 0.01221,0.0606 0.01318,0.0918 -4.89e-4,0.0322 -0.01318,0.0615 -0.01318,0.0947 0,0.004 0,0.008 0,0.0117 0,0.0303 0.01221,0.0576 0.01318,0.0889 -9.77e-4,0.0332 -0.01318,0.0615 -0.01318,0.0928 0,0.004 0,0.008 0,0.0117 0,0.0312 0.01221,0.0605 0.01318,0.0908 -4.89e-4,0.0312 -0.01318,0.0625 -0.01318,0.0928 0,0.004 0,0.008 0,0.0117 0,0.0312 0.01221,0.0605 0.01318,0.0918 -9.77e-4,0.0303 -0.01318,0.0596 -0.01318,0.0928 0,0.004 0,0.006 0,0.01 0,0.0312 0.01221,0.0596 0.01318,0.0908 -4.89e-4,0.0332 -0.01318,0.0625 -0.01318,0.0947 0,0.004 0,0.008 0,0.0117 0,0.0312 0.01221,0.0586 0.01318,0.0889 -9.77e-4,0.0332 -0.01318,0.0625 -0.01318,0.0937 0,0.004 0,0.006 0,0.008 0,0.0322 0.0127,0.0615 0.01318,0.0928 -4.89e-4,0.0332 -0.01318,0.0615 -0.01318,0.0947 0,0.004 0,0.006 0,0.01 0,0.0312 0.01221,0.0596 0.01318,0.0908 -4.89e-4,0.0332 -0.01318,0.0625 -0.01318,0.0947 0,0.004 0,0.008 0,0.0117 0,0.0312 0.01221,0.0586 0.01318,0.0898 -9.77e-4,0.0322 -0.01318,0.0615 -0.01318,0.0928 0,0.004 0,0.008 0,0.0117 0,0.0303 0.01221,0.0596 0.01318,0.0908 -4.89e-4,0.0312 -0.01318,0.0615 -0.01318,0.0928 0,0.004 0,0.008 0,0.0117 0,0.0312 0.01221,0.0605 0.01318,0.0908 -9.77e-4,0.0312 -0.01318,0.0605 -0.01318,0.0937 0,0.003 0,0.005 0,0.009 0,0.0312 0.01221,0.0605 0.01318,0.0918 -4.89e-4,0.0322 -0.01318,0.0615 -0.01318,0.0947 0,0.004 0,0.008 0,0.0117 0,0.0312 0.01221,0.0576 0.01318,0.0889 -9.77e-4,0.0332 -0.01318,0.0625 -0.01318,0.0928 0,0.004 0,0.006 0,0.008 0,0.0332 0.0127,0.0625 0.01318,0.0928 -4.89e-4,0.0332 -0.01318,0.0625 -0.01318,0.0957 0,0.004 0,0.006 0,0.01 0,0.0303 0.01221,0.0596 0.01318,0.0908 -4.89e-4,0.0332 -0.01318,0.0615 -0.01318,0.0947 0,0.004 0,0.008 0,0.0117 0,0.0312 0.01221,0.0576 0.01318,0.0889 -9.77e-4,0.0332 -0.01318,0.0625 -0.01318,0.0928 0,0.004 0,0.008 0,0.0117 0,0.0312 0.01221,0.0606 0.01318,0.0918 -4.89e-4,0.0303 -0.01318,0.0615 -0.01318,0.0928 0,0.004 0,0.008 0,0.0117 0,0.0303 0.01221,0.0596 0.01318,0.0908 -9.77e-4,0.0312 -0.01318,0.0596 -0.01318,0.0928 0,0.004 0,0.006 0,0.01 0,0.0312 0.01221,0.0605 0.01318,0.0908 -4.89e-4,0.0332 -0.01318,0.0625 -0.01318,0.0957 0,0.004 0,0.007 0,0.0107 0,0.0312 0.01221,0.0586 0.01318,0.0899 -9.77e-4,0.0322 -0.01318,0.0615 -0.01318,0.0928 0,0.004 0,0.008 0,0.0117 0,0.0312 0.01221,0.0596 0.01318,0.0908 -4.89e-4,0.0312 -0.01318,0.0625 -0.01318,0.0928 0,0.004 0,0.008 0,0.0117 0,0.0312 0.01221,0.0605 0.01318,0.0908 -9.77e-4,0.0312 -0.01318,0.0606 -0.01318,0.0937 0,0.002 0,0.004 0,0.008 0,0.0303 0.0127,0.0596 0.01318,0.0928 -4.89e-4,0.0312 -0.01318,0.0596 -0.01318,0.0928 0,0.004 0,0.008 0,0.0117 0,0.0312 0.01221,0.0596 0.01318,0.0908 -4.89e-4,0.0312 -0.01318,0.0625 -0.01318,0.0928 0,0.004 0,0.008 0,0.0117 0,0.0312 0.01221,0.0606 0.01318,0.0918 -9.77e-4,0.0303 -0.01318,0.0596 -0.01318,0.0928 0,0.004 0,0.006 0,0.01 0,0.0303 0.01221,0.0596 0.01318,0.0908 -4.89e-4,0.0332 -0.01318,0.0615 -0.01318,0.0947 0,0.004 0,0.008 0,0.0117 0,0.0312 0.01221,0.0586 0.01318,0.0889 -9.77e-4,0.0332 -0.01318,0.0625 -0.01318,0.0937 0,0.004 0,0.008 0,0.0107 0,0.0312 0.01221,0.0606 0.01318,0.0918 -4.89e-4,0.0303 -0.01318,0.0615 -0.01318,0.0928 0,0.004 0,0.008 0,0.0117 0,0.0312 0.01221,0.0596 0.01318,0.0908 -9.77e-4,0.0312 -0.01318,0.0605 -0.01318,0.0928 0,0.004 0,0.006 0,0.01 0,0.0312 0.01221,0.0606 0.01318,0.0908 -4.89e-4,0.0332 -0.01318,0.0625 -0.01318,0.0957 0,0.004 0,0.008 0,0.0117 0,0.0303 0.01221,0.0576 0.01318,0.0889 -9.77e-4,0.0332 -0.01318,0.0615 -0.01318,0.0928 0,0.004 0,0.006 0,0.008 0,0.0332 0.0127,0.0625 0.01318,0.0928 -4.89e-4,0.0332 -0.01318,0.0625 -0.01318,0.0947 0,0.004 0,0.006 0,0.01 0,0.0312 0.01221,0.0605 0.01318,0.0918 -4.89e-4,0.0322 -0.01318,0.0615 -0.01318,0.0947 0,0.004 0,0.008 0,0.0117 0,0.0303 0.01221,0.0576 0.01318,0.0889 -9.77e-4,0.0332 -0.01318,0.0615 -0.01318,0.0928 0,0.004 0,0.008 0,0.0117 0,0.0312 0.01221,0.0606 0.01318,0.0908 -4.89e-4,0.0312 -0.01318,0.0625 -0.01318,0.0937 0,0.004 0,0.008 0,0.0117 0,0.0303 0.01221,0.0596 0.01318,0.0908 -9.77e-4,0.0303 -0.01318,0.0596 -0.01318,0.0928 0,0.004 0,0.006 0,0.01 0,0.0312 0.01221,0.0596 0.01318,0.0908 -4.89e-4,0.0332 -0.01318,0.0625 -0.01318,0.0947 0,0.004 0,0.008 0,0.0117 0,0.0312 0.01221,0.0586 0.01318,0.0898 -9.77e-4,0.0322 -0.01318,0.0615 -0.01318,0.0928 0,0.004 0,0.008 0,0.0117 0,0.0303 0.01221,0.0596 0.01318,0.0908 -4.89e-4,0.0312 -0.01318,0.0615 -0.01318,0.0928 0,0.004 0,0.008 0,0.0117 0,0.0312 0.01221,0.0605 0.01318,0.0908 -9.77e-4,0.0312 -0.01318,0.0605 -0.01318,0.0928 0,0.002 0,0.006 0,0.008 0.0034,1.56934 0.930664,2.99024 2.366211,3.62305 l 70.670898,31.16699 c 1.026367,0.4541 2.196289,0.4502 3.220215,-0.008 l 69.613279,-31.11816 69.43555,-31.08204 c 1.42969,-0.63671 2.34961,-2.05761 2.34961,-3.62109 0,-0.004 0,-0.006 0,-0.008 0,-0.0322 -0.0137,-0.0615 -0.0137,-0.0928 0,-0.0332 0.0137,-0.0615 0.0137,-0.0947 0,-0.004 0,-0.006 0,-0.01 0,-0.0312 -0.0137,-0.0596 -0.0137,-0.0908 0,-0.0332 0.0137,-0.0625 0.0137,-0.0947 0,-0.004 0,-0.008 0,-0.0117 0,-0.0312 -0.0137,-0.0586 -0.0137,-0.0899 0,-0.0322 0.0137,-0.0615 0.0137,-0.0928 0,-0.004 0,-0.008 0,-0.0117 0,-0.0303 -0.0137,-0.0596 -0.0137,-0.0908 0,-0.0312 0.0137,-0.0615 0.0137,-0.0928 0,-0.004 0,-0.008 0,-0.0117 0,-0.0312 -0.0137,-0.0605 -0.0137,-0.0908 0,-0.0312 0.0137,-0.0606 0.0137,-0.0937 0,-0.003 0,-0.005 0,-0.009 0,-0.0312 -0.0137,-0.0606 -0.0137,-0.0918 0,-0.0322 0.0137,-0.0615 0.0137,-0.0947 0,-0.004 0,-0.008 0,-0.0117 0,-0.0312 -0.0137,-0.0576 -0.0137,-0.0889 0,-0.0332 0.0137,-0.0625 0.0137,-0.0928 0,-0.004 0,-0.008 0,-0.0117 0,-0.0312 -0.0137,-0.0606 -0.0137,-0.0908 0,-0.0312 0.0137,-0.0625 0.0137,-0.0937 0,-0.004 0,-0.008 0,-0.0117 0,-0.0303 -0.0137,-0.0596 -0.0137,-0.0908 0,-0.0312 0.0137,-0.0596 0.0137,-0.0928 0,-0.002 0,-0.004 0,-0.008 0,-0.0312 -0.0137,-0.0596 -0.0137,-0.0908 0,-0.0332 0.0137,-0.0625 0.0137,-0.0947 0,-0.004 0,-0.008 0,-0.0117 0,-0.0312 -0.0137,-0.0606 -0.0137,-0.0918 0,-0.0303 0.0137,-0.0615 0.0137,-0.0928 0,-0.004 0,-0.008 0,-0.0117 0,-0.0303 -0.0137,-0.0596 -0.0137,-0.0908 0,-0.0312 0.0137,-0.0596 0.0137,-0.0928 0,-0.004 0,-0.006 0,-0.01 0,-0.0312 -0.0137,-0.0606 -0.0137,-0.0908 0,-0.0332 0.0137,-0.0625 0.0137,-0.0957 0,-0.003 0,-0.007 0,-0.0107 0,-0.0312 -0.0137,-0.0586 -0.0137,-0.0898 0,-0.0322 0.0137,-0.0615 0.0137,-0.0928 0,-0.004 0,-0.008 0,-0.0117 0,-0.0312 -0.0137,-0.0596 -0.0137,-0.0908 0,-0.0312 0.0137,-0.0625 0.0137,-0.0928 0,-0.004 0,-0.008 0,-0.0117 0,-0.0312 -0.0137,-0.0605 -0.0137,-0.0908 0,-0.0312 0.0137,-0.0605 0.0137,-0.0937 0,-0.004 0,-0.006 0,-0.01 0,-0.0303 -0.0137,-0.0596 -0.0137,-0.0908 0,-0.0332 0.0137,-0.0615 0.0137,-0.0947 0,-0.004 0,-0.008 0,-0.0117 0,-0.0312 -0.0137,-0.0576 -0.0137,-0.0889 0,-0.0332 0.0137,-0.0625 0.0137,-0.0928 0,-0.002 0,-0.006 0,-0.008 0,-0.0332 -0.0137,-0.0625 -0.0137,-0.0937 0,-0.0322 0.0137,-0.0615 0.0137,-0.0947 0,-0.004 0,-0.006 0,-0.01 0,-0.0303 -0.0137,-0.0596 -0.0137,-0.0908 0,-0.0332 0.0137,-0.0615 0.0137,-0.0947 0,-0.004 0,-0.008 0,-0.0117 0,-0.0312 -0.0137,-0.0586 -0.0137,-0.0889 0,-0.0332 0.0137,-0.0625 0.0137,-0.0937 0,-0.004 0,-0.008 0,-0.0107 0,-0.0312 -0.0137,-0.0606 -0.0137,-0.0918 0,-0.0303 0.0137,-0.0615 0.0137,-0.0928 0,-0.004 0,-0.008 0,-0.0117 0,-0.0312 -0.0137,-0.0596 -0.0137,-0.0908 0,-0.0312 0.0137,-0.0605 0.0137,-0.0928 0,-0.004 0,-0.006 0,-0.01 0,-0.0312 -0.0137,-0.0605 -0.0137,-0.0908 0,-0.0332 0.0137,-0.0625 0.0137,-0.0957 0,-0.004 0,-0.008 0,-0.0117 0,-0.0303 -0.0137,-0.0576 -0.0137,-0.0889 0,-0.0332 0.0137,-0.0615 0.0137,-0.0928 0,-0.004 0,-0.008 0,-0.0117 0,-0.0312 -0.0137,-0.0596 -0.0137,-0.0908 0,-0.0312 0.0137,-0.0625 0.0137,-0.0928 0,-0.004 0,-0.008 0,-0.0117 0,-0.0312 -0.0137,-0.0605 -0.0137,-0.0918 0,-0.0303 0.0137,-0.0596 0.0137,-0.0928 0,-0.002 0,-0.004 0,-0.008 0,-0.0312 -0.0137,-0.0596 -0.0137,-0.0908 0,-0.0332 0.0137,-0.0615 0.0137,-0.0947 0,-0.004 0,-0.008 0,-0.0117 0,-0.0312 -0.0137,-0.0606 -0.0137,-0.0908 0,-0.0312 0.0137,-0.0625 0.0137,-0.0937 0,-0.004 0,-0.008 0,-0.0107 0,-0.0312 -0.0137,-0.0606 -0.0137,-0.0918 0,-0.0303 0.0137,-0.0596 0.0137,-0.0928 0,-0.004 0,-0.006 0,-0.01 0,-0.0312 -0.0137,-0.0596 -0.0137,-0.0908 0,-0.0332 0.0137,-0.0625 0.0137,-0.0947 0,-0.004 0,-0.008 0,-0.0117 0,-0.0312 -0.0137,-0.0586 -0.0137,-0.0889 0,-0.0332 0.0137,-0.0625 0.0137,-0.0937 0,-0.004 0,-0.008 0,-0.0117 0,-0.0303 -0.0137,-0.0596 -0.0137,-0.0908 0,-0.0312 0.0137,-0.0615 0.0137,-0.0928 0,-0.004 0,-0.008 0,-0.0117 0,-0.0312 -0.0137,-0.0606 -0.0137,-0.0908 0,-0.0312 0.0137,-0.0605 0.0137,-0.0928 0,-0.002 0,-0.004 0,-0.008 0,-0.0312 -0.0137,-0.0605 -0.0137,-0.0918 0,-0.0322 0.0137,-0.0615 0.0137,-0.0947 0,-0.004 0,-0.008 0,-0.0117 0,-0.0312 -0.0137,-0.0596 -0.0137,-0.0908 0,-0.0312 0.0137,-0.0625 0.0137,-0.0928 0,-0.004 0,-0.008 0,-0.0117 0,-0.0312 -0.0137,-0.0606 -0.0137,-0.0908 0,-0.0312 0.0137,-0.0606 0.0137,-0.0937 0,-0.004 0,-0.006 0,-0.01 0,-0.0303 -0.0137,-0.0596 -0.0137,-0.0908 0,-0.0322 0.0137,-0.0615 0.0137,-0.0947 0,-0.004 0,-0.008 0,-0.0117 0,-0.0312 -0.0137,-0.0576 -0.0137,-0.0889 0,-0.0332 0.0137,-0.0625 0.0137,-0.0928 0,-0.004 0,-0.008 0,-0.0117 0,-0.0312 -0.0137,-0.0606 -0.0137,-0.0918 0,-0.0303 0.0137,-0.0615 0.0137,-0.0928 0,-0.004 0,-0.008 0,-0.0117 0,-0.0303 -0.0137,-0.0596 -0.0137,-0.0908 0,-0.0312 0.0137,-0.0596 0.0137,-0.0928 0,-0.004 0,-0.006 0,-0.01 0,-0.0312 -0.0137,-0.0605 -0.0137,-0.0908 0,-0.0332 0.0137,-0.0625 0.0137,-0.0957 0,-0.003 0,-0.007 0,-0.0107 0,-0.0312 -0.0137,-0.0586 -0.0137,-0.0898 0,-0.0322 0.0137,-0.0615 0.0137,-0.0928 0,-0.002 0,-0.006 0,-0.008 0,-0.0332 -0.0137,-0.0615 -0.0137,-0.0928 0,-0.0332 0.0137,-0.0625 0.0137,-0.0947 0,-0.004 0,-0.006 0,-0.01 0,-0.0312 -0.0137,-0.0606 -0.0137,-0.0908 0,-0.0332 0.0137,-0.0625 0.0137,-0.0957 0,-0.004 0,-0.008 0,-0.0117 0,-0.0303 -0.0137,-0.0576 -0.0137,-0.0889 0,-0.0332 0.0137,-0.0615 0.0137,-0.0928 0,-0.004 0,-0.008 0,-0.0117 0,-0.0312 -0.0137,-0.0596 -0.0137,-0.0908 0,-0.0312 0.0137,-0.0625 0.0137,-0.0928 0,-0.004 0,-0.008 0,-0.0117 0,-0.0312 -0.0137,-0.0605 -0.0137,-0.0918 0,-0.0303 0.0137,-0.0596 0.0137,-0.0928 0,-0.004 0,-0.006 0,-0.01 0,-0.0303 -0.0137,-0.0596 -0.0137,-0.0908 0,-0.0332 0.0137,-0.0615 0.0137,-0.0947 0,-0.004 0,-0.008 0,-0.0117 0,-0.0312 -0.0137,-0.0586 -0.0137,-0.0889 0,-0.0332 0.0137,-0.0625 0.0137,-0.0937 0,-0.004 0,-0.007 0,-0.0107 0,-0.0312 -0.0137,-0.0606 -0.0137,-0.0918 0,-0.0303 0.0137,-0.0615 0.0137,-0.0928 0,-0.004 0,-0.008 0,-0.0117 0,-0.0312 -0.0137,-0.0596 -0.0137,-0.0908 0,-0.0312 0.0137,-0.0605 0.0137,-0.0928 0,-0.002 0,-0.004 0,-0.008 0,-0.0312 -0.0137,-0.0605 -0.0137,-0.0908 0,-0.0332 0.0137,-0.0625 0.0137,-0.0957 0,-0.004 0,-0.008 0,-0.0117 0,-0.0303 -0.0137,-0.0596 -0.0137,-0.0908 0,-0.0312 0.0137,-0.0615 0.0137,-0.0928 0,-0.004 0,-0.008 0,-0.0117 0,-0.0312 -0.0137,-0.0596 -0.0137,-0.0908 0,-0.0312 0.0137,-0.0606 0.0137,-0.0928 0,-0.004 0,-0.006 0,-0.01 0,-0.0312 -0.0137,-0.0605 -0.0137,-0.0918 0,-0.0322 0.0137,-0.0615 0.0137,-0.0947 0,-0.004 0,-0.008 0,-0.0117 0,-0.0303 -0.0137,-0.0576 -0.0137,-0.0889 0,-0.0332 0.0137,-0.0615 0.0137,-0.0928 0,-0.004 0,-0.008 0,-0.0117 0,-0.0312 -0.0137,-0.0606 -0.0137,-0.0908 0,-0.0312 0.0137,-0.0625 0.0137,-0.0937 0,-0.004 0,-0.008 0,-0.0107 0,-0.0312 -0.0137,-0.0606 -0.0137,-0.0918 0,-0.0303 0.0137,-0.0596 0.0137,-0.0928 0,-0.004 0,-0.006 0,-0.01 0,-0.0312 -0.0137,-0.0596 -0.0137,-0.0908 0,-0.0332 0.0137,-0.0625 0.0137,-0.0947 0,-0.004 0,-0.008 0,-0.0117 0,-0.0312 -0.0137,-0.0586 -0.0137,-0.0889 0,-0.0332 0.0137,-0.0625 0.0137,-0.0937 0,-0.004 0,-0.008 0,-0.01 -0.004,-1.56933 -0.93164,-2.9873 -2.36719,-3.62109 0,0 -66.53125,-29.34375 -69.21094,-30.52344 -0.34765,-0.36035 -0.74023,-0.67773 -1.21679,-0.88867 L 93.85791,105.94287 c -1.025879,-0.45312 -2.196289,-0.45019 -3.220215,0.008 z"
         style="fill:url(#XMLID_15_)"
         id="path16"
         inkscape:connector-curvature="0" /><linearGradient
         x1="105.15869"
         y1="177.91406"
         x2="228.31952"
         y2="177.91406"
         id="XMLID_16_"
         gradientUnits="userSpaceOnUse"><stop
           style="stop-color:#cecedb;stop-opacity:1"
           offset="0"
           id="stop19" /><stop
           style="stop-color:#7d7d99;stop-opacity:1"
           offset="1"
           id="stop21" /><a:midPointStop
           style="stop-color:#CECEDB"
           offset="0" /><a:midPointStop
           style="stop-color:#CECEDB"
           offset="0.5" /><a:midPointStop
           style="stop-color:#7D7D99"
           offset="1" /></linearGradient><polygon
         points="22.644043,141.27539 22.864258,141.37207 22.644043,141.4707 22.863281,141.56738 22.644043,141.66699 22.864258,141.76367 22.644043,141.8623 22.863281,141.95898 22.644043,142.05566 22.864258,142.15332 22.644043,142.25195 22.863281,142.34863 22.644043,142.44727 22.863281,142.54395 22.644043,142.6416 22.864258,142.73828 22.644043,142.83691 22.863281,142.93359 22.644043,143.03223 22.864258,143.12988 22.644043,143.22852 22.863281,143.3252 22.644043,143.42188 22.864258,143.51855 22.644043,143.61719 22.863281,143.71484 22.644043,143.81348 22.864258,143.91016 22.644043,144.00879 22.863281,144.10547 22.644043,144.20312 22.863281,144.2998 22.644043,144.39844 22.864258,144.49512 22.644043,144.59375 22.863281,144.69141 22.644043,144.78809 22.864258,144.88477 22.644043,144.9834 22.863281,145.08008 22.644043,145.17871 22.864258,145.27637 22.644043,145.375 22.863281,145.47168 22.644043,145.56836 22.864258,145.66504 22.644043,145.76465 22.863281,145.86133 22.644043,145.95996 22.863281,146.05664 22.644043,146.15332 22.864258,146.25098 22.644043,146.34961 22.863281,146.44629 22.644043,146.54492 22.864258,146.6416 22.644043,146.74023 22.863281,146.83789 22.644043,146.93457 22.864258,147.03125 22.644043,147.12988 22.863281,147.22656 22.644043,147.32617 22.863281,147.42285 22.644043,147.51953 22.864258,147.61621 22.644043,147.71484 22.863281,147.8125 22.644043,147.91113 22.864258,148.00781 22.644043,148.10645 22.863281,148.20312 22.644043,148.30078 22.864258,148.39746 22.644043,148.49609 22.863281,148.59277 22.644043,148.69141 22.864258,148.78809 22.644043,148.8877 22.863281,148.98438 22.644043,149.08105 22.863281,149.17773 22.644043,149.27637 22.864258,149.37402 22.644043,149.47266 22.863281,149.56934 22.644043,149.66602 22.864258,149.7627 22.644043,149.8623 22.863281,149.95898 22.644043,150.05762 22.864258,150.1543 22.644043,150.25293 22.863281,150.34961 22.644043,150.44727 22.864258,150.54395 22.644043,150.64258 22.863281,150.73926 22.644043,150.83789 22.863281,150.93555 22.644043,151.03223 22.864258,151.12891 22.644043,151.22754 22.863281,151.32422 22.644043,151.42383 22.864258,151.52051 22.644043,151.61914 22.863281,151.71582 22.644043,151.8125 22.864258,151.91016 22.644043,152.00879 22.863281,152.10547 22.644043,152.2041 22.864258,152.30078 22.644043,152.39941 22.863281,152.49707 22.644043,152.59375 80.111816,177.93848 23.63623,203.18457 23.855469,203.28223 23.63623,203.37891 23.856445,203.47559 23.63623,203.57422 23.855469,203.6709 23.63623,203.77051 23.856445,203.86719 23.63623,203.96582 23.855469,204.0625 23.63623,204.15918 23.856445,204.25684 23.63623,204.35547 23.855469,204.45215 23.63623,204.55078 23.856445,204.64746 23.63623,204.74609 23.855469,204.84375 23.63623,204.94043 23.855469,205.03711 23.63623,205.13574 23.856445,205.23242 23.63623,205.33203 23.855469,205.42871 23.63623,205.52539 23.856445,205.62207 23.63623,205.7207 23.855469,205.81836 23.63623,205.91699 23.856445,206.01367 23.63623,206.1123 23.855469,206.20898 23.63623,206.30566 23.856445,206.40332 23.63623,206.50195 23.855469,206.59863 23.63623,206.69727 23.855469,206.79395 23.63623,206.8916 23.856445,206.98828 23.63623,207.08691 23.855469,207.18359 23.63623,207.28223 23.856445,207.37988 23.63623,207.47852 23.855469,207.5752 23.63623,207.67188 23.856445,207.76855 23.63623,207.86719 23.855469,207.96484 23.63623,208.06348 23.856445,208.16016 23.63623,208.25879 23.855469,208.35547 23.63623,208.45312 23.855469,208.5498 23.63623,208.64844 23.856445,208.74512 23.63623,208.84375 23.855469,208.94141 23.63623,209.03809 23.856445,209.13477 23.63623,209.2334 23.855469,209.33008 23.63623,209.42969 23.856445,209.52637 23.63623,209.625 23.855469,209.72168 23.63623,209.81836 23.855469,209.91504 23.63623,210.01465 23.856445,210.11133 23.63623,210.20996 23.855469,210.30664 23.63623,210.40332 23.856445,210.50098 23.63623,210.59961 23.855469,210.69629 23.63623,210.79492 23.856445,210.8916 23.63623,210.99121 23.855469,211.08789 23.63623,211.18457 23.856445,211.28125 23.63623,211.37988 23.855469,211.47656 23.63623,211.57617 23.855469,211.67285 23.63623,211.76953 23.856445,211.86621 23.63623,211.96484 23.855469,212.0625 23.63623,212.16113 23.856445,212.25781 23.63623,212.35645 23.855469,212.45312 23.63623,212.55078 23.856445,212.64746 23.63623,212.74609 23.855469,212.84277 23.63623,212.94141 23.856445,213.03906 23.63623,213.1377 23.855469,213.23438 23.63623,213.33105 23.855469,213.42773 23.63623,213.52637 23.856445,213.62402 23.63623,213.72266 23.855469,213.81934 23.63623,213.91602 23.856445,214.0127 23.63623,214.1123 23.855469,214.20898 23.63623,214.30762 23.856445,214.4043 23.63623,214.50293 23.855469,214.60059 23.63623,214.69727 23.856445,214.79395 23.63623,214.89258 23.855469,214.98926 23.63623,215.08789 94.306641,246.25488 163.91992,215.13867 163.87109,215.11719 233.35547,184.05664 233.13672,183.95996 233.35547,183.86133 233.13672,183.76465 233.35547,183.66602 233.13672,183.56836 233.35547,183.47168 233.13672,183.375 233.35547,183.27637 233.13672,183.17969 233.35547,183.08008 233.13672,182.9834 233.35547,182.88477 233.13672,182.78809 233.35547,182.69141 233.13672,182.59473 233.35547,182.49512 233.13672,182.39844 233.35547,182.2998 233.13672,182.20312 233.35547,182.10645 233.13672,182.00879 233.35547,181.91016 233.13672,181.81348 233.35547,181.71484 233.13672,181.61816 233.35547,181.51855 233.13672,181.42188 233.35547,181.3252 233.13672,181.22852 233.35547,181.12988 233.13672,181.0332 233.35547,180.93359 233.13672,180.83691 233.35547,180.73828 233.13672,180.6416 233.35547,180.54492 233.13672,180.44727 233.35547,180.34863 233.13672,180.25195 233.35547,180.15332 233.13672,180.05664 233.35547,179.95898 233.13672,179.8623 233.35547,179.76367 233.13672,179.66699 233.35547,179.56836 233.13672,179.4707 233.35547,179.37207 233.13672,179.27539 233.35547,179.17871 233.13672,179.08203 233.35547,178.9834 233.13672,178.88574 233.35547,178.78711 233.13672,178.69043 233.35547,178.59375 233.13672,178.49707 233.35547,178.39746 233.13672,178.30078 233.35547,178.20215 233.13672,178.10547 233.35547,178.00684 233.13672,177.90918 233.35547,177.8125 233.13672,177.71582 233.35547,177.61719 233.13672,177.52051 233.35547,177.42188 233.13672,177.32422 233.35547,177.22754 233.13672,177.13086 233.35547,177.03223 233.13672,176.93555 233.35547,176.83594 233.13672,176.73926 233.35547,176.64062 233.13672,176.54395 233.35547,176.44727 233.13672,176.34961 233.35547,176.25098 233.13672,176.1543 233.35547,176.05566 233.13672,175.95898 233.35547,175.85938 233.13672,175.7627 233.35547,175.66602 233.13672,175.56934 233.35547,175.4707 233.13672,175.37402 233.35547,175.27441 233.13672,175.17773 233.35547,175.08105 233.13672,174.98438 233.35547,174.88574 233.13672,174.78809 233.35547,174.68945 233.13672,174.59277 233.35547,174.49414 233.13672,174.39746 233.35547,174.2998 233.13672,174.20312 233.35547,174.10449 233.13672,174.00781 233.35547,173.90918 233.13672,173.8125 233.35547,173.71484 233.13672,173.61816 233.35547,173.51953 233.13672,173.42285 233.35547,173.32422 233.13672,173.22656 233.35547,173.12793 233.13672,173.03125 233.35547,172.93457 233.13672,172.83789 233.35547,172.73828 233.13672,172.6416 233.35547,172.54297 233.13672,172.44629 233.35547,172.34766 233.13672,172.25 233.13672,172.25 233.35547,172.15332 162.75195,141.01367 162.92773,140.93652 162.70898,140.83984 162.92773,140.74023 92.256836,109.57275 22.644043,140.69043 22.863281,140.78711 22.644043,140.88574 22.864258,140.98242 22.644043,141.08203 22.863281,141.17871 "
         style="fill:url(#XMLID_16_)"
         id="polygon23" /><linearGradient
         x1="31.683594"
         y1="177.91406"
         x2="224.31596"
         y2="177.91406"
         id="XMLID_17_"
         gradientUnits="userSpaceOnUse"><stop
           style="stop-color:#cecedb;stop-opacity:1"
           offset="0"
           id="stop26" /><stop
           style="stop-color:#333366;stop-opacity:1"
           offset="1"
           id="stop28" /><a:midPointStop
           style="stop-color:#CECEDB"
           offset="0" /><a:midPointStop
           style="stop-color:#CECEDB"
           offset="0.5" /><a:midPointStop
           style="stop-color:#333366"
           offset="1" /></linearGradient><polygon
         points="22.644043,141.27539 22.864258,141.37207 22.644043,141.4707 22.863281,141.56738 22.644043,141.66699 22.864258,141.76367 22.644043,141.8623 22.863281,141.95898 22.644043,142.05566 22.864258,142.15332 22.644043,142.25195 22.863281,142.34863 22.644043,142.44727 22.863281,142.54395 22.644043,142.6416 22.864258,142.73828 22.644043,142.83691 22.863281,142.93359 22.644043,143.03223 22.864258,143.12988 22.644043,143.22852 22.863281,143.3252 22.644043,143.42188 22.864258,143.51855 22.644043,143.61719 22.863281,143.71484 22.644043,143.81348 22.864258,143.91016 22.644043,144.00879 22.863281,144.10547 22.644043,144.20312 22.863281,144.2998 22.644043,144.39844 22.864258,144.49512 22.644043,144.59375 22.863281,144.69141 22.644043,144.78809 22.864258,144.88477 22.644043,144.9834 22.863281,145.08008 22.644043,145.17871 22.864258,145.27637 22.644043,145.375 22.863281,145.47168 22.644043,145.56836 22.864258,145.66504 22.644043,145.76465 22.863281,145.86133 22.644043,145.95996 22.863281,146.05664 22.644043,146.15332 22.864258,146.25098 22.644043,146.34961 22.863281,146.44629 22.644043,146.54492 22.864258,146.6416 22.644043,146.74023 22.863281,146.83789 22.644043,146.93457 22.864258,147.03125 22.644043,147.12988 22.863281,147.22656 22.644043,147.32617 22.863281,147.42285 22.644043,147.51953 22.864258,147.61621 22.644043,147.71484 22.863281,147.8125 22.644043,147.91113 22.864258,148.00781 22.644043,148.10645 22.863281,148.20312 22.644043,148.30078 22.864258,148.39746 22.644043,148.49609 22.863281,148.59277 22.644043,148.69141 22.864258,148.78809 22.644043,148.8877 22.863281,148.98438 22.644043,149.08105 22.863281,149.17773 22.644043,149.27637 22.864258,149.37402 22.644043,149.47266 22.863281,149.56934 22.644043,149.66602 22.864258,149.7627 22.644043,149.8623 22.863281,149.95898 22.644043,150.05762 22.864258,150.1543 22.644043,150.25293 22.863281,150.34961 22.644043,150.44727 22.864258,150.54395 22.644043,150.64258 22.863281,150.73926 22.644043,150.83789 22.863281,150.93555 22.644043,151.03223 22.864258,151.12891 22.644043,151.22754 22.863281,151.32422 22.644043,151.42383 22.864258,151.52051 22.644043,151.61914 22.863281,151.71582 22.644043,151.8125 22.864258,151.91016 22.644043,152.00879 22.863281,152.10547 22.644043,152.2041 22.864258,152.30078 22.644043,152.39941 22.863281,152.49707 22.644043,152.59375 80.111816,177.93848 23.63623,203.18457 23.855469,203.28223 23.63623,203.37891 23.856445,203.47559 23.63623,203.57422 23.855469,203.6709 23.63623,203.77051 23.856445,203.86719 23.63623,203.96582 23.855469,204.0625 23.63623,204.15918 23.856445,204.25684 23.63623,204.35547 23.855469,204.45215 23.63623,204.55078 23.856445,204.64746 23.63623,204.74609 23.855469,204.84375 23.63623,204.94043 23.855469,205.03711 23.63623,205.13574 23.856445,205.23242 23.63623,205.33203 23.855469,205.42871 23.63623,205.52539 23.856445,205.62207 23.63623,205.7207 23.855469,205.81836 23.63623,205.91699 23.856445,206.01367 23.63623,206.1123 23.855469,206.20898 23.63623,206.30566 23.856445,206.40332 23.63623,206.50195 23.855469,206.59863 23.63623,206.69727 23.855469,206.79395 23.63623,206.8916 23.856445,206.98828 23.63623,207.08691 23.855469,207.18359 23.63623,207.28223 23.856445,207.37988 23.63623,207.47852 23.855469,207.5752 23.63623,207.67188 23.856445,207.76855 23.63623,207.86719 23.855469,207.96484 23.63623,208.06348 23.856445,208.16016 23.63623,208.25879 23.855469,208.35547 23.63623,208.45312 23.855469,208.5498 23.63623,208.64844 23.856445,208.74512 23.63623,208.84375 23.855469,208.94141 23.63623,209.03809 23.856445,209.13477 23.63623,209.2334 23.855469,209.33008 23.63623,209.42969 23.856445,209.52637 23.63623,209.625 23.855469,209.72168 23.63623,209.81836 23.855469,209.91504 23.63623,210.01465 23.856445,210.11133 23.63623,210.20996 23.855469,210.30664 23.63623,210.40332 23.856445,210.50098 23.63623,210.59961 23.855469,210.69629 23.63623,210.79492 23.856445,210.8916 23.63623,210.99121 23.855469,211.08789 23.63623,211.18457 23.856445,211.28125 23.63623,211.37988 23.855469,211.47656 23.63623,211.57617 23.855469,211.67285 23.63623,211.76953 23.856445,211.86621 23.63623,211.96484 23.855469,212.0625 23.63623,212.16113 23.856445,212.25781 23.63623,212.35645 23.855469,212.45312 23.63623,212.55078 23.856445,212.64746 23.63623,212.74609 23.855469,212.84277 23.63623,212.94141 23.856445,213.03906 23.63623,213.1377 23.855469,213.23438 23.63623,213.33105 23.855469,213.42773 23.63623,213.52637 23.856445,213.62402 23.63623,213.72266 23.855469,213.81934 23.63623,213.91602 23.856445,214.0127 23.63623,214.1123 23.855469,214.20898 23.63623,214.30762 23.856445,214.4043 23.63623,214.50293 23.855469,214.60059 23.63623,214.69727 23.856445,214.79395 23.63623,214.89258 23.855469,214.98926 23.63623,215.08789 94.306641,246.25488 163.91992,215.13867 163.87109,215.11719 233.35547,184.05664 233.13672,183.95996 233.35547,183.86133 233.13672,183.76465 233.35547,183.66602 233.13672,183.56836 233.35547,183.47168 233.13672,183.375 233.35547,183.27637 233.13672,183.17969 233.35547,183.08008 233.13672,182.9834 233.35547,182.88477 233.13672,182.78809 233.35547,182.69141 233.13672,182.59473 233.35547,182.49512 233.13672,182.39844 233.35547,182.2998 233.13672,182.20312 233.35547,182.10645 233.13672,182.00879 233.35547,181.91016 233.13672,181.81348 233.35547,181.71484 233.13672,181.61816 233.35547,181.51855 233.13672,181.42188 233.35547,181.3252 233.13672,181.22852 233.35547,181.12988 233.13672,181.0332 233.35547,180.93359 233.13672,180.83691 233.35547,180.73828 233.13672,180.6416 233.35547,180.54492 233.13672,180.44727 233.35547,180.34863 233.13672,180.25195 233.35547,180.15332 233.13672,180.05664 233.35547,179.95898 233.13672,179.8623 233.35547,179.76367 233.13672,179.66699 233.35547,179.56836 233.13672,179.4707 233.35547,179.37207 233.13672,179.27539 233.35547,179.17871 233.13672,179.08203 233.35547,178.9834 233.13672,178.88574 233.35547,178.78711 233.13672,178.69043 233.35547,178.59375 233.13672,178.49707 233.35547,178.39746 233.13672,178.30078 233.35547,178.20215 233.13672,178.10547 233.35547,178.00684 233.13672,177.90918 233.35547,177.8125 233.13672,177.71582 233.35547,177.61719 233.13672,177.52051 233.35547,177.42188 233.13672,177.32422 233.35547,177.22754 233.13672,177.13086 233.35547,177.03223 233.13672,176.93555 233.35547,176.83594 233.13672,176.73926 233.35547,176.64062 233.13672,176.54395 233.35547,176.44727 233.13672,176.34961 233.35547,176.25098 233.13672,176.1543 233.35547,176.05566 233.13672,175.95898 233.35547,175.85938 233.13672,175.7627 233.35547,175.66602 233.13672,175.56934 233.35547,175.4707 233.13672,175.37402 233.35547,175.27441 233.13672,175.17773 233.35547,175.08105 233.13672,174.98438 233.35547,174.88574 233.13672,174.78809 233.35547,174.68945 233.13672,174.59277 233.35547,174.49414 233.13672,174.39746 233.35547,174.2998 233.13672,174.20312 233.35547,174.10449 233.13672,174.00781 233.35547,173.90918 233.13672,173.8125 233.35547,173.71484 233.13672,173.61816 233.35547,173.51953 233.13672,173.42285 233.35547,173.32422 233.13672,173.22656 233.35547,173.12793 233.13672,173.03125 233.35547,172.93457 233.13672,172.83789 233.35547,172.73828 233.13672,172.6416 233.35547,172.54297 233.13672,172.44629 233.35547,172.34766 233.13672,172.25 233.13672,172.25 233.35547,172.15332 162.75195,141.01367 162.92773,140.93652 162.70898,140.83984 162.92773,140.74023 92.256836,109.57275 22.644043,140.69043 22.863281,140.78711 22.644043,140.88574 22.864258,140.98242 22.644043,141.08203 22.863281,141.17871 "
         style="fill:url(#XMLID_17_)"
         id="polygon30" /><linearGradient
         x1="29.923828"
         y1="-181.63818"
         x2="120.60237"
         y2="-181.63818"
         id="XMLID_18_"
         gradientUnits="userSpaceOnUse"
         gradientTransform="matrix(0.7069,0.7074,-0.7074,0.7069,-18.47993,247.2877)"><stop
           style="stop-color:#e6edff;stop-opacity:1"
           offset="0"
           id="stop33" /><stop
           style="stop-color:#9a9ab1;stop-opacity:1"
           offset="1"
           id="stop35" /><a:midPointStop
           style="stop-color:#E6EDFF"
           offset="0" /><a:midPointStop
           style="stop-color:#E6EDFF"
           offset="0.5" /><a:midPointStop
           style="stop-color:#9A9AB1"
           offset="1" /></linearGradient><polygon
         points="163.74219,203.27051 93.072754,172.10352 93.072754,172.10352 162.68555,140.98438 233.35547,172.15332 "
         style="fill:url(#XMLID_18_)"
         id="polygon37" /><linearGradient
         x1="99.09082"
         y1="172.12695"
         x2="227.33727"
         y2="172.12695"
         id="XMLID_19_"
         gradientUnits="userSpaceOnUse"><stop
           style="stop-color:#ffffff;stop-opacity:1"
           offset="0"
           id="stop40" /><stop
           style="stop-color:#585868;stop-opacity:1"
           offset="1"
           id="stop42" /><a:midPointStop
           style="stop-color:#FFFFFF"
           offset="0" /><a:midPointStop
           style="stop-color:#FFFFFF"
           offset="0.5" /><a:midPointStop
           style="stop-color:#585868"
           offset="1" /></linearGradient><path
         d="m 162.68555,140.98438 -69.612796,31.11914 70.669436,31.16699 69.61328,-31.11719 -70.66992,-31.16894 z m 1.05468,61.20117 c -0.77343,-0.34082 -64.391109,-28.39844 -68.22314,-30.08789 3.820312,-1.70899 66.39893,-29.6836 67.17041,-30.02832 0.77344,0.34277 64.39063,28.39843 68.22461,30.08984 -3.82031,1.70703 -66.40039,29.68164 -67.17188,30.02637 z"
         style="fill:url(#XMLID_19_)"
         id="path44"
         inkscape:connector-curvature="0" /><linearGradient
         x1="91.435547"
         y1="203.19434"
         x2="198.5663"
         y2="203.85588"
         id="XMLID_20_"
         gradientUnits="userSpaceOnUse"><stop
           style="stop-color:#e6edff;stop-opacity:1"
           offset="0"
           id="stop47" /><stop
           style="stop-color:#7d7d99;stop-opacity:1"
           offset="1"
           id="stop49" /><a:midPointStop
           style="stop-color:#E6EDFF"
           offset="0" /><a:midPointStop
           style="stop-color:#E6EDFF"
           offset="0.5" /><a:midPointStop
           style="stop-color:#7D7D99"
           offset="1" /></linearGradient><polygon
         points="94.306641,234.35156 23.63623,203.18457 23.63623,203.18457 93.249023,172.06641 163.91992,203.23535 "
         style="fill:url(#XMLID_20_)"
         id="polygon51" /><linearGradient
         x1="29.79834"
         y1="140.71582"
         x2="172.74742"
         y2="140.71582"
         id="XMLID_21_"
         gradientUnits="userSpaceOnUse"><stop
           style="stop-color:#ffffff;stop-opacity:1"
           offset="0"
           id="stop54" /><stop
           style="stop-color:#eef2ff;stop-opacity:1"
           offset="0.2130812"
           id="stop56" /><stop
           style="stop-color:#e6edff;stop-opacity:1"
           offset="0.37640399"
           id="stop58" /><stop
           style="stop-color:#9a9ab1;stop-opacity:1"
           offset="1"
           id="stop60" /><a:midPointStop
           style="stop-color:#FFFFFF"
           offset="0" /><a:midPointStop
           style="stop-color:#FFFFFF"
           offset="0.382353" /><a:midPointStop
           style="stop-color:#E6EDFF"
           offset="0.376404" /><a:midPointStop
           style="stop-color:#E6EDFF"
           offset="0.5" /><a:midPointStop
           style="stop-color:#9A9AB1"
           offset="1" /></linearGradient><polygon
         points="93.314941,171.85938 22.644043,140.69043 22.644043,140.69043 92.256836,109.57275 162.92773,140.74023 "
         style="fill:url(#XMLID_21_)"
         id="polygon62" /><g
         id="g64"><radialGradient
           cx="35.915039"
           cy="179.12402"
           r="117.04955"
           fx="35.915039"
           fy="179.12402"
           id="XMLID_22_"
           gradientUnits="userSpaceOnUse"><stop
             style="stop-color:#ffffff;stop-opacity:1"
             offset="0"
             id="stop67" /><stop
             style="stop-color:#ececff;stop-opacity:1"
             offset="0.67742008"
             id="stop69" /><stop
             style="stop-color:#e1e1ff;stop-opacity:1"
             offset="1"
             id="stop71" /><a:midPointStop
             style="stop-color:#FFFFFF"
             offset="0" /><a:midPointStop
             style="stop-color:#FFFFFF"
             offset="0.548022" /><a:midPointStop
             style="stop-color:#E1E1FF"
             offset="1" /></radialGradient><path
           d="M 114.54834,162.36816 C 92.699219,149.53809 56.699707,144.58594 27.381836,142.78027 l 65.933105,29.07911 21.233399,-9.49122 z"
           style="fill:url(#XMLID_22_)"
           id="path73"
           inkscape:connector-curvature="0" /><radialGradient
           cx="35.909668"
           cy="179.12305"
           r="117.05299"
           fx="35.909668"
           fy="179.12305"
           id="XMLID_23_"
           gradientUnits="userSpaceOnUse"><stop
             style="stop-color:#ffffff;stop-opacity:1"
             offset="0"
             id="stop76" /><stop
             style="stop-color:#ececff;stop-opacity:1"
             offset="0.67742008"
             id="stop78" /><stop
             style="stop-color:#e1e1ff;stop-opacity:1"
             offset="1"
             id="stop80" /><a:midPointStop
             style="stop-color:#FFFFFF"
             offset="0" /><a:midPointStop
             style="stop-color:#FFFFFF"
             offset="0.548022" /><a:midPointStop
             style="stop-color:#E1E1FF"
             offset="1" /></radialGradient><path
           d="M 93.249023,172.06641 23.63623,203.18457 63.273926,220.66602 C 71.786621,208.46973 128.0249,209.14844 133.11914,189.65039 L 93.249023,172.06641 Z"
           style="fill:url(#XMLID_23_)"
           id="path82"
           inkscape:connector-curvature="0" /></g><linearGradient
         x1="157.90137"
         y1="203.20898"
         x2="29.654465"
         y2="203.209"
         id="XMLID_24_"
         gradientUnits="userSpaceOnUse"><stop
           style="stop-color:#ffffff;stop-opacity:1"
           offset="0"
           id="stop85" /><stop
           style="stop-color:#585868;stop-opacity:1"
           offset="1"
           id="stop87" /><a:midPointStop
           style="stop-color:#FFFFFF"
           offset="0" /><a:midPointStop
           style="stop-color:#FFFFFF"
           offset="0.5" /><a:midPointStop
           style="stop-color:#585868"
           offset="1" /></linearGradient><path
         d="M 93.249023,172.06641 23.63623,203.18457 94.306641,234.35156 163.91992,203.23535 93.249023,172.06641 Z m 1.054688,61.20019 c -0.773438,-0.34082 -64.391113,-28.39844 -68.223145,-30.08789 3.820801,-1.70801 66.399414,-29.68262 67.171387,-30.02734 0.773438,0.34277 64.390627,28.39843 68.222657,30.08984 -3.82031,1.70703 -66.399415,29.68067 -67.170899,30.02539 z"
         style="fill:url(#XMLID_24_)"
         id="path89"
         inkscape:connector-curvature="0" /><linearGradient
         x1="156.90918"
         y1="140.71582"
         x2="28.662277"
         y2="140.71584"
         id="XMLID_25_"
         gradientUnits="userSpaceOnUse"><stop
           style="stop-color:#ffffff;stop-opacity:1"
           offset="0"
           id="stop92" /><stop
           style="stop-color:#585868;stop-opacity:1"
           offset="1"
           id="stop94" /><a:midPointStop
           style="stop-color:#FFFFFF"
           offset="0" /><a:midPointStop
           style="stop-color:#FFFFFF"
           offset="0.5" /><a:midPointStop
           style="stop-color:#585868"
           offset="1" /></linearGradient><path
         d="m 92.256836,109.57275 -69.612793,31.11768 70.670898,31.16894 69.612789,-31.11914 -70.670894,-31.16748 z m 1.055176,61.20166 c -0.773926,-0.34277 -64.391114,-28.39843 -68.223633,-30.08984 3.820801,-1.70703 66.399902,-29.68115 67.171387,-30.02588 0.773437,0.34082 64.390624,28.39795 68.224614,30.0874 -3.82227,1.70899 -66.400884,29.6836 -67.172368,30.02832 z"
         style="fill:url(#XMLID_25_)"
         id="path96"
         inkscape:connector-curvature="0" /><g
         style="opacity:0.3"
         id="g98"><path
           d="m 154.22656,136.90234 -16.20117,1.5 c -1.76367,0.16211 -3.38672,0.55176 -4.09961,0.98633 -0.71484,0.4336 -0.37891,0.8252 0.84961,0.98731 l 22.33008,2.96875 5.82226,-2.6045 -8.70117,-3.83789 z"
           id="path100"
           inkscape:connector-curvature="0" /><polygon
           points="157.33984,143.375 172.74805,145.42285 162.68555,140.98438 162.68555,140.98438 "
           id="polygon102" /><path
           d="m 191.68945,153.77734 -33.94922,20.62989 c -0.96875,0.58886 16.25391,0.58886 17.22266,0 l 26.70508,-16.22852 -9.97852,-4.40137 z"
           id="path104"
           inkscape:connector-curvature="0" /></g><linearGradient
         x1="75.570312"
         y1="90.3125"
         x2="174.23633"
         y2="90.3125"
         id="XMLID_26_"
         gradientUnits="userSpaceOnUse"><stop
           style="stop-color:#990000;stop-opacity:1"
           offset="0"
           id="stop107" /><stop
           style="stop-color:#600000;stop-opacity:1"
           offset="1"
           id="stop109" /><a:midPointStop
           style="stop-color:#990000"
           offset="0" /><a:midPointStop
           style="stop-color:#990000"
           offset="0.5" /><a:midPointStop
           style="stop-color:#600000"
           offset="1" /></linearGradient><path
         d="m 170.26758,5.7763672 -9.28711,0 c -0.008,0 -0.0156,0.00293 -0.0234,0.00293 -0.23242,9.766e-4 -0.46484,0.027344 -0.69531,0.069824 -0.0527,0.00977 -0.10547,0.02002 -0.15625,0.031738 -0.20899,0.047363 -0.41602,0.1054688 -0.61719,0.1870117 l -0.043,0.018555 c -0.006,0.00195 -0.01,0.00293 -0.0137,0.00488 L 78.04541,39.14209 c -1.496094,0.607422 -2.475098,2.061523 -2.475098,3.676269 0,1.614746 0.979004,3.068848 2.475098,3.67627 l 78.96826,32.068848 0,94.642573 c 0,2.19043 17.22266,2.19043 17.22266,0 l 0,-163.4619094 c 0,-2.1914062 -1.77735,-3.9677734 -3.96875,-3.9677734 z"
         style="fill:url(#XMLID_26_)"
         id="path111"
         inkscape:connector-curvature="0" /><linearGradient
         x1="79.538086"
         y1="42.818359"
         x2="160.98047"
         y2="42.818359"
         id="XMLID_27_"
         gradientUnits="userSpaceOnUse"><stop
           style="stop-color:#ff0000;stop-opacity:1"
           offset="0"
           id="stop114" /><stop
           style="stop-color:#990000;stop-opacity:1"
           offset="0.94382012"
           id="stop116" /><stop
           style="stop-color:#7c0000;stop-opacity:1"
           offset="1"
           id="stop118" /><a:midPointStop
           style="stop-color:#FF0000"
           offset="0" /><a:midPointStop
           style="stop-color:#FF0000"
           offset="0.5" /><a:midPointStop
           style="stop-color:#990000"
           offset="0.9438201" /><a:midPointStop
           style="stop-color:#990000"
           offset="0.5" /><a:midPointStop
           style="stop-color:#7C0000"
           offset="1" /></linearGradient><polygon
         points="79.538086,42.818359 160.98047,9.7441406 160.98047,75.893066 160.98047,75.893066 "
         style="fill:url(#XMLID_27_)"
         id="polygon120" /><linearGradient
         x1="160.98047"
         y1="91.475098"
         x2="170.26758"
         y2="91.475098"
         id="XMLID_28_"
         gradientUnits="userSpaceOnUse"><stop
           style="stop-color:#824f26;stop-opacity:1"
           offset="0"
           id="stop123" /><stop
           style="stop-color:#d6a84a;stop-opacity:1"
           offset="0.20224699"
           id="stop125" /><stop
           style="stop-color:#ffe091;stop-opacity:1"
           offset="0.348315"
           id="stop127" /><stop
           style="stop-color:#996600;stop-opacity:1"
           offset="1"
           id="stop129" /><a:midPointStop
           style="stop-color:#824F26"
           offset="0" /><a:midPointStop
           style="stop-color:#824F26"
           offset="0.5" /><a:midPointStop
           style="stop-color:#D6A84A"
           offset="0.202247" /><a:midPointStop
           style="stop-color:#D6A84A"
           offset="0.5" /><a:midPointStop
           style="stop-color:#FFE091"
           offset="0.348315" /><a:midPointStop
           style="stop-color:#FFE091"
           offset="0.5" /><a:midPointStop
           style="stop-color:#996600"
           offset="1" /></linearGradient><rect
         width="9.2871094"
         height="163.46191"
         x="160.98047"
         y="9.7441406"
         style="fill:url(#XMLID_28_)"
         id="rect131" /></g></g></svg>