<?xml version="1.0" encoding="UTF-8" standalone="no"?>
<svg
   xmlns:dc="http://purl.org/dc/elements/1.1/"
   xmlns:cc="http://creativecommons.org/ns#"
   xmlns:rdf="http://www.w3.org/1999/02/22-rdf-syntax-ns#"
   xmlns:svg="http://www.w3.org/2000/svg"
   xmlns="http://www.w3.org/2000/svg"
   xmlns:sodipodi="http://sodipodi.sourceforge.net/DTD/sodipodi-0.dtd"
   xmlns:inkscape="http://www.inkscape.org/namespaces/inkscape"
   height="128"
   version="1.1"
   width="128"
   viewBox="0 0 128 128"
   id="svg2"
   inkscape:version="0.91 r13725"
   sodipodi:docname="order-course.svg">
  <metadata
     id="metadata18">
    <rdf:RDF>
      <cc:Work
         rdf:about="">
        <dc:format>image/svg+xml</dc:format>
        <dc:type
           rdf:resource="http://purl.org/dc/dcmitype/StillImage" />
        <dc:title />
      </cc:Work>
    </rdf:RDF>
  </metadata>
  <defs
     id="defs16" />
  <sodipodi:namedview
     pagecolor="#ffffff"
     bordercolor="#666666"
     borderopacity="1"
     objecttolerance="10"
     gridtolerance="10"
     guidetolerance="10"
     inkscape:pageopacity="0"
     inkscape:pageshadow="2"
     inkscape:window-width="1325"
     inkscape:window-height="747"
     id="namedview14"
     showgrid="false"
     inkscape:zoom="1.7383042"
     inkscape:cx="39.41118"
     inkscape:cy="20.0049"
     inkscape:window-x="41"
     inkscape:window-y="21"
     inkscape:window-maximized="1"
     inkscape:current-layer="svg2" />
  <g
     id="g8037"
     transform="matrix(4.2666667,0,0,4.2666667,-852.52488,-2855.7922)">
    <rect
       style="opacity:0;fill:#d45500;fill-opacity:0.99215686;stroke:none"
       id="rect14621"
       width="30"
       height="30"
       x="199.81052"
       y="669.32629" />
    <g
       id="g6351">
      <path
         style="fill:#e3e2db;stroke:none"
         d="m 200.34847,688.51857 11.54853,6.54761 16.44634,-9.53785 -11.03297,-5.36182 z"
         id="path14569"
         inkscape:connector-curvature="0" />
      <path
         inkscape:connector-curvature="0"
         id="path14571"
         d="m 200.34847,686.81722 11.54853,6.54761 16.44634,-9.53785 -11.03297,-5.36182 z"
         style="fill:#c8c4b7;stroke:none" />
      <path
         style="fill:#918a6f;fill-opacity:1;stroke:none"
         d="m 200.34847,685.66378 11.54853,6.54761 16.44634,-9.53785 -11.03297,-5.36182 z"
         id="path14573"
         inkscape:connector-curvature="0" />
      <path
         inkscape:connector-curvature="0"
         id="path14575"
         d="m 200.34847,684.06555 11.54853,6.54761 16.44634,-9.53785 -11.03297,-5.36182 z"
         style="fill:#87decd;fill-opacity:1;stroke:none" />
      <path
         style="fill:#0088aa;fill-opacity:1;stroke:none"
         d="m 200.52892,682.66192 5.33547,2.90571 c 3.26024,0.66747 4.71749,-0.46804 5.80061,-1.9777 1.36586,1.8529 3.2306,2.49424 5.55881,2.01001 l 10.93908,-5.82515 -11.49697,-6.4445 z"
         id="path14577"
         inkscape:connector-curvature="0"
         sodipodi:nodetypes="ccccccc" />
      <path
         inkscape:connector-curvature="0"
         id="path14604"
         d="m 224.54791,694.88793 -5.1,-5.1 2.55,0 0,-7.65 5.1,0 0,7.65 2.55,0 -5.1,5.1 z"
         style="fill:#ff6600;fill-opacity:1" />
      <path
         style="fill:#ff0000;fill-opacity:1"
         d="m 216.59296,678.77917 -5.1,5.1 2.55,0 0,7.65 5.1,0 0,-7.65 2.55,0 -5.1,-5.1 z"
         id="path14685"
         inkscape:connector-curvature="0" />
    </g>
  </g>
</svg>
