<?xml version="1.0" encoding="UTF-8" standalone="no"?>
<svg
   xmlns:dc="http://purl.org/dc/elements/1.1/"
   xmlns:cc="http://creativecommons.org/ns#"
   xmlns:rdf="http://www.w3.org/1999/02/22-rdf-syntax-ns#"
   xmlns:svg="http://www.w3.org/2000/svg"
   xmlns="http://www.w3.org/2000/svg"
   xmlns:sodipodi="http://sodipodi.sourceforge.net/DTD/sodipodi-0.dtd"
   xmlns:inkscape="http://www.inkscape.org/namespaces/inkscape"
   height="128"
   version="1.1"
   width="128"
   id="svg2"
viewBox="0 0 128 128"
   inkscape:version="0.91 r"
   sodipodi:docname="pdf.svg">
  <metadata
     id="metadata20">
    <rdf:RDF>
      <cc:Work
         rdf:about="">
        <dc:format>image/svg+xml</dc:format>
        <dc:type
           rdf:resource="http://purl.org/dc/dcmitype/StillImage" />
        <dc:title />
      </cc:Work>
    </rdf:RDF>
  </metadata>
  <defs
     id="defs18">
    <linearGradient
       id="XMLID_8_"
       gradientUnits="userSpaceOnUse"
       x1="74.5"
       y1="5.0479002"
       x2="74.5"
       y2="124.2402">
      <stop
         offset="0"
         style="stop-color:#FFFFFF"
         id="stop4539" />
      <stop
         offset="1"
         style="stop-color:#E1E1DF"
         id="stop4541" />
    </linearGradient>
    <linearGradient
       id="XMLID_9_"
       gradientUnits="userSpaceOnUse"
       x1="74.5"
       y1="11.0811"
       x2="74.5"
       y2="121.4673">
      <stop
         offset="0"
         style="stop-color:#FDFDFD"
         id="stop4546" />
      <stop
         offset="0.2985"
         style="stop-color:#F3F2F2"
         id="stop4548" />
      <stop
         offset="0.8174"
         style="stop-color:#D7D6D6"
         id="stop4550" />
      <stop
         offset="1"
         style="stop-color:#CCCBCA"
         id="stop4552" />
    </linearGradient>
    <radialGradient
       id="XMLID_10_"
       cx="110"
       cy="32.869099"
       r="15.5963"
       gradientUnits="userSpaceOnUse">
      <stop
         offset="0.2135"
         style="stop-color:#8E8E8F"
         id="stop4557" />
      <stop
         offset="0.927"
         style="stop-color:#EEEEEE"
         id="stop4559" />
    </radialGradient>
    <linearGradient
       id="XMLID_11_"
       gradientUnits="userSpaceOnUse"
       x1="92.023399"
       y1="9.9473"
       x2="104.2735"
       y2="32.947201">
      <stop
         offset="0"
         style="stop-color:#FFFEFE"
         id="stop4566" />
      <stop
         offset="1"
         style="stop-color:#CFD0D0"
         id="stop4568" />
    </linearGradient>
    <linearGradient
       id="XMLID_12_"
       gradientUnits="userSpaceOnUse"
       x1="99.530296"
       y1="5.1806998"
       x2="105.9053"
       y2="31.930599">
      <stop
         offset="0"
         style="stop-color:#FCFDFD"
         id="stop4573" />
      <stop
         offset="1"
         style="stop-color:#EEEEEE"
         id="stop4575" />
    </linearGradient>
    <style
       id="style4989">
      .cls-1 {
        fill: #cb0606;
      }

      .cls-1, .cls-2, .cls-3 {
        fill-rule: evenodd;
      }

      .cls-2 {
        fill: #fb8d8d;
      }

      .cls-3 {
        fill: #fff;
      }
    </style>
  </defs>
  <sodipodi:namedview
     pagecolor="#ffffff"
     bordercolor="#666666"
     borderopacity="1"
     objecttolerance="10"
     gridtolerance="10"
     guidetolerance="10"
     inkscape:pageopacity="0"
     inkscape:pageshadow="2"
     inkscape:window-width="1920"
     inkscape:window-height="1051"
     id="namedview16"
     showgrid="false"
     inkscape:zoom="4.9166667"
     inkscape:cx="78.106638"
     inkscape:cy="56.946152"
     inkscape:window-x="1366"
     inkscape:window-y="0"
     inkscape:window-maximized="1"
     inkscape:current-layer="svg2" />
  <g
     id="g4184"
     inkscape:export-filename="/var/www/chamilo/main/img/icons/32/pdf.png"
     inkscape:export-xdpi="22.583731"
     inkscape:export-ydpi="22.583731">
    <rect
       y="0.27118731"
       x="0"
       height="127.52544"
       width="128.13559"
       id="rect4182"
       style="opacity:0.65040002;fill:#2b1100;fill-opacity:0;stroke:none;stroke-width:1.10000002;stroke-linecap:round;stroke-linejoin:round;stroke-miterlimit:4;stroke-dasharray:none;stroke-dashoffset:0;stroke-opacity:1" />
    <g
       transform="translate(-0.9380895,0.46451651)"
       id="g4165">
      <g
         transform="matrix(1.0333334,0,0,1.0333334,-11.977454,-4.6306154)"
         id="g5149">
        <path
           style="opacity:0.2"
           inkscape:connector-curvature="0"
           id="path4532"
           d="M 30.666,7 C 28.816,7 27,8.83 27,10.694 c 0,106.39 0,106.39 0,109.807 0,3.917 4,4.499 4,4.499 l 87,0 c 0,0 4,-0.268 4,-4.018 0,-3.75 0,-78.479 0,-78.479 C 122,37.306 94.325,7 87.135,7 L 30.666,7 Z" />
        <path
           style="opacity:0.2"
           inkscape:connector-curvature="0"
           id="path4534"
           d="M 30.666,8 C 28.816,8 27,9.83 27,11.694 c 0,106.39 0,106.39 0,109.807 0,3.917 5,4.499 5,4.499 l 85,0 c 0,0 5,-0.268 5,-4.018 0,-3.75 0,-78.479 0,-78.479 C 122,38.306 94.325,8 87.135,8 L 30.666,8 Z" />
        <path
           style="opacity:0.6;fill:#262626"
           inkscape:connector-curvature="0"
           id="path4536"
           d="M 30.666,6 C 28.816,6 27,7.83 27,9.694 c 0,106.39 0,106.39 0,109.807 0,3.917 3,4.499 3,4.499 l 89,0 c 0,0 3,-0.268 3,-4.018 0,-3.75 0,-78.479 0,-78.479 C 122,36.306 94.325,6 87.135,6 L 30.666,6 Z" />
        <path
           style="fill:url(#XMLID_8_)"
           inkscape:connector-curvature="0"
           id="path4543"
           d="m 121,120.113 c 0,2.584 -2.398,2.887 -2.398,2.887 l -88.104,0 C 30.498,123 28,122.525 28,119.917 28,100.1 28,10.861 28,9.694 28,8.374 29.359,7 30.666,7 31.66,7 79.135,7 87.135,7 94.167,7 121,37.326 121,41.504 c 0,4.619 0,63.145 0,78.609 z" />
        <path
           style="fill:url(#XMLID_9_)"
           inkscape:connector-curvature="0"
           id="path4554"
           d="m 120,119.282 c 0,2.481 -2,2.718 -2,2.718 l -87,0 c 0,0 -2,-0.163 -2,-2.249 C 29,101.736 29,10.877 29,9.694 29,8.374 30.317,7 31.583,7 32.547,7 79.442,7 87.193,7 94.006,7 120,37.326 120,41.504 c 0,4.63 0,62.674 0,77.778 z" />
        <path
           style="fill:url(#XMLID_10_)"
           inkscape:connector-curvature="0"
           id="path4561"
           d="m 120,39 c 0,7.18 -2.82,13 -10,13 -7.18,0 -16,-5.82 -16,-13 0,-7.18 2.82,-9 10,-9 7.18,0 11,4 16,9 z" />
        <path
           style="opacity:0.5;fill:#343434"
           inkscape:connector-curvature="0"
           id="path4563"
           d="m 84.415,6.963 c 0.547,0 0.947,0.002 3.616,1.193 4.182,1.891 4.103,22.225 4.103,26.673 l -0.001,0.128 c 0,0.521 0.399,0.959 0.918,1.002 5.973,0.496 23.318,-0.848 26.406,4.026 1.199,1.608 1.365,2.858 1.918,2.858 0.553,0 0.625,-0.786 0.625,-1.339 0,-0.797 -0.257,-1.574 -0.766,-2.428 -0.004,-0.009 -0.002,-0.018 -0.006,-0.026 -0.014,-0.028 -0.038,-0.065 -0.053,-0.094 l 0,-0.001 C 118.87,34.256 95.385,8.574 88.821,6.365 88.815,6.363 88.814,6.357 88.809,6.355 88.802,6.352 88.794,6.353 88.788,6.351 88.767,6.343 88.739,6.328 88.718,6.32 88.624,6.291 88.531,6.279 88.439,6.277 88.01,6.133 87.578,6 87.135,6 86.627,6 84.473,6.457 84.415,6.963 Z" />
        <path
           style="fill:url(#XMLID_11_)"
           inkscape:connector-curvature="0"
           id="path4570"
           d="M 121,41.504 C 117.625,32.875 93.133,34.962 93.133,34.962 93.003,37.629 94.632,7 87.135,7 94.168,7 121,38.814 121,41.504 Z" />
        <path
           style="fill:url(#XMLID_12_)"
           inkscape:connector-curvature="0"
           id="path4577"
           d="M 121,41.504 C 119.5,33.563 94.25,33.438 94.25,33.438 94.225,36.104 94.524,7 87.135,7 94.168,7 121,38.814 121,41.504 Z" />
      </g>
      <path
         style="color:#000000;font-style:normal;font-variant:normal;font-weight:normal;font-stretch:normal;font-size:medium;line-height:normal;font-family:sans-serif;text-indent:0;text-align:start;text-decoration:none;text-decoration-line:none;text-decoration-style:solid;text-decoration-color:#000000;letter-spacing:normal;word-spacing:normal;text-transform:none;direction:ltr;block-progression:tb;writing-mode:lr-tb;baseline-shift:baseline;text-anchor:start;white-space:normal;clip-rule:nonzero;display:inline;overflow:visible;visibility:visible;opacity:1;isolation:auto;mix-blend-mode:normal;color-interpolation:sRGB;color-interpolation-filters:linearRGB;solid-color:#000000;solid-opacity:1;fill:#ea4c3a;fill-opacity:1;fill-rule:nonzero;stroke:none;stroke-width:1.39999998;stroke-linecap:butt;stroke-linejoin:round;stroke-miterlimit:10;stroke-dasharray:none;stroke-dashoffset:0;stroke-opacity:1;color-rendering:auto;image-rendering:auto;shape-rendering:auto;text-rendering:auto;enable-background:accumulate"
         d="m 62.296278,15.49447 c -0.06746,0.01073 -0.768011,0.05787 -1.561194,0.349048 -0.816193,0.299621 -1.966911,0.904143 -2.836801,2.17044 a 2.2747445,2.2747445 0 0 0 -0.01917,0.02535 c -0.855871,1.281081 -1.164094,2.715504 -1.38984,4.385298 -0.229889,1.68464 -0.331136,3.760735 -0.107875,6.092456 0.223843,2.338109 0.765682,4.822605 1.459648,7.29191 a 2.2747445,2.2747445 0 0 0 0,0.0065 c 0.383072,1.359352 1.176931,2.977647 1.770619,4.4678 -0.417579,1.305053 -0.334523,2.066676 -0.831363,3.376238 -2.656339,6.9806 -6.58141,13.661752 -10.122366,19.077004 -2.037251,0.772905 -4.11257,1.333136 -5.92745,2.214862 -4.205858,2.039922 -7.258699,4.238366 -9.240225,6.168613 a 2.2747445,2.2747445 0 0 0 -0.0065,0.0062 c -1.971867,1.931399 -2.891669,3.768472 -3.236618,5.292834 -0.353399,1.54448 -0.32862,2.953094 0.361738,4.245669 0.353853,0.661233 1.140875,1.411329 1.99274,1.675431 0.854793,0.265013 1.593729,0.193432 2.335442,0.0698 1.50255,-0.24897 3.740471,-1.063315 6.504967,-3.407976 a 2.2747445,2.2747445 0 0 0 0.0065,-0.0054 c 2.754343,-2.345115 6.143145,-6.187693 10.077936,-12.013578 l -0.0065,0 c 0.108267,-0.160055 0.208249,-0.433511 0.317328,-0.59655 2.05296,-0.738449 4.026838,-1.654022 5.89572,-2.20217 4.128674,-1.204596 7.317583,-1.850582 10.16044,-2.367169 2.303228,-0.420181 4.195475,-0.659223 6.098806,-0.863102 0.945808,1.010116 1.942478,2.284071 2.805061,3.141419 2.737569,2.727209 4.914816,4.540678 6.974594,5.997264 2.062755,1.457679 4.057095,2.620663 6.054378,3.223926 a 2.2747445,2.2747445 0 0 0 0.01915,0.0062 c 2.005416,0.586946 3.891799,0.476055 5.438787,-0.01266 a 2.2747445,2.2747445 0 0 0 0.02532,-0.0062 c 1.534422,-0.503019 3.205109,-1.506449 4.067979,-3.338162 0.865161,-1.827705 0.790771,-3.943074 -0.0889,-5.889368 -0.870498,-1.95619 -2.423584,-3.436279 -4.156819,-4.518571 -1.73655,-1.094982 -3.637338,-1.731902 -5.698989,-2.233902 l -0.0062,0 c -2.086235,-0.512289 -4.449027,-0.899985 -6.87909,-1.104766 a 2.2747445,2.2747445 0 0 0 -0.01266,0 c -2.185802,-0.171921 -4.426348,-0.136016 -6.689007,0 -1.520636,-1.686279 -3.020266,-3.17379 -4.410988,-4.937433 -2.7047,-3.429967 -4.908255,-6.761095 -6.365348,-9.500424 -0.370147,-0.698819 -0.43435,-1.198197 -0.723479,-1.834083 C 66.075909,34.107282 67.7915,27.92939 68.153832,24.5003 l 0,-0.0065 c 0.221603,-2.076454 0.454023,-3.302737 0.374435,-4.620112 -0.03984,-0.659586 -0.206429,-1.44103 -0.679058,-2.126015 -0.358531,-0.519636 -0.837422,-0.783578 -1.288298,-1.047139 l 0.01267,-0.01917 c -0.03152,-0.01982 -0.08275,-0.03714 -0.114246,-0.05712 -0.1083,-0.05995 -0.207143,-0.204935 -0.31096,-0.253866 l -0.03808,0.07616 c -0.484377,-0.310285 -0.9336,-0.644785 -1.713506,-0.882149 -0.998253,-0.302935 -2.012672,-0.08385 -2.100628,-0.06979 z m 0.780594,4.423377 c -0.07008,-0.02045 0.426763,0.238694 0.882138,0.50136 -9.21e-4,0.46241 -0.116097,1.591588 -0.330008,3.598356 -0.175269,1.660044 -1.403151,5.281722 -1.948316,7.894807 -0.288182,-1.308358 -0.664878,-2.684494 -0.774248,-3.826822 -0.186154,-1.944368 -0.09719,-3.682102 0.08884,-5.045314 a 2.2747445,2.2747445 0 0 0 0,-0.0065 c 0.182675,-1.351169 0.49483,-2.20458 0.660012,-2.456019 0.159184,-0.221018 0.441322,-0.387661 0.647324,-0.46328 0.233594,-0.08575 0.167373,-0.04023 0.710786,-0.126918 0.522916,-0.08346 0.119413,-0.05283 0.06345,-0.06981 z m 1.174069,0.488668 -0.03808,0.0825 c 0.01234,0.0059 -0.01559,-0.01722 -0.0065,-0.01267 l 0.04442,-0.0698 z M 62.556474,46.16618 c 1.505748,2.528095 3.094627,5.121102 5.311863,7.932887 0.792837,1.005439 1.642659,1.788661 2.487753,2.779682 -1.097035,0.167112 -2.081343,0.244414 -3.281044,0.463281 -2.914916,0.529685 -6.304336,1.216677 -10.617372,2.47506 a 2.2747445,2.2747445 0 0 0 0,0.0065 c -0.447148,0.13114 -0.957352,0.39035 -1.421574,0.53309 2.675703,-4.494288 5.437705,-8.928068 7.520374,-14.190345 z m 17.338117,14.583817 c 0.755702,0.01885 1.542894,-0.05836 2.284668,0 2.190228,0.185275 4.341535,0.541586 6.168612,0.990025 a 2.2747445,2.2747445 0 0 0 0.0062,0.0062 c 1.830452,0.445414 3.222495,0.94382 4.359922,1.66274 a 2.2747445,2.2747445 0 0 0 0.01266,0.0062 c 1.136618,0.709747 2.053126,1.705163 2.411594,2.513138 a 2.2747445,2.2747445 0 0 0 0.0062,0.01915 c 0.361783,0.797053 0.290227,1.731207 0.126918,2.075243 a 2.2747445,2.2747445 0 0 0 -0.0062,0.0062 c -0.162431,0.346463 -0.557856,0.672422 -1.351761,0.939248 -0.0021,5.87e-4 -0.0041,-5.86e-4 -0.0062,0 -0.814625,0.256594 -1.595045,0.332648 -2.779687,-0.01266 l -0.0062,0 C 89.934739,68.59411 88.223019,67.671868 86.393315,66.378875 84.548511,65.074316 82.604872,63.463067 80.002584,60.87028 79.969744,60.83763 79.927744,60.78264 79.89471,60.749698 Z M 42.91465,70.237732 c -1.470196,1.709723 -3.331381,4.368474 -4.41703,5.292817 -2.0258,1.716692 -3.043216,1.95739 -3.83317,2.12601 0.0104,-0.128509 -0.02275,-0.06732 0.01267,-0.222113 a 2.2747445,2.2747445 0 0 0 0.0065,-0.0064 c 0.169159,-0.749383 0.47672,-1.573883 1.986395,-3.052571 1.191236,-1.159516 3.673839,-2.678167 6.244768,-4.137791 z"
         id="path4969"
         inkscape:connector-curvature="0" />
      <g
         id="g5024"
         transform="matrix(1.812964,0,0,1.812964,-56.245148,-61.917678)">
        <path
           inkscape:connector-curvature="0"
           d="m 53.815,92.034 -2.575,0 0,3.929 c 0,0.562 -0.132,0.988 -0.397,1.278 -0.265,0.29 -0.6,0.436 -1.003,0.436 -0.423,0 -0.764,-0.144 -1.022,-0.431 -0.259,-0.288 -0.389,-0.708 -0.389,-1.264 l 0,-10.698 c 0,-0.619 0.143,-1.061 0.426,-1.326 0.284,-0.265 0.735,-0.397 1.354,-0.397 l 3.606,0 c 1.066,0 1.888,0.082 2.462,0.246 0.567,0.158 1.059,0.42 1.472,0.786 0.414,0.366 0.728,0.814 0.942,1.344 0.215,0.53 0.322,1.127 0.322,1.79 0,1.414 -0.436,2.485 -1.307,3.214 -0.87,0.728 -2.167,1.093 -3.891,1.093 z m -0.681,-6.362 -1.894,0 0,4.241 1.894,0 c 0.663,0 1.217,-0.069 1.662,-0.208 0.444,-0.139 0.784,-0.366 1.018,-0.682 0.233,-0.315 0.35,-0.729 0.35,-1.24 0,-0.612 -0.18,-1.111 -0.539,-1.496 -0.405,-0.41 -1.235,-0.615 -2.491,-0.615 z"
           style="fill:#313335"
           id="path5026" />
        <path
           inkscape:connector-curvature="0"
           d="m 63.104,83.561 3.664,0 c 0.952,0 1.771,0.088 2.452,0.265 0.681,0.177 1.3,0.508 1.855,0.994 1.445,1.237 2.168,3.118 2.168,5.642 0,0.833 -0.073,1.594 -0.218,2.282 -0.146,0.688 -0.369,1.308 -0.673,1.86 -0.303,0.552 -0.69,1.046 -1.164,1.481 -0.372,0.335 -0.779,0.603 -1.222,0.805 -0.441,0.202 -0.916,0.344 -1.425,0.426 -0.508,0.082 -1.08,0.123 -1.718,0.123 l -3.663,0 c -0.511,0 -0.896,-0.077 -1.155,-0.232 -0.259,-0.155 -0.428,-0.373 -0.506,-0.653 -0.079,-0.281 -0.118,-0.645 -0.118,-1.093 l 0,-10.177 c 0,-0.606 0.135,-1.045 0.406,-1.316 0.272,-0.272 0.71,-0.407 1.317,-0.407 z m 1.088,2.224 0,9.42 2.13,0 c 0.467,0 0.833,-0.013 1.099,-0.038 0.265,-0.025 0.539,-0.088 0.823,-0.189 0.284,-0.101 0.53,-0.243 0.738,-0.426 0.94,-0.795 1.411,-2.165 1.411,-4.108 0,-1.37 -0.207,-2.396 -0.62,-3.077 -0.414,-0.682 -0.924,-1.115 -1.529,-1.302 -0.605,-0.186 -1.338,-0.279 -2.196,-0.279 l -1.856,0 z"
           style="fill:#313335"
           id="path5028" />
        <path
           inkscape:connector-curvature="0"
           d="m 84.007,85.729 -5.538,0 0,3.55 4.63,0 c 0.429,0 0.749,0.096 0.961,0.289 0.211,0.193 0.317,0.45 0.317,0.771 0,0.322 -0.107,0.578 -0.322,0.767 -0.215,0.189 -0.533,0.284 -0.956,0.284 l -4.63,0 0,4.573 c 0,0.581 -0.131,1.012 -0.393,1.292 -0.262,0.28 -0.599,0.421 -1.009,0.421 -0.416,0 -0.756,-0.142 -1.018,-0.426 -0.262,-0.284 -0.393,-0.713 -0.393,-1.288 l 0,-10.678 c 0,-0.404 0.06,-0.734 0.18,-0.99 0.12,-0.255 0.308,-0.441 0.563,-0.558 0.256,-0.117 0.582,-0.175 0.979,-0.175 l 6.627,0 c 0.448,0 0.781,0.099 0.999,0.298 0.218,0.199 0.327,0.459 0.327,0.781 0,0.328 -0.109,0.592 -0.327,0.791 -0.218,0.199 -0.549,0.298 -0.997,0.298 z"
           style="fill:#313335"
           id="path5030" />
      </g>
    </g>
  </g>
</svg>
