<?xml version="1.0" encoding="UTF-8" standalone="no"?>
<!-- Created with Inkscape (http://www.inkscape.org/) -->

<svg
   xmlns:dc="http://purl.org/dc/elements/1.1/"
   xmlns:cc="http://creativecommons.org/ns#"
   xmlns:rdf="http://www.w3.org/1999/02/22-rdf-syntax-ns#"
   xmlns:svg="http://www.w3.org/2000/svg"
   xmlns="http://www.w3.org/2000/svg"
   xmlns:sodipodi="http://sodipodi.sourceforge.net/DTD/sodipodi-0.dtd"
   xmlns:inkscape="http://www.inkscape.org/namespaces/inkscape"
   width="128"
   height="128"
   viewBox="0 0 128 128"
   id="svg4179"
   version="1.1"
   inkscape:version="0.91 r13725"
   sodipodi:docname="platform.svg">
  <defs
     id="defs4181" />
  <sodipodi:namedview
     id="base"
     pagecolor="#ffffff"
     bordercolor="#666666"
     borderopacity="1.0"
     inkscape:pageopacity="0.0"
     inkscape:pageshadow="2"
     inkscape:zoom="4.3934197"
     inkscape:cx="87.075794"
     inkscape:cy="52.323182"
     inkscape:document-units="px"
     inkscape:current-layer="layer1"
     showgrid="false"
     inkscape:window-width="1855"
     inkscape:window-height="1056"
     inkscape:window-x="65"
     inkscape:window-y="24"
     inkscape:window-maximized="1"
     units="px" />
  <metadata
     id="metadata4184">
    <rdf:RDF>
      <cc:Work
         rdf:about="">
        <dc:format>image/svg+xml</dc:format>
        <dc:type
           rdf:resource="http://purl.org/dc/dcmitype/StillImage" />
        <dc:title></dc:title>
      </cc:Work>
    </rdf:RDF>
  </metadata>
  <g
     inkscape:label="Calque 1"
     inkscape:groupmode="layer"
     id="layer1"
     transform="translate(0,-924.3622)">
    <g
       style="fill:#2e75a3;fill-opacity:1"
       transform="matrix(1.2440695,0.00632716,-0.00632468,1.2435809,-97.12312,564.01541)"
       id="g4003">
      <path
         inkscape:connector-curvature="0"
         id="path3202"
         d="m 179.52788,353.11695 c 0,0 0.79908,-0.39954 1.0388,-1.75797 0,-0.0799 0,-0.15982 0,-0.23972 l 0,-0.23973 c -0.0799,-1.27852 -1.35843,-2.79677 -2.79677,-4.31502 -1.67807,-1.67806 -3.11641,-2.47714 -3.11641,-2.47714 0,0 -0.71917,-3.35613 -3.75567,-7.99078 -2.95659,-4.63466 -8.07069,-9.50903 -10.86746,-8.07069 -2.79677,1.43834 -0.31963,5.43373 -0.15982,6.63235 0.23973,1.27852 1.43834,3.35612 1.03881,3.35612 -0.47945,-0.0799 -6.55245,-11.50672 -21.73493,-8.31041 -3.91549,0.87899 -7.27161,2.55705 -9.98848,4.71456 l 0,26.68921 c 0.95889,-0.95889 1.35843,-1.43834 1.35843,-1.43834 0,0 1.03881,4.79447 2.95659,6.95198 1.91779,2.15751 4.23512,3.43604 4.95429,1.83788 0.71917,-1.51825 -1.51825,-8.07069 -1.51825,-8.07069 0,0 4.15521,3.99539 5.35382,4.95429 1.19862,0.95889 3.51595,2.15751 4.15521,0 0.55935,-2.15751 -1.11871,-5.43373 -2.47714,-5.99309 -1.27853,-0.55935 -2.07761,-0.55935 -2.07761,-0.55935 0,0 -0.79907,-1.0388 -1.19861,-1.35844 -0.47945,-0.31963 -0.55936,-0.31963 -0.55936,-0.31963 0,0 0.71917,-0.39954 2.95659,-0.31963 2.31733,0.0799 4.15521,0.15982 4.15521,0.15982 0,0 2.0776,3.03649 3.35613,3.99539 1.19861,1.0388 4.31502,3.51594 5.43373,4.55474 1.0388,1.03881 1.67806,1.51825 2.0776,0.63927 0.31963,-0.87899 -0.23972,-3.19632 -1.67806,-4.87438 -1.51825,-1.59816 -3.11641,-2.47714 -3.67576,-3.27622 -0.47945,-0.95889 -0.79908,-1.67807 -0.79908,-1.67807 0,0 2.95659,2.15752 3.67576,2.87669 0.79908,0.63926 6.07299,3.91548 6.95198,4.47483 0.87899,0.63927 1.27852,0.23973 1.27852,0.23973 0,0 0.63927,0.47944 0.87899,0.15981 0.23972,-0.31963 0.87899,-2.47714 -0.79908,-3.75566 -1.75797,-1.35844 -2.79677,-1.9977 -2.63696,-2.15752 0.0799,-0.15981 1.83788,0.39954 2.07761,-0.0799 0.15981,-0.39954 -0.0799,-1.0388 -0.31963,-1.19862 -0.15982,-0.23972 0.47944,-0.71917 0.47944,-0.71917 0,0 0.63927,0 3.27622,0.23972 2.63696,0.23973 9.26931,-1.99769 10.62774,-2.47714 1.35844,-0.47945 2.07761,-0.79908 2.07761,-0.79908 l 0,0 z m -50.34193,34.36036 c 5.51364,-3.59585 5.75336,-12.70534 2.71687,-14.46331 -0.87899,-0.55936 -1.75798,-0.95889 -2.71687,-1.19862 l 0,4.15521 c 0.23972,0.15981 0.47945,0.39954 0.63926,0.79908 0.47945,0.95889 0.23973,2.15751 0.23973,2.15751 0,0 -0.0799,-1.51825 -0.63927,-2.31733 -0.0799,-0.0799 -0.15981,-0.15981 -0.23972,-0.23972 l 0,11.10718 z m 0,-53.05879 c -1.19862,0.87899 -2.23742,1.91779 -3.19631,2.95659 l 0,26.44949 c 0.79908,-0.47945 1.51825,-0.95889 2.15751,-1.59816 0.39954,-0.39954 0.71917,-0.79907 1.0388,-1.11871 l 0,-26.68921 0,0 z m -3.19631,54.41723 c 1.19862,-0.23973 2.31732,-0.71917 3.19631,-1.35844 l 0,-11.10718 c -0.47945,-0.63927 -0.87899,-1.0388 -0.87899,-1.0388 0,0 0.39954,0.15981 0.87899,0.63926 l 0,-4.15521 c -1.0388,-0.31963 -2.15751,-0.47945 -3.19631,-0.23972 l 0,6.95198 0,0 c 0.23972,-0.15982 0.63926,-0.23972 0.47944,0.31963 -0.0799,0.31963 -0.31963,0.31963 -0.47944,0.31963 l 0,0 0,4.0753 c 0.15981,0 0.39954,0 0.55935,-0.0799 0,0 -0.15981,0.15982 -0.55935,0.31963 l 0,5.35383 z m 0,-51.46064 c -5.59355,5.91318 -8.07069,13.02498 -8.63005,14.62313 -0.87898,2.47714 -6.55244,11.42682 -7.03188,16.70074 -0.39954,5.35382 -0.47945,18.3788 11.66654,20.13677 1.43834,0.23972 2.79677,0.23972 3.99539,0 l 0,-5.35383 c -1.11871,0.31963 -3.59585,0.63927 -6.39263,-2.55705 -3.75567,-4.31502 -1.91779,-11.34691 1.0388,-13.74414 1.91779,-1.59816 3.75567,-2.47714 5.35383,-3.35613 l 0,-26.44949 0,0 z m 0,34.20055 0,6.95198 c -0.23973,0.15981 -0.39954,0.15981 -0.55936,-0.0799 -0.15981,0.47945 0.15982,0.71917 0.55936,0.71917 l 0,4.0753 c -2.55705,0.23972 -6.073,-1.9977 -5.19401,-5.51364 1.0388,-3.99539 2.95659,-5.75336 5.19401,-6.1529 z"
         style="fill:#2e75a3;fill-opacity:1;stroke:none" />
      <g
         id="g3217"
         transform="matrix(0.3825107,0,0,0.3825107,20.089286,125.61275)"
         inkscape:transform-center-y="-44.562164"
         style="fill:#2e75a3;fill-opacity:1">
        <path
           style="fill:#eddf0e;fill-opacity:1;stroke:none"
           d="m 317.497,435.66599 13.283,-0.49733 c 7.12992,-0.26696 16.9201,4.73977 16.36027,13.87359 l -3.48135,56.79988 c -0.43649,7.12156 -3.50599,10.88958 -9.1489,10.88958 l -17.51036,0 c -7.13493,0 -10.13574,-4.51857 -10.6409,-11.63558 l -3.97869,-56.05388 c -0.50516,-7.11701 4.99786,-12.99738 15.11693,-13.37626 z"
           id="rect3215"
           inkscape:connector-curvature="0"
           sodipodi:nodetypes="sssssssss" />
      </g>
      <g
         inkscape:transform-center-y="-36.33424"
         transform="matrix(0.31077472,-0.25449536,0.25449536,0.31077472,-108.32473,252.83556)"
         id="g3221"
         inkscape:transform-center-x="29.82031"
         style="fill:#fd6600;fill-opacity:1">
        <path
           sodipodi:nodetypes="sssssssss"
           inkscape:connector-curvature="0"
           id="path3223"
           d="m 317.497,435.66599 13.283,-0.49733 c 7.12992,-0.26696 16.9201,4.73977 16.36027,13.87359 l -3.48135,56.79988 c -0.43649,7.12156 -3.50599,10.88958 -9.1489,10.88958 l -17.51036,0 c -7.13493,0 -10.13574,-4.51857 -10.6409,-11.63558 l -3.97869,-56.05388 c -0.50516,-7.11701 4.99786,-12.99738 15.11693,-13.37626 z"
           style="fill:#fd6600;fill-opacity:1;stroke:none" />
      </g>
      <g
         inkscape:transform-center-x="43.056986"
         id="g3225"
         transform="matrix(0.07828233,-0.37104593,0.37104593,0.07828233,-104.36,429.7208)"
         inkscape:transform-center-y="-9.8080536"
         style="fill:#a4dc2d;fill-opacity:1">
        <path
           style="fill:#a4dc2d;fill-opacity:1;stroke:none"
           d="m 317.497,435.66599 13.283,-0.49733 c 7.12992,-0.26696 16.9201,4.73977 16.36027,13.87359 l -3.48135,56.79988 c -0.43649,7.12156 -3.50599,10.88958 -9.1489,10.88958 l -17.51036,0 c -7.13493,0 -10.13574,-4.51857 -10.6409,-11.63558 l -3.97869,-56.05388 c -0.50516,-7.11701 4.99786,-12.99738 15.11693,-13.37626 z"
           id="path3227"
           inkscape:connector-curvature="0"
           sodipodi:nodetypes="sssssssss" />
      </g>
      <g
         inkscape:transform-center-y="16.468461"
         transform="matrix(-0.13902763,-0.26521617,0.26521617,-0.13902763,13.934291,526.86862)"
         id="g3229"
         inkscape:transform-center-x="30.900947"
         style="fill:#ef3e3e;fill-opacity:1">
        <path
           sodipodi:nodetypes="sssssssss"
           inkscape:connector-curvature="0"
           id="path3231"
           d="m 317.497,435.66599 13.283,-0.49733 c 7.12992,-0.26696 16.9201,4.73977 16.36027,13.87359 l -3.48135,56.79988 c -0.43649,7.12156 -3.50599,10.88958 -9.1489,10.88958 l -17.51036,0 c -7.13493,0 -10.13574,-4.51857 -10.6409,-11.63558 l -3.97869,-56.05388 c -0.50516,-7.11701 4.99786,-12.99738 15.11693,-13.37626 z"
           style="fill:#ef3e3e;fill-opacity:1;stroke:none" />
      </g>
    </g>
  </g>
</svg>
