<?xml version="1.0" encoding="UTF-8" standalone="no"?>
<!-- Created with Inkscape (http://www.inkscape.org/) -->

<svg
   xmlns:a="http://ns.adobe.com/AdobeSVGViewerExtensions/3.0/"
   xmlns:dc="http://purl.org/dc/elements/1.1/"
   xmlns:cc="http://creativecommons.org/ns#"
   xmlns:rdf="http://www.w3.org/1999/02/22-rdf-syntax-ns#"
   xmlns:svg="http://www.w3.org/2000/svg"
   xmlns="http://www.w3.org/2000/svg"
   xmlns:xlink="http://www.w3.org/1999/xlink"
   xmlns:sodipodi="http://sodipodi.sourceforge.net/DTD/sodipodi-0.dtd"
   xmlns:inkscape="http://www.inkscape.org/namespaces/inkscape"
   id="svg2"
   height="128"
   width="128"
   version="1.0"
viewBox="0 0 128 128"
   inkscape:version="0.91 r"
   sodipodi:docname="session_to_category.svg">
  <metadata
     id="metadata116">
    <rdf:RDF>
      <cc:Work
         rdf:about="">
        <dc:format>image/svg+xml</dc:format>
        <dc:type
           rdf:resource="http://purl.org/dc/dcmitype/StillImage" />
        <dc:title></dc:title>
      </cc:Work>
    </rdf:RDF>
  </metadata>
  <sodipodi:namedview
     pagecolor="#ffffff"
     bordercolor="#666666"
     borderopacity="1"
     objecttolerance="10"
     gridtolerance="10"
     guidetolerance="10"
     inkscape:pageopacity="0"
     inkscape:pageshadow="2"
     inkscape:window-width="1920"
     inkscape:window-height="1051"
     id="namedview114"
     showgrid="false"
     inkscape:zoom="3.2661743"
     inkscape:cx="60.731235"
     inkscape:cy="36.039184"
     inkscape:window-x="1366"
     inkscape:window-y="0"
     inkscape:window-maximized="1"
     inkscape:current-layer="layer1" />
  <defs
     id="defs4">
    <linearGradient
       id="linearGradient4799">
      <stop
         style="stop-color:#ffde00;stop-opacity:1;"
         offset="0"
         id="stop4801" />
      <stop
         style="stop-color:#ffa700;stop-opacity:1;"
         offset="1"
         id="stop4803" />
    </linearGradient>
    <linearGradient
       y2="475.66125"
       x2="203.51833"
       y1="452.41125"
       x1="204.4826"
       gradientTransform="matrix(2.6882492,0,0,2.6882492,89.384408,-1014.9963)"
       gradientUnits="userSpaceOnUse"
       id="linearGradient8056"
       xlink:href="#linearGradient14054"
       inkscape:collect="always" />
    <linearGradient
       id="linearGradient14054"
       inkscape:collect="always">
      <stop
         id="stop14056"
         offset="0"
         style="stop-color:#002f74;stop-opacity:1" />
      <stop
         id="stop14058"
         offset="1"
         style="stop-color:#00122e;stop-opacity:1" />
    </linearGradient>
    <linearGradient
       y2="464.74023"
       x2="212.86673"
       y1="458.02274"
       x1="207.37875"
       gradientUnits="userSpaceOnUse"
       id="linearGradient8058"
       xlink:href="#linearGradient14084"
       inkscape:collect="always" />
    <linearGradient
       id="linearGradient14084"
       inkscape:collect="always">
      <stop
         id="stop14086"
         offset="0"
         style="stop-color:#ffcc00;stop-opacity:1" />
      <stop
         id="stop14088"
         offset="1"
         style="stop-color:#d45500;stop-opacity:1" />
    </linearGradient>
    <radialGradient
       id="XMLID_15_"
       cx="49.904301"
       cy="47.091801"
       r="30.083599"
       fx="49.904301"
       fy="47.091801"
       gradientTransform="matrix(0.3749,0,0,0.375,14.9959,15)"
       gradientUnits="userSpaceOnUse">
      <stop
         offset="0"
         style="stop-color:#fbfd4a;stop-opacity:1;"
         id="stop555" />
      <stop
         offset="1"
         style="stop-color:#ff3600;stop-opacity:1;"
         id="stop556" />
      <a:midPointStop
         offset="0"
         style="stop-color:#85CAFF"
         id="midPointStop557" />
      <a:midPointStop
         offset="0.5"
         style="stop-color:#85CAFF"
         id="midPointStop558" />
      <a:midPointStop
         offset="1"
         style="stop-color:#003DA9"
         id="midPointStop559" />
    </radialGradient>
    <linearGradient
       id="XMLID_16_"
       gradientUnits="userSpaceOnUse"
       x1="33.705101"
       y1="29.922899"
       x2="33.705101"
       y2="40.926601">
      <stop
         offset="0"
         style="stop-color:#ffc842;stop-opacity:1;"
         id="stop562" />
      <stop
         offset="1"
         style="stop-color:#ffc842;stop-opacity:1;"
         id="stop563" />
      <a:midPointStop
         offset="0"
         style="stop-color:#3399FF"
         id="midPointStop564" />
      <a:midPointStop
         offset="0.5"
         style="stop-color:#3399FF"
         id="midPointStop565" />
      <a:midPointStop
         offset="1"
         style="stop-color:#3399FF"
         id="midPointStop566" />
    </linearGradient>
    <linearGradient
       id="XMLID_17_"
       gradientUnits="userSpaceOnUse"
       x1="43.617199"
       y1="24.517099"
       x2="36.868999"
       y2="29.578199">
      <stop
         offset="0"
         style="stop-color:#ffc842;stop-opacity:1;"
         id="stop569" />
      <stop
         offset="1"
         style="stop-color:#000000"
         id="stop570" />
      <a:midPointStop
         offset="0"
         style="stop-color:#3399FF"
         id="midPointStop571" />
      <a:midPointStop
         offset="0.5"
         style="stop-color:#3399FF"
         id="midPointStop572" />
      <a:midPointStop
         offset="1"
         style="stop-color:#000000"
         id="midPointStop573" />
    </linearGradient>
    <radialGradient
       id="XMLID_20_"
       cx="16.351601"
       cy="37.996101"
       r="49.414799"
       fx="16.351601"
       fy="37.996101"
       gradientTransform="matrix(0.3749,0,0,0.375,14.9959,15)"
       gradientUnits="userSpaceOnUse">
      <stop
         offset="0"
         style="stop-color:#fbfd4a;stop-opacity:1;"
         id="stop594" />
      <stop
         offset="1"
         style="stop-color:#ff3600;stop-opacity:1;"
         id="stop595" />
      <a:midPointStop
         offset="0"
         style="stop-color:#85CAFF"
         id="midPointStop596" />
      <a:midPointStop
         offset="0.5"
         style="stop-color:#85CAFF"
         id="midPointStop597" />
      <a:midPointStop
         offset="1"
         style="stop-color:#003DA9"
         id="midPointStop598" />
    </radialGradient>
    <radialGradient
       id="XMLID_21_"
       cx="38.167999"
       cy="18.062"
       r="90.268204"
       fx="38.167999"
       fy="18.062"
       gradientTransform="matrix(0.3714,-0.0512,0.0511,0.3715,13.2666,17.0873)"
       gradientUnits="userSpaceOnUse">
      <stop
         offset="0"
         style="stop-color:#fbf885;stop-opacity:1;"
         id="stop602" />
      <stop
         offset="0.5"
         style="stop-color:#ffc842;stop-opacity:1;"
         id="stop603" />
      <stop
         offset="1"
         style="stop-color:#ff8119;stop-opacity:1;"
         id="stop604" />
      <a:midPointStop
         offset="0"
         style="stop-color:#99CCFF"
         id="midPointStop605" />
      <a:midPointStop
         offset="0.5"
         style="stop-color:#99CCFF"
         id="midPointStop606" />
      <a:midPointStop
         offset="0.5"
         style="stop-color:#3399FF"
         id="midPointStop607" />
      <a:midPointStop
         offset="0.5"
         style="stop-color:#3399FF"
         id="midPointStop608" />
      <a:midPointStop
         offset="1"
         style="stop-color:#3366FF"
         id="midPointStop609" />
    </radialGradient>
    <linearGradient
       id="XMLID_22_"
       gradientUnits="userSpaceOnUse"
       x1="9.6625996"
       y1="14.9292"
       x2="9.6625996"
       y2="11.9287"
       gradientTransform="matrix(0.9907,-0.1364,0.1364,0.9907,-4.6134,5.5667)">
      <stop
         offset="0"
         style="stop-color:#ffc842;stop-opacity:1;"
         id="stop612" />
      <stop
         offset="0.0546"
         style="stop-color:#ffdd57;stop-opacity:1;"
         id="stop613" />
      <stop
         offset="0.34369999"
         style="stop-color:#fde059;stop-opacity:1;"
         id="stop614" />
      <stop
         offset="0.60750002"
         style="stop-color:#fbe865;stop-opacity:1;"
         id="stop615" />
      <stop
         offset="0.83499998"
         style="stop-color:#faea66;stop-opacity:1;"
         id="stop616" />
      <stop
         offset="1"
         style="stop-color:#fbf885;stop-opacity:1;"
         id="stop617" />
      <a:midPointStop
         offset="0"
         style="stop-color:#3399FF"
         id="midPointStop618" />
      <a:midPointStop
         offset="0.3616"
         style="stop-color:#3399FF"
         id="midPointStop619" />
      <a:midPointStop
         offset="1"
         style="stop-color:#99CCFF"
         id="midPointStop620" />
    </linearGradient>
    <linearGradient
       id="XMLID_23_"
       gradientUnits="userSpaceOnUse"
       x1="13.4614"
       y1="13.7358"
       x2="29.0541"
       y2="34.062"
       gradientTransform="matrix(0.9907,-0.1364,0.1364,0.9907,-4.6134,5.5667)">
      <stop
         offset="0"
         style="stop-color:#FFFFFF"
         id="stop623" />
      <stop
         offset="1"
         style="stop-color:#f8ff51;stop-opacity:1;"
         id="stop624" />
      <a:midPointStop
         offset="0"
         style="stop-color:#FFFFFF"
         id="midPointStop625" />
      <a:midPointStop
         offset="0.5"
         style="stop-color:#FFFFFF"
         id="midPointStop626" />
      <a:midPointStop
         offset="1"
         style="stop-color:#66B3FF"
         id="midPointStop627" />
    </linearGradient>
    <linearGradient
       id="XMLID_28_"
       gradientUnits="userSpaceOnUse"
       x1="41.544899"
       y1="40.627899"
       x2="36.143501"
       y2="36.6497">
      <stop
         offset="0"
         style="stop-color:#ffff7e;stop-opacity:1;"
         id="stop655" />
      <stop
         offset="1"
         style="stop-color:#ff9e00;stop-opacity:1;"
         id="stop656" />
      <a:midPointStop
         offset="0"
         style="stop-color:#C5F0FF"
         id="midPointStop657" />
      <a:midPointStop
         offset="0.5"
         style="stop-color:#C5F0FF"
         id="midPointStop658" />
      <a:midPointStop
         offset="1"
         style="stop-color:#1D74D9"
         id="midPointStop659" />
    </linearGradient>
    <linearGradient
       y2="34.062"
       x2="29.0541"
       y1="13.7358"
       x1="13.4614"
       gradientTransform="matrix(1.9757671,-0.27202446,0.27202446,1.9757671,-2.5111341,4.131263)"
       gradientUnits="userSpaceOnUse"
       id="linearGradient2957"
       xlink:href="#XMLID_23_"
       inkscape:collect="always" />
    <linearGradient
       y2="11.9287"
       x2="9.6625996"
       y1="14.9292"
       x1="9.6625996"
       gradientTransform="matrix(1.9757671,-0.27202446,0.27202446,1.9757671,-2.5111341,4.131263)"
       gradientUnits="userSpaceOnUse"
       id="linearGradient2960"
       xlink:href="#XMLID_22_"
       inkscape:collect="always" />
    <radialGradient
       r="90.268204"
       fy="18.062"
       fx="38.167999"
       cy="18.062"
       cx="38.167999"
       gradientTransform="matrix(0.74068829,-0.10210889,0.10190946,0.74088773,33.147204,27.106959)"
       gradientUnits="userSpaceOnUse"
       id="radialGradient2963"
       xlink:href="#XMLID_21_"
       inkscape:collect="always" />
    <radialGradient
       r="49.414799"
       fy="37.996101"
       fx="16.351601"
       cy="37.996101"
       cx="16.351601"
       gradientTransform="matrix(0.74766839,0,0,0.74786783,36.595971,22.944227)"
       gradientUnits="userSpaceOnUse"
       id="radialGradient2967"
       xlink:href="#XMLID_20_"
       inkscape:collect="always" />
    <linearGradient
       gradientTransform="matrix(1.9943142,0,0,1.9943142,6.689435,-6.9704859)"
       y2="29.578199"
       x2="36.868999"
       y1="24.517099"
       x1="43.617199"
       gradientUnits="userSpaceOnUse"
       id="linearGradient2980"
       xlink:href="#XMLID_17_"
       inkscape:collect="always" />
    <linearGradient
       gradientTransform="matrix(1.9943142,0,0,1.9943142,6.689435,-6.9704859)"
       y2="40.926601"
       x2="33.705101"
       y1="29.922899"
       x1="33.705101"
       gradientUnits="userSpaceOnUse"
       id="linearGradient2983"
       xlink:href="#XMLID_16_"
       inkscape:collect="always" />
    <radialGradient
       r="30.083599"
       fy="47.091801"
       fx="49.904301"
       cy="47.091801"
       cx="49.904301"
       gradientTransform="matrix(0.74766839,0,0,0.74786783,36.595971,22.944227)"
       gradientUnits="userSpaceOnUse"
       id="radialGradient2986"
       xlink:href="#XMLID_15_"
       inkscape:collect="always" />
    <linearGradient
       id="linearGradient4069">
      <stop
         style="stop-color:#f32401;stop-opacity:1;"
         offset="0"
         id="stop4071" />
      <stop
         style="stop-color:#af1a01;stop-opacity:1"
         offset="1"
         id="stop4073" />
    </linearGradient>
    <linearGradient
       id="linearGradient3976">
      <stop
         style="stop-color:#d2d1cf;stop-opacity:1;"
         offset="0"
         id="stop3978" />
      <stop
         style="stop-color:#d2d1cf;stop-opacity:0.3539823;"
         offset="1"
         id="stop3980" />
    </linearGradient>
    <linearGradient
       id="linearGradient3767">
      <stop
         id="stop3769"
         offset="0"
         style="stop-color:#34aeff;stop-opacity:1" />
      <stop
         id="stop3771"
         offset="1"
         style="stop-color:#b2e2ff;stop-opacity:1" />
    </linearGradient>
    <linearGradient
       id="linearGradient3889-1">
      <stop
         id="stop3891-6"
         offset="0"
         style="stop-color:#1f81f0;stop-opacity:1;" />
      <stop
         id="stop3893-7"
         offset="1"
         style="stop-color:#3375ea;stop-opacity:1;" />
    </linearGradient>
    <linearGradient
       id="linearGradient3976-7">
      <stop
         style="stop-color:#85817c;stop-opacity:1;"
         offset="0"
         id="stop3978-0" />
      <stop
         style="stop-color:#7e7b76;stop-opacity:1;"
         offset="1"
         id="stop3980-1" />
    </linearGradient>
  </defs>
  <g
     id="layer1"
     transform="translate(-550.29 -199.79)">
    <g
       id="g6129"
       transform="matrix(1.2405912,0,0,1.2405912,545.32192,218.21439)">
      <path
         style="opacity:0.4"
         d="m 101.14847,40.979967 c -0.32906,-0.384903 -0.83163,-0.580346 -1.336187,-0.512539 L 86.934994,42.184533 84.037256,21.130558 c -0.06781,-0.492596 -0.329062,-0.935334 -0.723936,-1.234481 -0.394875,-0.299147 -0.891459,-0.430772 -1.38206,-0.362965 0,0 -44.764377,6.164425 -48.20058,6.637078 -0.01795,-0.127636 -0.05783,-0.420801 -0.05783,-0.420801 -0.502567,-3.655578 -3.737345,-6.238214 -7.209446,-5.761573 l -11.130268,1.533627 c -1.621377,0.223363 -3.073238,1.080919 -4.086349,2.417109 -0.885476,1.168668 -1.3621168,2.634489 -1.3621168,4.126236 0,0.317096 0.02194,0.634192 0.06382,0.951288 l 0.6481518,4.700599 c 0,0 0.01595,0.09573 0.02593,0.14359 0.008,0.06382 5.610006,40.769765 5.610006,40.769765 0.03789,0.271227 0.131625,0.528494 0.279204,0.755845 2.201723,3.428227 4.830229,6.503459 7.811729,9.139942 0.408834,0.360971 0.955276,0.526499 1.493741,0.45271 l 63.907799,-8.800909 c 0.490601,-0.06781 0.935333,-0.327067 1.232486,-0.721942 0.02992,-0.03789 0.04587,-0.07778 0.07179,-0.117664 0.374931,-0.177494 0.678067,-0.496584 0.801715,-0.911402 l 9.608598,-32.042646 c 0.14957,-0.490601 0.0379,-1.0171 -0.29117,-1.403997 z"
         id="path551"
         inkscape:connector-curvature="0" />
      <path
         style="fill:url(#radialGradient2986)"
         d="m 98.023042,39.572819 -48.625368,6.48551 c -0.783766,0.103704 -1.348157,0.797725 -1.292316,1.587474 l 1.954428,27.72695 c 0.05783,0.815675 0.761828,1.435906 1.579497,1.388043 l 37.058346,-2.169814 c 0.626215,-0.03989 1.16468,-0.460687 1.346162,-1.06297 l 9.608606,-32.04464 c 0.145585,-0.486613 0.03789,-1.013112 -0.293164,-1.400009 -0.331056,-0.384902 -0.833623,-0.576356 -1.336191,-0.510544 z"
         id="path560"
         inkscape:connector-curvature="0" />
      <path
         style="fill:url(#linearGradient2983)"
         d="m 49.597105,47.542098 c 0.09174,1.300293 1.858701,26.36284 1.954428,27.726951 1.400008,-0.08177 36.063184,-2.111979 37.058346,-2.169814 0.283193,-0.941316 9.00034,-30.002463 9.610601,-32.042646 -2.161837,0.289175 -47.301145,6.308015 -48.623375,6.485509 z"
         id="path567"
         inkscape:connector-curvature="0" />
      <path
         style="opacity:0.5;fill:url(#linearGradient2980)"
         d="m 48.801374,48.766607 c 0.131624,1.87665 1.764968,25.040609 1.90457,27.010992 2.042177,-0.121653 34.970299,-2.048161 36.430137,-2.133916 0.40684,-1.364111 8.487801,-28.301313 9.367294,-31.236944 -3.145033,0.418806 -45.769511,6.100608 -47.702001,6.359868 z"
         id="path574"
         inkscape:connector-curvature="0" />
      <path
         style="fill:url(#radialGradient2967)"
         d="m 80.138033,18.638503 c 0,0 -44.764377,6.166419 -48.198586,6.639072 -0.01795,-0.127636 -0.05784,-0.420801 -0.05784,-0.420801 -0.502567,-3.655578 -3.737345,-6.240209 -7.207452,-5.761573 l -11.130267,1.533627 c -1.623372,0.221369 -3.073238,1.078924 -4.0863499,2.415115 -0.8854755,1.168668 -1.3641109,2.632495 -1.3641109,4.126236 0,0.317096 0.021937,0.634192 0.065812,0.951288 l 0.6481521,4.700598 c 0,0 0.015954,0.09573 0.023932,0.141597 0.00798,0.06382 5.6120007,40.769765 5.6120007,40.769765 0.03789,0.269232 0.131624,0.528493 0.279204,0.757839 2.203717,3.424238 4.832223,6.49947 7.811728,9.137948 0.408835,0.362965 0.953283,0.526499 1.493742,0.452709 L 87.933807,75.27902 c 0.490601,-0.06581 0.935333,-0.327067 1.23448,-0.719947 0.299147,-0.394874 0.430772,-0.893453 0.362966,-1.384054 L 82.244028,20.237943 c -0.06581,-0.492596 -0.327067,-0.935334 -0.719947,-1.236475 -0.396868,-0.299147 -0.895447,-0.430772 -1.386048,-0.362965 z"
         id="path599"
         inkscape:connector-curvature="0" />
      <path
         style="fill:url(#radialGradient2963)"
         d="m 80.393305,20.491221 -50.051304,6.89235 -0.313107,-2.273519 c -0.362965,-2.638477 -2.648449,-4.503161 -5.101456,-4.164128 l -11.130267,1.533628 c -2.453007,0.337039 -4.150168,2.750159 -3.785209,5.388637 l 0.646158,4.700598 c 0.004,0.03789 0.01396,0.07379 0.01994,0.111682 l 5.615989,40.79968 c 2.084059,3.242755 4.60886,6.210294 7.478678,8.751051 l 63.905805,-8.800909 -7.28523,-52.93907 z"
         id="path610"
         inkscape:connector-curvature="0" />
      <path
         style="fill:url(#linearGradient2960)"
         d="m 13.950733,23.590385 c -1.836763,0.253278 -3.107142,2.104001 -2.827938,4.124242 l 0.648153,4.700598 c 0.277209,2.020241 1.998302,3.458141 3.83706,3.204863 l 11.130268,-1.533627 c 1.838757,-0.251284 3.107141,-2.102008 2.827937,-4.124242 L 28.920055,25.26162 c -0.279204,-2.02024 -2.000297,-3.458141 -3.83706,-3.206857 l -11.132262,1.535622 z"
         id="path621"
         inkscape:connector-curvature="0" />
      <path
         style="opacity:0.8;fill:url(#linearGradient2957)"
         d="m 11.591459,31.096984 c 0.219375,1.591462 4.138202,30.068275 5.897187,42.837869 0.382909,0.510544 0.777783,1.009123 1.182629,1.499724 0.107693,-7.801757 3.306573,-15.836849 9.728264,-20.258244 9.953623,-7.191497 22.148854,-6.325964 33.753768,-9.742225 9.522851,-3.003437 16.219758,-11.730556 17.635721,-21.105827 -0.195443,-1.40998 -0.319091,-2.323376 -0.354988,-2.572665 -2.115968,0.29117 -65.722625,9.050198 -67.842581,9.341368 z"
         id="path628"
         inkscape:connector-curvature="0" />
      <path
         style="fill:#ffffff"
         d="m 25.029148,21.685815 -11.130267,1.533627 c -1.838758,0.253278 -3.107142,2.104002 -2.827938,4.124242 l 0.205415,1.481776 c -0.279204,-2.020241 0.991174,-3.870964 2.827937,-4.124242 L 25.234563,23.16759 c 1.836763,-0.253278 3.559851,1.184623 3.83706,3.204863 l -0.205414,-1.481775 c -0.27721,-2.020241 -1.998303,-3.458141 -3.837061,-3.204863 z"
         id="path629"
         inkscape:connector-curvature="0" />
      <path
         style="fill:#ffffff"
         d="m 11.308267,30.769916 5.861289,42.592568 c 0.434761,0.592312 0.88747,1.168669 1.356134,1.737048 L 13.129076,35.879349 c -0.321085,-2.327365 1.362116,-4.483218 3.759282,-4.81228 L 78.95341,22.519438 c 0.233335,-0.03191 0.464675,-0.03989 0.696016,-0.03789 L 79.497858,21.37869 11.308267,30.769916 Z"
         id="path630"
         inkscape:connector-curvature="0" />
      <polygon
         transform="matrix(1.9943142,0,0,1.9943142,6.689435,-6.9704859)"
         style="fill:#ff3600;fill-opacity:1"
         points="41.232,40.73 39.817,30.447 38.722,32.001 31.627,42.053 "
         id="polygon653" />
      <polygon
         transform="matrix(1.9943142,0,0,1.9943142,6.689435,-6.9704859)"
         style="fill:url(#XMLID_28_)"
         points="33.236,41.074 40.388,40.089 39.334,32.434 "
         id="polygon660" />
      <path
         style="fill:#ffffff"
         d="m 84.705012,61.907144 c -0.07977,-0.58234 -0.153562,-1.128782 -0.221369,-1.619384 -2.203717,3.149023 -7.416854,10.593798 -9.445072,13.495525 0.450715,-0.06182 0.957271,-0.131625 1.499725,-0.207409 2.092035,-2.991471 5.957016,-8.509739 8.166716,-11.668732 z"
         id="path661"
         inkscape:connector-curvature="0" />
    </g>
    <g
       id="g7202"
       transform="translate(5.5110347,-0.3061686)">
      <rect
         style="fill:url(#linearGradient8056);fill-opacity:1;stroke:#00274a;stroke-width:0.6834529;stroke-opacity:1"
         id="rect14024"
         width="72.006683"
         height="52.1534"
         x="592.04028"
         y="210.74054" />
      <g
         transform="matrix(0.70561697,0,0,0.50082429,439.82967,192.76441)"
         style="font-style:normal;font-variant:normal;font-weight:bold;font-stretch:normal;font-size:60.12385559px;line-height:125%;font-family:Snickles;-inkscape-font-specification:'Snickles Bold';text-align:start;letter-spacing:0px;word-spacing:0px;writing-mode:lr-tb;text-anchor:start;fill:#ffffff;fill-opacity:1;stroke:none"
         id="g14034">
        <path
           d="m 223.79985,118.15627 c 0.0783,2.87703 0.79265,4.7559 2.14308,5.63661 0.39143,0.25444 0.98837,0.38165 1.7908,0.38165 0.48929,0 1.07643,-0.0489 1.76144,-0.14679 1.72229,-0.23485 3.20973,-0.81222 4.46232,-1.73208 0.84157,-0.56757 1.62443,-1.25258 2.34859,-2.05502 -0.23487,1.60488 -0.4208,3.15103 -0.55779,4.63846 -1e-5,0.15658 0.32292,0.25444 0.96879,0.29358 0.88071,0 1.58529,-0.0587 2.11373,-0.17615 2.07457,-0.39143 3.13143,-1.01771 3.17059,-1.87887 0.23485,-3.44459 1.24278,-8.84633 3.02381,-16.20526 1.03727,-2.48556 1.61463,-5.03965 1.73208,-7.662265 -2e-5,-0.293544 -0.32295,-0.44033 -0.96879,-0.44036 -0.27402,3e-5 -0.61652,0.02939 -1.02751,0.08807 -0.0392,-1.722267 -0.59695,-2.818273 -1.67336,-3.288024 -0.62631,-0.273968 -1.34067,-0.410969 -2.14309,-0.411003 -1.33088,3.4e-5 -2.91618,0.371893 -4.75589,1.11558 -4.05132,1.604899 -6.91855,3.953482 -8.60171,7.045762 -2.5443,4.67763 -3.81645,9.29651 -3.81645,13.85667 0,0.31316 0.01,0.62631 0.0294,0.93944 m 6.48797,-5.60725 c 0.35228,-2.36815 1.096,-4.93202 2.23116,-7.69163 0.27399,-0.68498 0.77307,-1.71249 1.49722,-3.08252 0.39143,-0.72412 0.81222,-1.30148 1.26237,-1.73209 0.0783,-0.07825 0.65564,-0.557759 1.73208,-1.438509 l 0.0587,-0.05872 c 0.0391,3.1e-5 0.0978,-0.03911 0.17614,-0.117429 0.0391,-0.03911 0.0978,-0.08804 0.17615,-0.146787 0.0978,-0.05868 0.20549,-0.13697 0.32293,-0.234859 l 0.0587,0 c 0.50885,0.391462 0.7535,1.233039 0.73394,2.524734 -2e-5,0.25445 -0.01,0.53824 -0.0294,0.85136 -1e-5,0.27403 0.37185,0.41103 1.11558,0.411 0.21527,3e-5 0.45013,-0.0195 0.70457,-0.0587 -0.0783,0.48931 -0.19572,1.03732 -0.35228,1.64401 -0.13702,0.58717 -0.31316,1.35046 -0.52844,2.28987 -0.2153,0.91989 -0.40123,1.67339 -0.55779,2.26052 -1.15473,2.68132 -3.00424,5.73448 -5.54854,9.15949 -1.23301,1.72231 -2.05501,2.79874 -2.46601,3.22931 l -0.35229,-0.70458 c -0.33272,-0.99814 -0.49908,-2.21157 -0.49908,-3.64031 0,-1.03728 0.0881,-2.192 0.26422,-3.46416"
           id="path14036"
           inkscape:connector-curvature="0" />
        <path
           d="m 247.9487,124.58553 c 0.56757,0.68501 1.46786,1.08622 2.70087,1.20365 0.274,0.0196 0.53822,0.0294 0.79265,0.0294 2.38773,0 4.91246,-0.97858 7.5742,-2.93574 2.87701,-2.13329 5.49959,-5.40174 7.86777,-9.80535 1.87885,-3.48372 2.81828,-6.63474 2.8183,-9.45307 -2e-5,-1.58527 -0.29359,-3.06292 -0.88072,-4.43296 -0.76331,-1.800553 -2.05503,-2.955274 -3.87517,-3.464167 -0.66545,-0.176111 -1.37981,-0.273969 -2.14308,-0.293574 -1.05688,3.4e-5 -2.1431,0.176178 -3.25867,0.528433 0.19571,-0.841544 0.69478,-2.945486 1.49722,-6.311831 l 0.61651,-2.407303 c 0.23485,-0.841535 0.43056,-1.643968 0.58715,-2.407303 0.4697,-1.898396 0.70456,-3.248833 0.70457,-4.051314 -1e-5,-0.176096 -0.01,-0.332668 -0.0294,-0.469718 -0.0587,-0.332668 -0.43058,-0.499026 -1.11557,-0.499075 -0.52845,4.9e-5 -1.26238,0.107693 -2.20181,0.322931 -1.97673,0.450194 -2.95531,1.037341 -2.93573,1.761441 -1e-5,0.05876 -1e-5,0.146834 0,0.264216 0.0196,0.0979 0.0294,0.185977 0.0294,0.264217 -10e-6,0.763336 -0.23487,2.064844 -0.70458,3.904527 l -0.64586,2.583447 c -0.31315,1.193905 -0.53822,2.074624 -0.67522,2.642162 -0.80244,3.405486 -1.54616,6.791364 -2.23116,10.157641 -0.31315,1.56575 -1.12537,4.89292 -2.43666,9.9815 -0.39143,1.60489 -0.7535,3.20975 -1.08622,4.81461 -0.11743,0.56758 -0.24464,1.33088 -0.38165,2.28987 -0.0783,0.4893 -0.14678,0.95902 -0.2055,1.40915 -0.0587,0.43059 -0.10764,0.73395 -0.14679,0.91008 l -0.0587,0.26422 c -0.33271,0.86115 -0.49907,1.57551 -0.49908,2.14308 1e-5,0.46973 0.10765,0.82201 0.32294,1.05687 m 5.95954,-3.3761 0.58714,-1.67337 c 0.15657,-2.44643 0.82201,-5.81274 1.9963,-10.09892 0.88072,-3.40543 1.66358,-6.75217 2.34859,-10.040218 l 0.0294,-0.11743 c 0.0196,-0.05869 0.0293,-0.127185 0.0294,-0.205501 0.56756,-0.234829 1.00792,-0.489259 1.32108,-0.763291 l 0.0294,-0.05871 0.0881,-0.05872 c 0.72414,0.352319 1.37978,1.047109 1.96694,2.08437 0.74371,1.31132 1.11557,2.82812 1.11558,4.55039 -1e-5,0.91989 -0.10766,1.90825 -0.32293,2.96509 -0.4893,2.2899 -1.50702,4.81463 -3.05317,7.5742 -0.48929,0.84159 -1.15473,1.88867 -1.9963,3.14124 -0.11743,0.15658 -0.21529,0.29358 -0.29357,0.411 -0.0783,0.11744 -0.19572,0.26423 -0.35229,0.44036 -0.13701,0.15658 -0.28379,0.33273 -0.44036,0.52843 -0.11743,0.11744 -0.21529,0.22508 -0.29357,0.32293 -0.0783,0.0979 -0.13701,0.17616 -0.17615,0.23486 l -0.0587,0.0881 c -0.45015,0.52844 -1.0373,1.13516 -1.76144,1.82016 -0.0783,0.0391 -0.17615,0.11744 -0.29357,0.23486 -0.11744,0.11743 -0.19572,0.19572 -0.23486,0.23486 l 0,-0.0587 c -0.27401,-0.23485 -0.41101,-0.50885 -0.41101,-0.822 0,-0.21528 0.0587,-0.45993 0.17615,-0.73394"
           id="path14038"
           inkscape:connector-curvature="0"
           sodipodi:nodetypes="ccscccccccccccccccccccccccccccccccccccccccccccccccccccccsc" />
        <path
           d="m 271.80398,109.84814 c -0.33271,2.11374 -0.49907,4.03176 -0.49907,5.75404 0,2.97489 0.48929,5.38219 1.46786,7.22191 0.90029,1.7223 2.42688,2.58345 4.57975,2.58344 1.13515,1e-5 2.45623,-0.23485 3.96324,-0.70457 3.01401,-0.959 5.42131,-2.96509 7.22191,-6.01826 0.11741,-0.1957 0.0978,-0.34249 -0.0587,-0.44036 -0.15659,-0.11742 -0.45995,-0.1957 -0.91008,-0.23486 -0.72416,1e-5 -1.24281,0.0489 -1.55594,0.14679 -1.95717,0.3523 -3.18039,0.91009 -3.66967,1.67337 -0.52844,0.84158 -1.11559,1.62445 -1.76144,2.34859 -0.0392,0.0392 -0.0979,0.0881 -0.17615,0.14678 -0.0783,0.0587 -0.15657,0.12722 -0.23485,0.2055 -0.4893,-0.31313 -0.94923,-0.91007 -1.3798,-1.79079 -0.7633,-1.48743 -1.16451,-3.62073 -1.20365,-6.39991 -1e-5,-0.23484 -1e-5,-0.45991 0,-0.67522 -1e-5,-1.82013 0.2055,-3.836 0.6165,-6.04761 0.39143,-2.28985 1.08622,-4.45251 2.08437,-6.48797 1.03729,-2.035418 2.22137,-3.503284 3.55224,-4.403607 l 0.0587,-0.05872 0.35229,0.205501 c 0.48928,0.234891 0.89049,0.489321 1.20365,0.763292 1.19385,1.076466 1.80057,2.661764 1.82015,4.755884 -10e-6,1.48747 -0.51866,2.8477 -1.55594,4.08068 -0.45015,0.45016 -0.41101,0.77309 0.11743,0.96879 0.31314,0.11745 0.7535,0.13703 1.32108,0.0587 2.07458,-0.15654 3.47394,-0.65562 4.19811,-1.49722 1.40913,-1.60484 2.11371,-3.41521 2.11373,-5.43111 -2e-5,-1.898411 -0.66546,-3.532635 -1.9963,-4.902677 -1.01774,-1.017687 -2.46604,-1.536333 -4.34489,-1.55594 -0.60673,3.5e-5 -1.26238,0.04896 -1.96695,0.146787 -3.01402,0.489323 -5.61704,1.712545 -7.80905,3.669669 -2.77916,2.485611 -4.62868,6.458641 -5.54854,11.919081 m 12.65302,-13.475021 0.0587,-0.05871 -0.0587,0.05871"
           id="path14040"
           inkscape:connector-curvature="0"
           sodipodi:nodetypes="cscccccccccccccccccccccccccccccccccc" />
      </g>
      <g
         id="g14072"
         transform="matrix(2.6882492,0,0,2.6882492,89.384408,-1014.9963)">
        <g
           id="g14066">
          <path
             sodipodi:nodetypes="ccccc"
             inkscape:connector-curvature="0"
             id="path14030"
             d="m 213.32189,485.88008 -3.5714,0 -7.05358,-8.90032 3.12498,0.16182 z"
             style="fill:#aa4400;fill-opacity:1;stroke:none" />
          <g
             id="g14062">
            <path
               sodipodi:nodetypes="ccccc"
               inkscape:connector-curvature="0"
               id="path14028"
               d="m 187.51832,485.96101 3.57144,0 7.05357,-8.90034 -3.12499,0.16183 z"
               style="fill:#aa4400;fill-opacity:1;stroke:none" />
            <rect
               y="480.29715"
               x="193.23264"
               height="1.3755052"
               width="13.839286"
               id="rect14032"
               style="fill:#aa4400;fill-opacity:1;stroke:none" />
          </g>
        </g>
        <rect
           y="475.92789"
           x="185.37549"
           height="2.2655382"
           width="30"
           id="rect14026"
           style="fill:#803300;fill-opacity:1;stroke:none" />
      </g>
      <g
         id="g14094"
         transform="matrix(2.6882492,0,0,2.6882492,89.384408,-1014.9963)">
        <path
           inkscape:connector-curvature="0"
           id="path14042"
           d="m 212.51319,459.86121 -4.03766,4.06785 -2.42259,-2.44152 4.03765,-4.06787 2.4226,2.44154 z"
           style="fill:url(#linearGradient8058);fill-opacity:1" />
        <path
           sodipodi:nodetypes="ccccccccccccccccc"
           inkscape:connector-curvature="0"
           id="path14082"
           d="m 208.40628,464.00436 -2.44213,0.004 0,-2.44073 0.16755,-0.15227 0.18321,0.30295 0.19709,0.0736 0.0976,0.26697 0.25493,0.0821 0.12243,0.23652 0.20782,0.0905 0.13096,0.25592 0.2438,0.11516 0.13085,0.27807 0.33823,0.18639 0.17242,0.27509 0.35798,0.2501 z"
           style="fill:#ffffff;fill-opacity:1" />
        <path
           sodipodi:nodetypes="cccc"
           inkscape:connector-curvature="0"
           id="path14092"
           d="m 205.96093,463.17859 0.85157,0.83203 -0.85156,0.004 z"
           style="fill:#000000;stroke:none" />
      </g>
    </g>
  </g>
</svg>
