<?xml version="1.0" encoding="UTF-8" standalone="no"?>
<!-- Created with Inkscape (http://www.inkscape.org/) -->

<svg
   xmlns:dc="http://purl.org/dc/elements/1.1/"
   xmlns:cc="http://creativecommons.org/ns#"
   xmlns:rdf="http://www.w3.org/1999/02/22-rdf-syntax-ns#"
   xmlns:svg="http://www.w3.org/2000/svg"
   xmlns="http://www.w3.org/2000/svg"
   xmlns:xlink="http://www.w3.org/1999/xlink"
   xmlns:sodipodi="http://sodipodi.sourceforge.net/DTD/sodipodi-0.dtd"
   xmlns:inkscape="http://www.inkscape.org/namespaces/inkscape"
   id="svg2"
   height="128"
   width="128"
   version="1.0"
viewBox="0 0 128 128"
   inkscape:version="0.91 r"
   sodipodi:docname="session-add.svg">
  <metadata
     id="metadata116">
    <rdf:RDF>
      <cc:Work
         rdf:about="">
        <dc:format>image/svg+xml</dc:format>
        <dc:type
           rdf:resource="http://purl.org/dc/dcmitype/StillImage" />
        <dc:title />
      </cc:Work>
    </rdf:RDF>
  </metadata>
  <sodipodi:namedview
     pagecolor="#ffffff"
     bordercolor="#666666"
     borderopacity="1"
     objecttolerance="10"
     gridtolerance="10"
     guidetolerance="10"
     inkscape:pageopacity="0"
     inkscape:pageshadow="2"
     inkscape:window-width="1920"
     inkscape:window-height="1051"
     id="namedview114"
     showgrid="false"
     inkscape:zoom="2.6074563"
     inkscape:cx="75.199793"
     inkscape:cy="41.28333"
     inkscape:window-x="0"
     inkscape:window-y="0"
     inkscape:window-maximized="1"
     inkscape:current-layer="svg2" />
  <defs
     id="defs4">
    <linearGradient
       id="linearGradient3579">
      <stop
         id="stop3581"
         stop-color="#672b27"
         offset="0" />
      <stop
         id="stop3583"
         stop-color="#712913"
         offset=".5" />
      <stop
         id="stop3585"
         stop-color="#965e26"
         offset="1" />
    </linearGradient>
    <linearGradient
       id="linearGradient3551">
      <stop
         id="stop3553"
         offset="0" />
      <stop
         id="stop3557"
         stop-color="#6f382e"
         stop-opacity="0"
         offset="1" />
    </linearGradient>
    <linearGradient
       id="linearGradient3511">
      <stop
         id="stop3513"
         stop-color="#813d20"
         offset="0" />
      <stop
         id="stop3515"
         stop-color="#7f4621"
         offset="1" />
    </linearGradient>
    <linearGradient
       id="linearGradient3439">
      <stop
         id="stop3441"
         stop-color="#824623"
         offset="0" />
      <stop
         id="stop3443"
         stop-color="#672412"
         offset=".5" />
      <stop
         id="stop3445"
         stop-color="#420804"
         stop-opacity=".99608"
         offset="1" />
    </linearGradient>
    <linearGradient
       id="linearGradient3431">
      <stop
         id="stop3433"
         stop-color="#c96905"
         offset="0" />
      <stop
         id="stop3435"
         stop-color="#d6902a"
         offset="1" />
    </linearGradient>
    <linearGradient
       id="linearGradient3405">
      <stop
         id="stop3407"
         stop-color="#672b27"
         offset="0" />
      <stop
         id="stop3413"
         stop-color="#712913"
         offset=".5" />
      <stop
         id="stop3409"
         stop-color="#620000"
         stop-opacity=".98431"
         offset="1" />
    </linearGradient>
    <linearGradient
       id="linearGradient3356"
       y2="278.1"
       gradientUnits="userSpaceOnUse"
       x2="661.55"
       y1="212.51"
       x1="575.89"
       gradientTransform="matrix(1.0492435,0,0,1.0573602,-587.93124,-213.85982)">
      <stop
         id="stop3360"
         stop-color="#029831"
         offset="0"
         style="stop-color:#027198;stop-opacity:1" />
      <stop
         id="stop3372"
         stop-color="#006c02"
         offset=".5"
         style="stop-color:#00296c;stop-opacity:1" />
      <stop
         id="stop3362"
         stop-color="#003b2d"
         offset="1"
         style="stop-color:#001c36;stop-opacity:1" />
    </linearGradient>
    <linearGradient
       id="linearGradient3376"
       y2="284.79"
       gradientUnits="userSpaceOnUse"
       x2="668.25"
       y1="284.79"
       x1="570.7"
       gradientTransform="matrix(1.0473917,0,0,1.0473917,-586.70062,-211.78347)">
      <stop
         id="stop3380"
         stop-color="#d68c23"
         offset="0" />
      <stop
         id="stop3392"
         stop-color="#c66100"
         offset=".5" />
      <stop
         id="stop3382"
         stop-color="#6f382e"
         offset="1" />
    </linearGradient>
    <linearGradient
       id="linearGradient3390"
       y2="280.44"
       gradientUnits="userSpaceOnUse"
       x2="668.93"
       y1="280.44"
       x1="568.19"
       gradientTransform="matrix(1.0473917,0,0,1.0473917,-586.70062,-211.78347)">
      <stop
         id="stop3386"
         stop-color="#d5801f"
         offset="0" />
      <stop
         id="stop3394"
         stop-color="#993a1b"
         offset=".5" />
      <stop
         id="stop3388"
         stop-color="#78413e"
         offset="1" />
    </linearGradient>
    <linearGradient
       id="linearGradient3613"
       y2="285.4"
       gradientUnits="userSpaceOnUse"
       x2="669.91"
       y1="285.4"
       x1="568.29"
       gradientTransform="matrix(1.0473917,0,0,1.0473917,-586.70062,-211.78347)">
      <stop
         id="stop3609"
         stop-color="#fff"
         stop-opacity=".50196"
         offset="0" />
      <stop
         id="stop3611"
         stop-color="#fff"
         stop-opacity=".36078"
         offset="1" />
    </linearGradient>
    <linearGradient
       id="linearGradient3617"
       y2="88.929"
       gradientUnits="userSpaceOnUse"
       x2="66.259"
       y1="7.8641"
       x1="66.259">
      <stop
         id="stop3307"
         stop-color="#010000"
         offset="0" />
      <stop
         id="stop3352"
         stop-color="#411000"
         offset=".73611" />
      <stop
         id="stop3309"
         stop-color="#822000"
         offset="1" />
    </linearGradient>
    <linearGradient
       id="linearGradient3654"
       y2="289.29"
       gradientUnits="userSpaceOnUse"
       x2="668"
       y1="289.29"
       x1="568.67"
       gradientTransform="matrix(1.0473917,0,0,1.0473917,-586.70062,-211.78347)">
      <stop
         id="stop3625"
         stop-color="#811f00"
         offset="0" />
      <stop
         id="stop3631"
         stop-color="#5d0003"
         offset=".5" />
      <stop
         id="stop3627"
         stop-color="#811f00"
         offset="1" />
    </linearGradient>
    <linearGradient
       id="linearGradient3845"
       y2="297.6"
       xlink:href="#linearGradient3551"
       gradientUnits="userSpaceOnUse"
       x2="599.37"
       gradientTransform="matrix(-1.0473917,0,0,1.0473917,708.29448,-211.78347)"
       y1="285.4"
       x1="599.37" />
    <linearGradient
       id="linearGradient3847"
       y2="318.35"
       xlink:href="#linearGradient3579"
       gradientUnits="userSpaceOnUse"
       x2="597.52"
       gradientTransform="matrix(-1.0473917,0,0,1.0473917,708.18974,-211.78347)"
       y1="290.62"
       x1="597.52" />
    <linearGradient
       id="linearGradient3850"
       y2="297.6"
       xlink:href="#linearGradient3551"
       gradientUnits="userSpaceOnUse"
       x2="599.37"
       gradientTransform="matrix(1.0473917,0,0,1.0473917,-586.7053,-211.78347)"
       y1="285.4"
       x1="599.37" />
    <linearGradient
       id="linearGradient3852"
       y2="318.35"
       xlink:href="#linearGradient3579"
       gradientUnits="userSpaceOnUse"
       x2="597.52"
       gradientTransform="matrix(1.0473917,0,0,1.0473917,-586.59325,-211.78347)"
       y1="290.62"
       x1="597.52" />
    <linearGradient
       id="linearGradient3855"
       y2="297.05"
       xlink:href="#linearGradient3431"
       gradientUnits="userSpaceOnUse"
       x2="583.48"
       gradientTransform="matrix(-1.0473917,0,0,1.0473917,708.6087,-211.78347)"
       y1="315.81"
       x1="583.48" />
    <linearGradient
       id="linearGradient3857"
       y2="318.35"
       xlink:href="#linearGradient3405"
       gradientUnits="userSpaceOnUse"
       x2="597.52"
       gradientTransform="matrix(-1.0473917,0,0,1.0473917,708.50395,-211.78347)"
       y1="290.62"
       x1="597.52" />
    <linearGradient
       id="linearGradient3860"
       y2="297.05"
       xlink:href="#linearGradient3431"
       gradientUnits="userSpaceOnUse"
       x2="583.48"
       gradientTransform="matrix(1.0473917,0,0,1.0473917,-586.7053,-211.78347)"
       y1="315.81"
       x1="583.48" />
    <linearGradient
       id="linearGradient3862"
       y2="318.35"
       xlink:href="#linearGradient3405"
       gradientUnits="userSpaceOnUse"
       x2="597.52"
       gradientTransform="matrix(1.0473917,0,0,1.0473917,-586.59325,-211.78347)"
       y1="290.62"
       x1="597.52" />
    <linearGradient
       id="linearGradient3865"
       y2="299.34"
       xlink:href="#linearGradient3551"
       gradientUnits="userSpaceOnUse"
       x2="622.05"
       gradientTransform="matrix(1.0473917,0,0,1.0473917,-586.70062,-210.73609)"
       y1="295.55"
       x1="622.05" />
    <linearGradient
       id="linearGradient3867"
       y2="299.45"
       xlink:href="#linearGradient3511"
       gradientUnits="userSpaceOnUse"
       x2="617.44"
       y1="302.66"
       x1="617.44"
       gradientTransform="matrix(1.0473917,0,0,1.0473917,-586.70062,-211.78347)" />
    <linearGradient
       id="linearGradient3870"
       y2="299.04"
       xlink:href="#linearGradient3431"
       gradientUnits="userSpaceOnUse"
       x2="622.05"
       gradientTransform="matrix(1.0473917,0,0,1.0473917,-586.70062,-210.73609)"
       y1="301.88"
       x1="622.05" />
    <linearGradient
       id="linearGradient3875"
       y2="319.61"
       xlink:href="#linearGradient3439"
       gradientUnits="userSpaceOnUse"
       x2="598.18"
       gradientTransform="matrix(-1.0473917,0,0,1.0473917,708.6087,-211.78347)"
       y1="290.65"
       x1="598.18" />
    <linearGradient
       id="linearGradient3878"
       y2="299.61"
       gradientUnits="userSpaceOnUse"
       x2="612.31"
       y1="303.4"
       x1="612.31"
       gradientTransform="matrix(1.0473917,0,0,1.0473917,-586.70062,-211.78347)">
      <stop
         id="stop3505"
         stop-color="#712717"
         offset="0" />
      <stop
         id="stop3507"
         stop-color="#76351b"
         offset="1" />
    </linearGradient>
    <linearGradient
       id="linearGradient3881"
       y2="319.61"
       xlink:href="#linearGradient3439"
       gradientUnits="userSpaceOnUse"
       x2="598.18"
       gradientTransform="matrix(1.0473917,0,0,1.0473917,-586.7053,-211.78347)"
       y1="290.65"
       x1="598.18" />
    <linearGradient
       id="linearGradient3980"
       y2="55.843"
       gradientUnits="userSpaceOnUse"
       x2="27.965"
       y1="10.75"
       x1="27.965"
       gradientTransform="matrix(1.0473917,0,0,1.0473917,-10.331443,-2.5250823)">
      <stop
         id="stop3976"
         stop-color="#fff"
         stop-opacity=".36078"
         offset="0" />
      <stop
         id="stop3978"
         stop-color="#fff"
         stop-opacity="0"
         offset="1" />
    </linearGradient>
    <linearGradient
       id="linearGradient3990"
       y2="80.617"
       gradientUnits="userSpaceOnUse"
       x2="111.23"
       y1="13.656"
       x1="111.23"
       gradientTransform="matrix(1.0473917,0,0,1.0473917,-10.331443,-2.5250823)">
      <stop
         id="stop3986"
         stop-color="#fff"
         stop-opacity=".36078"
         offset="0" />
      <stop
         id="stop3988"
         stop-color="#fff"
         stop-opacity=".086275"
         offset="1" />
    </linearGradient>
    <linearGradient
       inkscape:collect="always"
       xlink:href="#linearGradient3617"
       id="linearGradient3444"
       gradientUnits="userSpaceOnUse"
       x1="66.259"
       y1="7.8641"
       x2="66.259"
       y2="88.929"
       gradientTransform="matrix(1.0473917,0,0,1.0473917,-10.331443,-2.5250823)" />
    <linearGradient
       inkscape:collect="always"
       xlink:href="#linearGradient3511"
       id="linearGradient3446"
       gradientUnits="userSpaceOnUse"
       x1="617.44"
       y1="302.66"
       x2="617.44"
       y2="299.45"
       gradientTransform="matrix(1.0473917,0,0,1.0473917,-586.70062,-211.78347)" />
    <linearGradient
       inkscape:collect="always"
       xlink:href="#linearGradient3617"
       id="linearGradient3448"
       gradientUnits="userSpaceOnUse"
       x1="66.259"
       y1="7.8641"
       x2="66.259"
       y2="88.929"
       gradientTransform="matrix(1.0473917,0,0,1.0473917,-10.331443,-2.5250823)" />
    <linearGradient
       id="linearGradient5683"
       inkscape:collect="always">
      <stop
         id="stop5685"
         offset="0"
         style="stop-color:#047804;stop-opacity:1" />
      <stop
         id="stop5687"
         offset="1"
         style="stop-color:#169f16;stop-opacity:1" />
    </linearGradient>
    <linearGradient
       id="linearGradient5665"
       inkscape:collect="always">
      <stop
         id="stop5667"
         offset="0"
         style="stop-color:#006200;stop-opacity:1" />
      <stop
         id="stop5669"
         offset="1"
         style="stop-color:#003d18;stop-opacity:1" />
    </linearGradient>
    <linearGradient
       gradientTransform="translate(-107.42857,-368.36218)"
       gradientUnits="userSpaceOnUse"
       y2="392.44968"
       x2="152.07178"
       y1="392.44968"
       x1="111.10294"
       id="linearGradient5671"
       xlink:href="#linearGradient5665"
       inkscape:collect="always" />
    <linearGradient
       gradientTransform="translate(-107.42857,-368.36218)"
       gradientUnits="userSpaceOnUse"
       y2="391.98309"
       x2="146.4288"
       y1="391.98309"
       x1="116.41035"
       id="linearGradient5689"
       xlink:href="#linearGradient5683"
       inkscape:collect="always" />
    <filter
       id="filter5703"
       inkscape:collect="always">
      <feGaussianBlur
         id="feGaussianBlur5705"
         stdDeviation="0.32"
         inkscape:collect="always" />
    </filter>
  </defs>
  <rect
     style="opacity:1;fill:#ffcc00;fill-opacity:0;stroke:none;stroke-width:1;stroke-linecap:round;stroke-linejoin:round;stroke-miterlimit:4;stroke-dasharray:none;stroke-dashoffset:0;stroke-opacity:1"
     id="rect3450"
     width="128"
     height="128"
     x="0"
     y="0"
     ry="0"
     inkscape:export-filename="/var/www/chamilo/main/img/icons/32/course-add.png"
     inkscape:export-xdpi="22.5"
     inkscape:export-ydpi="22.5" />
  <path
     style="fill:#ffffff;fill-rule:evenodd"
     inkscape:connector-curvature="0"
     d="m 107.33254,81.876883 1.04739,-0.03247 -1.60251,-73.7971238 0,-0.03352 c 0,0 0.74365,-0.7896282 0.74365,-0.7896282 0,1.046e-4 -1.35113,0.2958887 -1.35113,0.2858328 L 15.100276,7.6869804 c -0.01152,-0.00115 -0.02932,-0.00356 -0.06494,0 -0.01885,0.00172 -0.06913,-0.011035 -0.09845,0 -0.01467,0.0054 -0.01571,0.022415 -0.03247,0.03268 -0.01676,0.010346 -0.06494,0.032255 -0.06598,0.032784 0,5.242e-4 -0.02199,0.048601 -0.03247,0.065464 -0.01046,0.016863 -0.02723,0.017909 -0.03247,0.03268 -0.01152,0.029646 10e-4,0.080121 0,0.098248 -0.0041,0.036658 -10e-4,0.053418 0,0.064936 l 0,0.03352 -1.27677,73.7971236 1.047391,0.03247 1.276771,-73.1425043 89.909142,0 1.60251,73.1425043 z M 106.77742,8.0137725 c 0,-0.00207 0.0103,0.01676 0,-0.064936 l 0,-0.098248 c 0,-8.38e-4 -0.0629,-0.064729 -0.0629,-0.065361 0,-7.334e-4 -0.0418,-0.053935 -0.0629,-0.065568 -0.0209,-0.011518 -0.0524,-0.028703 -0.0733,-0.03268 -0.0524,-0.015817 -0.0733,0 -0.0943,0 l -0.0314,0 c 0.16759,0.1579456 0.32469,0.3267851 0.32469,0.3267851 z"
     id="path3970" />
  <path
     inkscape:connector-curvature="0"
     style="fill:url(#linearGradient3356);fill-rule:evenodd;stroke:none;stroke-width:1.04739177;stroke-linecap:square;stroke-linejoin:round"
     d="m 13.820372,6.3777466 93.781378,0 c 0.27281,0 0.49314,0.2220457 0.49314,0.4969603 l 1.26959,74.0786571 c 0,0.274914 -0.22034,0.496959 -0.49314,0.496959 l -95.050968,0 c -0.272804,0 -0.493145,-0.222045 -0.493145,-0.496959 l 0,-74.0786571 c 0,-0.2749146 0.220341,-0.4969603 0.493145,-0.4969603 z"
     id="rect3354" />
  <path
     inkscape:connector-curvature="0"
     style="fill:url(#linearGradient3444);fill-rule:evenodd"
     d="m 6.4917629,90.987095 c 0,0.684995 0.5917763,1.276771 1.2767706,1.276771 l 106.3416765,0 c 0.69128,0 1.27782,-0.591776 1.27782,-1.276771 l -108.8973143,0 z"
     id="path3635" />
  <path
     inkscape:connector-curvature="0"
     style="fill:none;stroke:url(#linearGradient3881);stroke-width:1.46634841;stroke-linecap:square;stroke-linejoin:round"
     d="m 39.849093,88.451361 c -0.345638,0 -0.77507,0.219952 -0.984548,0.492274 l -22.4875,29.065115 c -1.791039,2.31474 -0.900757,4.18957 2.03194,4.18957 l 2.335684,0 2.000518,0 5.383593,0 c 0.335166,0 0.806493,-0.21995 1.015971,-0.49227 L 52.868173,88.943635 c 0.18853,-0.282796 0.104743,-0.492274 -0.230427,-0.492274 l -3.812505,0 -5.037955,0 -3.938193,0 z"
     id="rect3396" />
  <rect
     style="fill:none;stroke:url(#linearGradient3878);stroke-width:1.04739177;stroke-linecap:square;stroke-linejoin:round"
     x="39.67107"
     y="99.595619"
     width="42.839367"
     height="7.3317418"
     ry="0.61743742"
     id="rect3489" />
  <path
     inkscape:connector-curvature="0"
     style="fill:none;stroke:url(#linearGradient3875);stroke-width:1.46634841;stroke-linecap:square;stroke-linejoin:round"
     d="m 82.027557,88.451361 c 0.345639,0 0.775071,0.219952 0.984549,0.492274 L 105.4996,118.00875 c 1.79104,2.31474 0.89029,4.18957 -2.03193,4.18957 l -2.33568,0 -2.000525,0 -5.383595,0 c -0.345638,0 -0.806491,-0.21995 -1.015969,-0.49227 L 69.008479,88.943635 c -0.188531,-0.282796 -0.115213,-0.492274 0.230426,-0.492274 l 3.802032,0 5.048428,0 3.938192,0 z"
     id="path3453" />
  <rect
     style="fill:url(#linearGradient3870);fill-rule:evenodd;stroke:url(#linearGradient3446);stroke-width:1.04739177;stroke-linecap:square;stroke-linejoin:round"
     x="39.67107"
     y="100.64301"
     width="42.839367"
     height="5.2369585"
     ry="0.61743742"
     id="rect3499" />
  <rect
     style="fill:url(#linearGradient3865);fill-rule:evenodd;stroke:url(#linearGradient3867);stroke-width:1.04739177;stroke-linecap:square;stroke-linejoin:round"
     x="39.67107"
     y="100.64301"
     width="42.839367"
     height="5.2369585"
     ry="0.61743742"
     id="rect3565" />
  <path
     inkscape:connector-curvature="0"
     style="fill:url(#linearGradient3860);fill-rule:evenodd;stroke:url(#linearGradient3862);stroke-width:1.39931524;stroke-linecap:square;stroke-linejoin:round"
     d="m 40.728902,89.435909 c -0.32469,0 -0.733173,0.209478 -0.932178,0.471326 l -2.723218,3.529711 -19.942339,24.205224 c -1.707248,2.21 -0.85886,4.00103 1.937675,4.00103 l 2.230945,0 1.906252,0 4.220989,0 c 0.324692,0 0.764596,-0.21995 0.9636,-0.47132 L 50.951445,89.907235 c 0.199005,-0.261848 0.115214,-0.471326 -0.209478,-0.471326 l -2.649901,0 -4.807528,0 -2.555636,0 z"
     id="path3403" />
  <path
     inkscape:connector-curvature="0"
     style="fill:url(#linearGradient3855);fill-rule:evenodd;stroke:url(#linearGradient3857);stroke-width:1.39931524;stroke-linecap:square;stroke-linejoin:round"
     d="m 81.137275,89.435909 c 0.324691,0 0.743647,0.209478 0.942652,0.471326 l 2.712745,3.529711 19.952808,24.205224 c 1.70725,2.21 0.85887,4.00103 -1.93767,4.00103 l -2.23094,0 -1.906253,0 -4.220994,0 c -0.324692,0 -0.77507,-0.21995 -0.974074,-0.47132 L 70.914732,89.907235 c -0.199005,-0.261848 -0.104743,-0.471326 0.219952,-0.471326 l 2.639427,0 4.807528,0 2.555636,0 z"
     id="path3455" />
  <path
     inkscape:connector-curvature="0"
     style="fill:url(#linearGradient3850);fill-rule:evenodd;stroke:url(#linearGradient3852);stroke-width:0.83791339;stroke-linecap:square;stroke-linejoin:round"
     d="m 40.728902,89.435909 c -0.32469,0 -0.733173,0.209478 -0.932178,0.471326 l -2.723218,3.529711 -18.947317,23.807214 c -1.707248,2.20999 -1.2045,3.91725 1.592036,3.91725 l 1.141658,0 1.906251,0 4.22099,0 c 0.324691,0 0.764596,-0.16759 0.974074,-0.42943 L 50.951445,89.907235 c 0.199005,-0.261848 0.115214,-0.471326 -0.209478,-0.471326 l -2.649901,0 -4.807528,0 -2.555636,0 z"
     id="path3547" />
  <path
     inkscape:connector-curvature="0"
     style="fill:url(#linearGradient3845);fill-rule:evenodd;stroke:url(#linearGradient3847);stroke-width:0.83791339;stroke-linecap:square;stroke-linejoin:round"
     d="m 80.854479,89.435909 c 0.335165,0 0.743648,0.209478 0.942652,0.471326 l 2.712745,3.529711 18.947324,23.807214 c 1.71772,2.20999 1.2045,3.91725 -1.58158,3.91725 l -1.14165,0 -1.90625,0 -4.220988,0 c -0.335165,0 -0.77507,-0.16759 -0.974075,-0.42943 L 70.631936,89.907235 c -0.199005,-0.261848 -0.104743,-0.471326 0.219952,-0.471326 l 2.639427,0 4.818002,0 2.545162,0 z"
     id="path3589" />
  <path
     inkscape:connector-curvature="0"
     style="fill:url(#linearGradient3990);fill-rule:evenodd"
     d="m 107.33254,81.876883 1.04739,-0.03247 -1.60251,-73.7971238 0,-0.03352 c 0,0 0.74365,-0.7896282 0.74365,-0.7896282 0,1.046e-4 -1.35113,0.2958887 -1.35113,0.2858328 L 15.100276,7.6869804 c -0.01152,-0.00115 -0.02932,-0.00356 -0.06494,0 -0.01885,0.00172 -0.06913,-0.011035 -0.09845,0 -0.01467,0.0054 -0.01571,0.022415 -0.03247,0.03268 -0.01676,0.010346 -0.06494,0.032255 -0.06598,0.032784 0,5.242e-4 -0.02199,0.048601 -0.03247,0.065464 -0.01046,0.016863 -0.02723,0.017909 -0.03247,0.03268 -0.01152,0.029646 10e-4,0.080121 0,0.098248 -0.0041,0.036658 -10e-4,0.053418 0,0.064936 l 0,1.2820079 1.047392,0 89.909142,0 1.60251,72.5811027 z M 106.77742,8.0137725 c 0,-0.00207 0.0103,0.01676 0,-0.064936 l 0,-0.098248 c 0,-8.38e-4 -0.0629,-0.064729 -0.0629,-0.065361 0,-7.334e-4 -0.0418,-0.053935 -0.0629,-0.065568 -0.0209,-0.011518 -0.0524,-0.028703 -0.0733,-0.03268 -0.0524,-0.015817 -0.0733,0 -0.0943,0 l -0.0314,0 c 0.16759,0.1579456 0.32469,0.3267851 0.32469,0.3267851 z"
     id="path3961" />
  <rect
     style="fill:url(#linearGradient3376);fill-rule:evenodd;stroke:url(#linearGradient3390);stroke-width:1.04739177;stroke-linecap:square;stroke-linejoin:round"
     x="7.5370336"
     y="81.789955"
     width="106.90727"
     height="9.2636557"
     ry="0.48870248"
     id="rect3374" />
  <rect
     style="fill:none;stroke:url(#linearGradient3613);stroke-width:1.04739177;stroke-linecap:square"
     x="9.0452805"
     y="82.837349"
     width="105.39902"
     height="8.3692884"
     id="rect3595" />
  <path
     inkscape:connector-curvature="0"
     style="fill:url(#linearGradient3448);fill-rule:evenodd"
     d="m 88.185174,92.263866 -0.743648,-1.571087 26.112524,0 c 0.0209,0.0031 0.0419,0.0031 0.0629,0 0.0733,-0.01885 0.13615,-0.06598 0.16758,-0.130924 0.0209,-0.03037 0.0314,-0.06389 0.0314,-0.09846 l 0,-0.03247 0,-8.640981 0,-0.06494 c -0.0209,-0.07122 -0.0629,-0.129877 -0.12568,-0.16444 -0.0314,-0.01676 -0.0629,-0.02828 -0.10472,-0.03247 -0.0103,-10e-4 -0.0209,-10e-4 -0.0314,0 l -2.26236,0 -2.86986,0 -0.0418,-1.832935 -1.60252,-71.6478771 0,-0.03352 c 0,-0.00207 0.0104,0.01676 0,-0.064936 l 0,-0.098248 c 0,-8.38e-4 -0.0629,-0.064729 -0.0629,-0.065361 0,-7.334e-4 -0.0418,-0.053935 -0.0629,-0.065568 -0.0209,-0.011518 -0.0524,-0.028703 -0.0733,-0.03268 -0.0524,-0.015817 -0.0733,0 -0.0943,0 l -91.383883,0 c -0.01152,-0.00115 -0.02932,-0.00356 -0.06494,0 -0.01885,0.00172 -0.06913,-0.011035 -0.09846,0 -0.01467,0.0054 -0.01571,0.022415 -0.03247,0.03268 -0.01676,0.010346 -0.06494,0.032255 -0.06598,0.032784 0,5.242e-4 -0.02199,0.048601 -0.03247,0.065464 -0.01046,0.016863 -0.02723,0.017909 -0.03247,0.03268 -0.01152,0.029646 10e-4,0.080121 0,0.098248 -0.0041,0.036658 -10e-4,0.053418 0,0.064936 l 0,0.03352 -1.276771,71.6478771 -0.03247,1.832935 -2.880328,0 -2.2592239,0 c -0.020944,-0.0031 -0.042946,-0.0031 -0.064936,0 -0.070177,0.01885 -0.129877,0.06598 -0.1633932,0.130924 -0.017806,0.03037 -0.028278,0.06389 -0.03352,0.09846 l 0,0.03247 0,8.640982 c -0.00207,0.02199 -0.00207,0.04399 0,0.06493 0.019898,0.07122 0.067028,0.129877 0.1319714,0.164442 0.029324,0.01676 0.062843,0.02828 0.097409,0.03247 0.011518,0.001 0.02199,0.001 0.032474,0 l 25.7071817,0 -1.239065,1.571087 -25.0242813,0 c -0.6849944,0 -1.2767707,-0.591776 -1.2767707,-1.27677 l 0,-9.78578 c 0,-0.686042 0.585492,-1.244302 1.2767707,-1.244302 l 2.8478573,0 c 0.02199,0.0031 0.04399,0.0031 0.06494,0 0.07122,-0.01885 0.129876,-0.06598 0.164441,-0.130924 0.01676,-0.03037 0.02828,-0.06389 0.03247,-0.09846 10e-4,-0.01046 10e-4,-0.022 0,-0.03247 L 12.15501,8.0137725 c 0,-1.5989475 1.345899,-2.9452656 2.945266,-2.9452656 l 91.383884,0 c 1.6025,0 2.91174,1.310288 2.91174,2.9127966 l 1.57109,71.7138635 c 0,0.07645 0.042,0.148729 0.10472,0.196909 0.0418,0.0398 0.0943,0.06284 0.1571,0.06494 l 2.88033,0 c 0.69128,0 1.27782,0.55826 1.27782,1.244301 l 0,9.78578 c 0,0.684995 -0.58654,1.276771 -1.27782,1.276771 l -25.923989,0 z"
     id="rect2521" />
  <path
     inkscape:connector-curvature="0"
     style="fill:none;stroke:url(#linearGradient3654);stroke-width:1.04739177"
     d="m 9.4433128,91.216475 102.9900272,0"
     id="path3621" />
  <path
     style="fill:#ffffff;stroke:#ffffff;stroke-width:0.31784377"
     inkscape:connector-curvature="0"
     d="m 38.448257,45.896071 c -0.238387,0 -0.683366,-0.286059 -1.334948,-0.842285 -0.572115,-0.540335 -1.017098,-1.001209 -1.287265,-1.414409 -1.239589,0.667474 -2.33615,1.176025 -3.273791,1.509761 -0.937641,0.349626 -1.73225,0.524441 -2.352045,0.524441 -3.019515,0 -5.212637,-0.858177 -6.595261,-2.55864 -1.303159,-1.605116 -1.954734,-4.052512 -1.954734,-7.342194 0,-3.13076 1.064776,-5.784753 3.210219,-8.009662 2.161338,-2.209017 4.719982,-3.321468 7.691821,-3.321468 1.128345,0 2.383827,0.28606 3.76645,0.874071 1.764031,0.71515 2.638101,1.589219 2.638101,2.60632 0,0.349623 -0.127134,0.651575 -0.397304,0.921745 -0.127137,0.492659 -0.222491,1.303161 -0.30195,2.415613 -0.06359,1.128342 -0.111248,2.558642 -0.111248,4.322677 -0.01588,1.589215 0.09537,2.860591 0.317843,3.782337 0.127134,0.572122 0.540335,1.700467 1.223694,3.40093 0.09537,0.238383 0.238386,0.572122 0.444982,1.03299 l 0.111248,0.317849 c 0,0.524439 -0.174816,0.937639 -0.540335,1.287265 -0.365522,0.333732 -0.778718,0.492659 -1.255482,0.492659 z M 34.427533,32.46717 c 0,-0.556228 0.03177,-1.160126 0.11125,-1.811711 0.06359,-0.651575 0.174813,-1.350834 0.31784,-2.081878 -0.476762,-0.23838 -0.889958,-0.429084 -1.223695,-0.540335 -0.349628,-0.111248 -0.619798,-0.174811 -0.826391,-0.174811 -2.002418,0 -3.718774,0.810505 -5.180857,2.447399 -1.446191,1.636897 -2.161338,3.512172 -2.161338,5.641725 0,2.113662 0.365522,3.686989 1.112457,4.751767 0.74693,1.048881 1.875278,1.589216 3.369142,1.589216 1.239589,0 2.288474,-0.238381 3.146654,-0.683367 0.460869,-0.23838 1.112453,-0.731034 1.954739,-1.46208 -0.413197,-3.416821 -0.619792,-5.975462 -0.619792,-7.675925 z"
     id="text3658" />
  <path
     style="fill:#ffffff;stroke:#ffffff;stroke-width:0.28010714"
     inkscape:connector-curvature="0"
     d="m 57.275588,50.21243 c -2.100804,0 -4.019539,-0.420165 -5.742197,-1.24648 -0.434164,0.658255 -0.980373,0.994381 -1.610618,0.994381 -0.518195,0 -0.966367,-0.182069 -1.330507,-0.546208 -0.364137,-0.36414 -0.546209,-0.826316 -0.546209,-1.372524 0,-0.364143 0.01398,-0.896342 0.042,-1.596614 0.042,-0.700265 0.05604,-1.232471 0.05604,-1.596611 0,-1.456554 -0.042,-3.641389 -0.112046,-6.554507 -0.08406,-2.92712 -0.112044,-5.11195 -0.112044,-6.568511 0,-1.008388 0,-2.913111 0.01399,-5.714183 0.01398,-2.81508 0.02799,-4.719807 0.02799,-5.742196 0,-0.826317 0.168063,-1.5686 0.518198,-2.226855 0.448172,-0.840321 1.078413,-1.26048 1.876719,-1.26048 1.036397,0 1.554593,0.588222 1.554593,1.792683 0,0.196076 -0.042,0.476182 -0.112044,0.854326 -0.07005,0.364143 -0.09805,0.64425 -0.09805,0.840326 l -0.07006,4.523726 -0.02799,5.28002 c 1.190455,-0.812309 2.338894,-1.428545 3.417307,-1.834702 1.078413,-0.406154 2.100806,-0.602231 3.05317,-0.602231 2.955128,0 5.36405,1.134437 7.212757,3.403303 1.736665,2.142824 2.604996,4.761824 2.604996,7.885013 0,3.137202 -1.02239,5.79822 -3.039162,7.997062 -2.030776,2.184835 -4.551742,3.291262 -7.576896,3.291262 z m 0.798305,-18.669142 c -1.134434,0 -2.296878,0.308116 -3.473327,0.938357 -0.588228,0.322124 -1.582605,1.008385 -2.983143,2.058788 l -0.04199,3.571369 0.02799,3.221231 0.01398,3.389293 c 0.65825,0.30812 1.596609,0.700272 2.787067,1.162446 0.854325,0.266102 1.820694,0.39215 2.871098,0.39215 2.002766,0 3.641393,-0.700265 4.929886,-2.100804 1.274485,-1.414538 1.918735,-3.16521 1.918735,-5.252012 0,-2.058784 -0.518201,-3.781443 -1.554596,-5.153967 -1.106426,-1.48457 -2.619002,-2.226851 -4.495723,-2.226851 z"
     id="text3662" />
  <path
     style="fill:#ffffff;stroke:#ffffff;stroke-width:0.27674422"
     inkscape:connector-curvature="0"
     d="m 86.060312,53.642375 c -3.293254,0 -6.033021,-0.996277 -8.233141,-2.988837 -2.310813,-2.089419 -3.459301,-4.829184 -3.459301,-8.246976 0,-3.265581 1.079302,-6.614188 3.237906,-10.087328 2.407678,-3.846745 5.119771,-5.770119 8.136283,-5.770119 1.577441,0 3.334767,0.373608 5.271973,1.10698 2.449194,0.940932 3.680706,2.103256 3.680706,3.459303 0,0.608836 -0.207559,1.162324 -0.608861,1.63279 -0.401263,0.470464 -0.899402,0.705694 -1.480562,0.705694 -0.470466,0 -0.87174,-0.13837 -1.217668,-0.415114 -0.345942,-0.29058 -0.678032,-0.567324 -0.996289,-0.830232 -0.954766,-0.761045 -2.504534,-1.134653 -4.649299,-1.134653 -1.632793,0 -3.251748,1.45291 -4.856862,4.372561 -1.466746,2.68442 -2.186281,4.995233 -2.186281,6.960118 0,2.117091 0.719535,3.777558 2.158604,4.995233 1.342211,1.148488 3.0857,1.715812 5.202792,1.715812 0.954766,0 1.978724,-0.262909 3.071863,-0.774882 l 2.795115,-1.494418 c 0.48431,-0.249071 0.830238,-0.373608 1.037795,-0.373608 0.594991,0 1.106961,0.235237 1.535922,0.705701 0.428964,0.470466 0.650366,1.010118 0.650366,1.618954 0,1.17616 -1.231526,2.310815 -3.708379,3.390115 -2.158609,0.968605 -3.957448,1.452906 -5.382682,1.452906 z"
     id="text3666" />
  <path
     inkscape:connector-curvature="0"
     style="fill:url(#linearGradient3980);fill-rule:evenodd"
     d="m 14.773489,9.2905432 -1.27677,72.5643448 1.047391,0.03352 1.276771,-72.5978614 -1.047392,0 z"
     id="path3972" />
  <g
     transform="matrix(1.2744868,0,0,1.2744868,-74.589703,-414.89768)"
     id="layer1-8"
     inkscape:label="Layer 1"
     inkscape:export-filename="/var/www/chamilo/main/img/icons/32/course-add.png"
     inkscape:export-xdpi="22.5"
     inkscape:export-ydpi="22.5">
    <path
       id="path5701"
       transform="translate(107.42857,368.36218)"
       d="m 17.875,3.40625 c -2.475371,0 -4.5,2.02464 -4.5,4.5 l 0,5.5 -5.5,0 c -2.4753702,0 -4.5,2.02464 -4.5,4.5 l 0,13 c 10e-8,2.47537 2.02464,4.5 4.5,4.5 l 5.5,0 0,5.5 c 0,2.47537 2.02464,4.5 4.5,4.5 l 13,0 c 2.475369,0 4.5,-2.02464 4.5,-4.5 l 0,-5.5 5.5,0 c 2.475371,0 4.5,-2.02464 4.5,-4.5 l 0,-13 c 10e-7,-2.47537 -2.02464,-4.5 -4.5,-4.5 l -5.5,0 0,-5.5 c 10e-7,-2.4753702 -2.02464,-4.5 -4.5,-4.5 l -13,0 z"
       style="opacity:1;fill:#000000;fill-opacity:0.49803922;fill-rule:evenodd;stroke:none;stroke-width:2;stroke-linecap:butt;stroke-linejoin:round;stroke-miterlimit:4;stroke-dasharray:none;stroke-dashoffset:1.56000006;stroke-opacity:1;filter:url(#filter5703)"
       inkscape:connector-curvature="0" />
    <path
       id="rect5154"
       transform="translate(107.42857,368.36218)"
       d="M 17.5,4 C 15.561337,4 14,5.5613368 14,7.5 L 14,14 7.5,14 C 5.5613365,14 3.9999998,15.561336 4,17.5 l 0,13 c 0,1.938663 1.5613363,3.499999 3.5,3.5 l 6.5,0 0,6.5 c 0,1.938663 1.561337,3.499999 3.5,3.5 l 13,0 c 1.938663,0 3.5,-1.561337 3.5,-3.5 l 0,-6.5 6.5,0 c 1.938663,0 3.5,-1.561337 3.5,-3.5 l 0,-13 C 44,15.561337 42.438664,14 40.5,14 L 34,14 34,7.5 C 34,5.5613365 32.438664,4.0000002 30.5,4 l -13,0 z"
       style="opacity:1;fill:#ffffff;fill-opacity:1;fill-rule:evenodd;stroke:url(#linearGradient5671);stroke-width:2;stroke-linecap:butt;stroke-linejoin:miter;stroke-miterlimit:4;stroke-dasharray:none;stroke-dashoffset:1.56000006;stroke-opacity:1"
       inkscape:connector-curvature="0" />
    <path
       id="rect5673"
       transform="translate(107.42857,368.36218)"
       d="m 19,9 0,10 -10,0 0,10 10,0 0,10 10,0 0,-10 10,0 0,-10 -10,0 0,-10 -10,0 z"
       style="opacity:1;fill:url(#linearGradient5689);fill-opacity:1;fill-rule:evenodd;stroke:none;stroke-width:2;stroke-linecap:butt;stroke-linejoin:miter;stroke-miterlimit:4;stroke-dasharray:none;stroke-dashoffset:1.56000006;stroke-opacity:1"
       inkscape:connector-curvature="0" />
  </g>
</svg>
