<?xml version="1.0" encoding="UTF-8" standalone="no"?>
<!-- Generator: Adobe Illustrator 15.0.1, SVG Export Plug-In . SVG Version: 6.00 Build 0)  -->

<svg
   xmlns:dc="http://purl.org/dc/elements/1.1/"
   xmlns:cc="http://creativecommons.org/ns#"
   xmlns:rdf="http://www.w3.org/1999/02/22-rdf-syntax-ns#"
   xmlns:svg="http://www.w3.org/2000/svg"
   xmlns="http://www.w3.org/2000/svg"
   xmlns:sodipodi="http://sodipodi.sourceforge.net/DTD/sodipodi-0.dtd"
   xmlns:inkscape="http://www.inkscape.org/namespaces/inkscape"
   version="1.1"
   id="svg2"
   inkscape:version="0.91 r"
   sodipodi:version="0.32"
   inkscape:output_extension="org.inkscape.output.svg.inkscape"
   sodipodi:docname="skype.svg"
   x="0px"
   y="0px"
   width="128"
   height="128"
   viewBox="0 0 128 128"
   enable-background="new 0 0 256 256"
   xml:space="preserve"><metadata
     id="metadata19"><rdf:RDF><cc:Work
         rdf:about=""><dc:format>image/svg+xml</dc:format><dc:type
           rdf:resource="http://purl.org/dc/dcmitype/StillImage" /><dc:title></dc:title></cc:Work></rdf:RDF></metadata><defs
     id="defs3"><inkscape:perspective
       sodipodi:type="inkscape:persp3d"
       inkscape:vp_y="0 : 1000 : 0"
       inkscape:vp_z="256 : 128 : 1"
       inkscape:persp3d-origin="128 : 85.333333 : 1"
       inkscape:vp_x="0 : 128 : 1"
       id="perspective2915" /></defs><sodipodi:namedview
     pagecolor="#ffffff"
     inkscape:current-layer="layer1"
     inkscape:window-height="1051"
     inkscape:document-units="px"
     showgrid="false"
     inkscape:zoom="2.8"
     inkscape:pageshadow="2"
     inkscape:pageopacity="0.0"
     bordercolor="#666666"
     inkscape:window-width="1920"
     inkscape:window-y="0"
     id="base"
     inkscape:cx="-22.811489"
     inkscape:cy="97.780911"
     inkscape:window-maximized="1"
     inkscape:window-x="0"
     borderopacity="1.0" /><g
     id="layer1"
     transform="translate(-373.642,-446.344)"
     inkscape:groupmode="layer"
     inkscape:label="Layer 1"><linearGradient
       id="path1950_1_"
       gradientUnits="userSpaceOnUse"
       x1="-899.77802"
       y1="287.97339"
       x2="-951.47443"
       y2="137.2845"
       gradientTransform="matrix(-0.5915,0,0,-0.5915,-88.3092,464.6428)"><stop
         offset="0"
         style="stop-color:#FFFFFF"
         id="stop10" /><stop
         offset="1"
         style="stop-color:#FFFFFF;stop-opacity:0"
         id="stop12" /></linearGradient><g
       id="g4172"
       transform="matrix(3.998001,0,0,4.0006252,373.70597,446.32399)"
       inkscape:export-filename="/var/www/chamilo/main/img/icons/22/skype.png"
       inkscape:export-xdpi="123.75"
       inkscape:export-ydpi="123.75"><g
         id="g4148"><path
           id="path4150"
           d="m 31.077,19.399 c 0.232,-1.041 0.356,-2.12 0.356,-3.229 0,-8.31 -6.836,-15.047 -15.27,-15.047 -0.893,0 -1.764,0.076 -2.613,0.22 -1.364,-0.847 -2.979,-1.338 -4.711,-1.338 -4.891,0 -8.855,3.906 -8.855,8.725 0,1.61 0.446,3.119 1.217,4.414 -0.202,0.978 -0.308,1.989 -0.308,3.026 0,8.31 6.835,15.046 15.271,15.046 0.954,0 1.888,-0.087 2.793,-0.253 C 20.204,31.624 21.63,32 23.145,32 28.035,32 32,28.094 32,23.274 32,21.881 31.668,20.566 31.077,19.399 Z"
           inkscape:connector-curvature="0"
           style="fill:#00aaf1" /><path
           id="path4152"
           d="m 11.934,6.704 0,0 C 10.788,7.173 9.896,7.858 9.286,8.739 8.67,9.626 8.358,10.654 8.358,11.796 c 0,1.197 0.297,2.216 0.883,3.026 0.578,0.8 1.366,1.438 2.345,1.899 0.957,0.449 2.159,0.848 3.578,1.184 1.042,0.241 1.883,0.472 2.503,0.687 0.596,0.205 1.087,0.504 1.458,0.889 0.353,0.367 0.526,0.836 0.526,1.433 0,0.755 -0.33,1.37 -1.011,1.884 -0.695,0.525 -1.619,0.793 -2.75,0.793 -0.819,0 -1.486,-0.133 -1.981,-0.391 -0.493,-0.258 -0.877,-0.588 -1.145,-0.979 -0.277,-0.408 -0.542,-0.925 -0.784,-1.539 -0.217,-0.562 -0.485,-0.998 -0.801,-1.292 -0.328,-0.308 -0.734,-0.464 -1.203,-0.464 -0.569,0 -1.049,0.196 -1.424,0.587 -0.376,0.392 -0.568,0.872 -0.568,1.426 0,0.885 0.294,1.804 0.874,2.728 0.573,0.917 1.33,1.66 2.246,2.207 1.284,0.754 2.928,1.135 4.888,1.135 1.632,0 3.067,-0.279 4.266,-0.829 1.209,-0.557 2.142,-1.339 2.772,-2.329 0.635,-0.992 0.955,-2.126 0.955,-3.37 0,-1.04 -0.186,-1.934 -0.555,-2.659 -0.367,-0.722 -0.886,-1.327 -1.538,-1.798 -0.641,-0.462 -1.428,-0.859 -2.337,-1.18 -0.896,-0.319 -1.91,-0.612 -3.017,-0.875 -0.873,-0.224 -1.51,-0.395 -1.889,-0.511 -0.369,-0.114 -0.739,-0.273 -1.098,-0.471 -0.346,-0.192 -0.621,-0.424 -0.814,-0.685 -0.184,-0.248 -0.273,-0.535 -0.273,-0.88 0,-0.562 0.277,-1.033 0.847,-1.447 0.591,-0.43 1.388,-0.646 2.365,-0.646 1.054,0 1.82,0.195 2.279,0.581 0.474,0.396 0.885,0.962 1.225,1.677 0.294,0.561 0.561,0.95 0.815,1.2 0.275,0.269 0.669,0.405 1.177,0.405 0.555,0 1.025,-0.218 1.398,-0.647 0.373,-0.428 0.562,-0.918 0.562,-1.458 0,-0.561 -0.144,-1.141 -0.427,-1.723 C 22.425,8.789 21.977,8.232 21.377,7.714 20.78,7.199 20.023,6.779 19.124,6.47 18.228,6.162 17.156,6.006 15.938,6.006 14.413,6.005 13.067,6.24 11.934,6.704 Z"
           inkscape:connector-curvature="0"
           style="fill:#ffffff" /></g><g
         id="g4154" /><g
         id="g4156" /><g
         id="g4158" /><g
         id="g4160" /><g
         id="g4162" /><g
         id="g4164" /></g></g></svg>