<?xml version="1.0" encoding="UTF-8" standalone="no"?>
<svg
   xmlns:dc="http://purl.org/dc/elements/1.1/"
   xmlns:cc="http://creativecommons.org/ns#"
   xmlns:rdf="http://www.w3.org/1999/02/22-rdf-syntax-ns#"
   xmlns:svg="http://www.w3.org/2000/svg"
   xmlns="http://www.w3.org/2000/svg"
   xmlns:sodipodi="http://sodipodi.sourceforge.net/DTD/sodipodi-0.dtd"
   xmlns:inkscape="http://www.inkscape.org/namespaces/inkscape"
   height="128"
   version="1.1"
   width="128"
   id="svg2"
viewBox="0 0 128 128"
   inkscape:version="0.91 r"
   sodipodi:docname="sn-friends.svg">
  <metadata
     id="metadata18">
    <rdf:RDF>
      <cc:Work
         rdf:about="">
        <dc:format>image/svg+xml</dc:format>
        <dc:type
           rdf:resource="http://purl.org/dc/dcmitype/StillImage" />
        <dc:title></dc:title>
      </cc:Work>
    </rdf:RDF>
  </metadata>
  <defs
     id="defs16" />
  <sodipodi:namedview
     pagecolor="#ffffff"
     bordercolor="#666666"
     borderopacity="1"
     objecttolerance="10"
     gridtolerance="10"
     guidetolerance="10"
     inkscape:pageopacity="0"
     inkscape:pageshadow="2"
     inkscape:window-width="1920"
     inkscape:window-height="1051"
     id="namedview14"
     showgrid="false"
     inkscape:zoom="3.4766083"
     inkscape:cx="77.684518"
     inkscape:cy="38.730618"
     inkscape:window-x="1366"
     inkscape:window-y="0"
     inkscape:window-maximized="1"
     inkscape:current-layer="svg2" />
  <g
     id="g12163"
     transform="matrix(4.2666683,0,0,4.2666683,-780.51482,-1240.4578)">
    <rect
       style="opacity:0;fill:#d45500;fill-opacity:0.99215686;stroke:none"
       id="rect12131"
       width="30"
       height="30"
       x="182.93309"
       y="290.73218" />
    <g
       transform="matrix(2.3878539,0,0,2.5313866,-376.33303,-133.47168)"
       id="g12093">
      <g
         id="g12095"
         transform="translate(-17.942835,0.26516504)">
        <circle
           r="2.125"
           cy="170.98718"
           cx="258.125"
           transform="matrix(0.40441172,0,0,0.40441172,157.93935,107.10358)"
           id="path12097"
           style="fill:#ffb380;fill-opacity:0.99215686;stroke:none" />
        <path
           sodipodi:nodetypes="cccc"
           inkscape:connector-curvature="0"
           id="path12099"
           d="m 258.82318,172.96442 c 1.51122,0.11813 3.15172,0.9604 3.97747,2.43068 l -1.63518,1.5026 c -0.45387,-1.55626 -1.43719,-3.20158 -2.34229,-3.93328 z"
           style="fill:#275ab8;fill-opacity:0.99215686;stroke:none" />
        <circle
           r="2.125"
           cy="170.98718"
           cx="258.125"
           style="fill:#ffb380;fill-opacity:0.99215686;stroke:none"
           id="path12101"
           transform="matrix(0.40441172,0,0,0.40441172,150.1581,107.32233)" />
        <path
           style="fill:#275ab8;fill-opacity:0.99215686;stroke:none"
           d="m 257.82881,172.96442 c -1.51122,0.11813 -3.15172,0.9604 -3.97747,2.43068 l 1.63518,1.5026 c 0.45387,-1.55626 1.43719,-3.20158 2.34229,-3.93328 z"
           id="path12103"
           inkscape:connector-curvature="0"
           sodipodi:nodetypes="cccc" />
        <path
           sodipodi:nodetypes="ccssc"
           inkscape:connector-curvature="0"
           id="path12105"
           d="m 255.34375,178.34243 6.1875,0.0312 c 0.23476,-1.81501 -0.60971,-4.01475 -1.71875,-4.90625 -0.75734,-0.60879 -1.92178,-0.74099 -2.78125,0.0312 -1.22227,1.09814 -1.98355,3.62435 -1.6875,4.8438 z"
           style="fill:#58a3fe;fill-opacity:1;stroke:none" />
      </g>
      <circle
         r="2.125"
         cy="170.98718"
         cx="258.125"
         style="fill:#ffb380;fill-opacity:0.99215686;stroke:none"
         id="path12107"
         transform="matrix(1.2058823,0,0,1.2058823,-70.768379,-34.546993)" />
      <path
         style="fill:#28170b;stroke:none"
         d="m 237.57005,172.56668 c 0.24273,-0.43227 0.51103,-0.19963 0.77496,-0.0805 -0.22205,-0.70221 -0.13213,-1.62772 0.59329,-1.62141 0.37291,-0.49377 0.59201,-0.40457 1.16802,0.20023 0.42314,0.44428 1.0108,-0.14611 1.03454,-0.70081 0.76784,-0.14129 1.7411,0.26183 1.84523,1.57183 0.0487,-0.73273 0.42784,-0.64674 0.85414,-0.48988 -0.11193,-0.96118 -0.13699,-1.69099 -1.69151,-1.9554 l 0.64217,-0.24101 c -0.80173,-0.92362 -2.38906,-1.27977 -3.65235,-0.28722 -1.36153,0.15597 -1.74499,1.45585 -1.55159,2.59319 -0.0831,0.35248 -0.24945,0.72163 -0.0169,1.01099 z"
         id="path12109"
         inkscape:connector-curvature="0"
         sodipodi:nodetypes="cccscccccccc" />
    </g>
  </g>
</svg>
