<?xml version="1.0" encoding="UTF-8" standalone="no"?>
<svg
   xmlns:dc="http://purl.org/dc/elements/1.1/"
   xmlns:cc="http://creativecommons.org/ns#"
   xmlns:rdf="http://www.w3.org/1999/02/22-rdf-syntax-ns#"
   xmlns:svg="http://www.w3.org/2000/svg"
   xmlns="http://www.w3.org/2000/svg"
   xmlns:sodipodi="http://sodipodi.sourceforge.net/DTD/sodipodi-0.dtd"
   xmlns:inkscape="http://www.inkscape.org/namespaces/inkscape"
   height="128"
   version="1.1"
   width="128"
   id="svg2"
viewBox="0 0 128 128"
   inkscape:version="0.91 r"
   sodipodi:docname="sn-groups.svg">
  <metadata
     id="metadata18">
    <rdf:RDF>
      <cc:Work
         rdf:about="">
        <dc:format>image/svg+xml</dc:format>
        <dc:type
           rdf:resource="http://purl.org/dc/dcmitype/StillImage" />
        <dc:title></dc:title>
      </cc:Work>
    </rdf:RDF>
  </metadata>
  <defs
     id="defs16" />
  <sodipodi:namedview
     pagecolor="#ffffff"
     bordercolor="#666666"
     borderopacity="1"
     objecttolerance="10"
     gridtolerance="10"
     guidetolerance="10"
     inkscape:pageopacity="0"
     inkscape:pageshadow="2"
     inkscape:window-width="1920"
     inkscape:window-height="1051"
     id="namedview14"
     showgrid="false"
     inkscape:zoom="3.4766083"
     inkscape:cx="77.684518"
     inkscape:cy="38.730618"
     inkscape:window-x="1366"
     inkscape:window-y="0"
     inkscape:window-maximized="1"
     inkscape:current-layer="svg2" />
  <g
     id="g12247"
     transform="matrix(4.2666667,0,0,4.2666667,-787.79818,-1378.2702)">
    <rect
       y="323.03207"
       x="184.6402"
       height="30"
       width="30"
       id="rect12177"
       style="opacity:0;fill:#d45500;fill-opacity:0.99215686;stroke:none" />
    <g
       transform="matrix(0.86896091,0,0,0.86896091,-17.710786,54.549924)"
       id="g12238">
      <circle
         r="2.125"
         cy="170.98718"
         cx="258.125"
         style="fill:#ffb380;fill-opacity:0.99215686;stroke:none"
         id="path12211"
         transform="matrix(0.66854498,0,0,0.70873097,91.326574,206.87254)" />
      <path
         style="fill:#008000;fill-opacity:0.99215686;stroke:none"
         d="m 258.10062,322.29357 c 2.49824,0.20703 5.2102,1.6831 6.57527,4.25977 l -2.70316,2.6333 c -0.75031,-2.72734 -2.37586,-5.61076 -3.87211,-6.89307 z"
         id="path12213"
         inkscape:connector-curvature="0"
         sodipodi:nodetypes="cccc" />
      <circle
         r="2.125"
         cy="170.98718"
         cx="258.125"
         transform="matrix(0.66854498,0,0,0.70873097,78.46316,207.2559)"
         id="path12215"
         style="fill:#ffb380;fill-opacity:0.99215686;stroke:none" />
      <path
         sodipodi:nodetypes="cccc"
         inkscape:connector-curvature="0"
         id="path12217"
         d="m 256.4568,322.29357 c -2.49824,0.20703 -5.2102,1.6831 -6.57528,4.25977 l 2.70317,2.6333 c 0.7503,-2.72734 2.37586,-5.61076 3.87211,-6.89307 z"
         style="fill:#008000;fill-opacity:0.99215686;stroke:none" />
      <path
         style="fill:#88aa00;fill-opacity:1;stroke:none"
         d="m 252.34867,331.71853 10.22874,0.0547 c 0.38809,-3.18081 -1.00793,-7.03585 -2.84132,-8.5982 -1.25198,-1.0669 -3.17695,-1.29858 -4.59776,0.0547 -2.02057,1.92449 -3.27907,6.35167 -2.78966,8.48875 z"
         id="path12219"
         inkscape:connector-curvature="0"
         sodipodi:nodetypes="ccssc" />
      <circle
         r="2.125"
         cy="170.98718"
         cx="258.125"
         style="fill:#ffb380;fill-opacity:0.99215686;stroke:none"
         id="path12221"
         transform="matrix(1.9934797,0,0,2.113307,-257.09511,-41.834589)" />
      <path
         style="fill:#552200;stroke:none"
         d="m 252.62827,321.13183 c 0.40127,-0.75755 0.8448,-0.34985 1.28111,-0.14107 -0.36708,-1.23063 -0.21843,-2.85258 0.98079,-2.84152 0.61646,-0.86533 0.97867,-0.70901 1.93088,0.3509 0.69951,0.7786 1.67099,-0.25606 1.71023,-1.22817 1.26934,-0.24761 2.87827,0.45886 3.05041,2.75463 0.0805,-1.28411 0.70727,-1.13341 1.412,-0.85851 -0.18503,-1.68447 -0.22646,-2.96346 -2.79628,-3.42684 l 1.06159,-0.42237 c -1.32537,-1.61864 -3.94943,-2.24279 -6.03781,-0.50335 -2.25079,0.27334 -2.8847,2.55138 -2.56498,4.54456 -0.13738,0.61772 -0.41237,1.26466 -0.0279,1.77176 z"
         id="path12223"
         inkscape:connector-curvature="0"
         sodipodi:nodetypes="cccscccccccc" />
    </g>
    <g
       id="g12179"
       transform="matrix(2.0749517,0,0,2.199676,-302.84611,-43.502807)">
      <g
         transform="translate(-17.942835,0.26516504)"
         id="g12181">
        <circle
           r="2.125"
           cy="170.98718"
           cx="258.125"
           style="fill:#ffb380;fill-opacity:0.99215686;stroke:none"
           id="path12183"
           transform="matrix(0.40441172,0,0,0.40441172,157.93935,107.10358)" />
        <path
           style="fill:#275ab8;fill-opacity:0.99215686;stroke:none"
           d="m 258.82318,172.96442 c 1.51122,0.11813 3.15172,0.9604 3.97747,2.43068 l -1.63518,1.5026 c -0.45387,-1.55626 -1.43719,-3.20158 -2.34229,-3.93328 z"
           id="path12185"
           inkscape:connector-curvature="0"
           sodipodi:nodetypes="cccc" />
        <circle
           r="2.125"
           cy="170.98718"
           cx="258.125"
           transform="matrix(0.40441172,0,0,0.40441172,150.1581,107.32233)"
           id="path12187"
           style="fill:#ffb380;fill-opacity:0.99215686;stroke:none" />
        <path
           sodipodi:nodetypes="cccc"
           inkscape:connector-curvature="0"
           id="path12189"
           d="m 257.82881,172.96442 c -1.51122,0.11813 -3.15172,0.9604 -3.97747,2.43068 l 1.63518,1.5026 c 0.45387,-1.55626 1.43719,-3.20158 2.34229,-3.93328 z"
           style="fill:#275ab8;fill-opacity:0.99215686;stroke:none" />
        <path
           style="fill:#58a3fe;fill-opacity:1;stroke:none"
           d="m 255.34375,178.34243 6.1875,0.0312 c 0.23476,-1.81501 -0.60971,-4.01475 -1.71875,-4.90625 -0.75734,-0.60879 -1.92178,-0.74099 -2.78125,0.0312 -1.22227,1.09814 -1.98355,3.62435 -1.6875,4.8438 z"
           id="path12191"
           inkscape:connector-curvature="0"
           sodipodi:nodetypes="ccssc" />
      </g>
      <circle
         r="2.125"
         cy="170.98718"
         cx="258.125"
         transform="matrix(1.2058823,0,0,1.2058823,-70.768379,-34.546993)"
         id="path12193"
         style="fill:#ffb380;fill-opacity:0.99215686;stroke:none" />
      <path
         sodipodi:nodetypes="cccscccccccc"
         inkscape:connector-curvature="0"
         id="path12195"
         d="m 237.57005,172.56668 c 0.24273,-0.43227 0.51103,-0.19963 0.77496,-0.0805 -0.22205,-0.70221 -0.13213,-1.62772 0.59329,-1.62141 0.37291,-0.49377 0.59201,-0.40457 1.16802,0.20023 0.42314,0.44428 1.0108,-0.14611 1.03454,-0.70081 0.76784,-0.14129 1.7411,0.26183 1.84523,1.57183 0.0487,-0.73273 0.42784,-0.64674 0.85414,-0.48988 -0.11193,-0.96118 -0.13699,-1.69099 -1.69151,-1.9554 l 0.64217,-0.24101 c -0.80173,-0.92362 -2.38906,-1.27977 -3.65235,-0.28722 -1.36153,0.15597 -1.74499,1.45585 -1.55159,2.59319 -0.0831,0.35248 -0.24945,0.72163 -0.0169,1.01099 z"
         style="fill:#28170b;stroke:none" />
    </g>
  </g>
</svg>
