<?xml version="1.0" encoding="UTF-8" standalone="no"?>
<!-- Created with Inkscape (http://www.inkscape.org/) -->
<svg
   xmlns:svg="http://www.w3.org/2000/svg"
   xmlns="http://www.w3.org/2000/svg"
   xmlns:xlink="http://www.w3.org/1999/xlink"
   version="1.0"
   width="128"
   height="128"
viewBox="0 0 128 128"
   id="svg2">
  <defs
     id="defs4">
    <linearGradient
       id="linearGradient3241">
      <stop
         id="stop3243"
         style="stop-color:#fff15e;stop-opacity:1"
         offset="0" />
      <stop
         id="stop3245"
         style="stop-color:#ffec31;stop-opacity:1"
         offset="1" />
    </linearGradient>
    <linearGradient
       id="linearGradient3233">
      <stop
         id="stop3235"
         style="stop-color:#47e033;stop-opacity:1"
         offset="0" />
      <stop
         id="stop3237"
         style="stop-color:#30bd1d;stop-opacity:1"
         offset="1" />
    </linearGradient>
    <linearGradient
       id="linearGradient3223">
      <stop
         id="stop3225"
         style="stop-color:#0067ec;stop-opacity:1"
         offset="0" />
      <stop
         id="stop3231"
         style="stop-color:#4a99ff;stop-opacity:1"
         offset="0.5" />
      <stop
         id="stop3227"
         style="stop-color:#0572ff;stop-opacity:1"
         offset="1" />
    </linearGradient>
    <linearGradient
       id="linearGradient3230">
      <stop
         id="stop3232"
         style="stop-color:#ffffff;stop-opacity:1"
         offset="0" />
      <stop
         id="stop3234"
         style="stop-color:#ffffff;stop-opacity:0"
         offset="1" />
    </linearGradient>
    <linearGradient
       id="linearGradient3180">
      <stop
         id="stop3182"
         style="stop-color:#ba0000;stop-opacity:1"
         offset="0" />
      <stop
         id="stop3188"
         style="stop-color:#fd0000;stop-opacity:1"
         offset="0.5" />
      <stop
         id="stop3184"
         style="stop-color:#e80000;stop-opacity:1"
         offset="1" />
    </linearGradient>
    <linearGradient
       x1="421.11844"
       y1="469.17148"
       x2="431.2298"
       y2="478.58536"
       id="linearGradient3208"
       xlink:href="#linearGradient3180"
       gradientUnits="userSpaceOnUse"
       gradientTransform="matrix(0.8692817,0,0,0.8692817,-275.77507,-352.78148)" />
    <radialGradient
       cx="506.04501"
       cy="586.65857"
       r="7.2857151"
       fx="506.04501"
       fy="586.65857"
       id="radialGradient3215"
       xlink:href="#linearGradient3230"
       gradientUnits="userSpaceOnUse"
       gradientTransform="matrix(2.7544731,4.7708874,-3.2013205,1.8482833,533.19004,-3416.6406)" />
    <radialGradient
       cx="475.53787"
       cy="566.56122"
       r="40.852451"
       fx="475.53787"
       fy="566.56122"
       id="radialGradient3218"
       xlink:href="#linearGradient3230"
       gradientUnits="userSpaceOnUse"
       gradientTransform="matrix(1.8159858,-0.9558809,0.3847683,0.7309842,-1061.1397,107.30388)" />
    <linearGradient
       x1="85.256691"
       y1="25.789677"
       x2="106.28853"
       y2="44.18644"
       id="linearGradient3229"
       xlink:href="#linearGradient3223"
       gradientUnits="userSpaceOnUse" />
    <linearGradient
       x1="52.289406"
       y1="31.345091"
       x2="66.123878"
       y2="39.223465"
       id="linearGradient3239"
       xlink:href="#linearGradient3233"
       gradientUnits="userSpaceOnUse" />
    <linearGradient
       x1="23.355391"
       y1="46.635975"
       x2="33.230972"
       y2="54.020588"
       id="linearGradient3247"
       xlink:href="#linearGradient3241"
       gradientUnits="userSpaceOnUse" />
  </defs>
  <g
     id="layer1">
    <path
       d="M 18.90863,91.22021 C -20.19206,39.34337 68.32927,3.91405 99.62292,18.00593 C 130.91657,32.09781 117.55386,63.17633 104.98006,80.86307 C 92.40626,98.54981 67.27507,112.38296 60.68546,112.974 C 49.9517,113.93674 43.56023,109.56936 43.55149,99.79164 C 43.54275,90.01392 45.28786,80.2154 42.6631,76.74937 C 41.40023,75.08174 32.37951,79.25964 18.90863,91.22021 z"
       id="path2396"
       style="fill:#a46c00;fill-opacity:1;fill-rule:evenodd;stroke:#832000;stroke-width:4;stroke-linecap:butt;stroke-linejoin:round;marker:none;marker-start:none;marker-mid:none;marker-end:none;stroke-miterlimit:4;stroke-dasharray:none;stroke-dashoffset:0;stroke-opacity:1;visibility:visible;display:inline;overflow:visible;enable-background:accumulate" />
    <path
       d="M 79.5194,19.70442 C 57.90441,20.93912 35.26911,29.33944 21.23627,46.37586 C 12.21906,56.89794 12.30642,72.88886 20.08943,84.10404 C 21.59155,89.03921 24.54083,84.15542 27.08811,82.54551 C 32.28866,79.10741 37.54278,73.65957 44.14372,73.92949 C 48.84798,77.3962 46.69372,84.59436 46.92113,89.62952 C 46.39163,95.89554 45.35726,105.66715 53.23024,107.65843 C 64.24837,110.6426 73.70564,102.17429 82.36004,96.80165 C 98.5467,85.35548 111.61085,67.81604 113.71883,47.87558 C 115.34361,32.97256 101.55542,21.36979 87.72374,20.0573 C 85.06491,19.74581 82.24885,19.59578 79.5194,19.70442 z"
       id="path3214"
       style="fill:#ffb424;fill-opacity:1;fill-rule:evenodd;stroke:none;stroke-width:4;stroke-linecap:butt;stroke-linejoin:miter;marker:none;marker-start:none;marker-mid:none;marker-end:none;stroke-miterlimit:4;stroke-dasharray:none;stroke-dashoffset:0;stroke-opacity:1;visibility:visible;display:inline;overflow:visible;enable-background:accumulate" />
    <path
       d="M 80.03744,17.36496 C 59.19835,18.55534 32.73271,29.15412 19.2036,45.57899 C 10.51007,55.72337 10.41572,73.81885 17.91935,84.63144 C 19.36755,89.38946 22.21097,84.68098 24.66681,83.12886 C 29.68068,79.81417 38.49619,73.31189 44.86019,73.57212 C 49.39558,76.91439 47.31865,83.85416 47.5379,88.70858 C 47.0274,94.74967 46.03016,104.17052 53.62053,106.09032 C 64.24315,108.96737 73.36094,100.80304 81.70468,95.62326 C 97.3103,84.58796 112.80969,65.53155 114.842,46.30688 C 116.40846,31.93882 101.28245,18.97055 87.94728,17.70517 C 85.38389,17.40486 82.66891,17.26022 80.03744,17.36496 z"
       id="path3218"
       style="fill:#ffc961;fill-opacity:1;fill-rule:evenodd;stroke:none;stroke-width:4;stroke-linecap:butt;stroke-linejoin:miter;marker:none;marker-start:none;marker-mid:none;marker-end:none;stroke-miterlimit:4;stroke-dasharray:none;stroke-dashoffset:0;stroke-opacity:1;visibility:visible;display:inline;overflow:visible;enable-background:accumulate" />
    <path
       d="M 18.63814,87.261 L 21.31672,84.761 C -8.11712,42.73481 75.879,17.26589 93.10243,22.61815 C 71.37886,14.34888 -10.63481,33.42216 18.63814,87.261 z"
       id="path3168"
       style="fill:url(#radialGradient3218);fill-opacity:1;fill-rule:evenodd;stroke:none;stroke-width:1px;stroke-linecap:butt;stroke-linejoin:miter;marker:none;marker-start:none;marker-mid:none;marker-end:none;stroke-miterlimit:4;stroke-dasharray:none;stroke-dashoffset:0;stroke-opacity:1;visibility:visible;display:inline;overflow:visible;enable-background:accumulate" />
    <path
       d="M 42.20958,70.11815 C 50.41392,76.70694 47.31153,82.73039 46.49529,88.86815 C 45.51865,104.07494 50.17109,106.81733 55.78101,107.43958 C 50.01945,101.55848 50.74804,92.89588 51.49529,84.22529 C 51.02379,77.81178 53.07034,69.75606 42.20958,70.11815 z"
       id="path3170"
       style="fill:url(#radialGradient3215);fill-opacity:1;fill-rule:evenodd;stroke:none;stroke-width:1px;stroke-linecap:butt;stroke-linejoin:miter;marker:none;marker-start:none;marker-mid:none;marker-end:none;stroke-miterlimit:4;stroke-dasharray:none;stroke-dashoffset:0;stroke-opacity:1;visibility:visible;display:inline;overflow:visible;enable-background:accumulate" />
    <path
       d="M 33.8062,43.64047 C 25.96542,38.81719 17.59208,46.39591 21.48477,52.2119 C 17.5263,57.84302 23.73753,61.22227 30.14548,60.78333 C 39.70495,60.48866 41.48104,56.1537 45.0562,53.01547 C 53.70759,44.42956 36.94886,41.01156 33.8062,43.64047 z"
       id="path3172"
       style="fill:#d9a600;fill-opacity:1;fill-rule:evenodd;stroke:#8a1b10;stroke-width:1px;stroke-linecap:butt;stroke-linejoin:miter;marker:none;marker-start:none;marker-mid:none;marker-end:none;stroke-miterlimit:4;stroke-dasharray:none;stroke-dashoffset:0;stroke-opacity:1;visibility:visible;display:inline;overflow:visible;enable-background:accumulate" />
    <path
       d="M 49.34191,32.56904 C 42.03024,37.73523 54.50677,43.59235 60.59191,42.39047 C 69.01181,41.41503 74.94445,36.01752 67.19906,30.42618 C 58.21864,24.79601 53.37642,27.83634 49.34191,32.56904 z"
       id="path3174"
       style="fill:#279d17;fill-opacity:1;fill-rule:evenodd;stroke:#8a1b10;stroke-width:1px;stroke-linecap:butt;stroke-linejoin:miter;marker:none;marker-start:none;marker-mid:none;marker-end:none;stroke-miterlimit:4;stroke-dasharray:none;stroke-dashoffset:0;stroke-opacity:1;visibility:visible;display:inline;overflow:visible;enable-background:accumulate" />
    <path
       d="M 85.23477,25.24761 C 73.05063,23.72499 73.98702,37.5926 87.37763,37.03333 C 89.91782,45.00532 105.00581,40.85029 102.37763,32.92618 C 110.14461,25.83659 88.9477,18.95104 85.23477,25.24761 z"
       id="path3176"
       style="fill:#006af1;fill-opacity:1;fill-rule:evenodd;stroke:#8a1b10;stroke-width:1px;stroke-linecap:butt;stroke-linejoin:miter;marker:none;marker-start:none;marker-mid:none;marker-end:none;stroke-miterlimit:4;stroke-dasharray:none;stroke-dashoffset:0;stroke-opacity:1;visibility:visible;display:inline;overflow:visible;enable-background:accumulate" />
    <path
       d="M 85.14548,53.28333 C 95.19339,46.15997 100.8831,49.26892 105.50262,54.89047 C 111.3712,64.20556 106.94456,64.94129 101.57405,64.89047 C 91.71628,72.62882 85.47407,65.38404 84.60977,64.7119 C 82.70514,61.3528 78.70357,58.44709 85.14548,53.28333 z"
       id="path3178"
       style="fill:#ad0000;fill-opacity:1;fill-rule:evenodd;stroke:#8a1b10;stroke-width:1px;stroke-linecap:butt;stroke-linejoin:miter;marker:none;marker-start:none;marker-mid:none;marker-end:none;stroke-miterlimit:4;stroke-dasharray:none;stroke-dashoffset:0;stroke-opacity:1;visibility:visible;display:inline;overflow:visible;enable-background:accumulate" />
    <path
       d="M 85.98584,52.86702 C 94.72031,46.67482 99.98194,49.37737 103.9976,54.26408 C 109.09905,62.36152 105.50359,63.31674 100.83511,63.27257 C 92.26593,69.99937 85.577,63.63849 84.82568,63.05421 C 83.17002,60.13421 80.38601,57.35578 85.98584,52.86702 z"
       id="path3240"
       style="fill:url(#linearGradient3208);fill-opacity:1;fill-rule:evenodd;stroke:none;stroke-width:0.86928177px;stroke-linecap:butt;stroke-linejoin:miter;marker:none;marker-start:none;marker-mid:none;marker-end:none;stroke-miterlimit:4;stroke-dasharray:none;stroke-dashoffset:0;stroke-opacity:1;visibility:visible;display:inline;overflow:visible;enable-background:accumulate" />
    <path
       d="M 33.56502,44.40228 C 26.99389,40.36003 19.09256,46.96407 22.35491,51.83828 C 19.03744,56.55755 25.12676,59.13706 30.49707,58.7692 C 38.50858,58.52224 39.99707,54.88924 42.99331,52.25919 C 50.24378,45.06359 36.19879,42.19907 33.56502,44.40228 z"
       id="path3244"
       style="fill:url(#linearGradient3247);fill-opacity:1;fill-rule:evenodd;stroke:none;stroke-width:1px;stroke-linecap:butt;stroke-linejoin:miter;marker:none;marker-start:none;marker-mid:none;marker-end:none;stroke-miterlimit:4;stroke-dasharray:none;stroke-dashoffset:0;stroke-opacity:1;visibility:visible;display:inline;overflow:visible;enable-background:accumulate" />
    <path
       d="M 50.52403,32.4215 C 44.30352,36.81672 54.91811,41.79975 60.09514,40.77723 C 67.25849,39.94736 72.30577,35.35535 65.71627,30.59843 C 58.07604,25.80848 53.95645,28.39509 50.52403,32.4215 z"
       id="path3246"
       style="fill:url(#linearGradient3239);fill-opacity:1;fill-rule:evenodd;stroke:none;stroke-width:1px;stroke-linecap:butt;stroke-linejoin:miter;marker:none;marker-start:none;marker-mid:none;marker-end:none;stroke-miterlimit:4;stroke-dasharray:none;stroke-dashoffset:0;stroke-opacity:1;visibility:visible;display:inline;overflow:visible;enable-background:accumulate" />
    <path
       d="M 85.38643,26.01179 C 74.22099,24.61648 75.81052,36.28323 88.08156,35.77072 C 90.40936,43.07618 103.09945,39.26855 100.691,32.00696 C 107.8086,25.51012 88.78892,20.24167 85.38643,26.01179 z"
       id="path3248"
       style="fill:url(#linearGradient3229);fill-opacity:1;fill-rule:evenodd;stroke:none;stroke-width:1px;stroke-linecap:butt;stroke-linejoin:miter;marker:none;marker-start:none;marker-mid:none;marker-end:none;stroke-miterlimit:4;stroke-dasharray:none;stroke-dashoffset:0;stroke-opacity:1;visibility:visible;display:inline;overflow:visible;enable-background:accumulate" />
  </g>
</svg>
