<?xml version="1.0" encoding="UTF-8" standalone="no"?>
<!-- Created with Inkscape (http://www.inkscape.org/) -->

<svg
   xmlns:dc="http://purl.org/dc/elements/1.1/"
   xmlns:cc="http://creativecommons.org/ns#"
   xmlns:rdf="http://www.w3.org/1999/02/22-rdf-syntax-ns#"
   xmlns:svg="http://www.w3.org/2000/svg"
   xmlns="http://www.w3.org/2000/svg"
   xmlns:sodipodi="http://sodipodi.sourceforge.net/DTD/sodipodi-0.dtd"
   xmlns:inkscape="http://www.inkscape.org/namespaces/inkscape"
   width="128"
   height="128"
   viewBox="0 0 33.866668 33.866666"
   version="1.1"
   id="svg8"
   inkscape:version="0.92.3 (2405546, 2018-03-11)"
   sodipodi:docname="tool_announcement.svg">
  <defs
     id="defs2">
    <linearGradient
       gradientTransform="matrix(22.252307,0,0,-22.656573,1054.3881,15052.69)"
       y2="651.61859"
       x2="-44.916199"
       y1="652.39172"
       x1="-45.7033"
       gradientUnits="userSpaceOnUse"
       id="SVGID_1_">
      <stop
         id="stop1574"
         style="stop-color:#D4E1F4"
         offset="0" />
      <stop
         id="stop1576"
         style="stop-color:#D4E1F4"
         offset="0.1717" />
      <stop
         id="stop1578"
         style="stop-color:#D4E1F4"
         offset="0.2" />
      <stop
         id="stop1580"
         style="stop-color:#DAE4F4"
         offset="0.2001" />
      <stop
         id="stop1582"
         style="stop-color:#EBEBF4"
         offset="0.2007" />
      <stop
         id="stop1584"
         style="stop-color:#F6F1F4"
         offset="0.2014" />
      <stop
         id="stop1586"
         style="stop-color:#FDF4F4"
         offset="0.2023" />
      <stop
         id="stop1588"
         style="stop-color:#FFF5F4"
         offset="0.205" />
      <stop
         id="stop1590"
         style="stop-color:#FFF5F4"
         offset="0.2522" />
      <stop
         id="stop1592"
         style="stop-color:#FFF5F4"
         offset="0.26" />
      <stop
         id="stop1594"
         style="stop-color:#D4E1F4"
         offset="0.26" />
      <stop
         id="stop1596"
         style="stop-color:#D4E1F4"
         offset="0.3974" />
      <stop
         id="stop1598"
         style="stop-color:#D4E1F4"
         offset="0.42" />
      <stop
         id="stop1600"
         style="stop-color:#DAE4F4"
         offset="0.4201" />
      <stop
         id="stop1602"
         style="stop-color:#EBEBF4"
         offset="0.4207" />
      <stop
         id="stop1604"
         style="stop-color:#F6F1F4"
         offset="0.4214" />
      <stop
         id="stop1606"
         style="stop-color:#FDF4F4"
         offset="0.4223" />
      <stop
         id="stop1608"
         style="stop-color:#FFF5F4"
         offset="0.425" />
      <stop
         id="stop1610"
         style="stop-color:#FFF5F4"
         offset="0.4894" />
      <stop
         id="stop1612"
         style="stop-color:#FFF5F4"
         offset="0.5" />
      <stop
         id="stop1614"
         style="stop-color:#F9F2F4"
         offset="0.5" />
      <stop
         id="stop1616"
         style="stop-color:#E8EBF4"
         offset="0.5001" />
      <stop
         id="stop1618"
         style="stop-color:#DDE5F4"
         offset="0.5003" />
      <stop
         id="stop1620"
         style="stop-color:#D6E2F4"
         offset="0.5005" />
      <stop
         id="stop1622"
         style="stop-color:#D4E1F4"
         offset="0.501" />
      <stop
         id="stop1624"
         style="stop-color:#D4E1F4"
         offset="0.7062" />
      <stop
         id="stop1626"
         style="stop-color:#D4E1F4"
         offset="0.74" />
      <stop
         id="stop1628"
         style="stop-color:#FFF5F4"
         offset="0.741" />
      <stop
         id="stop1630"
         style="stop-color:#FFF5F4"
         offset="0.8346" />
      <stop
         id="stop1632"
         style="stop-color:#FFF5F4"
         offset="0.85" />
      <stop
         id="stop1634"
         style="stop-color:#D4E1F4"
         offset="0.851" />
    </linearGradient>
  </defs>
  <sodipodi:namedview
     id="base"
     pagecolor="#ffffff"
     bordercolor="#666666"
     borderopacity="1.0"
     inkscape:pageopacity="0.0"
     inkscape:pageshadow="2"
     inkscape:zoom="2.9616804"
     inkscape:cx="6.999426"
     inkscape:cy="42.506864"
     inkscape:document-units="mm"
     inkscape:current-layer="layer1"
     showgrid="false"
     units="px"
     inkscape:window-width="1366"
     inkscape:window-height="713"
     inkscape:window-x="0"
     inkscape:window-y="27"
     inkscape:window-maximized="1" />
  <metadata
     id="metadata5">
    <rdf:RDF>
      <cc:Work
         rdf:about="">
        <dc:format>image/svg+xml</dc:format>
        <dc:type
           rdf:resource="http://purl.org/dc/dcmitype/StillImage" />
        <dc:title />
      </cc:Work>
    </rdf:RDF>
  </metadata>
  <g
     inkscape:label="Capa 1"
     inkscape:groupmode="layer"
     id="layer1"
     transform="translate(0,-263.13334)">
    <ellipse
       style="opacity:0.5;fill:#b8cbcd;stroke-width:0.06481204;enable-background:new"
       cx="17.005619"
       cy="292.78156"
       rx="12.359655"
       ry="3.0656092"
       id="ellipse1076" />
    <g
       id="g1915"
       transform="translate(-0.1551448,0.5541636)"
       inkscape:export-filename="/home/aragonc/Escritorio/icons_tools/png/tool_announcement.png"
       inkscape:export-xdpi="96.000015"
       inkscape:export-ydpi="96.000015">
      <rect
         ry="0"
         y="262.57916"
         x="0.2274314"
         height="33.866665"
         width="33.866665"
         id="rect1218"
         style="opacity:0;fill:#ff5555;fill-opacity:1;stroke:none;stroke-width:0.29486692;stroke-linecap:round;stroke-miterlimit:4;stroke-dasharray:none;stroke-dashoffset:0;stroke-opacity:1" />
      <g
         id="g1900">
        <g
           id="g1572"
           transform="matrix(0.05654707,0,0,0.05654707,2.6847826,265.03645)"
           style="fill:#ffa925;fill-opacity:1">
          <path
             id="path1568"
             d="m 179.059,451.119 c 12.872,31.214 43.304,51.579 77.067,51.572 33.763,-0.007 64.188,-20.382 77.049,-51.6 -51.133,7.002 -102.981,7.011 -154.116,0.028 z"
             style="fill:#ffa925;fill-opacity:1"
             inkscape:connector-curvature="0" />
          <path
             id="path1570"
             d="m 128.659,443.471 c 99.617,17.197 155.075,17.197 254.693,-10e-4 L 471.7,428.218 v 0 C 428.293,387.012 403.674,329.814 403.585,269.963 V 186.181 C 403.317,136.869 374.458,92.194 329.618,71.674 282.883,50.35 229.191,50.376 182.476,71.744 c -36.807,16.97 -76.655,58.194 -77.009,114.437 v 83.782 C 106.48,329.44 82.903,386.699 40.303,428.218 v 0 z"
             style="fill:#ffa925;fill-opacity:1"
             inkscape:connector-curvature="0" />
        </g>
        <path
           id="path1639"
           d="m 10.574399,275.5645 v 4.73762 c -0.0051,3.38435 -1.3971646,6.61872 -3.8517032,8.94886 l 0.2158967,0.0373 c -0.045351,0.0906 -0.069101,0.19045 -0.069214,0.29173 l -1.9056363,-0.32899 c 2.4545387,-2.33008 3.846671,-5.56446 3.8517037,-8.94886 v -4.73762 c 0.015211,-2.78845 1.6470471,-5.31469 4.1826171,-6.47504 1.408249,-0.63796 2.945141,-0.94117 4.490177,-0.88587 -0.953497,0.14058 -1.876684,0.44005 -2.731223,0.88587 -2.535571,1.16035 -4.167406,3.68659 -4.182618,6.47504 z"
           style="fill:#ffffff;stroke-width:0.05654707"
           inkscape:connector-curvature="0" />
        <path
           id="path1867"
           d="m 12.810044,290.54591 c 0.727874,1.76506 2.448715,2.91664 4.357913,2.91624 1.909199,-3.9e-4 3.629644,-1.15254 4.356896,-2.91783 -2.891422,0.39595 -5.823274,0.39646 -8.714809,0.002 z"
           style="fill:#ffbd66;fill-opacity:1;stroke-width:0.05654707"
           inkscape:connector-curvature="0" />
        <path
           style="fill:#ffcb61;fill-opacity:1;stroke:none;stroke-width:0.26458332px;stroke-linecap:butt;stroke-linejoin:miter;stroke-opacity:1"
           d="m 18.515573,290.73838 c 3.795386,-0.19377 7.30753,-0.8596 10.842461,-1.48746 -6.669817,-6.82858 -2.405535,-6.66741 -3.922473,-12.121 -1.651863,4.94078 -1.11067,11.05159 -6.919988,13.60846 z"
           id="path1881"
           inkscape:connector-curvature="0"
           sodipodi:nodetypes="cccc" />
        <path
           inkscape:connector-curvature="0"
           style="fill:#324654;fill-opacity:1;stroke-width:0.05654707"
           d="m 17.160946,291.37297 c -2.447131,-0.0335 -4.886629,-0.28133 -7.2904445,-0.74077 v 0 l -4.9962163,-0.86257 c -0.194013,-0.0335 -0.353193,-0.17241 -0.4125109,-0.36015 -0.059318,-0.18774 -0.00882,-0.39289 0.1307933,-0.53177 2.3096651,-2.24893 3.5870069,-5.35246 3.5295551,-8.57559 v -4.73762 c 0.021035,-3.3265 2.3559773,-5.88655 4.6604963,-6.94913 2.779345,-1.27943 5.978948,-1.28113 8.75965,-0.005 2.729301,1.24031 4.48407,3.95892 4.490346,6.95682 v 4.73457 c -0.0033,3.24597 1.334285,6.34922 3.696369,8.57559 0.139615,0.13883 0.190055,0.34398 0.130794,0.53177 -0.05932,0.18774 -0.218442,0.32673 -0.412455,0.36015 l -4.995707,0.86263 c -2.403873,0.45944 -4.843426,0.70729 -7.29067,0.74071 z m -7.11153,-1.77813 c 5.582723,0.96334 8.639601,0.96334 14.223398,0 l 4.029997,-0.69604 c -2.135783,-2.35411 -3.320105,-5.41811 -3.322876,-8.59668 v -4.73762 c -0.02613,-2.57917 -1.534291,-4.9131 -3.875001,-5.99654 -2.501925,-1.14836 -5.380397,-1.14705 -7.881191,0.004 -2.002275,0.92324 -4.0307885,3.1353 -4.0487704,5.99602 v 4.73452 c 0.055925,3.159 -1.0706623,6.22492 -3.1586628,8.59617 z"
           id="path1641" />
        <path
           id="path1887"
           d="m 11.756649,276.1504 h -0.0029 c -0.259853,-0.002 -0.46919,-0.21363 -0.467724,-0.47348 0.014,-2.20372 1.766328,-3.59742 2.799668,-4.0737 1.867254,-0.83487 4.001642,-0.83517 5.869202,-9e-4 0.153565,0.0696 0.258234,0.21592 0.274364,0.38374 0.01613,0.16784 -0.05876,0.33147 -0.196243,0.42895 -0.137536,0.0975 -0.316686,0.11401 -0.469746,0.0432 -1.617413,-0.72262 -3.465959,-0.72262 -5.083374,0 -0.831587,0.38338 -2.241435,1.49353 -2.252458,3.2242 -0.0015,0.25894 -0.211816,0.46804 -0.470707,0.46804 z"
           style="fill:#ffcb61;fill-opacity:1;stroke-width:0.05056474"
           inkscape:connector-curvature="0" />
        <path
           inkscape:connector-curvature="0"
           style="fill:#324654;fill-opacity:1;stroke-width:0.05654707"
           d="m 11.280559,276.09089 h -0.0033 c -0.290595,-0.002 -0.5247,-0.23891 -0.52306,-0.5295 0.01566,-2.46444 1.975302,-4.02304 3.130898,-4.55566 2.08817,-0.93365 4.475078,-0.93399 6.563588,-0.001 0.171733,0.0778 0.288786,0.24146 0.306824,0.42914 0.01804,0.18768 -0.06571,0.37067 -0.219459,0.47969 -0.153808,0.10902 -0.354154,0.12751 -0.525322,0.0484 -1.808771,-0.80812 -3.876019,-0.80812 -5.68479,0 -0.929973,0.42874 -2.506619,1.67023 -2.518946,3.60566 -0.0017,0.28958 -0.236876,0.5234 -0.526397,0.5234 z"
           id="path1643" />
        <path
           inkscape:connector-curvature="0"
           style="fill:#324654;fill-opacity:1;stroke-width:0.05654707"
           d="m 14.965393,268.9598 c -0.139615,6e-5 -0.273575,-0.0554 -0.372306,-0.15409 -0.09873,-0.0987 -0.154148,-0.23269 -0.154091,-0.37231 v -0.76497 c 0,-1.4536 1.178384,-2.63198 2.631983,-2.63198 1.453599,0 2.631984,1.17838 2.631984,2.63198 v 0.72692 c -5.7e-5,0.1581 -0.07119,0.30784 -0.193674,0.40776 -0.122538,0.0999 -0.283471,0.13956 -0.438353,0.10783 -1.317716,-0.26837 -2.677221,-0.2561 -3.989905,0.036 -0.03794,0.009 -0.07673,0.0129 -0.115638,0.0129 z m 2.105586,-2.87056 c -0.871786,9.6e-4 -1.578228,0.70741 -1.57919,1.57919 v 0.12853 c 1.045669,-0.16517 2.110111,-0.17416 3.158437,-0.0267 v -0.10179 c -9.62e-4,-0.87173 -0.707461,-1.57823 -1.579247,-1.57919 z"
           id="path1645" />
        <path
           inkscape:connector-curvature="0"
           style="fill:#324654;fill-opacity:1;stroke-width:0.05654707"
           d="m 17.167109,293.98855 c -2.109714,-0.0249 -4.006529,-1.29103 -4.838619,-3.22986 -0.07674,-0.17365 -0.05406,-0.37513 0.05937,-0.52741 0.113433,-0.15222 0.300039,-0.23162 0.488397,-0.2077 2.847428,0.3912 5.735004,0.39069 8.582318,-0.002 0.188133,-0.0224 0.374059,0.0566 0.488341,0.20769 0.11349,0.15223 0.136165,0.35382 0.05937,0.52747 -0.83175,1.93951 -2.728905,3.20634 -4.839185,3.23133 z m -3.379931,-2.8001 c 0.7769,1.09628 2.037221,1.74759 3.380893,1.74731 1.343614,-2.9e-4 2.603653,-0.65227 3.380101,-1.74883 -2.247124,0.24309 -4.513814,0.24366 -6.760994,0.002 z"
           id="path1647" />
      </g>
    </g>
  </g>
</svg>
