<?xml version="1.0" encoding="UTF-8" standalone="no"?>
<!-- Created with Inkscape (http://www.inkscape.org/) -->

<svg
   xmlns:dc="http://purl.org/dc/elements/1.1/"
   xmlns:cc="http://creativecommons.org/ns#"
   xmlns:rdf="http://www.w3.org/1999/02/22-rdf-syntax-ns#"
   xmlns:svg="http://www.w3.org/2000/svg"
   xmlns="http://www.w3.org/2000/svg"
   xmlns:sodipodi="http://sodipodi.sourceforge.net/DTD/sodipodi-0.dtd"
   xmlns:inkscape="http://www.inkscape.org/namespaces/inkscape"
   width="128"
   height="128"
   viewBox="0 0 33.866668 33.866666"
   version="1.1"
   id="svg8"
   inkscape:version="0.92.3 (2405546, 2018-03-11)"
   sodipodi:docname="tool_agenda.svg">
  <defs
     id="defs2" />
  <sodipodi:namedview
     id="base"
     pagecolor="#ffffff"
     bordercolor="#666666"
     borderopacity="1.0"
     inkscape:pageopacity="0.0"
     inkscape:pageshadow="2"
     inkscape:zoom="4.1884486"
     inkscape:cx="41.988796"
     inkscape:cy="48.258244"
     inkscape:document-units="mm"
     inkscape:current-layer="layer1"
     showgrid="false"
     units="px"
     inkscape:window-width="1366"
     inkscape:window-height="713"
     inkscape:window-x="0"
     inkscape:window-y="27"
     inkscape:window-maximized="1" />
  <metadata
     id="metadata5">
    <rdf:RDF>
      <cc:Work
         rdf:about="">
        <dc:format>image/svg+xml</dc:format>
        <dc:type
           rdf:resource="http://purl.org/dc/dcmitype/StillImage" />
        <dc:title />
      </cc:Work>
    </rdf:RDF>
  </metadata>
  <g
     inkscape:label="Capa 1"
     inkscape:groupmode="layer"
     id="layer1"
     transform="translate(0,-263.13334)">
    <g
       id="g872"
       inkscape:export-filename="/home/aragonc/Escritorio/icons_tools/png/tool_agenda.png"
       inkscape:export-xdpi="96.000008"
       inkscape:export-ydpi="96.000008">
      <ellipse
         id="ellipse1076"
         ry="3.0656092"
         rx="12.359655"
         cy="292.90982"
         cx="16.933332"
         style="opacity:0.5;fill:#b8cbcd;stroke-width:0.06481204;enable-background:new" />
      <rect
         ry="0"
         y="263.13333"
         x="0"
         height="33.866665"
         width="33.866665"
         id="rect1218"
         style="opacity:0;fill:#ff5555;fill-opacity:1;stroke:none;stroke-width:0.29486692;stroke-linecap:round;stroke-miterlimit:4;stroke-dasharray:none;stroke-dashoffset:0;stroke-opacity:1" />
      <g
         transform="matrix(0.92282664,0,0,0.92282664,1.1605053,21.613623)"
         id="g3670">
        <path
           style="fill:#e3e7f2;stroke-width:0.05356919"
           inkscape:connector-curvature="0"
           d="m 29.434121,275.03749 v 16.45642 c 0,1.00986 -0.818604,1.82846 -1.828467,1.82846 H 6.5780729 c -1.0098629,0 -1.8284671,-0.8186 -1.8284671,-1.82846 v -16.45642 z m 0,0"
           id="path982" />
        <path
           style="fill:#ffffff;stroke-width:0.05356919"
           inkscape:connector-curvature="0"
           d="m 28.062875,275.03749 v 16.45642 c 0,1.00986 -0.818604,1.82846 -1.828467,1.82846 H 6.5780729 c -1.0098629,0 -1.8284671,-0.8186 -1.8284671,-1.82846 v -16.45642 z m 0,0"
           id="path984" />
        <path
           style="fill:#a4c2f7;stroke-width:0.05356919"
           inkscape:connector-curvature="0"
           d="m 29.434121,270.46633 v 4.57116 H 4.7496058 v -4.57116 c 0,-1.00987 0.8186042,-1.82847 1.8284671,-1.82847 H 27.605654 c 1.009863,0 1.828467,0.8186 1.828467,1.82847 z m 0,0"
           id="path986" />
        <path
           style="fill:#80b3ff;fill-opacity:1;stroke-width:0.05356919"
           inkscape:connector-curvature="0"
           d="m 28.062875,270.46633 v 4.57116 H 4.7496058 v -4.57116 c 0,-1.00987 0.8186042,-1.82847 1.8284671,-1.82847 H 26.234408 c 1.009863,0 1.828467,0.8186 1.828467,1.82847 z m 0,0"
           id="path988" />
        <path
           style="fill:#7fabfa;stroke-width:0.05356919"
           inkscape:connector-curvature="0"
           d="m 10.692229,269.7988 c 0.716697,0.41391 1.066152,1.25741 0.851875,2.05677 -0.214277,0.79956 -0.938716,1.35534 -1.7661092,1.35534 -0.8276019,0 -1.5520415,-0.55578 -1.7663183,-1.35534 -0.2140675,-0.79936 0.1351785,-1.64286 0.8518757,-2.05677"
           id="path990" />
        <path
           style="fill:#7fabfa;stroke-width:0.05356919"
           inkscape:connector-curvature="0"
           d="m 18.006097,269.7988 c 0.716697,0.41391 1.066152,1.25741 0.851876,2.05677 -0.214068,0.79956 -0.938508,1.35534 -1.76611,1.35534 -0.827602,0 -1.552041,-0.55578 -1.766109,-1.35534 -0.214277,-0.79936 0.135179,-1.64286 0.851876,-2.05677"
           id="path992" />
        <path
           style="fill:#7fabfa;stroke-width:0.05356919"
           inkscape:connector-curvature="0"
           d="m 25.320175,269.7988 c 0.716697,0.41391 1.066152,1.25741 0.851875,2.05677 -0.214276,0.79956 -0.938507,1.35534 -1.766109,1.35534 -0.827602,0 -1.552042,-0.55578 -1.766318,-1.35534 -0.214068,-0.79936 0.135178,-1.64286 0.852084,-2.05677"
           id="path994" />
        <path
           style="fill:#ff5555;fill-opacity:1;stroke-width:0.05356919"
           inkscape:connector-curvature="0"
           d="m 9.7779948,266.80939 c 0.5047222,0 0.9142342,0.4093 0.9142342,0.91423 v 2.74271 c 0,0.50493 -0.409512,0.91423 -0.9142342,0.91423 -0.5049313,0 -0.9144426,-0.4093 -0.9144426,-0.91423 v -2.74271 c 0,-0.50493 0.4095113,-0.91423 0.9144426,-0.91423 z m 0,0"
           id="path996" />
        <path
           style="fill:#ff5555;fill-opacity:1;stroke-width:0.05356919"
           inkscape:connector-curvature="0"
           d="m 17.091863,266.80939 c 0.504932,0 0.914234,0.4093 0.914234,0.91423 v 2.74271 c 0,0.50493 -0.409302,0.91423 -0.914234,0.91423 -0.504931,0 -0.914233,-0.4093 -0.914233,-0.91423 v -2.74271 c 0,-0.50493 0.409302,-0.91423 0.914233,-0.91423 z m 0,0"
           id="path998" />
        <path
           style="fill:#ff5555;stroke-width:0.05356919"
           inkscape:connector-curvature="0"
           d="m 24.405941,266.80939 c 0.504932,0 0.914234,0.4093 0.914234,0.91423 v 2.74271 c 0,0.50493 -0.409302,0.91423 -0.914234,0.91423 -0.504931,0 -0.914234,-0.4093 -0.914234,-0.91423 v -2.74271 c 0,-0.50493 0.409303,-0.91423 0.914234,-0.91423 z m 0,0"
           id="path1000" />
        <path
           style="fill:#ffffff;stroke-width:0.05356919"
           inkscape:connector-curvature="0"
           d="m 4.7496058,270.46633 v 21.02758 c 0,1.00986 0.8186042,1.82846 1.8284671,1.82846 h 1.3712457 c -1.0098629,0 -1.8284671,-0.8186 -1.8284671,-1.82846 v -21.02758 c 0,-1.00987 0.8186042,-1.82847 1.8284671,-1.82847 H 6.5780729 c -1.0098629,0 -1.8284671,0.8186 -1.8284671,1.82847 z m 0,0"
           id="path1004" />
        <path
           style="fill:#ffffff;stroke-width:0.05356919"
           inkscape:connector-curvature="0"
           d="m 4.2923844,291.49391 v -21.02758 h 0.9142335 v 21.02758 z m 0,0"
           id="path1006" />
        <path
           style="fill:#324654;fill-opacity:1;stroke-width:0.05356919"
           id="path1008"
           d="m 4.5759245,288.25757 c 0.025738,0.0132 0.053569,0.0224 0.082237,0.0274 0.030133,0.005 0.060684,0.008 0.091444,0.009 0.1209492,-0.002 0.2368763,-0.0492 0.324554,-0.13266 0.041223,-0.0437 0.073867,-0.0948 0.095839,-0.15088 0.069054,-0.17054 0.031388,-0.36556 -0.095839,-0.49823 -0.043734,-0.0412 -0.095002,-0.0739 -0.1508726,-0.0961 -0.055034,-0.0234 -0.1140438,-0.0358 -0.1736814,-0.0364 -0.1211584,0.002 -0.2368763,0.049 -0.324554,0.13246 -0.1768201,0.18017 -0.1768201,0.46894 0,0.64911 l 0.068426,0.0548 c 0.025529,0.0174 0.053151,0.0312 0.082446,0.0412 z m 0,0"
           inkscape:connector-curvature="0" />
        <path
           style="fill:#324654;fill-opacity:1;stroke-width:0.05356919"
           id="path1010"
           d="m 29.891343,270.46633 c -0.0015,-1.26181 -1.023883,-2.28423 -2.285689,-2.28569 h -1.828467 v -0.45702 c 0,-0.7575 -0.613953,-1.37145 -1.371246,-1.37145 -0.757502,0 -1.371455,0.61395 -1.371455,1.37145 v 0.45702 h -4.571167 v -0.45702 c 0,-0.7575 -0.613954,-1.37145 -1.371456,-1.37145 -0.757292,0 -1.371455,0.61395 -1.371455,1.37145 v 0.45702 h -4.571167 v -0.45702 c 0,-0.7575 -0.613954,-1.37145 -1.3712462,-1.37145 -0.7575016,0 -1.3714548,0.61395 -1.3714548,1.37145 v 0.45702 H 6.5780729 c -1.2618055,0.001 -2.2842237,1.02388 -2.2856885,2.28569 v 15.54218 c 0,0.25236 0.204651,0.45701 0.4572214,0.45701 0.2523611,0 0.4570121,-0.20465 0.4570121,-0.45701 v -10.5138 H 28.977109 v 15.9992 c 0,0.7575 -0.613953,1.37145 -1.371455,1.37145 H 6.5780729 c -0.7575018,0 -1.371455,-0.61395 -1.371455,-1.37145 v -1.82847 c 0,-0.25236 -0.204651,-0.45701 -0.4570121,-0.45701 -0.2525704,0 -0.4572214,0.20465 -0.4572214,0.45701 v 1.82847 c 0.00146,1.2618 1.023883,2.28422 2.2856885,2.28569 H 27.605654 c 1.261806,-0.001 2.284224,-1.02389 2.285689,-2.28569 z m -4.114156,0.91423 c 0,0.75729 -0.613953,1.37124 -1.371246,1.37124 -0.757502,0 -1.371455,-0.61395 -1.371455,-1.37124 0.0029,-0.15401 0.03223,-0.30614 0.08642,-0.45032 0.193143,0.54386 0.7077,0.90733 1.285033,0.90733 0.577125,0 1.091682,-0.36347 1.284823,-0.90733 0.05441,0.14418 0.08349,0.29631 0.08642,0.45032 z m -1.828467,-3.65694 c 0,-0.25257 0.204651,-0.45722 0.457221,-0.45722 0.252361,0 0.457012,0.20465 0.457012,0.45722 v 2.74271 c 0,0.25236 -0.204651,0.45701 -0.457012,0.45701 -0.25257,0 -0.457221,-0.20465 -0.457221,-0.45701 z m -5.485401,3.65694 c 0,0.75729 -0.613954,1.37124 -1.371456,1.37124 -0.757292,0 -1.371455,-0.61395 -1.371455,-1.37124 0.0029,-0.15401 0.03223,-0.30614 0.08642,-0.45032 0.193142,0.54386 0.707908,0.90733 1.285032,0.90733 0.577125,0 1.091891,-0.36347 1.285033,-0.90733 0.0542,0.14418 0.08349,0.29631 0.08642,0.45032 z m -1.828468,-3.65694 c 0,-0.25257 0.204652,-0.45722 0.457012,-0.45722 0.252571,0 0.457222,0.20465 0.457222,0.45722 v 2.74271 c 0,0.25236 -0.204651,0.45701 -0.457222,0.45701 -0.25236,0 -0.457012,-0.20465 -0.457012,-0.45701 z m -5.48561,3.65694 c 0,0.75729 -0.613954,1.37124 -1.3712462,1.37124 -0.7575016,0 -1.3714548,-0.61395 -1.3714548,-1.37124 0.00293,-0.15401 0.032225,-0.30614 0.086422,-0.45032 0.193142,0.54386 0.7076992,0.90733 1.2850326,0.90733 0.5771244,0 1.0916824,-0.36347 1.2848244,-0.90733 0.0542,0.14418 0.08349,0.29631 0.08642,0.45032 z m -1.8284674,-3.65694 c 0,-0.25257 0.204651,-0.45722 0.4572212,-0.45722 0.2523612,0 0.4570122,0.20465 0.4570122,0.45722 v 2.74271 c 0,0.25236 -0.204651,0.45701 -0.4570122,0.45701 -0.2525702,0 -0.4572212,-0.20465 -0.4572212,-0.45701 z m -4.1141557,6.85686 v -4.11415 c 0,-0.75751 0.6139532,-1.37146 1.371455,-1.37146 H 8.40654 v 0.46078 c -0.7870067,0.59031 -1.1080033,1.61796 -0.7970509,2.55123 0.3111617,0.93349 1.1845905,1.56292 2.1685057,1.56292 0.9837062,0 1.8571352,-0.62943 2.1682972,-1.56292 0.310952,-0.93327 -0.01004,-1.96092 -0.797051,-2.55123 v -0.46078 h 4.571167 v 0.46078 c -0.787006,0.59031 -1.108003,1.61796 -0.796841,2.55123 0.311162,0.93349 1.18459,1.56292 2.168296,1.56292 0.983916,0 1.857135,-0.62943 2.168297,-1.56292 0.311162,-0.93327 -0.0098,-1.96092 -0.796841,-2.55123 v -0.46078 h 4.571167 v 0.46078 c -0.787007,0.59031 -1.108003,1.61796 -0.797051,2.55123 0.311162,0.93349 1.184591,1.56292 2.168506,1.56292 0.983706,0 1.857135,-0.62943 2.168297,-1.56292 0.310952,-0.93327 -0.01004,-1.96092 -0.797051,-2.55123 v -0.46078 h 1.828467 c 0.757502,0 1.371455,0.61395 1.371455,1.37146 v 4.11415 z m 0,0"
           inkscape:connector-curvature="0" />
        <path
           style="fill:#324654;fill-opacity:1;stroke-width:0.05356919"
           id="path1012"
           d="m 7.0350851,277.32318 c 0.2525703,0 0.4572214,-0.20465 0.4572214,-0.45722 0,-0.25236 -0.2046511,-0.45701 -0.4572214,-0.45701 H 6.5780729 c -0.2525703,0 -0.4572214,0.20465 -0.4572214,0.45701 0,0.25257 0.2046511,0.45722 0.4572214,0.45722 z m 0,0"
           inkscape:connector-curvature="0" />
        <path
           style="fill:#324654;fill-opacity:1;stroke-width:0.05356919"
           id="path1014"
           d="m 9.3207736,277.32318 c 0.2523611,0 0.4572212,-0.20465 0.4572212,-0.45722 0,-0.25236 -0.2048601,-0.45701 -0.4572212,-0.45701 H 8.8635522 c -0.2523611,0 -0.4570122,0.20465 -0.4570122,0.45701 0,0.25257 0.2046511,0.45722 0.4570122,0.45722 z m 0,0"
           inkscape:connector-curvature="0" />
        <path
           style="fill:#324654;fill-opacity:1;stroke-width:0.05356919"
           id="path1016"
           d="m 11.149241,277.32318 h 0.457221 c 0.252361,0 0.457012,-0.20465 0.457012,-0.45722 0,-0.25236 -0.204651,-0.45701 -0.457012,-0.45701 h -0.457221 c -0.252362,0 -0.457012,0.20465 -0.457012,0.45701 0,0.25257 0.20465,0.45722 0.457012,0.45722 z m 0,0"
           inkscape:connector-curvature="0" />
        <path
           style="fill:#324654;fill-opacity:1;stroke-width:0.05356919"
           id="path1018"
           d="m 13.891941,277.32318 c 0.252571,0 0.457222,-0.20465 0.457222,-0.45722 0,-0.25236 -0.204651,-0.45701 -0.457222,-0.45701 h -0.457012 c -0.25257,0 -0.457221,0.20465 -0.457221,0.45701 0,0.25257 0.204651,0.45722 0.457221,0.45722 z m 0,0"
           inkscape:connector-curvature="0" />
        <path
           style="fill:#324654;fill-opacity:1;stroke-width:0.05356919"
           id="path1020"
           d="m 16.17763,277.32318 c 0.252361,0 0.457221,-0.20465 0.457221,-0.45722 0,-0.25236 -0.20486,-0.45701 -0.457221,-0.45701 h -0.457222 c -0.252361,0 -0.457012,0.20465 -0.457012,0.45701 0,0.25257 0.204651,0.45722 0.457012,0.45722 z m 0,0"
           inkscape:connector-curvature="0" />
        <path
           style="fill:#324654;fill-opacity:1;stroke-width:0.05356919"
           id="path1022"
           d="m 18.463319,277.32318 c 0.25236,0 0.457012,-0.20465 0.457012,-0.45722 0,-0.25236 -0.204652,-0.45701 -0.457012,-0.45701 h -0.457222 c -0.252361,0 -0.457012,0.20465 -0.457012,0.45701 0,0.25257 0.204651,0.45722 0.457012,0.45722 z m 0,0"
           inkscape:connector-curvature="0" />
        <path
           style="fill:#324654;fill-opacity:1;stroke-width:0.05356919"
           id="path1024"
           d="m 20.748798,277.32318 c 0.25257,0 0.457221,-0.20465 0.457221,-0.45722 0,-0.25236 -0.204651,-0.45701 -0.457221,-0.45701 h -0.457012 c -0.252571,0 -0.457222,0.20465 -0.457222,0.45701 0,0.25257 0.204651,0.45722 0.457222,0.45722 z m 0,0"
           inkscape:connector-curvature="0" />
        <path
           style="fill:#324654;fill-opacity:1;stroke-width:0.05356919"
           id="path1026"
           d="m 23.034486,277.32318 c 0.252361,0 0.457221,-0.20465 0.457221,-0.45722 0,-0.25236 -0.20486,-0.45701 -0.457221,-0.45701 h -0.457221 c -0.252361,0 -0.457012,0.20465 -0.457012,0.45701 0,0.25257 0.204651,0.45722 0.457012,0.45722 z m 0,0"
           inkscape:connector-curvature="0" />
        <path
           style="fill:#324654;fill-opacity:1;stroke-width:0.05356919"
           id="path1028"
           d="m 25.320175,277.32318 c 0.252361,0 0.457012,-0.20465 0.457012,-0.45722 0,-0.25236 -0.204651,-0.45701 -0.457012,-0.45701 h -0.457222 c -0.252361,0 -0.457012,0.20465 -0.457012,0.45701 0,0.25257 0.204651,0.45722 0.457012,0.45722 z m 0,0"
           inkscape:connector-curvature="0" />
        <path
           style="fill:#324654;fill-opacity:1;stroke-width:0.05356919"
           id="path1030"
           d="m 27.605654,277.32318 c 0.25257,0 0.457221,-0.20465 0.457221,-0.45722 0,-0.25236 -0.204651,-0.45701 -0.457221,-0.45701 h -0.457012 c -0.252571,0 -0.457222,0.20465 -0.457222,0.45701 0,0.25257 0.204651,0.45722 0.457222,0.45722 z m 0,0"
           inkscape:connector-curvature="0" />
        <path
           style="fill:#324654;fill-opacity:1;stroke-width:0.05356919"
           id="path1034"
           d="m 22.577265,290.12266 c -0.252361,0 -0.457012,0.20465 -0.457012,0.45701 0,0.25257 0.204651,0.45722 0.457012,0.45722 h 0.914442 c 0.252362,0 0.457013,-0.20465 0.457013,-0.45722 0,-0.25236 -0.204651,-0.45701 -0.457013,-0.45701 z m 0,0"
           inkscape:connector-curvature="0" />
        <text
           xml:space="preserve"
           style="font-style:normal;font-variant:normal;font-weight:normal;font-stretch:normal;font-size:12.72792435px;line-height:1.25;font-family:'Arial Black';-inkscape-font-specification:'Arial Black, Normal';font-variant-ligatures:normal;font-variant-caps:normal;font-variant-numeric:normal;font-feature-settings:normal;text-align:start;letter-spacing:0px;word-spacing:0px;writing-mode:lr-tb;text-anchor:start;fill:#ff5555;fill-opacity:1;stroke:none;stroke-width:0.31819808;"
           x="12.621078"
           y="289.3884"
           id="text1216"><tspan
             sodipodi:role="line"
             id="tspan1214"
             x="12.621078"
             y="289.3884"
             style="font-style:normal;font-variant:normal;font-weight:normal;font-stretch:normal;font-size:12.72792435px;font-family:'Arial Black';-inkscape-font-specification:'Arial Black, Normal';font-variant-ligatures:normal;font-variant-caps:normal;font-variant-numeric:normal;font-feature-settings:normal;text-align:start;writing-mode:lr-tb;text-anchor:start;fill:#ff5555;stroke-width:0.31819808;fill-opacity:1;">3</tspan></text>
      </g>
    </g>
  </g>
</svg>
