<?xml version="1.0" encoding="UTF-8" standalone="no"?>
<!-- Created with Inkscape (http://www.inkscape.org/) -->

<svg
   xmlns:dc="http://purl.org/dc/elements/1.1/"
   xmlns:cc="http://creativecommons.org/ns#"
   xmlns:rdf="http://www.w3.org/1999/02/22-rdf-syntax-ns#"
   xmlns:svg="http://www.w3.org/2000/svg"
   xmlns="http://www.w3.org/2000/svg"
   xmlns:sodipodi="http://sodipodi.sourceforge.net/DTD/sodipodi-0.dtd"
   xmlns:inkscape="http://www.inkscape.org/namespaces/inkscape"
   width="128"
   height="128"
   viewBox="0 0 33.866668 33.866666"
   version="1.1"
   id="svg8"
   inkscape:version="0.92.3 (2405546, 2018-03-11)"
   sodipodi:docname="tool_quiz.svg">
  <defs
     id="defs2" />
  <sodipodi:namedview
     id="base"
     pagecolor="#ffffff"
     bordercolor="#666666"
     borderopacity="1.0"
     inkscape:pageopacity="0.0"
     inkscape:pageshadow="2"
     inkscape:zoom="1.5126551"
     inkscape:cx="81.522286"
     inkscape:cy="37.373843"
     inkscape:document-units="mm"
     inkscape:current-layer="layer1"
     showgrid="false"
     units="px"
     inkscape:window-width="1366"
     inkscape:window-height="713"
     inkscape:window-x="0"
     inkscape:window-y="27"
     inkscape:window-maximized="1" />
  <metadata
     id="metadata5">
    <rdf:RDF>
      <cc:Work
         rdf:about="">
        <dc:format>image/svg+xml</dc:format>
        <dc:type
           rdf:resource="http://purl.org/dc/dcmitype/StillImage" />
        <dc:title />
      </cc:Work>
    </rdf:RDF>
  </metadata>
  <g
     inkscape:label="Capa 1"
     inkscape:groupmode="layer"
     id="layer1"
     transform="translate(0,-263.13334)">
    <g
       id="g4631"
       transform="matrix(0.26458333,0,0,0.26458333,123.98067,233.3765)" />
    <g
       id="g4633"
       transform="matrix(0.26458333,0,0,0.26458333,123.98067,233.3765)" />
    <g
       id="g4635"
       transform="matrix(0.26458333,0,0,0.26458333,123.98067,233.3765)" />
    <g
       id="g4637"
       transform="matrix(0.26458333,0,0,0.26458333,123.98067,233.3765)" />
    <g
       id="g4639"
       transform="matrix(0.26458333,0,0,0.26458333,123.98067,233.3765)" />
    <g
       id="g4641"
       transform="matrix(0.26458333,0,0,0.26458333,123.98067,233.3765)" />
    <g
       id="g4643"
       transform="matrix(0.26458333,0,0,0.26458333,123.98067,233.3765)" />
    <g
       id="g4645"
       transform="matrix(0.26458333,0,0,0.26458333,123.98067,233.3765)" />
    <g
       id="g4647"
       transform="matrix(0.26458333,0,0,0.26458333,123.98067,233.3765)" />
    <g
       id="g4649"
       transform="matrix(0.26458333,0,0,0.26458333,123.98067,233.3765)" />
    <g
       id="g4651"
       transform="matrix(0.26458333,0,0,0.26458333,123.98067,233.3765)" />
    <g
       id="g4653"
       transform="matrix(0.26458333,0,0,0.26458333,123.98067,233.3765)" />
    <g
       id="g4655"
       transform="matrix(0.26458333,0,0,0.26458333,123.98067,233.3765)" />
    <g
       id="g4657"
       transform="matrix(0.26458333,0,0,0.26458333,123.98067,233.3765)" />
    <g
       id="g4659"
       transform="matrix(0.26458333,0,0,0.26458333,123.98067,233.3765)" />
    <g
       id="g25024"
       inkscape:export-filename="/var/www/chamilo2/public/img/icons/64/tool_quiz.png"
       inkscape:export-xdpi="48"
       inkscape:export-ydpi="48">
      <ellipse
         id="ellipse1076"
         ry="3.0656092"
         rx="12.359655"
         cy="292.90982"
         cx="16.933332"
         style="opacity:0.5;fill:#b8cbcd;stroke-width:0.06481204;enable-background:new" />
      <rect
         ry="0"
         y="263.13333"
         x="8.9009603e-07"
         height="33.866665"
         width="33.866665"
         id="rect1218"
         style="opacity:0;fill:#ff5555;fill-opacity:1;stroke:none;stroke-width:0.29486692;stroke-linecap:round;stroke-miterlimit:4;stroke-dasharray:none;stroke-dashoffset:0;stroke-opacity:1" />
      <g
         transform="translate(-2.0778329,-0.10219631)"
         id="g24984">
        <g
           id="g4494"
           transform="matrix(-0.05305628,0,0,0.05305628,31.034817,265.90781)">
          <path
             id="path4400"
             d="m 174.255,50.001 h -70.257 c -22.091,0 -40,17.909 -40,40 v 372 c 0,22.091 17.909,40 40,40 h 304 c 22.091,0 40,-17.909 40,-40 v -372 c 0,-22.091 -17.909,-40 -40,-40 H 335.84 c 0,0 -161.585,0 -161.585,0 z"
             style="fill:#d38d5f"
             inkscape:connector-curvature="0" />
          <path
             id="path4402"
             d="m 135.998,98.001 h 240 c 11.046,0 20,8.954 20,20 v 310 c 0,11.046 -8.954,20 -20,20 h -240 c -11.046,0 -20,-8.954 -20,-20 v -310 c 0,-11.045 8.954,-20 20,-20 z"
             style="fill:#ffffff"
             inkscape:connector-curvature="0" />
          <path
             id="path4404"
             d="M 309.267,42.001 H 288.568 C 288.255,24.276 273.798,10 255.998,10 c -17.8,0 -32.257,14.275 -32.57,32.001 h -20.699 c -15.38,0 -27.848,12.468 -27.848,27.848 V 98.001 H 337.115 V 69.849 c 0,-15.38 -12.468,-27.848 -27.848,-27.848 z"
             style="fill:#ffd42a"
             inkscape:connector-curvature="0" />
          <rect
             id="rect4406"
             height="76"
             width="191.99001"
             style="fill:#80b3ff;fill-opacity:1"
             y="154"
             x="159.99899" />
          <path
             id="path4408"
             d="m 448.001,294.125 c -2.64,0 -5.21,1.069 -7.08,2.93 -1.86,1.859 -2.92,4.439 -2.92,7.07 0,2.63 1.06,5.21 2.92,7.069 1.87,1.87 4.44,2.931 7.08,2.931 2.63,0 5.21,-1.061 7.07,-2.931 1.859,-1.859 2.93,-4.439 2.93,-7.069 0,-2.631 -1.07,-5.211 -2.93,-7.07 -1.86,-1.861 -4.44,-2.93 -7.07,-2.93 z"
             inkscape:connector-curvature="0"
             style="fill:#324654;fill-opacity:1" />
          <path
             id="path4410"
             d="m 447.998,340.335 c -5.522,0 -10,4.478 -10,10 v 111.666 c 0,16.542 -13.458,30 -30,30 h -304 c -16.542,0 -30,-13.458 -30,-30 v -372 c 0,-16.542 13.458,-30 30,-30 h 62.19 c -0.848,3.142 -1.308,6.442 -1.308,9.849 v 18.151 h -28.883 c -16.542,0 -30,13.458 -30,30 v 310 c 0,16.542 13.458,30 30,30 h 240 c 16.542,0 30,-13.458 30,-30 v -310 c 0,-16.542 -13.458,-30 -30,-30 H 347.114 V 69.85 c 0,-3.406 -0.46,-6.706 -1.308,-9.849 h 62.19 c 16.542,0 30,13.458 30,30 v 163.998 c 0,5.522 4.478,10 10,10 5.522,0 10,-4.478 10,-10 V 90.001 c 0,-27.57 -22.43,-50 -50,-50 h -75.501 c -6.418,-5.006 -14.478,-8 -23.229,-8 h -12.04 C 292.473,13.663 275.681,0 255.998,0 236.315,0 219.523,13.663 214.769,32.001 h -12.04 c -8.751,0 -16.812,2.994 -23.229,8 h -75.501 c -27.57,0 -50,22.43 -50,50 v 372 c 0,27.57 22.43,50 50,50 h 304 c 27.57,0 50,-22.43 50,-50 V 350.335 c -0.001,-5.522 -4.479,-10 -10.001,-10 z m -62,-222.334 v 310 c 0,5.514 -4.486,10 -10,10 h -240 c -5.514,0 -10,-4.486 -10,-10 v -310 c 0,-5.514 4.486,-10 10,-10 h 240 c 5.514,0 10,4.486 10,10 z m -162.569,-66 c 5.454,0 9.902,-4.37 9.998,-9.823 C 233.643,29.948 243.768,20 255.998,20 c 12.23,0 22.355,9.948 22.571,22.178 0.096,5.453 4.544,9.823 9.998,9.823 h 20.7 c 9.841,0 17.848,8.007 17.848,17.849 V 88.001 H 184.881 V 69.85 c 0,-9.842 8.007,-17.849 17.848,-17.849 z"
             inkscape:connector-curvature="0"
             style="fill:#324654;fill-opacity:1" />
          <path
             id="path4412"
             d="m 256.001,164.005 c 2.63,0 5.21,-1.07 7.07,-2.931 1.859,-1.87 2.93,-4.439 2.93,-7.069 0,-2.641 -1.07,-5.21 -2.93,-7.08 -1.86,-1.86 -4.44,-2.92 -7.07,-2.92 -2.64,0 -5.22,1.06 -7.07,2.92 -1.87,1.87 -2.93,4.439 -2.93,7.08 0,2.63 1.06,5.21 2.93,7.069 1.86,1.861 4.43,2.931 7.07,2.931 z"
             inkscape:connector-curvature="0"
             style="fill:#324654;fill-opacity:1" />
          <path
             id="path4414"
             d="m 288.998,154.001 c 0,5.522 4.478,10 10,10 h 42.994 v 56 H 170.005 v -56 h 41.66 c 5.522,0 10,-4.478 10,-10 0,-5.522 -4.478,-10 -10,-10 h -51.66 c -5.522,0 -10,4.478 -10,10 v 76 c 0,5.522 4.478,10 10,10 h 191.987 c 5.522,0 10,-4.478 10,-10 v -76 c 0,-5.522 -4.478,-10 -10,-10 h -52.994 c -5.522,0 -10,4.478 -10,10 z"
             inkscape:connector-curvature="0"
             style="fill:#324654;fill-opacity:1" />
          <path
             id="path4416"
             d="m 351.992,324.001 h -72 c -5.522,0 -10,4.478 -10,10 0,5.522 4.478,10 10,10 h 72 c 5.522,0 10,-4.478 10,-10 0,-5.522 -4.477,-10 -10,-10 z"
             inkscape:connector-curvature="0"
             style="fill:#324654;fill-opacity:1" />
          <path
             id="path4418"
             d="m 351.992,268.001 h -72 c -5.522,0 -10,4.478 -10,10 0,5.522 4.478,10 10,10 h 72 c 5.522,0 10,-4.478 10,-10 0,-5.522 -4.477,-10 -10,-10 z"
             inkscape:connector-curvature="0"
             style="fill:#324654;fill-opacity:1" />
          <path
             id="path4420"
             d="m 351.992,380.001 h -72 c -5.522,0 -10,4.478 -10,10 0,5.522 4.478,10 10,10 h 72 c 5.522,0 10,-4.478 10,-10 0,-5.522 -4.477,-10 -10,-10 z"
             inkscape:connector-curvature="0"
             style="fill:#324654;fill-opacity:1" />
          <path
             id="path4422"
             d="m 232.005,324.001 h -72 c -5.522,0 -10,4.478 -10,10 0,5.522 4.478,10 10,10 h 72 c 5.522,0 10,-4.478 10,-10 0,-5.522 -4.478,-10 -10,-10 z"
             inkscape:connector-curvature="0"
             style="fill:#324654;fill-opacity:1" />
          <path
             id="path4424"
             d="m 232.005,268.001 h -72 c -5.522,0 -10,4.478 -10,10 0,5.522 4.478,10 10,10 h 72 c 5.522,0 10,-4.478 10,-10 0,-5.522 -4.478,-10 -10,-10 z"
             inkscape:connector-curvature="0"
             style="fill:#324654;fill-opacity:1" />
          <path
             id="path4426"
             d="m 232.005,380.001 h -72 c -5.522,0 -10,4.478 -10,10 0,5.522 4.478,10 10,10 h 72 c 5.522,0 10,-4.478 10,-10 0,-5.522 -4.478,-10 -10,-10 z"
             inkscape:connector-curvature="0"
             style="fill:#324654;fill-opacity:1" />
          <g
             id="g4428" />
          <g
             id="g4430" />
          <g
             id="g4432" />
          <g
             id="g4434" />
          <g
             id="g4436" />
          <g
             id="g4438" />
          <g
             id="g4440" />
          <g
             id="g4442" />
          <g
             id="g4444" />
          <g
             id="g4446" />
          <g
             id="g4448" />
          <g
             id="g4450" />
          <g
             id="g4452" />
          <g
             id="g4454" />
          <g
             id="g4456" />
        </g>
        <g
           id="g6057"
           transform="matrix(0.11159598,-0.187976,0.187976,0.11159598,-38.318681,277.09895)">
          <path
             id="path5906"
             d="m 88.183562,258.32299 h 79.009608 c 2.0275,0 3.67136,1.64386 3.67136,3.67136 v 9.59062 c 0,2.0275 -1.64386,3.67136 -3.67136,3.67136 H 88.183562 Z"
             style="fill:#4dbaf6;stroke-width:0.26458332"
             inkscape:connector-curvature="0" />
          <path
             id="path5908"
             d="m 158.58416,275.25633 h 8.60875 c 2.02776,0 3.67162,-1.64386 3.67162,-3.67136 v -9.59062 c 0,-2.0275 -1.64386,-3.67136 -3.67136,-3.67136 h -8.60875 v 16.93334 z"
             style="fill:#ffb954;stroke-width:0.26458332"
             inkscape:connector-curvature="0" />
          <polygon
             transform="matrix(0.26458333,0,0,0.26458333,52.331198,255.67716)"
             id="polygon5910"
             points="64,42 135.505,10 135.505,74 "
             style="fill:#d8d8e4" />
          <path
             style="fill:#324654;fill-opacity:1;stroke-width:0.26458332"
             id="path5938"
             d="m 68.183708,269.20451 18.919031,8.46667 c 0.33999,0.15213 0.70829,0.23098 1.080823,0.23098 h 79.009608 c 3.48324,0 6.31719,-2.83395 6.31719,-6.31719 v -9.59062 c 0,-3.48324 -2.83395,-6.31719 -6.31719,-6.31719 H 88.183562 c -0.372533,0 -0.740833,0.0786 -1.080823,0.23098 l -18.919031,8.46667 c -0.952235,0.42598 -1.56501,1.37186 -1.56501,2.41485 0,1.04299 0.612775,1.98887 1.56501,2.41485 z m 22.645687,-8.23568 h 65.108935 v 11.64166 H 90.829395 Z m 77.389305,1.02552 v 9.59062 c 0,0.56541 -0.46011,1.02552 -1.02553,1.02552 h -5.96318 v -11.64166 h 5.96318 c 0.56542,0 1.02553,0.46011 1.02553,1.02552 z m -82.680971,0.41143 v 8.76776 l -9.796198,-4.38388 z"
             inkscape:connector-curvature="0" />
        </g>
      </g>
    </g>
    <g
       id="g5940"
       transform="matrix(0.26458333,0,0,0.26458333,52.331198,255.67716)" />
    <g
       id="g5942"
       transform="matrix(0.26458333,0,0,0.26458333,52.331198,255.67716)" />
    <g
       id="g5944"
       transform="matrix(0.26458333,0,0,0.26458333,52.331198,255.67716)" />
    <g
       id="g5946"
       transform="matrix(0.26458333,0,0,0.26458333,52.331198,255.67716)" />
    <g
       id="g5948"
       transform="matrix(0.26458333,0,0,0.26458333,52.331198,255.67716)" />
    <g
       id="g5950"
       transform="matrix(0.26458333,0,0,0.26458333,52.331198,255.67716)" />
    <g
       id="g5952"
       transform="matrix(0.26458333,0,0,0.26458333,52.331198,255.67716)" />
    <g
       id="g5954"
       transform="matrix(0.26458333,0,0,0.26458333,52.331198,255.67716)" />
    <g
       id="g5956"
       transform="matrix(0.26458333,0,0,0.26458333,52.331198,255.67716)" />
    <g
       id="g5958"
       transform="matrix(0.26458333,0,0,0.26458333,52.331198,255.67716)" />
    <g
       id="g5960"
       transform="matrix(0.26458333,0,0,0.26458333,52.331198,255.67716)" />
    <g
       id="g5962"
       transform="matrix(0.26458333,0,0,0.26458333,52.331198,255.67716)" />
    <g
       id="g5964"
       transform="matrix(0.26458333,0,0,0.26458333,52.331198,255.67716)" />
    <g
       id="g5966"
       transform="matrix(0.26458333,0,0,0.26458333,52.331198,255.67716)" />
    <g
       id="g5968"
       transform="matrix(0.26458333,0,0,0.26458333,52.331198,255.67716)" />
  </g>
</svg>
