<?xml version="1.0" encoding="UTF-8" standalone="no"?>
<!-- Created with Inkscape (http://www.inkscape.org/) -->

<svg
   xmlns:dc="http://purl.org/dc/elements/1.1/"
   xmlns:cc="http://creativecommons.org/ns#"
   xmlns:rdf="http://www.w3.org/1999/02/22-rdf-syntax-ns#"
   xmlns:svg="http://www.w3.org/2000/svg"
   xmlns="http://www.w3.org/2000/svg"
   xmlns:sodipodi="http://sodipodi.sourceforge.net/DTD/sodipodi-0.dtd"
   xmlns:inkscape="http://www.inkscape.org/namespaces/inkscape"
   width="128"
   height="128"
   viewBox="0 0 33.866668 33.866666"
   version="1.1"
   id="svg8"
   inkscape:version="0.92.3 (2405546, 2018-03-11)"
   sodipodi:docname="tool_glossary.svg">
  <defs
     id="defs2" />
  <sodipodi:namedview
     id="base"
     pagecolor="#ffffff"
     bordercolor="#666666"
     borderopacity="1.0"
     inkscape:pageopacity="0.0"
     inkscape:pageshadow="2"
     inkscape:zoom="3.9296875"
     inkscape:cx="64"
     inkscape:cy="88.126658"
     inkscape:document-units="mm"
     inkscape:current-layer="layer1"
     showgrid="false"
     units="px"
     inkscape:window-width="1366"
     inkscape:window-height="713"
     inkscape:window-x="0"
     inkscape:window-y="27"
     inkscape:window-maximized="1"
     showguides="true"
     inkscape:guide-bbox="true" />
  <metadata
     id="metadata5">
    <rdf:RDF>
      <cc:Work
         rdf:about="">
        <dc:format>image/svg+xml</dc:format>
        <dc:type
           rdf:resource="http://purl.org/dc/dcmitype/StillImage" />
        <dc:title />
      </cc:Work>
    </rdf:RDF>
  </metadata>
  <g
     inkscape:label="Capa 1"
     inkscape:groupmode="layer"
     id="layer1"
     transform="translate(0,-263.13334)">
    <g
       id="g4631"
       transform="matrix(0.26458333,0,0,0.26458333,123.98067,233.3765)" />
    <g
       id="g4633"
       transform="matrix(0.26458333,0,0,0.26458333,123.98067,233.3765)" />
    <g
       id="g4635"
       transform="matrix(0.26458333,0,0,0.26458333,123.98067,233.3765)" />
    <g
       id="g4637"
       transform="matrix(0.26458333,0,0,0.26458333,123.98067,233.3765)" />
    <g
       id="g4639"
       transform="matrix(0.26458333,0,0,0.26458333,123.98067,233.3765)" />
    <g
       id="g4641"
       transform="matrix(0.26458333,0,0,0.26458333,123.98067,233.3765)" />
    <g
       id="g4643"
       transform="matrix(0.26458333,0,0,0.26458333,123.98067,233.3765)" />
    <g
       id="g4645"
       transform="matrix(0.26458333,0,0,0.26458333,123.98067,233.3765)" />
    <g
       id="g4647"
       transform="matrix(0.26458333,0,0,0.26458333,123.98067,233.3765)" />
    <g
       id="g4649"
       transform="matrix(0.26458333,0,0,0.26458333,123.98067,233.3765)" />
    <g
       id="g4651"
       transform="matrix(0.26458333,0,0,0.26458333,123.98067,233.3765)" />
    <g
       id="g4653"
       transform="matrix(0.26458333,0,0,0.26458333,123.98067,233.3765)" />
    <g
       id="g4655"
       transform="matrix(0.26458333,0,0,0.26458333,123.98067,233.3765)" />
    <g
       id="g4657"
       transform="matrix(0.26458333,0,0,0.26458333,123.98067,233.3765)" />
    <g
       id="g4659"
       transform="matrix(0.26458333,0,0,0.26458333,123.98067,233.3765)" />
    <g
       id="g5940"
       transform="matrix(0.26458333,0,0,0.26458333,52.331198,255.67716)" />
    <g
       id="g5942"
       transform="matrix(0.26458333,0,0,0.26458333,52.331198,255.67716)" />
    <g
       id="g5944"
       transform="matrix(0.26458333,0,0,0.26458333,52.331198,255.67716)" />
    <g
       id="g5946"
       transform="matrix(0.26458333,0,0,0.26458333,52.331198,255.67716)" />
    <g
       id="g5948"
       transform="matrix(0.26458333,0,0,0.26458333,52.331198,255.67716)" />
    <g
       id="g5950"
       transform="matrix(0.26458333,0,0,0.26458333,52.331198,255.67716)" />
    <g
       id="g5952"
       transform="matrix(0.26458333,0,0,0.26458333,52.331198,255.67716)" />
    <g
       id="g5954"
       transform="matrix(0.26458333,0,0,0.26458333,52.331198,255.67716)" />
    <g
       id="g5956"
       transform="matrix(0.26458333,0,0,0.26458333,52.331198,255.67716)" />
    <g
       id="g5958"
       transform="matrix(0.26458333,0,0,0.26458333,52.331198,255.67716)" />
    <g
       id="g5960"
       transform="matrix(0.26458333,0,0,0.26458333,52.331198,255.67716)" />
    <g
       id="g5962"
       transform="matrix(0.26458333,0,0,0.26458333,52.331198,255.67716)" />
    <g
       id="g5964"
       transform="matrix(0.26458333,0,0,0.26458333,52.331198,255.67716)" />
    <g
       id="g5966"
       transform="matrix(0.26458333,0,0,0.26458333,52.331198,255.67716)" />
    <g
       id="g5968"
       transform="matrix(0.26458333,0,0,0.26458333,52.331198,255.67716)" />
    <g
       id="g6342"
       transform="matrix(0.05223282,0,0,0.05223282,4.5362879,266.078)" />
    <g
       id="g6344"
       transform="matrix(0.05223282,0,0,0.05223282,4.5362879,266.078)" />
    <g
       id="g6346"
       transform="matrix(0.05223282,0,0,0.05223282,4.5362879,266.078)" />
    <g
       id="g6348"
       transform="matrix(0.05223282,0,0,0.05223282,4.5362879,266.078)" />
    <g
       id="g6350"
       transform="matrix(0.05223282,0,0,0.05223282,4.5362879,266.078)" />
    <g
       id="g6352"
       transform="matrix(0.05223282,0,0,0.05223282,4.5362879,266.078)" />
    <g
       id="g6354"
       transform="matrix(0.05223282,0,0,0.05223282,4.5362879,266.078)" />
    <g
       id="g6356"
       transform="matrix(0.05223282,0,0,0.05223282,4.5362879,266.078)" />
    <g
       id="g6358"
       transform="matrix(0.05223282,0,0,0.05223282,4.5362879,266.078)" />
    <g
       id="g6360"
       transform="matrix(0.05223282,0,0,0.05223282,4.5362879,266.078)" />
    <g
       id="g6362"
       transform="matrix(0.05223282,0,0,0.05223282,4.5362879,266.078)" />
    <g
       id="g6364"
       transform="matrix(0.05223282,0,0,0.05223282,4.5362879,266.078)" />
    <g
       id="g6366"
       transform="matrix(0.05223282,0,0,0.05223282,4.5362879,266.078)" />
    <g
       id="g6368"
       transform="matrix(0.05223282,0,0,0.05223282,4.5362879,266.078)" />
    <g
       id="g6370"
       transform="matrix(0.05223282,0,0,0.05223282,4.5362879,266.078)" />
    <g
       id="g22792"
       inkscape:export-filename="/var/www/chamilo2/public/img/icons/64/tool_glossary.png"
       inkscape:export-xdpi="48"
       inkscape:export-ydpi="48">
      <rect
         ry="0"
         y="263.13333"
         x="0"
         height="33.866665"
         width="33.866665"
         id="rect1218"
         style="opacity:0;fill:#ff5555;fill-opacity:1;stroke:none;stroke-width:0.29486692;stroke-linecap:round;stroke-miterlimit:4;stroke-dasharray:none;stroke-dashoffset:0;stroke-opacity:1" />
      <path
         id="path6314"
         d="M 25.063623,272.85836 H 7.0952201 c -0.5769637,0 -1.0446564,0.4677 -1.0446564,1.04466 v 17.9684 c 0,0.57697 0.4676927,1.04466 1.0446564,1.04466 H 25.063623 c 0.576964,0 1.044657,-0.46769 1.044657,-1.04466 v -17.9684 c 0,-0.57696 -0.467693,-1.04466 -1.044657,-1.04466 z"
         style="fill:#ffffff;stroke-width:0.05223282"
         inkscape:connector-curvature="0" />
      <g
         transform="matrix(0.05223282,0,0,0.05223282,5.5281831,266.69531)"
         id="g6326">
        <path
           id="path6322"
           d="m 374.007,117.992 c 4.683,0 8.98,1.622 12.388,4.318 L 327.323,19.993 C 321.8,10.427 309.568,7.15 300.003,12.673 L 117.584,117.992 Z"
           style="fill:#ffb380;fill-opacity:1"
           inkscape:connector-curvature="0" />
        <path
           id="path6324"
           d="M 499.326,317.912 393.773,135.087 c 0.139,0.951 0.234,1.915 0.234,2.905 v 263.82 l 97.999,-56.579 c 9.566,-5.524 12.843,-17.756 7.32,-27.321 z"
           style="fill:#ffb380;fill-opacity:1"
           inkscape:connector-curvature="0" />
      </g>
      <path
         style="fill:#3e88b9;fill-opacity:1;stroke-width:0.05223282"
         id="path6330"
         d="M 25.063623,272.33598 H 13.619308 l 7.840042,-4.52644 c 0.249255,-0.14406 0.569442,-0.0582 0.7135,0.19122 l 1.769021,3.06403 c 0.144319,0.24983 0.463775,0.33544 0.7135,0.19118 0.24983,-0.14422 0.33544,-0.46367 0.191173,-0.7135 l -1.769022,-3.06403 c -0.432017,-0.74824 -1.392318,-1.00549 -2.140553,-0.57352 l -9.395796,5.42469 c -0.0035,0.002 -0.0066,0.004 -0.01003,0.006 H 7.0952201 c -0.8640875,0 -1.5670368,0.70295 -1.5670368,1.56698 V 291.871 c 0,0.86408 0.7029493,1.56703 1.5670368,1.56703 H 25.063623 c 0.864036,0 1.567037,-0.70295 1.567037,-1.56703 v -17.96841 c -5.2e-5,-0.86408 -0.703001,-1.56709 -1.567037,-1.56709 z m 0.522328,19.53544 c 0,0.28802 -0.234316,0.52233 -0.522328,0.52233 H 7.0952201 c -0.2880117,0 -0.5223282,-0.23431 -0.5223282,-0.52233 v -17.9684 c 0,-0.28801 0.2343165,-0.52233 0.5223282,-0.52233 H 25.063623 c 0.288012,0 0.522328,0.23432 0.522328,0.52233 z"
         inkscape:connector-curvature="0" />
      <path
         style="fill:#3e88b9;fill-opacity:1;stroke-width:0.05223282"
         id="path6332"
         d="m 28.523003,278.47768 c 0.137372,0 0.272133,-0.0559 0.369286,-0.15305 0.09715,-0.0971 0.153042,-0.23191 0.153042,-0.36928 0,-0.13737 -0.05584,-0.27214 -0.153042,-0.36929 -0.0972,-0.0971 -0.231914,-0.15304 -0.369286,-0.15304 -0.137372,0 -0.272133,0.0559 -0.369234,0.15304 -0.09715,0.0971 -0.153094,0.23192 -0.153094,0.36929 0,0.13737 0.05589,0.27213 0.153094,0.36928 0.09715,0.0971 0.231914,0.15305 0.369234,0.15305 z"
         inkscape:connector-curvature="0" />
      <path
         style="fill:#3e88b9;fill-opacity:1;stroke-width:0.05223282"
         id="path6334"
         d="m 32.061776,283.03953 -2.161185,-3.74326 c -0.144267,-0.24983 -0.463618,-0.33539 -0.7135,-0.19117 -0.24983,0.14421 -0.335439,0.46367 -0.191172,0.7135 l 2.161185,3.74321 c 0.144006,0.24946 0.05824,0.56955 -0.191172,0.71355 l -3.359197,1.93941 c -0.24983,0.14421 -0.335439,0.46367 -0.191172,0.7135 0.09679,0.16756 0.272289,0.26121 0.452858,0.26121 0.08859,0 0.178427,-0.0226 0.260642,-0.07 l 3.359197,-1.93941 c 0.748183,-0.43196 1.005482,-1.39216 0.573516,-2.1405 z"
         inkscape:connector-curvature="0" />
      <g
         transform="translate(-0.08199069,-0.04597024)"
         id="g6900">
        <path
           inkscape:connector-curvature="0"
           style="font-style:normal;font-variant:normal;font-weight:normal;font-stretch:normal;font-size:15.60777092px;line-height:1.25;font-family:Dyuthi;-inkscape-font-specification:'Dyuthi, Normal';font-variant-ligatures:normal;font-variant-caps:normal;font-variant-numeric:normal;font-feature-settings:normal;text-align:start;letter-spacing:0px;word-spacing:0px;writing-mode:lr-tb;text-anchor:start;fill:#3e88b9;fill-opacity:1;stroke:none;stroke-width:0.39019161"
           d="m 21.84375,274.04297 c -0.141245,-0.009 -0.277401,-0.005 -0.423828,0.0137 -1.579445,0.14493 -2.951045,0.71534 -3.992188,1.71484 a 0.22854721,0.22854721 0 0 0 -0.002,0.002 c -1.098879,1.06265 -1.66211,2.509 -1.662109,4.14648 -10e-7,1.52059 0.491576,2.87837 1.466797,3.90235 a 0.22854721,0.22854721 0 0 0 0.0039,0.002 c 0.0035,0.004 0.0062,0.006 0.0098,0.01 1.044269,1.06134 2.497216,1.62085 4.199218,1.71094 0.0038,5.3e-4 0.0079,-5.2e-4 0.01172,0 0.0027,1.4e-4 0.0051,0.002 0.0078,0.002 0.09436,0.0127 0.188859,0.0234 0.287109,0.0234 h 0.05273 0.05469 0.06055 0.05273 c 0.103888,0 0.200576,-0.0132 0.296875,-0.0273 0.533067,-0.0247 1.045361,-0.0967 1.527344,-0.22266 0.358405,-0.0917 0.716794,-0.28123 0.970703,-0.60351 0.253528,-0.32179 0.35231,-0.71671 0.353516,-1.08594 v -0.002 c 0.003,-0.36689 -0.08653,-0.75786 -0.326172,-1.08399 -0.240746,-0.32764 -0.590461,-0.53306 -0.945313,-0.63867 -0.01269,-0.004 -0.02621,-0.003 -0.03906,-0.006 -6.38e-4,-1.7e-4 -0.0013,1.8e-4 -0.002,0 -0.07003,-0.0172 -0.140785,-0.0313 -0.212891,-0.0312 h -0.02148 a 0.22854721,0.22854721 0 0 0 -0.04883,0.006 c -0.318871,-0.0326 -0.639535,-0.005 -0.929688,0.11328 -0.0035,10e-4 -0.0063,0.002 -0.0098,0.004 a 0.22854721,0.22854721 0 0 0 -0.0039,0 c -0.240439,0.10255 -0.468899,0.15039 -0.722656,0.15039 -0.572617,0 -0.94178,-0.16523 -1.365234,-0.64258 -0.417077,-0.47586 -0.607422,-0.9806 -0.607422,-1.68555 0,-0.70536 0.193572,-1.22159 0.615234,-1.71289 a 0.22854721,0.22854721 0 0 0 0.0078,-0.01 c 0.0014,-0.002 0.0025,-0.002 0.0039,-0.004 0.41505,-0.4682 0.778947,-0.63281 1.345703,-0.63281 0.241286,0 0.466657,0.0478 0.716797,0.16211 a 0.22854721,0.22854721 0 0 0 0.08789,0.0215 0.22854721,0.22854721 0 0 0 0.002,0 c 0.368724,0.14852 0.785561,0.1848 1.167969,0.0606 0.04976,-0.0156 0.09824,-0.0346 0.144531,-0.0586 a 0.22854721,0.22854721 0 0 0 0.002,-0.002 l 0.0293,-0.0156 a 0.22854721,0.22854721 0 0 0 0.05469,-0.041 c 0.581383,-0.28329 0.997567,-0.88097 1.013672,-1.5332 a 0.22854721,0.22854721 0 0 0 0,-0.004 c 7.4e-5,-0.006 5.9e-5,-0.0113 0,-0.0176 v -0.002 c -3.14e-4,-0.35332 -0.08774,-0.72982 -0.31836,-1.04687 -0.230604,-0.31703 -0.566887,-0.51584 -0.908203,-0.61524 h -0.002 c -0.497778,-0.16327 -1.020233,-0.26528 -1.5625,-0.30664 -6.77e-4,-9e-5 -0.0013,9e-5 -0.002,0 -0.147022,-0.0194 -0.284433,-0.0224 -0.423828,-0.0137 z"
           id="text6872" />
        <text
           xml:space="preserve"
           style="font-style:normal;font-variant:normal;font-weight:normal;font-stretch:normal;font-size:15.60777092px;line-height:1.25;font-family:Dyuthi;-inkscape-font-specification:'Dyuthi, Normal';font-variant-ligatures:normal;font-variant-caps:normal;font-variant-numeric:normal;font-feature-settings:normal;text-align:start;letter-spacing:0px;word-spacing:0px;writing-mode:lr-tb;text-anchor:start;fill:#ffdc61;fill-opacity:1;stroke:none;stroke-width:0.39019161"
           x="15.561743"
           y="284.55435"
           id="text6835"><tspan
             sodipodi:role="line"
             id="tspan6833"
             x="15.561743"
             y="284.55435"
             style="font-style:normal;font-variant:normal;font-weight:normal;font-stretch:normal;font-size:15.60777092px;font-family:Dyuthi;-inkscape-font-specification:'Dyuthi, Normal';font-variant-ligatures:normal;font-variant-caps:normal;font-variant-numeric:normal;font-feature-settings:normal;text-align:start;writing-mode:lr-tb;text-anchor:start;fill:#ffdc61;fill-opacity:1;stroke-width:0.39019161">C</tspan></text>
      </g>
      <g
         transform="translate(0.67604656,-0.26706443)"
         id="g6889">
        <g
           id="g6857"
           style="font-style:normal;font-variant:normal;font-weight:normal;font-stretch:normal;font-size:16.47964096px;line-height:1.25;font-family:Dyuthi;-inkscape-font-specification:'Dyuthi, Normal';font-variant-ligatures:normal;font-variant-caps:normal;font-variant-numeric:normal;font-feature-settings:normal;text-align:start;letter-spacing:0px;word-spacing:0px;writing-mode:lr-tb;text-anchor:start;fill:#324654;fill-opacity:1;stroke:none;stroke-width:0.4119882"
           aria-label="A"
           transform="translate(-0.15979459,-0.1798094)">
          <path
             inkscape:connector-curvature="0"
             style="font-style:normal;font-variant:normal;font-weight:normal;font-stretch:normal;font-size:16.47964096px;font-family:Dyuthi;-inkscape-font-specification:'Dyuthi, Normal';font-variant-ligatures:normal;font-variant-caps:normal;font-variant-numeric:normal;font-feature-settings:normal;text-align:start;writing-mode:lr-tb;text-anchor:start;fill:#3e88b9;fill-opacity:1;stroke-width:0.4119882"
             d="m 6.015625,274.13281 c -0.5043856,0 -0.9973215,0.17841 -1.4296875,0.48242 -0.4533609,0.31877 -0.7920287,0.7767 -0.9726563,1.30469 l -2.4355468,7.07813 c -0.19323684,0.55856 -0.098291,1.20583 0.2460937,1.68945 0.3404047,0.47967 0.9171002,0.7793 1.5019531,0.7793 h 0.1757813 c 0.4209617,0 0.8359155,-0.12308 1.1777344,-0.35938 0.349324,-0.23524 0.6107969,-0.62002 0.6894531,-1.03515 L 5.25,282.64258 h 1.9628906 l 0.3066406,1.4668 -0.00195,-0.0176 c 0.074844,0.41164 0.3454056,0.77412 0.6816407,1.00586 0.310619,0.22819 0.6931738,0.36914 1.0820312,0.36914 h 0.1777344 c 0.5896135,0 1.1596935,-0.31043 1.5097655,-0.78711 a 0.66582703,0.66582703 0 0 0 0.0059,-0.01 c 0.340464,-0.47975 0.431801,-1.12846 0.228516,-1.68359 L 8.6367188,275.875 c -0.183171,-0.50724 -0.5207795,-0.94616 -0.9667969,-1.25977 a 0.66582703,0.66582703 0 0 0 -0.00391,-0.002 c -0.4350313,-0.30119 -0.9244474,-0.48047 -1.4257812,-0.48047 z m 0.140625,4.70703 0.3574219,0.99024 H 5.796875 Z"
             id="path6855" />
        </g>
        <g
           aria-label="A"
           style="font-style:normal;font-variant:normal;font-weight:normal;font-stretch:normal;font-size:16.47964096px;line-height:1.25;font-family:Dyuthi;-inkscape-font-specification:'Dyuthi, Normal';font-variant-ligatures:normal;font-variant-caps:normal;font-variant-numeric:normal;font-feature-settings:normal;text-align:start;letter-spacing:0px;word-spacing:0px;writing-mode:lr-tb;text-anchor:start;fill:#ff0f0f;fill-opacity:1;stroke:none;stroke-width:0.4119882"
           id="text6827"
           transform="translate(-0.16051959,-0.1797494)">
          <path
             d="m 4.9194357,280.45897 1.2422201,-3.42183 1.2345992,3.42183 z m 2.995046,-4.16106 Q 7.7163361,275.7492 7.2285933,275.40626 6.7332295,275.0633 6.2378656,275.0633 H 6.0244781 q -0.5029849,0 -0.9907277,0.34296 -0.4877429,0.34294 -0.6858884,0.92213 l -2.3091577,6.70646 q -0.1905246,0.54871 0.1524196,1.02884 0.3353233,0.4725 0.9068969,0.4725 h 0.1676616 q 0.434396,0 0.7620983,-0.22863 0.3200813,-0.21339 0.3886701,-0.5792 l 0.3658072,-1.86714 h 2.8883522 l 0.3962911,1.89001 q 0.060968,0.33532 0.3886702,0.55633 0.3048393,0.22863 0.6630255,0.22863 h 0.1676616 q 0.5639522,0 0.9221384,-0.48775 0.335324,-0.47249 0.137178,-1.01359 z"
             style="font-style:normal;font-variant:normal;font-weight:normal;font-stretch:normal;font-size:16.47964096px;font-family:Dyuthi;-inkscape-font-specification:'Dyuthi, Normal';font-variant-ligatures:normal;font-variant-caps:normal;font-variant-numeric:normal;font-feature-settings:normal;text-align:start;writing-mode:lr-tb;text-anchor:start;fill:#a0beff;fill-opacity:1;stroke-width:0.39019161"
             id="path6848"
             inkscape:connector-curvature="0" />
        </g>
      </g>
      <g
         transform="translate(0.25700206,0.23024962)"
         id="g6895">
        <g
           id="g6866"
           style="font-style:normal;font-variant:normal;font-weight:normal;font-stretch:normal;font-size:15.60777092px;line-height:1.25;font-family:Dyuthi;-inkscape-font-specification:'Dyuthi, Normal';font-variant-ligatures:normal;font-variant-caps:normal;font-variant-numeric:normal;font-feature-settings:normal;text-align:start;letter-spacing:0px;word-spacing:0px;writing-mode:lr-tb;text-anchor:start;fill:#324654;fill-opacity:1;stroke:none;stroke-width:0.39019161"
           aria-label="B">
          <path
             inkscape:connector-curvature="0"
             style="font-style:normal;font-variant:normal;font-weight:normal;font-stretch:normal;font-size:15.60777092px;font-family:Dyuthi;-inkscape-font-specification:'Dyuthi, Normal';font-variant-ligatures:normal;font-variant-caps:normal;font-variant-numeric:normal;font-feature-settings:normal;text-align:start;writing-mode:lr-tb;text-anchor:start;fill:#3e88b9;fill-opacity:1;stroke-width:0.39019161"
             d="m 11.048828,280.35938 c -0.499682,-0.008 -0.995283,0.19358 -1.3535155,0.52539 a 0.16106933,0.16106933 0 0 0 -0.00977,0.006 c -0.3704877,0.35099 -0.5800781,0.86656 -0.5800781,1.36915 v 7.61328 c 0,0.51933 0.2233711,1.05871 0.625,1.41015 a 0.16106933,0.16106933 0 0 0 0.00391,0.004 c 0.00249,0.002 0.0053,0.004 0.00781,0.006 0.3720386,0.31418 0.8658036,0.514 1.3750006,0.49609 0.0024,10e-6 0.0035,10e-6 0.0059,0 a 0.16106933,0.16106933 0 0 0 0.0078,0 c 0.454012,-0.0203 0.800034,-0.0359 1.03711,-0.0449 0.11626,-0.005 0.208249,-0.006 0.273437,-0.008 0.01896,-6.2e-4 0.05744,0.001 0.07422,0.002 0.0042,2e-4 0.02294,3e-5 0.02344,0 0,0 0.01172,0 0.01172,0 0,0 0.01172,-0.002 0.01172,-0.002 0,0 0.0055,-0.002 0.01172,-0.004 2.013426,-0.008 3.470121,-0.19813 4.486328,-0.93359 0.0024,-0.002 0.0055,-0.004 0.0078,-0.006 a 0.16106933,0.16106933 0 0 0 0.0059,-0.004 c 0.892427,-0.66128 1.437179,-1.64886 1.43164,-2.72461 -3.52e-4,-0.71122 -0.180736,-1.39332 -0.591797,-1.9414 -0.18957,-0.25277 -0.452585,-0.36769 -0.683593,-0.48438 0.538429,-0.50558 0.947265,-1.12903 0.947265,-1.89258 0,-1.17108 -0.673238,-2.21773 -1.734375,-2.73047 l -0.0039,-0.002 c -0.86711,-0.44751 -1.976764,-0.59907 -3.416015,-0.61523 a 0.16106933,0.16106933 0 0 0 -0.002,0 h -0.002 -0.002 c -0.618094,-0.01 -0.905911,-0.0155 -1.021484,-0.0156 h -0.01172 -0.0039 c -0.463791,-0.01 -0.779296,-0.0188 -0.91211,-0.0234 a 0.16106933,0.16106933 0 0 0 -0.0039,0 c -0.0029,-3e-5 -0.0068,-1e-5 -0.0098,0 z m -1.3535155,0.52539 0.013672,-0.0117 c -0.00316,0.002 -0.00664,0.003 -0.00977,0.006 a 0.16106933,0.16106933 0 0 0 -0.00391,0.006 z m 3.5527345,2.80468 c 0.33815,0.004 0.473541,0.0849 0.488281,0.0977 0.02413,0.0209 0.02456,0.0198 0.03711,0.0527 0.01255,0.033 0.03007,0.10544 0.0332,0.24024 0.0025,0.11431 -0.0039,0.14304 -0.0039,0.1543 -0.02898,0.0151 -0.107012,0.0465 -0.226562,0.0703 -0.0851,0.0169 -0.210539,0.0257 -0.328125,0.0351 z m 0,3.72071 c 0.422067,0.0168 0.734644,0.0898 0.880859,0.16601 a 0.16106933,0.16106933 0 0 0 0.01172,0.006 c 0.0014,6.9e-4 6.85e-4,-6.3e-4 0.002,0 0.05178,0.0257 0.03812,0.008 0.05078,0.0391 0.01297,0.0323 0.0332,0.14381 0.0332,0.36914 0,0.17689 -0.01644,0.2581 -0.02344,0.27344 -0.0068,0.0149 -0.0074,0.0127 -0.07031,0.0469 -0.175588,0.0901 -0.467425,0.16346 -0.884765,0.16992 z"
             id="path6864" />
        </g>
        <g
           aria-label="B"
           style="font-style:normal;font-variant:normal;font-weight:normal;font-stretch:normal;font-size:15.60777092px;line-height:1.25;font-family:Dyuthi;-inkscape-font-specification:'Dyuthi, Normal';font-variant-ligatures:normal;font-variant-caps:normal;font-variant-numeric:normal;font-feature-settings:normal;text-align:start;letter-spacing:0px;word-spacing:0px;writing-mode:lr-tb;text-anchor:start;fill:#137efe;fill-opacity:1;stroke:none;stroke-width:0.39019161"
           id="text6831">
          <path
             inkscape:connector-curvature="0"
             d="m 13.199444,289.42376 q -0.411533,-0.0152 -0.579195,-0.0152 -0.129557,0 -0.213387,-0.0838 -0.09907,-0.0838 -0.09907,-0.19053 v -2.37774 q 0,-0.12956 0.09907,-0.21339 0.09907,-0.0838 0.221008,-0.0838 h 0.480122 q 0.914518,0 1.455607,0.28198 0.602058,0.30483 0.602058,1.24984 0,0.83068 -0.586816,1.15076 -0.541089,0.28198 -1.379397,0.28198 z M 12.307789,283.045 q 0,-0.26674 0.281976,-0.28198 0.274355,-0.008 0.640163,-0.0152 1.486091,0 1.516575,1.31081 0.01524,0.69351 -0.434396,0.97549 -0.449638,0.27435 -1.287946,0.27435 h -0.403912 q -0.144799,-0.008 -0.228629,-0.0838 -0.08383,-0.0838 -0.08383,-0.19052 z m 3.536135,2.63686 q 0,-0.0991 0.08383,-0.1448 1.310809,-0.59444 1.310809,-1.79093 0,-1.31081 -1.211736,-1.89 -0.945002,-0.49537 -3.017909,-0.51823 -0.952623,-0.0152 -1.028832,-0.0152 -0.723994,-0.0152 -0.945002,-0.0229 -0.396291,-0.008 -0.701131,0.27436 -0.289597,0.27435 -0.289597,0.68589 v 7.61336 q 0,0.43439 0.304839,0.70113 0.342945,0.2896 0.739236,0.27435 1.364155,-0.061 1.447986,-0.0533 2.941699,-0.008 3.978153,-0.7621 1.059316,-0.78496 1.051695,-1.96621 0,-1.67662 -1.623269,-2.16436 -0.09907,-0.0381 -0.09907,-0.22101 z"
             style="font-style:normal;font-variant:normal;font-weight:normal;font-stretch:normal;font-size:15.60777092px;font-family:Dyuthi;-inkscape-font-specification:'Dyuthi, Normal';font-variant-ligatures:normal;font-variant-caps:normal;font-variant-numeric:normal;font-feature-settings:normal;text-align:start;writing-mode:lr-tb;text-anchor:start;fill:#a2edce;fill-opacity:1;stroke-width:0.39019161"
             id="path6861" />
        </g>
      </g>
    </g>
  </g>
</svg>
