<?xml version="1.0" encoding="UTF-8" standalone="no"?>
<!-- Created with Inkscape (http://www.inkscape.org/) -->

<svg
   xmlns:dc="http://purl.org/dc/elements/1.1/"
   xmlns:cc="http://creativecommons.org/ns#"
   xmlns:rdf="http://www.w3.org/1999/02/22-rdf-syntax-ns#"
   xmlns:svg="http://www.w3.org/2000/svg"
   xmlns="http://www.w3.org/2000/svg"
   xmlns:sodipodi="http://sodipodi.sourceforge.net/DTD/sodipodi-0.dtd"
   xmlns:inkscape="http://www.inkscape.org/namespaces/inkscape"
   width="128"
   height="128"
   viewBox="0 0 33.866668 33.866666"
   version="1.1"
   id="svg8"
   inkscape:version="0.92.3 (2405546, 2018-03-11)"
   sodipodi:docname="tool_quiz.svg">
  <defs
     id="defs2" />
  <sodipodi:namedview
     id="base"
     pagecolor="#ffffff"
     bordercolor="#666666"
     borderopacity="1.0"
     inkscape:pageopacity="0.0"
     inkscape:pageshadow="2"
     inkscape:zoom="1.9648438"
     inkscape:cx="91.731844"
     inkscape:cy="61.271222"
     inkscape:document-units="mm"
     inkscape:current-layer="layer1"
     showgrid="false"
     units="px"
     inkscape:window-width="1366"
     inkscape:window-height="713"
     inkscape:window-x="0"
     inkscape:window-y="27"
     inkscape:window-maximized="1"
     showguides="false" />
  <metadata
     id="metadata5">
    <rdf:RDF>
      <cc:Work
         rdf:about="">
        <dc:format>image/svg+xml</dc:format>
        <dc:type
           rdf:resource="http://purl.org/dc/dcmitype/StillImage" />
        <dc:title />
      </cc:Work>
    </rdf:RDF>
  </metadata>
  <g
     inkscape:label="Capa 1"
     inkscape:groupmode="layer"
     id="layer1"
     transform="translate(0,-263.13334)">
    <g
       id="g4631"
       transform="matrix(0.26458333,0,0,0.26458333,123.98067,233.3765)" />
    <g
       id="g4633"
       transform="matrix(0.26458333,0,0,0.26458333,123.98067,233.3765)" />
    <g
       id="g4635"
       transform="matrix(0.26458333,0,0,0.26458333,123.98067,233.3765)" />
    <g
       id="g4637"
       transform="matrix(0.26458333,0,0,0.26458333,123.98067,233.3765)" />
    <g
       id="g4639"
       transform="matrix(0.26458333,0,0,0.26458333,123.98067,233.3765)" />
    <g
       id="g4641"
       transform="matrix(0.26458333,0,0,0.26458333,123.98067,233.3765)" />
    <g
       id="g4643"
       transform="matrix(0.26458333,0,0,0.26458333,123.98067,233.3765)" />
    <g
       id="g4645"
       transform="matrix(0.26458333,0,0,0.26458333,123.98067,233.3765)" />
    <g
       id="g4647"
       transform="matrix(0.26458333,0,0,0.26458333,123.98067,233.3765)" />
    <g
       id="g4649"
       transform="matrix(0.26458333,0,0,0.26458333,123.98067,233.3765)" />
    <g
       id="g4651"
       transform="matrix(0.26458333,0,0,0.26458333,123.98067,233.3765)" />
    <g
       id="g4653"
       transform="matrix(0.26458333,0,0,0.26458333,123.98067,233.3765)" />
    <g
       id="g4655"
       transform="matrix(0.26458333,0,0,0.26458333,123.98067,233.3765)" />
    <g
       id="g4657"
       transform="matrix(0.26458333,0,0,0.26458333,123.98067,233.3765)" />
    <g
       id="g4659"
       transform="matrix(0.26458333,0,0,0.26458333,123.98067,233.3765)" />
    <g
       id="g4428"
       transform="matrix(-0.05305628,0,0,0.05305628,1.9559308,265.80561)" />
    <g
       id="g4430"
       transform="matrix(-0.05305628,0,0,0.05305628,1.9559308,265.80561)" />
    <g
       id="g4432"
       transform="matrix(-0.05305628,0,0,0.05305628,1.9559308,265.80561)" />
    <g
       id="g4434"
       transform="matrix(-0.05305628,0,0,0.05305628,1.9559308,265.80561)" />
    <g
       id="g4436"
       transform="matrix(-0.05305628,0,0,0.05305628,1.9559308,265.80561)" />
    <g
       id="g4438"
       transform="matrix(-0.05305628,0,0,0.05305628,1.9559308,265.80561)" />
    <g
       id="g4440"
       transform="matrix(-0.05305628,0,0,0.05305628,1.9559308,265.80561)" />
    <g
       id="g4442"
       transform="matrix(-0.05305628,0,0,0.05305628,1.9559308,265.80561)" />
    <g
       id="g4444"
       transform="matrix(-0.05305628,0,0,0.05305628,1.9559308,265.80561)" />
    <g
       id="g4446"
       transform="matrix(-0.05305628,0,0,0.05305628,1.9559308,265.80561)" />
    <g
       id="g4448"
       transform="matrix(-0.05305628,0,0,0.05305628,1.9559308,265.80561)" />
    <g
       id="g4450"
       transform="matrix(-0.05305628,0,0,0.05305628,1.9559308,265.80561)" />
    <g
       id="g4452"
       transform="matrix(-0.05305628,0,0,0.05305628,1.9559308,265.80561)" />
    <g
       id="g4454"
       transform="matrix(-0.05305628,0,0,0.05305628,1.9559308,265.80561)" />
    <g
       id="g4456"
       transform="matrix(-0.05305628,0,0,0.05305628,1.9559308,265.80561)" />
    <g
       id="g901"
       inkscape:export-filename="/var/www/chamilo2/public/img/icons/64/tool_quiz.png"
       inkscape:export-xdpi="48"
       inkscape:export-ydpi="48">
      <g
         transform="matrix(1.1025015,0,0,1.1025015,-1.7124435,-30.21139)"
         id="g9906">
        <path
           style="fill:#3e88b9;fill-opacity:1;stroke-width:0.92188019"
           d="M 25.00345,268.84086 H 8.4096064 c -1.527554,0 -2.765641,1.23807 -2.765641,2.76564 v 20.28135 c 0,1.52754 1.238087,2.76565 2.765641,2.76565 H 25.00345 c 1.527557,0 2.765641,-1.23811 2.765641,-2.76565 V 271.6065 c 0,-1.52757 -1.238084,-2.76564 -2.765641,-2.76564 z"
           id="path9797"
           inkscape:connector-curvature="0" />
        <path
           style="fill:#ffffff;fill-opacity:1;stroke-width:0.92188019"
           d="m 26.847212,291.88785 c 0,1.01685 -0.826926,1.84378 -1.843762,1.84378 H 8.4096064 c -1.016833,0 -1.843758,-0.82693 -1.843758,-1.84378 V 271.6065 c 0,-1.01685 0.826925,-1.84377 1.843758,-1.84377 H 25.00345 c 1.016836,0 1.843762,0.82692 1.843762,1.84377 z"
           id="path9795"
           inkscape:connector-curvature="0" />
        <path
           style="fill:#3e88b9;fill-opacity:1;stroke-width:0.92188019"
           d="m 11.175246,271.6065 c -1.5275526,0 -2.7656396,1.23807 -2.7656396,2.76564 0,1.52754 1.238087,2.76564 2.7656396,2.76564 1.527558,0 2.765641,-1.2381 2.765641,-2.76564 0,-1.52757 -1.238083,-2.76564 -2.765641,-2.76564 z"
           id="path9793"
           inkscape:connector-curvature="0" />
        <path
           style="fill:#a2edce;fill-opacity:1;stroke-width:0.92188019"
           d="m 11.175246,276.21588 c -1.016832,0 -1.8437576,-0.82692 -1.8437576,-1.84374 0,-1.01685 0.8269256,-1.84377 1.8437576,-1.84377 1.016836,0 1.843762,0.82692 1.843762,1.84377 0,1.01682 -0.826926,1.84374 -1.843762,1.84374 z"
           id="path9791"
           inkscape:connector-curvature="0" />
        <path
           style="fill:#3e88b9;fill-opacity:1;stroke-width:0.92188019"
           d="m 11.175246,278.98152 c -1.5275526,0 -2.7656396,1.2381 -2.7656396,2.76564 0,1.52757 1.238087,2.76564 2.7656396,2.76564 1.527558,0 2.765641,-1.23807 2.765641,-2.76564 0,-1.52754 -1.238083,-2.76564 -2.765641,-2.76564 z"
           id="path9789"
           inkscape:connector-curvature="0" />
        <path
           style="fill:#ffb380;fill-opacity:1;stroke-width:0.92188019"
           d="m 11.175246,283.59093 c -1.016832,0 -1.8437576,-0.82692 -1.8437576,-1.84377 0,-1.01681 0.8269256,-1.84374 1.8437576,-1.84374 1.016836,0 1.843762,0.82693 1.843762,1.84374 0,1.01685 -0.826926,1.84377 -1.843762,1.84377 z"
           id="path9787"
           inkscape:connector-curvature="0" />
        <path
           style="fill:#3e88b9;fill-opacity:1;stroke-width:0.92188019"
           d="m 11.175246,286.35657 c -1.5275526,0 -2.7656396,1.2381 -2.7656396,2.76564 0,1.52754 1.238087,2.76564 2.7656396,2.76564 1.527558,0 2.765641,-1.2381 2.765641,-2.76564 0,-1.52754 -1.238083,-2.76564 -2.765641,-2.76564 z"
           id="path9785"
           inkscape:connector-curvature="0" />
        <path
           style="fill:#a2edce;fill-opacity:1;stroke-width:0.92188019"
           d="m 11.175246,290.96599 c -1.016832,0 -1.8437576,-0.82693 -1.8437576,-1.84378 0,-1.01685 0.8269256,-1.84377 1.8437576,-1.84377 1.016836,0 1.843762,0.82692 1.843762,1.84377 0,1.01685 -0.826926,1.84378 -1.843762,1.84378 z"
           id="path9783"
           inkscape:connector-curvature="0" />
        <path
           style="fill:#3e88b9;fill-opacity:1;stroke-width:0.92188019"
           d="m 12.097129,281.74716 c 0,0.50888 -0.413005,0.9219 -0.921883,0.9219 -0.508877,0 -0.921879,-0.41302 -0.921879,-0.9219 0,-0.50888 0.413002,-0.92187 0.921879,-0.92187 0.508878,0 0.921883,0.41299 0.921883,0.92187 z"
           id="path9781"
           inkscape:connector-curvature="0" />
        <path
           style="fill:#3e88b9;fill-opacity:1;stroke-width:0.92188019"
           d="m 23.159692,272.9893 c 0,0.25436 -0.206513,0.46094 -0.460941,0.46094 H 16.24559 c -0.254421,0 -0.460941,-0.20662 -0.460941,-0.46094 0,-0.25435 0.206513,-0.46093 0.460941,-0.46093 h 6.453161 c 0.254456,0 0.460941,0.20662 0.460941,0.46093 z"
           id="path9779"
           inkscape:connector-curvature="0" />
        <path
           style="fill:#3e88b9;fill-opacity:1;stroke-width:0.92188019"
           d="m 23.159692,274.83308 c 0,0.25435 -0.206513,0.46093 -0.460941,0.46093 H 16.24559 c -0.254421,0 -0.460941,-0.20662 -0.460941,-0.46093 0,-0.25436 0.206513,-0.46094 0.460941,-0.46094 h 6.453161 c 0.254456,0 0.460941,0.20662 0.460941,0.46094 z"
           id="path9777"
           inkscape:connector-curvature="0" />
        <path
           style="fill:#3e88b9;fill-opacity:1;stroke-width:0.92188019"
           d="m 23.159692,280.36436 c 0,0.25435 -0.206513,0.46093 -0.460941,0.46093 H 16.24559 c -0.254421,0 -0.460941,-0.20662 -0.460941,-0.46093 0,-0.25435 0.206513,-0.46094 0.460941,-0.46094 h 6.453161 c 0.254456,0 0.460941,0.20662 0.460941,0.46094 z"
           id="path9775"
           inkscape:connector-curvature="0" />
        <path
           style="fill:#3e88b9;fill-opacity:1;stroke-width:0.92188019"
           d="m 23.159692,282.20809 c 0,0.25436 -0.206513,0.46097 -0.460941,0.46097 H 16.24559 c -0.254421,0 -0.460941,-0.20661 -0.460941,-0.46097 0,-0.25435 0.206513,-0.46093 0.460941,-0.46093 h 6.453161 c 0.254456,0 0.460941,0.20662 0.460941,0.46093 z"
           id="path9773"
           inkscape:connector-curvature="0" />
        <path
           style="fill:#3e88b9;fill-opacity:1;stroke-width:0.92188019"
           d="m 23.159692,287.73938 c 0,0.25435 -0.206513,0.46097 -0.460941,0.46097 H 16.24559 c -0.254421,0 -0.460941,-0.20662 -0.460941,-0.46097 0,-0.25436 0.206513,-0.46094 0.460941,-0.46094 h 6.453161 c 0.254456,0 0.460941,0.20662 0.460941,0.46094 z"
           id="path9771"
           inkscape:connector-curvature="0" />
        <path
           style="fill:#3e88b9;fill-opacity:1;stroke-width:0.92188019"
           d="m 23.159692,289.58315 c 0,0.25435 -0.206513,0.46093 -0.460941,0.46093 H 16.24559 c -0.254421,0 -0.460941,-0.20661 -0.460941,-0.46093 0,-0.25435 0.206513,-0.46094 0.460941,-0.46094 h 6.453161 c 0.254456,0 0.460941,0.20662 0.460941,0.46094 z"
           id="path9759"
           inkscape:connector-curvature="0" />
      </g>
      <rect
         ry="0"
         y="263.13333"
         x="8.9009603e-07"
         height="33.866665"
         width="33.866665"
         id="rect1218"
         style="opacity:0;fill:#ff5555;fill-opacity:1;stroke:none;stroke-width:0.29486692;stroke-linecap:round;stroke-miterlimit:4;stroke-dasharray:none;stroke-dashoffset:0;stroke-opacity:1" />
      <g
         transform="matrix(0.11159598,-0.187976,0.187976,0.11159598,-40.396514,278.05509)"
         id="g6057">
        <path
           inkscape:connector-curvature="0"
           style="fill:#a0beff;fill-opacity:1;stroke-width:0.26458332"
           d="m 88.183562,258.32299 h 79.009608 c 2.0275,0 3.67136,1.64386 3.67136,3.67136 v 9.59062 c 0,2.0275 -1.64386,3.67136 -3.67136,3.67136 H 88.183562 Z"
           id="path5906" />
        <path
           inkscape:connector-curvature="0"
           style="fill:#ffdc61;fill-opacity:1;stroke-width:0.26458332"
           d="m 158.58416,275.25633 h 8.60875 c 2.02776,0 3.67162,-1.64386 3.67162,-3.67136 v -9.59062 c 0,-2.0275 -1.64386,-3.67136 -3.67136,-3.67136 h -8.60875 v 16.93334 z"
           id="path5908" />
        <polygon
           style="fill:#ffffff"
           points="135.505,10 135.505,74 64,42 "
           id="polygon5910"
           transform="matrix(0.26458333,0,0,0.26458333,52.331198,255.67716)" />
        <path
           inkscape:connector-curvature="0"
           d="m 68.183708,269.20451 18.919031,8.46667 c 0.33999,0.15213 0.70829,0.23098 1.080823,0.23098 h 79.009608 c 3.48324,0 6.31719,-2.83395 6.31719,-6.31719 v -9.59062 c 0,-3.48324 -2.83395,-6.31719 -6.31719,-6.31719 H 88.183562 c -0.372533,0 -0.740833,0.0786 -1.080823,0.23098 l -18.919031,8.46667 c -0.952235,0.42598 -1.56501,1.37186 -1.56501,2.41485 0,1.04299 0.612775,1.98887 1.56501,2.41485 z m 22.645687,-8.23568 h 65.108935 v 11.64166 H 90.829395 Z m 77.389305,1.02552 v 9.59062 c 0,0.56541 -0.46011,1.02552 -1.02553,1.02552 h -5.96318 v -11.64166 h 5.96318 c 0.56542,0 1.02553,0.46011 1.02553,1.02552 z m -82.680971,0.41143 v 8.76776 l -9.796198,-4.38388 z"
           id="path5938"
           style="fill:#3e88b9;fill-opacity:1;stroke-width:0.26458332" />
      </g>
    </g>
    <g
       id="g5940"
       transform="matrix(0.26458333,0,0,0.26458333,52.331198,255.67716)" />
    <g
       id="g5942"
       transform="matrix(0.26458333,0,0,0.26458333,52.331198,255.67716)" />
    <g
       id="g5944"
       transform="matrix(0.26458333,0,0,0.26458333,52.331198,255.67716)" />
    <g
       id="g5946"
       transform="matrix(0.26458333,0,0,0.26458333,52.331198,255.67716)" />
    <g
       id="g5948"
       transform="matrix(0.26458333,0,0,0.26458333,52.331198,255.67716)" />
    <g
       id="g5950"
       transform="matrix(0.26458333,0,0,0.26458333,52.331198,255.67716)" />
    <g
       id="g5952"
       transform="matrix(0.26458333,0,0,0.26458333,52.331198,255.67716)" />
    <g
       id="g5954"
       transform="matrix(0.26458333,0,0,0.26458333,52.331198,255.67716)" />
    <g
       id="g5956"
       transform="matrix(0.26458333,0,0,0.26458333,52.331198,255.67716)" />
    <g
       id="g5958"
       transform="matrix(0.26458333,0,0,0.26458333,52.331198,255.67716)" />
    <g
       id="g5960"
       transform="matrix(0.26458333,0,0,0.26458333,52.331198,255.67716)" />
    <g
       id="g5962"
       transform="matrix(0.26458333,0,0,0.26458333,52.331198,255.67716)" />
    <g
       id="g5964"
       transform="matrix(0.26458333,0,0,0.26458333,52.331198,255.67716)" />
    <g
       id="g5966"
       transform="matrix(0.26458333,0,0,0.26458333,52.331198,255.67716)" />
    <g
       id="g5968"
       transform="matrix(0.26458333,0,0,0.26458333,52.331198,255.67716)" />
  </g>
</svg>
