<?xml version="1.0" encoding="UTF-8" standalone="no"?>
<!-- Created with Inkscape (http://www.inkscape.org/) -->

<svg
   xmlns:dc="http://purl.org/dc/elements/1.1/"
   xmlns:cc="http://creativecommons.org/ns#"
   xmlns:rdf="http://www.w3.org/1999/02/22-rdf-syntax-ns#"
   xmlns:svg="http://www.w3.org/2000/svg"
   xmlns="http://www.w3.org/2000/svg"
   xmlns:sodipodi="http://sodipodi.sourceforge.net/DTD/sodipodi-0.dtd"
   xmlns:inkscape="http://www.inkscape.org/namespaces/inkscape"
   width="128"
   height="128"
   viewBox="0 0 33.866668 33.866666"
   version="1.1"
   id="svg8"
   inkscape:version="0.92.3 (2405546, 2018-03-11)"
   sodipodi:docname="tool_attendance.svg">
  <defs
     id="defs2" />
  <sodipodi:namedview
     id="base"
     pagecolor="#ffffff"
     bordercolor="#666666"
     borderopacity="1.0"
     inkscape:pageopacity="0.0"
     inkscape:pageshadow="2"
     inkscape:zoom="1.0035286"
     inkscape:cx="154.19333"
     inkscape:cy="47.38471"
     inkscape:document-units="mm"
     inkscape:current-layer="layer1"
     showgrid="false"
     units="px"
     inkscape:window-width="1366"
     inkscape:window-height="713"
     inkscape:window-x="0"
     inkscape:window-y="27"
     inkscape:window-maximized="1" />
  <metadata
     id="metadata5">
    <rdf:RDF>
      <cc:Work
         rdf:about="">
        <dc:format>image/svg+xml</dc:format>
        <dc:type
           rdf:resource="http://purl.org/dc/dcmitype/StillImage" />
        <dc:title />
      </cc:Work>
    </rdf:RDF>
  </metadata>
  <g
     inkscape:label="Capa 1"
     inkscape:groupmode="layer"
     id="layer1"
     transform="translate(0,-263.13334)">
    <g
       id="g1104"
       transform="matrix(0.06481204,0,0,0.06481204,2.7816235,265.91497)" />
    <g
       id="g1106"
       transform="matrix(0.06481204,0,0,0.06481204,2.7816235,265.91497)" />
    <g
       id="g1108"
       transform="matrix(0.06481204,0,0,0.06481204,2.7816235,265.91497)" />
    <g
       id="g1110"
       transform="matrix(0.06481204,0,0,0.06481204,2.7816235,265.91497)" />
    <g
       id="g1112"
       transform="matrix(0.06481204,0,0,0.06481204,2.7816235,265.91497)" />
    <g
       id="g1114"
       transform="matrix(0.06481204,0,0,0.06481204,2.7816235,265.91497)" />
    <g
       id="g1116"
       transform="matrix(0.06481204,0,0,0.06481204,2.7816235,265.91497)" />
    <g
       id="g1118"
       transform="matrix(0.06481204,0,0,0.06481204,2.7816235,265.91497)" />
    <g
       id="g1120"
       transform="matrix(0.06481204,0,0,0.06481204,2.7816235,265.91497)" />
    <g
       id="g1122"
       transform="matrix(0.06481204,0,0,0.06481204,2.7816235,265.91497)" />
    <g
       id="g1124"
       transform="matrix(0.06481204,0,0,0.06481204,2.7816235,265.91497)" />
    <g
       id="g1126"
       transform="matrix(0.06481204,0,0,0.06481204,2.7816235,265.91497)" />
    <g
       id="g1128"
       transform="matrix(0.06481204,0,0,0.06481204,2.7816235,265.91497)" />
    <g
       id="g1130"
       transform="matrix(0.06481204,0,0,0.06481204,2.7816235,265.91497)" />
    <g
       id="g1132"
       transform="matrix(0.06481204,0,0,0.06481204,2.7816235,265.91497)" />
    <g
       id="g839"
       inkscape:export-filename="/var/www/chamilo2/public/img/icons/64/tool_attendance.png"
       inkscape:export-xdpi="48"
       inkscape:export-ydpi="48">
      <rect
         ry="0"
         y="263.13333"
         x="2.0676269e-07"
         height="33.866665"
         width="33.866665"
         id="rect1218"
         style="opacity:0;fill:#ff5555;fill-opacity:1;stroke:none;stroke-width:0.29486692;stroke-linecap:round;stroke-miterlimit:4;stroke-dasharray:none;stroke-dashoffset:0;stroke-opacity:1" />
      <g
         transform="matrix(1.0407246,0,0,1.0407246,-0.7313056,-10.509172)"
         id="g4074">
        <circle
           style="opacity:1;fill:#a0beff;fill-opacity:1;stroke:none;stroke-width:1.10590732;stroke-linecap:round;stroke-miterlimit:4;stroke-dasharray:none;stroke-dashoffset:0;stroke-opacity:1"
           id="path4064"
           cx="16.973404"
           cy="279.20532"
           r="12.301044" />
        <circle
           r="10.978127"
           cy="279.20532"
           cx="16.973404"
           id="circle4066"
           style="opacity:1;fill:#ffb380;fill-opacity:1;stroke:none;stroke-width:0.98697227;stroke-linecap:round;stroke-miterlimit:4;stroke-dasharray:none;stroke-dashoffset:0;stroke-opacity:1" />
        <circle
           style="opacity:1;fill:#ffffff;fill-opacity:1;stroke:none;stroke-width:0.75189501;stroke-linecap:round;stroke-miterlimit:4;stroke-dasharray:none;stroke-dashoffset:0;stroke-opacity:1"
           id="circle4068"
           cx="16.973404"
           cy="279.20532"
           r="8.3633528" />
        <path
           id="path4024"
           style="fill:#3e88b9;fill-opacity:1;stroke-width:0.92812848"
           d="m 17.901533,287.55846 c 0,0.51232 -0.415801,0.92815 -0.928128,0.92815 -0.512326,0 -0.928131,-0.41583 -0.928131,-0.92815 0,-0.51232 0.415805,-0.92812 0.928131,-0.92812 0.512327,0 0.928128,0.4158 0.928128,0.92812 z M 16.973405,271.7803 c 0.512327,0 0.928128,-0.41583 0.928128,-0.92816 0,-0.51232 -0.415801,-0.92812 -0.928128,-0.92812 -0.512326,0 -0.928131,0.4158 -0.928131,0.92812 0,0.51233 0.415805,0.92816 0.928131,0.92816 z m -8.3531574,6.49688 c -0.5123272,0 -0.9281286,0.4158 -0.9281286,0.92812 0,0.51232 0.4158014,0.92815 0.9281286,0.92815 0.5123262,0 0.9281286,-0.41583 0.9281286,-0.92815 0,-0.51232 -0.4158024,-0.92812 -0.9281286,-0.92812 z m 19.4907014,0.92812 c 0,6.14143 -4.996117,11.13755 -11.137544,11.13755 -6.141427,0 -11.1375434,-4.99612 -11.1375434,-11.13755 0,-6.14139 4.9961164,-11.13755 11.1375434,-11.13755 6.141427,0 11.137544,4.99616 11.137544,11.13755 z m -0.928131,0 c 0,-5.63837 -4.571031,-10.2094 -10.209413,-10.2094 -5.638381,0 -10.2094146,4.57103 -10.2094146,10.2094 0,5.6384 4.5710336,10.20943 10.2094146,10.20943 5.638382,0 10.209413,-4.57103 10.209413,-10.20943 z m -1.856256,-0.92812 c -0.512327,0 -0.928131,0.4158 -0.928131,0.92812 0,0.51232 0.415804,0.92815 0.928131,0.92815 0.512327,0 0.928128,-0.41583 0.928128,-0.92815 0,-0.51232 -0.415801,-0.92812 -0.928128,-0.92812 z m 4.640641,0.92812 c 0,7.17631 -5.817508,12.99381 -12.993798,12.99381 -7.17629,0 -12.9938003,-5.8175 -12.9938003,-12.99381 0,-7.1763 5.8175103,-12.99377 12.9938003,-12.99377 7.17629,0 12.993798,5.81747 12.993798,12.99377 z m -0.928126,0 c 0,-6.65282 -5.412846,-12.06565 -12.065672,-12.06565 -6.652826,0 -12.0656718,5.41283 -12.0656718,12.06565 0,6.65286 5.4128458,12.06569 12.0656718,12.06569 6.652826,0 12.065672,-5.41283 12.065672,-12.06569 z m -11.18302,0.2266 c 0.0186,-0.0743 0.0455,-0.14662 0.0455,-0.2266 0,-0.33955 -0.19118,-0.62462 -0.464064,-0.78612 v -4.78264 c 0,-0.25609 -0.207913,-0.46406 -0.464067,-0.46406 -0.256144,0 -0.464061,0.208 -0.464061,0.46406 v 4.78264 c -0.272878,0.16137 -0.464065,0.44645 -0.464065,0.78612 0,0.51232 0.4158,0.92815 0.928126,0.92815 0.07979,0 0.152209,-0.0281 0.226471,-0.0455 l 5.014679,5.0147 c 0.09004,0.0901 0.208824,0.13541 0.327637,0.13541 0.118812,0 0.237588,-0.0456 0.328548,-0.13541 0.180972,-0.181 0.180972,-0.4752 0,-0.65618 z"
           class="feather_een"
           inkscape:connector-curvature="0" />
      </g>
    </g>
  </g>
</svg>
