<?xml version="1.0" encoding="UTF-8" standalone="no"?>
<!-- Created with Inkscape (http://www.inkscape.org/) -->

<svg
   xmlns:dc="http://purl.org/dc/elements/1.1/"
   xmlns:cc="http://creativecommons.org/ns#"
   xmlns:rdf="http://www.w3.org/1999/02/22-rdf-syntax-ns#"
   xmlns:svg="http://www.w3.org/2000/svg"
   xmlns="http://www.w3.org/2000/svg"
   xmlns:sodipodi="http://sodipodi.sourceforge.net/DTD/sodipodi-0.dtd"
   xmlns:inkscape="http://www.inkscape.org/namespaces/inkscape"
   width="128"
   height="128"
   viewBox="0 0 33.866668 33.866666"
   version="1.1"
   id="svg8"
   inkscape:version="0.92.3 (2405546, 2018-03-11)"
   sodipodi:docname="tool_course_progress.svg">
  <defs
     id="defs2" />
  <sodipodi:namedview
     id="base"
     pagecolor="#ffffff"
     bordercolor="#666666"
     borderopacity="1.0"
     inkscape:pageopacity="0.0"
     inkscape:pageshadow="2"
     inkscape:zoom="2.1392174"
     inkscape:cx="63.967821"
     inkscape:cy="50.728024"
     inkscape:document-units="mm"
     inkscape:current-layer="layer1"
     showgrid="false"
     units="px"
     inkscape:window-width="1366"
     inkscape:window-height="713"
     inkscape:window-x="0"
     inkscape:window-y="27"
     inkscape:window-maximized="1" />
  <metadata
     id="metadata5">
    <rdf:RDF>
      <cc:Work
         rdf:about="">
        <dc:format>image/svg+xml</dc:format>
        <dc:type
           rdf:resource="http://purl.org/dc/dcmitype/StillImage" />
        <dc:title />
      </cc:Work>
    </rdf:RDF>
  </metadata>
  <g
     inkscape:label="Capa 1"
     inkscape:groupmode="layer"
     id="layer1"
     transform="translate(0,-263.13334)">
    <g
       id="g26649"
       inkscape:export-filename="/var/www/chamilo2/public/img/icons/64/tool_course_progress.png"
       inkscape:export-xdpi="48"
       inkscape:export-ydpi="48">
      <ellipse
         id="ellipse1076"
         ry="3.0656092"
         rx="12.359655"
         cy="292.90982"
         cx="16.933332"
         style="opacity:0.5;fill:#b8cbcd;stroke-width:0.06481204;enable-background:new" />
      <rect
         ry="0"
         y="263.13333"
         x="8.9009603e-07"
         height="33.866665"
         width="33.866665"
         id="rect1218"
         style="opacity:0;fill:#ff5555;fill-opacity:1;stroke:none;stroke-width:0.29486692;stroke-linecap:round;stroke-miterlimit:4;stroke-dasharray:none;stroke-dashoffset:0;stroke-opacity:1" />
      <g
         transform="translate(-0.41824497,-0.86703494)"
         id="g26621">
        <g
           id="g1448"
           transform="matrix(1.0899604,0,0,1.0899604,-13.342989,-24.59657)">
          <g
             transform="matrix(0.77377166,0,0,0.77377166,43.698527,61.923546)"
             id="g1391">
            <path
               inkscape:connector-curvature="0"
               style="fill:#c87137;fill-opacity:1;stroke-width:0.05939075"
               d="m -8.4235754,271.43044 v 18.75162 c -0.00166,0.5591 -0.454458,1.01195 -1.0136219,1.01362 H -33.763649 c -0.559104,-0.002 -1.011959,-0.45452 -1.013621,-1.01362 v -18.75162 c 0.0041,-0.54254 0.431176,-0.98738 0.973058,-1.01363 h 24.3670147 c 0.5591045,0.002 1.0119589,0.45452 1.0136219,1.01363 z"
               id="path1158" />
            <path
               id="path1160"
               d="m -9.9439786,271.43044 v 18.75162 c -0.00166,0.5591 -0.4544584,1.01195 -1.0136224,1.01362 h -22.806048 c -0.559104,-0.002 -1.011959,-0.45452 -1.013621,-1.01362 v -18.75162 c 0.0041,-0.54254 0.431176,-0.98738 0.973058,-1.01363 h 22.846611 c 0.559105,0.002 1.0119594,0.45452 1.0136224,1.01363 z"
               style="fill:#a05a2c;stroke-width:0.05939075"
               inkscape:connector-curvature="0" />
            <path
               id="path1162"
               d="m -21.600423,270.41681 v 18.37152 c 0.01924,-0.88801 -0.683172,-1.62439 -1.571063,-1.64708 h -9.578541 v -17.23122 c 0.0017,-0.5591 0.454458,-1.01196 1.013622,-1.01362 h 8.615579 c 0.403382,-5.3e-4 0.790431,0.15946 1.075685,0.44472 0.285254,0.28525 0.445253,0.6723 0.444718,1.07568 z"
               style="fill:#d5f6ff;stroke-width:0.05939075"
               inkscape:connector-curvature="0" />
            <path
               inkscape:connector-curvature="0"
               style="fill:#5fbcd3;fill-opacity:1;stroke-width:0.05939075"
               d="m -21.600423,288.78839 v 0.3801 h -11.149604 v -2.02718 h 9.578541 c 0.887891,0.0227 1.590306,0.75907 1.571063,1.64708 z"
               id="path1166" />
            <path
               id="path1168"
               d="m -10.450819,269.91003 v 17.23122 h -1.520403 v -17.23122 c -0.0016,-0.5591 -0.454458,-1.01196 -1.013622,-1.01362 h 1.520403 c 0.559164,0.002 1.012018,0.45452 1.013622,1.01362 z"
               style="fill:#5fbcd3;stroke-width:0.05939075"
               inkscape:connector-curvature="0" />
            <path
               id="path1170"
               d="m -11.971222,269.91003 v 17.23122 h -8.058137 c -0.887892,0.0227 -1.590307,0.75913 -1.571064,1.64708 v -18.37152 c -5.34e-4,-0.40338 0.159464,-0.79043 0.444718,-1.07568 0.285254,-0.28526 0.672303,-0.44525 1.075685,-0.44472 h 7.095235 c 0.559105,0.002 1.011959,0.45452 1.013563,1.01362 z"
               style="fill:#d5f6ff;stroke-width:0.05939075"
               inkscape:connector-curvature="0" />
            <path
               id="path1174"
               d="m -21.600423,288.78839 v 0.3801 h 11.149604 v -2.02718 h -9.57854 c -0.887892,0.0227 -1.590307,0.75907 -1.571064,1.64708 z"
               style="fill:#5fbcd3;fill-opacity:1;stroke-width:0.05939075"
               inkscape:connector-curvature="0" />
            <polygon
               id="polygon1176"
               points="75.8,7.533 144.067,7.533 144.067,152.6 109.933,109.933 75.8,152.6 "
               style="fill:#ff5555;fill-opacity:1"
               transform="matrix(0.05939075,0,0,0.05939075,-35.224661,268.44902)" />
            <path
               inkscape:connector-curvature="0"
               style="fill:#ffffff;stroke-width:0.05939075"
               d="m -9.4371973,280.55285 h -3.0408067 c -1.075388,-2.9e-4 -2.106827,0.42679 -2.867207,1.18717 -0.760439,0.76044 -1.187459,1.79182 -1.187162,2.8672 v 9.62926 c -2.97e-4,1.07539 0.426782,2.10683 1.187162,2.86721 0.760439,0.76044 1.791819,1.18746 2.867207,1.18716 h 3.0408067 c 1.0753883,3e-4 2.1068274,-0.42678 2.8672072,-1.18716 0.7604392,-0.76044 1.1874586,-1.79182 1.1871617,-2.86721 v -9.6292 c 2.969e-4,-1.07539 -0.4267819,-2.10682 -1.1871617,-2.8672 -0.7603798,-0.76044 -1.7918189,-1.18752 -2.8672072,-1.18723 z"
               id="path1180" />
            <path
               inkscape:connector-curvature="0"
               style="fill:#aaeeff;stroke-width:0.05939075"
               d="m -5.382769,284.60728 v 3.54759 h -5.574832 v -7.60202 h 1.5204037 c 1.0753883,-2.9e-4 2.1068274,0.42679 2.8672072,1.18717 0.7604392,0.76044 1.187518,1.79187 1.1872211,2.86726 z"
               id="path1182" />
            <path
               inkscape:connector-curvature="0"
               style="fill:#ffffff;stroke-width:0.05939075"
               d="m -6.9031722,284.60728 v 3.54759 h -4.0544288 v -7.60202 c 1.0753888,-2.9e-4 2.1068279,0.42679 2.8672077,1.18717 0.7604392,0.76044 1.187518,1.79187 1.1872211,2.86726 z"
               id="path1184" />
            <path
               inkscape:connector-curvature="0"
               style="fill:#aaeeff;stroke-width:0.05939075"
               d="m -5.382769,288.15487 v 6.08161 c 2.969e-4,1.07539 -0.4267819,2.10683 -1.1871617,2.86721 -0.7604392,0.76044 -1.7918189,1.18746 -2.8672073,1.18716 h -3.040866 c -1.075388,3e-4 -2.106827,-0.42678 -2.867207,-1.18716 -0.760439,-0.76044 -1.187459,-1.79182 -1.187162,-2.86721 v -6.08161 z"
               id="path1186" />
            <path
               inkscape:connector-curvature="0"
               style="fill:#ffffff;stroke-width:0.05939075"
               d="m -6.9031722,288.15487 v 6.08161 c 2.969e-4,1.07539 -0.4267819,2.10683 -1.1871617,2.86721 -0.7604392,0.76044 -1.7918189,1.18746 -2.8672071,1.18716 h -1.520463 c -1.075388,3e-4 -2.106827,-0.42678 -2.867207,-1.18716 -0.760439,-0.76044 -1.187459,-1.79182 -1.187162,-2.86721 v -6.08161 z"
               id="path1188" />
            <path
               id="path1192"
               d="m -33.256868,270.41681 v 19.76525 c 0.0017,0.5591 0.454518,1.01196 1.013622,1.01362 h -1.520403 c -0.559104,-0.002 -1.011959,-0.45452 -1.013622,-1.01362 v -18.75162 c 0.0041,-0.54254 0.431177,-0.98737 0.973058,-1.01363 z"
               style="fill:#c87137;stroke-width:0.05939075"
               inkscape:connector-curvature="0" />
            <polygon
               style="fill:#324654;fill-opacity:1"
               points="0,51.2 17.067,51.2 17.067,162.133 17.067,366.933 0,366.933 0,162.133 "
               id="polygon1194"
               transform="matrix(0.05939075,0,0,0.05939075,-35.284052,268.38963)" />
            <path
               id="path1196"
               d="m -34.777271,275.99165 c 0.134164,-0.002 0.262626,-0.0545 0.359849,-0.147 0.195989,-0.19985 0.195989,-0.51978 0,-0.71963 l -0.07596,-0.0609 c -0.02827,-0.0192 -0.05897,-0.0346 -0.09134,-0.0458 -0.02874,-0.0146 -0.05957,-0.0248 -0.09134,-0.0302 -0.03344,-0.006 -0.06729,-0.009 -0.101202,-0.0102 -0.134163,0.002 -0.262685,0.0543 -0.359848,0.147 -0.191357,0.20175 -0.191357,0.51794 0,0.71963 0.0484,0.0457 0.105121,0.0819 0.167066,0.10643 0.06099,0.0261 0.126502,0.0398 0.192782,0.0406 z"
               style="fill:#324654;fill-opacity:1;stroke-width:0.05939075"
               inkscape:connector-curvature="0" />
            <path
               id="path1198"
               d="m -7.9167944,280.3122 v -8.88176 c -8.909e-4,-0.83931 -0.6810931,-1.51952 -1.5204032,-1.52041 h -0.5067813 c -8.908e-4,-0.83931 -0.6810931,-1.51951 -1.5204031,-1.5204 h -8.615638 c -0.584464,0.002 -1.139233,0.25758 -1.520403,0.70057 -0.38117,-0.44299 -0.935939,-0.69867 -1.520403,-0.70057 h -8.615638 c -0.83931,8.9e-4 -1.519513,0.68109 -1.520404,1.5204 h -0.506781 c -0.83931,8.9e-4 -1.519512,0.6811 -1.520403,1.52041 v 2.02718 c 0,0.27991 0.226932,0.50678 0.506781,0.50678 0.279849,0 0.506782,-0.22693 0.506782,-0.50678 v -2.02718 c 3.56e-4,-0.27973 0.22705,-0.50643 0.506781,-0.50678 h 0.506781 v 18.24483 c 0,0.27991 0.226932,0.50678 0.506781,0.50678 h 15.710932 v 1.01363 h -16.724435 c -0.27973,-3.6e-4 -0.506425,-0.22705 -0.506781,-0.50678 v -12.67007 c 0,-0.27991 -0.226932,-0.50678 -0.506781,-0.50678 -0.27985,0 -0.506841,0.22687 -0.506841,0.50678 v 12.67001 c 8.91e-4,0.83931 0.681093,1.51951 1.520403,1.5204 h 16.724435 v 2.53402 c 0.0029,2.51788 2.043339,4.5583 4.56121,4.56121 h 3.0408064 c 2.5178708,-0.003 4.5582995,-2.04333 4.5612096,-4.56121 v -9.6292 c -0.00339,-1.93067 -1.220955,-3.65045 -3.0408064,-4.29508 z m -1.5204032,-9.38854 c 0.2797304,3.5e-4 0.5064249,0.22705 0.5067813,0.50678 v 8.64551 c -0.168254,-0.0194 -0.3374583,-0.0293 -0.5067813,-0.0299 h -0.5067813 v -9.12241 z m -6.5883944,16.72443 v -3.04081 c 0.0022,-1.95835 1.589237,-3.54539 3.547588,-3.54758 h 1.013622 v 6.58839 z m -4.054428,-18.24484 h 8.615638 c 0.27973,3.6e-4 0.506425,0.22705 0.506781,0.50678 v 10.13604 h -1.520403 c -2.517871,0.003 -4.558299,2.04334 -4.56121,4.56121 v 2.02719 H -20.0293 c -0.37725,0.002 -0.746245,0.11112 -1.064342,0.31394 v -16.5316 c 5.94e-4,-0.55952 0.454042,-1.01302 1.013622,-1.01356 z m -7.095235,0 v 6.66412 l -1.124742,-1.40584 c -0.09609,-0.12027 -0.24172,-0.19029 -0.395661,-0.19029 -0.153941,0 -0.299567,0.07 -0.395661,0.19029 l -1.124742,1.40584 v -6.66412 z m -5.067991,0.50678 c 3.57e-4,-0.27973 0.227051,-0.50642 0.506782,-0.50678 h 0.506781 v 8.1088 c -1.19e-4,0.21529 0.135827,0.40706 0.339002,0.47833 0.203176,0.0713 0.429099,0.006 0.5635,-0.16184 l 1.631523,-2.0393 1.631523,2.0393 c 0.0961,0.12033 0.241721,0.19035 0.395662,0.19029 0.13446,1.2e-4 0.263398,-0.0533 0.358482,-0.1483 0.09509,-0.0951 0.148418,-0.22402 0.148299,-0.35848 v -8.1088 h 3.040806 c 0.55958,5.4e-4 1.013028,0.45404 1.013622,1.01362 v 16.53083 c -0.317384,-0.20235 -0.685488,-0.31092 -1.061847,-0.31323 h -9.074135 z m 0,17.73806 h 9.074194 c 0.557739,0.0195 1.010771,0.45689 1.04991,1.01362 h -10.124104 z m 11.161542,1.01356 c 0.03985,-0.55732 0.493952,-0.99467 1.052404,-1.01362 h 2.990086 v 1.01362 z m 11.6445064,9.12242 h -3.0408064 c -1.958351,-0.002 -3.54539,-1.58924 -3.547588,-3.54759 v -5.57483 h 10.1360415 v 5.57483 c -0.00226,1.95835 -1.5892965,3.54539 -3.5476471,3.54759 z m 3.5475877,-10.13598 H -10.45082 v -6.58845 h 1.0136224 c 1.9583506,0.002 3.5453902,1.58923 3.5475877,3.54758 z"
               style="fill:#324654;fill-opacity:1;stroke-width:0.05939075"
               inkscape:connector-curvature="0" />
          </g>
        </g>
        <g
           id="g1883"
           transform="translate(1.7951576,2.9858045)">
          <path
             inkscape:connector-curvature="0"
             style="fill:#52b211;fill-opacity:1;stroke-width:0.04130508"
             d="m 19.652684,267.04043 v -2.68586 l 4.452276,4.4764 -4.452276,4.47644 v -2.68586 c 0,0 -3.953681,-0.95675 -6.654331,3.58115 -0.311275,-2.26311 0.576041,-4.52535 2.342907,-5.97334 0,0 1.366454,-1.27765 4.311424,-1.18893 z"
             id="path1675" />
          <path
             inkscape:connector-curvature="0"
             style="fill:#55d400;stroke-width:0.04130508"
             d="m 19.593164,265.78682 c -0.180627,0.98806 -0.619246,1.34168 -1.73374,1.53536 -0.220817,0.0391 -0.439444,0.0896 -0.654974,0.15125 -0.03193,0.0221 -0.06704,0.0392 -0.104089,0.0509 -0.09393,0.0248 -0.18546,0.0474 -0.277818,0.0705 -0.864763,0.32908 -1.60842,0.91442 -2.131467,1.67765 -0.851339,1.32647 -1.434567,2.80689 -1.716805,4.35756 1.991691,-1.73419 4.335713,-3.13799 4.983872,-3.04509 0.476702,-0.17617 1.00991,-0.10236 1.420772,0.19673 0.260593,0.22503 0.4102,0.55246 0.409787,0.89678 l 2.832125,-2.84753 z"
             id="path1677" />
          <path
             id="path1679"
             d="m 12.998228,274.57361 c -0.02135,-3e-5 -0.04271,-0.002 -0.06377,-0.005 -0.151589,-0.0266 -0.271045,-0.14386 -0.300371,-0.29492 -0.347871,-2.39734 0.590208,-4.8011 2.469962,-6.32909 0.04238,-0.0406 1.376492,-1.25618 4.177596,-1.27864 v -2.31094 c -1.24e-4,-0.15031 0.09046,-0.28583 0.229409,-0.34316 0.13895,-0.0573 0.298759,-0.0251 0.404666,0.0816 l 4.452234,4.47652 c 0.143824,0.14473 0.143824,0.37848 0,0.52321 l -4.452193,4.47615 c -0.105906,0.10669 -0.265716,0.13891 -0.404666,0.0816 -0.13895,-0.0573 -0.229574,-0.19286 -0.229409,-0.34317 v -2.37215 c -0.916683,-0.1123 -3.82324,-0.1406 -5.96462,3.45732 -0.067,0.11227 -0.188103,0.18104 -0.318834,0.18116 z m 6.367139,-7.16647 c -2.546418,0 -3.759507,1.08298 -3.772187,1.09459 -1.379384,1.12556 -2.209493,2.78888 -2.279752,4.56784 0.955427,-1.33679 2.347244,-2.29846 3.93559,-2.71923 0.813421,-0.2143 1.664347,-0.24474 2.490986,-0.0891 0.166459,0.0403 0.283683,0.18926 0.283683,0.36051 v 1.78628 l 3.558021,-3.57685 -3.558021,-3.57723 v 1.78661 c 4.1e-5,0.10037 -0.04065,0.19645 -0.11268,0.26629 -0.07266,0.0689 -0.169475,0.10649 -0.269557,0.10471 -0.09347,-0.003 -0.185873,-0.004 -0.276083,-0.004 z"
             style="fill:#008000;stroke-width:0.04130508"
             inkscape:connector-curvature="0" />
        </g>
      </g>
    </g>
  </g>
</svg>
