<?xml version="1.0" encoding="UTF-8" standalone="no"?>
<!-- Created with Inkscape (http://www.inkscape.org/) -->

<svg
   xmlns:dc="http://purl.org/dc/elements/1.1/"
   xmlns:cc="http://creativecommons.org/ns#"
   xmlns:rdf="http://www.w3.org/1999/02/22-rdf-syntax-ns#"
   xmlns:svg="http://www.w3.org/2000/svg"
   xmlns="http://www.w3.org/2000/svg"
   xmlns:sodipodi="http://sodipodi.sourceforge.net/DTD/sodipodi-0.dtd"
   xmlns:inkscape="http://www.inkscape.org/namespaces/inkscape"
   width="128"
   height="128"
   viewBox="0 0 33.866668 33.866666"
   version="1.1"
   id="svg8"
   inkscape:version="0.92.3 (2405546, 2018-03-11)"
   sodipodi:docname="tool_valves.svg">
  <defs
     id="defs2" />
  <sodipodi:namedview
     id="base"
     pagecolor="#ffffff"
     bordercolor="#666666"
     borderopacity="1.0"
     inkscape:pageopacity="0.0"
     inkscape:pageshadow="2"
     inkscape:zoom="2.2321243"
     inkscape:cx="100.24632"
     inkscape:cy="71.929957"
     inkscape:document-units="mm"
     inkscape:current-layer="layer1"
     showgrid="false"
     units="px"
     inkscape:window-width="1366"
     inkscape:window-height="713"
     inkscape:window-x="0"
     inkscape:window-y="27"
     inkscape:window-maximized="1" />
  <metadata
     id="metadata5">
    <rdf:RDF>
      <cc:Work
         rdf:about="">
        <dc:format>image/svg+xml</dc:format>
        <dc:type
           rdf:resource="http://purl.org/dc/dcmitype/StillImage" />
        <dc:title />
      </cc:Work>
    </rdf:RDF>
  </metadata>
  <g
     inkscape:label="Capa 1"
     inkscape:groupmode="layer"
     id="layer1"
     transform="translate(0,-263.13334)">
    <g
       id="g841"
       inkscape:export-filename="/var/www/chamilo2/public/img/icons/64/tool_valves.png"
       inkscape:export-xdpi="48"
       inkscape:export-ydpi="48">
      <circle
         r="3.5711617"
         cy="288.77512"
         cx="16.944475"
         id="path2124"
         style="opacity:1;fill:#ffb380;fill-opacity:1;stroke:#3e88b9;stroke-width:1.05833333;stroke-linecap:round;stroke-miterlimit:4;stroke-dasharray:none;stroke-dashoffset:0;stroke-opacity:1" />
      <rect
         ry="0"
         y="263.13333"
         x="0.072286598"
         height="33.866665"
         width="33.866665"
         id="rect1218"
         style="opacity:0;fill:#ff5555;fill-opacity:1;stroke:none;stroke-width:0.29486692;stroke-linecap:round;stroke-miterlimit:4;stroke-dasharray:none;stroke-dashoffset:0;stroke-opacity:1" />
      <path
         inkscape:connector-curvature="0"
         id="path2086"
         d="m 29.722176,288.72037 c 0,-0.19363 -0.05065,-0.39169 -0.162162,-0.57754 l -5.251787,-8.75256 c -0.315351,-0.52479 -0.481929,-1.12595 -0.481929,-1.73753 v -4.69442 c 0,-1.86576 -1.512224,-3.37795 -3.378052,-3.37795 h -1.126015 c 0,-1.24433 -1.007779,-2.25201 -2.252057,-2.25201 -1.244238,0 -2.252006,1.00768 -2.252006,2.25201 h -1.126056 c -1.865787,0 -3.378052,1.51219 -3.378052,3.37795 v 4.56497 c 0,0.69359 -0.212796,1.36922 -0.6103047,1.9368 l -6.0309661,8.61623 c -0.1416681,0.20284 -0.2051428,0.42461 -0.2051428,0.64195 0,0.58442 0.463885,1.12926 1.1282768,1.12926 H 28.59477 c 0.658711,10e-4 1.127164,-0.5393 1.127164,-1.12716 z"
         style="fill:#3e88b9;fill-opacity:1;stroke-width:1.12602067" />
      <path
         inkscape:connector-curvature="0"
         id="path2084"
         d="m 17.071346,268.45441 c 0.620414,0 1.125993,0.5054 1.125993,1.12596 h -2.252037 c 0,-0.62056 0.505578,-1.12596 1.126044,-1.12596 z"
         style="fill:#ffdc61;fill-opacity:1;stroke-width:1.12602067" />
      <path
         inkscape:connector-curvature="0"
         id="path2082"
         d="m 4.5961541,288.72269 6.0309749,-8.61623 c 0.53258,-0.76131 0.814108,-1.65428 0.814108,-2.58317 v -4.56497 c 0,-1.24187 1.010032,-2.252 2.252059,-2.252 h 6.756101 c 1.241994,0 2.252029,1.01013 2.252029,2.252 v 4.69442 c 0,0.81651 0.221726,1.61706 0.641862,2.3174 l 5.250631,8.75255 z"
         style="fill:#ffffff;fill-opacity:1;stroke-width:1.12602067" />
      <g
         style="fill:#3e88b9;fill-opacity:1"
         transform="matrix(0,-0.74665439,0.74665439,0,-190.85608,287.76574)"
         id="g2122">
        <path
           inkscape:connector-curvature="0"
           style="fill:#3e88b9;stroke-width:0.89906853;fill-opacity:1"
           d="m 11.634341,291.35834 c 0,-0.11494 0.04419,-0.23017 0.131144,-0.31825 0.175338,-0.17537 0.460344,-0.17537 0.635639,0 2.453566,2.45353 6.446319,2.45353 8.899883,0 0.17534,-0.17537 0.460333,-0.17537 0.635641,0 0.175338,0.17523 0.175338,0.46022 0,0.6356 -2.804212,2.80415 -7.366984,2.80415 -10.171163,0 -0.08742,-0.0868 -0.131144,-0.20225 -0.131144,-0.31735 z"
           id="path2080" />
        <path
           inkscape:connector-curvature="0"
           style="fill:#3e88b9;stroke-width:0.89906853;fill-opacity:1"
           d="m 12.905609,290.0861 c 0,-0.11494 0.04419,-0.23017 0.131144,-0.31825 0.175338,-0.17537 0.460334,-0.17537 0.63564,0 0.849615,0.84868 1.978855,1.31713 3.179127,1.31713 1.200249,0 2.329459,-0.46845 3.179072,-1.31713 0.175351,-0.17537 0.460334,-0.17537 0.635652,0 0.175338,0.17536 0.175338,0.46035 0,0.6356 -1.019522,1.01962 -2.37355,1.58058 -3.814724,1.58058 -1.441217,0 -2.795202,-0.56096 -3.814767,-1.58058 -0.08742,-0.0868 -0.131144,-0.20225 -0.131144,-0.31735 z"
           id="path2055" />
      </g>
      <g
         id="g2132"
         transform="matrix(0,-0.74665439,-0.74665439,0,224.78327,287.76574)"
         style="fill:#3e88b9;fill-opacity:1">
        <path
           id="path2128"
           d="m 11.634341,291.35834 c 0,-0.11494 0.04419,-0.23017 0.131144,-0.31825 0.175338,-0.17537 0.460344,-0.17537 0.635639,0 2.453566,2.45353 6.446319,2.45353 8.899883,0 0.17534,-0.17537 0.460333,-0.17537 0.635641,0 0.175338,0.17523 0.175338,0.46022 0,0.6356 -2.804212,2.80415 -7.366984,2.80415 -10.171163,0 -0.08742,-0.0868 -0.131144,-0.20225 -0.131144,-0.31735 z"
           style="fill:#3e88b9;fill-opacity:1;stroke-width:0.89906853"
           inkscape:connector-curvature="0" />
        <path
           id="path2130"
           d="m 12.905609,290.0861 c 0,-0.11494 0.04419,-0.23017 0.131144,-0.31825 0.175338,-0.17537 0.460334,-0.17537 0.63564,0 0.849615,0.84868 1.978855,1.31713 3.179127,1.31713 1.200249,0 2.329459,-0.46845 3.179072,-1.31713 0.175351,-0.17537 0.460334,-0.17537 0.635652,0 0.175338,0.17536 0.175338,0.46035 0,0.6356 -1.019522,1.01962 -2.37355,1.58058 -3.814724,1.58058 -1.441217,0 -2.795202,-0.56096 -3.814767,-1.58058 -0.08742,-0.0868 -0.131144,-0.20225 -0.131144,-0.31735 z"
           style="fill:#3e88b9;fill-opacity:1;stroke-width:0.89906853"
           inkscape:connector-curvature="0" />
      </g>
      <path
         sodipodi:nodetypes="cssscccc"
         style="fill:#a0beff;fill-opacity:1;stroke-width:1.12602067"
         d="m 16.966579,270.70632 h 3.482818 c 1.241994,0 2.252029,1.01013 2.252029,2.252 v 4.69442 c 0,0.81651 0.221726,1.61706 0.641862,2.3174 l 5.250631,8.75255 H 16.616753 c 3.480601,-5.99734 -3.935845,-7.17175 0.349826,-18.01637 z"
         id="path2134"
         inkscape:connector-curvature="0" />
      <path
         inkscape:connector-curvature="0"
         id="path2118"
         d="m 14.804688,284.96875 a 0.52921956,0.52921956 0 1 0 0,1.05664 h 9.058593 a 0.52921956,0.52921956 0 1 0 0,-1.05664 z"
         style="color:#000000;font-style:normal;font-variant:normal;font-weight:normal;font-stretch:normal;font-size:medium;line-height:normal;font-family:sans-serif;font-variant-ligatures:normal;font-variant-position:normal;font-variant-caps:normal;font-variant-numeric:normal;font-variant-alternates:normal;font-feature-settings:normal;text-indent:0;text-align:start;text-decoration:none;text-decoration-line:none;text-decoration-style:solid;text-decoration-color:#000000;letter-spacing:normal;word-spacing:normal;text-transform:none;writing-mode:lr-tb;direction:ltr;text-orientation:mixed;dominant-baseline:auto;baseline-shift:baseline;text-anchor:start;white-space:normal;shape-padding:0;clip-rule:nonzero;display:inline;overflow:visible;visibility:visible;opacity:1;isolation:auto;mix-blend-mode:normal;color-interpolation:sRGB;color-interpolation-filters:linearRGB;solid-color:#000000;solid-opacity:1;vector-effect:none;fill:#3e88b9;fill-opacity:1;fill-rule:nonzero;stroke:none;stroke-width:1.05833328;stroke-linecap:round;stroke-linejoin:miter;stroke-miterlimit:4;stroke-dasharray:none;stroke-dashoffset:0;stroke-opacity:1;color-rendering:auto;image-rendering:auto;shape-rendering:auto;text-rendering:auto;enable-background:accumulate" />
    </g>
  </g>
</svg>
