<?xml version="1.0" encoding="UTF-8" standalone="no"?>
<!-- Created with Inkscape (http://www.inkscape.org/) -->

<svg
   xmlns:dc="http://purl.org/dc/elements/1.1/"
   xmlns:cc="http://creativecommons.org/ns#"
   xmlns:rdf="http://www.w3.org/1999/02/22-rdf-syntax-ns#"
   xmlns:svg="http://www.w3.org/2000/svg"
   xmlns="http://www.w3.org/2000/svg"
   xmlns:sodipodi="http://sodipodi.sourceforge.net/DTD/sodipodi-0.dtd"
   xmlns:inkscape="http://www.inkscape.org/namespaces/inkscape"
   width="128"
   height="128"
   viewBox="0 0 33.866668 33.866666"
   version="1.1"
   id="svg8"
   inkscape:version="0.92.3 (2405546, 2018-03-11)"
   sodipodi:docname="tool_course_progress.svg">
  <defs
     id="defs2" />
  <sodipodi:namedview
     id="base"
     pagecolor="#ffffff"
     bordercolor="#666666"
     borderopacity="1.0"
     inkscape:pageopacity="0.0"
     inkscape:pageshadow="2"
     inkscape:zoom="3.2245203"
     inkscape:cx="104.3283"
     inkscape:cy="96.656884"
     inkscape:document-units="mm"
     inkscape:current-layer="layer1"
     showgrid="false"
     units="px"
     inkscape:window-width="1366"
     inkscape:window-height="713"
     inkscape:window-x="0"
     inkscape:window-y="27"
     inkscape:window-maximized="1" />
  <metadata
     id="metadata5">
    <rdf:RDF>
      <cc:Work
         rdf:about="">
        <dc:format>image/svg+xml</dc:format>
        <dc:type
           rdf:resource="http://purl.org/dc/dcmitype/StillImage" />
        <dc:title />
      </cc:Work>
    </rdf:RDF>
  </metadata>
  <g
     inkscape:label="Capa 1"
     inkscape:groupmode="layer"
     id="layer1"
     transform="translate(0,-263.13334)">
    <g
       id="g840"
       inkscape:export-filename="/var/www/chamilo2/public/img/icons/64/tool_course_progress.png"
       inkscape:export-xdpi="48"
       inkscape:export-ydpi="48">
      <rect
         ry="0"
         y="263.13333"
         x="0"
         height="33.866665"
         width="33.866665"
         id="rect1218"
         style="opacity:0;fill:#ff5555;fill-opacity:1;stroke:none;stroke-width:0.29486692;stroke-linecap:round;stroke-miterlimit:4;stroke-dasharray:none;stroke-dashoffset:0;stroke-opacity:1" />
      <g
         id="g8132">
        <path
           style="fill:#3e88b9;stroke-width:0.91206312;fill-opacity:1"
           d="m 32.144529,272.20845 v 16.41714 c 0,1.51131 -1.2249,2.73619 -2.73619,2.73619 h -9.120631 c 0,0.50346 -0.408603,0.91208 -0.912062,0.91208 h -3.648255 c -0.503459,0 -0.912062,-0.40862 -0.912062,-0.91208 H 5.6946989 c -1.511291,0 -2.73619,-1.22488 -2.73619,-2.73619 v -16.41714 c 0,-1.51127 1.224899,-2.73619 2.73619,-2.73619 H 21.19977 c 0,-0.50346 0.408607,-0.91205 0.912066,-0.91205 h 3.648251 c 0.503459,0 0.912062,0.40859 0.912062,0.91205 h 2.73619 c 1.51129,0 2.73619,1.22492 2.73619,2.73619 z"
           id="path8065" />
        <path
           style="fill:#ffdc61;stroke-width:0.91206312;fill-opacity:1"
           d="m 22.111836,280.9515 1.179297,-1.17931 0.644827,-0.64482 0.644831,0.64482 1.179296,1.17931 v -11.47924 h -3.648251 z"
           id="path8063" />
        <path
           style="fill:#ffffff;stroke-width:0.91206312"
           d="m 18.007552,289.20202 0.382153,-0.19166 c 0.504372,-0.25164 1.068025,-0.38491 1.631682,-0.38491 h 9.386952 v -18.24124 h -2.73619 v 10.56716 c 0,0.54996 -0.449645,0.91387 -0.918446,0.91387 -0.224376,0 -0.452385,-0.0831 -0.638446,-0.26922 l -1.179297,-1.17931 -1.179297,1.17931 c -0.186044,0.18615 -0.414077,0.26922 -0.638443,0.26922 -0.468801,0 -0.91845,-0.36391 -0.91845,-0.91387 v -10.56716 h -3.192218 z"
           id="path8061" />
        <path
           style="fill:#ffffff;stroke-width:0.91206312"
           d="m 5.6946989,288.62559 h 9.3869521 c 0.563656,0 1.12731,0.13306 1.631682,0.38491 l 0.382153,0.19166 V 270.38449 H 5.6946989 Z"
           id="path8059" />
        <path
           style="fill:#a2edce;stroke-width:0.91206312;fill-opacity:1"
           d="m 31.232467,272.20845 c 0,-0.67216 -0.369385,-1.25408 -0.912063,-1.57056 v 17.9877 c 0,0.50346 -0.408606,0.91208 -0.912065,0.91208 h -9.386952 c -0.425022,0 -0.84366,0.0986 -1.223989,0.28922 l -0.838186,0.41956 c -0.128614,0.0638 -0.268155,0.0965 -0.407693,0.0965 -0.139542,0 -0.279083,-0.031 -0.407693,-0.0965 l -0.838186,-0.41956 c -0.38033,-0.19063 -0.798967,-0.28922 -1.223989,-0.28922 H 5.6946989 c -0.503459,0 -0.912066,-0.40862 -0.912066,-0.91208 v -17.9877 c -0.542677,0.31645 -0.912062,0.8984 -0.912062,1.57056 v 16.41714 c 0,1.00602 0.81812,1.82414 1.824128,1.82414 H 15.727391 v 0.91205 h 3.648255 v -0.91205 h 10.032693 c 1.006008,0 1.824128,-0.81812 1.824128,-1.82414 z"
           id="path8057" />
        <g
           id="g1883"
           transform="translate(-4.613275,1.55328)">
          <path
             inkscape:connector-curvature="0"
             style="fill:#ffb380;fill-opacity:1;stroke-width:0.04130508"
             d="m 19.652684,267.04043 v -2.68586 l 4.452276,4.4764 -4.452276,4.47644 v -2.68586 c 0,0 -3.953681,-0.95675 -6.654331,3.58115 -0.311275,-2.26311 0.576041,-4.52535 2.342907,-5.97334 0,0 1.366454,-1.27765 4.311424,-1.18893 z"
             id="path1675" />
          <path
             id="path1679"
             d="m 12.998228,274.57361 c -0.02135,-3e-5 -0.04271,-0.002 -0.06377,-0.005 -0.151589,-0.0266 -0.271045,-0.14386 -0.300371,-0.29492 -0.347871,-2.39734 0.590208,-4.8011 2.469962,-6.32909 0.04238,-0.0406 1.376492,-1.25618 4.177596,-1.27864 v -2.31094 c -1.24e-4,-0.15031 0.09046,-0.28583 0.229409,-0.34316 0.13895,-0.0573 0.298759,-0.0251 0.404666,0.0816 l 4.452234,4.47652 c 0.143824,0.14473 0.143824,0.37848 0,0.52321 l -4.452193,4.47615 c -0.105906,0.10669 -0.265716,0.13891 -0.404666,0.0816 -0.13895,-0.0573 -0.229574,-0.19286 -0.229409,-0.34317 v -2.37215 c -0.916683,-0.1123 -3.82324,-0.1406 -5.96462,3.45732 -0.067,0.11227 -0.188103,0.18104 -0.318834,0.18116 z m 6.367139,-7.16647 c -2.546418,0 -3.759507,1.08298 -3.772187,1.09459 -1.379384,1.12556 -2.209493,2.78888 -2.279752,4.56784 0.955427,-1.33679 2.347244,-2.29846 3.93559,-2.71923 0.813421,-0.2143 1.664347,-0.24474 2.490986,-0.0891 0.166459,0.0403 0.283683,0.18926 0.283683,0.36051 v 1.78628 l 3.558021,-3.57685 -3.558021,-3.57723 v 1.78661 c 4.1e-5,0.10037 -0.04065,0.19645 -0.11268,0.26629 -0.07266,0.0689 -0.169475,0.10649 -0.269557,0.10471 -0.09347,-0.003 -0.185873,-0.004 -0.276083,-0.004 z"
             style="fill:#3e88b9;stroke-width:0.04130508;fill-opacity:1"
             inkscape:connector-curvature="0" />
        </g>
        <path
           style="fill:#3e88b9;stroke-width:0.91206312;fill-opacity:1"
           d="m 13.903267,280.87305 c 0,0.25164 -0.204313,0.45606 -0.456033,0.45606 H 8.8869169 c -0.251712,0 -0.456029,-0.20442 -0.456029,-0.45606 0,-0.25165 0.204314,-0.45603 0.456029,-0.45603 h 4.5603171 c 0.251747,0 0.456033,0.20442 0.456033,0.45603 z"
           id="path8069" />
        <path
           style="fill:#3e88b9;stroke-width:0.91206312;fill-opacity:1"
           d="M 13.447234,278.59292 H 8.8869169 c -0.251712,0 -0.456029,0.20441 -0.456029,0.45602 0,0.25165 0.204314,0.45603 0.456029,0.45603 h 4.5603171 c 0.251747,0 0.456033,-0.20442 0.456033,-0.45603 0,-0.25164 -0.204313,-0.45602 -0.456033,-0.45602 z"
           id="path8067" />
        <path
           style="fill:#3e88b9;stroke-width:0.91206312;fill-opacity:1"
           d="M 13.447234,276.76878 H 8.8869169 c -0.251712,0 -0.456029,0.20442 -0.456029,0.45602 0,0.25165 0.204314,0.45603 0.456029,0.45603 h 4.5603171 c 0.251747,0 0.456033,-0.20442 0.456033,-0.45603 0,-0.25164 -0.204313,-0.45602 -0.456033,-0.45602 z"
           id="path8045" />
      </g>
    </g>
  </g>
</svg>
