<?xml version="1.0" encoding="UTF-8" standalone="no"?>
<!-- Created with Inkscape (http://www.inkscape.org/) -->

<svg
   xmlns:dc="http://purl.org/dc/elements/1.1/"
   xmlns:cc="http://creativecommons.org/ns#"
   xmlns:rdf="http://www.w3.org/1999/02/22-rdf-syntax-ns#"
   xmlns:svg="http://www.w3.org/2000/svg"
   xmlns="http://www.w3.org/2000/svg"
   xmlns:sodipodi="http://sodipodi.sourceforge.net/DTD/sodipodi-0.dtd"
   xmlns:inkscape="http://www.inkscape.org/namespaces/inkscape"
   width="128"
   height="128"
   viewBox="0 0 33.866668 33.866666"
   version="1.1"
   id="svg8"
   inkscape:version="0.92.3 (2405546, 2018-03-11)"
   sodipodi:docname="tool_folder_document.svg">
  <defs
     id="defs2" />
  <sodipodi:namedview
     id="base"
     pagecolor="#ffffff"
     bordercolor="#666666"
     borderopacity="1.0"
     inkscape:pageopacity="0.0"
     inkscape:pageshadow="2"
     inkscape:zoom="1.4192038"
     inkscape:cx="168.81946"
     inkscape:cy="108.29795"
     inkscape:document-units="mm"
     inkscape:current-layer="layer1"
     showgrid="false"
     units="px"
     inkscape:window-width="1366"
     inkscape:window-height="713"
     inkscape:window-x="0"
     inkscape:window-y="27"
     inkscape:window-maximized="1"
     showguides="false"
     inkscape:guide-bbox="true" />
  <metadata
     id="metadata5">
    <rdf:RDF>
      <cc:Work
         rdf:about="">
        <dc:format>image/svg+xml</dc:format>
        <dc:type
           rdf:resource="http://purl.org/dc/dcmitype/StillImage" />
        <dc:title />
      </cc:Work>
    </rdf:RDF>
  </metadata>
  <g
     inkscape:label="Capa 1"
     inkscape:groupmode="layer"
     id="layer1"
     transform="translate(0,-263.13334)">
    <g
       id="g9637"
       inkscape:export-filename="/var/www/chamilo2/public/img/icons/64/tool_folder_document.png"
       inkscape:export-xdpi="48"
       inkscape:export-ydpi="48">
      <rect
         ry="0"
         y="263.13333"
         x="0"
         height="33.866665"
         width="33.866665"
         id="rect1218"
         style="opacity:0;fill:#ff5555;fill-opacity:1;stroke:none;stroke-width:0.29486692;stroke-linecap:round;stroke-miterlimit:4;stroke-dasharray:none;stroke-dashoffset:0;stroke-opacity:1" />
      <path
         inkscape:connector-curvature="0"
         style="fill:#a2edce;stroke-width:0.05263938;fill-opacity:1"
         d="M 25.623254,290.62263 H 5.518009 c -0.2187167,0 -0.4250104,-0.10186 -0.5579775,-0.27552 -0.1329671,-0.17365 -0.1774999,-0.39938 -0.1203862,-0.6105 l 4.5662562,-12.51944 c 0.082854,-0.30648 0.3608958,-0.51938 0.6783635,-0.51938 h 20.105246 c 0.462699,0 0.678363,0.44215 0.678363,0.88607 l -4.566256,12.51943 c -0.08279,0.30646 -0.360843,0.51934 -0.678364,0.51934 z"
         id="path2364" />
      <path
         inkscape:connector-curvature="0"
         style="fill:#a0beff;stroke-width:0.05263938;fill-opacity:1"
         d="M 24.275685,290.62263 H 5.518009 c -0.2187167,0 -0.4250104,-0.10186 -0.5579775,-0.27552 -0.1329671,-0.17365 -0.1774999,-0.39938 -0.1203862,-0.6105 l 4.5662562,-12.51944 c 0.082854,-0.30648 0.3608958,-0.51938 0.6783635,-0.51938 h 18.757677 c 0.462699,0 0.678364,0.44215 0.678364,0.88607 l -4.566257,12.51943 c -0.08279,0.30646 -0.360843,0.51934 -0.678364,0.51934 z"
         id="path2366" />
      <path
         inkscape:connector-curvature="0"
         style="fill:#ffdc61;fill-opacity:1;stroke-width:0.05263938"
         d="M 26.047001,272.65507 H 16.044676 L 13.79871,269.51072 H 5.5931255 c -0.2063991,0 -0.4043232,0.082 -0.5502922,0.22792 -0.1459691,0.14598 -0.2279286,0.34389 -0.2279286,0.5503 v 19.19278 c 0.03111,9.8e-4 0.061852,0.003 0.092276,0.005 l 4.49872,-12.26915 c 0.082801,-0.30651 0.3608957,-0.51944 0.6783643,-0.51938 H 26.82517 v -3.26453 c 0,-0.20641 -0.08196,-0.40433 -0.227929,-0.5503 -0.145969,-0.14596 -0.343841,-0.22793 -0.55024,-0.22788 z"
         id="path2368" />
      <polygon
         transform="matrix(0.05263938,0,0,0.05263938,4.3657328,266.59101)"
         style="fill:#ffffff;fill-opacity:1"
         points="443.733,132.266 443.733,98.133 51.2,98.133 51.2,166.4 85.333,132.266 "
         id="polygon2370" />
      <path
         inkscape:connector-curvature="0"
         style="fill:#ffb380;fill-opacity:1;stroke-width:0.05263938"
         d="M 27.274394,273.55341 H 8.8576097 l -2.6951366,2.69515 v 9.86114 l 3.2434285,-8.89253 c 0.082801,-0.30651 0.3608428,-0.51944 0.6783634,-0.51938 h 18.537696 v -3.14432 h -1.347567 z"
         id="path2437" />
      <g
         style="fill:#3e88b9;fill-opacity:1"
         transform="matrix(0.05263938,0,0,0.05263938,4.3657328,266.59101)"
         id="g2461">
        <path
           inkscape:connector-curvature="0"
           style="fill:#3e88b9;fill-opacity:1"
           d="M 403.833,465.066 H 21.892 c -6.813,0 -13.238,-3.173 -17.379,-8.583 -4.141,-5.41 -5.526,-12.441 -3.746,-19.017 L 87.734,198.941 c 2.752,-9.233 11.271,-15.538 20.905,-15.475 H 490.58 c 12.413,0 21.421,10.667 21.421,25.367 0,0.998 -0.175,1.988 -0.517,2.925 l -86.746,237.833 c -2.753,9.233 -11.271,15.539 -20.905,15.475 z M 108.638,200.533 c -2.174,0.004 -4.078,1.461 -4.65,3.558 L 17.021,442.625 c -0.147,1.256 0.232,2.516 1.046,3.483 0.901,1.204 2.321,1.906 3.825,1.892 h 381.942 c 2.174,-0.004 4.078,-1.461 4.65,-3.558 l 86.379,-236.917 c -0.212,-2.333 -1.042,-6.992 -4.283,-6.992 H 108.638 Z"
           id="path2441" />
        <path
           inkscape:connector-curvature="0"
           style="fill:#3e88b9;fill-opacity:1"
           d="m 256,200.533 c -2.263,0.001 -4.434,-0.898 -6.035,-2.499 -1.6,-1.6 -2.499,-3.771 -2.499,-6.035 v -17.067 c 0,-4.713 3.821,-8.533 8.533,-8.533 4.713,0 8.533,3.82 8.533,8.533 V 192 c 0.001,2.263 -0.898,4.434 -2.499,6.035 -1.599,1.6 -3.77,2.499 -6.033,2.498 z"
           id="path2443" />
        <path
           inkscape:connector-curvature="0"
           style="fill:#3e88b9;fill-opacity:1"
           d="m 315.733,200.533 c -2.263,0.001 -4.434,-0.898 -6.035,-2.499 -1.6,-1.6 -2.499,-3.771 -2.499,-6.035 v -17.067 c 0,-4.713 3.821,-8.533 8.533,-8.533 4.713,0 8.533,3.82 8.533,8.533 V 192 c 0.001,2.263 -0.898,4.434 -2.499,6.035 -1.598,1.6 -3.769,2.499 -6.033,2.498 z"
           id="path2445" />
        <path
           inkscape:connector-curvature="0"
           style="fill:#3e88b9;fill-opacity:1"
           d="m 375.467,200.533 c -2.263,0.001 -4.434,-0.898 -6.035,-2.499 -1.6,-1.6 -2.499,-3.771 -2.499,-6.035 v -17.067 c 0,-4.713 3.821,-8.533 8.533,-8.533 4.713,0 8.533,3.82 8.533,8.533 V 192 c 10e-4,2.263 -0.898,4.434 -2.499,6.035 -1.599,1.6 -3.77,2.499 -6.033,2.498 z"
           id="path2447" />
        <path
           inkscape:connector-curvature="0"
           style="fill:#3e88b9;fill-opacity:1"
           d="m 136.533,200.533 c -2.263,0.001 -4.434,-0.898 -6.035,-2.499 -1.6,-1.6 -2.499,-3.771 -2.499,-6.035 v -17.067 c 0,-4.713 3.821,-8.533 8.533,-8.533 4.712,0 8.533,3.82 8.533,8.533 V 192 c 0.001,2.263 -0.898,4.434 -2.499,6.035 -1.598,1.6 -3.769,2.499 -6.033,2.498 z"
           id="path2449" />
        <path
           inkscape:connector-curvature="0"
           style="fill:#3e88b9;fill-opacity:1"
           d="m 196.267,200.533 c -2.263,0.001 -4.434,-0.898 -6.035,-2.499 -1.6,-1.6 -2.499,-3.771 -2.499,-6.035 v -17.067 c 0,-4.713 3.821,-8.533 8.533,-8.533 4.712,0 8.533,3.82 8.533,8.533 V 192 c 0.001,2.263 -0.898,4.434 -2.499,6.035 -1.599,1.6 -3.77,2.499 -6.033,2.498 z"
           id="path2451" />
        <path
           inkscape:connector-curvature="0"
           style="fill:#3e88b9;fill-opacity:1"
           d="m 85.333,192 h -51.2 c -4.713,0 -8.533,-3.821 -8.533,-8.533 0,-4.713 3.821,-8.533 8.533,-8.533 H 76.8 v -42.667 c 0,-4.713 3.821,-8.533 8.533,-8.533 4.712,0 8.533,3.821 8.533,8.533 v 51.2 c 0.001,2.263 -0.898,4.434 -2.499,6.035 -1.599,1.6 -3.77,2.498 -6.034,2.498 z"
           id="path2453" />
        <path
           inkscape:connector-curvature="0"
           style="fill:#3e88b9;fill-opacity:1"
           d="m 34.138,379.333 c -0.499,10e-4 -0.997,-0.044 -1.488,-0.133 -4.078,-0.716 -7.052,-4.259 -7.05,-8.4 V 183.466 c 0,-2.263 0.899,-4.434 2.5,-6.033 l 51.2,-51.2 c 1.6,-1.6 3.77,-2.5 6.033,-2.5 H 460.8 c 2.263,-0.001 4.434,0.898 6.035,2.499 1.6,1.6 2.499,3.771 2.499,6.035 V 192 c 10e-4,2.263 -0.898,4.434 -2.499,6.035 -1.6,1.6 -3.771,2.499 -6.035,2.499 H 108.638 c -2.174,0.004 -4.078,1.461 -4.65,3.558 -0.063,0.242 -0.138,0.467 -0.221,0.7 L 42.15,373.725 c -1.231,3.364 -4.43,5.604 -8.012,5.608 z M 42.667,187 V 322.5 L 87.625,199.242 c 2.728,-9.338 11.284,-15.761 21.013,-15.775 H 452.267 V 140.8 h -363.4 z"
           id="path2455" />
        <path
           inkscape:connector-curvature="0"
           style="fill:#3e88b9;fill-opacity:1"
           d="m 10.292,443.483 c -0.204,0 -0.408,-0.009 -0.617,-0.025 l -1.5,-0.075 C 3.605,443.192 -0.001,439.432 0,434.858 V 70.25 C 0.014,57.378 10.445,46.947 23.317,46.933 H 179.2 c 2.756,0.002 5.343,1.333 6.946,3.575 l 30.475,42.667 c 1.858,2.601 2.105,6.023 0.642,8.864 -1.463,2.842 -4.392,4.628 -7.588,4.627 H 59.733 v 59.733 c 0,2.263 -0.899,4.434 -2.5,6.033 L 42.667,187 v 182.908 c 10e-4,1.001 -0.175,1.994 -0.521,2.933 L 18.3,437.883 c -1.23,3.362 -4.428,5.598 -8.008,5.6 z M 23.317,64 c -3.451,0.003 -6.247,2.799 -6.25,6.25 V 391.667 L 25.6,368.392 V 183.466 c 0,-2.263 0.899,-4.434 2.5,-6.033 L 42.666,162.866 V 98.133 c -10e-4,-2.263 0.898,-4.434 2.499,-6.035 1.6,-1.6 3.771,-2.499 6.035,-2.499 H 193.092 L 174.808,64 Z"
           id="path2457" />
        <path
           inkscape:connector-curvature="0"
           style="fill:#3e88b9;fill-opacity:1"
           d="m 51.2,174.933 c -4.713,0 -8.533,-3.821 -8.533,-8.533 V 98.133 c -0.001,-2.263 0.898,-4.434 2.499,-6.035 1.6,-1.6 3.771,-2.499 6.035,-2.499 h 392.533 c 2.263,-0.001 4.434,0.898 6.035,2.499 1.6,1.6 2.499,3.771 2.499,6.035 v 34.133 c 0.001,2.263 -0.898,4.434 -2.499,6.035 -1.6,1.6 -3.771,2.499 -6.035,2.499 H 88.867 l -31.634,31.633 c -1.599,1.601 -3.77,2.501 -6.033,2.5 z m 8.533,-68.267 V 145.8 L 79.3,126.233 c 1.6,-1.6 3.77,-2.499 6.033,-2.5 H 435.2 v -17.067 z"
           id="path2459" />
      </g>
    </g>
  </g>
</svg>
