<?xml version="1.0" encoding="UTF-8" standalone="no"?>
<!-- Created with Inkscape (http://www.inkscape.org/) -->

<svg
   xmlns:dc="http://purl.org/dc/elements/1.1/"
   xmlns:cc="http://creativecommons.org/ns#"
   xmlns:rdf="http://www.w3.org/1999/02/22-rdf-syntax-ns#"
   xmlns:svg="http://www.w3.org/2000/svg"
   xmlns="http://www.w3.org/2000/svg"
   xmlns:sodipodi="http://sodipodi.sourceforge.net/DTD/sodipodi-0.dtd"
   xmlns:inkscape="http://www.inkscape.org/namespaces/inkscape"
   width="128"
   height="128"
   viewBox="0 0 33.866668 33.866666"
   version="1.1"
   id="svg8"
   inkscape:version="0.92.3 (2405546, 2018-03-11)"
   sodipodi:docname="tool_info.svg">
  <defs
     id="defs2">
    <linearGradient
       gradientTransform="matrix(22.252307,0,0,-22.656573,1054.3881,15052.69)"
       y2="651.61859"
       x2="-44.916199"
       y1="652.39172"
       x1="-45.7033"
       gradientUnits="userSpaceOnUse"
       id="SVGID_1_">
      <stop
         id="stop1574"
         style="stop-color:#D4E1F4"
         offset="0" />
      <stop
         id="stop1576"
         style="stop-color:#D4E1F4"
         offset="0.1717" />
      <stop
         id="stop1578"
         style="stop-color:#D4E1F4"
         offset="0.2" />
      <stop
         id="stop1580"
         style="stop-color:#DAE4F4"
         offset="0.2001" />
      <stop
         id="stop1582"
         style="stop-color:#EBEBF4"
         offset="0.2007" />
      <stop
         id="stop1584"
         style="stop-color:#F6F1F4"
         offset="0.2014" />
      <stop
         id="stop1586"
         style="stop-color:#FDF4F4"
         offset="0.2023" />
      <stop
         id="stop1588"
         style="stop-color:#FFF5F4"
         offset="0.205" />
      <stop
         id="stop1590"
         style="stop-color:#FFF5F4"
         offset="0.2522" />
      <stop
         id="stop1592"
         style="stop-color:#FFF5F4"
         offset="0.26" />
      <stop
         id="stop1594"
         style="stop-color:#D4E1F4"
         offset="0.26" />
      <stop
         id="stop1596"
         style="stop-color:#D4E1F4"
         offset="0.3974" />
      <stop
         id="stop1598"
         style="stop-color:#D4E1F4"
         offset="0.42" />
      <stop
         id="stop1600"
         style="stop-color:#DAE4F4"
         offset="0.4201" />
      <stop
         id="stop1602"
         style="stop-color:#EBEBF4"
         offset="0.4207" />
      <stop
         id="stop1604"
         style="stop-color:#F6F1F4"
         offset="0.4214" />
      <stop
         id="stop1606"
         style="stop-color:#FDF4F4"
         offset="0.4223" />
      <stop
         id="stop1608"
         style="stop-color:#FFF5F4"
         offset="0.425" />
      <stop
         id="stop1610"
         style="stop-color:#FFF5F4"
         offset="0.4894" />
      <stop
         id="stop1612"
         style="stop-color:#FFF5F4"
         offset="0.5" />
      <stop
         id="stop1614"
         style="stop-color:#F9F2F4"
         offset="0.5" />
      <stop
         id="stop1616"
         style="stop-color:#E8EBF4"
         offset="0.5001" />
      <stop
         id="stop1618"
         style="stop-color:#DDE5F4"
         offset="0.5003" />
      <stop
         id="stop1620"
         style="stop-color:#D6E2F4"
         offset="0.5005" />
      <stop
         id="stop1622"
         style="stop-color:#D4E1F4"
         offset="0.501" />
      <stop
         id="stop1624"
         style="stop-color:#D4E1F4"
         offset="0.7062" />
      <stop
         id="stop1626"
         style="stop-color:#D4E1F4"
         offset="0.74" />
      <stop
         id="stop1628"
         style="stop-color:#FFF5F4"
         offset="0.741" />
      <stop
         id="stop1630"
         style="stop-color:#FFF5F4"
         offset="0.8346" />
      <stop
         id="stop1632"
         style="stop-color:#FFF5F4"
         offset="0.85" />
      <stop
         id="stop1634"
         style="stop-color:#D4E1F4"
         offset="0.851" />
    </linearGradient>
  </defs>
  <sodipodi:namedview
     id="base"
     pagecolor="#ffffff"
     bordercolor="#666666"
     borderopacity="1.0"
     inkscape:pageopacity="0.0"
     inkscape:pageshadow="2"
     inkscape:zoom="2.185177"
     inkscape:cx="104.8692"
     inkscape:cy="83.811312"
     inkscape:document-units="mm"
     inkscape:current-layer="layer1"
     showgrid="false"
     units="px"
     inkscape:window-width="1366"
     inkscape:window-height="713"
     inkscape:window-x="0"
     inkscape:window-y="27"
     inkscape:window-maximized="1"
     showguides="false" />
  <metadata
     id="metadata5">
    <rdf:RDF>
      <cc:Work
         rdf:about="">
        <dc:format>image/svg+xml</dc:format>
        <dc:type
           rdf:resource="http://purl.org/dc/dcmitype/StillImage" />
        <dc:title />
      </cc:Work>
    </rdf:RDF>
  </metadata>
  <g
     inkscape:label="Capa 1"
     inkscape:groupmode="layer"
     id="layer1"
     transform="translate(0,-263.13334)">
    <g
       id="g1104"
       transform="matrix(0.06481204,0,0,0.06481204,2.7816235,265.91497)" />
    <g
       id="g1106"
       transform="matrix(0.06481204,0,0,0.06481204,2.7816235,265.91497)" />
    <g
       id="g1108"
       transform="matrix(0.06481204,0,0,0.06481204,2.7816235,265.91497)" />
    <g
       id="g1110"
       transform="matrix(0.06481204,0,0,0.06481204,2.7816235,265.91497)" />
    <g
       id="g1112"
       transform="matrix(0.06481204,0,0,0.06481204,2.7816235,265.91497)" />
    <g
       id="g1114"
       transform="matrix(0.06481204,0,0,0.06481204,2.7816235,265.91497)" />
    <g
       id="g1116"
       transform="matrix(0.06481204,0,0,0.06481204,2.7816235,265.91497)" />
    <g
       id="g1118"
       transform="matrix(0.06481204,0,0,0.06481204,2.7816235,265.91497)" />
    <g
       id="g1120"
       transform="matrix(0.06481204,0,0,0.06481204,2.7816235,265.91497)" />
    <g
       id="g1122"
       transform="matrix(0.06481204,0,0,0.06481204,2.7816235,265.91497)" />
    <g
       id="g1124"
       transform="matrix(0.06481204,0,0,0.06481204,2.7816235,265.91497)" />
    <g
       id="g1126"
       transform="matrix(0.06481204,0,0,0.06481204,2.7816235,265.91497)" />
    <g
       id="g1128"
       transform="matrix(0.06481204,0,0,0.06481204,2.7816235,265.91497)" />
    <g
       id="g1130"
       transform="matrix(0.06481204,0,0,0.06481204,2.7816235,265.91497)" />
    <g
       id="g1132"
       transform="matrix(0.06481204,0,0,0.06481204,2.7816235,265.91497)" />
    <g
       id="g880"
       inkscape:export-filename="/var/www/chamilo2/public/img/icons/64/tool_info.png"
       inkscape:export-xdpi="48"
       inkscape:export-ydpi="48">
      <path
         id="path4922"
         d="m 15.997077,266.30283 c -5.273261,-10e-4 -9.9628936,3.3529 -11.6656273,8.3437 -1.7027306,4.99079 -0.041166,10.51185 4.1332131,13.73387 v 3.94343 c 0,0.26265 0.1502198,0.50218 0.3867015,0.61645 0.2364851,0.11435 0.5175041,0.0833 0.7233361,-0.0798 l 3.0118566,-2.38563 c 4.629851,1.33264 9.611741,-0.15415 12.753836,-3.80637 3.142099,-3.65221 3.868483,-8.80021 1.859453,-13.17922 -2.008947,-4.37892 -6.384984,-7.18607 -11.202769,-7.18639 z"
         style="fill:#3e88b9;fill-opacity:1;stroke-width:0.08024561" />
      <path
         inkscape:connector-curvature="0"
         id="path3875"
         d="m 15.996957,289.81917 c -1.160769,0.002 -2.31473,-0.1781 -3.419772,-0.53348 -0.222911,-0.0713 -0.466589,-0.0272 -0.650435,0.1177 l -2.2330636,1.76901 v -2.93586 c 8.08e-5,-0.22447 -0.107518,-0.43532 -0.2893116,-0.56696 -4.4510274,-3.24479 -5.8821491,-9.24431 -3.3749579,-14.14888 2.5071913,-4.90457 8.2082051,-7.2582 13.4450911,-5.55058 5.236886,1.70763 8.454837,6.96947 7.588959,12.40916 -0.865881,5.43969 -5.558288,9.4426 -11.06651,9.43989 z"
         style="fill:#ffffff;fill-opacity:1;stroke-width:0.08207383" />
      <rect
         ry="0"
         y="263.13333"
         x="2.0676269e-07"
         height="33.866665"
         width="33.866665"
         id="rect1218"
         style="opacity:0;fill:#ff5555;fill-opacity:1;stroke:none;stroke-width:0.29486692;stroke-linecap:round;stroke-miterlimit:4;stroke-dasharray:none;stroke-dashoffset:0;stroke-opacity:1" />
      <path
         inkscape:connector-curvature="0"
         style="fill:#d3e0fb;fill-opacity:1;stroke-width:0.07689379"
         d="m 27.151804,278.67144 c 2.33e-4,2.95848 -1.174861,5.79587 -3.266832,7.88783 -2.091971,2.09198 -4.929354,3.26714 -7.887841,3.26683 -1.155944,0.002 -2.305124,-0.17716 -3.405475,-0.53149 l -3.1561042,2.49998 v -4.1076 c -4.2568395,-3.09835 -5.7671131,-8.75159 -3.6226204,-13.56005 2.1444897,-4.80848 7.3595046,-7.4624 12.5090046,-6.36574 5.149501,1.09667 8.830715,5.64524 8.829868,10.91024 z"
         id="path3835" />
      <path
         id="path3853"
         d="m 15.99718,267.51642 c -0.328644,-0.002 -0.657134,0.0139 -0.98424,0.0459 l 0.02032,0.003 c -4.635689,0.39883 -8.535966,3.63529 -9.7830302,8.11789 -1.2470613,4.4826 0.4216073,9.26822 4.185322,12.0038 v 4.10758 l 1.9684802,-1.55926 v -2.54832 c -3.7621009,-2.73419 -5.4310782,-7.51699 -4.1868599,-11.99818 1.2442163,-4.48122 5.1401109,-7.71876 9.7733409,-8.12199 -0.327799,-0.029 -0.657979,-0.0501 -0.993313,-0.0501 z"
         style="fill:#ffffff;stroke-width:0.07689368"
         inkscape:connector-curvature="0" />
      <path
         inkscape:connector-curvature="0"
         id="path4529"
         d="m 18.021138,276.30623 -4.927406,0.25806 a 0.65319549,0.65319549 0 0 0 -0.611868,0.55506 l -0.129839,0.8683 a 0.65319549,0.65319549 0 0 0 0.645949,0.74983 h 0.443078 c 0.312244,0 0.376468,0.0226 0.446322,0.0326 -0.01109,0.0964 -0.04735,0.3424 -0.223972,0.93646 l 0.0016,-0.002 -0.941336,3.13886 a 0.65319549,0.65319549 0 0 0 -0.0016,0.004 c -0.243266,0.82336 -0.301877,1.15459 -0.301877,1.54996 0,1.32842 1.188925,2.31439 2.572442,2.31439 0.844593,0 1.65488,-0.29731 2.371194,-0.86505 0.716314,-0.56775 1.3594,-1.38773 2.010887,-2.47994 A 0.65319549,0.65319549 0 0 0 19.19456,282.5017 l -0.720608,-0.51776 a 0.65319549,0.65319549 0 0 0 -0.933222,0.18175 c -0.235574,0.37301 -0.388186,0.54774 -0.577784,0.80825 l 1.71875,-5.82978 a 0.65319549,0.65319549 0 0 0 -0.660557,-0.83745 z"
         style="font-style:italic;font-variant:normal;font-weight:bold;font-stretch:normal;font-size:21.13851166px;line-height:1.25;font-family:'Century Schoolbook L';-inkscape-font-specification:'Century Schoolbook L, Bold Italic';font-variant-ligatures:normal;font-variant-caps:normal;font-variant-numeric:normal;font-feature-settings:normal;text-align:start;letter-spacing:0px;word-spacing:0px;writing-mode:lr-tb;text-anchor:start;fill:#3e88b9;fill-opacity:1;stroke:none;stroke-width:0.46143651" />
      <path
         inkscape:connector-curvature="0"
         id="path4527"
         d="m 17.930906,277.2232 -4.641551,0.24338 -0.121686,0.81705 h 0.417217 c 0.851819,0 1.060429,0.1043 1.060429,0.53889 0,0.19123 -0.06955,0.52154 -0.260761,1.16474 l -0.886588,2.9553 c -0.225995,0.7649 -0.260762,0.95613 -0.260762,1.28642 0,0.90397 0.764898,1.56456 1.807945,1.56456 1.321191,0 2.416387,-0.8692 3.598502,-2.85098 l -0.677977,-0.48676 c -0.834436,1.3212 -1.40811,1.9644 -1.755793,1.9644 -0.156456,0 -0.278144,-0.12169 -0.278144,-0.27814 0,-0.13907 0.01738,-0.19123 0.173841,-0.73013 z"
         style="font-style:italic;font-variant:normal;font-weight:bold;font-stretch:normal;font-size:21.13851166px;line-height:1.25;font-family:'Century Schoolbook L';-inkscape-font-specification:'Century Schoolbook L, Bold Italic';font-variant-ligatures:normal;font-variant-caps:normal;font-variant-numeric:normal;font-feature-settings:normal;text-align:start;letter-spacing:0px;word-spacing:0px;writing-mode:lr-tb;text-anchor:start;fill:#ffdc61;fill-opacity:1;stroke:none;stroke-width:0.43460241" />
      <path
         style="font-style:italic;font-variant:normal;font-weight:bold;font-stretch:normal;font-size:21.13851166px;line-height:1.25;font-family:'Century Schoolbook L';-inkscape-font-specification:'Century Schoolbook L, Bold Italic';font-variant-ligatures:normal;font-variant-caps:normal;font-variant-numeric:normal;font-feature-settings:normal;text-align:start;letter-spacing:0px;word-spacing:0px;writing-mode:lr-tb;text-anchor:start;fill:#3e88b9;fill-opacity:1;stroke:none;stroke-width:0.76191813"
         d="m 17.226782,270.02909 c -1.432405,0 -2.590519,1.15811 -2.590519,2.59052 0,1.40195 1.188591,2.59051 2.560042,2.59051 1.462883,0 2.620997,-1.1581 2.620997,-2.59051 0,-1.43241 -1.158114,-2.59052 -2.59052,-2.59052 z"
         id="path4534"
         inkscape:connector-curvature="0" />
      <path
         inkscape:connector-curvature="0"
         id="path4517"
         d="m 17.226781,270.89858 c -0.951627,0 -1.721027,0.76941 -1.721027,1.72103 0,0.93138 0.789648,1.72102 1.700781,1.72102 0.971874,0 1.741275,-0.7694 1.741275,-1.72102 0,-0.95163 -0.769401,-1.72103 -1.721029,-1.72103 z"
         style="font-style:italic;font-variant:normal;font-weight:bold;font-stretch:normal;font-size:21.13851166px;line-height:1.25;font-family:'Century Schoolbook L';-inkscape-font-specification:'Century Schoolbook L, Bold Italic';font-variant-ligatures:normal;font-variant-caps:normal;font-variant-numeric:normal;font-feature-settings:normal;text-align:start;letter-spacing:0px;word-spacing:0px;writing-mode:lr-tb;text-anchor:start;fill:#ffdc61;fill-opacity:1;stroke:none;stroke-width:0.50618488" />
    </g>
  </g>
</svg>
