<?xml version="1.0" encoding="UTF-8" standalone="no"?>
<svg
   xmlns:dc="http://purl.org/dc/elements/1.1/"
   xmlns:cc="http://creativecommons.org/ns#"
   xmlns:rdf="http://www.w3.org/1999/02/22-rdf-syntax-ns#"
   xmlns:svg="http://www.w3.org/2000/svg"
   xmlns="http://www.w3.org/2000/svg"
   xmlns:xlink="http://www.w3.org/1999/xlink"
   xmlns:sodipodi="http://sodipodi.sourceforge.net/DTD/sodipodi-0.dtd"
   xmlns:inkscape="http://www.inkscape.org/namespaces/inkscape"
   height="128"
   id="svg2566"
   version="1.0"
   width="128"
viewBox="0 0 128 128"
   inkscape:version="0.91 r"
   sodipodi:docname="upload_audio.svg">
  <metadata
     id="metadata96">
    <rdf:RDF>
      <cc:Work
         rdf:about="">
        <dc:format>image/svg+xml</dc:format>
        <dc:type
           rdf:resource="http://purl.org/dc/dcmitype/StillImage" />
        <dc:title></dc:title>
      </cc:Work>
    </rdf:RDF>
  </metadata>
  <sodipodi:namedview
     pagecolor="#ffffff"
     bordercolor="#666666"
     borderopacity="1"
     objecttolerance="10"
     gridtolerance="10"
     guidetolerance="10"
     inkscape:pageopacity="0"
     inkscape:pageshadow="2"
     inkscape:window-width="1920"
     inkscape:window-height="1051"
     id="namedview94"
     showgrid="false"
     inkscape:zoom="3.4766083"
     inkscape:cx="41.283498"
     inkscape:cy="52.312599"
     inkscape:window-x="1366"
     inkscape:window-y="0"
     inkscape:window-maximized="1"
     inkscape:current-layer="svg2566" />
  <defs
     id="defs2568">
    <linearGradient
       id="linearGradient3510">
      <stop
         id="stop3512"
         offset="0"
         style="stop-color:#ffffff;stop-opacity:1;" />
      <stop
         id="stop3514"
         offset="1"
         style="stop-color:#ffffff;stop-opacity:0;" />
    </linearGradient>
    <linearGradient
       id="linearGradient3498">
      <stop
         id="stop3500"
         offset="0"
         style="stop-color:#3465a4;stop-opacity:1;" />
      <stop
         id="stop3502"
         offset="1"
         style="stop-color:#3465a4;stop-opacity:0;" />
    </linearGradient>
    <linearGradient
       id="linearGradient3281">
      <stop
         id="stop3283"
         offset="0"
         style="stop-color:#ffffff;stop-opacity:1;" />
      <stop
         id="stop3285"
         offset="1"
         style="stop-color:#ffffff;stop-opacity:0;" />
    </linearGradient>
    <linearGradient
       id="linearGradient4099">
      <stop
         id="stop4101"
         offset="0"
         style="stop-color:#6f726f;stop-opacity:1;" />
      <stop
         id="stop4103"
         offset="1"
         style="stop-color:#6f726f;stop-opacity:0;" />
    </linearGradient>
    <linearGradient
       id="linearGradient4068">
      <stop
         id="stop4070"
         offset="0"
         style="stop-color:#eaeae9;stop-opacity:1;" />
      <stop
         id="stop4072"
         offset="1"
         style="stop-color:#a5a7a2;stop-opacity:1;" />
    </linearGradient>
    <linearGradient
       id="linearGradient3670">
      <stop
         id="stop3672"
         offset="0"
         style="stop-color:#d3d7cf" />
      <stop
         id="stop3674"
         offset="1"
         style="stop-color:#555753" />
    </linearGradient>
    <radialGradient
       cx="6.8797626"
       cy="7.1986876"
       fx="6.8797626"
       fy="7.1986876"
       gradientTransform="matrix(1.240749,0,0,1.157631,-1.713645,-1.134736)"
       gradientUnits="userSpaceOnUse"
       id="radialGradient3634"
       r="9.375"
       xlink:href="#linearGradient3670" />
    <linearGradient
       id="linearGradient3692">
      <stop
         id="stop3694"
         offset="0"
         style="stop-color:#2e3436;stop-opacity:1;" />
      <stop
         id="stop3696"
         offset="1"
         style="stop-color:#babdb6" />
    </linearGradient>
    <linearGradient
       gradientUnits="userSpaceOnUse"
       id="linearGradient3698"
       x1="-0.51990569"
       x2="-0.51990569"
       xlink:href="#linearGradient3692"
       y1="-0.51990569"
       y2="19.269905" />
    <linearGradient
       id="linearGradient3628">
      <stop
         id="stop3630"
         offset="0"
         style="stop-color:#d3d7cf" />
      <stop
         id="stop3632"
         offset="1"
         style="stop-color:#555753" />
    </linearGradient>
    <radialGradient
       cx="12.704856"
       cy="13.847466"
       fx="12.704856"
       fy="13.847466"
       gradientTransform="matrix(0.06370852,-1.424475,1.547293,0.0692112,-9.530629,30.98681)"
       gradientUnits="userSpaceOnUse"
       id="radialGradient3644"
       r="9.375"
       xlink:href="#linearGradient3628" />
    <linearGradient
       id="linearGradient3730">
      <stop
         id="stop3732"
         offset="0"
         style="stop-color:#eeeeec" />
      <stop
         id="stop3734"
         offset="1"
         style="stop-color:#888a85" />
    </linearGradient>
    <radialGradient
       cx="-1.0016617"
       cy="0.99004257"
       fx="-1.0016617"
       fy="0.99004257"
       gradientTransform="matrix(-0.310032,2.110862,-2.082775,-0.305867,17.75288,16.41459)"
       gradientUnits="userSpaceOnUse"
       id="radialGradient3728"
       r="9.9205227"
       xlink:href="#linearGradient3730" />
    <linearGradient
       id="linearGradient1557">
      <stop
         id="stop1559"
         offset="0"
         style="stop-color:#2e3436;stop-opacity:1;" />
      <stop
         id="stop1561"
         offset="1"
         style="stop-color:#888a85" />
    </linearGradient>
    <linearGradient
       gradientUnits="userSpaceOnUse"
       id="linearGradient1549"
       x1="17.0625"
       x2="20.3125"
       xlink:href="#linearGradient1557"
       y1="34.950001"
       y2="5.375" />
    <linearGradient
       id="linearGradient3676">
      <stop
         id="stop4022"
         offset="0"
         style="stop-color:#eeeeec" />
      <stop
         id="stop3680"
         offset="1"
         style="stop-color:#555753" />
    </linearGradient>
    <radialGradient
       cx="-1.0016617"
       cy="0.99004257"
       fx="-1.0016617"
       fy="0.99004257"
       gradientTransform="matrix(-0.127582,1.416065,-1.630141,-0.146854,17.48751,15.56121)"
       gradientUnits="userSpaceOnUse"
       id="radialGradient3702"
       r="9.9205227"
       xlink:href="#linearGradient3676" />
    <linearGradient
       id="linearGradient3788">
      <stop
         id="stop3790"
         offset="0"
         style="stop-color:#cccdcb;stop-opacity:1;" />
      <stop
         id="stop3792"
         offset="1"
         style="stop-color:#888a85;stop-opacity:1;" />
    </linearGradient>
    <linearGradient
       id="linearGradient3674">
      <stop
         id="stop3676"
         offset="0"
         style="stop-color:#ffffff;stop-opacity:0;" />
      <stop
         id="stop3678"
         offset="1"
         style="stop-color:#ffffff;stop-opacity:1;" />
    </linearGradient>
    <linearGradient
       id="linearGradient3657">
      <stop
         id="stop3659"
         offset="0"
         style="stop-color:#fafafa;stop-opacity:1;" />
      <stop
         id="stop3661"
         offset="1"
         style="stop-color:#bfbfbf;stop-opacity:1;" />
    </linearGradient>
    <linearGradient
       id="linearGradient3609">
      <stop
         id="stop3611"
         offset="0"
         style="stop-color:#000000;stop-opacity:1;" />
      <stop
         id="stop3613"
         offset="1"
         style="stop-color:#000000;stop-opacity:0;" />
    </linearGradient>
    <linearGradient
       gradientTransform="matrix(4.4611255,0,0,4.4611255,-215.94246,23.775709)"
       gradientUnits="userSpaceOnUse"
       id="linearGradient4585"
       x1="56.302975"
       x2="56.609135"
       xlink:href="#linearGradient4608"
       y1="4.9369388"
       y2="8.6796741" />
    <linearGradient
       gradientTransform="matrix(0.997993,0,0,1,-97.71685,-9.352993)"
       gradientUnits="userSpaceOnUse"
       id="linearGradient4641"
       spreadMethod="reflect"
       x1="58.015995"
       x2="57.954308"
       xlink:href="#linearGradient4608"
       y1="35.01503"
       y2="40.9986" />
    <linearGradient
       id="linearGradient4608">
      <stop
         id="stop4610"
         offset="0"
         style="stop-color:#eeeeec" />
      <stop
         id="stop4612"
         offset="1"
         style="stop-color:#8a8c87;stop-opacity:1;" />
    </linearGradient>
    <radialGradient
       cx="6.4081554"
       cy="17.403807"
       fx="6.4081554"
       fy="17.403807"
       gradientTransform="matrix(7.3143547,0,0,3.989648,-5.4983517,12.909402)"
       gradientUnits="userSpaceOnUse"
       id="radialGradient3615"
       r="5.524272"
       xlink:href="#linearGradient3609" />
    <linearGradient
       gradientTransform="translate(-64.70027,0)"
       gradientUnits="userSpaceOnUse"
       id="linearGradient3668"
       x1="10.4375"
       x2="10.4375"
       xlink:href="#linearGradient3657"
       y1="8.2899637"
       y2="18.984955" />
    <radialGradient
       cx="5.0822492"
       cy="12.516305"
       fx="5.0822492"
       fy="12.516305"
       gradientTransform="matrix(3.8458078,0,-3.7315016e-8,4.4587336,6.5267879,12.165891)"
       gradientUnits="userSpaceOnUse"
       id="radialGradient3680"
       r="2.9831069"
       xlink:href="#linearGradient3674" />
    <linearGradient
       gradientTransform="translate(-64.70027,0)"
       gradientUnits="userSpaceOnUse"
       id="linearGradient3794"
       x1="8.0536165"
       x2="10.4375"
       xlink:href="#linearGradient3788"
       y1="11.030003"
       y2="11.030003" />
    <linearGradient
       gradientUnits="userSpaceOnUse"
       id="linearGradient4095"
       x1="7.5763841"
       x2="7.3215322"
       xlink:href="#linearGradient4068"
       y1="20.301662"
       y2="27.345011" />
    <linearGradient
       gradientUnits="userSpaceOnUse"
       id="linearGradient4097"
       x1="7.5763841"
       x2="7.3215322"
       xlink:href="#linearGradient4068"
       y1="20.301662"
       y2="27.345011" />
    <linearGradient
       gradientTransform="matrix(3.267068,0,0,3.267068,-5.8152962,-21.586126)"
       gradientUnits="userSpaceOnUse"
       id="linearGradient4105"
       x1="11.125889"
       x2="9.346509"
       xlink:href="#linearGradient4099"
       y1="25.559732"
       y2="25.736509" />
    <linearGradient
       gradientUnits="userSpaceOnUse"
       id="linearGradient3287"
       x1="4.6831217"
       x2="8.3712559"
       xlink:href="#linearGradient3281"
       y1="24.665476"
       y2="24.317278" />
    <radialGradient
       cx="36.82843"
       cy="24.427677"
       fx="36.82843"
       fy="24.427671"
       gradientTransform="matrix(33.771851,-1.0380269e-5,1.7219594e-5,56.02335,-1144.2052,-1310.0735)"
       gradientUnits="userSpaceOnUse"
       id="radialGradient3504"
       r="1.2404948"
       xlink:href="#linearGradient3498" />
    <radialGradient
       cx="36.82843"
       cy="24.427683"
       fx="36.82843"
       fy="24.427683"
       gradientTransform="matrix(53.169249,0,0,56.023199,-1858.5804,-1310.0705)"
       gradientUnits="userSpaceOnUse"
       id="radialGradient3506"
       r="1.2404948"
       xlink:href="#linearGradient3498" />
    <radialGradient
       cx="36.82843"
       cy="24.427677"
       fx="36.82843"
       fy="24.427671"
       gradientTransform="matrix(33.771851,-1.0380269e-5,1.7219594e-5,56.02335,-1144.2052,-1310.0735)"
       gradientUnits="userSpaceOnUse"
       id="radialGradient3508"
       r="1.2404948"
       xlink:href="#linearGradient3498" />
    <linearGradient
       gradientUnits="userSpaceOnUse"
       id="linearGradient3516"
       x1="9.485774"
       x2="7.378232"
       xlink:href="#linearGradient3510"
       y1="22.107626"
       y2="22.637957"
       gradientTransform="matrix(2.5205338,0,0,2.5205338,6.7325386,-3.1243099)" />
    <filter
       id="filter5198">
      <feGaussianBlur
         id="feGaussianBlur5200"
         stdDeviation="1.1236084"
         inkscape:collect="always" />
    </filter>
    <linearGradient
       x1="64"
       y1="-1.1782227"
       x2="63.999996"
       y2="99.457672"
       id="linearGradient5613"
       xlink:href="#XMLID_4_"
       gradientUnits="userSpaceOnUse"
       gradientTransform="matrix(0.45718256,0,0,0.45718256,-125.85122,67.08849)" />
    <linearGradient
       x1="64"
       y1="-1.1782227"
       x2="63.999996"
       y2="99.457672"
       id="XMLID_4_"
       gradientUnits="userSpaceOnUse"
       gradientTransform="matrix(-1,0,0,-1,128,128)">
      <stop
         id="stop105"
         style="stop-color:#0053bd;stop-opacity:1"
         offset="0" />
      <stop
         id="stop107"
         style="stop-color:#00008d;stop-opacity:1"
         offset="1" />
      <midPointStop
         offset="0"
         style="stop-color:#00008D"
         id="midPointStop109" />
      <midPointStop
         offset="0.5"
         style="stop-color:#00008D"
         id="midPointStop111" />
      <midPointStop
         offset="1"
         style="stop-color:#0053BD"
         id="midPointStop113" />
    </linearGradient>
    <radialGradient
       cx="323.32462"
       cy="388.16513"
       r="49.621826"
       fx="323.32462"
       fy="388.16513"
       id="radialGradient5615"
       xlink:href="#radialGradient4602"
       gradientUnits="userSpaceOnUse"
       gradientTransform="matrix(-0.95919902,0.62734453,-0.48564594,-0.74254472,390.95468,162.6776)" />
    <radialGradient
       cx="27.575684"
       cy="107.81738"
       r="115.48331"
       fx="27.575684"
       fy="107.81738"
       id="radialGradient4602"
       gradientUnits="userSpaceOnUse"
       gradientTransform="matrix(1,0,0,1.0565,0,-0.544571)">
      <stop
         id="stop4604"
         style="stop-color:#ffffff;stop-opacity:1"
         offset="0" />
      <stop
         id="stop4606"
         style="stop-color:#ddeeff;stop-opacity:1"
         offset="0.0571753" />
      <stop
         id="stop4608"
         style="stop-color:#b5daff;stop-opacity:1"
         offset="0.13292681" />
      <stop
         id="stop4610-6"
         style="stop-color:#9dceff;stop-opacity:1"
         offset="0.1933101" />
      <stop
         id="stop4612-8"
         style="stop-color:#94caff;stop-opacity:1"
         offset="0.23033699" />
      <stop
         id="stop4614"
         style="stop-color:#0b74ff;stop-opacity:1"
         offset="0.59550601" />
      <stop
         id="stop4616"
         style="stop-color:#0035ed;stop-opacity:1"
         offset="0.81460702" />
      <midPointStop
         offset="0"
         style="stop-color:#FFFFFF"
         id="midPointStop134" />
      <midPointStop
         offset="0.4"
         style="stop-color:#FFFFFF"
         id="midPointStop136" />
      <midPointStop
         offset="0.230337"
         style="stop-color:#94CAFF"
         id="midPointStop138" />
      <midPointStop
         offset="0.5"
         style="stop-color:#94CAFF"
         id="midPointStop140" />
      <midPointStop
         offset="0.595506"
         style="stop-color:#0B74FF"
         id="midPointStop142" />
      <midPointStop
         offset="0.5"
         style="stop-color:#0B74FF"
         id="midPointStop144" />
      <midPointStop
         offset="0.814607"
         style="stop-color:#0035ED"
         id="midPointStop146" />
    </radialGradient>
    <linearGradient
       x1="62.342285"
       y1="16.278811"
       x2="62.342285"
       y2="63.596096"
       id="linearGradient5617"
       xlink:href="#linearGradient4619"
       gradientUnits="userSpaceOnUse"
       gradientTransform="matrix(0.45718256,0,0,-0.45718256,-124.33546,125.60786)" />
    <linearGradient
       x1="62.342285"
       y1="8.8261719"
       x2="62.342281"
       y2="61.276535"
       id="linearGradient4619"
       gradientUnits="userSpaceOnUse">
      <stop
         id="stop4621"
         style="stop-color:#ffffff;stop-opacity:1"
         offset="0" />
      <stop
         id="stop4623"
         style="stop-color:#74aeff;stop-opacity:1"
         offset="1" />
      <midPointStop
         offset="0"
         style="stop-color:#FFFFFF"
         id="midPointStop157" />
      <midPointStop
         offset="0.5"
         style="stop-color:#FFFFFF"
         id="midPointStop159" />
      <midPointStop
         offset="1"
         style="stop-color:#74AEFF"
         id="midPointStop161" />
    </linearGradient>
  </defs>
  <g
     id="g5016"
     transform="matrix(1.0401956,0,0,1.0401956,-4.9989033,-0.67436429)">
    <g
       id="g4090"
       transform="matrix(3.2670705,0,0,3.2670705,-3.7939087,-21.586129)">
      <path
         d="m 12.374369,24.665476 a 3.6239225,6.3639616 0 1 1 -7.247845,0 3.6239225,6.3639616 0 1 1 7.247845,0 z"
         id="path4076"
         style="color:#000000;display:inline;overflow:visible;visibility:visible;opacity:1;fill:url(#linearGradient4095);fill-opacity:1;fill-rule:nonzero;stroke:#5d615f;stroke-width:0.57792485;stroke-linecap:round;stroke-linejoin:round;stroke-miterlimit:4;stroke-dasharray:none;stroke-dashoffset:0;stroke-opacity:1;marker:none;marker-start:none;marker-mid:none;marker-end:none"
         transform="matrix(1.415965,0,0,1.258558,-2.667614,-6.200669)"
         inkscape:connector-curvature="0" />
      <path
         d="m 12.374369,24.665476 a 3.6239225,6.3639616 0 1 1 -7.247845,0 3.6239225,6.3639616 0 1 1 7.247845,0 z"
         id="path4060"
         style="color:#000000;display:inline;overflow:visible;visibility:visible;opacity:1;fill:url(#linearGradient4097);fill-opacity:1;fill-rule:nonzero;stroke:none;stroke-width:0.86615634;stroke-linecap:round;stroke-linejoin:round;stroke-miterlimit:4;stroke-dasharray:none;stroke-dashoffset:0;stroke-opacity:1;marker:none;marker-start:none;marker-mid:none;marker-end:none"
         transform="matrix(1.154526,0,0,1.154526,-0.379902,-3.63468)"
         inkscape:connector-curvature="0" />
      <path
         d="m 12.374369,24.665476 a 3.6239225,6.3639616 0 1 1 -7.247845,0 3.6239225,6.3639616 0 1 1 7.247845,0 z"
         id="path4058"
         style="color:#000000;display:inline;overflow:visible;visibility:visible;opacity:1;fill:#93958f;fill-opacity:1;fill-rule:nonzero;stroke:none;stroke-width:0.86615634;stroke-linecap:round;stroke-linejoin:round;stroke-miterlimit:4;stroke-dasharray:none;stroke-dashoffset:0;stroke-opacity:1;marker:none;marker-start:none;marker-mid:none;marker-end:none"
         transform="matrix(1.081355,0,0,1.081355,1.232653,-1.829889)"
         inkscape:connector-curvature="0" />
      <path
         d="m 12.374369,24.665476 a 3.6239225,6.3639616 0 1 1 -7.247845,0 3.6239225,6.3639616 0 1 1 7.247845,0 z"
         id="path3279"
         style="color:#000000;display:inline;overflow:visible;visibility:visible;opacity:0.39560439;fill:none;fill-opacity:1;fill-rule:nonzero;stroke:url(#linearGradient3287);stroke-width:0.68416733;stroke-linecap:round;stroke-linejoin:round;stroke-miterlimit:4;stroke-dasharray:none;stroke-dashoffset:0;stroke-opacity:1;marker:none;marker-start:none;marker-mid:none;marker-end:none"
         transform="matrix(1.1807,0,0,1.076971,-0.608944,-1.721744)"
         inkscape:connector-curvature="0" />
    </g>
    <path
       d="M 30.628912,42.856805 48.498709,27.420529 47.921166,90.642683 29.762599,76.71659 c -6.35296,-5.197883 -7.508044,-28.373137 0.866313,-33.859785 z"
       id="path4542"
       style="color:#000000;display:inline;overflow:visible;visibility:visible;fill:url(#linearGradient4585);fill-opacity:1;fill-rule:evenodd;stroke:url(#linearGradient4105);stroke-width:2.52053452;stroke-linecap:round;stroke-linejoin:miter;stroke-miterlimit:4;stroke-dashoffset:0;stroke-opacity:1;marker:none;marker-start:none;marker-mid:none;marker-end:none"
       inkscape:connector-curvature="0" />
    <path
       d="m 25.733206,52.295809 10.220677,-7.659956 -0.634201,8.912794 -9.99006,1.666063 0.403584,-2.918901 z"
       id="path4544"
       style="color:#000000;display:inline;overflow:visible;visibility:visible;fill:url(#linearGradient3516);fill-opacity:1;fill-rule:evenodd;stroke:none;stroke-width:1;stroke-linecap:round;stroke-linejoin:miter;stroke-miterlimit:4;stroke-dashoffset:0;stroke-opacity:1;marker:none;marker-start:none;marker-mid:none;marker-end:none"
       inkscape:connector-curvature="0" />
    <path
       d="m 27.409778,73.427271 11.193199,8.994124 -1.403496,-6.119586 -11.28293,-6.308239 1.493227,3.433701 z"
       id="path3672"
       style="color:#000000;display:inline;overflow:visible;visibility:visible;opacity:0.7692308;fill:url(#radialGradient3680);fill-opacity:1;fill-rule:nonzero;stroke:none;stroke-width:1;stroke-linecap:round;stroke-linejoin:round;stroke-miterlimit:4;stroke-dasharray:none;stroke-dashoffset:0;stroke-opacity:1;marker:none;marker-start:none;marker-mid:none;marker-end:none"
       inkscape:connector-curvature="0" />
    <g
       id="g4006"
       style="display:inline"
       transform="matrix(2.7647584,0,0,3.8041686,-3.8964289,-33.668441)">
      <path
         d="M 23.75,14 C 21.81001,14.04917 20.013366,14.683436 18.5,15.6875 18.13319,15.264088 17.60375,15 17,15 c -0.0345,0 -0.08734,8.54e-4 -0.125,0 -0.02799,-2e-4 -0.06855,-0.0026 -0.09375,0 C 15.773145,15.102481 15,15.965001 15,17 c 0,0.60375 0.264088,1.13319 0.6875,1.5 C 14.639107,20.080181 14,21.962011 14,24 c 0,2.033681 0.611921,3.921829 1.65625,5.5 C 15.243427,29.869532 15,30.401641 15,31 c 0,1.104 0.896,2.000001 2,2 0.60375,0 1.13319,-0.264089 1.5,-0.6875 C 20.080181,33.360893 21.962011,34 24,34 c 2.03799,0 3.919819,-0.639107 5.5,-1.6875 0.36681,0.423412 0.896251,0.687501 1.5,0.6875 1.103999,0 2,-0.895999 2,-2 0,-0.60375 -0.264088,-1.13319 -0.6875,-1.5 C 33.360893,27.919819 34,26.03799 34,24 34,21.962011 33.360893,20.080181 32.3125,18.5 32.735912,18.13319 33,17.60375 33,17 c 0,-1.104 -0.896001,-2 -2,-2 -0.0345,0 -0.08734,8.54e-4 -0.125,0 -0.02799,-2e-4 -0.06855,-0.0026 -0.09375,0 -0.504052,0.05124 -0.961951,0.298435 -1.28125,0.65625 -0.0067,-0.0044 -0.02455,0.0044 -0.03125,0 C 27.894622,14.620029 26.025064,14 24,14 c -0.08617,0 -0.164349,-0.0022 -0.25,0 z"
         id="path3726"
         style="color:#000000;display:inline;overflow:visible;visibility:visible;opacity:1;fill:url(#radialGradient3702);fill-opacity:1;fill-rule:evenodd;stroke:url(#linearGradient1549);stroke-width:1.47668338;stroke-linecap:round;stroke-linejoin:miter;stroke-miterlimit:4;stroke-dasharray:none;stroke-dashoffset:0;stroke-opacity:1;marker:none;marker-start:none;marker-mid:none;marker-end:none"
         inkscape:connector-curvature="0" />
      <path
         d="M 23.75,14 C 21.81001,14.04917 20.013366,14.683436 18.5,15.6875 18.13319,15.264088 17.60375,15 17,15 c -0.0345,0 -0.08734,8.54e-4 -0.125,0 -0.02799,-2e-4 -0.06855,-0.0026 -0.09375,0 C 15.773145,15.102481 15,15.965001 15,17 c 0,0.60375 0.264088,1.13319 0.6875,1.5 C 14.639107,20.080181 14,21.962011 14,24 c 0,2.033681 0.611921,3.921829 1.65625,5.5 C 15.243427,29.869532 15,30.401641 15,31 c 0,1.104 0.896,2.000001 2,2 0.60375,0 1.13319,-0.264089 1.5,-0.6875 C 20.080181,33.360893 21.962011,34 24,34 c 2.03799,0 3.919819,-0.639107 5.5,-1.6875 0.36681,0.423412 0.896251,0.687501 1.5,0.6875 1.103999,0 2,-0.895999 2,-2 0,-0.60375 -0.264088,-1.13319 -0.6875,-1.5 C 33.360893,27.919819 34,26.03799 34,24 34,21.962011 33.360893,20.080181 32.3125,18.5 32.735912,18.13319 33,17.60375 33,17 c 0,-1.104 -0.896001,-2 -2,-2 -0.0345,0 -0.08734,8.54e-4 -0.125,0 -0.02799,-2e-4 -0.06855,-0.0026 -0.09375,0 -0.504052,0.05124 -0.961951,0.298435 -1.28125,0.65625 -0.0067,-0.0044 -0.02455,0.0044 -0.03125,0 C 27.894622,14.620029 26.025064,14 24,14 c -0.08617,0 -0.164349,-0.0022 -0.25,0 z"
         id="path3507"
         style="color:#000000;display:inline;overflow:visible;visibility:visible;opacity:1;fill:url(#radialGradient3728);fill-opacity:1;fill-rule:evenodd;stroke:none;stroke-width:1.09104455;stroke-linecap:round;stroke-linejoin:miter;stroke-miterlimit:4;stroke-dasharray:none;stroke-dashoffset:0;stroke-opacity:1;marker:none;marker-start:none;marker-mid:none;marker-end:none"
         inkscape:connector-curvature="0" />
      <path
         d="m 18.75,9.375 a 9.375,9.375 0 1 1 -18.75,0 9.375,9.375 0 1 1 18.75,0 z"
         id="path3636"
         style="color:#000000;display:inline;overflow:visible;visibility:visible;opacity:1;fill:url(#radialGradient3644);fill-opacity:1;fill-rule:evenodd;stroke:url(#linearGradient3698);stroke-width:0.8383193;stroke-linecap:round;stroke-linejoin:miter;stroke-miterlimit:4;stroke-dasharray:none;stroke-dashoffset:0;stroke-opacity:1;marker:none;marker-start:none;marker-mid:none;marker-end:none"
         transform="matrix(0.846982,0,0,0.911415,16.71027,15.44956)"
         inkscape:connector-curvature="0" />
      <path
         d="m 18.75,9.375 a 9.375,9.375 0 1 1 -18.75,0 9.375,9.375 0 1 1 18.75,0 z"
         id="path3519"
         style="color:#000000;display:inline;overflow:visible;visibility:visible;opacity:1;fill:url(#radialGradient3634);fill-opacity:1;fill-rule:evenodd;stroke:none;stroke-width:6.57905483;stroke-linecap:round;stroke-linejoin:miter;stroke-miterlimit:4;stroke-dasharray:none;stroke-dashoffset:0;stroke-opacity:1;marker:none;marker-start:none;marker-mid:none;marker-end:none"
         transform="matrix(0.367272,0,0,0.32,18.56254,21.125)"
         inkscape:connector-curvature="0" />
      <path
         d="m 17,16.5 a 0.5,0.5 0 1 1 -1,0 0.5,0.5 0 1 1 1,0 z"
         id="path3718"
         style="color:#000000;display:inline;overflow:visible;visibility:visible;opacity:1;fill:#2e3436;fill-opacity:1;fill-rule:evenodd;stroke:none;stroke-width:1.10000002;stroke-linecap:round;stroke-linejoin:miter;stroke-miterlimit:4;stroke-dasharray:none;stroke-dashoffset:0;stroke-opacity:1;marker:none;marker-start:none;marker-mid:none;marker-end:none"
         transform="matrix(1.3125,0,0,1.3125,-4.657679,-5.09375)"
         inkscape:connector-curvature="0" />
      <path
         d="m 17,16.5 a 0.5,0.5 0 1 1 -1,0 0.5,0.5 0 1 1 1,0 z"
         id="path3720"
         style="color:#000000;display:inline;overflow:visible;visibility:visible;opacity:1;fill:#2e3436;fill-opacity:1;fill-rule:evenodd;stroke:none;stroke-width:1.10000002;stroke-linecap:round;stroke-linejoin:miter;stroke-miterlimit:4;stroke-dasharray:none;stroke-dashoffset:0;stroke-opacity:1;marker:none;marker-start:none;marker-mid:none;marker-end:none"
         transform="translate(15.22159,0.25)"
         inkscape:connector-curvature="0" />
      <path
         d="m 17,16.5 a 0.5,0.5 0 1 1 -1,0 0.5,0.5 0 1 1 1,0 z"
         id="path3722"
         style="color:#000000;display:inline;overflow:visible;visibility:visible;opacity:1;fill:#2e3436;fill-opacity:1;fill-rule:evenodd;stroke:none;stroke-width:1.10000002;stroke-linecap:round;stroke-linejoin:miter;stroke-miterlimit:4;stroke-dasharray:none;stroke-dashoffset:0;stroke-opacity:1;marker:none;marker-start:none;marker-mid:none;marker-end:none"
         transform="translate(15.22159,14.96875)"
         inkscape:connector-curvature="0" />
      <path
         d="m 17,16.5 a 0.5,0.5 0 1 1 -1,0 0.5,0.5 0 1 1 1,0 z"
         id="path3724"
         style="color:#000000;display:inline;overflow:visible;visibility:visible;opacity:1;fill:#2e3436;fill-opacity:1;fill-rule:evenodd;stroke:none;stroke-width:1.10000002;stroke-linecap:round;stroke-linejoin:miter;stroke-miterlimit:4;stroke-dasharray:none;stroke-dashoffset:0;stroke-opacity:1;marker:none;marker-start:none;marker-mid:none;marker-end:none"
         transform="matrix(1.375,0,0,1.375,-5.688929,8.8125)"
         inkscape:connector-curvature="0" />
    </g>
    <path
       d="m 97.693399,79.714727 c 2.311991,-5.456361 3.732881,-13.001122 3.732881,-21.268236 0,-8.267114 -1.42089,-15.811876 -3.732881,-21.268237"
       id="path3488"
       style="color:#000000;display:inline;overflow:visible;visibility:visible;opacity:1;fill:none;fill-opacity:1;fill-rule:evenodd;stroke:url(#radialGradient3504);stroke-width:2.52053332;stroke-linecap:round;stroke-linejoin:miter;stroke-miterlimit:4;stroke-dasharray:none;stroke-dashoffset:0;stroke-opacity:1;marker:none;marker-start:none;marker-mid:none;marker-end:none"
       inkscape:connector-curvature="0" />
    <path
       d="m 107.14796,86.865691 c 3.08935,-7.290942 4.98799,-17.372464 4.98799,-28.419213 0,-11.046748 -1.89864,-21.128271 -4.98799,-28.419213"
       id="path3494"
       style="color:#000000;display:inline;overflow:visible;visibility:visible;opacity:1;fill:none;fill-opacity:1;fill-rule:evenodd;stroke:url(#radialGradient3508);stroke-width:2.52053332;stroke-linecap:round;stroke-linejoin:miter;stroke-miterlimit:4;stroke-dasharray:none;stroke-dashoffset:0;stroke-opacity:1;marker:none;marker-start:none;marker-mid:none;marker-end:none"
       inkscape:connector-curvature="0" />
    <path
       d="m 116.34414,96.961182 c 4.18679,-9.880941 6.75989,-23.543772 6.75989,-38.514714 0,-14.97094 -2.5731,-28.633773 -6.75989,-38.514712"
       id="path3496"
       style="color:#000000;display:inline;overflow:visible;visibility:visible;opacity:1;fill:none;fill-opacity:1;fill-rule:evenodd;stroke:url(#radialGradient3506);stroke-width:2.52053332;stroke-linecap:round;stroke-linejoin:miter;stroke-miterlimit:4;stroke-dasharray:none;stroke-dashoffset:0;stroke-opacity:1;marker:none;marker-start:none;marker-mid:none;marker-end:none"
       inkscape:connector-curvature="0" />
  </g>
  <g
     id="g5011"
     transform="matrix(1.1497058,0,0,1.1497058,143.55141,-13.252908)">
    <path
       inkscape:connector-curvature="0"
       style="fill:url(#linearGradient5613)"
       id="path116"
       d="m -122.85632,95.518191 c 0.30852,0.910354 1.12421,1.517996 2.03813,1.517996 l 7.62164,0 0,19.177113 c 0,2.82345 2.16269,5.11249 4.83123,5.11249 l 25.063785,0 c 2.668533,0 4.831223,-2.28904 4.831223,-5.11249 l 0,-19.177113 6.104547,0 c 0.91436,0 1.730503,-0.607642 2.039015,-1.517996 0.308505,-0.910794 0.04333,-1.92918 -0.663004,-2.542623 L -95.215073,71.892485 c -0.79962,-0.696042 -1.952402,-0.695153 -2.752022,0 L -122.1933,92.975568 c -0.70632,0.614333 -0.97152,1.631829 -0.66302,2.542623 z" />
    <path
       inkscape:connector-curvature="0"
       style="fill:url(#radialGradient5615);fill-opacity:1"
       id="path149"
       d="m -111.03118,94.74491 c 0,7.22675 0,21.46839 0,21.46839 0,1.55549 1.19653,2.821 2.66586,2.821 l 25.063785,0 c 1.470213,0 2.665849,-1.26551 2.665849,-2.821 0,0 0,-15.14842 0,-21.46839 l 8.269921,0 -24.225319,-21.083074 -24.227106,21.083074 9.78701,0 z" />
    <path
       inkscape:connector-curvature="0"
       style="fill:url(#linearGradient5617);fill-opacity:1"
       id="path164"
       d="m -100.83208,97.559443 c 6.582715,3.467497 12.513145,7.319837 19.374,8.597177 l 0,10.36183 c 0,0.90812 -0.827297,1.64703 -1.843904,1.64703 l -25.063786,0 c -1.01661,0 -1.84346,-0.73891 -1.84346,-1.64703 l 0,-18.724608 c 3.02883,-1.384276 6.31929,-1.791895 9.37715,-0.234399 z" />
  </g>
</svg>
