<?xml version="1.0" encoding="utf-8"?>
<!-- Generator: Adobe Illustrator 20.1.0, SVG Export Plug-In . SVG Version: 6.00 Build 0)  -->
<svg version="1.1" id="Layer_1" xmlns="http://www.w3.org/2000/svg" xmlns:xlink="http://www.w3.org/1999/xlink" x="0px" y="0px"
	 viewBox="0 0 400 225" style="enable-background:new 0 0 400 225;" xml:space="preserve">
<style type="text/css">
	.st0{fill:none;}
	.st1{fill:#88C87A;}
	.st2{opacity:0.15;}
	.st3{fill:#231F20;}
	.st4{fill:#FFFFFF;}
	.st5{fill:#F05F5F;}
</style>
<title>true false</title>
<g>
	<g id="Layer_2">
		<g id="true_false">
			<rect class="st0" width="400" height="225"/>
			<g>
				<path class="st1" d="M259.2,57.2c-29.7-30.1-78.2-30.5-108.3-0.8c-18.4,18.2-26.4,44.4-21.3,69.7c-2.8,7.9-8.5,16.1-19.9,17.9
					c-3.9,0.6,14.7,3.2,27.6,3.3c3.3,6.1,7.4,11.7,12.1,16.6L259.2,57.2z"/>
				<g>
					<g class="st2">
						<path class="st3" d="M211.7,79.6L186.4,105l-4.8,4.8c-1.3,1.3-3.4,1.3-4.8,0l-4.8-4.8l-12.7-12.7c-1.3-1.3-1.3-3.4,0-4.8
							l4.8-4.8c1.3-1.3,3.4-1.3,4.8,0l10.3,10.3l22.9-23c1.3-1.3,3.4-1.3,4.8,0l4.8,4.8C213,76.2,213,78.3,211.7,79.6L211.7,79.6z"
							/>
					</g>
					<path class="st4" d="M206.6,74.5l-25.3,25.3l-4.8,4.8c-1.3,1.3-3.4,1.3-4.8,0l-4.7-4.8l-12.7-12.7c-1.3-1.3-1.3-3.4,0-4.8
						l4.8-4.8c1.3-1.3,3.4-1.3,4.8,0l10.3,10.3L197,65c1.3-1.3,3.4-1.3,4.8,0l4.8,4.8C207.8,71.1,207.8,73.2,206.6,74.5L206.6,74.5z
						"/>
				</g>
				<path class="st5" d="M290.8,184.7c0,0-15.4-11.6-15-25.9c20.3-30.2,16.5-70.5-9-96.5l-6.6,6.4c0,0-38.6,36.4-51.5,48.8
					c-45.6,43.6-47.1,47.1-47.1,47.1l-1.4,1.4l-3.1,3c26.1,27.3,68.3,31.4,99.2,9.7C264.1,185.5,290.8,184.7,290.8,184.7z"/>
				<g>
					<g class="st2">
						<path class="st3" d="M262.2,161.2l-4.4,4.4c-1.2,1.2-3.2,1.2-4.4,0l-9.5-9.5l-9.5,9.5c-1.2,1.2-3.2,1.2-4.4,0l-4.4-4.4
							c-1.2-1.2-1.2-3.2,0-4.4l9.5-9.5l-9.5-9.5c-1.2-1.2-1.2-3.2,0-4.4l4.4-4.4c1.2-1.2,3.2-1.2,4.4,0l9.5,9.5l9.5-9.5
							c1.2-1.2,3.2-1.2,4.4,0l4.4,4.4c1.2,1.2,1.2,3.2,0,4.4l-9.5,9.5l9.5,9.5C263.4,158.1,263.4,160,262.2,161.2L262.2,161.2z"/>
					</g>
					<path class="st4" d="M257.1,156l-4.4,4.4c-1.2,1.2-3.2,1.2-4.4,0l-9.5-9.5l-9.5,9.5c-1.2,1.2-3.2,1.2-4.4,0l-4.4-4.4
						c-1.2-1.2-1.2-3.2,0-4.4l9.5-9.5l-9.5-9.5c-1.2-1.2-1.2-3.2,0-4.4l4.4-4.4c1.2-1.2,3.2-1.2,4.4,0l9.5,9.5l9.5-9.5
						c1.2-1.2,3.2-1.2,4.4,0l4.4,4.4c1.2,1.2,1.2,3.2,0,4.4l-9.5,9.5l9.5,9.5C258.3,152.8,258.3,154.8,257.1,156L257.1,156z"/>
				</g>
			</g>
		</g>
	</g>
</g>
</svg>
