<?xml version="1.0" encoding="UTF-8" standalone="no"?>
<svg
   xmlns:dc="http://purl.org/dc/elements/1.1/"
   xmlns:cc="http://creativecommons.org/ns#"
   xmlns:rdf="http://www.w3.org/1999/02/22-rdf-syntax-ns#"
   xmlns:svg="http://www.w3.org/2000/svg"
   xmlns="http://www.w3.org/2000/svg"
   xmlns:sodipodi="http://sodipodi.sourceforge.net/DTD/sodipodi-0.dtd"
   xmlns:inkscape="http://www.inkscape.org/namespaces/inkscape"
   width="400"
   height="120"
   viewBox="0 0 400 120"
   version="1.1"
   id="svg977"
   sodipodi:docname="mejs-controls.svg"
   inkscape:version="0.92.3 (2405546, 2018-03-11)">
  <metadata
     id="metadata983">
    <rdf:RDF>
      <cc:Work
         rdf:about="">
        <dc:format>image/svg+xml</dc:format>
        <dc:type
           rdf:resource="http://purl.org/dc/dcmitype/StillImage" />
      </cc:Work>
    </rdf:RDF>
  </metadata>
  <defs
     id="defs981" />
  <sodipodi:namedview
     pagecolor="#ffffff"
     bordercolor="#666666"
     borderopacity="1"
     objecttolerance="10"
     gridtolerance="10"
     guidetolerance="10"
     inkscape:pageopacity="0"
     inkscape:pageshadow="2"
     inkscape:window-width="1319"
     inkscape:window-height="713"
     id="namedview979"
     showgrid="false"
     inkscape:zoom="2.6799347"
     inkscape:cx="169.61304"
     inkscape:cy="33.977749"
     inkscape:window-x="47"
     inkscape:window-y="27"
     inkscape:window-maximized="1"
     inkscape:current-layer="svg977" />
  <style
     id="style919">.st0{fill:#FFFFFF;width:16px;height:16px} .st1{fill:none;stroke:#FFFFFF;stroke-width:1.5;stroke-linecap:round;} .st2{fill:none;stroke:#FFFFFF;stroke-width:2;stroke-linecap:round;} .st3{fill:none;stroke:#FFFFFF;} .st4{fill:#231F20;} .st5{opacity:0.75;fill:none;stroke:#FFFFFF;stroke-width:5;enable-background:new;} .st6{fill:none;stroke:#FFFFFF;stroke-width:5;} .st7{opacity:0.4;fill:#FFFFFF;enable-background:new;} .st8{opacity:0.6;fill:#FFFFFF;enable-background:new;} .st9{opacity:0.8;fill:#FFFFFF;enable-background:new;} .st10{opacity:0.9;fill:#FFFFFF;enable-background:new;} .st11{opacity:0.3;fill:#FFFFFF;enable-background:new;} .st12{opacity:0.5;fill:#FFFFFF;enable-background:new;} .st13{opacity:0.7;fill:#FFFFFF;enable-background:new;}</style>
  <path
     class="st0"
     d="M16.5 8.5c.3.1.4.5.2.8-.1.1-.1.2-.2.2l-11.4 7c-.5.3-.8.1-.8-.5V2c0-.5.4-.8.8-.5l11.4 7z"
     id="path921" />
  <path
     class="st0"
     d="M24 1h2.2c.6 0 1 .4 1 1v14c0 .6-.4 1-1 1H24c-.6 0-1-.4-1-1V2c0-.5.4-1 1-1zm9.8 0H36c.6 0 1 .4 1 1v14c0 .6-.4 1-1 1h-2.2c-.6 0-1-.4-1-1V2c0-.5.4-1 1-1z"
     id="path923" />
  <path
     class="st0"
     d="M81 1.4c0-.6.4-1 1-1h5.4c.6 0 .7.3.3.7l-6 6c-.4.4-.7.3-.7-.3V1.4zm0 15.8c0 .6.4 1 1 1h5.4c.6 0 .7-.3.3-.7l-6-6c-.4-.4-.7-.3-.7.3v5.4zM98.8 1.4c0-.6-.4-1-1-1h-5.4c-.6 0-.7.3-.3.7l6 6c.4.4.7.3.7-.3V1.4zm0 15.8c0 .6-.4 1-1 1h-5.4c-.6 0-.7-.3-.3-.7l6-6c.4-.4.7-.3.7.3v5.4z"
     id="path925" />
  <path
     class="st0"
     d="M112.7 5c0 .6.4 1 1 1h4.1c.6 0 .7-.3.3-.7L113.4.6c-.4-.4-.7-.3-.7.3V5zm-7.1 1c.6 0 1-.4 1-1V.9c0-.6-.3-.7-.7-.3l-4.7 4.7c-.4.4-.3.7.3.7h4.1zm1 7.1c0-.6-.4-1-1-1h-4.1c-.6 0-.7.3-.3.7l4.7 4.7c.4.4.7.3.7-.3v-4.1zm7.1-1c-.6 0-1 .4-1 1v4.1c0 .5.3.7.7.3l4.7-4.7c.4-.4.3-.7-.3-.7h-4.1z"
     id="path927" />
  <path
     class="st0"
     d="M67 5.8c-.5.4-1.2.6-1.8.6H62c-.6 0-1 .4-1 1v5.7c0 .6.4 1 1 1h4.2c.3.2.5.4.8.6l3.5 2.6c.4.3.8.1.8-.4V3.5c0-.5-.4-.7-.8-.4L67 5.8z"
     id="path929" />
  <path
     class="st1"
     d="M73.9 2.5s3.9-.8 3.9 7.7-3.9 7.8-3.9 7.8"
     id="path931" />
  <path
     class="st1"
     d="M72.6 6.4s2.6-.4 2.6 3.8-2.6 3.9-2.6 3.9"
     id="path933" />
  <path
     class="st0"
     d="M47 5.8c-.5.4-1.2.6-1.8.6H42c-.6 0-1 .4-1 1v5.7c0 .6.4 1 1 1h4.2c.3.2.5.4.8.6l3.5 2.6c.4.3.8.1.8-.4V3.5c0-.5-.4-.7-.8-.4L47 5.8z"
     id="path935" />
  <path
     class="st2"
     d="M52.8 7l5.4 5.4m-5.4 0L58.2 7"
     id="path937" />
  <path
     class="st3"
     d="M128.7 8.6c-6.2-4.2-6.5 7.8 0 3.9m6.5-3.9c-6.2-4.2-6.5 7.8 0 3.9"
     id="path939" />
  <path
     class="st0"
     d="M122.2 3.4h15.7v13.1h-15.7V3.4zM120.8 2v15.7h18.3V2h-18.3z"
     id="path941" />
  <path
     class="st0"
     d="M143.2 3h14c1.1 0 2 .9 2 2v10c0 1.1-.9 2-2 2h-14c-1.1 0-2-.9-2-2V5c0-1.1.9-2 2-2z"
     id="path943" />
  <path
     class="st4"
     d="M146.4 13.8c-.8 0-1.6-.4-2.1-1-1.1-1.4-1-3.4.1-4.8.5-.6 2-1.7 4.6.2l-.6.8c-1.4-1-2.6-1.1-3.3-.3-.8 1-.8 2.4-.1 3.5.7.9 1.9.8 3.4-.1l.5.9c-.7.5-1.6.7-2.5.8zm7.5 0c-.8 0-1.6-.4-2.1-1-1.1-1.4-1-3.4.1-4.8.5-.6 2-1.7 4.6.2l-.5.8c-1.4-1-2.6-1.1-3.3-.3-.8 1-.8 2.4-.1 3.5.7.9 1.9.8 3.4-.1l.5.9c-.8.5-1.7.7-2.6.8z"
     id="path945" />
  <path
     class="st0"
     d="M60.3 77c.6.2.8.8.6 1.4-.1.3-.3.5-.6.6L30 96.5c-1 .6-1.7.1-1.7-1v-35c0-1.1.8-1.5 1.7-1L60.3 77z"
     id="path947"
     style="fill:#84bd00;fill-opacity:1" />
  <path
     class="st5"
     d="M2.5 79c0-20.7 16.8-37.5 37.5-37.5S77.5 58.3 77.5 79 60.7 116.5 40 116.5 2.5 99.7 2.5 79z"
     id="path949"
     style="stroke:#84bd00;stroke-opacity:1" />
  <path
     class="st0"
     d="M140.3 77c.6.2.8.8.6 1.4-.1.3-.3.5-.6.6L110 96.5c-1 .6-1.7.1-1.7-1v-35c0-1.1.8-1.5 1.7-1L140.3 77z"
     id="path951"
     style="fill:#84bd00;fill-opacity:1" />
  <path
     class="st6"
     d="M82.5 79c0-20.7 16.8-37.5 37.5-37.5s37.5 16.8 37.5 37.5-16.8 37.5-37.5 37.5S82.5 99.7 82.5 79z"
     id="path953"
     style="stroke:#84bd00;stroke-opacity:1" />
  <circle
     class="st0"
     cx="201.9"
     cy="47.1"
     r="8.1"
     id="circle955"
     style="fill:#84bd00;fill-opacity:1" />
  <circle
     class="st7"
     cx="233.9"
     cy="79"
     r="5"
     id="circle957"
     style="fill:#84bd00;fill-opacity:1" />
  <circle
     class="st8"
     cx="201.9"
     cy="110.9"
     r="6"
     id="circle959"
     style="fill:#84bd00;fill-opacity:1" />
  <circle
     class="st9"
     cx="170.1"
     cy="79"
     r="7"
     id="circle961"
     style="fill:#84bd00;fill-opacity:1" />
  <circle
     class="st10"
     cx="178.2"
     cy="56.3"
     r="7.5"
     id="circle963"
     style="fill:#84bd00;fill-opacity:1" />
  <circle
     class="st11"
     cx="226.3"
     cy="56.1"
     r="4.5"
     id="circle965"
     style="fill:#84bd00;fill-opacity:1" />
  <circle
     class="st12"
     cx="225.8"
     cy="102.8"
     r="5.5"
     id="circle967"
     style="fill:#84bd00;fill-opacity:1" />
  <circle
     class="st13"
     cx="178.2"
     cy="102.8"
     r="6.5"
     id="circle969"
     style="fill:#84bd00;fill-opacity:1" />
  <path
     class="st0"
     d="M178 9.4c0 .4-.4.7-.9.7-.1 0-.2 0-.2-.1L172 8.2c-.5-.2-.6-.6-.1-.8l6.2-3.6c.5-.3.8-.1.7.5l-.8 5.1z"
     id="path971" />
  <path
     class="st0"
     d="M169.4 15.9c-1 0-2-.2-2.9-.7-2-1-3.2-3-3.2-5.2.1-3.4 2.9-6 6.3-6 2.5.1 4.8 1.7 5.6 4.1l.1-.1 2.1 1.1c-.6-4.4-4.7-7.5-9.1-6.9-3.9.6-6.9 3.9-7 7.9 0 2.9 1.7 5.6 4.3 7 1.2.6 2.5.9 3.8 1 2.6 0 5-1.2 6.6-3.3l-1.8-.9c-1.2 1.2-3 2-4.8 2z"
     id="path973" />
  <path
     class="st0"
     d="M183.4 3.2c.8 0 1.5.7 1.5 1.5s-.7 1.5-1.5 1.5-1.5-.7-1.5-1.5c0-.9.7-1.5 1.5-1.5zm5.1 0h8.5c.9 0 1.5.7 1.5 1.5s-.7 1.5-1.5 1.5h-8.5c-.9 0-1.5-.7-1.5-1.5-.1-.9.6-1.5 1.5-1.5zm-5.1 5c.8 0 1.5.7 1.5 1.5s-.7 1.5-1.5 1.5-1.5-.7-1.5-1.5c0-.9.7-1.5 1.5-1.5zm5.1 0h8.5c.9 0 1.5.7 1.5 1.5s-.7 1.5-1.5 1.5h-8.5c-.9 0-1.5-.7-1.5-1.5-.1-.9.6-1.5 1.5-1.5zm-5.1 5c.8 0 1.5.7 1.5 1.5s-.7 1.5-1.5 1.5-1.5-.7-1.5-1.5c0-.9.7-1.5 1.5-1.5zm5.1 0h8.5c.9 0 1.5.7 1.5 1.5s-.7 1.5-1.5 1.5h-8.5c-.9 0-1.5-.7-1.5-1.5-.1-.9.6-1.5 1.5-1.5z"
     id="path975" />
</svg>
