<?xml version="1.0" encoding="UTF-8" standalone="no"?>
<!-- Created with Inkscape (http://www.inkscape.org/) -->

<svg
   xmlns:dc="http://purl.org/dc/elements/1.1/"
   xmlns:cc="http://creativecommons.org/ns#"
   xmlns:rdf="http://www.w3.org/1999/02/22-rdf-syntax-ns#"
   xmlns:svg="http://www.w3.org/2000/svg"
   xmlns="http://www.w3.org/2000/svg"
   xmlns:sodipodi="http://sodipodi.sourceforge.net/DTD/sodipodi-0.dtd"
   xmlns:inkscape="http://www.inkscape.org/namespaces/inkscape"
   width="200"
   height="60"
   viewBox="0 0 52.916666 15.875"
   version="1.1"
   id="svg627"
   inkscape:version="0.92.3 (2405546, 2018-03-11)"
   sodipodi:docname="applestore.svg">
  <defs
     id="defs621">
    <linearGradient
       gradientTransform="matrix(1,0,0,-1,0,42)"
       y2="16.507999"
       x2="5.0170002"
       y1="33.290001"
       x1="21.799999"
       gradientUnits="userSpaceOnUse"
       id="SVGID_1_">
      <stop
         id="stop524"
         stop-color="#00a0ff"
         offset="0" />
      <stop
         id="stop526"
         stop-color="#00a1ff"
         offset=".007" />
      <stop
         id="stop528"
         stop-color="#00beff"
         offset=".26" />
      <stop
         id="stop530"
         stop-color="#00d2ff"
         offset=".512" />
      <stop
         id="stop532"
         stop-color="#00dfff"
         offset=".76" />
      <stop
         id="stop534"
         stop-color="#00e3ff"
         offset="1" />
    </linearGradient>
    <linearGradient
       gradientTransform="matrix(1,0,0,-1,0,42)"
       y2="21.999001"
       x2="9.6370001"
       y1="21.999001"
       x1="33.834"
       gradientUnits="userSpaceOnUse"
       id="SVGID_2_">
      <stop
         id="stop539"
         stop-color="#ffe000"
         offset="0" />
      <stop
         id="stop541"
         stop-color="#ffbd00"
         offset=".409" />
      <stop
         id="stop543"
         stop-color="orange"
         offset=".775" />
      <stop
         id="stop545"
         stop-color="#ff9c00"
         offset="1" />
    </linearGradient>
    <linearGradient
       gradientTransform="matrix(1,0,0,-1,0,42)"
       y2="-3.0539999"
       x2="2.069"
       y1="19.704"
       x1="24.827"
       gradientUnits="userSpaceOnUse"
       id="SVGID_3_">
      <stop
         id="stop550"
         stop-color="#ff3a44"
         offset="0" />
      <stop
         id="stop552"
         stop-color="#c31162"
         offset="1" />
    </linearGradient>
    <linearGradient
       gradientTransform="matrix(1,0,0,-1,0,42)"
       y2="31.660999"
       x2="17.459999"
       y1="41.824001"
       x1="7.2969999"
       gradientUnits="userSpaceOnUse"
       id="SVGID_4_">
      <stop
         id="stop557"
         stop-color="#32a071"
         offset="0" />
      <stop
         id="stop559"
         stop-color="#2da771"
         offset=".069" />
      <stop
         id="stop561"
         stop-color="#15cf74"
         offset=".476" />
      <stop
         id="stop563"
         stop-color="#06e775"
         offset=".801" />
      <stop
         id="stop565"
         stop-color="#00f076"
         offset="1" />
    </linearGradient>
  </defs>
  <sodipodi:namedview
     id="base"
     pagecolor="#ffffff"
     bordercolor="#666666"
     borderopacity="1.0"
     inkscape:pageopacity="0.0"
     inkscape:pageshadow="2"
     inkscape:zoom="6.135"
     inkscape:cx="100"
     inkscape:cy="30"
     inkscape:document-units="mm"
     inkscape:current-layer="layer1"
     showgrid="false"
     units="px"
     inkscape:window-width="1366"
     inkscape:window-height="713"
     inkscape:window-x="0"
     inkscape:window-y="27"
     inkscape:window-maximized="1" />
  <metadata
     id="metadata624">
    <rdf:RDF>
      <cc:Work
         rdf:about="">
        <dc:format>image/svg+xml</dc:format>
        <dc:type
           rdf:resource="http://purl.org/dc/dcmitype/StillImage" />
        <dc:title></dc:title>
      </cc:Work>
    </rdf:RDF>
  </metadata>
  <g
     inkscape:label="Capa 1"
     inkscape:groupmode="layer"
     id="layer1"
     transform="translate(0,-281.125)">
    <g
       id="g212"
       transform="matrix(0.39197531,0,0,0.396875,-9.1666673e-8,281.125)">
      <path
         id="path152"
         d="M 130.197,40 H 4.729 C 2.122,40 0,37.872 0,35.267 V 4.726 C 0,2.12 2.122,0 4.729,0 H 130.197 C 132.803,0 135,2.12 135,4.726 V 35.267 C 135,37.872 132.803,40 130.197,40 Z"
         inkscape:connector-curvature="0"
         style="fill:#a6a6a6" />
      <path
         id="path154"
         d="m 134.032,35.268 c 0,2.116 -1.714,3.83 -3.834,3.83 H 4.729 C 2.61,39.098 0.89,37.384 0.89,35.268 V 4.725 C 0.89,2.61 2.61,0.89 4.729,0.89 h 125.468 c 2.121,0 3.834,1.72 3.834,3.835 z"
         inkscape:connector-curvature="0" />
      <g
         id="g162">
        <g
           id="g160">
          <path
             id="path156"
             d="m 30.128,19.784 c -0.029,-3.223 2.639,-4.791 2.761,-4.864 -1.511,-2.203 -3.853,-2.504 -4.676,-2.528 -1.967,-0.207 -3.875,1.177 -4.877,1.177 -1.022,0 -2.565,-1.157 -4.228,-1.123 -2.14,0.033 -4.142,1.272 -5.24,3.196 -2.266,3.923 -0.576,9.688 1.595,12.859 1.086,1.553 2.355,3.287 4.016,3.226 1.625,-0.067 2.232,-1.036 4.193,-1.036 1.943,0 2.513,1.036 4.207,0.997 1.744,-0.028 2.842,-1.56 3.89,-3.127 1.255,-1.78 1.759,-3.533 1.779,-3.623 -0.041,-0.014 -3.387,-1.291 -3.42,-5.154 z"
             inkscape:connector-curvature="0"
             style="fill:#ffffff" />
          <path
             id="path158"
             d="m 26.928,10.306 c 0.874,-1.093 1.472,-2.58 1.306,-4.089 -1.265,0.056 -2.847,0.875 -3.758,1.944 -0.806,0.942 -1.526,2.486 -1.34,3.938 1.421,0.106 2.88,-0.717 3.792,-1.793 z"
             inkscape:connector-curvature="0"
             style="fill:#ffffff" />
        </g>
      </g>
      <g
         id="g180">
        <path
           id="path164"
           d="M 53.645,31.504 H 51.374 L 50.13,27.595 h -4.324 l -1.185,3.909 H 42.41 L 46.694,18.196 H 49.34 Z M 49.755,25.955 48.63,22.48 c -0.119,-0.355 -0.342,-1.191 -0.671,-2.507 h -0.04 c -0.131,0.566 -0.342,1.402 -0.632,2.507 l -1.105,3.475 z"
           inkscape:connector-curvature="0"
           style="fill:#ffffff" />
        <path
           id="path166"
           d="m 64.662,26.588 c 0,1.632 -0.441,2.922 -1.323,3.869 -0.79,0.843 -1.771,1.264 -2.942,1.264 -1.264,0 -2.172,-0.454 -2.725,-1.362 h -0.04 v 5.055 H 55.5 V 25.067 c 0,-1.026 -0.027,-2.079 -0.079,-3.159 h 1.875 l 0.119,1.521 h 0.04 c 0.711,-1.146 1.79,-1.718 3.238,-1.718 1.132,0 2.077,0.447 2.833,1.342 0.758,0.896 1.136,2.074 1.136,3.535 z m -2.172,0.078 c 0,-0.934 -0.21,-1.704 -0.632,-2.31 -0.461,-0.632 -1.08,-0.948 -1.856,-0.948 -0.526,0 -1.004,0.176 -1.431,0.523 -0.428,0.35 -0.708,0.807 -0.839,1.373 -0.066,0.264 -0.099,0.48 -0.099,0.65 v 1.6 c 0,0.698 0.214,1.287 0.642,1.768 0.428,0.481 0.984,0.721 1.668,0.721 0.803,0 1.428,-0.31 1.875,-0.928 0.448,-0.619 0.672,-1.435 0.672,-2.449 z"
           inkscape:connector-curvature="0"
           style="fill:#ffffff" />
        <path
           id="path168"
           d="m 75.699,26.588 c 0,1.632 -0.441,2.922 -1.324,3.869 -0.789,0.843 -1.77,1.264 -2.941,1.264 -1.264,0 -2.172,-0.454 -2.724,-1.362 h -0.04 v 5.055 H 66.538 V 25.067 c 0,-1.026 -0.027,-2.079 -0.079,-3.159 h 1.875 l 0.119,1.521 h 0.04 c 0.71,-1.146 1.789,-1.718 3.238,-1.718 1.131,0 2.076,0.447 2.834,1.342 0.755,0.896 1.134,2.074 1.134,3.535 z m -2.172,0.078 c 0,-0.934 -0.211,-1.704 -0.633,-2.31 -0.461,-0.632 -1.078,-0.948 -1.855,-0.948 -0.527,0 -1.004,0.176 -1.432,0.523 -0.428,0.35 -0.707,0.807 -0.838,1.373 -0.065,0.264 -0.099,0.48 -0.099,0.65 v 1.6 c 0,0.698 0.214,1.287 0.64,1.768 0.428,0.48 0.984,0.721 1.67,0.721 0.803,0 1.428,-0.31 1.875,-0.928 0.448,-0.619 0.672,-1.435 0.672,-2.449 z"
           inkscape:connector-curvature="0"
           style="fill:#ffffff" />
        <path
           id="path170"
           d="m 88.039,27.772 c 0,1.132 -0.393,2.053 -1.182,2.764 -0.867,0.777 -2.074,1.165 -3.625,1.165 -1.432,0 -2.58,-0.276 -3.449,-0.829 l 0.494,-1.777 c 0.936,0.566 1.963,0.85 3.082,0.85 0.803,0 1.428,-0.182 1.877,-0.544 0.447,-0.362 0.67,-0.848 0.67,-1.454 0,-0.54 -0.184,-0.995 -0.553,-1.364 -0.367,-0.369 -0.98,-0.712 -1.836,-1.029 -2.33,-0.869 -3.494,-2.142 -3.494,-3.816 0,-1.094 0.408,-1.991 1.225,-2.689 0.814,-0.699 1.9,-1.048 3.258,-1.048 1.211,0 2.217,0.211 3.02,0.632 l -0.533,1.738 c -0.75,-0.408 -1.598,-0.612 -2.547,-0.612 -0.75,0 -1.336,0.185 -1.756,0.553 -0.355,0.329 -0.533,0.73 -0.533,1.205 0,0.526 0.203,0.961 0.611,1.303 0.355,0.316 1,0.658 1.936,1.027 1.145,0.461 1.986,1 2.527,1.618 0.539,0.616 0.808,1.387 0.808,2.307 z"
           inkscape:connector-curvature="0"
           style="fill:#ffffff" />
        <path
           id="path172"
           d="m 95.088,23.508 h -2.35 v 4.659 c 0,1.185 0.414,1.777 1.244,1.777 0.381,0 0.697,-0.033 0.947,-0.099 l 0.059,1.619 c -0.42,0.157 -0.973,0.236 -1.658,0.236 -0.842,0 -1.5,-0.257 -1.975,-0.77 -0.473,-0.514 -0.711,-1.376 -0.711,-2.587 v -4.837 h -1.4 v -1.6 h 1.4 v -1.757 l 2.094,-0.632 v 2.389 h 2.35 z"
           inkscape:connector-curvature="0"
           style="fill:#ffffff" />
        <path
           id="path174"
           d="m 105.691,26.627 c 0,1.475 -0.422,2.686 -1.264,3.633 -0.883,0.975 -2.055,1.461 -3.516,1.461 -1.408,0 -2.529,-0.467 -3.365,-1.401 -0.836,-0.934 -1.254,-2.113 -1.254,-3.534 0,-1.487 0.43,-2.705 1.293,-3.652 0.861,-0.948 2.023,-1.422 3.484,-1.422 1.408,0 2.541,0.467 3.396,1.402 0.818,0.907 1.226,2.078 1.226,3.513 z m -2.212,0.069 c 0,-0.885 -0.189,-1.644 -0.572,-2.277 -0.447,-0.766 -1.086,-1.148 -1.914,-1.148 -0.857,0 -1.508,0.383 -1.955,1.148 -0.383,0.634 -0.572,1.405 -0.572,2.317 0,0.885 0.189,1.644 0.572,2.276 0.461,0.766 1.105,1.148 1.936,1.148 0.814,0 1.453,-0.39 1.914,-1.168 0.393,-0.645 0.591,-1.412 0.591,-2.296 z"
           inkscape:connector-curvature="0"
           style="fill:#ffffff" />
        <path
           id="path176"
           d="m 112.621,23.783 c -0.211,-0.039 -0.436,-0.059 -0.672,-0.059 -0.75,0 -1.33,0.283 -1.738,0.85 -0.355,0.5 -0.533,1.132 -0.533,1.895 v 5.035 h -2.131 l 0.02,-6.574 c 0,-1.106 -0.027,-2.113 -0.08,-3.021 h 1.857 l 0.078,1.836 h 0.059 c 0.225,-0.631 0.58,-1.139 1.066,-1.52 0.475,-0.343 0.988,-0.514 1.541,-0.514 0.197,0 0.375,0.014 0.533,0.039 z"
           inkscape:connector-curvature="0"
           style="fill:#ffffff" />
        <path
           id="path178"
           d="m 122.156,26.252 c 0,0.382 -0.025,0.704 -0.078,0.967 h -6.396 c 0.025,0.948 0.334,1.673 0.928,2.173 0.539,0.447 1.236,0.671 2.092,0.671 0.947,0 1.811,-0.151 2.588,-0.454 l 0.334,1.48 c -0.908,0.396 -1.98,0.593 -3.217,0.593 -1.488,0 -2.656,-0.438 -3.506,-1.313 -0.848,-0.875 -1.273,-2.05 -1.273,-3.524 0,-1.447 0.395,-2.652 1.186,-3.613 0.828,-1.026 1.947,-1.539 3.355,-1.539 1.383,0 2.43,0.513 3.141,1.539 0.563,0.815 0.846,1.823 0.846,3.02 z m -2.033,-0.553 c 0.014,-0.632 -0.125,-1.178 -0.414,-1.639 -0.369,-0.593 -0.936,-0.889 -1.699,-0.889 -0.697,0 -1.264,0.289 -1.697,0.869 -0.355,0.461 -0.566,1.014 -0.631,1.658 h 4.441 z"
           inkscape:connector-curvature="0"
           style="fill:#ffffff" />
      </g>
      <g
         id="g210">
        <g
           id="g208">
          <path
             id="path182"
             d="m 49.05,10.009 c 0,1.177 -0.353,2.063 -1.058,2.658 -0.653,0.549 -1.581,0.824 -2.783,0.824 -0.596,0 -1.106,-0.026 -1.533,-0.078 V 6.982 c 0.557,-0.09 1.157,-0.136 1.805,-0.136 1.145,0 2.008,0.249 2.59,0.747 0.652,0.563 0.979,1.368 0.979,2.416 z m -1.105,0.029 c 0,-0.763 -0.202,-1.348 -0.606,-1.756 -0.404,-0.407 -0.994,-0.611 -1.771,-0.611 -0.33,0 -0.611,0.022 -0.844,0.068 v 4.889 c 0.129,0.02 0.365,0.029 0.708,0.029 0.802,0 1.421,-0.223 1.857,-0.669 0.436,-0.446 0.656,-1.096 0.656,-1.95 z"
             inkscape:connector-curvature="0"
             style="fill:#ffffff" />
          <path
             id="path184"
             d="m 54.909,11.037 c 0,0.725 -0.207,1.319 -0.621,1.785 -0.434,0.479 -1.009,0.718 -1.727,0.718 -0.692,0 -1.243,-0.229 -1.654,-0.689 -0.41,-0.459 -0.615,-1.038 -0.615,-1.736 0,-0.73 0.211,-1.329 0.635,-1.794 0.424,-0.465 0.994,-0.698 1.712,-0.698 0.692,0 1.248,0.229 1.669,0.688 0.4,0.446 0.601,1.022 0.601,1.726 z m -1.087,0.034 c 0,-0.435 -0.094,-0.808 -0.281,-1.119 -0.22,-0.376 -0.533,-0.564 -0.94,-0.564 -0.421,0 -0.741,0.188 -0.961,0.564 -0.188,0.311 -0.281,0.69 -0.281,1.138 0,0.435 0.094,0.808 0.281,1.119 0.227,0.376 0.543,0.564 0.951,0.564 0.4,0 0.714,-0.191 0.94,-0.574 0.194,-0.317 0.291,-0.693 0.291,-1.128 z"
             inkscape:connector-curvature="0"
             style="fill:#ffffff" />
          <path
             id="path186"
             d="M 62.765,8.719 61.29,13.433 H 60.33 L 59.719,11.386 C 59.564,10.875 59.438,10.367 59.34,9.863 h -0.019 c -0.091,0.518 -0.217,1.025 -0.379,1.523 l -0.649,2.047 H 57.322 L 55.935,8.719 h 1.077 l 0.533,2.241 c 0.129,0.53 0.235,1.035 0.32,1.513 h 0.019 c 0.078,-0.394 0.207,-0.896 0.389,-1.503 l 0.669,-2.25 h 0.854 l 0.641,2.202 c 0.155,0.537 0.281,1.054 0.378,1.552 h 0.029 c 0.071,-0.485 0.178,-1.002 0.32,-1.552 L 61.736,8.72 h 1.029 z"
             inkscape:connector-curvature="0"
             style="fill:#ffffff" />
          <path
             id="path188"
             d="M 68.198,13.433 H 67.15 v -2.7 c 0,-0.832 -0.316,-1.248 -0.95,-1.248 -0.311,0 -0.562,0.114 -0.757,0.343 -0.193,0.229 -0.291,0.499 -0.291,0.808 v 2.796 h -1.048 v -3.366 c 0,-0.414 -0.013,-0.863 -0.038,-1.349 h 0.921 l 0.049,0.737 h 0.029 c 0.122,-0.229 0.304,-0.418 0.543,-0.569 0.284,-0.176 0.602,-0.265 0.95,-0.265 0.44,0 0.806,0.142 1.097,0.427 0.362,0.349 0.543,0.87 0.543,1.562 z"
             inkscape:connector-curvature="0"
             style="fill:#ffffff" />
          <path
             id="path190"
             d="M 71.088,13.433 H 70.041 V 6.556 h 1.047 z"
             inkscape:connector-curvature="0"
             style="fill:#ffffff" />
          <path
             id="path192"
             d="m 77.258,11.037 c 0,0.725 -0.207,1.319 -0.621,1.785 -0.434,0.479 -1.01,0.718 -1.727,0.718 -0.693,0 -1.244,-0.229 -1.654,-0.689 -0.41,-0.459 -0.615,-1.038 -0.615,-1.736 0,-0.73 0.211,-1.329 0.635,-1.794 0.424,-0.465 0.994,-0.698 1.711,-0.698 0.693,0 1.248,0.229 1.67,0.688 0.4,0.446 0.601,1.022 0.601,1.726 z m -1.088,0.034 c 0,-0.435 -0.094,-0.808 -0.281,-1.119 C 75.67,9.576 75.356,9.388 74.95,9.388 c -0.422,0 -0.742,0.188 -0.961,0.564 -0.188,0.311 -0.281,0.69 -0.281,1.138 0,0.435 0.094,0.808 0.281,1.119 0.227,0.376 0.543,0.564 0.951,0.564 0.4,0 0.713,-0.191 0.939,-0.574 0.195,-0.317 0.291,-0.693 0.291,-1.128 z"
             inkscape:connector-curvature="0"
             style="fill:#ffffff" />
          <path
             id="path194"
             d="M 82.33,13.433 H 81.389 L 81.311,12.89 h -0.029 c -0.322,0.433 -0.781,0.65 -1.377,0.65 -0.445,0 -0.805,-0.143 -1.076,-0.427 -0.246,-0.258 -0.369,-0.579 -0.369,-0.96 0,-0.576 0.24,-1.015 0.723,-1.319 0.482,-0.304 1.16,-0.453 2.033,-0.446 V 10.3 c 0,-0.621 -0.326,-0.931 -0.979,-0.931 -0.465,0 -0.875,0.117 -1.229,0.349 L 78.795,9.03 c 0.438,-0.271 0.979,-0.407 1.617,-0.407 1.232,0 1.85,0.65 1.85,1.95 v 1.736 c 0,0.471 0.023,0.846 0.068,1.124 z m -1.088,-1.62 v -0.727 c -1.156,-0.02 -1.734,0.297 -1.734,0.95 0,0.246 0.066,0.43 0.201,0.553 0.135,0.123 0.307,0.184 0.512,0.184 0.23,0 0.445,-0.073 0.641,-0.218 0.197,-0.146 0.318,-0.331 0.363,-0.558 0.011,-0.051 0.017,-0.113 0.017,-0.184 z"
             inkscape:connector-curvature="0"
             style="fill:#ffffff" />
          <path
             id="path196"
             d="m 88.285,13.433 h -0.93 l -0.049,-0.757 h -0.029 c -0.297,0.576 -0.803,0.864 -1.514,0.864 -0.568,0 -1.041,-0.223 -1.416,-0.669 -0.375,-0.446 -0.562,-1.025 -0.562,-1.736 0,-0.763 0.203,-1.381 0.611,-1.853 0.395,-0.44 0.879,-0.66 1.455,-0.66 0.633,0 1.076,0.213 1.328,0.64 h 0.02 V 6.556 h 1.049 v 5.607 c 0,0.459 0.012,0.882 0.037,1.27 z m -1.086,-1.988 v -0.786 c 0,-0.136 -0.01,-0.246 -0.029,-0.33 C 87.111,10.077 86.984,9.865 86.791,9.694 86.596,9.523 86.361,9.437 86.09,9.437 c -0.391,0 -0.697,0.155 -0.922,0.466 -0.223,0.311 -0.336,0.708 -0.336,1.193 0,0.466 0.107,0.844 0.322,1.135 0.227,0.31 0.533,0.465 0.916,0.465 0.344,0 0.619,-0.129 0.828,-0.388 0.202,-0.239 0.301,-0.527 0.301,-0.863 z"
             inkscape:connector-curvature="0"
             style="fill:#ffffff" />
          <path
             id="path198"
             d="m 97.248,11.037 c 0,0.725 -0.207,1.319 -0.621,1.785 -0.434,0.479 -1.008,0.718 -1.727,0.718 -0.691,0 -1.242,-0.229 -1.654,-0.689 -0.41,-0.459 -0.615,-1.038 -0.615,-1.736 0,-0.73 0.211,-1.329 0.635,-1.794 0.424,-0.465 0.994,-0.698 1.713,-0.698 0.691,0 1.248,0.229 1.668,0.688 0.4,0.446 0.601,1.022 0.601,1.726 z m -1.086,0.034 c 0,-0.435 -0.094,-0.808 -0.281,-1.119 C 95.66,9.576 95.348,9.388 94.94,9.388 c -0.42,0 -0.74,0.188 -0.961,0.564 -0.188,0.311 -0.281,0.69 -0.281,1.138 0,0.435 0.094,0.808 0.281,1.119 0.227,0.376 0.543,0.564 0.951,0.564 0.4,0 0.715,-0.191 0.941,-0.574 0.193,-0.317 0.291,-0.693 0.291,-1.128 z"
             inkscape:connector-curvature="0"
             style="fill:#ffffff" />
          <path
             id="path200"
             d="m 102.883,13.433 h -1.047 v -2.7 c 0,-0.832 -0.316,-1.248 -0.951,-1.248 -0.311,0 -0.562,0.114 -0.756,0.343 -0.194,0.229 -0.291,0.499 -0.291,0.808 v 2.796 h -1.049 v -3.366 c 0,-0.414 -0.012,-0.863 -0.037,-1.349 h 0.92 l 0.049,0.737 h 0.029 c 0.123,-0.229 0.305,-0.418 0.543,-0.569 0.285,-0.176 0.602,-0.265 0.951,-0.265 0.439,0 0.805,0.142 1.096,0.427 0.363,0.349 0.543,0.87 0.543,1.562 z"
             inkscape:connector-curvature="0"
             style="fill:#ffffff" />
          <path
             id="path202"
             d="m 109.936,9.504 h -1.154 v 2.29 c 0,0.582 0.205,0.873 0.611,0.873 0.188,0 0.344,-0.016 0.467,-0.049 l 0.027,0.795 c -0.207,0.078 -0.479,0.117 -0.814,0.117 -0.414,0 -0.736,-0.126 -0.969,-0.378 -0.234,-0.252 -0.35,-0.676 -0.35,-1.271 V 9.504 h -0.689 V 8.719 h 0.689 V 7.855 l 1.027,-0.31 v 1.173 h 1.154 v 0.786 z"
             inkscape:connector-curvature="0"
             style="fill:#ffffff" />
          <path
             id="path204"
             d="m 115.484,13.433 h -1.049 v -2.68 c 0,-0.845 -0.316,-1.268 -0.949,-1.268 -0.486,0 -0.818,0.245 -1,0.735 -0.031,0.103 -0.049,0.229 -0.049,0.377 v 2.835 H 111.39 V 6.556 h 1.047 v 2.841 h 0.02 c 0.33,-0.517 0.803,-0.775 1.416,-0.775 0.434,0 0.793,0.142 1.078,0.427 0.355,0.355 0.533,0.883 0.533,1.581 z"
             inkscape:connector-curvature="0"
             style="fill:#ffffff" />
          <path
             id="path206"
             d="m 121.207,10.853 c 0,0.188 -0.014,0.346 -0.039,0.475 h -3.143 c 0.014,0.466 0.164,0.821 0.455,1.067 0.266,0.22 0.609,0.33 1.029,0.33 0.465,0 0.889,-0.074 1.271,-0.223 l 0.164,0.728 c -0.447,0.194 -0.973,0.291 -1.582,0.291 -0.73,0 -1.305,-0.215 -1.721,-0.645 -0.418,-0.43 -0.625,-1.007 -0.625,-1.731 0,-0.711 0.193,-1.303 0.582,-1.775 0.406,-0.504 0.955,-0.756 1.648,-0.756 0.678,0 1.193,0.252 1.541,0.756 0.281,0.4 0.42,0.895 0.42,1.483 z m -1,-0.271 c 0.008,-0.311 -0.061,-0.579 -0.203,-0.805 -0.182,-0.291 -0.459,-0.437 -0.834,-0.437 -0.342,0 -0.621,0.142 -0.834,0.427 -0.174,0.227 -0.277,0.498 -0.311,0.815 z"
             inkscape:connector-curvature="0"
             style="fill:#ffffff" />
        </g>
      </g>
    </g>
  </g>
</svg>
