<?xml version="1.0" encoding="UTF-8" standalone="no"?>
<svg
   xmlns:dc="http://purl.org/dc/elements/1.1/"
   xmlns:cc="http://creativecommons.org/ns#"
   xmlns:rdf="http://www.w3.org/1999/02/22-rdf-syntax-ns#"
   xmlns:svg="http://www.w3.org/2000/svg"
   xmlns="http://www.w3.org/2000/svg"
   xmlns:sodipodi="http://sodipodi.sourceforge.net/DTD/sodipodi-0.dtd"
   xmlns:inkscape="http://www.inkscape.org/namespaces/inkscape"
   id="bigplay"
   viewBox="0 0 80 160"
   version="1.1"
   xml:space="preserve"
   x="0px"
   y="0px"
   width="80"
   height="160"
   inkscape:version="0.92.3 (2405546, 2018-03-11)"
   sodipodi:docname="bigplay.svg"><metadata
     id="metadata13"><rdf:RDF><cc:Work
         rdf:about=""><dc:format>image/svg+xml</dc:format><dc:type
           rdf:resource="http://purl.org/dc/dcmitype/StillImage" /><dc:title></dc:title></cc:Work></rdf:RDF></metadata><defs
     id="defs11" /><sodipodi:namedview
     pagecolor="#ffffff"
     bordercolor="#666666"
     borderopacity="1"
     objecttolerance="10"
     gridtolerance="10"
     guidetolerance="10"
     inkscape:pageopacity="0"
     inkscape:pageshadow="2"
     inkscape:window-width="1366"
     inkscape:window-height="713"
     id="namedview9"
     showgrid="false"
     showguides="true"
     inkscape:guide-bbox="true"
     inkscape:zoom="3.14375"
     inkscape:cx="40"
     inkscape:cy="80"
     inkscape:window-x="0"
     inkscape:window-y="27"
     inkscape:window-maximized="1"
     inkscape:current-layer="bigplay" /><rect
     ry="0"
     y="-240"
     x="0"
     height="200"
     width="200"
     id="rect4276"
     style="opacity:0;fill:#ffffff;fill-opacity:1;stroke:none;stroke-width:1;stroke-linecap:round;stroke-linejoin:round;stroke-miterlimit:4;stroke-dasharray:none;stroke-dashoffset:0;stroke-opacity:1" /><path
     style="opacity:0.75;fill:#84bd00;fill-opacity:1;stroke:none;stroke-width:2.1122508;stroke-opacity:1"
     d="m 39.972219,4.9729905 c -19.330173,0 -34.9999998,15.6698235 -34.9999998,35.0000005 0,19.330176 15.6698268,35 34.9999998,35 19.330173,0 35,-15.669824 35,-35 0,-19.330177 -15.669827,-35.0000005 -35,-35.0000005 z m -10.28125,17.0744615 29.53125,17.050539 -29.53125,17.050547 z"
     id="Ellipse"
     inkscape:connector-curvature="0" /><rect
     style="opacity:0;fill:#ffffff;fill-opacity:1;stroke:none;stroke-width:1;stroke-linecap:round;stroke-linejoin:round;stroke-miterlimit:4;stroke-dasharray:none;stroke-dashoffset:0;stroke-opacity:1"
     id="rect4268"
     width="200"
     height="200"
     x="4.6325681e-09"
     y="-40"
     ry="0" /><path
     id="path4222"
     d="m 39.972219,85.927274 c -19.330173,0 -34.9999998,15.669816 -34.9999998,34.999996 0,19.33017 15.6698268,35 34.9999998,35 19.330173,0 35,-15.66983 35,-35 0,-19.33018 -15.669827,-34.999996 -35,-34.999996 z m -10.28125,17.074456 29.53125,17.05054 -29.53125,17.05053 z"
     style="opacity:1;fill:#84bd00;fill-opacity:1;stroke:none;stroke-width:2.11225104;stroke-opacity:1"
     inkscape:connector-curvature="0" /></svg>