<?xml version="1.0" encoding="UTF-8" standalone="no"?>
<svg
   xmlns:dc="http://purl.org/dc/elements/1.1/"
   xmlns:cc="http://creativecommons.org/ns#"
   xmlns:rdf="http://www.w3.org/1999/02/22-rdf-syntax-ns#"
   xmlns:svg="http://www.w3.org/2000/svg"
   xmlns="http://www.w3.org/2000/svg"
   xmlns:sodipodi="http://sodipodi.sourceforge.net/DTD/sodipodi-0.dtd"
   xmlns:inkscape="http://www.inkscape.org/namespaces/inkscape"
   id="bigplay"
   viewBox="0 0 200 400"
   version="1.1"
   xml:space="preserve"
   x="0px"
   y="0px"
   width="200"
   height="400"
   inkscape:version="0.91 r13725"
   sodipodi:docname="bigplay.svg"><metadata
     id="metadata13"><rdf:RDF><cc:Work
         rdf:about=""><dc:format>image/svg+xml</dc:format><dc:type
           rdf:resource="http://purl.org/dc/dcmitype/StillImage" /><dc:title></dc:title></cc:Work></rdf:RDF></metadata><defs
     id="defs11" /><sodipodi:namedview
     pagecolor="#ffffff"
     bordercolor="#666666"
     borderopacity="1"
     objecttolerance="10"
     gridtolerance="10"
     guidetolerance="10"
     inkscape:pageopacity="0"
     inkscape:pageshadow="2"
     inkscape:window-width="1325"
     inkscape:window-height="747"
     id="namedview9"
     showgrid="false"
     showguides="true"
     inkscape:guide-bbox="true"
     inkscape:zoom="1.18"
     inkscape:cx="86.838766"
     inkscape:cy="172.57745"
     inkscape:window-x="41"
     inkscape:window-y="21"
     inkscape:window-maximized="1"
     inkscape:current-layer="bigplay" /><rect
     ry="0"
     y="0"
     x="0"
     height="200"
     width="200"
     id="rect4276"
     style="opacity:0;fill:#ffffff;fill-opacity:1;stroke:none;stroke-width:1;stroke-linecap:round;stroke-linejoin:round;stroke-miterlimit:4;stroke-dasharray:none;stroke-dashoffset:0;stroke-opacity:1" /><path
     style="opacity:0.75;fill:#84bd00;fill-opacity:1;stroke:none;stroke-width:5;stroke-opacity:1"
     d="m 100,17.150002 c -45.757282,0 -82.85,37.092711 -82.85,82.849995 0,45.757293 37.092718,82.850003 82.85,82.850003 45.75728,0 82.85,-37.09271 82.85,-82.850003 0,-45.757284 -37.09272,-82.849995 -82.85,-82.849995 z M 75.662812,57.567691 145.5675,97.928752 75.662812,138.28982 l 0,-80.722129 z"
     id="Ellipse"
     inkscape:connector-curvature="0" /><rect
     style="opacity:0;fill:#ffffff;fill-opacity:1;stroke:none;stroke-width:1;stroke-linecap:round;stroke-linejoin:round;stroke-miterlimit:4;stroke-dasharray:none;stroke-dashoffset:0;stroke-opacity:1"
     id="rect4268"
     width="200"
     height="200"
     x="4.6325681e-09"
     y="200"
     ry="0" /><path
     id="path4222"
     d="m 100,217.15001 c -45.757282,0 -82.85,37.09271 -82.85,82.85 0,45.75727 37.092718,82.85 82.85,82.85 45.75728,0 82.85,-37.09273 82.85,-82.85 0,-45.75729 -37.09272,-82.85 -82.85,-82.85 z m -24.337188,40.41769 69.904688,40.36106 -69.904688,40.36104 0,-80.7221 z"
     style="opacity:1;fill:#84bd00;fill-opacity:1;stroke:none;stroke-width:5;stroke-opacity:1"
     inkscape:connector-curvature="0" /></svg>