<?xml version="1.0" encoding="utf-8"?>
<!-- Generator: Adobe Illustrator 20.1.0, SVG Export Plug-In . SVG Version: 6.00 Build 0)  -->
<svg version="1.1" id="Layer_1" xmlns="http://www.w3.org/2000/svg" xmlns:xlink="http://www.w3.org/1999/xlink" x="0px" y="0px"
	 viewBox="0 0 400 225" style="enable-background:new 0 0 400 225;" xml:space="preserve">
<style type="text/css">
	.st0{opacity:0.15;}
	.st1{fill:#D94D6A;}
	.st2{fill:#92CAB1;}
	.st3{fill:#F6C358;}
	.st4{fill:#ED7864;}
	.st5{fill:#50B5D8;}
	.st6{fill:none;}
</style>
<title>dialog cards</title>
<g>
	<g id="Layer_2">
		<g id="dialog_cards">
			<g>
				<g>
					<g class="st0">
						<path d="M117.6,72.7l159.1-28.8c8.5-1.5,16.6,4.1,18.2,12.6l16.2,89.6c1.5,8.5-4.1,16.6-12.6,18.2L139.4,193
							c-8.5,1.5-16.6-4.1-18.2-12.6L105,90.8C103.4,82.3,109.1,74.2,117.6,72.7z"/>
					</g>
					<path class="st1" d="M117.2,69.4l158.5-29.1c8.5-1.6,16.6,4,18.1,12.5l16.4,89.2c1.6,8.5-4,16.6-12.5,18.1l-158.5,29.1
						c-8.5,1.6-16.6-4-18.1-12.5l-16.4-89.2C103.1,79,108.7,70.9,117.2,69.4z"/>
				</g>
				<g>
					<g class="st0">
						<path d="M119.4,56.1l161-14.9c8.6-0.8,16.2,5.5,17,14.1l8.4,90.6c0.8,8.6-5.5,16.2-14.1,17l-161,14.9
							c-8.6,0.8-16.2-5.5-17-14.1l-8.4-90.6C104.5,64.5,110.8,56.9,119.4,56.1z"/>
					</g>
					<path class="st2" d="M119.4,53.2l161-14.9c8.6-0.8,16.2,5.5,17,14.1l8.4,90.6c0.8,8.6-5.5,16.2-14.1,17l-161,14.9
						c-8.6,0.8-16.2-5.5-17-14.1l-8.4-90.6C104.5,61.7,110.8,54,119.4,53.2z"/>
				</g>
				<g>
					<g class="st0">
						<path d="M120.5,41.1h161.7c8.6,0,15.6,7,15.6,15.6v91c0,8.6-7,15.6-15.6,15.6H120.5c-8.6,0-15.6-7-15.6-15.6v-91
							C104.9,48.1,111.9,41.1,120.5,41.1z"/>
					</g>
					<path class="st3" d="M120.5,38.3h161.7c8.6,0,15.6,7,15.6,15.6v91c0,8.6-7,15.6-15.6,15.6H120.5c-8.6,0-15.6-7-15.6-15.6v-91
						C104.9,45.2,111.9,38.3,120.5,38.3z"/>
				</g>
				<path class="st4" d="M179.6,113c-2.2,0-4.4-0.1-6.6-0.4c-6,5.3-13.2,9.1-21,11.1c-1.7,0.5-3.5,0.8-5.2,1c-1.1,0.1-2-0.7-2.2-1.7
					l0,0c-0.2-1.1,0.6-1.8,1.2-2.7c2.9-3.3,6.2-6,8.3-13.6c-9.4-5.3-15.4-13.6-15.4-22.9c0-16.1,18.3-29.3,41-29.3s41,13.1,41,29.3
					S202.2,113,179.6,113z"/>
				<path class="st5" d="M176.7,100.8c0-17.1,19.4-30.9,43.3-30.9s43.3,13.9,43.3,30.9c0,9.8-6.4,18.6-16.3,24.2
					c2.3,8.1,5.8,11,8.8,14.4c0.7,0.9,1.6,1.6,1.3,2.8l0,0c-0.2,1.1-1.2,1.9-2.3,1.8c-1.9-0.2-3.7-0.6-5.5-1.1
					c-8.2-2-15.9-6-22.3-11.7c-2.3,0.3-4.7,0.4-7,0.4C196.1,131.7,176.7,117.9,176.7,100.8z"/>
			</g>
			<rect class="st6" width="400" height="225"/>
		</g>
	</g>
</g>
</svg>
