<?xml version="1.0" encoding="UTF-8" standalone="no"?>
<svg
   xmlns:dc="http://purl.org/dc/elements/1.1/"
   xmlns:cc="http://creativecommons.org/ns#"
   xmlns:rdf="http://www.w3.org/1999/02/22-rdf-syntax-ns#"
   xmlns:svg="http://www.w3.org/2000/svg"
   xmlns="http://www.w3.org/2000/svg"
   xmlns:sodipodi="http://sodipodi.sourceforge.net/DTD/sodipodi-0.dtd"
   xmlns:inkscape="http://www.inkscape.org/namespaces/inkscape"
   viewBox="0 0 500 100"
   height="100"
   width="500"
   xml:space="preserve"
   id="svg2"
   version="1.1"
   sodipodi:docname="time500.svg"
   inkscape:version="1.0 (4035a4fb49, 2020-05-01)"><sodipodi:namedview
     inkscape:document-rotation="0"
     pagecolor="#ffffff"
     bordercolor="#666666"
     borderopacity="1"
     objecttolerance="10"
     gridtolerance="10"
     guidetolerance="10"
     inkscape:pageopacity="0"
     inkscape:pageshadow="2"
     inkscape:window-width="1379"
     inkscape:window-height="1008"
     id="namedview699"
     showgrid="false"
     inkscape:snap-global="false"
     inkscape:zoom="1.2735"
     inkscape:cx="267.78482"
     inkscape:cy="-53.742195"
     inkscape:window-x="5"
     inkscape:window-y="0"
     inkscape:window-maximized="0"
     inkscape:current-layer="svg2" /><metadata
     id="metadata8"><rdf:RDF><cc:Work
         rdf:about=""><dc:format>image/svg+xml</dc:format><dc:type
           rdf:resource="http://purl.org/dc/dcmitype/StillImage" /><dc:title /></cc:Work></rdf:RDF></metadata><defs
     id="defs6"><clipPath
   id="clipPath18"
   clipPathUnits="userSpaceOnUse"><path
     id="path16"
     d="M 0,0 H 750 V 500 H 0 Z" /></clipPath><radialGradient
   id="radialGradient28"
   spreadMethod="pad"
   gradientTransform="matrix(318.68872,0,0,-318.68872,375,250)"
   gradientUnits="userSpaceOnUse"
   r="1"
   cy="0"
   cx="0"
   fy="0"
   fx="0"><stop
     id="stop24"
     offset="0"
     style="stop-opacity:1;stop-color:#ffffff" /><stop
     id="stop26"
     offset="1"
     style="stop-opacity:1;stop-color:#e6e7e8" /></radialGradient><clipPath
   id="clipPath38"
   clipPathUnits="userSpaceOnUse"><path
     id="path36"
     d="M 0,500 H 750 V 0 H 0 Z" /></clipPath><clipPath
   id="clipPath46"
   clipPathUnits="userSpaceOnUse"><path
     id="path44"
     d="M -514.47,511.65 H 1256.78 V -21.5001 H -514.47 Z" /></clipPath><clipPath
   id="clipPath600"
   clipPathUnits="userSpaceOnUse"><path
     id="path598"
     d="M 0,500 H 750 V 0 H 0 Z" /></clipPath><clipPath
   id="clipPath636"
   clipPathUnits="userSpaceOnUse"><path
     id="path634"
     d="M 0,500 H 750 V 0 H 0 Z" /></clipPath><clipPath
   id="clipPath670"
   clipPathUnits="userSpaceOnUse"><path
     id="path668"
     d="M 0,500 H 750 V 0 H 0 Z" /></clipPath><clipPath
   id="clipPath704"
   clipPathUnits="userSpaceOnUse"><path
     id="path702"
     d="M 0,500 H 750 V 0 H 0 Z" /></clipPath><clipPath
   id="clipPath1226"
   clipPathUnits="userSpaceOnUse"><path
     id="path1224"
     d="M 0,500 H 750 V 0 H 0 Z" /></clipPath><clipPath
   id="clipPath1260"
   clipPathUnits="userSpaceOnUse"><path
     id="path1258"
     d="M 0,500 H 750 V 0 H 0 Z" /></clipPath><clipPath
   id="clipPath1294"
   clipPathUnits="userSpaceOnUse"><path
     id="path1292"
     d="M 0,500 H 750 V 0 H 0 Z" /></clipPath><clipPath
   id="clipPath1312"
   clipPathUnits="userSpaceOnUse"><path
     id="path1310"
     d="M 0,500 H 750 V 0 H 0 Z" /></clipPath>
























</defs><path
     d="m 174.0746,77.72292 h 3.58533 V 41.936251 h -3.58533 z"
     style="fill:#ac9393;fill-opacity:1;fill-rule:nonzero;stroke:none;stroke-width:1.33333"
     id="path706" /><path
     d="m 335.38583,77.722918 h 3.584 V 41.936252 h -3.584 z"
     style="fill:#c8b7b7;fill-opacity:1;fill-rule:nonzero;stroke:none;stroke-width:1.33333"
     id="path1298" /><g
     style="fill:#e3dbdb"
     id="g710"
     transform="matrix(1.3333333,0,0,-1.3333333,470.96818,97.10852)"><path
       d="m 0,0 h -101.967 c -5.521,0 -10.039,4.518 -10.039,10.039 0,5.522 4.518,10.04 10.039,10.04 H -20.028 0 c 5.521,0 10.039,-4.518 10.039,-10.04 C 10.039,4.518 5.521,0 0,0"
       style="fill:#e3dbdb;fill-opacity:1;fill-rule:nonzero;stroke:none"
       id="path712" /></g><g
     style="fill:#c8b7b7"
     id="g714"
     transform="matrix(1.3333333,0,0,-1.3333333,338.01112,97.10852)"><path
       d="m 0,0 h -121.467 c -5.521,0 -10.039,4.518 -10.039,10.039 0,5.522 4.518,10.04 10.039,10.04 H -22.713 0 c 5.521,0 10.039,-4.518 10.039,-10.04 C 10.039,4.518 5.521,0 0,0"
       style="fill:#c8b7b7;fill-opacity:1;fill-rule:nonzero;stroke:none"
       id="path716"
       sodipodi:nodetypes="cssscssc" /></g><g
     style="fill:#ac9393"
     id="g718"
     transform="matrix(1.3333333,0,0,-1.3333333,205.05406,97.10852)"><path
       d="M -21.000001,0 H -131.967 c -5.522,0 -10.039,4.518 -10.039,10.039 0,5.522 4.517,10.04 10.039,10.04 h 105.017 5.949999 c 5.521,0 10.039,-4.518 10.039,-10.04 0,-5.521 -4.518,-10.039 -10.039,-10.039"
       style="fill:#ac9393;fill-opacity:1;fill-rule:nonzero;stroke:none"
       id="path720"
       sodipodi:nodetypes="cssscssc" /></g><g
     id="g722"
     transform="matrix(1.3333333,0,0,-1.3333333,72.02486,97.10852)"
     style="fill:#126ad2;fill-opacity:1" /><g
     id="g746"
     transform="matrix(1.3333333,0,0,-1.3333333,37.17646,83.72305)"><path
       d="m 0,0 c 0,-2.54 -2.06,-4.6 -4.6,-4.6 -2.541,0 -4.6,2.06 -4.6,4.6 0,2.541 2.059,4.6 4.6,4.6 C -2.06,4.6 0,2.541 0,0"
       style="fill:#ffffff;fill-opacity:1;fill-rule:nonzero;stroke:none"
       id="path748" /></g><g
     id="g750"
     transform="matrix(1.3333333,0,0,-1.3333333,182.20512,83.72305)"><path
       d="m 0,0 c 0,-2.54 -2.06,-4.6 -4.6,-4.6 -2.541,0 -4.6,2.06 -4.6,4.6 0,2.541 2.059,4.6 4.6,4.6 C -2.06,4.6 0,2.541 0,0"
       style="fill:#ffffff;fill-opacity:1;fill-rule:nonzero;stroke:none"
       id="path752" /></g><g
     id="g754"
     transform="matrix(1.3333333,0,0,-1.3333333,343.16219,83.72305)"><path
       d="m 0,0 c 0,-2.54 -2.06,-4.6 -4.6,-4.6 -2.541,0 -4.6,2.06 -4.6,4.6 0,2.541 2.059,4.6 4.6,4.6 C -2.06,4.6 0,2.541 0,0"
       style="fill:#ffffff;fill-opacity:1;fill-rule:nonzero;stroke:none"
       id="path756" /></g><g
     id="g758"
     transform="matrix(1.3333333,0,0,-1.3333333,476.12058,83.72305)"><path
       d="m 0,0 c 0,-2.54 -2.06,-4.6 -4.601,-4.6 -2.54,0 -4.599,2.06 -4.599,4.6 0,2.541 2.059,4.6 4.599,4.6 C -2.06,4.6 0,2.541 0,0"
       style="fill:#ffffff;fill-opacity:1;fill-rule:nonzero;stroke:none"
       id="path760" /></g><g
     id="g766"
     transform="matrix(1.3333333,0,0,-1.3333333,31.04299,89.85598)"><path
       d="M 0,0 C 2.541,0 4.6,2.06 4.6,4.6 4.6,7.141 2.541,9.2 0,9.2 Z"
       style="fill:#e6e7e8;fill-opacity:1;fill-rule:nonzero;stroke:none"
       id="path768" /></g><g
     id="g770"
     transform="matrix(1.3333333,0,0,-1.3333333,176.07232,89.85598)"><path
       d="M 0,0 C 2.54,0 4.6,2.06 4.6,4.6 4.6,7.141 2.54,9.2 0,9.2 Z"
       style="fill:#e6e7e8;fill-opacity:1;fill-rule:nonzero;stroke:none"
       id="path772" /></g><g
     id="g774"
     transform="matrix(1.3333333,0,0,-1.3333333,337.02939,89.85598)"><path
       d="M 0,0 C 2.54,0 4.6,2.06 4.6,4.6 4.6,7.141 2.54,9.2 0,9.2 Z"
       style="fill:#e6e7e8;fill-opacity:1;fill-rule:nonzero;stroke:none"
       id="path776" /></g><g
     id="g778"
     transform="matrix(1.3333333,0,0,-1.3333333,469.98645,89.85598)"><path
       d="M 0,0 C 2.541,0 4.601,2.06 4.601,4.6 4.601,7.141 2.541,9.2 0,9.2 Z"
       style="fill:#e6e7e8;fill-opacity:1;fill-rule:nonzero;stroke:none"
       id="path780" /></g><g
     id="g2901"
     transform="matrix(0.49481651,0,0,0.47560283,-6.611128,20.401437)"><g
       transform="matrix(1.3333333,0,0,-1.3333333,119.03229,10.774726)"
       id="g606"><path
         id="path608"
         style="fill:#606060;fill-opacity:1;fill-rule:nonzero;stroke:none"
         d="m 0,0 c 0,-18.349 -14.875,-33.224 -33.224,-33.224 -18.349,0 -33.223,14.875 -33.223,33.224 0,18.349 14.874,33.224 33.223,33.224 C -14.875,33.224 0,18.349 0,0" /></g><g
       transform="matrix(1.3333333,0,0,-1.3333333,114.74842,29.804066)"
       id="g994"><path
         id="path996"
         style="fill:#c8b7b7;fill-opacity:1;fill-rule:nonzero;stroke:none"
         d="m 0,0 h -0.003 c 2.06,4.325 3.216,9.163 3.216,14.272 0,18.349 -14.875,33.223 -33.224,33.223 -18.349,0 -33.223,-14.874 -33.223,-33.223 0,-5.109 1.156,-9.947 3.216,-14.272 h -0.003 l 0.036,-0.073 c 0.045,-0.093 0.093,-0.184 0.139,-0.278 l 23.747,-47.557 0.007,-0.002 c 1.046,-2.318 3.372,-3.935 6.081,-3.935 2.709,0 5.036,1.617 6.082,3.935 l 0.006,0.002 23.75,47.563 c 0.045,0.091 0.092,0.179 0.136,0.271 z" /></g><g
       transform="matrix(1.3333333,0,0,-1.3333333,74.734165,98.930326)"
       id="g998"><path
         id="path1000"
         style="fill:#ac9393;fill-opacity:1;fill-rule:nonzero;stroke:none"
         d="M 0,0 C 2.709,0 5.036,1.617 6.082,3.935 L 6.088,3.937 29.838,51.5 c 0.044,0.09 0.092,0.179 0.136,0.271 l 0.037,0.074 h -0.004 c 2.06,4.324 3.217,9.162 3.217,14.272 C 33.224,84.465 18.349,99.34 0,99.34 Z" /></g><g
       transform="matrix(1.3333333,0,0,-1.3333333,41.826565,10.774726)"
       id="g1002"><path
         id="path1004"
         style="fill:#ffffff;fill-opacity:1;fill-rule:nonzero;stroke:none"
         d="m 0,0 c 0,-13.631 11.05,-24.681 24.681,-24.681 13.631,0 24.68,11.05 24.68,24.681 0,13.631 -11.049,24.681 -24.68,24.681 C 11.05,24.681 0,13.631 0,0" /></g><g
       transform="matrix(1.3333333,0,0,-1.3333333,74.734165,43.682866)"
       id="g1006"><path
         id="path1008"
         style="fill:#f1f2f2;fill-opacity:1;fill-rule:nonzero;stroke:none"
         d="M 0,0 C 13.631,0 24.681,11.05 24.681,24.681 24.681,38.312 13.631,49.362 0,49.362 Z" /></g><g
       transform="matrix(1.3333333,0,0,-1.3333333,78.888435,20.436196)"
       id="g1010"><path
         id="path1012"
         style="fill:#ac9393;fill-opacity:1;fill-rule:nonzero;stroke:none"
         d="m 0,0 c 4.947,-0.576 8.581,-2.492 8.581,-4.767 0,-2.731 -5.237,-4.945 -11.697,-4.945 -6.46,0 -11.697,2.214 -11.697,4.945 0,2.274 3.632,4.189 8.578,4.767" /></g><g
       transform="matrix(1.3333333,0,0,-1.3333333,74.734165,20.436196)"
       id="g1014"><path
         id="path1016"
         style="fill:#916f6f;fill-opacity:1;fill-rule:nonzero;stroke:none"
         d="m 0,0 h 3.116 c 4.947,-0.576 8.58,-2.492 8.58,-4.767 C 11.696,-7.498 6.46,-9.712 0,-9.712 Z" /></g><g
       transform="matrix(1.3333333,0,0,-1.3333333,86.299235,5.430326)"
       id="g1018"><path
         id="path1020"
         style="fill:#c8b7b7;fill-opacity:1;fill-rule:nonzero;stroke:none"
         d="m 0,0 h -0.004 c 0.455,1.101 0.709,2.306 0.709,3.571 0,5.179 -4.2,9.378 -9.379,9.378 -5.18,0 -9.378,-4.199 -9.378,-9.378 0,-1.265 0.254,-2.47 0.708,-3.571 h -0.004 l 0.021,-0.047 c 0.013,-0.031 0.027,-0.06 0.04,-0.09 0.119,-0.271 8.613,-17.418 8.613,-17.418 l 8.613,17.418 c 0.014,0.03 0.027,0.059 0.04,0.09 z" /></g><g
       transform="matrix(1.3333333,0,0,-1.3333333,74.734165,28.836596)"
       id="g1022"><path
         id="path1024"
         style="fill:#ac9393;fill-opacity:1;fill-rule:nonzero;stroke:none"
         d="m 0,0 8.613,17.417 c 0.013,0.03 0.027,0.06 0.04,0.09 l 0.021,0.048 H 8.67 c 0.455,1.101 0.708,2.306 0.708,3.571 0,5.179 -4.199,9.378 -9.378,9.378 z" /></g><g
       transform="matrix(1.3333333,0,0,-1.3333333,81.350035,0.66859603)"
       id="g1026"><path
         id="path1028"
         style="fill:#ac9393;fill-opacity:1;fill-rule:nonzero;stroke:none"
         d="m 0,0 c 0,-2.741 -2.222,-4.962 -4.962,-4.962 -2.74,0 -4.962,2.221 -4.962,4.962 0,2.74 2.222,4.961 4.962,4.961 C -2.222,4.961 0,2.74 0,0" /></g><g
       transform="matrix(1.3333333,0,0,-1.3333333,74.734165,7.284466)"
       id="g1030"><path
         id="path1032"
         style="fill:#c8b7b7;fill-opacity:1;fill-rule:nonzero;stroke:none"
         d="M 0,0 C 2.74,0 4.962,2.221 4.962,4.962 4.962,7.702 2.74,9.923 0,9.923 Z" /></g></g><g
     id="g2877"
     transform="matrix(0.49482399,0,0,0.47560283,103.89382,18.184835)"><g
       transform="matrix(1.3333333,0,0,-1.3333333,783.38845,16.441124)"
       id="g610"><path
         id="path612"
         style="fill:#606060;fill-opacity:1;fill-rule:nonzero;stroke:none"
         d="m 0,0 c 0,-18.349 -14.874,-33.224 -33.223,-33.224 -18.349,0 -33.223,14.875 -33.223,33.224 0,18.349 14.874,33.224 33.223,33.224 C -14.874,33.224 0,18.349 0,0" /></g><g
       transform="matrix(1.3333333,0,0,-1.3333333,779.10472,35.470464)"
       id="g1098"><path
         id="path1100"
         style="fill:#e3dbdb;fill-opacity:1;fill-rule:nonzero;stroke:none"
         d="m 0,0 h -0.003 c 2.061,4.325 3.216,9.163 3.216,14.272 0,18.349 -14.874,33.223 -33.224,33.223 -18.348,0 -33.222,-14.874 -33.222,-33.223 0,-5.109 1.155,-9.947 3.215,-14.272 h -0.003 l 0.037,-0.073 c 0.045,-0.093 0.092,-0.184 0.138,-0.278 l 23.747,-47.557 0.007,-0.002 c 1.046,-2.318 3.373,-3.935 6.081,-3.935 2.709,0 5.036,1.617 6.082,3.935 l 0.007,0.002 23.75,47.563 c 0.044,0.091 0.092,0.179 0.135,0.271 z" /></g><g
       transform="matrix(1.3333333,0,0,-1.3333333,739.09032,104.59672)"
       id="g1102"><path
         id="path1104"
         style="fill:#ac9393;fill-opacity:1;fill-rule:nonzero;stroke:none"
         d="M 0,0 C 2.709,0 5.036,1.617 6.082,3.935 L 6.089,3.937 29.839,51.5 c 0.044,0.09 0.092,0.179 0.135,0.271 l 0.037,0.074 h -0.003 c 2.06,4.324 3.216,9.162 3.216,14.272 C 33.224,84.465 18.35,99.34 0,99.34 Z" /></g><g
       transform="matrix(1.3333333,0,0,-1.3333333,706.18272,16.441124)"
       id="g1106"><path
         id="path1108"
         style="fill:#ffffff;fill-opacity:1;fill-rule:nonzero;stroke:none"
         d="m 0,0 c 0,-13.631 11.051,-24.681 24.682,-24.681 13.63,0 24.68,11.05 24.68,24.681 0,13.631 -11.05,24.681 -24.68,24.681 C 11.051,24.681 0,13.631 0,0" /></g><g
       transform="matrix(1.3333333,0,0,-1.3333333,739.09165,49.349264)"
       id="g1110"><path
         id="path1112"
         style="fill:#f1f2f2;fill-opacity:1;fill-rule:nonzero;stroke:none"
         d="M 0,0 C 13.63,0 24.681,11.05 24.681,24.681 24.681,38.312 13.63,49.362 0,49.362 Z" /></g><g
       transform="matrix(1.3333333,0,0,-1.3333333,761.90019,15.782194)"
       id="g1114"><path
         id="path1116"
         style="fill:#483737;fill-opacity:1;fill-rule:nonzero;stroke:none"
         d="m 0,0 c 0,-9.448 -7.659,-17.106 -17.106,-17.106 -9.449,0 -17.108,7.658 -17.108,17.106 0,9.448 7.659,17.107 17.108,17.107 C -7.659,17.107 0,9.448 0,0" /></g><g
       transform="translate(430.74907,102.96233)"
       id="g2812"><g
         id="g902"
         transform="matrix(1.3333333,0,0,-1.3333333,330.07141,-87.278291)"><path
           d="m 0,0 c 0,-9.035 -7.324,-16.359 -16.359,-16.359 -9.035,0 -16.359,7.324 -16.359,16.359 0,9.035 7.324,16.359 16.359,16.359 C -7.324,16.359 0,9.035 0,0"
           style="fill:#c8b7b7;fill-opacity:1;fill-rule:nonzero;stroke:none"
           id="path904" /></g><g
         id="g906"
         transform="matrix(1.3333333,0,0,-1.3333333,308.25887,-65.465761)"><path
           d="m 0,0 c 9.035,0 16.359,7.324 16.359,16.359 0,9.036 -7.324,16.36 -16.359,16.36 z"
           style="fill:#ac9393;fill-opacity:1;fill-rule:nonzero;stroke:none"
           id="path908" /></g><g
         id="g910"
         transform="matrix(1.3333333,0,0,-1.3333333,308.25954,-101.04389)"><path
           d="M 0,0 C 0.368,0 0.667,0.299 0.667,0.667 V 3.834 C 0.667,4.202 0.368,4.501 0,4.501 -0.369,4.501 -0.667,4.202 -0.667,3.834 V 0.667 C -0.667,0.299 -0.369,0 0,0"
           style="fill:#483737;fill-opacity:1;fill-rule:nonzero;stroke:none"
           id="path912" /></g><g
         id="g914"
         transform="matrix(1.3333333,0,0,-1.3333333,327.13647,-88.167631)"><path
           d="m 0,0 h -3.167 c -0.368,0 -0.667,-0.299 -0.667,-0.667 0,-0.368 0.299,-0.667 0.667,-0.667 H 0 c 0.368,0 0.667,0.299 0.667,0.667 C 0.667,-0.299 0.368,0 0,0"
           style="fill:#126ad2;fill-opacity:1;fill-rule:nonzero;stroke:none"
           id="path916" /></g><g
         id="g918"
         transform="matrix(1.3333333,0,0,-1.3333333,308.25954,-73.513901)"><path
           d="m 0,0 c -0.369,0 -0.667,-0.299 -0.667,-0.667 v -3.168 c 0,-0.368 0.298,-0.667 0.667,-0.667 0.368,0 0.667,0.299 0.667,0.667 v 3.168 C 0.667,-0.299 0.368,0 0,0"
           style="fill:#483737;fill-opacity:1;fill-rule:nonzero;stroke:none"
           id="path920" /></g><g
         id="g922"
         transform="matrix(1.3333333,0,0,-1.3333333,294.49394,-87.278291)"><path
           d="m 0,0 c 0,0.368 -0.299,0.667 -0.667,0.667 h -3.167 c -0.368,0 -0.667,-0.299 -0.667,-0.667 0,-0.368 0.299,-0.667 0.667,-0.667 h 3.167 C -0.299,-0.667 0,-0.368 0,0"
           style="fill:#483737;fill-opacity:1;fill-rule:nonzero;stroke:none"
           id="path924" /></g><g
         id="g926"
         transform="matrix(1.3333333,0,0,-1.3333333,291.73087,-96.441091)"><path
           d="m 0,0 2.694,-1.663 c 0.11,-0.068 0.231,-0.101 0.35,-0.101 0.224,0 0.443,0.113 0.569,0.318 0.193,0.312 0.096,0.724 -0.217,0.917 L 0.701,1.135 C 0.39,1.328 -0.023,1.232 -0.217,0.917 -0.411,0.604 -0.313,0.193 0,0"
           style="fill:#483737;fill-opacity:1;fill-rule:nonzero;stroke:none"
           id="path928" /></g><g
         id="g930"
         transform="matrix(1.3333333,0,0,-1.3333333,318.64621,-104.09603)"><path
           d="m 0,0 c -0.312,0.193 -0.725,0.098 -0.918,-0.216 l -1.665,-2.695 c -0.193,-0.314 -0.096,-0.726 0.218,-0.918 0.109,-0.067 0.23,-0.1 0.35,-0.1 0.223,0 0.441,0.112 0.568,0.316 l 1.664,2.695 C 0.411,-0.604 0.313,-0.192 0,0"
           style="fill:#126ad2;fill-opacity:1;fill-rule:nonzero;stroke:none"
           id="path932" /></g><g
         id="g934"
         transform="matrix(1.3333333,0,0,-1.3333333,324.78754,-78.115491)"><path
           d="M 0,0 -2.694,1.663 C -3.008,1.857 -3.419,1.762 -3.612,1.446 -3.806,1.134 -3.709,0.722 -3.396,0.529 l 2.695,-1.664 c 0.109,-0.067 0.23,-0.099 0.35,-0.099 0.223,0 0.442,0.112 0.568,0.317 C 0.411,-0.604 0.313,-0.193 0,0"
           style="fill:#126ad2;fill-opacity:1;fill-rule:nonzero;stroke:none"
           id="path936" /></g><g
         id="g938"
         transform="matrix(1.3333333,0,0,-1.3333333,301.02581,-75.566031)"><path
           d="M 0,0 C -0.312,0.194 -0.724,0.099 -0.918,-0.216 L -2.583,-2.91 c -0.193,-0.314 -0.096,-0.725 0.218,-0.918 0.109,-0.068 0.23,-0.1 0.35,-0.1 0.223,0 0.441,0.112 0.568,0.316 l 1.664,2.694 C 0.411,-0.604 0.314,-0.193 0,0"
           style="fill:#483737;fill-opacity:1;fill-rule:nonzero;stroke:none"
           id="path940" /></g><g
         id="g942"
         transform="matrix(1.3333333,0,0,-1.3333333,300.14687,-99.515231)"><path
           d="m 0,0 c 0.124,-0.214 0.348,-0.333 0.578,-0.333 0.113,0 0.228,0.029 0.334,0.09 0.318,0.184 0.427,0.593 0.242,0.912 l -1.586,2.74 C -0.616,3.729 -1.024,3.835 -1.344,3.652 -1.663,3.468 -1.771,3.06 -1.586,2.74 Z"
           style="fill:#483737;fill-opacity:1;fill-rule:nonzero;stroke:none"
           id="path944" /></g><g
         id="g946"
         transform="matrix(1.3333333,0,0,-1.3333333,320.94181,-93.732691)"><path
           d="M 0,0 C 0.114,0 0.229,0.028 0.333,0.089 L 3.074,1.675 C 3.394,1.86 3.502,2.269 3.318,2.587 3.134,2.906 2.725,3.014 2.406,2.83 L -0.334,1.244 C -0.653,1.06 -0.762,0.651 -0.578,0.332 -0.454,0.118 -0.23,0 0,0"
           style="fill:#126ad2;fill-opacity:1;fill-rule:nonzero;stroke:none"
           id="path948" /></g><g
         id="g950"
         transform="matrix(1.3333333,0,0,-1.3333333,316.37154,-75.041361)"><path
           d="M 0,0 C -0.184,0.319 -0.592,0.427 -0.912,0.243 -1.23,0.059 -1.339,-0.35 -1.154,-0.669 l 1.586,-2.739 c 0.124,-0.214 0.348,-0.333 0.578,-0.333 0.114,0 0.228,0.028 0.334,0.09 0.319,0.184 0.427,0.592 0.243,0.912 z"
           style="fill:#126ad2;fill-opacity:1;fill-rule:nonzero;stroke:none"
           id="path952" /></g><g
         id="g954"
         transform="matrix(1.3333333,0,0,-1.3333333,295.13061,-80.706691)"><path
           d="m 0,0 -2.74,-1.587 c -0.319,-0.185 -0.428,-0.594 -0.243,-0.912 0.124,-0.214 0.347,-0.333 0.578,-0.333 0.113,0 0.228,0.028 0.334,0.09 l 2.74,1.587 c 0.319,0.184 0.427,0.593 0.243,0.912 C 0.728,0.076 0.32,0.183 0,0"
           style="fill:#483737;fill-opacity:1;fill-rule:nonzero;stroke:none"
           id="path956" /></g><g
         id="g958"
         transform="matrix(1.3333333,0,0,-1.3333333,310.89567,-99.364161)"><path
           d="m 0,0 c -0.359,0.078 -0.715,-0.15 -0.794,-0.509 l -1.323,-6.066 c -0.008,-0.034 0,-0.067 -0.002,-0.101 -1.259,-0.074 -2.261,-1.11 -2.261,-2.388 0,-0.009 0.003,-0.017 0.003,-0.026 -0.032,-0.004 -0.062,10e-4 -0.093,-0.008 l -5.918,-1.729 c -0.354,-0.104 -0.557,-0.474 -0.453,-0.827 0.085,-0.292 0.351,-0.481 0.639,-0.481 0.062,0 0.125,0.009 0.188,0.028 l 5.918,1.729 c 0.033,0.01 0.056,0.031 0.086,0.045 0.424,-0.679 1.173,-1.134 2.033,-1.134 1.327,0 2.402,1.075 2.402,2.403 0,0.918 -0.52,1.706 -1.277,2.11 0.013,0.032 0.031,0.06 0.039,0.095 L 0.51,-0.794 C 0.588,-0.434 0.36,-0.078 0,0"
           style="fill:#483737;fill-opacity:1;fill-rule:nonzero;stroke:none"
           id="path960" /></g><g
         id="g962"
         transform="matrix(1.3333333,0,0,-1.3333333,327.13647,-88.167631)"><path
           d="m 0,0 h -3.167 c -0.368,0 -0.667,-0.299 -0.667,-0.667 0,-0.368 0.299,-0.667 0.667,-0.667 H 0 c 0.368,0 0.667,0.299 0.667,0.667 C 0.667,-0.299 0.368,0 0,0"
           style="fill:#6c5353;fill-opacity:1;fill-rule:nonzero;stroke:none"
           id="path964" /></g><g
         id="g966"
         transform="matrix(1.3333333,0,0,-1.3333333,318.64621,-104.09603)"><path
           d="m 0,0 c -0.312,0.193 -0.725,0.098 -0.918,-0.216 l -1.665,-2.695 c -0.193,-0.314 -0.096,-0.726 0.218,-0.918 0.109,-0.067 0.23,-0.1 0.35,-0.1 0.223,0 0.441,0.112 0.568,0.316 l 1.664,2.695 C 0.411,-0.604 0.313,-0.192 0,0"
           style="fill:#6c5353;fill-opacity:1;fill-rule:nonzero;stroke:none"
           id="path968" /></g><g
         id="g970"
         transform="matrix(1.3333333,0,0,-1.3333333,324.78754,-78.115491)"><path
           d="M 0,0 -2.694,1.663 C -3.008,1.857 -3.419,1.762 -3.612,1.446 -3.806,1.134 -3.709,0.722 -3.396,0.529 l 2.695,-1.664 c 0.109,-0.067 0.23,-0.099 0.35,-0.099 0.223,0 0.442,0.112 0.568,0.317 C 0.411,-0.604 0.313,-0.193 0,0"
           style="fill:#6c5353;fill-opacity:1;fill-rule:nonzero;stroke:none"
           id="path972" /></g><g
         id="g974"
         transform="matrix(1.3333333,0,0,-1.3333333,320.94181,-93.732691)"><path
           d="M 0,0 C 0.114,0 0.229,0.028 0.333,0.089 L 3.074,1.675 C 3.394,1.86 3.502,2.269 3.318,2.587 3.134,2.906 2.725,3.014 2.406,2.83 L -0.334,1.244 C -0.653,1.06 -0.762,0.651 -0.578,0.332 -0.454,0.118 -0.23,0 0,0"
           style="fill:#6c5353;fill-opacity:1;fill-rule:nonzero;stroke:none"
           id="path976" /></g><g
         id="g978"
         transform="matrix(1.3333333,0,0,-1.3333333,316.37154,-75.041361)"><path
           d="M 0,0 C -0.184,0.319 -0.592,0.427 -0.912,0.243 -1.23,0.059 -1.339,-0.35 -1.154,-0.669 l 1.586,-2.739 c 0.124,-0.214 0.348,-0.333 0.578,-0.333 0.114,0 0.228,0.028 0.334,0.09 0.319,0.184 0.427,0.592 0.243,0.912 z"
           style="fill:#6c5353;fill-opacity:1;fill-rule:nonzero;stroke:none"
           id="path980" /></g><g
         id="g982"
         transform="matrix(1.3333333,0,0,-1.3333333,310.89567,-99.364161)"><path
           d="m 0,0 c -0.359,0.078 -0.715,-0.15 -0.794,-0.509 l -1.183,-5.425 v -5.533 c 1.327,0 2.402,1.075 2.402,2.403 0,0.918 -0.52,1.706 -1.277,2.11 0.013,0.032 0.031,0.06 0.039,0.095 L 0.51,-0.794 C 0.588,-0.434 0.36,-0.078 0,0"
           style="fill:#6c5353;fill-opacity:1;fill-rule:nonzero;stroke:none"
           id="path984" /></g><g
         id="g986"
         transform="matrix(1.3333333,0,0,-1.3333333,309.14887,-101.93323)"><path
           d="M 0,0 V 3.167 C 0,3.535 -0.299,3.834 -0.667,3.834 V -0.667 C -0.299,-0.667 0,-0.368 0,0"
           style="fill:#483737;fill-opacity:1;fill-rule:nonzero;stroke:none"
           id="path988" /></g><g
         id="g990"
         transform="matrix(1.3333333,0,0,-1.3333333,309.14887,-68.400701)"><path
           d="M 0,0 V 3.168 C 0,3.536 -0.299,3.835 -0.667,3.835 V -0.667 C -0.299,-0.667 0,-0.368 0,0"
           style="fill:#483737;fill-opacity:1;fill-rule:nonzero;stroke:none"
           id="path992" /></g></g></g></svg>
