<?xml version="1.0" encoding="UTF-8" standalone="no"?>
<!-- Created with Inkscape (http://www.inkscape.org/) -->

<svg
   xmlns:dc="http://purl.org/dc/elements/1.1/"
   xmlns:cc="http://creativecommons.org/ns#"
   xmlns:rdf="http://www.w3.org/1999/02/22-rdf-syntax-ns#"
   xmlns:svg="http://www.w3.org/2000/svg"
   xmlns="http://www.w3.org/2000/svg"
   xmlns:sodipodi="http://sodipodi.sourceforge.net/DTD/sodipodi-0.dtd"
   xmlns:inkscape="http://www.inkscape.org/namespaces/inkscape"
   width="450"
   height="450"
   viewBox="0 0 119.0625 119.0625"
   version="1.1"
   id="svg8"
   inkscape:version="0.92.3 (2405546, 2018-03-11)"
   sodipodi:docname="developer.svg">
  <defs
     id="defs2">
    <clipPath
       id="clipPath833"
       clipPathUnits="userSpaceOnUse">
      <path
         inkscape:connector-curvature="0"
         id="path831"
         d="M 0,500 H 500 V 0 H 0 Z" />
    </clipPath>
    <clipPath
       id="clipPath879"
       clipPathUnits="userSpaceOnUse">
      <path
         inkscape:connector-curvature="0"
         id="path877"
         d="M 101.134,70.5099 H 393.305 V 50.8571 H 101.134 Z" />
    </clipPath>
  </defs>
  <sodipodi:namedview
     id="base"
     pagecolor="#ffffff"
     bordercolor="#666666"
     borderopacity="1.0"
     inkscape:pageopacity="0.0"
     inkscape:pageshadow="2"
     inkscape:zoom="1.1177778"
     inkscape:cx="225"
     inkscape:cy="225"
     inkscape:document-units="mm"
     inkscape:current-layer="layer1"
     showgrid="false"
     inkscape:measure-start="0,0"
     inkscape:measure-end="0,0"
     units="px"
     inkscape:window-width="1366"
     inkscape:window-height="713"
     inkscape:window-x="0"
     inkscape:window-y="27"
     inkscape:window-maximized="1" />
  <metadata
     id="metadata5">
    <rdf:RDF>
      <cc:Work
         rdf:about="">
        <dc:format>image/svg+xml</dc:format>
        <dc:type
           rdf:resource="http://purl.org/dc/dcmitype/StillImage" />
        <dc:title></dc:title>
      </cc:Work>
    </rdf:RDF>
  </metadata>
  <g
     inkscape:label="Capa 1"
     inkscape:groupmode="layer"
     id="layer1"
     transform="translate(0,-177.93748)">
    <g
       id="g2409"
       transform="matrix(0.88313029,0,0,0.88313029,-20.205515,146.70503)">
      <g
         transform="matrix(0.35277777,0,0,-0.35277777,0.29072478,177.95974)"
         id="g827">
        <g
           clip-path="url(#clipPath833)"
           id="g829">
          <g
             transform="translate(73.2056,113.332)"
             id="g835">
            <path
               inkscape:connector-curvature="0"
               id="path837"
               style="fill:#78baff;fill-opacity:1;fill-rule:nonzero;stroke:none"
               d="m 0,0 h 361.459 c 2.957,0 5.375,2.419 5.375,5.375 v 265.216 c 0,2.956 -2.418,5.375 -5.375,5.375 H 0 c -2.956,0 -5.375,-2.419 -5.375,-5.375 V 5.375 C -5.375,2.419 -2.956,0 0,0" />
          </g>
          <g
             transform="translate(434.665,389.2979)"
             id="g839">
            <path
               inkscape:connector-curvature="0"
               id="path841"
               style="fill:#ffffff;fill-opacity:1;fill-rule:nonzero;stroke:none"
               d="m 0,0 h -361.459 c -2.957,0 -5.375,-2.418 -5.375,-5.375 V -18.419 H 5.375 V -5.375 C 5.375,-2.418 2.956,0 0,0" />
          </g>
          <g
             transform="translate(89.1802,380.1909)"
             id="g843">
            <path
               inkscape:connector-curvature="0"
               id="path845"
               style="fill:#4e88c4;fill-opacity:1;fill-rule:nonzero;stroke:none"
               d="m 0,0 c -0.009,-2.23 -1.825,-4.031 -4.055,-4.021 -2.23,0.009 -4.031,1.824 -4.022,4.054 0.01,2.231 1.825,4.031 4.055,4.022 C -1.792,4.046 0.009,2.23 0,0" />
          </g>
          <g
             transform="translate(101.7432,380.1396)"
             id="g847">
            <path
               inkscape:connector-curvature="0"
               id="path849"
               style="fill:#4e88c4;fill-opacity:1;fill-rule:nonzero;stroke:none"
               d="m 0,0 c -0.009,-2.23 -1.824,-4.031 -4.055,-4.022 -2.23,0.009 -4.03,1.825 -4.021,4.055 0.009,2.23 1.824,4.031 4.055,4.022 C -1.791,4.045 0.009,2.23 0,0" />
          </g>
          <g
             transform="translate(114.3066,380.0879)"
             id="g851">
            <path
               inkscape:connector-curvature="0"
               id="path853"
               style="fill:#4e88c4;fill-opacity:1;fill-rule:nonzero;stroke:none"
               d="m 0,0 c -0.009,-2.23 -1.824,-4.031 -4.055,-4.021 -2.23,0.009 -4.03,1.824 -4.021,4.054 0.009,2.231 1.824,4.031 4.055,4.022 C -1.792,4.046 0.009,2.23 0,0" />
          </g>
          <path
             inkscape:connector-curvature="0"
             id="path855"
             style="fill:#018bff;fill-opacity:1;fill-rule:nonzero;stroke:none"
             d="M 411.07,276.471 H 96.801 V 352.15 H 411.07 Z" />
          <path
             inkscape:connector-curvature="0"
             id="path857"
             style="fill:#018bff;fill-opacity:1;fill-rule:nonzero;stroke:none"
             d="M 167.072,218.742 H 96.801 v 44.583 h 70.271 z" />
          <path
             inkscape:connector-curvature="0"
             id="path859"
             style="fill:#2a74b3;fill-opacity:1;fill-rule:nonzero;stroke:none"
             d="M 409.752,184.931 H 96.801 v 6.219 h 312.951 z" />
          <path
             inkscape:connector-curvature="0"
             id="path861"
             style="fill:#2a74b3;fill-opacity:1;fill-rule:nonzero;stroke:none"
             d="M 409.752,147.804 H 96.801 v 6.219 h 312.951 z" />
          <path
             inkscape:connector-curvature="0"
             id="path863"
             style="fill:#018bff;fill-opacity:1;fill-rule:nonzero;stroke:none"
             d="M 409.752,132.701 H 96.801 v 6.218 h 312.951 z" />
          <path
             inkscape:connector-curvature="0"
             id="path865"
             style="fill:#2a74b3;fill-opacity:1;fill-rule:nonzero;stroke:none"
             d="M 409.752,200.663 H 96.801 v 6.219 h 312.951 z" />
          <path
             inkscape:connector-curvature="0"
             id="path867"
             style="fill:#018bff;fill-opacity:1;fill-rule:nonzero;stroke:none"
             d="m 248.188,218.742 h -70.271 v 44.583 h 70.271 z" />
          <path
             inkscape:connector-curvature="0"
             id="path869"
             style="fill:#018bff;fill-opacity:1;fill-rule:nonzero;stroke:none"
             d="m 329.304,218.742 h -70.271 v 44.583 h 70.271 z" />
          <path
             inkscape:connector-curvature="0"
             id="path871"
             style="fill:#018bff;fill-opacity:1;fill-rule:nonzero;stroke:none"
             d="m 410.419,218.742 h -70.271 v 44.583 h 70.271 z" />
          <g
             id="g873">
            <g
               id="g875" />
            <g
               id="g887">
              <g
                 style="opacity:0.66999799"
                 id="g885"
                 clip-path="url(#clipPath879)">
                <g
                   id="g883"
                   transform="translate(393.3057,60.6836)">
                  <path
                     inkscape:connector-curvature="0"
                     id="path881"
                     style="fill:#4e88c4;fill-opacity:1;fill-rule:nonzero;stroke:none"
                     d="m 0,0 c 0,-5.427 -65.405,-9.826 -146.086,-9.826 -80.681,0 -146.086,4.399 -146.086,9.826 0,5.427 65.405,9.826 146.086,9.826 C -65.405,9.826 0,5.427 0,0" />
                </g>
              </g>
            </g>
          </g>
          <g
             transform="translate(304.7783,62.4531)"
             id="g889">
            <path
               inkscape:connector-curvature="0"
               id="path891"
               style="fill:#ede9ed;fill-opacity:1;fill-rule:nonzero;stroke:none"
               d="M 0,0 C 0,0 14.97,-2.558 31.054,-2.558 45.961,-2.558 60.345,0 60.345,0 L 59.176,2.596 C 54.036,14.005 34.588,9.567 30.173,21.342 26.493,9.567 6.309,14.005 1.17,2.596 Z" />
          </g>
          <path
             inkscape:connector-curvature="0"
             id="path893"
             style="fill:#ede9ed;fill-opacity:1;fill-rule:nonzero;stroke:none"
             d="m 331.271,75.201 h 8.095 V 151 h -8.095 z" />
          <g
             transform="translate(333.5742,81.415)"
             id="g895">
            <path
               inkscape:connector-curvature="0"
               id="path897"
               style="fill:#f6d1a0;fill-opacity:1;fill-rule:nonzero;stroke:none"
               d="m 0,0 -3.531,7.725 -7.74,-2.85 2.148,-7.947 z" />
          </g>
          <g
             transform="translate(333.5605,81.5332)"
             id="g899">
            <path
               inkscape:connector-curvature="0"
               id="path901"
               style="fill:#151e1c;fill-opacity:1;fill-rule:nonzero;stroke:none"
               d="m 0,0 1.857,-6.312 -8.182,-2.585 c 0,0 -18.473,-7.755 -21.915,-4.16 -1.576,1.649 4.437,3.274 8.297,5.829 3.86,2.555 9.922,6.164 9.922,6.164 0,0 5.325,-0.2 10.021,1.064" />
          </g>
          <g
             transform="translate(292.6836,70)"
             id="g903">
            <path
               inkscape:connector-curvature="0"
               id="path905"
               style="fill:#f6d1a0;fill-opacity:1;fill-rule:nonzero;stroke:none"
               d="M 0,0 -1.206,8.407 -9.437,7.858 -9.619,-0.372 Z" />
          </g>
          <g
             transform="translate(292.7031,70.1182)"
             id="g907">
            <path
               inkscape:connector-curvature="0"
               id="path909"
               style="fill:#151e1c;fill-opacity:1;fill-rule:nonzero;stroke:none"
               d="m 0,0 v -6.579 l -8.58,-0.17 c 0,0 -19.911,-2.225 -22.197,2.196 -1.047,2.026 5.18,1.888 9.605,3.249 4.424,1.361 11.259,3.112 11.259,3.112 0,0 5.051,-1.696 9.913,-1.808" />
          </g>
          <g
             transform="translate(218.2759,214.9326)"
             id="g911">
            <path
               inkscape:connector-curvature="0"
               id="path913"
               style="fill:#eabc89;fill-opacity:1;fill-rule:nonzero;stroke:none"
               d="M 0,0 11.37,3.772 21.437,1.225 c 5.667,1.472 7.553,1.39 19.157,4.375 9.798,2.519 21.05,7.544 21.05,7.544 l 8.341,13.982 c 5.396,-0.49 16.731,-6.378 16.731,-6.378 0,0 -15.505,-21.096 -19.921,-22.567 -4.415,-1.472 -34.183,-5.102 -45.531,-3.8 -3.574,0.41 -10.569,4.193 -10.569,4.193 l -8.972,-1.49 -6.996,-4.723 -1.222,1.012 2.784,3.049 z" />
          </g>
          <g
             transform="translate(296.8623,268.6851)"
             id="g915">
            <path
               inkscape:connector-curvature="0"
               id="path917"
               style="fill:#ffda70;fill-opacity:1;fill-rule:nonzero;stroke:none"
               d="M 0,0 C 0,0 14.458,-2.42 14.212,-15.421 14.053,-23.889 2.438,-39.707 2.438,-39.707 c 0,0 -6.378,8.832 -14.228,11.285 0,0 5.099,14.955 6.658,19.632 C -3.172,-2.91 0,0 0,0" />
          </g>
          <path
             inkscape:connector-curvature="0"
             id="path919"
             style="fill:#ede9ed;fill-opacity:1;fill-rule:nonzero;stroke:none"
             d="m 320.969,137.753 h 28.7 v 15.454 h -28.7 z" />
          <g
             transform="translate(324.8145,213.3125)"
             id="g921">
            <path
               inkscape:connector-curvature="0"
               id="path923"
               style="fill:#ede9ed;fill-opacity:1;fill-rule:nonzero;stroke:none"
               d="m 0,0 c -1.413,18.695 -2.42,37.418 -3.044,56.155 17.74,7.898 57.314,4.373 61.015,-7.346 3.926,-12.435 -11.039,-47.834 -11.039,-61.08 0,-13.247 5.151,-22.814 5.887,-28.701 0.736,-5.887 -2.944,-10.302 -2.944,-10.302 H 4.512 C 3.356,-34.161 1.29,-17.074 0,0" />
          </g>
          <g
             transform="translate(324.8145,213.3125)"
             id="g925">
            <path
               inkscape:connector-curvature="0"
               id="path927"
               style="fill:#ffffff;fill-opacity:1;fill-rule:nonzero;stroke:none"
               d="m 0,0 c -1.473,19.483 -2.501,38.997 -3.118,58.525 19.497,4.557 50.475,0.586 53.729,-9.716 3.927,-12.435 -11.039,-47.834 -11.039,-61.08 0,-13.247 5.152,-22.814 5.888,-28.701 0.736,-5.887 -2.943,-10.302 -2.943,-10.302 H 4.512 C 3.356,-34.161 1.29,-17.074 0,0" />
          </g>
          <g
             transform="translate(289.3252,148.0557)"
             id="g929">
            <path
               inkscape:connector-curvature="0"
               id="path931"
               style="fill:#ffffff;fill-opacity:1;fill-rule:nonzero;stroke:none"
               d="m 0,0 h 77.406 c 4.396,0 7.958,3.563 7.958,7.959 v 6.023 H 0 Z" />
          </g>
          <g
             transform="translate(305.5146,194.1729)"
             id="g933">
            <path
               inkscape:connector-curvature="0"
               id="path935"
               style="fill:#251f3e;fill-opacity:1;fill-rule:nonzero;stroke:none"
               d="m 0,0 c 0,0 -40.838,-24.264 -43.267,-34.281 -2.897,-11.954 16.689,-82.745 16.689,-82.745 4.619,-3.108 13.182,-2.058 16.332,0.769 0,0 -15.756,60.573 -14.039,64.62 4.203,9.906 39.984,21.71 51.268,32.503 11.285,10.793 12.265,21.096 12.265,21.096 z" />
          </g>
          <g
             transform="translate(352.2012,205.0234)"
             id="g937">
            <path
               inkscape:connector-curvature="0"
               id="path939"
               style="fill:#312c48;fill-opacity:1;fill-rule:nonzero;stroke:none"
               d="m 0,0 c 0,0 13.91,-29.003 1.4,-40.777 -5.727,-5.391 -39.992,-0.492 -41.954,-5.888 l 20.686,-68.724 c 0,0 -3.648,-2.217 -11.007,-5.897 0,0 -43.04,75.848 -38.624,85.66 4.415,9.812 34.097,15.454 35.568,20.851 1.472,5.396 2.453,14.227 2.453,14.227 z" />
          </g>
          <g
             transform="translate(293.1934,283.6934)"
             id="g941">
            <path
               inkscape:connector-curvature="0"
               id="path943"
               style="fill:#f6d1a0;fill-opacity:1;fill-rule:nonzero;stroke:none"
               d="m 0,0 c 0.888,-3.368 2.467,-7.078 5.772,-8.174 3.039,-1.008 6.267,0.618 9.017,2.257 3.236,1.926 6.518,4.04 8.587,7.186 3.141,4.775 5.681,10.608 5.328,16.312 -0.124,2.016 -3.075,4.489 -4.299,6.096 -0.864,1.135 -2.155,1.857 -3.443,2.47 -3.059,1.457 -6.323,2.477 -9.667,3.022 C 5.713,30.078 -0.494,28.83 -1.61,22.7 -2.938,15.404 -1.871,7.096 0,0" />
          </g>
          <g
             transform="translate(301.3535,296.6919)"
             id="g945">
            <path
               inkscape:connector-curvature="0"
               id="path947"
               style="fill:#44263d;fill-opacity:1;fill-rule:nonzero;stroke:none"
               d="m 0,0 c 0,-0.843 0.683,-1.526 1.525,-1.526 0.843,0 1.527,0.683 1.527,1.526 0,0.843 -0.684,1.526 -1.527,1.526 C 0.683,1.526 0,0.843 0,0" />
          </g>
          <g
             transform="translate(292.6885,296.6919)"
             id="g949">
            <path
               inkscape:connector-curvature="0"
               id="path951"
               style="fill:#44263d;fill-opacity:1;fill-rule:nonzero;stroke:none"
               d="m 0,0 c 0,-0.843 0.684,-1.526 1.526,-1.526 0.843,0 1.526,0.683 1.526,1.526 0,0.843 -0.683,1.526 -1.526,1.526 C 0.684,1.526 0,0.843 0,0" />
          </g>
          <g
             transform="translate(304.2412,300.7866)"
             id="g953">
            <path
               inkscape:connector-curvature="0"
               id="path955"
               style="fill:#44263d;fill-opacity:1;fill-rule:nonzero;stroke:none"
               d="m 0,0 c -2.394,0 -4.342,-1.943 -4.342,-4.332 0,-2.389 1.948,-4.332 4.342,-4.332 2.394,0 4.341,1.943 4.341,4.332 C 4.341,-1.943 2.394,0 0,0 m 0,-9.647 c -2.936,0 -5.324,2.384 -5.324,5.315 0,2.931 2.388,5.315 5.324,5.315 2.936,0 5.323,-2.384 5.323,-5.315 0,-2.931 -2.387,-5.315 -5.323,-5.315" />
          </g>
          <g
             transform="translate(296.2266,299.2861)"
             id="g957">
            <path
               inkscape:connector-curvature="0"
               id="path959"
               style="fill:#44263d;fill-opacity:1;fill-rule:nonzero;stroke:none"
               d="M 0,0 -0.785,0.593 C -0.131,1.458 0.836,1.968 1.939,2.03 3.131,2.1 4.332,1.616 5.164,0.742 L 4.451,0.064 C 3.816,0.732 2.887,1.097 1.995,1.049 1.185,1.003 0.477,0.63 0,0" />
          </g>
          <g
             transform="translate(292.501,300.7866)"
             id="g961">
            <path
               inkscape:connector-curvature="0"
               id="path963"
               style="fill:#44263d;fill-opacity:1;fill-rule:nonzero;stroke:none"
               d="m 0,0 c -2.394,0 -4.341,-1.943 -4.341,-4.332 0,-2.389 1.947,-4.332 4.341,-4.332 2.394,0 4.341,1.943 4.341,4.332 C 4.341,-1.943 2.394,0 0,0 m 0,-9.647 c -2.936,0 -5.323,2.384 -5.323,5.315 0,2.931 2.387,5.315 5.323,5.315 2.936,0 5.323,-2.384 5.323,-5.315 0,-2.931 -2.387,-5.315 -5.323,-5.315" />
          </g>
          <g
             transform="translate(332.5596,274.5112)"
             id="g965">
            <path
               inkscape:connector-curvature="0"
               id="path967"
               style="fill:#f6d1a0;fill-opacity:1;fill-rule:nonzero;stroke:none"
               d="m 0,0 c 0,0 -0.062,1.102 -3.986,2.083 -1.126,0.281 -2.535,0.283 -3.431,1.066 -3.176,2.779 -6.094,7.947 -7.177,11.757 -0.16,0.564 -0.317,1.161 -0.169,1.729 -2.652,-2.248 -5.216,-4.601 -7.682,-7.052 -0.845,-0.839 -5.953,-0.364 -5.336,-1.502 0.173,-0.318 1.474,-3.295 2.755,-6.179 -2.479,-1.623 -5.207,-3.744 -5.207,-3.744 l -3.435,-19.134 10.058,-5.642 c 0,0 11.283,2.453 18.642,6.378 C 2.392,-16.315 0,0 0,0" />
          </g>
          <g
             transform="translate(328.5732,276.5937)"
             id="g969">
            <path
               inkscape:connector-curvature="0"
               id="path971"
               style="fill:#ffb300;fill-opacity:1;fill-rule:nonzero;stroke:none"
               d="m 0,0 c 0,0 -2.943,-5.396 -10.303,-8.585 -7.359,-3.189 -13.982,6.377 -13.982,6.377 l -7.426,-5.701 c 0,0 -0.669,-26.082 2.52,-40.31 3.189,-14.227 6.132,-34.202 6.132,-34.202 0,0 3.289,-4.822 7.493,-5.107 5.142,-0.348 12.225,3.679 23.416,1.673 12.415,-2.227 21.658,-0.273 21.658,-0.273 0,0 -9.551,46.67 -11.759,55.991 -2.208,9.322 -7.937,28.42 -7.937,28.42 0,0 -4.906,1.227 -9.812,1.717" />
          </g>
          <g
             transform="translate(198.6167,207.1094)"
             id="g973">
            <path
               inkscape:connector-curvature="0"
               id="path975"
               style="fill:#ede9ed;fill-opacity:1;fill-rule:nonzero;stroke:none"
               d="M 0,0 H 42.933 V 3.705 H -3.008 V 3.008 C -3.008,1.347 -1.661,0 0,0" />
          </g>
          <g
             transform="translate(212.2017,253.0308)"
             id="g977">
            <path
               inkscape:connector-curvature="0"
               id="path979"
               style="fill:#ffffff;fill-opacity:1;fill-rule:nonzero;stroke:none"
               d="m 0,0 c 1.277,0 2.417,-0.8 2.852,-2.001 l 14.589,-40.266 -0.901,-0.375 0.238,-0.703 -33.371,1.129 -14.203,38.132 c -0.739,1.982 0.728,4.093 2.844,4.093 z" />
          </g>
          <g
             transform="translate(200.7856,229.1914)"
             id="g981" />
          <g
             transform="translate(298.1973,299.9893)"
             id="g985">
            <path
               inkscape:connector-curvature="0"
               id="path987"
               style="fill:#44263d;fill-opacity:1;fill-rule:nonzero;stroke:none"
               d="m 0,0 c 0.056,-2.942 -1.13,-5.148 -2.359,-7.726 -0.539,-1.128 -0.996,-2.672 -0.553,-3.912 0.064,-0.179 0.222,-0.329 0.424,-0.323 1.14,0.034 2.448,0.819 3.485,1.283 0.427,0.191 0.122,0.923 -0.321,0.762 -0.488,-0.177 -0.985,-0.434 -1.483,-0.57 -1.058,-0.289 -1.239,-0.462 -1.281,0.661 -0.053,1.387 1.184,2.895 1.702,4.153 C 0.374,-3.825 0.658,-1.986 0.489,0 0.463,0.309 -0.006,0.32 0,0" />
          </g>
          <g
             transform="translate(302.1426,302.6982)"
             id="g989">
            <path
               inkscape:connector-curvature="0"
               id="path991"
               style="fill:#44263d;fill-opacity:1;fill-rule:nonzero;stroke:none"
               d="M 0,0 C 0.6,-0.196 1.243,-0.183 1.868,-0.239 2.527,-0.298 3.182,-0.388 3.839,-0.465 4.687,-0.565 4.893,0.901 4.042,1.036 2.798,1.233 1.238,1.543 0,1.235 -0.64,1.076 -0.577,0.189 0,0" />
          </g>
          <g
             transform="translate(292.3564,302.6763)"
             id="g993">
            <path
               inkscape:connector-curvature="0"
               id="path995"
               style="fill:#44263d;fill-opacity:1;fill-rule:nonzero;stroke:none"
               d="m 0,0 c 1.042,-0.169 2.103,0.008 3.159,-0.063 0.989,-0.067 0.956,1.42 0,1.522 C 2.064,1.576 0.788,1.552 -0.112,0.861 -0.39,0.648 -0.449,0.073 0,0" />
          </g>
          <g
             transform="translate(309.0898,297.4351)"
             id="g997">
            <path
               inkscape:connector-curvature="0"
               id="path999"
               style="fill:#44263d;fill-opacity:1;fill-rule:nonzero;stroke:none"
               d="M 0,0 C 1.042,0.12 2.023,0.516 3.021,0.83 4.006,1.14 5.096,1.363 5.984,1.9 6.277,2.077 6.162,2.562 5.807,2.555 4.769,2.536 3.732,2.124 2.754,1.797 1.763,1.467 0.718,1.174 -0.163,0.6 -0.404,0.442 -0.342,-0.04 0,0" />
          </g>
          <g
             transform="translate(301.4424,305.1201)"
             id="g1001">
            <path
               inkscape:connector-curvature="0"
               id="path1003"
               style="fill:#312c48;fill-opacity:1;fill-rule:nonzero;stroke:none"
               d="m 0,0 c -4.773,0.314 -9.794,0.342 -13.967,2.516 -2.028,1.056 -3.848,2.742 -4.237,4.869 -0.388,2.127 1.169,4.594 3.489,4.747 0.479,0.031 0.998,-0.022 1.399,0.223 0.511,0.314 0.595,0.964 0.672,1.528 0.519,3.785 3.703,7.602 7.815,7.509 3.354,-0.075 6.476,-2.657 9.724,-1.875 1,0.24 1.876,0.783 2.792,1.225 2.755,1.33 6,1.771 9.05,1.229 3.22,-0.571 6.634,-3.111 5.846,-6.061 -0.264,-0.986 -0.97,-1.843 -1.158,-2.844 -0.672,-3.568 5.013,-5.347 6.137,-8.817 1.023,-3.157 -2.099,-6.301 -1.859,-9.59 0.133,-1.827 1.199,-3.976 -0.192,-5.276 -0.743,-0.694 -2.01,-0.867 -2.508,-1.729 -0.679,-1.174 0.584,-2.506 0.695,-3.834 0.137,-1.646 -1.743,-3.027 -3.516,-2.887 -1.775,0.14 -3.249,1.45 -3.948,2.969 -0.698,1.519 -0.75,3.221 -0.694,4.871 3.004,0.844 4.853,5.794 2.025,7.059 C 16.06,-3.494 14.456,-5.13 13.885,-6.519 10.901,-1.783 6.139,0 0,0" />
          </g>
          <g
             transform="translate(313.6348,297.501)"
             id="g1005">
            <path
               inkscape:connector-curvature="0"
               id="path1007"
               style="fill:#312c48;fill-opacity:1;fill-rule:nonzero;stroke:none"
               d="m 0,0 c -0.991,-2.283 -1.983,-4.566 -2.975,-6.85 -0.397,-0.915 -0.819,-1.863 -1.578,-2.51 -1.16,-0.988 -2.856,-1.052 -4.349,-0.749 -1.494,0.302 -4.349,1.123 -5.867,0.993 -3.468,-0.297 -6.023,-1.959 -6.244,-2.378 -0.445,-0.848 0.18,-2.167 0.194,-3.125 0.014,-1.006 -0.146,-2.041 -0.663,-2.903 -0.347,-0.577 -0.836,-1.051 -1.297,-1.542 -1.233,-1.311 -2.342,-2.946 -2.242,-4.742 0.138,-2.456 2.401,-4.172 4.45,-5.532 1.311,-0.871 2.671,-1.762 4.218,-2.047 1.039,-0.192 2.106,-0.099 3.158,-0.006 2.192,0.194 4.403,0.392 6.508,1.038 2.104,0.647 4.121,1.784 5.443,3.543 1.129,1.502 1.681,3.348 2.207,5.152 0.849,2.918 1.688,5.876 1.794,8.913 0.098,2.847 -0.45,5.671 -0.738,8.505 C 1.768,-1.767 1.715,0.726 1.86,3.208 1.878,3.509 1.911,4.241 1.465,4.304 0.971,4.374 1.144,3.629 1.075,3.32 0.818,2.155 0.477,1.098 0,0" />
          </g>
          <g
             transform="translate(295.3379,284.4746)"
             id="g1009">
            <path
               inkscape:connector-curvature="0"
               id="path1011"
               style="fill:#f6d1a0;fill-opacity:1;fill-rule:nonzero;stroke:none"
               d="m 0,0 c -0.471,-1.019 -0.229,-2.323 0.576,-3.104 0.363,-0.354 0.86,-0.609 1.363,-0.552 0.503,0.057 0.973,0.505 0.932,1.01 -0.015,0.186 -0.09,0.39 0.009,0.548 0.097,0.154 0.307,0.18 0.488,0.189 0.677,0.036 1.504,-0.007 1.822,-0.606 0.097,-0.182 0.13,-0.394 0.24,-0.569 0.261,-0.415 0.841,-0.467 1.33,-0.427 0.704,0.058 1.4,0.213 2.062,0.46 0.336,0.125 0.673,0.28 0.919,0.542 0.245,0.262 0.383,0.652 0.26,0.989 C 9.899,-1.24 9.646,-1.047 9.403,-0.875 7.281,0.633 1.707,3.693 0,0" />
          </g>
          <g
             transform="translate(296.3887,284.4966)"
             id="g1013">
            <path
               inkscape:connector-curvature="0"
               id="path1015"
               style="fill:#44263d;fill-opacity:1;fill-rule:nonzero;stroke:none"
               d="M 0,0 C 1.115,-0.701 3.452,-0.74 4.526,0.075 4.782,0.27 4.727,0.725 4.351,0.723 3.646,0.718 2.966,0.441 2.252,0.405 1.541,0.369 0.839,0.513 0.13,0.479 -0.124,0.466 -0.22,0.139 0,0" />
          </g>
          <g
             transform="translate(326.3457,157.8525)"
             id="g1017">
            <path
               inkscape:connector-curvature="0"
               id="path1019"
               style="fill:#ffffff;fill-opacity:1;fill-rule:nonzero;stroke:none"
               d="m 0,0 c 0,0 -1.414,39.593 7.425,42.208 8.839,2.614 28.285,1.867 28.285,1.867 l 1.768,-7.096 c 0,0 -25.457,1.867 -28.993,-2.989 -3.535,-4.855 0,-34.364 0,-34.364 z" />
          </g>
          <g
             transform="translate(255.1279,216.166)"
             id="g1021">
            <path
               inkscape:connector-curvature="0"
               id="path1023"
               style="fill:#f6d1a0;fill-opacity:1;fill-rule:nonzero;stroke:none"
               d="M 0,0 11.37,3.772 21.437,1.224 c 5.667,1.473 7.552,1.391 19.157,4.375 9.799,2.519 21.05,7.545 21.05,7.545 l 12.768,19.078 c 5.397,-0.492 12.305,-11.475 12.305,-11.475 0,0 -15.506,-21.096 -19.922,-22.567 C 62.38,-3.292 28.698,-7.198 17.35,-5.896 13.775,-5.487 7.455,-1.574 7.455,-1.574 l -5.732,-1.343 -6.996,-4.722 -1.222,1.011 2.783,3.049 z" />
          </g>
          <g
             transform="translate(338.3848,274.877)"
             id="g1025">
            <path
               inkscape:connector-curvature="0"
               id="path1027"
               style="fill:#ffda70;fill-opacity:1;fill-rule:nonzero;stroke:none"
               d="m 0,0 c 0,0 15.209,-2.453 14.964,-15.454 -0.16,-8.468 -11.775,-24.285 -11.775,-24.285 0,0 -6.377,8.831 -14.227,11.284 0,0 6.133,12.019 6.623,16.926 C -3.925,-6.623 0,0 0,0" />
          </g>
          <g
             transform="translate(232.6504,207.1094)"
             id="g1029">
            <path
               inkscape:connector-curvature="0"
               id="path1031"
               style="fill:#ffffff;fill-opacity:1;fill-rule:nonzero;stroke:none"
               d="M 0,0 H 42.934 V 3.705 H -3.008 V 3.008 C -3.008,1.347 -1.661,0 0,0" />
          </g>
          <path
             inkscape:connector-curvature="0"
             id="path1033"
             style="fill:#ede9ed;fill-opacity:1;fill-rule:nonzero;stroke:none"
             d="m 255.982,208.488 h 15.313 v 1.148 h -15.313 z" />
          <path
             inkscape:connector-curvature="0"
             id="path1035"
             style="fill:#ede9ed;fill-opacity:1;fill-rule:nonzero;stroke:none"
             d="m 251.42,208.488 h 2.265 v 1.148 h -2.265 z" />
          <g
             transform="translate(159.4912,222.6641)"
             id="g1037">
            <path
               inkscape:connector-curvature="0"
               id="path1039"
               style="fill:#ffffff;fill-opacity:1;fill-rule:nonzero;stroke:none"
               d="M 0,0 -2.062,15.2 -1.32,17.965 0.337,15.647 2.245,0.151 Z" />
          </g>
          <g
             transform="translate(169.4922,221.666)"
             id="g1041">
            <path
               inkscape:connector-curvature="0"
               id="path1043"
               style="fill:#ffffff;fill-opacity:1;fill-rule:nonzero;stroke:none"
               d="M 0,0 2.159,15.187 3.627,17.645 4.589,14.964 2.201,-0.466 Z" />
          </g>
          <g
             transform="translate(162.5239,220.4893)"
             id="g1045">
            <path
               inkscape:connector-curvature="0"
               id="path1047"
               style="fill:#ffffff;fill-opacity:1;fill-rule:nonzero;stroke:none"
               d="M 0,0 0.187,15.56 1.515,18.014 2.656,15.519 2.442,-0.021 Z" />
          </g>
          <g
             transform="translate(171.7642,205.4736)"
             id="g1049">
            <path
               inkscape:connector-curvature="0"
               id="path1051"
               style="fill:#ffda70;fill-opacity:1;fill-rule:nonzero;stroke:none"
               d="m 0,0 h -11.764 l -2.133,19.507 H 1.554 Z" />
          </g>
          <g
             transform="translate(323.7383,57.9004)"
             id="g1053">
            <path
               inkscape:connector-curvature="0"
               id="path1055"
               style="fill:#5dd3ff;fill-opacity:1;fill-rule:nonzero;stroke:none"
               d="m 0,0 h 2.819 l -31.76,138.18 h -5.982 z" />
          </g>
          <g
             transform="translate(237.6782,59.3457)"
             id="g1057">
            <path
               inkscape:connector-curvature="0"
               id="path1059"
               style="fill:#5dd3ff;fill-opacity:1;fill-rule:nonzero;stroke:none"
               d="M 0,0 H 2.819 L 23.253,136.734 H 17.272 Z" />
          </g>
          <g
             transform="translate(194.8789,58.5107)"
             id="g1061">
            <path
               inkscape:connector-curvature="0"
               id="path1063"
               style="fill:#5dd3ff;fill-opacity:1;fill-rule:nonzero;stroke:none"
               d="m 0,0 h 2.819 l -22.453,137.569 h -5.981 z" />
          </g>
          <g
             transform="translate(115.7524,59.9727)"
             id="g1065">
            <path
               inkscape:connector-curvature="0"
               id="path1067"
               style="fill:#5dd3ff;fill-opacity:1;fill-rule:nonzero;stroke:none"
               d="M 0,0 H 2.819 L 29.844,136.107 H 23.862 Z" />
          </g>
          <path
             inkscape:connector-curvature="0"
             id="path1069"
             style="fill:#7daee0;fill-opacity:1;fill-rule:nonzero;stroke:none"
             d="m 162.713,196.08 h 148.986 v 6.178 H 162.713 Z" />
          <path
             inkscape:connector-curvature="0"
             id="path1071"
             style="fill:#94bdec;fill-opacity:1;fill-rule:nonzero;stroke:none"
             d="M 114.938,196.08 H 252.33 v 6.178 H 114.938 Z" />
          <path
             inkscape:connector-curvature="0"
             id="path1073"
             style="fill:#94bdec;fill-opacity:1;fill-rule:nonzero;stroke:none"
             d="m 166.026,199.158 h 159.343 v 8.267 H 166.026 Z" />
          <path
             inkscape:connector-curvature="0"
             id="path1075"
             style="fill:#cde2f8;fill-opacity:1;fill-rule:nonzero;stroke:none"
             d="m 94.047,199.158 h 147.748 v 8.267 H 94.047 Z" />
        </g>
      </g>
      <g
         inkscape:label="Capa 1"
         id="layer1-2"
         transform="matrix(0.05058224,0,0,0.05058224,32.238893,24.330502)">
        <g
           id="g31"
           style="fill:#ffffff"
           inkscape:export-xdpi="90"
           inkscape:export-ydpi="90">
          <g
             transform="matrix(2.0803897,0.01058057,-0.01057642,2.0795727,62.404916,278.62497)"
             id="g4003"
             style="fill:#ffffff">
            <path
               d="m 145.07,280.927 c 0,0 0.799,-0.399 1.039,-1.758 0,-0.08 0,-0.16 0,-0.24 v -0.24 c -0.08,-1.278 -1.359,-2.797 -2.797,-4.315 -1.678,-1.678 -3.116,-2.478 -3.116,-2.478 0,0 -0.719,-3.356 -3.756,-7.99 -2.956,-4.635 -8.071,-9.509 -10.867,-8.071 -2.797,1.438 -0.32,5.434 -0.16,6.633 0.24,1.278 1.438,3.356 1.039,3.356 -0.479,-0.08 -6.553,-11.507 -21.735,-8.31 -3.916,0.878 -7.272,2.557 -9.989,4.714 v 26.69 c 0.959,-0.959 1.358,-1.439 1.358,-1.439 0,0 1.039,4.795 2.957,6.953 1.918,2.157 4.235,3.436 4.954,1.837 0.719,-1.518 -1.518,-8.07 -1.518,-8.07 0,0 4.155,3.995 5.354,4.954 1.199,0.958 3.516,2.157 4.155,0 0.559,-2.157 -1.119,-5.433 -2.477,-5.992 -1.278,-0.56 -2.078,-0.56 -2.078,-0.56 0,0 -0.799,-1.039 -1.199,-1.359 -0.479,-0.32 -0.559,-0.319 -0.559,-0.319 0,0 0.719,-0.4 2.957,-0.32 2.317,0.08 4.155,0.16 4.155,0.16 0,0 2.078,3.036 3.356,3.995 1.199,1.039 4.315,3.516 5.434,4.554 1.039,1.039 1.678,1.519 2.078,0.639 0.32,-0.879 -0.24,-3.196 -1.678,-4.874 -1.518,-1.598 -3.116,-2.477 -3.676,-3.276 -0.479,-0.959 -0.799,-1.678 -0.799,-1.678 0,0 2.957,2.157 3.676,2.877 0.799,0.639 6.073,3.915 6.952,4.474 0.879,0.64 1.279,0.24 1.279,0.24 0,0 0.639,0.479 0.879,0.16 0.24,-0.32 0.879,-2.477 -0.799,-3.755 -1.758,-1.359 -2.797,-1.998 -2.637,-2.158 0.08,-0.159 1.838,0.4 2.077,-0.08 0.16,-0.399 -0.08,-1.038 -0.32,-1.198 -0.16,-0.241 0.48,-0.72 0.48,-0.72 0,0 0.639,0 3.276,0.24 2.637,0.24 9.269,-1.997 10.628,-2.477 1.358,-0.48 2.077,-0.799 2.077,-0.799 z m -50.342,34.36 c 5.514,-3.595 5.753,-12.705 2.717,-14.463 -0.879,-0.559 -1.758,-0.958 -2.717,-1.199 v 4.156 c 0.24,0.159 0.48,0.4 0.639,0.799 0.479,0.959 0.24,2.157 0.24,2.157 0,0 -0.08,-1.518 -0.639,-2.317 -0.08,-0.08 -0.16,-0.16 -0.24,-0.24 z m 0,-53.059 c -1.198,0.88 -2.237,1.918 -3.196,2.957 v 26.449 c 0.799,-0.479 1.518,-0.959 2.158,-1.598 0.4,-0.399 0.719,-0.799 1.039,-1.118 z m -3.196,54.417 c 1.199,-0.239 2.317,-0.719 3.196,-1.358 V 304.18 c -0.479,-0.639 -0.879,-1.039 -0.879,-1.039 0,0 0.4,0.16 0.879,0.64 v -4.156 c -1.039,-0.319 -2.158,-0.479 -3.196,-0.239 v 6.952 0 c 0.24,-0.16 0.639,-0.24 0.479,0.32 -0.08,0.32 -0.32,0.319 -0.48,0.32 v 0 4.075 c 0.16,0 0.399,0 0.559,-0.08 0,0 -0.16,0.16 -0.56,0.319 z m 0,-51.46 c -5.594,5.913 -8.071,13.025 -8.63,14.623 -0.879,2.477 -6.552,11.426 -7.032,16.7 -0.4,5.354 -0.479,18.379 11.667,20.137 1.438,0.24 2.797,0.239 3.995,-10e-4 v -5.353 c -1.119,0.319 -3.596,0.639 -6.393,-2.557 -3.756,-4.315 -1.918,-11.347 1.039,-13.745 1.918,-1.598 3.756,-2.477 5.354,-3.356 z m 0,34.2 v 6.952 c -0.24,0.16 -0.4,0.16 -0.559,-0.08 -0.16,0.48 0.16,0.719 0.559,0.719 v 4.075 c -2.557,0.239 -6.073,-1.998 -5.194,-5.514 1.039,-3.994 2.957,-5.752 5.194,-6.152 z"
               inkscape:connector-curvature="0"
               id="path3202"
               style="fill:#ffffff" />
            <g
               inkscape:transform-center-y="-44.562164"
               transform="matrix(0.3825107,0,0,0.3825107,20.089286,125.61275)"
               id="g3217"
               style="fill:#ffffff">
              <path
                 d="m 227.414,246.939 13.283,-0.497 c 7.13,-0.267 16.92,4.74 16.36,13.874 l -3.482,56.799 c -0.436,7.122 -3.506,10.89 -9.149,10.891 h -17.511 c -7.135,-10e-4 -10.136,-4.519 -10.641,-11.636 l -3.979,-56.054 c -0.503,-7.119 5,-12.998 15.119,-13.377 z"
                 inkscape:connector-curvature="0"
                 sodipodi:nodetypes="sssssssss"
                 id="rect3215"
                 style="fill:#ffffff" />
            </g>
            <g
               inkscape:transform-center-y="-36.33424"
               inkscape:transform-center-x="29.82031"
               transform="matrix(0.31077472,-0.25449536,0.25449536,0.31077472,-108.32473,252.83556)"
               id="g3221"
               style="fill:#ffffff">
              <path
                 d="m 364.994,242.27 13.283,-0.498 c 7.129,-0.267 16.919,4.74 16.36,13.874 l -3.481,56.799 c -0.437,7.122 -3.506,10.89 -9.149,10.89 l -17.511,0.001 c -7.135,-0.001 -10.136,-4.519 -10.64,-11.636 l -3.979,-56.054 c -0.506,-7.117 4.998,-12.998 15.117,-13.376 z"
                 inkscape:connector-curvature="0"
                 sodipodi:nodetypes="sssssssss"
                 id="path3223"
                 style="fill:#ffffff" />
            </g>
            <g
               inkscape:transform-center-y="-9.8080536"
               inkscape:transform-center-x="43.056986"
               transform="matrix(0.07828233,-0.37104593,0.37104593,0.07828233,-104.36,429.7208)"
               id="g3225"
               style="fill:#ffffff">
              <path
                 d="m 485.005,307.459 13.284,-0.497 c 7.129,-0.267 16.92,4.739 16.36,13.874 l -3.481,56.8 c -0.436,7.121 -3.506,10.889 -9.149,10.89 h -17.512 c -7.135,0 -10.134,-4.519 -10.64,-11.636 l -3.978,-56.054 c -0.505,-7.117 4.999,-12.998 15.116,-13.377 z"
                 inkscape:connector-curvature="0"
                 sodipodi:nodetypes="sssssssss"
                 id="path3227"
                 style="fill:#ffffff" />
            </g>
            <g
               inkscape:transform-center-y="16.468461"
               inkscape:transform-center-x="30.900947"
               transform="matrix(-0.13902763,-0.26521617,0.26521617,-0.13902763,13.934291,526.86862)"
               id="g3229"
               style="fill:#ffffff">
              <path
                 d="m 584.441,445.677 13.283,-0.497 c 7.131,-0.266 16.921,4.741 16.36,13.874 l -3.48,56.8 c -0.438,7.121 -3.505,10.89 -9.149,10.89 h -17.511 c -7.134,0 -10.135,-4.518 -10.639,-11.635 l -3.98,-56.054 c -0.504,-7.118 4.999,-12.998 15.116,-13.378 z"
                 inkscape:connector-curvature="0"
                 sodipodi:nodetypes="sssssssss"
                 id="path3231"
                 style="fill:#ffffff" />
            </g>
          </g>
          <path
             d="m 1055.4417,888.63524 v -22.046 c 7.283,0 13.418,-2.492 18.402,-7.667 4.793,-5.176 7.285,-11.887 7.285,-19.938 0,-8.053 -2.299,-14.762 -7.285,-19.748 -4.791,-4.984 -10.926,-7.476 -18.402,-7.476 v -22.43 c 8.627,0.191 17.061,2.301 24.73,6.709 7.859,4.41 13.994,10.545 18.404,18.212 4.408,7.479 6.518,15.721 6.518,24.539 0,9.012 -2.109,17.254 -6.518,25.115 -4.602,7.859 -10.545,13.803 -18.213,18.212 -7.476,4.408 -15.911,6.518 -24.921,6.518 z m 0,-99.306 v 22.43 h -0.193 c -7.285,0 -13.42,2.492 -18.404,7.478 -4.791,5.176 -7.283,11.693 -7.283,19.746 0,8.242 2.492,14.953 7.283,19.938 4.793,5.175 10.928,7.667 18.404,7.667 0,0 0,0 0.193,0 v 22.046 c -0.193,0 -0.193,0 -0.385,0 -13.611,0 -25.113,-4.793 -34.699,-14.378 -9.586,-9.777 -14.379,-21.47 -14.379,-35.273 0,-14.762 5.369,-26.84 16.297,-36.81 9.393,-8.435 20.32,-12.844 32.59,-12.844 0.191,0 0.383,0 0.576,0 z m -370.19195,99.114 v -21.472 c 7.476,0 13.61,-2.684 18.403,-7.859 4.984,-5.176 7.477,-11.887 7.477,-20.322 0,-8.242 -2.492,-14.953 -7.477,-19.938 -4.793,-4.984 -10.927,-7.477 -18.403,-7.477 v -21.663 c 3.833,0.384 7.476,1.342 10.927,2.876 4.984,2.108 9.586,5.368 13.803,9.585 v -10.352 h 23.771 v 94.512 h -23.771 v -10.16 c -4.602,4.602 -9.201,7.667 -13.994,9.585 -3.26,1.535 -6.903,2.302 -10.736,2.685 z m 72.274,-96.621 h 23.771 v 10.928 c 4.025,-4.602 8.627,-7.86 13.611,-9.969 4.984,-2.301 10.354,-3.451 16.104,-3.451 5.943,0 11.311,1.533 16.104,4.409 4.793,2.876 8.627,7.093 11.504,12.653 3.643,-5.561 8.434,-9.777 13.803,-12.653 5.559,-2.876 11.502,-4.409 18.02,-4.409 6.711,0 12.654,1.533 17.639,4.793 5.176,3.066 8.818,7.093 11.119,12.27 2.107,4.983 3.258,13.037 3.258,24.347 v 55.595 h -23.771 v -48.118 c 0,-10.736 -1.342,-18.021 -4.025,-21.664 -2.683,-3.643 -6.711,-5.559 -12.078,-5.559 -4.025,0 -7.668,1.15 -10.928,3.452 -3.258,2.107 -5.559,5.367 -7.094,9.393 -1.725,4.219 -2.492,10.736 -2.492,19.746 v 42.751 h -23.771 v -45.817 c 0,-8.627 -0.768,-14.762 -1.916,-18.404 -1.344,-3.834 -3.26,-6.518 -5.752,-8.436 -2.492,-1.725 -5.367,-2.684 -9.01,-2.684 -3.836,0 -7.479,1.15 -10.736,3.452 -3.068,2.107 -5.561,5.559 -7.094,9.777 -1.725,4.217 -2.492,10.926 -2.492,19.938 v 42.175 h -23.771 v -94.515 z m 176.947,-38.91799 c 4.219,0 7.67,1.53399 10.736,4.40999 2.875,3.067 4.40998,6.709 4.40998,10.928 0,4.408 -1.34198,7.859 -4.40998,10.927 -2.875,3.067 -6.518,4.409 -10.543,4.409 -4.219,0 -7.861,-1.533 -10.928,-4.601 -2.877,-2.876 -4.41,-6.71 -4.41,-10.928 0,-4.218 1.533,-7.86 4.41,-10.735 2.876,-3.06799 6.518,-4.40999 10.735,-4.40999 z m -11.885,38.91799 h 23.771 v 94.512 h -23.771 z m 42.74998,-36.618 h 23.773 v 131.129 h -23.773 z m -450.70898,25.881 -17.062,16.296 c -11.694,-12.27 -24.73,-18.404 -39.108,-18.404 -12.27,0 -22.622,4.218 -30.865,12.461 -8.436,8.436 -12.653,18.596 -12.653,30.674 0,8.627 1.917,16.104 5.56,22.812 3.643,6.52 9.011,11.695 15.721,15.529 6.901,3.833 14.378,5.558 22.621,5.558 7.094,0 13.611,-1.148 19.363,-3.833 5.942,-2.684 12.461,-7.477 19.362,-14.377 l 16.487,17.062 c -9.394,9.393 -18.404,15.721 -26.84,19.363 -8.243,3.449 -17.829,5.176 -28.756,5.176 -19.746,0 -36.042,-6.135 -48.887,-18.789 -12.653,-12.652 -18.979,-28.755 -18.979,-48.501 0,-12.653 2.875,-23.964 8.819,-33.933 5.751,-9.777 13.994,-17.829 24.73,-23.771 10.735,-6.135 22.238,-9.203 34.699,-9.203 10.544,0 20.705,2.301 30.482,6.71 9.778,4.601 18.212,10.927 25.306,19.17 z m 170.623,8.627 v 21.663 h -0.191 c -7.477,0 -13.42,2.493 -18.404,7.477 -4.793,5.176 -7.285,11.887 -7.285,19.938 0,8.244 2.492,14.953 7.477,20.322 4.984,5.175 11.119,7.859 18.213,7.859 0.191,0 0.191,0 0.191,0 v 21.472 c -1.342,0.191 -2.875,0.191 -4.408,0.191 -12.27,0 -22.814,-4.602 -31.825,-14.187 -8.818,-9.393 -13.229,-21.279 -13.229,-35.273 0,-14.57 4.217,-26.457 12.844,-35.851 8.627,-9.201 19.172,-13.994 31.442,-13.994 1.915,0 3.45,0.192 5.175,0.383 z m -151.836,-34.508 h 23.581 v 46.203 c 4.602,-4.026 9.395,-7.094 13.994,-9.011 4.793,-2.108 9.395,-3.067 14.188,-3.067 9.201,0 17.254,3.259 23.58,9.777 5.561,5.559 8.244,13.996 8.244,24.73 v 62.497 h -23.389 v -41.601 c 0,-10.928 -0.385,-18.404 -1.535,-22.238 -0.957,-3.834 -2.875,-6.518 -5.176,-8.436 -2.492,-1.917 -5.559,-2.875 -9.201,-2.875 -4.984,0 -9.012,1.534 -12.461,4.793 -3.451,2.875 -5.943,7.285 -7.285,12.844 -0.576,2.877 -0.959,9.203 -0.959,19.363 v 38.149 h -23.581 z"
             inkscape:connector-curvature="0"
             id="path2819"
             style="fill:#ffffff" />
          <path
             d="m 1092.2487,935.98824 v -3.068 0 c 1.918,0 3.451,-0.383 4.984,-1.342 1.535,-0.959 2.686,-2.301 3.451,-4.025 h 3.451 c -0.959,2.684 -2.684,4.793 -4.602,6.326 -2.107,1.342 -4.408,2.109 -7.092,2.109 z m 0,-11.887 v -2.684 h 9.203 c -0.576,-2.684 -1.533,-4.793 -3.26,-6.135 -1.533,-1.342 -3.451,-2.109 -5.943,-2.109 v -3.066 c 0.193,0 0.193,0 0.193,0 3.834,0 6.709,1.342 9.01,3.834 2.301,2.492 3.643,5.941 3.643,9.969 v 0.191 z m 0,-13.994 v 3.066 h -0.191 c -2.301,0 -4.408,0.768 -5.943,2.109 -1.725,1.533 -2.684,3.643 -3.066,6.135 h 9.201 v 2.684 h -9.393 c 0.191,2.684 1.15,4.793 2.875,6.326 1.727,1.725 4.025,2.492 6.518,2.492 v 3.068 c -3.449,0 -6.518,-1.344 -8.818,-3.836 -2.492,-2.492 -3.834,-5.559 -3.834,-9.01 0,-3.834 1.342,-6.9 3.643,-9.393 2.49,-2.299 5.365,-3.449 9.008,-3.641 z m -40.067,25.881 v -2.877 c 0.191,0 0.191,0 0.191,0 2.492,0 4.602,-1.15 6.518,-3.066 1.727,-1.918 2.686,-4.41 2.686,-7.094 0,-2.684 -0.959,-4.984 -2.686,-6.902 -1.916,-1.916 -4.025,-2.875 -6.518,-2.875 0,0 0,0 -0.191,0 v -2.875 c 0.191,0 0.191,0 0.383,0 1.918,0 3.451,0.383 5.176,1.15 1.535,0.766 2.877,1.916 3.834,3.258 v -3.834 h 3.068 v 24.348 h -3.068 v -3.834 c -0.957,1.533 -2.299,2.492 -4.025,3.451 -1.533,0.766 -3.451,1.148 -5.367,1.148 v 0 0.002 z m 20.514,-0.768 h -3.068 v -24.348 h 2.875 v 2.875 c 0.768,-1.148 1.727,-1.916 2.492,-2.492 0.959,-0.574 2.109,-0.766 3.26,-0.766 v 3.451 c -1.916,0.191 -3.451,0.766 -4.217,1.725 -0.768,0.959 -1.342,2.684 -1.342,4.793 z m -20.514,-24.921 v 2.875 c -2.492,0 -4.602,0.959 -6.518,2.875 -1.727,1.918 -2.686,4.41 -2.686,7.285 0,2.684 0.959,4.984 2.686,6.902 1.916,1.916 4.025,2.684 6.518,2.875 v 2.877 0 c -3.451,0 -6.518,-1.344 -8.818,-3.643 -2.492,-2.492 -3.643,-5.561 -3.643,-9.203 0,-3.642 1.15,-6.709 3.643,-9.201 2.301,-2.301 5.367,-3.642 8.818,-3.642 z m -45.435,3.642 v -2.877 l 8.244,24.156 h 1.916 l 5.752,-18.596 5.752,18.596 h 2.107 l 8.244,-24.348 h -3.451 l -5.943,18.213 -5.559,-18.213 h -2.301 l -5.559,18.213 -5.943,-18.213 h -3.26 v 0 3.069 0 0 z m 0,-2.877 v 2.877 h -4.602 v 21.279 h -3.06597 v -21.279 h -4.602 v -3.068 h 4.602 v -7.859 h 3.06597 v 7.859 h 4.602 v 0 z m -38.72497,24.924 v -3.068 c 0,0 0,0 0.191,0 2.492,0 4.793,-0.959 6.518,-2.875 1.725,-1.727 2.684,-4.219 2.684,-7.094 0,-2.875 -0.959,-5.176 -2.684,-7.094 -1.725,-1.725 -4.025,-2.684 -6.709,-2.684 v -3.066 c 3.449,0 6.518,1.342 9.01,3.641 2.492,2.492 3.643,5.561 3.643,9.012 0,3.643 -1.15,6.709 -3.643,9.393 -2.492,2.492 -5.367,3.836 -8.818,3.836 -0.192,-10e-4 -0.192,-10e-4 -0.192,-10e-4 z m 20.703,-0.768 h -3.066 v -21.664 h -3.26 v -2.684 h 3.26 v -0.766 c 0,-2.494 0.574,-4.41 1.916,-5.752 1.344,-1.15 3.26,-1.727 5.943,-1.727 h 0.385 v 2.686 c -1.918,0 -3.26,0.383 -4.027,1.15 -0.766,0.766 -1.15,1.916 -1.15,3.643 v 0.766 h 5.178 v 2.684 h -5.178 v 21.664 z m -20.703,-25.113 v 3.066 h -0.193 c -2.492,0 -4.6,0.959 -6.326,2.684 -1.916,1.918 -2.684,4.41 -2.684,7.094 0,2.875 0.768,5.367 2.684,7.094 1.727,1.916 3.834,2.875 6.52,2.875 v 3.068 c -3.451,0 -6.52,-1.344 -8.82,-3.836 -2.492,-2.492 -3.834,-5.559 -3.834,-9.01 0,-3.643 1.342,-6.709 3.834,-9.201 2.492,-2.686 5.369,-3.834 8.627,-3.834 0.192,0 0.192,0 0.192,0 z m -80.51998,25.881 v -3.068 0 c 2.684,0 4.793,-0.959 6.711,-2.875 1.725,-1.727 2.492,-4.219 2.492,-7.094 0,-2.875 -0.768,-5.176 -2.684,-7.094 -1.727,-1.725 -3.836,-2.684 -6.52,-2.684 v -3.066 c 3.451,0 6.326,1.342 8.818,3.641 2.492,2.492 3.836,5.561 3.836,9.012 0,3.643 -1.344,6.709 -3.643,9.393 -2.49,2.491 -5.558,3.835 -9.01,3.835 z m 16.295,-25.115 h 3.068 v 2.684 c 0.959,-0.957 2.109,-1.916 3.26,-2.492 1.342,-0.383 2.684,-0.766 4.408,-0.766 1.727,0 3.451,0.383 4.793,0.957 1.342,0.768 2.492,1.727 3.26,2.877 0.574,0.959 0.957,1.916 1.342,3.258 0.191,1.15 0.383,2.877 0.383,5.178 v 12.652 h -3.26 v -13.612 c 0,-2.875 -0.574,-4.984 -1.533,-6.326 -1.15,-1.342 -2.875,-1.918 -5.367,-1.918 -1.342,0 -2.684,0.191 -3.643,0.768 -1.15,0.574 -1.918,1.533 -2.684,2.492 -0.385,0.766 -0.576,1.533 -0.768,2.301 -0.191,0.957 -0.191,2.301 -0.191,4.408 v 11.887 h -3.068 z m 30.674,15.144 h 3.068 c 0,2.109 0.574,3.643 1.533,4.793 1.15,1.15 2.492,1.727 4.219,1.727 1.916,0 3.449,-0.576 4.6,-1.727 1.15098,-1.151 1.72698,-2.684 1.72698,-4.793 0,-2.875 -2.30098,-5.176 -6.90198,-6.709 -0.383,0 -0.574,-0.191 -0.768,-0.191 -2.492,-0.768 -4.025,-1.918 -5.176,-3.068 -0.959,-1.342 -1.533,-2.875 -1.533,-4.984 0,-2.492 0.768,-4.6 2.492,-6.326 1.533,-1.533 3.643,-2.492 6.135,-2.492 2.492,0 4.41,0.768 5.75198,2.301 1.533,1.533 2.301,3.643 2.492,6.326 h -3.068 c -0.191,-1.725 -0.76598,-3.066 -1.53298,-4.025 -0.959,-0.959 -2.109,-1.533 -3.643,-1.533 -1.534,0 -2.875,0.574 -3.834,1.533 -1.15,1.15 -1.533,2.492 -1.533,4.025 0,0.959 0,1.533 0.383,2.301 0.383,0.576 0.768,1.15 1.533,1.533 0.576,0.576 1.918,1.15 3.834,1.727 1.15,0.383 1.918,0.766 2.492,0.957 2.10898,0.768 3.64298,1.727 4.60198,3.068 0.959,1.341 1.342,2.875 1.342,4.984 0,3.26 -0.766,5.752 -2.492,7.668 -1.72498,1.918 -4.02498,2.877 -6.89998,2.877 -2.494,0 -4.793,-0.959 -6.328,-2.686 -1.725,-1.916 -2.492,-4.217 -2.492,-7.283 v -0.003 z m -46.969,-15.91 v 3.066 c -0.191,0 -0.191,0 -0.191,0 -2.492,0 -4.793,0.959 -6.518,2.684 -1.727,1.918 -2.684,4.41 -2.684,7.094 0,2.875 0.957,5.367 2.684,7.094 1.916,1.916 4.025,2.875 6.709,2.875 v 3.068 c -3.643,0 -6.518,-1.344 -9.01,-3.836 -2.492,-2.492 -3.643,-5.559 -3.643,-9.01 0,-3.643 1.15,-6.709 3.643,-9.201 2.492,-2.686 5.367,-3.834 8.818,-3.834 10e-4,0 10e-4,0 0.192,0 z m -49.269,25.881 v -2.877 0 c 2.492,0 4.602,-1.15 6.52,-3.066 1.725,-1.918 2.684,-4.41 2.684,-7.094 0,-2.684 -0.959,-4.984 -2.684,-6.902 -1.918,-1.916 -4.027,-2.875 -6.52,-2.875 v 0 -2.875 c 0,0 0,0 0.191,0 1.918,0 3.643,0.383 5.178,1.15 1.533,0.766 2.875,1.916 3.834,3.258 v -3.834 h 3.066 v 24.348 h -3.066 v -3.834 c -0.959,1.533 -2.301,2.492 -3.834,3.451 -1.727,0.766 -3.451,1.148 -5.369,1.148 v 0 z m 19.363,-0.768 v -21.279 h -4.602 v -3.068 h 4.602 v -7.859 h 3.26 v 7.859 h 4.6 v 3.068 h -4.6 v 21.279 z m 13.612,-27.222 h -3.26 v -4.984 h 3.26 z m -3.26,27.222 v -24.348 h 3.26 v 24.348 z m -29.715,-24.921 v 2.875 c -2.684,0 -4.793,0.959 -6.709,2.875 -1.727,1.918 -2.684,4.41 -2.684,7.285 0,2.684 0.957,4.984 2.684,6.902 1.916,1.916 4.025,2.684 6.709,2.875 v 2.877 h -0.191 c -3.451,0 -6.518,-1.344 -8.818,-3.643 -2.492,-2.492 -3.643,-5.561 -3.643,-9.203 0,-3.642 1.15,-6.709 3.643,-9.201 2.3,-2.301 5.366,-3.642 9.009,-3.642 z m -39.109,25.689 v -3.068 0 c 2.686,0 4.793,-0.959 6.711,-2.875 1.725,-1.727 2.684,-4.219 2.684,-7.094 0,-2.875 -0.959,-5.176 -2.684,-7.094 -1.918,-1.725 -4.025,-2.684 -6.711,-2.684 v -3.066 c 3.451,0 6.328,1.342 8.82,3.641 2.492,2.492 3.834,5.561 3.834,9.012 0,3.643 -1.342,6.709 -3.643,9.393 -2.492,2.491 -5.56,3.835 -9.011,3.835 z m 19.363,-0.768 h -3.066 v -24.348 h 2.875 v 2.875 c 0.768,-1.148 1.725,-1.916 2.492,-2.492 0.959,-0.574 2.109,-0.766 3.26,-0.766 v 3.451 c -1.918,0.191 -3.26,0.766 -4.219,1.725 -0.766,0.959 -1.342,2.684 -1.342,4.793 z m -19.362,-25.113 v 3.066 h -0.193 c -2.492,0 -4.6,0.959 -6.518,2.684 -1.725,1.918 -2.684,4.41 -2.684,7.094 0,2.875 0.959,5.367 2.684,7.094 1.918,1.916 4.025,2.875 6.711,2.875 v 3.068 c -3.451,0 -6.52,-1.344 -9.012,-3.836 -2.301,-2.492 -3.643,-5.559 -3.643,-9.01 0,-3.643 1.342,-6.709 3.643,-9.201 2.492,-2.686 5.369,-3.834 8.818,-3.834 z m -27.607,25.881 v -2.877 c 2.492,-0.191 4.602,-1.15 6.518,-3.066 1.727,-1.918 2.686,-4.219 2.686,-7.094 0,-2.684 -0.959,-4.984 -2.686,-6.902 -1.916,-1.916 -4.025,-2.875 -6.518,-2.875 v -2.875 h 0.191 c 3.451,0 6.326,1.15 8.818,3.643 2.301,2.492 3.451,5.559 3.451,9.201 0,3.642 -1.15,6.711 -3.643,9.01 -2.299,2.491 -5.366,3.835 -8.817,3.835 z m 0,-25.689 v 2.875 c 0,0 0,0 -0.191,0 -2.492,0 -4.602,0.959 -6.518,3.068 -1.727,1.916 -2.686,4.217 -2.686,7.092 0,2.684 0.959,4.793 2.877,6.711 1.725,2.107 3.834,3.066 6.326,3.066 0,0 0,0 0.191,0 v 2.877 c -0.191,0 -0.191,0 -0.191,0 -1.918,0 -3.451,-0.385 -4.984,-1.15 -1.533,-0.768 -2.875,-1.727 -4.219,-3.26 v 3.643 h -3.066 v -32.207 h 3.066 v 10.16 1.725 c 1.344,-1.533 2.877,-2.684 4.41,-3.449 1.534,-0.769 3.069,-1.151 4.985,-1.151 z m -29.715,25.689 v -2.877 0 c 2.492,0 4.793,-1.15 6.518,-3.066 1.918,-1.918 2.877,-4.41 2.877,-7.094 0,-2.684 -0.959,-4.984 -2.877,-6.902 -1.725,-1.916 -4.025,-2.875 -6.326,-2.875 h -0.192 v -2.875 h 0.191 c 1.918,0 3.643,0.383 5.176,1.15 1.535,0.766 2.877,1.916 4.027,3.258 v -3.834 h 3.066 v 24.348 h -3.066 v -3.834 c -0.959,1.533 -2.301,2.492 -4.027,3.451 -1.725,0.766 -3.449,1.148 -5.367,1.148 z m 0,-25.689 v 2.875 c -2.492,0 -4.793,0.959 -6.518,2.875 -1.918,1.918 -2.877,4.41 -2.877,7.285 0,2.684 0.959,4.984 2.877,6.902 1.725,1.916 4.025,2.684 6.518,2.875 v 2.877 0 c -3.643,0 -6.518,-1.344 -9.01,-3.643 -2.301,-2.492 -3.643,-5.561 -3.643,-9.203 0,-3.642 1.342,-6.709 3.643,-9.201 2.493,-2.301 5.368,-3.642 9.01,-3.642 z m -44.094,25.689 v -3.068 0 c 2.684,0 4.793,-0.959 6.518,-2.875 1.918,-1.727 2.686,-4.219 2.686,-7.094 0,-2.875 -0.768,-5.176 -2.686,-7.094 -1.725,-1.725 -3.834,-2.684 -6.518,-2.684 v -3.066 c 3.451,0 6.326,1.342 8.818,3.641 2.492,2.492 3.834,5.561 3.834,9.012 0,3.643 -1.342,6.709 -3.834,9.393 -2.3,2.491 -5.366,3.835 -8.818,3.835 z m 16.295,-0.768 v -32.207 h 3.068 v 32.207 z m 8.245,0 v -32.207 h 3.068 v 32.207 z m -24.54,-25.113 v 3.066 c -0.191,0 -0.191,0 -0.191,0 -2.492,0 -4.792,0.959 -6.517,2.684 -1.727,1.918 -2.684,4.41 -2.684,7.094 0,2.875 0.957,5.367 2.684,7.094 1.725,1.916 4.025,2.875 6.708,2.875 v 3.068 c -3.643,0 -6.517,-1.344 -9.009,-3.836 -2.492,-2.492 -3.642,-5.559 -3.642,-9.01 0,-3.643 1.15,-6.709 3.642,-9.201 2.492,-2.686 5.367,-3.834 8.818,-3.834 0,0 0,0 0.191,0 z m -73.231,25.881 v -3.26 c 1.342,-0.191 2.492,-0.576 3.451,-1.342 1.15,-0.959 2.299,-2.301 3.449,-4.41 l -6.9,-6.326 v -5.176 c 1.533,-0.768 2.492,-1.342 3.258,-2.301 0.768,-0.959 1.15,-2.109 1.15,-3.451 0,-1.15 -0.383,-2.301 -1.15,-3.066 -0.957,-0.959 -1.916,-1.342 -3.066,-1.342 0,0 0,0 -0.191,0 v -3.068 c 0.191,0 0.191,0 0.383,0 1.918,0 3.643,0.768 5.176,2.301 1.535,1.533 2.301,3.26 2.301,5.367 0,1.727 -0.574,3.068 -1.725,4.602 -0.959,1.342 -2.492,2.301 -4.602,3.26 l 6.711,6.135 3.641,-10.162 h 3.643 l -4.984,12.27 7.285,6.711 -2.107,2.301 -6.52,-5.943 c -0.957,2.301 -2.301,3.834 -4.025,5.176 -1.533,0.959 -3.26,1.533 -5.176,1.725 v 0 -10e-4 z m 53.869,-24.732 c -1.342,-1.916 -3.066,-3.449 -4.791,-4.408 -1.727,-0.959 -3.836,-1.342 -6.135,-1.342 -3.643,0 -6.711,1.342 -9.203,3.834 -2.684,2.684 -3.834,5.943 -3.834,9.586 0,4.025 1.15,7.285 3.834,9.969 2.492,2.684 5.561,4.025 9.203,4.025 2.299,0 4.217,-0.574 6.135,-1.533 1.725,-0.768 3.258,-2.301 4.6,-4.025 h 3.834 c -1.533,2.684 -3.449,4.791 -5.941,6.326 -2.492,1.533 -5.369,2.301 -8.436,2.301 -4.793,0 -8.627,-1.727 -11.887,-4.986 -3.26,-3.258 -4.793,-7.283 -4.793,-12.076 0,-2.301 0.385,-4.41 1.342,-6.52 0.768,-1.916 2.109,-3.834 3.834,-5.367 1.535,-1.533 3.26,-2.875 5.178,-3.643 1.916,-0.768 4.025,-1.15 6.135,-1.15 3.258,0 6.135,0.768 8.818,2.301 2.492,1.725 4.602,3.834 5.943,6.709 h -3.836 z m -53.869,-9.01 v 3.068 c -1.15,0 -2.301,0.383 -3.068,1.342 -0.766,0.766 -1.15,1.916 -1.15,3.258 0,0.959 0.191,1.918 0.768,2.877 0.574,0.766 1.533,1.725 2.875,2.875 0.191,0 0.385,-0.191 0.576,-0.191 v 5.176 l -1.727,-1.533 c -1.533,0.768 -2.875,1.725 -3.643,2.875 -0.766,1.342 -1.342,2.684 -1.342,4.219 0,1.916 0.576,3.449 1.727,4.793 1.342,1.148 2.684,1.725 4.6,1.725 0.193,0 0.385,0 0.385,0 v 3.26 c -0.191,0 -0.385,0 -0.576,0 -2.684,0 -4.793,-0.959 -6.709,-2.877 -1.727,-1.916 -2.684,-4.217 -2.684,-6.9 0,-1.918 0.574,-3.834 1.533,-5.369 1.15,-1.725 2.684,-3.066 4.602,-3.834 -1.535,-1.342 -2.492,-2.492 -2.877,-3.451 -0.574,-1.15 -0.957,-2.299 -0.957,-3.643 0,-2.107 0.766,-3.834 2.299,-5.367 1.534,-1.344 3.258,-2.112 5.368,-2.303 z m -33.934,42.56 v -3.068 0 c 2.684,0 4.984,-0.766 6.711,-2.684 1.725,-1.918 2.492,-4.41 2.492,-7.477 v -0.576 c -1.15,1.535 -2.492,2.877 -4.027,3.643 -1.533,0.768 -3.258,1.15 -4.984,1.15 -0.191,0 -0.191,0 -0.191,0 v -2.875 0 c 2.301,0 4.602,-0.959 6.326,-2.875 1.918,-1.918 2.877,-4.219 2.877,-6.902 0,-2.683 -0.959,-5.176 -2.877,-7.094 -1.725,-1.916 -3.834,-2.875 -6.326,-2.875 v 0 -2.875 c 1.918,0 3.643,0.383 5.176,1.15 1.535,0.574 2.877,1.916 4.027,3.449 v -4.025 h 3.066 v 20.322 c 0,4.408 -1.15,7.668 -3.258,9.969 -2.109,2.492 -4.986,3.643 -8.82,3.643 z m 0,-34.507 v 2.875 c -2.684,0 -4.602,0.959 -6.326,2.684 -1.916,1.918 -2.875,4.219 -2.875,7.094 0,2.684 0.959,5.176 2.875,7.094 1.727,1.916 3.643,2.875 6.326,2.875 v 2.875 c -3.451,0 -6.518,-1.15 -8.818,-3.643 -2.492,-2.492 -3.643,-5.559 -3.643,-9.201 0,-3.642 1.15,-6.518 3.643,-9.01 2.301,-2.492 5.367,-3.643 8.627,-3.643 0,0 0,0 0.191,0 z m 0,31.439 v 3.068 c -2.684,0 -4.793,-0.768 -6.709,-1.918 -2.109,-1.533 -3.26,-3.26 -3.834,-5.559 h 3.643 c 0.383,1.342 1.342,2.492 2.492,3.258 1.342,0.768 2.492,1.151 4.408,1.151 z m -98.923,-5.75 v -2.877 0 c 2.492,0 4.602,-1.15 6.519,-3.066 1.917,-1.918 2.684,-4.41 2.684,-7.094 0,-2.684 -0.767,-4.984 -2.684,-6.902 -1.917,-1.916 -4.026,-2.875 -6.326,-2.875 -0.192,0 -0.192,0 -0.192,0 v -2.875 h 0.192 c 1.917,0 3.643,0.383 5.176,1.15 1.534,0.766 2.876,1.916 3.834,3.258 v -3.834 h 3.067 v 24.348 h -3.067 v -3.834 c -0.958,1.533 -2.3,2.492 -3.834,3.451 -1.726,0.766 -3.45,1.148 -5.368,1.148 v 0 0.002 z m 20.514,-0.768 h -3.26 v -24.348 h 3.067 v 2.875 c 0.768,-1.148 1.534,-1.916 2.492,-2.492 0.768,-0.574 1.918,-0.766 3.067,-0.766 v 3.451 c -1.917,0.191 -3.259,0.766 -4.217,1.725 -0.768,0.959 -1.15,2.684 -1.15,4.793 v 14.762 z m 8.243,-24.347 h 3.067 v 2.684 c 0.959,-0.957 1.917,-1.916 3.259,-2.492 1.343,-0.383 2.685,-0.766 4.41,-0.766 1.725,0 3.259,0.383 4.792,0.957 1.343,0.768 2.492,1.727 3.26,2.877 0.575,0.959 0.958,1.916 1.149,3.258 0.384,1.15 0.384,2.877 0.384,5.178 v 12.652 h -3.067 v -13.612 c 0,-2.875 -0.575,-4.984 -1.533,-6.326 -1.15,-1.342 -2.876,-1.918 -5.368,-1.918 -1.534,0 -2.684,0.191 -3.834,0.768 -0.959,0.574 -1.917,1.533 -2.492,2.492 -0.384,0.766 -0.575,1.533 -0.768,2.301 -0.191,0.957 -0.191,2.301 -0.191,4.408 v 11.887 h -3.067 v -24.348 z m 28.564,-2.875 h -3.066 v -4.984 h 3.066 z m -3.066,27.222 v -24.348 h 3.066 v 24.348 z m 8.053,-24.347 h 3.066 v 2.684 c 0.959,-0.957 2.109,-1.916 3.451,-2.492 1.15,-0.383 2.684,-0.766 4.217,-0.766 1.918,0 3.451,0.383 4.793,0.957 1.533,0.768 2.492,1.727 3.451,2.877 0.574,0.959 0.959,1.916 1.15,3.258 0.191,1.15 0.383,2.877 0.383,5.178 v 12.652 h -3.066 v -13.612 c 0,-2.875 -0.576,-4.984 -1.727,-6.326 -1.151,-1.342 -2.875,-1.918 -5.367,-1.918 -1.342,0 -2.492,0.191 -3.643,0.768 -1.15,0.574 -1.918,1.533 -2.492,2.492 -0.383,0.766 -0.768,1.533 -0.959,2.301 0,0.957 -0.191,2.301 -0.191,4.408 v 11.887 h -3.066 z m -62.308,-0.574 v 2.875 c -2.684,0 -4.792,0.959 -6.518,2.875 -1.917,1.918 -2.876,4.41 -2.876,7.285 0,2.684 0.959,4.984 2.876,6.902 1.726,1.916 3.834,2.684 6.518,2.875 v 2.877 0 c -3.642,0 -6.709,-1.344 -9.01,-3.643 -2.492,-2.492 -3.643,-5.561 -3.643,-9.203 0,-3.642 1.342,-6.709 3.643,-9.201 2.493,-2.301 5.369,-3.642 9.01,-3.642 z m -27.605,25.689 v -3.068 0 c 1.725,0 3.45,-0.383 4.984,-1.342 1.342,-0.959 2.492,-2.301 3.259,-4.025 h 3.643 c -1.15,2.684 -2.684,4.793 -4.793,6.326 -2.108,1.342 -4.409,2.107 -7.093,2.107 v 0 0 z m 0,-11.887 v -2.684 h 9.202 c -0.575,-2.686 -1.726,-4.793 -3.26,-6.135 -1.533,-1.342 -3.643,-2.109 -5.942,-2.109 v -3.068 c 0,0 0,0 0.191,0 3.643,0 6.71,1.344 9.011,3.836 2.3,2.492 3.45,5.941 3.45,9.969 v 0.191 z m -61.732,-6.711 h 13.612 v 3.26 h -13.612 v 11.502 h 13.612 v 3.068 h -16.871 v -32.207 h 16.871 v 3.066 h -13.612 z m 61.732,-7.283 v 3.066 c -0.192,0 -0.192,0 -0.384,0 -2.301,0 -4.218,0.768 -5.943,2.109 -1.725,1.533 -2.684,3.643 -3.067,6.135 h 9.395 v 2.684 h -9.395 c 0.192,2.684 1.15,4.793 2.876,6.326 1.726,1.725 3.834,2.492 6.519,2.492 v 3.068 c -3.643,0 -6.519,-1.344 -9.011,-3.836 -2.492,-2.492 -3.643,-5.559 -3.643,-9.01 0,-3.834 1.15,-6.9 3.643,-9.395 2.3,-2.297 5.367,-3.447 9.01,-3.639 z m -33.359,11.502 v 2.875 h -10.544 v -2.875 z m 19.747,13.611 h -14.57 v -32.207 h 3.067 v 29.139 h 11.503 z"
             inkscape:connector-curvature="0"
             id="path2913"
             style="fill:#ffffff" />
        </g>
      </g>
      <g
         id="g914"
         transform="matrix(0.05759327,2.9291101e-4,-2.9279694e-4,0.05757065,66.194793,80.411655)">
        <path
           style="fill:#2e75a3"
           id="path896"
           inkscape:connector-curvature="0"
           d="m 145.07,280.927 c 0,0 0.799,-0.399 1.039,-1.758 0,-0.08 0,-0.16 0,-0.24 v -0.24 c -0.08,-1.278 -1.359,-2.797 -2.797,-4.315 -1.678,-1.678 -3.116,-2.478 -3.116,-2.478 0,0 -0.719,-3.356 -3.756,-7.99 -2.956,-4.635 -8.071,-9.509 -10.867,-8.071 -2.797,1.438 -0.32,5.434 -0.16,6.633 0.24,1.278 1.438,3.356 1.039,3.356 -0.479,-0.08 -6.553,-11.507 -21.735,-8.31 -3.916,0.878 -7.272,2.557 -9.989,4.714 v 26.69 c 0.959,-0.959 1.358,-1.439 1.358,-1.439 0,0 1.039,4.795 2.957,6.953 1.918,2.157 4.235,3.436 4.954,1.837 0.719,-1.518 -1.518,-8.07 -1.518,-8.07 0,0 4.155,3.995 5.354,4.954 1.199,0.958 3.516,2.157 4.155,0 0.559,-2.157 -1.119,-5.433 -2.477,-5.992 -1.278,-0.56 -2.078,-0.56 -2.078,-0.56 0,0 -0.799,-1.039 -1.199,-1.359 -0.479,-0.32 -0.559,-0.319 -0.559,-0.319 0,0 0.719,-0.4 2.957,-0.32 2.317,0.08 4.155,0.16 4.155,0.16 0,0 2.078,3.036 3.356,3.995 1.199,1.039 4.315,3.516 5.434,4.554 1.039,1.039 1.678,1.519 2.078,0.639 0.32,-0.879 -0.24,-3.196 -1.678,-4.874 -1.518,-1.598 -3.116,-2.477 -3.676,-3.276 -0.479,-0.959 -0.799,-1.678 -0.799,-1.678 0,0 2.957,2.157 3.676,2.877 0.799,0.639 6.073,3.915 6.952,4.474 0.879,0.64 1.279,0.24 1.279,0.24 0,0 0.639,0.479 0.879,0.16 0.24,-0.32 0.879,-2.477 -0.799,-3.755 -1.758,-1.359 -2.797,-1.998 -2.637,-2.158 0.08,-0.159 1.838,0.4 2.077,-0.08 0.16,-0.399 -0.08,-1.038 -0.32,-1.198 -0.16,-0.241 0.48,-0.72 0.48,-0.72 0,0 0.639,0 3.276,0.24 2.637,0.24 9.269,-1.997 10.628,-2.477 1.358,-0.48 2.077,-0.799 2.077,-0.799 z m -50.342,34.36 c 5.514,-3.595 5.753,-12.705 2.717,-14.463 -0.879,-0.559 -1.758,-0.958 -2.717,-1.199 v 4.156 c 0.24,0.159 0.48,0.4 0.639,0.799 0.479,0.959 0.24,2.157 0.24,2.157 0,0 -0.08,-1.518 -0.639,-2.317 -0.08,-0.08 -0.16,-0.16 -0.24,-0.24 z m 0,-53.059 c -1.198,0.88 -2.237,1.918 -3.196,2.957 v 26.449 c 0.799,-0.479 1.518,-0.959 2.158,-1.598 0.4,-0.399 0.719,-0.799 1.039,-1.118 z m -3.196,54.417 c 1.199,-0.239 2.317,-0.719 3.196,-1.358 V 304.18 c -0.479,-0.639 -0.879,-1.039 -0.879,-1.039 0,0 0.4,0.16 0.879,0.64 v -4.156 c -1.039,-0.319 -2.158,-0.479 -3.196,-0.239 v 6.952 0 c 0.24,-0.16 0.639,-0.24 0.479,0.32 -0.08,0.32 -0.32,0.319 -0.48,0.32 v 0 4.075 c 0.16,0 0.399,0 0.559,-0.08 0,0 -0.16,0.16 -0.56,0.319 z m 0,-51.46 c -5.594,5.913 -8.071,13.025 -8.63,14.623 -0.879,2.477 -6.552,11.426 -7.032,16.7 -0.4,5.354 -0.479,18.379 11.667,20.137 1.438,0.24 2.797,0.239 3.995,-10e-4 v -5.353 c -1.119,0.319 -3.596,0.639 -6.393,-2.557 -3.756,-4.315 -1.918,-11.347 1.039,-13.745 1.918,-1.598 3.756,-2.477 5.354,-3.356 z m 0,34.2 v 6.952 c -0.24,0.16 -0.4,0.16 -0.559,-0.08 -0.16,0.48 0.16,0.719 0.559,0.719 v 4.075 c -2.557,0.239 -6.073,-1.998 -5.194,-5.514 1.039,-3.994 2.957,-5.752 5.194,-6.152 z" />
        <g
           id="g900"
           transform="matrix(0.3825107,0,0,0.3825107,20.089286,125.61275)"
           inkscape:transform-center-y="-44.562164">
          <path
             style="fill:#eddf0e"
             id="path898"
             sodipodi:nodetypes="sssssssss"
             inkscape:connector-curvature="0"
             d="m 227.414,246.939 13.283,-0.497 c 7.13,-0.267 16.92,4.74 16.36,13.874 l -3.482,56.799 c -0.436,7.122 -3.506,10.89 -9.149,10.891 h -17.511 c -7.135,-10e-4 -10.136,-4.519 -10.641,-11.636 l -3.979,-56.054 c -0.503,-7.119 5,-12.998 15.119,-13.377 z" />
        </g>
        <g
           id="g904"
           transform="matrix(0.31077472,-0.25449536,0.25449536,0.31077472,-108.32473,252.83556)"
           inkscape:transform-center-x="29.82031"
           inkscape:transform-center-y="-36.33424">
          <path
             style="fill:#fd6600"
             id="path902"
             sodipodi:nodetypes="sssssssss"
             inkscape:connector-curvature="0"
             d="m 364.994,242.27 13.283,-0.498 c 7.129,-0.267 16.919,4.74 16.36,13.874 l -3.481,56.799 c -0.437,7.122 -3.506,10.89 -9.149,10.89 l -17.511,0.001 c -7.135,-0.001 -10.136,-4.519 -10.64,-11.636 l -3.979,-56.054 c -0.506,-7.117 4.998,-12.998 15.117,-13.376 z" />
        </g>
        <g
           id="g908"
           transform="matrix(0.07828233,-0.37104593,0.37104593,0.07828233,-104.36,429.7208)"
           inkscape:transform-center-x="43.056986"
           inkscape:transform-center-y="-9.8080536">
          <path
             style="fill:#a4dc2d"
             id="path906"
             sodipodi:nodetypes="sssssssss"
             inkscape:connector-curvature="0"
             d="m 485.005,307.459 13.284,-0.497 c 7.129,-0.267 16.92,4.739 16.36,13.874 l -3.481,56.8 c -0.436,7.121 -3.506,10.889 -9.149,10.89 h -17.512 c -7.135,0 -10.134,-4.519 -10.64,-11.636 l -3.978,-56.054 c -0.505,-7.117 4.999,-12.998 15.116,-13.377 z" />
        </g>
        <g
           id="g912"
           transform="matrix(-0.13902763,-0.26521617,0.26521617,-0.13902763,13.934291,526.86862)"
           inkscape:transform-center-x="30.900947"
           inkscape:transform-center-y="16.468461">
          <path
             style="fill:#ef3e3e"
             id="path910"
             sodipodi:nodetypes="sssssssss"
             inkscape:connector-curvature="0"
             d="m 584.441,445.677 13.283,-0.497 c 7.131,-0.266 16.921,4.741 16.36,13.874 l -3.48,56.8 c -0.438,7.121 -3.505,10.89 -9.149,10.89 h -17.511 c -7.134,0 -10.135,-4.518 -10.639,-11.635 l -3.98,-56.054 c -0.504,-7.118 4.999,-12.998 15.116,-13.378 z" />
        </g>
      </g>
    </g>
  </g>
</svg>
