<?xml version="1.0" encoding="UTF-8" standalone="no"?>
<!-- Created with Inkscape (http://www.inkscape.org/) -->

<svg
   xmlns:dc="http://purl.org/dc/elements/1.1/"
   xmlns:cc="http://creativecommons.org/ns#"
   xmlns:rdf="http://www.w3.org/1999/02/22-rdf-syntax-ns#"
   xmlns:svg="http://www.w3.org/2000/svg"
   xmlns="http://www.w3.org/2000/svg"
   xmlns:sodipodi="http://sodipodi.sourceforge.net/DTD/sodipodi-0.dtd"
   xmlns:inkscape="http://www.inkscape.org/namespaces/inkscape"
   width="410"
   height="400"
   viewBox="0 0 108.47917 105.83334"
   version="1.1"
   id="svg8"
   inkscape:version="0.92.3 (2405546, 2018-03-11)"
   sodipodi:docname="developer.svg">
  <defs
     id="defs2">
    <clipPath
       clipPathUnits="userSpaceOnUse"
       id="clipPath879">
      <path
         d="M 101.134,70.5099 H 393.305 V 50.8571 H 101.134 Z"
         id="path877"
         inkscape:connector-curvature="0" />
    </clipPath>
  </defs>
  <sodipodi:namedview
     id="base"
     pagecolor="#ffffff"
     bordercolor="#666666"
     borderopacity="1.0"
     inkscape:pageopacity="0.0"
     inkscape:pageshadow="2"
     inkscape:zoom="0.93512027"
     inkscape:cx="205.23717"
     inkscape:cy="187.2687"
     inkscape:document-units="mm"
     inkscape:current-layer="layer1"
     showgrid="false"
     inkscape:window-width="1366"
     inkscape:window-height="713"
     inkscape:window-x="0"
     inkscape:window-y="27"
     inkscape:window-maximized="1"
     units="px" />
  <metadata
     id="metadata5">
    <rdf:RDF>
      <cc:Work
         rdf:about="">
        <dc:format>image/svg+xml</dc:format>
        <dc:type
           rdf:resource="http://purl.org/dc/dcmitype/StillImage" />
        <dc:title></dc:title>
      </cc:Work>
    </rdf:RDF>
  </metadata>
  <g
     inkscape:label="Capa 1"
     inkscape:groupmode="layer"
     id="layer1"
     transform="translate(0,-191.16665)">
    <g
       id="g981"
       transform="matrix(0.31154873,0,0,-0.31154873,75.598649,89.78425)" />
    <g
       id="g1215">
      <circle
         r="51.799332"
         cy="243.82045"
         cx="54.624634"
         id="path1103"
         style="opacity:1;fill:#00aad4;fill-opacity:1;stroke:none;stroke-width:0.79033053;stroke-linecap:round;stroke-linejoin:bevel;stroke-miterlimit:4;stroke-dasharray:none;stroke-dashoffset:0;stroke-opacity:1" />
      <g
         transform="matrix(-1.1351434,0,0,1.1351434,155.22319,127.70851)"
         id="g1964">
        <g
           id="g873"
           transform="matrix(0.31154873,0,0,-0.31154873,13.04415,161.18854)">
          <g
             id="g875" />
          <g
             id="g887">
            <g
               clip-path="url(#clipPath879)"
               id="g885"
               style="opacity:0.66999799">
              <g
                 transform="translate(393.3057,60.6836)"
                 id="g883">
                <path
                   d="m 0,0 c 0,-5.427 -65.405,-9.826 -146.086,-9.826 -80.681,0 -146.086,4.399 -146.086,9.826 0,5.427 65.405,9.826 146.086,9.826 C -65.405,9.826 0,5.427 0,0"
                   style="fill:#4e88c4;fill-opacity:1;fill-rule:nonzero;stroke:none"
                   id="path881"
                   inkscape:connector-curvature="0" />
              </g>
            </g>
          </g>
        </g>
        <g
           id="g889"
           transform="matrix(0.31154873,0,0,-0.31154873,107.99744,141.73136)"
           style="fill:#939dac">
          <path
             d="M 0,0 C 0,0 14.97,-2.558 31.054,-2.558 45.961,-2.558 60.345,0 60.345,0 L 59.176,2.596 C 54.036,14.005 34.588,9.567 30.173,21.342 26.493,9.567 6.309,14.005 1.17,2.596 Z"
             style="fill:#939dac;fill-opacity:1;fill-rule:nonzero;stroke:none"
             id="path891"
             inkscape:connector-curvature="0" />
        </g>
        <path
           d="m 116.25121,137.75976 h 2.52199 v -23.61508 h -2.52199 z"
           style="fill:#939dac;fill-opacity:1;fill-rule:nonzero;stroke:none;stroke-width:0.31154874"
           id="path893"
           inkscape:connector-curvature="0" />
        <g
           id="g895"
           transform="matrix(0.31154873,0,0,-0.31154873,116.96877,135.8238)">
          <path
             d="m 0,0 -3.531,7.725 -7.74,-2.85 2.148,-7.947 z"
             style="fill:#f6d1a0;fill-opacity:1;fill-rule:nonzero;stroke:none"
             id="path897"
             inkscape:connector-curvature="0" />
        </g>
        <g
           id="g899"
           transform="matrix(0.31154873,0,0,-0.31154873,116.9645,135.78698)">
          <path
             d="m 0,0 1.857,-6.312 -8.182,-2.585 c 0,0 -18.473,-7.755 -21.915,-4.16 -1.576,1.649 4.437,3.274 8.297,5.829 3.86,2.555 9.922,6.164 9.922,6.164 0,0 5.325,-0.2 10.021,1.064"
             style="fill:#151e1c;fill-opacity:1;fill-rule:nonzero;stroke:none"
             id="path901"
             inkscape:connector-curvature="0" />
        </g>
        <g
           id="g903"
           transform="matrix(0.31154873,0,0,-0.31154873,104.22935,139.38013)">
          <path
             d="M 0,0 -1.206,8.407 -9.437,7.858 -9.619,-0.372 Z"
             style="fill:#f6d1a0;fill-opacity:1;fill-rule:nonzero;stroke:none"
             id="path905"
             inkscape:connector-curvature="0" />
        </g>
        <g
           id="g907"
           transform="matrix(0.31154873,0,0,-0.31154873,104.23543,139.3433)">
          <path
             d="m 0,0 v -6.579 l -8.58,-0.17 c 0,0 -19.911,-2.225 -22.197,2.196 -1.047,2.026 5.18,1.888 9.605,3.249 4.424,1.361 11.259,3.112 11.259,3.112 0,0 5.051,-1.696 9.913,-1.808"
             style="fill:#151e1c;fill-opacity:1;fill-rule:nonzero;stroke:none"
             id="path909"
             inkscape:connector-curvature="0" />
        </g>
        <g
           id="g911"
           transform="matrix(0.31154873,0,0,-0.31154873,81.047729,94.226561)">
          <path
             d="M 0,0 11.37,3.772 21.437,1.225 c 5.667,1.472 7.553,1.39 19.157,4.375 9.798,2.519 21.05,7.544 21.05,7.544 l 8.341,13.982 c 5.396,-0.49 16.731,-6.378 16.731,-6.378 0,0 -15.505,-21.096 -19.921,-22.567 -4.415,-1.472 -34.183,-5.102 -45.531,-3.8 -3.574,0.41 -10.569,4.193 -10.569,4.193 l -8.972,-1.49 -6.996,-4.723 -1.222,1.012 2.784,3.049 z"
             style="fill:#eabc89;fill-opacity:1;fill-rule:nonzero;stroke:none"
             id="path913"
             inkscape:connector-curvature="0" />
        </g>
        <g
           id="g915"
           transform="matrix(0.31154873,0,0,-0.31154873,105.53122,77.480038)"
           style="fill:#009e9e;fill-opacity:1">
          <path
             d="M 0,0 C 0,0 14.458,-2.42 14.212,-15.421 14.053,-23.889 2.438,-39.707 2.438,-39.707 c 0,0 -6.378,8.832 -14.228,11.285 0,0 5.099,14.955 6.658,19.632 C -3.172,-2.91 0,0 0,0"
             style="fill:#009e9e;fill-opacity:1;fill-rule:nonzero;stroke:none"
             id="path917"
             inkscape:connector-curvature="0" />
        </g>
        <path
           d="m 113.04163,118.27177 h 8.94145 v -4.81468 h -8.94145 z"
           style="fill:#939dac;fill-opacity:1;fill-rule:nonzero;stroke:none;stroke-width:0.31154874"
           id="path919"
           inkscape:connector-curvature="0" />
        <g
           id="g921"
           transform="matrix(0.31154873,0,0,-0.31154873,114.23969,94.731302)">
          <path
             d="m 0,0 c -1.413,18.695 -2.42,37.418 -3.044,56.155 17.74,7.898 57.314,4.373 61.015,-7.346 3.926,-12.435 -11.039,-47.834 -11.039,-61.08 0,-13.247 5.151,-22.814 5.887,-28.701 0.736,-5.887 -2.944,-10.302 -2.944,-10.302 H 4.512 C 3.356,-34.161 1.29,-17.074 0,0"
             style="fill:#ede9ed;fill-opacity:1;fill-rule:nonzero;stroke:none"
             id="path923"
             inkscape:connector-curvature="0" />
        </g>
        <g
           id="g925"
           transform="matrix(0.31154873,0,0,-0.31154873,114.23969,94.731302)"
           style="fill:#d5d5ff">
          <path
             d="m 0,0 c -1.473,19.483 -2.501,38.997 -3.118,58.525 19.497,4.557 50.475,0.586 53.729,-9.716 3.927,-12.435 -11.039,-47.834 -11.039,-61.08 0,-13.247 5.152,-22.814 5.888,-28.701 0.736,-5.887 -2.943,-10.302 -2.943,-10.302 H 4.512 C 3.356,-34.161 1.29,-17.074 0,0"
             style="fill:#d5d5ff;fill-opacity:1;fill-rule:nonzero;stroke:none"
             id="path927"
             inkscape:connector-curvature="0" />
        </g>
        <g
           id="g929"
           transform="matrix(0.31154873,0,0,-0.31154873,103.18305,115.06197)"
           style="fill:#dbdee3">
          <path
             d="m 0,0 h 77.406 c 4.396,0 7.958,3.563 7.958,7.959 v 6.023 H 0 Z"
             style="fill:#dbdee3;fill-opacity:1;fill-rule:nonzero;stroke:none"
             id="path931"
             inkscape:connector-curvature="0" />
        </g>
        <g
           id="g933"
           transform="matrix(0.31154873,0,0,-0.31154873,108.22684,100.69422)">
          <path
             d="m 0,0 c 0,0 -40.838,-24.264 -43.267,-34.281 -2.897,-11.954 16.689,-82.745 16.689,-82.745 4.619,-3.108 13.182,-2.058 16.332,0.769 0,0 -15.756,60.573 -14.039,64.62 4.203,9.906 39.984,21.71 51.268,32.503 11.285,10.793 12.265,21.096 12.265,21.096 z"
             style="fill:#251f3e;fill-opacity:1;fill-rule:nonzero;stroke:none"
             id="path935"
             inkscape:connector-curvature="0" />
        </g>
        <g
           id="g937"
           transform="matrix(0.31154873,0,0,-0.31154873,122.77199,97.31376)">
          <path
             d="m 0,0 c 0,0 13.91,-29.003 1.4,-40.777 -5.727,-5.391 -39.992,-0.492 -41.954,-5.888 l 20.686,-68.724 c 0,0 -3.648,-2.217 -11.007,-5.897 0,0 -43.04,75.848 -38.624,85.66 4.415,9.812 34.097,15.454 35.568,20.851 1.472,5.396 2.453,14.227 2.453,14.227 z"
             style="fill:#312c48;fill-opacity:1;fill-rule:nonzero;stroke:none"
             id="path939"
             inkscape:connector-curvature="0" />
        </g>
        <g
           id="g941"
           transform="matrix(0.31154873,0,0,-0.31154873,104.38818,72.804222)">
          <path
             d="m 0,0 c 0.888,-3.368 2.467,-7.078 5.772,-8.174 3.039,-1.008 6.267,0.618 9.017,2.257 3.236,1.926 6.518,4.04 8.587,7.186 3.141,4.775 5.681,10.608 5.328,16.312 -0.124,2.016 -3.075,4.489 -4.299,6.096 -0.864,1.135 -2.155,1.857 -3.443,2.47 -3.059,1.457 -6.323,2.477 -9.667,3.022 C 5.713,30.078 -0.494,28.83 -1.61,22.7 -2.938,15.404 -1.871,7.096 0,0"
             style="fill:#f6d1a0;fill-opacity:1;fill-rule:nonzero;stroke:none"
             id="path943"
             inkscape:connector-curvature="0" />
        </g>
        <g
           id="g945"
           transform="matrix(0.31154873,0,0,-0.31154873,106.93045,68.754555)">
          <path
             d="m 0,0 c 0,-0.843 0.683,-1.526 1.525,-1.526 0.843,0 1.527,0.683 1.527,1.526 0,0.843 -0.684,1.526 -1.527,1.526 C 0.683,1.526 0,0.843 0,0"
             style="fill:#44263d;fill-opacity:1;fill-rule:nonzero;stroke:none"
             id="path947"
             inkscape:connector-curvature="0" />
        </g>
        <g
           id="g949"
           transform="matrix(0.31154873,0,0,-0.31154873,104.23088,68.754555)">
          <path
             d="m 0,0 c 0,-0.843 0.684,-1.526 1.526,-1.526 0.843,0 1.526,0.683 1.526,1.526 0,0.843 -0.683,1.526 -1.526,1.526 C 0.684,1.526 0,0.843 0,0"
             style="fill:#44263d;fill-opacity:1;fill-rule:nonzero;stroke:none"
             id="path951"
             inkscape:connector-curvature="0" />
        </g>
        <g
           id="g953"
           transform="matrix(0.31154873,0,0,-0.31154873,107.83011,67.478857)">
          <path
             d="m 0,0 c -2.394,0 -4.342,-1.943 -4.342,-4.332 0,-2.389 1.948,-4.332 4.342,-4.332 2.394,0 4.341,1.943 4.341,4.332 C 4.341,-1.943 2.394,0 0,0 m 0,-9.647 c -2.936,0 -5.324,2.384 -5.324,5.315 0,2.931 2.388,5.315 5.324,5.315 2.936,0 5.323,-2.384 5.323,-5.315 0,-2.931 -2.387,-5.315 -5.323,-5.315"
             style="fill:#44263d;fill-opacity:1;fill-rule:nonzero;stroke:none"
             id="path955"
             inkscape:connector-curvature="0" />
        </g>
        <g
           id="g957"
           transform="matrix(0.31154873,0,0,-0.31154873,105.33317,67.946336)">
          <path
             d="M 0,0 -0.785,0.593 C -0.131,1.458 0.836,1.968 1.939,2.03 3.131,2.1 4.332,1.616 5.164,0.742 L 4.451,0.064 C 3.816,0.732 2.887,1.097 1.995,1.049 1.185,1.003 0.477,0.63 0,0"
             style="fill:#44263d;fill-opacity:1;fill-rule:nonzero;stroke:none"
             id="path959"
             inkscape:connector-curvature="0" />
        </g>
        <g
           id="g961"
           transform="matrix(0.31154873,0,0,-0.31154873,104.17247,67.478857)">
          <path
             d="m 0,0 c -2.394,0 -4.341,-1.943 -4.341,-4.332 0,-2.389 1.947,-4.332 4.341,-4.332 2.394,0 4.341,1.943 4.341,4.332 C 4.341,-1.943 2.394,0 0,0 m 0,-9.647 c -2.936,0 -5.323,2.384 -5.323,5.315 0,2.931 2.387,5.315 5.323,5.315 2.936,0 5.323,-2.384 5.323,-5.315 0,-2.931 -2.387,-5.315 -5.323,-5.315"
             style="fill:#44263d;fill-opacity:1;fill-rule:nonzero;stroke:none"
             id="path963"
             inkscape:connector-curvature="0" />
        </g>
        <g
           id="g965"
           transform="matrix(0.31154873,0,0,-0.31154873,116.65267,75.664924)">
          <path
             d="m 0,0 c 0,0 -0.062,1.102 -3.986,2.083 -1.126,0.281 -2.535,0.283 -3.431,1.066 -3.176,2.779 -6.094,7.947 -7.177,11.757 -0.16,0.564 -0.317,1.161 -0.169,1.729 -2.652,-2.248 -5.216,-4.601 -7.682,-7.052 -0.845,-0.839 -5.953,-0.364 -5.336,-1.502 0.173,-0.318 1.474,-3.295 2.755,-6.179 -2.479,-1.623 -5.207,-3.744 -5.207,-3.744 l -3.435,-19.134 10.058,-5.642 c 0,0 11.283,2.453 18.642,6.378 C 2.392,-16.315 0,0 0,0"
             style="fill:#f6d1a0;fill-opacity:1;fill-rule:nonzero;stroke:none"
             id="path967"
             inkscape:connector-curvature="0" />
        </g>
        <g
           id="g969"
           transform="matrix(0.31154873,0,0,-0.31154873,115.41071,75.016124)"
           style="fill:#008080">
          <path
             d="m 0,0 c 0,0 -2.943,-5.396 -10.303,-8.585 -7.359,-3.189 -13.982,6.377 -13.982,6.377 l -7.426,-5.701 c 0,0 -0.669,-26.082 2.52,-40.31 3.189,-14.227 6.132,-34.202 6.132,-34.202 0,0 3.289,-4.822 7.493,-5.107 5.142,-0.348 12.225,3.679 23.416,1.673 12.415,-2.227 21.658,-0.273 21.658,-0.273 0,0 -9.551,46.67 -11.759,55.991 -2.208,9.322 -7.937,28.42 -7.937,28.42 0,0 -4.906,1.227 -9.812,1.717"
             style="fill:#008080;fill-opacity:1;fill-rule:nonzero;stroke:none"
             id="path971"
             inkscape:connector-curvature="0" />
        </g>
        <g
           id="g973"
           transform="matrix(0.31154873,0,0,-0.31154873,74.922931,96.663869)"
           style="fill:#5ca3ee;fill-opacity:1">
          <path
             d="M 0,0 H 42.933 V 3.705 H -3.008 V 3.008 C -3.008,1.347 -1.661,0 0,0"
             style="fill:#5ca3ee;fill-opacity:1;fill-rule:nonzero;stroke:none"
             id="path975"
             inkscape:connector-curvature="0" />
        </g>
        <g
           id="g977"
           transform="matrix(0.31154873,0,0,-0.31154873,79.15532,82.357116)"
           style="fill:#9dcdff;fill-opacity:1">
          <path
             d="m 0,0 c 1.277,0 2.417,-0.8 2.852,-2.001 l 14.589,-40.266 -0.901,-0.375 0.238,-0.703 -33.371,1.129 -14.203,38.132 c -0.739,1.982 0.728,4.093 2.844,4.093 z"
             style="fill:#9dcdff;fill-opacity:1;fill-rule:nonzero;stroke:none"
             id="path979"
             inkscape:connector-curvature="0" />
        </g>
        <g
           id="g985"
           transform="matrix(0.31154873,0,0,-0.31154873,105.94714,67.727255)">
          <path
             d="m 0,0 c 0.056,-2.942 -1.13,-5.148 -2.359,-7.726 -0.539,-1.128 -0.996,-2.672 -0.553,-3.912 0.064,-0.179 0.222,-0.329 0.424,-0.323 1.14,0.034 2.448,0.819 3.485,1.283 0.427,0.191 0.122,0.923 -0.321,0.762 -0.488,-0.177 -0.985,-0.434 -1.483,-0.57 -1.058,-0.289 -1.239,-0.462 -1.281,0.661 -0.053,1.387 1.184,2.895 1.702,4.153 C 0.374,-3.825 0.658,-1.986 0.489,0 0.463,0.309 -0.006,0.32 0,0"
             style="fill:#44263d;fill-opacity:1;fill-rule:nonzero;stroke:none"
             id="path987"
             inkscape:connector-curvature="0" />
        </g>
        <g
           id="g989"
           transform="matrix(0.31154873,0,0,-0.31154873,107.17629,66.8833)">
          <path
             d="M 0,0 C 0.6,-0.196 1.243,-0.183 1.868,-0.239 2.527,-0.298 3.182,-0.388 3.839,-0.465 4.687,-0.565 4.893,0.901 4.042,1.036 2.798,1.233 1.238,1.543 0,1.235 -0.64,1.076 -0.577,0.189 0,0"
             style="fill:#44263d;fill-opacity:1;fill-rule:nonzero;stroke:none"
             id="path991"
             inkscape:connector-curvature="0" />
        </g>
        <g
           id="g993"
           transform="matrix(0.31154873,0,0,-0.31154873,104.12742,66.890123)">
          <path
             d="m 0,0 c 1.042,-0.169 2.103,0.008 3.159,-0.063 0.989,-0.067 0.956,1.42 0,1.522 C 2.064,1.576 0.788,1.552 -0.112,0.861 -0.39,0.648 -0.449,0.073 0,0"
             style="fill:#44263d;fill-opacity:1;fill-rule:nonzero;stroke:none"
             id="path995"
             inkscape:connector-curvature="0" />
        </g>
        <g
           id="g997"
           transform="matrix(0.31154873,0,0,-0.31154873,109.34068,68.523012)">
          <path
             d="M 0,0 C 1.042,0.12 2.023,0.516 3.021,0.83 4.006,1.14 5.096,1.363 5.984,1.9 6.277,2.077 6.162,2.562 5.807,2.555 4.769,2.536 3.732,2.124 2.754,1.797 1.763,1.467 0.718,1.174 -0.163,0.6 -0.404,0.442 -0.342,-0.04 0,0"
             style="fill:#44263d;fill-opacity:1;fill-rule:nonzero;stroke:none"
             id="path999"
             inkscape:connector-curvature="0" />
        </g>
        <g
           id="g1001"
           transform="matrix(0.31154873,0,0,-0.31154873,106.95815,66.12876)">
          <path
             d="m -13.967,2.516 c -2.028,1.056 -3.848,2.742 -4.237,4.869 -0.124991,5.470187 5.524337,3.11471 5.56,6.498 0.519,3.785 5.9044652,5.865214 8.2349153,3.099889 C 7.9148927,26.084589 27.39736,16.87197 27.562,4.249 c 4.940182,-4.18061201 1.023786,-13.2667541 -2.051,-14.866 -0.743,-0.694 -2.01,-0.867 -2.508,-1.729 -0.679,-1.174 0.584,-2.506 0.695,-3.834 0.137,-1.646 -1.743,-3.027 -3.516,-2.887 -1.775,0.14 -3.249,1.45 -3.948,2.969 -0.698,1.519 -0.75,3.221 -0.694,4.871 3.004,0.844 4.853,5.794 2.025,7.059 C 16.06,-3.494 14.456,-5.13 13.885,-6.519 13.127937,0.44393737 10.175965,4.5683168 0.8165437,2.8207873 -5.7292954,1.5985914 -9.794,0.342 -13.967,2.516 Z"
             style="fill:#312c48;fill-opacity:1;fill-rule:nonzero;stroke:none"
             id="path1003"
             inkscape:connector-curvature="0"
             sodipodi:nodetypes="cccccccccccccsc" />
        </g>
        <g
           id="g1005"
           transform="matrix(0.31154873,0,0,-0.31154873,110.75667,68.502481)">
          <path
             d="m 0,0 c -0.991,-2.283 -1.983,-4.566 -2.975,-6.85 -0.397,-0.915 -0.819,-1.863 -1.578,-2.51 -1.16,-0.988 -2.856,-1.052 -4.349,-0.749 -1.494,0.302 -4.349,1.123 -5.867,0.993 -3.468,-0.297 -6.023,-1.959 -6.244,-2.378 -0.445,-0.848 0.18,-2.167 0.194,-3.125 0.014,-1.006 -0.146,-2.041 -0.663,-2.903 -0.347,-0.577 -0.836,-1.051 -1.297,-1.542 -1.233,-1.311 -2.342,-2.946 -2.242,-4.742 0.138,-2.456 2.401,-4.172 4.45,-5.532 1.311,-0.871 2.671,-1.762 4.218,-2.047 1.039,-0.192 2.106,-0.099 3.158,-0.006 2.192,0.194 4.403,0.392 6.508,1.038 2.104,0.647 4.121,1.784 5.443,3.543 1.129,1.502 1.681,3.348 2.207,5.152 0.849,2.918 1.688,5.876 1.794,8.913 0.098,2.847 -0.45,5.671 -0.738,8.505 C 1.768,-1.767 1.715,0.726 1.86,3.208 1.878,3.509 1.911,4.241 1.465,4.304 0.971,4.374 1.144,3.629 1.075,3.32 0.818,2.155 0.477,1.098 0,0"
             style="fill:#312c48;fill-opacity:1;fill-rule:nonzero;stroke:none"
             id="path1007"
             inkscape:connector-curvature="0" />
        </g>
        <g
           id="g1009"
           transform="matrix(0.31154873,0,0,-0.31154873,105.0563,72.56084)">
          <path
             d="m 0,0 c -0.471,-1.019 -0.229,-2.323 0.576,-3.104 0.363,-0.354 0.86,-0.609 1.363,-0.552 0.503,0.057 0.973,0.505 0.932,1.01 -0.015,0.186 -0.09,0.39 0.009,0.548 0.097,0.154 0.307,0.18 0.488,0.189 0.677,0.036 1.504,-0.007 1.822,-0.606 0.097,-0.182 0.13,-0.394 0.24,-0.569 0.261,-0.415 0.841,-0.467 1.33,-0.427 0.704,0.058 1.4,0.213 2.062,0.46 0.336,0.125 0.673,0.28 0.919,0.542 0.245,0.262 0.383,0.652 0.26,0.989 C 9.899,-1.24 9.646,-1.047 9.403,-0.875 7.281,0.633 1.707,3.693 0,0"
             style="fill:#f6d1a0;fill-opacity:1;fill-rule:nonzero;stroke:none"
             id="path1011"
             inkscape:connector-curvature="0" />
        </g>
        <g
           id="g1013"
           transform="matrix(0.31154873,0,0,-0.31154873,105.38367,72.553986)">
          <path
             d="M 0,0 C 1.115,-0.701 3.452,-0.74 4.526,0.075 4.782,0.27 4.727,0.725 4.351,0.723 3.646,0.718 2.966,0.441 2.252,0.405 1.541,0.369 0.839,0.513 0.13,0.479 -0.124,0.466 -0.22,0.139 0,0"
             style="fill:#44263d;fill-opacity:1;fill-rule:nonzero;stroke:none"
             id="path1015"
             inkscape:connector-curvature="0" />
        </g>
        <g
           id="g1017"
           transform="matrix(0.31154873,0,0,-0.31154873,114.71674,112.00979)"
           style="fill:#8080ff">
          <path
             d="m 0,0 c 0,0 -1.414,39.593 7.425,42.208 8.839,2.614 28.285,1.867 28.285,1.867 l 1.768,-7.096 c 0,0 -25.457,1.867 -28.993,-2.989 -3.535,-4.855 0,-34.364 0,-34.364 z"
             style="fill:#8080ff;fill-opacity:1;fill-rule:nonzero;stroke:none"
             id="path1019"
             inkscape:connector-curvature="0" />
        </g>
        <g
           id="g1021"
           transform="matrix(0.31154873,0,0,-0.31154873,92.528923,93.842297)">
          <path
             d="M 0,0 11.37,3.772 21.437,1.224 c 5.667,1.473 7.552,1.391 19.157,4.375 9.799,2.519 21.05,7.545 21.05,7.545 l 12.768,19.078 c 5.397,-0.492 12.305,-11.475 12.305,-11.475 0,0 -15.506,-21.096 -19.922,-22.567 C 62.38,-3.292 28.698,-7.198 17.35,-5.896 13.775,-5.487 7.455,-1.574 7.455,-1.574 l -5.732,-1.343 -6.996,-4.722 -1.222,1.011 2.783,3.049 z"
             style="fill:#f6d1a0;fill-opacity:1;fill-rule:nonzero;stroke:none"
             id="path1023"
             inkscape:connector-curvature="0" />
        </g>
        <g
           id="g1025"
           transform="matrix(0.31154873,0,0,-0.31154873,118.4675,75.55096)"
           style="fill:#009e9e;fill-opacity:1">
          <path
             d="m 0,0 c 0,0 15.209,-2.453 14.964,-15.454 -0.16,-8.468 -11.775,-24.285 -11.775,-24.285 0,0 -6.377,8.831 -14.227,11.284 0,0 6.133,12.019 6.623,16.926 C -3.925,-6.623 0,0 0,0"
             style="fill:#009e9e;fill-opacity:1;fill-rule:nonzero;stroke:none"
             id="path1027"
             inkscape:connector-curvature="0" />
        </g>
        <g
           id="g1029"
           transform="matrix(0.31154873,0,0,-0.31154873,85.526087,96.663869)"
           style="fill:#78baff;fill-opacity:1">
          <path
             d="M 0,0 H 42.934 V 3.705 H -3.008 V 3.008 C -3.008,1.347 -1.661,0 0,0"
             style="fill:#78baff;fill-opacity:1;fill-rule:nonzero;stroke:none"
             id="path1031"
             inkscape:connector-curvature="0" />
        </g>
        <path
           d="m 92.795017,96.234368 h 4.770746 V 95.87671 h -4.770746 z"
           style="fill:#ede9ed;fill-opacity:1;fill-rule:nonzero;stroke:none;stroke-width:0.31154874"
           id="path1033"
           inkscape:connector-curvature="0" />
        <path
           d="M 91.373732,96.234368 H 92.07939 V 95.87671 h -0.705658 z"
           style="fill:#ede9ed;fill-opacity:1;fill-rule:nonzero;stroke:none;stroke-width:0.31154874"
           id="path1035"
           inkscape:connector-curvature="0" />
        <g
           id="g1037"
           transform="matrix(0.31154873,0,0,-0.31154873,62.733431,91.817822)"
           style="fill:#6f7c91">
          <path
             d="M 0,0 -2.062,15.2 -1.32,17.965 0.337,15.647 2.245,0.151 Z"
             style="fill:#6f7c91;fill-opacity:1;fill-rule:nonzero;stroke:none"
             id="path1039"
             inkscape:connector-curvature="0" />
        </g>
        <g
           id="g1041"
           transform="matrix(0.31154873,0,0,-0.31154873,65.84923,92.128779)"
           style="fill:#8080ff">
          <path
             d="M 0,0 2.159,15.187 3.627,17.645 4.589,14.964 2.201,-0.466 Z"
             style="fill:#8080ff;fill-opacity:1;fill-rule:nonzero;stroke:none"
             id="path1043"
             inkscape:connector-curvature="0" />
        </g>
        <g
           id="g1045"
           transform="matrix(0.31154873,0,0,-0.31154873,63.678265,92.495379)"
           style="fill:#6f7c91">
          <path
             d="M 0,0 0.187,15.56 1.515,18.014 2.656,15.519 2.442,-0.021 Z"
             style="fill:#6f7c91;fill-opacity:1;fill-rule:nonzero;stroke:none"
             id="path1047"
             inkscape:connector-curvature="0" />
        </g>
        <g
           id="g1049"
           transform="matrix(0.31154873,0,0,-0.31154873,66.557068,97.173501)"
           style="fill:#2a7fff">
          <path
             d="m 0,0 h -11.764 l -2.133,19.507 H 1.554 Z"
             style="fill:#2a7fff;fill-opacity:1;fill-rule:nonzero;stroke:none"
             id="path1051"
             inkscape:connector-curvature="0" />
        </g>
        <g
           id="g1053"
           transform="matrix(0.31154873,0,0,-0.31154873,113.90441,143.14974)">
          <path
             d="m 0,0 h 2.819 l -31.76,138.18 h -5.982 z"
             style="fill:#5dd3ff;fill-opacity:1;fill-rule:nonzero;stroke:none"
             id="path1055"
             inkscape:connector-curvature="0" />
        </g>
        <g
           id="g1057"
           transform="matrix(0.31154873,0,0,-0.31154873,87.092491,142.69946)">
          <path
             d="M 0,0 H 2.819 L 23.253,136.734 H 17.272 Z"
             style="fill:#5dd3ff;fill-opacity:1;fill-rule:nonzero;stroke:none"
             id="path1059"
             inkscape:connector-curvature="0" />
        </g>
        <g
           id="g1061"
           transform="matrix(0.31154873,0,0,-0.31154873,73.758424,142.95961)">
          <path
             d="m 0,0 h 2.819 l -22.453,137.569 h -5.981 z"
             style="fill:#5dd3ff;fill-opacity:1;fill-rule:nonzero;stroke:none"
             id="path1063"
             inkscape:connector-curvature="0" />
        </g>
        <g
           id="g1065"
           transform="matrix(0.31154873,0,0,-0.31154873,49.106663,142.50412)">
          <path
             d="M 0,0 H 2.819 L 29.844,136.107 H 23.862 Z"
             style="fill:#5dd3ff;fill-opacity:1;fill-rule:nonzero;stroke:none"
             id="path1067"
             inkscape:connector-curvature="0" />
        </g>
        <path
           d="M 63.737179,100.10007 H 110.15358 V 98.175317 H 63.737179 Z"
           style="fill:#7daee0;fill-opacity:1;fill-rule:nonzero;stroke:none;stroke-width:0.31154874"
           id="path1069"
           inkscape:connector-curvature="0" />
        <path
           d="M 48.852938,100.10007 H 91.657241 V 98.175317 H 48.852938 Z"
           style="fill:#94bdec;fill-opacity:1;fill-rule:nonzero;stroke:none;stroke-width:0.31154874"
           id="path1071"
           inkscape:connector-curvature="0" />
        <path
           d="M 64.769339,99.141118 H 114.41245 V 96.565545 H 64.769339 Z"
           style="fill:#94bdec;fill-opacity:1;fill-rule:nonzero;stroke:none;stroke-width:0.31154874"
           id="path1073"
           inkscape:connector-curvature="0" />
        <path
           d="M 42.344373,99.141118 H 88.375075 V 96.565545 H 42.344373 Z"
           style="fill:#cde2f8;fill-opacity:1;fill-rule:nonzero;stroke:none;stroke-width:0.31154874"
           id="path1075"
           inkscape:connector-curvature="0" />
        <g
           transform="matrix(0.05086236,2.5867859e-4,-2.5857785e-4,0.05084238,71.502753,75.347726)"
           id="g914">
          <path
             d="m 145.07,280.927 c 0,0 0.799,-0.399 1.039,-1.758 0,-0.08 0,-0.16 0,-0.24 v -0.24 c -0.08,-1.278 -1.359,-2.797 -2.797,-4.315 -1.678,-1.678 -3.116,-2.478 -3.116,-2.478 0,0 -0.719,-3.356 -3.756,-7.99 -2.956,-4.635 -8.071,-9.509 -10.867,-8.071 -2.797,1.438 -0.32,5.434 -0.16,6.633 0.24,1.278 1.438,3.356 1.039,3.356 -0.479,-0.08 -6.553,-11.507 -21.735,-8.31 -3.916,0.878 -7.272,2.557 -9.989,4.714 v 26.69 c 0.959,-0.959 1.358,-1.439 1.358,-1.439 0,0 1.039,4.795 2.957,6.953 1.918,2.157 4.235,3.436 4.954,1.837 0.719,-1.518 -1.518,-8.07 -1.518,-8.07 0,0 4.155,3.995 5.354,4.954 1.199,0.958 3.516,2.157 4.155,0 0.559,-2.157 -1.119,-5.433 -2.477,-5.992 -1.278,-0.56 -2.078,-0.56 -2.078,-0.56 0,0 -0.799,-1.039 -1.199,-1.359 -0.479,-0.32 -0.559,-0.319 -0.559,-0.319 0,0 0.719,-0.4 2.957,-0.32 2.317,0.08 4.155,0.16 4.155,0.16 0,0 2.078,3.036 3.356,3.995 1.199,1.039 4.315,3.516 5.434,4.554 1.039,1.039 1.678,1.519 2.078,0.639 0.32,-0.879 -0.24,-3.196 -1.678,-4.874 -1.518,-1.598 -3.116,-2.477 -3.676,-3.276 -0.479,-0.959 -0.799,-1.678 -0.799,-1.678 0,0 2.957,2.157 3.676,2.877 0.799,0.639 6.073,3.915 6.952,4.474 0.879,0.64 1.279,0.24 1.279,0.24 0,0 0.639,0.479 0.879,0.16 0.24,-0.32 0.879,-2.477 -0.799,-3.755 -1.758,-1.359 -2.797,-1.998 -2.637,-2.158 0.08,-0.159 1.838,0.4 2.077,-0.08 0.16,-0.399 -0.08,-1.038 -0.32,-1.198 -0.16,-0.241 0.48,-0.72 0.48,-0.72 0,0 0.639,0 3.276,0.24 2.637,0.24 9.269,-1.997 10.628,-2.477 1.358,-0.48 2.077,-0.799 2.077,-0.799 z m -50.342,34.36 c 5.514,-3.595 5.753,-12.705 2.717,-14.463 -0.879,-0.559 -1.758,-0.958 -2.717,-1.199 v 4.156 c 0.24,0.159 0.48,0.4 0.639,0.799 0.479,0.959 0.24,2.157 0.24,2.157 0,0 -0.08,-1.518 -0.639,-2.317 -0.08,-0.08 -0.16,-0.16 -0.24,-0.24 z m 0,-53.059 c -1.198,0.88 -2.237,1.918 -3.196,2.957 v 26.449 c 0.799,-0.479 1.518,-0.959 2.158,-1.598 0.4,-0.399 0.719,-0.799 1.039,-1.118 z m -3.196,54.417 c 1.199,-0.239 2.317,-0.719 3.196,-1.358 V 304.18 c -0.479,-0.639 -0.879,-1.039 -0.879,-1.039 0,0 0.4,0.16 0.879,0.64 v -4.156 c -1.039,-0.319 -2.158,-0.479 -3.196,-0.239 v 6.952 0 c 0.24,-0.16 0.639,-0.24 0.479,0.32 -0.08,0.32 -0.32,0.319 -0.48,0.32 v 0 4.075 c 0.16,0 0.399,0 0.559,-0.08 0,0 -0.16,0.16 -0.56,0.319 z m 0,-51.46 c -5.594,5.913 -8.071,13.025 -8.63,14.623 -0.879,2.477 -6.552,11.426 -7.032,16.7 -0.4,5.354 -0.479,18.379 11.667,20.137 1.438,0.24 2.797,0.239 3.995,-10e-4 v -5.353 c -1.119,0.319 -3.596,0.639 -6.393,-2.557 -3.756,-4.315 -1.918,-11.347 1.039,-13.745 1.918,-1.598 3.756,-2.477 5.354,-3.356 z m 0,34.2 v 6.952 c -0.24,0.16 -0.4,0.16 -0.559,-0.08 -0.16,0.48 0.16,0.719 0.559,0.719 v 4.075 c -2.557,0.239 -6.073,-1.998 -5.194,-5.514 1.039,-3.994 2.957,-5.752 5.194,-6.152 z"
             inkscape:connector-curvature="0"
             id="path896"
             style="fill:#2e75a3" />
          <g
             inkscape:transform-center-y="-44.562164"
             transform="matrix(0.3825107,0,0,0.3825107,20.089286,125.61275)"
             id="g900">
            <path
               d="m 227.414,246.939 13.283,-0.497 c 7.13,-0.267 16.92,4.74 16.36,13.874 l -3.482,56.799 c -0.436,7.122 -3.506,10.89 -9.149,10.891 h -17.511 c -7.135,-10e-4 -10.136,-4.519 -10.641,-11.636 l -3.979,-56.054 c -0.503,-7.119 5,-12.998 15.119,-13.377 z"
               inkscape:connector-curvature="0"
               sodipodi:nodetypes="sssssssss"
               id="path898"
               style="fill:#eddf0e" />
          </g>
          <g
             inkscape:transform-center-y="-36.33424"
             inkscape:transform-center-x="29.82031"
             transform="matrix(0.31077472,-0.25449536,0.25449536,0.31077472,-108.32473,252.83556)"
             id="g904">
            <path
               d="m 364.994,242.27 13.283,-0.498 c 7.129,-0.267 16.919,4.74 16.36,13.874 l -3.481,56.799 c -0.437,7.122 -3.506,10.89 -9.149,10.89 l -17.511,0.001 c -7.135,-0.001 -10.136,-4.519 -10.64,-11.636 l -3.979,-56.054 c -0.506,-7.117 4.998,-12.998 15.117,-13.376 z"
               inkscape:connector-curvature="0"
               sodipodi:nodetypes="sssssssss"
               id="path902"
               style="fill:#fd6600" />
          </g>
          <g
             inkscape:transform-center-y="-9.8080536"
             inkscape:transform-center-x="43.056986"
             transform="matrix(0.07828233,-0.37104593,0.37104593,0.07828233,-104.36,429.7208)"
             id="g908">
            <path
               d="m 485.005,307.459 13.284,-0.497 c 7.129,-0.267 16.92,4.739 16.36,13.874 l -3.481,56.8 c -0.436,7.121 -3.506,10.889 -9.149,10.89 h -17.512 c -7.135,0 -10.134,-4.519 -10.64,-11.636 l -3.978,-56.054 c -0.505,-7.117 4.999,-12.998 15.116,-13.377 z"
               inkscape:connector-curvature="0"
               sodipodi:nodetypes="sssssssss"
               id="path906"
               style="fill:#a4dc2d" />
          </g>
          <g
             inkscape:transform-center-y="16.468461"
             inkscape:transform-center-x="30.900947"
             transform="matrix(-0.13902763,-0.26521617,0.26521617,-0.13902763,13.934291,526.86862)"
             id="g912">
            <path
               d="m 584.441,445.677 13.283,-0.497 c 7.131,-0.266 16.921,4.741 16.36,13.874 l -3.48,56.8 c -0.438,7.121 -3.505,10.89 -9.149,10.89 h -17.511 c -7.134,0 -10.135,-4.518 -10.639,-11.635 l -3.98,-56.054 c -0.504,-7.118 4.999,-12.998 15.116,-13.378 z"
               inkscape:connector-curvature="0"
               sodipodi:nodetypes="sssssssss"
               id="path910"
               style="fill:#ef3e3e" />
          </g>
        </g>
      </g>
    </g>
  </g>
</svg>
