<?xml version="1.0" encoding="UTF-8" standalone="no"?>
<!-- Created with Inkscape (http://www.inkscape.org/) -->

<svg
   xmlns:dc="http://purl.org/dc/elements/1.1/"
   xmlns:cc="http://creativecommons.org/ns#"
   xmlns:rdf="http://www.w3.org/1999/02/22-rdf-syntax-ns#"
   xmlns:svg="http://www.w3.org/2000/svg"
   xmlns="http://www.w3.org/2000/svg"
   xmlns:sodipodi="http://sodipodi.sourceforge.net/DTD/sodipodi-0.dtd"
   xmlns:inkscape="http://www.inkscape.org/namespaces/inkscape"
   width="820"
   height="500"
   viewBox="0 0 216.95833 132.29166"
   version="1.1"
   id="svg8"
   sodipodi:docname="intro_chamilo.svg"
   inkscape:version="0.92.3 (2405546, 2018-03-11)">
  <defs
     id="defs2">
    <clipPath
       id="clipPath28"
       clipPathUnits="userSpaceOnUse">
      <path
         inkscape:connector-curvature="0"
         id="path26"
         d="M 0,500 H 500 V 0 H 0 Z" />
    </clipPath>
    <clipPath
       id="clipPath426"
       clipPathUnits="userSpaceOnUse">
      <path
         inkscape:connector-curvature="0"
         id="path424"
         d="M 0,500 H 500 V 0 H 0 Z" />
    </clipPath>
  </defs>
  <sodipodi:namedview
     id="base"
     pagecolor="#ffffff"
     bordercolor="#666666"
     borderopacity="1.0"
     inkscape:pageopacity="0.0"
     inkscape:pageshadow="2"
     inkscape:zoom="0.50560897"
     inkscape:cx="471.66911"
     inkscape:cy="169.21822"
     inkscape:document-units="mm"
     inkscape:current-layer="layer1"
     showgrid="false"
     units="px"
     inkscape:window-width="1366"
     inkscape:window-height="713"
     inkscape:window-x="0"
     inkscape:window-y="27"
     inkscape:window-maximized="1" />
  <metadata
     id="metadata5">
    <rdf:RDF>
      <cc:Work
         rdf:about="">
        <dc:format>image/svg+xml</dc:format>
        <dc:type
           rdf:resource="http://purl.org/dc/dcmitype/StillImage" />
        <dc:title></dc:title>
      </cc:Work>
    </rdf:RDF>
  </metadata>
  <g
     inkscape:label="Capa 1"
     inkscape:groupmode="layer"
     id="layer1"
     transform="translate(0,-164.70835)">
    <g
       id="g3002"
       transform="matrix(1.2374001,0,0,1.2374001,-22.079447,-36.783348)">
      <g
         transform="matrix(1.138725,0,0,1.138725,-2.8111207,1.0630372)"
         id="g2556">
        <g
           id="g2362"
           transform="matrix(1.0720976,0,0,1.0720976,-44.839871,35.51947)">
          <g
             transform="matrix(0.35277777,0,0,-0.35277777,121.1158,175.71766)"
             id="g30">
            <path
               inkscape:connector-curvature="0"
               id="path32"
               style="fill:#7f2aff;fill-opacity:1;fill-rule:nonzero;stroke:none"
               d="m 0,0 c 0,-4.211 -32.359,-7.625 -72.276,-7.625 -39.917,0 -72.276,3.414 -72.276,7.625 0,4.211 32.359,7.625 72.276,7.625 C -32.359,7.625 0,4.211 0,0" />
          </g>
          <g
             transform="matrix(0.35277777,0,0,-0.35277777,70.120964,173.40322)"
             id="g34">
            <path
               inkscape:connector-curvature="0"
               id="path36"
               style="fill:#7f2aff;fill-opacity:1;fill-rule:nonzero;stroke:none"
               d="m 0,0 c 0,-0.588 -4.518,-1.064 -10.091,-1.064 -5.573,0 -10.091,0.476 -10.091,1.064 0,0.588 4.518,1.064 10.091,1.064 C -4.518,1.064 0,0.588 0,0" />
          </g>
          <g
             transform="matrix(0.35277777,0,0,-0.35277777,78.509773,179.21908)"
             id="g38" />
          <g
             transform="matrix(0.35277777,0,0,-0.35277777,115.68874,171.82384)"
             id="g42">
            <path
               inkscape:connector-curvature="0"
               id="path44"
               style="fill:#310381;fill-opacity:1;fill-rule:nonzero;stroke:none"
               d="m 0,0 c 0,0 11.518,-4.479 17.703,-4.692 0,0 7.252,0.64 -11.518,9.171 0,0 -1.999,-1.898 -6.398,-1.493 z" />
          </g>
          <g
             transform="matrix(0.35277777,0,0,-0.35277777,104.10683,175.15025)"
             id="g46">
            <path
               inkscape:connector-curvature="0"
               id="path48"
               style="fill:#310381;fill-opacity:1;fill-rule:nonzero;stroke:none"
               d="m 0,0 c 0,0 12.208,-1.916 18.296,-0.803 0,0 7.917,1.534 -12.241,5.86 0,0 -3.004,-0.322 -7.736,0.96 z" />
          </g>
          <g
             transform="matrix(0.35277777,0,0,-0.35277777,103.51392,159.33794)"
             id="g50">
            <path
               inkscape:connector-curvature="0"
               id="path52"
               style="fill:#ffb380;fill-opacity:1;fill-rule:nonzero;stroke:none"
               d="M 0,0 C 0,0 11.689,-13.211 8.917,-22.809 6.144,-32.407 0,-38.806 0,-38.806 c 0,0 4.437,-2.132 8.49,-1.279 0,0 12.837,10.54 11.431,35.13 0,0 -6.661,6.422 -14.805,7.508 L 3.371,-0.201 Z" />
          </g>
          <g
             transform="matrix(0.35277777,0,0,-0.35277777,104.70317,159.40874)"
             id="g54">
            <path
               inkscape:connector-curvature="0"
               id="path56"
               style="fill:#454195;fill-opacity:1;fill-rule:nonzero;stroke:none"
               d="m 0,0 c 0,0 -5.972,1.493 -18.982,-3.413 -13.011,-4.905 -43.925,-13.437 -47.237,12.371 0,0 0.954,11.731 -1.179,18.77 l 16.422,-11.305 c 0,0 17.277,-4.265 31.141,0 13.863,4.266 18.769,4.053 22.395,2.773 C 2.56,19.196 7.039,9.385 0,0" />
          </g>
          <g
             transform="matrix(0.35277777,0,0,-0.35277777,90.706464,123.81869)"
             id="g58">
            <path
               inkscape:connector-curvature="0"
               id="path60"
               style="fill:#373e48;fill-opacity:1;fill-rule:nonzero;stroke:none"
               d="m 0,0 c 0,0 3.622,-12.584 0,-20.049 0,0 1.071,-17.063 -16.418,-14.29 0,0 1.919,-8.105 4.905,-8.532 0,0 -23.888,-7.252 -34.126,11.091 0,0 -2.986,6.399 0,10.878 2.986,4.479 6.825,3.839 6.825,3.839 0,0 -1.919,9.385 3.199,15.57 C -30.496,4.692 -5.763,14.077 0,0" />
          </g>
          <g
             transform="matrix(0.35277777,0,0,-0.35277777,89.579375,125.39878)"
             id="g62">
            <path
               inkscape:connector-curvature="0"
               id="path64"
               style="fill:#ffccaa;fill-opacity:1;fill-rule:nonzero;stroke:none"
               d="m 0,0 c 0,0 8.672,-22.708 -2.56,-28.154 -7.038,-3.413 -10.664,-1.706 -10.664,-1.706 0,0 -1.493,-7.039 1.493,-12.798 0,0 -4.692,-5.118 -9.811,3.2 0,0 2.772,7.891 1.919,13.65 0,0 -1.493,2.133 -1.919,5.119 0,0 -2.986,4.906 -1.28,7.678 1.706,2.773 4.906,1.493 5.332,-0.639 0,0 11.731,-1.707 17.49,13.65" />
          </g>
          <g
             transform="matrix(0.35277777,0,0,-0.35277777,89.047456,154.03061)"
             id="g66">
            <path
               inkscape:connector-curvature="0"
               id="path68"
               style="fill:#19114c;fill-opacity:1;fill-rule:nonzero;stroke:none"
               d="m 0,0 33.325,3.578 10.84,33.367 H 41.007 L 31.368,6.932 0,3.311 Z" />
          </g>
          <g
             transform="matrix(0.35277777,0,0,-0.35277777,81.979836,139.31886)"
             id="g70">
            <path
               inkscape:connector-curvature="0"
               id="path72"
               style="fill:#454195;fill-opacity:1;fill-rule:nonzero;stroke:none"
               d="m 0,0 c 0,0 -8.318,-0.853 -7.892,-9.171 0.427,-8.318 2.773,-13.011 2.773,-13.011 0,0 5.119,4.053 12.158,4.053 0,0 2.559,-16.637 6.398,-22.395 0,0 -0.853,11.09 0,16.849 0,0 6.612,3.199 4.692,9.172 C 16.21,-8.531 9.811,-3.199 9.811,-3.199 9.811,-3.199 5.065,-7.897 0,0" />
          </g>
          <g
             transform="matrix(0.35277777,0,0,-0.35277777,88.498816,157.22664)"
             id="g74">
            <path
               inkscape:connector-curvature="0"
               id="path76"
               style="fill:#ffccaa;fill-opacity:1;fill-rule:nonzero;stroke:none"
               d="m 0,0 c 0,0 -13.787,-7.678 -23.598,28.581 0,0 4.479,4.479 12.158,4.052 0,0 3.412,-17.916 6.398,-22.395 2.986,-4.479 13.224,-2.346 14.503,1.066 1.28,3.413 -1.066,8.745 2.773,10.665 3.839,1.919 7.679,2.346 8.532,0.213 0.853,-2.133 -1.92,-5.13 -4.053,-6.191 C 14.581,14.93 15.434,9.811 13.728,8.105 12.021,6.398 4.363,0.596 0,0" />
          </g>
          <g
             transform="matrix(0.35277777,0,0,-0.35277777,105.31884,158.4374)"
             id="g78">
            <path
               inkscape:connector-curvature="0"
               id="path80"
               style="fill:#ffccaa;fill-opacity:1;fill-rule:nonzero;stroke:none"
               d="m 0,0 c 0,0 10.413,-1.139 18.517,-11.544 8.105,-10.405 10.665,-23.415 10.665,-23.415 0,0 4.479,-0.641 6.398,1.492 0,0 0.214,37.658 -34.125,48.05 0,0 2.21,-6.498 -1.455,-14.583" />
          </g>
          <g
             style="fill:#f2f2f2"
             transform="matrix(0.35277777,0,0,-0.35277777,70.467533,152.18541)"
             id="g82">
            <path
               inkscape:connector-curvature="0"
               id="path84"
               style="fill:#f2f2f2;fill-opacity:1;fill-rule:nonzero;stroke:none"
               d="M 0,0 C 0,0 -6.019,27.908 11.731,31.715 29.48,35.521 30.827,0.268 30.827,0.268 c 0,0 -5.247,-37.822 43.923,-25.337 0,0 12.698,3.527 15.257,-7.35 2.56,-10.878 -3.412,-16.85 -10.877,-18.77 -7.465,-1.919 -40.737,-4.692 -49.483,-2.772 0,0 -16.209,0.639 -29.647,53.961" />
          </g>
          <g
             transform="matrix(0.35277777,0,0,-0.35277777,79.190175,175.89472)"
             id="g86">
            <path
               inkscape:connector-curvature="0"
               id="path88"
               style="fill:#34227a;fill-opacity:1;fill-rule:nonzero;stroke:none"
               d="m 0,0 h 7.481 l 6.396,12.601 H 6.939 Z" />
          </g>
          <g
             transform="matrix(0.35277777,0,0,-0.35277777,100.77594,175.89472)"
             id="g90">
            <path
               inkscape:connector-curvature="0"
               id="path92"
               style="fill:#34227a;fill-opacity:1;fill-rule:nonzero;stroke:none"
               d="m 0,0 h -7.481 l -7.454,14.686 6.446,0.731 z" />
          </g>
          <g
             transform="matrix(0.35277777,0,0,-0.35277777,90.048252,129.98866)"
             id="g94">
            <path
               inkscape:connector-curvature="0"
               id="path96"
               style="fill:#ffccaa;fill-opacity:1;fill-rule:nonzero;stroke:none"
               d="M 0,0 C 0,0 1.28,-2.666 2.986,-3.732 4.692,-4.799 3.093,-7.145 1.92,-6.932 L 0.747,-6.718 Z" />
          </g>
          <g
             transform="matrix(0.35277777,0,0,-0.35277777,87.858207,129.23626)"
             id="g98">
            <path
               inkscape:connector-curvature="0"
               id="path100"
               style="fill:#ff9955;fill-opacity:1;fill-rule:nonzero;stroke:none"
               d="M 0,0 C 0.676,-0.616 1.23,-1.063 1.877,-1.293 2.196,-1.413 2.534,-1.501 2.912,-1.547 3.291,-1.604 3.692,-1.611 4.159,-1.68 3.827,-2 3.414,-2.224 2.954,-2.316 2.495,-2.433 1.989,-2.374 1.522,-2.213 0.583,-1.856 -0.055,-0.925 0,0" />
          </g>
          <g
             transform="matrix(0.35277777,0,0,-0.35277777,88.253212,132.43881)"
             id="g102">
            <path
               inkscape:connector-curvature="0"
               id="path104"
               style="fill:#ff9955;fill-opacity:1;fill-rule:nonzero;stroke:none"
               d="M 0,0 C 0.24,-0.712 0.422,-1.218 0.721,-1.446 0.862,-1.579 1.07,-1.678 1.328,-1.796 1.596,-1.897 1.899,-1.988 2.251,-2.152 1.958,-2.394 1.612,-2.529 1.233,-2.56 0.852,-2.584 0.419,-2.479 0.066,-2.183 -0.278,-1.874 -0.443,-1.419 -0.421,-1.028 -0.407,-0.635 -0.273,-0.273 0,0" />
          </g>
          <g
             transform="matrix(0.35277777,0,0,-0.35277777,68.668014,173.27266)"
             id="g106">
            <path
               inkscape:connector-curvature="0"
               id="path108"
               style="fill:#9673d0;fill-opacity:1;fill-rule:nonzero;stroke:none"
               d="m 0,0 c 0,0 6.034,9.743 0.502,14.991 -4.067,2.929 -8.705,-2.197 -11.268,0.732 -2.563,2.929 9.154,12.571 5.37,17.454 -3.783,4.882 -11.351,5.248 -15.745,1.098 -4.393,-4.15 2.686,-27.419 8.178,-34.275 0,0 7.252,-0.833 12.963,0" />
          </g>
          <g
             transform="matrix(0.35277777,0,0,-0.35277777,66.501711,173.40322)"
             id="g110">
            <path
               inkscape:connector-curvature="0"
               id="path112"
               style="fill:#310381;fill-opacity:1;fill-rule:nonzero;stroke:none"
               d="m 0,0 c -2.305,2.479 -4.285,5.261 -5.951,8.223 -1.669,2.957 -2.948,6.177 -3.5,9.569 -0.299,1.694 -0.245,3.432 -0.064,5.142 0.285,1.675 0.562,3.358 1.055,4.99 0.471,1.634 1.043,3.244 1.793,4.774 0.774,1.503 1.667,3.006 2.969,4.102 -1.194,-1.2 -2.008,-2.707 -2.677,-4.239 -0.68,-1.535 -1.19,-3.14 -1.596,-4.768 -0.408,-1.628 -0.699,-3.284 -0.95,-4.944 -0.153,-1.648 -0.187,-3.318 0.121,-4.958 0.481,-3.299 1.738,-6.458 3.293,-9.429 0.755,-1.501 1.639,-2.937 2.556,-4.35 C -2.043,2.691 -1.049,1.326 0,0" />
          </g>
        </g>
        <g
           id="g2318"
           transform="matrix(1.0566969,0,0,1.0566969,-24.029055,38.324295)">
          <g
             transform="matrix(0.35277777,0,0,-0.35277777,144.61253,170.5483)"
             id="g194">
            <path
               inkscape:connector-curvature="0"
               id="path196"
               style="fill:#7f2aff;fill-opacity:1;fill-rule:nonzero;stroke:none"
               d="m 0,0 c 0,-0.721 -5.538,-1.305 -12.37,-1.305 -6.832,0 -12.37,0.584 -12.37,1.305 0,0.721 5.538,1.305 12.37,1.305 C -5.538,1.305 0,0.721 0,0" />
          </g>
          <g
             transform="matrix(0.35277777,0,0,-0.35277777,139.40666,170.67541)"
             id="g198">
            <path
               inkscape:connector-curvature="0"
               id="path200"
               style="fill:#9673d0;fill-opacity:1;fill-rule:nonzero;stroke:none"
               d="m 0,0 c 0,0 -10.995,11.981 -14.097,19.17 -3.1,7.19 1.974,8.458 4.511,4.652 2.537,-3.805 7.19,-12.405 8.458,-2.114 1.269,10.29 -0.423,12.545 1.128,13.814 1.55,1.269 3.523,0.423 4.934,-4.511 1.409,-4.933 6.342,-5.92 7.611,-1.268 1.268,4.652 4.511,14.942 9.163,14.378 4.651,-0.564 -0.142,-8.035 0,-12.264 0.141,-4.229 3.946,-3.524 6.907,0.282 2.96,3.806 13.11,15.55 17.62,12.004 4.511,-3.546 -1.833,-8.198 0,-12.708 1.832,-4.512 1.551,-11.865 -7.047,-9.034 -8.599,2.831 -8.036,-5.204 -8.459,-6.613 -0.422,-1.41 -2.537,-6.203 -7.893,-3.807 -5.357,2.397 -8.317,1.269 -6.344,-0.704 C 18.466,9.303 21.989,7.189 20.157,6.061 18.325,4.934 11.276,8.599 8.316,6.625 5.356,4.651 4.229,0 4.229,0 Z" />
          </g>
          <g
             transform="matrix(0.35277777,0,0,-0.35277777,154.32496,158.74072)"
             id="g202">
            <path
               inkscape:connector-curvature="0"
               id="path204"
               style="fill:#310381;fill-opacity:1;fill-rule:nonzero;stroke:none"
               d="m 0,0 c -3.617,-3.114 -7.472,-5.97 -11.626,-8.376 -1.035,-0.603 -2.099,-1.175 -3.219,-1.645 -1.114,-0.47 -2.245,-0.87 -3.378,-1.257 l -6.789,-2.254 c -2.252,-0.756 -4.489,-1.558 -6.62,-2.571 -2.114,-1.013 -4.192,-2.23 -5.678,-3.991 -0.74,-0.883 -1.231,-1.922 -1.373,-3.081 -0.188,-1.175 -0.349,-2.353 -0.496,-3.534 -0.29,-2.36 -0.522,-4.737 -0.431,-7.122 -0.283,2.376 -0.133,4.78 0.019,7.164 0.102,1.191 0.23,2.38 0.379,3.567 0.063,0.595 0.216,1.227 0.443,1.805 0.258,0.568 0.561,1.121 0.949,1.604 1.534,1.976 3.715,3.209 5.853,4.281 2.169,1.059 4.423,1.896 6.684,2.678 l 6.817,2.183 c 1.128,0.372 2.251,0.756 3.341,1.201 1.08,0.451 2.14,0.977 3.186,1.538 2.093,1.112 4.112,2.376 6.093,3.694 C -3.851,-2.815 -1.914,-1.424 0,0" />
          </g>
          <g
             transform="matrix(0.35277777,0,0,-0.35277777,184.07506,175.10855)"
             id="g206">
            <path
               inkscape:connector-curvature="0"
               id="path208"
               style="fill:#7f2aff;fill-opacity:1;fill-rule:nonzero;stroke:none"
               d="m 0,0 c 0,-4.211 -32.359,-7.625 -72.276,-7.625 -39.917,0 -72.277,3.414 -72.277,7.625 0,4.211 32.36,7.625 72.277,7.625 C -32.359,7.625 0,4.211 0,0" />
          </g>
          <g
             transform="matrix(0.35277777,0,0,-0.35277777,176.72289,178.89248)"
             id="g210" />
          <g
             transform="matrix(0.35277777,0,0,-0.35277777,176.23645,156.85488)"
             id="g214">
            <path
               inkscape:connector-curvature="0"
               id="path216"
               style="fill:#dd4412;fill-opacity:1;fill-rule:nonzero;stroke:none"
               d="M 0,0 H -45.97 L -63.601,9.795 H -26.28 Z" />
          </g>
          <g
             transform="matrix(0.35277777,0,0,-0.35277777,176.23645,135.98158)"
             id="g218">
            <path
               inkscape:connector-curvature="0"
               id="path220"
               style="fill:#fa5c17;fill-opacity:1;fill-rule:nonzero;stroke:none"
               d="m 0,0 v -59.168 h -6.129 v 2.284 l -20.151,7.51 V 7.924 c 0,0 12.393,14.46 26.28,-7.924" />
          </g>
          <g
             transform="matrix(0.35277777,0,0,-0.35277777,174.07431,135.61674)"
             id="g222">
            <path
               inkscape:connector-curvature="0"
               id="path224"
               style="fill:#dd4412;fill-opacity:1;fill-rule:nonzero;stroke:none"
               d="m 0,0 v -57.918 l -26.28,8.544 V 7.924 c 0,0 12.392,14.46 26.28,-7.924" />
          </g>
          <path
             inkscape:connector-curvature="0"
             id="path226"
             style="fill:#fa5c17;fill-opacity:1;fill-rule:nonzero;stroke:none;stroke-width:0.35277778"
             d="m 176.23648,156.85481 h -16.21719 v 2.72591 h 16.21719 z" />
          <g
             transform="matrix(0.35277777,0,0,-0.35277777,153.79957,153.39946)"
             id="g228">
            <path
               inkscape:connector-curvature="0"
               id="path230"
               style="fill:#dd4412;fill-opacity:1;fill-rule:nonzero;stroke:none"
               d="m 0,0 v -6.312 l 17.631,-11.21 v 7.727 z" />
          </g>
          <path
             inkscape:connector-curvature="0"
             id="path232"
             style="fill:#19114c;fill-opacity:1;fill-rule:nonzero;stroke:none;stroke-width:0.35277778"
             d="m 154.48667,167.31079 h -0.68685 v -11.6459 h 0.68685 z" />
          <g
             transform="matrix(0.35277777,0,0,-0.35277777,165.73683,145.66988)"
             id="g234">
            <path
               inkscape:connector-curvature="0"
               id="path236"
               style="fill:#ffd63f;fill-opacity:1;fill-rule:nonzero;stroke:none"
               d="m 0,0 c 0,0 -18.166,-10.302 -28.179,-11.318 -10.011,-1.016 -7.94,-19.735 -8.251,-23.072 -0.309,-3.338 -2.486,-24.813 -2.486,-24.813 0,0 2.611,-2.032 5.078,-0.871 0,0 12.996,32.538 15.236,45.418 0,0 20.267,8.101 28.998,16.603 0,0 -5.58,-2.092 -10.396,-1.947" />
          </g>
          <g
             transform="matrix(0.35277777,0,0,-0.35277777,170.33433,144.54367)"
             id="g238">
            <path
               inkscape:connector-curvature="0"
               id="path240"
               style="fill:#e6c03b;fill-opacity:1;fill-rule:nonzero;stroke:none"
               d="m 0,0 c 0,0 12.914,-15.236 0,-26.845 -9.69,-7.255 -32.939,-8.126 -32.939,-8.126 0,0 3.046,-23.797 -1.162,-38.743 0,0 -2.466,-2.322 -6.529,-0.725 0,0 -1.058,10.556 -3.432,18.99 0,0 10.542,28.604 12.428,37.601 0,0 17.982,7.461 28.997,16.602 0,0 1.186,0.666 2.637,1.246" />
          </g>
          <g
             transform="matrix(0.35277777,0,0,-0.35277777,160.40315,118.79485)"
             id="g242">
            <path
               inkscape:connector-curvature="0"
               id="path244"
               style="fill:#782144;fill-opacity:1;fill-rule:nonzero;stroke:none"
               d="m 0,0 c 0,0 -17.703,-5.224 -5.659,-26.845 2.322,-5.078 -1.441,-8.271 0.731,-15.236 2.171,-6.965 10.443,-22.346 31.628,-13.495 21.186,8.851 20.025,22.782 16.687,28.731 -3.337,5.949 -3.773,6.965 -3.193,17.413 C 40.775,1.016 32.188,17.993 15.296,15.671 -1.596,13.35 0,0 0,0" />
          </g>
          <g
             transform="matrix(0.35277777,0,0,-0.35277777,159.99385,122.58291)"
             id="g246">
            <path
               inkscape:connector-curvature="0"
               id="path248"
               style="fill:#f89a5b;fill-opacity:1;fill-rule:nonzero;stroke:none"
               d="m 0,0 c 0,0 -1.161,-23.798 14.945,-22.637 16.108,1.161 16.398,12.915 15.672,13.93 0,0 5.063,4.063 0.21,8.707 -2.387,2.467 -4.853,-2.467 -4.853,-2.467 0,0 -12.624,-4.788 -23.363,6.384 C 2.611,3.917 1.886,1.306 0,0" />
          </g>
          <g
             transform="matrix(0.35277777,0,0,-0.35277777,165.7992,130.5173)"
             id="g250">
            <path
               inkscape:connector-curvature="0"
               id="path252"
               style="fill:#f89a5b;fill-opacity:1;fill-rule:nonzero;stroke:none"
               d="m 0,0 c 0,0 0.93,-4.063 0,-6.385 -0.93,-2.322 1.972,-5.659 5.02,-2.322 3.046,3.337 2.611,5.514 2.611,5.514 0,0 -0.788,1.873 -0.611,5.145 C 7.02,1.952 3.738,0.646 0,0" />
          </g>
          <g
             transform="matrix(0.35277777,0,0,-0.35277777,152.98067,146.54011)"
             id="g254">
            <path
               inkscape:connector-curvature="0"
               id="path256"
               style="fill:#19114c;fill-opacity:1;fill-rule:nonzero;stroke:none"
               d="m 0,0 c 0,0 22.056,0.146 25.539,19.735 3.482,19.589 10.797,19.299 10.797,19.299 0,0 -0.141,-3.275 3.165,-3.596 0,0 -8.448,-30.359 -14.688,-33.551 -6.24,-3.193 -18.428,-6.24 -23.652,-6.24 0,0 -2.177,2.177 -1.161,4.353" />
          </g>
          <g
             transform="matrix(0.35277777,0,0,-0.35277777,165.73683,145.66988)"
             id="g258">
            <path
               inkscape:connector-curvature="0"
               id="path260"
               style="fill:#34227a;fill-opacity:1;fill-rule:nonzero;stroke:none"
               d="m 0,0 c 0,0 0.006,11.505 -1.914,14.874 -1.92,3.368 -4.354,7.473 -2.177,13.277 2.177,5.804 4.268,8.416 4.268,8.416 l 7.631,3.192 c 0,0 4.789,1.123 8.126,-0.889 L 13.032,3.192 C 13.032,3.192 6.413,-0.58 0,0" />
          </g>
          <g
             style="fill:#ececec;fill-opacity:1"
             transform="matrix(0.35277777,0,0,-0.35277777,136.95824,149.53492)"
             id="g262">
            <path
               inkscape:connector-curvature="0"
               id="path264"
               style="fill:#ececec;fill-opacity:1;fill-rule:nonzero;stroke:none"
               d="m 0,0 v -3.86 c 0,-1.371 16.469,-2.482 36.784,-2.482 20.316,0 36.784,1.111 36.784,2.482 V 0 Z" />
          </g>
          <g
             transform="matrix(0.35277777,0,0,-0.35277777,162.9115,149.53492)"
             id="g266">
            <path
               inkscape:connector-curvature="0"
               id="path268"
               style="fill:#310381;fill-opacity:1;fill-rule:nonzero;stroke:none"
               d="m 0,0 c 0,-1.371 -16.469,-2.482 -36.784,-2.482 -20.316,0 -36.784,1.111 -36.784,2.482 0,1.371 16.468,2.482 36.784,2.482 C -16.469,2.482 0,1.371 0,0" />
          </g>
          <g
             transform="matrix(0.35277777,0,0,-0.35277777,152.98067,146.54011)"
             id="g270">
            <path
               inkscape:connector-curvature="0"
               id="path272"
               style="fill:#f89a5b;fill-opacity:1;fill-rule:nonzero;stroke:none"
               d="m 0,0 c 0,0 -4.861,0.871 -6.312,0.726 -1.452,-0.145 -4.063,-2.757 -6.312,-3.556 -2.249,-0.797 0.87,-2.466 4.426,-1.886 3.554,0.581 5.731,-0.435 9.359,0.363 0,0 -1.887,1.814 -1.161,4.353" />
          </g>
          <g
             transform="matrix(0.35277777,0,0,-0.35277777,139.68366,174.13153)"
             id="g274">
            <path
               inkscape:connector-curvature="0"
               id="path276"
               style="fill:#19114c;fill-opacity:1;fill-rule:nonzero;stroke:none"
               d="m 0,0 v -2.8 c 0,-0.995 11.946,-1.801 26.684,-1.801 14.736,0 26.682,0.806 26.682,1.801 V 0 Z" />
          </g>
          <g
             transform="matrix(0.35277777,0,0,-0.35277777,139.13382,139.8022)"
             id="g278">
            <path
               inkscape:connector-curvature="0"
               id="path280"
               style="fill:#19114c;fill-opacity:1;fill-rule:nonzero;stroke:none"
               d="M 0,0 9.794,-26.881 H 41.66 L 31.778,0 Z" />
          </g>
          <g
             transform="matrix(0.35277777,0,0,-0.35277777,158.51007,174.13171)"
             id="g282">
            <path
               inkscape:connector-curvature="0"
               id="path284"
               style="fill:#310381;fill-opacity:1;fill-rule:nonzero;stroke:none"
               d="m 0,0 c 0,-0.994 -11.946,-1.8 -26.683,-1.8 -14.737,0 -26.683,0.806 -26.683,1.8 0,0.995 11.946,1.801 26.683,1.801 C -11.946,1.801 0,0.995 0,0" />
          </g>
          <path
             inkscape:connector-curvature="0"
             id="path286"
             style="fill:#ececec;fill-opacity:1;fill-rule:nonzero;stroke:none;stroke-width:0.35277778"
             d="m 148.25874,173.77332 h 1.67604 v -22.00098 h -1.67604 z" />
          <g
             transform="matrix(0.35277777,0,0,-0.35277777,152.00813,166.55542)"
             id="g288">
            <path
               inkscape:connector-curvature="0"
               id="path290"
               style="fill:#454195;fill-opacity:1;fill-rule:nonzero;stroke:none"
               d="m 0,0 c 0,0 -4.823,-7.328 -8.252,-9.722 -3.43,-2.394 -2.269,-6.965 2.375,-4.136 4.644,2.83 7.255,5.998 8.996,6.482 1.741,0.483 1.959,6.505 1.959,6.505 0,0 -3.301,-0.29 -5.078,0.871" />
          </g>
          <g
             transform="matrix(0.35277777,0,0,-0.35277777,156.41372,170.93103)"
             id="g292">
            <path
               inkscape:connector-curvature="0"
               id="path294"
               style="fill:#454195;fill-opacity:1;fill-rule:nonzero;stroke:none"
               d="m 0,0 c 0,0 1.841,-1.781 -2.077,-3.74 -3.918,-1.959 -10.66,-3.674 -9.468,-5.333 1.191,-1.658 9.794,0.726 12.406,1.016 2.613,0.29 5.374,1.489 5.081,3.23 C 5.649,-3.087 5.359,1.085 5.359,1.085 5.359,1.085 3.928,-0.722 0,0" />
          </g>
          <g
             transform="matrix(0.35277777,0,0,-0.35277777,153.83058,149.28515)"
             id="g296">
            <path
               inkscape:connector-curvature="0"
               id="path298"
               style="fill:#19114c;fill-opacity:1;fill-rule:nonzero;stroke:none"
               d="M 0,0 H 20.876 V 1.342 H -0.493 Z" />
          </g>
          <g
             transform="matrix(0.35277777,0,0,-0.35277777,162.59665,125.41134)"
             id="g300">
            <path
               inkscape:connector-curvature="0"
               id="path302"
               style="fill:#d07e4d;fill-opacity:1;fill-rule:nonzero;stroke:none"
               d="m 0,0 c 0,0 0.312,-3.047 -0.449,-4.897 -0.762,-1.85 0.761,-3.265 1.849,-3.047 1.089,0.217 1.372,0.761 1.372,0.761 z" />
          </g>
          <g
             transform="matrix(0.35277777,0,0,-0.35277777,160.81276,149.25312)"
             id="g304">
            <path
               inkscape:connector-curvature="0"
               id="path306"
               style="fill:#454195;fill-opacity:1;fill-rule:nonzero;stroke:none"
               d="m 0,0 c 0,0 26.796,10.962 27.425,18.701 0.63,7.74 -2.612,22.654 -0.87,26.427 1.741,3.773 3.337,3.899 3.337,3.899 0,0 5.659,0.019 6.53,-7.091 0.87,-7.11 0.58,-28.006 -7.836,-33.229 C 20.17,3.482 1.306,-2.757 1.306,-2.757 1.306,-2.757 -1.016,-2.322 0,0" />
          </g>
          <g
             transform="matrix(0.35277777,0,0,-0.35277777,160.81276,149.25312)"
             id="g308">
            <path
               inkscape:connector-curvature="0"
               id="path310"
               style="fill:#f89a5b;fill-opacity:1;fill-rule:nonzero;stroke:none"
               d="m 0,0 c 0,0 -4.426,0.218 -6.095,0 -1.668,-0.218 -4.643,-2.757 -6.384,-3.773 -1.742,-1.016 -1.306,-2.467 -0.435,-2.467 0,0 2.357,-0.943 6.076,0 3.718,0.944 8.144,3.483 8.144,3.483 0,0 -2.176,0.653 -1.306,2.757" />
          </g>
          <g
             transform="matrix(0.35277777,0,0,-0.35277777,160.72216,125.8921)"
             id="g312">
            <path
               inkscape:connector-curvature="0"
               id="path314"
               style="fill:#d07e4d;fill-opacity:1;fill-rule:nonzero;stroke:none"
               d="m 0,0 c 0.423,-0.208 0.763,-0.416 1.078,-0.584 0.318,-0.161 0.596,-0.278 0.787,-0.275 0.181,-0.02 0.384,0.022 0.684,0.193 0.139,0.085 0.293,0.197 0.462,0.303 C 3.174,-0.243 3.338,-0.115 3.558,0 3.596,-0.467 3.494,-0.92 3.225,-1.331 2.979,-1.745 2.401,-2.115 1.772,-2.069 1.153,-2.002 0.716,-1.655 0.442,-1.282 0.165,-0.906 -0.001,-0.477 0,0" />
          </g>
          <g
             transform="matrix(0.35277777,0,0,-0.35277777,163.99157,125.2577)"
             id="g316">
            <path
               inkscape:connector-curvature="0"
               id="path318"
               style="fill:#d07e4d;fill-opacity:1;fill-rule:nonzero;stroke:none"
               d="m 0,0 c 1.21,-0.08 2.162,-0.002 2.92,0.451 0.385,0.222 0.728,0.542 1.092,0.905 0.169,0.191 0.342,0.396 0.532,0.599 0.175,0.216 0.35,0.44 0.58,0.657 C 5.148,2.308 5.117,2.01 5.085,1.706 5.01,1.417 4.935,1.116 4.804,0.835 4.54,0.271 4.104,-0.243 3.524,-0.602 2.929,-0.934 2.216,-1.051 1.583,-0.921 0.952,-0.799 0.383,-0.484 0,0" />
          </g>
          <g
             transform="matrix(0.35277777,0,0,-0.35277777,163.99157,128.75137)"
             id="g320">
            <path
               inkscape:connector-curvature="0"
               id="path322"
               style="fill:#d07e4d;fill-opacity:1;fill-rule:nonzero;stroke:none"
               d="M 0,0 C 0.827,0.614 1.523,1.062 1.913,1.618 2.12,1.883 2.261,2.182 2.347,2.567 2.452,2.95 2.47,3.391 2.562,3.917 2.942,3.566 3.223,3.101 3.294,2.551 3.407,2.008 3.239,1.376 2.893,0.9 2.532,0.43 2.04,0.116 1.532,-0.022 1.026,-0.165 0.499,-0.184 0,0" />
          </g>
          <path
             inkscape:connector-curvature="0"
             id="path324"
             style="fill:#19114c;fill-opacity:1;fill-rule:nonzero;stroke:none;stroke-width:0.35277778"
             d="m 160.70579,175.75452 h -0.6865 v -16.1738 h 0.6865 z" />
          <path
             inkscape:connector-curvature="0"
             id="path326"
             style="fill:#19114c;fill-opacity:1;fill-rule:nonzero;stroke:none;stroke-width:0.35277778"
             d="m 176.23648,175.75452 h -0.68686 v -16.1738 h 0.68686 z" />
          <path
             inkscape:connector-curvature="0"
             id="path328"
             style="fill:#19114c;fill-opacity:1;fill-rule:nonzero;stroke:none;stroke-width:0.35277778"
             d="m 165.3614,167.41239 h -0.6865 v -7.83167 h 0.6865 z" />
        </g>
        <g
           id="g2404"
           transform="matrix(1.1466996,0,0,1.1466996,-12.345012,-65.270652)">
          <g
             transform="matrix(0.35277777,0,0,-0.35277777,124.70644,253.33462)"
             id="g114">
            <path
               inkscape:connector-curvature="0"
               id="path116"
               style="fill:#7f2aff;fill-opacity:1;fill-rule:nonzero;stroke:none"
               d="m 0,0 c 0,-4.211 -32.359,-7.625 -72.276,-7.625 -39.917,0 -72.276,3.414 -72.276,7.625 0,4.211 32.359,7.625 72.276,7.625 C -32.359,7.625 0,4.211 0,0" />
          </g>
          <g
             transform="matrix(0.35277777,0,0,-0.35277777,71.781842,251.50046)"
             id="g118" />
          <g
             transform="matrix(0.35277777,0,0,-0.35277777,78.919559,256.93303)"
             id="g122">
            <path
               inkscape:connector-curvature="0"
               id="path124"
               style="fill:#7f2aff;fill-opacity:1;fill-rule:nonzero;stroke:none"
               d="m 0,0 c 0,-0.86 -6.609,-1.558 -14.763,-1.558 -8.153,0 -14.763,0.698 -14.763,1.558 0,0.859 6.61,1.557 14.763,1.557 C -6.609,1.557 0,0.859 0,0" />
          </g>
          <g
             transform="matrix(0.35277777,0,0,-0.35277777,83.893585,247.30227)"
             id="g126">
            <path
               inkscape:connector-curvature="0"
               id="path128"
               style="fill:#dd4412;fill-opacity:1;fill-rule:nonzero;stroke:none"
               d="m 0,0 c 0,0 19.499,12.02 21.79,22.147 1.669,7.383 1.669,20.166 1.669,20.166 l -1.896,31.073 c 0,0 15.712,-5.189 19.327,0 0,0 0.761,-40.99 -9.817,-58.18 C 20.495,-1.983 1.44,-5.619 1.44,-5.619 1.44,-5.619 -1.322,-4.297 0,0" />
          </g>
          <g
             transform="matrix(0.35277777,0,0,-0.35277777,83.893585,247.30227)"
             id="g130">
            <path
               inkscape:connector-curvature="0"
               id="path132"
               style="fill:#19114c;fill-opacity:1;fill-rule:nonzero;stroke:none"
               d="m 0,0 c 0,0 -5.95,-0.334 -6.832,-2.261 -0.881,-1.926 1.543,-6.774 1.102,-9.639 -0.44,-2.865 0.441,-6.612 5.73,-6.612 5.289,0 4.204,3.967 1.44,4.408 -2.762,0.441 0,8.485 0,8.485 0,0 -2.542,2.313 -1.44,5.619" />
          </g>
          <g
             transform="matrix(0.35277777,0,0,-0.35277777,94.799921,188.68362)"
             id="g134">
            <path
               inkscape:connector-curvature="0"
               id="path136"
               style="fill:#22241c;fill-opacity:1;fill-rule:nonzero;stroke:none"
               d="m 0,0 c 0,0 -15.431,0.661 -18.569,-12.781 -3.139,-13.444 5.231,-21.818 14.907,-24.241 l 19.092,26.224 c 0,0 15.301,8.374 4.12,19.173 C 10.461,14.325 0,0 0,0" />
          </g>
          <g
             transform="matrix(0.35277777,0,0,-0.35277777,100.24332,192.49284)"
             id="g138">
            <path
               inkscape:connector-curvature="0"
               id="path140"
               style="fill:#f89a5b;fill-opacity:1;fill-rule:nonzero;stroke:none"
               d="m 0,0 c 0,0 5.754,-12.562 3.662,-21.817 -2.093,-9.256 -16.215,-10.799 -16.215,-10.799 0,0 -1.308,-2.645 0,-6.612 0,0 -6.277,-0.88 -6.539,4.188 0,0 1.046,4.187 0,8.815 0,0 -8.892,5.069 -4.446,11.459 3.4,4.188 5.492,0 5.492,0 0,0 9.677,3.967 8.893,17.63 0,0 6.015,-3.305 9.153,-2.864" />
          </g>
          <g
             transform="matrix(0.35277777,0,0,-0.35277777,103.43899,215.35485)"
             id="g142">
            <path
               inkscape:connector-curvature="0"
               id="path144"
               style="fill:#19114c;fill-opacity:1;fill-rule:nonzero;stroke:none"
               d="M 0,0 7.909,16.047 9.396,15.221 1.545,-1.473 Z" />
          </g>
          <g
             transform="matrix(0.35277777,0,0,-0.35277777,92.064694,218.77341)"
             id="g146">
            <path
               inkscape:connector-curvature="0"
               id="path148"
               style="fill:#ffd63f;fill-opacity:1;fill-rule:nonzero;stroke:none"
               d="m 0,0 c 0,0 -2.787,-8.941 -7.084,-12.144 0,0 0.168,-1.614 4.446,-5.088 0,0 8.257,9.815 10.317,14.41 z" />
          </g>
          <g
             transform="matrix(0.35277777,0,0,-0.35277777,95.814828,206.33147)"
             id="g150">
            <path
               inkscape:connector-curvature="0"
               id="path152"
               style="fill:#ffffff;fill-opacity:1;fill-rule:nonzero;stroke:none"
               d="m 0,0 c 0,0 12.386,-14.104 7.097,-42.752 0,0 -1.41,-5.069 -19.326,0 0,0 2.416,4.037 1.395,8.96 -1.021,4.923 6.048,34.917 6.048,34.917 0,0 1.782,-1.591 4.786,-1.125" />
          </g>
          <g
             transform="matrix(0.35277777,0,0,-0.35277777,99.018261,195.42291)"
             id="g154">
            <path
               inkscape:connector-curvature="0"
               id="path156"
               style="fill:#d07e4d;fill-opacity:1;fill-rule:nonzero;stroke:none"
               d="M 0,0 C 0.698,-0.637 1.271,-1.1 1.939,-1.337 2.269,-1.461 2.618,-1.552 3.009,-1.6 3.4,-1.658 3.815,-1.666 4.297,-1.735 3.954,-2.066 3.527,-2.298 3.052,-2.394 2.577,-2.514 2.055,-2.453 1.573,-2.287 0.603,-1.918 -0.057,-0.957 0,0" />
          </g>
          <g
             transform="matrix(0.35277777,0,0,-0.35277777,93.50819,204.85421)"
             id="g158">
            <path
               inkscape:connector-curvature="0"
               id="path160"
               style="fill:#ffd63f;fill-opacity:1;fill-rule:nonzero;stroke:none"
               d="m 0,0 c 0,0 -9.724,1.543 -11.267,-10.798 -1.542,-12.342 1.301,-41.431 34.478,-29.09 0,0 -2.743,3.306 -2.523,6.17 0,0 -21.597,-5.509 -20.936,10.359 0.441,11.239 0.714,15.224 4.24,19.25 0,0 -4.1,1.226 -3.992,4.109" />
          </g>
          <g
             transform="matrix(0.35277777,0,0,-0.35277777,101.21709,196.13157)"
             id="g162">
            <path
               inkscape:connector-curvature="0"
               id="path164"
               style="fill:#d07e4d;fill-opacity:1;fill-rule:nonzero;stroke:none"
               d="m 0,0 c 0,0 1.322,-2.755 3.085,-3.856 1.763,-1.103 0.11,-3.527 -1.102,-3.306 l -1.212,0.22 z" />
          </g>
          <g
             transform="matrix(0.35277777,0,0,-0.35277777,91.500532,221.41339)"
             id="g166">
            <path
               inkscape:connector-curvature="0"
               id="path168"
               style="fill:#fa5c17;fill-opacity:1;fill-rule:nonzero;stroke:none"
               d="m 0,0 c 0,0 -4.033,-8.926 2.248,-17.521 6.28,-8.594 50.599,-55.865 56.868,-67.765 0,0 4.616,1.653 5.278,5.95 0,0 -46.367,66.965 -45.067,79.336 C 19.286,0.347 17.832,-5.237 0,0" />
          </g>
          <g
             transform="matrix(0.35277777,0,0,-0.35277777,112.35541,251.50046)"
             id="g170">
            <path
               inkscape:connector-curvature="0"
               id="path172"
               style="fill:#19114c;fill-opacity:1;fill-rule:nonzero;stroke:none"
               d="M 0,0 C 0,0 2.302,-3.746 4.065,-5.068 5.829,-6.391 17.067,2.645 19.051,6.281 21.034,9.917 17.288,10.578 13.542,8.375 9.795,6.171 7.15,3.22 5.277,5.95 5.277,5.95 4.309,1.543 0,0" />
          </g>
          <g
             transform="matrix(0.35277777,0,0,-0.35277777,100.90788,216.93272)"
             id="g174">
            <path
               inkscape:connector-curvature="0"
               id="path176"
               style="fill:#f89a5b;fill-opacity:1;fill-rule:nonzero;stroke:none"
               d="M 0,0 C 0,0 2.236,2.05 3.727,3.262 5.218,4.473 6.709,5.125 7.175,4.473 7.641,3.82 5.87,1.771 5.87,1.771 c 0,0 4.566,5.497 5.311,5.404 0.746,-0.093 2.702,-2.05 0,-6.523 -2.702,-4.472 -9.047,-5.87 -9.047,-5.87 0,0 -2.413,3.168 -2.134,5.218" />
          </g>
          <g
             transform="matrix(0.35277777,0,0,-0.35277777,89.751107,223.44532)"
             id="g178">
            <path
               inkscape:connector-curvature="0"
               id="path180"
               style="fill:#f89a5b;fill-opacity:1;fill-rule:nonzero;stroke:none"
               d="m 0,0 c 0,0 -1.774,-1.065 -2.738,-3.989 -0.964,-2.923 -4.821,0.719 -6.033,0 -1.211,-0.72 -0.33,-4.135 2.425,-5.127 2.754,-0.991 6.17,-1.212 6.941,0 0.772,1.212 3.325,5.127 3.325,5.127 0,0 -3.394,2.89 -3.92,3.989" />
          </g>
          <g
             transform="matrix(0.35277777,0,0,-0.35277777,94.773569,196.86605)"
             id="g182">
            <path
               inkscape:connector-curvature="0"
               id="path184"
               style="fill:#22241c;fill-opacity:1;fill-rule:nonzero;stroke:none"
               d="m 0,0 c 0,0 -1.297,-8.595 1.042,-11.9 2.341,-3.306 13.084,0.661 13.91,3.305 0.827,2.645 4.658,2.781 4.658,2.781 0,0 1.623,-0.301 1.292,-2.616 -0.33,-2.313 0.166,-16.362 -14.048,-16.197 -7.934,0.992 -10.029,12.286 -9.395,22.258 0,0 1.657,0.974 2.541,2.369" />
          </g>
          <g
             transform="matrix(0.35277777,0,0,-0.35277777,74.292632,257.07185)"
             id="g186">
            <path
               inkscape:connector-curvature="0"
               id="path188"
               style="fill:#9673d0;fill-opacity:1;fill-rule:nonzero;stroke:none"
               d="M 0,0 C 0,0 10.995,11.982 14.096,19.171 17.198,26.36 12.123,27.629 9.585,23.823 7.048,20.017 2.396,11.418 1.128,21.709 -0.141,31.999 1.551,34.254 0,35.522 c -1.55,1.27 -3.524,0.423 -4.934,-4.51 -1.409,-4.934 -6.343,-5.92 -7.611,-1.269 -1.269,4.653 -4.511,14.943 -9.163,14.378 -4.652,-0.563 0.141,-8.034 0,-12.264 -0.141,-4.228 -3.947,-3.523 -6.907,0.283 -2.96,3.805 -13.11,15.55 -17.62,12.004 -4.511,-3.546 1.832,-8.199 0,-12.709 -1.833,-4.511 -1.551,-11.865 7.047,-9.034 8.599,2.831 8.036,-5.203 8.459,-6.613 0.422,-1.409 2.537,-6.202 7.893,-3.806 5.357,2.397 8.317,1.269 6.344,-0.705 -1.974,-1.973 -5.498,-4.088 -3.665,-5.215 1.832,-1.127 8.88,2.538 11.841,0.564 C -5.356,4.652 -4.229,0 -4.229,0 Z" />
          </g>
          <g
             transform="matrix(0.35277777,0,0,-0.35277777,59.374154,245.13702)"
             id="g190">
            <path
               inkscape:connector-curvature="0"
               id="path192"
               style="fill:#310381;fill-opacity:1;fill-rule:nonzero;stroke:none"
               d="m 0,0 c 1.915,-1.425 3.851,-2.814 5.846,-4.115 1.982,-1.319 4,-2.583 6.094,-3.696 1.046,-0.559 2.105,-1.086 3.185,-1.537 1.09,-0.445 2.213,-0.829 3.341,-1.201 l 6.817,-2.182 c 2.261,-0.783 4.515,-1.62 6.684,-2.678 2.138,-1.073 4.319,-2.306 5.853,-4.281 0.388,-0.484 0.691,-1.037 0.949,-1.605 0.228,-0.578 0.38,-1.21 0.443,-1.805 0.149,-1.186 0.278,-2.376 0.379,-3.567 0.152,-2.384 0.302,-4.787 0.019,-7.164 0.091,2.385 -0.141,4.762 -0.431,7.122 -0.146,1.181 -0.308,2.359 -0.496,3.534 -0.141,1.159 -0.633,2.198 -1.373,3.081 -1.486,1.76 -3.563,2.979 -5.678,3.991 -2.131,1.013 -4.368,1.816 -6.62,2.572 l -6.789,2.254 c -1.133,0.386 -2.264,0.787 -3.378,1.256 -1.12,0.47 -2.183,1.042 -3.219,1.644 C 7.472,-5.97 3.618,-3.113 0,0" />
          </g>
        </g>
      </g>
      <g
         style="fill:#ffffff"
         id="g2673"
         transform="matrix(0.05725674,2.9119901e-4,-2.910853e-4,0.05723425,139.92272,202.99636)">
        <path
           style="fill:#ffffff"
           id="path2655"
           inkscape:connector-curvature="0"
           d="m 145.07,280.927 c 0,0 0.799,-0.399 1.039,-1.758 0,-0.08 0,-0.16 0,-0.24 v -0.24 c -0.08,-1.278 -1.359,-2.797 -2.797,-4.315 -1.678,-1.678 -3.116,-2.478 -3.116,-2.478 0,0 -0.719,-3.356 -3.756,-7.99 -2.956,-4.635 -8.071,-9.509 -10.867,-8.071 -2.797,1.438 -0.32,5.434 -0.16,6.633 0.24,1.278 1.438,3.356 1.039,3.356 -0.479,-0.08 -6.553,-11.507 -21.735,-8.31 -3.916,0.878 -7.272,2.557 -9.989,4.714 v 26.69 c 0.959,-0.959 1.358,-1.439 1.358,-1.439 0,0 1.039,4.795 2.957,6.953 1.918,2.157 4.235,3.436 4.954,1.837 0.719,-1.518 -1.518,-8.07 -1.518,-8.07 0,0 4.155,3.995 5.354,4.954 1.199,0.958 3.516,2.157 4.155,0 0.559,-2.157 -1.119,-5.433 -2.477,-5.992 -1.278,-0.56 -2.078,-0.56 -2.078,-0.56 0,0 -0.799,-1.039 -1.199,-1.359 -0.479,-0.32 -0.559,-0.319 -0.559,-0.319 0,0 0.719,-0.4 2.957,-0.32 2.317,0.08 4.155,0.16 4.155,0.16 0,0 2.078,3.036 3.356,3.995 1.199,1.039 4.315,3.516 5.434,4.554 1.039,1.039 1.678,1.519 2.078,0.639 0.32,-0.879 -0.24,-3.196 -1.678,-4.874 -1.518,-1.598 -3.116,-2.477 -3.676,-3.276 -0.479,-0.959 -0.799,-1.678 -0.799,-1.678 0,0 2.957,2.157 3.676,2.877 0.799,0.639 6.073,3.915 6.952,4.474 0.879,0.64 1.279,0.24 1.279,0.24 0,0 0.639,0.479 0.879,0.16 0.24,-0.32 0.879,-2.477 -0.799,-3.755 -1.758,-1.359 -2.797,-1.998 -2.637,-2.158 0.08,-0.159 1.838,0.4 2.077,-0.08 0.16,-0.399 -0.08,-1.038 -0.32,-1.198 -0.16,-0.241 0.48,-0.72 0.48,-0.72 0,0 0.639,0 3.276,0.24 2.637,0.24 9.269,-1.997 10.628,-2.477 1.358,-0.48 2.077,-0.799 2.077,-0.799 z m -50.342,34.36 c 5.514,-3.595 5.753,-12.705 2.717,-14.463 -0.879,-0.559 -1.758,-0.958 -2.717,-1.199 v 4.156 c 0.24,0.159 0.48,0.4 0.639,0.799 0.479,0.959 0.24,2.157 0.24,2.157 0,0 -0.08,-1.518 -0.639,-2.317 -0.08,-0.08 -0.16,-0.16 -0.24,-0.24 z m 0,-53.059 c -1.198,0.88 -2.237,1.918 -3.196,2.957 v 26.449 c 0.799,-0.479 1.518,-0.959 2.158,-1.598 0.4,-0.399 0.719,-0.799 1.039,-1.118 z m -3.196,54.417 c 1.199,-0.239 2.317,-0.719 3.196,-1.358 V 304.18 c -0.479,-0.639 -0.879,-1.039 -0.879,-1.039 0,0 0.4,0.16 0.879,0.64 v -4.156 c -1.039,-0.319 -2.158,-0.479 -3.196,-0.239 v 6.952 0 c 0.24,-0.16 0.639,-0.24 0.479,0.32 -0.08,0.32 -0.32,0.319 -0.48,0.32 v 0 4.075 c 0.16,0 0.399,0 0.559,-0.08 0,0 -0.16,0.16 -0.56,0.319 z m 0,-51.46 c -5.594,5.913 -8.071,13.025 -8.63,14.623 -0.879,2.477 -6.552,11.426 -7.032,16.7 -0.4,5.354 -0.479,18.379 11.667,20.137 1.438,0.24 2.797,0.239 3.995,-10e-4 v -5.353 c -1.119,0.319 -3.596,0.639 -6.393,-2.557 -3.756,-4.315 -1.918,-11.347 1.039,-13.745 1.918,-1.598 3.756,-2.477 5.354,-3.356 z m 0,34.2 v 6.952 c -0.24,0.16 -0.4,0.16 -0.559,-0.08 -0.16,0.48 0.16,0.719 0.559,0.719 v 4.075 c -2.557,0.239 -6.073,-1.998 -5.194,-5.514 1.039,-3.994 2.957,-5.752 5.194,-6.152 z" />
        <g
           style="fill:#ffffff"
           id="g2659"
           transform="matrix(0.3825107,0,0,0.3825107,20.089286,125.61275)"
           inkscape:transform-center-y="-44.562164">
          <path
             style="fill:#ffffff"
             id="path2657"
             sodipodi:nodetypes="sssssssss"
             inkscape:connector-curvature="0"
             d="m 227.414,246.939 13.283,-0.497 c 7.13,-0.267 16.92,4.74 16.36,13.874 l -3.482,56.799 c -0.436,7.122 -3.506,10.89 -9.149,10.891 h -17.511 c -7.135,-10e-4 -10.136,-4.519 -10.641,-11.636 l -3.979,-56.054 c -0.503,-7.119 5,-12.998 15.119,-13.377 z" />
        </g>
        <g
           style="fill:#ffffff"
           id="g2663"
           transform="matrix(0.31077472,-0.25449536,0.25449536,0.31077472,-108.32473,252.83556)"
           inkscape:transform-center-x="29.82031"
           inkscape:transform-center-y="-36.33424">
          <path
             style="fill:#ffffff"
             id="path2661"
             sodipodi:nodetypes="sssssssss"
             inkscape:connector-curvature="0"
             d="m 364.994,242.27 13.283,-0.498 c 7.129,-0.267 16.919,4.74 16.36,13.874 l -3.481,56.799 c -0.437,7.122 -3.506,10.89 -9.149,10.89 l -17.511,0.001 c -7.135,-0.001 -10.136,-4.519 -10.64,-11.636 l -3.979,-56.054 c -0.506,-7.117 4.998,-12.998 15.117,-13.376 z" />
        </g>
        <g
           style="fill:#ffffff"
           id="g2667"
           transform="matrix(0.07828233,-0.37104593,0.37104593,0.07828233,-104.36,429.7208)"
           inkscape:transform-center-x="43.056986"
           inkscape:transform-center-y="-9.8080536">
          <path
             style="fill:#ffffff"
             id="path2665"
             sodipodi:nodetypes="sssssssss"
             inkscape:connector-curvature="0"
             d="m 485.005,307.459 13.284,-0.497 c 7.129,-0.267 16.92,4.739 16.36,13.874 l -3.481,56.8 c -0.436,7.121 -3.506,10.889 -9.149,10.89 h -17.512 c -7.135,0 -10.134,-4.519 -10.64,-11.636 l -3.978,-56.054 c -0.505,-7.117 4.999,-12.998 15.116,-13.377 z" />
        </g>
        <g
           style="fill:#ffffff"
           id="g2671"
           transform="matrix(-0.13902763,-0.26521617,0.26521617,-0.13902763,13.934291,526.86862)"
           inkscape:transform-center-x="30.900947"
           inkscape:transform-center-y="16.468461">
          <path
             style="fill:#ffffff"
             id="path2669"
             sodipodi:nodetypes="sssssssss"
             inkscape:connector-curvature="0"
             d="m 584.441,445.677 13.283,-0.497 c 7.131,-0.266 16.921,4.741 16.36,13.874 l -3.48,56.8 c -0.438,7.121 -3.505,10.89 -9.149,10.89 h -17.511 c -7.134,0 -10.135,-4.518 -10.639,-11.635 l -3.98,-56.054 c -0.504,-7.118 4.999,-12.998 15.116,-13.378 z" />
        </g>
      </g>
      <path
         style="fill:#ffffff;stroke:#41cccd;stroke-width:0.3999525;stroke-opacity:1"
         inkscape:connector-curvature="0"
         d="m 145.65172,205.1868 a 6.39926,4.7994451 0 0 0 -12.79852,0 6.3992406,4.7994302 0 0 0 6.39924,4.79945 h 0.79994 c 0.79987,0.79988 2.3997,1.59979 3.99949,1.59979 -0.39993,-0.39993 -0.79987,-1.59979 -0.79987,-2.64968 v 0 a 6.3992406,4.7994302 0 0 0 2.39972,-3.74956"
         id="path2734" />
      <g
         id="g2762"
         transform="matrix(0.0545175,2.7726766e-4,-2.7715939e-4,0.05449609,133.76571,190.38743)">
        <path
           style="fill:#2e75a3"
           id="path2744"
           inkscape:connector-curvature="0"
           d="m 145.07,280.927 c 0,0 0.799,-0.399 1.039,-1.758 0,-0.08 0,-0.16 0,-0.24 v -0.24 c -0.08,-1.278 -1.359,-2.797 -2.797,-4.315 -1.678,-1.678 -3.116,-2.478 -3.116,-2.478 0,0 -0.719,-3.356 -3.756,-7.99 -2.956,-4.635 -8.071,-9.509 -10.867,-8.071 -2.797,1.438 -0.32,5.434 -0.16,6.633 0.24,1.278 1.438,3.356 1.039,3.356 -0.479,-0.08 -6.553,-11.507 -21.735,-8.31 -3.916,0.878 -7.272,2.557 -9.989,4.714 v 26.69 c 0.959,-0.959 1.358,-1.439 1.358,-1.439 0,0 1.039,4.795 2.957,6.953 1.918,2.157 4.235,3.436 4.954,1.837 0.719,-1.518 -1.518,-8.07 -1.518,-8.07 0,0 4.155,3.995 5.354,4.954 1.199,0.958 3.516,2.157 4.155,0 0.559,-2.157 -1.119,-5.433 -2.477,-5.992 -1.278,-0.56 -2.078,-0.56 -2.078,-0.56 0,0 -0.799,-1.039 -1.199,-1.359 -0.479,-0.32 -0.559,-0.319 -0.559,-0.319 0,0 0.719,-0.4 2.957,-0.32 2.317,0.08 4.155,0.16 4.155,0.16 0,0 2.078,3.036 3.356,3.995 1.199,1.039 4.315,3.516 5.434,4.554 1.039,1.039 1.678,1.519 2.078,0.639 0.32,-0.879 -0.24,-3.196 -1.678,-4.874 -1.518,-1.598 -3.116,-2.477 -3.676,-3.276 -0.479,-0.959 -0.799,-1.678 -0.799,-1.678 0,0 2.957,2.157 3.676,2.877 0.799,0.639 6.073,3.915 6.952,4.474 0.879,0.64 1.279,0.24 1.279,0.24 0,0 0.639,0.479 0.879,0.16 0.24,-0.32 0.879,-2.477 -0.799,-3.755 -1.758,-1.359 -2.797,-1.998 -2.637,-2.158 0.08,-0.159 1.838,0.4 2.077,-0.08 0.16,-0.399 -0.08,-1.038 -0.32,-1.198 -0.16,-0.241 0.48,-0.72 0.48,-0.72 0,0 0.639,0 3.276,0.24 2.637,0.24 9.269,-1.997 10.628,-2.477 1.358,-0.48 2.077,-0.799 2.077,-0.799 z m -50.342,34.36 c 5.514,-3.595 5.753,-12.705 2.717,-14.463 -0.879,-0.559 -1.758,-0.958 -2.717,-1.199 v 4.156 c 0.24,0.159 0.48,0.4 0.639,0.799 0.479,0.959 0.24,2.157 0.24,2.157 0,0 -0.08,-1.518 -0.639,-2.317 -0.08,-0.08 -0.16,-0.16 -0.24,-0.24 z m 0,-53.059 c -1.198,0.88 -2.237,1.918 -3.196,2.957 v 26.449 c 0.799,-0.479 1.518,-0.959 2.158,-1.598 0.4,-0.399 0.719,-0.799 1.039,-1.118 z m -3.196,54.417 c 1.199,-0.239 2.317,-0.719 3.196,-1.358 V 304.18 c -0.479,-0.639 -0.879,-1.039 -0.879,-1.039 0,0 0.4,0.16 0.879,0.64 v -4.156 c -1.039,-0.319 -2.158,-0.479 -3.196,-0.239 v 6.952 0 c 0.24,-0.16 0.639,-0.24 0.479,0.32 -0.08,0.32 -0.32,0.319 -0.48,0.32 v 0 4.075 c 0.16,0 0.399,0 0.559,-0.08 0,0 -0.16,0.16 -0.56,0.319 z m 0,-51.46 c -5.594,5.913 -8.071,13.025 -8.63,14.623 -0.879,2.477 -6.552,11.426 -7.032,16.7 -0.4,5.354 -0.479,18.379 11.667,20.137 1.438,0.24 2.797,0.239 3.995,-10e-4 v -5.353 c -1.119,0.319 -3.596,0.639 -6.393,-2.557 -3.756,-4.315 -1.918,-11.347 1.039,-13.745 1.918,-1.598 3.756,-2.477 5.354,-3.356 z m 0,34.2 v 6.952 c -0.24,0.16 -0.4,0.16 -0.559,-0.08 -0.16,0.48 0.16,0.719 0.559,0.719 v 4.075 c -2.557,0.239 -6.073,-1.998 -5.194,-5.514 1.039,-3.994 2.957,-5.752 5.194,-6.152 z" />
        <g
           id="g2748"
           transform="matrix(0.3825107,0,0,0.3825107,20.089286,125.61275)"
           inkscape:transform-center-y="-44.562164">
          <path
             style="fill:#eddf0e"
             id="path2746"
             sodipodi:nodetypes="sssssssss"
             inkscape:connector-curvature="0"
             d="m 227.414,246.939 13.283,-0.497 c 7.13,-0.267 16.92,4.74 16.36,13.874 l -3.482,56.799 c -0.436,7.122 -3.506,10.89 -9.149,10.891 h -17.511 c -7.135,-10e-4 -10.136,-4.519 -10.641,-11.636 l -3.979,-56.054 c -0.503,-7.119 5,-12.998 15.119,-13.377 z" />
        </g>
        <g
           id="g2752"
           transform="matrix(0.31077472,-0.25449536,0.25449536,0.31077472,-108.32473,252.83556)"
           inkscape:transform-center-x="29.82031"
           inkscape:transform-center-y="-36.33424">
          <path
             style="fill:#fd6600"
             id="path2750"
             sodipodi:nodetypes="sssssssss"
             inkscape:connector-curvature="0"
             d="m 364.994,242.27 13.283,-0.498 c 7.129,-0.267 16.919,4.74 16.36,13.874 l -3.481,56.799 c -0.437,7.122 -3.506,10.89 -9.149,10.89 l -17.511,0.001 c -7.135,-0.001 -10.136,-4.519 -10.64,-11.636 l -3.979,-56.054 c -0.506,-7.117 4.998,-12.998 15.117,-13.376 z" />
        </g>
        <g
           id="g2756"
           transform="matrix(0.07828233,-0.37104593,0.37104593,0.07828233,-104.36,429.7208)"
           inkscape:transform-center-x="43.056986"
           inkscape:transform-center-y="-9.8080536">
          <path
             style="fill:#a4dc2d"
             id="path2754"
             sodipodi:nodetypes="sssssssss"
             inkscape:connector-curvature="0"
             d="m 485.005,307.459 13.284,-0.497 c 7.129,-0.267 16.92,4.739 16.36,13.874 l -3.481,56.8 c -0.436,7.121 -3.506,10.889 -9.149,10.89 h -17.512 c -7.135,0 -10.134,-4.519 -10.64,-11.636 l -3.978,-56.054 c -0.505,-7.117 4.999,-12.998 15.116,-13.377 z" />
        </g>
        <g
           id="g2760"
           transform="matrix(-0.13902763,-0.26521617,0.26521617,-0.13902763,13.934291,526.86862)"
           inkscape:transform-center-x="30.900947"
           inkscape:transform-center-y="16.468461">
          <path
             style="fill:#ef3e3e"
             id="path2758"
             sodipodi:nodetypes="sssssssss"
             inkscape:connector-curvature="0"
             d="m 584.441,445.677 13.283,-0.497 c 7.131,-0.266 16.921,4.741 16.36,13.874 l -3.48,56.8 c -0.438,7.121 -3.505,10.89 -9.149,10.89 h -17.511 c -7.134,0 -10.135,-4.518 -10.639,-11.635 l -3.98,-56.054 c -0.504,-7.118 4.999,-12.998 15.116,-13.378 z" />
        </g>
      </g>
      <path
         id="path2764"
         d="m 122.21494,190.84827 a 6.39926,4.7994451 0 0 1 12.79852,0 6.3992406,4.7994302 0 0 1 -6.39924,4.79945 h -0.79994 c -0.79987,0.79988 -2.3997,1.59979 -3.99949,1.59979 0.39993,-0.39993 0.79987,-1.59979 0.79987,-2.64968 v 0 a 6.3992406,4.7994302 0 0 1 -2.39972,-3.74956"
         inkscape:connector-curvature="0"
         style="fill:#ffffff;stroke:#41cccd;stroke-width:0.3999525;stroke-opacity:1" />
      <g
         transform="matrix(0.05988758,3.0457907e-4,-3.0446013e-4,0.05986406,122.72502,174.74237)"
         id="g2784">
        <path
           d="m 145.07,280.927 c 0,0 0.799,-0.399 1.039,-1.758 0,-0.08 0,-0.16 0,-0.24 v -0.24 c -0.08,-1.278 -1.359,-2.797 -2.797,-4.315 -1.678,-1.678 -3.116,-2.478 -3.116,-2.478 0,0 -0.719,-3.356 -3.756,-7.99 -2.956,-4.635 -8.071,-9.509 -10.867,-8.071 -2.797,1.438 -0.32,5.434 -0.16,6.633 0.24,1.278 1.438,3.356 1.039,3.356 -0.479,-0.08 -6.553,-11.507 -21.735,-8.31 -3.916,0.878 -7.272,2.557 -9.989,4.714 v 26.69 c 0.959,-0.959 1.358,-1.439 1.358,-1.439 0,0 1.039,4.795 2.957,6.953 1.918,2.157 4.235,3.436 4.954,1.837 0.719,-1.518 -1.518,-8.07 -1.518,-8.07 0,0 4.155,3.995 5.354,4.954 1.199,0.958 3.516,2.157 4.155,0 0.559,-2.157 -1.119,-5.433 -2.477,-5.992 -1.278,-0.56 -2.078,-0.56 -2.078,-0.56 0,0 -0.799,-1.039 -1.199,-1.359 -0.479,-0.32 -0.559,-0.319 -0.559,-0.319 0,0 0.719,-0.4 2.957,-0.32 2.317,0.08 4.155,0.16 4.155,0.16 0,0 2.078,3.036 3.356,3.995 1.199,1.039 4.315,3.516 5.434,4.554 1.039,1.039 1.678,1.519 2.078,0.639 0.32,-0.879 -0.24,-3.196 -1.678,-4.874 -1.518,-1.598 -3.116,-2.477 -3.676,-3.276 -0.479,-0.959 -0.799,-1.678 -0.799,-1.678 0,0 2.957,2.157 3.676,2.877 0.799,0.639 6.073,3.915 6.952,4.474 0.879,0.64 1.279,0.24 1.279,0.24 0,0 0.639,0.479 0.879,0.16 0.24,-0.32 0.879,-2.477 -0.799,-3.755 -1.758,-1.359 -2.797,-1.998 -2.637,-2.158 0.08,-0.159 1.838,0.4 2.077,-0.08 0.16,-0.399 -0.08,-1.038 -0.32,-1.198 -0.16,-0.241 0.48,-0.72 0.48,-0.72 0,0 0.639,0 3.276,0.24 2.637,0.24 9.269,-1.997 10.628,-2.477 1.358,-0.48 2.077,-0.799 2.077,-0.799 z m -50.342,34.36 c 5.514,-3.595 5.753,-12.705 2.717,-14.463 -0.879,-0.559 -1.758,-0.958 -2.717,-1.199 v 4.156 c 0.24,0.159 0.48,0.4 0.639,0.799 0.479,0.959 0.24,2.157 0.24,2.157 0,0 -0.08,-1.518 -0.639,-2.317 -0.08,-0.08 -0.16,-0.16 -0.24,-0.24 z m 0,-53.059 c -1.198,0.88 -2.237,1.918 -3.196,2.957 v 26.449 c 0.799,-0.479 1.518,-0.959 2.158,-1.598 0.4,-0.399 0.719,-0.799 1.039,-1.118 z m -3.196,54.417 c 1.199,-0.239 2.317,-0.719 3.196,-1.358 V 304.18 c -0.479,-0.639 -0.879,-1.039 -0.879,-1.039 0,0 0.4,0.16 0.879,0.64 v -4.156 c -1.039,-0.319 -2.158,-0.479 -3.196,-0.239 v 6.952 0 c 0.24,-0.16 0.639,-0.24 0.479,0.32 -0.08,0.32 -0.32,0.319 -0.48,0.32 v 0 4.075 c 0.16,0 0.399,0 0.559,-0.08 0,0 -0.16,0.16 -0.56,0.319 z m 0,-51.46 c -5.594,5.913 -8.071,13.025 -8.63,14.623 -0.879,2.477 -6.552,11.426 -7.032,16.7 -0.4,5.354 -0.479,18.379 11.667,20.137 1.438,0.24 2.797,0.239 3.995,-10e-4 v -5.353 c -1.119,0.319 -3.596,0.639 -6.393,-2.557 -3.756,-4.315 -1.918,-11.347 1.039,-13.745 1.918,-1.598 3.756,-2.477 5.354,-3.356 z m 0,34.2 v 6.952 c -0.24,0.16 -0.4,0.16 -0.559,-0.08 -0.16,0.48 0.16,0.719 0.559,0.719 v 4.075 c -2.557,0.239 -6.073,-1.998 -5.194,-5.514 1.039,-3.994 2.957,-5.752 5.194,-6.152 z"
           inkscape:connector-curvature="0"
           id="path2766"
           style="fill:#2e75a3" />
        <g
           inkscape:transform-center-y="-44.562164"
           transform="matrix(0.3825107,0,0,0.3825107,20.089286,125.61275)"
           id="g2770">
          <path
             d="m 227.414,246.939 13.283,-0.497 c 7.13,-0.267 16.92,4.74 16.36,13.874 l -3.482,56.799 c -0.436,7.122 -3.506,10.89 -9.149,10.891 h -17.511 c -7.135,-10e-4 -10.136,-4.519 -10.641,-11.636 l -3.979,-56.054 c -0.503,-7.119 5,-12.998 15.119,-13.377 z"
             inkscape:connector-curvature="0"
             sodipodi:nodetypes="sssssssss"
             id="path2768"
             style="fill:#eddf0e" />
        </g>
        <g
           inkscape:transform-center-y="-36.33424"
           inkscape:transform-center-x="29.82031"
           transform="matrix(0.31077472,-0.25449536,0.25449536,0.31077472,-108.32473,252.83556)"
           id="g2774">
          <path
             d="m 364.994,242.27 13.283,-0.498 c 7.129,-0.267 16.919,4.74 16.36,13.874 l -3.481,56.799 c -0.437,7.122 -3.506,10.89 -9.149,10.89 l -17.511,0.001 c -7.135,-0.001 -10.136,-4.519 -10.64,-11.636 l -3.979,-56.054 c -0.506,-7.117 4.998,-12.998 15.117,-13.376 z"
             inkscape:connector-curvature="0"
             sodipodi:nodetypes="sssssssss"
             id="path2772"
             style="fill:#fd6600" />
        </g>
        <g
           inkscape:transform-center-y="-9.8080536"
           inkscape:transform-center-x="43.056986"
           transform="matrix(0.07828233,-0.37104593,0.37104593,0.07828233,-104.36,429.7208)"
           id="g2778">
          <path
             d="m 485.005,307.459 13.284,-0.497 c 7.129,-0.267 16.92,4.739 16.36,13.874 l -3.481,56.8 c -0.436,7.121 -3.506,10.889 -9.149,10.89 h -17.512 c -7.135,0 -10.134,-4.519 -10.64,-11.636 l -3.978,-56.054 c -0.505,-7.117 4.999,-12.998 15.116,-13.377 z"
             inkscape:connector-curvature="0"
             sodipodi:nodetypes="sssssssss"
             id="path2776"
             style="fill:#a4dc2d" />
        </g>
        <g
           inkscape:transform-center-y="16.468461"
           inkscape:transform-center-x="30.900947"
           transform="matrix(-0.13902763,-0.26521617,0.26521617,-0.13902763,13.934291,526.86862)"
           id="g2782">
          <path
             d="m 584.441,445.677 13.283,-0.497 c 7.131,-0.266 16.921,4.741 16.36,13.874 l -3.48,56.8 c -0.438,7.121 -3.505,10.89 -9.149,10.89 h -17.511 c -7.134,0 -10.135,-4.518 -10.639,-11.635 l -3.98,-56.054 c -0.504,-7.118 4.999,-12.998 15.116,-13.378 z"
             inkscape:connector-curvature="0"
             sodipodi:nodetypes="sssssssss"
             id="path2780"
             style="fill:#ef3e3e" />
        </g>
      </g>
      <path
         style="fill:#ffffff;stroke:#41cccd;stroke-width:0.3999525;stroke-opacity:1"
         inkscape:connector-curvature="0"
         d="m 74.111149,206.31849 a 6.39926,4.7994451 0 0 1 12.79852,0 6.3992406,4.7994302 0 0 1 -6.39924,4.79945 h -0.79994 c -0.79987,0.79988 -2.3997,1.59979 -3.99949,1.59979 0.39993,-0.39993 0.79987,-1.59979 0.79987,-2.64968 v 0 a 6.3992406,4.7994302 0 0 1 -2.39972,-3.74956"
         id="path2786" />
      <g
         id="g2806"
         transform="matrix(0.05988758,3.0457907e-4,-3.0446013e-4,0.05986406,74.324918,190.20878)">
        <path
           style="fill:#2e75a3"
           id="path2788"
           inkscape:connector-curvature="0"
           d="m 145.07,280.927 c 0,0 0.799,-0.399 1.039,-1.758 0,-0.08 0,-0.16 0,-0.24 v -0.24 c -0.08,-1.278 -1.359,-2.797 -2.797,-4.315 -1.678,-1.678 -3.116,-2.478 -3.116,-2.478 0,0 -0.719,-3.356 -3.756,-7.99 -2.956,-4.635 -8.071,-9.509 -10.867,-8.071 -2.797,1.438 -0.32,5.434 -0.16,6.633 0.24,1.278 1.438,3.356 1.039,3.356 -0.479,-0.08 -6.553,-11.507 -21.735,-8.31 -3.916,0.878 -7.272,2.557 -9.989,4.714 v 26.69 c 0.959,-0.959 1.358,-1.439 1.358,-1.439 0,0 1.039,4.795 2.957,6.953 1.918,2.157 4.235,3.436 4.954,1.837 0.719,-1.518 -1.518,-8.07 -1.518,-8.07 0,0 4.155,3.995 5.354,4.954 1.199,0.958 3.516,2.157 4.155,0 0.559,-2.157 -1.119,-5.433 -2.477,-5.992 -1.278,-0.56 -2.078,-0.56 -2.078,-0.56 0,0 -0.799,-1.039 -1.199,-1.359 -0.479,-0.32 -0.559,-0.319 -0.559,-0.319 0,0 0.719,-0.4 2.957,-0.32 2.317,0.08 4.155,0.16 4.155,0.16 0,0 2.078,3.036 3.356,3.995 1.199,1.039 4.315,3.516 5.434,4.554 1.039,1.039 1.678,1.519 2.078,0.639 0.32,-0.879 -0.24,-3.196 -1.678,-4.874 -1.518,-1.598 -3.116,-2.477 -3.676,-3.276 -0.479,-0.959 -0.799,-1.678 -0.799,-1.678 0,0 2.957,2.157 3.676,2.877 0.799,0.639 6.073,3.915 6.952,4.474 0.879,0.64 1.279,0.24 1.279,0.24 0,0 0.639,0.479 0.879,0.16 0.24,-0.32 0.879,-2.477 -0.799,-3.755 -1.758,-1.359 -2.797,-1.998 -2.637,-2.158 0.08,-0.159 1.838,0.4 2.077,-0.08 0.16,-0.399 -0.08,-1.038 -0.32,-1.198 -0.16,-0.241 0.48,-0.72 0.48,-0.72 0,0 0.639,0 3.276,0.24 2.637,0.24 9.269,-1.997 10.628,-2.477 1.358,-0.48 2.077,-0.799 2.077,-0.799 z m -50.342,34.36 c 5.514,-3.595 5.753,-12.705 2.717,-14.463 -0.879,-0.559 -1.758,-0.958 -2.717,-1.199 v 4.156 c 0.24,0.159 0.48,0.4 0.639,0.799 0.479,0.959 0.24,2.157 0.24,2.157 0,0 -0.08,-1.518 -0.639,-2.317 -0.08,-0.08 -0.16,-0.16 -0.24,-0.24 z m 0,-53.059 c -1.198,0.88 -2.237,1.918 -3.196,2.957 v 26.449 c 0.799,-0.479 1.518,-0.959 2.158,-1.598 0.4,-0.399 0.719,-0.799 1.039,-1.118 z m -3.196,54.417 c 1.199,-0.239 2.317,-0.719 3.196,-1.358 V 304.18 c -0.479,-0.639 -0.879,-1.039 -0.879,-1.039 0,0 0.4,0.16 0.879,0.64 v -4.156 c -1.039,-0.319 -2.158,-0.479 -3.196,-0.239 v 6.952 0 c 0.24,-0.16 0.639,-0.24 0.479,0.32 -0.08,0.32 -0.32,0.319 -0.48,0.32 v 0 4.075 c 0.16,0 0.399,0 0.559,-0.08 0,0 -0.16,0.16 -0.56,0.319 z m 0,-51.46 c -5.594,5.913 -8.071,13.025 -8.63,14.623 -0.879,2.477 -6.552,11.426 -7.032,16.7 -0.4,5.354 -0.479,18.379 11.667,20.137 1.438,0.24 2.797,0.239 3.995,-10e-4 v -5.353 c -1.119,0.319 -3.596,0.639 -6.393,-2.557 -3.756,-4.315 -1.918,-11.347 1.039,-13.745 1.918,-1.598 3.756,-2.477 5.354,-3.356 z m 0,34.2 v 6.952 c -0.24,0.16 -0.4,0.16 -0.559,-0.08 -0.16,0.48 0.16,0.719 0.559,0.719 v 4.075 c -2.557,0.239 -6.073,-1.998 -5.194,-5.514 1.039,-3.994 2.957,-5.752 5.194,-6.152 z" />
        <g
           id="g2792"
           transform="matrix(0.3825107,0,0,0.3825107,20.089286,125.61275)"
           inkscape:transform-center-y="-44.562164">
          <path
             style="fill:#eddf0e"
             id="path2790"
             sodipodi:nodetypes="sssssssss"
             inkscape:connector-curvature="0"
             d="m 227.414,246.939 13.283,-0.497 c 7.13,-0.267 16.92,4.74 16.36,13.874 l -3.482,56.799 c -0.436,7.122 -3.506,10.89 -9.149,10.891 h -17.511 c -7.135,-10e-4 -10.136,-4.519 -10.641,-11.636 l -3.979,-56.054 c -0.503,-7.119 5,-12.998 15.119,-13.377 z" />
        </g>
        <g
           id="g2796"
           transform="matrix(0.31077472,-0.25449536,0.25449536,0.31077472,-108.32473,252.83556)"
           inkscape:transform-center-x="29.82031"
           inkscape:transform-center-y="-36.33424">
          <path
             style="fill:#fd6600"
             id="path2794"
             sodipodi:nodetypes="sssssssss"
             inkscape:connector-curvature="0"
             d="m 364.994,242.27 13.283,-0.498 c 7.129,-0.267 16.919,4.74 16.36,13.874 l -3.481,56.799 c -0.437,7.122 -3.506,10.89 -9.149,10.89 l -17.511,0.001 c -7.135,-0.001 -10.136,-4.519 -10.64,-11.636 l -3.979,-56.054 c -0.506,-7.117 4.998,-12.998 15.117,-13.376 z" />
        </g>
        <g
           id="g2800"
           transform="matrix(0.07828233,-0.37104593,0.37104593,0.07828233,-104.36,429.7208)"
           inkscape:transform-center-x="43.056986"
           inkscape:transform-center-y="-9.8080536">
          <path
             style="fill:#a4dc2d"
             id="path2798"
             sodipodi:nodetypes="sssssssss"
             inkscape:connector-curvature="0"
             d="m 485.005,307.459 13.284,-0.497 c 7.129,-0.267 16.92,4.739 16.36,13.874 l -3.481,56.8 c -0.436,7.121 -3.506,10.889 -9.149,10.89 h -17.512 c -7.135,0 -10.134,-4.519 -10.64,-11.636 l -3.978,-56.054 c -0.505,-7.117 4.999,-12.998 15.116,-13.377 z" />
        </g>
        <g
           id="g2804"
           transform="matrix(-0.13902763,-0.26521617,0.26521617,-0.13902763,13.934291,526.86862)"
           inkscape:transform-center-x="30.900947"
           inkscape:transform-center-y="16.468461">
          <path
             style="fill:#ef3e3e"
             id="path2802"
             sodipodi:nodetypes="sssssssss"
             inkscape:connector-curvature="0"
             d="m 584.441,445.677 13.283,-0.497 c 7.131,-0.266 16.921,4.741 16.36,13.874 l -3.48,56.8 c -0.438,7.121 -3.505,10.89 -9.149,10.89 h -17.511 c -7.134,0 -10.135,-4.518 -10.639,-11.635 l -3.98,-56.054 c -0.504,-7.118 4.999,-12.998 15.116,-13.378 z" />
        </g>
      </g>
    </g>
  </g>
</svg>
