<?xml version="1.0" encoding="UTF-8" standalone="no"?>
<svg
   xmlns:dc="http://purl.org/dc/elements/1.1/"
   xmlns:cc="http://creativecommons.org/ns#"
   xmlns:rdf="http://www.w3.org/1999/02/22-rdf-syntax-ns#"
   xmlns:svg="http://www.w3.org/2000/svg"
   xmlns="http://www.w3.org/2000/svg"
   xmlns:sodipodi="http://sodipodi.sourceforge.net/DTD/sodipodi-0.dtd"
   xmlns:inkscape="http://www.inkscape.org/namespaces/inkscape"
   width="400mm"
   height="224mm"
   viewBox="0 0 400 224"
   version="1.1"
   id="svg8"
   inkscape:version="1.0.2 (e86c870879, 2021-01-15)"
   sodipodi:docname="session_default.svg"
   inkscape:export-filename="/var/www/chamilo/public/img/session_default.png"
   inkscape:export-xdpi="25.4"
   inkscape:export-ydpi="25.4">
  <defs
     id="defs2" />
  <sodipodi:namedview
     id="base"
     pagecolor="#ffffff"
     bordercolor="#666666"
     borderopacity="1.0"
     inkscape:pageopacity="0.0"
     inkscape:pageshadow="2"
     inkscape:zoom="0.49497475"
     inkscape:cx="794.31152"
     inkscape:cy="679.73191"
     inkscape:document-units="mm"
     inkscape:current-layer="layer1"
     inkscape:document-rotation="0"
     showgrid="false"
     inkscape:window-width="1860"
     inkscape:window-height="1016"
     inkscape:window-x="60"
     inkscape:window-y="1107"
     inkscape:window-maximized="1" />
  <metadata
     id="metadata5">
    <rdf:RDF>
      <cc:Work
         rdf:about="">
        <dc:format>image/svg+xml</dc:format>
        <dc:type
           rdf:resource="http://purl.org/dc/dcmitype/StillImage" />
        <dc:title></dc:title>
      </cc:Work>
    </rdf:RDF>
  </metadata>
  <g
     inkscape:label="Calque 1"
     inkscape:groupmode="layer"
     id="layer1">
    <rect
       style="fill:#e4e9ed;stroke:#e4e9ed;stroke-width:4.41435;stroke-opacity:1;fill-opacity:1"
       id="rect833"
       width="395.89713"
       height="219.56772"
       x="2.1854591"
       y="2.2236242" />
    <path
       inkscape:connector-curvature="0"
       id="path3202"
       d="m 141.34072,116.93835 c 0,0 0.35068,-0.17305 0.45863,-0.76692 1.8e-4,-0.035 3.6e-4,-0.0699 5.4e-4,-0.10489 l 5.3e-4,-0.1049 c -0.0321,-0.55961 -0.58841,-1.22679 -1.21465,-1.89433 -0.73082,-0.738 -1.35866,-1.09085 -1.35866,-1.09085 0,0 -0.30734,-1.47013 -1.62621,-3.50485 -1.2839,-2.03455 -3.51169,-4.1788 -4.73914,-3.55566 -1.22745,0.62315 -0.15201,2.37691 -0.0847,2.90174 0.1021,0.55997 0.62215,1.47172 0.44726,1.47083 -0.2097,-0.036 -2.84265,-5.04953 -9.49571,-3.68474 -1.71591,0.3759 -3.18874,1.10269 -4.38282,2.0407 l -0.0594,11.67828 c 0.42188,-0.41744 0.59784,-0.62634 0.59784,-0.62634 0,0 0.44406,2.10021 1.27874,3.04853 0.83469,0.94832 1.84623,1.51292 2.16459,0.81522 0.31819,-0.66273 -0.64663,-3.53483 -0.64663,-3.53483 0,0 1.81,1.75749 2.33254,2.17974 0.52255,0.42225 1.53426,0.95188 1.81889,0.009 0.24965,-0.9428 -0.47761,-2.3801 -1.071,-2.62788 -0.55841,-0.2476 -0.9082,-0.24938 -0.9082,-0.24938 0,0 -0.34747,-0.45632 -0.52166,-0.59708 -0.20916,-0.14092 -0.24414,-0.1411 -0.24414,-0.1411 0,0 0.3157,-0.17322 1.29492,-0.13328 1.01421,0.0401 1.81854,0.0792 1.81854,0.0792 0,0 0.90269,1.33329 1.46021,1.75572 0.52237,0.45721 1.88103,1.54806 2.36842,2.0051 0.45241,0.45686 0.73117,0.66807 0.90802,0.28435 0.14187,-0.38391 -0.0978,-1.39914 -0.7237,-2.1366 -0.66104,-0.70268 -1.35866,-1.09085 -1.60173,-1.44175 -0.20774,-0.42064 -0.34606,-0.73604 -0.34606,-0.73604 0,0 1.28941,0.95064 1.60262,1.26692 0.34837,0.2815 2.64966,1.7268 3.03319,1.97351 0.38334,0.28168 0.55912,0.10775 0.55912,0.10775 0,0 0.27877,0.21121 0.38441,0.0719 0.10565,-0.13933 0.39028,-1.08195 -0.34143,-1.64513 -0.7665,-0.59832 -1.2198,-0.88035 -1.14949,-0.94992 0.0353,-0.0697 0.80362,0.17891 0.90962,-0.0303 0.0708,-0.17447 -0.0327,-0.45472 -0.13724,-0.52519 -0.0694,-0.10525 0.21147,-0.31361 0.21147,-0.31361 0,0 0.27983,0.001 1.43359,0.11218 1.15376,0.11077 4.06197,-0.85348 4.65767,-1.06025 0.59571,-0.20677 0.91123,-0.34502 0.91123,-0.34502 z m -22.11303,14.92284 c 2.42153,-1.56115 2.54674,-5.54661 1.22146,-6.3226 -0.38352,-0.24672 -0.7674,-0.42349 -1.1866,-0.53052 l -0.009,1.81817 c 0.10458,0.0705 0.20898,0.1759 0.27805,0.35108 0.20774,0.42064 0.10014,0.94458 0.10014,0.94458 0,0 -0.0316,-0.66451 -0.27468,-1.01541 -0.0348,-0.0351 -0.0696,-0.0703 -0.1044,-0.10542 z m 0.11808,-23.21671 c -0.52664,0.38195 -0.98367,0.83418 -1.40573,1.28658 l -0.0589,11.5734 c 0.35086,-0.20801 0.66673,-0.4162 0.94798,-0.6945 0.17579,-0.17394 0.31659,-0.34804 0.45721,-0.4872 z m -1.52025,23.804 c 0.52522,-0.10223 1.01598,-0.30952 1.40217,-0.58729 l 0.0247,-4.86012 c -0.20845,-0.28079 -0.38246,-0.4565 -0.38246,-0.4565 0,0 0.17454,0.0708 0.38335,0.28167 l 0.009,-1.81817 c -0.45402,-0.14218 -0.94336,-0.2146 -1.39862,-0.11201 l -0.0155,3.04194 v 0 c 0.10529,-0.0694 0.28036,-0.10347 0.20916,0.14093 -0.0357,0.13968 -0.14063,0.13915 -0.21058,0.13879 v 0 l -0.009,1.78321 c 0.07,3.6e-4 0.17489,8.9e-4 0.24503,-0.0337 0,0 -0.0703,0.0696 -0.24556,0.13861 l -0.0119,2.34266 z m 0.11452,-22.51742 c -2.46166,2.57496 -3.56183,5.68132 -3.81024,6.37937 -0.39027,1.08196 -2.89368,4.9854 -3.11528,7.29202 -0.18681,2.34176 -0.25078,8.04087 5.06207,8.83714 0.62908,0.10809 1.22372,0.11112 1.74893,0.009 l 0.0119,-2.34265 c -0.49042,0.13737 -1.57546,0.27172 -2.79261,-1.13311 -1.63439,-1.89647 -0.81424,-4.96929 0.48531,-6.01165 0.84305,-0.69504 1.64951,-1.07555 2.35104,-1.45661 z m -0.0761,14.965 -0.0155,3.04194 c -0.10529,0.0694 -0.17525,0.069 -0.24467,-0.0362 -0.071,0.20943 0.0684,0.31504 0.24325,0.31593 l -0.009,1.78321 c -1.11985,0.0992 -2.65393,-0.88765 -2.26134,-2.42414 0.46361,-1.74594 1.30701,-2.5109 2.2873,-2.68074 z"
       style="fill:#808080;fill-opacity:1;stroke:none;stroke-width:0.437657" />
    <g
       id="g3217"
       transform="matrix(0.16743937,8.5157592e-4,-8.5123549e-4,0.1673736,72.054716,17.035332)"
       inkscape:transform-center-y="-44.562164"
       style="fill:#b3b3b3;fill-opacity:1">
      <path
         style="fill:#b3b3b3;fill-opacity:1;stroke:none"
         d="m 317.497,435.66599 13.283,-0.49733 c 7.12992,-0.26696 16.9201,4.73977 16.36027,13.87359 l -3.48135,56.79988 c -0.43649,7.12156 -3.50599,10.88958 -9.1489,10.88958 h -17.51036 c -7.13493,0 -10.13574,-4.51857 -10.6409,-11.63558 l -3.97869,-56.05388 c -0.50516,-7.11701 4.99786,-12.99738 15.11693,-13.37626 z"
         id="rect3215"
         inkscape:connector-curvature="0"
         sodipodi:nodetypes="sssssssss" />
    </g>
    <g
       inkscape:transform-center-y="-36.33424"
       transform="matrix(0.13660417,-0.1106666,0.11071063,0.13655097,15.559936,72.417798)"
       id="g3221"
       inkscape:transform-center-x="29.82031"
       style="fill:#999999;fill-opacity:1">
      <path
         sodipodi:nodetypes="sssssssss"
         inkscape:connector-curvature="0"
         id="path3223"
         d="m 317.497,435.66599 13.283,-0.49733 c 7.12992,-0.26696 16.9201,4.73977 16.36027,13.87359 l -3.48135,56.79988 c -0.43649,7.12156 -3.50599,10.88958 -9.1489,10.88958 h -17.51036 c -7.13493,0 -10.13574,-4.51857 -10.6409,-11.63558 l -3.97869,-56.05388 c -0.50516,-7.11701 4.99786,-12.99738 15.11693,-13.37626 z"
         style="fill:#999999;fill-opacity:1;stroke:none" />
    </g>
    <g
       inkscape:transform-center-x="43.056986"
       id="g3225"
       transform="matrix(0.03509285,-0.16218273,0.16224659,0.03507972,16.901809,149.82556)"
       inkscape:transform-center-y="-9.8080536"
       style="fill:#b3b3b3;fill-opacity:1">
      <path
         style="fill:#b3b3b3;fill-opacity:1;stroke:none"
         d="m 317.497,435.66599 13.283,-0.49733 c 7.12992,-0.26696 16.9201,4.73977 16.36027,13.87359 l -3.48135,56.79988 c -0.43649,7.12156 -3.50599,10.88958 -9.1489,10.88958 h -17.51036 c -7.13493,0 -10.13574,-4.51857 -10.6409,-11.63558 l -3.97869,-56.05388 c -0.50516,-7.11701 4.99786,-12.99738 15.11693,-13.37626 z"
         id="path3227"
         inkscape:connector-curvature="0"
         sodipodi:nodetypes="sssssssss" />
    </g>
    <g
       inkscape:transform-center-y="16.468461"
       transform="matrix(-0.06026743,-0.11635904,0.11640451,-0.06024329,68.467492,192.59748)"
       id="g3229"
       inkscape:transform-center-x="30.900947"
       style="fill:#808080;fill-opacity:1">
      <path
         sodipodi:nodetypes="sssssssss"
         inkscape:connector-curvature="0"
         id="path3231"
         d="m 317.497,435.66599 13.283,-0.49733 c 7.12992,-0.26696 16.9201,4.73977 16.36027,13.87359 l -3.48135,56.79988 c -0.43649,7.12156 -3.50599,10.88958 -9.1489,10.88958 h -17.51036 c -7.13493,0 -10.13574,-4.51857 -10.6409,-11.63558 l -3.97869,-56.05388 c -0.50516,-7.11701 4.99786,-12.99738 15.11693,-13.37626 z"
         style="fill:#808080;fill-opacity:1;stroke:none" />
    </g>
    <path
       inkscape:connector-curvature="0"
       style="clip-rule:evenodd;overflow:visible;fill:#808080;fill-opacity:1;fill-rule:evenodd;stroke-width:0.839555"
       id="path2819"
       d="m 291.15463,122.0445 v -4.63888 c 1.53285,0 2.82367,-0.52439 3.87245,-1.61355 1.00846,-1.08915 1.53285,-2.50095 1.53285,-4.19509 0,-1.69431 -0.48403,-3.10611 -1.53285,-4.15488 -1.00841,-1.04877 -2.29924,-1.57316 -3.87245,-1.57316 v -4.71957 c 1.81522,0.0403 3.59011,0.48409 5.20361,1.41189 1.65387,0.9277 2.94469,2.21852 3.87248,3.83207 0.92776,1.57316 1.37149,3.30776 1.37149,5.16326 0,1.89589 -0.44373,3.63042 -1.37149,5.28434 -0.96812,1.65376 -2.21861,2.90428 -3.83212,3.83207 -1.5732,0.92771 -3.34805,1.3715 -5.24397,1.3715 z m 0,-20.89512 v 4.71956 h -0.0403 c -1.53285,0 -2.82367,0.52439 -3.87245,1.57316 -1.00845,1.08907 -1.53285,2.46057 -1.53285,4.15488 0,1.73444 0.5244,3.14632 1.53285,4.19509 1.00845,1.08916 2.29924,1.61355 3.87245,1.61355 0,0 0,0 0.0403,0 v 4.63888 c -0.0403,0 -0.0403,0 -0.0806,0 -2.86403,0 -5.2843,-1.00848 -7.3012,-3.02543 -2.01687,-2.05724 -3.02533,-4.51782 -3.02533,-7.42209 0,-3.10611 1.12945,-5.64744 3.42872,-7.7449 1.97654,-1.77499 4.27582,-2.7027 6.85745,-2.7027 0.0403,0 0.0806,0 0.12089,0 v 0 z m -77.89266,20.85474 v -4.51782 c 1.57317,0 2.864,-0.56469 3.87245,-1.65393 1.04878,-1.08907 1.57317,-2.50095 1.57317,-4.27578 0,-1.7346 -0.52439,-3.14631 -1.57317,-4.19517 -1.00845,-1.04878 -2.29928,-1.57316 -3.87245,-1.57316 v -4.55821 c 0.80673,0.0806 1.57317,0.28235 2.29928,0.60508 1.04878,0.4437 2.01687,1.12945 2.90433,2.01694 v -2.17831 h 5.00189 v 19.88665 h -5.00189 v -2.13793 c -0.96812,0.96809 -1.93624,1.61354 -2.9447,2.01695 -0.68574,0.32264 -1.45218,0.484 -2.25891,0.56469 z m 15.20742,-20.33036 h 5.00193 v 2.29921 c 0.84709,-0.96801 1.81518,-1.65376 2.864,-2.09746 1.04878,-0.48417 2.17822,-0.72613 3.38838,-0.72613 1.25047,0 2.37994,0.32272 3.38839,0.92771 1.00846,0.60506 1.81519,1.49256 2.42027,2.66231 0.76644,-1.16975 1.77489,-2.05725 2.90433,-2.66231 1.16981,-0.60499 2.42027,-0.92771 3.79179,-0.92771 1.41182,0 2.66232,0.32272 3.7111,1.00847 1.08911,0.64537 1.85555,1.49248 2.33961,2.58155 0.4437,1.04886 0.68574,2.74308 0.68574,5.12297 v 11.69804 h -5.00192 v -10.12488 c 0,-2.25891 -0.28241,-3.79168 -0.8471,-4.55811 -0.56472,-0.76652 -1.41182,-1.16984 -2.54129,-1.16984 -0.8471,0 -1.61354,0.24195 -2.29928,0.72613 -0.68574,0.44371 -1.1698,1.12945 -1.49251,1.97657 -0.36304,0.88732 -0.52439,2.25882 -0.52439,4.15471 v 8.99542 h -5.00189 v -9.64079 c 0,-1.8152 -0.1612,-3.10602 -0.40337,-3.87245 -0.28241,-0.80682 -0.68578,-1.3715 -1.21017,-1.77482 -0.52439,-0.36311 -1.12947,-0.56477 -1.89588,-0.56477 -0.80676,0 -1.57317,0.24195 -2.25891,0.72613 -0.64542,0.44371 -1.16981,1.16975 -1.49251,2.05716 -0.36304,0.88741 -0.52439,2.29929 -0.52439,4.19518 v 8.87436 h -5.00193 z m 37.23199,-8.188567 c 0.88743,0 1.6135,0.322701 2.25892,0.927778 0.60508,0.6454 0.92779,1.411821 0.92779,2.2993 0,0.92771 -0.28241,1.653807 -0.92779,2.299173 -0.60509,0.645452 -1.37149,0.927797 -2.21859,0.927797 -0.88743,0 -1.65386,-0.322726 -2.29928,-0.968095 -0.60505,-0.605068 -0.92775,-1.411848 -0.92775,-2.299256 0,-0.887428 0.3227,-1.653852 0.92775,-2.258919 0.60509,-0.645408 1.37152,-0.927778 2.25895,-0.927778 z m -2.50096,8.188567 h 5.00189 v 19.88665 h -5.00189 z m 8.99536,-7.70451 h 5.00193 v 27.59116 h -5.00193 z m -94.83464,5.445517 -3.59008,3.428833 c -2.46063,-2.58164 -5.2036,-3.872454 -8.22896,-3.872454 -2.58162,0 -4.75987,0.887411 -6.4944,2.621934 -1.77489,1.77482 -2.66231,3.91283 -2.66231,6.45409 0,1.8152 0.40336,3.38836 1.1698,4.80024 0.7664,1.3715 1.89588,2.46057 3.3077,3.26739 1.45218,0.80681 3.02535,1.16975 4.75991,1.16975 1.49248,0 2.864,-0.24204 4.07413,-0.80673 1.25046,-0.56477 2.62195,-1.57316 4.07413,-3.02534 l 3.46909,3.59003 c -1.97658,1.97656 -3.87245,3.30776 -5.64734,4.07419 -1.73453,0.72605 -3.75143,1.08908 -6.05071,1.08908 -4.15479,0 -7.58354,-1.29082 -10.28619,-3.95314 -2.66228,-2.66223 -3.99347,-6.05059 -3.99347,-10.20547 0,-2.66232 0.60508,-5.04221 1.85558,-7.13984 1.21013,-2.057246 2.94466,-3.751355 5.20357,-5.001855 2.25895,-1.290817 4.67922,-1.936225 7.30121,-1.936225 2.21858,0 4.35647,0.48406 6.41374,1.411828 2.05723,0.968086 3.83209,2.299285 5.3246,4.033689 z m 35.90083,1.815283 v 4.55821 h -0.0403 c -1.5732,0 -2.82367,0.52438 -3.87245,1.57316 -1.00845,1.08915 -1.53284,2.50095 -1.53284,4.19517 0,1.73453 0.52439,3.14633 1.57317,4.27578 1.04878,1.08924 2.33961,1.65393 3.83212,1.65393 0.0403,0 0.0403,0 0.0403,0 v 4.51782 c -0.28241,0.0403 -0.60508,0.0403 -0.92779,0.0403 -2.58162,0 -4.80021,-0.96817 -6.69609,-2.98512 -1.85555,-1.97657 -2.78334,-4.47744 -2.78334,-7.4221 0,-3.06572 0.88743,-5.56667 2.70265,-7.54324 1.81522,-1.93627 4.0338,-2.94466 6.61546,-2.94466 0.40336,0 0.72607,0.0403 1.08911,0.0806 v 0 z m -31.94769,-7.2608 h 4.96156 v 9.72146 c 0.96812,-0.84711 1.97657,-1.49256 2.94466,-1.89588 1.00845,-0.44379 1.97657,-0.64546 2.98502,-0.64546 1.93624,0 3.63044,0.68576 4.96157,2.05725 1.16983,1.16984 1.73455,2.94466 1.73455,5.20366 v 13.15013 h -4.92126 v -8.7533 c 0,-2.29937 -0.0806,-3.87245 -0.32268,-4.67926 -0.20181,-0.80682 -0.60508,-1.3715 -1.08914,-1.77482 -0.52439,-0.40349 -1.1698,-0.60507 -1.93621,-0.60507 -1.04878,0 -1.89591,0.32264 -2.62198,1.00839 -0.72608,0.60507 -1.25047,1.53286 -1.53284,2.70262 -0.1209,0.60506 -0.20182,1.93626 -0.20182,4.07419 v 8.02725 h -4.96156 z" />
    <path
       inkscape:connector-curvature="0"
       style="clip-rule:evenodd;overflow:visible;fill:#808080;fill-opacity:1;fill-rule:evenodd;stroke-width:0.839555"
       id="path2913"
       d="m 298.89957,132.00793 v -0.64545 0 c 0.40336,0 0.72607,-0.0806 1.04878,-0.28225 0.3227,-0.20175 0.56472,-0.48409 0.7261,-0.84711 h 0.72605 c -0.20181,0.56468 -0.56472,1.00847 -0.96809,1.33111 -0.44373,0.28244 -0.92779,0.44371 -1.49251,0.44371 h -0.0403 v 0 z m 0,-2.50095 v -0.56469 h 1.93621 c -0.1209,-0.56477 -0.32271,-1.00848 -0.68575,-1.29082 -0.32267,-0.28234 -0.7261,-0.4437 -1.25046,-0.4437 v -0.64545 c 0.0403,0 0.0403,0 0.0403,0 0.80676,0 1.41181,0.28234 1.89587,0.80681 0.48406,0.52438 0.76644,1.25043 0.76644,2.09746 v 0.0403 h -2.70265 z m 0,-2.94466 v 0.64545 h -0.0403 c -0.48406,0 -0.92779,0.16135 -1.2505,0.4437 -0.36304,0.32273 -0.56472,0.76643 -0.64541,1.29082 h 1.93624 v 0.56469 h -1.97657 c 0.0403,0.56468 0.24211,1.00847 0.60508,1.33111 0.36304,0.36311 0.8471,0.52439 1.37149,0.52439 v 0.64545 c -0.72608,0 -1.37149,-0.28235 -1.85555,-0.80673 -0.52439,-0.52447 -0.80677,-1.16984 -0.80677,-1.89589 0,-0.80673 0.28241,-1.45218 0.76644,-1.97656 0.52439,-0.48409 1.12944,-0.72605 1.89588,-0.76643 v 0 z m -8.43068,5.44561 v -0.60507 c 0.0403,0 0.0403,0 0.0403,0 0.52439,0 0.96812,-0.24195 1.37149,-0.64545 0.36303,-0.40332 0.56472,-0.92771 0.56472,-1.49239 0,-0.56486 -0.20181,-1.04886 -0.56472,-1.45219 -0.40337,-0.4034 -0.8471,-0.60506 -1.37149,-0.60506 0,0 0,0 -0.0403,0 v -0.60507 c 0.0403,0 0.0403,0 0.0806,0 0.40337,0 0.72607,0.0806 1.08911,0.24195 0.32271,0.16135 0.60508,0.40341 0.80677,0.68575 v -0.80681 h 0.64541 v 5.12305 h -0.64541 v -0.80681 c -0.20181,0.32264 -0.48406,0.52439 -0.8471,0.72613 -0.32271,0.16135 -0.72611,0.24195 -1.12947,0.24195 z m 4.31618,-0.16129 h -0.64541 v -5.12305 h 0.60508 v 0.60515 c 0.16119,-0.24205 0.36304,-0.40341 0.52439,-0.52447 0.20181,-0.1209 0.4437,-0.16129 0.68574,-0.16129 v 0.72613 c -0.40339,0.0403 -0.72607,0.16129 -0.88742,0.36302 -0.1612,0.20165 -0.28241,0.56469 -0.28241,1.00839 z m -4.31618,-5.24395 v 0.60507 c -0.52439,0 -0.96809,0.20165 -1.37149,0.60506 -0.36303,0.40333 -0.56472,0.92772 -0.56472,1.53278 0,0.56477 0.20181,1.04886 0.56472,1.45218 0.4034,0.40341 0.8471,0.56469 1.37149,0.60507 v 0.60507 0 c -0.72607,0 -1.37149,-0.28235 -1.85552,-0.76635 -0.52442,-0.52447 -0.76643,-1.16992 -0.76643,-1.93627 0,-0.76643 0.24211,-1.4118 0.76643,-1.93618 0.48403,-0.48409 1.12945,-0.76643 1.85552,-0.76643 z m -9.56009,0.76643 v -0.60515 l 1.73453,5.08267 h 0.40337 l 1.21016,-3.91284 1.21014,3.91284 h 0.4437 l 1.73455,-5.12305 h -0.7261 l -1.25047,3.83223 -1.1698,-3.83223 h -0.48406 l -1.16981,3.83223 -1.25046,-3.83223 h -0.68575 v 0 z m 0,-0.60515 v 0.60515 h -0.96812 v 4.47752 h -0.64541 v -4.47752 h -0.96812 v -0.64553 h 0.96812 v -1.65376 h 0.64541 v 1.65376 h 0.96812 v 0 0.0403 0 z m -8.14829,5.24395 v -0.64545 c 0,0 0,0 0.0403,0 0.52439,0 1.00845,-0.20159 1.37152,-0.60507 0.36301,-0.36294 0.56472,-0.88733 0.56472,-1.49239 0,-0.60507 -0.20181,-1.08925 -0.56472,-1.49257 -0.36307,-0.36302 -0.84713,-0.56468 -1.41185,-0.56468 v -0.64545 c 0.72608,0 1.37149,0.28234 1.89588,0.76643 0.52439,0.52438 0.76644,1.16984 0.76644,1.89588 0,0.76635 -0.24211,1.41188 -0.76644,1.97657 -0.52439,0.52439 -1.12944,0.80673 -1.85555,0.80673 -0.0403,0 -0.0403,0 -0.0403,0 z m 4.35651,-0.16129 h -0.64542 v -4.5582 h -0.68574 v -0.56485 h 0.68574 v -0.16129 c 0,-0.52439 0.1209,-0.9278 0.4034,-1.21014 0.28241,-0.24204 0.68575,-0.36302 1.25047,-0.36302 h 0.0806 v 0.56468 c -0.4034,0 -0.68574,0.0806 -0.84709,0.24205 -0.1612,0.16135 -0.24211,0.40332 -0.24211,0.76643 v 0.16129 h 1.08914 v 0.56485 h -1.08914 z m -4.35651,-5.28433 v 0.64545 h -0.0403 c -0.52439,0 -0.96812,0.20165 -1.33116,0.56468 -0.4034,0.40332 -0.56475,0.92771 -0.56475,1.49257 0,0.60506 0.16119,1.12945 0.56475,1.49239 0.36304,0.40349 0.80677,0.60507 1.37149,0.60507 v 0.64545 c -0.72608,0 -1.37149,-0.28235 -1.85555,-0.80673 -0.52439,-0.52447 -0.80677,-1.16984 -0.80677,-1.89589 0,-0.76643 0.28241,-1.41179 0.80677,-1.93618 0.52439,-0.56485 1.12947,-0.80681 1.81522,-0.80681 0.0403,0 0.0403,0 0.0403,0 z m -16.94195,5.44561 v -0.64545 0 c 0.56475,0 1.00845,-0.20159 1.41185,-0.60507 0.36303,-0.36294 0.52436,-0.88733 0.52436,-1.49239 0,-0.60507 -0.1612,-1.08925 -0.56473,-1.49257 -0.36303,-0.36302 -0.80673,-0.56468 -1.37148,-0.56468 v -0.64545 c 0.72607,0 1.33115,0.28234 1.85554,0.76643 0.5244,0.52438 0.80677,1.16984 0.80677,1.89588 0,0.76635 -0.28241,1.41188 -0.76643,1.97657 -0.5244,0.52439 -1.16981,0.80673 -1.89588,0.80673 z m 3.42872,-5.28433 h 0.64541 v 0.56485 c 0.20181,-0.20175 0.44373,-0.40341 0.68574,-0.52447 0.28241,-0.0806 0.56476,-0.16129 0.92779,-0.16129 0.36304,0 0.72608,0.0806 1.00846,0.20159 0.2824,0.16145 0.52439,0.3631 0.68574,0.60515 0.1209,0.20165 0.20181,0.40341 0.28241,0.68566 0.0403,0.24215 0.0806,0.60507 0.0806,1.08924 v 2.66232 h -0.68574 v -2.86406 c 0,-0.60507 -0.1209,-1.04878 -0.32271,-1.33112 -0.24211,-0.28234 -0.60505,-0.4034 -1.12947,-0.4034 -0.28241,0 -0.56472,0.0403 -0.7664,0.16135 -0.24211,0.12099 -0.40337,0.32272 -0.56473,0.52438 -0.0806,0.16129 -0.12089,0.32273 -0.16119,0.48409 -0.0403,0.20166 -0.0403,0.48401 -0.0403,0.92771 v 2.50104 h -0.64541 v -5.12305 0 z m 6.4541,3.18678 h 0.64538 c 0,0.44371 0.1209,0.76635 0.32274,1.00848 0.24211,0.24204 0.52436,0.36302 0.88743,0.36302 0.40337,0 0.72607,-0.12099 0.96809,-0.36302 0.24211,-0.24215 0.36307,-0.56477 0.36307,-1.00848 0,-0.60507 -0.48409,-1.08915 -1.45218,-1.41179 -0.0806,0 -0.1209,-0.0403 -0.16152,-0.0403 -0.52439,-0.16136 -0.84709,-0.40341 -1.08914,-0.64537 -0.20181,-0.28244 -0.32267,-0.60507 -0.32267,-1.04886 0,-0.52438 0.16151,-0.96809 0.52439,-1.33103 0.3227,-0.32281 0.7664,-0.52447 1.29079,-0.52447 0.52439,0 0.92779,0.16135 1.21017,0.48409 0.32271,0.32264 0.48403,0.76634 0.52439,1.33111 h -0.64541 c -0.0403,-0.36302 -0.16152,-0.64545 -0.32271,-0.84703 -0.20181,-0.20174 -0.4437,-0.3228 -0.76644,-0.3228 -0.3227,0 -0.60505,0.12105 -0.80673,0.3228 -0.24211,0.24195 -0.32271,0.52431 -0.32271,0.84703 0,0.20165 0,0.32273 0.0806,0.48409 0.0806,0.12106 0.16151,0.24195 0.32274,0.32264 0.12089,0.12106 0.40336,0.24205 0.80673,0.36311 0.24211,0.0806 0.4034,0.16129 0.52442,0.20165 0.4437,0.16136 0.76641,0.36303 0.96809,0.64537 0.20181,0.28244 0.28241,0.60507 0.28241,1.04886 0,0.68575 -0.16119,1.21013 -0.52439,1.61345 -0.36304,0.40341 -0.8471,0.60507 -1.45218,0.60507 -0.52439,0 -1.00845,-0.20165 -1.33116,-0.56468 -0.36304,-0.40341 -0.52439,-0.88741 -0.52439,-1.53278 z m -9.88282,-3.34806 v 0.64545 c -0.0403,0 -0.0403,0 -0.0403,0 -0.52439,0 -1.00845,0.20165 -1.37149,0.56468 -0.36304,0.40332 -0.56475,0.92771 -0.56475,1.49257 0,0.60506 0.20181,1.12945 0.56475,1.49239 0.40337,0.40349 0.8471,0.60507 1.41182,0.60507 v 0.64545 c -0.76641,0 -1.37149,-0.28235 -1.89588,-0.80673 -0.52439,-0.52447 -0.76644,-1.16984 -0.76644,-1.89589 0,-0.76643 0.24211,-1.41179 0.76644,-1.93618 0.52439,-0.56485 1.12947,-0.80681 1.85555,-0.80681 0,0 0,0 0.0403,0 z m -10.36686,5.44561 v -0.60507 0 c 0.52439,0 0.96809,-0.24195 1.37149,-0.64545 0.36304,-0.40332 0.56472,-0.92771 0.56472,-1.49239 0,-0.56486 -0.20181,-1.04886 -0.56472,-1.45218 -0.4034,-0.40341 -0.8471,-0.60507 -1.37149,-0.60507 v 0 -0.60507 c 0,0 0,0 0.0403,0 0.40337,0 0.76641,0.0806 1.08911,0.24195 0.32271,0.16135 0.60509,0.40341 0.80677,0.68575 v -0.80681 h 0.64541 v 5.12305 h -0.64541 v -0.80681 c -0.20181,0.32264 -0.48406,0.52439 -0.80677,0.72613 -0.36303,0.16136 -0.72607,0.24195 -1.12947,0.24195 v 0 z m 4.07414,-0.16129 v -4.47752 h -0.96812 v -0.64553 h 0.96812 v -1.65376 h 0.68574 v 1.65376 h 0.96812 v 0.64553 h -0.96812 v 4.47752 z m 2.864,-5.72812 h -0.68575 v -1.04869 h 0.68575 z m -0.68575,5.72812 v -5.12305 h 0.68575 v 5.12305 z m -6.25239,-5.24395 v 0.60507 c -0.56475,0 -1.00848,0.20165 -1.41185,0.60507 -0.36303,0.40332 -0.56472,0.92771 -0.56472,1.53277 0,0.56477 0.20181,1.04886 0.56472,1.45218 0.40337,0.40341 0.8471,0.56469 1.41185,0.60507 v 0.60507 h -0.0403 c -0.7261,0 -1.37152,-0.28235 -1.85558,-0.76635 -0.52439,-0.52447 -0.7664,-1.16992 -0.7664,-1.93626 0,-0.76644 0.24211,-1.4118 0.7664,-1.93619 0.48406,-0.48409 1.12948,-0.76643 1.89591,-0.76643 v 0 z m -8.22896,5.40523 v -0.64545 0 c 0.56472,0 1.00845,-0.20159 1.41182,-0.60507 0.36304,-0.36294 0.56475,-0.88733 0.56475,-1.49239 0,-0.60507 -0.20181,-1.08925 -0.56475,-1.49257 -0.40337,-0.36302 -0.8471,-0.56468 -1.41182,-0.56468 v -0.64545 c 0.72608,0 1.33116,0.28234 1.85555,0.76643 0.52439,0.52438 0.80677,1.16984 0.80677,1.89588 0,0.76635 -0.28241,1.41188 -0.76644,1.97657 -0.52439,0.52439 -1.1698,0.80673 -1.89588,0.80673 z m 4.07414,-0.16129 h -0.64542 v -5.12305 h 0.60509 v 0.60515 c 0.16151,-0.24205 0.36303,-0.40341 0.52439,-0.52447 0.20181,-0.1209 0.44373,-0.16129 0.68574,-0.16129 v 0.72613 c -0.40337,0.0403 -0.68574,0.16129 -0.88743,0.36302 -0.16119,0.20165 -0.2824,0.56469 -0.2824,1.00839 z m -4.07414,-5.28433 v 0.64545 h -0.0403 c -0.52439,0 -0.96812,0.20165 -1.37148,0.56468 -0.36304,0.40333 -0.56472,0.92771 -0.56472,1.49257 0,0.60506 0.20181,1.12945 0.56472,1.49239 0.40336,0.40349 0.84709,0.60507 1.41181,0.60507 v 0.64545 c -0.72607,0 -1.37148,-0.28234 -1.89587,-0.80673 -0.48406,-0.52447 -0.76641,-1.16984 -0.76641,-1.89588 0,-0.76643 0.28241,-1.4118 0.76641,-1.93619 0.52439,-0.56485 1.12947,-0.80681 1.85554,-0.80681 z m -5.80869,5.44561 v -0.60507 c 0.52439,-0.0403 0.96812,-0.24195 1.37149,-0.64545 0.36307,-0.40332 0.56475,-0.88733 0.56475,-1.49239 0,-0.56486 -0.20181,-1.04886 -0.56475,-1.45218 -0.40337,-0.40341 -0.8471,-0.60507 -1.37149,-0.60507 v -0.60507 h 0.0403 c 0.72608,0 1.33116,0.24195 1.85555,0.76643 0.48406,0.52439 0.72611,1.16976 0.72611,1.93619 0,0.76634 -0.24211,1.41179 -0.76644,1.89588 -0.48406,0.52439 -1.12948,0.80673 -1.85555,0.80673 z m 0,-5.40523 v 0.60507 c 0,0 0,0 -0.0403,0 -0.52439,0 -0.96812,0.20165 -1.37148,0.64537 -0.36304,0.4034 -0.56473,0.88741 -0.56473,1.49247 0,0.56477 0.20182,1.00848 0.60506,1.4118 0.36303,0.44379 0.80676,0.64545 1.33115,0.64545 0,0 0,0 0.0403,0 v 0.60507 c -0.0403,0 -0.0403,0 -0.0403,0 -0.40336,0 -0.72607,-0.0806 -1.04878,-0.24195 -0.3227,-0.16135 -0.60508,-0.36311 -0.88743,-0.68575 v 0.76643 h -0.64541 v -6.77681 h 0.64541 v 2.13793 0.36302 c 0.28241,-0.32272 0.60506,-0.56477 0.92776,-0.72613 0.32271,-0.16129 0.64542,-0.24195 1.04878,-0.24195 v 0 z m -6.25239,5.40523 v -0.60507 0 c 0.52439,0 1.00845,-0.24195 1.37152,-0.64545 0.40337,-0.40332 0.60505,-0.92771 0.60505,-1.49239 0,-0.56486 -0.20181,-1.04886 -0.60505,-1.45218 -0.36307,-0.40341 -0.84713,-0.60507 -1.33115,-0.60507 h -0.0403 v -0.60507 h 0.0403 c 0.40336,0 0.7664,0.0806 1.08911,0.24195 0.3227,0.16136 0.60508,0.40341 0.84709,0.68575 v -0.80681 h 0.64542 v 5.12305 h -0.64542 v -0.80681 c -0.20181,0.32264 -0.48406,0.52439 -0.84709,0.72613 -0.36304,0.16136 -0.72608,0.24195 -1.12948,0.24195 z m 0,-5.40523 v 0.60507 c -0.52439,0 -1.00842,0.20165 -1.37148,0.60507 -0.40337,0.40332 -0.60506,0.92771 -0.60506,1.53277 0,0.56477 0.20181,1.04886 0.60506,1.45218 0.36306,0.40341 0.84709,0.56469 1.37148,0.60507 v 0.60507 0 c -0.7664,0 -1.37148,-0.28234 -1.89588,-0.76635 -0.48406,-0.52447 -0.76643,-1.16992 -0.76643,-1.93626 0,-0.76643 0.28241,-1.4118 0.76643,-1.93619 0.5244,-0.48409 1.12948,-0.76643 1.89588,-0.76643 z m -9.27774,5.40523 v -0.64545 0 c 0.56475,0 1.00848,-0.20159 1.37149,-0.60507 0.4034,-0.36294 0.56475,-0.88733 0.56475,-1.49239 0,-0.60507 -0.16119,-1.08924 -0.56475,-1.49257 -0.36301,-0.36302 -0.80674,-0.56468 -1.37149,-0.56468 v -0.64545 c 0.72611,0 1.33116,0.28234 1.85555,0.76643 0.52442,0.52439 0.80677,1.16984 0.80677,1.89588 0,0.76635 -0.28241,1.41188 -0.80677,1.97657 -0.48406,0.52439 -1.12944,0.80673 -1.85555,0.80673 z m 3.42875,-0.16129 v -6.77681 h 0.64539 v 6.77681 z m 1.73453,0 v -6.77681 h 0.64541 v 6.77681 z m -5.16328,-5.28433 v 0.64545 c -0.0403,0 -0.0403,0 -0.0403,0 -0.52439,0 -1.00845,0.20165 -1.37149,0.56468 -0.36303,0.40333 -0.56472,0.92771 -0.56472,1.49257 0,0.60506 0.20181,1.12945 0.56472,1.49239 0.36304,0.40349 0.8471,0.60507 1.41182,0.60507 v 0.64545 c -0.7664,0 -1.37148,-0.28234 -1.89588,-0.80673 -0.52439,-0.52447 -0.7664,-1.16984 -0.7664,-1.89588 0,-0.76643 0.24211,-1.4118 0.7664,-1.93619 0.5244,-0.56485 1.12948,-0.80681 1.85555,-0.80681 0,0 0,0 0.0403,0 z m -15.40911,5.44561 v -0.68575 c 0.28241,-0.0403 0.52439,-0.12099 0.72608,-0.28234 0.24211,-0.20175 0.48406,-0.48401 0.7261,-0.9278 l -1.45218,-1.3312 v -1.08907 c 0.32271,-0.16135 0.52439,-0.28235 0.68575,-0.484 0.16119,-0.20175 0.24211,-0.44379 0.24211,-0.72614 0,-0.24204 -0.0806,-0.484 -0.24211,-0.64536 -0.20181,-0.20175 -0.40337,-0.28244 -0.64542,-0.28244 0,0 0,0 -0.0403,0 v -0.64537 c 0.0403,0 0.0403,0 0.0806,0 0.4034,0 0.76644,0.16135 1.08915,0.48409 0.3227,0.32264 0.48406,0.68566 0.48406,1.12945 0,0.36302 -0.1209,0.64537 -0.36304,0.96801 -0.20181,0.28244 -0.52439,0.48417 -0.96812,0.68575 l 1.41182,1.29081 0.76643,-2.13784 h 0.76641 l -1.04878,2.58163 1.53284,1.4118 -0.4437,0.48409 -1.37152,-1.25043 c -0.20181,0.484 -0.48403,0.80664 -0.84706,1.08907 -0.32271,0.20174 -0.68575,0.32264 -1.08915,0.36302 v 0 z m 11.33498,-5.20365 c -0.28241,-0.40333 -0.64538,-0.72605 -1.00845,-0.92771 -0.36304,-0.20165 -0.80677,-0.28235 -1.2908,-0.28235 -0.76644,0 -1.41185,0.28235 -1.93624,0.80673 -0.56472,0.56477 -0.80677,1.25052 -0.80677,2.01695 0,0.84711 0.24211,1.53286 0.80677,2.09755 0.52439,0.56477 1.1698,0.84703 1.93624,0.84703 0.48403,0 0.88743,-0.1209 1.2908,-0.32264 0.36307,-0.16136 0.68574,-0.48401 0.96812,-0.84712 h 0.80676 c -0.3227,0.56469 -0.7261,1.00848 -1.25046,1.33112 -0.52442,0.32281 -1.12947,0.48409 -1.77489,0.48409 -1.00845,0 -1.81522,-0.36303 -2.50096,-1.04878 -0.68574,-0.68575 -1.00845,-1.53286 -1.00845,-2.54125 0,-0.48409 0.0806,-0.92787 0.28241,-1.3715 0.16119,-0.4034 0.4437,-0.80681 0.80676,-1.12945 0.32271,-0.32273 0.68575,-0.60507 1.08912,-0.76643 0.4034,-0.16136 0.84709,-0.24205 1.29082,-0.24205 0.68575,0 1.2908,0.16136 1.85555,0.48409 0.52439,0.36303 0.96809,0.80665 1.25047,1.41171 z m -11.33498,-1.8958 v 0.64536 c -0.24211,0 -0.48406,0.0806 -0.64541,0.28244 -0.16119,0.16136 -0.24211,0.40333 -0.24211,0.68576 0,0.20158 0.0403,0.40332 0.16151,0.60506 0.1209,0.16136 0.32271,0.36294 0.60505,0.60507 0.0403,0 0.0806,-0.0403 0.1209,-0.0403 v 1.08916 l -0.36304,-0.32273 c -0.3227,0.16136 -0.60505,0.36303 -0.76643,0.60507 -0.1612,0.28235 -0.28241,0.56477 -0.28241,0.88741 0,0.40341 0.12089,0.72613 0.36304,1.00848 0.2824,0.24204 0.56472,0.36302 0.96812,0.36302 0.0403,0 0.0806,0 0.0806,0 v 0.68575 c -0.0403,0 -0.0806,0 -0.12089,0 -0.56472,0 -1.00845,-0.20165 -1.41182,-0.60507 -0.36304,-0.40332 -0.56472,-0.88741 -0.56472,-1.45218 0,-0.40332 0.12089,-0.80673 0.32271,-1.12945 0.2421,-0.36303 0.56472,-0.64537 0.96808,-0.80673 -0.3227,-0.28235 -0.52439,-0.52439 -0.60505,-0.72605 -0.12089,-0.24205 -0.20181,-0.48409 -0.20181,-0.76643 0,-0.44379 0.1612,-0.80681 0.48403,-1.12954 0.32271,-0.28234 0.68578,-0.4437 1.12947,-0.484 v 0 z m -7.13981,8.95504 v -0.64537 0 c 0.56472,0 1.04878,-0.16135 1.41182,-0.56485 0.36303,-0.40333 0.52439,-0.92771 0.52439,-1.57308 v -0.12106 c -0.24211,0.32273 -0.52439,0.60508 -0.8471,0.76644 -0.32271,0.16135 -0.68574,0.24195 -1.04878,0.24195 -0.0403,0 -0.0403,0 -0.0403,0 v -0.60507 0 c 0.48406,0 0.96812,-0.20159 1.33116,-0.60507 0.40336,-0.40332 0.60505,-0.88732 0.60505,-1.45209 0,-0.56477 -0.20181,-1.08916 -0.60505,-1.49248 -0.36304,-0.40341 -0.80677,-0.60507 -1.33116,-0.60507 v 0 -0.60506 c 0.40337,0 0.7664,0.0806 1.08911,0.24195 0.32271,0.12105 0.60508,0.40341 0.8471,0.72613 v -0.84719 h 0.64541 v 4.27594 c 0,0.92779 -0.24211,1.61345 -0.68574,2.09754 -0.44373,0.52439 -1.04878,0.76643 -1.85555,0.76643 h -0.0403 z m 0,-7.26082 v 0.60507 c -0.56476,0 -0.96812,0.20165 -1.33116,0.56468 -0.40337,0.40333 -0.60508,0.8875 -0.60508,1.49257 0,0.56468 0.20181,1.08907 0.60508,1.49239 0.36304,0.40349 0.7664,0.60507 1.33116,0.60507 v 0.60507 c -0.72611,0 -1.37149,-0.24195 -1.85555,-0.76635 -0.52439,-0.52447 -0.76644,-1.16984 -0.76644,-1.93618 0,-0.76643 0.24211,-1.3715 0.76644,-1.89589 0.48406,-0.52447 1.12944,-0.76643 1.81522,-0.76643 0,0 0,0 0.0403,0 v 0 z m 0,6.61545 v 0.64537 c -0.56476,0 -1.00845,-0.16136 -1.41185,-0.40341 -0.4437,-0.32264 -0.68572,-0.68575 -0.80674,-1.16975 h 0.76641 c 0.0806,0.28234 0.2824,0.5243 0.52442,0.68574 0.28241,0.16136 0.52436,0.24205 0.92776,0.24205 z m -20.81443,-1.21022 v -0.60507 0 c 0.52442,0 0.96812,-0.24195 1.37152,-0.64545 0.40336,-0.40332 0.56472,-0.92771 0.56472,-1.49239 0,-0.56486 -0.1612,-1.04886 -0.56472,-1.45218 -0.4034,-0.40341 -0.8471,-0.60507 -1.33116,-0.60507 -0.0403,0 -0.0403,0 -0.0403,0 v -0.60507 h 0.0403 c 0.40337,0 0.7664,0.0806 1.08911,0.24195 0.32271,0.16136 0.60508,0.40341 0.80677,0.68575 v -0.80681 h 0.64541 v 5.12305 h -0.64541 v -0.80681 c -0.20181,0.32264 -0.48406,0.52439 -0.80677,0.72613 -0.36304,0.16136 -0.72607,0.24195 -1.12947,0.24195 z m 4.31618,-0.16129 H 176.151 v -5.12305 h 0.64542 v 0.60515 c 0.16119,-0.24205 0.3227,-0.40341 0.52439,-0.52447 0.16119,-0.1209 0.40336,-0.16129 0.64541,-0.16129 v 0.72613 c -0.40337,0.0403 -0.68574,0.16129 -0.88743,0.36302 -0.16119,0.20165 -0.24211,0.56469 -0.24211,1.0084 z m 1.73452,-5.12305 h 0.64542 v 0.56485 c 0.20181,-0.20175 0.40336,-0.40341 0.68574,-0.52447 0.28241,-0.0806 0.56472,-0.16129 0.92779,-0.16129 0.36304,0 0.68574,0.0806 1.00845,0.20159 0.28241,0.16145 0.52439,0.36311 0.68574,0.60515 0.1209,0.20165 0.20182,0.40341 0.24211,0.68567 0.0806,0.24214 0.0806,0.60506 0.0806,1.08923 v 2.66232 h -0.64541 v -2.86406 c 0,-0.60507 -0.1209,-1.04877 -0.32271,-1.33112 -0.24211,-0.28234 -0.60508,-0.4034 -1.12947,-0.4034 -0.32268,0 -0.56472,0.0403 -0.80674,0.16135 -0.20181,0.12099 -0.4034,0.32272 -0.52439,0.52439 -0.0806,0.16129 -0.12089,0.32272 -0.16151,0.48409 -0.0403,0.20165 -0.0403,0.484 -0.0403,0.92771 v 2.50103 h -0.64541 v -5.12305 0 z m 6.01038,-0.60507 h -0.64542 v -1.04869 h 0.64542 z m -0.64542,5.72812 v -5.12305 h 0.64542 v 5.12305 z m 1.6942,-5.12305 h 0.64541 v 0.56485 c 0.20181,-0.20175 0.44373,-0.40341 0.72608,-0.52447 0.24211,-0.0806 0.56475,-0.16129 0.88746,-0.16129 0.40336,0 0.72607,0.0806 1.00845,0.20159 0.32267,0.16145 0.52439,0.36311 0.72607,0.60515 0.1209,0.20165 0.20181,0.40341 0.24211,0.68567 0.0403,0.24214 0.0806,0.60506 0.0806,1.08923 v 2.66232 h -0.64542 v -2.86406 c 0,-0.60507 -0.12089,-1.04877 -0.36303,-1.33112 -0.24211,-0.28234 -0.60509,-0.4034 -1.12948,-0.4034 -0.28241,0 -0.52439,0.0403 -0.7664,0.16135 -0.24211,0.12099 -0.4034,0.32272 -0.52439,0.52439 -0.0806,0.16129 -0.1612,0.32272 -0.20181,0.48409 0,0.20165 -0.0403,0.484 -0.0403,0.92771 v 2.50103 h -0.64542 v -5.12305 z m -13.10986,-0.1209 v 0.60507 c -0.56472,0 -1.00842,0.20165 -1.37149,0.60507 -0.40337,0.40332 -0.60505,0.92771 -0.60505,1.53278 0,0.56476 0.20181,1.04885 0.60505,1.45217 0.36307,0.40341 0.80677,0.56469 1.37149,0.60507 v 0.60507 0 c -0.76641,0 -1.41182,-0.28234 -1.89588,-0.76635 -0.52439,-0.52447 -0.76641,-1.16992 -0.76641,-1.93626 0,-0.76643 0.28241,-1.4118 0.76641,-1.93619 0.52439,-0.48409 1.12947,-0.76643 1.89588,-0.76643 z m -5.80866,5.40523 v -0.64545 0 c 0.36303,0 0.7261,-0.0806 1.04878,-0.28225 0.28241,-0.20175 0.52439,-0.48409 0.68574,-0.84711 h 0.76644 c -0.24211,0.56468 -0.56472,1.00847 -1.00845,1.33112 -0.44373,0.28244 -0.92776,0.4437 -1.49251,0.4437 z m 0,-2.50095 v -0.56469 h 1.93624 c -0.1209,-0.56477 -0.36307,-1.00847 -0.68575,-1.29082 -0.3227,-0.28234 -0.76643,-0.4437 -1.25049,-0.4437 v -0.64545 c 0,0 0,0 0.0403,0 0.7664,0 1.41181,0.28234 1.89588,0.80681 0.48406,0.52439 0.72607,1.25044 0.72607,2.09746 v 0.0403 h -2.66232 z m -12.98884,-1.41188 h 2.864 v 0.68575 h -2.864 v 2.42035 h 2.864 v 0.64545 h -3.54974 v -6.77681 h 3.54974 v 0.64537 h -2.864 z m 12.98884,-1.53278 v 0.64545 c -0.0403,0 -0.0403,0 -0.0806,0 -0.48406,0 -0.88743,0.16135 -1.25046,0.4437 -0.36304,0.32273 -0.56473,0.76643 -0.64542,1.29082 h 1.97657 v 0.56469 h -1.97657 c 0.0403,0.56468 0.24211,1.00847 0.60505,1.33111 0.36307,0.36311 0.80677,0.52439 1.37152,0.52439 v 0.64545 c -0.76643,0 -1.37152,-0.28234 -1.89588,-0.80673 -0.52439,-0.52447 -0.76643,-1.16984 -0.76643,-1.89588 0,-0.80673 0.24211,-1.45218 0.76643,-1.97657 0.48403,-0.48409 1.12945,-0.72605 1.89588,-0.76643 v 0 z m -7.0188,2.42027 v 0.60507 h -2.21861 v -0.60507 z m 4.1548,2.86406 h -3.06568 v -6.77681 h 0.64541 v 6.13136 h 2.42027 z" />
  </g>
</svg>
