<!-- Material Design Icons: account-circle — Apache License 2.0 (https://github.com/Templarian/MaterialDesign) -->
<svg xmlns="http://www.w3.org/2000/svg" viewBox="0 0 24 24" width="24" height="24">
  <rect width="24" height="24" fill="white"/>
  <path fill="#9e9e9e" fill-rule="evenodd" d="M12,19.22Q10.17,19.22 8.58,18.35Q6.98,17.48 6,15.98Q6,15.09 7.12,14.3Q8.06,13.64 9.56,13.27Q10.92,12.89 12,12.89Q13.08,12.89 14.44,13.27Q15.94,13.64 16.88,14.3Q18,15.09 18,15.98Q17.02,17.48 15.42,18.35Q13.83,19.22 12,19.22ZM12,5.02Q13.27,5.02 14.13,5.88Q15,6.75 15,7.99Q15,9.23 14.13,10.12Q13.27,11.02 12,11.02Q10.73,11.02 9.87,10.12Q9,9.23 9,7.99Q9,6.75 9.87,5.88Q10.73,5.02 12,5.02ZM12,2.02Q10.03,2.02 8.18,2.77Q6.33,3.52 4.92,4.92Q3.52,6.33 2.77,8.18Q2.02,10.03 2.02,12Q2.02,13.97 2.77,15.82Q3.52,17.67 4.92,19.08Q6.33,20.48 8.18,21.23Q10.03,21.98 12,21.98Q13.97,21.98 15.82,21.23Q17.67,20.48 19.08,19.08Q20.48,17.67 21.23,15.82Q21.98,13.97 21.98,12Q21.98,9.28 20.65,6.98Q19.31,4.69 17.02,3.35Q14.72,2.02 12,2.02Z"/>
</svg>
