<?xml version="1.0" encoding="UTF-8" standalone="no"?>
<svg
   xmlns:dc="http://purl.org/dc/elements/1.1/"
   xmlns:cc="http://creativecommons.org/ns#"
   xmlns:rdf="http://www.w3.org/1999/02/22-rdf-syntax-ns#"
   xmlns:svg="http://www.w3.org/2000/svg"
   xmlns="http://www.w3.org/2000/svg"
   xmlns:sodipodi="http://sodipodi.sourceforge.net/DTD/sodipodi-0.dtd"
   xmlns:inkscape="http://www.inkscape.org/namespaces/inkscape"
   id="svg2"
   viewBox="0 0 1080 720.00002"
   version="1.0"
   sodipodi:docname="block_plan.svg"
   inkscape:version="1.0.1 (3bc2e813f5, 2020-09-07)"
   width="1080"
   height="720">
  <sodipodi:namedview
     pagecolor="#ffffff"
     bordercolor="#666666"
     borderopacity="1"
     objecttolerance="10"
     gridtolerance="10"
     guidetolerance="10"
     inkscape:pageopacity="0"
     inkscape:pageshadow="2"
     inkscape:window-width="1920"
     inkscape:window-height="1017"
     id="namedview86"
     showgrid="false"
     inkscape:zoom="0.98148879"
     inkscape:cx="580.33775"
     inkscape:cy="232.55797"
     inkscape:window-x="-8"
     inkscape:window-y="-8"
     inkscape:window-maximized="1"
     inkscape:current-layer="layer1"
     inkscape:document-rotation="0" />
  <defs
     id="defs4">
    <marker
       id="Arrow1Lend"
       refY="0"
       refX="0"
       overflow="visible"
       orient="auto">
      <path
         id="path3783"
         d="M 0,0 5,-5 -12.5,0 5,5 Z"
         fill-rule="evenodd"
         transform="matrix(-0.8,0,0,-0.8,-10,0)"
         stroke="#000000"
         stroke-width="1pt" />
    </marker>
    <marker
       id="Arrow1Lstart"
       refY="0"
       refX="0"
       overflow="visible"
       orient="auto">
      <path
         id="path3780"
         d="M 0,0 5,-5 -12.5,0 5,5 Z"
         fill-rule="evenodd"
         transform="matrix(0.8,0,0,0.8,10,0)"
         stroke="#000000"
         stroke-width="1pt" />
    </marker>
  </defs>
  <metadata
     id="metadata83">
    <rdf:RDF>
      <cc:Work>
        <dc:format>image/svg+xml</dc:format>
        <dc:type
           rdf:resource="http://purl.org/dc/dcmitype/StillImage" />
        <cc:license
           rdf:resource="http://creativecommons.org/publicdomain/zero/1.0/" />
        <dc:publisher>
          <cc:Agent
             rdf:about="http://openclipart.org/">
            <dc:title>Openclipart</dc:title>
          </cc:Agent>
        </dc:publisher>
        <dc:title>X86 Generic Block Diagram</dc:title>
        <dc:date>2009-08-20T05:06:06</dc:date>
        <dc:description>X86 Generic Block Diagram.</dc:description>
        <dc:source>https://openclipart.org/detail/183181/X86-Generic-Block-Diagram-by-nebu</dc:source>
        <dc:creator>
          <cc:Agent>
            <dc:title>nebu</dc:title>
          </cc:Agent>
        </dc:creator>
        <dc:subject>
          <rdf:Bag>
            <rdf:li>X86</rdf:li>
            <rdf:li>architecture</rdf:li>
            <rdf:li>block</rdf:li>
            <rdf:li>block diagram</rdf:li>
            <rdf:li>computer</rdf:li>
            <rdf:li>diagram</rdf:li>
          </rdf:Bag>
        </dc:subject>
      </cc:Work>
      <cc:License
         rdf:about="http://creativecommons.org/publicdomain/zero/1.0/">
        <cc:permits
           rdf:resource="http://creativecommons.org/ns#Reproduction" />
        <cc:permits
           rdf:resource="http://creativecommons.org/ns#Distribution" />
        <cc:permits
           rdf:resource="http://creativecommons.org/ns#DerivativeWorks" />
      </cc:License>
    </rdf:RDF>
  </metadata>
  <g
     inkscape:groupmode="layer"
     id="layer1"
     inkscape:label="map"
     sodipodi:insensitive="true">
    <path
       d="m 154.43386,275.00912 c 126.13683,0 252.68764,0 379.55438,0 127.03714,0 254.39956,0 382.24989,0 14.66046,0 28.7529,4.95086 31.16519,11.01433 15.05727,37.96991 31.25851,78.80309 48.72811,122.83392 18.91707,47.69457 39.45257,99.48564 61.82467,155.89317 3.9219,9.8786 -8.622,17.93302 -27.7724,17.87231 -166.17544,-0.4507 -331.72432,-0.91166 -496.73317,-1.36921 -164.48594,-0.45155 -328.65905,-0.91251 -492.193133,-1.35294 -18.724388,-0.0608 -30.767589,-8.11173 -26.892002,-17.86633 22.119725,-55.7798 42.43996,-107.01924 61.179524,-154.26313 17.311099,-43.64597 33.375371,-84.1516 48.330751,-121.85468 2.38038,-6.00705 16.04948,-10.90744 30.55819,-10.90744"
       style="fill:#464648;fill-opacity:1;fill-rule:evenodd;stroke:none;stroke-width:0.815777"
       id="path64" />
    <path
       d="m 96.375614,446.51342 27.646346,-73.10136 313.55736,-75.29584 h 143.76751 l 364.07212,76.05442 29.00972,73.9463 -187.03768,76.63512 -127.03405,-0.35065 -563.981326,-77.88799"
       style="fill:#d8dbcb;fill-opacity:1;fill-rule:evenodd;stroke:none;stroke-width:0.815777"
       id="path66" />
    <path
       d="m 457.31259,380.33418 c 0.93612,-14.90557 1.91504,-29.45452 2.79669,-43.58611 0.85131,-13.76301 1.77186,-27.89119 2.58348,-40.9931 31.08968,0 62.25252,0 93.41845,0 0.40153,13.11902 0.73537,27.26943 1.16101,41.05381 0.43499,14.12733 0.79995,28.69253 1.26139,43.65283 64.72395,0.0497 129.5296,0.11633 194.49398,0.17704 65.04609,0.0667 130.19336,0.14703 195.56623,0.20694 3.68848,9.52712 7.43922,19.20903 11.24436,29.05429 3.86751,10.0086 7.82828,20.22074 11.85141,30.62701 -38.66664,-0.077 -77.41882,-0.12661 -115.81307,-0.20012 -38.47982,-0.0667 -76.97212,-0.1436 -115.37258,-0.21722 2.53835,13.57314 5.17631,27.39344 7.79091,41.59175 2.67451,14.51473 5.42531,29.42459 8.28269,44.6483 -20.63281,-0.0608 -41.27263,-0.11714 -61.91169,-0.17703 -2.0979,-15.20746 -4.09466,-30.10021 -6.04938,-44.61495 -1.9057,-14.1812 -3.8511,-28.00236 -5.714,-41.53188 -98.00569,-0.18388 -195.66433,-0.36091 -293.14631,-0.53451 -97.1326,-0.16678 -194.18038,-0.34038 -290.790834,-0.50115 3.823854,-10.25577 7.608824,-20.37811 11.286384,-30.24988 3.63866,-9.7546 7.21039,-19.33558 10.71521,-28.75665 55.78369,0.0667 111.7386,0.12661 167.68337,0.17703 56.11208,0.0564 112.30666,0.13348 168.6623,0.1736"
       style="fill:#6e736a;fill-opacity:1;fill-rule:evenodd;stroke:none;stroke-width:0.815777"
       id="path68" />
    <path
       d="m 974.42867,448.11694 c 4.78562,12.2202 9.67247,24.65419 14.66048,37.37553 5.09697,13.00187 10.31838,26.31502 15.64095,39.85481 -72.62537,-0.20098 -145.07951,-0.39084 -217.33911,-0.59522 -2.90875,-13.51243 -5.72101,-26.77171 -8.46556,-39.7274 -2.69633,-12.70081 -5.41053,-25.09803 -8.03059,-37.28144 67.69883,0.13348 135.48404,0.26682 203.53383,0.37372 z M 581.34683,298.11622 c 55.48256,0 111.03281,0 166.66476,0 55.78292,0 111.56118,0.01 167.58067,0.01 4.66893,11.94995 9.47015,24.16329 14.36476,36.64091 5.02689,12.81114 10.17828,25.95068 15.46193,39.40325 -60.37712,-0.0565 -120.41968,-0.10014 -180.46067,-0.16337 -59.96395,-0.0667 -119.76372,-0.11028 -179.55958,-0.17019 -0.67779,-13.3867 -1.45905,-26.47494 -2.13683,-39.23648 -0.66922,-12.428 -1.31353,-24.59089 -1.91504,-36.48439 z m -457.32487,75.29584 c 5.03001,-13.32257 9.95496,-26.33468 14.74218,-39.00216 4.68138,-12.37754 9.25539,-24.45749 13.715,-36.29967 47.23644,0 94.70086,0 142.17463,0 47.54069,0 95.23312,0.007 142.92555,0.007 -1.04896,11.86955 -2.09169,24.02303 -3.22235,36.42709 -1.17035,12.73846 -2.36481,25.77368 -3.54139,39.15268 -51.33965,-0.0598 -102.68007,-0.0933 -153.85243,-0.14279 -51.00581,-0.0573 -102.09722,-0.10685 -152.94119,-0.14116 z M 67.535351,522.76452 c 5.070152,-13.36276 10.030904,-26.50828 14.879206,-39.33653 4.751032,-12.56058 9.401832,-24.84491 13.961057,-36.91457 92.458216,0.18729 185.177116,0.35063 278.166806,0.52766 93.16011,0.16763 186.58401,0.33438 280.27327,0.50116 1.38279,12.14322 2.75079,24.55412 4.15846,37.1985 1.42793,12.95568 2.98424,26.1816 4.52888,39.67093 -100.00555,-0.27367 -199.72162,-0.5516 -299.25017,-0.8287 -99.15425,-0.27367 -198.12563,-0.54135 -296.717509,-0.81845 v 0"
       style="fill:#87b027;fill-opacity:1;fill-rule:evenodd;stroke:none;stroke-width:0.815777"
       id="path70" />
    <path
       d="m 408.12454,298.11622 c -0.912,7.75083 -1.81777,15.5812 -2.78113,23.53214 -2.14304,17.63885 -48.11808,32.47857 -102.22407,32.44521 -57.32835,-0.0333 -114.65669,-0.0907 -171.7508,-0.11371 3.6869,-9.74862 7.29522,-19.3031 10.84515,-28.68996 3.48694,-9.23719 6.90616,-18.26057 10.26545,-27.17964 42.43365,0 85.01359,0 127.59043,0 42.66164,0 85.31707,0 128.05497,0.007"
       style="fill:#fbc589;fill-opacity:1;fill-rule:evenodd;stroke:none;stroke-width:0.815777"
       id="path72" />
    <path
       d="m 152.47914,298.11023 c -2.90875,7.72347 -5.88208,15.56067 -8.86709,23.44834 -3.04881,8.06383 -6.14899,16.29187 -9.28575,24.57721 56.65913,0.0436 113.56182,0.0838 170.45595,0.12319 41.05943,0.0274 76.25001,-11.19737 78.13468,-24.61058 1.11822,-7.96035 2.21854,-15.78131 3.38266,-23.53813 -39.15061,0 -78.14402,0 -117.14289,0 -38.98953,0 -77.9067,0 -116.67756,0"
       style="fill:#8ebae6;fill-opacity:1;fill-rule:evenodd;stroke:none;stroke-width:0.815777"
       id="path74" />
    <path
       d="m 737.49482,303.60501 c -0.0762,-0.36689 -0.14318,-0.70129 -0.21323,-1.04508 12.95865,0 25.90718,0 38.78643,0.01 0.0849,0.33353 0.16108,0.67476 0.25212,1.03482 -12.88782,0 -25.8519,0 -38.82532,0"
       style="fill:#d8dbcb;fill-opacity:1;fill-rule:evenodd;stroke:none;stroke-width:0.815777"
       id="path78" />
    <path
       d="m 646.19216,303.5956 c -0.0459,-0.35748 -0.0856,-0.70214 -0.12222,-1.01943 12.64504,0 25.4426,0 38.16312,0 0.0521,0.31729 0.1128,0.66195 0.1673,1.01943 -12.73607,0 -25.54843,0 -38.20826,0"
       style="fill:#d8dbcb;fill-opacity:1;fill-rule:evenodd;stroke:none;stroke-width:0.815777"
       id="path80" />
    <path
       d="m 627.95373,73.739015 h 251.36865 l 16.6681,50.711785 H 631.20643 l -3.2527,-50.711785"
       style="fill:#f4c34d;fill-opacity:1;fill-rule:evenodd;stroke:none;stroke-width:0.815777"
       id="path94" />
    <path
       d="M 631.20643,361.15253 H 895.99048 V 124.4508 H 631.20643 v 236.70173"
       style="fill:#efb430;fill-opacity:1;fill-rule:evenodd;stroke:none;stroke-width:0.815777"
       id="path96" />
    <path
       d="M 627.95373,310.45358 V 73.739015 l 3.2527,50.711785 v 236.70173 l -3.2527,-50.69895"
       style="fill:#be8b1b;fill-opacity:1;fill-rule:evenodd;stroke:none;stroke-width:0.815777"
       id="path98" />
    <path
       d="m 783.57646,140.70334 c -11.5206,0 -23.04122,0 -34.55248,0 0,18.39057 0,36.78116 0,55.16488 11.51126,0 23.03188,0 34.55248,0 0,-18.38372 0,-36.77431 0,-55.16488 z m -49.58336,0 c -11.5206,0 -23.03498,0 -34.55481,0 0,18.39057 0,36.78116 0,55.16488 11.51983,0 23.03421,0 34.55481,0 0,-18.38372 0,-36.77431 0,-55.16488 z m -49.58646,0 h -34.54548 v 55.16488 h 34.54548 z m 198.33185,0 h -34.55015 v 55.16488 h 34.55015 z m -49.58413,0 c -11.51672,0 -23.03342,0 -34.55014,0 0,18.39057 0,36.78116 0,55.16488 11.51672,0 23.03342,0 34.55014,0 0,-18.38372 0,-36.77431 0,-55.16488 v 0"
       style="fill:#c28d1b;fill-opacity:1;fill-rule:evenodd;stroke:none;stroke-width:0.815777"
       id="path100" />
    <path
       d="m 783.57646,212.0036 c -11.5206,0 -23.04122,0 -34.55248,0 0,18.38031 0,36.7709 0,55.16147 11.51126,0 23.03188,0 34.55248,0 0,-18.39057 0,-36.78116 0,-55.16147 z m -49.58336,0 c -11.5206,0 -23.03498,0 -34.55481,0 0,18.38031 0,36.7709 0,55.16147 11.51983,0 23.03421,0 34.55481,0 0,-18.39057 0,-36.78116 0,-55.16147 z m -49.58646,0 c -11.5206,0 -23.03188,0 -34.54548,0 0,18.38031 0,36.7709 0,55.16147 11.5136,0 23.02488,0 34.54548,0 0,-18.39057 0,-36.78116 0,-55.16147 z m 198.33185,0 c -11.51671,0 -23.03343,0 -34.55015,0 0,18.38031 0,36.7709 0,55.16147 11.51672,0 23.03344,0 34.55015,0 0,-18.39057 0,-36.78116 0,-55.16147 z m -49.58413,0 c -11.51672,0 -23.03342,0 -34.55014,0 0,18.38031 0,36.7709 0,55.16147 11.51672,0 23.03342,0 34.55014,0 0,-18.39057 0,-36.78116 0,-55.16147 v 0"
       style="fill:#c28d1b;fill-opacity:1;fill-rule:evenodd;stroke:none;stroke-width:0.815777"
       id="path102" />
    <path
       d="m 783.57646,283.29361 c -11.5206,0 -23.04122,0 -34.55248,0 0,18.39057 0,36.77431 0,55.1589 11.51126,0 23.03188,0 34.55248,0 0,-18.38459 0,-36.76833 0,-55.1589 z m -49.58336,0 c -11.5206,0 -23.03498,0 -34.55481,0 0,18.39057 0,36.77431 0,55.1589 11.51983,0 23.03421,0 34.55481,0 0,-18.38459 0,-36.76833 0,-55.1589 z m -49.58646,0 h -34.54548 v 55.1589 h 34.54548 z m 198.33185,0 h -34.55015 v 55.1589 h 34.55015 z m -49.58413,0 c -11.51672,0 -23.03342,0 -34.55014,0 0,18.39057 0,36.77431 0,55.1589 11.51672,0 23.03342,0 34.55014,0 0,-18.38459 0,-36.76833 0,-55.1589 v 0"
       style="fill:#c28d1b;fill-opacity:1;fill-rule:evenodd;stroke:none;stroke-width:0.815777"
       id="path104" />
    <path
       d="m 144.61509,416.23361 20.43284,-46.7795 333.24861,0.61748 -0.15175,47.13697 -172.92737,31.10252 -180.60233,-32.07747"
       style="fill:#c8e898;fill-opacity:1;fill-rule:evenodd;stroke:none;stroke-width:0.815777"
       id="path106" />
    <path
       d="m 144.61509,503.65556 v -87.42195 l 353.5297,0.97495 v 87.42624 l -353.5297,-0.97924"
       style="fill:#a6db68;fill-opacity:1;fill-rule:evenodd;stroke:none;stroke-width:0.815777"
       id="path108" />
    <path
       d="m 291.16452,431.23325 c -11.07083,0 -22.15023,0 -33.2304,0 0,18.39059 0,36.78116 0,55.16148 11.08017,0 22.15957,0 33.2304,0 0,-18.38032 0,-36.77089 0,-55.16148 z m -47.68388,0 c -11.07938,0 -22.15332,0 -33.23272,0 0,18.39059 0,36.78116 0,55.16148 11.0794,0 22.15334,0 33.23272,0 0,-18.38032 0,-36.77089 0,-55.16148 z m -47.6862,0 h -33.22961 v 55.16148 h 33.22961 z m 190.74871,0 h -33.23273 v 55.16148 h 33.23273 z m 97.74656,0 c -11.07938,0 -22.15023,0 -33.22962,0 0,18.39059 0,36.78116 0,55.16148 11.07939,0 22.15024,0 33.22962,0 0,-18.38032 0,-36.77089 0,-55.16148 z m -47.68309,0 h -33.23273 v 55.16148 h 33.23273 z m -97.74967,0 c -11.08017,0 -22.15957,0 -33.2304,0 0,18.39059 0,36.78116 0,55.16148 11.07083,0 22.15023,0 33.2304,0 0,-18.38032 0,-36.77089 0,-55.16148 v 0"
       style="fill:#6fbb39;fill-opacity:1;fill-rule:evenodd;stroke:none;stroke-width:0.815777"
       id="path110" />
  </g>
  <g
     inkscape:groupmode="layer"
     id="layer2"
     inkscape:label="infos">
    <text
       xml:space="preserve"
       style="font-style:normal;font-variant:normal;font-weight:normal;font-stretch:normal;font-size:40px;line-height:1.25;font-family:OpenDyslexic;-inkscape-font-specification:OpenDyslexic;letter-spacing:0px;word-spacing:0px;fill:#000000;fill-opacity:1;stroke:none"
       x="682.25952"
       y="49.710571"
       id="text1110"><tspan
         sodipodi:role="line"
         id="tspan1108"
         x="682.25952"
         y="49.710571">Bat 01</tspan></text>
    <text
       xml:space="preserve"
       style="font-style:normal;font-variant:normal;font-weight:normal;font-stretch:normal;font-size:40px;line-height:1.25;font-family:OpenDyslexic;-inkscape-font-specification:OpenDyslexic;letter-spacing:0px;word-spacing:0px;fill:#000000;fill-opacity:1;stroke:none"
       x="244.85004"
       y="405.04068"
       id="text1110-2"><tspan
         sodipodi:role="line"
         id="tspan1108-6"
         x="244.85004"
         y="405.04068">Bat 02</tspan></text>
  </g>
</svg>
