<svg height="32" viewBox="0 0 32 32" width="32" xmlns="http://www.w3.org/2000/svg"><path d="m24 24v2h2.4592a5.94 5.94 0 0 1 -4.4592 2 6.0066 6.0066 0 0 1 -6-6h-2a7.9841 7.9841 0 0 0 14 5.2651v2.7349h2v-6z"/><path d="m22 14a8.04 8.04 0 0 0 -6 2.7349v-2.7349h-2v6h6v-2h-2.4592a5.94 5.94 0 0 1 4.4592-2 6.0066 6.0066 0 0 1 6 6h2a8.0092 8.0092 0 0 0 -8-8z"/><path d="m12 28h-6v-4h2v-2h-2v-5h2v-2h-2v-5h2v-2h-2v-4h18v8h2v-8a2 2 0 0 0 -2-2h-18a2 2 0 0 0 -2 2v4h-2v2h2v5h-2v2h2v5h-2v2h2v4a2 2 0 0 0 2 2h6z"/><path d="m0 0h32v32h-32z" fill="none"/></svg>