<?xml version="1.0" encoding="UTF-8" standalone="no"?>
<svg
   xmlns:dc="http://purl.org/dc/elements/1.1/"
   xmlns:cc="http://creativecommons.org/ns#"
   xmlns:rdf="http://www.w3.org/1999/02/22-rdf-syntax-ns#"
   xmlns:svg="http://www.w3.org/2000/svg"
   xmlns="http://www.w3.org/2000/svg"
   xmlns:sodipodi="http://sodipodi.sourceforge.net/DTD/sodipodi-0.dtd"
   xmlns:inkscape="http://www.inkscape.org/namespaces/inkscape"
   id="svg2"
   viewBox="0 0 646.45 424.61"
   version="1.0"
   sodipodi:docname="other_diagram.svg"
   inkscape:version="1.0.1 (3bc2e813f5, 2020-09-07)">
  <sodipodi:namedview
     pagecolor="#ffffff"
     bordercolor="#666666"
     borderopacity="1"
     objecttolerance="10"
     gridtolerance="10"
     guidetolerance="10"
     inkscape:pageopacity="0"
     inkscape:pageshadow="2"
     inkscape:window-width="1920"
     inkscape:window-height="1017"
     id="namedview86"
     showgrid="false"
     inkscape:zoom="1.3880348"
     inkscape:cx="405.53724"
     inkscape:cy="199.14569"
     inkscape:window-x="-8"
     inkscape:window-y="-8"
     inkscape:window-maximized="1"
     inkscape:current-layer="svg2"
     inkscape:document-rotation="0" />
  <defs
     id="defs4">
    <marker
       id="Arrow1Lend"
       refY="0"
       refX="0"
       overflow="visible"
       orient="auto">
      <path
         id="path3783"
         d="m0 0l5-5-17.5 5 17.5 5-5-5z"
         fill-rule="evenodd"
         transform="matrix(-.8 0 0 -.8 -10 0)"
         stroke="#000"
         stroke-width="1pt" />
    </marker>
    <marker
       id="Arrow1Lstart"
       refY="0"
       refX="0"
       overflow="visible"
       orient="auto">
      <path
         id="path3780"
         d="m0 0l5-5-17.5 5 17.5 5-5-5z"
         fill-rule="evenodd"
         transform="matrix(.8 0 0 .8 10 0)"
         stroke="#000"
         stroke-width="1pt" />
    </marker>
  </defs>
  <metadata
     id="metadata83">
    <rdf:RDF>
      <cc:Work>
        <dc:format>image/svg+xml</dc:format>
        <dc:type
           rdf:resource="http://purl.org/dc/dcmitype/StillImage" />
        <cc:license
           rdf:resource="http://creativecommons.org/licenses/publicdomain/" />
        <dc:publisher>
          <cc:Agent
             rdf:about="http://openclipart.org/">
            <dc:title>Openclipart</dc:title>
          </cc:Agent>
        </dc:publisher>
        <dc:title>X86 Generic Block Diagram</dc:title>
        <dc:date>2009-08-20T05:06:06</dc:date>
        <dc:description>X86 Generic Block Diagram.</dc:description>
        <dc:source>https://openclipart.org/detail/183181/X86-Generic-Block-Diagram-by-nebu</dc:source>
        <dc:creator>
          <cc:Agent>
            <dc:title>nebu</dc:title>
          </cc:Agent>
        </dc:creator>
        <dc:subject>
          <rdf:Bag>
            <rdf:li>X86</rdf:li>
            <rdf:li>architecture</rdf:li>
            <rdf:li>block</rdf:li>
            <rdf:li>block diagram</rdf:li>
            <rdf:li>computer</rdf:li>
            <rdf:li>diagram</rdf:li>
          </rdf:Bag>
        </dc:subject>
      </cc:Work>
      <cc:License
         rdf:about="http://creativecommons.org/licenses/publicdomain/">
        <cc:permits
           rdf:resource="http://creativecommons.org/ns#Reproduction" />
        <cc:permits
           rdf:resource="http://creativecommons.org/ns#Distribution" />
        <cc:permits
           rdf:resource="http://creativecommons.org/ns#DerivativeWorks" />
      </cc:License>
    </rdf:RDF>
  </metadata>
  <g
     id="g893"
     transform="matrix(6.6960029,0,0,7.2138213,223.18709,89.905139)">
    <path
       d="m 24,24 v 2 h 2.4592 A 5.94,5.94 0 0 1 22,28 6.0066,6.0066 0 0 1 16,22 h -2 a 7.9841,7.9841 0 0 0 14,5.2651 V 30 h 2 v -6 z"
       id="path873" />
    <path
       d="m 22,14 a 8.04,8.04 0 0 0 -6,2.7349 V 14 h -2 v 6 h 6 V 18 H 17.5408 A 5.94,5.94 0 0 1 22,16 a 6.0066,6.0066 0 0 1 6,6 h 2 a 8.0092,8.0092 0 0 0 -8,-8 z"
       id="path875" />
    <path
       d="M 12,28 H 6 V 24 H 8 V 22 H 6 V 17 H 8 V 15 H 6 V 10 H 8 V 8 H 6 V 4 h 18 v 8 h 2 V 4 A 2,2 0 0 0 24,2 H 6 A 2,2 0 0 0 4,4 V 8 H 2 v 2 h 2 v 5 H 2 v 2 h 2 v 5 H 2 v 2 h 2 v 4 a 2,2 0 0 0 2,2 h 6 z"
       id="path877" />
    <path
       d="M 0,0 H 32 V 32 H 0 Z"
       fill="none"
       id="path879" />
  </g>
</svg>
