<?xml version="1.0" encoding="UTF-8" standalone="no"?>
<svg
   xmlns:dc="http://purl.org/dc/elements/1.1/"
   xmlns:cc="http://creativecommons.org/ns#"
   xmlns:rdf="http://www.w3.org/1999/02/22-rdf-syntax-ns#"
   xmlns:svg="http://www.w3.org/2000/svg"
   xmlns="http://www.w3.org/2000/svg"
   xmlns:sodipodi="http://sodipodi.sourceforge.net/DTD/sodipodi-0.dtd"
   xmlns:inkscape="http://www.inkscape.org/namespaces/inkscape"
   viewBox="0 0 64 64"
   version="1.1"
   id="svg32"
   sodipodi:docname="pointing-left.svg"
   inkscape:version="1.0.1 (3bc2e813f5, 2020-09-07)"
   inkscape:export-filename="D:\wamp64\www\chamilo-1.11.16\plugin\adv_oel_tools_teachdoc\editor\img\pointing-left.png"
   inkscape:export-xdpi="225"
   inkscape:export-ydpi="225">
  <metadata
     id="metadata38">
    <rdf:RDF>
      <cc:Work
         rdf:about="">
        <dc:format>image/svg+xml</dc:format>
        <dc:type
           rdf:resource="http://purl.org/dc/dcmitype/StillImage" />
        <dc:title />
      </cc:Work>
    </rdf:RDF>
  </metadata>
  <defs
     id="defs36" />
  <sodipodi:namedview
     pagecolor="#ffffff"
     bordercolor="#666666"
     borderopacity="1"
     objecttolerance="10"
     gridtolerance="10"
     guidetolerance="10"
     inkscape:pageopacity="0"
     inkscape:pageshadow="2"
     inkscape:window-width="1920"
     inkscape:window-height="1017"
     id="namedview34"
     showgrid="false"
     inkscape:zoom="3.2558588"
     inkscape:cx="48.164245"
     inkscape:cy="72.113275"
     inkscape:window-x="-8"
     inkscape:window-y="-8"
     inkscape:window-maximized="1"
     inkscape:current-layer="svg32"
     inkscape:document-rotation="0" />
  <g
     transform="rotate(-90,51.525067,23.88259)"
     id="g30">
    <g
       fill="#ffdd67"
       id="g6">
      <path
         d="m 44.8,34.5 c 0,0 -31.9,-2.5 -31.4,2.1 0,0 -1.6,11.2 2.3,18 5.9,10.1 28.6,11.7 34.3,-7 1.2,-3.7 0.3,-13.7 -5.2,-13.1"
         id="path2" />
      <path
         d="m 38.7,39.1 c 0,2.3 1.9,4.2 4.2,4.2 2.3,0 4.2,-1.9 4.2,-4.2 V 6.2 C 47.1,3.9 45.2,2 42.9,2 40.6,2 38.7,3.9 38.7,6.2 Z"
         id="path4" />
    </g>
    <path
       d="m 41,42.3 c 2.4,0 4.3,-1.9 4.3,-4.2 V 5.2 c 0,-1.2 -0.6,-2.4 -1.4,-3.1 1.9,0.4 3.4,2.1 3.4,4.1 v 32.9 c 0,2.3 -1.9,4.2 -4.2,4.2 -1.1,0 -2,-0.4 -2.8,-1 z"
       fill="#eba352"
       id="path8" />
    <g
       fill="#ffdd67"
       id="g14">
      <path
         d="m 13.4,30 c 0,-2.4 1.9,-4.3 4.2,-4.3 h 0.1 c 2.3,0 4.2,1.9 4.2,4.3 v 6.6 c 0,2.4 -1.9,4.3 -4.2,4.3 h -0.1 c -2.3,0 -4.2,-1.9 -4.2,-4.3 z"
         id="path10" />
      <path
         d="m 21.9,26.2 c 0,-2.4 1.9,-4.3 4.2,-4.3 h 0.1 c 2.3,0 4.2,1.9 4.2,4.3 v 6.6 c 0,2.4 -1.9,4.3 -4.2,4.3 h -0.1 c -2.3,0 -4.2,-1.9 -4.2,-4.3 z m 8.5,-0.5 c 0,-2.4 1.9,-4.3 4.2,-4.3 h 0.1 c 2.3,0 4.2,1.9 4.2,4.3 v 6.6 c 0,2.4 -1.9,4.3 -4.2,4.3 h -0.1 c -2.3,0 -4.2,-1.9 -4.2,-4.3 z"
         id="path12" />
    </g>
    <g
       fill="#eba352"
       id="g20">
      <path
         d="m 16.5,39.3 c 2.4,0 4.2,-1.9 4.2,-4.2 v -6.6 c 0,-0.6 -0.1,-1.2 -0.4,-1.8 1,0.8 1.7,2 1.7,3.4 v 6.6 c 0,2.4 -1.8,4.2 -4.2,4.2 h -0.1 c -1.7,0 -3.2,-1 -3.8,-2.5 0.7,0.6 1.6,0.9 2.6,0.9 m 8.4,-3.8 c 2.4,0 4.2,-1.9 4.2,-4.2 v -6.6 c 0,-0.6 -0.1,-1.2 -0.4,-1.8 1,0.8 1.7,2 1.7,3.4 v 6.6 c 0,2.4 -1.9,4.2 -4.2,4.2 h -0.1 c -1.7,0 -3.2,-1 -3.8,-2.5 0.7,0.6 1.6,0.9 2.6,0.9 M 33.3,35 c 2.4,0 4.2,-1.9 4.2,-4.2 v -6.6 c 0,-0.6 -0.1,-1.2 -0.4,-1.8 1,0.8 1.7,2 1.7,3.4 v 6.6 c 0,2.4 -1.9,4.2 -4.2,4.2 h -0.1 c -1.7,0 -3.2,-1 -3.8,-2.5 0.8,0.6 1.7,0.9 2.6,0.9 M 41,40.8 C 36.2,38.5 25.3,42.5 27.5,52.5 27.5,42.1 36.9,40.3 41,40.8"
         id="path16" />
      <path
         d="m 39.2,30.5 c -3.5,-2.1 -4.1,1.2 -10,1.4 -2.6,0.1 -3.7,5.4 0.2,7.3 5.4,2.7 5.8,-1.1 7.2,0.4 1.4,1.6 2.7,1.9 3.9,3.7 0.9,1.3 7.6,-0.7 8.3,-3.4 1.3,-5.3 -4.1,-6.1 -9.6,-9.4"
         id="path18" />
    </g>
    <path
       d="m 39.6,31.4 c -3.6,-2.1 -4.3,1.2 -10.4,1.4 -2.7,0.1 -3.9,5.6 0.2,7.6 5.6,2.8 6.1,-1.2 7.4,0.4 1.5,1.6 2.8,2 4.1,3.9 0.9,1.4 -1.5,6.6 -1.5,6.6 0,0 6.9,4.9 8.3,2.1 2.6,-5.2 1.9,-9.2 1.8,-12.2 -0.2,-7.1 -4.2,-6.4 -9.9,-9.8"
       fill="#ffdd67"
       id="path22" />
    <g
       fill="#eba352"
       id="g28">
      <path
         d="m 46.6,34.9 c 3.8,1.8 3.6,11.7 0.8,16.5 -7.1,11.9 -22.7,11.7 -30,5.3 6.8,7.3 23.4,8 31.1,-4.3 3,-4.9 4,-16.3 -1.9,-17.5"
         id="path24" />
      <path
         d="m 40.1,44.8 c 0.3,0.4 0.2,1.2 0.1,2.1 0.4,-1.4 0.7,-2.8 0.3,-3.4 -1.2,-1.9 -1.9,-2.3 -3.4,-3.9 -1.4,-1.5 -1.8,2.4 -7.4,-0.4 -2.1,-1 -2.8,-3 -2.6,-4.7 -0.8,1.8 -0.4,4.6 2.3,6 5.6,2.8 6.1,-1.2 7.4,0.4 1.4,1.6 2.1,2 3.3,3.9"
         id="path26" />
    </g>
  </g>
</svg>
