<?xml version="1.0" encoding="UTF-8" standalone="no"?>
<svg
   xmlns:dc="http://purl.org/dc/elements/1.1/"
   xmlns:cc="http://creativecommons.org/ns#"
   xmlns:rdf="http://www.w3.org/1999/02/22-rdf-syntax-ns#"
   xmlns:svg="http://www.w3.org/2000/svg"
   xmlns="http://www.w3.org/2000/svg"
   xmlns:sodipodi="http://sodipodi.sourceforge.net/DTD/sodipodi-0.dtd"
   xmlns:inkscape="http://www.inkscape.org/namespaces/inkscape"
   version="1"
   viewBox="0 0 48 48"
   enable-background="new 0 0 48 48"
   id="svg14"
   sodipodi:docname="refresh.svg"
   inkscape:export-filename="D:\wamp64\www\chamilo-1.11.14\plugin\adv_oel_tools_teachdoc\editor\img\refresh.png"
   inkscape:export-xdpi="64"
   inkscape:export-ydpi="64"
   inkscape:version="1.0.1 (3bc2e813f5, 2020-09-07)">
  <metadata
     id="metadata20">
    <rdf:RDF>
      <cc:Work
         rdf:about="">
        <dc:format>image/svg+xml</dc:format>
        <dc:type
           rdf:resource="http://purl.org/dc/dcmitype/StillImage" />
      </cc:Work>
    </rdf:RDF>
  </metadata>
  <defs
     id="defs18" />
  <sodipodi:namedview
     pagecolor="#ffffff"
     bordercolor="#666666"
     borderopacity="1"
     objecttolerance="10"
     gridtolerance="10"
     guidetolerance="10"
     inkscape:pageopacity="0"
     inkscape:pageshadow="2"
     inkscape:window-width="1920"
     inkscape:window-height="1017"
     id="namedview16"
     showgrid="false"
     inkscape:zoom="16.306291"
     inkscape:cx="24"
     inkscape:cy="24"
     inkscape:window-x="-8"
     inkscape:window-y="-8"
     inkscape:window-maximized="1"
     inkscape:current-layer="svg14" />
  <g
     fill="#1565C0"
     id="g6">
    <path
       d="M13,13c0-3.3,2.7-6,6-6h10c3.3,0,6,2.7,6,6h4c0-5.5-4.5-10-10-10H19C13.5,3,9,7.5,9,13v11.2h4V13z"
       id="path2" />
    <polygon
       points="4.6,22 11,30.4 17.4,22"
       id="polygon4" />
  </g>
  <g
     fill="#1565C0"
     id="g12">
    <path
       d="M35,35c0,3.3-2.7,6-6,6H19c-3.3,0-6-2.7-6-6H9c0,5.5,4.5,10,10,10h10c5.5,0,10-4.5,10-10V23h-4V35z"
       id="path8" />
    <polygon
       points="30.6,26 37,17.6 43.4,26"
       id="polygon10" />
  </g>
</svg>
