<?xml version="1.0" encoding="UTF-8" standalone="no"?>
<!-- Created with Inkscape (http://www.inkscape.org/) -->

<svg
   xmlns:dc="http://purl.org/dc/elements/1.1/"
   xmlns:cc="http://creativecommons.org/ns#"
   xmlns:rdf="http://www.w3.org/1999/02/22-rdf-syntax-ns#"
   xmlns:svg="http://www.w3.org/2000/svg"
   xmlns="http://www.w3.org/2000/svg"
   xmlns:sodipodi="http://sodipodi.sourceforge.net/DTD/sodipodi-0.dtd"
   xmlns:inkscape="http://www.inkscape.org/namespaces/inkscape"
   width="245"
   height="68"
   id="svg3184"
   version="1.1"
   inkscape:version="0.92.3 (2405546, 2018-03-11)"
   sodipodi:docname="header-logo.svg">
  <defs
     id="defs3186" />
  <sodipodi:namedview
     id="base"
     pagecolor="#ffffff"
     bordercolor="#666666"
     borderopacity="1.0"
     inkscape:pageopacity="0.0"
     inkscape:pageshadow="2"
     inkscape:zoom="1.4984587"
     inkscape:cx="313.21943"
     inkscape:cy="128.1305"
     inkscape:document-units="px"
     inkscape:current-layer="layer1"
     showgrid="false"
     showguides="false"
     inkscape:window-width="1865"
     inkscape:window-height="1025"
     inkscape:window-x="55"
     inkscape:window-y="27"
     inkscape:window-maximized="1">
    <sodipodi:guide
       position="0,0"
       orientation="0,744.09448"
       id="guide3601"
       inkscape:locked="false" />
    <sodipodi:guide
       position="744.09448,0"
       orientation="-1052.3622,0"
       id="guide3603"
       inkscape:locked="false" />
    <sodipodi:guide
       position="744.09448,1052.3622"
       orientation="0,-744.09448"
       id="guide3605"
       inkscape:locked="false" />
    <sodipodi:guide
       position="0,1052.3622"
       orientation="1052.3622,0"
       id="guide3607"
       inkscape:locked="false" />
  </sodipodi:namedview>
  <metadata
     id="metadata3189">
    <rdf:RDF>
      <cc:Work
         rdf:about="">
        <dc:format>image/svg+xml</dc:format>
        <dc:type
           rdf:resource="http://purl.org/dc/dcmitype/StillImage" />
        <dc:title></dc:title>
      </cc:Work>
    </rdf:RDF>
  </metadata>
  <g
     inkscape:label="Calque 1"
     inkscape:groupmode="layer"
     id="layer1"
     transform="translate(0,-984.36218)">
    <g
       style="fill:#2e75a3;fill-opacity:1"
       transform="matrix(0.52139194,0.00265173,-0.00265068,0.52118718,-40.12257,838.06435)"
       id="g4003">
      <path
         inkscape:connector-curvature="0"
         id="path3202"
         d="m 179.52788,353.11695 c 0,0 0.79908,-0.39954 1.0388,-1.75797 0,-0.0799 0,-0.15982 0,-0.23972 l 0,-0.23973 c -0.0799,-1.27852 -1.35843,-2.79677 -2.79677,-4.31502 -1.67807,-1.67806 -3.11641,-2.47714 -3.11641,-2.47714 0,0 -0.71917,-3.35613 -3.75567,-7.99078 -2.95659,-4.63466 -8.07069,-9.50903 -10.86746,-8.07069 -2.79677,1.43834 -0.31963,5.43373 -0.15982,6.63235 0.23973,1.27852 1.43834,3.35612 1.03881,3.35612 -0.47945,-0.0799 -6.55245,-11.50672 -21.73493,-8.31041 -3.91549,0.87899 -7.27161,2.55705 -9.98848,4.71456 l 0,26.68921 c 0.95889,-0.95889 1.35843,-1.43834 1.35843,-1.43834 0,0 1.03881,4.79447 2.95659,6.95198 1.91779,2.15751 4.23512,3.43604 4.95429,1.83788 0.71917,-1.51825 -1.51825,-8.07069 -1.51825,-8.07069 0,0 4.15521,3.99539 5.35382,4.95429 1.19862,0.95889 3.51595,2.15751 4.15521,0 0.55935,-2.15751 -1.11871,-5.43373 -2.47714,-5.99309 -1.27853,-0.55935 -2.07761,-0.55935 -2.07761,-0.55935 0,0 -0.79907,-1.0388 -1.19861,-1.35844 -0.47945,-0.31963 -0.55936,-0.31963 -0.55936,-0.31963 0,0 0.71917,-0.39954 2.95659,-0.31963 2.31733,0.0799 4.15521,0.15982 4.15521,0.15982 0,0 2.0776,3.03649 3.35613,3.99539 1.19861,1.0388 4.31502,3.51594 5.43373,4.55474 1.0388,1.03881 1.67806,1.51825 2.0776,0.63927 0.31963,-0.87899 -0.23972,-3.19632 -1.67806,-4.87438 -1.51825,-1.59816 -3.11641,-2.47714 -3.67576,-3.27622 -0.47945,-0.95889 -0.79908,-1.67807 -0.79908,-1.67807 0,0 2.95659,2.15752 3.67576,2.87669 0.79908,0.63926 6.07299,3.91548 6.95198,4.47483 0.87899,0.63927 1.27852,0.23973 1.27852,0.23973 0,0 0.63927,0.47944 0.87899,0.15981 0.23972,-0.31963 0.87899,-2.47714 -0.79908,-3.75566 -1.75797,-1.35844 -2.79677,-1.9977 -2.63696,-2.15752 0.0799,-0.15981 1.83788,0.39954 2.07761,-0.0799 0.15981,-0.39954 -0.0799,-1.0388 -0.31963,-1.19862 -0.15982,-0.23972 0.47944,-0.71917 0.47944,-0.71917 0,0 0.63927,0 3.27622,0.23972 2.63696,0.23973 9.26931,-1.99769 10.62774,-2.47714 1.35844,-0.47945 2.07761,-0.79908 2.07761,-0.79908 l 0,0 z m -50.34193,34.36036 c 5.51364,-3.59585 5.75336,-12.70534 2.71687,-14.46331 -0.87899,-0.55936 -1.75798,-0.95889 -2.71687,-1.19862 l 0,4.15521 c 0.23972,0.15981 0.47945,0.39954 0.63926,0.79908 0.47945,0.95889 0.23973,2.15751 0.23973,2.15751 0,0 -0.0799,-1.51825 -0.63927,-2.31733 -0.0799,-0.0799 -0.15981,-0.15981 -0.23972,-0.23972 l 0,11.10718 z m 0,-53.05879 c -1.19862,0.87899 -2.23742,1.91779 -3.19631,2.95659 l 0,26.44949 c 0.79908,-0.47945 1.51825,-0.95889 2.15751,-1.59816 0.39954,-0.39954 0.71917,-0.79907 1.0388,-1.11871 l 0,-26.68921 0,0 z m -3.19631,54.41723 c 1.19862,-0.23973 2.31732,-0.71917 3.19631,-1.35844 l 0,-11.10718 c -0.47945,-0.63927 -0.87899,-1.0388 -0.87899,-1.0388 0,0 0.39954,0.15981 0.87899,0.63926 l 0,-4.15521 c -1.0388,-0.31963 -2.15751,-0.47945 -3.19631,-0.23972 l 0,6.95198 0,0 c 0.23972,-0.15982 0.63926,-0.23972 0.47944,0.31963 -0.0799,0.31963 -0.31963,0.31963 -0.47944,0.31963 l 0,0 0,4.0753 c 0.15981,0 0.39954,0 0.55935,-0.0799 0,0 -0.15981,0.15982 -0.55935,0.31963 l 0,5.35383 z m 0,-51.46064 c -5.59355,5.91318 -8.07069,13.02498 -8.63005,14.62313 -0.87898,2.47714 -6.55244,11.42682 -7.03188,16.70074 -0.39954,5.35382 -0.47945,18.3788 11.66654,20.13677 1.43834,0.23972 2.79677,0.23972 3.99539,0 l 0,-5.35383 c -1.11871,0.31963 -3.59585,0.63927 -6.39263,-2.55705 -3.75567,-4.31502 -1.91779,-11.34691 1.0388,-13.74414 1.91779,-1.59816 3.75567,-2.47714 5.35383,-3.35613 l 0,-26.44949 0,0 z m 0,34.20055 0,6.95198 c -0.23973,0.15981 -0.39954,0.15981 -0.55936,-0.0799 -0.15981,0.47945 0.15982,0.71917 0.55936,0.71917 l 0,4.0753 c -2.55705,0.23972 -6.073,-1.9977 -5.19401,-5.51364 1.0388,-3.99539 2.95659,-5.75336 5.19401,-6.1529 z"
         style="fill:#2e75a3;fill-opacity:1;stroke:none" />
      <g
         id="g3217"
         transform="matrix(0.3825107,0,0,0.3825107,20.089286,125.61275)"
         inkscape:transform-center-y="-44.562164"
         style="fill:#2e75a3;fill-opacity:1">
        <path
           style="fill:#eddf0e;fill-opacity:1;stroke:none"
           d="m 317.497,435.66599 13.283,-0.49733 c 7.12992,-0.26696 16.9201,4.73977 16.36027,13.87359 l -3.48135,56.79988 c -0.43649,7.12156 -3.50599,10.88958 -9.1489,10.88958 l -17.51036,0 c -7.13493,0 -10.13574,-4.51857 -10.6409,-11.63558 l -3.97869,-56.05388 c -0.50516,-7.11701 4.99786,-12.99738 15.11693,-13.37626 z"
           id="rect3215"
           inkscape:connector-curvature="0"
           sodipodi:nodetypes="sssssssss" />
      </g>
      <g
         inkscape:transform-center-y="-36.33424"
         transform="matrix(0.31077472,-0.25449536,0.25449536,0.31077472,-108.32473,252.83556)"
         id="g3221"
         inkscape:transform-center-x="29.82031"
         style="fill:#fd6600;fill-opacity:1">
        <path
           sodipodi:nodetypes="sssssssss"
           inkscape:connector-curvature="0"
           id="path3223"
           d="m 317.497,435.66599 13.283,-0.49733 c 7.12992,-0.26696 16.9201,4.73977 16.36027,13.87359 l -3.48135,56.79988 c -0.43649,7.12156 -3.50599,10.88958 -9.1489,10.88958 l -17.51036,0 c -7.13493,0 -10.13574,-4.51857 -10.6409,-11.63558 l -3.97869,-56.05388 c -0.50516,-7.11701 4.99786,-12.99738 15.11693,-13.37626 z"
           style="fill:#fd6600;fill-opacity:1;stroke:none" />
      </g>
      <g
         inkscape:transform-center-x="43.056986"
         id="g3225"
         transform="matrix(0.07828233,-0.37104593,0.37104593,0.07828233,-104.36,429.7208)"
         inkscape:transform-center-y="-9.8080536"
         style="fill:#a4dc2d;fill-opacity:1">
        <path
           style="fill:#a4dc2d;fill-opacity:1;stroke:none"
           d="m 317.497,435.66599 13.283,-0.49733 c 7.12992,-0.26696 16.9201,4.73977 16.36027,13.87359 l -3.48135,56.79988 c -0.43649,7.12156 -3.50599,10.88958 -9.1489,10.88958 l -17.51036,0 c -7.13493,0 -10.13574,-4.51857 -10.6409,-11.63558 l -3.97869,-56.05388 c -0.50516,-7.11701 4.99786,-12.99738 15.11693,-13.37626 z"
           id="path3227"
           inkscape:connector-curvature="0"
           sodipodi:nodetypes="sssssssss" />
      </g>
      <g
         inkscape:transform-center-y="16.468461"
         transform="matrix(-0.13902763,-0.26521617,0.26521617,-0.13902763,13.934291,526.86862)"
         id="g3229"
         inkscape:transform-center-x="30.900947"
         style="fill:#ef3e3e;fill-opacity:1">
        <path
           sodipodi:nodetypes="sssssssss"
           inkscape:connector-curvature="0"
           id="path3231"
           d="m 317.497,435.66599 13.283,-0.49733 c 7.12992,-0.26696 16.9201,4.73977 16.36027,13.87359 l -3.48135,56.79988 c -0.43649,7.12156 -3.50599,10.88958 -9.1489,10.88958 l -17.51036,0 c -7.13493,0 -10.13574,-4.51857 -10.6409,-11.63558 l -3.97869,-56.05388 c -0.50516,-7.11701 4.99786,-12.99738 15.11693,-13.37626 z"
           style="fill:#ef3e3e;fill-opacity:1;stroke:none" />
      </g>
    </g>
    <path
       inkscape:connector-curvature="0"
       style="clip-rule:evenodd;overflow:visible;fill:#2e75a3;fill-opacity:1;fill-rule:evenodd"
       id="path2819"
       d="m 230.99008,1028.6624 0,-5.5254 c 1.82577,0 3.36328,-0.6246 4.61249,-1.9219 1.20117,-1.2973 1.82578,-2.9789 1.82578,-4.9968 0,-2.0181 -0.57656,-3.6997 -1.82578,-4.9489 -1.20116,-1.2492 -2.73867,-1.8738 -4.61249,-1.8738 l 0,-5.6215 c 2.1621,0.048 4.27616,0.5766 6.19804,1.6817 1.96992,1.105 3.50744,2.6425 4.61253,4.5644 1.10506,1.8738 1.63358,3.9399 1.63358,6.15 0,2.2582 -0.52852,4.3242 -1.63358,6.2942 -1.15314,1.9698 -2.64261,3.4593 -4.56448,4.5644 -1.87383,1.105 -3.98789,1.6336 -6.24609,1.6336 z m 0,-24.8883 0,5.6215 -0.0481,0 c -1.82577,0 -3.36328,0.6246 -4.6125,1.8738 -1.20116,1.2972 -1.82577,2.9308 -1.82577,4.9489 0,2.0659 0.62461,3.7476 1.82577,4.9968 1.20118,1.2973 2.73867,1.9219 4.6125,1.9219 0,0 0,0 0.0481,0 l 0,5.5254 c -0.0481,0 -0.0481,0 -0.0961,0 -3.41134,0 -6.29414,-1.2012 -8.69649,-3.6036 -2.40233,-2.4504 -3.6035,-5.3812 -3.6035,-8.8405 0,-3.6997 1.3453,-6.7267 4.08397,-9.225 2.3543,-2.1142 5.09297,-3.2192 8.16797,-3.2192 0.048,0 0.0961,0 0.14413,0 l 0,0 z m -92.77843,24.8402 0,-5.3812 c 1.87383,0 3.41133,-0.6726 4.61249,-1.97 1.24922,-1.2972 1.87383,-2.9789 1.87383,-5.0929 0,-2.0661 -0.62461,-3.7476 -1.87383,-4.9969 -1.20116,-1.2492 -2.73866,-1.8738 -4.61249,-1.8738 l 0,-5.4293 c 0.96093,0.096 1.87383,0.3363 2.73868,0.7207 1.2492,0.5285 2.40233,1.3453 3.45936,2.4024 l 0,-2.5946 5.95781,0 0,23.6871 -5.95781,0 0,-2.5465 c -1.15312,1.1531 -2.30624,1.9219 -3.50742,2.4024 -0.81679,0.3843 -1.72969,0.5765 -2.69062,0.6726 l 0,0 z m 18.11366,-24.2156 5.9578,0 0,2.7386 c 1.00899,-1.153 2.16211,-1.9698 3.41133,-2.4983 1.24922,-0.5767 2.59452,-0.8649 4.03593,-0.8649 1.48946,0 2.83476,0.3844 4.03593,1.105 1.20117,0.7207 2.16211,1.7778 2.88282,3.1711 0.91288,-1.3933 2.11406,-2.4504 3.45936,-3.1711 1.39336,-0.7206 2.88281,-1.105 4.51641,-1.105 1.68163,0 3.1711,0.3844 4.4203,1.2012 1.29728,0.7687 2.21016,1.7777 2.78673,3.0749 0.52851,1.2493 0.81679,3.2673 0.81679,6.102 l 0,13.9336 -5.9578,0 0,-12.0598 c 0,-2.6906 -0.33634,-4.5163 -1.009,-5.4292 -0.67265,-0.913 -1.68163,-1.3934 -3.02695,-1.3934 -1.00898,0 -1.92187,0.2882 -2.73866,0.8649 -0.8168,0.5285 -1.39336,1.3453 -1.77774,2.3543 -0.43242,1.0569 -0.6246,2.6905 -0.6246,4.9487 l 0,10.7145 -5.95781,0 0,-11.4832 c 0,-2.1621 -0.19219,-3.6996 -0.48046,-4.6125 -0.33634,-0.961 -0.81681,-1.6336 -1.44141,-2.114 -0.62461,-0.4325 -1.34532,-0.6727 -2.2582,-0.6727 -0.96094,0 -1.87383,0.2882 -2.69062,0.8649 -0.76875,0.5285 -1.39336,1.3933 -1.77774,2.4503 -0.43242,1.057 -0.62461,2.7387 -0.62461,4.9969 l 0,10.5703 -5.9578,0 0,-23.6871 0,0 z m 44.34722,-9.75345 c 1.05703,0 1.92187,0.38437 2.69062,1.10508 0.72071,0.76874 1.10508,1.68163 1.10508,2.73871 0,1.105 -0.33633,1.96986 -1.10508,2.73856 -0.7207,0.7688 -1.63359,1.1051 -2.64257,1.1051 -1.05703,0 -1.96993,-0.3844 -2.73868,-1.1531 -0.7207,-0.7207 -1.10506,-1.68166 -1.10506,-2.73866 0,-1.05702 0.38436,-1.96991 1.10506,-2.69061 0.72071,-0.76875 1.63361,-1.10508 2.69063,-1.10508 l 0,0 z m -2.9789,9.75345 5.9578,0 0,23.6871 -5.9578,0 0,-23.6871 0,0 z m 10.71444,-9.17689 5.9578,0 0,32.86399 -5.9578,0 0,-32.86399 z m -112.958097,6.48619 -4.276168,4.0841 c -2.930853,-3.075 -6.198038,-4.6125 -9.801544,-4.6125 -3.075003,0 -5.669536,1.057 -7.735546,3.123 -2.114063,2.114 -3.171089,4.6606 -3.171089,7.6875 0,2.1621 0.480471,4.0359 1.393358,5.7176 0.912887,1.6336 2.258202,2.9308 3.939837,3.8918 1.729689,0.961 3.603516,1.3933 5.669526,1.3933 1.777731,0 3.411324,-0.2883 4.852724,-0.9609 1.489453,-0.6727 3.123056,-1.8738 4.852734,-3.6035 l 4.13203,4.2761 c -2.354298,2.3543 -4.612489,3.9399 -6.726552,4.8528 -2.06602,0.8648 -4.468361,1.2972 -7.207022,1.2972 -4.94882,0 -9.032807,-1.5375 -12.251949,-4.7086 -3.171089,-3.171 -4.756639,-7.2069 -4.756639,-12.1558 0,-3.1711 0.720706,-6.0058 2.210159,-8.5043 1.441411,-2.4504 3.50742,-4.46826 6.198039,-5.95774 2.690619,-1.5375 5.57344,-2.30625 8.696476,-2.30625 2.642575,0 5.189055,0.57657 7.639449,1.68164 2.450394,1.15309 4.564446,2.73869 6.342177,4.80455 l 0,0 z m 42.761677,2.1622 0,5.4293 -0.048,0 c -1.87383,0 -3.36327,0.6246 -4.61249,1.8738 -1.20117,1.2973 -1.82578,2.9789 -1.82578,4.9969 0,2.066 0.62461,3.7476 1.87382,5.0929 1.24922,1.2974 2.78672,1.97 4.56445,1.97 0.048,0 0.048,0 0.048,0 l 0,5.3812 c -0.33633,0.048 -0.7207,0.048 -1.10508,0.048 -3.075,0 -5.71756,-1.1532 -7.97577,-3.5556 -2.21015,-2.3543 -3.31523,-5.3331 -3.31523,-8.8405 0,-3.6516 1.05703,-6.6305 3.21914,-8.9848 2.1621,-2.3063 4.80468,-3.5074 7.87968,-3.5074 0.48046,0 0.86484,0.048 1.29726,0.096 l 0,0 z m -38.05309,-8.64839 5.90977,0 0,11.57929 c 1.15312,-1.009 2.3543,-1.7778 3.50741,-2.2582 1.20117,-0.5286 2.35429,-0.7688 3.55546,-0.7688 2.30626,0 4.32422,0.8168 5.90976,2.4504 1.39337,1.3934 2.06602,3.5074 2.06602,6.1981 l 0,15.6632 -5.86172,0 0,-10.4261 c 0,-2.7388 -0.0961,-4.6125 -0.38436,-5.5735 -0.24025,-0.961 -0.72072,-1.6336 -1.29727,-2.114 -0.62461,-0.4806 -1.39336,-0.7207 -2.30625,-0.7207 -1.24922,0 -2.25821,0.3843 -3.12304,1.2011 -0.86485,0.7207 -1.48946,1.8258 -1.82579,3.2191 -0.14414,0.7207 -0.24022,2.3063 -0.24022,4.8528 l 0,9.5613 -5.90977,0 0,-32.86399 z" />
    <path
       inkscape:connector-curvature="0"
       style="clip-rule:evenodd;overflow:visible;fill:#2e75a3;fill-opacity:1;fill-rule:evenodd"
       id="path2913"
       d="m 240.21509,1040.5299 0,-0.7688 0,0 c 0.48047,0 0.86484,-0.096 1.24922,-0.3362 0.38438,-0.2403 0.67265,-0.5766 0.86485,-1.009 l 0.86482,0 c -0.24022,0.6726 -0.67264,1.2012 -1.15311,1.5855 -0.52851,0.3364 -1.10509,0.5285 -1.77774,0.5285 l -0.0481,0 0,0 z m 0,-2.9789 0,-0.6726 2.30625,0 c -0.14414,-0.6727 -0.38438,-1.2012 -0.8168,-1.5375 -0.38435,-0.3363 -0.86486,-0.5285 -1.48945,-0.5285 l 0,-0.7688 c 0.048,0 0.048,0 0.048,0 0.96094,0 1.68165,0.3363 2.25821,0.961 0.57656,0.6246 0.91289,1.4894 0.91289,2.4983 l 0,0.048 -3.21914,0 z m 0,-3.5074 0,0.7688 -0.0481,0 c -0.57658,0 -1.1051,0.1922 -1.48947,0.5285 -0.43242,0.3844 -0.67266,0.9129 -0.76875,1.5375 l 2.30626,0 0,0.6726 -2.3543,0 c 0.048,0.6726 0.28827,1.2012 0.7207,1.5855 0.43242,0.4325 1.00898,0.6246 1.6336,0.6246 l 0,0.7688 c -0.86485,0 -1.6336,-0.3363 -2.21017,-0.9609 -0.6246,-0.6247 -0.96094,-1.3934 -0.96094,-2.2582 0,-0.9609 0.33634,-1.7297 0.9129,-2.3543 0.62461,-0.5766 1.34531,-0.8648 2.25821,-0.9129 l 0,0 z m -10.04181,6.4863 0,-0.7207 c 0.0481,0 0.0481,0 0.0481,0 0.62461,0 1.15313,-0.2882 1.63359,-0.7688 0.43242,-0.4804 0.67265,-1.105 0.67265,-1.7776 0,-0.6728 -0.24023,-1.2493 -0.67265,-1.7297 -0.48046,-0.4805 -1.00898,-0.7207 -1.63359,-0.7207 0,0 0,0 -0.0481,0 l 0,-0.7207 c 0.0481,0 0.0481,0 0.0961,0 0.48046,0 0.86485,0.096 1.29726,0.2882 0.38438,0.1922 0.7207,0.4805 0.96093,0.8168 l 0,-0.961 0.76876,0 0,6.1021 -0.76876,0 0,-0.961 c -0.24023,0.3843 -0.57655,0.6246 -1.00898,0.8649 -0.38436,0.1922 -0.86485,0.2882 -1.34531,0.2882 l 0,0 z m 5.14102,-0.1921 -0.76876,0 0,-6.1021 0.7207,0 0,0.7208 c 0.1922,-0.2883 0.43243,-0.4805 0.62461,-0.6247 0.24024,-0.144 0.52852,-0.1921 0.8168,-0.1921 l 0,0.8649 c -0.48047,0.048 -0.86484,0.1921 -1.05703,0.4324 -0.19218,0.2402 -0.33632,0.6726 -0.33632,1.2011 l 0,3.6997 z m -5.14102,-6.2461 0,0.7207 c -0.6246,0 -1.15312,0.2402 -1.63359,0.7207 -0.43242,0.4804 -0.67266,1.105 -0.67266,1.8257 0,0.6727 0.24024,1.2493 0.67266,1.7297 0.48047,0.4805 1.00899,0.6726 1.63359,0.7207 l 0,0.7207 0,0 c -0.86484,0 -1.63359,-0.3363 -2.21014,-0.9128 -0.62462,-0.6247 -0.9129,-1.3935 -0.9129,-2.3063 0,-0.9129 0.28828,-1.6816 0.9129,-2.3062 0.57655,-0.5766 1.3453,-0.9129 2.21014,-0.9129 l 0,0 z m -11.38709,0.9129 0,-0.7208 2.06601,6.054 0.48047,0 1.4414,-4.6606 1.4414,4.6606 0.52851,0 2.06602,-6.1021 -0.86484,0 -1.48945,4.5646 -1.39336,-4.5646 -0.57657,0 -1.39335,4.5646 -1.48945,-4.5646 -0.81679,0 0,0 0,0.7689 0,0 z m 0,-0.7208 0,0.7208 -1.15312,0 0,5.3332 -0.76876,0 0,-5.3332 -1.15312,0 0,-0.7689 1.15312,0 0,-1.9698 0.76876,0 0,1.9698 1.15312,0 0,0 0,0.048 0,0 z m -9.70547,6.2461 0,-0.7688 c 0,0 0,0 0.048,0 0.62461,0 1.20117,-0.2401 1.6336,-0.7207 0.43241,-0.4323 0.67265,-1.0569 0.67265,-1.7776 0,-0.7207 -0.24024,-1.2974 -0.67265,-1.7778 -0.43243,-0.4324 -1.00899,-0.6726 -1.68165,-0.6726 l 0,-0.7688 c 0.86484,0 1.63359,0.3363 2.2582,0.9129 0.62461,0.6246 0.9129,1.3934 0.9129,2.2582 0,0.9128 -0.28829,1.6817 -0.9129,2.3543 -0.62461,0.6246 -1.3453,0.9609 -2.21015,0.9609 -0.048,0 -0.048,0 -0.048,0 l 0,0 z m 5.18907,-0.1921 -0.76876,0 0,-5.4293 -0.81679,0 0,-0.6728 0.81679,0 0,-0.1921 c 0,-0.6246 0.14414,-1.1051 0.48047,-1.4414 0.33633,-0.2883 0.8168,-0.4324 1.48945,-0.4324 l 0.0961,0 0,0.6726 c -0.48047,0 -0.81679,0.096 -1.00898,0.2883 -0.1922,0.1922 -0.28828,0.4804 -0.28828,0.9129 l 0,0.1921 1.29726,0 0,0.6728 -1.29726,0 0,5.4293 z m -5.18907,-6.2942 0,0.7688 -0.0481,0 c -0.62461,0 -1.15313,0.2402 -1.58554,0.6726 -0.48048,0.4804 -0.67266,1.105 -0.67266,1.7778 0,0.7207 0.19218,1.3453 0.67266,1.7776 0.43241,0.4806 0.96093,0.7207 1.63358,0.7207 l 0,0.7688 c -0.86483,0 -1.63358,-0.3363 -2.21015,-0.9609 -0.62461,-0.6247 -0.96094,-1.3934 -0.96094,-2.2582 0,-0.9129 0.33633,-1.6816 0.96094,-2.3062 0.62461,-0.6728 1.34532,-0.961 2.16211,-0.961 0.0481,0 0.0481,0 0.0481,0 l 0,0 z m -20.17967,6.4863 0,-0.7688 0,0 c 0.67267,0 1.20118,-0.2401 1.68165,-0.7207 0.43242,-0.4323 0.6246,-1.0569 0.6246,-1.7776 0,-0.7207 -0.19218,-1.2974 -0.67265,-1.7778 -0.43242,-0.4324 -0.96093,-0.6726 -1.6336,-0.6726 l 0,-0.7688 c 0.86485,0 1.58554,0.3363 2.21016,0.9129 0.62461,0.6246 0.96094,1.3934 0.96094,2.2582 0,0.9128 -0.33633,1.6817 -0.91289,2.3543 -0.62461,0.6246 -1.39336,0.9609 -2.25821,0.9609 l 0,0 0,0 z m 4.08398,-6.2942 0.76876,0 0,0.6728 c 0.24023,-0.2403 0.52851,-0.4805 0.81679,-0.6247 0.33633,-0.096 0.67266,-0.1921 1.10508,-0.1921 0.43243,0 0.86484,0.096 1.20118,0.2401 0.33632,0.1923 0.62459,0.4325 0.81679,0.7208 0.14414,0.2402 0.24023,0.4805 0.33632,0.8167 0.048,0.2884 0.0961,0.7207 0.0961,1.2974 l 0,3.1711 -0.81679,0 0,-3.4114 c 0,-0.7207 -0.14414,-1.2492 -0.38437,-1.5855 -0.28828,-0.3363 -0.72071,-0.4805 -1.34532,-0.4805 -0.33632,0 -0.67265,0.048 -0.91288,0.1922 -0.28828,0.1441 -0.48047,0.3844 -0.67266,0.6246 -0.0961,0.1921 -0.14414,0.3844 -0.19219,0.5766 -0.048,0.2402 -0.048,0.5765 -0.048,1.105 l 0,2.979 -0.76876,0 0,-6.1021 0,0 z m 7.6875,3.7958 0.76875,0 c 0,0.5285 0.14414,0.9128 0.38438,1.2012 0.28827,0.2883 0.6246,0.4324 1.05702,0.4324 0.48047,0 0.86485,-0.1441 1.15312,-0.4324 0.28828,-0.2884 0.43243,-0.6727 0.43243,-1.2012 0,-0.7207 -0.57657,-1.2973 -1.72969,-1.6816 -0.0961,0 -0.14414,-0.048 -0.19219,-0.048 -0.6246,-0.1922 -1.00897,-0.4805 -1.29726,-0.7687 -0.24024,-0.3364 -0.38437,-0.7207 -0.38437,-1.2493 0,-0.6246 0.19219,-1.1531 0.6246,-1.5854 0.38438,-0.3845 0.9129,-0.6247 1.5375,-0.6247 0.62461,0 1.10508,0.1922 1.44141,0.5766 0.38438,0.3843 0.57656,0.9128 0.62461,1.5855 l -0.76876,0 c -0.0481,-0.4324 -0.19218,-0.7688 -0.38436,-1.0089 -0.24024,-0.2403 -0.52851,-0.3845 -0.9129,-0.3845 -0.38437,0 -0.7207,0.1442 -0.96093,0.3845 -0.28829,0.2882 -0.38437,0.6245 -0.38437,1.0089 0,0.2402 0,0.3844 0.0961,0.5766 0.0961,0.1442 0.1922,0.2882 0.38438,0.3843 0.14414,0.1442 0.48047,0.2883 0.96094,0.4325 0.28829,0.096 0.48047,0.1921 0.62461,0.2402 0.52851,0.1922 0.91288,0.4324 1.15312,0.7687 0.24023,0.3364 0.33633,0.7207 0.33633,1.2493 0,0.8168 -0.19219,1.4414 -0.62461,1.9218 -0.43242,0.4805 -1.00898,0.7207 -1.72969,0.7207 -0.62461,0 -1.20116,-0.2402 -1.58554,-0.6726 -0.43242,-0.4805 -0.62461,-1.057 -0.62461,-1.8257 z m -11.77148,-3.9879 0,0.7688 c -0.048,0 -0.048,0 -0.048,0 -0.62461,0 -1.20117,0.2402 -1.63359,0.6726 -0.43242,0.4804 -0.67266,1.105 -0.67266,1.7778 0,0.7207 0.24024,1.3453 0.67266,1.7776 0.48047,0.4806 1.00898,0.7207 1.68163,0.7207 l 0,0.7688 c -0.91288,0 -1.63359,-0.3363 -2.2582,-0.9609 -0.62461,-0.6247 -0.91289,-1.3934 -0.91289,-2.2582 0,-0.9129 0.28828,-1.6816 0.91289,-2.3062 0.62461,-0.6728 1.34532,-0.961 2.21016,-0.961 0,0 0,0 0.048,0 l 0,0 z m -12.34803,6.4863 0,-0.7207 0,0 c 0.62461,0 1.15312,-0.2882 1.63359,-0.7688 0.43243,-0.4804 0.67266,-1.105 0.67266,-1.7776 0,-0.6728 -0.24023,-1.2493 -0.67266,-1.7297 -0.48047,-0.4805 -1.00898,-0.7207 -1.63359,-0.7207 l 0,0 0,-0.7207 c 0,0 0,0 0.048,0 0.48046,0 0.91289,0.096 1.29726,0.2882 0.38438,0.1922 0.72071,0.4805 0.96094,0.8168 l 0,-0.961 0.76875,0 0,6.1021 -0.76875,0 0,-0.961 c -0.24023,0.3843 -0.57656,0.6246 -0.96094,0.8649 -0.43242,0.1922 -0.86484,0.2882 -1.34531,0.2882 l 0,0 z m 4.85273,-0.1921 0,-5.3332 -1.15312,0 0,-0.7689 1.15312,0 0,-1.9698 0.8168,0 0,1.9698 1.15312,0 0,0.7689 -1.15312,0 0,5.3332 -0.8168,0 0,0 z m 3.41133,-6.8228 -0.8168,0 0,-1.2491 0.8168,0 0,1.2491 0,0 z m -0.8168,6.8228 0,-6.1021 0.8168,0 0,6.1021 -0.8168,0 z m -7.44726,-6.2461 0,0.7207 c -0.67265,0 -1.20118,0.2402 -1.68164,0.7207 -0.43241,0.4804 -0.67266,1.105 -0.67266,1.8257 0,0.6727 0.24025,1.2493 0.67266,1.7297 0.48046,0.4805 1.00899,0.6726 1.68164,0.7207 l 0,0.7207 -0.048,0 c -0.86485,0 -1.6336,-0.3363 -2.21016,-0.9128 -0.62461,-0.6247 -0.91289,-1.3935 -0.91289,-2.3063 0,-0.9129 0.28828,-1.6816 0.91289,-2.3062 0.57656,-0.5766 1.34531,-0.9129 2.2582,-0.9129 l 0,0 z m -9.80156,6.4382 0,-0.7688 0,0 c 0.67267,0 1.20118,-0.2401 1.68165,-0.7207 0.43242,-0.4323 0.67265,-1.0569 0.67265,-1.7776 0,-0.7207 -0.24023,-1.2974 -0.67265,-1.7778 -0.48047,-0.4324 -1.00898,-0.6726 -1.68165,-0.6726 l 0,-0.7688 c 0.86486,0 1.58555,0.3363 2.21016,0.9129 0.62461,0.6246 0.96094,1.3934 0.96094,2.2582 0,0.9128 -0.33633,1.6817 -0.91289,2.3543 -0.62461,0.6246 -1.39335,0.9609 -2.25821,0.9609 l 0,0 0,0 z m 4.85274,-0.1921 -0.76876,0 0,-6.1021 0.72071,0 0,0.7208 c 0.19219,-0.2883 0.43242,-0.4805 0.62462,-0.6247 0.24023,-0.144 0.52851,-0.1921 0.81679,-0.1921 l 0,0.8649 c -0.48047,0.048 -0.81679,0.1921 -1.05703,0.4324 -0.19219,0.2402 -0.33633,0.6726 -0.33633,1.2011 l 0,3.6997 z m -4.85274,-6.2942 0,0.7688 -0.0481,0 c -0.62461,0 -1.15312,0.2402 -1.63359,0.6726 -0.43243,0.4804 -0.67265,1.105 -0.67265,1.7778 0,0.7207 0.24022,1.3453 0.67265,1.7776 0.48047,0.4806 1.00898,0.7207 1.68163,0.7207 l 0,0.7688 c -0.86483,0 -1.63358,-0.3363 -2.2582,-0.9609 -0.57655,-0.6247 -0.91288,-1.3934 -0.91288,-2.2582 0,-0.9129 0.33633,-1.6816 0.91288,-2.3062 0.62462,-0.6728 1.34532,-0.961 2.21016,-0.961 l 0.0481,0 0,0 z m -6.91874,6.4863 0,-0.7207 c 0.62461,-0.048 1.15312,-0.2882 1.63359,-0.7688 0.43243,-0.4804 0.67267,-1.0569 0.67267,-1.7776 0,-0.6728 -0.24024,-1.2493 -0.67267,-1.7297 -0.48047,-0.4805 -1.00898,-0.7207 -1.63359,-0.7207 l 0,-0.7207 0.0481,0 c 0.86485,0 1.58555,0.2882 2.21016,0.9129 0.57657,0.6246 0.86485,1.3933 0.86485,2.3062 0,0.9128 -0.28828,1.6816 -0.91289,2.2582 -0.57657,0.6246 -1.34531,0.9609 -2.21016,0.9609 z m 0,-6.4382 0,0.7207 c 0,0 0,0 -0.048,0 -0.62461,0 -1.15313,0.2402 -1.6336,0.7687 -0.43241,0.4805 -0.67265,1.057 -0.67265,1.7777 0,0.6727 0.24024,1.2012 0.7207,1.6816 0.43242,0.5286 0.96094,0.7688 1.58555,0.7688 0,0 0,0 0.048,0 l 0,0.7207 c -0.048,0 -0.048,0 -0.048,0 -0.48047,0 -0.86485,-0.096 -1.24922,-0.2882 -0.38438,-0.1922 -0.72071,-0.4325 -1.05703,-0.8168 l 0,0.9129 -0.76876,0 0,-8.0719 0.76876,0 0,2.5465 0,0.4324 c 0.33632,-0.3844 0.7207,-0.6727 1.10508,-0.8649 0.38437,-0.1921 0.76874,-0.2882 1.24921,-0.2882 l 0,0 z m -7.44726,6.4382 0,-0.7207 0,0 c 0.62461,0 1.20118,-0.2882 1.6336,-0.7688 0.48047,-0.4804 0.7207,-1.105 0.7207,-1.7776 0,-0.6728 -0.24023,-1.2493 -0.7207,-1.7297 -0.43242,-0.4805 -1.00899,-0.7207 -1.58554,-0.7207 l -0.0481,0 0,-0.7207 0.0481,0 c 0.48046,0 0.91288,0.096 1.29726,0.2882 0.38437,0.1922 0.7207,0.4805 1.00898,0.8168 l 0,-0.961 0.76875,0 0,6.1021 -0.76875,0 0,-0.961 c -0.24023,0.3843 -0.57657,0.6246 -1.00898,0.8649 -0.43242,0.1922 -0.86485,0.2882 -1.34532,0.2882 z m 0,-6.4382 0,0.7207 c -0.6246,0 -1.20116,0.2402 -1.63358,0.7207 -0.48047,0.4804 -0.72071,1.105 -0.72071,1.8257 0,0.6727 0.24024,1.2493 0.72071,1.7297 0.43242,0.4805 1.00898,0.6726 1.63358,0.7207 l 0,0.7207 0,0 c -0.91288,0 -1.63358,-0.3363 -2.2582,-0.9128 -0.57655,-0.6247 -0.91289,-1.3935 -0.91289,-2.3063 0,-0.9129 0.33634,-1.6816 0.91289,-2.3062 0.62462,-0.5766 1.34532,-0.9129 2.2582,-0.9129 l 0,0 z m -11.05077,6.4382 0,-0.7688 0,0 c 0.67266,0 1.20118,-0.2401 1.63359,-0.7207 0.48048,-0.4323 0.67266,-1.0569 0.67266,-1.7776 0,-0.7207 -0.19218,-1.2974 -0.67266,-1.7778 -0.43241,-0.4324 -0.96093,-0.6726 -1.63359,-0.6726 l 0,-0.7688 c 0.86484,0 1.58555,0.3363 2.21016,0.9129 0.62461,0.6246 0.96094,1.3934 0.96094,2.2582 0,0.9128 -0.33633,1.6817 -0.96094,2.3543 -0.57657,0.6246 -1.34532,0.9609 -2.21016,0.9609 l 0,0 0,0 z m 4.08399,-0.1921 0,-8.0719 0.76874,0 0,8.0719 -0.76874,0 0,0 z m 2.06601,0 0,-8.0719 0.76875,0 0,8.0719 -0.76875,0 z m -6.15,-6.2942 0,0.7688 c -0.048,0 -0.048,0 -0.048,0 -0.62461,0 -1.20117,0.2402 -1.6336,0.6726 -0.43241,0.4804 -0.67265,1.105 -0.67265,1.7778 0,0.7207 0.24024,1.3453 0.67265,1.7776 0.43243,0.4806 1.00899,0.7207 1.68164,0.7207 l 0,0.7688 c -0.91288,0 -1.63359,-0.3363 -2.25819,-0.9609 -0.62461,-0.6247 -0.9129,-1.3934 -0.9129,-2.2582 0,-0.9129 0.28829,-1.6816 0.9129,-2.3062 0.6246,-0.6728 1.34531,-0.961 2.21015,-0.961 0,0 0,0 0.048,0 l 0,0 z m -18.35388,6.4863 0,-0.8168 c 0.33632,-0.048 0.62461,-0.1441 0.86483,-0.3363 0.28829,-0.2403 0.57657,-0.5765 0.86485,-1.1051 l -1.72968,-1.5856 0,-1.2972 c 0.38437,-0.1922 0.62461,-0.3363 0.81679,-0.5765 0.19219,-0.2403 0.28829,-0.5286 0.28829,-0.8649 0,-0.2883 -0.0961,-0.5765 -0.28829,-0.7687 -0.24023,-0.2403 -0.48047,-0.3364 -0.76875,-0.3364 0,0 0,0 -0.0481,0 l 0,-0.7687 c 0.0481,0 0.0481,0 0.0961,0 0.48049,0 0.9129,0.1922 1.29728,0.5766 0.38437,0.3843 0.57656,0.8167 0.57656,1.3453 0,0.4324 -0.14415,0.7687 -0.43242,1.153 -0.24024,0.3364 -0.62461,0.5767 -1.15313,0.8168 l 1.68164,1.5375 0.91289,-2.5464 0.91289,0 -1.24923,3.075 1.82579,1.6816 -0.52851,0.5766 -1.6336,-1.4894 c -0.24023,0.5765 -0.57656,0.9608 -1.00898,1.2972 -0.38437,0.2403 -0.81679,0.3843 -1.29726,0.4324 l 0,0 z m 13.50116,-6.1981 c -0.33634,-0.4804 -0.76875,-0.8648 -1.20117,-1.105 -0.43243,-0.2402 -0.96095,-0.3363 -1.53751,-0.3363 -0.91288,0 -1.68163,0.3363 -2.30624,0.9609 -0.67265,0.6727 -0.96094,1.4895 -0.96094,2.4024 0,1.009 0.28829,1.8258 0.96094,2.4984 0.62461,0.6727 1.39336,1.0089 2.30624,1.0089 0.57656,0 1.05704,-0.144 1.53751,-0.3843 0.43242,-0.1922 0.81679,-0.5765 1.15312,-1.009 l 0.96093,0 c -0.38437,0.6726 -0.86484,1.2012 -1.48944,1.5855 -0.62461,0.3845 -1.34531,0.5766 -2.11407,0.5766 -1.20117,0 -2.1621,-0.4324 -2.9789,-1.2492 -0.8168,-0.8168 -1.20117,-1.8258 -1.20117,-3.0269 0,-0.5766 0.0961,-1.1052 0.33633,-1.6336 0.19218,-0.4805 0.52851,-0.961 0.96094,-1.3453 0.38437,-0.3844 0.81679,-0.7207 1.29726,-0.9129 0.48047,-0.1922 1.00898,-0.2883 1.53749,-0.2883 0.81681,0 1.53751,0.1922 2.21016,0.5766 0.62461,0.4324 1.15312,0.9608 1.48946,1.6815 l -0.96094,0 z m -13.50116,-2.2581 0,0.7687 c -0.28828,0 -0.57656,0.096 -0.76875,0.3364 -0.19219,0.1922 -0.28828,0.4804 -0.28828,0.8168 0,0.2401 0.0481,0.4804 0.19218,0.7207 0.14414,0.1922 0.38438,0.4323 0.7207,0.7207 0.0481,0 0.0961,-0.048 0.14415,-0.048 l 0,1.2973 -0.43243,-0.3844 c -0.38437,0.1922 -0.72069,0.4324 -0.91289,0.7207 -0.19218,0.3363 -0.33632,0.6727 -0.33632,1.057 0,0.4805 0.14414,0.8649 0.43242,1.2012 0.33633,0.2883 0.67266,0.4324 1.15312,0.4324 0.0481,0 0.0961,0 0.0961,0 l 0,0.8168 c -0.048,0 -0.0961,0 -0.14415,0 -0.67265,0 -1.20117,-0.2402 -1.68164,-0.7207 -0.43241,-0.4804 -0.67265,-1.057 -0.67265,-1.7297 0,-0.4804 0.14414,-0.9609 0.38438,-1.3453 0.28827,-0.4324 0.67265,-0.7687 1.15312,-0.9609 -0.38438,-0.3363 -0.62461,-0.6246 -0.7207,-0.8648 -0.14415,-0.2883 -0.24023,-0.5766 -0.24023,-0.9129 0,-0.5286 0.19218,-0.961 0.57655,-1.3454 0.38438,-0.3363 0.81681,-0.5285 1.34532,-0.5765 l 0,0 z m -8.5043,10.6664 0,-0.7687 0,0 c 0.67267,0 1.24923,-0.1922 1.68165,-0.6728 0.43242,-0.4804 0.62461,-1.105 0.62461,-1.8737 l 0,-0.1442 c -0.28829,0.3844 -0.62461,0.7207 -1.00898,0.9129 -0.38438,0.1922 -0.81681,0.2882 -1.24922,0.2882 -0.0481,0 -0.0481,0 -0.0481,0 l 0,-0.7207 0,0 c 0.57657,0 1.15314,-0.2401 1.58555,-0.7207 0.48047,-0.4804 0.72071,-1.0569 0.72071,-1.7296 0,-0.6727 -0.24024,-1.2973 -0.72071,-1.7777 -0.43241,-0.4805 -0.96094,-0.7207 -1.58555,-0.7207 l 0,0 0,-0.7207 c 0.48047,0 0.9129,0.096 1.29728,0.2882 0.38437,0.1442 0.72069,0.4805 1.00898,0.8649 l 0,-1.0091 0.76875,0 0,5.0931 c 0,1.1051 -0.28828,1.9218 -0.8168,2.4984 -0.52852,0.6246 -1.24922,0.9129 -2.21015,0.9129 l -0.0481,0 z m 0,-8.6484 0,0.7207 c -0.67265,0 -1.15312,0.2402 -1.58553,0.6726 -0.48047,0.4804 -0.72071,1.0571 -0.72071,1.7778 0,0.6726 0.24024,1.2972 0.72071,1.7776 0.43241,0.4806 0.91288,0.7207 1.58553,0.7207 l 0,0.7207 c -0.86484,0 -1.63359,-0.2882 -2.21014,-0.9128 -0.62461,-0.6247 -0.9129,-1.3934 -0.9129,-2.3062 0,-0.9129 0.28829,-1.6336 0.9129,-2.2582 0.57655,-0.6247 1.3453,-0.9129 2.1621,-0.9129 0,0 0,0 0.0481,0 l 0,0 z m 0,7.8797 0,0.7687 c -0.67265,0 -1.20116,-0.1922 -1.68163,-0.4805 -0.52851,-0.3843 -0.81679,-0.8168 -0.96094,-1.3933 l 0.91289,0 c 0.0961,0.3363 0.33633,0.6245 0.62462,0.8168 0.33632,0.1922 0.6246,0.2883 1.10506,0.2883 l 0,0 z m -24.792158,-1.4415 0,-0.7207 0,0 c 0.624609,0 1.153122,-0.2882 1.633592,-0.7688 0.480471,-0.4804 0.672663,-1.105 0.672663,-1.7776 0,-0.6728 -0.192192,-1.2493 -0.672663,-1.7297 -0.48047,-0.4805 -1.008983,-0.7207 -1.585539,-0.7207 -0.04805,0 -0.04805,0 -0.04805,0 l 0,-0.7207 0.04805,0 c 0.480471,0 0.912887,0.096 1.297262,0.2882 0.384374,0.1922 0.720705,0.4805 0.96094,0.8168 l 0,-0.961 0.768748,0 0,6.1021 -0.768748,0 0,-0.961 c -0.240235,0.3843 -0.576566,0.6246 -0.96094,0.8649 -0.432417,0.1922 -0.864845,0.2882 -1.345315,0.2882 l 0,0 z m 5.141013,-0.1921 -0.816791,0 0,-6.1021 0.768748,0 0,0.7208 c 0.192182,-0.2883 0.384374,-0.4805 0.624611,-0.6247 0.19218,-0.144 0.48046,-0.1921 0.76875,-0.1921 l 0,0.8649 c -0.48047,0.048 -0.81681,0.1921 -1.05703,0.4324 -0.192192,0.2402 -0.288288,0.6726 -0.288288,1.2011 l 0,3.6997 0,0 z m 2.066018,-6.1021 0.76875,0 0,0.6728 c 0.24023,-0.2403 0.48046,-0.4805 0.81679,-0.6247 0.33633,-0.096 0.67265,-0.1921 1.10508,-0.1921 0.432427,0 0.816787,0.096 1.201177,0.2401 0.33632,0.1923 0.62461,0.4325 0.81679,0.7208 0.14414,0.2402 0.24023,0.4805 0.28827,0.8167 0.0961,0.2884 0.0961,0.7207 0.0961,1.2974 l 0,3.1711 -0.76875,0 0,-3.4114 c 0,-0.7207 -0.14414,-1.2492 -0.38437,-1.5855 -0.28828,-0.3363 -0.7207,-0.4805 -1.345317,-0.4805 -0.38436,0 -0.67265,0.048 -0.96093,0.1922 -0.24023,0.1441 -0.48047,0.3844 -0.6246,0.6246 -0.0961,0.1921 -0.14414,0.3844 -0.1922,0.5766 -0.0481,0.2402 -0.0481,0.5765 -0.0481,1.105 l 0,2.979 -0.76875,0 0,-6.1021 0,0 z m 7.158977,-0.7207 -0.76875,0 0,-1.2491 0.76875,0 0,1.2491 0,0 z m -0.76875,6.8228 0,-6.1021 0.76875,0 0,6.1021 -0.76875,0 0,0 z m 2.01796,-6.1021 0.76876,0 0,0.6728 c 0.24022,-0.2403 0.52851,-0.4805 0.86484,-0.6247 0.28828,-0.096 0.67265,-0.1921 1.05703,-0.1921 0.48046,0 0.86484,0.096 1.20117,0.2401 0.38437,0.1923 0.6246,0.4325 0.86484,0.7208 0.14414,0.2402 0.24023,0.4805 0.28829,0.8167 0.0481,0.2884 0.0961,0.7207 0.0961,1.2974 l 0,3.1711 -0.76876,0 0,-3.4114 c 0,-0.7207 -0.14414,-1.2492 -0.43241,-1.5855 -0.28828,-0.3363 -0.72071,-0.4805 -1.34532,-0.4805 -0.33633,0 -0.62461,0.048 -0.91288,0.1922 -0.28829,0.1441 -0.48048,0.3844 -0.62461,0.6246 -0.0961,0.1921 -0.1922,0.3844 -0.24024,0.5766 0,0.2402 -0.0481,0.5765 -0.0481,1.105 l 0,2.979 -0.76876,0 0,-6.1021 z m -15.615218,-0.144 0,0.7207 c -0.672652,0 -1.201165,0.2402 -1.633593,0.7207 -0.480459,0.4804 -0.720694,1.105 -0.720694,1.8257 0,0.6727 0.240235,1.2493 0.720694,1.7297 0.432428,0.4805 0.960941,0.6726 1.633593,0.7207 l 0,0.7207 0,0 c -0.912877,0 -1.681635,-0.3363 -2.258191,-0.9128 -0.62462,-0.6247 -0.912898,-1.3935 -0.912898,-2.3063 0,-0.9129 0.336331,-1.6816 0.912898,-2.3062 0.624598,-0.5766 1.345314,-0.9129 2.258191,-0.9129 l 0,0 z m -6.918734,6.4382 0,-0.7688 0,0 c 0.432417,0 0.864845,-0.096 1.249208,-0.3362 0.336331,-0.2403 0.624609,-0.5766 0.816802,-1.009 l 0.912887,0 c -0.288278,0.6726 -0.672652,1.2012 -1.201176,1.5855 -0.528513,0.3364 -1.105069,0.5285 -1.777721,0.5285 l 0,0 0,0 z m 0,-2.9789 0,-0.6726 2.306245,0 c -0.144139,-0.6727 -0.432428,-1.2012 -0.816791,-1.5375 -0.384385,-0.3363 -0.912898,-0.5285 -1.489454,-0.5285 l 0,-0.7688 c 0,0 0,0 0.04805,0 0.912897,0 1.681635,0.3363 2.258201,0.961 0.576556,0.6246 0.864845,1.4894 0.864845,2.4983 l 0,0.048 -3.171089,0 z m -15.47108,-1.6817 3.411324,0 0,0.8168 -3.411324,0 0,2.8829 3.411324,0 0,0.7688 -4.228126,0 0,-8.0719 4.228126,0 0,0.7687 -3.411324,0 0,2.8347 0,0 z m 15.47108,-1.8257 0,0.7688 c -0.04805,0 -0.04805,0 -0.09611,0 -0.576567,0 -1.057037,0.1922 -1.489454,0.5285 -0.432427,0.3844 -0.672652,0.9129 -0.768748,1.5375 l 2.354298,0 0,0.6726 -2.354298,0 c 0.04805,0.6726 0.288278,1.2012 0.720695,1.5855 0.432427,0.4325 0.96094,0.6246 1.633603,0.6246 l 0,0.7688 c -0.912898,0 -1.633603,-0.3363 -2.258202,-0.9609 -0.624609,-0.6247 -0.912887,-1.3934 -0.912887,-2.2582 0,-0.9609 0.288278,-1.7297 0.912887,-2.3543 0.576556,-0.5766 1.345304,-0.8648 2.258202,-0.9129 l 0,0 z m -8.360144,2.8828 0,0.7207 -2.642586,0 0,-0.7207 2.642586,0 0,0 z m 4.94881,3.4114 -3.651559,0 0,-8.0719 0.768748,0 0,7.3031 2.882811,0 0,0.7688 z" />
  </g>
</svg>
