<?xml version="1.0" encoding="UTF-8" standalone="no"?>
<!-- Created with Inkscape (http://www.inkscape.org/) -->

<svg
   xmlns:dc="http://purl.org/dc/elements/1.1/"
   xmlns:cc="http://creativecommons.org/ns#"
   xmlns:rdf="http://www.w3.org/1999/02/22-rdf-syntax-ns#"
   xmlns:svg="http://www.w3.org/2000/svg"
   xmlns="http://www.w3.org/2000/svg"
   xmlns:sodipodi="http://sodipodi.sourceforge.net/DTD/sodipodi-0.dtd"
   xmlns:inkscape="http://www.inkscape.org/namespaces/inkscape"
   width="210mm"
   height="297mm"
   viewBox="0 0 210 297"
   version="1.1"
   id="svg8"
   inkscape:version="0.92.4 (unknown)"
   sodipodi:docname="letterhead.svg">
  <defs
     id="defs2">
    <clipPath
       id="clipPath854"
       clipPathUnits="userSpaceOnUse">
      <path
         inkscape:connector-curvature="0"
         id="path852"
         d="M 0.410156,0 H 5953.1602 V 8418.9 H 0.410156 Z" />
    </clipPath>
  </defs>
  <sodipodi:namedview
     id="base"
     pagecolor="#ffffff"
     bordercolor="#666666"
     borderopacity="1.0"
     inkscape:pageopacity="0.0"
     inkscape:pageshadow="2"
     inkscape:zoom="0.34965979"
     inkscape:cx="984.49253"
     inkscape:cy="313.68089"
     inkscape:document-units="mm"
     inkscape:current-layer="layer1"
     showgrid="false"
     inkscape:window-width="1920"
     inkscape:window-height="1016"
     inkscape:window-x="0"
     inkscape:window-y="27"
     inkscape:window-maximized="1" />
  <metadata
     id="metadata5">
    <rdf:RDF>
      <cc:Work
         rdf:about="">
        <dc:format>image/svg+xml</dc:format>
        <dc:type
           rdf:resource="http://purl.org/dc/dcmitype/StillImage" />
        <dc:title></dc:title>
      </cc:Work>
    </rdf:RDF>
  </metadata>
  <g
     inkscape:label="Capa 1"
     inkscape:groupmode="layer"
     id="layer1">
    <path
       inkscape:connector-curvature="0"
       id="path846"
       style="fill:#ffffff;fill-opacity:1;fill-rule:nonzero;stroke:none;stroke-width:0.03527778"
       d="M 0.15785257,297.18921 H 210.15766 V 0.18910807 H 0.15785257 Z"
       inkscape:export-xdpi="150"
       inkscape:export-ydpi="150" />
    <g
       id="g848"
       transform="matrix(-0.02432071,0,0,-0.02432071,144.94293,204.97981)"
       inkscape:export-xdpi="150"
       inkscape:export-ydpi="150">
      <g
         clip-path="url(#clipPath854)"
         id="g850">
        <path
           inkscape:connector-curvature="0"
           id="path856"
           style="fill:#ffffff;fill-opacity:1;fill-rule:nonzero;stroke:none"
           d="m 2007.78,5736.51 -254.2,256.43 254.2,256.31 253.99,-256.31 -253.99,-256.43" />
        <path
           inkscape:connector-curvature="0"
           id="path858"
           style="fill:#feffff;fill-opacity:1;fill-rule:nonzero;stroke:none"
           d="m 2975.38,6224.99 -253.97,256.05 241.94,244.18 12.03,-12.13 v 0.01 l 229.83,-231.93 -0.13,-0.13 12.15,-12.24 -241.85,-243.81" />
        <path
           inkscape:connector-curvature="0"
           id="path860"
           style="fill:#f7f7f7;fill-opacity:1;fill-rule:nonzero;stroke:none"
           d="m 2007.78,7689.33 -254.2,256.3 242.05,244.05 12.15,-12.26 0.15,0.15 229.69,-231.82 -0.12,-0.12 0.13,-0.13 -241.84,-244.05 12.01,-12.11 -0.02,-0.01" />
        <path
           inkscape:connector-curvature="0"
           id="path862"
           style="fill:#f7f7f7;fill-opacity:1;fill-rule:nonzero;stroke:none"
           d="m 2237.75,7457.5 -229.95,231.84 -12.01,12.11 241.84,244.05 241.72,-243.93 -241.6,-244.07" />
        <path
           inkscape:connector-curvature="0"
           id="path864"
           style="fill:#fcfcfc;fill-opacity:1;fill-rule:nonzero;stroke:none"
           d="m 2491.47,7200.96 -253.97,256.29 0.25,0.25 241.6,244.07 0.11,-0.12 h -0.01 l 10.37,-10.45 1.65,-1.67 230.14,-231.81 -242.16,-244.17 12.15,-12.26 -0.13,-0.13" />
        <path
           inkscape:connector-curvature="0"
           id="path866"
           style="fill:#fafafa;fill-opacity:1;fill-rule:nonzero;stroke:none"
           d="m 2721.51,6969.26 -229.91,231.83 -12.15,12.26 242.16,244.17 0.03,-0.03 -0.23,-0.24 241.94,-244.16 -241.84,-243.83" />
        <path
           inkscape:connector-curvature="0"
           id="path868"
           style="fill:#fafafa;fill-opacity:1;fill-rule:nonzero;stroke:none"
           d="m 2975.38,6713.09 -12.03,12.13 -241.94,243.94 0.1,0.1 241.84,243.83 12.03,-12.13 0.13,0.13 229.69,-231.81 -0.12,-0.12 0.13,-0.13 -241.84,-243.8 12.01,-12.13 v -0.01" />
        <path
           inkscape:connector-curvature="0"
           id="path870"
           style="fill:#feffff;fill-opacity:1;fill-rule:nonzero;stroke:none"
           d="m 3205.21,6481.17 -229.83,231.93 -12.01,12.13 241.84,243.8 241.92,-243.69 -0.11,-0.11 0.12,-0.12 -241.93,-243.94" />
        <path
           inkscape:connector-curvature="0"
           id="path872"
           style="fill:#feffff;fill-opacity:1;fill-rule:nonzero;stroke:none"
           d="m 3447.26,6237.11 -230.03,231.69 -12.15,12.24 0.13,0.13 241.93,243.94 241.61,-244.06 -0.01,-0.01 -241.48,-243.93" />
        <path
           inkscape:connector-curvature="0"
           id="path874"
           style="fill:#feffff;fill-opacity:1;fill-rule:nonzero;stroke:none"
           d="m 3700.76,5980.56 -253.74,256.32 0.24,0.23 241.48,243.93 241.94,-243.93 -241.94,-244.17 12.14,-12.26 -0.12,-0.12" />
        <path
           inkscape:connector-curvature="0"
           id="path876"
           style="fill:#feffff;fill-opacity:1;fill-rule:nonzero;stroke:none"
           d="m 3942.7,5736.51 -241.82,244.17 -12.14,12.26 241.94,244.17 0.12,-0.12 -0.11,-0.11 241.84,-244.08 -241.84,-243.91 12.14,-12.25 -0.13,-0.13" />
        <path
           inkscape:connector-curvature="0"
           id="path878"
           style="fill:#ffffff;fill-opacity:1;fill-rule:nonzero;stroke:none"
           d="m 4184.67,5492.58 -241.84,244.06 -12.14,12.25 241.84,243.91 12.14,-12.24 0.13,0.13 241.82,-244.17 -241.95,-243.94 m 253.58,255.66 0.63,0.65 v 0 l -0.63,-0.65" />
        <path
           inkscape:connector-curvature="0"
           id="path880"
           style="fill:#f6f6f6;fill-opacity:1;fill-rule:nonzero;stroke:none"
           d="m 2007.78,8177.42 -12.15,12.26 -227.11,229.22 h 454.28 l -227.01,-229.09 12.14,-12.24 -0.15,-0.15" />
        <path
           inkscape:connector-curvature="0"
           id="path882"
           style="fill:#f7f7f7;fill-opacity:1;fill-rule:nonzero;stroke:none"
           d="m 2237.62,7945.75 -229.69,231.82 -12.14,12.24 227.01,229.09 h 29.63 l 226.91,-229.22 -241.72,-243.93" />
        <path
           inkscape:connector-curvature="0"
           id="path884"
           style="fill:#f7f7f7;fill-opacity:1;fill-rule:nonzero;stroke:none"
           d="m 2491.47,7689.33 -1.65,1.67 1.66,-1.67 h -0.01 m -12.01,12.12 -0.11,0.12 -241.72,243.93 -0.13,0.13 0.12,0.12 241.72,243.93 12.13,-12.26 0.13,0.13 229.91,-231.82 -0.1,-0.1 0.11,-0.11 -242.06,-244.07" />
        <path
           inkscape:connector-curvature="0"
           id="path886"
           style="fill:#f7f7f7;fill-opacity:1;fill-rule:nonzero;stroke:none"
           d="m 2721.64,7457.49 -0.03,0.03 -230.13,231.81 -1.66,1.67 -10.37,10.45 h 0.01 l 242.06,244.07 241.73,-243.95 -241.61,-244.08" />
        <path
           inkscape:connector-curvature="0"
           id="path888"
           style="fill:#f7f7f7;fill-opacity:1;fill-rule:nonzero;stroke:none"
           d="m 2975.38,7200.96 -12.03,12.13 -241.94,244.16 0.23,0.24 241.61,244.08 0.12,-0.12 v 0 l 0.89,-0.9 11.12,-11.22 229.94,-231.81 -241.95,-244.17 12.14,-12.26 -0.13,-0.13" />
        <path
           inkscape:connector-curvature="0"
           id="path890"
           style="fill:#f7f7f7;fill-opacity:1;fill-rule:nonzero;stroke:none"
           d="m 3205.2,6969.28 -229.69,231.81 -12.14,12.26 241.95,244.17 0.01,-0.01 -0.25,-0.26 242.18,-244.16 -242.06,-243.81" />
        <path
           inkscape:connector-curvature="0"
           id="path892"
           style="fill:#fcfcfc;fill-opacity:1;fill-rule:nonzero;stroke:none"
           d="m 3447.13,6725.34 -241.92,243.69 -0.13,0.13 0.12,0.12 242.06,243.81 6.47,-6.52 235.01,-237.41 v 0 l 0.01,-0.02 -241.62,-243.8" />
        <path
           inkscape:connector-curvature="0"
           id="path894"
           style="fill:#feffff;fill-opacity:1;fill-rule:nonzero;stroke:none"
           d="m 3688.75,6481.05 -241.61,244.06 -0.12,0.12 0.11,0.11 241.62,243.8 3.42,-3.44 8.59,-8.68 0.01,0.01 229.9,-231.81 -241.92,-244.17" />
        <path
           inkscape:connector-curvature="0"
           id="path896"
           style="fill:#feffff;fill-opacity:1;fill-rule:nonzero;stroke:none"
           d="m 3930.8,6236.99 -0.12,0.12 -241.94,243.93 0.01,0.01 241.92,244.17 12.03,-12.13 229.95,-232.04 -241.85,-244.06" />
        <path
           inkscape:connector-curvature="0"
           id="path898"
           style="fill:#fcfcfc;fill-opacity:1;fill-rule:nonzero;stroke:none"
           d="m 4184.67,5980.56 -12.14,12.24 -241.84,244.08 0.11,0.11 241.85,244.06 0.01,-0.01 v 0 l 2.65,-2.68 9.36,-9.44 229.93,-231.81 -241.94,-244.17 12.14,-12.25 -0.13,-0.13" />
        <path
           inkscape:connector-curvature="0"
           id="path900"
           style="fill:#feffff;fill-opacity:1;fill-rule:nonzero;stroke:none"
           d="m 4426.63,5736.51 -0.01,0.01 -241.82,244.17 -12.14,12.25 241.94,244.17 0.12,-0.11 -0.12,-0.12 241.71,-243.93 v -0.01 l 12.14,-12.26 -229.57,-231.79 -0.63,-0.65 -11.62,-11.73" />
        <path
           inkscape:connector-curvature="0"
           id="path902"
           style="fill:#ececeb;fill-opacity:1;fill-rule:nonzero;stroke:none"
           d="m 2491.47,8177.42 -12.13,12.26 -226.91,229.22 h 454.23 l -227.21,-229.09 12.15,-12.26 -0.13,-0.13" />
        <path
           inkscape:connector-curvature="0"
           id="path904"
           style="fill:#f6f6f6;fill-opacity:1;fill-rule:nonzero;stroke:none"
           d="m 2721.51,7945.73 -229.91,231.82 -12.15,12.26 227.21,229.09 h 29.68 l 226.9,-229.22 -241.73,-243.95" />
        <path
           inkscape:connector-curvature="0"
           id="path906"
           style="fill:#eaebe9;fill-opacity:1;fill-rule:nonzero;stroke:none"
           d="m 2975.38,7689.33 -11.12,11.22 11.12,-11.22 v 0 m -12.01,12.12 -0.12,0.12 -241.73,243.95 -0.11,0.11 0.1,0.1 241.73,243.95 12.14,-12.26 0.13,0.14 229.69,-231.81 -0.12,-0.12 0.13,-0.13 -241.84,-244.05" />
        <path
           inkscape:connector-curvature="0"
           id="path908"
           style="fill:#f6f5f5;fill-opacity:1;fill-rule:nonzero;stroke:none"
           d="m 3205.33,7457.51 -0.01,0.01 -229.94,231.81 -11.12,11.22 -0.89,0.9 241.84,244.05 241.94,-243.93 -0.13,-0.12 0.01,-0.02 -241.7,-243.92" />
        <path
           inkscape:connector-curvature="0"
           id="path910"
           style="fill:#f9fafa;fill-opacity:1;fill-rule:nonzero;stroke:none"
           d="m 3453.73,7206.57 -6.47,6.52 -242.18,244.16 0.25,0.26 241.7,243.92 241.72,-243.91 -241.73,-244.17 6.71,-6.78" />
        <path
           inkscape:connector-curvature="0"
           id="path912"
           style="fill:#f7f7f7;fill-opacity:1;fill-rule:nonzero;stroke:none"
           d="m 3700.76,6957.02 -8.59,8.68 8.6,-8.67 -0.01,-0.01 m -12.02,12.14 -235.01,237.41 -6.71,6.78 241.73,244.17 0.12,-0.13 -0.13,-0.14 241.94,-244.16 -241.94,-243.93" />
        <path
           inkscape:connector-curvature="0"
           id="path914"
           style="fill:#fbfbfa;fill-opacity:1;fill-rule:nonzero;stroke:none"
           d="m 3942.7,6713.09 -12.03,12.13 -229.9,231.81 -8.6,8.67 -3.42,3.44 -0.01,0.02 241.94,243.93 12.02,-12.13 0.14,0.13 229.81,-231.94 -241.96,-243.92 12.02,-12.13 -0.01,-0.01" />
        <path
           inkscape:connector-curvature="0"
           id="path916"
           style="fill:#fcfcfc;fill-opacity:1;fill-rule:nonzero;stroke:none"
           d="m 4184.67,6468.92 -9.36,9.44 9.36,-9.43 v -0.01 m -12.01,12.12 -0.01,0.01 -229.94,232.05 -12.02,12.13 241.96,243.92 12.02,-12.13 0.01,0.02 229.92,-231.82 -241.94,-244.18" />
        <path
           inkscape:connector-curvature="0"
           id="path918"
           style="fill:#fbfbfa;fill-opacity:1;fill-rule:nonzero;stroke:none"
           d="m 4414.72,6237 -0.12,0.11 -229.93,231.82 -9.36,9.43 -2.65,2.68 241.94,244.18 4.81,-4.85 237.04,-239.19 -0.14,-0.14 0.13,-0.13 L 4414.72,6237" />
        <path
           inkscape:connector-curvature="0"
           id="path920"
           style="fill:#fbfbfa;fill-opacity:1;fill-rule:nonzero;stroke:none"
           d="m 4656.31,5992.95 -241.71,243.93 0.12,0.12 241.72,243.91 241.82,-243.8 -241.95,-244.17" />
        <path
           inkscape:connector-curvature="0"
           id="path922"
           style="fill:#ffffff;fill-opacity:1;fill-rule:nonzero;stroke:none"
           d="m 4910.28,5736.51 -241.83,244.17 -12.14,12.26 241.95,244.17 0.12,-0.12 -0.11,-0.11 241.84,-244.08 -241.84,-243.91 12.14,-12.25 -0.13,-0.13" />
        <path
           inkscape:connector-curvature="0"
           id="path924"
           style="fill:#ffffff;fill-opacity:1;fill-rule:nonzero;stroke:none"
           d="m 5152.24,5492.58 -241.83,244.06 -12.14,12.25 241.84,243.91 12.13,-12.24 0.13,0.13 241.7,-244.05 -241.83,-244.06" />
        <path
           inkscape:connector-curvature="0"
           id="path926"
           style="fill:#efefef;fill-opacity:1;fill-rule:nonzero;stroke:none"
           d="m 2975.38,8177.42 -12.14,12.26 -226.9,229.22 h 454.04 l -227.01,-229.09 12.14,-12.25 -0.13,-0.14" />
        <path
           inkscape:connector-curvature="0"
           id="path928"
           style="fill:#eaebe9;fill-opacity:1;fill-rule:nonzero;stroke:none"
           d="m 3205.2,7945.75 -229.69,231.81 -12.14,12.25 227.01,229.09 h 29.64 l 227.12,-229.22 -241.94,-243.93" />
        <path
           inkscape:connector-curvature="0"
           id="path930"
           style="fill:#e6e5e3;fill-opacity:1;fill-rule:nonzero;stroke:none"
           d="m 3447.15,7701.57 -241.94,243.93 -0.13,0.13 0.12,0.12 241.94,243.93 5.1,-5.14 236.5,-238.91 v 0 l 0.01,-0.01 -241.6,-244.05" />
        <path
           inkscape:connector-curvature="0"
           id="path932"
           style="fill:#ececeb;fill-opacity:1;fill-rule:nonzero;stroke:none"
           d="m 3688.87,7457.39 -0.12,0.13 -241.72,243.91 -0.01,0.02 0.13,0.12 241.6,244.05 6.59,-6.66 5.42,-5.47 229.82,-231.92 -241.71,-244.18" />
        <path
           inkscape:connector-curvature="0"
           id="path934"
           style="fill:#f7f7f7;fill-opacity:1;fill-rule:nonzero;stroke:none"
           d="m 3942.7,7200.96 -12.02,12.13 -241.94,244.16 0.13,0.14 241.71,244.18 0.11,-0.12 v 0 l 4.99,-5.04 7.02,-7.08 229.94,-231.81 -241.95,-244.17 12.15,-12.26 -0.14,-0.13" />
        <path
           inkscape:connector-curvature="0"
           id="path936"
           style="fill:#f3f2f2;fill-opacity:1;fill-rule:nonzero;stroke:none"
           d="m 4184.67,6957.02 -12.02,12.13 -229.81,231.94 -12.15,12.26 241.95,244.17 0.14,-0.14 -0.12,-0.13 241.95,-244.16 -241.95,-243.93 12.02,-12.12 -0.01,-0.02" />
        <path
           inkscape:connector-curvature="0"
           id="path938"
           style="fill:#fbfbfa;fill-opacity:1;fill-rule:nonzero;stroke:none"
           d="m 4419.41,6720.37 -4.81,4.85 -229.92,231.82 -12.02,12.12 241.95,243.93 12.02,-12.13 0.12,0.12 229.69,-231.79 -0.13,-0.13 0.14,-0.14 -241.85,-243.79 4.81,-4.86" />
        <path
           inkscape:connector-curvature="0"
           id="path940"
           style="fill:#fbfbfa;fill-opacity:1;fill-rule:nonzero;stroke:none"
           d="m 4656.45,6481.18 -237.04,239.19 -4.81,4.86 241.85,243.79 241.8,-243.8 -241.8,-244.04" />
        <path
           inkscape:connector-curvature="0"
           id="path942"
           style="fill:#feffff;fill-opacity:1;fill-rule:nonzero;stroke:none"
           d="m 4898.38,6236.99 -0.12,0.12 -241.82,243.8 -0.13,0.13 0.14,0.14 241.8,244.04 12.03,-12.13 229.95,-232.04 -241.85,-244.06" />
        <path
           inkscape:connector-curvature="0"
           id="path944"
           style="fill:#feffff;fill-opacity:1;fill-rule:nonzero;stroke:none"
           d="m 5152.24,5980.56 -12.13,12.24 -241.84,244.08 0.11,0.11 241.85,244.06 0.01,-0.01 h -0.01 l 2.78,-2.8 9.23,-9.32 229.93,-231.81 -241.94,-244.17 12.14,-12.25 -0.13,-0.13" />
        <path
           inkscape:connector-curvature="0"
           id="path946"
           style="fill:#ffffff;fill-opacity:1;fill-rule:nonzero;stroke:none"
           d="m 5394.2,5736.51 -0.13,0.13 -241.7,244.05 -12.14,12.25 241.94,244.17 0.12,-0.12 -0.11,-0.11 253.84,-256.2 -241.82,-244.17" />
        <path
           inkscape:connector-curvature="0"
           id="path948"
           style="fill:#ececeb;fill-opacity:1;fill-rule:nonzero;stroke:none"
           d="m 3452.24,8184.54 -5.1,5.14 -227.12,229.22 h 453.8 l -226.8,-229.09 5.22,-5.27" />
        <path
           inkscape:connector-curvature="0"
           id="path950"
           style="fill:#f1f2f2;fill-opacity:1;fill-rule:nonzero;stroke:none"
           d="m 3700.76,7933.49 -5.42,5.47 5.42,-5.47 v 0 m -12.02,12.14 -236.5,238.91 -5.22,5.27 226.8,229.09 h 29.85 l 226.9,-229.22 -241.83,-244.05" />
        <path
           inkscape:connector-curvature="0"
           id="path952"
           style="fill:#f1f2f2;fill-opacity:1;fill-rule:nonzero;stroke:none"
           d="m 3942.7,7689.33 -7.02,7.08 7.03,-7.08 h -0.01 m -12.01,12.12 -0.11,0.12 -229.82,231.92 -5.42,5.47 -6.59,6.66 -0.01,0.01 241.83,244.05 12.13,-12.26 0.14,0.13 229.81,-231.93 -241.96,-244.17" />
        <path
           inkscape:connector-curvature="0"
           id="path954"
           style="fill:#f0f1f1;fill-opacity:1;fill-rule:nonzero;stroke:none"
           d="m 4172.78,7457.38 -0.14,0.14 -229.93,231.81 -7.03,7.08 -4.99,5.04 241.96,244.17 12.02,-12.13 v 0.01 l 229.83,-231.93 -241.72,-244.19" />
        <path
           inkscape:connector-curvature="0"
           id="path956"
           style="fill:#fafafa;fill-opacity:1;fill-rule:nonzero;stroke:none"
           d="m 4426.63,7200.96 -12.02,12.13 -241.95,244.16 0.12,0.13 241.72,244.19 0.11,-0.11 -0.01,-0.01 241.97,-243.93 -0.26,-0.27 -241.71,-243.9 12.15,-12.27 -0.12,-0.12" />
        <path
           inkscape:connector-curvature="0"
           id="path958"
           style="fill:#fafafa;fill-opacity:1;fill-rule:nonzero;stroke:none"
           d="m 4656.44,6969.29 -229.69,231.79 -12.15,12.27 241.71,243.9 241.95,-244.16 -241.82,-243.8" />
        <path
           inkscape:connector-curvature="0"
           id="path960"
           style="fill:#f7f7f7;fill-opacity:1;fill-rule:nonzero;stroke:none"
           d="m 4910.28,6713.09 -12.03,12.13 -241.8,243.8 -0.14,0.14 0.13,0.13 241.82,243.8 12.02,-12.13 0.13,0.13 229.82,-231.94 -241.96,-243.92 12.02,-12.13 -0.01,-0.01" />
        <path
           inkscape:connector-curvature="0"
           id="path962"
           style="fill:#f1f2f2;fill-opacity:1;fill-rule:nonzero;stroke:none"
           d="m 5152.24,6468.92 -9.23,9.32 9.24,-9.31 -0.01,-0.01 m -12,12.12 -0.01,0.01 -229.94,232.05 -12.02,12.13 241.96,243.92 12.01,-12.13 0.02,0.02 229.91,-231.82 -241.94,-244.18" />
        <path
           inkscape:connector-curvature="0"
           id="path964"
           style="fill:#fafafa;fill-opacity:1;fill-rule:nonzero;stroke:none"
           d="m 5382.29,6236.99 -0.12,0.12 -229.92,231.82 -9.24,9.31 -2.78,2.8 241.94,244.18 12.03,-12.13 229.81,-231.93 -0.12,-0.12 0.11,-0.11 -241.71,-243.94" />
        <path
           inkscape:connector-curvature="0"
           id="path966"
           style="fill:#fafafa;fill-opacity:1;fill-rule:nonzero;stroke:none"
           d="m 5636.14,5980.56 -0.12,0.12 -253.84,256.2 0.11,0.11 241.71,243.94 241.83,-243.82 -241.94,-244.17 12.26,-12.38 h -0.01" />
        <path
           inkscape:connector-curvature="0"
           id="path968"
           style="fill:#ffffff;fill-opacity:1;fill-rule:nonzero;stroke:none"
           d="m 5952.75,5812.06 v 337.21 l 0.41,-0.42 v -336.38 l -0.41,-0.41" />
        <path
           inkscape:connector-curvature="0"
           id="path970"
           style="fill:#ffffff;fill-opacity:1;fill-rule:nonzero;stroke:none"
           d="m 5877.86,5736.51 -241.71,244.05 -12.26,12.38 241.94,244.17 0.14,-0.13 -0.1,-0.1 86.88,-87.61 v -337.21 l -74.89,-75.55" />
        <path
           inkscape:connector-curvature="0"
           id="path972"
           style="fill:#e5e4e3;fill-opacity:1;fill-rule:nonzero;stroke:none"
           d="m 3942.7,8177.42 -12.13,12.26 -226.9,229.22 h 454.03 l -227.01,-229.09 12.15,-12.26 -0.14,-0.13" />
        <path
           inkscape:connector-curvature="0"
           id="path974"
           style="fill:#f1f2f2;fill-opacity:1;fill-rule:nonzero;stroke:none"
           d="m 4184.67,7933.49 -12.02,12.13 -229.81,231.93 -12.15,12.26 227.01,229.09 h 29.88 l 226.91,-229.22 -241.83,-244.05 12.01,-12.13 v -0.01" />
        <path
           inkscape:connector-curvature="0"
           id="path976"
           style="fill:#f0f1f1;fill-opacity:1;fill-rule:nonzero;stroke:none"
           d="m 4414.61,7701.46 -0.11,0.11 -229.83,231.93 -12.01,12.13 241.83,244.05 12.14,-12.26 0.12,0.13 229.69,-231.79 -0.13,-0.13 0.14,-0.14 -241.84,-244.03" />
        <path
           inkscape:connector-curvature="0"
           id="path978"
           style="fill:#f6f5f5;fill-opacity:1;fill-rule:nonzero;stroke:none"
           d="m 4656.57,7457.52 -241.97,243.93 0.01,0.01 241.84,244.03 241.71,-243.92 -241.59,-244.05" />
        <path
           inkscape:connector-curvature="0"
           id="path980"
           style="fill:#f9fafa;fill-opacity:1;fill-rule:nonzero;stroke:none"
           d="m 4910.28,7200.96 -12.02,12.13 -241.95,244.16 0.26,0.27 241.59,244.05 0.11,-0.12 v 0 l 2.64,-2.66 9.37,-9.46 229.94,-231.81 -241.95,-244.17 12.14,-12.26 -0.13,-0.13" />
        <path
           inkscape:connector-curvature="0"
           id="path982"
           style="fill:#f0f1f1;fill-opacity:1;fill-rule:nonzero;stroke:none"
           d="m 5152.24,6957.02 -12.01,12.13 -229.82,231.94 -12.14,12.26 241.95,244.17 0.14,-0.14 -0.13,-0.13 241.95,-244.16 -241.95,-243.93 12.03,-12.12 -0.02,-0.02" />
        <path
           inkscape:connector-curvature="0"
           id="path984"
           style="fill:#f1f2f2;fill-opacity:1;fill-rule:nonzero;stroke:none"
           d="m 5394.2,6713.09 -12.03,12.13 -229.91,231.82 -12.03,12.12 241.95,243.93 12.02,-12.13 0.12,0.13 229.68,-231.82 -0.11,-0.11 0.12,-0.13 -241.83,-243.8 12.02,-12.14 v 0" />
        <path
           inkscape:connector-curvature="0"
           id="path986"
           style="fill:#f0f1f1;fill-opacity:1;fill-rule:nonzero;stroke:none"
           d="m 5624.01,6481.16 -229.81,231.93 -12.02,12.14 241.83,243.8 241.82,-243.81 -241.82,-244.06" />
        <path
           inkscape:connector-curvature="0"
           id="path988"
           style="fill:#fbfcfc;fill-opacity:1;fill-rule:nonzero;stroke:none"
           d="m 5952.75,6324.48 v 313.14 l 0.41,-0.41 v -312.32 l -0.41,-0.41" />
        <path
           inkscape:connector-curvature="0"
           id="path990"
           style="fill:#fcfcfc;fill-opacity:1;fill-rule:nonzero;stroke:none"
           d="m 5865.97,6236.98 -0.14,0.13 -241.83,243.82 -0.11,0.11 0.12,0.12 241.82,244.06 12.03,-12.13 0.02,0.02 74.87,-75.49 v -313.14 l -86.78,-87.5" />
        <path
           inkscape:connector-curvature="0"
           id="path992"
           style="fill:#fdfefe;fill-opacity:1;fill-rule:nonzero;stroke:none"
           d="m 5953.16,6148.85 -0.41,0.42 v 175.21 l 0.41,0.41 v -176.04" />
        <path
           inkscape:connector-curvature="0"
           id="path994"
           style="fill:#fdfdfd;fill-opacity:1;fill-rule:nonzero;stroke:none"
           d="m 5952.75,6149.27 -86.88,87.61 0.1,0.1 86.78,87.5 v -175.21" />
        <path
           inkscape:connector-curvature="0"
           id="path996"
           style="fill:#e9e9e8;fill-opacity:1;fill-rule:nonzero;stroke:none"
           d="m 4426.63,8177.42 -12.14,12.26 -226.91,229.22 h 454.05 l -227.03,-229.09 12.15,-12.26 -0.12,-0.13" />
        <path
           inkscape:connector-curvature="0"
           id="path998"
           style="fill:#f0f1f1;fill-opacity:1;fill-rule:nonzero;stroke:none"
           d="m 4656.44,7945.76 -229.69,231.79 -12.15,12.26 227.03,229.09 h 29.6 l 226.91,-229.22 -241.7,-243.92" />
        <path
           inkscape:connector-curvature="0"
           id="path1000"
           style="fill:#f4f4f3;fill-opacity:1;fill-rule:nonzero;stroke:none"
           d="m 4910.28,7689.33 -9.37,9.46 9.38,-9.46 h -0.01 m -12.01,12.12 -0.11,0.12 -241.71,243.92 -0.14,0.14 0.13,0.13 241.7,243.92 12.14,-12.26 0.14,0.14 229.81,-231.94 -241.96,-244.17" />
        <path
           inkscape:connector-curvature="0"
           id="path1002"
           style="fill:#f3f2f2;fill-opacity:1;fill-rule:nonzero;stroke:none"
           d="m 5140.36,7457.38 -0.14,0.14 -229.93,231.81 -9.38,9.46 -2.64,2.66 241.96,244.17 12.01,-12.13 0.01,0.01 229.82,-231.93 -241.71,-244.19" />
        <path
           inkscape:connector-curvature="0"
           id="path1004"
           style="fill:#f7f7f7;fill-opacity:1;fill-rule:nonzero;stroke:none"
           d="m 5394.2,7200.96 -12.02,12.13 -241.95,244.16 0.13,0.13 241.71,244.19 0.11,-0.12 v 0 l 241.94,-243.93 -241.94,-244.17 12.14,-12.26 -0.12,-0.13" />
        <path
           inkscape:connector-curvature="0"
           id="path1006"
           style="fill:#f7f7f7;fill-opacity:1;fill-rule:nonzero;stroke:none"
           d="m 5624,6969.27 -229.68,231.82 -12.14,12.26 241.94,244.17 0.01,-0.02 -0.24,-0.25 241.95,-244.16 L 5624,6969.27" />
        <path
           inkscape:connector-curvature="0"
           id="path1008"
           style="fill:#f2f2f1;fill-opacity:1;fill-rule:nonzero;stroke:none"
           d="m 5952.75,6812.74 v 313 l 0.41,-0.42 v -312.17 l -0.41,-0.41" />
        <path
           inkscape:connector-curvature="0"
           id="path1010"
           style="fill:#f1f2f2;fill-opacity:1;fill-rule:nonzero;stroke:none"
           d="m 5877.86,6713.09 -12.03,12.13 -241.82,243.81 -0.12,0.13 0.11,0.11 241.84,243.82 12.02,-12.13 0.15,0.15 74.74,-75.37 v -313 l -86.88,-87.51 12.01,-12.12 -0.02,-0.02" />
        <path
           inkscape:connector-curvature="0"
           id="path1012"
           style="fill:#f4f4f4;fill-opacity:1;fill-rule:nonzero;stroke:none"
           d="m 5953.16,6637.21 -0.41,0.41 v 175.12 l 0.41,0.41 v -175.94" />
        <path
           inkscape:connector-curvature="0"
           id="path1014"
           style="fill:#f4f4f3;fill-opacity:1;fill-rule:nonzero;stroke:none"
           d="m 5952.75,6637.62 -74.87,75.49 -12.01,12.12 86.88,87.51 v -175.12" />
        <path
           inkscape:connector-curvature="0"
           id="path1016"
           style="fill:#f0f1f1;fill-opacity:1;fill-rule:nonzero;stroke:none"
           d="m 4910.28,8177.42 -12.14,12.26 -226.91,229.22 h 454.05 l -227.01,-229.09 12.15,-12.25 -0.14,-0.14" />
        <path
           inkscape:connector-curvature="0"
           id="path1018"
           style="fill:#f7f7f7;fill-opacity:1;fill-rule:nonzero;stroke:none"
           d="m 5152.24,7933.49 -12.01,12.13 -229.81,231.94 -12.15,12.25 227.01,229.09 h 29.88 l 226.9,-229.22 -241.83,-244.05 12.02,-12.13 -0.01,-0.01" />
        <path
           inkscape:connector-curvature="0"
           id="path1020"
           style="fill:#f1f2f2;fill-opacity:1;fill-rule:nonzero;stroke:none"
           d="m 5382.18,7701.45 -0.11,0.12 -229.82,231.93 -12.02,12.13 241.83,244.05 12.14,-12.26 0.13,0.13 229.67,-231.8 -0.11,-0.12 0.12,-0.13 -241.83,-244.05" />
        <path
           inkscape:connector-curvature="0"
           id="path1022"
           style="fill:#f0f0f0;fill-opacity:1;fill-rule:nonzero;stroke:none"
           d="m 5624.13,7457.5 -0.01,0.02 -241.94,243.93 241.83,244.05 241.72,-243.93 -241.6,-244.07" />
        <path
           inkscape:connector-curvature="0"
           id="path1024"
           style="fill:#f1f1f1;fill-opacity:1;fill-rule:nonzero;stroke:none"
           d="m 5952.75,7300.95 v 312.98 l 0.41,-0.41 v -312.16 l -0.41,-0.41" />
        <path
           inkscape:connector-curvature="0"
           id="path1026"
           style="fill:#f0f1f1;fill-opacity:1;fill-rule:nonzero;stroke:none"
           d="m 5877.86,7200.96 -12.02,12.13 -241.95,244.16 0.24,0.25 241.6,244.07 12.13,-12.24 0.02,0.02 74.87,-75.42 v -312.98 l -86.88,-87.6 12.14,-12.24 -0.15,-0.15" />
        <path
           inkscape:connector-curvature="0"
           id="path1028"
           style="fill:#f3f3f2;fill-opacity:1;fill-rule:nonzero;stroke:none"
           d="m 5953.16,7125.32 -0.41,0.42 v 175.21 l 0.41,0.41 v -176.04" />
        <path
           inkscape:connector-curvature="0"
           id="path1030"
           style="fill:#f3f2f2;fill-opacity:1;fill-rule:nonzero;stroke:none"
           d="m 5952.75,7125.74 -74.74,75.37 -12.14,12.24 86.88,87.6 v -175.21" />
        <path
           inkscape:connector-curvature="0"
           id="path1032"
           style="fill:#dfdfdd;fill-opacity:1;fill-rule:nonzero;stroke:none"
           d="m 5394.2,8177.42 -12.14,12.26 -226.9,229.22 h 454.02 l -227,-229.09 12.15,-12.26 -0.13,-0.13" />
        <path
           inkscape:connector-curvature="0"
           id="path1034"
           style="fill:#f1f2f2;fill-opacity:1;fill-rule:nonzero;stroke:none"
           d="m 5624,7945.75 -229.67,231.8 -12.15,12.26 227,229.09 h 29.63 L 5865.72,8189.68 5624,7945.75" />
        <path
           inkscape:connector-curvature="0"
           id="path1036"
           style="fill:#f4f4f4;fill-opacity:1;fill-rule:nonzero;stroke:none"
           d="m 5952.75,7789.05 v 313.15 l 0.41,-0.41 v -312.33 l -0.41,-0.41" />
        <path
           inkscape:connector-curvature="0"
           id="path1038"
           style="fill:#f4f4f3;fill-opacity:1;fill-rule:nonzero;stroke:none"
           d="m 5877.86,7689.33 -12.13,12.24 -241.72,243.93 -0.12,0.13 0.11,0.12 241.72,243.93 12.14,-12.26 0.15,0.15 74.74,-75.37 v -313.15 l -86.88,-87.6 12.01,-12.1 -0.02,-0.02" />
        <path
           inkscape:connector-curvature="0"
           id="path1040"
           style="fill:#d8d7d6;fill-opacity:1;fill-rule:nonzero;stroke:none"
           d="m 5953.16,7613.52 -0.41,0.41 v 175.12 l 0.41,0.41 v -175.94" />
        <path
           inkscape:connector-curvature="0"
           id="path1042"
           style="fill:#d8d7d5;fill-opacity:1;fill-rule:nonzero;stroke:none"
           d="m 5952.75,7613.93 -74.87,75.42 -12.01,12.1 86.88,87.6 v -175.12" />
        <path
           inkscape:connector-curvature="0"
           id="path1044"
           style="fill:#efefef;fill-opacity:1;fill-rule:nonzero;stroke:none"
           d="m 5952.75,8277.41 v 141.49 h 0.41 v -141.07 l -0.41,-0.42" />
        <path
           inkscape:connector-curvature="0"
           id="path1046"
           style="fill:#efefef;fill-opacity:1;fill-rule:nonzero;stroke:none"
           d="m 5877.86,8177.42 -12.14,12.26 -226.91,229.22 h 313.94 v -141.49 l -86.88,-87.6 12.14,-12.24 -0.15,-0.15" />
        <path
           inkscape:connector-curvature="0"
           id="path1048"
           style="fill:#f6f6f6;fill-opacity:1;fill-rule:nonzero;stroke:none"
           d="m 5953.16,8101.79 -0.41,0.41 v 175.21 l 0.41,0.42 v -176.04" />
        <path
           inkscape:connector-curvature="0"
           id="path1050"
           style="fill:#f6f6f6;fill-opacity:1;fill-rule:nonzero;stroke:none"
           d="m 5952.75,8102.2 -74.74,75.37 -12.14,12.24 86.88,87.6 V 8102.2" />
      </g>
    </g>
    <path
       inkscape:connector-curvature="0"
       id="path1052"
       style="fill:#2e75a3;fill-opacity:1;fill-rule:nonzero;stroke:none;stroke-width:0.03527778"
       d="M 210.15766,0.22617796 H 0.15785257 V 7.6345118 H 210.15766 V 0.22617796"
       inkscape:export-xdpi="150"
       inkscape:export-ydpi="150" />
    <path
       inkscape:connector-curvature="0"
       id="path1182"
       style="fill:#004c7f;fill-opacity:1;fill-rule:nonzero;stroke:none;stroke-width:0.02691313"
       d="M 0.20139876,289.73922 H 210.2014 v 7.44999 H 0.20139876 v -7.44999"
       inkscape:export-xdpi="150"
       inkscape:export-ydpi="150" />
    <path
       inkscape:connector-curvature="0"
       id="path1184"
       style="fill:#2e75a3;fill-opacity:1;fill-rule:nonzero;stroke:none;stroke-width:0.0273688"
       d="M 44.896533,297.15214 H 0.15785257 V 282.09579 H 38.160251 l 6.736282,15.05635"
       inkscape:export-xdpi="150"
       inkscape:export-ydpi="150" />
  </g>
</svg>
