<?xml version="1.0"?>
<svg width="640" height="480" xmlns="http://www.w3.org/2000/svg" xmlns:svg="http://www.w3.org/2000/svg">
 <!-- Created with SVG-edit - http://svg-edit.googlecode.com/ -->
 <g>
  <title>Layer 1</title>
  <path d="m251.833344,223.833344c0,2.625336 0,3.482666 0,4.290161c0,0.963165 0.025406,1.778748 -0.035995,2.505844c-0.087982,1.041809 -0.414047,1.959854 -0.611343,2.599487c-0.307632,0.997314 -0.368271,1.913635 -0.436661,2.46051c-0.176331,1.410019 -0.274826,1.837723 -0.436829,2.810669c-0.090775,0.545181 -0.288895,1.762833 -0.479172,3.166656c-0.104797,0.773224 -0.201584,1.590637 -0.304504,2.443512c-0.106415,0.88179 -0.213882,1.785965 -0.331497,2.704498c-0.118713,0.927155 -0.231674,1.857452 -0.53067,3.685333c-0.145889,0.891937 -0.314468,1.764282 -0.481491,2.623489c-0.164993,0.848801 -0.334702,1.688309 -0.490509,2.524506c-0.155182,0.832825 -0.320572,1.664246 -0.528,3.35199c-0.104797,0.852692 -0.169586,1.714264 -0.218994,2.576996c-0.04924,0.859985 -0.076569,1.7146 -0.093002,2.559021c-0.016159,0.830261 -0.019638,1.64267 -0.021332,3.197327c-0.000793,0.735321 0.000549,1.442688 -0.009003,2.123993c-0.009216,0.65741 -0.026062,1.29303 -0.063004,1.90802c-0.035904,0.597748 -0.068314,1.183472 -0.261322,2.301331c-0.094543,0.547607 -0.221588,1.082306 -0.517334,2.109314c-0.143036,0.496704 -0.456253,1.434937 -0.581345,1.885345c-0.440811,1.587219 -0.524841,2.277039 -0.55899,3.148651c-0.041199,1.05188 0.086014,1.922882 0.727829,2.318848c0.609955,0.376312 2.095779,0.546234 2.570663,0.583008c1.077026,0.083405 1.67244,0.088165 2.296677,0.100647c0.649109,0.01297 2.002502,0.020172 3.395828,0.020844c0.700333,0.000336 1.402664,0 2.108994,0c0.712326,0 1.432663,0 2.16301,0c1.498657,0 3.06134,0 3.871002,0c0.827667,0 1.671326,0 2.528992,0c0.869659,0 1.749329,0 2.636993,0c0.893677,0 2.69101,0 3.591187,0c0.901154,0 1.804321,0 2.71048,0c0.910187,0 1.825348,0 2.746521,0c0.928162,0 2.809479,0 3.763153,0c0.955658,0 1.905334,0 2.841003,0c0.913666,0 1.797333,0 2.643005,0c0.799652,0 2.229004,0 2.847504,0c0.569489,0 1.110992,0 1.645477,0c0.548523,0 1.132019,0 1.771515,0c0.716492,0 2.464508,0 3.53183,0c1.191345,0 2.490662,0 3.881989,0c1.467346,0 2.99469,0 4.56601,0c1.599335,0 4.817993,0.001007 6.407837,-0.000336c1.568848,-0.001312 3.115692,-0.004517 4.639496,-0.020996c1.499908,-0.016235 2.974915,-0.043121 4.423492,-0.092987c1.422119,-0.04895 4.181396,-0.208618 5.515503,-0.328674c1.305969,-0.117523 2.581055,-0.263397 3.825012,-0.429016c1.216064,-0.161896 2.400879,-0.343903 3.554993,-0.536987c1.125885,-0.188354 3.285461,-0.588623 4.320007,-0.790833c1.005463,-0.196533 1.980225,-0.394623 2.924988,-0.589508c0.915222,-0.188812 1.799957,-0.375031 2.654999,-0.553497c0.824951,-0.17218 2.384583,-0.492737 3.120331,-0.635498c0.706909,-0.137146 1.388153,-0.263092 2.046021,-0.375c0.634827,-0.107971 1.250122,-0.203888 1.847992,-0.285004c0.580841,-0.078796 1.703674,-0.199127 2.24884,-0.240173c0.533539,-0.040192 1.055542,-0.067108 1.564484,-0.08548c0.494751,-0.017853 0.97464,-0.026794 1.438507,-0.031525c0.446838,-0.004547 1.285492,-0.005035 1.675842,-0.004333c0.372314,0.000671 0.728729,0.002167 1.070984,0.010529c0.330414,0.008057 0.65094,0.021576 0.963013,0.046478c0.306641,0.024475 0.909729,0.10556 1.208832,0.164185c0.299622,0.058716 0.596039,0.129883 0.889496,0.203979c0.290192,0.073273 0.574402,0.150391 0.853516,0.222015c0.271576,0.069672 0.790039,0.188599 1.036499,0.231659c0.241547,0.042206 0.486267,0.075592 0.737976,0.117004c0.266327,0.043823 0.55307,0.09668 0.864014,0.17099c0.345276,0.08252 1.153198,0.32962 1.626678,0.497162c0.523987,0.185425 1.087799,0.408142 2.358643,0.856689c0.69281,0.244537 1.423126,0.492584 2.196014,0.712494c1.629028,0.463531 2.500763,0.631439 3.395996,0.799988c0.920471,0.173309 1.870728,0.326263 2.84549,0.487518c0.999908,0.165436 2.026001,0.329254 3.070496,0.532501c2.163818,0.421051 3.269806,0.703766 4.393341,0.998657c1.139191,0.299011 2.282684,0.623993 3.432007,0.947998c1.149323,0.324005 2.291565,0.653748 3.432007,0.947998c2.228821,0.575043 3.323578,0.795258 4.397339,1c1.054993,0.201141 2.098816,0.375183 3.128998,0.552002c1.020477,0.175171 2.035645,0.343109 3.039001,0.552002c2.009064,0.418274 3.004456,0.703369 3.997314,0.998657c0.989868,0.294403 1.962921,0.613953 2.921997,0.928497c0.939575,0.308136 1.850677,0.618774 2.742004,0.883514c1.667572,0.4953 2.453186,0.664734 3.202667,0.79599c0.716858,0.125549 1.415222,0.20697 2.097015,0.257996c0.670349,0.050171 1.337921,0.070374 2.006989,0.078003c1.36792,0.015625 2.076843,0.005341 2.798676,0.005341c0.727814,0 1.454651,0 2.173492,0c0.703827,0 1.385681,0 2.038513,0c1.190643,0 1.716156,0 2.194641,0c0.434509,0 0.828003,0 1.183502,0c0.320496,0 0.609009,0 0.8685,0c0.444,0 0.634338,0 0.806671,0c0.156342,0 0.298676,0.000244 0.429016,0c0.740326,-0.001343 1.576416,-0.450897 1.458984,-1.221344c-0.157227,-1.031494 -0.803589,-1.607849 -1.174652,-2.08667c-0.918335,-1.185059 -1.159943,-1.560028 -1.722351,-2.363495c-0.306915,-0.438446 -1.002441,-1.367737 -1.410645,-1.84198c-0.428864,-0.49826 -1.435883,-1.494812 -2.022675,-1.992523c-0.649933,-0.55127 -1.424133,-1.152496 -2.319,-1.877991c-1.063019,-0.861847 -2.31781,-1.902161 -3.777008,-3.174011c-1.723755,-1.502441 -6.000153,-5.432373 -8.59433,-7.909821c-2.873505,-2.744202 -5.921326,-5.718903 -9.089996,-8.833496c-3.228088,-3.173004 -6.428802,-6.348526 -9.540009,-9.445496c-2.955353,-2.941818 -8.100311,-8.086197 -10.171326,-10.158005c-1.739594,-1.740265 -3.186218,-3.187454 -4.373993,-4.384506c-0.972626,-0.980225 -1.765747,-1.785034 -2.412018,-2.458496c-0.547943,-0.570999 -1.477814,-1.583878 -1.931335,-2.095673c-0.469208,-0.529495 -0.949402,-1.083679 -1.445984,-1.660492c-0.516113,-0.599518 -1.050415,-1.22554 -1.608002,-1.876495c-0.581085,-0.678391 -1.81955,-2.123413 -2.492004,-2.885513c-0.711304,-0.806152 -1.486359,-1.65744 -2.364014,-2.537994c-0.955475,-0.958633 -2.041626,-1.968674 -3.281982,-3.024002c-1.366425,-1.162582 -4.673889,-3.689133 -6.636993,-5.064835c-2.124084,-1.488495 -4.428101,-3.015884 -6.873016,-4.588501c-2.542847,-1.63559 -5.186096,-3.280289 -7.898987,-4.930496c-2.743073,-1.668579 -8.272034,-4.930115 -11.013184,-6.502167c-2.708282,-1.553207 -5.405487,-3.066147 -8.09848,-4.541992c-2.681396,-1.469482 -5.372833,-2.909927 -8.080505,-4.326004c-2.717682,-1.42131 -8.248383,-4.224304 -11.071167,-5.6185c-2.854523,-1.409882 -5.750671,-2.814407 -8.679016,-4.231506c-2.958984,-1.431915 -5.950928,-2.872635 -8.96698,-4.339493c-3.045319,-1.48111 -9.204498,-4.521606 -12.311188,-6.09317c-3.134674,-1.585724 -6.286255,-3.207596 -9.46048,-4.854004c-3.202118,-1.660889 -6.42572,-3.348618 -9.676514,-5.052002c-3.278549,-1.717941 -9.917892,-5.199066 -13.282333,-6.949493c-3.37822,-1.757584 -6.760651,-3.506882 -10.138489,-5.230499c-3.349869,-1.709335 -6.666061,-3.381302 -9.940506,-4.996506c-3.204346,-1.580627 -9.385574,-4.532425 -12.342331,-5.880493c-2.850174,-1.299484 -5.617645,-2.515366 -8.302505,-3.66301c-2.59697,-1.110077 -5.124619,-2.156998 -7.582504,-3.158997c-2.38884,-0.973862 -6.997498,-2.817001 -9.222488,-3.706993c-2.175003,-0.870003 -4.300003,-1.720009 -6.375,-2.550003c-2.025009,-0.810005 -4,-1.599998 -5.925003,-2.370003c-1.875,-0.75 -5.474472,-2.191338 -7.199997,-2.879494c-1.674484,-0.667801 -3.297821,-1.312675 -4.875,-1.918503c-1.522919,-0.584984 -2.996216,-1.134758 -4.425003,-1.630501c-1.371445,-0.475853 -3.970734,-1.27803 -5.200668,-1.587166c-1.175797,-0.295532 -2.314896,-0.531311 -3.416992,-0.717003c-1.063492,-0.179184 -2.100311,-0.311256 -3.111008,-0.410995c-0.986755,-0.097374 -2.912811,-0.217171 -3.856827,-0.258171c-0.926666,-0.040253 -1.829605,-0.066986 -2.701508,-0.085495c-0.833786,-0.0177 -1.62265,-0.026695 -2.359497,-0.031502c-0.677841,-0.004417 -1.828506,-0.005104 -2.290497,-0.004333c-0.393997,0.000656 -0.732071,0.001709 -1.026001,0.010498c-0.262085,0.007835 -0.504318,0.02211 -0.738007,0.046501c-0.238358,0.024879 -0.775009,0.104065 -1.094162,0.166168c-0.362419,0.070518 -0.769257,0.169144 -1.210503,0.330002c-0.496201,0.180893 -1.035812,0.435349 -1.606499,0.779999c-0.640556,0.386848 -2.042816,1.485619 -2.802834,2.202332c-0.828125,0.780937 -1.665192,1.662888 -2.519997,2.607002c-0.882202,0.974373 -1.752106,1.99012 -2.610001,3.020996c-0.84874,1.019867 -2.43338,3.000359 -3.157669,3.931335c-0.696922,0.895805 -1.371979,1.784691 -2.042999,2.684998c-0.690399,0.9263 -1.406403,1.905884 -2.168999,2.955002c-0.826828,1.137497 -2.727089,3.764938 -3.828835,5.285995c-1.192924,1.646942 -2.459251,3.394867 -3.775505,5.223007c-1.353462,1.879822 -2.722092,3.789566 -4.081497,5.709c-1.343231,1.896606 -3.881691,5.54213 -5.035667,7.253998c-1.095009,1.624405 -2.119629,3.186111 -3.073502,4.701004c-0.920166,1.461365 -1.787735,2.897964 -2.605499,4.322998c-0.807487,1.40712 -2.336418,4.263992 -3.071495,5.733994c-0.745087,1.490005 -1.469704,3.015579 -2.175003,4.574997c-0.714867,1.580582 -1.40947,3.196106 -2.084999,4.845001c-0.684624,1.671097 -2.003204,5.11203 -2.639999,6.879013c-0.643303,1.785019 -1.265396,3.592178 -1.875,5.411987c-0.610405,1.822205 -1.202812,3.64711 -1.785004,5.466003c-0.577782,1.805115 -1.696114,5.357651 -2.240166,7.094498c-0.537262,1.715149 -1.067902,3.417908 -1.585495,5.119507c-0.518753,1.705414 -1.031036,3.426346 -1.531502,5.173492c-0.508972,1.776855 -1.510994,5.468826 -2.00367,7.396332c-0.500771,1.959167 -0.98336,3.930466 -1.447502,5.887512c-0.454094,1.914673 -0.878052,3.76561 -1.267494,5.527496c-0.363579,1.644867 -0.958897,4.491257 -1.178337,5.65033c-0.186264,0.983826 -0.328388,1.812683 -0.427498,2.503494c-0.081356,0.567078 -0.132298,1.030243 -0.157501,1.405502c-0.02039,0.303558 -0.024696,0.766525 -0.021832,0.957336c0.00264,0.175888 0.009689,0.343033 0.042,0.502502c0.032944,0.162582 0.093975,0.330399 0.186001,0.502502c0.104492,0.195419 0.427994,0.646317 0.664665,0.904663c0.294636,0.321609 0.721249,0.693115 1.32,1.111496c0.771706,0.53923 1.803909,1.146698 3.120003,1.849503c1.615387,0.86264 5.993874,2.952087 8.810165,4.214508c3.184303,1.427383 6.700378,2.945282 10.480499,4.547989c3.976028,1.68576 8.101997,3.400116 12.316498,5.123993c4.234833,1.732178 12.555771,5.061554 16.541832,6.614838c3.872734,1.509125 7.687119,2.963165 11.487,4.37851c3.818802,1.422394 7.71196,2.838257 11.721008,4.270508c4.161514,1.486725 13.141144,4.626831 18.026001,6.311981c5.099075,1.759064 10.345154,3.551392 15.668991,5.341522c5.320175,1.788879 10.571518,3.529846 15.686996,5.179474c4.892746,1.577789 13.753555,4.314514 17.6035,5.40152c3.450989,0.974365 6.569138,1.782837 9.397507,2.438995c2.567352,0.595612 4.936966,1.072693 7.147507,1.46701c2.089737,0.372772 6.112244,0.982605 8.119492,1.280487c2.008759,0.298126 4.001678,0.589294 5.960999,0.8685c1.906677,0.271729 3.74353,0.527466 5.492996,0.760498c1.642578,0.218781 4.537872,0.582275 5.761673,0.705658c1.077759,0.108673 2.029312,0.185638 2.867996,0.172516c0.743454,-0.011658 1.416092,-0.08905 2.003998,-0.277496c0.563248,-0.180542 1.589218,-0.843628 2.071503,-1.300842c0.515686,-0.488861 1.000122,-1.06665 1.468506,-1.695007c0.483261,-0.648285 0.933914,-1.340637 1.360489,-2.054993c0.425446,-0.712463 1.178955,-2.141418 1.507172,-2.83551c0.316895,-0.670135 0.60199,-1.331085 0.867004,-1.981476c0.260223,-0.638672 0.50238,-1.275604 0.740997,-1.909515c0.238708,-0.634094 0.720917,-1.919312 0.977325,-2.572327c0.25824,-0.657654 0.522095,-1.309906 0.78302,-1.951508c0.253784,-0.624054 0.499664,-1.22226 0.729004,-1.78949c0.213257,-0.527466 0.57077,-1.437134 0.702484,-1.809509c0.111725,-0.315857 0.197418,-0.584808 0.2565,-0.812988c0.049225,-0.190094 0.079742,-0.351563 0.094513,-0.489014c0.012756,-0.118683 0.01297,-0.326996 0.013641,-0.426819c0.000671,-0.098846 0.002136,-0.195862 0.010529,-0.28952c0.008057,-0.090027 0.020966,-0.175964 0.046478,-0.253479c0.024109,-0.073303 0.105469,-0.195953 0.164185,-0.235352c0.059113,-0.039642 0.130798,-0.062592 0.203979,-0.064484c0.074829,-0.001953 0.153259,0.018372 0.222015,0.061493c0.073547,0.046143 0.192352,0.212097 0.231171,0.324158c0.043427,0.125397 0.06781,0.270905 0.08548,0.429016c0.018921,0.169281 0.026917,0.349304 0.031525,0.536987c0.004761,0.193634 0.004486,0.591003 0.004486,0.790833c0,0.198853 0,0.39566 0,0.589508c0,0.189819 0,0.374664 0,0.553497c0,0.171844 -0.003998,0.490601 0.001343,0.637177c0.005341,0.146881 0.025665,0.306091 0.083984,0.47998c0.070618,0.210571 0.196075,0.457214 0.372009,0.75c0.217316,0.361633 0.870483,1.294159 1.315338,1.88269c0.509033,0.673431 1.093018,1.407562 1.757996,2.177979c0.709137,0.821594 1.4841,1.660065 2.333984,2.484009c0.872681,0.846069 2.784363,2.437469 3.823853,3.138489c1.055542,0.711823 2.196564,1.360779 3.415497,1.969513c1.280579,0.639526 2.672913,1.242096 4.171509,1.843506c1.603821,0.643646 5.222321,1.966614 7.243988,2.678314c2.134247,0.751312 4.354309,1.511719 6.62851,2.263519c2.286835,0.755951 4.560211,1.483063 6.790497,2.155487c2.141937,0.645782 6.056366,1.718811 7.774323,2.102997c1.545471,0.345612 2.950836,0.599091 4.228516,0.769501c1.160522,0.154785 2.230042,0.24054 3.22049,0.283508c0.928406,0.040283 2.671509,0.04306 3.515167,0.039673c0.825653,-0.003326 1.625885,-0.010254 2.390991,-0.052521c0.724335,-0.040009 1.4021,-0.101929 2.013,-0.232483c0.554901,-0.118591 1.452637,-0.514069 1.725006,-0.821503c0.257202,-0.290283 0.398987,-0.669312 0.437988,-1.062012c0.040924,-0.412018 -0.027252,-0.853516 -0.155975,-1.29599c-0.134613,-0.462769 -0.575836,-1.375488 -0.852509,-1.812836c-0.279419,-0.441711 -0.598297,-0.862976 -0.943512,-1.264496c-0.345947,-0.402344 -0.717621,-0.781464 -1.105499,-1.138489c-0.384308,-0.353729 -1.182556,-0.990997 -1.586823,-1.276337c-0.398529,-0.281311 -0.807556,-0.543457 -1.221008,-0.802521c-0.419189,-0.262634 -0.85202,-0.524475 -1.292999,-0.80249c-0.457764,-0.288574 -1.42215,-0.933136 -1.927826,-1.301331c-0.525146,-0.382355 -1.051697,-0.787109 -1.576508,-1.201508c-0.520844,-0.411285 -1.023956,-0.821136 -1.504486,-1.219482c-0.454041,-0.376404 -1.244293,-1.047607 -1.569336,-1.329193c-0.281525,-0.243866 -0.522491,-0.45639 -0.727509,-0.641998c-0.176575,-0.159851 -0.327301,-0.300659 -0.457489,-0.425995c-0.116425,-0.112091 -0.322754,-0.317749 -0.422333,-0.417999c-0.099091,-0.099762 -0.196777,-0.198975 -0.28952,-0.299988c-0.090912,-0.09903 -0.17688,-0.198273 -0.253479,-0.300018c-0.074036,-0.098358 -0.194427,-0.298309 -0.235687,-0.399994c-0.040009,-0.098541 -0.06723,-0.199402 -0.08548,-0.299988c-0.018066,-0.099518 -0.02533,-0.200012 -0.031525,-0.300018l-0.003143,-0.099976" id="svg_1" stroke-width="5" stroke="#000000" fill="#ffff00"/>
 </g>
</svg>