<?xml version="1.0" encoding="UTF-8" standalone="no"?>
<!-- Created with Inkscape (http://www.inkscape.org/) -->

<svg
   xmlns:dc="http://purl.org/dc/elements/1.1/"
   xmlns:cc="http://creativecommons.org/ns#"
   xmlns:rdf="http://www.w3.org/1999/02/22-rdf-syntax-ns#"
   xmlns:svg="http://www.w3.org/2000/svg"
   xmlns="http://www.w3.org/2000/svg"
   xmlns:xlink="http://www.w3.org/1999/xlink"
   xmlns:sodipodi="http://sodipodi.sourceforge.net/DTD/sodipodi-0.dtd"
   xmlns:inkscape="http://www.inkscape.org/namespaces/inkscape"
   width="140"
   height="340"
   viewBox="0 0 140 340.00001"
   id="svg4971"
   version="1.1"
   inkscape:version="0.91 r"
   sodipodi:docname="assistance.svg">
  <defs
     id="defs4973">
    <linearGradient
       inkscape:collect="always"
       xlink:href="#linearGradient9427"
       id="linearGradient9433"
       x1="175.30833"
       y1="312.43256"
       x2="185.97404"
       y2="324.39423"
       gradientUnits="userSpaceOnUse"
       gradientTransform="translate(482.5727,5.1987714)" />
    <linearGradient
       inkscape:collect="always"
       id="linearGradient9427">
      <stop
         style="stop-color:#fecfa3;stop-opacity:1;"
         offset="0"
         id="stop9429" />
      <stop
         style="stop-color:#f7b078;stop-opacity:1"
         offset="1"
         id="stop9431" />
    </linearGradient>
    <linearGradient
       inkscape:collect="always"
       xlink:href="#linearGradient9427"
       id="linearGradient9441"
       x1="114.16547"
       y1="312.83774"
       x2="114.85909"
       y2="337.97559"
       gradientUnits="userSpaceOnUse"
       gradientTransform="translate(482.5727,5.1987714)" />
    <linearGradient
       inkscape:collect="always"
       xlink:href="#linearGradient9427"
       id="linearGradient9425"
       x1="139.07843"
       y1="250.44164"
       x2="161.09052"
       y2="302.41397"
       gradientUnits="userSpaceOnUse"
       gradientTransform="translate(482.5727,5.1987714)" />
    <clipPath
       id="SVGID_6_">
      <use
         height="100%"
         width="100%"
         y="0"
         x="0"
         style="overflow:visible"
         overflow="visible"
         xlink:href="#SVGID_5_"
         id="use4490" />
    </clipPath>
    <clipPath
       id="SVGID_8_">
      <use
         height="100%"
         width="100%"
         y="0"
         x="0"
         style="overflow:visible"
         overflow="visible"
         xlink:href="#SVGID_7_"
         id="use4502" />
    </clipPath>
    <linearGradient
       inkscape:collect="always"
       xlink:href="#linearGradient9953"
       id="linearGradient13608"
       gradientUnits="userSpaceOnUse"
       gradientTransform="translate(98.837236,-263.62583)"
       x1="325.84836"
       y1="593.87244"
       x2="316.26505"
       y2="597.74744" />
    <linearGradient
       inkscape:collect="always"
       id="linearGradient9953">
      <stop
         style="stop-color:#f8b580;stop-opacity:1"
         offset="0"
         id="stop9955" />
      <stop
         style="stop-color:#fecfa3;stop-opacity:1"
         offset="1"
         id="stop9957" />
    </linearGradient>
    <linearGradient
       inkscape:collect="always"
       xlink:href="#linearGradient9953"
       id="linearGradient8052"
       gradientUnits="userSpaceOnUse"
       gradientTransform="translate(98.837236,-263.62583)"
       x1="325.84836"
       y1="593.87244"
       x2="316.26505"
       y2="597.74744" />
  </defs>
  <sodipodi:namedview
     id="base"
     pagecolor="#ffffff"
     bordercolor="#666666"
     borderopacity="1.0"
     inkscape:pageopacity="0.0"
     inkscape:pageshadow="2"
     inkscape:zoom="1.8447168"
     inkscape:cx="49.833157"
     inkscape:cy="151.48105"
     inkscape:document-units="px"
     inkscape:current-layer="layer1"
     showgrid="false"
     units="px"
     inkscape:window-width="1920"
     inkscape:window-height="1056"
     inkscape:window-x="1920"
     inkscape:window-y="24"
     inkscape:window-maximized="1" />
  <metadata
     id="metadata4976">
    <rdf:RDF>
      <cc:Work
         rdf:about="">
        <dc:format>image/svg+xml</dc:format>
        <dc:type
           rdf:resource="http://purl.org/dc/dcmitype/StillImage" />
        <dc:title></dc:title>
      </cc:Work>
    </rdf:RDF>
  </metadata>
  <g
     inkscape:label="Capa 1"
     inkscape:groupmode="layer"
     id="layer1"
     transform="translate(0,-712.36218)">
    <g
       id="g16599"
       transform="matrix(1.4795521,0,0,1.4795521,-859.18738,413.01914)"
       inkscape:export-filename="/var/www/chamilo/main/default_course_document/images/mr_chamilo/assistance.png"
       inkscape:export-xdpi="90"
       inkscape:export-ydpi="90">
      <path
         sodipodi:nodetypes="cccccc"
         inkscape:connector-curvature="0"
         id="path4268"
         d="m 620.32144,279.92087 -0.35856,9.98038 7.30306,9.03693 c 0,0 7.09976,-8.08072 7.21928,-8.9174 l -0.41834,-10.2792 z"
         style="fill:#f7b078;fill-opacity:1;fill-rule:evenodd;stroke:none;stroke-width:0.5;stroke-linecap:butt;stroke-linejoin:miter;stroke-miterlimit:4;stroke-dasharray:none;stroke-opacity:1" />
      <path
         sodipodi:nodetypes="czzcccccc"
         inkscape:connector-curvature="0"
         id="path4303"
         d="m 646.96244,302.56416 c 0,0 12.17586,15.56466 12.83206,16.60569 0.6562,1.04104 1.07805,2.01199 0.12296,3.7063 -0.95508,1.6943 -7.06642,10.31693 -13.88046,13.16732 l 0.76365,8.77333 c 8.49487,-3.68358 17.16433,-13.78538 21.11386,-21.67289 0.73726,-1.54226 1.75509,-3.95445 0.65651,-5.35931 L 653.8246,297.87045 Z"
         style="fill:url(#linearGradient9433);fill-opacity:1;fill-rule:evenodd;stroke:none;stroke-width:1px;stroke-linecap:butt;stroke-linejoin:miter;stroke-opacity:1" />
      <path
         style="fill:url(#linearGradient9441);fill-opacity:1;fill-rule:evenodd;stroke:none;stroke-width:1px;stroke-linecap:butt;stroke-linejoin:miter;stroke-opacity:1"
         d="m 608.23579,301.54996 c 0,0 -12.17586,15.56465 -12.83206,16.60569 -0.6562,1.04103 -1.07805,2.01198 -0.12296,3.70629 0.95508,1.69431 7.06642,10.31694 13.88046,13.16733 l -0.76365,8.77332 c -8.49487,-3.68358 -17.16434,-13.78538 -21.11386,-21.67289 -0.73726,-1.54226 -1.75509,-3.95445 -0.65652,-5.3593 l 14.74643,-19.91416 z"
         id="path4312"
         inkscape:connector-curvature="0"
         sodipodi:nodetypes="czzcccccc" />
      <path
         sodipodi:nodetypes="ccccccc"
         inkscape:connector-curvature="0"
         id="path4299"
         d="m 636.92053,418.43674 0.0248,6.52233 c 0.46741,0.63219 22.50635,0.7445 22.50635,0.7445 0.56374,-0.10977 0.55665,-1.2725 -0.007,-1.77318 0,0 -9.5082,-6.25429 -9.80401,-6.21203 -3.81329,-0.28229 -10.1222,-0.17013 -12.7199,0.71838 z"
         style="fill:#000000;fill-opacity:1;fill-rule:evenodd;stroke:none;stroke-width:1px;stroke-linecap:butt;stroke-linejoin:miter;stroke-opacity:1" />
      <path
         style="fill:#000000;fill-opacity:1;fill-rule:evenodd;stroke:none;stroke-width:1px;stroke-linecap:butt;stroke-linejoin:miter;stroke-opacity:1"
         d="m 618.62769,417.83911 -0.0249,6.52233 c -0.46741,0.6322 -22.50635,0.7445 -22.50635,0.7445 -0.56374,-0.10976 -0.55665,-1.27249 0.007,-1.77318 0,0 9.5082,-6.25429 9.80401,-6.21202 3.81329,-0.28229 10.1222,-0.17014 12.7199,0.71837 z"
         id="path4301"
         inkscape:connector-curvature="0"
         sodipodi:nodetypes="ccccccc" />
      <path
         sodipodi:nodetypes="ccccccccc"
         inkscape:connector-curvature="0"
         id="path4297"
         d="m 608.15284,345.8512 37.99212,-0.28256 c 1.80694,23.64982 4.1542,49.25085 4.41644,73.12135 l -13.98448,1.31478 c -0.97486,-19.94085 -2.8266,-39.88169 -5.37865,-59.82252 -0.75198,-2.44635 -7.20328,-2.48059 -7.41058,-0.23905 -2.65076,20.07282 -4.53106,41.02071 -5.31889,59.16512 l -13.86495,-0.65739 c 1.339,-23.8879 2.65231,-47.82719 3.54899,-72.59973 z"
         style="fill:#1c2224;fill-opacity:1;fill-rule:evenodd;stroke:none;stroke-width:1px;stroke-linecap:butt;stroke-linejoin:miter;stroke-opacity:1" />
      <path
         sodipodi:nodetypes="cccccccccccc"
         inkscape:connector-curvature="0"
         id="path4276"
         d="m 637.99874,288.50216 c 7.55384,0.38558 20.98804,11.43484 24.11042,17.78116 l -9.04583,8.39021 -6.25429,-7.09945 0.59163,40.48378 c -11.1647,2.78652 -31.32671,3.19078 -40.5683,-0.33806 l 1.09872,-40.31475 -7.43753,7.77558 -8.45173,-10.2266 c 6.27954,-6.91946 15.32776,-16.05703 23.58033,-16.81893 l 11.52219,3.90822 z"
         style="fill:#fd6600;fill-opacity:1;fill-rule:evenodd;stroke:none;stroke-width:1px;stroke-linecap:butt;stroke-linejoin:miter;stroke-opacity:1" />
      <path
         inkscape:connector-curvature="0"
         id="path4327"
         d="m 623.72019,293.18274 c 0.33807,0.0845 3.4652,0.76066 3.4652,0.76066 l 3.6765,-1.26776 -0.97194,-2.02841 -2.87359,1.0142 -2.74682,-0.88742 z"
         style="fill:#2b1100;fill-rule:evenodd;stroke:none;stroke-width:1px;stroke-linecap:butt;stroke-linejoin:miter;stroke-opacity:1" />
      <path
         sodipodi:nodetypes="cccccc"
         inkscape:connector-curvature="0"
         id="path4272"
         d="m 628.56871,292.71011 8.17475,8.11447 2.94112,-12.41739 -4.47795,-2.75634 -6.69344,5.05508 z"
         style="fill:#803300;fill-opacity:1;fill-rule:evenodd;stroke:none;stroke-width:1px;stroke-linecap:butt;stroke-linejoin:miter;stroke-opacity:1" />
      <path
         style="fill:#803300;fill-rule:evenodd;stroke:none;stroke-width:1px;stroke-linecap:butt;stroke-linejoin:miter;stroke-opacity:1"
         d="m 625.6601,292.71011 -8.17475,8.11447 -2.94112,-12.41739 4.47795,-2.75634 6.69344,5.05508 z"
         id="path4274"
         inkscape:connector-curvature="0"
         sodipodi:nodetypes="cccccc" />
      <path
         inkscape:connector-curvature="0"
         id="path5865"
         d="m 633.65788,313.5679 c 0,0 0.12532,-0.0632 0.1639,-0.2802 6e-5,-0.0128 1.8e-4,-0.0255 1.8e-4,-0.0383 l 1.8e-4,-0.0383 c -0.0115,-0.20446 -0.21028,-0.44822 -0.43408,-0.69211 -0.26117,-0.26963 -0.48554,-0.39855 -0.48554,-0.39855 0,0 -0.10983,-0.53712 -0.58116,-1.28052 -0.45882,-0.74334 -1.25496,-1.52675 -1.69361,-1.29908 -0.43865,0.22767 -0.0543,0.86842 -0.0303,1.06017 0.0365,0.20459 0.22234,0.5377 0.15984,0.53738 -0.0749,-0.0132 -1.01587,-1.84488 -3.39346,-1.34625 -0.61321,0.13734 -1.13955,0.40288 -1.56628,0.74558 l -0.0212,4.26674 c 0.15076,-0.15251 0.21365,-0.22884 0.21365,-0.22884 0,0 0.15869,0.76733 0.45698,1.1138 0.29829,0.34648 0.65978,0.55276 0.77355,0.29785 0.11371,-0.24213 -0.23109,-1.29148 -0.23109,-1.29148 0,0 0.64684,0.64212 0.83358,0.79639 0.18674,0.15427 0.54829,0.34777 0.65001,0.003 0.0892,-0.34446 -0.17068,-0.86959 -0.38274,-0.96012 -0.19956,-0.0905 -0.32456,-0.0911 -0.32456,-0.0911 0,0 -0.12418,-0.16672 -0.18642,-0.21814 -0.0747,-0.0515 -0.0872,-0.0516 -0.0872,-0.0516 0,0 0.11282,-0.0633 0.46276,-0.0487 0.36245,0.0147 0.64989,0.0289 0.64989,0.0289 0,0 0.32259,0.48712 0.52183,0.64146 0.18668,0.16705 0.67222,0.5656 0.84639,0.73257 0.16168,0.16692 0.2613,0.24409 0.3245,0.10389 0.0507,-0.14026 -0.035,-0.51118 -0.25863,-0.78062 -0.23623,-0.25673 -0.48554,-0.39855 -0.5724,-0.52675 -0.0742,-0.15368 -0.12367,-0.26892 -0.12367,-0.26892 0,0 0.46079,0.34733 0.57272,0.46288 0.1245,0.10285 0.94691,0.6309 1.08396,0.72104 0.137,0.10291 0.19982,0.0394 0.19982,0.0394 0,0 0.0996,0.0772 0.13737,0.0263 0.0378,-0.0509 0.13948,-0.3953 -0.12201,-0.60106 -0.27393,-0.2186 -0.43592,-0.32165 -0.4108,-0.34706 0.0126,-0.0255 0.28719,0.0654 0.32507,-0.0111 0.0253,-0.0637 -0.0117,-0.16613 -0.049,-0.19188 -0.0248,-0.0385 0.0756,-0.11458 0.0756,-0.11458 0,0 0.1,5.5e-4 0.51232,0.041 0.41232,0.0405 1.45162,-0.31183 1.6645,-0.38737 0.21289,-0.0755 0.32564,-0.12606 0.32564,-0.12606 l 0,0 z m -7.90248,5.45216 c 0.86538,-0.57037 0.91012,-2.02649 0.43651,-2.31 -0.13705,-0.0901 -0.27424,-0.15473 -0.42405,-0.19383 l -0.003,0.66428 c 0.0374,0.0257 0.0747,0.0643 0.0994,0.12827 0.0742,0.15368 0.0358,0.34511 0.0358,0.34511 0,0 -0.0113,-0.24279 -0.0982,-0.37099 -0.0124,-0.0128 -0.0249,-0.0257 -0.0373,-0.0385 l -0.009,1.77568 z m 0.0422,-8.48238 c -0.1882,0.13955 -0.35153,0.30478 -0.50236,0.47007 l -0.021,4.22841 c 0.12539,-0.076 0.23827,-0.15206 0.33878,-0.25374 0.0628,-0.0636 0.11314,-0.12716 0.16339,-0.178 l 0.0212,-4.26674 0,0 z m -0.54329,8.69695 c 0.1877,-0.0374 0.36308,-0.11309 0.50109,-0.21457 l 0.009,-1.77568 c -0.0745,-0.10259 -0.13668,-0.16678 -0.13668,-0.16678 0,0 0.0624,0.0259 0.137,0.10291 l 0.003,-0.66428 c -0.16225,-0.0519 -0.33712,-0.0784 -0.49982,-0.0409 l -0.006,1.1114 0,0 c 0.0376,-0.0254 0.10019,-0.0378 0.0748,0.0515 -0.0128,0.051 -0.0503,0.0508 -0.0753,0.0507 l 0,0 -0.003,0.6515 c 0.025,1.8e-4 0.0625,2.7e-4 0.0876,-0.0123 0,0 -0.0251,0.0254 -0.0878,0.0506 l -0.004,0.8559 z m 0.0409,-8.22688 c -0.87972,0.94077 -1.27288,2.0757 -1.36166,2.33074 -0.13947,0.3953 -1.0341,1.82145 -1.1133,2.66419 -0.0668,0.85557 -0.0896,2.93778 1.80902,3.2287 0.22482,0.0395 0.43732,0.0406 0.62501,0.003 l 0.004,-0.8559 c -0.17526,0.0502 -0.56302,0.0993 -0.99799,-0.41399 -0.58408,-0.69288 -0.29098,-1.81556 0.17343,-2.19639 0.30128,-0.25394 0.58948,-0.39296 0.84019,-0.53219 l 0.021,-4.22841 0,0 z m -0.0272,5.46755 -0.006,1.1114 c -0.0376,0.0254 -0.0626,0.0252 -0.0874,-0.0132 -0.0254,0.0765 0.0244,0.1151 0.0869,0.11543 l -0.003,0.65151 c -0.4002,0.0362 -0.94843,-0.32431 -0.80813,-0.88568 0.16568,-0.63789 0.46708,-0.91737 0.81741,-0.97942 z"
         style="fill:#ffffff;fill-opacity:1;stroke:none" />
      <path
         sodipodi:nodetypes="sssssssss"
         inkscape:connector-curvature="0"
         id="path5869"
         d="m 627.76298,303.8079 0.79497,-0.0263 c 0.42671,-0.0141 1.01101,0.2951 0.97473,0.85347 l -0.22559,3.47229 c -0.0283,0.43535 -0.2131,0.66482 -0.55076,0.66306 l -1.04777,-0.005 c -0.42694,-0.002 -0.60512,-0.27947 -0.63319,-0.71483 l -0.22102,-3.429 c -0.0281,-0.43536 0.30301,-0.79324 0.90863,-0.81326 z"
         style="fill:#ffffff;fill-opacity:1;stroke:none" />
      <path
         style="fill:#ffffff;fill-opacity:1;stroke:none"
         d="m 621.4443,306.20003 0.62878,-0.56188 c 0.3375,-0.3016 1.01353,-0.44766 1.34757,0.0307 l 2.0773,2.97449 c 0.26045,0.37295 0.25968,0.68504 -0.0158,0.9132 l -0.85482,0.70799 c -0.34831,0.28849 -0.67358,0.18439 -0.97982,-0.15026 l -2.41197,-2.63564 c -0.30624,-0.33464 -0.27025,-0.85052 0.20875,-1.27856 z"
         id="path5873"
         inkscape:connector-curvature="0"
         sodipodi:nodetypes="sssssssss" />
      <path
         sodipodi:nodetypes="sssssssss"
         inkscape:connector-curvature="0"
         id="path5877"
         d="m 618.42984,312.35409 0.13774,-0.79345 c 0.0739,-0.42591 0.48702,-0.94185 1.00959,-0.79161 l 3.24969,0.93427 c 0.40745,0.11713 0.58743,0.34731 0.51666,0.68168 l -0.2196,1.03756 c -0.0895,0.42278 -0.3891,0.54268 -0.8081,0.4814 l -3.29999,-0.48267 c -0.41899,-0.0613 -0.69093,-0.46273 -0.58599,-1.06718 z"
         style="fill:#ffffff;fill-opacity:1;stroke:none" />
      <path
         style="fill:#ffffff;fill-opacity:1;stroke:none"
         d="m 618.90058,318.12372 -0.30677,-0.55375 c -0.16467,-0.29723 -0.16725,-0.82364 0.22477,-1.00088 l 2.43781,-1.10218 c 0.30565,-0.13819 0.52851,-0.0906 0.65004,0.14926 l 0.37713,0.74441 c 0.15367,0.30333 0.0303,0.53035 -0.25485,0.70848 l -2.2461,1.4029 c -0.28519,0.17813 -0.64833,0.0736 -0.88203,-0.34824 z"
         id="path5881"
         inkscape:connector-curvature="0"
         sodipodi:nodetypes="sssssssss" />
      <g
         transform="matrix(0.86394317,0,0,0.86394317,84.797775,39.613891)"
         id="g14162">
        <path
           style="fill:url(#linearGradient9425);fill-opacity:1;fill-rule:evenodd;stroke:none;stroke-width:1px;stroke-linecap:butt;stroke-linejoin:miter;stroke-opacity:1"
           d="m 598.12708,263.54305 c -10.31431,1.33326 -11.97979,-14.6929 -3.8878,-18.76284 -3.12913,-48.19567 69.62209,-43.58588 64.74025,-0.84518 10.1495,3.8094 8.00368,19.31891 -2.36649,20.28415 -14.96727,23.40179 -42.63521,27.80246 -58.48596,-0.67613 z"
           id="path4256"
           inkscape:connector-curvature="0"
           sodipodi:nodetypes="ccccc" />
        <path
           style="fill:#ffffff;fill-rule:evenodd;stroke:none;stroke-width:0.40000001;stroke-linecap:butt;stroke-linejoin:miter;stroke-miterlimit:4;stroke-dasharray:none;stroke-opacity:1"
           d="m 616.25759,266.7133 21.75363,-0.23905 c -2.53618,12.63578 -20.07962,10.18262 -21.75363,0.23905 z"
           id="path4258"
           inkscape:connector-curvature="0"
           sodipodi:nodetypes="ccc" />
        <ellipse
           style="opacity:1;fill:#ffffff;fill-opacity:1;stroke:none;stroke-width:0.40000001;stroke-linecap:round;stroke-linejoin:round;stroke-miterlimit:4;stroke-dasharray:none;stroke-opacity:1"
           id="path4260"
           cx="610.7594"
           cy="252.31052"
           rx="3.9443414"
           ry="4.9603081" />
        <ellipse
           ry="4.9603081"
           rx="3.9443414"
           cy="252.66907"
           cx="643.74841"
           id="ellipse4262"
           style="opacity:1;fill:#ffffff;fill-opacity:1;stroke:none;stroke-width:0.40000001;stroke-linecap:round;stroke-linejoin:round;stroke-miterlimit:4;stroke-dasharray:none;stroke-opacity:1" />
        <rect
           style="opacity:1;fill:#000000;fill-opacity:1;stroke:none;stroke-width:0.40000001;stroke-linecap:round;stroke-linejoin:round;stroke-miterlimit:4;stroke-dasharray:none;stroke-opacity:1"
           id="rect4264"
           width="12.012314"
           height="3.824816"
           x="604.60382"
           y="241.61298"
           ry="1.912408" />
        <rect
           ry="1.912408"
           y="241.52844"
           x="637.56555"
           height="3.824816"
           width="12.012314"
           id="rect4266"
           style="opacity:1;fill:#000000;fill-opacity:1;stroke:none;stroke-width:0.40000001;stroke-linecap:round;stroke-linejoin:round;stroke-miterlimit:4;stroke-dasharray:none;stroke-opacity:1" />
        <path
           style="fill:#000000;fill-opacity:1;fill-rule:evenodd;stroke:none;stroke-width:1px;stroke-linecap:butt;stroke-linejoin:miter;stroke-opacity:1"
           d="m 601.47029,224.87753 c -6.7246,4.24935 -3.71996,17.08209 -4.30291,26.65419 0.42772,2.08828 -1.90801,2.56638 -2.271,0.17929 -1.19081,-23.90257 -11.47444,-36.35568 -2.39051,-55.16103 20.79744,13.51975 38.60674,-3.16428 61.07754,5.85676 l 0.23905,-5.49818 c 2.49313,1.14932 4.85785,4.98437 3.34671,10.04015 0,0 5.6177,-1.97217 8.90465,3.46624 -3.2457,-0.75218 -5.87759,0.54927 -5.79699,0.59763 6.49725,3.80528 0.71716,25.89719 -1.67335,39.38365 -0.19993,2.02892 -2.71487,2.26652 -2.68932,-0.35859 -0.82962,-8.57231 4.01243,-22.28965 -3.76506,-25.16011 -16.31752,3.69365 -36.72089,3.77497 -50.67881,0 z"
           id="path4270"
           inkscape:connector-curvature="0"
           sodipodi:nodetypes="ccccccccccccc" />
        <path
           inkscape:connector-curvature="0"
           style="opacity:1;fill:#ffb380;fill-opacity:1;stroke:none;stroke-width:0.5;stroke-linecap:round;stroke-linejoin:round;stroke-miterlimit:4;stroke-dasharray:none;stroke-opacity:1"
           d="m 629.88993,260.72806 a 3.5074677,1.9016391 0 0 1 -3.50747,1.90164 3.5074677,1.9016391 0 0 1 -3.50747,-1.90164 3.5074677,1.9016391 0 0 1 3.50747,-1.90163 3.5074677,1.9016391 0 0 1 3.50747,1.90163 z"
           id="path4316" />
        <path
           id="path4319"
           d="m 630.39791,261.54806 c 10e-6,0.91093 -1.77102,1.6494 -3.95569,1.6494 -2.18468,0 -3.9557,-0.73847 -3.95569,-1.6494 10e-6,-0.91094 1.75608,-1.39022 3.94074,-1.39022 2.18467,0 3.97062,0.47928 3.97064,1.39022 z"
           style="opacity:1;fill:#fecfa3;fill-opacity:1;stroke:none;stroke-width:0.5;stroke-linecap:round;stroke-linejoin:round;stroke-miterlimit:4;stroke-dasharray:none;stroke-opacity:1"
           inkscape:connector-curvature="0"
           sodipodi:nodetypes="sssss" />
        <ellipse
           style="opacity:1;fill:#000000;fill-opacity:1;stroke:none;stroke-width:0.40000001;stroke-linecap:round;stroke-linejoin:round;stroke-miterlimit:4;stroke-dasharray:none;stroke-opacity:1"
           id="ellipse4321"
           cx="641.97107"
           cy="252.8345"
           rx="2.1969719"
           ry="4.0178766" />
        <ellipse
           ry="4.0178766"
           rx="2.1969719"
           cy="252.41188"
           cx="612.55908"
           id="ellipse4325"
           style="opacity:1;fill:#000000;fill-opacity:1;stroke:none;stroke-width:0.40000001;stroke-linecap:round;stroke-linejoin:round;stroke-miterlimit:4;stroke-dasharray:none;stroke-opacity:1" />
        <path
           style="color:#000000;font-style:normal;font-variant:normal;font-weight:normal;font-stretch:normal;font-size:medium;line-height:normal;font-family:sans-serif;text-indent:0;text-align:start;text-decoration:none;text-decoration-line:none;text-decoration-style:solid;text-decoration-color:#000000;letter-spacing:normal;word-spacing:normal;text-transform:none;direction:ltr;block-progression:tb;writing-mode:lr-tb;baseline-shift:baseline;text-anchor:start;white-space:normal;clip-rule:nonzero;display:inline;overflow:visible;visibility:visible;opacity:0.5;isolation:auto;mix-blend-mode:normal;color-interpolation:sRGB;color-interpolation-filters:linearRGB;solid-color:#000000;solid-opacity:1;fill:#ffb380;fill-opacity:1;fill-rule:evenodd;stroke:none;stroke-width:0.69999999;stroke-linecap:round;stroke-linejoin:round;stroke-miterlimit:4;stroke-dasharray:none;stroke-dashoffset:0;stroke-opacity:1;color-rendering:auto;image-rendering:auto;shape-rendering:auto;text-rendering:auto;enable-background:accumulate"
           d="m 661.4851,251.15495 c -0.48239,-0.31648 -1.08206,-0.27581 -1.53827,0.002 -0.91243,0.55608 -1.37227,1.91864 -0.92162,3.46834 0.1737,0.59734 0.48498,1.06113 0.87264,1.28449 0.51941,0.0841 0.86882,0.0218 1.10195,-0.45639 0.0431,0.0696 0.10657,0.2195 0.17364,0.41852 0.0603,1.76439 -0.75493,2.93094 -2.37975,2.98897 -0.55835,-0.0261 -0.55591,0.60433 0.002,0.57509 2.54592,-0.11486 3.8963,-2.48924 2.97011,-4.74416 -0.37893,-0.53486 -0.74445,-0.24046 -1.18031,0.0693 -0.3168,0.22515 -0.65117,0.013 -0.80586,-0.39177 -0.27712,-1.18889 0.20726,-2.14393 0.75228,-2.3304 0.54504,-0.18647 0.89622,0.40714 1.16667,1.07482 0.10246,0.5224 0.88601,0.36879 0.7836,-0.15361 -0.17481,-0.88632 -0.51493,-1.48892 -0.99731,-1.8054 z"
           id="path7141"
           inkscape:connector-curvature="0"
           sodipodi:nodetypes="ccsccccccsczcccc" />
        <path
           sodipodi:nodetypes="ccsccccccsczcccc"
           inkscape:connector-curvature="0"
           id="path7145"
           d="m 592.34952,252.12318 c 0.42844,-0.38639 1.0273,-0.43768 1.5206,-0.23246 0.98659,0.41036 1.64894,1.6868 1.44002,3.28711 -0.0806,0.61685 -0.3174,1.12271 -0.66645,1.40261 -0.50049,0.16238 -0.85532,0.15408 -1.15868,-0.28292 -0.0319,0.0753 -0.0718,0.23319 -0.10771,0.44011 0.20962,1.75294 1.19328,2.78143 2.80793,2.59087 0.54783,-0.11101 0.64161,0.51245 0.0855,0.56871 -2.53364,0.27494 -4.2305,-1.8656 -3.65919,-4.23544 0.29289,-0.58642 0.69904,-0.35123 1.17706,-0.11158 0.34744,0.17418 0.64553,-0.0865 0.73666,-0.51014 0.0924,-1.21724 -0.53195,-2.0872 -1.09904,-2.18833 -0.56711,-0.1011 -0.8236,0.53912 -0.98902,1.24025 -0.0215,0.53191 -0.81937,0.49965 -0.79786,-0.0323 0.0375,-0.90261 0.28173,-1.55005 0.71018,-1.93643 z"
           style="color:#000000;font-style:normal;font-variant:normal;font-weight:normal;font-stretch:normal;font-size:medium;line-height:normal;font-family:sans-serif;text-indent:0;text-align:start;text-decoration:none;text-decoration-line:none;text-decoration-style:solid;text-decoration-color:#000000;letter-spacing:normal;word-spacing:normal;text-transform:none;direction:ltr;block-progression:tb;writing-mode:lr-tb;baseline-shift:baseline;text-anchor:start;white-space:normal;clip-rule:nonzero;display:inline;overflow:visible;visibility:visible;opacity:0.5;isolation:auto;mix-blend-mode:normal;color-interpolation:sRGB;color-interpolation-filters:linearRGB;solid-color:#000000;solid-opacity:1;fill:#ffb380;fill-opacity:1;fill-rule:evenodd;stroke:none;stroke-width:0.69999999;stroke-linecap:round;stroke-linejoin:round;stroke-miterlimit:4;stroke-dasharray:none;stroke-dashoffset:0;stroke-opacity:1;color-rendering:auto;image-rendering:auto;shape-rendering:auto;text-rendering:auto;enable-background:accumulate" />
        <path
           id="path4476"
           d="m 659.58219,234.13802 c 0,-14.4753 -14.16987,-30.60523 -32.89199,-30.60523 -18.72211,0 -32.72294,16.21445 -32.72294,30.68975 l 0,9.1183 3.2393,0.0845 0,-9.1183 c -0.14742,-12.53767 13.12022,-27.46888 29.48364,-27.3549 16.36343,-0.11398 29.63106,14.81723 29.48365,27.3549 l 0,10.25809 3.40834,-0.16903 z"
           inkscape:connector-curvature="0"
           style="fill:#6b363e"
           sodipodi:nodetypes="ssscccccccs" />
        <path
           id="path4482"
           d="m 597.13068,264.80594 c -5.81292,-0.56989 -10.25809,-5.47098 -10.25809,-11.39787 0,-5.9269 4.44517,-10.71401 10.25809,-11.39788 l 0,22.79575 z"
           inkscape:connector-curvature="0"
           style="fill:#6b363e" />
        <rect
           style="fill:#452228"
           clip-path="url(#SVGID_6_)"
           height="20"
           width="7"
           x="-4"
           y="62"
           id="rect4492"
           transform="matrix(1.1397876,0,0,1.1397876,591.43174,171.34336)" />
        <path
           id="path4478"
           d="m 659.66909,262.15065 c -0.11398,14.93121 -14.81724,15.72907 -14.81724,15.72907"
           inkscape:connector-curvature="0"
           style="fill:none;stroke:#6b363e;stroke-width:2.27957511" />
        <path
           id="path4480"
           d="m 638.35506,276.62595 6.61077,-1.82366 c 1.25377,-0.34194 2.50754,0.34194 2.73549,1.5957 l 0.5699,2.1656 c 0.34193,1.25376 -0.34194,2.50753 -1.59571,2.73549 l -6.61076,1.82366 c -1.25377,0.34194 -2.50754,-0.34194 -2.73549,-1.5957 l -0.5699,-2.1656 c -0.34193,-1.13979 0.45592,-2.39355 1.5957,-2.73549 z"
           inkscape:connector-curvature="0"
           style="fill:#452228" />
        <path
           id="path4494"
           d="m 656.24973,265.34205 c 5.81292,-0.56989 10.25809,-5.47098 10.25809,-11.39787 0,-5.9269 -4.44517,-10.71401 -10.25809,-11.39788 l 0,22.79575 z"
           inkscape:connector-curvature="0"
           style="fill:#6b363e" />
        <rect
           style="fill:#452228"
           clip-path="url(#SVGID_8_)"
           height="20"
           width="8"
           x="43"
           y="62"
           id="rect4504"
           transform="matrix(1.1397876,0,0,1.1397876,609.51844,171.87947)" />
        <path
           style="fill:#d35f5f;fill-rule:evenodd;stroke:none;stroke-width:1px;stroke-linecap:butt;stroke-linejoin:miter;stroke-opacity:1"
           d="m 617.6455,270.17291 19.03224,-0.0634 c -1.12564,2.08173 -3.536,4.80645 -8.90073,5.01823 -5.31162,-0.10167 -8.57294,-2.53716 -10.13151,-4.95483 z"
           id="path7322"
           inkscape:connector-curvature="0"
           sodipodi:nodetypes="cccc" />
        <path
           style="fill:#552200;fill-opacity:1"
           d="m 608.171,261.90349 c -1.77108,-0.20351 -3.42202,-0.78334 -4.75168,-1.66884 -0.70741,-0.47111 -1.89932,-1.5983 -2.40641,-2.27573 -1.32859,-1.77487 -1.86083,-3.88638 -2.08042,-8.25349 -0.0706,-1.40476 -0.12655,-2.34612 -0.1394,-2.34675 -0.20693,-0.0102 -1.40402,-0.17323 -1.44411,-0.1967 -0.0528,-0.031 -0.0542,-3.94291 -0.002,-3.94326 0.0241,-1.6e-4 2.34371,-0.34427 4.46842,-0.66291 1.54624,-0.23189 2.54393,-0.35872 4.43113,-0.56331 1.04552,-0.11334 1.42834,-0.12619 3.70233,-0.1243 4.75519,0.004 7.2176,0.33443 12.06899,1.61979 1.98172,0.52504 2.92286,0.72836 3.97615,0.85896 0.54301,0.0673 0.71676,0.0673 1.25977,0 1.05328,-0.1306 1.99444,-0.33392 3.97614,-0.85896 4.85141,-1.28536 7.31381,-1.61584 12.06901,-1.61979 2.27398,-0.002 2.65681,0.011 3.70232,0.1243 1.88721,0.20459 2.88489,0.33142 4.43112,0.56331 2.12471,0.31864 4.44421,0.66275 4.46844,0.66291 0.0528,2.4e-4 0.0515,3.91231 -0.002,3.94326 -0.0401,0.0235 -1.23719,0.18653 -1.44413,0.1967 -0.0128,7.3e-4 -0.0688,0.94199 -0.1394,2.34675 -0.21958,4.36711 -0.75183,6.47862 -2.0804,8.25349 -0.5071,0.67743 -1.69902,1.80462 -2.40641,2.27573 -2.11196,1.40647 -4.84194,1.97815 -7.97479,1.66996 -2.21198,-0.2176 -3.81565,-0.63041 -5.46436,-1.4066 -1.7646,-0.83075 -3.04957,-1.87585 -4.10609,-3.3396 -0.99149,-1.37364 -1.83015,-3.23255 -2.41751,-5.3584 -0.43153,-1.56189 -0.58313,-2.00427 -0.89514,-2.61201 -0.32542,-0.63387 -0.78834,-1.12697 -1.27894,-1.36236 -0.3221,-0.15454 -0.37682,-0.16288 -1.0683,-0.16288 -0.69146,0 -0.74619,0.008 -1.06829,0.16288 -0.4906,0.23539 -0.95352,0.72849 -1.27893,1.36236 -0.31201,0.60774 -0.46361,1.05012 -0.89515,2.61201 -0.58735,2.12585 -1.42602,3.98476 -2.4175,5.3584 -1.05652,1.46375 -2.34149,2.50885 -4.1061,3.3396 -0.99028,0.46622 -1.72162,0.71928 -2.85689,0.98854 -1.88952,0.44814 -4.15144,0.6099 -5.83056,0.41694 z m 3.11939,-1.84804 c 1.4991,-0.14788 3.16098,-0.52629 3.93554,-0.89614 2.32333,-1.10934 4.7731,-3.9678 5.73653,-6.69351 0.37608,-1.06401 0.4892,-1.6819 0.4902,-2.67756 8.2e-4,-0.94587 -0.078,-1.4065 -0.37296,-2.17858 -0.85278,-2.23161 -2.87403,-3.33163 -6.81578,-3.70936 -1.93656,-0.18556 -6.95565,-0.11632 -8.64311,0.11925 -1.75213,0.24461 -2.77867,0.93916 -3.5222,2.3831 -0.43819,0.851 -0.4956,1.22132 -0.52916,3.41319 -0.032,2.08781 0.0255,3.03629 0.24733,4.08652 0.15503,0.73379 0.51862,1.78787 0.79655,2.30918 1.20294,2.25643 3.23296,3.5338 6.14083,3.86406 0.38772,0.044 2.01681,0.0311 2.53623,-0.0202 z m 34.05569,-0.10093 c 2.46347,-0.48095 4.20886,-1.71605 5.28945,-3.74298 0.27792,-0.52131 0.64152,-1.57539 0.79655,-2.30918 0.22187,-1.05023 0.27927,-1.99871 0.24732,-4.08652 -0.0336,-2.19187 -0.091,-2.56219 -0.52917,-3.41319 -0.74352,-1.44394 -1.77006,-2.13849 -3.52218,-2.3831 -1.68747,-0.23557 -6.70656,-0.30481 -8.64311,-0.11925 -2.29595,0.22001 -3.92233,0.68427 -5.03802,1.43812 -1.01922,0.68867 -1.7353,1.79143 -2.05101,3.1586 -0.1515,0.65599 -0.13764,1.97079 0.0288,2.72661 0.69555,3.16002 3.36114,6.62874 6.09829,7.93568 0.7437,0.35511 2.39172,0.73746 3.8633,0.89632 0.777,0.0839 2.81783,0.0242 3.45987,-0.10111 z"
           id="path7892"
           inkscape:connector-curvature="0"
           sodipodi:nodetypes="cssccccsscsccsccscccsccsssccssccssssccccsccssscssccccssccssscssccc" />
      </g>
      <g
         transform="translate(227.87086,8.3963634)"
         id="g13678">
        <path
           sodipodi:nodetypes="cccc"
           inkscape:connector-curvature="0"
           id="path13504"
           d="m 419.24349,323.64263 c 1.7925,0.27837 2.73141,1.56553 3.625,2.90625 l -3.59375,0.0625 z"
           style="fill:#f8b783;fill-opacity:1;fill-rule:evenodd;stroke:none;stroke-width:1px;stroke-linecap:butt;stroke-linejoin:miter;stroke-opacity:1" />
        <path
           sodipodi:nodetypes="cccccccc"
           inkscape:connector-curvature="0"
           id="path13570"
           d="m 422.40676,335.8896 c -3.48429,3.25398 -6.99534,3.36037 -9.54667,0.21045 -0.90253,-1.4655 0.39554,-2.39225 1.76011,-2.18099 -2.67855,-1.39882 -1.84784,-3.99258 0.4209,-3.29064 -2.72404,-2.01626 -2.03435,-4.50042 2.6019,-2.41059 1.44612,-0.0932 1.52434,-1.08152 1.73809,-2.30982 1.70139,-0.16714 3.92032,-0.1168 4.64789,2.27537 0.7366,2.82421 0.22219,5.49821 -1.62222,7.70622 z"
           style="fill:url(#linearGradient8052);fill-opacity:1;fill-rule:evenodd;stroke:none;stroke-width:0.1;stroke-linecap:butt;stroke-linejoin:miter;stroke-miterlimit:4;stroke-dasharray:none;stroke-opacity:1" />
        <path
           sodipodi:nodetypes="ccscccc"
           inkscape:connector-curvature="0"
           id="path13572"
           d="m 420.39949,334.58958 c -0.92336,0.71707 -2.75973,1.46104 -2.75973,1.46104 -0.82381,0.0873 -3.12015,-1.19879 -3.84198,-2.08334 -0.0428,-0.0525 0.90639,-0.0405 0.90639,-0.0405 0.97632,0.66182 1.88363,1.3245 3.03493,1.56133 0.81492,-0.0942 1.76361,-0.5546 2.26808,-0.87141 z"
           style="fill:#f7b07a;fill-opacity:1;fill-rule:evenodd;stroke:none;stroke-width:0.05;stroke-linecap:butt;stroke-linejoin:miter;stroke-miterlimit:4;stroke-dasharray:none;stroke-opacity:1" />
        <path
           style="fill:#f7b07a;fill-opacity:1;fill-rule:evenodd;stroke:none;stroke-width:0.05;stroke-linecap:butt;stroke-linejoin:miter;stroke-miterlimit:4;stroke-dasharray:none;stroke-opacity:1"
           d="m 420.31284,331.83098 c -0.92336,0.71707 -2.26231,0.91579 -2.26231,0.91579 -1.11079,-0.0658 -3.08188,-1.32315 -3.80371,-2.2077 -0.0428,-0.0525 0.78202,-0.0213 0.78202,-0.0213 0.97023,0.80194 1.85977,1.50088 2.80408,1.6774 0.6904,0.129 1.41007,-0.079 2.21196,-0.44224 z"
           id="path13574"
           inkscape:connector-curvature="0"
           sodipodi:nodetypes="ccscscc" />
      </g>
      <g
         id="g13684"
         transform="matrix(-1,0,0,1,1026.6588,7.8963634)">
        <path
           style="fill:#f8b783;fill-opacity:1;fill-rule:evenodd;stroke:none;stroke-width:1px;stroke-linecap:butt;stroke-linejoin:miter;stroke-opacity:1"
           d="m 419.24349,323.64263 c 1.7925,0.27837 2.73141,1.56553 3.625,2.90625 l -3.59375,0.0625 z"
           id="path13686"
           inkscape:connector-curvature="0"
           sodipodi:nodetypes="cccc" />
        <path
           style="fill:url(#linearGradient13608);fill-opacity:1;fill-rule:evenodd;stroke:none;stroke-width:0.1;stroke-linecap:butt;stroke-linejoin:miter;stroke-miterlimit:4;stroke-dasharray:none;stroke-opacity:1"
           d="m 422.40676,335.8896 c -3.48429,3.25398 -6.99534,3.36037 -9.54667,0.21045 -0.90253,-1.4655 0.39554,-2.39225 1.76011,-2.18099 -2.67855,-1.39882 -1.84784,-3.99258 0.4209,-3.29064 -2.72404,-2.01626 -2.03435,-4.50042 2.6019,-2.41059 1.44612,-0.0932 1.52434,-1.08152 1.73809,-2.30982 1.70139,-0.16714 3.92032,-0.1168 4.64789,2.27537 0.7366,2.82421 0.22219,5.49821 -1.62222,7.70622 z"
           id="path13688"
           inkscape:connector-curvature="0"
           sodipodi:nodetypes="cccccccc" />
        <path
           style="fill:#f7b07a;fill-opacity:1;fill-rule:evenodd;stroke:none;stroke-width:0.05;stroke-linecap:butt;stroke-linejoin:miter;stroke-miterlimit:4;stroke-dasharray:none;stroke-opacity:1"
           d="m 420.39949,334.58958 c -0.92336,0.71707 -2.75973,1.46104 -2.75973,1.46104 -0.82381,0.0873 -3.12015,-1.19879 -3.84198,-2.08334 -0.0428,-0.0525 0.90639,-0.0405 0.90639,-0.0405 0.97632,0.66182 1.88363,1.3245 3.03493,1.56133 0.81492,-0.0942 1.76361,-0.5546 2.26808,-0.87141 z"
           id="path13690"
           inkscape:connector-curvature="0"
           sodipodi:nodetypes="ccscccc" />
        <path
           sodipodi:nodetypes="ccscscc"
           inkscape:connector-curvature="0"
           id="path13692"
           d="m 420.31284,331.83098 c -0.92336,0.71707 -2.26231,0.91579 -2.26231,0.91579 -1.11079,-0.0658 -3.08188,-1.32315 -3.80371,-2.2077 -0.0428,-0.0525 0.78202,-0.0213 0.78202,-0.0213 0.97023,0.80194 1.85977,1.50088 2.80408,1.6774 0.6904,0.129 1.41007,-0.079 2.21196,-0.44224 z"
           style="fill:#f7b07a;fill-opacity:1;fill-rule:evenodd;stroke:none;stroke-width:0.05;stroke-linecap:butt;stroke-linejoin:miter;stroke-miterlimit:4;stroke-dasharray:none;stroke-opacity:1" />
      </g>
    </g>
  </g>
</svg>
