<?xml version="1.0" encoding="UTF-8" standalone="no"?>
<!-- Created with Inkscape (http://www.inkscape.org/) -->

<svg
   xmlns:dc="http://purl.org/dc/elements/1.1/"
   xmlns:cc="http://creativecommons.org/ns#"
   xmlns:rdf="http://www.w3.org/1999/02/22-rdf-syntax-ns#"
   xmlns:svg="http://www.w3.org/2000/svg"
   xmlns="http://www.w3.org/2000/svg"
   xmlns:sodipodi="http://sodipodi.sourceforge.net/DTD/sodipodi-0.dtd"
   xmlns:inkscape="http://www.inkscape.org/namespaces/inkscape"
   width="400"
   height="100"
   id="svg3034"
   version="1.1"
   inkscape:version="0.92.5 (2060ec1f9f, 2020-04-08)"
   sodipodi:docname="header-logo.svg">
  <defs
     id="defs3036" />
  <sodipodi:namedview
     id="base"
     pagecolor="#ffffff"
     bordercolor="#666666"
     borderopacity="1.0"
     inkscape:pageopacity="0.0"
     inkscape:pageshadow="2"
     inkscape:zoom="1.979899"
     inkscape:cx="183.91644"
     inkscape:cy="8.6990605"
     inkscape:document-units="px"
     inkscape:current-layer="layer1"
     showgrid="false"
     inkscape:window-width="1864"
     inkscape:window-height="1016"
     inkscape:window-x="56"
     inkscape:window-y="27"
     inkscape:window-maximized="1" />
  <metadata
     id="metadata3039">
    <rdf:RDF>
      <cc:Work
         rdf:about="">
        <dc:format>image/svg+xml</dc:format>
        <dc:type
           rdf:resource="http://purl.org/dc/dcmitype/StillImage" />
        <dc:title></dc:title>
      </cc:Work>
    </rdf:RDF>
  </metadata>
  <g
     inkscape:label="Capa 1"
     inkscape:groupmode="layer"
     id="layer1"
     transform="translate(0,-952.36218)">
    <g
       id="g1506"
       transform="matrix(0.9888601,0,0,0.9888601,5.0058309,11.465934)">
      <g
         transform="matrix(0.36616743,0,0,0.36616743,-28.877844,687.95782)"
         id="g1448">
        <path
           style="fill:#2e75a3;stroke-width:1.00069571"
           id="path2819"
           inkscape:connector-curvature="0"
           d="m 1058.0129,888.63471 v -22.06134 c 7.2881,0 13.4273,-2.49373 18.4148,-7.67233 4.7963,-5.1796 7.2901,-11.89527 7.2901,-19.95187 0,-8.05861 -2.3006,-14.77227 -7.2901,-19.76174 -4.7943,-4.98747 -10.9336,-7.4812 -18.4148,-7.4812 v -22.44561 c 8.633,0.19114 17.0729,2.3026 24.7472,6.71367 7.8645,4.41307 14.0037,10.55234 18.4168,18.22467 4.4111,7.4842 6.5226,15.73194 6.5226,24.55607 0,9.01827 -2.1105,17.266 -6.5226,25.13247 -4.6052,7.86447 -10.5523,13.8126 -18.2257,18.22467 -7.4812,4.41107 -15.922,6.52254 -24.9383,6.52254 z m 0,-99.37509 v 22.44561 h -0.1931 c -7.2901,0 -13.4294,2.49373 -18.4168,7.4832 -4.7944,5.1796 -7.2881,11.70113 -7.2881,19.75974 0,8.24773 2.4937,14.9634 7.2881,19.95187 4.7963,5.1786 10.9356,7.67233 18.4168,7.67233 0,0 0,0 0.1931,0 v 22.06134 c -0.1931,0 -0.1931,0 -0.3853,0 -13.6204,0 -25.1304,-4.79634 -34.7231,-14.38801 -9.5927,-9.7838 -14.389,-21.48493 -14.389,-35.29753 0,-14.77227 5.3727,-26.85868 16.3083,-36.83561 9.3996,-8.44087 20.3342,-12.85294 32.6127,-12.85294 0.1911,0 0.3833,0 0.5764,0 z m -370.44947,99.18295 v -21.48693 c 7.4812,0 13.61947,-2.68587 18.4158,-7.86447 4.98747,-5.1796 7.48221,-11.89527 7.48221,-20.33614 0,-8.24773 -2.49374,-14.9634 -7.48221,-19.95187 -4.79633,-4.98747 -10.9346,-7.4822 -18.4158,-7.4822 v -21.67807 c 3.83567,0.38427 7.4812,1.34293 10.9346,2.878 4.98747,2.10947 9.59267,5.37173 13.81261,9.59167 v -10.3592 h 23.78753 v 94.57775 h -23.78753 v -10.16707 c -4.60521,4.6052 -9.20741,7.67233 -14.00374,9.59167 -3.26227,1.53606 -6.9078,2.3036 -10.74347,2.68686 z m 72.32428,-96.68821 h 23.78754 v 10.9356 c 4.0278,-4.6052 8.633,-7.86547 13.62047,-9.97594 4.98746,-2.3026 10.3612,-3.4534 16.1152,-3.4534 5.94713,0 11.31887,1.53407 16.1152,4.41207 4.79634,2.878 8.633,7.09794 11.512,12.6618 3.64554,-5.56487 8.43987,-9.7838 13.81261,-12.6618 5.56286,-2.878 11.51,-4.41207 18.03253,-4.41207 6.71567,0 12.6628,1.53407 17.65127,4.79634 5.1796,3.06813 8.82414,7.09793 11.12674,12.27853 2.10846,4.98647 3.26026,13.04607 3.26026,24.36394 v 55.63368 H 881.134 v -48.15148 c 0,-10.74347 -1.34294,-18.03353 -4.0278,-21.67907 -2.68487,-3.64553 -6.71567,-5.56287 -12.0864,-5.56287 -4.0278,0 -7.67334,1.1508 -10.93561,3.45441 -3.26026,2.10846 -5.56286,5.37073 -7.09893,9.39953 -1.7262,4.22194 -2.49374,10.74347 -2.49374,19.75974 v 42.78074 h -23.78753 v -45.84888 c 0,-8.633 -0.76854,-14.77227 -1.91733,-18.4168 -1.34494,-3.83667 -3.26227,-6.52253 -5.75601,-8.44187 -2.49373,-1.7262 -5.37073,-2.68586 -9.01626,-2.68586 -3.83867,0 -7.48421,1.1508 -10.74347,3.4544 -3.07014,2.10846 -5.56487,5.56286 -7.09894,9.7838 -1.7262,4.21993 -2.49373,10.9336 -2.49373,19.95187 v 42.20434 H 759.89071 V 791.75436 Z M 936.9578,752.80929 c 4.22194,0 7.67534,1.53506 10.74347,4.41306 2.877,3.06914 4.41305,6.71367 4.41305,10.9356 0,4.41107 -1.34291,7.86447 -4.41305,10.93461 -2.877,3.06913 -6.52253,4.41206 -10.55033,4.41206 -4.22194,0 -7.86647,-1.53406 -10.9356,-4.6042 -2.879,-2.878 -4.41307,-6.71467 -4.41307,-10.9356 0,-4.22093 1.53407,-7.86547 4.41307,-10.74247 2.878,-3.07012 6.52253,-4.41306 10.74246,-4.41306 z m -11.89326,38.94507 h 23.78753 v 94.57775 h -23.78753 z m 42.77972,-36.64348 h 23.78953 v 131.22023 h -23.78953 z m -451.02252,25.89901 -17.07387,16.30733 c -11.70214,-12.27853 -24.74721,-18.4168 -39.13521,-18.4168 -12.27853,0 -22.63774,4.22094 -30.88647,12.46967 -8.44187,8.44187 -12.6618,18.60894 -12.6618,30.69534 0,8.633 1.91833,16.1152 5.56387,22.82787 3.64553,6.52453 9.01726,11.70313 15.73193,15.5398 6.9058,3.83567 14.388,5.56187 22.63674,5.56187 7.09893,0 13.62047,-1.1488 19.37647,-3.83567 5.94613,-2.68587 12.46967,-7.4822 19.37547,-14.387 l 16.49847,17.07387 c -9.40054,9.39953 -18.41681,15.73194 -26.85867,19.37647 -8.24874,3.4514 -17.84141,5.1796 -28.77601,5.1796 -19.75973,0 -36.06707,-6.13927 -48.92101,-18.80207 -12.6618,-12.6608 -18.9922,-28.775 -18.9922,-48.53474 0,-12.6618 2.877,-23.98067 8.82514,-33.95661 5.755,-9.7838 14.00373,-17.8414 24.7472,-23.78753 10.74247,-6.13927 22.25347,-9.20941 34.72314,-9.20941 10.55133,0 20.7194,2.30261 30.5032,6.71467 9.7848,4.6042 18.22467,10.9346 25.32361,19.18334 z m 170.74169,8.633 v 21.67807 h -0.19113 c -7.4822,0 -13.42934,2.49473 -18.4168,7.4822 -4.79634,5.1796 -7.29007,11.89527 -7.29007,19.95187 0,8.24974 2.49373,14.9634 7.4822,20.33614 4.98747,5.1786 11.12673,7.86447 18.22567,7.86447 0.19113,0 0.19113,0 0.19113,0 v 21.48693 c -1.34293,0.19114 -2.877,0.19114 -4.41106,0.19114 -12.27854,0 -22.82987,-4.60521 -31.84714,-14.19687 -8.82414,-9.39954 -13.23821,-21.29381 -13.23821,-35.29754 0,-14.58014 4.21994,-26.47541 12.85294,-35.87594 8.633,-9.2074 19.18534,-14.00374 31.46387,-14.00374 1.91633,0 3.4524,0.19214 5.1786,0.38327 z M 535.62181,755.11088 h 23.5974 v 46.23515 c 4.6052,-4.02881 9.40154,-7.09894 14.00374,-9.01727 4.79633,-2.10947 9.40153,-3.06914 14.19787,-3.06914 9.2074,0 17.266,3.26127 23.5964,9.7838 5.56487,5.56287 8.24973,14.00574 8.24973,24.74721 v 62.54048 h -23.40527 v -41.62995 c 0,-10.9356 -0.38526,-18.4168 -1.53606,-22.25347 -0.95767,-3.83666 -2.877,-6.52253 -5.17961,-8.44186 -2.49373,-1.91834 -5.56286,-2.877 -9.2074,-2.877 -4.98746,0 -9.01827,1.53506 -12.46966,4.79633 -3.45341,2.877 -5.94714,7.29007 -7.29007,12.85294 -0.5764,2.879 -0.95967,9.2094 -0.95967,19.37647 v 38.17553 h -23.5974 z" />
        <path
           style="fill:#2e75a3;stroke-width:1.01264751"
           id="path2913"
           inkscape:connector-curvature="0"
           d="m 1094.6911,953.87671 v -3.1068 0 c 1.9421,0 3.4945,-0.38784 5.047,-1.35897 1.5544,-0.97113 2.72,-2.3301 3.4946,-4.07591 h 3.4946 c -0.971,2.71795 -2.7179,4.85362 -4.6602,6.40601 -2.1335,1.35897 -4.4637,2.13567 -7.1817,2.13567 z m 0,-12.03734 v -2.71794 h 9.3194 c -0.5833,-2.71795 -1.5524,-4.85362 -3.3013,-6.2126 -1.5524,-1.35897 -3.4946,-2.13567 -6.0181,-2.13567 v -3.10478 c 0.1954,0 0.1954,0 0.1954,0 3.8825,0 6.7938,1.35898 9.124,3.88249 2.33,2.52352 3.689,6.01614 3.689,10.09509 v 0.19341 z m 0,-14.17099 v 3.10478 h -0.1935 c -2.3301,0 -4.4638,0.77771 -6.0182,2.13567 -1.7467,1.55239 -2.7179,3.68908 -3.1048,6.2126 h 9.3174 v 2.71794 h -9.5118 c 0.1934,2.71795 1.1645,4.85362 2.9114,6.40601 1.7488,1.74682 4.0759,2.52352 6.6004,2.52352 v 3.1068 c -3.4926,0 -6.6004,-1.361 -8.9295,-3.88451 -2.5236,-2.52352 -3.8825,-5.62931 -3.8825,-9.12396 0,-3.88249 1.3589,-6.98727 3.6891,-9.5118 2.5214,-2.32807 5.4328,-3.49262 9.122,-3.68705 z m -40.5738,26.20833 v -2.91338 c 0.1934,0 0.1934,0 0.1934,0 2.5236,0 4.6603,-1.16455 6.6005,-3.10478 1.7488,-1.94226 2.72,-4.46578 2.72,-7.18372 0,-2.71795 -0.9712,-5.04704 -2.72,-6.9893 -1.9402,-1.94023 -4.0759,-2.91136 -6.6005,-2.91136 0,0 0,0 -0.1934,0 v -2.91136 c 0.1934,0 0.1934,0 0.3879,0 1.9422,0 3.4946,0.38785 5.2414,1.16455 1.5545,0.77568 2.9134,1.94023 3.8825,3.2992 v -3.88249 h 3.1068 v 24.65594 h -3.1068 v -3.88249 c -0.9691,1.55239 -2.328,2.52352 -4.0759,3.49465 -1.5524,0.77569 -3.4946,1.16252 -5.4349,1.16252 v 0 0.002 z m 20.7735,-0.77771 h -3.1068 v -24.65594 h 2.9113 v 2.91136 c 0.7778,-1.16252 1.7489,-1.94023 2.5236,-2.52352 0.9711,-0.58126 2.1356,-0.77569 3.3012,-0.77569 v 3.49465 c -1.9402,0.19342 -3.4947,0.77569 -4.2703,1.74682 -0.7778,0.97113 -1.359,2.71794 -1.359,4.85362 z m -20.7735,-25.23619 v 2.91136 c -2.5235,0 -4.6602,0.97113 -6.6004,2.91136 -1.7488,1.94226 -2.72,4.46578 -2.72,7.37714 0,2.71795 0.9712,5.04704 2.72,6.9893 1.9402,1.94023 4.0759,2.71794 6.6004,2.91136 v 2.91338 0 c -3.4946,0 -6.6004,-1.36099 -8.9295,-3.68907 -2.5235,-2.52352 -3.6891,-5.63133 -3.6891,-9.3194 0,-3.68806 1.1646,-6.79385 3.6891,-9.31737 2.3301,-2.3301 5.4349,-3.68806 8.9295,-3.68806 z m -46.0096,3.68806 v -2.91338 l 8.3483,24.46151 h 1.9402 l 5.8247,-18.83119 5.8248,18.83119 h 2.1336 l 8.3483,-24.65594 h -3.4946 l -6.0182,18.44335 -5.6293,-18.44335 h -2.3301 l -5.6293,18.44335 -6.0182,-18.44335 h -3.3012 v 0 3.10781 0 0 z m 0,-2.91338 v 2.91338 h -4.6603 V 953.099 h -3.1047 v -21.54813 h -4.66024 v -3.1068 h 4.66024 v -7.9584 h 3.1047 v 7.9584 h 4.6603 v 0 z m -39.21483,25.23922 v -3.1068 c 0,0 0,0 0.19342,0 2.52352,0 4.85362,-0.97113 6.60044,-2.91136 1.74681,-1.74884 2.71794,-4.27236 2.71794,-7.18372 0,-2.91136 -0.97113,-5.24147 -2.71794,-7.18372 -1.74682,-1.74682 -4.07591,-2.71795 -6.79386,-2.71795 v -3.10478 c 3.49263,0 6.60044,1.35898 9.12396,3.68705 2.52352,2.52352 3.68907,5.63134 3.68907,9.12598 0,3.68908 -1.16454,6.79385 -3.68907,9.5118 -2.52352,2.52352 -5.43488,3.88452 -8.92953,3.88452 -0.19443,-0.001 -0.19443,-0.001 -0.19443,-0.001 z m 20.96485,-0.77771 h -3.10478 v -21.938 h -3.30123 v -2.71794 h 3.30123 v -0.77569 c 0,-2.52554 0.58126,-4.46578 1.94023,-5.82475 1.361,-1.16454 3.30123,-1.74884 6.01817,-1.74884 h 0.38986 v 2.71997 c -1.94225,0 -3.30123,0.38784 -4.07793,1.16455 -0.77568,0.77568 -1.16454,1.94023 -1.16454,3.68907 v 0.77569 h 5.24349 v 2.71794 h -5.24349 v 21.938 z m -20.96485,-25.43062 v 3.10478 h -0.19544 c -2.52351,0 -4.65818,0.97113 -6.40601,2.71795 -1.94023,1.94225 -2.71794,4.46577 -2.71794,7.18372 0,2.91136 0.77771,5.43488 2.71794,7.18372 1.74885,1.94023 3.8825,2.91136 6.60247,2.91136 v 3.1068 c -3.49465,0 -6.60247,-1.36099 -8.93155,-3.88451 -2.52352,-2.52352 -3.8825,-5.62931 -3.8825,-9.12396 0,-3.68907 1.35898,-6.79385 3.8825,-9.31737 2.52351,-2.71997 5.4369,-3.88249 8.73611,-3.88249 0.19442,0 0.19442,0 0.19442,0 z m -81.53836,26.20833 v -3.1068 0 c 2.71795,0 4.85362,-0.97113 6.79588,-2.91136 1.74682,-1.74884 2.52352,-4.27236 2.52352,-7.18372 0,-2.91136 -0.77771,-5.24147 -2.71795,-7.18372 -1.74884,-1.74682 -3.88451,-2.71795 -6.60246,-2.71795 v -3.10478 c 3.49465,0 6.40601,1.35898 8.92953,3.68705 2.52351,2.52352 3.88451,5.63134 3.88451,9.12598 0,3.68908 -1.361,6.79385 -3.68907,9.5118 -2.52149,2.52251 -5.6283,3.8835 -9.12396,3.8835 z m 16.5011,-25.43264 h 3.1068 v 2.71795 c 0.97113,-0.96911 2.13567,-1.94024 3.30123,-2.52352 1.35897,-0.38784 2.71795,-0.77569 4.46375,-0.77569 1.74884,0 3.49465,0.38785 4.85362,0.9691 1.35897,0.77772 2.52352,1.74885 3.30123,2.91339 0.58126,0.97113 0.9691,1.94023 1.35897,3.29921 0.19342,1.16454 0.38785,2.91338 0.38785,5.24349 v 12.81201 h -3.30123 v -13.78416 c 0,-2.91136 -0.58126,-5.04703 -1.55239,-6.406 -1.16455,-1.35898 -2.91136,-1.94226 -5.43488,-1.94226 -1.35897,0 -2.71795,0.19341 -3.68908,0.77771 -1.16454,0.58126 -1.94225,1.55239 -2.71794,2.52352 -0.38987,0.77569 -0.58329,1.55239 -0.77772,2.3301 -0.19341,0.96911 -0.19341,2.3301 -0.19341,4.46375 v 12.03734 h -3.1068 z m 31.06195,15.33554 h 3.1068 c 0,2.13567 0.58126,3.68907 1.55239,4.85361 1.16454,1.16455 2.52352,1.74885 4.27236,1.74885 1.94023,0 3.49262,-0.58329 4.65818,-1.74885 1.16553,-1.16555 1.74882,-2.71794 1.74882,-4.85361 0,-2.91137 -2.33008,-5.24147 -6.98927,-6.79386 -0.38785,0 -0.58126,-0.19341 -0.77772,-0.19341 -2.52352,-0.77772 -4.0759,-1.94226 -5.24146,-3.10681 -0.97113,-1.35897 -1.55239,-2.91136 -1.55239,-5.04703 0,-2.52352 0.77771,-4.65818 2.52352,-6.40601 1.55239,-1.55239 3.68907,-2.52352 6.21259,-2.52352 2.52352,0 4.46578,0.77772 5.82473,2.33011 1.55239,1.55238 2.3301,3.68907 2.52352,6.406 h -3.10681 c -0.19341,-1.74681 -0.77566,-3.10477 -1.55237,-4.0759 -0.97112,-0.97113 -2.13567,-1.55239 -3.68907,-1.55239 -1.5534,0 -2.91136,0.58126 -3.88249,1.55239 -1.16455,1.16454 -1.55239,2.52351 -1.55239,4.0759 0,0.97113 0,1.55239 0.38784,2.33011 0.38785,0.58328 0.77772,1.16454 1.55239,1.55238 0.58329,0.58329 1.94226,1.16455 3.88249,1.74885 1.16455,0.38784 1.94226,0.77568 2.52352,0.9691 2.13566,0.77771 3.68906,1.74884 4.66019,3.1068 0.97112,1.35796 1.35897,2.91136 1.35897,5.04704 0,3.30123 -0.77569,5.82475 -2.52352,7.76498 -1.7468,1.94226 -4.07589,2.91339 -6.98725,2.91339 -2.52554,0 -4.85362,-0.97113 -6.40803,-2.71997 -1.74682,-1.94024 -2.52352,-4.27034 -2.52352,-7.37512 v -0.003 z m -47.56305,-16.11123 v 3.10478 c -0.19341,0 -0.19341,0 -0.19341,0 -2.52352,0 -4.85362,0.97113 -6.60044,2.71795 -1.74884,1.94225 -2.71794,4.46577 -2.71794,7.18372 0,2.91136 0.9691,5.43488 2.71794,7.18372 1.94023,1.94023 4.07591,2.91136 6.79385,2.91136 v 3.1068 c -3.68907,0 -6.60043,-1.36099 -9.12395,-3.88451 -2.52352,-2.52352 -3.68908,-5.62931 -3.68908,-9.12396 0,-3.68907 1.16455,-6.79385 3.68908,-9.31737 2.52352,-2.71997 5.43488,-3.88249 8.92953,-3.88249 10e-4,0 10e-4,0 0.19442,0 z m -49.89213,26.20833 v -2.91338 0 c 2.52352,0 4.66021,-1.16455 6.60246,-3.10478 1.74682,-1.94226 2.71795,-4.46578 2.71795,-7.18372 0,-2.71795 -0.97113,-5.04704 -2.71795,-6.9893 -1.94225,-1.94023 -4.07793,-2.91136 -6.60246,-2.91136 v 0 -2.91136 c 0,0 0,0 0.19342,0 1.94226,0 3.68907,0.38785 5.24349,1.16455 1.55239,0.77568 2.91136,1.94023 3.88249,3.2992 v -3.88249 h 3.10477 v 24.65594 h -3.10477 v -3.88249 c -0.97113,1.55239 -2.3301,2.52352 -3.88249,3.49465 -1.74885,0.77569 -3.49465,1.16252 -5.43691,1.16252 v 0 z m 19.6079,-0.77771 v -21.54813 h -4.66021 v -3.1068 h 4.66021 v -7.9584 h 3.30123 v 7.9584 h 4.65818 v 3.1068 h -4.65818 V 953.099 Z m 13.78415,-27.56629 h -3.30123 v -5.04704 h 3.30123 z M 867.5532,953.099 v -24.65594 h 3.30123 V 953.099 Z m -30.09082,-25.23619 v 2.91136 c -2.71794,0 -4.85362,0.97113 -6.79385,2.91136 -1.74884,1.94226 -2.71795,4.46578 -2.71795,7.37714 0,2.71795 0.96911,5.04704 2.71795,6.9893 1.94023,1.94023 4.07591,2.71794 6.79385,2.91136 v 2.91338 h -0.19341 c -3.49465,0 -6.60044,-1.36099 -8.92953,-3.68907 -2.52352,-2.52352 -3.68907,-5.63133 -3.68907,-9.3194 0,-3.68806 1.16454,-6.79385 3.68907,-9.31737 2.32909,-2.3301 5.43387,-3.68806 9.12294,-3.68806 z m -39.60363,26.0139 v -3.1068 0 c 2.71997,0 4.85362,-0.97113 6.79588,-2.91136 1.74681,-1.74884 2.71794,-4.27236 2.71794,-7.18372 0,-2.91136 -0.97113,-5.24147 -2.71794,-7.18372 -1.94226,-1.74682 -4.07591,-2.71795 -6.79588,-2.71795 v -3.10478 c 3.49465,0 6.40803,1.35898 8.93155,3.68705 2.52352,2.52352 3.88249,5.63134 3.88249,9.12598 0,3.68908 -1.35897,6.79385 -3.68907,9.5118 -2.52352,2.52251 -5.63032,3.8835 -9.12497,3.8835 z m 19.60789,-0.77771 h -3.10477 v -24.65594 h 2.91136 v 2.91136 c 0.7777,-1.16252 1.7468,-1.94023 2.52351,-2.52352 0.97113,-0.58126 2.13567,-0.77569 3.30124,-0.77569 v 3.49465 c -1.94227,0.19342 -3.30124,0.77569 -4.27237,1.74682 -0.77569,0.97113 -1.35898,2.71794 -1.35898,4.85362 z m -19.60688,-25.43062 v 3.10478 h -0.19544 c -2.52352,0 -4.65818,0.97113 -6.60044,2.71795 -1.74681,1.94225 -2.71794,4.46577 -2.71794,7.18372 0,2.91136 0.97113,5.43488 2.71794,7.18372 1.94226,1.94023 4.07591,2.91136 6.79588,2.91136 v 3.1068 c -3.49464,0 -6.60246,-1.36099 -9.12598,-3.88451 -2.3301,-2.52352 -3.68907,-5.62931 -3.68907,-9.12396 0,-3.68907 1.35897,-6.79385 3.68907,-9.31737 2.52351,-2.71997 5.43691,-3.88249 8.92953,-3.88249 z m -27.95616,26.20833 v -2.91338 c 2.52352,-0.19342 4.66021,-1.16455 6.60044,-3.10478 1.74884,-1.94226 2.71997,-4.27236 2.71997,-7.18372 0,-2.71795 -0.97113,-5.04704 -2.71997,-6.9893 -1.94023,-1.94023 -4.07591,-2.91136 -6.60044,-2.91136 v -2.91136 h 0.19342 c 3.49464,0 6.40601,1.16455 8.92952,3.68908 2.3301,2.52351 3.49465,5.6293 3.49465,9.31737 0,3.68806 -1.16455,6.79587 -3.68908,9.12395 -2.32807,2.52251 -5.43386,3.8835 -8.92851,3.8835 z m 0,-26.0139 v 2.91136 c 0,0 0,0 -0.19341,0 -2.52352,0 -4.66021,0.97113 -6.60044,3.10681 -1.74884,1.94023 -2.71997,4.27033 -2.71997,7.18169 0,2.71795 0.97113,4.85362 2.91338,6.79588 1.74682,2.13365 3.8825,3.10478 6.40601,3.10478 0,0 0,0 0.19342,0 v 2.91338 c -0.19342,0 -0.19342,0 -0.19342,0 -1.94226,0 -3.49464,-0.38987 -5.04703,-1.16454 -1.55239,-0.77771 -2.91136,-1.74884 -4.27236,-3.30123 v 3.68907 H 757.285 v -32.61434 h 3.10478 v 10.2885 1.74682 c 1.361,-1.55239 2.91338,-2.71795 4.46577,-3.49262 1.5534,-0.77873 3.10782,-1.16556 5.04805,-1.16556 z m -30.09082,26.0139 v -2.91338 0 c 2.52352,0 4.85362,-1.16455 6.60044,-3.10478 1.94225,-1.94226 2.91338,-4.46578 2.91338,-7.18372 0,-2.71795 -0.97113,-5.04704 -2.91338,-6.9893 -1.74682,-1.94023 -4.07591,-2.91136 -6.40601,-2.91136 h -0.19443 v -2.91136 h 0.19342 c 1.94224,0 3.68907,0.38785 5.24145,1.16455 1.55441,0.77568 2.9134,1.94023 4.07794,3.2992 v -3.88249 h 3.10478 v 24.65594 h -3.10478 v -3.88249 c -0.97113,1.55239 -2.3301,2.52352 -4.07794,3.49465 -1.74681,0.77569 -3.49261,1.16252 -5.43488,1.16252 z m 0,-26.0139 v 2.91136 c -2.52352,0 -4.85362,0.97113 -6.60044,2.91136 -1.94226,1.94226 -2.91338,4.46578 -2.91338,7.37714 0,2.71795 0.97112,5.04704 2.91338,6.9893 1.74681,1.94023 4.07591,2.71794 6.60044,2.91136 v 2.91338 0 c -3.68908,0 -6.60044,-1.36099 -9.12395,-3.68907 -2.33011,-2.52352 -3.68908,-5.63133 -3.68908,-9.3194 0,-3.68806 1.35897,-6.79385 3.68908,-9.31737 2.52453,-2.3301 5.43589,-3.68806 9.12395,-3.68806 z m -44.65168,26.0139 v -3.1068 0 c 2.71794,0 4.85362,-0.97113 6.60044,-2.91136 1.94225,-1.74884 2.71997,-4.27236 2.71997,-7.18372 0,-2.91136 -0.77772,-5.24147 -2.71997,-7.18372 -1.74682,-1.74682 -3.8825,-2.71795 -6.60044,-2.71795 v -3.10478 c 3.49465,0 6.40601,1.35898 8.92952,3.68705 2.52352,2.52352 3.8825,5.63134 3.8825,9.12598 0,3.68908 -1.35898,6.79385 -3.8825,9.5118 -2.32908,2.52251 -5.43386,3.8835 -8.92952,3.8835 z m 16.50109,-0.77771 v -32.61434 h 3.1068 V 953.099 Z m 8.34928,0 v -32.61434 h 3.1068 V 953.099 Z M 695.1611,927.66838 v 3.10478 c -0.19342,0 -0.19342,0 -0.19342,0 -2.52351,0 -4.8526,0.97113 -6.59942,2.71795 -1.74884,1.94225 -2.71795,4.46577 -2.71795,7.18372 0,2.91136 0.96911,5.43488 2.71795,7.18372 1.74682,1.94023 4.07591,2.91136 6.79284,2.91136 v 3.1068 c -3.68908,0 -6.59943,-1.36099 -9.12294,-3.88451 -2.52352,-2.52352 -3.68807,-5.62931 -3.68807,-9.12396 0,-3.68907 1.16454,-6.79385 3.68807,-9.31737 2.52351,-2.71997 5.43488,-3.88249 8.92952,-3.88249 0,0 0,0 0.19342,0 z m -74.15719,26.20833 v -3.30123 c 1.35897,-0.19341 2.52351,-0.58328 3.49464,-1.35897 1.16454,-0.97113 2.32808,-2.3301 3.49262,-4.46578 l -6.98726,-6.406 v -5.24147 c 1.55238,-0.77771 2.52351,-1.35897 3.2992,-2.3301 0.77772,-0.97113 1.16455,-2.13567 1.16455,-3.49465 0,-1.16454 -0.38785,-2.3301 -1.16455,-3.10477 -0.9691,-0.97113 -1.94023,-1.35898 -3.10478,-1.35898 0,0 0,0 -0.19341,0 v -3.1068 c 0.19341,0 0.19341,0 0.38784,0 1.94226,0 3.68908,0.77771 5.24147,2.3301 1.55441,1.55239 2.3301,3.30123 2.3301,5.43488 0,1.74884 -0.58126,3.1068 -1.74682,4.66021 -0.97113,1.35897 -2.52352,2.3301 -4.6602,3.30123 l 6.79588,6.21259 3.68705,-10.29052 h 3.68907 l -5.04704,12.42518 7.37714,6.79588 -2.13365,2.3301 -6.60246,-6.01816 c -0.9691,2.3301 -2.3301,3.88249 -4.0759,5.24146 -1.55239,0.97113 -3.30124,1.55239 -5.24147,1.74682 v 0 -0.001 z m 54.5503,-25.0448 c -1.35897,-1.94023 -3.10478,-3.49262 -4.85159,-4.46375 -1.74884,-0.97112 -3.88451,-1.35897 -6.21259,-1.35897 -3.68908,0 -6.79588,1.35897 -9.3194,3.88249 -2.71794,2.71795 -3.88249,6.01817 -3.88249,9.70724 0,4.07591 1.16455,7.37714 3.88249,10.09508 2.52352,2.71795 5.63134,4.07591 9.3194,4.07591 2.32808,0 4.27032,-0.58126 6.21259,-1.55239 1.74681,-0.77771 3.29921,-2.3301 4.65818,-4.0759 h 3.88249 c -1.55239,2.71794 -3.49262,4.85159 -6.01614,6.406 -2.52351,1.55239 -5.4369,2.33011 -8.54269,2.33011 -4.85362,0 -8.73611,-1.74885 -12.03734,-5.04906 -3.30123,-3.29921 -4.85362,-7.37512 -4.85362,-12.22874 0,-2.3301 0.38987,-4.46577 1.35897,-6.60246 0.77771,-1.94023 2.13567,-3.88249 3.88249,-5.43488 1.55441,-1.55239 3.30123,-2.91136 5.24349,-3.68907 1.94023,-0.77772 4.07591,-1.16455 6.21258,-1.16455 3.29922,0 6.2126,0.77772 8.92953,2.33011 2.52352,1.74681 4.66021,3.88249 6.01816,6.79385 h -3.88451 z m -54.5503,-9.12395 v 3.1068 c -1.16455,0 -2.33011,0.38785 -3.10681,1.35898 -0.77568,0.77568 -1.16454,1.94023 -1.16454,3.2992 0,0.97113 0.19341,1.94226 0.7777,2.91339 0.58127,0.77569 1.55239,1.74682 2.91136,2.91136 0.19342,0 0.38987,-0.19342 0.58329,-0.19342 v 5.24147 l -1.74884,-1.55239 c -1.55238,0.77771 -2.91135,1.74682 -3.68907,2.91136 -0.7757,1.35897 -1.35897,2.71795 -1.35897,4.27236 0,1.94023 0.58327,3.49262 1.74883,4.85362 1.35897,1.16252 2.71795,1.74682 4.65818,1.74682 0.19544,0 0.38987,0 0.38987,0 v 3.30123 c -0.19341,0 -0.38987,0 -0.58329,0 -2.71794,0 -4.85362,-0.97113 -6.79385,-2.91339 -1.74884,-1.94023 -2.71794,-4.27033 -2.71794,-6.98727 0,-1.94225 0.58126,-3.88249 1.55238,-5.4369 1.16455,-1.74682 2.71795,-3.10478 4.66021,-3.88249 -1.55442,-1.35897 -2.52352,-2.52352 -2.91339,-3.49465 -0.58126,-1.16454 -0.9691,-2.32807 -0.9691,-3.68907 0,-2.13365 0.77569,-3.88249 2.32807,-5.43488 1.55341,-1.361 3.29921,-2.13871 5.43591,-2.33213 z m -34.3632,43.09828 v -3.1068 0 c 2.71795,0 5.04705,-0.77569 6.79588,-2.71795 1.74682,-1.94226 2.52352,-4.46577 2.52352,-7.57156 v -0.58329 c -1.16454,1.55441 -2.52352,2.91339 -4.07793,3.68908 -1.55239,0.77771 -3.29921,1.16454 -5.04704,1.16454 -0.19341,0 -0.19341,0 -0.19341,0 v -2.91136 0 c 2.3301,0 4.6602,-0.97113 6.40601,-2.91136 1.94225,-1.94226 2.91338,-4.27236 2.91338,-6.9893 0,-2.71693 -0.97113,-5.24146 -2.91338,-7.18372 -1.74682,-1.94023 -3.88249,-2.91136 -6.40601,-2.91136 v 0 -2.91136 c 1.94226,0 3.68907,0.38784 5.24146,1.16454 1.55442,0.58126 2.91339,1.94024 4.07793,3.49262 v -4.0759 h 3.10478 v 20.57902 c 0,4.46375 -1.16454,7.76498 -3.29921,10.09509 -2.13567,2.52351 -5.04906,3.68907 -8.93155,3.68907 z m 0,-34.94343 v 2.91136 c -2.71794,0 -4.6602,0.97113 -6.40599,2.71795 -1.94024,1.94226 -2.91137,4.27236 -2.91137,7.18372 0,2.71795 0.97113,5.24146 2.91137,7.18372 1.74884,1.94023 3.68907,2.91136 6.40599,2.91136 v 2.91137 c -3.49464,0 -6.60042,-1.16455 -8.92952,-3.68908 -2.52351,-2.52352 -3.68908,-5.62931 -3.68908,-9.31737 0,-3.68806 1.16455,-6.60044 3.68908,-9.12395 2.3301,-2.52352 5.43488,-3.68908 8.73612,-3.68908 0,0 0,0 0.1934,0 z m 0,31.83663 v 3.1068 c -2.71794,0 -4.85361,-0.77771 -6.79385,-1.94226 -2.13567,-1.55239 -3.30123,-3.30123 -3.88248,-5.62931 h 3.68907 c 0.38784,1.35898 1.35897,2.52352 2.52351,3.29921 1.35898,0.77771 2.52352,1.16556 4.46375,1.16556 z m -100.17413,-5.82273 v -2.91338 0 c 2.52353,0 4.66022,-1.16455 6.60145,-3.10478 1.94126,-1.94226 2.71795,-4.46578 2.71795,-7.18372 0,-2.71795 -0.7767,-5.04704 -2.71795,-6.9893 -1.94123,-1.94023 -4.07691,-2.91136 -6.406,-2.91136 -0.19443,0 -0.19443,0 -0.19443,0 v -2.91136 h 0.19443 c 1.94125,0 3.68908,0.38785 5.24147,1.16455 1.5534,0.77568 2.91237,1.94023 3.88249,3.2992 v -3.88249 h 3.10579 v 24.65594 h -3.10579 v -3.88249 c -0.97012,1.55239 -2.32909,2.52352 -3.88249,3.49465 -1.74784,0.77569 -3.49365,1.16252 -5.4359,1.16252 v 0 0.002 z m 20.77346,-0.77771 h -3.30123 v -24.65594 h 3.10579 v 2.91136 c 0.77772,-1.16252 1.5534,-1.94023 2.52352,-2.52352 0.77771,-0.58126 1.94226,-0.77569 3.10579,-0.77569 v 3.49465 c -1.94125,0.19342 -3.30022,0.77569 -4.27033,1.74682 -0.77772,0.97113 -1.16455,2.71794 -1.16455,4.85362 v 14.9487 z m 8.34726,-24.65493 h 3.10578 v 2.71795 c 0.97114,-0.96911 1.94124,-1.94024 3.30022,-2.52352 1.35998,-0.38784 2.71895,-0.77569 4.46577,-0.77569 1.74682,0 3.30022,0.38785 4.85261,0.9691 1.35998,0.77772 2.52352,1.74885 3.30124,2.91339 0.58227,0.97113 0.97011,1.94023 1.16353,3.29921 0.38886,1.16454 0.38886,2.91338 0.38886,5.24349 v 12.81201 h -3.10579 v -13.78416 c 0,-2.91136 -0.58227,-5.04703 -1.55239,-6.406 -1.16455,-1.35898 -2.91238,-1.94226 -5.43589,-1.94226 -1.5534,0 -2.71795,0.19341 -3.88249,0.77771 -0.97113,0.58126 -1.94125,1.55239 -2.52352,2.52352 -0.38886,0.77569 -0.58227,1.55239 -0.77771,2.3301 -0.19342,0.96911 -0.19342,2.3301 -0.19342,4.46375 v 12.03734 h -3.10579 v -24.65594 z m 28.92526,-2.91136 h -3.10478 v -5.04704 h 3.10478 z m -3.10478,27.56629 v -24.65594 h 3.10478 V 953.099 Z m 8.15485,-24.65493 h 3.10478 v 2.71795 c 0.97113,-0.96911 2.13567,-1.94024 3.49464,-2.52352 1.16454,-0.38784 2.71795,-0.77569 4.27033,-0.77569 1.94226,0 3.49465,0.38785 4.85362,0.9691 1.55239,0.77772 2.52352,1.74885 3.49465,2.91339 0.58126,0.97113 0.97113,1.94023 1.16454,3.29921 0.19342,1.16454 0.38785,2.91338 0.38785,5.24349 v 12.81201 h -3.10478 v -13.78416 c 0,-2.91136 -0.58328,-5.04703 -1.74884,-6.406 -1.16556,-1.35898 -2.91136,-1.94226 -5.43488,-1.94226 -1.35897,0 -2.52352,0.19341 -3.68908,0.77771 -1.16454,0.58126 -1.94225,1.55239 -2.52351,2.52352 -0.38785,0.77569 -0.77772,1.55239 -0.97113,2.3301 0,0.96911 -0.19342,2.3301 -0.19342,4.46375 v 12.03734 h -3.10478 z m -63.09605,-0.58126 v 2.91136 c -2.71794,0 -4.85261,0.97113 -6.60043,2.91136 -1.94125,1.94226 -2.91238,4.46578 -2.91238,7.37714 0,2.71795 0.97114,5.04704 2.91238,6.9893 1.74782,1.94023 3.88249,2.71794 6.60043,2.91136 v 2.91338 0 c -3.68806,0 -6.79385,-1.36099 -9.12394,-3.68907 -2.52353,-2.52352 -3.68908,-5.63133 -3.68908,-9.3194 0,-3.68806 1.35898,-6.79385 3.68908,-9.31737 2.52453,-2.3301 5.43689,-3.68806 9.12394,-3.68806 z m -27.95413,26.0139 v -3.1068 0 c 1.74681,0 3.49363,-0.38784 5.04703,-1.35897 1.35897,-0.97113 2.52353,-2.3301 3.30023,-4.07591 h 3.68907 c -1.16455,2.71795 -2.71794,4.85362 -4.85361,6.40601 -2.13467,1.35897 -4.46477,2.13365 -7.18271,2.13365 v 0 0 z m 0,-12.03734 v -2.71794 h 9.31838 c -0.58227,-2.71997 -1.74783,-4.85362 -3.30123,-6.2126 -1.55239,-1.35897 -3.68907,-2.13567 -6.01715,-2.13567 v -3.1068 c 0,0 0,0 0.19341,0 3.68908,0 6.79487,1.361 9.12497,3.88451 2.32909,2.52352 3.49363,6.01614 3.49363,10.09509 v 0.19341 z m -62.51276,-6.79588 h 13.78416 v 3.30124 h -13.78416 v 11.64747 h 13.78416 v 3.1068 h -17.08437 v -32.61434 h 17.08438 v 3.10478 H 395.9997 Z m 62.51276,-7.37511 v 3.10478 c -0.19443,0 -0.19443,0 -0.38886,0 -2.3301,0 -4.27135,0.77771 -6.01816,2.13567 -1.74682,1.55239 -2.71795,3.68908 -3.10579,6.2126 h 9.51382 v 2.71794 h -9.51382 c 0.19442,2.71795 1.16454,4.85362 2.91237,6.40601 1.74783,1.74682 3.88249,2.52352 6.60145,2.52352 v 3.1068 c -3.68908,0 -6.60145,-1.361 -9.12497,-3.88451 -2.52352,-2.52352 -3.68907,-5.62931 -3.68907,-9.12396 0,-3.88249 1.16454,-6.98727 3.68907,-9.51382 2.32909,-2.32605 5.43488,-3.4906 9.12396,-3.68503 z m -33.78091,11.64747 v 2.91137 h -10.67736 v -2.91137 z m 19.99675,13.78315 h -14.75428 v -32.61434 h 3.1058 v 29.50754 h 11.64848 z" />
      </g>
      <g
         transform="matrix(5.4922993,0,0,5.4922993,11.080492,-581.35219)"
         id="g1073">
        <path
           style="fill:#2e75a3;stroke-width:0.57627845"
           d="m 50.214844,23.845703 c -0.238162,-0.0039 -0.460136,0.04199 -0.66211,0.144531 -1.61636,0.820309 -0.200033,3.129037 -0.111328,3.820313 0.134589,0.737046 0.817868,1.938672 0.587891,1.9375 -0.275868,-0.04762 -3.743873,-6.64903 -12.503906,-4.851563 -2.259694,0.4944 -4.199128,1.452691 -5.771485,2.6875 -0.693087,0.503509 -1.293812,1.097555 -1.849609,1.69336 -3.24162,3.390425 -4.690697,7.481323 -5.017578,8.40039 -0.5139,1.424542 -3.809444,6.564297 -4.101563,9.601563 -0.246244,3.083565 -0.344118,10.688233 6.666016,11.634765 2.847138,0.38443 5.350089,-1.00372 6.455306,-3.496187 0.859348,-1.99351 0.614487,-4.229831 -0.480697,-5.292874 -0.917093,-0.890178 -2.397351,-1.305309 -3.621093,-1.142528 -1.298386,0.17271 -2.533736,0.767116 -3.144302,3.065258 -0.516945,2.023181 1.634631,3.785461 3.109145,3.655445 v 0.002 c 0.09222,4.91e-4 0.229811,8.48e-4 0.322266,-0.04492 0,0 -0.09283,0.09159 -0.322266,0.181641 h -0.002 c -0.646611,0.180515 -2.074226,0.35591 -3.675781,-1.492188 -2.152255,-2.497133 -1.072723,-6.543064 0.638672,-7.916015 1.110187,-0.915099 2.172065,-1.416199 3.095703,-1.917969 0.461934,-0.273638 0.877289,-0.547788 1.248047,-0.914063 0.231723,-0.228658 0.418137,-0.457736 0.603515,-0.640624 v -0.002 c 0.552654,-0.54704 0.785157,-0.824218 0.785157,-0.824218 0,0 0.586365,2.76668 1.685547,4.015625 1.099181,1.248415 2.430503,1.991446 2.849609,1.072265 0.418868,-0.872504 -0.851563,-4.654297 -0.851563,-4.654297 0,0 2.382042,2.31505 3.070313,2.871094 0.688278,0.555477 2.021854,1.253445 2.396484,0.01172 0.328517,-1.241121 -0.629064,-3.134878 -1.410156,-3.460938 -0.734978,-0.326551 -1.197266,-0.328125 -1.197266,-0.328125 0,0 -0.457886,-0.601572 -0.6875,-0.787109 C 38.043163,40.68948 37.998,40.689508 37.998,40.689508 c 0,0 0.415363,-0.228317 1.705078,-0.175781 1.335247,0.05291 2.394531,0.105469 2.394531,0.105469 0,0 1.188065,1.754276 1.921875,2.310547 0.688041,0.602151 2.477207,2.039267 3.119141,2.640624 0.59582,0.601663 0.96218,0.878975 1.195312,0.373047 0.187011,-0.505511 -0.127238,-1.841501 -0.951172,-2.8125 -0.870267,-0.925152 -1.788945,-1.436465 -2.109374,-1.898437 -0.273298,-0.553965 -0.457032,-0.96875 -0.457032,-0.96875 0,0 1.69902,1.251011 2.111328,1.667969 0.458661,0.370393 3.489139,2.273032 3.994141,2.597656 0.504767,0.371527 0.736328,0.142578 0.736328,0.142578 0,0 0.366606,0.278632 0.505859,0.0957 0.139276,-0.183685 0.51421,-1.424737 -0.449218,-2.166016 -1.0093,-0.788141 -1.606361,-1.160223 -1.513672,-1.251953 0.04656,-0.09146 1.058103,0.236843 1.197266,-0.03906 0.09339,-0.229417 -0.0438,-0.598506 -0.181641,-0.691406 -0.0915,-0.139465 0.279297,-0.414063 0.279297,-0.414063 0,0 0.369457,0.0025 1.888672,0.148438 1.519222,0.145889 5.104958,-0.902148 5.867187,-1.232422 1.198364,-0.519252 1.924472,-1.015769 2.070359,-1.902344 0.119791,-0.727982 -0.775219,-1.617278 -1.59961,-2.496094 -0.962256,-0.971716 -1.789062,-1.435547 -1.789062,-1.435547 0,0 -0.403724,-1.936418 -2.140625,-4.615234 -1.478933,-2.344261 -3.910996,-4.798734 -5.578125,-4.826172 z M 31.128906,51.152344 c 0.439616,0.150274 0.798743,0.302813 1,0.685499 0.313826,0.596733 0.002,1.392579 0.002,1.392579 0,0 0.0057,-0.869839 -0.248047,-1.259766 -0.175183,-0.26916 -0.412722,-0.568848 -0.753906,-0.818359 z m -0.984374,2.091797 c -0.170306,0.348444 -0.865314,0.151017 -0.683594,-0.304735 0.195384,-0.490023 0.960172,-0.261139 0.683594,0.304735 z"
           transform="matrix(0.26458333,0,0,0.26458333,0,280.06665)"
           id="path1061"
           inkscape:connector-curvature="0"
           sodipodi:nodetypes="cccccccccscssccccccccccccccccccccccccccccccccccccccccssccccccscsccsss" />
        <path
           d="m 10.317809,280.94756 0.774991,-0.025 c 0.415997,-0.0135 0.985598,0.28142 0.950222,0.81386 l -0.219962,3.31095 c -0.02754,0.41516 -0.207746,0.63396 -0.536923,0.63235 l -1.021478,-0.005 c -0.4162091,-0.002 -0.5899281,-0.26651 -0.6172759,-0.68166 L 9.4318975,281.7231 c -0.027231,-0.41526 0.2955222,-0.75644 0.8859115,-0.77554 z"
           inkscape:connector-curvature="0"
           sodipodi:nodetypes="sssssssss"
           id="path2950"
           style="fill:#ffcc00;stroke-width:0.05832281" />
        <path
           d="m 4.1579762,283.22855 0.612943,-0.53581 c 0.3289779,-0.28756 0.9880136,-0.42682 1.3137088,0.0293 l 2.0250744,2.83628 c 0.2538984,0.35566 0.2531735,0.65323 -0.015382,0.8708 l -0.8333269,0.67518 c -0.3396002,0.27504 -0.65668,0.17581 -0.9551687,-0.14334 l -2.3513684,-2.51321 c -0.2985838,-0.31907 -0.2634734,-0.81104 0.2035201,-1.21916 z"
           inkscape:connector-curvature="0"
           sodipodi:nodetypes="sssssssss"
           id="path2954"
           style="fill:#ff6600;stroke-width:0.06124601" />
        <path
           d="m 1.2192329,289.09689 0.1343157,-0.75665 c 0.072066,-0.40607 0.4747307,-0.8981 0.9842348,-0.75482 l 3.1680289,0.89085 c 0.3971799,0.11167 0.5726305,0.33118 0.5036965,0.65003 l -0.2140992,0.98947 c -0.087232,0.40314 -0.3793308,0.51736 -0.7878013,0.45897 l -3.2170544,-0.46028 c -0.4084583,-0.0584 -0.6735873,-0.44131 -0.571321,-1.01757 z"
           inkscape:connector-curvature="0"
           sodipodi:nodetypes="sssssssss"
           id="path2958"
           style="fill:#aad400;stroke-width:0.05782014" />
        <path
           d="m 1.6781799,294.5985 -0.2990493,-0.52803 c -0.160512,-0.2835 -0.1630136,-0.78545 0.2191421,-0.95439 l 2.3765168,-1.05104 c 0.2979792,-0.1317 0.5152218,-0.0865 0.633725,0.14232 l 0.3676666,0.70986 c 0.1497877,0.2892 0.029576,0.50567 -0.2484623,0.67548 l -2.1896312,1.33779 c -0.278079,0.16983 -0.6320775,0.0702 -0.8599077,-0.33199 z"
           inkscape:connector-curvature="0"
           sodipodi:nodetypes="sssssssss"
           id="path2962"
           style="fill:#ff2a2a;stroke-width:0.04565773" />
      </g>
    </g>
  </g>
</svg>
