<?xml version="1.0" encoding="UTF-8" standalone="no"?>
<svg
   xmlns:dc="http://purl.org/dc/elements/1.1/"
   xmlns:cc="http://creativecommons.org/ns#"
   xmlns:rdf="http://www.w3.org/1999/02/22-rdf-syntax-ns#"
   xmlns:svg="http://www.w3.org/2000/svg"
   xmlns="http://www.w3.org/2000/svg"
   xmlns:sodipodi="http://sodipodi.sourceforge.net/DTD/sodipodi-0.dtd"
   xmlns:inkscape="http://www.inkscape.org/namespaces/inkscape"
   viewBox="0 0 48 48"
   version="1.1"
   id="svg985"
   sodipodi:docname="chamilo-install.svg"
   inkscape:version="0.92.3 (2405546, 2018-03-11)">
  <metadata
     id="metadata989">
    <rdf:RDF>
      <cc:Work
         rdf:about="">
        <dc:format>image/svg+xml</dc:format>
        <dc:type
           rdf:resource="http://purl.org/dc/dcmitype/StillImage" />
        <dc:title></dc:title>
      </cc:Work>
    </rdf:RDF>
  </metadata>
  <sodipodi:namedview
     pagecolor="#ffffff"
     bordercolor="#666666"
     borderopacity="1"
     objecttolerance="10"
     gridtolerance="10"
     guidetolerance="10"
     inkscape:pageopacity="0"
     inkscape:pageshadow="2"
     inkscape:window-width="1366"
     inkscape:window-height="713"
     id="namedview987"
     showgrid="false"
     inkscape:zoom="5.6568543"
     inkscape:cx="45.961152"
     inkscape:cy="13.29117"
     inkscape:window-x="0"
     inkscape:window-y="27"
     inkscape:window-maximized="1"
     inkscape:current-layer="svg985" />
  <defs
     id="defs957">
    <linearGradient
       y2="2.392"
       x2="0"
       y1="5.383"
       gradientUnits="userSpaceOnUse"
       id="3"
       gradientTransform="matrix(1.0463395,0,0,1.0463395,85.137561,41.069216)">
      <stop
         stop-color="#040404"
         id="stop922" />
      <stop
         offset="1"
         stop-color="#121212"
         stop-opacity=".908"
         id="stop924" />
    </linearGradient>
    <linearGradient
       gradientUnits="userSpaceOnUse"
       y2="-39.39"
       x2="0"
       y1="-15.394"
       id="4">
      <stop
         stop-color="#4da70e"
         id="stop927" />
      <stop
         offset="1"
         stop-color="#9ded46"
         id="stop929" />
    </linearGradient>
    <linearGradient
       id="1"
       x1="-61.865"
       y1="-.386"
       x2="-61.694"
       y2="-31.865"
       gradientUnits="userSpaceOnUse"
       gradientTransform="matrix(1.0463395,0,0,1.0463395,85.137561,41.069216)">
      <stop
         stop-color="#bbbec4"
         id="stop952"
         style="stop-color:#b3ccff;stop-opacity:1" />
      <stop
         offset="1"
         stop-color="#dddfe2"
         id="stop954"
         style="stop-color:#e6f0ff;stop-opacity:1" />
    </linearGradient>
  </defs>
  <path
     d="m 0.44684187,41.147691 0.36621883,5.772655 c 0,0.598507 0.4896869,1.080869 1.0986565,1.080869 H 40.232855 c 0.60897,0 1.098656,-0.482362 1.098656,-1.080869 L 41.69773,41.147691 H 0.45102723"
     id="path959"
     style="fill:#003670;fill-opacity:1;stroke-width:1.04633951"
     inkscape:connector-curvature="0" />
  <path
     d="M 3.7428113,7.3038403 H 38.037635 c 0.608969,0 1.098656,0.4823625 1.098656,1.0808687 l 2.564578,32.583012 c 0,0.598506 -0.489687,1.080869 -1.098656,1.080869 H 1.5423593 c -0.60896956,0 -1.09865645,-0.482363 -1.09865645,-1.080869 L 2.6410158,8.384709 c 0,-0.5985062 0.4896869,-1.0808687 1.0986565,-1.0808687"
     id="path961"
     style="fill:url(#1);stroke-width:1.04633951"
     inkscape:connector-curvature="0" />
  <rect
     width="16.898382"
     height="1.1331856"
     x="12.689016"
     y="44.725124"
     rx="0.56711602"
     id="rect963"
     style="fill:#ffffff;fill-opacity:1;stroke-width:1.04633951" />
  <circle
     cy="45.332005"
     cx="36.597874"
     id="ellipse965"
     style="opacity:0.45199998;fill:url(#3);stroke-width:1.04633951"
     r="1.5642775" />
  <g
     id="g971"
     style="fill:#e3e8ea;stroke-width:1.31700003"
     transform="matrix(1.0463395,0,0,1.0463395,85.137561,41.069216)">
    <path
       d="m -46.39,4.113 c 0.034,0 0.063,-0.012 0.088,-0.037 0.025,-0.025 0.037,-0.054 0.037,-0.088 V 3.365 c 0,-0.034 -0.012,-0.063 -0.037,-0.088 -0.025,-0.025 -0.054,-0.037 -0.088,-0.037 -0.034,0 -0.063,0.012 -0.088,0.037 -0.025,0.025 -0.037,0.054 -0.037,0.088 v 0.623 c 0,0.034 0.012,0.063 0.037,0.088 0.025,0.025 0.054,0.037 0.088,0.037"
       id="path967"
       inkscape:connector-curvature="0"
       style="opacity:1;fill:#ffffff" />
    <path
       d="m -45.724,3.779 c -0.052,-0.104 -0.126,-0.192 -0.221,-0.263 -0.027,-0.021 -0.058,-0.029 -0.093,-0.024 -0.034,0.005 -0.062,0.021 -0.082,0.049 -0.021,0.027 -0.029,0.058 -0.024,0.092 0.005,0.034 0.021,0.062 0.048,0.082 0.064,0.048 0.113,0.107 0.147,0.176 0.035,0.069 0.052,0.143 0.052,0.222 0,0.068 -0.013,0.132 -0.039,0.193 -0.026,0.061 -0.062,0.114 -0.107,0.159 -0.045,0.045 -0.098,0.08 -0.159,0.107 -0.061,0.026 -0.126,0.039 -0.193,0.039 -0.068,0 -0.132,-0.013 -0.193,-0.039 -0.061,-0.026 -0.114,-0.062 -0.159,-0.107 -0.045,-0.045 -0.08,-0.098 -0.107,-0.159 -0.026,-0.061 -0.039,-0.126 -0.039,-0.193 0,-0.079 0.017,-0.153 0.052,-0.222 0.035,-0.069 0.084,-0.128 0.148,-0.176 0.027,-0.021 0.043,-0.048 0.048,-0.082 0.005,-0.034 -0.003,-0.065 -0.024,-0.092 -0.02,-0.028 -0.047,-0.044 -0.081,-0.049 -0.034,-0.005 -0.065,0.004 -0.093,0.024 -0.095,0.071 -0.168,0.158 -0.221,0.263 -0.052,0.105 -0.078,0.216 -0.078,0.334 0,0.101 0.02,0.198 0.059,0.29 0.04,0.092 0.093,0.172 0.16,0.239 0.067,0.067 0.146,0.12 0.239,0.16 0.092,0.04 0.189,0.059 0.29,0.059 0.101,0 0.198,-0.02 0.29,-0.059 0.092,-0.04 0.172,-0.093 0.239,-0.16 0.067,-0.067 0.12,-0.146 0.16,-0.239 0.04,-0.092 0.059,-0.189 0.059,-0.29 0,-0.118 -0.026,-0.229 -0.078,-0.334"
       id="path969"
       inkscape:connector-curvature="0"
       style="opacity:1;fill:#ffffff" />
  </g>
  <path
     style="fill:#2e75a3;stroke-width:0.22661844"
     d="m 25.849609,21.900391 c -0.09366,-0.0015 -0.18034,0.01632 -0.259765,0.05664 -0.635625,0.322585 -0.0798,1.23011 -0.04492,1.501953 0.05293,0.289834 0.322859,0.762179 0.232422,0.761719 -0.108478,-0.01868 -1.473133,-2.61505 -4.917969,-1.908203 -0.888613,0.194415 -1.65121,0.57106 -2.269531,1.056641 -0.272553,0.198002 -0.507999,0.433666 -0.726563,0.667968 -1.27475,1.333266 -1.844112,2.941319 -1.972656,3.302735 -0.202089,0.560203 -1.498407,2.581008 -1.613281,3.77539 -0.09683,1.2126 -0.124145,4.127179 2.621094,4.576172 0.639852,0.10465 1.104309,-0.07997 1.630859,-0.300781 1.248095,-0.817173 1.291075,-2.501716 0.654909,-3.129806 -0.389545,-0.384599 -0.906774,-0.494601 -1.359987,-0.475663 -0.514631,0.0215 -1.022785,0.308168 -1.262887,1.211895 -0.203286,0.79561 0.66937,1.481883 1.249215,1.430683 0.03627,1.84e-4 0.0906,3.62e-4 0.126953,-0.01758 0,0 -0.03835,0.0371 -0.126953,0.07227 -0.001,4.1e-4 -9.06e-4,-4.1e-4 -0.002,0 -0.254705,0.07085 -0.816254,0.139993 -1.445313,-0.585938 -0.846363,-0.981984 -0.421044,-2.573372 0.251953,-3.113281 0.436575,-0.359849 0.853581,-0.556592 1.216797,-0.753906 0.181653,-0.107606 0.34639,-0.215334 0.492188,-0.359375 0.09112,-0.08994 0.16343,-0.180046 0.236328,-0.251953 0.218472,-0.216176 0.308594,-0.326172 0.308594,-0.326172 0,0 0.229862,1.088927 0.662109,1.580078 0.432248,0.490925 0.956283,0.783333 1.121094,0.421875 0.164718,-0.343106 -0.333985,-1.830078 -0.333985,-1.830078 0,0 0.936372,0.910242 1.207032,1.128906 0.270662,0.218437 0.794084,0.491873 0.941406,0.0039 0.129188,-0.48807 -0.247527,-1.23311 -0.554688,-1.361328 -0.289026,-0.128353 -0.46875,-0.128906 -0.46875,-0.128906 0,0 -0.181189,-0.23563 -0.271484,-0.308594 -0.108202,-0.07306 -0.126953,-0.07227 -0.126953,-0.07227 0,0 0.164702,-0.09102 0.671875,-0.07031 0.525079,0.0208 0.941406,0.04102 0.941406,0.04102 0,0 0.467293,0.691401 0.755859,0.910156 0.270569,0.236789 0.974127,0.800639 1.226563,1.037109 0.234303,0.236605 0.379025,0.34736 0.470703,0.148438 0.07354,-0.198787 -0.051,-0.725578 -0.375,-1.107422 -0.342228,-0.36381 -0.704069,-0.564418 -0.830078,-0.746094 -0.107465,-0.217834 -0.179686,-0.380859 -0.179688,-0.380859 0,0 0.667941,0.49229 0.830079,0.65625 0.180365,0.1457 1.373675,0.893817 1.572265,1.021484 0.198497,0.146018 0.289063,0.05469 0.289063,0.05469 0,0 0.144452,0.109103 0.199219,0.03711 0.05477,-0.07223 0.201128,-0.56007 -0.177735,-0.851562 -0.396902,-0.309937 -0.632153,-0.454169 -0.595703,-0.490235 0.01832,-0.03593 0.417931,0.0909 0.472656,-0.01758 0.03673,-0.09022 -0.01806,-0.234956 -0.07227,-0.271484 -0.03599,-0.05479 0.109375,-0.16211 0.109375,-0.16211 0,0 0.144761,0.0012 0.742187,0.05859 0.597426,0.05742 2.103526,-0.441641 2.412109,-0.548828 0.308358,-0.107189 0.472657,-0.179686 0.472657,-0.179688 0,0 0.180364,-0.08885 0.236328,-0.396484 v -0.05469 l 0.002,-0.05469 c -0.01666,-0.28965 -0.306671,-0.634877 -0.630859,-0.980469 -0.378402,-0.382121 -0.703125,-0.564453 -0.703125,-0.564453 0,0 -0.15877,-0.761022 -0.841797,-1.814453 -0.581583,-0.921869 -1.53777,-1.887641 -2.19336,-1.898437 z M 18.34375,32.638672 c 0.344079,0.03816 0.552282,0.421482 0.394531,0.816406 0.0075,-0.366793 -0.05032,-0.622629 -0.394531,-0.816406 z m -0.427734,0.50586 c 0.183756,0.09587 0.07062,0.33409 -0.05078,0.345702 -0.175912,0.01683 -0.241346,-0.08028 -0.214844,-0.207031 0.02828,-0.135233 0.134246,-0.207219 0.265626,-0.138671 z"
     id="path1756"
     inkscape:connector-curvature="0"
     sodipodi:nodetypes="cccccccccscssccccccccccccccccccccccccccccccccccccccccccccccccccssss" />
  <path
     style="fill:#eddf0e;stroke-width:0.08668398"
     id="rect3215"
     sodipodi:nodetypes="sssssssss"
     inkscape:connector-curvature="0"
     d="m 21.438486,13.83232 1.151853,-0.03722 c 0.618288,-0.01999 1.464873,0.418257 1.412295,1.209616 l -0.326924,4.920998 c -0.04094,0.617042 -0.30877,0.942245 -0.798018,0.939843 l -1.518202,-0.0077 c -0.618603,-0.0032 -0.876798,-0.396112 -0.917444,-1.013136 L 20.121774,14.985 c -0.04047,-0.617196 0.439228,-1.124278 1.316712,-1.152663 z" />
  <path
     style="fill:#fd6600;stroke-width:0.09102865"
     id="path3223"
     sodipodi:nodetypes="sssssssss"
     inkscape:connector-curvature="0"
     d="m 12.283251,17.2225 0.911005,-0.796367 c 0.488953,-0.427392 1.468464,-0.634364 1.952537,0.0435 l 3.009826,4.215497 c 0.377364,0.528609 0.376287,0.970892 -0.02286,1.294253 l -1.238559,1.0035 c -0.50474,0.408786 -0.976009,0.261303 -1.419647,-0.21303 L 11.980764,19.034512 C 11.536985,18.560294 11.589169,17.829076 12.283251,17.2225 Z" />
  <path
     style="fill:#a4dc2d;stroke-width:0.08593687"
     id="path3227"
     sodipodi:nodetypes="sssssssss"
     inkscape:connector-curvature="0"
     d="m 7.915458,25.944477 0.1996304,-1.124591 c 0.1071104,-0.603529 0.7055823,-1.334828 1.4628477,-1.12187 l 4.7085749,1.324056 c 0.590321,0.165962 0.851089,0.492217 0.748634,0.966123 l -0.318211,1.470623 c -0.12965,0.599183 -0.563791,0.768949 -1.170892,0.682167 L 8.7646008,27.456872 C 8.1575176,27.370006 7.7634619,26.800967 7.915458,25.944477 Z" />
  <path
     style="fill:#ef3e3e;stroke-width:0.06786013"
     id="path3231"
     sodipodi:nodetypes="sssssssss"
     inkscape:connector-curvature="0"
     d="M 8.5975909,34.121419 8.1531202,33.336614 C 7.9145546,32.915265 7.9108365,32.169224 8.4788267,31.918131 l 3.5321673,-1.562142 c 0.442881,-0.195742 0.765764,-0.128523 0.941893,0.211531 l 0.546455,1.055047 c 0.222626,0.429828 0.04396,0.751574 -0.369285,1.003947 l -3.2544032,1.98834 C 9.4623507,34.867259 8.9362102,34.71912 8.5975909,34.121419 Z" />
  <g
     id="g981"
     transform="matrix(0.68142228,0,0,0.68142228,-14.99648,22.697116)">
    <circle
       style="fill:url(#4)"
       id="circle977"
       cx="-46.786999"
       cy="-27.393999"
       r="12"
       transform="matrix(1.04635,0,0,1.04635,122.33,15.345)" />
    <path
       style="fill:#ffffff;fill-opacity:0.99632353"
       inkscape:connector-curvature="0"
       id="path979"
       d="m 74.874,-11.219 2.7,-2.7 2.1,2.1 -6.3,6.3 -6.3,-6.3 2.1,-2.1 2.7,2.7 v -9.9 h 3 v 9.9" />
  </g>
  <path
     style="fill:#8bb800;fill-opacity:1;stroke-width:1.04633951"
     d="m 13.256132,44.725124 h 9.764151 v 1.133186 h -9.764151 c -0.314182,0 -0.567116,-0.2527 -0.567116,-0.566593 0,-0.313892 0.252934,-0.566593 0.567116,-0.566593 z"
     id="rect1667"
     inkscape:connector-curvature="0"
     sodipodi:nodetypes="sccsss" />
</svg>
