<?xml version="1.0" encoding="utf-8"?>
<!-- Generator: Adobe Illustrator 20.1.0, SVG Export Plug-In . SVG Version: 6.00 Build 0)  -->
<svg version="1.1" id="Layer_1" xmlns="http://www.w3.org/2000/svg" xmlns:xlink="http://www.w3.org/1999/xlink" x="0px" y="0px"
	 viewBox="0 0 903 459" style="enable-background:new 0 0 903 459;" xml:space="preserve">
<style type="text/css">
	.st0{fill:#9AADD7;}
	.st1{fill:#717E9C;}
	.st2{fill:#7884A0;}
	.st3{fill:#F9FD91;}
	.st4{fill:#F0F48C;}
</style>
<rect x="1" class="st0" width="903.1" height="459.1"/>
<polygon class="st1" points="527.5,459.5 527.5,334.1 364.8,234 48.1,459.5 "/>
<polygon class="st1" points="904.2,246 732.2,142.6 287.1,459.8 904.2,459.8 "/>
<polygon class="st1" points="394.7,459.5 106.3,254 0.1,332.4 0.1,459.5 "/>
<polygon class="st2" points="-0.3,366.9 133.8,274.2 105.1,255.7 -0.3,332.9 "/>
<polygon class="st2" points="370.5,459.2 771.6,168.7 732.2,142.6 292,459.2 "/>
<polygon class="st2" points="102.8,459.5 392.8,252.6 365.3,233.5 43.6,459.5 "/>
<path class="st3" d="M43.3,0.4c30.1,78,105.7,133.3,194.3,133.3S401.8,78.3,431.8,0.4H43.3z"/>
<g>
	<g>
		<path class="st4" d="M267.4,0.4L126.7,101.6c32.1,20.3,70.1,32,110.9,32c88.6,0,164.2-55.3,194.3-133.3L267.4,0.4L267.4,0.4z"/>
	</g>
</g>
</svg>
